<?xml version="1.0" encoding="UTF-8" standalone="no"?>
<svg
   xmlns:dc="http://purl.org/dc/elements/1.1/"
   xmlns:cc="http://creativecommons.org/ns#"
   xmlns:rdf="http://www.w3.org/1999/02/22-rdf-syntax-ns#"
   xmlns:svg="http://www.w3.org/2000/svg"
   xmlns="http://www.w3.org/2000/svg"
   xmlns:sodipodi="http://sodipodi.sourceforge.net/DTD/sodipodi-0.dtd"
   xmlns:inkscape="http://www.inkscape.org/namespaces/inkscape"
   x="0"
   y="0"
   width="203.0699mm"
   height="220.2862mm"
   overflow="inherit"
   viewBox="0, 0, 767.5085, 832.5778"
   preserveAspectRatio="xMidYMid"
   font-size="0"
   xml:space="default"
   version="1.1"
   id="svg8167"
   sodipodi:docname="ComplexDrawing.svg"
   inkscape:version="0.92.1 r15371">
  <metadata
     id="metadata8173">
    <rdf:RDF>
      <cc:Work
         rdf:about="">
        <dc:format>image/svg+xml</dc:format>
        <dc:type
           rdf:resource="http://purl.org/dc/dcmitype/StillImage" />
      </cc:Work>
    </rdf:RDF>
  </metadata>
  <defs
     id="defs8171" />
  <sodipodi:namedview
     pagecolor="#ffffff"
     bordercolor="#666666"
     borderopacity="1"
     objecttolerance="10"
     gridtolerance="10"
     guidetolerance="10"
     inkscape:pageopacity="0"
     inkscape:pageshadow="2"
     inkscape:window-width="1640"
     inkscape:window-height="1005"
     id="namedview8169"
     showgrid="false"
     inkscape:zoom="1.1338281"
     inkscape:cx="377.3278"
     inkscape:cy="419.6728"
     inkscape:window-x="0"
     inkscape:window-y="0"
     inkscape:window-maximized="0"
     inkscape:current-layer="svg8167" />
  <g
     transform="translate(305.0482, 422.9229)"
     id="HlrExport"
     xml:space="default">
    <g
       stroke="#000000"
       stroke-width="0.5"
       id="VisibleSharp"
       xml:space="default"
       style="fill:none;">
      <path
         d="M-167.6094 -88.38895 L-267.253 -30.85971"
         xml:space="default"
         id="path7253" />
      <path
         d="M-136.063 -124.2056 A173.8583 100.3771 0 0 0 -173.8583 -61.71943"
         xml:space="default"
         id="path7255" />
      <path
         d="M52.91339 -354.5781 A52.91339 30.54956 0 1 0 -52.91339 -354.5781 A52.91339 30.54956 0 0 0 -37.41541 -332.9763 A52.91339 30.54956 0 0 0 52.91339 -354.5781 z"
         xml:space="default"
         id="path7257" />
      <path
         d="M53.18267 -321.0949 A75.59055 43.64222 0 0 0 52.91339 -321.2481"
         xml:space="default"
         id="path7259" />
      <path
         d="M52.32561 -210.86 A52.91339 30.54956 0 0 0 52.91339 -215.4008"
         xml:space="default"
         id="path7261" />
      <path
         d="M59.42158 -221.8813 A60.47244 34.91378 0 0 0 52.91339 -232.3034"
         xml:space="default"
         id="path7263" />
      <path
         d="M37.14721 -250.1174 A52.91339 30.54956 0 0 0 -37.68171 -249.8088"
         xml:space="default"
         id="path7265" />
      <path
         d="M-43.02689 -203.8289 A60.47244 34.91378 0 0 0 -42.76047 -203.6741 A60.47244 34.91378 0 0 0 60.47244 -228.3619 A60.47244 34.91378 0 0 0 52.91339 -245.2644"
         xml:space="default"
         id="path7267" />
      <path
         d="M52.91339 -259.22 L53.18267 -259.3755 L53.18267 -321.0949 M52.91339 -320.9395 L53.18267 -321.0949"
         xml:space="default"
         id="path7269" />
      <path
         d="M69.218 -287.1493 A98.26772 56.73489 0 0 0 53.18267 -294.5857"
         xml:space="default"
         id="path7271" />
      <path
         d="M95.94344 -240.6284 L95.94344 -302.5793"
         xml:space="default"
         id="path7273" />
      <path
         d="M98.26772 -228.3619 A98.26772 56.73489 0 0 0 53.18267 -276.0698"
         xml:space="default"
         id="path7275" />
      <path
         d="M69.218 -268.6335 L69.218 -287.1493 L95.94344 -302.5793 A136.063 78.55601 0 0 0 53.18267 -319.1843"
         xml:space="default"
         id="path7277" />
      <path
         d="M37.14721 -311.8369 A52.91339 30.54956 0 0 0 -52.91339 -290.0813 A52.91339 30.54956 0 0 0 -37.68171 -268.6344"
         xml:space="default"
         id="path7279" />
      <path
         d="M-53.71717 -259.3763 L-37.68171 -268.6344 M-37.68171 -206.9149 L-37.68171 -268.6344 M-53.71717 -197.6568 L-37.68171 -206.9149"
         xml:space="default"
         id="path7281" />
      <path
         d="M-69.75251 -188.3988 A98.26772 56.73489 0 0 0 -69.48577 -188.2442 A98.26772 56.73489 0 0 0 98.26772 -228.3619"
         xml:space="default"
         id="path7283" />
      <path
         d="M115.5824 -172.7135 A15.11811 8.728445 240 0 0 118.7134 -179.6342"
         xml:space="default"
         id="path7285" />
      <path
         d="M95.94344 -86.56128 L103.9681 -91.19431 M95.94344 -86.3298 L95.94344 -86.56128 M95.94344 -86.3298 L95.94344 -86.56128 L103.9681 -91.19431"
         xml:space="default"
         id="path7287" />
      <path
         d="M103.9681 -112.7961 A7.559055 4.364223 180 0 1 102.0147 -115.7239 A7.559055 4.364223 180 0 1 114.6448 -118.9603"
         xml:space="default"
         id="path7289" />
      <path
         d="M119.9932 -122.0482 L114.6448 -118.9603 L114.6448 -97.35854 M103.9681 -97.04994 A7.559055 4.364223 180 0 1 114.6448 -97.35854 M103.9681 -97.04994 A7.559055 4.364223 180 0 1 114.6448 -97.35854 L122.6688 -101.9912 L122.6688 -132.8509"
         xml:space="default"
         id="path7291" />
      <path
         d="M119.9932 -131.3062 L119.9932 -122.0482 M96.75671 -120.3529 A15.11811 8.728445 180 0 1 119.9932 -122.0482"
         xml:space="default"
         id="path7293" />
      <path
         d="M98.61968 -118.9661 A15.11811 8.728445 180 0 1 95.94344 -121.2059"
         xml:space="default"
         id="path7295" />
      <path
         d="M95.94344 -128.7578 A15.11811 8.728445 180 0 1 119.9932 -131.3062 L122.6688 -132.8509 A173.8583 100.3771 0 0 0 95.94344 -145.4284"
         xml:space="default"
         id="path7297" />
      <path
         d="M95.94344 -160.625 L160.0845 -123.5932 M95.94344 -160.625 L160.0845 -123.5932"
         xml:space="default"
         id="path7299" />
      <path
         d="M95.94344 -168.1974 A15.11811 8.728445 240 0 0 104.8922 -166.5415 A15.11811 8.728445 240 0 0 108.0233 -173.4622 A15.11811 8.728445 240 0 0 98.26772 -191.3913"
         xml:space="default"
         id="path7301" />
      <path
         d="M118.7134 -179.6342 A15.11811 8.728445 240 0 0 100.4642 -198.8988"
         xml:space="default"
         id="path7303" />
      <path
         d="M118.6544 -178.3726 L186.8098 -139.023"
         xml:space="default"
         id="path7305" />
      <path
         d="M179.1263 -143.4591 C179.1263 -143.4591 180.0604 -143.7816 181.9747 -144.3313 C181.9747 -144.3313 182.9393 -144.5902 184.9119 -145.0121 C184.9119 -145.0121 185.9052 -145.207 187.9327 -145.5003 C187.9327 -145.5003 188.953 -145.6308 191.0318 -145.795 C191.0318 -145.795 192.0773 -145.8609 194.2038 -145.8957 C194.2038 -145.8957 195.2726 -145.8969 197.443 -145.8023 C197.443 -145.8023 198.5334 -145.7388 200.7439 -145.5149 C200.7439 -145.5149 201.8538 -145.3868 204.1006 -145.034 C204.1006 -145.034 205.2282 -144.8416 207.5074 -144.3605 C207.5074 -144.3605 208.6507 -144.104 210.9582 -143.4956 C210.9582 -143.4956 212.1151 -143.1755 214.447 -142.4407 C214.447 -142.4407 215.6156 -142.0576 217.9677 -141.1976 C217.9677 -141.1976 219.1459 -140.7522 221.514 -139.7686 C221.514 -139.7686 222.6997 -139.2616 225.0796 -138.1563 C225.0796 -138.1563 226.2706 -137.5886 228.658 -136.3635 C228.658 -136.3635 229.8523 -135.7362 232.2428 -134.3936"
         xml:space="default"
         id="path7307" />
      <path
         d="M253.6263 -115.8781 L253.6263 -78.84843 M256.3257 -80.40691 L253.6263 -78.84843 M256.3257 -139.0398 L256.3257 -80.40691"
         xml:space="default"
         id="path7309" />
      <path
         d="M213.5351 -114.3347 L256.3257 -139.0398 M213.5351 -114.3347 L213.5351 -108.1627 C213.5351 -108.1627 213.5351 -107.8968 213.5795 -107.3949 C213.5795 -107.3949 213.6089 -107.1493 213.7116 -106.6915 C213.7116 -106.6915 213.7702 -106.4687 213.9309 -106.0604 C213.9309 -106.0604 213.9747 -105.9618 214.0732 -105.7746 C214.0732 -105.7746 214.1242 -105.6829 214.2373 -105.5102 C214.2373 -105.5102 214.2952 -105.4263 214.422 -105.27 C214.422 -105.27 214.4871 -105.1938 214.6285 -105.0536 C214.6285 -105.0536 214.701 -104.9856 214.8571 -104.8624 C214.8571 -104.8624 214.937 -104.803 215.1081 -104.6981 C215.1081 -104.6981 215.1842 -104.6545 215.3449 -104.5785 C215.3449 -104.5785 215.4267 -104.5424 215.599 -104.4821 C215.599 -104.4821 215.6866 -104.454 215.8704 -104.4105 C215.8704 -104.4105 215.9638 -104.391 216.1593 -104.3653 C216.1593 -104.3653 216.2547 -104.3553 216.4535 -104.3484 C216.4535 -104.3484 216.5543 -104.3473 216.7636 -104.3592 C216.7636 -104.3592 216.8695 -104.3676 217.0887 -104.3994 C217.0887 -104.3994 217.1994 -104.4178 217.4276 -104.4703 C217.4276 -104.4703 217.5426 -104.4993 217.7786 -104.5732 C217.7786 -104.5732 217.8974 -104.6129 218.1396 -104.7087 C218.1396 -104.7087 218.2613 -104.7593 218.5079 -104.8768 C218.5079 -104.8768 218.6315 -104.9382 218.8802 -105.0767 L245.6071 -120.5075 C245.6071 -120.5075 245.7785 -120.6065 246.1209 -120.7851 C246.1209 -120.7851 246.2918 -120.8711 246.6317 -121.0231 C246.6317 -121.0231 246.8011 -121.0958 247.1367 -121.2206 C247.1367 -121.2206 247.3037 -121.2795 247.6332 -121.3768 C247.6332 -121.3768 247.797 -121.422 248.1188 -121.4917 C248.1188 -121.4917 248.2786 -121.5231 248.5915 -121.5654 C248.5915 -121.5654 248.7467 -121.5831 249.0493 -121.5983 C249.0493 -121.5983 249.1992 -121.6026 249.4905 -121.5913 C249.4905 -121.5913 249.6599 -121.5809 249.9861 -121.5332 C249.9861 -121.5332 250.1469 -121.505 250.4551 -121.4227 C250.4551 -121.4227 250.6069 -121.3773 250.8965 -121.2614 C250.8965 -121.2614 251.0388 -121.1993 251.309 -121.0508 C251.309 -121.0508 251.4303 -120.9791 251.6604 -120.816 C251.6604 -120.816 251.7733 -120.7311 251.9862 -120.5419 C251.9862 -120.5419 252.0905 -120.444 252.2859 -120.229 C252.2859 -120.229 252.3813 -120.1182 252.5588 -119.8774 C252.5588 -119.8774 252.6413 -119.7593 252.7936 -119.5057 C252.7936 -119.5057 252.8676 -119.3759 253.0024 -119.0984 C253.0024 -119.0984 253.0675 -118.9566 253.1841 -118.6547 C253.1841 -118.6547 253.2401 -118.5006 253.3375 -118.1737 C253.3375 -118.1737 253.3837 -118.0072 253.4605 -117.6552 C253.4605 -117.6552 253.4963 -117.4761 253.5512 -117.099 C253.5512 -117.099 253.5757 -116.9075 253.6072 -116.5061 C253.6072 -116.5061 253.6135 -116.4043 253.6215 -116.1963 C253.6215 -116.1963 253.6247 -116.0917 253.6263 -115.8781"
         xml:space="default"
         id="path7311" />
      <path
         d="M229.4577 -83.32123 A37.79528 21.82111 180 0 1 248.382 -102.2278 M305.0482 -83.32123 A37.79528 21.82111 180 1 1 229.4577 -83.32123 M293.9782 -98.75108 A37.79528 21.82111 180 0 1 305.0482 -83.32123 M280.3451 -103.7914 A37.79528 21.82111 180 0 1 293.9782 -98.75108"
         xml:space="default"
         id="path7313" />
      <path
         d="M277.6992 -151.3799 L277.6992 -92.74694"
         xml:space="default"
         id="path7315" />
      <path
         d="M277.6992 -151.3799 L347.1616 -191.484 L347.1616 -12.49872 M213.5351 64.65057 L347.1616 -12.49872 M213.5351 58.47858 L213.5351 64.65057 M213.5351 58.47858 C213.5351 58.47858 213.5351 58.21268 213.5795 57.65951 C213.5795 57.65951 213.6089 57.37985 213.7116 56.80355 C213.7116 56.80355 213.7702 56.51304 213.9309 55.9193 C213.9309 55.9193 214.0185 55.62078 214.2373 55.01522 C214.2373 55.01522 214.2915 54.87423 214.4093 54.59128 C214.4093 54.59128 214.4698 54.44969 214.6005 54.16596 C214.6005 54.16596 214.6674 54.02406 214.8109 53.74021 C214.8109 53.74021 214.8843 53.59834 215.0408 53.31516 C215.0408 53.31516 215.1208 53.17373 215.2905 52.89211 C215.2905 52.89211 215.377 52.75159 215.5601 52.47256 C215.5601 52.47256 215.6532 52.33348 215.8496 52.05823 C215.8496 52.05823 215.9495 51.92119 216.1593 51.65101 C216.1593 51.65101 216.2547 51.53082 216.4535 51.29438 C216.4535 51.29438 216.5543 51.17694 216.7636 50.94717 C216.7636 50.94717 216.8695 50.83329 217.0887 50.61197 C217.0887 50.61197 217.1994 50.50254 217.4276 50.2916 C217.4276 50.2916 217.5426 50.18762 217.7786 49.98913 C217.7786 49.98913 217.8974 49.89164 218.1396 49.70773 C218.1396 49.70773 218.2613 49.61779 218.5079 49.45055 C218.5079 49.45055 218.6315 49.36921 218.8802 49.22063 L245.6071 33.78985 C245.6071 33.78985 245.7784 33.6909 246.1208 33.47422 C246.1208 33.47422 246.2917 33.36287 246.6316 33.12243 C246.6316 33.12243 246.8011 32.99939 247.1366 32.73673 C247.1366 32.73673 247.3037 32.60278 247.6332 32.31959 C247.6332 32.31959 247.7971 32.17559 248.1189 31.8736 C248.1189 31.8736 248.2788 31.72043 248.5916 31.40146 C248.5916 31.40146 248.7468 31.24002 249.0494 30.90585 C249.0494 30.90585 249.1993 30.73704 249.4905 30.38946 C249.4905 30.38946 249.6531 30.19171 249.9664 29.7852 C249.9664 29.7852 250.121 29.58028 250.4178 29.16096 C250.4178 29.16096 250.5641 28.94987 250.8437 28.51957 C250.8437 28.51957 250.9812 28.30321 251.2429 27.86357 C251.2429 27.86357 251.3714 27.64272 251.6147 27.19518 C251.6147 27.19518 251.734 26.97054 251.9584 26.51628 C251.9584 26.51628 252.0682 26.28841 252.2733 25.82839 C252.2733 25.82839 252.3734 25.59773 252.5588 25.13264 C252.5588 25.13264 252.6415 24.91879 252.7939 24.48873 C252.7939 24.48873 252.868 24.27327 253.0028 23.83982 C253.0028 23.83982 253.068 23.62268 253.1846 23.18606 C253.1846 23.18606 253.2405 22.9674 253.3378 22.5283 C253.3378 22.5283 253.3839 22.30853 253.4607 21.86811 C253.4607 21.86811 253.4964 21.64788 253.5512 21.20784 C253.5512 21.20784 253.5758 20.98806 253.6072 20.55065 C253.6072 20.55065 253.6198 20.33253 253.6263 19.90068"
         xml:space="default"
         id="path7317" />
      <path
         d="M277.6992 15.26206 L256.3257 27.60209 M256.3257 -0.7125926 L256.3257 27.60209"
         xml:space="default"
         id="path7319" />
      <path
         d="M253.6263 -1.248284 L253.6263 19.90068"
         xml:space="default"
         id="path7321" />
      <path
         d="M256.3257 15.57065 A15.11811 8.728445 180 0 1 277.6992 15.26206 M277.6992 -0.6307182 L277.6992 15.26206"
         xml:space="default"
         id="path7323" />
      <path
         d="M280.3451 -1.131673 L280.3451 4.474597"
         xml:space="default"
         id="path7325" />
      <path
         d="M282.7231 9.683196 C282.7231 9.683196 282.5953 9.610877 282.3531 9.444561 C282.3531 9.444561 282.2344 9.357844 282.011 9.163175 C282.011 9.163175 281.9016 9.062337 281.6971 8.839697 C281.6971 8.839697 281.5974 8.724896 281.4124 8.474378 C281.4124 8.474378 281.3298 8.356201 281.1775 8.102358 C281.1775 8.102358 281.1035 7.972472 280.9687 7.694764 C280.9687 7.694764 280.9035 7.552872 280.7869 7.250739 C280.7869 7.250739 280.731 7.096575 280.6336 6.769588 C280.6336 6.769588 280.5875 6.602963 280.5107 6.250925 C280.5107 6.250925 280.4749 6.071779 280.4201 5.694842 C280.4201 5.694842 280.3956 5.503309 280.3642 5.102135 C280.3642 5.102135 280.3579 5.000382 280.3499 4.79256 C280.3499 4.79256 280.3467 4.687949 280.3451 4.4746 M288.3627 9.104892 C288.3627 9.104892 288.1911 9.203951 287.8484 9.382721 C287.8484 9.382721 287.6774 9.468793 287.3372 9.62088 C287.3372 9.62088 287.1677 9.693522 286.832 9.818313 C286.832 9.818313 286.6649 9.877261 286.3355 9.974456 C286.3355 9.974456 286.1717 10.0196 285.8499 10.08917 C285.8499 10.08917 285.6902 10.12052 285.3776 10.16268 C285.3776 10.16268 285.2226 10.18037 284.9204 10.19552 C284.9204 10.19552 284.7707 10.19977 284.4799 10.18846 C284.4799 10.18846 284.3169 10.17837 284.0026 10.13343 C284.0026 10.13343 283.8476 10.10692 283.55 10.02989 C283.55 10.02989 283.4034 9.987462 283.1232 9.879344 C283.1232 9.879344 282.9854 9.821486 282.7231 9.683196"
         xml:space="default"
         id="path7327" />
      <path
         d="M288.3627 9.104892 L317.7638 -7.869844 C317.7638 -7.869844 317.8228 -7.903945 317.9407 -7.97878 C317.9407 -7.97878 317.9995 -8.017245 318.1162 -8.100266 C318.1162 -8.100266 318.1743 -8.142725 318.2888 -8.233129 C318.2888 -8.233129 318.3458 -8.279174 318.4575 -8.376108 C318.4575 -8.376108 318.5129 -8.42531 318.6211 -8.527901 C318.6211 -8.527901 318.6747 -8.579822 318.7789 -8.687201 C318.7789 -8.687201 318.8304 -8.741407 318.9302 -8.852728 C318.9302 -8.852728 318.9795 -8.908805 319.0745 -9.023264 C319.0745 -9.023264 319.1288 -9.0898 319.2322 -9.22528 C319.2322 -9.22528 319.2832 -9.293348 319.38 -9.431267 C319.38 -9.431267 319.4276 -9.500457 319.5177 -9.640052 C319.5177 -9.640052 319.5619 -9.709992 319.6453 -9.850582 C319.6453 -9.850582 319.6862 -9.920943 319.7629 -10.06193 C319.7629 -10.06193 319.8004 -10.13242 319.8705 -10.27327 C319.8705 -10.27327 319.9047 -10.34363 319.9682 -10.48391 C319.9682 -10.48391 319.9992 -10.55394 320.0563 -10.69327 C320.0563 -10.69327 320.1209 -10.85511 320.2245 -11.17271 C320.2245 -11.17271 320.2722 -11.3302 320.343 -11.63651 C320.343 -11.63651 320.3743 -11.78795 320.4131 -12.07992 C320.4131 -12.07992 320.4286 -12.22386 320.4363 -12.49883 M320.4363 -160.6242 L320.4363 -12.49883 M319.6497 -162.3566 C319.6497 -162.3566 319.7304 -162.3103 319.8723 -162.1947 C319.8723 -162.1947 319.94 -162.1334 320.0563 -161.9909 C320.0563 -161.9909 320.1209 -161.9037 320.2245 -161.7058 C320.2245 -161.7058 320.2722 -161.6033 320.343 -161.3787 C320.343 -161.3787 320.3743 -161.2635 320.4131 -161.0163 C320.4131 -161.0163 320.4286 -160.8903 320.4363 -160.6242 M317.7638 -162.1672 C317.7638 -162.1672 317.8228 -162.2013 317.9407 -162.2626 C317.9407 -162.2626 317.9995 -162.292 318.1162 -162.3437 C318.1162 -162.3437 318.1743 -162.3683 318.2888 -162.4102 C318.2888 -162.4102 318.3458 -162.4299 318.4575 -162.4619 C318.4575 -162.4619 318.5129 -162.4767 318.6211 -162.4991 C318.6211 -162.4991 318.6747 -162.509 318.7789 -162.522 C318.7789 -162.522 318.8304 -162.5273 318.9302 -162.5312 C318.9302 -162.5312 318.9795 -162.532 319.0745 -162.5273 C319.0745 -162.5273 319.1839 -162.5193 319.3825 -162.4713 C319.3825 -162.4713 319.4785 -162.4423 319.6497 -162.3566 M288.3643 -145.1934 L317.7638 -162.1672 M288.3643 -145.1934 C288.3643 -145.1934 288.1929 -145.0944 287.8506 -144.8778 C287.8506 -144.8778 287.6797 -144.7664 287.3399 -144.5261 C287.3399 -144.5261 287.1705 -144.4031 286.8351 -144.1405 C286.8351 -144.1405 286.668 -144.0066 286.3387 -143.7236 C286.3387 -143.7236 286.1749 -143.5796 285.853 -143.2777 C285.853 -143.2777 285.6932 -143.1246 285.3803 -142.8056 C285.3803 -142.8056 285.2251 -142.6442 284.9224 -142.3099 C284.9224 -142.3099 284.7724 -142.141 284.4809 -141.793 C284.4809 -141.793 284.319 -141.5961 284.0067 -141.1911 C284.0067 -141.1911 283.8526 -140.9869 283.5565 -140.5687 C283.5565 -140.5687 283.4105 -140.3582 283.1313 -139.9287 C283.1313 -139.9287 282.9938 -139.7127 282.7321 -139.2733 C282.7321 -139.2733 282.6035 -139.0525 282.3599 -138.6047 C282.3599 -138.6047 282.2404 -138.3799 282.0154 -137.9248 C282.0154 -137.9248 281.9053 -137.6964 281.6994 -137.2349 C281.6994 -137.2349 281.5989 -137.0034 281.4126 -136.5362 C281.4126 -136.5362 281.33 -136.3227 281.1777 -135.893 C281.1777 -135.893 281.1037 -135.6777 280.9688 -135.2442 C280.9688 -135.2442 280.9036 -135.027 280.787 -134.5901 C280.787 -134.5901 280.731 -134.3713 280.6336 -133.9317 C280.6336 -133.9317 280.5874 -133.7117 280.5106 -133.2709 C280.5106 -133.2709 280.4749 -133.0505 280.42 -132.6103 C280.42 -132.6103 280.3955 -132.3904 280.3642 -131.9532 C280.3642 -131.9532 280.3516 -131.7353 280.3451 -131.3042 L280.3451 -94.27456 L277.6992 -92.74694 M256.3257 -92.43834 A15.11811 8.728445 180 0 1 277.6992 -92.74694"
         xml:space="default"
         id="path7329" />
      <path
         d="M286.1773 -83.30579 A18.89764 10.91056 0 0 0 256.3257 -92.19643 M253.917 -75.59087 A18.89764 10.91056 0 0 0 286.1773 -83.30579"
         xml:space="default"
         id="path7331" />
      <path
         d="M246.4127 -58.9452 L128.5039 9.129443"
         xml:space="default"
         id="path7333" />
      <path
         d="M-35.9552 43.018 A75.59055 43.64222 0 0 0 75.25984 8.706848"
         xml:space="default"
         id="path7335" />
      <path
         d="M-72.15829 44.74659 A22.67717 13.09267 0 0 0 -35.9552 41.47501 M-74.82629 42.89239 A22.67717 13.09267 0 0 0 -72.15829 44.74659"
         xml:space="default"
         id="path7337" />
      <path
         d="M-75.85369 43.48555 A22.67717 13.09267 0 0 0 -72.15829 46.28957 A22.67717 13.09267 0 0 0 -35.9552 43.018 L-35.9552 25.02704"
         xml:space="default"
         id="path7339" />
      <path
         d="M-35.9552 29.50233 A22.67717 13.09267 0 0 0 -69.75251 25.02455"
         xml:space="default"
         id="path7341" />
      <path
         d="M-69.75251 21.4468 A75.59055 43.64222 0 0 0 -67.57426 24.18785"
         xml:space="default"
         id="path7343" />
      <path
         d="M-66.49177 23.84472 L-66.49177 14.00101"
         xml:space="default"
         id="path7345" />
      <path
         d="M-69.75251 12.18929 A98.26772 56.73489 0 0 0 -69.48577 12.34389 A98.26772 56.73489 0 0 0 98.26772 -27.77374"
         xml:space="default"
         id="path7347" />
      <path
         d="M128.5039 4.628957 A128.5039 74.19178 0 0 0 98.26772 -43.17871 M-90.866 57.09047 A128.5039 74.19178 0 0 0 128.5039 4.628957 M-95.04138 54.56357 A128.5039 74.19178 0 0 0 -90.866 57.09047"
         xml:space="default"
         id="path7349" />
      <path
         d="M-96.47794 55.39297 L-96.47794 24.53326 M-102.0147 27.72988 L-96.47794 24.53326 M-102.0147 27.72988 L-96.47794 24.53326 M-96.47794 53.54139 L-96.47794 24.53326"
         xml:space="default"
         id="path7351" />
      <path
         d="M-98.06364 54.45689 A136.063 78.55601 0 0 0 -96.47794 55.39297 L-69.75251 39.96303 L-69.75251 -77.3116"
         xml:space="default"
         id="path7353" />
      <path
         d="M-74.14968 -87.10133 A90.70866 52.37067 0 0 0 -64.4074 -80.38988"
         xml:space="default"
         id="path7355" />
      <path
         d="M-74.61877 -86.83051 C-74.61877 -86.83051 -74.62077 -86.78188 -74.62336 -86.68137 C-74.62336 -86.68137 -74.6244 -86.6306 -74.62495 -86.52606 C-74.62495 -86.52606 -74.62495 -86.47282 -74.62334 -86.36761 C-74.62334 -86.36761 -74.62228 -86.31525 -74.61873 -86.21207 C-74.61873 -86.21207 -74.61672 -86.16076 -74.6114 -86.05988 C-74.6114 -86.05988 -74.60854 -86.00974 -74.60165 -85.91133 C-74.60165 -85.91133 -74.59441 -85.81358 -74.576 -85.62601 C-74.576 -85.62601 -74.56625 -85.5336 -74.54379 -85.35691 C-74.54379 -85.35691 -74.53216 -85.2699 -74.50665 -85.10365 C-74.50665 -85.10365 -74.4936 -85.02173 -74.46576 -84.8648 C-74.46576 -84.8648 -74.45159 -84.78735 -74.42178 -84.63798 C-74.42178 -84.63798 -74.40663 -84.56403 -74.37483 -84.41982 C-74.37483 -84.41982 -74.35179 -84.31764 -74.30347 -84.12173 C-74.30347 -84.12173 -74.27895 -84.02496 -74.22795 -83.83824 C-74.22795 -83.83824 -74.20214 -83.74586 -74.14871 -83.56677 C-74.14871 -83.56677 -74.12171 -83.47807 -74.06605 -83.30543 C-74.06605 -83.30543 -74.03794 -83.21983 -73.98015 -83.05274 C-73.98015 -83.05274 -73.95099 -82.96981 -73.89113 -82.8075 C-73.89113 -82.8075 -73.83076 -82.64624 -73.70383 -82.3353 C-73.70383 -82.3353 -73.64465 -82.19409 -73.52107 -81.91944 C-73.52107 -81.91944 -73.45837 -81.78316 -73.32734 -81.5164 C-73.32734 -81.5164 -73.26082 -81.3838 -73.12156 -81.12286 C-73.12156 -81.12286 -73.05081 -80.99297 -72.90233 -80.73623 C-72.90233 -80.73623 -72.82683 -80.60825 -72.66783 -80.35425 C-72.66783 -80.35425 -72.58687 -80.22746 -72.4156 -79.97479 C-72.4156 -79.97479 -72.37192 -79.91164 -72.28182 -79.78532 C-72.28182 -79.78532 -72.2363 -79.72215 -72.14222 -79.59562 C-72.14222 -79.59562 -72.09465 -79.5323 -71.99612 -79.40531 C-71.99612 -79.40531 -71.94624 -79.34174 -71.84264 -79.21399 C-71.84264 -79.21399 -71.76122 -79.11472 -71.58785 -78.91448 C-71.58785 -78.91448 -71.54347 -78.8642 -71.45149 -78.76297 C-71.45149 -78.76297 -71.40491 -78.71222 -71.30811 -78.6099 C-71.30811 -78.6099 -71.25903 -78.55859 -71.15672 -78.455 C-71.15672 -78.455 -71.1048 -78.40304 -70.99618 -78.29799 C-70.99618 -78.29799 -70.94099 -78.24527 -70.82502 -78.13853 C-70.82502 -78.13853 -70.76599 -78.08492 -70.64128 -77.97616 C-70.64128 -77.97616 -70.6099 -77.9492 -70.54562 -77.89515 C-70.54562 -77.89515 -70.51319 -77.86807 -70.44643 -77.81362 C-70.44643 -77.81362 -70.4127 -77.78633 -70.34306 -77.73134 C-70.34306 -77.73134 -70.30785 -77.70377 -70.23503 -77.64819 C-70.23503 -77.64819 -70.1982 -77.62035 -70.122 -77.56429 C-70.122 -77.56429 -70.08347 -77.53622 -70.00382 -77.4799 C-70.00382 -77.4799 -69.96357 -77.45174 -69.88055 -77.39547 C-69.88055 -77.39547 -69.83864 -77.36738 -69.75251 -77.3116"
         xml:space="default"
         id="path7357" />
      <path
         d="M-93.80579 -63.42443 L-69.75251 -77.3116"
         xml:space="default"
         id="path7359" />
      <path
         d="M-93.80579 -75.75288 L-93.80579 -193.0275 M-106.9012 -200.5881 L-93.80579 -193.0275"
         xml:space="default"
         id="path7361" />
      <path
         d="M-75.59055 -264.6138 A98.26772 56.73489 0 0 0 -96.95059 -237.6198"
         xml:space="default"
         id="path7363" />
      <path
         d="M-75.59055 -283.1297 A98.26772 56.73489 0 0 0 -98.26772 -246.8777 A98.26772 56.73489 0 0 0 -69.75251 -206.9147"
         xml:space="default"
         id="path7365" />
      <path
         d="M-75.59055 -228.3619 A75.59055 43.64222 0 0 0 -53.71717 -197.6568 L-53.71717 -259.3763 M-75.59055 -290.0813 A75.59055 43.64222 0 0 0 -53.71717 -259.3763 M-52.91339 -321.2481 A75.59055 43.64222 0 0 0 -75.59055 -290.0813"
         xml:space="default"
         id="path7367" />
      <path
         d="M-58.30771 -317.855 A136.063 78.55601 0 0 0 -136.063 -246.8777 A136.063 78.55601 0 0 0 -108.6412 -199.5835 L-106.9012 -200.5881 M-106.9012 -49.37554 L-106.9012 -200.5881 M-106.9012 -49.37554 L-93.80579 -41.81491 L-93.80579 -63.42443 A7.559055 4.364223 60 0 1 -98.88359 -72.52032 A7.559055 4.364223 60 0 1 -97.31806 -75.98069 A7.559055 4.364223 60 0 1 -93.80579 -75.75288 L-69.75251 -89.64005"
         xml:space="default"
         id="path7369" />
      <path
         d="M-61.73485 -38.72927 L-61.73485 -137.931"
         xml:space="default"
         id="path7371" />
      <path
         d="M-69.75251 -34.10028 L-61.73485 -38.72927"
         xml:space="default"
         id="path7373" />
      <path
         d="M-43.02689 -49.53032 L-43.02689 -131.065"
         xml:space="default"
         id="path7375" />
      <path
         d="M-48.37204 -46.4443 L-48.37204 -132.6871"
         xml:space="default"
         id="path7377" />
      <path
         d="M-61.73485 -57.55985 A68.03149 39.278 0 0 0 -48.37204 -46.4443 L-43.02689 -49.53032 A60.47244 34.91378 0 0 0 -42.76047 -49.37554 A60.47244 34.91378 0 0 0 60.47244 -74.06331"
         xml:space="default"
         id="path7379" />
      <path
         d="M-40.08794 -56.78187 A56.69291 32.73167 0 0 0 56.69291 -79.92666 M-43.02689 -58.61333 A56.69291 32.73167 0 0 0 -40.08794 -56.78187"
         xml:space="default"
         id="path7381" />
      <path
         d="M-43.02689 -55.39367 A60.47244 34.91378 0 0 0 -42.76047 -55.23889 A60.47244 34.91378 0 0 0 60.47244 -79.92666 A60.47244 34.91378 0 0 0 56.69291 -92.07614"
         xml:space="default"
         id="path7383" />
      <path
         d="M61.20035 -109.7059 A86.92913 50.18856 0 0 0 56.69291 -112.1097"
         xml:space="default"
         id="path7385" />
      <path
         d="M61.20035 -109.7059 L61.20035 -137.6836 M61.20035 -109.7059 L69.218 -114.3349 L69.218 -141.8007 M69.218 -114.3349 L69.218 -141.8007 M98.26772 -74.06331 A98.26772 56.73489 0 0 0 69.218 -114.3349 M-69.48577 -33.94569 A98.26772 56.73489 0 0 0 98.26772 -74.06331 M-69.75251 -34.10028 A98.26772 56.73489 0 0 0 -69.48577 -33.94569 M-69.75251 -34.10028 L-69.75251 -77.30388 L-64.4074 -80.38988 L-64.4074 -92.73376 M-69.75251 -89.64777 L-64.4074 -92.73376 M-69.75251 -89.64777 L-69.75251 -142.1093 A98.26772 56.73489 0 0 0 -69.48577 -141.9547 A98.26772 56.73489 0 0 0 98.26772 -182.0723"
         xml:space="default"
         id="path7387" />
      <path
         d="M102.6782 -176.5482 A7.559055 4.364223 240 0 0 98.26772 -185.1715 M101.1127 -173.0879 A7.559055 4.364223 240 0 0 102.6782 -176.5482"
         xml:space="default"
         id="path7389" />
      <path
         d="M95.94344 -117.421 L95.94344 -169.8058 M95.94344 -117.421 L98.61968 -118.9661 L98.61968 -109.7082 M103.9681 -112.7961 L98.61968 -109.7082 M103.9681 -112.7961 L103.9681 -91.19431 L103.9681 -63.42057 M114.6448 -69.58479 L103.9681 -63.42057 M114.6448 -97.35854 L114.6448 -69.58479 M114.6448 -97.35854 L160.0845 -123.5932 L160.0845 -92.73296 L148.0581 -85.78952 M148.0581 -67.27358 L148.0581 -85.78952 M148.0581 -67.27358 A98.26772 56.73489 240 0 0 129.395 -75.01437"
         xml:space="default"
         id="path7391" />
      <path
         d="M125.1187 -72.54543 A3.779528 2.182111 120 0 0 124.5589 -73.17042 A3.779528 2.182111 120 0 0 122.6691 -72.98322 M98.26772 -58.89507 L122.6691 -72.98322"
         xml:space="default"
         id="path7393" />
      <path
         d="M103.9681 -69.2762 A7.559055 4.364223 180 0 1 114.6448 -69.58479"
         xml:space="default"
         id="path7395" />
      <path
         d="M123.7218 -73.34151 C123.7218 -73.34151 123.9515 -73.2119 124.416 -72.94782 C124.416 -72.94782 124.6489 -72.81506 125.1187 -72.54543"
         xml:space="default"
         id="path7397" />
      <path
         d="M125.1187 -72.54543 L160.0845 -92.73296 L160.0845 -123.5932 L186.8098 -139.023 L186.8098 -108.1628 L232.2428 -134.3936 C232.2428 -134.3936 232.2428 -134.5865 232.2586 -134.9825 C232.2586 -134.9825 232.2691 -135.1821 232.3061 -135.5911 C232.3061 -135.5911 232.3273 -135.7972 232.3861 -136.2185 C232.3861 -136.2185 232.4182 -136.4306 232.4991 -136.8633 C232.4991 -136.8633 232.5423 -137.081 232.6458 -137.5243 C232.6458 -137.5243 232.7004 -137.7472 232.827 -138.2 C232.827 -138.2 232.8932 -138.4275 233.0435 -138.8887 C233.0435 -138.8887 233.1216 -139.1202 233.2961 -139.5886 C233.2961 -139.5886 233.3761 -139.7968 233.5507 -140.2164 C233.5507 -140.2164 233.6404 -140.4266 233.8347 -140.8496 C233.8347 -140.8496 233.9344 -141.0613 234.1489 -141.4864 C234.1489 -141.4864 234.2586 -141.699 234.4934 -142.1246 C234.4934 -142.1246 234.6134 -142.3373 234.8688 -142.7616 C234.8688 -142.7616 234.999 -142.9735 235.2749 -143.3946 C235.2749 -143.3946 235.4154 -143.6046 235.7118 -144.0202 C235.7118 -144.0202 235.8625 -144.2272 236.1791 -144.6349 C236.1791 -144.6349 236.3238 -144.8173 236.6252 -145.1754 C236.6252 -145.1754 236.7778 -145.3532 237.0944 -145.7002 C237.0944 -145.7002 237.2544 -145.872 237.5848 -146.205 C237.5848 -146.205 237.7516 -146.3695 238.0944 -146.6857 C238.0944 -146.6857 238.2671 -146.8414 238.6203 -147.1378 C238.6203 -147.1378 238.798 -147.2832 239.1592 -147.557 C239.1592 -147.557 239.3407 -147.6908 239.7074 -147.9392 C239.7074 -147.9392 239.8912 -148.06 240.2604 -148.2805 M245.9214 -148.8469 C245.9214 -148.8469 245.8074 -148.9123 245.5661 -149.0266 C245.5661 -149.0266 245.4432 -149.0809 245.1842 -149.1717 C245.1842 -149.1717 245.0526 -149.214 244.776 -149.2796 C244.776 -149.2796 244.6356 -149.309 244.3417 -149.3476 C244.3417 -149.3476 244.197 -149.3628 243.8956 -149.373 C243.8956 -149.373 243.743 -149.3745 243.4264 -149.356 C243.4264 -149.356 243.2664 -149.343 242.936 -149.2945 C242.936 -149.2945 242.7692 -149.2664 242.4264 -149.1868 C242.4264 -149.1868 242.2537 -149.143 241.9005 -149.0316 C241.9005 -149.0316 241.7229 -148.9719 241.3616 -148.8285 C241.3616 -148.8285 241.1801 -148.7528 240.8134 -148.5777 C240.8134 -148.5777 240.7215 -148.532 240.5372 -148.4348 C240.5372 -148.4348 240.445 -148.3852 240.2604 -148.2805 M248.278 -143.6515 C248.278 -143.6515 248.278 -143.8444 248.2623 -144.2222 C248.2623 -144.2222 248.2517 -144.4097 248.2147 -144.7759 C248.2147 -144.7759 248.1935 -144.9575 248.1348 -145.311 C248.1348 -145.311 248.1026 -145.486 248.0218 -145.8254 C248.0218 -145.8254 247.9785 -145.9931 247.875 -146.3169 C247.875 -146.3169 247.8204 -146.4767 247.6938 -146.7833 C247.6938 -146.7833 247.6276 -146.9343 247.4773 -147.222 C247.4773 -147.222 247.3992 -147.3634 247.2247 -147.6303 C247.2247 -147.6303 247.1389 -147.7545 246.9505 -147.9873 C246.9505 -147.9873 246.8534 -148.1009 246.6422 -148.3111 C246.6422 -148.3111 246.5338 -148.4132 246.2994 -148.5988 C246.2994 -148.5988 246.1792 -148.6883 245.9214 -148.8469 M248.278 -143.6515 L258.9681 -149.8234 C258.9681 -149.8234 258.9681 -150.0163 258.9839 -150.4123 C258.9839 -150.4123 258.9944 -150.612 259.0314 -151.021 C259.0314 -151.021 259.0526 -151.227 259.1114 -151.6483 C259.1114 -151.6483 259.1435 -151.8604 259.2243 -152.2932 C259.2243 -152.2932 259.2676 -152.5109 259.3711 -152.9542 C259.3711 -152.9542 259.4257 -153.177 259.5523 -153.6298 C259.5523 -153.6298 259.6185 -153.8573 259.7688 -154.3185 C259.7688 -154.3185 259.8469 -154.5501 260.0214 -155.0185 C260.0214 -155.0185 260.1014 -155.2266 260.276 -155.6462 C260.276 -155.6462 260.3657 -155.8565 260.5601 -156.2794 C260.5601 -156.2794 260.6597 -156.4912 260.8742 -156.9162 C260.8742 -156.9162 260.9839 -157.1288 261.2188 -157.5544 C261.2188 -157.5544 261.3387 -157.7671 261.5941 -158.1915 C261.5941 -158.1915 261.7243 -158.4033 262.0002 -158.8245 C262.0002 -158.8245 262.1407 -159.0344 262.4371 -159.4501 C262.4371 -159.4501 262.5878 -159.657 262.9044 -160.0648 C262.9044 -160.0648 263.0491 -160.2471 263.3505 -160.6053 C263.3505 -160.6053 263.5031 -160.7831 263.8197 -161.13 C263.8197 -161.13 263.9797 -161.3019 264.3102 -161.6349 C264.3102 -161.6349 264.477 -161.7994 264.8197 -162.1155 C264.8197 -162.1155 264.9924 -162.2712 265.3456 -162.5676 C265.3456 -162.5676 265.5233 -162.7131 265.8846 -162.9868 C265.8846 -162.9868 266.0659 -163.1206 266.4327 -163.369 C266.4327 -163.369 266.6165 -163.4898 266.9857 -163.7103 M272.6467 -164.2767 C272.6467 -164.2767 272.5327 -164.3421 272.2914 -164.4565 C272.2914 -164.4565 272.1685 -164.5108 271.9095 -164.6016 C271.9095 -164.6016 271.7779 -164.6439 271.5013 -164.7094 C271.5013 -164.7094 271.3609 -164.7389 271.067 -164.7774 C271.067 -164.7774 270.9223 -164.7927 270.6209 -164.8028 C270.6209 -164.8028 270.4683 -164.8044 270.1517 -164.7859 C270.1517 -164.7859 269.9917 -164.7729 269.6613 -164.7244 C269.6613 -164.7244 269.4944 -164.6962 269.1517 -164.6166 C269.1517 -164.6166 268.979 -164.5729 268.6258 -164.4615 C268.6258 -164.4615 268.4482 -164.4018 268.0869 -164.2584 C268.0869 -164.2584 267.9055 -164.1827 267.5387 -164.0076 C267.5387 -164.0076 267.4468 -163.9618 267.2625 -163.8646 C267.2625 -163.8646 267.1703 -163.8151 266.9857 -163.7103 M275.0033 -159.0813 C275.0033 -159.0813 275.0033 -159.2742 274.9875 -159.6521 C274.9875 -159.6521 274.977 -159.8396 274.94 -160.2058 C274.94 -160.2058 274.9188 -160.3874 274.86 -160.7408 C274.86 -160.7408 274.8279 -160.9159 274.7471 -161.2552 C274.7471 -161.2552 274.7038 -161.423 274.6003 -161.7468 C274.6003 -161.7468 274.5457 -161.9066 274.4191 -162.2132 C274.4191 -162.2132 274.3529 -162.3642 274.2026 -162.6519 C274.2026 -162.6519 274.1245 -162.7932 273.95 -163.0602 C273.95 -163.0602 273.8642 -163.1844 273.6758 -163.4172 C273.6758 -163.4172 273.5787 -163.5308 273.3676 -163.741 C273.3676 -163.741 273.2591 -163.8431 273.0247 -164.0286 C273.0247 -164.0286 272.9045 -164.1181 272.6467 -164.2767 M275.0033 -159.0813 L285.6934 -165.2533 C285.6934 -165.2533 285.6934 -165.4462 285.7091 -165.8422 C285.7091 -165.8422 285.7197 -166.0418 285.7567 -166.4508 C285.7567 -166.4508 285.7779 -166.6569 285.8367 -167.0782 C285.8367 -167.0782 285.8688 -167.2903 285.9496 -167.723 C285.9496 -167.723 285.9929 -167.9408 286.0964 -168.384 C286.0964 -168.384 286.151 -168.6069 286.2776 -169.0597 C286.2776 -169.0597 286.3438 -169.2872 286.4941 -169.7484 C286.4941 -169.7484 286.5722 -169.9799 286.7467 -170.4483 C286.7467 -170.4483 286.8267 -170.6565 287.0013 -171.0761 C287.0013 -171.0761 287.091 -171.2863 287.2853 -171.7093 C287.2853 -171.7093 287.385 -171.9211 287.5995 -172.3461 C287.5995 -172.3461 287.7092 -172.5587 287.944 -172.9843 C287.944 -172.9843 288.064 -173.197 288.3193 -173.6213 C288.3193 -173.6213 288.4496 -173.8332 288.7255 -174.2543 C288.7255 -174.2543 288.866 -174.4643 289.1624 -174.88 C289.1624 -174.88 289.3131 -175.0869 289.6297 -175.4946 C289.6297 -175.4946 289.7744 -175.677 290.0758 -176.0351 C290.0758 -176.0351 290.2285 -176.2129 290.545 -176.5599 C290.545 -176.5599 290.705 -176.7317 291.0354 -177.0647 C291.0354 -177.0647 291.2022 -177.2292 291.545 -177.5454 C291.545 -177.5454 291.7177 -177.7011 292.0709 -177.9975 C292.0709 -177.9975 292.2486 -178.1429 292.6098 -178.4167 C292.6098 -178.4167 292.7913 -178.5505 293.158 -178.7989 C293.158 -178.7989 293.3418 -178.9197 293.711 -179.1402 M299.3719 -179.7066 C299.3719 -179.7066 299.2579 -179.772 299.0167 -179.8864 C299.0167 -179.8864 298.8938 -179.9406 298.6349 -180.0314 C298.6349 -180.0314 298.5032 -180.0737 298.2266 -180.1393 C298.2266 -180.1393 298.0862 -180.1687 297.7923 -180.2073 C297.7923 -180.2073 297.6476 -180.2225 297.3462 -180.2327 C297.3462 -180.2327 297.1935 -180.2342 296.877 -180.2157 C296.877 -180.2157 296.717 -180.2027 296.3866 -180.1542 C296.3866 -180.1542 296.2198 -180.1261 295.877 -180.0465 C295.877 -180.0465 295.7043 -180.0027 295.3511 -179.8913 C295.3511 -179.8913 295.1734 -179.8316 294.8122 -179.6882 C294.8122 -179.6882 294.6307 -179.6125 294.264 -179.4374 C294.264 -179.4374 294.1721 -179.3917 293.9878 -179.2945 C293.9878 -179.2945 293.8956 -179.2449 293.711 -179.1402 M301.7286 -174.5112 C301.7286 -174.5112 301.7286 -174.7041 301.7129 -175.0819 C301.7129 -175.0819 301.7023 -175.2694 301.6653 -175.6357 C301.6653 -175.6357 301.6441 -175.8172 301.5854 -176.1707 C301.5854 -176.1707 301.5532 -176.3457 301.4724 -176.6851 C301.4724 -176.6851 301.4291 -176.8529 301.3256 -177.1766 C301.3256 -177.1766 301.271 -177.3364 301.1444 -177.6431 C301.1444 -177.6431 301.0782 -177.7941 300.9279 -178.0818 C300.9279 -178.0818 300.8498 -178.2231 300.6753 -178.49 C300.6753 -178.49 300.5895 -178.6142 300.4011 -178.847 C300.4011 -178.847 300.304 -178.9606 300.0928 -179.1709 C300.0928 -179.1709 299.9843 -179.2729 299.75 -179.4585 C299.75 -179.4585 299.6298 -179.548 299.3719 -179.7066 M301.7286 -174.5112 L312.4187 -180.6831 C312.4187 -180.6831 312.4187 -180.876 312.4344 -181.272 C312.4344 -181.272 312.445 -181.4717 312.482 -181.8807 C312.482 -181.8807 312.5032 -182.0868 312.562 -182.5081 C312.562 -182.5081 312.5941 -182.7202 312.6749 -183.1529 C312.6749 -183.1529 312.7182 -183.3706 312.8217 -183.8139 C312.8217 -183.8139 312.8763 -184.0367 313.0029 -184.4895 C313.0029 -184.4895 313.0691 -184.717 313.2194 -185.1782 C313.2194 -185.1782 313.2975 -185.4098 313.472 -185.8782 C313.472 -185.8782 313.552 -186.0863 313.7266 -186.5059 C313.7266 -186.5059 313.8163 -186.7162 314.0107 -187.1391 C314.0107 -187.1391 314.1103 -187.3509 314.3248 -187.7759 C314.3248 -187.7759 314.4345 -187.9886 314.6693 -188.4141 C314.6693 -188.4141 314.7893 -188.6268 315.0446 -189.0512 C315.0446 -189.0512 315.1749 -189.263 315.4508 -189.6842 C315.4508 -189.6842 315.5913 -189.8941 315.8877 -190.3098 C315.8877 -190.3098 316.0384 -190.5168 316.355 -190.9245 C316.355 -190.9245 316.4997 -191.1068 316.8011 -191.465 C316.8011 -191.465 316.9537 -191.6428 317.2703 -191.9897 C317.2703 -191.9897 317.4303 -192.1616 317.7607 -192.4946 C317.7607 -192.4946 317.9276 -192.6591 318.2703 -192.9753 C318.2703 -192.9753 318.443 -193.131 318.7962 -193.4274 C318.7962 -193.4274 318.9738 -193.5728 319.3351 -193.8466 C319.3351 -193.8466 319.5165 -193.9803 319.8833 -194.2287 C319.8833 -194.2287 320.0671 -194.3495 320.4363 -194.5701 M326.0973 -195.1364 C326.0973 -195.1364 325.9832 -195.2019 325.7419 -195.3162 C325.7419 -195.3162 325.6191 -195.3705 325.3601 -195.4613 C325.3601 -195.4613 325.2285 -195.5036 324.9519 -195.5691 C324.9519 -195.5691 324.8115 -195.5986 324.5176 -195.6371 C324.5176 -195.6371 324.3729 -195.6524 324.0715 -195.6626 C324.0715 -195.6626 323.9189 -195.6641 323.6023 -195.6456 C323.6023 -195.6456 323.4423 -195.6326 323.1118 -195.5841 C323.1118 -195.5841 322.945 -195.556 322.6023 -195.4763 C322.6023 -195.4763 322.4296 -195.4326 322.0764 -195.3212 C322.0764 -195.3212 321.8987 -195.2615 321.5374 -195.1181 C321.5374 -195.1181 321.356 -195.0424 320.9893 -194.8673 C320.9893 -194.8673 320.8974 -194.8215 320.7131 -194.7243 C320.7131 -194.7243 320.6209 -194.6748 320.4363 -194.5701 M328.4539 -189.9411 C328.4539 -189.9411 328.4539 -190.1339 328.4381 -190.5118 C328.4381 -190.5118 328.4276 -190.6993 328.3906 -191.0655 C328.3906 -191.0655 328.3694 -191.2471 328.3106 -191.6006 C328.3106 -191.6006 328.2785 -191.7756 328.1977 -192.1149 C328.1977 -192.1149 328.1544 -192.2827 328.0509 -192.6065 C328.0509 -192.6065 327.9963 -192.7663 327.8697 -193.0729 C327.8697 -193.0729 327.8035 -193.2239 327.6532 -193.5116 C327.6532 -193.5116 327.5751 -193.6529 327.4006 -193.9199 C327.4006 -193.9199 327.3148 -194.0441 327.1264 -194.2769 C327.1264 -194.2769 327.0293 -194.3905 326.8181 -194.6007 C326.8181 -194.6007 326.7097 -194.7028 326.4753 -194.8884 C326.4753 -194.8884 326.3551 -194.9778 326.0973 -195.1364 M328.4539 -189.9411 L339.144 -196.113 C339.144 -196.113 339.144 -196.3059 339.1597 -196.7019 C339.1597 -196.7019 339.1703 -196.9015 339.2073 -197.3105 C339.2073 -197.3105 339.2285 -197.5166 339.2873 -197.9379 C339.2873 -197.9379 339.3194 -198.15 339.4002 -198.5827 C339.4002 -198.5827 339.4435 -198.8005 339.547 -199.2437 C339.547 -199.2437 339.6016 -199.4666 339.7282 -199.9194 C339.7282 -199.9194 339.7944 -200.1469 339.9447 -200.6081 C339.9447 -200.6081 340.0228 -200.8396 340.1973 -201.308 C340.1973 -201.308 340.2773 -201.5162 340.4518 -201.9358 C340.4518 -201.9358 340.5416 -202.146 340.7359 -202.569 C340.7359 -202.569 340.8356 -202.7808 341.05 -203.2058 C341.05 -203.2058 341.1598 -203.4184 341.3946 -203.844 C341.3946 -203.844 341.5146 -204.0567 341.7699 -204.481 C341.7699 -204.481 341.9002 -204.6929 342.1761 -205.114 C342.1761 -205.114 342.3166 -205.324 342.613 -205.7397 C342.613 -205.7397 342.7637 -205.9466 343.0803 -206.3543 C343.0803 -206.3543 343.225 -206.5367 343.5264 -206.8949 C343.5264 -206.8949 343.679 -207.0726 343.9956 -207.4196 C343.9956 -207.4196 344.1556 -207.5914 344.486 -207.9245 C344.486 -207.9245 344.6528 -208.089 344.9956 -208.4051 C344.9956 -208.4051 345.1683 -208.5608 345.5215 -208.8572 C345.5215 -208.8572 345.6992 -209.0027 346.0604 -209.2764 C346.0604 -209.2764 346.2419 -209.4102 346.6086 -209.6586 C346.6086 -209.6586 346.7924 -209.7794 347.1616 -209.9999 M352.8225 -210.5663 C352.8225 -210.5663 352.7085 -210.6317 352.4673 -210.7461 C352.4673 -210.7461 352.3444 -210.8004 352.0854 -210.8912 C352.0854 -210.8912 351.9538 -210.9335 351.6772 -210.999 C351.6772 -210.999 351.5368 -211.0284 351.2429 -211.067 C351.2429 -211.067 351.0982 -211.0823 350.7968 -211.0924 C350.7968 -211.0924 350.6441 -211.0939 350.3276 -211.0754 C350.3276 -211.0754 350.1676 -211.0625 349.8372 -211.0139 C349.8372 -211.0139 349.6703 -210.9858 349.3276 -210.9062 C349.3276 -210.9062 349.1549 -210.8624 348.8017 -210.7511 C348.8017 -210.7511 348.624 -210.6913 348.2628 -210.5479 C348.2628 -210.5479 348.0813 -210.4722 347.7146 -210.2971 C347.7146 -210.2971 347.6227 -210.2514 347.4384 -210.1542 C347.4384 -210.1542 347.3462 -210.1046 347.1616 -209.9999 M355.1792 -205.3709 C355.1792 -205.3709 355.1792 -205.5638 355.1635 -205.9416 C355.1635 -205.9416 355.1529 -206.1291 355.1159 -206.4954 C355.1159 -206.4954 355.0947 -206.6769 355.0359 -207.0304 C355.0359 -207.0304 355.0038 -207.2054 354.9229 -207.5448 C354.9229 -207.5448 354.8797 -207.7126 354.7762 -208.0364 C354.7762 -208.0364 354.7216 -208.1962 354.595 -208.5028 C354.595 -208.5028 354.5288 -208.6538 354.3785 -208.9415 C354.3785 -208.9415 354.3004 -209.0828 354.1259 -209.3497 C354.1259 -209.3497 354.0401 -209.474 353.8517 -209.7067 C353.8517 -209.7067 353.7546 -209.8204 353.5434 -210.0306 C353.5434 -210.0306 353.4349 -210.1327 353.2006 -210.3182 C353.2006 -210.3182 353.0804 -210.4077 352.8225 -210.5663 M355.1792 -205.3709 L424.6649 -245.4885 L424.6649 -236.2306 L158.7483 -82.7035 M158.7483 -73.44553 L158.7483 -82.7035 M158.7483 -73.44553 L148.0581 -67.27358"
         xml:space="default"
         id="path7399" />
      <path
         d="M148.3087 -14.64872 A109.6063 63.28123 60 0 1 136.3559 -72.83108"
         xml:space="default"
         id="path7401" />
      <path
         d="M235.7226 -65.11714 L127.8515 -2.837758 M246.4127 -58.9452 A37.79528 21.82111 180 0 1 235.7226 -65.11714 M246.4127 -58.9452 L246.4127 -28.08549 L128.5039 39.98915"
         xml:space="default"
         id="path7403" />
      <path
         d="M-90.866 98.44248 A128.5039 74.19178 0 0 0 128.5039 45.98097 M-115.186 78.87191 A128.5039 74.19178 0 0 0 -90.866 98.44248"
         xml:space="default"
         id="path7405" />
      <path
         d="M-115.186 261.8447 L-115.186 67.42847 M-115.186 261.8447 A3.779528 2.182111 120 0 0 -114.4033 263.5749 A3.779528 2.182111 120 0 0 -112.5135 263.3877 L-80.4427 244.8716 M-113.3858 198.7366 A113.3858 65.46334 0 0 0 -80.4427 244.8716 M-89.40111 158.4716 A113.3858 65.46334 0 0 0 -113.3858 198.7366"
         xml:space="default"
         id="path7407" />
      <path
         d="M-88.33186 159.5441 A113.3858 65.46334 0 0 0 -113.3745 199.6623"
         xml:space="default"
         id="path7409" />
      <path
         d="M-87.59083 160.2133 A34.01575 19.639 0 0 0 -80.44166 166.4873"
         xml:space="default"
         id="path7411" />
      <path
         d="M-82.84842 163.5565 A37.79528 21.82111 0 0 0 -18.32784 148.1266"
         xml:space="default"
         id="path7413" />
      <path
         d="M79.90819 154.1445 A113.3858 65.46334 0 0 0 -18.32784 135.9857 M79.90819 154.1445 L79.90819 152.2929 L122.6691 127.6049 A3.779528 2.182111 120 0 0 124.8074 125.1355"
         xml:space="default"
         id="path7415" />
      <path
         d="M124.8074 125.1355 L160.0845 104.7682 L148.0581 111.7117 L148.0581 93.19574 M158.7483 87.0238 L148.0581 93.19574 M158.7483 96.28178 L158.7483 87.0238 M424.6649 -57.2453 L158.7483 96.28178 M424.6649 -57.2453 L424.6649 -47.98734 M355.1792 -7.869709 L424.6649 -47.98734 M355.1792 -7.869709 C355.1792 -7.869709 355.1792 -7.676827 355.1635 -7.280829 C355.1635 -7.280829 355.1529 -7.08118 355.1159 -6.672161 C355.1159 -6.672161 355.0947 -6.466092 355.0359 -6.044799 C355.0359 -6.044799 355.0038 -5.832694 354.9229 -5.399955 C354.9229 -5.399955 354.8797 -5.182238 354.7762 -4.738966 C354.7762 -4.738966 354.7216 -4.516106 354.595 -4.063312 C354.595 -4.063312 354.5288 -3.835825 354.3785 -3.374619 C354.3785 -3.374619 354.3004 -3.143075 354.1259 -2.674675 C354.1259 -2.674675 354.0459 -2.466503 353.8713 -2.046913 C353.8713 -2.046913 353.7816 -1.83666 353.5872 -1.413713 C353.5872 -1.413713 353.4876 -1.201934 353.2731 -0.7769147 C353.2731 -0.7769147 353.1634 -0.5642828 352.9286 -0.1387126 C352.9286 -0.1387126 352.8086 0.0739819 352.5533 0.4983411 C352.5533 0.4983411 352.423 0.710187 352.1471 1.131331 C352.1471 1.131331 352.0066 1.341295 351.7102 1.756975 C351.7102 1.756975 351.5594 1.963904 351.2429 2.371629 C351.2429 2.371629 351.0982 2.553988 350.7968 2.912149 C350.7968 2.912149 350.6441 3.08992 350.3276 3.436905 C350.3276 3.436905 350.1676 3.608742 349.8372 3.941756 C349.8372 3.941756 349.6703 4.106248 349.3276 4.422409 C349.3276 4.422409 349.1549 4.578108 348.8017 4.874502 C348.8017 4.874502 348.624 5.019956 348.2628 5.293715 C348.2628 5.293715 348.0813 5.427505 347.7146 5.675896 C347.7146 5.675896 347.5308 5.796679 347.1616 6.017203 M341.484 6.573985 C341.484 6.573985 341.599 6.640749 341.8425 6.7574 C341.8425 6.7574 341.9665 6.812771 342.2281 6.905353 C342.2281 6.905353 342.3612 6.94847 342.6408 7.015213 C342.6408 7.015213 342.7829 7.045187 343.0803 7.084291 C343.0803 7.084291 343.225 7.099562 343.5264 7.109699 C343.5264 7.109699 343.679 7.111231 343.9956 7.092721 C343.9956 7.092721 344.1556 7.079751 344.486 7.03123 C344.486 7.03123 344.6528 7.003109 344.9956 6.923504 C344.9956 6.923504 345.1683 6.879741 345.5215 6.768348 C345.5215 6.768348 345.6992 6.708644 346.0604 6.565226 C346.0604 6.565226 346.2419 6.48953 346.6086 6.314418 C346.6086 6.314418 346.7005 6.268699 346.8848 6.171488 C346.8848 6.171488 346.977 6.121935 347.1616 6.017203 M339.144 1.388205 C339.144 1.388205 339.144 1.581087 339.1597 1.958911 C339.1597 1.958911 339.1703 2.146414 339.2073 2.512666 C339.2073 2.512666 339.2285 2.694236 339.2873 3.04771 C339.2873 3.04771 339.3194 3.222727 339.4002 3.562086 C339.4002 3.562086 339.4435 3.729868 339.547 4.05365 C339.547 4.05365 339.6016 4.213448 339.7282 4.520059 C339.7282 4.520059 339.7944 4.67106 339.9447 4.958773 C339.9447 4.958773 340.0228 5.100095 340.1973 5.367041 C340.1973 5.367041 340.2822 5.489938 340.4684 5.720432 C340.4684 5.720432 340.5644 5.832983 340.7729 6.041409 C340.7729 6.041409 340.88 6.142678 341.1113 6.327009 C341.1113 6.327009 341.2298 6.41596 341.484 6.573985 M328.4539 7.560148 L339.144 1.388205 M328.4539 7.560148 C328.4539 7.560148 328.4539 7.753029 328.4381 8.149027 C328.4381 8.149027 328.4276 8.348677 328.3906 8.757696 C328.3906 8.757696 328.3694 8.963765 328.3106 9.385057 C328.3106 9.385057 328.2785 9.597162 328.1977 10.0299 C328.1977 10.0299 328.1544 10.24762 328.0509 10.69089 C328.0509 10.69089 327.9963 10.91375 327.8697 11.36655 C327.8697 11.36655 327.8035 11.59403 327.6532 12.05524 C327.6532 12.05524 327.5751 12.28678 327.4006 12.75518 C327.4006 12.75518 327.3206 12.96335 327.146 13.38294 C327.146 13.38294 327.0563 13.5932 326.8619 14.01614 C326.8619 14.01614 326.7623 14.22792 326.5478 14.65294 C326.5478 14.65294 326.4381 14.86557 326.2032 15.29114 C326.2032 15.29114 326.0833 15.50384 325.8279 15.9282 C325.8279 15.9282 325.6977 16.14004 325.4218 16.56119 C325.4218 16.56119 325.2813 16.77115 324.9849 17.18683 C324.9849 17.18683 324.8342 17.39376 324.5176 17.80149 C324.5176 17.80149 324.3729 17.98384 324.0715 18.34201 C324.0715 18.34201 323.9189 18.51978 323.6023 18.86676 C323.6023 18.86676 323.4423 19.0386 323.1118 19.37161 C323.1118 19.37161 322.945 19.53611 322.6023 19.85226 C322.6023 19.85226 322.4296 20.00797 322.0764 20.30436 C322.0764 20.30436 321.8987 20.44981 321.5374 20.72357 C321.5374 20.72357 321.356 20.85736 320.9893 21.10575 C320.9893 21.10575 320.8055 21.22654 320.4363 21.44706 M314.7587 22.00384 C314.7587 22.00384 314.8737 22.0706 315.1172 22.18726 C315.1172 22.18726 315.2412 22.24263 315.5028 22.33521 C315.5028 22.33521 315.6359 22.37833 315.9156 22.44507 C315.9156 22.44507 316.0576 22.47504 316.355 22.51415 C316.355 22.51415 316.4997 22.52942 316.8011 22.53956 C316.8011 22.53956 316.9537 22.54109 317.2703 22.52258 C317.2703 22.52258 317.4303 22.50961 317.7607 22.46109 C317.7607 22.46109 317.9276 22.43297 318.2703 22.35336 C318.2703 22.35336 318.443 22.3096 318.7962 22.1982 C318.7962 22.1982 318.9738 22.1385 319.3351 21.99508 C319.3351 21.99508 319.5165 21.91939 319.8833 21.74427 C319.8833 21.74427 319.9752 21.69855 320.1595 21.60135 C320.1595 21.60135 320.2517 21.55179 320.4363 21.44706 M312.4187 16.81806 C312.4187 16.81806 312.4187 17.01094 312.4344 17.38877 C312.4344 17.38877 312.445 17.57627 312.482 17.94252 C312.482 17.94252 312.5032 18.12409 312.562 18.47757 C312.562 18.47757 312.5941 18.65258 312.6749 18.99194 C312.6749 18.99194 312.7182 19.15973 312.8217 19.48351 C312.8217 19.48351 312.8763 19.6433 313.0029 19.94991 C313.0029 19.94991 313.0691 20.10092 313.2194 20.38863 C313.2194 20.38863 313.2975 20.52995 313.472 20.7969 C313.472 20.7969 313.5569 20.91979 313.7432 21.15029 C313.7432 21.15029 313.8391 21.26284 314.0476 21.47127 C314.0476 21.47127 314.1547 21.57253 314.386 21.75687 C314.386 21.75687 314.5045 21.84582 314.7587 22.00384 M301.7286 22.99 L312.4187 16.81806 M301.7286 22.99 C301.7286 22.99 301.7286 23.18289 301.7129 23.57888 C301.7129 23.57888 301.7023 23.77853 301.6653 24.18755 C301.6653 24.18755 301.6441 24.39362 301.5854 24.81491 C301.5854 24.81491 301.5532 25.02702 301.4724 25.45976 C301.4724 25.45976 301.4291 25.67747 301.3256 26.12075 C301.3256 26.12075 301.271 26.34361 301.1444 26.7964 C301.1444 26.7964 301.0782 27.02389 300.9279 27.48509 C300.9279 27.48509 300.8498 27.71664 300.6753 28.18504 C300.6753 28.18504 300.5953 28.39321 300.4207 28.8128 C300.4207 28.8128 300.331 29.02305 300.1367 29.446 C300.1367 29.446 300.037 29.65778 299.8225 30.0828 C299.8225 30.0828 299.7128 30.29543 299.478 30.721 C299.478 30.721 299.358 30.93369 299.1027 31.35806 C299.1027 31.35806 298.9724 31.5699 298.6965 31.99104 C298.6965 31.99104 298.556 32.20101 298.2596 32.61669 C298.2596 32.61669 298.1089 32.82362 297.7923 33.23134 C297.7923 33.23134 297.6476 33.4137 297.3462 33.77186 C297.3462 33.77186 297.1935 33.94963 296.877 34.29662 C296.877 34.29662 296.717 34.46846 296.3866 34.80147 C296.3866 34.80147 296.2198 34.96596 295.877 35.28212 C295.877 35.28212 295.7043 35.43782 295.3511 35.73421 C295.3511 35.73421 295.1734 35.87967 294.8122 36.15343 C294.8122 36.15343 294.6307 36.28722 294.264 36.53561 C294.264 36.53561 294.0802 36.65639 293.711 36.87691 M288.0334 37.4337 C288.0334 37.4337 288.1484 37.50046 288.3919 37.61711 C288.3919 37.61711 288.5159 37.67249 288.7776 37.76506 C288.7776 37.76506 288.9106 37.80818 289.1902 37.87493 C289.1902 37.87493 289.3323 37.9049 289.6297 37.944 C289.6297 37.944 289.7744 37.95927 290.0758 37.96941 C290.0758 37.96941 290.2285 37.97094 290.545 37.95243 C290.545 37.95243 290.705 37.93946 291.0354 37.89094 C291.0354 37.89094 291.2022 37.86282 291.545 37.78322 C291.545 37.78322 291.7177 37.73945 292.0709 37.62806 C292.0709 37.62806 292.2486 37.56836 292.6098 37.42494 C292.6098 37.42494 292.7913 37.34924 293.158 37.17413 C293.158 37.17413 293.2499 37.12841 293.4342 37.0312 C293.4342 37.0312 293.5264 36.98165 293.711 36.87691 M285.6934 32.24792 C285.6934 32.24792 285.6934 32.4408 285.7091 32.81863 C285.7091 32.81863 285.7197 33.00613 285.7567 33.37238 C285.7567 33.37238 285.7779 33.55395 285.8367 33.90742 C285.8367 33.90742 285.8688 34.08244 285.9496 34.4218 C285.9496 34.4218 285.9929 34.58958 286.0964 34.91336 C286.0964 34.91336 286.151 35.07316 286.2776 35.37977 C286.2776 35.37977 286.3438 35.53077 286.4941 35.81849 C286.4941 35.81849 286.5722 35.95981 286.7467 36.22675 C286.7467 36.22675 286.8316 36.34965 287.0179 36.58015 C287.0179 36.58015 287.1138 36.6927 287.3223 36.90112 C287.3223 36.90112 287.4294 37.00239 287.6607 37.18672 C287.6607 37.18672 287.7792 37.27567 288.0334 37.4337 M275.0033 38.41986 L285.6934 32.24792 M275.0033 38.41986 C275.0033 38.41986 275.0033 38.61274 274.9875 39.00874 C274.9875 39.00874 274.977 39.20839 274.94 39.61741 C274.94 39.61741 274.9188 39.82348 274.86 40.24477 C274.86 40.24477 274.8279 40.45687 274.7471 40.88961 C274.7471 40.88961 274.7038 41.10733 274.6003 41.5506 C274.6003 41.5506 274.5457 41.77346 274.4191 42.22626 C274.4191 42.22626 274.3529 42.45374 274.2026 42.91495 C274.2026 42.91495 274.1245 43.1465 273.95 43.61489 C273.95 43.61489 273.87 43.82307 273.6954 44.24266 C273.6954 44.24266 273.6057 44.45291 273.4113 44.87586 C273.4113 44.87586 273.3117 45.08764 273.0972 45.51266 C273.0972 45.51266 272.9875 45.72529 272.7527 46.15086 C272.7527 46.15086 272.6327 46.36355 272.3773 46.78791 C272.3773 46.78791 272.2471 46.99976 271.9712 47.4209 C271.9712 47.4209 271.8307 47.63087 271.5343 48.04655 C271.5343 48.04655 271.3836 48.25348 271.067 48.6612 C271.067 48.6612 270.9223 48.84356 270.6209 49.20172 C270.6209 49.20172 270.4683 49.37949 270.1517 49.72647 C270.1517 49.72647 269.9917 49.89831 269.6613 50.23133 C269.6613 50.23133 269.4944 50.39582 269.1517 50.71198 C269.1517 50.71198 268.979 50.86768 268.6258 51.16407 C268.6258 51.16407 268.4482 51.30952 268.0869 51.58329 C268.0869 51.58329 267.9055 51.71708 267.5387 51.96547 C267.5387 51.96547 267.3549 52.08625 266.9857 52.30677 M261.3081 52.86356 C261.3081 52.86356 261.4231 52.93032 261.6666 53.04697 C261.6666 53.04697 261.7906 53.10234 262.0522 53.19492 C262.0522 53.19492 262.1853 53.23804 262.465 53.30478 C262.465 53.30478 262.607 53.33476 262.9044 53.37386 C262.9044 53.37386 263.0491 53.38913 263.3505 53.39927 C263.3505 53.39927 263.5031 53.4008 263.8197 53.38229 C263.8197 53.38229 263.9797 53.36932 264.3102 53.3208 C264.3102 53.3208 264.477 53.29268 264.8197 53.21307 C264.8197 53.21307 264.9924 53.16931 265.3456 53.05792 C265.3456 53.05792 265.5233 52.99821 265.8846 52.8548 C265.8846 52.8548 266.0659 52.7791 266.4327 52.60399 C266.4327 52.60399 266.5246 52.55827 266.7089 52.46106 C266.7089 52.46106 266.8011 52.4115 266.9857 52.30677 M258.9681 47.67778 C258.9681 47.67778 258.9681 47.87066 258.9839 48.24848 C258.9839 48.24848 258.9944 48.43599 259.0314 48.80223 C259.0314 48.80223 259.0526 48.98381 259.1114 49.33728 C259.1114 49.33728 259.1435 49.5123 259.2243 49.85166 C259.2243 49.85166 259.2676 50.01944 259.3711 50.34322 C259.3711 50.34322 259.4257 50.50302 259.5523 50.80963 C259.5523 50.80963 259.6185 50.96063 259.7688 51.24834 C259.7688 51.24834 259.8469 51.38966 260.0214 51.65661 C260.0214 51.65661 260.1063 51.77951 260.2926 52.01 C260.2926 52.01 260.3885 52.12255 260.597 52.33098 C260.597 52.33098 260.7041 52.43225 260.9354 52.61658 C260.9354 52.61658 261.0539 52.70553 261.3081 52.86356 M248.278 53.84972 L258.9681 47.67778 M248.278 53.84972 C248.278 53.84972 248.278 54.0426 248.2623 54.4386 C248.2623 54.4386 248.2517 54.63824 248.2147 55.04726 C248.2147 55.04726 248.1935 55.25333 248.1348 55.67463 C248.1348 55.67463 248.1026 55.88673 248.0218 56.31947 C248.0218 56.31947 247.9785 56.53719 247.875 56.98046 C247.875 56.98046 247.8204 57.20332 247.6938 57.65612 C247.6938 57.65612 247.6276 57.8836 247.4773 58.34481 C247.4773 58.34481 247.3992 58.57635 247.2247 59.04475 C247.2247 59.04475 247.1447 59.25292 246.9702 59.67251 C246.9702 59.67251 246.8804 59.88277 246.6861 60.30571 C246.6861 60.30571 246.5864 60.51749 246.3719 60.94251 C246.3719 60.94251 246.2622 61.15514 246.0274 61.58072 C246.0274 61.58072 245.9074 61.79341 245.6521 62.21777 C245.6521 62.21777 245.5218 62.42962 245.2459 62.85076 C245.2459 62.85076 245.1054 63.06072 244.809 63.4764 C244.809 63.4764 244.6583 63.68333 244.3417 64.09106 C244.3417 64.09106 244.197 64.27341 243.8956 64.63158 C243.8956 64.63158 243.743 64.80935 243.4264 65.15633 C243.4264 65.15633 243.2664 65.32817 242.936 65.66119 C242.936 65.66119 242.7692 65.82568 242.4264 66.14184 C242.4264 66.14184 242.2537 66.29754 241.9005 66.59393 C241.9005 66.59393 241.7229 66.73938 241.3616 67.01315 C241.3616 67.01315 241.1801 67.14693 240.8134 67.39532 C240.8134 67.39532 240.6296 67.51611 240.2604 67.73663 M234.5828 68.29341 C234.5828 68.29341 234.6978 68.36018 234.9413 68.47683 C234.9413 68.47683 235.0653 68.5322 235.327 68.62478 C235.327 68.62478 235.46 68.66789 235.7397 68.73464 C235.7397 68.73464 235.8817 68.76461 236.1791 68.80372 C236.1791 68.80372 236.3238 68.81899 236.6252 68.82912 C236.6252 68.82912 236.7778 68.83066 237.0944 68.81215 C237.0944 68.81215 237.2544 68.79918 237.5848 68.75066 C237.5848 68.75066 237.7516 68.72253 238.0944 68.64293 C238.0944 68.64293 238.2671 68.59917 238.6203 68.48778 C238.6203 68.48778 238.798 68.42807 239.1592 68.28465 C239.1592 68.28465 239.3407 68.20895 239.7074 68.03384 C239.7074 68.03384 239.7993 67.98813 239.9836 67.89091 C239.9836 67.89091 240.0758 67.84136 240.2604 67.73663 M232.2428 63.10763 C232.2428 63.10763 232.2428 63.30051 232.2586 63.67834 C232.2586 63.67834 232.2691 63.86584 232.3061 64.23209 C232.3061 64.23209 232.3273 64.41367 232.3861 64.76714 C232.3861 64.76714 232.4182 64.94215 232.4991 65.28151 C232.4991 65.28151 232.5423 65.4493 232.6458 65.77308 C232.6458 65.77308 232.7004 65.93288 232.827 66.23949 C232.827 66.23949 232.8932 66.39049 233.0435 66.6782 C233.0435 66.6782 233.1216 66.81952 233.2961 67.08646 C233.2961 67.08646 233.381 67.20937 233.5673 67.43986 C233.5673 67.43986 233.6632 67.55241 233.8717 67.76083 C233.8717 67.76083 233.9788 67.86211 234.2101 68.04643 C234.2101 68.04643 234.3286 68.13538 234.5828 68.29341 M186.8098 89.33839 L232.2428 63.10763 M186.8098 89.33839 L186.8098 107.8547 M160.0845 123.2846 L186.8098 107.8547 M160.0845 123.2846 L160.0845 104.7682 L160.0845 123.2846 M114.6515 149.5153 L160.0845 123.2846"
         xml:space="default"
         id="path7417" />
      <path
         d="M99.68536 140.8746 L208.4573 203.6741 L-5.345059 327.113 M-5.345059 336.3709 L-5.345059 327.113 M-5.345059 336.3709 L208.4573 212.932 L208.4573 203.6741"
         xml:space="default"
         id="path7419" />
      <path
         d="M259.2354 205.2171 L-8.017589 359.5157 M-128.5487 289.927 L-8.017589 359.5157"
         xml:space="default"
         id="path7421" />
      <path
         d="M-267.253 216.018 L-133.8937 293.013 M-267.253 216.018 L-267.253 -30.85971 L-133.8937 46.13527 L-115.1793 35.33051 L-115.1793 63.10426 M-114.9188 63.26241 A7.559055 4.364223 180 0 1 -115.1793 63.10426 M-102.0147 60.17644 A7.559055 4.364223 180 0 1 -114.9188 63.26241"
         xml:space="default"
         id="path7423" />
      <path
         d="M-102.0147 56.73801 L-96.47794 53.54139"
         xml:space="default"
         id="path7425" />
      <path
         d="M-115.1793 57.24863 A7.559055 4.364223 180 0 1 -104.5026 56.94003"
         xml:space="default"
         id="path7427" />
      <path
         d="M-113.7181 63.82625 A3.779528 2.182111 120 0 0 -115.186 67.42847"
         xml:space="default"
         id="path7429" />
      <path
         d="M-104.5026 29.16629 L-104.5026 56.94003 M-115.1793 29.47489 A7.559055 4.364223 180 0 1 -104.5026 29.16629 M-115.1793 29.47489 A7.559055 4.364223 180 0 1 -104.5026 29.16629"
         xml:space="default"
         id="path7431" />
      <path
         d="M-115.1793 18.90716 L-115.1793 35.33051"
         xml:space="default"
         id="path7433" />
      <path
         d="M-120.2638 16.97284 A15.11811 8.728445 180 0 1 -120.5277 16.81661 M-120.5277 7.558701 L-120.5277 16.81661 M-120.5277 7.558701 A15.11811 8.728445 180 0 1 -124.6918 1.542986"
         xml:space="default"
         id="path7435" />
      <path
         d="M-120.2638 4.628957 A15.11811 8.728445 180 0 1 -124.6918 -1.542986 M-100.3037 5.352042 A15.11811 8.728445 180 0 1 -120.2638 4.628957 M-100.3037 5.352042 L-100.3037 11.21539 M-97.63117 9.672401 A15.11811 8.728445 180 0 1 -100.3037 11.21539 M-97.63117 3.809056 L-97.63117 9.672401 M-97.63117 3.809056 L-118.8437 -8.438013 L-118.8437 -5.352042"
         xml:space="default"
         id="path7437" />
      <path
         d="M-100.3037 5.352042 L-121.5163 -6.895027"
         xml:space="default"
         id="path7439" />
      <path
         d="M-100.3037 8.129416 L-97.63117 9.672401"
         xml:space="default"
         id="path7441" />
      <path
         d="M-94.4556 10.8009 A15.11811 8.728445 180 0 1 -120.2638 16.97284"
         xml:space="default"
         id="path7443" />
      <path
         d="M-123.2033 39.96316 L-123.2033 9.103448 M-123.2033 39.96316 L-115.1793 35.33051"
         xml:space="default"
         id="path7445" />
      <path
         d="M-173.8583 -30.85971 A173.8583 100.3771 0 0 0 -123.2033 39.96316"
         xml:space="default"
         id="path7447" />
      <path
         d="M-173.8583 -61.71943 A173.8583 100.3771 0 0 0 -123.2033 9.103448 L-120.5277 7.558701"
         xml:space="default"
         id="path7449" />
      <path
         d="M-124.6918 -1.542986 A15.11811 8.728445 180 0 1 -121.5163 -6.895027"
         xml:space="default"
         id="path7451" />
      <path
         d="M-118.8437 -8.438013 A15.11811 8.728445 180 0 1 -94.4556 -1.542986 A15.11811 8.728445 180 0 1 -97.63117 3.809056"
         xml:space="default"
         id="path7453" />
      <path
         d="M-96.75243 -6.167985 L-96.47794 -6.326456 L-96.47794 -40.27214 L-93.80579 -41.81491"
         xml:space="default"
         id="path7455" />
      <path
         d="M-108.6412 -48.37092 A136.063 78.55601 0 0 0 -96.47794 -40.27214 M-108.6412 -48.37092 L-108.6412 -199.5835"
         xml:space="default"
         id="path7457" />
      <path
         d="M-93.80579 -193.0275 L-69.75251 -206.9147 M-69.75251 -89.64005 L-69.75251 -206.9147"
         xml:space="default"
         id="path7459" />
      <path
         d="M-106.9012 -49.37554 L-108.6412 -48.37092"
         xml:space="default"
         id="path7461" />
      <path
         d="M-136.063 -61.71943 A136.063 78.55601 0 0 0 -96.47794 -6.326456"
         xml:space="default"
         id="path7463" />
      <path
         d="M-133.8937 293.013 L-133.8937 46.13527 M-133.8937 293.013 L-107.1684 277.5831 L-5.345059 336.3709"
         xml:space="default"
         id="path7465" />
      <path
         d="M-133.8937 252.8954 L-5.345059 327.113"
         xml:space="default"
         id="path7467" />
      <path
         d="M-80.4427 246.7231 L-80.4427 244.8716"
         xml:space="default"
         id="path7469" />
      <path
         d="M-80.4427 246.7231 L79.90819 154.1445"
         xml:space="default"
         id="path7471" />
      <path
         d="M79.90819 152.2929 A113.3858 65.46334 0 0 0 -18.32784 134.1341"
         xml:space="default"
         id="path7473" />
      <path
         d="M-9.989283 119.9483 L-18.32784 124.7625"
         xml:space="default"
         id="path7475" />
      <path
         d="M-71.85877 167.9666 A26.45669 15.27478 0 0 0 -40.38747 167.9666"
         xml:space="default"
         id="path7477" />
      <path
         d="M-80.44166 166.4873 L-78.84367 165.5647 M-80.44166 166.4873 L-80.44166 164.8308"
         xml:space="default"
         id="path7479" />
      <path
         d="M-93.9184 148.1266 A37.79528 21.82111 0 0 0 -82.84842 163.5565"
         xml:space="default"
         id="path7481" />
      <path
         d="M-248.5452 232.9908 L-248.5452 226.8189 M-248.5452 232.9908 L-8.017589 371.8596 L-8.017589 359.5157"
         xml:space="default"
         id="path7483" />
      <path
         d="M259.2354 217.561 L-8.017589 371.8596 M259.2354 217.561 L259.2354 205.2171 M138.7043 135.6284 L259.2354 205.2171"
         xml:space="default"
         id="path7485" />
      <path
         d="M109.1256 113.6136 C109.1256 113.6136 109.4156 113.8469 110.0033 114.3212 C110.0033 114.3212 110.2984 114.5596 110.8965 115.0435 C110.8965 115.0435 111.1969 115.2865 111.8061 115.7789 C111.8061 115.7789 112.1121 116.026 112.7333 116.5261 C112.7333 116.5261 113.0456 116.7771 113.6806 117.2845 C113.6806 117.2845 113.8403 117.4119 114.1627 117.6679 C114.1627 117.6679 114.3244 117.7961 114.6511 118.0539 C114.6511 118.0539 114.815 118.1831 115.1464 118.4429 C115.1464 118.4429 115.3128 118.573 115.6495 118.8348 C115.6495 118.8348 115.8186 118.966 116.1611 119.2299 C116.1611 119.2299 116.3332 119.3622 116.6823 119.6285 C116.6823 119.6285 116.8248 119.7369 117.1135 119.9551 C117.1135 119.9551 117.2586 120.0644 117.5528 120.2846 C117.5528 120.2846 117.7006 120.3949 118.0008 120.6171 C118.0008 120.6171 118.1517 120.7284 118.4583 120.9527 C118.4583 120.9527 118.6124 121.0651 118.9257 121.2915 C118.9257 121.2915 119.0833 121.4049 119.4037 121.6332 C119.4037 121.6332 119.5648 121.7477 119.8926 121.9779 C119.8926 121.9779 120.0574 122.0932 120.3928 122.3251 C120.3928 122.3251 120.5615 122.4412 120.9046 122.6745 C120.9046 122.6745 121.0772 122.7914 121.4282 123.0258 C121.4282 123.0258 121.6047 123.1431 121.9636 123.3783 C121.9636 123.3783 122.1441 123.496 122.5108 123.7316 C122.5108 123.7316 122.6951 123.8493 123.0694 124.0847 C123.0694 124.0847 123.2574 124.2024 123.6389 124.4371 C123.6389 124.4371 123.8305 124.5543 124.2187 124.7877 C124.2187 124.7877 124.4135 124.9041 124.8074 125.1355 M109.1256 113.6136 A120.9449 69.82756 60 0 1 92.08842 97.7271"
         xml:space="default"
         id="path7487" />
      <path
         d="M112.3779 81.96468 A120.9449 69.82756 240 0 0 148.0581 111.7117"
         xml:space="default"
         id="path7489" />
      <path
         d="M120.9452 71.05106 A98.26772 56.73489 240 0 0 148.0581 93.19574"
         xml:space="default"
         id="path7491" />
      <path
         d="M126.4894 59.06651 A98.26772 56.73489 240 0 0 158.7483 87.0238"
         xml:space="default"
         id="path7493" />
      <path
         d="M213.5351 64.65057 A109.6063 63.28123 60 0 1 166.0893 18.28921"
         xml:space="default"
         id="path7495" />
      <path
         d="M305.0482 -21.6018 A37.79528 21.82111 180 0 1 229.8375 -18.51583"
         xml:space="default"
         id="path7497" />
      <path
         d="M248.382 -83.30579 A18.89764 10.91056 0 0 0 253.917 -75.59087 M248.572 -84.84879 A18.89764 10.91056 0 0 0 248.382 -83.30579"
         xml:space="default"
         id="path7499" />
      <path
         d="M253.6263 -78.84843 A18.89764 10.91056 180 0 1 248.382 -86.39177"
         xml:space="default"
         id="path7501" />
      <path
         d="M214.0096 -160.8426 C214.0096 -160.8426 214.8475 -160.9617 216.5499 -161.1339 C216.5499 -161.1339 217.4054 -161.209 219.1414 -161.293 C219.1414 -161.293 220.0134 -161.324 221.7809 -161.3197 C221.7809 -161.3197 222.6683 -161.3065 224.4652 -161.2141 C224.4652 -161.2141 225.3671 -161.1568 227.1912 -160.9762 C227.1912 -160.9762 228.1065 -160.8748 229.9557 -160.6063 C229.9557 -160.6063 230.8832 -160.4611 232.7553 -160.1049 C232.7553 -160.1049 233.6939 -159.9159 235.5867 -159.4726 C235.5867 -159.4726 236.5354 -159.24 238.4465 -158.71 C238.4465 -158.71 239.4041 -158.4342 241.3313 -157.8182 C241.3313 -157.8182 242.2967 -157.4995 244.2377 -156.7982 C244.2377 -156.7982 245.2096 -156.4369 247.162 -155.6511 C247.162 -155.6511 248.1395 -155.2478 250.1009 -154.3785 C250.1009 -154.3785 251.0826 -153.9335 253.0506 -152.9818 C253.0506 -152.9818 254.0353 -152.4957 256.0076 -151.4628 C256.0076 -151.4628 256.994 -150.9363 258.9681 -149.8234"
         xml:space="default"
         id="path7503" />
      <path
         d="M240.7349 -176.2725 C240.7349 -176.2725 241.5728 -176.3916 243.2753 -176.5638 C243.2753 -176.5638 244.1307 -176.6388 245.8667 -176.7228 C245.8667 -176.7228 246.7387 -176.7538 248.5062 -176.7496 C248.5062 -176.7496 249.3937 -176.7364 251.1905 -176.6439 C251.1905 -176.6439 252.0924 -176.5867 253.9165 -176.406 C253.9165 -176.406 254.8318 -176.3047 256.681 -176.0361 C256.681 -176.0361 257.6085 -175.8909 259.4806 -175.5348 C259.4806 -175.5348 260.4193 -175.3458 262.312 -174.9024 C262.312 -174.9024 263.2607 -174.6699 265.1718 -174.1399 C265.1718 -174.1399 266.1294 -173.8641 268.0566 -173.2481 C268.0566 -173.2481 269.022 -172.9294 270.963 -172.228 C270.963 -172.228 271.9349 -171.8668 273.8874 -171.081 C273.8874 -171.081 274.8647 -170.6776 276.8262 -169.8083 C276.8262 -169.8083 277.8078 -169.3634 279.7759 -168.4117 C279.7759 -168.4117 280.7606 -167.9256 282.7329 -166.8927 C282.7329 -166.8927 283.7194 -166.3661 285.6934 -165.2533"
         xml:space="default"
         id="path7505" />
      <path
         d="M267.4602 -191.7023 C267.4602 -191.7023 268.2981 -191.8214 270.0005 -191.9936 C270.0005 -191.9936 270.856 -192.0687 272.592 -192.1527 C272.592 -192.1527 273.464 -192.1837 275.2315 -192.1794 C275.2315 -192.1794 276.119 -192.1663 277.9158 -192.0738 C277.9158 -192.0738 278.8177 -192.0165 280.6418 -191.8359 C280.6418 -191.8359 281.5571 -191.7346 283.4063 -191.466 C283.4063 -191.466 284.3338 -191.3208 286.2059 -190.9646 C286.2059 -190.9646 287.1445 -190.7756 289.0373 -190.3323 C289.0373 -190.3323 289.986 -190.0997 291.8971 -189.5697 C291.8971 -189.5697 292.8547 -189.294 294.7819 -188.6779 C294.7819 -188.6779 295.7473 -188.3592 297.6883 -187.6579 C297.6883 -187.6579 298.6602 -187.2966 300.6126 -186.5108 C300.6126 -186.5108 301.5901 -186.1075 303.5515 -185.2382 C303.5515 -185.2382 304.5331 -184.7932 306.5013 -183.8415 C306.5013 -183.8415 307.4859 -183.3555 309.4582 -182.3225 C309.4582 -182.3225 310.4446 -181.796 312.4187 -180.6831"
         xml:space="default"
         id="path7507" />
      <path
         d="M294.1855 -207.1322 C294.1855 -207.1322 295.0234 -207.2513 296.7258 -207.4235 C296.7258 -207.4235 297.5813 -207.4985 299.3173 -207.5826 C299.3173 -207.5826 300.1893 -207.6135 301.9568 -207.6093 C301.9568 -207.6093 302.8442 -207.5961 304.6411 -207.5036 C304.6411 -207.5036 305.543 -207.4464 307.3671 -207.2657 C307.3671 -207.2657 308.2824 -207.1644 310.1316 -206.8959 C310.1316 -206.8959 311.0591 -206.7506 312.9312 -206.3945 C312.9312 -206.3945 313.8698 -206.2055 315.7625 -205.7621 C315.7625 -205.7621 316.7113 -205.5296 318.6224 -204.9996 C318.6224 -204.9996 319.58 -204.7238 321.5072 -204.1078 C321.5072 -204.1078 322.4726 -203.7891 324.4135 -203.0877 C324.4135 -203.0877 325.3855 -202.7265 327.338 -201.9407 C327.338 -201.9407 328.3153 -201.5373 330.2768 -200.668 C330.2768 -200.668 331.2584 -200.2231 333.2265 -199.2714 C333.2265 -199.2714 334.2112 -198.7853 336.1835 -197.7524 C336.1835 -197.7524 337.17 -197.2259 339.144 -196.113"
         xml:space="default"
         id="path7509" />
      <path
         d="M347.4293 -191.6385 A109.6063 63.28123 240 0 0 424.6649 -57.2453"
         xml:space="default"
         id="path7511" />
      <path
         d="M364.4597 -251.325 A120.9449 69.82756 60 0 1 424.6649 -245.4885"
         xml:space="default"
         id="path7513" />
    </g>
    <g
       stroke="#000000"
       stroke-width="0.2"
       id="VisibleSmooth"
       xml:space="default"
       style="fill:none;">
      <path
         d="M248.382 -121.1218 C248.382 -121.1218 248.382 -121.0738 248.387 -120.9776 C248.387 -120.9776 248.3906 -120.9266 248.4033 -120.8244 C248.4033 -120.8244 248.4106 -120.7732 248.4309 -120.6704 C248.4309 -120.6704 248.4531 -120.5675 248.5208 -120.359 C248.5208 -120.359 248.5397 -120.3066 248.5837 -120.2008 C248.5837 -120.2008 248.6066 -120.1478 248.6589 -120.0405 C248.6589 -120.0405 248.686 -119.9867 248.747 -119.8774 C248.747 -119.8774 248.7628 -119.85 248.7961 -119.7946 C248.7961 -119.7946 248.8131 -119.7668 248.8488 -119.7106 C248.8488 -119.7106 248.8815 -119.6599 248.9529 -119.5567 C248.9529 -119.5567 248.9896 -119.5048 249.0695 -119.3988 C249.0695 -119.3988 249.1105 -119.3455 249.1994 -119.2365 C249.1994 -119.2365 249.245 -119.1816 249.3435 -119.0692 C249.3435 -119.0692 249.394 -119.0125 249.5029 -118.8963 C249.5029 -118.8963 249.5588 -118.8377 249.679 -118.7172 C249.679 -118.7172 249.7406 -118.6564 249.873 -118.5311 C249.873 -118.5311 249.9409 -118.4679 250.0869 -118.3372 C250.0869 -118.3372 250.1405 -118.2899 250.2533 -118.193 C250.2533 -118.193 250.3108 -118.1441 250.4318 -118.0438 C250.4318 -118.0438 250.4935 -117.9932 250.6235 -117.8891 C250.6235 -117.8891 250.6897 -117.8366 250.8294 -117.7284 C250.8294 -117.7284 250.9006 -117.6738 251.051 -117.5611 C251.051 -117.5611 251.1276 -117.5041 251.2897 -117.3864 C251.2897 -117.3864 251.3311 -117.3566 251.416 -117.2961 C251.416 -117.2961 251.459 -117.2656 251.5473 -117.2036 C251.5473 -117.2036 251.5919 -117.1724 251.6839 -117.1088 C251.6839 -117.1088 251.7304 -117.0768 251.8265 -117.0114 C251.8265 -117.0114 251.8864 -116.9707 252.0112 -116.8871 C252.0112 -116.8871 252.0744 -116.8449 252.2063 -116.7581 C252.2063 -116.7581 252.2732 -116.7143 252.4127 -116.6241 C252.4127 -116.6241 252.4834 -116.5786 252.631 -116.4849 C252.631 -116.4849 252.7058 -116.4376 252.8616 -116.3404 C252.8616 -116.3404 252.9405 -116.2914 253.1046 -116.1908 C253.1046 -116.1908 253.1876 -116.1401 253.3597 -116.0365 C253.3597 -116.0365 253.4467 -115.9844 253.6263 -115.8781"
         xml:space="default"
         id="path7516" />
      <path
         d="M317.6936 -162.1267 A90.70866 52.37067 60 0 1 320.4363 -160.6242"
         xml:space="default"
         id="path7518" />
      <path
         d="M207.953 -111.1119 A102.0472 58.917 60 0 1 213.5351 -108.1627"
         xml:space="default"
         id="path7520" />
      <path
         d="M152.1899 -16.88956 A102.0472 58.917 60 0 1 141.7388 -70.56138"
         xml:space="default"
         id="path7522" />
      <path
         d="M86.76874 100.7059 L109.1256 113.6136"
         xml:space="default"
         id="path7524" />
      <path
         d="M-93.9184 126.4355 L-115.186 138.7144"
         xml:space="default"
         id="path7526" />
      <path
         d="M-115.186 261.8447 L-112.5135 263.3877"
         xml:space="default"
         id="path7528" />
      <path
         d="M-93.9184 132.6075 L-115.186 144.8864"
         xml:space="default"
         id="path7530" />
      <path
         d="M81.02942 103.5642 L122.6691 127.6049"
         xml:space="default"
         id="path7532" />
      <path
         d="M213.5351 58.47858 A102.0472 58.917 60 0 1 169.8994 16.08947"
         xml:space="default"
         id="path7534" />
      <path
         d="M245.6071 33.78985 C245.6071 33.78985 245.4206 33.67901 245.055 33.45218 C245.055 33.45218 244.8734 33.33796 244.5182 33.10498 C244.5182 33.10498 244.342 32.98778 243.9979 32.74938 C243.9979 32.74938 243.8273 32.62957 243.4947 32.38645 C243.4947 32.38645 243.3299 32.26435 243.0091 32.01714 C243.0091 32.01714 242.8501 31.89308 242.5412 31.64233 C242.5412 31.64233 242.3882 31.51655 242.091 31.26273 C242.091 31.26273 241.9439 31.13547 241.6584 30.87895 C241.6584 30.87895 241.4845 30.72074 241.1499 30.40206 C241.1499 30.40206 240.9848 30.2424 240.6674 29.9212 C240.6674 29.9212 240.5108 29.76031 240.2099 29.43691 C240.2099 29.43691 240.0615 29.27496 239.7764 28.94963 C239.7764 28.94963 239.6357 28.78674 239.3658 28.45972 C239.3658 28.45972 239.2326 28.29601 238.9772 27.96745 C238.9772 27.96745 238.8512 27.80299 238.6098 27.47298 C238.6098 27.47298 238.4907 27.30781 238.2626 26.97641 C238.2626 26.97641 238.1988 26.88216 238.0742 26.69339 C238.0742 26.69339 238.0124 26.59898 237.892 26.40994 C237.892 26.40994 237.7727 26.22084 237.5462 25.84188 C237.5462 25.84188 237.4349 25.65227 237.2241 25.27225 C237.2241 25.27225 237.1205 25.08211 236.9248 24.701 C236.9248 24.701 236.8287 24.5103 236.6476 24.12806 C236.6476 24.12806 236.5588 23.93678 236.3918 23.55332 C236.3918 23.55332 236.31 23.36143 236.1569 22.97664 C236.1569 22.97664 236.082 22.78408 235.9423 22.39787 C235.9423 22.39787 235.8687 22.18918 235.7332 21.77057 C235.7332 21.77057 235.6674 21.56108 235.5472 21.14095 C235.5472 21.14095 235.489 20.93067 235.384 20.50882 C235.384 20.50882 235.3334 20.29766 235.2436 19.87392 C235.2436 19.87392 235.2006 19.66179 235.1258 19.23597 C235.1258 19.23597 235.0904 19.02278 235.0308 18.59467 C235.0308 18.59467 235.003 18.38031 234.9589 17.94968 C234.9589 17.94968 234.9387 17.73403 234.9102 17.30063 C234.9102 17.30063 234.8981 17.08598 234.8857 16.65451 C234.8857 16.65451 234.8815 16.43841 234.8852 16.00392 C234.8852 16.00392 234.8891 15.78626 234.9095 15.34839 C234.9095 15.34839 234.9219 15.129 234.9597 14.68736 C234.9597 14.68736 234.9809 14.46603 235.0371 14.02022 C235.0371 14.02022 235.0676 13.79676 235.1433 13.34633 C235.1433 13.34633 235.1836 13.12049 235.2801 12.66491 C235.2801 12.66491 235.331 12.43642 235.4499 11.9751 C235.4499 11.9751 235.4996 11.79058 235.6108 11.41864 C235.6108 11.41864 235.6684 11.23214 235.7963 10.85578 C235.7963 10.85578 235.8625 10.66701 236.0086 10.28573 C236.0086 10.28573 236.084 10.09443 236.2501 9.707756 C236.2501 9.707756 236.3358 9.513698 236.5239 9.121135 C236.5239 9.121135 236.6209 8.924069 236.8336 8.525093 C236.8336 8.525093 236.9433 8.324749 237.1837 7.918752 C237.1837 7.918752 237.2458 7.81678 237.3756 7.611392 C237.3756 7.611392 237.4416 7.508447 237.5798 7.301027 C237.5798 7.301027 237.6627 7.178272 237.8378 6.93076 C237.8378 6.93076 237.927 6.806632 238.1157 6.556098 C238.1157 6.556098 238.2119 6.430433 238.4155 6.176697 C238.4155 6.176697 238.5194 6.049418 238.7396 5.792392 C238.7396 5.792392 238.8519 5.663464 239.0902 5.403142 C239.0902 5.403142 239.2119 5.272576 239.4703 5.009059 C239.4703 5.009059 239.6022 4.876919 239.8827 4.610426 C239.8827 4.610426 240.026 4.476837 240.3311 4.207696 C240.3311 4.207696 240.4602 4.095963 240.7333 3.870729 C240.7333 3.870729 240.8028 3.814341 240.9456 3.701384 C240.9456 3.701384 241.0176 3.644896 241.1654 3.53192 C241.1654 3.53192 241.2399 3.475454 241.3925 3.36273 C241.3925 3.36273 241.4694 3.306426 241.6268 3.194251 C241.6268 3.194251 241.7061 3.138261 241.868 3.026955 C241.868 3.026955 241.9495 2.971441 242.1157 2.861339 C242.1157 2.861339 242.1993 2.80647 242.3694 2.697915 C242.3694 2.697915 242.4549 2.643863 242.6285 2.537202 C242.6285 2.537202 242.7157 2.484141 242.8923 2.379724 C242.8923 2.379724 242.9809 2.327829 243.16 2.226011 C243.16 2.226011 243.2498 2.17546 243.4307 2.0766 C243.4307 2.0766 243.5213 2.027574 243.7032 1.932036 C243.7032 1.932036 243.7941 1.884718 243.976 1.792874 C243.976 1.792874 244.0669 1.747448 244.2478 1.659661 C244.2478 1.659661 244.4313 1.571515 244.7953 1.406884 C244.7953 1.406884 244.9767 1.326441 245.3358 1.176549 C245.3358 1.176549 245.5146 1.103357 245.868 0.9672433 C245.868 0.9672433 246.0438 0.9008155 246.3908 0.777482 C246.3908 0.777482 246.5634 0.7173182 246.9036 0.6057593 C246.9036 0.6057593 247.0729 0.5513583 247.4063 0.450585 C247.4063 0.450585 247.5722 0.4014559 247.8989 0.3105123 C247.8989 0.3105123 248.0615 0.2661827 248.382 0.1841597"
         xml:space="default"
         id="path7536" />
      <path
         d="M320.4363 -12.49883 A90.70866 52.37067 60 0 1 305.0482 -23.62248"
         xml:space="default"
         id="path7538" />
      <path
         d="M317.7638 -7.869844 A94.48819 54.55278 60 0 1 304.3022 -17.28756"
         xml:space="default"
         id="path7540" />
      <path
         d="M280.3682 5.163167 C280.3682 5.163167 280.5818 5.254271 281.0091 5.439827 C281.0091 5.439827 281.2224 5.533034 281.6463 5.721583 C281.6463 5.721583 281.8575 5.816069 282.275 6.005877 C282.275 6.005877 282.3788 6.053328 282.5848 6.148186 C282.5848 6.148186 282.6875 6.195593 282.8911 6.290237 C282.8911 6.290237 283.0101 6.345753 283.2459 6.456552 C283.2459 6.456552 283.3634 6.511933 283.5964 6.62265 C283.5964 6.62265 283.8289 6.733393 284.2874 6.955697 C284.2874 6.955697 284.516 7.067149 284.9691 7.292295 C284.9691 7.292295 285.1953 7.405384 285.6458 7.634985 C285.6458 7.634985 285.8708 7.750468 286.3204 7.985781 C286.3204 7.985781 286.5453 8.104254 286.9959 8.346388 C286.9959 8.346388 287.2216 8.468423 287.6754 8.71868 C287.6754 8.71868 287.7892 8.781825 288.0179 8.909905 C288.0179 8.909905 288.1324 8.97426 288.3627 9.104892"
         xml:space="default"
         id="path7542" />
      <path
         d="M253.6263 19.90068 C253.6263 19.90068 253.5306 19.84157 253.3431 19.71967 C253.3431 19.71967 253.25 19.65815 253.0681 19.53177 C253.0681 19.53177 252.9778 19.46806 252.8018 19.33764 C252.8018 19.33764 252.7146 19.27197 252.5448 19.13795 C252.5448 19.13795 252.4606 19.07053 252.2972 18.93333 C252.2972 18.93333 252.2163 18.86436 252.0593 18.72436 C252.0593 18.72436 251.9816 18.65405 251.831 18.5116 C251.831 18.5116 251.7566 18.44009 251.6124 18.2955 C251.6124 18.2955 251.5661 18.24841 251.4755 18.15358 C251.4755 18.15358 251.4305 18.10606 251.3424 18.01035 C251.3424 18.01035 251.2548 17.91443 251.087 17.72014 C251.087 17.72014 251.0043 17.62262 250.8459 17.42548 C250.8459 17.42548 250.7679 17.32658 250.6188 17.12696 C250.6188 17.12696 250.4719 16.92679 250.2045 16.52034 C250.2045 16.52034 250.1397 16.41831 250.0164 16.21306 C250.0164 16.21306 249.9558 16.11025 249.8405 15.90355 C249.8405 15.90355 249.8083 15.84473 249.7457 15.72676 C249.7457 15.72676 249.7148 15.66771 249.6546 15.54921 C249.6546 15.54921 249.595 15.43058 249.4828 15.19178 C249.4828 15.19178 249.4278 15.07213 249.3246 14.83147 C249.3246 14.83147 249.2741 14.71093 249.1797 14.46859 C249.1797 14.46859 249.0874 14.22585 248.9283 13.73586 C248.9283 13.73586 248.8905 13.61303 248.8212 13.36639 C248.8212 13.36639 248.7875 13.24291 248.7261 12.99499 C248.7261 12.99499 248.6975 12.87537 248.6457 12.63522 C248.6457 12.63522 248.6207 12.51496 248.576 12.27339 C248.576 12.27339 248.5332 12.03146 248.4687 11.54343 C248.4687 11.54343 248.44 11.29872 248.4039 10.80504 C248.4039 10.80504 248.3894 10.55748 248.382 10.05792"
         xml:space="default"
         id="path7544" />
      <path
         d="M218.8802 49.22063 A94.48819 54.55278 60 0 1 179.0595 10.8009"
         xml:space="default"
         id="path7546" />
      <path
         d="M161.4333 -22.22621 A94.48819 54.55278 60 0 1 152.4019 -69.78145"
         xml:space="default"
         id="path7548" />
    </g>
    <g
       stroke="#000000"
       stroke-width="0.5"
       id="VisibleOutline"
       xml:space="default"
       style="fill:none;">
      <path
         d="M-94.4556 -1.542986 L-94.4556 10.8009"
         xml:space="default"
         id="path7551" />
      <path
         d="M-18.32784 148.1266 L-18.32784 119.4143"
         xml:space="default"
         id="path7553" />
      <path
         d="M-93.9184 148.1266 L-93.9184 96.61889"
         xml:space="default"
         id="path7555" />
      <path
         d="M-102.0147 18.35995 L-102.0147 60.17644"
         xml:space="default"
         id="path7557" />
      <path
         d="M-124.6918 -1.542986 L-124.6918 1.542986"
         xml:space="default"
         id="path7559" />
      <path
         d="M-173.8583 -30.85971 L-173.8583 -61.71943"
         xml:space="default"
         id="path7561" />
      <path
         d="M-136.063 -61.71943 L-136.063 -246.8777"
         xml:space="default"
         id="path7563" />
      <path
         d="M-75.59055 -228.3619 L-75.59055 -290.0813"
         xml:space="default"
         id="path7565" />
      <path
         d="M-52.91339 -290.0813 L-52.91339 -354.5781"
         xml:space="default"
         id="path7567" />
      <path
         d="M52.91339 -215.4008 L52.91339 -354.5781"
         xml:space="default"
         id="path7569" />
      <path
         d="M100.4642 -198.8988 L98.26772 -197.6306"
         xml:space="default"
         id="path7571" />
      <path
         d="M98.26772 -182.0723 L98.26772 -228.3619"
         xml:space="default"
         id="path7573" />
      <path
         d="M115.5824 -172.7135 L104.8922 -166.5415"
         xml:space="default"
         id="path7575" />
      <path
         d="M101.1127 -173.0879 L96.08699 -170.1863"
         xml:space="default"
         id="path7577" />
      <path
         d="M56.69291 -79.92666 L56.69291 -135.7313"
         xml:space="default"
         id="path7579" />
      <path
         d="M60.47244 -74.06331 L60.47244 -79.92666"
         xml:space="default"
         id="path7581" />
      <path
         d="M98.26772 -27.77374 L98.26772 -74.06331"
         xml:space="default"
         id="path7583" />
      <path
         d="M128.5039 45.98097 L128.5039 4.628957"
         xml:space="default"
         id="path7585" />
      <path
         d="M248.382 -2.695261 L248.382 10.0579"
         xml:space="default"
         id="path7587" />
      <path
         d="M234.5828 68.29341 C234.5828 68.29341 232.7491 67.22841 229.0985 64.923"
         xml:space="default"
         id="path7589" />
      <path
         d="M255.8238 49.49314 C255.8238 49.49314 257.6454 50.67445 261.3081 52.86356"
         xml:space="default"
         id="path7591" />
      <path
         d="M282.5491 34.06329 C282.5491 34.06329 284.3707 35.24459 288.0334 37.4337"
         xml:space="default"
         id="path7593" />
      <path
         d="M309.2744 18.63343 C309.2744 18.63343 311.096 19.81473 314.7587 22.00384"
         xml:space="default"
         id="path7595" />
      <path
         d="M335.9997 3.203575 C335.9997 3.203575 337.8213 4.384875 341.484 6.573985"
         xml:space="default"
         id="path7597" />
      <path
         d="M305.0482 -83.32123 L305.0482 -21.6018"
         xml:space="default"
         id="path7599" />
      <path
         d="M215.1081 -104.6981 C215.1081 -104.6981 214.2692 -105.1785 212.5979 -106.081 C212.5979 -106.081 211.7636 -106.5225 210.1041 -107.3458 C210.1041 -107.3458 209.2761 -107.7475 207.6319 -108.4908 C207.6319 -108.4908 206.812 -108.8523 205.1866 -109.5147"
         xml:space="default"
         id="path7601" />
      <path
         d="M229.4577 -83.32123 L229.4577 -61.50011"
         xml:space="default"
         id="path7603" />
      <path
         d="M248.382 -121.1218 L248.382 -86.39177"
         xml:space="default"
         id="path7605" />
      <path
         d="M248.382 -121.1218 C248.382 -121.1218 248.382 -121.1908 248.3784 -121.3289 C248.3784 -121.3289 248.3759 -121.3979 248.3674 -121.5353"
         xml:space="default"
         id="path7607" />
      <path
         d="M174.3859 -154.6785 C174.3859 -154.6785 175.3398 -155.2293 177.2993 -156.2386 C177.2993 -156.2386 178.2873 -156.7276 180.3109 -157.6117 C180.3109 -157.6117 181.3301 -158.0379 183.4122 -158.7949 C183.4122 -158.7949 184.46 -159.1574 186.5952 -159.7862 C186.5952 -159.7862 187.6689 -160.0845 189.8519 -160.5845 C189.8519 -160.5845 190.949 -160.8184 193.1748 -161.1895 C193.1748 -161.1895 194.2926 -161.3589 196.5564 -161.6015 C196.5564 -161.6015 197.6925 -161.7068 199.9894 -161.822 C199.9894 -161.822 201.823 -161.8885 205.5423 -161.7818 C205.5423 -161.7818 207.4095 -161.6891 211.1859 -161.2689 C211.1859 -161.2689 213.08 -161.0202 216.9007 -160.2931 C216.9007 -160.2931 218.8154 -159.8918 222.6681 -158.8647 C222.6681 -158.8647 224.5973 -158.3144 228.4703 -156.9946 C228.4703 -156.9946 230.4083 -156.2988 234.2906 -154.6938 C234.2906 -154.6938 236.2318 -153.8564 240.1127 -151.9739 C240.1127 -151.9739 242.0519 -150.9987 245.9214 -148.8469"
         xml:space="default"
         id="path7609" />
      <path
         d="M167.679 -150.0682 C167.679 -150.0682 168.2083 -150.4965 169.2899 -151.3207 C169.2899 -151.3207 169.8345 -151.7274 170.9458 -152.5075 C170.9458 -152.5075 171.505 -152.892 172.645 -153.6272 C172.645 -153.6272 173.2184 -153.9891 174.3859 -154.6785"
         xml:space="default"
         id="path7611" />
      <path
         d="M201.1112 -170.1083 C201.1112 -170.1083 200.5491 -169.7839 199.4435 -169.1032 C199.4435 -169.1032 198.8938 -168.7576 197.8139 -168.0353 C197.8139 -168.0353 197.2773 -167.669 196.224 -166.9057 C196.224 -166.9057 195.7008 -166.5191 194.6751 -165.7157 C194.6751 -165.7157 194.1658 -165.3091 193.1685 -164.4665 C193.1685 -164.4665 192.6735 -164.0403 191.7053 -163.1593 C191.7053 -163.1593 191.225 -162.714 190.2867 -161.7953 C190.2867 -161.7953 189.8213 -161.3314 188.9134 -160.3759 M272.6467 -164.2767 C272.6467 -164.2767 270.7306 -165.3762 266.8871 -167.379 C266.8871 -167.379 264.9643 -168.3471 261.1143 -170.0811 C261.1143 -170.0811 259.1895 -170.9138 255.343 -172.3714 C255.343 -172.3714 253.4213 -173.0649 249.589 -174.2385 C249.589 -174.2385 247.6757 -174.7891 243.8688 -175.6716 C243.8688 -175.6716 241.9695 -176.0759 238.1995 -176.6603 C238.1995 -176.6603 236.3202 -176.9147 232.5992 -177.1944 C232.5992 -177.1944 230.746 -177.2956 227.0868 -177.2642 C227.0868 -177.2642 225.9176 -177.2288 223.6027 -177.0603 C223.6027 -177.0603 222.4497 -176.9596 220.1709 -176.6597 C220.1709 -176.6597 219.0364 -176.4932 216.7987 -176.0611 C216.7987 -176.0611 215.6854 -175.8285 213.4939 -175.2639 C213.4939 -175.2639 212.4043 -174.9651 210.2644 -174.2685 C210.2644 -174.2685 209.2013 -173.9037 207.1184 -173.0759 C207.1184 -173.0759 206.0846 -172.6457 204.0645 -171.6882 C204.0645 -171.6882 203.0628 -171.1934 201.1112 -170.1083"
         xml:space="default"
         id="path7613" />
      <path
         d="M299.3719 -179.7066 C299.3719 -179.7066 297.4559 -180.8061 293.6125 -182.8089 C293.6125 -182.8089 291.6896 -183.7769 287.8396 -185.511 C287.8396 -185.511 285.9147 -186.3437 282.0683 -187.8012 C282.0683 -187.8012 280.1466 -188.4947 276.3143 -189.6684 C276.3143 -189.6684 274.401 -190.219 270.5941 -191.1015 C270.5941 -191.1015 268.6948 -191.5057 264.9248 -192.0902 C264.9248 -192.0902 263.0455 -192.3445 259.3245 -192.6243 C259.3245 -192.6243 257.4713 -192.7255 253.8121 -192.6941 C253.8121 -192.6941 252.6429 -192.6586 250.328 -192.4901 C250.328 -192.4901 249.175 -192.3895 246.8962 -192.0896 C246.8962 -192.0896 245.7617 -191.9231 243.524 -191.491 C243.524 -191.491 242.4107 -191.2584 240.2191 -190.6938 C240.2191 -190.6938 239.1296 -190.395 236.9897 -189.6983 C236.9897 -189.6983 235.9266 -189.3335 233.8437 -188.5057 C233.8437 -188.5057 232.8099 -188.0755 230.7898 -187.118 C230.7898 -187.118 229.7881 -186.6232 227.8365 -185.5382"
         xml:space="default"
         id="path7615" />
      <path
         d="M227.8365 -185.5382 C227.8365 -185.5382 227.2744 -185.2137 226.1688 -184.5331 C226.1688 -184.5331 225.6191 -184.1875 224.5392 -183.4651 C224.5392 -183.4651 224.0026 -183.0988 222.9493 -182.3356 C222.9493 -182.3356 222.4261 -181.9489 221.4004 -181.1456 C221.4004 -181.1456 220.8911 -180.739 219.8938 -179.8963 C219.8938 -179.8963 219.3988 -179.4702 218.4306 -178.5891 C218.4306 -178.5891 217.9503 -178.1439 217.0119 -177.2252 C217.0119 -177.2252 216.5466 -176.7612 215.6387 -175.8058"
         xml:space="default"
         id="path7617" />
      <path
         d="M254.5618 -200.968 C254.5618 -200.968 253.9997 -200.6436 252.8941 -199.9629 C252.8941 -199.9629 252.3444 -199.6173 251.2645 -198.895 C251.2645 -198.895 250.7279 -198.5287 249.6746 -197.7654 C249.6746 -197.7654 249.1514 -197.3788 248.1257 -196.5754 C248.1257 -196.5754 247.6164 -196.1688 246.6191 -195.3262 C246.6191 -195.3262 246.1241 -194.9001 245.1559 -194.019 C245.1559 -194.019 244.6756 -193.5737 243.7372 -192.655 C243.7372 -192.655 243.2719 -192.1911 242.364 -191.2357 M326.0973 -195.1364 C326.0973 -195.1364 324.1812 -196.2359 320.3377 -198.2387 C320.3377 -198.2387 318.4149 -199.2068 314.5649 -200.9408 C314.5649 -200.9408 312.64 -201.7735 308.7936 -203.2311 C308.7936 -203.2311 306.8719 -203.9246 303.0396 -205.0982 C303.0396 -205.0982 301.1263 -205.6488 297.3194 -206.5313 C297.3194 -206.5313 295.4201 -206.9356 291.6501 -207.52 C291.6501 -207.52 289.7708 -207.7744 286.0498 -208.0541 C286.0498 -208.0541 284.1966 -208.1553 280.5374 -208.1239 C280.5374 -208.1239 279.3682 -208.0885 277.0533 -207.92 C277.0533 -207.92 275.9003 -207.8193 273.6215 -207.5194 C273.6215 -207.5194 272.487 -207.353 270.2493 -206.9208 C270.2493 -206.9208 269.136 -206.6882 266.9444 -206.1237 C266.9444 -206.1237 265.8549 -205.8248 263.715 -205.1282 C263.715 -205.1282 262.6519 -204.7634 260.569 -203.9356 C260.569 -203.9356 259.5352 -203.5054 257.5151 -202.5479 C257.5151 -202.5479 256.5134 -202.0531 254.5618 -200.968"
         xml:space="default"
         id="path7619" />
      <path
         d="M315.8301 -223.2486 L364.4597 -251.325"
         xml:space="default"
         id="path7621" />
      <path
         d="M352.8225 -210.5663 C352.8225 -210.5663 350.9065 -211.6658 347.063 -213.6686 C347.063 -213.6686 345.1402 -214.6367 341.2902 -216.3707 C341.2902 -216.3707 339.3653 -217.2034 335.5189 -218.6609 C335.5189 -218.6609 333.5972 -219.3544 329.7649 -220.5281 C329.7649 -220.5281 327.8516 -221.0787 324.0446 -221.9612 C324.0446 -221.9612 322.1454 -222.3654 318.3754 -222.9499 C318.3754 -222.9499 316.4961 -223.2042 312.7751 -223.484 C312.7751 -223.484 310.9219 -223.5852 307.2627 -223.5538 C307.2627 -223.5538 306.0934 -223.5183 303.7786 -223.3498 C303.7786 -223.3498 302.6255 -223.2492 300.3467 -222.9493 C300.3467 -222.9493 299.2123 -222.7828 296.9745 -222.3507 C296.9745 -222.3507 295.8613 -222.1181 293.6697 -221.5535 C293.6697 -221.5535 292.5802 -221.2547 290.4402 -220.558 C290.4402 -220.558 289.3772 -220.1933 287.2943 -219.3654 C287.2943 -219.3654 286.2605 -218.9352 284.2404 -217.9777 C284.2404 -217.9777 283.2387 -217.483 281.2871 -216.3979 C281.2871 -216.3979 280.725 -216.0734 279.6194 -215.3928 C279.6194 -215.3928 279.0697 -215.0472 277.9898 -214.3248 C277.9898 -214.3248 277.4532 -213.9585 276.3999 -213.1953 C276.3999 -213.1953 275.8767 -212.8086 274.851 -212.0053 C274.851 -212.0053 274.3417 -211.5987 273.3444 -210.7561 C273.3444 -210.7561 272.8494 -210.3299 271.8812 -209.4488 C271.8812 -209.4488 271.4008 -209.0036 270.4625 -208.0849 C270.4625 -208.0849 269.9972 -207.6209 269.0893 -206.6655"
         xml:space="default"
         id="path7623" />
    </g>
  </g>
</svg>
