<?xml version="1.0" encoding="UTF-8" standalone="no"?>
<!-- Created with Inkscape (http://www.inkscape.org/) -->

<svg
   xmlns:dc="http://purl.org/dc/elements/1.1/"
   xmlns:cc="http://creativecommons.org/ns#"
   xmlns:rdf="http://www.w3.org/1999/02/22-rdf-syntax-ns#"
   xmlns:svg="http://www.w3.org/2000/svg"
   xmlns="http://www.w3.org/2000/svg"
   xmlns:sodipodi="http://sodipodi.sourceforge.net/DTD/sodipodi-0.dtd"
   xmlns:inkscape="http://www.inkscape.org/namespaces/inkscape"
   width="100mm"
   height="100mm"
   viewBox="0 0 100 100"
   version="1.1"
   id="svg9846"
   inkscape:version="0.92.1 r15371"
   sodipodi:docname="InkscapeDrawing.svg">
  <defs
     id="defs9840" />
  <sodipodi:namedview
     id="base"
     pagecolor="#ffffff"
     bordercolor="#666666"
     borderopacity="1.0"
     inkscape:pageopacity="0.0"
     inkscape:pageshadow="2"
     inkscape:zoom="1.4"
     inkscape:cx="60.553801"
     inkscape:cy="171.68017"
     inkscape:document-units="mm"
     inkscape:current-layer="layer1"
     showgrid="true"
     showguides="true"
     inkscape:window-width="1920"
     inkscape:window-height="1138"
     inkscape:window-x="-8"
     inkscape:window-y="-8"
     inkscape:window-maximized="1"
     inkscape:snap-grids="true">
    <inkscape:grid
       type="xygrid"
       id="grid10391"
       dotted="true"
       spacingx="0.99999999"
       units="mm"
       spacingy="0.99999999" />
  </sodipodi:namedview>
  <metadata
     id="metadata9843">
    <rdf:RDF>
      <cc:Work
         rdf:about="">
        <dc:format>image/svg+xml</dc:format>
        <dc:type
           rdf:resource="http://purl.org/dc/dcmitype/StillImage" />
        <dc:title></dc:title>
      </cc:Work>
    </rdf:RDF>
  </metadata>
  <g
     inkscape:label="Layer 1"
     inkscape:groupmode="layer"
     id="layer1"
     transform="translate(0,-197)">
    <path
       style="fill:none;stroke:#000000;stroke-width:0.26458332px;stroke-linecap:butt;stroke-linejoin:miter;stroke-opacity:1"
       d="M 0,197 99.999997,297"
       id="path10395"
       inkscape:connector-curvature="0" />
    <path
       style="fill:none;stroke:#000000;stroke-width:0.26458332px;stroke-linecap:butt;stroke-linejoin:miter;stroke-opacity:1"
       d="M 0,297 99.999997,197"
       id="path10397"
       inkscape:connector-curvature="0" />
    <g
       aria-label="Model
Maker"
       transform="matrix(0.68487271,-0.68869969,0.62096321,0.61094348,-135.04907,135.88168)"
       style="font-style:normal;font-weight:normal;font-size:22.90846062px;line-height:1.25;font-family:sans-serif;letter-spacing:0px;word-spacing:0px;fill:#000000;fill-opacity:1;stroke:none;stroke-width:0.57271147"
       id="text10401">
      <path
         d="M 35.467202,211.4608 H 33.25242 v -14.35135 l -4.63091,9.76518 h -1.319921 l -4.597352,-9.76518 v 14.35135 h -2.069368 v -16.65561 h 3.020158 l 4.440752,9.273 4.295336,-9.273 h 3.076087 z"
         style="stroke-width:0.57271147"
         id="path10405"
         inkscape:connector-curvature="0" />
      <path
         d="m 50.444951,205.21914 q 0,3.05372 -1.566008,4.82107 -1.566008,1.76735 -4.194665,1.76735 -2.651027,0 -4.217035,-1.76735 -1.554823,-1.76735 -1.554823,-4.82107 0,-3.05372 1.554823,-4.82107 1.566008,-1.77854 4.217035,-1.77854 2.628657,0 4.194665,1.77854 1.566008,1.76735 1.566008,4.82107 z m -2.17004,0 q 0,-2.42731 -0.95079,-3.60182 -0.950791,-1.18569 -2.639843,-1.18569 -1.711423,0 -2.662213,1.18569 -0.939605,1.17451 -0.939605,3.60182 0,2.34901 0.950791,3.56826 0.95079,1.20806 2.651027,1.20806 1.677866,0 2.628657,-1.19687 0.961976,-1.20807 0.961976,-3.57945 z"
         style="stroke-width:0.57271147"
         id="path10407"
         inkscape:connector-curvature="0" />
      <path
         d="M 63.845506,211.4608 H 61.74258 v -1.30874 q -0.906047,0.78301 -1.890395,1.21925 -0.984348,0.43625 -2.136482,0.43625 -2.237155,0 -3.557076,-1.72261 -1.308735,-1.72261 -1.308735,-4.77632 0,-1.58838 0.447431,-2.83 0.458616,-1.24163 1.230435,-2.11412 0.760632,-0.85011 1.767352,-1.29754 1.017905,-0.44744 2.102925,-0.44744 0.984348,0 1.74498,0.21253 0.760633,0.20135 1.599565,0.63759 v -5.41391 h 2.102926 z m -2.102926,-3.07609 v -7.17008 q -0.850118,-0.38031 -1.521265,-0.52573 -0.671146,-0.14541 -1.465336,-0.14541 -1.767352,0 -2.751699,1.23043 -0.984348,1.23044 -0.984348,3.48996 0,2.22597 0.760632,3.38929 0.760633,1.15214 2.438498,1.15214 0.894862,0 1.812095,-0.39151 0.917234,-0.40268 1.711423,-1.02909 z"
         style="stroke-width:0.57271147"
         id="path10409"
         inkscape:connector-curvature="0" />
      <path
         d="m 78.442938,205.43167 h -9.205891 q 0,1.15213 0.346759,2.01344 0.346759,0.85012 0.950791,1.39822 0.58166,0.53692 1.37585,0.80538 0.805375,0.26845 1.767352,0.26845 1.275178,0 2.561541,-0.50336 1.29755,-0.51454 1.845653,-1.00672 h 0.111858 v 2.29309 q -1.062649,0.44743 -2.17004,0.74944 -1.107392,0.30202 -2.326641,0.30202 -3.109644,0 -4.854625,-1.67787 -1.74498,-1.68905 -1.74498,-4.78751 0,-3.0649 1.66668,-4.86581 1.677866,-1.80091 4.407194,-1.80091 2.527984,0 3.892649,1.47653 1.37585,1.47652 1.37585,4.19466 z m -2.046997,-1.61075 q -0.01118,-1.6555 -0.838933,-2.56154 -0.816561,-0.90605 -2.494427,-0.90605 -1.689051,0 -2.695771,0.99553 -0.995533,0.99554 -1.129763,2.47206 z"
         style="stroke-width:0.57271147"
         id="path10411"
         inkscape:connector-curvature="0" />
      <path
         d="m 83.756178,211.4608 h -2.102925 v -17.40506 h 2.102925 z"
         style="stroke-width:0.57271147"
         id="path10413"
         inkscape:connector-curvature="0" />
      <path
         d="M 35.467202,240.09638 H 33.25242 v -14.35135 l -4.63091,9.76518 h -1.319921 l -4.597352,-9.76518 v 14.35135 h -2.069368 v -16.65562 h 3.020158 l 4.440752,9.27301 4.295336,-9.27301 h 3.076087 z"
         style="stroke-width:0.57271147"
         id="path10415"
         inkscape:connector-curvature="0" />
      <path
         d="m 49.505346,240.09638 h -2.091739 v -1.33111 q -0.279644,0.19016 -0.760633,0.53692 -0.469802,0.33557 -0.917233,0.53691 -0.525731,0.25728 -1.208063,0.42506 -0.682332,0.17897 -1.599566,0.17897 -1.689051,0 -2.863557,-1.11857 -1.174506,-1.11858 -1.174506,-2.85237 0,-1.4206 0.604031,-2.29309 0.615218,-0.88367 1.744981,-1.38703 1.140949,-0.50336 2.740514,-0.68234 1.599565,-0.17897 3.434032,-0.26845 v -0.32439 q 0,-0.71589 -0.257273,-1.18569 -0.246087,-0.46981 -0.715889,-0.73826 -0.447431,-0.25728 -1.073834,-0.34676 -0.626404,-0.0895 -1.308736,-0.0895 -0.827747,0 -1.845652,0.22372 -1.017905,0.21253 -2.102925,0.6264 H 39.99744 v -2.13648 q 0.615218,-0.16779 1.778538,-0.36913 1.16332,-0.20135 2.293083,-0.20135 1.319921,0 2.293083,0.22372 0.984348,0.21253 1.700238,0.73826 0.704703,0.51454 1.073834,1.33111 0.36913,0.81656 0.36913,2.02462 z m -2.091739,-3.07609 v -3.47878 q -0.961977,0.0559 -2.270712,0.16779 -1.297549,0.11186 -2.058182,0.32439 -0.906047,0.25727 -1.465336,0.80537 -0.559289,0.53692 -0.559289,1.48771 0,1.07383 0.648775,1.62194 0.648775,0.53691 1.979882,0.53691 1.107391,0 2.024624,-0.42505 0.917234,-0.43625 1.700238,-1.04028 z"
         style="stroke-width:0.57271147"
         id="path10417"
         inkscape:connector-curvature="0" />
      <path
         d="M 64.919341,240.09638 H 62.14527 l -5.011226,-5.46985 -1.364664,1.29755 v 4.1723 h -2.102925 v -17.40506 h 2.102925 v 11.1634 l 6.073874,-6.25285 h 2.651028 l -5.805416,5.77186 z"
         style="stroke-width:0.57271147"
         id="path10419"
         inkscape:connector-curvature="0" />
      <path
         d="m 77.592817,234.06724 h -9.20589 q 0,1.15214 0.346759,2.01344 0.346759,0.85012 0.95079,1.39823 0.58166,0.53691 1.37585,0.80537 0.805376,0.26846 1.767352,0.26846 1.275178,0 2.561542,-0.50336 1.297549,-0.51455 1.845652,-1.00672 h 0.111858 v 2.29308 q -1.062648,0.44743 -2.17004,0.74945 -1.107391,0.30202 -2.32664,0.30202 -3.109645,0 -4.854625,-1.67787 -1.744981,-1.68905 -1.744981,-4.78751 0,-3.0649 1.66668,-4.86581 1.677866,-1.80091 4.407194,-1.80091 2.527985,0 3.892649,1.47652 1.37585,1.47652 1.37585,4.19467 z m -2.046996,-1.61075 q -0.01119,-1.65549 -0.838933,-2.56154 -0.816561,-0.90605 -2.494427,-0.90605 -1.689052,0 -2.695771,0.99554 -0.995534,0.99553 -1.129763,2.47205 z"
         style="stroke-width:0.57271147"
         id="path10421"
         inkscape:connector-curvature="0" />
      <path
         d="M 88.577248,229.89495 H 88.46539 q -0.469802,-0.11186 -0.917233,-0.1566 -0.436245,-0.0559 -1.040277,-0.0559 -0.973162,0 -1.87921,0.43625 -0.906047,0.42506 -1.74498,1.10739 v 8.87032 H 80.780765 V 227.6019 h 2.102925 v 1.84565 q 1.252806,-1.00672 2.203597,-1.42059 0.961976,-0.42506 1.95751,-0.42506 0.548103,0 0.79419,0.0336 0.246087,0.0224 0.738261,0.10067 z"
         style="stroke-width:0.57271147"
         id="path10423"
         inkscape:connector-curvature="0" />
    </g>
    <circle
       cx="-50.137199"
       cy="261.80258"
       r="1.0454062"
       style="display:inline;fill:#000000;stroke:none;stroke-width:5.22703123;enable-background:new"
       id="circle5657"
       transform="scale(-1,1)" />
    <circle
       cx="-50.137199"
       cy="261.80258"
       r="1.0454062"
       style="display:inline;fill:#000000;stroke:none;stroke-width:5.22703123;enable-background:new"
       id="circle5659"
       transform="scale(-1,1)" />
    <path
       inkscape:connector-curvature="0"
       id="path5665"
       d="m 51.253059,296.99784 v -32.97571 l -2.239772,-0.0313 v 33.04388 z"
       style="display:inline;fill:#000000;fill-rule:evenodd;stroke:none;stroke-width:1.47518444;enable-background:new"
       sodipodi:nodetypes="ccccc" />
    <circle
       cx="-50.133091"
       cy="261.81058"
       r="2.7678525"
       style="display:inline;fill:#000000;stroke:none;stroke-width:13.83926392;enable-background:new"
       id="circle5667"
       transform="scale(-1,1)" />
    <path
       inkscape:connector-curvature="0"
       id="path5671"
       d="m 49.078478,270.90011 c 0,0 -5.587827,0.0157 -8.312919,0 -0.771034,-0.004 -3.505597,-2.74654 -4.195967,-3.13617 -1.176329,-0.66409 1.102757,2.84372 0.702068,2.74435 -0.553459,-0.13747 -3.073682,-2.38995 -3.848872,-2.74435 -1.184179,-0.54131 1.144061,2.8745 0.701922,2.74435 -0.436509,-0.12858 -2.887469,-2.30904 -3.848877,-2.74435 -1.270164,-0.57507 1.419243,2.71016 1.419243,4.18158 0,1.47146 -2.745508,4.82852 -1.419243,4.18167 0.976514,-0.47618 3.398443,-2.67111 3.918298,-2.88271 0.519828,-0.21169 -2.026416,3.59615 -0.771343,2.88271 0.710212,-0.40353 3.336272,-2.78005 3.918292,-2.88271 0.487735,-0.0863 -2.274657,3.6941 -0.771488,2.88271 0.654994,-0.35334 3.559336,-3.13491 4.195967,-3.13627 2.603276,-0.005 8.312919,0 8.312919,0 z"
       style="display:inline;fill:#000000;fill-rule:evenodd;stroke:none;stroke-width:1.47518444;enable-background:new"
       sodipodi:nodetypes="csssssssszsssscc" />
    <path
       inkscape:connector-curvature="0"
       id="path5677"
       d="m 63.664388,270.90011 c -2.929254,-0.0313 -12.492819,0 -12.492819,0 v 2.09081 c 0,0 8.961583,-0.0157 12.528682,0 0.76612,0.003 -2.019422,2.86368 -1.04986,2.67823 3.805917,-0.72818 7.349608,-3.72363 7.349608,-3.72363 0,0 -3.837341,-2.63808 -7.349608,-3.59814 -0.88629,-0.24201 1.638638,2.55901 1.013997,2.55273 z"
       style="display:inline;fill:#000000;fill-rule:evenodd;stroke:none;stroke-width:1.47518444;enable-background:new"
       sodipodi:nodetypes="sccsscss" />
    <path
       inkscape:connector-curvature="0"
       id="path5731"
       d="m 49.049943,281.38794 a 2.7137821,2.6337986 0 0 0 0,4.7716 z"
       style="display:inline;fill:#000000;fill-rule:evenodd;stroke:none;stroke-width:1.47518444;enable-background:new" />
    <path
       inkscape:connector-curvature="0"
       id="path5737"
       d="m 51.220976,281.38794 a 2.7137821,2.6337986 0 0 1 0,4.7716 z"
       style="display:inline;fill:#000000;fill-rule:evenodd;stroke:none;stroke-width:1.47518444;enable-background:new" />
    <circle
       transform="scale(-1,1)"
       id="circle5859"
       style="display:inline;fill:#ffffff;stroke:none;stroke-width:5.22703123;enable-background:new"
       r="1.0454062"
       cy="261.80258"
       cx="-50.133091" />
    <rect
       style="fill:#575757;fill-opacity:1;stroke:#d8d8dd;stroke-width:0.21986873;stroke-miterlimit:4;stroke-dasharray:none;stroke-dashoffset:0;stroke-opacity:1"
       id="rect10448"
       width="30.000002"
       height="20"
       x="65"
       y="237" />
  </g>
</svg>
