<?xml version="1.0" encoding="UTF-8" standalone="no"?>
<svg
   width="52.916668mm"
   height="66.145836mm"
   version="1.1"
   id="svg2"
   xmlns="http://www.w3.org/2000/svg"
   xmlns:svg="http://www.w3.org/2000/svg">
  <defs
     id="defs2" />
  <path
     id="circle2"
     style="stroke:#ff0000;stroke-width:1;vector-effect:non-scaling-stroke;-inkscape-stroke:hairline;stroke-dasharray:none;fill:none"
     d="m 53.153483,28.19323 a 20,20 0 0 1 -20,20 20,20 0 0 1 -20,-20 20,20 0 0 1 20,-20.0000001 20,20 0 0 1 20,20.0000001 z" />
  <path
     id="ellipse2"
     style="stroke:#ff0000;stroke-width:1;vector-effect:non-scaling-stroke;-inkscape-stroke:hairline;stroke-dasharray:none;fill:none"
     d="m 103.15348,28.19323 a 20,5 0 0 1 -19.999997,5 20,5 0 0 1 -20,-5 20,5 0 0 1 20,-5 20,5 0 0 1 19.999997,5 z" />
</svg>
