<?xml version="1.0" encoding="UTF-8" standalone="no"?>
<svg
   xmlns:dc="http://purl.org/dc/elements/1.1/"
   xmlns:cc="http://creativecommons.org/ns#"
   xmlns:rdf="http://www.w3.org/1999/02/22-rdf-syntax-ns#"
   xmlns:svg="http://www.w3.org/2000/svg"
   xmlns="http://www.w3.org/2000/svg"
   xmlns:sodipodi="http://sodipodi.sourceforge.net/DTD/sodipodi-0.dtd"
   xmlns:inkscape="http://www.inkscape.org/namespaces/inkscape"
   inkscape:version="1.0 (4035a4fb49, 2020-05-01)"
   inkscape:export-ydpi="114.5"
   inkscape:export-xdpi="114.5"
   inkscape:export-filename="M:\Projekte\Macad3D\Source\Macad.UserGuide\Concepts\ImportExportDrawingSample.png"
   sodipodi:docname="ImportExportDrawingSample.svg"
   id="svg439"
   version="1.1"
   viewBox="0, 0, 326.3654, 253.1001"
   height="66.96607mm"
   width="86.35086mm">
  <metadata
     id="metadata443">
    <rdf:RDF>
      <cc:Work
         rdf:about="">
        <dc:format>image/svg+xml</dc:format>
        <dc:type
           rdf:resource="http://purl.org/dc/dcmitype/StillImage" />
      </cc:Work>
    </rdf:RDF>
  </metadata>
  <defs
     id="defs441" />
  <sodipodi:namedview
     inkscape:current-layer="svg439"
     inkscape:cy="126.55006"
     inkscape:cx="163.18273"
     inkscape:zoom="3.753461"
     showgrid="false"
     inkscape:document-rotation="0"
     id="namedview2"
     inkscape:document-units="mm" />
  <g
     transform="translate(163.1827,122.9473)"
     id="Drawing">
    <g
       style="stroke:black;fill:none;"
       stroke-width="0.7559055"
       id="Outline">
      <path
         id="path4"
         d="M-24.39785,65.23394 L-24.39785,67.06023" />
      <path
         id="path6"
         d="M-26.55704,67.50135 L-27.99649,67.18667 L-27.99649,63.5341" />
      <path
         id="path8"
         d="M-26.55704,64.76192 L-26.55704,63.84877" />
      <path
         id="path10"
         d="M-26.77209,63.16414 L-27.99649,63.5341 L-26.55704,63.84877 L-25.33263,63.47882" />
      <path
         id="path12"
         d="M-25.33263,62.84121 L-25.54769,62.79419 L-26.77209,63.16414 L-25.33263,63.47882" />
      <path
         id="path14"
         d="M-25.33263,64.39197 L-26.55704,64.76192 L-24.39785,65.23394 L-23.17344,64.86399" />
      <path
         id="path16"
         d="M-8.17731,50.79858 L-6.952906,50.42863 A1.336265,0.9836608 253.1879 0 0 -7.339399,47.8581 A1.336265,0.9836608 253.1879 0 0 -7.725892,47.87033 L-8.950296,48.24028 A1.336265,0.9836608 253.1879 1 0 -8.17731,50.79858 A1.336265,0.9836608 253.1879 0 0 -8.563803,48.22805 A1.336265,0.9836608 253.1879 0 0 -8.950296,48.24028" />
      <path
         id="path18"
         d="M-14.32164,49.17385 L-17.20056,48.54449 L-17.20056,46.7182 L-14.32164,47.34756" />
      <path
         id="path20"
         d="M-13.09723,46.97761 L-14.32164,47.34756 L-14.32164,49.17385 L-13.09723,48.8039 L-13.09723,46.97761 L-15.97615,46.34825 L-17.20056,46.7182" />
      <path
         id="path22"
         d="M-24.39785,45.1448 L-24.39785,46.97108" />
      <path
         id="path24"
         d="M-26.55704,47.4122 L-27.99649,47.09752 L-27.99649,43.44495" />
      <path
         id="path26"
         d="M-26.55704,44.67278 L-24.39785,45.1448" />
      <path
         id="path28"
         d="M-23.17344,44.77485 L-24.39785,45.1448" />
      <path
         id="path30"
         d="M-25.33263,44.30283 L-26.55704,44.67278 L-26.55704,43.75963" />
      <path
         id="path32"
         d="M-26.77209,43.075 L-27.99649,43.44495 L-26.55704,43.75963 L-25.33263,43.38968 L-26.77209,43.075 L-25.54769,42.70505" />
      <path
         id="path34"
         d="M-25.33263,42.75206 L-25.54769,42.70505" />
      <path
         id="path36"
         d="M-24.39785,25.05566 L-24.39785,26.88194" />
      <path
         id="path38"
         d="M-26.55704,27.32306 L-27.99649,27.00838 L-27.99649,23.35581" />
      <path
         id="path40"
         d="M-26.55704,24.58364 L-24.39785,25.05566" />
      <path
         id="path42"
         d="M-23.17344,24.68571 L-24.39785,25.05566" />
      <path
         id="path44"
         d="M-25.33263,24.21368 L-26.55704,24.58364 L-26.55704,23.67049" />
      <path
         id="path46"
         d="M-26.77209,22.98586 L-27.99649,23.35581 L-26.55704,23.67049 L-25.33263,23.30054 L-26.77209,22.98586 L-25.54769,22.61591 L-25.33263,22.66292" />
      <path
         id="path48"
         d="M-23.54688,14.83306 A3.779528,2.782213 253.1879 0 0 -25.33263,17.82168 L-25.33263,23.30054 L-25.33263,24.21368 L-23.17344,24.68571 L-23.17344,26.51199 L-24.39785,26.88194 L-26.55704,26.40992 L-26.55704,27.32306 L-25.33263,26.95311" />
      <path
         id="path50"
         d="M-25.33263,26.67759 L-25.33263,26.95311 L-25.33263,43.38968 L-25.33263,44.30283 L-23.17344,44.77485 L-23.17344,46.60113 L-24.39785,46.97108 L-26.55704,46.49906 L-26.55704,47.4122 L-25.33263,47.04226" />
      <path
         id="path52"
         d="M-25.33263,46.76673 L-25.33263,47.04226 L-25.33263,63.47882 L-25.33263,64.39197 L-23.17344,64.86399 L-23.17344,66.69028 L-24.39785,67.06023 L-26.55704,66.5882 L-26.55704,67.50135 L-25.33263,67.13139" />
      <path
         id="path54"
         d="M-25.33263,66.85587 L-25.33263,67.13139 L-25.33263,72.61025 A3.779528,2.782213 73.18791 0 0 -22.45371,76.89219 L-8.059128,80.03899 A3.779528,2.782213 73.18791 0 0 -6.965961,80.00441" />
      <path
         id="path56"
         d="M-5.741557,79.63445 A3.779528,2.782213 73.18791 0 0 -3.955806,76.64584 L-3.955806,21.85726 A3.779528,2.782213 73.18791 0 0 -6.834724,17.57533 L-21.22931,14.42852 A3.779528,2.782213 253.1879 0 0 -22.32248,14.46311 L-23.54688,14.83306 A3.779528,2.782213 253.1879 0 1 -22.45371,14.79847 L-8.059128,17.94528 A3.779528,2.782213 73.18791 0 1 -5.180211,22.22721 L-5.180211,77.01579 A3.779528,2.782213 73.18791 0 1 -6.965961,80.00441 L-5.741557,79.63445 Z" />
      <path
         id="path58"
         d="M1.082299,92.3575 L1.082299,19.30608 L-95.36143,-1.777538" />
      <path
         id="path60"
         d="M-99.81677,-10.7259 A25.98275,16.2691 102.3315 0 1 -95.36143,-1.777538 L-95.36143,71.27389 L1.082299,92.3575 L107.6055,60.17173 L107.6055,-19.24621" />
      <path
         id="path62"
         d="M104.8447,-18.30432 A1.1922,0.8776107 253.1879 0 0 105.2839,-18.69282" />
      <path
         id="path64"
         d="M102.6699,-24.73108 L102.6699,-18.69357 L104.5129,-18.29069 A1.1922,0.8776107 253.1879 0 0 104.8447,-18.30432 L107.2935,-19.04422 A1.1922,0.8776107 253.1879 0 0 107.7327,-19.43273 L105.2839,-18.69282 C106.6318,-23.1837 108.4194,-25.0998 111.13,-25.9188 C112.2984,-26.27182 113.6382,-26.42101 115.1883,-26.48471 A0.9352251,0.6884446 73.18791 0 0 115.6251,-27.23464" />
      <path
         id="path66"
         d="M107.7327,-19.43273 C108.8834,-23.26632 110.3544,-25.22366 112.4465,-26.22396" />
      <path
         id="path68"
         d="M115.1883,-26.48471 L117.6371,-27.22462 A0.9352251,0.6884446 73.18791 0 0 118.0739,-27.97454" />
      <path
         id="path70"
         d="M118.0739,-29.38535 L118.0739,-27.97454 L115.6251,-27.23464 L115.6251,-28.64544 L118.0739,-29.38535 Z" />
      <path
         id="path72"
         d="M125.3875,-40.32924 A15.11811,3.885464 360 0 1 121.785,-37.8118 L0.5689792,-1.186617 A15.11811,3.885464 180 0 1 -20.74192,-0.7444533 L-120.0646,-22.45743 A15.11811,3.885464 180 0 1 -125.3875,-25.41704 L-125.3875,-18.1119 A15.11811,3.885464 180 0 0 -120.0646,-15.15229 L-20.74192,6.560689 A15.11811,3.885464 180 0 0 0.5689792,6.118525 L121.785,-30.50665 A15.11811,3.885464 360 0 0 125.3875,-33.0241 L125.3875,-40.32924 A15.11811,3.885464 360 0 0 120.0646,-43.28885 L108.0571,-45.91382" />
      <path
         id="path74"
         d="M108.0571,-45.2762 L117.4007,-43.23359 A15.11811,3.885464 360 0 1 122.7236,-40.27398 A15.11811,3.885464 360 0 1 119.1211,-37.75653 L74.03324,-24.13331" />
      <path
         id="path76"
         d="M74.03324,-23.3837 L74.03324,-34.34141 L61.07811,-37.17354 L61.07811,-38.99982 L17.89435,-64.87682 L7.81814,-67.07958 L-64.42171,-45.25246 L-107.6055,-38.25631 L-35.36562,-60.08344 L7.81814,-67.07958" />
      <path
         id="path78"
         d="M17.89435,-64.87682 L-54.3455,-43.04969 L-64.42171,-45.25246" />
      <path
         id="path80"
         d="M-54.3455,-43.04969 L-11.16174,-17.1727 L-107.6055,-38.25631 L-107.6055,-36.43002 L-11.16174,-15.34641 L-11.16174,-17.1727 L61.07811,-38.99982" />
      <path
         id="path82"
         d="M61.07811,-37.17354 L-11.16174,-15.34641" />
      <path
         id="path84"
         d="M-20.74192,-11.70217 L-120.0646,-33.41514 A15.11811,3.885464 360 0 1 -125.3875,-36.37475 L-125.3875,-25.41704 A15.11811,3.885464 180 0 1 -121.785,-27.93448" />
      <path
         id="path86"
         d="M-125.3875,-25.41704 A15.11811,3.885464 360 0 0 -120.0646,-22.45743 L-20.74192,-0.7444533 A15.11811,3.885464 360 0 0 0.5689792,-1.186617 L74.03324,-23.3837" />
      <path
         id="path88"
         d="M74.03324,-26.47762 L107.6055,-36.6214 L74.03324,-26.47762 Z" />
      <path
         id="path90"
         d="M74.03324,-31.35009 L91.36739,-36.58756 L91.36739,-40.14465" />
      <path
         id="path92"
         d="M91.4184,-40.16007 L107.6055,-36.6214 L91.4184,-40.16007 Z" />
      <path
         id="path94"
         d="M108.0571,-45.1874 L108.0571,-56.14512 L107.9742,-57.43045 L107.7263,-58.70236 L107.3153,-59.95094 L106.7443,-61.16649 L106.0178,-62.33956 L105.1415,-63.46103 L104.1222,-64.52218 L102.9678,-65.51475 L101.6872,-66.43103 L100.2905,-67.2639 L98.7884,-68.00688 L97.19271,-68.65419 L95.5158,-69.2008 L93.7707,-69.64246 L22.84288,-85.14803 L22.88163,-85.13519 L22.92067,-85.11356 L22.96,-85.08313 L22.99957,-85.04395 L23.03938,-84.996 L23.0794,-84.93935 L23.1196,-84.87401 L23.15997,-84.80001 L23.20048,-84.71741 L23.2411,-84.62624 L23.28183,-84.52657 L23.32262,-84.41844 L23.36346,-84.30192 L23.40434,-84.17707" />
      <path
         id="path96"
         d="M22.84288,-85.14803 L22.83667,-85.14927 L22.83046,-85.15029 L22.82427,-85.15108 L22.81808,-85.15163 L22.8119,-85.15197 L22.80573,-85.15207 L22.79957,-85.15194 L22.79342,-85.15159 L22.78728,-85.151 L22.78114,-85.15019 L22.77502,-85.14915 L22.7689,-85.14788 L22.7628,-85.14639 L22.7567,-85.14465 L19.85674,-84.26844" />
      <ellipse
         id="ellipse98"
         transform="rotate(360)"
         ry="0.971366"
         rx="3.779528"
         cy="-80.87271"
         cx="19.75452" />
      <path
         id="path100"
         d="M5.359932,-82.55849 A18.89764,4.85683 360 0 0 0.8568807,-79.41168 A18.89764,4.85683 360 1 0 38.65216,-79.41168 A18.89764,4.85683 360 0 0 5.359932,-82.55849 Z" />
      <path
         id="path102"
         d="M0.8568807,-79.41168 L0.8568807,-77.22014 A18.89764,4.85683 360 1 0 38.65216,-77.22014 L38.65216,-79.41168" />
      <ellipse
         id="ellipse104"
         transform="rotate(360)"
         ry="0.971366"
         rx="3.779528"
         cy="-73.38953"
         cx="53.98516" />
      <path
         id="path106"
         d="M39.59058,-75.07531 A18.89764,4.85683 360 0 1 72.8828,-71.9285 L72.8828,-69.73696 A18.89764,4.85683 360 1 1 35.08752,-69.73696 L35.08752,-71.9285" />
      <path
         id="path108"
         d="M39.59058,-75.07531 A18.89764,4.85683 360 0 0 35.08752,-71.9285 A18.89764,4.85683 360 1 0 72.8828,-71.9285" />
      <path
         id="path110"
         d="M86.74615,-70.31324 L87.25742,-70.31964 L87.76839,-70.31763 L88.27877,-70.30721 L88.78828,-70.28838 L89.2966,-70.26115 L89.80346,-70.22554 L90.30856,-70.18157 L90.8116,-70.12927 L91.31231,-70.06867 L91.81039,-69.99979 L92.30555,-69.92269 L92.79751,-69.83739 L93.28599,-69.74397 L93.7707,-69.64246" />
      <path
         id="path112"
         d="M108.0571,-45.1874 L72.94681,-34.57891" />
      <path
         id="path114"
         d="M74.03324,-34.34141 L0.5689792,-12.14433 A15.11811,3.885464 360 0 1 -20.74192,-11.70217" />
      <path
         id="path116"
         d="M-7.484571,7.383287 A25.98275,16.2691 102.3315 0 1 1.082299,19.30608" />
      <path
         id="path118"
         d="M20.67156,6.082077 L22.51448,6.484958 A1.1922,0.8776107 253.1879 0 0 22.84632,6.471329 L25.29513,5.731426 A1.1922,0.8776107 253.1879 0 0 25.73435,5.342922 L23.28554,6.082824 C24.63345,1.591943 26.42104,-0.324148 29.13165,-1.143155 C30.3,-1.496171 31.63984,-1.645364 33.18987,-1.709068 L35.63868,-2.44897 A0.9352251,0.6884446 73.18791 0 0 36.0755,-3.198896 L33.62669,-2.458993 A0.9352251,0.6884446 73.18791 0 1 33.18987,-1.709068" />
      <path
         id="path120"
         d="M33.62669,-2.458993 L33.62669,-3.869796 L36.0755,-4.609698 L36.0755,-3.198896" />
      <path
         id="path122"
         d="M30.44808,-1.448308 C28.356,-0.4480118 26.88498,1.509331 25.73435,5.342922" />
      <path
         id="path124"
         d="M23.28554,6.082824 A1.1922,0.8776107 253.1879 0 1 22.84632,6.471329" />
      <path
         id="path126"
         d="M20.67156,6.082077 L20.67156,0.04457046" />
      <path
         id="path128"
         d="M58.97966,-5.492638 L60.82257,-5.089756 A1.1922,0.8776107 253.1879 0 0 61.15442,-5.103385 L63.60323,-5.843288 A1.1922,0.8776107 253.1879 0 0 64.04244,-6.231792 L61.59364,-5.49189 C62.94154,-9.982772 64.72913,-11.89886 67.43974,-12.71787 C68.6081,-13.07088 69.94794,-13.22008 71.49796,-13.28378 L73.94678,-14.02368 A0.9352251,0.6884446 73.18791 0 0 74.38359,-14.77361 L71.93478,-14.03371 A0.9352251,0.6884446 73.18791 0 1 71.49796,-13.28378" />
      <path
         id="path130"
         d="M71.93478,-14.03371 L71.93478,-15.44451 L74.38359,-16.18441 L74.38359,-14.77361" />
      <path
         id="path132"
         d="M68.75617,-13.02302 C66.66409,-12.02273 65.19307,-10.06538 64.04244,-6.231792" />
      <path
         id="path134"
         d="M61.59364,-5.49189 A1.1922,0.8776107 253.1879 0 1 61.15442,-5.103385" />
      <path
         id="path136"
         d="M58.97966,-5.492638 L58.97966,-11.53014" />
      <path
         id="path138"
         d="M59.08089,-40.19662 L59.08089,-41.34706 A15.11811,11.12885 253.1879 0 0 47.56522,-58.4748 L-15.77096,-72.32076 A15.11811,11.12885 73.18791 0 0 -20.14363,-72.1824 L0.8568807,-78.52767" />
      <path
         id="path140"
         d="M-20.14363,-72.1824 A15.11811,11.12885 73.18791 0 0 -27.2491,-61.39838" />
      <path
         id="path142"
         d="M-38.87259,-59.02381 L-48.32075,-61.08928 L-121.785,-38.8922 A15.11811,3.885464 360 0 0 -125.3875,-36.37475" />
    </g>
    <g
       style="stroke:black;fill:none;"
       stroke-width="0.3779528"
       id="Inline">
      <path
         id="path145"
         d="M98.78931,-42.38717 L114.9764,-38.84851 A3.741732,2.342886 282.3315 0 0 117.4007,-43.19706" />
      <path
         id="path147"
         d="M117.4007,-43.23359 L117.4007,-43.19706 A15.11811,3.885464 180 0 1 122.7234,-40.25571" />
      <path
         id="path149"
         d="M121.785,-37.8118 L121.785,-30.50665" />
      <path
         id="path151"
         d="M118.4054,-37.54028 A11.37638,2.923812 180 0 0 114.9764,-38.84851" />
      <path
         id="path153"
         d="M117.4007,-43.19706 L108.0571,-45.23968" />
      <path
         id="path155"
         d="M86.74615,-70.31324 L71.7361,-73.5946" />
      <path
         id="path157"
         d="M57.53636,-76.69881 L37.50546,-81.07777" />
      <path
         id="path159"
         d="M0.8568807,-77.34483 L-15.77096,-72.32076" />
      <path
         id="path161"
         d="M-20.74192,-11.70217 L-20.74192,-0.7444533 L-20.74192,6.560689" />
      <path
         id="path163"
         d="M-21.22931,14.42852 L-22.45371,14.79847" />
      <path
         id="path165"
         d="M-8.059128,17.94528 L-6.834724,17.57533" />
      <path
         id="path167"
         d="M-5.180211,22.22721 L-3.955806,21.85726" />
      <path
         id="path169"
         d="M0.5689792,6.118525 L0.5689792,-1.186617 L0.5689792,-12.14433" />
      <path
         id="path171"
         d="M-3.955806,76.64584 L-5.180211,77.01579" />
      <path
         id="path173"
         d="M-120.0646,-15.15229 L-120.0646,-22.45743 L-120.0646,-33.41514" />
      <path
         id="path175"
         d="M108.0571,-56.14512 L59.08089,-41.34706" />
      <path
         id="path177"
         d="M47.56522,-58.4748 L86.74615,-70.31324" />
    </g>
    <g
       style="stroke:black;fill:none;"
       stroke-dasharray="2 0.5"
       stroke-width="0.3779528"
       id="HiddenOutline">
      <path
         id="path180"
         d="M-107.6055,-25.47231 L-107.6055,-36.43002" />
      <path
         id="path182"
         d="M-45.08477,-41.32047 C-39.93862,-38.85896 -37.10933,-36.46813 -35.18044,-29.19819" />
      <path
         id="path184"
         d="M-34.40938,-28.45894 A1.1922,0.8776107 73.18791 0 1 -35.18044,-29.19819 L-37.62925,-28.45829" />
      <path
         id="path186"
         d="M-36.85818,-27.71903 L-34.40938,-28.45894" />
      <path
         id="path188"
         d="M-32.56646,-28.05606 L-34.40938,-28.45894" />
      <path
         id="path190"
         d="M-35.01527,-27.31615 L-32.56646,-28.05606 L-32.56646,-40.84005" />
      <path
         id="path192"
         d="M-35.01527,-40.10015 L-35.01527,-27.31615 L-36.85818,-27.71903 A1.1922,0.8776107 73.18791 0 1 -37.62925,-28.45829 C-39.55814,-35.72823 -42.38743,-38.11906 -47.53358,-40.58057 L-45.08477,-41.32047 A0.9352251,0.6884446 253.1879 0 1 -45.52159,-42.26138" />
      <path
         id="path194"
         d="M-45.52159,-43.67218 L-45.52159,-42.26138 L-47.97039,-41.52148" />
      <path
         id="path196"
         d="M-47.97039,-42.93228 L-35.01527,-40.10015 L-32.56646,-40.84005 L-45.52159,-43.67218 L-47.97039,-42.93228 L-47.97039,-41.52148 A0.9352251,0.6884446 253.1879 0 0 -47.53358,-40.58057" />
      <path
         id="path198"
         d="M-73.48853,-17.62348 C-75.41743,-24.89341 -78.24671,-27.28425 -83.39286,-29.74575" />
      <path
         id="path200"
         d="M-85.84167,-29.00585 L-83.39286,-29.74575 A0.9352251,0.6884446 253.1879 0 1 -83.82968,-30.68666" />
      <path
         id="path202"
         d="M-83.82968,-32.09747 L-83.82968,-30.68666 L-86.27849,-29.94676" />
      <path
         id="path204"
         d="M-86.27849,-31.35756 L-86.27849,-29.94676 A0.9352251,0.6884446 253.1879 0 0 -85.84167,-29.00585 C-80.69553,-26.54435 -77.86624,-24.15351 -75.93734,-16.88358" />
      <path
         id="path206"
         d="M-75.16628,-16.14432 A1.1922,0.8776107 73.18791 0 1 -75.93734,-16.88358 L-73.48853,-17.62348 A1.1922,0.8776107 73.18791 0 0 -72.71747,-16.88422" />
      <path
         id="path208"
         d="M-73.32336,-15.74144 L-75.16628,-16.14432 L-72.71747,-16.88422 L-70.87455,-16.48134 L-70.87455,-29.26534" />
      <path
         id="path210"
         d="M-73.32336,-28.52544 L-70.87455,-29.26534 L-83.82968,-32.09747 L-86.27849,-31.35756 L-73.32336,-28.52544 L-73.32336,-15.74144 L-70.87455,-16.48134" />
      <path
         id="path212"
         d="M-26.55704,66.5882 L-25.33263,66.21825 L-25.33263,66.85587" />
      <path
         id="path214"
         d="M-5.741557,79.63445 A3.779528,2.782213 73.18791 0 1 -6.834724,79.66904 L-21.22931,76.52223 A3.779528,2.782213 73.18791 0 1 -24.10823,72.2403 L-24.10823,66.76144" />
      <path
         id="path216"
         d="M-23.17344,66.69028 L-25.33263,66.21825" />
      <path
         id="path218"
         d="M-25.54769,66.44676 L-24.10823,66.76144 L-25.33263,67.13139 L-26.77209,66.81671 L-26.77209,63.16414" />
      <path
         id="path220"
         d="M-25.33263,63.47882 L-24.10823,63.10887" />
      <path
         id="path222"
         d="M-6.952906,50.42863 A1.336265,0.9836608 253.1879 1 1 -7.725892,47.87033" />
      <path
         id="path224"
         d="M-15.97615,46.34825 L-15.97615,48.17454" />
      <path
         id="path226"
         d="M-13.09723,48.8039 L-15.97615,48.17454 L-17.20056,48.54449" />
      <path
         id="path228"
         d="M-25.33263,46.76673 L-25.33263,46.12911 L-26.55704,46.49906" />
      <path
         id="path230"
         d="M-27.99649,47.09752 L-26.77209,46.72757 L-25.33263,47.04226 L-24.10823,46.6723" />
      <path
         id="path232"
         d="M-23.17344,46.60113 L-25.33263,46.12911" />
      <path
         id="path234"
         d="M-25.54769,46.35762 L-26.77209,46.72757 L-26.77209,43.075" />
      <path
         id="path236"
         d="M-25.33263,43.38968 L-24.10823,43.01973" />
      <path
         id="path238"
         d="M-25.33263,26.67759 L-25.33263,26.03997 L-26.55704,26.40992" />
      <path
         id="path240"
         d="M-27.99649,27.00838 L-26.77209,26.63843 L-25.33263,26.95311 L-24.10823,26.58316" />
      <path
         id="path242"
         d="M-23.17344,26.51199 L-25.33263,26.03997" />
      <path
         id="path244"
         d="M-25.54769,26.26848 L-26.77209,26.63843 L-26.77209,22.98586" />
      <path
         id="path246"
         d="M-25.33263,23.30054 L-24.10823,22.93059" />
      <path
         id="path248"
         d="M-22.32248,14.46311 A3.779528,2.782213 253.1879 0 0 -24.10823,17.45173 L-24.10823,22.93059 L-25.33263,22.66292" />
      <path
         id="path250"
         d="M-25.54769,22.61591 L-25.54769,26.26848 L-24.10823,26.58316 L-24.10823,43.01973 L-25.33263,42.75206" />
      <path
         id="path252"
         d="M-25.54769,42.70505 L-25.54769,46.35762 L-24.10823,46.6723 L-24.10823,63.10887 L-25.33263,62.84121" />
      <path
         id="path254"
         d="M-25.54769,62.79419 L-25.54769,66.44676 L-26.77209,66.81671 L-27.99649,67.18667" />
      <path
         id="path256"
         d="M-95.36143,71.27389 L11.16174,39.08812 L11.16174,-57.70501 L-35.36562,-43.64687 L61.07811,-22.56325 L61.07811,-26.21582 L74.03324,-23.3837" />
      <path
         id="path258"
         d="M74.03324,-24.13331 L72.59378,-23.69838 L61.07811,-26.21582 L-11.16174,-4.388696 L-11.16174,2.916447" />
      <path
         id="path260"
         d="M-11.16174,6.569018 A25.98275,16.2691 102.3315 0 1 -9.312521,6.799675" />
      <path
         id="path262"
         d="M-7.484571,7.383287 A25.98275,16.2691 102.3315 0 0 -9.312521,6.799675 L-105.7562,-14.28394 A25.98275,16.2691 102.3315 0 0 -107.6055,-14.5146 L-11.16174,6.569018 L-11.16174,-15.34641 L-11.16174,-4.388696 L-107.6055,-25.47231 L-35.36562,-47.29943 L-46.88129,-49.81688 L-0.3539249,-63.87503 A15.11811,3.885464 360 0 1 20.95698,-64.3172 L108.0571,-45.2762" />
      <path
         id="path264"
         d="M108.0571,-45.1874 L21.68954,-64.06825 L21.68954,-75.02596 L21.69566,-76.23782 L21.71398,-77.40208 L21.74437,-78.51046 L21.78661,-79.55507 L21.8404,-80.52849 L21.90536,-81.42377 L21.98102,-82.23456 L22.06685,-82.95508 L22.16224,-83.58021 L22.26651,-84.1055 L22.37892,-84.52721 L22.49866,-84.84233 L22.62489,-85.04864 L22.7567,-85.14465" />
      <path
         id="path266"
         d="M23.40434,-84.17707 L23.40474,-84.1758 L23.40514,-84.17452 L23.40554,-84.17325 L23.40595,-84.17197 L23.40635,-84.1707 L23.40675,-84.16943 L23.40715,-84.16815 L23.40756,-84.16687 L23.40796,-84.1656 L23.40836,-84.16431 L23.40877,-84.16304 L23.40917,-84.16176 L23.40957,-84.16048 L23.40997,-84.15919" />
      <path
         id="path268"
         d="M19.85674,-84.26844 L0.8568807,-78.52767" />
      <path
         id="path270"
         d="M0.8568807,-77.22014 A18.89764,4.85683 360 0 1 5.359932,-80.36694 A18.89764,4.85683 360 0 1 38.65216,-77.22014" />
      <path
         id="path272"
         d="M39.59058,-72.88377 A18.89764,4.85683 360 0 1 72.8828,-69.73696" />
      <path
         id="path274"
         d="M63.43398,-69.73696 A9.448819,2.428415 360 0 0 46.78787,-71.31036 A9.448819,2.428415 360 0 0 44.53634,-69.73696 A9.448819,2.428415 360 1 0 63.43398,-69.73696 L63.43398,-67.91068 A9.448819,2.428415 360 0 0 46.78787,-69.48408 A9.448819,2.428415 360 0 0 44.53634,-67.91068 L44.53634,-69.73696" />
      <path
         id="path276"
         d="M44.53634,-67.91068 A9.448819,2.428415 360 1 0 63.43398,-67.91068" />
      <path
         id="path278"
         d="M39.59058,-72.88377 A18.89764,4.85683 360 0 0 35.08752,-69.73696" />
      <path
         id="path280"
         d="M29.20334,-75.39385 L29.20334,-77.22014 A9.448819,2.428415 360 0 0 12.55723,-78.79354 A9.448819,2.428415 360 0 0 10.3057,-77.22014 A9.448819,2.428415 360 1 0 29.20334,-77.22014" />
      <path
         id="path282"
         d="M29.20334,-75.39385 A9.448819,2.428415 360 0 0 12.55723,-76.96725 A9.448819,2.428415 360 0 0 10.3057,-75.39385 L10.3057,-77.22014" />
      <path
         id="path284"
         d="M10.3057,-75.39385 A9.448819,2.428415 360 1 0 29.20334,-75.39385" />
      <path
         id="path286"
         d="M20.74192,-65.00183 A15.11811,3.885464 360 0 0 -0.5689792,-64.55966 L-121.785,-27.93448 A15.11811,3.885464 360 0 0 -125.3875,-25.41704" />
      <path
         id="path288"
         d="M-121.785,-27.93448 L-48.32075,-50.13157 L-48.32075,-61.08928" />
      <path
         id="path290"
         d="M-38.87259,-59.02381 L-35.36562,-58.25715 L-35.36562,-47.29943 L-35.36562,-43.64687 L-35.36562,-60.08344 L61.07811,-38.99982" />
      <path
         id="path292"
         d="M61.07811,-37.17354 L61.07811,-22.56325 L74.03324,-26.47762 L61.07811,-22.56325 L69.74365,-20.66887 A3.741732,2.754391 73.18791 0 0 70.82589,-20.70311 L117.3532,-34.76126 C118.4657,-35.09709 119.4365,-35.49942 120.2985,-36.07416 C120.6021,-36.27676 120.8915,-36.50252 121.1603,-36.75742 C121.4462,-37.02861 121.7087,-37.3332 121.933,-37.66994 C122.4281,-38.41337 122.7237,-39.32211 122.7236,-40.23745 L122.7236,-40.27398" />
      <path
         id="path294"
         d="M120.0646,-35.98371 L20.74192,-57.69669 A15.11811,3.885464 360 0 0 -0.5689792,-57.25452 L-121.785,-20.62934 A15.11811,3.885464 180 0 0 -125.3875,-18.1119" />
      <path
         id="path296"
         d="M-107.6055,-18.16717 L-107.6055,-25.47231 L-35.36562,-47.29943 L-48.32075,-50.13157" />
      <path
         id="path298"
         d="M-46.88129,-49.81688 L-46.88129,-49.78036 A3.741732,2.754391 253.1879 0 0 -44.03116,-45.54124 L-35.36562,-43.64687 L11.16174,-57.70501 L91.4184,-40.16007 L11.16174,-57.70501 L11.16174,-54.05244 L107.6055,-32.96883 L-11.16174,2.916447 L-107.6055,-18.16717 L11.16174,-54.05244" />
      <path
         id="path300"
         d="M11.12383,-54.04099 L8.675021,-53.30109 L8.675021,-40.51709 L11.12383,-41.25699 L9.28091,-41.65987 A1.1922,0.8776107 73.18791 0 1 8.50985,-42.39913 C6.580954,-49.66906 3.751668,-52.0599 -1.39448,-54.5214 L-3.843289,-53.7815 C1.30286,-51.32 4.132145,-48.92916 6.061041,-41.65923 L8.50985,-42.39913" />
      <path
         id="path302"
         d="M9.28091,-41.65987 L6.832102,-40.91997 A1.1922,0.8776107 73.18791 0 1 6.061041,-41.65923" />
      <path
         id="path304"
         d="M6.832102,-40.91997 L8.675021,-40.51709" />
      <path
         id="path306"
         d="M11.12383,-41.25699 L11.12383,-54.04099 L-1.831298,-56.87312 L-1.831298,-55.46231 A0.9352251,0.6884446 253.1879 0 0 -1.39448,-54.5214" />
      <path
         id="path308"
         d="M-1.831298,-55.46231 L-4.280107,-54.72241 A0.9352251,0.6884446 253.1879 0 0 -3.843289,-53.7815" />
      <path
         id="path310"
         d="M-4.280107,-54.72241 L-4.280107,-56.13321 L-1.831298,-56.87312" />
      <path
         id="path312"
         d="M-4.280107,-56.13321 L8.675021,-53.30109" />
      <path
         id="path314"
         d="M13.63662,-53.58033 L91.36739,-36.58756" />
      <path
         id="path316"
         d="M91.36739,-40.14465 L91.36739,-43.89271 L57.08406,-33.53407 L-20.6467,-50.52683 L13.63662,-60.88547 L13.63662,-53.58033 L-20.6467,-43.22169 L-20.6467,-50.52683" />
      <path
         id="path318"
         d="M-27.28663,-49.2702 L-27.28663,-60.22791 A15.11811,11.12885 73.18791 0 1 -27.2491,-61.39838" />
      <path
         id="path320"
         d="M-35.36562,-58.25715 L-107.6055,-36.43002 L-107.6055,-14.5146" />
      <path
         id="path322"
         d="M-105.7562,-14.28394 A25.98275,16.2691 102.3315 0 1 -99.81677,-10.7259" />
      <path
         id="path324"
         d="M-107.6055,-25.47231 L-11.16174,-4.388696 L61.07811,-26.21582 L61.07811,-37.17354" />
      <path
         id="path326"
         d="M59.08089,-40.19662 L59.08089,-30.38935 L-27.28663,-49.2702 L21.68954,-64.06825" />
      <path
         id="path328"
         d="M20.74192,-65.00183 L108.0571,-45.91382" />
      <path
         id="path330"
         d="M107.6055,-36.6214 L107.6055,-32.96883" />
      <path
         id="path332"
         d="M105.1188,-32.21747 L102.6699,-31.47757 L102.6699,-24.73108" />
      <path
         id="path334"
         d="M105.1188,-19.43347 L105.1188,-32.21747 L118.0739,-29.38535" />
      <path
         id="path336"
         d="M117.6371,-27.22462 C116.087,-27.16091 114.7472,-27.01172 113.5788,-26.6587 L112.3667,-26.29245 L111.13,-25.9188" />
      <path
         id="path338"
         d="M112.4465,-26.22396 C112.8052,-26.39546 113.1821,-26.53883 113.5788,-26.6587" />
      <path
         id="path340"
         d="M115.6251,-28.64544 L102.6699,-31.47757" />
      <path
         id="path342"
         d="M107.6055,-36.6214 L107.6055,-19.24621" />
      <path
         id="path344"
         d="M107.2935,-19.04422 A1.1922,0.8776107 253.1879 0 1 106.9617,-19.03059 L104.5129,-18.29069" />
      <path
         id="path346"
         d="M105.1188,-19.43347 L102.6699,-18.69357" />
      <path
         id="path348"
         d="M105.1188,-19.43347 L106.9617,-19.03059" />
      <path
         id="path350"
         d="M120.0646,-35.98371 A15.11811,3.885464 360 0 1 125.3875,-33.0241" />
      <path
         id="path352"
         d="M91.36739,-43.89271 L13.63662,-60.88547" />
      <path
         id="path354"
         d="M-20.6467,-43.22169 L57.08406,-26.22893 L57.08406,-33.53407" />
      <path
         id="path356"
         d="M59.08089,-30.38935 L72.94681,-34.57891" />
      <path
         id="path358"
         d="M74.03324,-31.35009 L57.08406,-26.22893" />
      <path
         id="path360"
         d="M58.97966,-18.27664 L61.42846,-19.01654 L61.42846,-6.23254 L58.97966,-5.492638" />
      <path
         id="path362"
         d="M60.82257,-5.089756 L63.27138,-5.829659 A1.1922,0.8776107 253.1879 0 0 63.60323,-5.843288" />
      <path
         id="path364"
         d="M63.27138,-5.829659 L61.42846,-6.23254" />
      <path
         id="path366"
         d="M58.97966,-11.53014 L58.97966,-18.27664 L71.93478,-15.44451" />
      <path
         id="path368"
         d="M73.94678,-14.02368 C72.39674,-13.95998 71.05691,-13.81079 69.88856,-13.45777 L68.67639,-13.09152 L67.43974,-12.71787" />
      <path
         id="path370"
         d="M68.75617,-13.02302 C69.11487,-13.19453 69.49183,-13.3379 69.88856,-13.45777" />
      <path
         id="path372"
         d="M74.38359,-16.18441 L61.42846,-19.01654" />
      <path
         id="path374"
         d="M70.82589,-20.70311 A3.741732,2.754391 73.18791 0 0 72.59378,-23.66185 L72.59378,-23.69838" />
      <path
         id="path376"
         d="M36.0755,-4.609698 L23.12037,-7.441825 L20.67156,-6.701922 L20.67156,0.04457046" />
      <path
         id="path378"
         d="M23.12037,5.342174 L20.67156,6.082077" />
      <path
         id="path380"
         d="M22.51448,6.484958 L24.96329,5.745056 A1.1922,0.8776107 253.1879 0 0 25.29513,5.731426" />
      <path
         id="path382"
         d="M24.96329,5.745056 L23.12037,5.342174 L23.12037,-7.441825" />
      <path
         id="path384"
         d="M20.67156,-6.701922 L33.62669,-3.869796" />
      <path
         id="path386"
         d="M35.63868,-2.44897 C34.08865,-2.385266 32.74881,-2.236073 31.58046,-1.883058 L30.3683,-1.516806 L29.13165,-1.143155" />
      <path
         id="path388"
         d="M30.44808,-1.448308 C30.80677,-1.619815 31.18373,-1.763187 31.58046,-1.883058" />
      <path
         id="path390"
         d="M11.16174,39.08812 L107.6055,60.17173" />
    </g>
    <g
       style="stroke:black;fill:none;"
       stroke-dasharray="1 0.5"
       stroke-width="0.1889764"
       id="HiddenInline">
      <path
         id="path393"
         d="M69.74365,-20.66887 L116.271,-34.72702" />
      <path
         id="path395"
         d="M120.0646,-35.98371 L120.0646,-43.28885" />
      <path
         id="path397"
         d="M122.7234,-40.25571 A15.11811,3.885464 180 0 1 122.7236,-40.23745 A15.11811,3.885464 180 0 1 119.1211,-37.72" />
      <path
         id="path399"
         d="M118.4054,-37.54028 A11.37638,2.923812 180 0 1 116.271,-34.72702" />
      <path
         id="path401"
         d="M108.0571,-45.23968 L20.95698,-64.28067" />
      <path
         id="path403"
         d="M20.95698,-64.3172 L20.95698,-64.28067 A15.11811,3.885464 180 0 0 -0.3539249,-63.83851 A3.741732,2.754391 253.1879 0 0 2.496203,-59.59939" />
      <path
         id="path405"
         d="M18.53266,-59.93212 A3.741732,2.342886 282.3315 0 0 20.95698,-64.28067" />
      <path
         id="path407"
         d="M20.74192,-65.00183 L20.74192,-57.69669" />
      <path
         id="path409"
         d="M23.40997,-84.15919 L0.8568807,-77.34483" />
      <path
         id="path411"
         d="M23.40997,-84.15919 L37.50546,-81.07777" />
      <path
         id="path413"
         d="M57.53636,-76.69881 L71.7361,-73.5946" />
      <path
         id="path415"
         d="M108.0571,-56.14512 L21.68954,-75.02596 L-27.28663,-60.22791" />
      <path
         id="path417"
         d="M-0.5689792,-57.25452 L-0.5689792,-64.55966" />
      <path
         id="path419"
         d="M-0.3539249,-63.87503 L-0.3539249,-63.83851 L-46.88129,-49.78036" />
      <path
         id="path421"
         d="M-24.10823,72.2403 L-25.33263,72.61025" />
      <path
         id="path423"
         d="M-6.834724,79.66904 L-8.059128,80.03899" />
      <path
         id="path425"
         d="M-21.22931,76.52223 L-22.45371,76.89219" />
      <path
         id="path427"
         d="M-24.10823,17.45173 L-25.33263,17.82168" />
      <path
         id="path429"
         d="M-121.785,-20.62934 L-121.785,-27.93448 L-121.785,-38.8922" />
      <path
         id="path431"
         d="M-44.03116,-45.54124 L2.496203,-59.59939 A11.37638,2.923812 180 0 1 18.53266,-59.93212 L98.78931,-42.38717" />
      <path
         id="path433"
         d="M116.271,-34.72702 A3.741732,2.754391 73.18791 0 0 117.3532,-34.76126 A3.741732,2.754391 73.18791 0 0 119.1211,-37.72" />
      <path
         id="path435"
         d="M119.1211,-37.75653 L119.1211,-37.72 L72.59378,-23.66185" />
    </g>
  </g>
</svg>
