<?xml version="1.0" encoding="utf-8"?>
<!DOCTYPE svg PUBLIC "-//W3C//DTD SVG 1.1//EN" "http://www.w3.org/Graphics/SVG/1.1/DTD/svg11.dtd">
<svg width="55.38677mm" height="52.003166mm" viewBox="0, 0, 209.33582, 196.5474" version="1.1" xmlns:xlink="http://www.w3.org/1999/xlink" xmlns:xml="http://www.w3.org/XML/1998/namespace" xmlns:sodipodi="http://sodipodi.sourceforge.net/DTD/sodipodi-0.dtd" xmlns:inkscape="http://www.inkscape.org/namespaces/inkscape" xmlns="http://www.w3.org/2000/svg">
  <sodipodi:namedview inkscape:document-units="mm" />
  <g id="Pipe" transform="translate(37.795277,113.39779)">
    <g id="Contour" stroke-width="0.18897638" style="stroke:black;fill:black;">
      <path d="M36.229744,-1.8897638 L0,-1.8897638 L0,-1.511811 L36.229744,-1.511811 A2.2677166,2.2677166 0 0 0 37.833263,-2.17601 L55.19021,-19.532957 A5.2913384,5.2913384 0 0 1 56.56539,-20.524134 L84.58347,-34.533176 A5.2913384,5.2913384 0 0 1 91.81334,-27.716099 L84.53918,-10.743052 L84.88657,-10.594169 L92.160736,-27.567215 A5.6692915,5.6692915 0 0 0 84.41445,-34.871227 L56.396366,-20.862185 A5.6692915,5.6692915 0 0 0 54.92296,-19.80021 L37.56601,-2.4432628 A1.8897638,1.8897638 0 0 1 36.229744,-1.8897638 Z M36.229744,1.511811 L0,1.511811 L0,1.8897638 L36.229744,1.8897638 A5.6692915,5.6692915 0 0 0 40.238537,0.22926679 L57.595486,-17.127682 A1.8897638,1.8897638 0 0 1 58.086624,-17.481672 L86.104706,-31.490715 A1.8897638,1.8897638 0 0 1 88.686806,-29.056044 L81.412636,-12.082997 L81.76003,-11.934114 L89.034195,-28.907162 A2.2677166,2.2677166 0 0 0 85.935684,-31.828766 L57.9176,-17.819723 A2.2677166,2.2677166 0 0 0 57.32823,-17.394934 L39.971287,-0.037986167 A5.2913384,5.2913384 0 0 1 36.229744,1.511811 Z" />
    </g>
    <g id="Dimension" stroke-width="0.37795275" style="stroke:black;fill:none;">
      <line x1="0" y1="-0" x2="-2.5330682E-16" y2="45.354332" />
      <line x1="37.56554" y1="2.0980593E-16" x2="37.56554" y2="45.354332" />
      <line x1="11.338583" y1="37.795277" x2="26.226957" y2="37.795277" />
      <path d="M-2.1108901E-16,37.795277 L11.338583,35.90551 L11.338583,39.68504 L-2.1108901E-16,37.795277 Z" style="fill:black;" />
      <path d="M37.56554,37.795277 L26.226957,39.68504 L26.226957,35.90551 L37.56554,37.795277 Z" style="fill:black;" />
      <text x="10.90168" y="34.015747" style="fill:black;" font-family="Arial" font-size="11.338583">9.9</text>
    </g>
    <g id="Dimension" stroke-width="0.37795275" style="stroke:black;fill:none;">
      <line x1="37.56554" y1="2.0980593E-16" x2="37.56554" y2="45.354332" />
      <line x1="37.957726" y1="-0.16244808" x2="70.028076" y2="31.907907" />
      <path d="M47.491226,36.488533 A38.349907,38.349907 0 0 0 56.740494,32.657364" />
      <path d="M37.594162,37.795265 L47.329838,34.82577 L47.766666,38.1438 L37.594162,37.795265 Z" style="fill:black;" />
      <path d="M64.66277,26.58308 L57.71618,34.022575 L55.67886,31.36749 L64.66277,26.58308 Z" style="fill:black;" />
      <text x="42.8745" y="34.665035" style="fill:black;" font-family="Arial" font-size="11.338583" transform="rotate(337.5,42.8745,34.665035)">45°</text>
    </g>
    <g id="Dimension" stroke-width="0.37795275" style="stroke:black;fill:none;">
      <line x1="37.957726" y1="-0.16244808" x2="70.028076" y2="31.907907" />
      <line x1="56.64617" y1="-18.850895" x2="88.71652" y2="13.21946" />
      <line x1="70.9125" y1="20.333364" x2="77.14198" y2="14.103883" />
      <path d="M64.68302,26.562847 L69.87425,19.295118 L71.95075,21.371613 L64.68302,26.562847 Z" style="fill:black;" />
      <path d="M83.37147,7.8744 L78.18023,15.14213 L76.10374,13.065636 L83.37147,7.8744 Z" style="fill:black;" />
      <text x="65.781944" y="20.118866" style="fill:black;" font-family="Arial" font-size="11.338583" transform="rotate(315,65.781944,20.118866)">7.0</text>
    </g>
    <g id="Dimension" stroke-width="0.37795275" style="stroke:black;fill:none;">
      <line x1="56.64617" y1="-18.850895" x2="24.575817" y2="-50.92125" />
      <line x1="56.752037" y1="-18.9272" x2="36.468964" y2="-59.493347" />
      <path d="M36.28998,-50.70716 A38.202625,38.202625 0 0 0 32.967724,-48.31261" />
      <path d="M39.861988,-52.741726 L36.638474,-50.122063 L35.963097,-51.309128 L39.861988,-52.741726 Z" style="fill:black;" />
      <path d="M29.907999,-45.5673 L32.50002,-48.813084 L33.412594,-47.796978 L29.907999,-45.5673 Z" style="fill:black;" />
      <text x="27.899612" y="-49.386356" style="fill:black;" font-family="Arial" font-size="7.3154955" transform="rotate(324.21747,27.899612,-49.386356)">18°</text>
    </g>
    <g id="Dimension" stroke-width="0.37795275" style="stroke:black;fill:none;">
      <line x1="56.752037" y1="-18.9272" x2="36.468964" y2="-59.493347" />
      <line x1="88.97037" y1="-35.036366" x2="68.687294" y2="-75.602516" />
      <line x1="49.991013" y1="-57.80309" x2="61.926273" y2="-63.77072" />
      <path d="M39.849476,-52.732323 L49.145885,-59.493347 L50.836143,-56.112835 L39.849476,-52.732323 Z" style="fill:black;" />
      <path d="M72.06781,-68.84149 L62.7714,-62.080463 L61.081146,-65.460976 L72.06781,-68.84149 Z" style="fill:black;" />
      <text x="47.219326" y="-60.642887" style="fill:black;" font-family="Arial" font-size="11.338583" transform="rotate(333.43494,47.219326,-60.642887)">9.5</text>
    </g>
    <g id="Dimension" stroke-width="0.37795275" style="stroke:black;fill:none;">
      <line x1="88.97037" y1="-35.036366" x2="68.687294" y2="-75.602516" />
      <line x1="92.05806" y1="-32.12497" x2="133.74527" y2="-14.259025" />
      <path d="M129.73923,-28.14782 A40.05507,40.05507 0 0 0 82.78737,-72.41896" />
      <path d="M127.35774,-16.757084 L128.4848,-28.196682 L132.13402,-27.212791 L127.35774,-16.757084 Z" style="fill:black;" />
      <path d="M71.55614,-69.3727 L81.713326,-74.754715 L82.909805,-71.16957 L71.55614,-69.3727 Z" style="fill:black;" />
      <text x="111.52128" y="-72.95246" style="fill:black;" font-family="Arial" font-size="11.338583" transform="rotate(43.31677,111.52128,-72.95246)">140°</text>
    </g>
    <g id="Dimension" stroke-width="0.37795275" style="stroke:black;fill:none;">
      <line x1="92.05806" y1="-32.12497" x2="133.74527" y2="-14.259025" />
      <line x1="83.149605" y1="-11.338583" x2="124.836815" y2="6.5273633" />
      <line x1="123.82791" y1="-10.307886" x2="120.85843" y2="-3.3790903" />
      <path d="M126.7974,-17.236683 L124.98271,-9.812972 L122.67311,-10.8028 L126.7974,-17.236683 Z" style="fill:black;" />
      <path d="M117.88895,3.5497057 L119.70363,-3.8740041 L122.01323,-2.8841763 L117.88895,3.5497057 Z" style="fill:black;" />
      <text x="115.764725" y="-1.0884523" style="fill:black;" font-family="Arial" font-size="11.338583" transform="rotate(293.19858,115.764725,-1.0884523)">6.0</text>
    </g>
  </g>
</svg>