<?xml version="1.0" encoding="utf-8"?>
<!DOCTYPE svg PUBLIC "-//W3C//DTD SVG 1.1//EN" "http://www.w3.org/Graphics/SVG/1.1/DTD/svg11.dtd">
<svg width="32.166718mm" height="33.327286mm" viewBox="0, 0, 121.575, 125.961395" version="1.1" xmlns:xlink="http://www.w3.org/1999/xlink" xmlns:xml="http://www.w3.org/XML/1998/namespace" xmlns:sodipodi="http://sodipodi.sourceforge.net/DTD/sodipodi-0.dtd" xmlns:inkscape="http://www.inkscape.org/namespaces/inkscape" xmlns="http://www.w3.org/2000/svg">
  <sodipodi:namedview inkscape:document-units="mm" />
  <g id="Pipe" transform="translate(132.92258,197.25119)">
    <g id="Contour" stroke-width="0.18897638" style="stroke:black;fill:black;">
      <path d="M-55.343925,-150.6738 C-55.34395,-150.67383 -55.345833,-150.67598 -55.350185,-150.6812 C-55.355206,-150.68571 -55.35727,-150.68768 -55.35731,-150.68771 C-55.35726,-150.68765 -55.351635,-150.68207 -55.34772,-150.6779 C-55.345562,-150.67561 -55.343964,-150.67383 -55.343925,-150.6738 Z M-57.571186,-147.61136 L-51.543736,-142.65387 L-49.14288,-145.5729 L-55.17033,-150.53038 C-55.245785,-150.59245 -55.30081,-150.63828 -55.330135,-150.6636 C-55.339176,-150.6714 -55.345802,-150.67726 -55.350185,-150.6812 C-55.353386,-150.68504 -55.357906,-150.69054 -55.363754,-150.69777 C-55.390423,-150.73077 -55.444717,-150.80084 -55.51945,-150.89711 A22.128387,22.128387 0 1 0 -79.1385,-116.067894 L-78.08985,-119.699036 A18.34886,18.34886 0 1 1 -58.50494,-148.57942 C-58.43593,-148.49052 -58.380253,-148.41803 -58.316578,-148.33862 C-58.28474,-148.29892 -58.25067,-148.2573 -58.212727,-148.21309 C-58.174786,-148.1689 -58.13294,-148.12224 -58.088978,-148.07597 C-58.045017,-148.02972 -57.99924,-147.98419 -57.954624,-147.94199 C-57.91001,-147.89977 -57.86672,-147.8609 -57.824947,-147.82443 C-57.741405,-147.7515 -57.66366,-147.68742 -57.571186,-147.61136 Z M-55.35731,-150.68771 C-55.35727,-150.68768 -55.355206,-150.68571 -55.350185,-150.6812 C-55.345833,-150.67598 -55.34395,-150.67383 -55.343925,-150.6738 C-55.343964,-150.67383 -55.345562,-150.67561 -55.34772,-150.6779 C-55.351635,-150.68207 -55.35726,-150.68765 -55.357315,-150.68771 Z" />
    </g>
    <g id="Dimension" stroke-width="0.37795275" style="stroke:black;fill:none;">
      <line x1="-50.343307" y1="-144.11339" x2="-79.15358" y2="-109.08507" />
      <line x1="-56.693085" y1="-149.33598" x2="-85.503365" y2="-114.30766" />
      <line x1="-76.46846" y1="-116.66399" x2="-78.58506" y2="-118.404854" />
      <path d="M-74.35187,-114.92312 L-76.758606,-116.31122 L-76.17832,-117.01675 L-74.35187,-114.92312 Z" style="fill:black;" />
      <path d="M-80.70165,-120.14571 L-78.294914,-118.757614 L-78.8752,-118.052086 L-80.70165,-120.14571 Z" style="fill:black;" />
      <text x="-77.98331" y="-122.80361" style="fill:black;" font-family="Arial" font-size="5.3228354" transform="rotate(39.43679,-77.98331,-122.80361)">2.2</text>
    </g>
    <g id="Dimension" stroke-width="0.37795275" style="stroke:black;fill:none;">
      <line x1="-56.693085" y1="-149.33598" x2="-85.503365" y2="-114.30766" />
      <line x1="-56.755905" y1="-149.40813" x2="-93.215065" y2="-122.424355" />
      <path d="M-85.180595,-124.48956 A38.187874,38.187874 0 0 0 -83.02998,-122.22601" />
      <path d="M-87.14396,-126.92619 L-84.77952,-124.82035 L-85.5903,-124.167336 L-87.14396,-126.92619 Z" style="fill:black;" />
      <path d="M-80.696945,-120.14061 L-83.37274,-121.83331 L-82.679115,-122.60964 L-80.696945,-120.14061 Z" style="fill:black;" />
      <text x="-84.29256" y="-128.99574" style="fill:black;" font-family="Arial" font-size="5.576331" transform="rotate(46.465645,-84.29256,-128.99574)">14°</text>
    </g>
  </g>
</svg>