<?xml version="1.0" encoding="utf-8"?>
<!DOCTYPE svg PUBLIC "-//W3C//DTD SVG 1.1//EN" "http://www.w3.org/Graphics/SVG/1.1/DTD/svg11.dtd">
<svg width="33.301567mm" height="33.861973mm" viewBox="0, 0, 125.86419, 127.982254" version="1.1" xmlns:xlink="http://www.w3.org/1999/xlink" xmlns:xml="http://www.w3.org/XML/1998/namespace" xmlns:sodipodi="http://sodipodi.sourceforge.net/DTD/sodipodi-0.dtd" xmlns:inkscape="http://www.inkscape.org/namespaces/inkscape" xmlns="http://www.w3.org/2000/svg">
  <sodipodi:namedview inkscape:document-units="mm" />
  <g id="Pipe" transform="translate(132.92258,199.27205)">
    <g id="Contour" stroke-width="0.18897638" style="stroke:black;fill:black;">
      <path d="M-55.343925,-150.6738 C-55.34395,-150.67383 -55.345833,-150.67598 -55.350185,-150.6812 C-55.355206,-150.68571 -55.35727,-150.68768 -55.35731,-150.68771 C-55.35726,-150.68765 -55.351635,-150.68207 -55.34772,-150.6779 C-55.345562,-150.67561 -55.343964,-150.67383 -55.343925,-150.6738 Z M-57.571186,-147.61136 L-51.543736,-142.65387 L-49.14288,-145.5729 L-55.17033,-150.53038 C-55.245785,-150.59245 -55.30081,-150.63828 -55.330135,-150.6636 C-55.339176,-150.6714 -55.345802,-150.67726 -55.350185,-150.6812 C-55.353386,-150.68504 -55.357906,-150.69054 -55.363754,-150.69777 C-55.390423,-150.73077 -55.444717,-150.80084 -55.51945,-150.89711 A22.128387,22.128387 0 1 0 -79.89207,-116.30015 C-79.713615,-116.241646 -79.57629,-116.196495 -79.51619,-116.17448 C-79.49701,-116.16745 -79.48568,-116.16294 -79.48093,-116.16099 C-79.476166,-116.159035 -79.477936,-116.15967 -79.48219,-116.161705 C-79.48363,-116.16239 -79.48532,-116.16322 -79.48709,-116.16412 C-79.48847,-116.164825 -79.4899,-116.165565 -79.49128,-116.1663 C-79.49261,-116.167 -79.4939,-116.167694 -79.49506,-116.16834 C-79.49926,-116.170654 -79.50184,-116.17229 -79.50016,-116.17124 C-79.49776,-116.16973 -79.486244,-116.16237 -79.46363,-116.1464 C-79.416374,-116.11304 -79.32227,-116.04202 -79.199745,-115.94724 L-73.76102,-111.73992 L-71.44843,-114.72937 L-76.88716,-118.93668 C-77.02784,-119.04552 -77.14775,-119.137856 -77.281624,-119.23248 C-77.348564,-119.27979 -77.419304,-119.32763 -77.49556,-119.37533 C-77.57182,-119.42303 -77.65366,-119.470406 -77.73739,-119.51423 C-77.821106,-119.55805 -77.90611,-119.59799 -77.98717,-119.6328 C-78.06822,-119.66761 -78.145134,-119.697426 -78.21799,-119.72408 C-78.36369,-119.7774 -78.493576,-119.81923 -78.64521,-119.86886 C-78.667854,-119.87627 -78.69099,-119.883835 -78.714714,-119.89162 A18.34886,18.34886 0 1 1 -58.50494,-148.57942 C-58.43593,-148.49052 -58.380253,-148.41803 -58.316578,-148.33862 C-58.28474,-148.29892 -58.25067,-148.2573 -58.212727,-148.21309 C-58.174786,-148.1689 -58.13294,-148.12224 -58.088978,-148.07597 C-58.045017,-148.02972 -57.99924,-147.98419 -57.954624,-147.94199 C-57.91001,-147.89977 -57.86672,-147.8609 -57.824947,-147.82443 C-57.741405,-147.7515 -57.66366,-147.68742 -57.571186,-147.61136 Z M-55.35731,-150.68771 C-55.35727,-150.68768 -55.355206,-150.68571 -55.350185,-150.6812 C-55.345833,-150.67598 -55.34395,-150.67383 -55.343925,-150.6738 C-55.343964,-150.67383 -55.345562,-150.67561 -55.34772,-150.6779 C-55.351635,-150.68207 -55.35726,-150.68765 -55.357315,-150.68771 Z" />
    </g>
    <g id="Dimension" stroke-width="0.37795275" style="stroke:black;fill:none;">
      <line x1="-50.343307" y1="-144.11339" x2="-79.15358" y2="-109.08507" />
      <line x1="-56.693085" y1="-149.33598" x2="-85.503365" y2="-114.30766" />
      <line x1="-76.46846" y1="-116.66399" x2="-78.58506" y2="-118.404854" />
      <path d="M-74.35187,-114.92312 L-76.758606,-116.31122 L-76.17832,-117.01675 L-74.35187,-114.92312 Z" style="fill:black;" />
      <path d="M-80.70165,-120.14571 L-78.294914,-118.757614 L-78.8752,-118.052086 L-80.70165,-120.14571 Z" style="fill:black;" />
      <text x="-77.98331" y="-122.80361" style="fill:black;" font-family="Arial" font-size="5.3228354" transform="rotate(39.43679,-77.98331,-122.80361)">2.2</text>
    </g>
    <g id="Dimension" stroke-width="0.37795275" style="stroke:black;fill:none;">
      <line x1="-56.693085" y1="-149.33598" x2="-85.503365" y2="-114.30766" />
      <line x1="-56.755905" y1="-149.40813" x2="-93.215065" y2="-122.424355" />
      <path d="M-85.180595,-124.48956 A38.187874,38.187874 0 0 0 -83.02998,-122.22601" />
      <path d="M-87.14396,-126.92619 L-84.77952,-124.82035 L-85.5903,-124.167336 L-87.14396,-126.92619 Z" style="fill:black;" />
      <path d="M-80.696945,-120.14061 L-83.37274,-121.83331 L-82.679115,-122.60964 L-80.696945,-120.14061 Z" style="fill:black;" />
      <text x="-84.29256" y="-128.99574" style="fill:black;" font-family="Arial" font-size="5.576331" transform="rotate(46.465645,-84.29256,-128.99574)">14°</text>
    </g>
    <g id="Dimension" stroke-width="0.37795275" style="stroke:black;fill:none;">
      <line x1="-78.691574" y1="-117.89532" x2="-66.099915" y2="-161.47676" />
      <line x1="-78.550995" y1="-117.83459" x2="-50.799942" y2="-153.7079" />
      <path d="M-59.398994,-150.42189 A38.20775,38.20775 0 0 0 -63.67917,-152.59525" />
      <path d="M-55.40241,-147.71815 L-59.828014,-149.75006 L-58.929794,-151.07556 L-55.40241,-147.71815 Z" style="fill:black;" />
      <path d="M-68.22025,-154.22667 L-63.428272,-153.35974 L-63.96846,-151.85245 L-68.22025,-154.22667 Z" style="fill:black;" />
      <text x="-65.57579" y="-157.88177" style="fill:black;" font-family="Arial" font-size="8.576519" transform="rotate(26.92009,-65.57579,-157.88177)">22°</text>
    </g>
    <g id="Dimension" stroke-width="0.37795275" style="stroke:black;fill:none;">
      <line x1="-78.550995" y1="-117.83459" x2="-50.799942" y2="-153.7079" />
      <line x1="-72.60472" y1="-113.23464" x2="-44.853672" y2="-149.10796" />
      <line x1="-53.443027" y1="-146.1957" x2="-51.460938" y2="-144.66238" />
      <path d="M-55.425117,-147.72902 L-53.187473,-146.52605 L-53.69858,-145.86536 L-55.425117,-147.72902 Z" style="fill:black;" />
      <path d="M-49.478848,-143.12907 L-51.71649,-144.33203 L-51.205387,-144.99274 L-49.478848,-143.12907 Z" style="fill:black;" />
      <text x="-52.815216" y="-150.48846" style="fill:black;" font-family="Arial" font-size="4.867174" transform="rotate(37.724995,-52.815216,-150.48846)">2.0</text>
    </g>
  </g>
</svg>