<?xml version="1.0" encoding="utf-8"?>
<!DOCTYPE svg PUBLIC "-//W3C//DTD SVG 1.1//EN" "http://www.w3.org/Graphics/SVG/1.1/DTD/svg11.dtd">
<svg width="33.15558mm" height="33.194725mm" viewBox="0, 0, 125.312416, 125.46037" version="1.1" xmlns:xlink="http://www.w3.org/1999/xlink" xmlns:xml="http://www.w3.org/XML/1998/namespace" xmlns:sodipodi="http://sodipodi.sourceforge.net/DTD/sodipodi-0.dtd" xmlns:inkscape="http://www.inkscape.org/namespaces/inkscape" xmlns="http://www.w3.org/2000/svg">
  <sodipodi:namedview inkscape:document-units="mm" />
  <g id="Pipe" transform="translate(132.37082,199.405)">
    <g id="Contour" stroke-width="0.18897638" style="stroke:black;fill:black;">
      <path d="M-52.158962,-143.58937 L-48.52765,-144.6374 A23.484406,23.484406 0 1 0 -79.8568,-116.33815 C-79.836624,-116.33003 -79.817375,-116.3223 -79.79906,-116.31493 C-79.68068,-116.26737 -79.60096,-116.23492 -79.56329,-116.218506 C-79.54446,-116.2103 -79.536255,-116.20629 -79.53534,-116.20586 C-79.534424,-116.205414 -79.54061,-116.20858 -79.54646,-116.211914 C-79.55232,-116.21525 -79.55745,-116.218506 -79.55548,-116.21722 C-79.55351,-116.21592 -79.54445,-116.20992 -79.52643,-116.196945 C-79.490395,-116.17099 -79.41946,-116.1172 -79.3147,-116.03617 L-73.76102,-111.73992 L-71.44843,-114.72937 L-77.00211,-119.02561 C-77.08829,-119.09227 -77.16604,-119.15219 -77.24626,-119.21163 C-77.309875,-119.25877 -77.375496,-119.306015 -77.44691,-119.35396 C-77.51622,-119.40049 -77.591034,-119.44742 -77.66799,-119.491516 C-77.773415,-119.551926 -77.88118,-119.60576 -77.97958,-119.65048 C-78.041405,-119.67858 -78.099815,-119.70352 -78.15697,-119.727325 C-78.17288,-119.733955 -78.18605,-119.7394 -78.20191,-119.74592 C-78.21777,-119.75244 -78.23632,-119.76001 -78.25339,-119.76694 C-78.314766,-119.79186 -78.377625,-119.81699 -78.44606,-119.84453 A19.704878,19.704878 0 1 1 -52.158962,-143.58937 Z" />
    </g>
    <g id="Dimension" stroke-width="0.37795275" style="stroke:black;fill:none;">
      <line x1="-78.67301" y1="-117.89886" x2="-62.868282" y2="-160.41664" />
      <line x1="-78.56546" y1="-117.84578" x2="-50.81441" y2="-153.71909" />
      <path d="M-58.599785,-149.93954 A38.19571,38.19571 0 0 0 -61.96534,-151.80957" />
      <path d="M-55.428093,-147.7341 L-58.95634,-149.40746 L-58.222916,-150.4613 L-55.428093,-147.7341 Z" style="fill:black;" />
      <path d="M-65.51331,-153.3378 L-61.72137,-152.40517 L-62.228817,-151.22575 L-65.51331,-153.3378 Z" style="fill:black;" />
      <text x="-62.96871" y="-156.74638" style="fill:black;" font-family="Arial" font-size="6.8773093" transform="rotate(29.058064,-62.96871,-156.74638)">17°</text>
    </g>
    <g id="Dimension" stroke-width="0.37795275" style="stroke:black;fill:none;">
      <line x1="-78.56546" y1="-117.84578" x2="-50.81441" y2="-153.71909" />
      <line x1="-72.60472" y1="-113.23464" x2="-44.853672" y2="-149.10796" />
      <line x1="-53.452675" y1="-146.20316" x2="-51.46576" y2="-144.66612" />
      <path d="M-55.439587,-147.7402 L-53.1965,-146.53432 L-53.708847,-145.87201 L-55.439587,-147.7402 Z" style="fill:black;" />
      <path d="M-49.478848,-143.12907 L-51.721935,-144.33496 L-51.209587,-144.99727 L-49.478848,-143.12907 Z" style="fill:black;" />
      <text x="-52.82896" y="-150.4991" style="fill:black;" font-family="Arial" font-size="4.879017" transform="rotate(37.724995,-52.82896,-150.4991)">2.0</text>
    </g>
  </g>
</svg>