999
DXF created by ModelMaker
0
SECTION
2
HEADER
9
$ACADVER
1
AC1015
9
$HANDSEED
5
FFFFFF
9
$ANGDIR
70
1
9
$MEASUREMENT
70
1
0
ENDSEC
0
SECTION
2
CLASSES
0
ENDSEC
0
SECTION
2
TABLES
0
TABLE
2
VPORT
5
1
100
AcDbSymbolTable
70
0
0
ENDTAB
0
TABLE
2
LTYPE
5
2
100
AcDbSymbolTable
70
3
0
LTYPE
5
3
100
AcDbSymbolTableRecord
100
AcDbLinetypeTableRecord
2
BYBLOCK
70
0
3

72
65
73
0
40
0
0
LTYPE
5
4
100
AcDbSymbolTableRecord
100
AcDbLinetypeTableRecord
2
BYLAYER
70
0
3

72
65
73
0
40
0
0
LTYPE
5
5
100
AcDbSymbolTableRecord
100
AcDbLinetypeTableRecord
2
CONTINUOUS
70
0
3
Solid line
72
65
73
0
40
0
0
ENDTAB
0
TABLE
2
LAYER
5
6
100
AcDbSymbolTable
70
1
0
LAYER
5
7
100
AcDbSymbolTableRecord
100
AcDbLayerTableRecord
2
0
70
0
6
CONTINUOUS
390
0
0
ENDTAB
0
TABLE
2
STYLE
5
8
100
AcDbSymbolTable
70
1
0
STYLE
5
9
100
AcDbSymbolTableRecord
100
AcDbTextStyleTableRecord
2
STANDARD
70
0
40
0
41
1
50
0
71
0
42
2.5
3
txt
4

0
ENDTAB
0
TABLE
2
VIEW
5
A
100
AcDbSymbolTable
70
0
0
ENDTAB
0
TABLE
2
UCS
5
B
100
AcDbSymbolTable
70
0
0
ENDTAB
0
TABLE
2
APPID
5
C
100
AcDbSymbolTable
70
1
0
APPID
5
D
100
AcDbSymbolTableRecord
100
AcDbRegAppTableRecord
2
ACAD
70
0
0
ENDTAB
0
TABLE
2
DIMSTYLE
5
E
100
AcDbSymbolTable
70
1
100
AcDbDimStyleTable
0
DIMSTYLE
105
F
100
AcDbSymbolTableRecord
100
AcDbDimStyleTableRecord
2
STANDARD
70
0
0
ENDTAB
0
TABLE
2
BLOCK_RECORD
5
10
100
AcDbSymbolTable
70
2
0
BLOCK_RECORD
5
11
100
AcDbSymbolTableRecord
100
AcDbBlockTableRecord
2
*MODEL_SPACE
0
BLOCK_RECORD
5
12
100
AcDbSymbolTableRecord
100
AcDbBlockTableRecord
2
*PAPER_SPACE
0
ENDTAB
0
ENDSEC
0
SECTION
2
BLOCKS
0
BLOCK
5
13
100
AcDbEntity
8
0
100
AcDbBlockBegin
2
*Model_Space
70
0
10
0
20
0
30
0
3
*Model_Space
1

0
ENDBLK
5
14
100
AcDbEntity
8
0
100
AcDbBlockEnd
0
BLOCK
5
15
100
AcDbEntity
8
0
100
AcDbBlockBegin
2
*Paper_Space
70
0
10
0
20
0
30
0
3
*Paper_Space
1

0
ENDBLK
5
16
100
AcDbEntity
8
0
100
AcDbBlockEnd
0
ENDSEC
0
SECTION
2
ENTITIES
0
LWPOLYLINE
  5
86
330
1F
100
AcDbEntity
  8
0
  6
Continuous
 62
     7
370
    15
100
AcDbPolyline
 90
       26
 70
     1
 43
0.0
 10
221.965103894749
 20
886.195153095613
 42
1.0
 10
251.549807701327
 20
886.195153095612
 42
-0.896503017084
 10
251.549807701262
 20
926.195153095613
 42
1.0
 10
221.965103894749
 20
926.195153095613
 10
202.940937199549
 20
926.195153095613
 10
202.940937199549
 20
945.219319790818
 42
0.94476593681
 10
204.5802103633
 20
974.055067682458
 42
1.106022100561
 10
164.544689550638
 20
974.055067682445
 42
0.94476593681
 10
166.183962714449
 20
945.219319790813
 10
166.183962714449
 20
926.195153095613
 10
97.129003093421
 20
926.195153095613
 42
1.0
 10
63.587082399905
 20
926.195153095613
 10
19.479868043005
 20
926.195153095613
 10
19.479868043005
 20
917.290400190413
 10
9.479868043005
 20
917.290400190413
 10
9.479868043005
 20
895.099906000813
 10
19.479868043005
 20
895.099906000813
 10
19.479868043005
 20
886.195153095613
 10
63.587082399905
 20
886.195153095613
 42
1.0
 10
97.129003093421
 20
886.195153095613
 10
166.183962714449
 20
886.195153095613
 10
166.183962714449
 20
867.170986400408
 42
0.94476593681
 10
164.544689550638
 20
838.335238508781
 42
1.106022100561
 10
204.5802103633
 20
838.335238508768
 42
0.94476593681
 10
202.940937199549
 20
867.170986400408
 10
202.940937199549
 20
886.195153095608
  0
LWPOLYLINE
  5
88
330
1F
100
AcDbEntity
  8
0
  6
Continuous
 62
     7
370
    15
100
AcDbPolyline
 90
       26
 70
     1
 43
0.0
 10
56.994632191237
 20
792.735364428239
 42
1.0
 10
27.409928384659
 20
792.73536442824
 42
-0.896503017084
 10
27.409928384724
 20
752.735364428239
 42
1.0
 10
56.994632191237
 20
752.735364428239
 10
76.018798886437
 20
752.735364428239
 10
76.018798886437
 20
733.711197733034
 42
0.94476593681
 10
74.379525722686
 20
704.875449841394
 42
1.106022100561
 10
114.415046535348
 20
704.875449841407
 42
0.94476593681
 10
112.775773371537
 20
733.711197733039
 10
112.775773371537
 20
752.735364428239
 10
181.830732992565
 20
752.735364428239
 42
1.0
 10
215.37265368608
 20
752.735364428239
 10
259.47986804298
 20
752.735364428239
 10
259.47986804298
 20
761.640117333439
 10
269.47986804298
 20
761.640117333439
 10
269.47986804298
 20
783.830611523039
 10
259.47986804298
 20
783.830611523039
 10
259.47986804298
 20
792.735364428239
 10
215.37265368608
 20
792.735364428239
 42
1.0
 10
181.830732992565
 20
792.735364428239
 10
112.775773371537
 20
792.735364428239
 10
112.775773371537
 20
811.759531123444
 42
0.94476593681
 10
114.415046535348
 20
840.595279015071
 42
1.106022100561
 10
74.379525722686
 20
840.595279015084
 42
0.94476593681
 10
76.018798886437
 20
811.759531123444
 10
76.018798886437
 20
792.735364428244
  0
ENDSEC
0
SECTION
2
OBJECTS
0
DICTIONARY
5
19
100
AcDbDictionary
281
1
3
ACAD_GROUP
350
1A
0
DICTIONARY
5
1A
100
AcDbDictionary
281
1
0
ENDSEC
0
EOF
