                                                                        S0000001
,,31HOpen CASCADE IGES processor 7.9,13HFilename.iges,                  G0000001
16HOpen CASCADE 7.9,31HOpen CASCADE IGES processor 7.9,32,308,15,308,15,G0000002
,1.,2,2HMM,1,0.01,15H20250726.125209,1E-07,40.,11Hrunneradmin,,11,0,    G0000003
15H20250726.125209,;                                                    G0000004
     186       1       0       0       0       0       0       000000000D0000001
     186       0       0       1       0                               0D0000002
     514       2       0       0       0       0       0       000010000D0000003
     514       0       0       1       1                               0D0000004
     510       3       0       0       0       0       0       000010000D0000005
     510       0       0       1       1                               0D0000006
     190       4       0       0       0       0       0       000010000D0000007
     190       0       0       1       1                               0D0000008
     116       5       0       0       0       0       0       000010400D0000009
     116       0       0       1       0                               0D0000010
     123       6       0       0       0       0       0       000010200D0000011
     123       0       0       1       0                               0D0000012
     123       7       0       0       0       0       0       000010200D0000013
     123       0       0       1       0                               0D0000014
     508       8       0       0       0       0       0       000010000D0000015
     508       0       0       1       1                               0D0000016
     504       9       0       0       0       0       0       000010001D0000017
     504       0       0       3       1                               0D0000018
     110      12       0       0       0       0       0       000010000D0000019
     110       0       0       1       0                               0D0000020
     502      13       0       0       0       0       0       000010000D0000021
     502       0       0       2       1                               0D0000022
     110      15       0       0       0       0       0       000010000D0000023
     110       0       0       1       0                               0D0000024
     110      16       0       0       0       0       0       000010000D0000025
     110       0       0       1       0                               0D0000026
     110      17       0       0       0       0       0       000010000D0000027
     110       0       0       1       0                               0D0000028
     110      18       0       0       0       0       0       000010000D0000029
     110       0       0       1       0                               0D0000030
     110      19       0       0       0       0       0       000010000D0000031
     110       0       0       1       0                               0D0000032
     110      20       0       0       0       0       0       000010000D0000033
     110       0       0       1       0                               0D0000034
     110      21       0       0       0       0       0       000010000D0000035
     110       0       0       1       0                               0D0000036
     110      22       0       0       0       0       0       000010000D0000037
     110       0       0       1       0                               0D0000038
     110      23       0       0       0       0       0       000010000D0000039
     110       0       0       1       0                               0D0000040
     110      24       0       0       0       0       0       000010000D0000041
     110       0       0       1       0                               0D0000042
     110      25       0       0       0       0       0       000010000D0000043
     110       0       0       1       0                               0D0000044
     510      26       0       0       0       0       0       000010000D0000045
     510       0       0       1       1                               0D0000046
     190      27       0       0       0       0       0       000010000D0000047
     190       0       0       1       1                               0D0000048
     116      28       0       0       0       0       0       000010400D0000049
     116       0       0       1       0                               0D0000050
     123      29       0       0       0       0       0       000010200D0000051
     123       0       0       1       0                               0D0000052
     123      30       0       0       0       0       0       000010200D0000053
     123       0       0       1       0                               0D0000054
     508      31       0       0       0       0       0       000010000D0000055
     508       0       0       1       1                               0D0000056
     510      32       0       0       0       0       0       000010000D0000057
     510       0       0       1       1                               0D0000058
     190      33       0       0       0       0       0       000010000D0000059
     190       0       0       1       1                               0D0000060
     116      34       0       0       0       0       0       000010400D0000061
     116       0       0       1       0                               0D0000062
     123      35       0       0       0       0       0       000010200D0000063
     123       0       0       1       0                               0D0000064
     123      36       0       0       0       0       0       000010200D0000065
     123       0       0       1       0                               0D0000066
     508      37       0       0       0       0       0       000010000D0000067
     508       0       0       1       1                               0D0000068
     510      38       0       0       0       0       0       000010000D0000069
     510       0       0       1       1                               0D0000070
     190      39       0       0       0       0       0       000010000D0000071
     190       0       0       1       1                               0D0000072
     116      40       0       0       0       0       0       000010400D0000073
     116       0       0       1       0                               0D0000074
     123      41       0       0       0       0       0       000010200D0000075
     123       0       0       1       0                               0D0000076
     123      42       0       0       0       0       0       000010200D0000077
     123       0       0       1       0                               0D0000078
     508      43       0       0       0       0       0       000010000D0000079
     508       0       0       1       1                               0D0000080
     510      44       0       0       0       0       0       000010000D0000081
     510       0       0       1       1                               0D0000082
     190      45       0       0       0       0       0       000010000D0000083
     190       0       0       1       1                               0D0000084
     116      46       0       0       0       0       0       000010400D0000085
     116       0       0       1       0                               0D0000086
     123      47       0       0       0       0       0       000010200D0000087
     123       0       0       1       0                               0D0000088
     123      48       0       0       0       0       0       000010200D0000089
     123       0       0       1       0                               0D0000090
     508      49       0       0       0       0       0       000010000D0000091
     508       0       0       1       1                               0D0000092
     510      50       0       0       0       0       0       000010000D0000093
     510       0       0       1       1                               0D0000094
     190      51       0       0       0       0       0       000010000D0000095
     190       0       0       1       1                               0D0000096
     116      52       0       0       0       0       0       000010400D0000097
     116       0       0       1       0                               0D0000098
     123      53       0       0       0       0       0       000010200D0000099
     123       0       0       1       0                               0D0000100
     123      54       0       0       0       0       0       000010200D0000101
     123       0       0       1       0                               0D0000102
     508      55       0       0       0       0       0       000010000D0000103
     508       0       0       1       1                               0D0000104
     186      56       0       0       0       0       0       000000000D0000105
     186       0       0       1       0                               0D0000106
     514      57       0       0       0       0       0       000010000D0000107
     514       0       0       1       1                               0D0000108
     510      58       0       0       0       0       0       000010000D0000109
     510       0       0       1       1                               0D0000110
     192      59       0       0       0       0       0       000010000D0000111
     192       0       0       1       1                               0D0000112
     116      60       0       0       0       0       0       000010400D0000113
     116       0       0       1       0                               0D0000114
     123      61       0       0       0       0       0       000010200D0000115
     123       0       0       1       0                               0D0000116
     123      62       0       0       0       0       0       000010200D0000117
     123       0       0       1       0                               0D0000118
     508      63       0       0       0       0       0       000010000D0000119
     508       0       0       2       1                               0D0000120
     504      65       0       0       0       0       0       000010001D0000121
     504       0       0       1       1                               0D0000122
     100      66       0       0       0       0     125       000010000D0000123
     100       0       0       1       0                               0D0000124
     124      67       0       0       0       0       0       000000000D0000125
     124       0       0       1       0                               0D0000126
     502      68       0       0       0       0       0       000010000D0000127
     502       0       0       1       1                               0D0000128
     110      69       0       0       0       0       0       000010000D0000129
     110       0       0       1       0                               0D0000130
     100      70       0       0       0       0     133       000010000D0000131
     100       0       0       1       0                               0D0000132
     124      71       0       0       0       0       0       000000000D0000133
     124       0       0       1       0                               0D0000134
     110      72       0       0       0       0       0       000010000D0000135
     110       0       0       1       0                               0D0000136
     110      73       0       0       0       0       0       000010000D0000137
     110       0       0       1       0                               0D0000138
     110      74       0       0       0       0       0       000010000D0000139
     110       0       0       1       0                               0D0000140
     110      75       0       0       0       0       0       000010000D0000141
     110       0       0       1       0                               0D0000142
     510      76       0       0       0       0       0       000010000D0000143
     510       0       0       1       1                               0D0000144
     190      77       0       0       0       0       0       000010000D0000145
     190       0       0       1       1                               0D0000146
     116      78       0       0       0       0       0       000010400D0000147
     116       0       0       1       0                               0D0000148
     123      79       0       0       0       0       0       000010200D0000149
     123       0       0       1       0                               0D0000150
     123      80       0       0       0       0       0       000010200D0000151
     123       0       0       1       0                               0D0000152
     508      81       0       0       0       0       0       000010000D0000153
     508       0       0       1       1                               0D0000154
     510      82       0       0       0       0       0       000010000D0000155
     510       0       0       1       1                               0D0000156
     190      83       0       0       0       0       0       000010000D0000157
     190       0       0       1       1                               0D0000158
     116      84       0       0       0       0       0       000010400D0000159
     116       0       0       1       0                               0D0000160
     123      85       0       0       0       0       0       000010200D0000161
     123       0       0       1       0                               0D0000162
     123      86       0       0       0       0       0       000010200D0000163
     123       0       0       1       0                               0D0000164
     508      87       0       0       0       0       0       000010000D0000165
     508       0       0       1       1                               0D0000166
     186      88       0       0       0       0       0       000000000D0000167
     186       0       0       1       0                               0D0000168
     514      89       0       0       0       0       0       000010000D0000169
     514       0       0       1       1                               0D0000170
     510      90       0       0       0       0       0       000010000D0000171
     510       0       0       1       1                               0D0000172
     196      91       0       0       0       0       0       000010000D0000173
     196       0       0       1       1                               0D0000174
     116      92       0       0       0       0       0       000010400D0000175
     116       0       0       1       0                               0D0000176
     123      93       0       0       0       0       0       000010200D0000177
     123       0       0       1       0                               0D0000178
     123      94       0       0       0       0       0       000010200D0000179
     123       0       0       1       0                               0D0000180
     508      95       0       0       0       0       0       000010000D0000181
     508       0       0       2       1                               0D0000182
     502      97       0       0       0       0       0       000010000D0000183
     502       0       0       1       1                               0D0000184
     110      98       0       0       0       0       0       000010000D0000185
     110       0       0       1       0                               0D0000186
     504      99       0       0       0       0       0       000010001D0000187
     504       0       0       1       1                               0D0000188
     100     100       0       0       0       0     191       000010000D0000189
     100       0       0       1       0                               0D0000190
     124     101       0       0       0       0       0       000000000D0000191
     124       0       0       2       0                               0D0000192
     110     103       0       0       0       0       0       000010000D0000193
     110       0       0       1       0                               0D0000194
     110     104       0       0       0       0       0       000010000D0000195
     110       0       0       1       0                               0D0000196
     110     105       0       0       0       0       0       000010000D0000197
     110       0       0       1       0                               0D0000198
186,3,1,0;                                                       0000001P0000001
514,6,5,0,45,1,57,0,69,1,81,0,93,1;                              0000003P0000002
510,7,1,1,15;                                                    0000005P0000003
190,9,11,13;                                                     0000007P0000004
116,-20.,-10.,0.,0;                                              0000009P0000005
123,1.,0.,0.;                                                    0000011P0000006
123,0.,0.,1.;                                                    0000013P0000007
508,4,0,17,1,0,0,0,17,2,1,0,0,17,3,1,0,0,17,4,0,0;               0000015P0000008
504,12,19,21,1,21,2,23,21,1,21,3,25,21,3,21,4,27,21,2,21,4,29,   0000017P0000009
21,5,21,6,31,21,5,21,7,33,21,7,21,8,35,21,6,21,8,37,21,1,21,5,   0000017P0000010
39,21,2,21,6,41,21,3,21,7,43,21,4,21,8;                          0000017P0000011
110,-20.,-10.,0.,-20.,-10.,10.;                                  0000019P0000012
502,8,-20.,-10.,0.,-20.,-10.,10.,-20.,10.,0.,-20.,10.,10.,0.,    0000021P0000013
-10.,0.,0.,-10.,10.,0.,10.,0.,0.,10.,10.;                        0000021P0000014
110,-20.,-10.,0.,-20.,10.,0.;                                    0000023P0000015
110,-20.,10.,0.,-20.,10.,10.;                                    0000025P0000016
110,-20.,-10.,10.,-20.,10.,10.;                                  0000027P0000017
110,0.,-10.,0.,0.,-10.,10.;                                      0000029P0000018
110,0.,-10.,0.,0.,10.,0.;                                        0000031P0000019
110,0.,10.,0.,0.,10.,10.;                                        0000033P0000020
110,0.,-10.,10.,0.,10.,10.;                                      0000035P0000021
110,-20.,-10.,0.,0.,-10.,0.;                                     0000037P0000022
110,-20.,-10.,10.,0.,-10.,10.;                                   0000039P0000023
110,-20.,10.,0.,0.,10.,0.;                                       0000041P0000024
110,-20.,10.,10.,0.,10.,10.;                                     0000043P0000025
510,47,1,1,55;                                                   0000045P0000026
190,49,51,53;                                                    0000047P0000027
116,0.,-10.,0.,0;                                                0000049P0000028
123,1.,0.,0.;                                                    0000051P0000029
123,0.,0.,1.;                                                    0000053P0000030
508,4,0,17,5,0,0,0,17,6,1,0,0,17,7,1,0,0,17,8,0,0;               0000055P0000031
510,59,1,1,67;                                                   0000057P0000032
190,61,63,65;                                                    0000059P0000033
116,-20.,-10.,0.,0;                                              0000061P0000034
123,0.,1.,0.;                                                    0000063P0000035
123,0.,0.,1.;                                                    0000065P0000036
508,4,0,17,9,0,0,0,17,1,1,0,0,17,10,1,0,0,17,5,0,0;              0000067P0000037
510,71,1,1,79;                                                   0000069P0000038
190,73,75,77;                                                    0000071P0000039
116,-20.,10.,0.,0;                                               0000073P0000040
123,0.,1.,0.;                                                    0000075P0000041
123,0.,0.,1.;                                                    0000077P0000042
508,4,0,17,11,0,0,0,17,3,1,0,0,17,12,1,0,0,17,7,0,0;             0000079P0000043
510,83,1,1,91;                                                   0000081P0000044
190,85,87,89;                                                    0000083P0000045
116,-20.,-10.,0.,0;                                              0000085P0000046
123,0.,0.,1.;                                                    0000087P0000047
123,1.,0.,0.;                                                    0000089P0000048
508,4,0,17,2,0,0,0,17,9,1,0,0,17,6,1,0,0,17,11,0,0;              0000091P0000049
510,95,1,1,103;                                                  0000093P0000050
190,97,99,101;                                                   0000095P0000051
116,-20.,-10.,10.,0;                                             0000097P0000052
123,0.,0.,1.;                                                    0000099P0000053
123,1.,0.,0.;                                                    0000101P0000054
508,4,0,17,4,0,0,0,17,10,1,0,0,17,8,1,0,0,17,12,0,0;             0000103P0000055
186,107,1,0;                                                     0000105P0000056
514,3,109,1,143,1,155,0;                                         0000107P0000057
510,111,1,1,119;                                                 0000109P0000058
192,113,115,20.,117;                                             0000111P0000059
116,20.,-10.,0.,0;                                               0000113P0000060
123,0.,0.,1.;                                                    0000115P0000061
123,1.,0.,0.;                                                    0000117P0000062
508,4,0,121,1,0,1,0,135,0,121,2,0,1,0,137,0,121,3,1,1,0,139,0,   0000119P0000063
121,2,1,1,0,141;                                                 0000119P0000064
504,3,123,127,1,127,1,129,127,2,127,1,131,127,2,127,2;           0000121P0000065
100,0.,0.,0.,20.,0.,20.,0.;                                      0000123P0000066
124,1.,0.,0.,20.,0.,1.,0.,-10.,0.,0.,1.,15.;                     0000125P0000067
502,2,40.,-10.,15.,40.,-10.,0.;                                  0000127P0000068
110,40.,-10.,0.,40.,-10.,15.;                                    0000129P0000069
100,0.,0.,0.,20.,0.,20.,0.;                                      0000131P0000070
124,1.,0.,0.,20.,0.,1.,0.,-10.,0.,0.,1.,0.;                      0000133P0000071
110,360.,15.,0.,0.,15.,0.;                                       0000135P0000072
110,0.,15.,0.,0.,0.,0.;                                          0000137P0000073
110,0.,0.,0.,360.,0.,0.;                                         0000139P0000074
110,360.,0.,0.,360.,15.,0.;                                      0000141P0000075
510,145,1,1,153;                                                 0000143P0000076
190,147,149,151;                                                 0000145P0000077
116,20.,-10.,15.,0;                                              0000147P0000078
123,0.,0.,1.;                                                    0000149P0000079
123,1.,0.,0.;                                                    0000151P0000080
508,1,0,121,1,1,0;                                               0000153P0000081
510,157,1,1,165;                                                 0000155P0000082
190,159,161,163;                                                 0000157P0000083
116,20.,-10.,0.,0;                                               0000159P0000084
123,0.,0.,1.;                                                    0000161P0000085
123,1.,0.,0.;                                                    0000163P0000086
508,1,0,121,3,1,0;                                               0000165P0000087
186,169,1,0;                                                     0000167P0000088
514,1,171,1;                                                     0000169P0000089
510,173,1,1,181;                                                 0000171P0000090
196,175,15.,177,179;                                             0000173P0000091
116,0.,20.,0.,0;                                                 0000175P0000092
123,0.,0.,1.;                                                    0000177P0000093
123,1.,0.,0.;                                                    0000179P0000094
508,4,1,183,1,0,1,0,185,0,187,1,0,1,0,193,1,183,2,1,1,0,195,0,   0000181P0000095
187,1,1,1,0,197;                                                 0000181P0000096
502,2,9.184850994E-16,20.,15.,9.184850994E-16,20.,-15.;          0000183P0000097
110,360.,90.,0.,0.,90.,0.;                                       0000185P0000098
504,1,189,183,2,183,1;                                           0000187P0000099
100,0.,0.,0.,-2.755455298E-15,-15.,4.592425497E-15,15.;          0000189P0000100
124,1.,0.,-2.449293598E-16,0.,-2.449293598E-16,0.,-1.,20.,0.,1., 0000191P0000101
0.,0.;                                                           0000191P0000102
110,0.,90.,-0.,0.,-90.,-0.;                                      0000193P0000103
110,0.,-90.,0.,360.,-90.,0.;                                     0000195P0000104
110,360.,-90.,0.,360.,90.,0.;                                    0000197P0000105
S      1G      4D    198P    105                                        T0000001
