
CASCADE Topology V1, (c) Matra-Datavision
Locations 5
1
              1               0               0             -10 
              0               1               0             -10 
              0               0               1               0 
1
              1               0               0               0 
              0               1               0               0 
              0               0               1               0 
1
              1               0               0              20 
              0               1               0              20 
              0               0               1               0 
2  3 -1 0
2  2 -1 0
Curve2ds 49
1 10 0 0 -1 
1 0 0 0 1 
2 0 0 1 0 -0 1 15
1 1.5707963267948966 -4.7123889803846897 -0 1 
1 0 0 0 -1 
1 0 0 0 1 
1 0 0 1 0 
1 0 0 1 0 
2 0 0 1 0 -0 1 11.180339887498949
1 0 0.72972765622696634 1 0 
2 20 20 1 0 -0 1 20
1 0 10 1 0 
1 10 0 0 1 
1 0 0 1 0 
2 0 0 1 0 -0 1 15
1 0 0 1 0 
7 0 0  8 100 15  4.4590063696613864 -5.9999999999999997e-07  4.4590063713919648 0.902908289088317  4.4557593783390708 1.8042661619324423  4.4492856403553791 2.7028467932627471  4.4395271237178635 3.596379351417351  4.4263907114037391 4.481797897384503  4.4097270932051593 5.3550303092455032  4.3893492532204252 6.2111610922517944  4.3557822472683956 7.3542984302204042  4.3460998236282276 7.6614772583321358  4.3358361134290604 7.964954119444374  4.3249719219381566 8.26429977105653  4.3134868616530451 8.5589937514829142  4.3013590171115981 8.848423735555393  4.2885639942724101 9.1318807631521715  4.263829554683908 9.6391411337594342  4.2521052159679567 9.864961985298411  4.2398833739566113 10.085562943825597  4.2271481074048731 10.30037274285614  4.2138849547570709 10.508706614051233  4.2000811447152202 10.709772326815537  4.1857256408024197 10.902674454205268  4.1606214113002533 11.211907054917381  4.1501735771342654 11.333106350592239  4.1394633460632608 11.449690283733215  4.1284905016575388 11.561296809111814  4.1172569668079513 11.667532137556689  4.1057671079661837 11.767978367481781  4.0940281392351237 11.862202915095352  4.0760325902744361 11.99376721845826  4.0699544903635116 12.036082796525903  4.0638177948848284 12.076660527524123  4.0576242115181111 12.115444233801338  4.0513757055066879 12.152378114766766  4.045074517849641 12.187407351634315  4.0387231834939605 12.220478712166429  4.0283725172642448 12.270726465674615  4.0244024351605834 12.289145526575334  4.0204149738708157 12.306786194968247  4.0164108434372965 12.323636822122399  4.0123907932896437 12.339686253727736  4.0083556122447348 12.35492382989511  4.0043061285067063 12.369339385156264  3.9912452313319462 12.413006868779171  3.9821809048938595 12.439012994966646  3.9730602207836583 12.460835707092899  3.9638935510745004 12.47838688172264  3.9546917030852837 12.491597914197175  3.9454659729842119 12.500421440912872  3.9362281993923514 12.504833061599685  3.9135829374945437 12.504833061599632  3.9001729967545495 12.49553883958059  3.8868006893673757 12.47694576899989  3.87350191114807 12.449167187028522  3.8603093732881546 12.412413311908708  3.8472530608967577 12.366974751910046  3.834360535921292 12.313210605884082  3.8152584504804103 12.220478712165853  3.8089071161247379 12.187407351633762  3.8026059284676932 12.152378114766181  3.7963574224562637 12.115444233800682  3.7901638390895411 12.076660527523401  3.7840271436108597 12.036082796525166  3.777949043699945 11.993767218457553  3.7599534947392046 11.862202915094183  3.7482145260082551 11.767978367481426  3.7367246671664276 11.667532137555646  3.7254911323167801 11.561296809110225  3.7145182879111132 11.449690283732192  3.7038080568401703 11.333106350591693  3.6933602226740816 11.211907054915638  3.668255993171964 10.902674454203952  3.6539004892591391 10.709772326813823  3.640096679217304 10.508706614049535  3.6268335265695169 10.300372742854508  3.614098260017764 10.085562943823776  3.6018764180064005 9.8649619852963433  3.5901520792904718 9.6391411337574215  3.5650195095951029 9.1237158065582555  3.5518681353242099 8.8316897264821037  3.539422990093835 8.5333584834586897  3.5276575322118227 8.2294909371189622  3.5165480218644647 7.9207488042987491  3.5060724212814502 7.6076922018086695  3.4962100180975355 7.2907803512632805  3.4801050891358574 6.7340162154957435  3.4735923780377069 6.4957842709288149  3.4673963531313459 6.2558304912779157  3.4615104728454078 6.0143010275080417  3.4559288487125093 5.7713296007248331  3.4506461545594367 5.5270378003593832  3.4456575356973476 5.2815353823530495  3.4292508515896198 4.4204763859465634  3.4193428093843026 3.7992226235390394  3.4111634356315004 3.1726066610556751  3.4046653762309176 2.5419238903170847  3.3998149258780317 1.9083406206726941  3.3965888707373462 1.2729002603677328  3.3949752630930923 0.63652177182083636  3.3949752643130959 -6.0000000000000008e-07 
 0 9 0.22576690651390124 7 0.30997519153328867 7 0.38015874918945708 7 0.42809187428511747 7 0.45217561152479924 7 0.46705061563643091 7 0.49999367209622397 7 0.54780987280751681 7 0.57189453725419015 7 0.61982950774167977 7 0.69001576741602322 7 0.77671250967955108 7 0.84066399656884316 7 1 9
7 0 0  8 100 15  0.042586192635629461 -4.0000000000000041e-08  0.042586191933353397 0.060193885939221176  0.04384954699013309 0.12028432582902385  0.046364643828125496 0.18052236648957928  0.050298401379110701 0.24108284078373995  0.055931268405955567 0.30211157903210051  0.063812223089439762 0.36370651784506469  0.074730405055689425 0.42595019433132097  0.09622486162614835 0.51226822017581508  0.10272141912998467 0.5357974395880396  0.10996267771385294 0.55940506911967502  0.11805277502971143 0.58308225597722074  0.12711569669189687 0.60681254581748145  0.13730093422868356 0.63057026222287682  0.14879173359183054 0.65431755059418228  0.17267097937544765 0.69773834168166649  0.18458847345559803 0.71742689470440879  0.19770106678436444 0.7370357576336094  0.21215842323817313 0.75652103808005933  0.22813253221711383 0.77582297831096569  0.24581847695158607 0.79486303060668662  0.26543065914855735 0.81353996882390478  0.3020584734994029 0.84414485551972718  0.31792382044970779 0.85633344852540827  0.33486050004753298 0.86824893821856097  0.35293760416086761 0.87984209773869226  0.37222034730568454 0.89105565616077043  0.39276446818352989 0.90182445738975137  0.41460802275752201 0.91207647211739074  0.44939343936731074 0.92658736808729569  0.46135645785815277 0.93129003386262132  0.47365059811904203 0.93583284298347225  0.4862749257304198 0.94020563764344345  0.4992262831773201 0.94439805757131956  0.51249897495327823 0.94839967818881976  0.52608445266424009 0.95220014876833947  0.54854784386027577 0.95800614162104303  0.557239550284098 0.96014237570109839  0.56604338115261954 0.96219561384615138  0.57495614352973101 0.96416351299333913  0.58397418979453164 0.96604380600164419  0.59309341764132906 0.96783430165189555  0.60230927007963964 0.96953288464676723  0.63222959405065904 0.97469122544829534  0.65329260124553523 0.97778442553037226  0.67475076360303776 0.98039496414918559  0.69653814963601757 0.98250393477091003  0.71858002719873781 0.98409628927071546  0.74079500089965555 0.98516145116776643  0.7630971495142046 0.98569392886021834  0.81776764791138268 0.98569392886021179  0.85014203168781322 0.98457208200964152  0.88224944229510793 0.98232753287094943  0.91382560785776124 0.97898509319969673  0.944636882840033 0.97459123262310443  0.97449389815679177 0.96920945633762556  1.0032558356116879 0.96291506982554942  1.0447118741308974 0.95220014876827319  1.0582973518418393 0.94839967818875548  1.0715700436177893 0.94439805757125284  1.0845214010646969 0.94020563764336873  1.0971457286760822 0.93583284298339076  1.1094398689369636 0.93129003386253928  1.1214028874277848 0.92658736808721731  1.1561883040376613 0.91207647211726217  1.1780318586114542 0.9018244573897104  1.1985759794893811 0.89105565616066196  1.2178587226342972 0.87984209773852717  1.2359358267475458 0.86824893821845361  1.2528725063452646 0.85633344852535187  1.2687378532957141 0.84414485551955298  1.3053656676464742 0.81353996882377744  1.3249778498434621 0.79486303060653851  1.342663794577923 0.7758229783108056  1.3586379035568448 0.75652103807989479  1.3730952600106503 0.73703575763344087  1.3862078533394198 0.71742689470423604  1.3981253474195541 0.6977383416814914  1.4223889579526297 0.65361864152293703  1.4341721738658955 0.62916877685344408  1.4445787907338519 0.60470953984511777  1.4538073691850941 0.58028161516617061  1.462018837287935 0.55591224096821734  1.4693459773832511 0.53161856980658873  1.47589984251588 0.50740947427268535  1.4861054879360289 0.46549106862184814  1.4900671782686328 0.4477446664966177  1.4936951128373361 0.43004813743781845  1.4970210851752164 0.41240209528873678  1.5000724462478978 0.39480630728250715  1.5028728077279816 0.37725978006380723  1.5054427452694705 0.35976084571055283  1.5136748843505339 0.29882136996120334  1.5182309477978368 0.25562366132223691  1.5217495162117063 0.21267337445126255  1.5244088753363214 0.16992713710672261  1.5263278697424809 0.12733913745759409  1.5275826899160774 0.084860020808615613  1.5282101346543502 0.04243478478805579  1.5282101341592678 -3.9999999999999994e-08 
 0 9 0.22576690651390124 7 0.30997519153328867 7 0.38015874918945708 7 0.42809187428511747 7 0.45217561152479924 7 0.46705061563643091 7 0.49999367209622397 7 0.54780987280751681 7 0.57189453725419015 7 0.61982950774167977 7 0.69001576741602322 7 0.77671250967955108 7 0.84066399656884316 7 1 9
1 0 0 1 0 
2 0 0 1 0 -0 1 20
2 20 20 1 0 -0 1 20
1 0 0 0 1 
1 0 0 1 0 
1 6.2831853071795862 -6.2831853071795862 0 1 
1 0 -6.2831853071795862 0 1 
2 0 0 0 1 1 -0 15
2 -20 -20 1 0 -0 1 15
1 0 0 1 0 
2 0 0 1 0 -0 1 15
1 0 0 0 1 
1 0 20 1 0 
1 -20 0 1 0 
1 0 -20 1 0 
1 0 20 1 0 
1 10 0 0 1 
1 0 20 1 0 
1 0 -20 1 0 
1 0 0 1 0 
1 3.1415926535897931 0 0 1 
1 0 0 0 -1 
1 20 0 0 1 
1 0 -20 0 1 
2 20 20 1 0 -0 1 20
2 20 20 1 0 -0 1 20
1 0 0 1 0 
1 0 20 1 0 
1 4.7123889803846897 0 0 1 
1 10 0 0 -1 
1 20 0 0 1 
Curves 20
1 0 0 10 -0 1 0 
2 0 0 0 1 0 -0 0 0 1 0 -1 0 15
1 0 0 0 -0 1 0 
1 0 0 0 0 0 1 
2 0 0 10 0 0 1 1 0 -0 -0 1 0 11.180339887498949
2 20 20 10 0 0 1 1 0 -0 -0 1 0 20
1 0 0 10 1 0 -0 
2 0 0 0 0 0 1 1 0 -0 -0 1 0 15
7 0 0  8 100 15  14.9864001770306 0.63859982296938256 -5.9999999999999997e-07  14.986400210537022 0.63859981429295465 0.90290828908831711  14.9235349603752 0.65488064611055041 1.8042661619324725  14.798190159705051 0.68733080341648101 2.7028467932626743  14.609555787381655 0.73741197816162207 3.5963793514174345  14.356380061996436 0.80779280180875845 4.4817978973844532  14.036849811418238 0.90292396389150187 5.3550303092455165  13.649000077483393 1.0288670674686626 6.2111610922517944  13.017785185150061 1.2574831542386553 7.3542984302204042  12.836358193025205 1.3252147823216709 7.6614772583321358  12.644808988028135 1.3990707162597686 7.964954119444374  12.442969302099936 1.4796097222642193 8.26429977105653  12.230684543363164 1.5674520098403439 8.5589937514829142  12.007816162802861 1.6632882543929517 8.848423735555393  11.774236366187667 1.7678961283780898 9.1318807631521715  11.326101854605735 1.9774014033287304 9.6391411337594342  11.114906014527691 2.0793264655646464 9.864961985298411  10.896142598401795 2.1884563598048099 10.085562943825597  10.669780498598508 2.3053375395868962 10.30037274285614  10.435854681169031 2.430541873167277 10.508706614051233  10.194474720336304 2.5646620409000547 10.709772326815537  9.9458297387618178 2.7083065367181485 10.902674454205268  9.5155958202227158 2.9671263792678486 11.211907054917381  9.3377646835533543 3.0768743440762871 11.333106350592239  9.1567965318936864 3.1915255453940907 11.449690283733215  8.9728354357219704 3.311252141164045 11.561296809111814  8.786072188653371 3.4362055058895535 11.667532137556689  8.5967471320562883 3.5665080303912071 11.767978367481781  8.4051529633128119 3.7022422854497732 11.862202915095352  8.114406752695464 3.9143803394859646 11.99376721845826  8.0166934904017211 3.9866999201669269 12.036082796525903  7.9185438379383051 4.0603984072334782 12.076660527524123  7.8200078068814181 4.1354741640807031 12.115444233801338  7.7211393307362419 4.2119212678876998 12.152378114766766  7.6219962723859345 4.2897289758615171 12.187407351634315  7.5226404315406059 4.368881191481095 12.220478712166429  7.3616809051225962 4.4990600968954606 12.270726465674615  7.3001680353766236 4.5492688230302569 12.289145526575334  7.2386144834788686 4.5999769807290605 12.306786194968247  7.1770362012841558 4.6511786036392939 12.323636822122399  7.115449551971663 4.7028668874723518 12.339686253727736  7.0538713100449142 4.7550341900035891 12.35492382989511  6.9923186613317796 4.8076720310723298 12.369339385156264  6.7945867492668421 4.9783673882294668 12.413006868779171  6.6585691465501418 5.0982316188299048 12.439012994966646  6.5229555926531892 5.2202548977584655 12.460835707092899  6.3879448177355753 5.3443138127531373 12.47838688172264  6.2537346670350038 5.470269268511446 12.491597914197175  6.1205216836046272 5.5979653292872804 12.500421440912872  5.988500691050378 5.7272280614877085 12.504833061599685  5.668248326056692 6.047480426481429 12.504833061599632  5.4815086711440699 6.2400311729678766 12.49553883958059  5.2982602675615347 6.4349048535922924 12.47694576899989  5.1190150703148509 6.6314941119397162 12.449167187028522  4.9441946670719306 6.8291977023822783 12.412413311908708  4.7741410309690755 7.0274231977876296 12.366974751910046  4.6091254925360357 7.2255906998705806 12.313210605884082  4.3688811914796952 7.5226404315423547 12.220478712165853  4.2897289758602239 7.6219962723875572 12.187407351633762  4.2119212678864448 7.7211393307378469 12.152378114766181  4.1354741640793993 7.8200078068831269 12.115444233800682  4.0603984072321255 7.9185438379401107 12.076660527523401  3.9866999201656133 8.0166934904034886 12.036082796525166  3.9143803394847594 8.1144067526970947 11.993767218457553  3.7022422854480044 8.4051529633152757 11.862202915094183  3.5665080303906969 8.5967471320568372 11.767978367481426  3.4362055058884291 8.7860721886551296 11.667532137555646  3.3112521411622455 8.972835435724889 11.561296809110225  3.1915255453928935 9.1567965318955178 11.449690283732192  3.0768743440757951 9.3377646835539831 11.333106350591693  2.9671263792663143 9.5155958202252222 11.211907054915638  2.7083065367171617 9.9458297387635177 10.902674454203952  2.5646620408988738 10.194474720338325 10.709772326813823  2.4305418731662081 10.435854681170996 10.508706614049535  2.3053375395859796 10.669780498600341 10.300372742854508  2.1884563598038507 10.896142598403703 10.085562943823776  2.0793264655635961 11.114906014529721 9.8649619852963433  1.9774014033278284 11.326101854607606 9.6391411337574215  1.7645238927861893 11.781449622036646 9.1237158065582555  1.6571233394101015 12.021591234822113 8.8316897264821037  1.5589917527427839 12.250384291617422 8.5333584834586897  1.4692837209293561 12.467969140722277 8.2294909371189622  1.387251383098685 12.674497408860264 7.9207488042987491  1.3122253065555398 12.870138224312468 7.6076922018086695  1.2436042064554078 13.055075451032392 7.2907803512632805  1.1345657194335634 13.358156468406104 6.7340162154957435  1.0914765779410835 13.481081723220823 6.4957842709288149  1.0513735695728146 13.598339896039974 6.2558304912779157  1.0140644152108524 13.709994491756349 6.0143010275080417  0.97937523283846684 13.816104864475658 5.7713296007248331  0.94714869984744887 13.916726759690276 5.5270378003593832  0.91724221534546391 14.011912856452927 5.2815353823530495  0.82047088883844299 14.325452365495057 4.4204763859465634  0.76502395454266825 14.515723644221309 3.7992226235390376  0.72117147228999445 14.673339832298488 3.1726066610556751  0.68746391836130682 14.79885885395325 2.5419238903170842  0.66286448627902284 14.892697837595273 1.9083406206726923  0.64668958669556131 14.955158383632805 1.2729002603677342  0.63859981685277012 14.986400200651589 0.63652177182083636  0.63859982296937901 14.986400177030616 -6.0000000000000008e-07 
 0 9 0.22576690651390124 7 0.30997519153328867 7 0.38015874918945708 7 0.42809187428511747 7 0.45217561152479924 7 0.46705061563643091 7 0.49999367209622397 7 0.54780987280751681 7 0.57189453725419015 7 0.61982950774167977 7 0.69001576741602322 7 0.77671250967955108 7 0.84066399656884316 7 1 9
2 0 0 0 0 0 1 1 0 -0 -0 1 0 20
1 0 0 0 1 0 -0 
2 0 0 0 -2.4492935982947064e-16 -1 0 1 -2.4492935982947064e-16 0 0 0 1 15
2 0 0 0 0 0 1 1 0 -0 -0 1 0 15
1 0 20 0 1 0 -0 
1 20 20 0 0 0 1 
1 0 20 10 1 0 -0 
1 0 20 0 0 0 1 
1 20 0 0 -0 1 0 
1 20 0 0 0 0 1 
1 20 0 10 -0 1 0 
Polygon3D 0
PolygonOnTriangulations 0
Surfaces 9
1 0 0 0 1 0 -0 0 0 1 0 -1 0 
1 0 0 10 0 0 1 1 0 -0 -0 1 0 
4 0 0 0 0 0 1 1 0 -0 -0 1 0 15
1 0 0 0 0 0 1 1 0 -0 -0 1 0 
1 0 0 0 -0 1 0 0 0 1 1 0 -0 
2 0 0 0 0 0 1 1 0 -0 -0 1 0 20
1 0 0 0 0 0 1 1 0 -0 -0 1 0 
1 0 20 0 -0 1 0 0 0 1 1 0 -0 
1 20 0 0 1 0 -0 0 0 1 0 -1 0 
Triangulations 0

TShapes 83
Ve
1e-07
0 0 10
0 0

0101101
*
Ve
1.00000000684598e-07
0 11.1803398874989 10
0 0

0101101
*
Ed
 1e-07 1 1 0
1  1 0 0 11.1803398874989
2  1 1 0 0 11.1803398874989
2  2 2 0 0 11.1803398874989
0

0101000
+83 0 -82 0 *
Ve
1.50000000918485e-07
0 15 0
0 0

0101101
*
Ed
 1e-07 1 1 0
1  2 0 4.71238898038469 5.44211663661166
2  3 1 0 4.71238898038469 5.44211663661166
2  4 3 2 4.71238898038469 5.44211663661166
0

0101000
+80 0 -82 0 *
Ve
1e-07
0 0 0
0 0

0101101
*
Ed
 1e-07 1 1 0
1  3 0 0 15
2  5 1 0 0 15
2  6 4 0 0 15
0

0101000
+78 0 -80 0 *
Ed
 1e-07 1 1 0
1  4 0 0 10
2  7 1 0 0 10
2  8 5 0 0 10
0

0101000
-83 0 +78 0 *
Wi

0101100
-81 0 +79 0 +77 0 -76 0 *
Fa
0  1e-07 1 0

0111000
+75 0 *
Ve
6.23451735211971e-07
2.1541450038965 10.9708549966209 10.0000000004538
0 0

0101101
*
Ed
 1e-07 1 1 0
1  5 0 1.37691128618176 1.5707963267949
2  9 2 0 1.37691128618176 1.5707963267949
2  10 3 2 1.37691128618176 1.5707963267949
0

0101000
+73 0 -82 0 *
Ve
6.23452042022788e-07
10.97085499662 2.15414500389721 10.0000000004545
0 0

0101101
*
Ed
 1e-07 1 1 0
1  6 0 3.60999047170096 4.24399116227346
2  11 2 0 3.60999047170096 4.24399116227346
2  12 6 3 3.60999047170096 4.24399116227346
0

0101000
+73 0 -71 0 *
Ve
1.0000049776547e-07
11.1803398874985 -1.36919674566045e-15 10.0000000000002
0 0

0101101
*
Ed
 1e-07 1 1 0
1  5 0 0 0.193885040613214
2  9 2 0 0 0.193885040613214
2  10 3 2 0 0.193885040613214
0

0101000
+69 0 -71 0 *
Ed
 1e-07 1 1 0
1  7 0 0 11.1803398874985
2  13 5 0 0 11.1803398874985
2  14 2 0 0 11.1803398874985
0

0101000
+83 0 -69 0 *
Wi

0101100
-81 0 +72 0 -70 0 +68 0 +67 0 *
Fa
0  1e-07 2 0

0111000
+66 0 *
Ve
6.21118634011332e-07
0.638599822969375 14.9864001770306 0
0 0

0101101
*
Ed
 1.5e-07 1 1 0
1  8 0 1.52821013415927 1.5707963267949
2  15 4 0 1.52821013415927 1.5707963267949
2  16 3 2 1.52821013415927 1.5707963267949
0

0101000
+64 0 -80 0 *
Ed
 6.21117634011332e-07 1 1 0
1  9 0 0.666925035707199 0.999999981225797
2  17 6 3 0.666925035707199 0.999999981225797
2  18 3 2 0.666925035707199 0.999999981225797
0

0101000
+73 0 -64 0 *
Wi

0101100
-72 0 +79 0 +63 0 +62 0 *
Fa
0  1e-07 3 2

0111000
+61 0 *
Ve
6.21118634011332e-07
14.9864001770306 0.638599822969379 0
0 0

0101101
*
Ed
 1e-07 1 1 0
1  10 0 3.3949752643131 4.45900636966139
2  19 6 0 3.3949752643131 4.45900636966139
2  20 7 0 3.3949752643131 4.45900636966139
2  21 4 4 3.3949752643131 4.45900636966139
0

0101000
+64 4 -59 4 *
Ve
1.50001e-07
15 -1.83697019872103e-15 3.37891275336577e-13
0 0

0101101
*
Ed
 1.5e-07 1 1 0
1  8 0 0 0.0425861926356292
2  15 4 0 0 0.0425861926356292
2  16 3 2 0 0.0425861926356292
0

0101000
+57 0 -59 0 *
Ed
 1e-07 1 1 0
1  11 0 0 15
2  22 5 0 0 15
2  23 4 0 0 15
0

0101000
+78 0 -57 0 *
Wi

0101100
-77 0 +63 0 -58 3 +56 0 +55 0 *
Fa
0  1e-07 4 0

0111000
+54 0 *
Ed
 1.00000003667149e-07 1 1 0
1  12 0 6.28318530717961 7.01291296340658
3  24 25CN 3 0 6.28318530717961 7.01291296340658
2  26 5 5 6.28318530717961 7.01291296340658
0

0101000
+57 5 -69 5 *
Wi

0101100
-55 0 -52 2 +67 0 +76 0 *
Fa
0  1e-07 5 0

0111000
+51 0 *
Ed
 6.21117634011332e-07 1 1 0
1  9 0 1.87532963753363e-08 0.333065034299177
2  17 6 3 1.87532963753363e-08 0.333065034299177
2  18 3 2 1.87532963753363e-08 0.333065034299177
0

0101000
+59 0 -71 0 *
Wi

0101100
+62 0 -70 0 +49 0 +58 3 *
Fa
0  1e-07 6 3

0111000
+48 0 *
Wi

0101100
-68 0 +49 0 +56 0 -52 2 *
Fa
0  1e-07 3 2

0111000
+46 0 *
Sh

0101100
-74 0 +65 0 +60 0 -53 0 -50 0 -47 0 +45 0 *
So

0100000
+44 0 *
Ed
 1e-07 1 1 0
1  5 0 0.193885040613214 1.37691128618176
2  9 2 0 0.193885040613214 1.37691128618176
2  10 3 2 0.193885040613214 1.37691128618176
0

0101000
+71 0 -73 0 *
Wi

0101100
+42 0 +70 0 *
Fa
0  1e-07 2 0

0111000
+41 0 *
Ed
 1.50000000444089e-07 1 1 0
1  13 0 0.0425861926356292 1.52821013415927
2  27 7 3 0.0425861926356292 1.52821013415927
2  28 3 2 0.0425861926356292 1.52821013415927
2  29 4 0 0.0425861926356292 1.52821013415927
0

0101000
+59 0 -64 0 *
Wi

0101100
-42 0 -62 0 +39 0 -49 0 *
Fa
0  1e-07 3 2

0111000
+38 0 *
Wi

0101100
+39 0 +58 3 *
Fa
0  1e-07 4 0

0111000
+36 0 *
Sh

0101100
+40 0 +37 0 +47 0 -35 0 *
So

0100000
+34 0 *
Ve
1e-07
20 20 0
0 0

0101101
*
Ve
1.00000003552714e-07
0 20 0
0 0

0101101
*
Ed
 1e-07 1 1 0
1  14 0 0 20
2  30 8 0 0 20
2  31 4 0 0 20
2  32 7 3 0 20
0

0101000
-32 0 +31 0 *
Ve
1e-07
20 20 10
0 0

0101101
*
Ed
 1e-07 1 1 0
1  15 0 0 10
2  33 9 0 0 10
2  34 8 0 0 10
0

0101000
-29 0 +32 0 *
Ve
1.00000003552714e-07
0 20 10
0 0

0101101
*
Ed
 1e-07 1 1 0
1  16 0 0 20
2  35 8 0 0 20
2  36 2 0 0 20
0

0101000
-29 0 +27 0 *
Ed
 1.00000003552714e-07 1 1 0
1  17 0 0 10
2  37 1 0 0 10
2  38 8 0 0 10
2  39 6 3 0 10
0

0101000
-27 0 +31 0 *
Wi

0101100
-30 0 -28 0 +26 0 +25 0 *
Fa
0  1e-07 8 0

0111000
+24 0 *
Ve
1.00000011826751e-07
20 0 0
0 0

0101101
*
Ed
 1e-07 1 1 0
1  18 0 0 20
2  40 9 0 0 20
2  41 4 0 0 20
2  42 7 3 0 20
0

0101000
-32 0 +22 0 *
Ed
 1e-07 1 1 0
1  10 0 4.45900636966139 4.71238898038469
2  19 6 0 4.45900636966139 4.71238898038469
2  20 7 0 4.45900636966139 4.71238898038469
2  43 4 4 4.45900636966139 4.71238898038469
0

0101000
+59 4 -22 4 *
Ed
 1e-07 1 1 0
1  10 0 3.14159265358979 3.3949752643131
2  19 6 0 3.14159265358979 3.3949752643131
2  20 7 0 3.14159265358979 3.3949752643131
2  44 4 4 3.14159265358979 3.3949752643131
0

0101000
+31 4 -64 4 *
Wi

0101100
-30 0 +21 0 +20 3 -39 0 +19 3 *
Fa
0  1e-07 4 0

0111000
+18 0 *
Ve
1.00000003552714e-07
20 0 10
0 0

0101101
*
Ed
 1.00000003552714e-07 1 1 0
1  19 0 0 10
2  45 9 0 0 10
2  46 5 0 0 10
2  47 6 3 0 10
0

0101000
-16 0 +22 0 *
Ed
 1e-07 1 1 0
1  20 0 0 20
2  48 9 0 0 20
2  49 2 0 0 20
0

0101000
-29 0 +16 0 *
Wi

0101100
-15 0 -14 0 +28 0 +21 0 *
Fa
0  1e-07 9 0

0111000
+13 0 *
Ed
 1e-07 1 1 0
1  6 0 4.24399116227346 4.71238898038469
2  11 2 0 4.24399116227346 4.71238898038469
2  12 6 3 4.24399116227346 4.71238898038469
0

0101000
+71 0 -16 0 *
Ed
 1e-07 1 1 0
1  6 0 3.14159265358979 3.60999047170096
2  11 2 0 3.14159265358979 3.60999047170096
2  12 6 3 3.14159265358979 3.60999047170096
0

0101000
+27 0 -73 0 *
Wi

0101100
-26 0 +14 0 +11 0 -42 0 +10 0 *
Fa
0  1e-07 2 0

0111000
+9 0 *
Wi

0101100
-25 0 -10 0 -62 0 +19 3 *
Fa
0  1e-07 6 3

0111000
+7 0 *
Wi

0101100
+20 3 -49 0 -11 0 +15 0 *
Fa
0  1e-07 6 3

0111000
+5 0 *
Sh

0101100
+23 0 -17 0 +12 0 +8 0 +6 0 +4 0 -37 0 *
So

0100000
+3 0 *
Co

1100000
+43 0 +33 0 +2 0 *

+1 1  