
CASCADE Topology V1, (c) Matra-Datavision
Locations 9
1
              1               0               0             -10 
              0               1               0             -10 
              0               0               1               0 
1
              1               0               0              10 
              0               1               0              10 
              0               0               1               0 
1
              1               0               0              10 
              0               1               0              10 
              0               0               1              -0 
2  2 1 3 1 0
2  3 -1 2 -1 0
1
              1               0               0             -10 
              0               1               0             -10 
              0               0               1               0 
1
              1               0               0              10 
              0               1               0              10 
              0               0               1              -0 
2  6 1 7 1 0
2  7 -1 6 -1 0
Curve2ds 46
1 0 0 0 1 
1 0 20 1 0 
8 -3.9999999999999998e-007 11
1 0 10 1 0 
8 -3.9999999999999998e-007 11
1 3.1415926535897931 0 0 1 
1 10 0 0 1 
1 0 20 1 0 
1 0 -20 1 0 
1 0 0 1 0 
1 0 0 1 0 
2 0 0 1 0 -0 1 10
2 20 20 1 0 -0 1 10
1 0 0 0 -1 
1 20 0 0 1 
1 0 0 0 1 
1 0 0 1 0 
2 0 0 1 0 -0 1 15
1 0 0 1 0 
1 0 0 0 -1 
1 0 0 0 1 
1 6.2831853071795862 -0 0 1 
1 0 -0 0 1 
8 -3.9999999999999998e-007 11
1 0 -10 1 0 
8 -3.9999999999999998e-007 11
1 4.7123889803846897 0 0 1 
2 20 20 1 0 -0 1 10
1 0 10 1 0 
1 0 15 1 0 
2 0 0 1 0 -0 1 10
1 10 0 0 -1 
1 20 0 0 1 
1 10 0 0 1 
1 0 0 1 0 
2 0 0 1 0 -0 1 11.180339887498949
1 0 0.72972765622696634 1 0 
1 10 0 0 -1 
1 0 0 0 1 
2 0 0 1 0 -0 1 15
1 1.5707963267948966 -4.7123889803846897 -0 1 
1 -20 0 1 0 
1 0 -20 0 1 
1 0 0 1 0 
1 0 20 1 0 
1 6.2831853071795862 -6.2831853071795862 0 1 
1 0 -6.2831853071795862 0 1 
2 0 0 0 1 1 -0 15
1 0 -1.5707963267948966 1 0 
1 0 1.5707963267948966 1 0 
Curves 20
1 0 20 0 1 0 -0 
1 10 20 0 0 0 1 
1 0 20 10 1 0 -0 
1 0 20 0 0 0 1 
2 0 0 0 0 0 1 1 0 -0 -0 1 0 10
1 20 0 0 -0 1 0 
1 0 0 0 1 0 -0 
2 0 0 0 0 0 1 1 0 -0 -0 1 0 15
1 0 0 0 -0 1 0 
1 10 -2.4492935982947065e-015 0 0 0 1 
1 20 10 0 0 0 1 
2 20 20 10 0 0 1 1 0 -0 -0 1 0 10
2 0 0 15 0 0 1 1 0 -0 -0 1 0 10
1 20 0 10 0 1 0 
1 0 0 10 1 0 -0 
2 0 0 10 0 0 1 1 0 -0 -0 1 0 11.180339887498949
1 0 0 10 -0 1 0 
2 0 0 0 1 0 -0 0 0 1 0 -1 0 15
1 20 0 0 0 0 1 
2 0 0 0 -2.4492935982947064e-016 -1 0 1 -2.4492935982947064e-016 0 0 0 1 15
Polygon3D 0
PolygonOnTriangulations 0
Surfaces 10
1 0 20 0 -0 1 0 0 0 1 1 0 -0 
1 0 0 0 0 0 1 1 0 -0 -0 1 0 
2 0 0 0 0 0 1 1 0 -0 -0 1 0 10
1 0 0 10 0 0 1 1 0 -0 -0 1 0 
1 0 0 0 1 0 -0 0 0 1 0 -1 0 
1 0 0 0 0 0 1 1 0 -0 -0 1 0 
1 20 0 0 1 0 -0 0 0 1 0 -1 0 
1 0 0 0 -0 1 0 0 0 1 1 0 -0 
4 0 0 0 0 0 1 1 0 -0 -0 1 0 15
1 0 0 15 0 0 1 1 0 -0 -0 1 0 
Triangulations 0

TShapes 70
Ve
1e-007
0 20 0
0 0

0101101
*
Ve
1.00000170530257e-007
10 19.9999999999998 0
0 0

0101101
*
Ed
 1e-007 1 1 0
1  1 0 0 10
2  1 1 0 0 10
2  2 2 0 0 10
0

0101000
+70 0 -69 0 *
Ve
2.00001e-007
10 20 10
0 0

0101101
*
Ed
 1e-007 1 1 0
1  2 0 0 10
2  3 1 0 0 10
2  4 3 4 0 10
0

0101000
+69 0 -67 0 *
Ve
1e-007
0 20 10
0 0

0101101
*
Ed
 1e-007 1 1 0
1  3 0 0 10
2  5 1 0 0 10
2  6 4 0 0 10
0

0101000
+65 0 -67 0 *
Ed
 1e-007 1 1 0
1  4 0 0 10
2  7 5 0 0 10
2  8 1 0 0 10
0

0101000
-65 0 +70 0 *
Wi

0101100
-68 0 -66 0 +64 0 +63 0 *
Fa
0  1e-007 1 0

0111000
+62 0 *
Ve
1.00000166977543e-007
20.0000000000002 10 0
0 0

0101101
*
Ed
 1e-007 1 1 0
1  5 0 3.14159265358979 4.71238898038471
2  9 3 0 3.14159265358979 4.71238898038471
2  10 6 0 3.14159265358979 4.71238898038471
2  11 2 5 3.14159265358979 4.71238898038471
0

0101000
+69 5 -60 5 *
Ve
1e-007
20 0 0
0 0

0101101
*
Ed
 1e-007 1 1 0
1  6 0 0 10
2  12 7 0 0 10
2  13 2 0 0 10
0

0101000
+58 0 -60 0 *
Ve
1.00000164706728e-007
15 -1.83697019872103e-015 1.64696483495052e-013
0 0

0101101
*
Ed
 1e-007 1 1 0
1  7 0 15 20
2  14 8 0 15 20
2  15 2 0 15 20
0

0101000
+56 0 -58 0 *
Ve
2.00001e-007
0 15 0
0 0

0101101
*
Ed
 1e-007 1 1 0
1  8 0 0 1.5707963267949
2  16 2 0 0 1.5707963267949
2  17 9 8 0 1.5707963267949
0

0101000
+56 0 -54 0 *
Ed
 1e-007 1 1 0
1  9 0 15 20
2  18 5 0 15 20
2  19 2 0 15 20
0

0101000
+54 0 -70 0 *
Wi

0101100
-68 0 -59 4 +57 0 +55 0 -53 0 -52 0 *
Fa
0  1e-007 2 0

0111000
+51 0 *
Ve
1e-007
10 -2.44929359829471e-015 15
0 0

0101101
*
Ve
1e-007
10 -2.44929359829471e-015 0
0 0

0101101
*
Ed
 1e-007 1 1 0
1  10 0 0 15
3  20 21CN 3 0 0 15
0

0101000
-49 0 +48 0 *
Ed
 1e-007 1 1 0
1  5 0 4.71238898038471 6.28318530717959
2  9 3 0 4.71238898038471 6.28318530717959
2  10 6 0 4.71238898038471 6.28318530717959
0

0101000
+60 5 -48 0 *
Ve
2.00001e-007
20 10 10
0 0

0101101
*
Ed
 1e-007 1 1 0
1  11 0 0 10
2  22 7 0 0 10
2  23 3 4 0 10
0

0101000
+60 0 -45 0 *
Ed
 1e-007 1 1 0
1  12 0 3.14159265358979 4.71238898038469
2  24 4 0 3.14159265358979 4.71238898038469
2  25 3 4 3.14159265358979 4.71238898038469
0

0101000
+67 0 -45 0 *
Ed
 1e-007 1 1 0
1  5 0 0 3.14159265358979
2  9 3 0 0 3.14159265358979
2  10 6 0 0 3.14159265358979
0

0101000
+48 0 -69 5 *
Ed
 1e-007 1 1 0
1  13 0 0 6.28318530717959
2  26 3 0 0 6.28318530717959
2  27 10 0 0 6.28318530717959
0

0101000
+49 0 -49 0 *
Wi

0101100
+47 4 +46 4 -44 0 +43 0 +66 0 +42 4 -47 4 -41 4 *
Fa
0  1e-007 3 4

0111000
+40 0 *
Ve
1e-007
20 0 10
0 0

0101101
*
Ed
 1e-007 1 1 0
1  14 0 0 10
2  28 7 0 0 10
2  29 4 0 0 10
0

0101000
+38 0 -45 0 *
Ve
1.00000083499998e-007
11.1803398874988 -1.36919674566049e-015 10.0000000000001
0 0

0101101
*
Ed
 1e-007 1 1 0
1  15 0 11.1803398874988 20
2  30 8 0 11.1803398874988 20
2  31 4 0 11.1803398874988 20
0

0101000
+36 0 -38 0 *
Ve
2.00001e-007
0 11.1803398874989 10
0 0

0101101
*
Ed
 1e-007 1 1 0
1  16 0 0 1.5707963267949
2  32 4 0 0 1.5707963267949
2  33 9 8 0 1.5707963267949
0

0101000
+36 0 -34 0 *
Ed
 1e-007 1 1 0
1  17 0 11.1803398874989 20
2  34 5 0 11.1803398874989 20
2  35 4 0 11.1803398874989 20
0

0101000
+34 0 -65 0 *
Wi

0101100
-64 0 -43 0 +37 0 +35 0 -33 0 -32 0 *
Fa
0  1e-007 4 0

0111000
+31 0 *
Ed
 1e-007 1 1 0
1  18 0 4.71238898038469 5.44211663661166
2  36 5 0 4.71238898038469 5.44211663661166
2  37 9 8 4.71238898038469 5.44211663661166
0

0101000
+54 0 -34 0 *
Wi

0101100
-32 0 +63 0 +52 0 -29 0 *
Fa
0  1e-007 5 0

0111000
+28 0 *
Ve
1e-007
20 20 0
0 0

0101101
*
Ed
 1e-007 1 1 0
1  1 0 10 20
2  1 1 0 10 20
2  2 2 0 10 20
2  38 6 4 10 20
0

0101000
+69 0 -26 0 *
Ed
 1e-007 1 1 0
1  6 0 10 20
2  12 7 0 10 20
2  13 2 0 10 20
2  39 6 4 10 20
0

0101000
+60 0 -26 0 *
Wi

0101100
-25 0 +24 0 +59 4 *
Fa
0  1e-007 2 0

0111000
+23 0 *
Ed
 1e-007 1 1 0
1  19 0 0 10
2  40 7 0 0 10
2  41 8 0 0 10
0

0101000
-38 0 +58 0 *
Wi

0101100
-37 0 +44 0 +57 0 -21 0 *
Fa
0  1e-007 7 0

0111000
+20 0 *
Ed
 1.00000003667149e-007 1 1 0
1  20 0 6.2831853071796 7.01291296340656
3  42 43CN 9 0 6.2831853071796 7.01291296340656
2  44 8 9 6.2831853071796 7.01291296340656
0

0101000
+56 9 -36 9 *
Wi

0101100
-55 0 -21 0 +35 0 +18 8 *
Fa
0  1e-007 8 0

0111000
+17 0 *
Ve
1e-007
9.18485099360515e-016 -2.24963967399279e-031 15
0 0

0101101
*
Ed
 1e-007 1 1 0
1  20 0 7.01291296340656 7.85398163397448
3  42 43CN 9 0 7.01291296340656 7.85398163397448
0

0101000
+36 9 -15 0 *
Ve
1e-007
9.18485099360515e-016 -2.24963967399279e-031 -15
0 0

0101101
*
Ed
 1e-007 1 1 0
1  20 0 4.71238898038469 6.2831853071796
3  42 43CN 9 0 4.71238898038469 6.2831853071796
0

0101000
+13 0 -56 9 *
Ed
 1e-007 1 1 1
2  45 9 0 0 6.28318530717959
0

0101000
+13 0 -13 0 *
Ed
 1e-007 1 1 1
2  46 9 0 0 6.28318530717959
0

0101000
+15 0 -15 0 *
Wi

0101100
+14 8 +18 8 +12 8 +11 8 -12 8 -53 0 -29 0 +33 0 -14 8 -10 8 
*
Fa
0  1e-007 9 8

0111000
+9 0 *
Wi

0101100
+46 4 -24 0 +25 0 +42 4 *
Fa
0  1e-007 6 4

0111000
+7 0 *
Wi

0101100
+41 0 *
Fa
0  1e-007 10 0

0111000
+5 0 *
Sh

0101100
+61 0 -50 0 +39 0 +30 0 -27 0 -22 0 +19 0 -16 0 +8 0 -6 0 
+4 4 *
So

0100000
+3 0 *
Co

1100000
+2 0 *

+1 1  