
CASCADE Topology V1, (c) Matra-Datavision
Locations 9
1
              1               0               0               0 
              0               1               0               0 
              0               0               1               0 
1
0.707106781186548               0 -0.707106781186548 3.98959235991435 
              0               1               0               0 
0.707106781186548               0 0.707106781186548 -6.6317279836453 
2  2 -1 0
1
0.707106781186548               0 -0.707106781186548 3.98959235991435 
              0               1               0               0 
0.707106781186548               0 0.707106781186548 -6.6317279836453 
2  4 1 2 -1 0
2  4 -1 0
1
              1               0               0               5 
              0               1               0               0 
              0               0               1               0 
2  7 1 4 1 0
2  7 -1 0
Curve2ds 41
1 0 0 1 0 
1 0 0 1 0 
1 1 0 0 -1 
1 0 0 0 1 
1 0 -10 1 0 
1 0 0 1 0 
1 0 0 0 -1 
1 0 0 0 1 
1 0 0 0 1 
1 0 0 1 0 
1 0 0 1 0 
1 0 10 1 0 
1 1 0 0 1 
1 0 0 1 0 
1 1 0 0 1 
1 0 10 1 0 
1 1 0 0 -1 
1 10 0 0 1 
1 0 0 0 1 
1 0 10 1 0 
1 0 -10 1 0 
1 0 10 1 0 
1 0 0 0 -1 
1 10 0 0 1 
8 5 8
1 0 -5 0 1 
1 0 0 0 1 
1 0.78539816339744828 0 0 1 
2 0 0 -1 0 0 1 1.5
1 0 0 1 0 
1 0 3 1 0 
2 0 0 1 0 -0 1 1.5
1 0 0 0 1 
1 0.78539816339744828 0 0 1 
1 0 3 1 0 
2 0 0 -1 0 0 1 1
1 -1 0 -1 0 
1 -0.70710678118654702 0.70710678118654613 -0.70710678118654757 0.70710678118654757 
1 0 0 1 0 
2 0 0 1 0 -0 1 1
1 1.5 0 -1 0 
1 1.060660171779821 1.060660171779821 -0.70710678118654757 -0.70710678118654757 
Curves 30
1 0 0 0 0 0 1 
1 0 0 1 -0 1 0 
1 0 10 0 0 0 1 
1 0 0 0 -0 1 0 
1 0 0 0 1 0 -0 
1 10 0 0 0 0 1 
1 0 0 1 1 0 -0 
1 0 10 1 1 0 -0 
1 10 0 1 -0 1 0 
1 0 10 0 1 0 -0 
1 10 10 0 0 0 1 
1 10 0 0 -0 1 0 
1 10 5 1 0 0 -1 
1 10 8 1 0 0 -1 
1 10 8 0.5 0 -1 0 
2 10 5 1.5 -0 -1 -0 0 0 -1 1 -0 0 1.5
2 10 8 1.5 -0 -1 -0 0 0 -1 1 -0 0 1.5
1 10 5 0 0 1 0 
2 10 5 1.5 -0 -1 -0 0 0 -1 1 -0 0 1
1 10 5 0.5 0 0 -1 
2 10 8 1.5 -0 -1 -0 0 0 -1 1 -0 0 1
1 10 8 0 0 0 1 
1 10 5 0 1 0 0 
1 10 8 0 1 0 0 
1 10 5 0 0 1 0 
1 10 5 1 1 0 0 
1 10 5 1 0 0 -1 
1 10 8 0 0 0 1 
1 10 8 1 0 -1 0 
1 10 8 1 1 0 0 
Polygon3D 0
PolygonOnTriangulations 0
Surfaces 15
1 0 0 0 1 0 -0 0 0 1 0 -1 0 
1 0 0 0 -0 1 0 0 0 1 1 0 -0 
1 0 0 1 0 0 1 1 0 -0 -0 1 0 
1 0 10 0 -0 1 0 0 0 1 1 0 -0 
1 0 0 0 0 0 1 1 0 -0 -0 1 0 
1 10 0 0 1 0 -0 0 0 1 0 -1 0 
2 10 5 1.5 0 1 0 0 0 -1 1 -0 -0 1.5
1 10 5 1.5 -0 -1 -0 -0 -0 1 1 -0 0 
2 10 8 1.5 -0 -1 -0 0 0 -1 1 -0 0 1
1 10 8 1.5 -0 -1 -0 0 0 -1 1 -0 0 
1 10 5 0 0 0 1 0 1 0 -1 0 0 
1 10 5 1 -0 1 0 0 0 -1 -1 0 -0 
1 10 6.5 0.5 1 0 0 -0 0 1 0 -1 0 
1 10 8 0 0 -1 0 0 0 1 -1 0 0 
1 10 8 1 0 0 -1 0 -1 0 -1 -0 -0 
Triangulations 0

TShapes 100
Ve
1e-07
0 0 1
0 0

0101101
*
Ve
1e-07
0 0 0
0 0

0101101
*
Ed
 1e-07 1 1 0
1  1 0 0 1
2  1 1 0 0 1
2  2 2 0 0 1
4 C0 1 0 2 0
0

0101000
-100 0 +99 0 *
Ve
1e-07
0 10 1
0 0

0101101
*
Ed
 1e-07 1 1 0
1  2 0 0 10
2  3 1 0 0 10
2  4 3 0 0 10
4 C0 1 0 3 0
0

0101000
-97 0 +100 0 *
Ve
1e-07
0 10 0
0 0

0101101
*
Ed
 1e-07 1 1 0
1  3 0 0 1
2  5 1 0 0 1
2  6 4 0 0 1
4 C0 1 0 4 0
0

0101000
-97 0 +95 0 *
Ed
 1e-07 1 1 0
1  4 0 0 10
2  7 1 0 0 10
2  8 5 0 0 10
4 C0 1 0 5 0
0

0101000
-95 0 +99 0 *
Wi

0101100
-98 0 -96 0 +94 0 +93 0 *
Fa
0  1e-07 1 0

0111000
+92 0 *
Ve
1e-07
10 0 0
0 0

0101101
*
Ed
 1e-07 1 1 0
1  5 0 0 10
2  9 2 0 0 10
2  10 5 0 0 10
4 C0 2 0 5 0
0

0101000
-90 0 +99 0 *
Ve
1e-07
10 0 1
0 0

0101101
*
Ed
 1e-07 1 1 0
1  6 0 0 1
2  11 6 0 0 1
2  12 2 0 0 1
4 C0 2 0 6 0
0

0101000
-88 0 +90 0 *
Ed
 1e-07 1 1 0
1  7 0 0 10
2  13 2 0 0 10
2  14 3 0 0 10
4 C0 2 0 3 0
0

0101000
-88 0 +100 0 *
Wi

0101100
-89 0 -87 0 +86 0 +98 0 *
Fa
0  1e-07 2 0

0111000
+85 0 *
Ve
1e-07
10 10 1
0 0

0101101
*
Ed
 1e-07 1 1 0
1  8 0 0 10
2  15 4 0 0 10
2  16 3 0 0 10
4 C0 3 0 4 0
0

0101000
-83 0 +97 0 *
Ve
1e-07
10 5 1
0 0

0101101
*
Ed
 1e-07 1 1 0
1  9 0 0 5
2  17 6 0 0 5
2  18 3 0 0 5
4 C0 3 0 6 0
0

0101000
+88 0 -81 0 *
Ve
1e-07
10 8 1
0 0

0101101
*
Ed
 1e-07 1 1 0
1  9 0 5 8
2  17 6 0 5 8
2  18 3 0 5 8
4 C0 3 0 6 0
0

0101000
+81 0 -79 0 *
Ed
 1e-07 1 1 0
1  9 0 8 10
2  17 6 0 8 10
2  18 3 0 8 10
4 C0 3 0 6 0
0

0101000
+79 0 -83 0 *
Wi

0101100
-96 0 -82 0 +80 0 +78 0 +77 0 +86 0 *
Fa
0  1e-07 3 0

0101000
+76 0 *
Ve
1e-07
10 10 0
0 0

0101101
*
Ed
 1e-07 1 1 0
1  10 0 0 10
2  19 4 0 0 10
2  20 5 0 0 10
4 C0 4 0 5 0
0

0101000
-74 0 +95 0 *
Ed
 1e-07 1 1 0
1  11 0 0 1
2  21 6 0 0 1
2  22 4 0 0 1
4 C0 4 0 6 0
0

0101000
-83 0 +74 0 *
Wi

0101100
-73 0 -72 0 +82 0 +94 0 *
Fa
0  1e-07 4 0

0111000
+71 0 *
Ve
1e-07
10 5 0
0 0

0101101
*
Ed
 1e-07 1 1 0
1  12 0 0 5
2  23 6 0 0 5
2  24 5 0 0 5
4 C0 5 0 6 0
0

0101000
+90 0 -69 0 *
Ve
1e-07
10 8 0
0 0

0101101
*
Ed
 1e-07 1 1 0
1  12 0 5 8
2  23 6 0 5 8
2  24 5 0 5 8
2  25 7 0 5 8
4 G1 5 0 7 0
0

0101000
+69 0 -67 0 *
Ed
 1e-07 1 1 0
1  12 0 8 10
2  23 6 0 8 10
2  24 5 0 8 10
4 C0 5 0 6 0
0

0101000
+67 0 -74 0 *
Wi

0101100
-93 0 -73 0 +68 0 +66 0 +65 0 +89 0 *
Fa
0  1e-07 5 0

0101000
+64 0 *
Ve
1e-07
10 5 0.5
0 0

0101101
*
Ed
 1e-07 1 1 0
1  13 0 0 0.5
4 CN 6 0 6 0
0

0101000
+81 0 -62 0 *
Ed
 1e-07 1 1 0
1  13 0 0.5 1
4 CN 6 0 6 0
4 C0 6 0 8 0
0

0101000
+62 0 -69 0 *
Wi

0101100
-87 0 -80 0 +68 0 -61 0 -60 0 *
Fa
0  1e-07 6 0

0101000
+59 0 *
Ve
1e-07
10 8 0.5
0 0

0101101
*
Ed
 1e-07 1 1 0
1  14 0 0 0.5
4 CN 6 0 6 0
0

0101000
+79 0 -57 0 *
Ed
 1e-07 1 1 0
1  15 0 0 3
2  26 9 0 0 3
2  27 9 3 0 3
4 C0 6 0 9 0
0

0101000
+57 0 -62 0 *
Wi

0101100
+61 0 -78 0 -56 0 -55 0 *
Fa
0  1e-07 6 0

0101000
+54 0 *
Ed
 1e-07 1 1 0
1  14 0 0.5 1
4 CN 6 0 6 0
4 C0 6 0 10 0
0

0101000
+57 0 -67 0 *
Wi

0101100
+65 0 +72 0 -77 0 +56 0 +52 0 *
Fa
0  1e-07 6 0

0101000
+51 0 *
Ve
1.00000000666134e-07
11.0606601717798 5 0.439339828220179
0 0

0101101
*
Ed
 1e-07 1 1 0
1  16 0 0 0.785398163397448
2  28 8 0 0 0.785398163397448
2  29 7 0 0 0.785398163397448
4 C0 7 0 8 0
0

0101000
+69 0 -49 0 *
Ve
1.00000000444089e-07
11.0606601717798 8 0.439339828220179
0 0

0101101
*
Ed
 1e-07 1 1 0
1  17 0 0 0.785398163397448
2  30 7 0 0 0.785398163397448
2  31 10 0 0 0.785398163397448
4 C0 7 0 10 0
0

0101000
+67 0 -47 0 *
Ed
 1e-07 1 1 0
1  18 0 0 3
2  32 7 0 0 3
2  33 7 3 0 3
4 G1 7 3 11 5
0

0101000
+49 3 -47 3 *
Wi

0101100
+48 0 -46 0 -66 0 +45 2 *
Fa
0  1e-07 7 0

0101000
+44 0 *
Ve
1.00000000666134e-07
10.7071067811865 5 0.792893218813453
0 0

0101101
*
Ed
 1e-07 1 1 0
1  19 0 0 0.785398163397448
2  34 9 0 0 0.785398163397448
2  35 8 0 0 0.785398163397448
4 C0 8 0 9 0
0

0101000
+62 0 -42 0 *
Ed
 1.00000000666134e-07 1 1 0
1  20 0 0 0.5
2  36 8 0 0 0.5
2  37 8 3 0 0.5
4 C1 8 3 12 5
0

0101000
+42 3 -49 3 *
Wi

0101100
+41 0 -48 0 -60 0 +40 2 *
Fa
0  1e-07 8 0

0101000
+39 0 *
Ve
1.00000000444089e-07
10.7071067811865 8 0.792893218813453
0 0

0101101
*
Ed
 1e-07 1 1 0
1  21 0 0 0.785398163397448
2  38 9 0 0 0.785398163397448
2  39 10 0 0 0.785398163397448
4 C0 9 0 10 0
0

0101000
+57 0 -37 0 *
Ed
 1e-07 1 1 0
1  15 0 0 3
2  26 9 0 0 3
2  27 9 3 0 3
4 C0 9 3 13 5
0

0101000
+37 3 -42 3 *
Wi

0101100
+36 0 -41 0 -55 0 +35 2 *
Fa
0  1e-07 9 0

0101000
+34 0 *
Ed
 1.00000000444089e-07 1 1 0
1  22 0 0 0.5
2  40 10 0 0 0.5
2  41 10 3 0 0.5
4 C1 10 3 14 5
0

0101000
+47 3 -37 3 *
Wi

0101100
+46 0 -36 0 +52 0 +32 2 *
Fa
0  1e-07 10 0

0101000
+31 0 *
Ve
1e-07
10 5 0
0 0

0101101
*
Ed
 1e-07 1 1 0
1  23 0 0 5
4 C0 11 0 12 0
0

0101000
+49 6 -29 7 *
Ve
1e-07
10 8 0
0 0

0101101
*
Ed
 1e-07 1 1 0
1  24 0 0 5
4 C0 11 0 14 0
0

0101000
+47 6 -27 7 *
Ed
 1e-07 1 1 0
1  25 0 0 3
4 C0 11 9 13 0
0

0101000
+29 0 -27 0 *
Wi

0101100
+28 4 -26 4 -45 2 +25 8 *
Fa
0  1e-07 11 4

0101000
+24 0 *
Ve
1e-07
10 5 1
0 0

0101101
*
Ed
 1e-07 1 1 0
1  26 0 0 5
4 C0 12 0 15 0
0

0101000
+22 0 -22 7 *
Ed
 1e-07 1 1 0
1  27 0 0 0.5
4 C0 12 0 13 0
0

0101000
+22 0 -42 6 *
Ed
 1e-07 1 1 0
1  27 0 0 1
4 C0 12 9 13 0
0

0101000
+22 0 -29 0 *
Wi

0101100
+21 4 -28 4 -20 4 -40 2 +19 8 *
Fa
0  1e-07 12 4

0101000
+18 0 *
Ve
1e-07
10 8 1
0 0

0101101
*
Ed
 1e-07 1 1 0
1  28 0 0.500000000000001 1
4 C0 13 0 14 0
0

0101000
+37 6 -16 0 *
Ed
 1e-07 1 1 0
1  29 0 0 3
4 C0 13 0 15 0
4 C0 13 0 15 9
0

0101000
+16 0 -22 0 *
Wi

0101100
+15 4 -35 2 +20 4 +14 4 *
Fa
0  1e-07 13 4

0101000
+13 0 *
Ed
 1e-07 1 1 0
1  30 0 0 5
4 C0 14 0 15 0
0

0101000
+16 0 -16 7 *
Ed
 1e-07 1 1 0
1  28 0 0 1
4 C0 14 9 13 0
0

0101000
+27 0 -16 0 *
Wi

0101100
+26 4 -11 4 -32 2 -15 4 +10 8 *
Fa
0  1e-07 14 4

0101000
+9 0 *
Wi

0101100
+14 0 +19 0 +25 0 +10 0 *
Fa
0  1e-07 13 0

0101000
+7 0 *
Wi

0101100
+11 0 -21 0 -14 0 +14 7 *
Fa
0  1e-07 15 0

0101000
+5 0 *
Sh

0101100
-91 0 -84 0 +75 0 +70 0 -63 0 +58 0 +53 0 +50 0 -43 0 -38 0 
-33 0 -30 0 -23 0 -17 0 -12 0 -8 0 +6 8 -4 4 *
So

0100000
+3 0 *
Co

1100000
+2 0 *

+1 1  