
CASCADE Topology V1, (c) Matra-Datavision
Locations 10
1
              1               0               0               0 
              0               1               0               0 
              0               0               1               0 
1
0.707106781186548               0 -0.707106781186548 3.98959235991435 
              0               1               0               0 
0.707106781186548               0 0.707106781186548 -6.6317279836453 
2  2 -1 0
1
0.707106781186548               0 -0.707106781186548 3.98959235991435 
              0               1               0               0 
0.707106781186548               0 0.707106781186548 -6.6317279836453 
2  4 1 2 -1 0
2  4 -1 0
1
              1               0               0               5 
              0               1               0               0 
              0               0               1               0 
2  7 1 4 1 0
2  7 -1 0
2  2 1 4 -1 0
Curve2ds 68
1 0 0 1 0 
1 0 0 1 0 
1 1 0 0 -1 
1 0 0 0 1 
1 0 -10 1 0 
1 0 0 1 0 
1 0 0 0 -1 
1 0 0 0 1 
1 0 0 0 1 
1 0 0 1 0 
1 0 0 1 0 
1 0 10 1 0 
1 1 0 0 1 
1 0 0 1 0 
1 1 0 0 1 
1 0 10 1 0 
1 1 0 0 -1 
1 10 0 0 1 
1 0 0 0 1 
1 0 10 1 0 
1 0 -10 1 0 
1 0 10 1 0 
1 0 0 0 -1 
1 10 0 0 1 
8 5 8
1 0 -5 0 1 
1 1 -5 -1 0 
1 1 -8 -1 0 
1 0 0 0 1 
1 0.78539816339744828 0 0 1 
1 0.25 -1.5 0 1 
1 0.5 -8 0 1 
1 1.1102230246251565e-16 -1.5 0 1 
2 0 0 -1 0 0 1 1.5
1 0 0 1 0 
1 0 3 1 0 
2 0 0 1 0 -0 1 1.5
1 0 0 0 1 
1 0.78539816339744828 0 0 1 
1 -0.25 1.5 0 -1 
1 -0.5 1.5 0 -1 
1 0 3 1 0 
2 0 0 -1 0 0 1 1
1 -1 0 -1 0 
1 -0.70710678118654702 0.70710678118654613 -0.70710678118654757 0.70710678118654757 
1 0.25 1.5 -1 0 
1 1.1102230246251565e-16 1.5 -1 0 
1 0 0 1 0 
2 0 0 1 0 -0 1 1
1 1.5 0 -1 0 
1 1.060660171779821 1.060660171779821 -0.70710678118654757 -0.70710678118654757 
1 -0.25 -1.5 1 0 
1 -0.5 -1.5 1 0 
1 1 0 0 -1 
1 0 0 0 -1 
1 0 0 0 -1 
1 3 0 0 -1 
1 -0.5 1.5 0 -1 
1 0 0 1 0 
1 0 -5 1 0 
1 0 0 0 -1 
1 0.5 1.5 -1 0 
1 0 0 1 0 
1 0 -5 1 0 
1 0 0 1 0 
1 0 -5 1 0 
1 -0.5 -1.5 1 0 
1 0.5 -1.5 0 1 
1 1 0 0 -1 
Curves 30
1 0 0 0 0 0 1 
1 0 0 1 -0 1 0 
1 0 10 0 0 0 1 
1 0 0 0 -0 1 0 
1 0 0 0 1 0 -0 
1 10 0 0 0 0 1 
1 0 0 1 1 0 -0 
1 0 10 1 1 0 -0 
1 10 0 1 -0 1 0 
1 0 10 0 1 0 -0 
1 10 10 0 0 0 1 
1 10 0 0 -0 1 0 
1 10 5 1 0 0 -1 
1 10 8 1 0 0 -1 
1 10 8 0.5 0 -1 0 
2 10 5 1.5 -0 -1 -0 0 0 -1 1 -0 0 1.5
2 10 8 1.5 -0 -1 -0 0 0 -1 1 -0 0 1.5
1 10 5 0 0 1 0 
2 10 5 1.5 -0 -1 -0 0 0 -1 1 -0 0 1
1 10 5 0.5 0 0 -1 
2 10 8 1.5 -0 -1 -0 0 0 -1 1 -0 0 1
1 10 8 0 0 0 1 
1 10 5 0 1 0 0 
1 10 8 0 1 0 0 
1 10 5 0 0 1 0 
1 10 5 1 1 0 0 
1 10 5 1 0 0 -1 
1 10 8 0 0 0 1 
1 10 8 1 0 -1 0 
1 10 8 1 1 0 0 
Polygon3D 0
PolygonOnTriangulations 0
Surfaces 16
1 0 0 0 1 0 -0 0 0 1 0 -1 0 
1 0 0 0 -0 1 0 0 0 1 1 0 -0 
1 0 0 1 0 0 1 1 0 -0 -0 1 0 
1 0 10 0 -0 1 0 0 0 1 1 0 -0 
1 0 0 0 0 0 1 1 0 -0 -0 1 0 
1 10 0 0 1 0 -0 0 0 1 0 -1 0 
2 10 5 1.5 0 1 0 0 0 -1 1 -0 -0 1.5
2 10 8 1.5 -0 -1 -0 0 0 -1 1 -0 0 1
1 10 6.5 0.25 1 0 0 -0 0 1 0 -1 0 
1 10 6.5 0.5 1 0 0 -0 0 1 0 -1 0 
1 10 5 1.5 -0 -1 -0 -0 -0 1 1 -0 0 
1 10 8 1.5 -0 -1 -0 0 0 -1 1 -0 0 
1 10 5 0 0 0 1 0 1 0 -1 0 0 
1 10 5 1 -0 1 0 0 0 -1 -1 0 -0 
1 10 8 0 0 -1 0 0 0 1 -1 0 0 
1 10 8 1 0 0 -1 0 -1 0 -1 -0 -0 
Triangulations 0

TShapes 97
Ve
1e-07
0 0 1
0 0

0101101
*
Ve
1e-07
0 0 0
0 0

0101101
*
Ed
 1e-07 1 1 0
1  1 0 0 1
2  1 1 0 0 1
2  2 2 0 0 1
0

0101000
-97 0 +96 0 *
Ve
1e-07
0 10 1
0 0

0101101
*
Ed
 1e-07 1 1 0
1  2 0 0 10
2  3 1 0 0 10
2  4 3 0 0 10
0

0101000
-94 0 +97 0 *
Ve
1e-07
0 10 0
0 0

0101101
*
Ed
 1e-07 1 1 0
1  3 0 0 1
2  5 1 0 0 1
2  6 4 0 0 1
0

0101000
-94 0 +92 0 *
Ed
 1e-07 1 1 0
1  4 0 0 10
2  7 1 0 0 10
2  8 5 0 0 10
0

0101000
-92 0 +96 0 *
Wi

0101100
-95 0 -93 0 +91 0 +90 0 *
Fa
0  1e-07 1 0

0111000
+89 0 *
Ve
1e-07
10 0 0
0 0

0101101
*
Ed
 1e-07 1 1 0
1  5 0 0 10
2  9 2 0 0 10
2  10 5 0 0 10
0

0101000
-87 0 +96 0 *
Ve
1e-07
10 0 1
0 0

0101101
*
Ed
 1e-07 1 1 0
1  6 0 0 1
2  11 6 0 0 1
2  12 2 0 0 1
0

0101000
-85 0 +87 0 *
Ed
 1e-07 1 1 0
1  7 0 0 10
2  13 2 0 0 10
2  14 3 0 0 10
0

0101000
-85 0 +97 0 *
Wi

0101100
-86 0 -84 0 +83 0 +95 0 *
Fa
0  1e-07 2 0

0111000
+82 0 *
Ve
1e-07
10 10 1
0 0

0101101
*
Ed
 1e-07 1 1 0
1  8 0 0 10
2  15 4 0 0 10
2  16 3 0 0 10
0

0101000
-80 0 +94 0 *
Ve
1e-07
10 5 1
0 0

0101101
*
Ed
 1e-07 1 1 0
1  9 0 0 5
2  17 6 0 0 5
2  18 3 0 0 5
0

0101000
+85 0 -78 0 *
Ve
1e-07
10 8 1
0 0

0101101
*
Ed
 1e-07 1 1 0
1  9 0 5 8
2  17 6 0 5 8
2  18 3 0 5 8
0

0101000
+78 0 -76 0 *
Ed
 1e-07 1 1 0
1  9 0 8 10
2  17 6 0 8 10
2  18 3 0 8 10
0

0101000
+76 0 -80 0 *
Wi

0101100
-93 0 -79 0 +77 0 +75 0 +74 0 +83 0 *
Fa
0  1e-07 3 0

0101000
+73 0 *
Ve
1e-07
10 10 0
0 0

0101101
*
Ed
 1e-07 1 1 0
1  10 0 0 10
2  19 4 0 0 10
2  20 5 0 0 10
0

0101000
-71 0 +92 0 *
Ed
 1e-07 1 1 0
1  11 0 0 1
2  21 6 0 0 1
2  22 4 0 0 1
0

0101000
-80 0 +71 0 *
Wi

0101100
-70 0 -69 0 +79 0 +91 0 *
Fa
0  1e-07 4 0

0111000
+68 0 *
Ve
1e-07
10 5 0
0 0

0101101
*
Ed
 1e-07 1 1 0
1  12 0 0 5
2  23 6 0 0 5
2  24 5 0 0 5
0

0101000
+87 0 -66 0 *
Ve
1e-07
10 8 0
0 0

0101101
*
Ed
 1e-07 1 1 0
1  12 0 5 8
2  23 6 0 5 8
2  24 5 0 5 8
2  25 7 0 5 8
0

0101000
+66 0 -64 0 *
Ed
 1e-07 1 1 0
1  12 0 8 10
2  23 6 0 8 10
2  24 5 0 8 10
0

0101000
+64 0 -71 0 *
Wi

0101100
-90 0 -70 0 +65 0 +63 0 +62 0 +86 0 *
Fa
0  1e-07 5 0

0101000
+61 0 *
Ve
1.00000000666134e-07
10 5 0.5
0 0

0101101
*
Ed
 1e-07 1 1 0
1  13 0 0 0.5
4 CN 6 0 6 0
2  26 6 0 0 0.5
0

0101000
+78 0 -59 0 *
Ed
 1e-07 1 1 0
1  13 0 0.5 1
4 CN 6 0 6 0
2  26 6 0 0.5 1
0

0101000
+59 0 -66 0 *
Wi

0101100
-84 0 -77 0 +65 0 -58 0 -57 0 *
Fa
0  1e-07 6 0

0111000
+56 0 *
Ve
1.00000000444089e-07
10 8 0.5
0 0

0101101
*
Ed
 1e-07 1 1 0
1  14 0 0 0.5
4 CN 6 0 6 0
2  27 6 0 0 0.5
0

0101000
+76 0 -54 0 *
Ed
 1e-07 1 1 0
1  15 0 0 3
2  28 8 0 0 3
2  29 8 3 0 3
2  30 9 0 0 3
2  31 6 0 0 3
2  32 10 5 0 3
0

0101000
+54 0 -59 0 *
Wi

0101100
+58 0 -75 0 -53 0 -52 0 *
Fa
0  1e-07 6 0

0111000
+51 0 *
Ed
 1e-07 1 1 0
1  14 0 0.5 1
4 CN 6 0 6 0
2  27 6 0 0.5 1
0

0101000
+54 0 -64 0 *
Wi

0101100
+62 0 +69 0 -74 0 +53 0 +49 0 *
Fa
0  1e-07 6 0

0101000
+48 0 *
Ve
1.00000000666134e-07
11.0606601717798 5 0.439339828220179
0 0

0101101
*
Ed
 1e-07 1 1 0
1  16 0 0 0.785398163397448
2  33 11 0 0 0.785398163397448
2  34 7 0 0 0.785398163397448
0

0101000
+66 0 -46 0 *
Ve
1.00000000444089e-07
11.0606601717798 8 0.439339828220179
0 0

0101101
*
Ed
 1e-07 1 1 0
1  17 0 0 0.785398163397448
2  35 7 0 0 0.785398163397448
2  36 12 0 0 0.785398163397448
0

0101000
+64 0 -44 0 *
Ed
 1e-07 1 1 0
1  18 0 0 3
2  37 7 0 0 3
2  38 7 3 0 3
2  39 9 0 0 3
2  40 10 5 0 3
0

0101000
+46 3 -44 3 *
Wi

0101100
+45 0 -43 0 -63 0 +42 2 *
Fa
0  1e-07 7 0

0101000
+41 0 *
Ed
 1e-07 1 1 0
1  19 0 0 0.785398163397448
2  41 8 0 0 0.785398163397448
2  42 11 0 0 0.785398163397448
0

0101000
+59 0 -59 2 *
Ed
 1.00000000666134e-07 1 1 0
1  20 0 0 0.5
2  43 11 0 0 0.5
2  44 11 3 0 0.5
2  45 9 0 0 0.5
2  46 10 5 0 0.5
0

0101000
+59 0 -46 3 *
Wi

0101100
+39 0 -45 0 -57 0 +38 2 *
Fa
0  1e-07 11 0

0101000
+37 0 *
Ed
 1e-07 1 1 0
1  21 0 0 0.785398163397448
2  47 8 0 0 0.785398163397448
2  48 12 0 0 0.785398163397448
0

0101000
+54 0 -54 2 *
Wi

0101100
+35 0 -39 0 -52 0 +52 2 *
Fa
0  1e-07 8 0

0111000
+34 0 *
Ed
 1.00000000444089e-07 1 1 0
1  22 0 0 0.5
2  49 12 0 0 0.5
2  50 12 3 0 0.5
2  51 9 0 0 0.5
2  52 10 5 0 0.5
0

0101000
+44 3 -54 0 *
Wi

0101100
+43 0 -35 0 +49 0 +32 2 *
Fa
0  1e-07 12 0

0101000
+31 0 *
Ve
1e-07
10 5 0
0 0

0101101
*
Ed
 1e-07 1 1 0
1  23 0 0 5
2  53 14 0 0 5
2  54 13 0 0 5
0

0101000
+46 6 -29 7 *
Ve
1e-07
10 8 0
0 0

0101101
*
Ed
 1e-07 1 1 0
1  24 0 0 5
2  55 15 0 0 5
2  56 13 0 0 5
0

0101000
+44 6 -27 7 *
Ed
 1e-07 1 1 0
1  25 0 0 3
2  57 10 0 0 3
2  58 13 0 0 3
2  59 13 9 0 3
0

0101000
+29 0 -27 0 *
Wi

0101100
+28 4 -26 4 -42 2 +25 8 *
Fa
0  1e-07 13 4

0101000
+24 0 *
Ve
1e-07
10 5 1
0 0

0101101
*
Ed
 1e-07 1 1 0
1  26 0 0 5
2  60 14 0 0 5
0

0101000
+22 0 -22 7 *
Ed
 1e-07 1 1 0
1  27 0 0 0.5
2  61 10 0 0 0.5
2  62 14 0 0 0.5
2  63 14 9 0 0.5
0

0101000
+22 0 -59 10 *
Ed
 1e-07 1 1 0
1  27 0 0 1
2  61 10 0 0 1
2  62 14 0 0 1
2  63 14 9 0 1
0

0101000
+22 0 -29 0 *
Wi

0101100
+21 4 -28 4 -20 4 -38 2 +19 8 *
Fa
0  1e-07 14 4

0101000
+18 0 *
Ve
1e-07
10 8 1
0 0

0101101
*
Ed
 1e-07 1 1 0
1  28 0 0.500000000000001 1
2  64 15 0 0.500000000000001 1
2  65 15 9 0.500000000000001 1
2  66 10 0 0.500000000000001 1
0

0101000
+54 10 -16 0 *
Ed
 1e-07 1 1 0
1  29 0 0 3
2  67 10 0 0 3
0

0101000
+16 0 -22 0 *
Wi

0101100
+15 4 -52 2 +20 4 +14 4 *
Fa
0  1e-07 10 4

0111000
+13 0 *
Ed
 1e-07 1 1 0
1  30 0 0 5
2  68 15 0 0 5
0

0101000
+16 0 -16 7 *
Ed
 1e-07 1 1 0
1  28 0 0 1
2  64 15 0 0 1
2  65 15 9 0 1
2  66 10 0 0 1
0

0101000
+27 0 -16 0 *
Wi

0101100
+26 4 -11 4 -32 2 -15 4 +10 8 *
Fa
0  1e-07 15 4

0101000
+9 0 *
Wi

0101100
+14 0 +19 0 +25 0 +10 0 *
Fa
0  1e-07 10 0

0111000
+7 0 *
Wi

0101100
+11 0 -21 0 -14 0 +14 7 *
Fa
0  1e-07 16 0

0111000
+5 0 *
Sh

0101100
-88 0 -81 0 +72 0 +67 0 -60 0 +55 0 +50 0 +47 0 -40 0 -36 0 
-33 0 -30 0 -23 0 -17 0 -12 0 -8 0 +6 8 -4 4 *
So

0100000
+3 0 *
Co

1100000
+2 0 *

+1 1  