
CASCADE Topology V1, (c) Matra-Datavision
Locations 8
1
              1               0               0               0 
              0               1               0               0 
              0               0               1               0 
1
0.707106781186548               0 -0.707106781186548 3.98959235991435 
              0               1               0               0 
0.707106781186548               0 0.707106781186548 -6.6317279836453 
2  2 -1 0
1
              1               0               0               5 
              0               1               0               0 
              0               0               1               0 
2  4 -1 0
1
0.707106781186548               0 -0.707106781186548 3.98959235991435 
              0               1               0               0 
0.707106781186548               0 0.707106781186548 -6.6317279836453 
2  6 -1 0
2  4 1 6 1 0
Curve2ds 63
1 0 0 1 0 
1 0 0 1 0 
1 1 0 0 -1 
1 0 0 0 1 
1 0 -10 1 0 
1 0 0 1 0 
1 0 0 0 -1 
1 0 0 0 1 
1 0 0 0 1 
1 0 0 1 0 
1 0 0 1 0 
1 0 10 1 0 
1 1 0 0 1 
1 0 0 1 0 
1 1 0 0 1 
1 0 10 1 0 
1 1 0 0 -1 
1 10 0 0 1 
8 0 7.5
1 0 7.5 -0 -1 
1 0 0 0 1 
1 0 10 1 0 
1 0 -10 1 0 
1 0 10 1 0 
1 0 0 0 -1 
1 10 0 0 1 
8 0 7.5
1 0 0 0 1 
1 0 7.5 1 0 
2 0 0 -1 0 0 1 0.5
2 0 0 -1 0 0 1 1.5
1 0 0 1 0 
1 -0.5 0 -1 0 
1 -0.35355339059327306 0.35355339059327306 -0.70710678118654757 0.70710678118654757 
1 0 0 1 0 
1 0 -5 1 0 
1 0.5 3.75 -1 0 
1 0 0 1 0 
2 0 0 1 0 -0 1 0.5
1 0 0 0 1 
1 0.78539816339744828 0 0 1 
1 0 -0 1 0 
1 0 -5 1 0 
1 0.5 -3.75 0 1 
1 1 -7.5 -1 0 
1 0 7.5 1 0 
2 0 0 1 0 -0 1 1.5
1 0 0 0 1 
1 0.78539816339744828 0 0 1 
1 0 0 1 0 
1 0 -5 1 0 
1 -0.5 3.75 0 -1 
1 7.5 0 0 -1 
1 0 0 0 -1 
1 1 0 0 -1 
1 0 0 0 -1 
1 1.5 0 -1 0 
1 1.060660171779821 1.060660171779821 -0.70710678118654757 -0.70710678118654757 
1 0 0 1 0 
1 0 -5 1 0 
1 -0.5 -3.75 1 0 
1 0 -0 0 -1 
1 1 0 0 -1 
1 0 0 0 -1 
1 7.5 0 0 -1 
Curves 25
1 0 0 0 0 0 1 
1 0 0 1 -0 1 0 
1 0 10 0 0 0 1 
1 0 0 0 -0 1 0 
1 0 0 0 1 0 -0 
1 10 0 0 0 0 1 
1 0 0 1 1 0 -0 
1 0 10 1 1 0 -0 
1 10 0 1 -0 1 0 
1 0 10 0 1 0 -0 
1 10 10 0 0 0 1 
1 10 0 0 -0 1 0 
2 10 0 1.5 -0 -1 -0 0 0 -1 1 -0 0 0.5
2 10 0 1.5 -0 -1 -0 0 0 -1 1 -0 0 1.5
1 10 0 1 0 0 -1 
2 10 7.5 1.5 -0 -1 -0 0 0 -1 1 -0 0 0.5
1 10 7.5 1 0 -1 0 
1 10 7.5 1 0 0 -1 
2 10 7.5 1.5 -0 -1 -0 0 0 -1 1 -0 0 1.5
1 10 0 0 0 1 0 
1 10 0 1 1 0 0 
1 10 0 0 1 0 0 
1 10 7.5 0 0 0 1 
1 10 7.5 1 1 0 0 
1 10 7.5 0 1 0 0 
Polygon3D 0
PolygonOnTriangulations 0
Surfaces 15
1 0 0 0 1 0 -0 0 0 1 0 -1 0 
1 0 0 0 -0 1 0 0 0 1 1 0 -0 
1 0 0 1 0 0 1 1 0 -0 -0 1 0 
1 0 10 0 -0 1 0 0 0 1 1 0 -0 
1 0 0 0 0 0 1 1 0 -0 -0 1 0 
1 10 0 0 1 0 -0 0 0 1 0 -1 0 
2 10 7.5 1.5 -0 -1 -0 0 0 -1 1 -0 0 0.5
2 10 0 1.5 0 1 0 0 0 -1 1 -0 -0 1.5
1 10 0 1.5 -0 -1 -0 -0 -0 1 1 -0 0 
1 10 0 1 -0 1 0 0 0 -1 -1 0 -0 
1 10 3.75 0.5 1 0 0 -0 0 1 0 -1 0 
1 10 7.5 1.5 -0 -1 -0 0 0 -1 1 -0 0 
1 10 7.5 1 0 0 -1 0 -1 0 -1 -0 -0 
1 10 0 0 0 0 1 0 1 0 -1 0 0 
1 10 7.5 0 0 -1 0 0 0 1 -1 0 0 
Triangulations 0

TShapes 82
Ve
1e-07
0 0 1
0 0

0101101
*
Ve
1e-07
0 0 0
0 0

0101101
*
Ed
 1e-07 1 1 0
1  1 0 0 1
2  1 1 0 0 1
2  2 2 0 0 1
0

0101000
-82 0 +81 0 *
Ve
1e-07
0 10 1
0 0

0101101
*
Ed
 1e-07 1 1 0
1  2 0 0 10
2  3 1 0 0 10
2  4 3 0 0 10
0

0101000
-79 0 +82 0 *
Ve
1e-07
0 10 0
0 0

0101101
*
Ed
 1e-07 1 1 0
1  3 0 0 1
2  5 1 0 0 1
2  6 4 0 0 1
0

0101000
-79 0 +77 0 *
Ed
 1e-07 1 1 0
1  4 0 0 10
2  7 1 0 0 10
2  8 5 0 0 10
0

0101000
-77 0 +81 0 *
Wi

0101100
-80 0 -78 0 +76 0 +75 0 *
Fa
0  1e-07 1 0

0111000
+74 0 *
Ve
1.00000000055511e-07
10 0 0
0 0

0101101
*
Ed
 1e-07 1 1 0
1  5 0 0 10
2  9 2 0 0 10
2  10 5 0 0 10
0

0101000
+81 0 -72 0 *
Ve
1.00000000055511e-07
10 0 1
0 0

0101101
*
Ed
 1.00000000055511e-07 1 1 0
1  6 0 0 1
2  11 6 0 0 1
2  12 2 0 0 1
0

0101000
+72 0 -70 0 *
Ed
 1e-07 1 1 0
1  7 0 0 10
2  13 2 0 0 10
2  14 3 0 0 10
0

0101000
+82 0 -70 0 *
Wi

0101100
-71 0 -69 0 +68 0 +80 0 *
Fa
0  1e-07 2 0

0101000
+67 0 *
Ve
1e-07
10 10 1
0 0

0101101
*
Ed
 1e-07 1 1 0
1  8 0 0 10
2  15 4 0 0 10
2  16 3 0 0 10
0

0101000
-65 0 +79 0 *
Ve
1e-07
10 7.5 1
0 0

0101101
*
Ed
 1e-07 1 1 0
1  9 0 0 7.5
2  17 6 0 0 7.5
2  18 3 0 0 7.5
2  19 7 0 0 7.5
0

0101000
+70 0 -63 0 *
Ed
 1e-07 1 1 0
1  9 0 7.5 10
2  17 6 0 7.5 10
2  18 3 0 7.5 10
0

0101000
+63 0 -65 0 *
Wi

0101100
-78 0 -64 0 +62 0 +61 0 +68 0 *
Fa
0  1e-07 3 0

0101000
+60 0 *
Ve
1e-07
10 10 0
0 0

0101101
*
Ed
 1e-07 1 1 0
1  10 0 0 10
2  20 4 0 0 10
2  21 5 0 0 10
0

0101000
-58 0 +77 0 *
Ed
 1e-07 1 1 0
1  11 0 0 1
2  22 6 0 0 1
2  23 4 0 0 1
0

0101000
-65 0 +58 0 *
Wi

0101100
-57 0 -56 0 +64 0 +76 0 *
Fa
0  1e-07 4 0

0111000
+55 0 *
Ve
1e-07
10 7.5 0
0 0

0101101
*
Ed
 1e-07 1 1 0
1  12 0 0 7.5
2  24 6 0 0 7.5
2  25 5 0 0 7.5
2  26 8 0 0 7.5
0

0101000
+72 0 -53 0 *
Ed
 1e-07 1 1 0
1  12 0 7.5 10
2  24 6 0 7.5 10
2  25 5 0 7.5 10
0

0101000
+53 0 -58 0 *
Wi

0101100
-75 0 -57 0 +52 0 +51 0 +71 0 *
Fa
0  1e-07 5 0

0101000
+50 0 *
Ve
1.00000000444089e-07
10.3535533905933 0 1.14644660940673
0 0

0101101
*
Ed
 1e-07 1 1 0
1  13 0 0 0.785398163397448
2  27 7 0 0 0.785398163397448
2  28 9 0 0 0.785398163397448
0

0101000
+70 0 -48 0 *
Ve
1.00000000444089e-07
11.0606601717798 0 0.439339828220179
0 0

0101101
*
Ed
 1e-07 1 1 0
1  14 0 0 0.785398163397448
2  29 9 0 0 0.785398163397448
2  30 8 0 0 0.785398163397448
0

0101000
+72 0 -46 0 *
Ed
 1.00000000444089e-07 1 1 0
1  15 0 0 1
2  31 9 0 0 1
2  32 9 3 0 1
2  33 10 0 0 1
2  34 10 5 0 1
2  35 11 0 0 1
0

0101000
+48 3 -46 3 *
Wi

0101100
+47 0 -45 0 +69 0 +44 2 *
Fa
0  1e-07 9 0

0101000
+43 0 *
Ve
1.00000000444089e-07
10.3535533905933 7.5 1.14644660940673
0 0

0101101
*
Ed
 1e-07 1 1 0
1  16 0 0 0.785398163397448
2  36 7 0 0 0.785398163397448
2  37 12 0 0 0.785398163397448
0

0101000
+63 0 -41 0 *
Ed
 1e-07 1 1 0
1  17 0 0 7.5
2  38 7 0 0 7.5
2  39 7 3 0 7.5
2  40 13 0 0 7.5
2  41 13 5 0 7.5
2  42 11 0 0 7.5
0

0101000
+41 3 -48 3 *
Wi

0101100
+40 0 -47 0 +62 0 +39 2 *
Fa
0  1e-07 7 0

0101000
+38 0 *
Ed
 1e-07 1 1 0
1  18 0 0 1
4 CN 6 0 6 0
2  43 6 0 0 1
0

0101000
+63 0 -53 0 *
Wi

0101100
+51 0 +56 0 -61 0 +36 0 *
Fa
0  1e-07 6 0

0101000
+35 0 *
Ve
1.00000000444089e-07
11.0606601717798 7.5 0.439339828220179
0 0

0101101
*
Ed
 1e-07 1 1 0
1  19 0 0 0.785398163397448
2  44 8 0 0 0.785398163397448
2  45 12 0 0 0.785398163397448
0

0101000
+53 0 -33 0 *
Ed
 1e-07 1 1 0
1  20 0 0 7.5
2  46 8 0 0 7.5
2  47 8 3 0 7.5
2  48 14 0 0 7.5
2  49 14 5 0 7.5
2  50 11 0 0 7.5
0

0101000
+46 3 -33 3 *
Wi

0101100
+45 0 -32 0 -52 0 +31 2 *
Fa
0  1e-07 8 0

0111000
+30 0 *
Ve
1e-07
10 0 1
0 0

0101101
*
Ed
 1e-07 1 1 0
1  21 0 0 5
2  51 13 0 0 5
2  52 10 0 0 5
0

0101000
+48 7 -28 4 *
Ve
1e-07
10 0 0
0 0

0101101
*
Ed
 1e-07 1 1 0
1  22 0 0 5
2  53 10 0 0 5
2  54 14 0 0 5
0

0101000
+46 7 -26 4 *
Ed
 1e-07 1 1 0
1  15 0 0 1
2  31 9 0 0 1
2  32 9 3 0 1
2  33 10 0 0 1
2  34 10 5 0 1
2  35 11 0 0 1
0

0101000
+28 0 -26 0 *
Wi

0101100
+27 6 -25 6 -44 2 +24 8 *
Fa
0  1e-07 10 6

0101000
+23 0 *
Ed
 1.00000000444089e-07 1 1 0
1  23 0 0 1
2  55 12 0 0 1
2  56 12 3 0 1
2  57 15 0 0 1
2  58 15 5 0 1
2  59 11 0 0 1
0

0101000
+33 3 -41 3 *
Wi

0101100
+32 0 -40 0 +36 0 +21 2 *
Fa
0  1e-07 12 0

0101000
+20 0 *
Ve
1e-07
10 7.5 1
0 0

0101101
*
Ed
 1e-07 1 1 0
1  24 0 0 5
2  60 13 0 0 5
2  61 15 0 0 5
0

0101000
+41 7 -18 4 *
Ed
 1e-07 1 1 0
1  17 0 0 7.5
2  38 7 0 0 7.5
2  39 7 3 0 7.5
2  40 13 0 0 7.5
2  41 13 5 0 7.5
2  42 11 0 0 7.5
0

0101000
+18 0 -28 0 *
Wi

0101100
+17 6 -27 6 -39 2 +16 8 *
Fa
0  1e-07 13 6

0101000
+15 0 *
Ve
1e-07
10 7.5 0
0 0

0101101
*
Ed
 1e-07 1 1 0
1  25 0 0 5
2  62 15 0 0 5
2  63 14 0 0 5
0

0101000
+33 7 -13 4 *
Ed
 1e-07 1 1 0
1  20 0 0 7.5
2  46 8 0 0 7.5
2  47 8 3 0 7.5
2  48 14 0 0 7.5
2  49 14 5 0 7.5
2  50 11 0 0 7.5
0

0101000
+26 0 -13 0 *
Wi

0101100
+25 6 -12 6 -31 2 +11 8 *
Fa
0  1e-07 14 6

0101000
+10 0 *
Ed
 1e-07 1 1 0
1  23 0 0 1
2  55 12 0 0 1
2  56 12 3 0 1
2  57 15 0 0 1
2  58 15 5 0 1
2  59 11 0 0 1
0

0101000
+13 0 -18 0 *
Wi

0101100
+16 0 +24 0 +11 0 +8 0 *
Fa
0  1e-07 11 0

0111000
+7 0 *
Wi

0101100
+12 6 -17 6 -21 2 +8 8 *
Fa
0  1e-07 15 6

0101000
+5 0 *
Sh

0101100
-73 0 -66 0 +59 0 +54 0 -49 0 -42 0 -37 0 +34 0 -29 0 -22 0 
-19 0 -14 0 -9 0 +6 8 -4 0 *
So

0100000
+3 0 *
Co

1100000
+2 0 *

+1 1  