
CASCADE Topology V1, (c) Matra-Datavision
Locations 9
1
              1               0               0               0 
              0               1               0               0 
              0               0               1               0 
1
0.707106781186548               0 -0.707106781186548 3.98959235991435 
              0               1               0               0 
0.707106781186548               0 0.707106781186548 -6.6317279836453 
2  2 -1 0
1
0.707106781186548               0 -0.707106781186548 3.98959235991435 
              0               1               0               0 
0.707106781186548               0 0.707106781186548 -6.6317279836453 
2  4 1 2 -1 0
2  4 -1 0
1
              1               0               0               5 
              0               1               0               0 
              0               0               1               0 
2  7 1 4 1 0
2  7 -1 0
Curve2ds 42
1 0 0 1 0 
1 0 0 1 0 
1 1 0 0 -1 
1 0 0 0 1 
1 0 -10 1 0 
1 0 0 1 0 
1 0 0 0 -1 
1 0 0 0 1 
1 0 0 0 1 
1 0 0 1 0 
1 0 0 1 0 
1 0 10 1 0 
1 1 0 0 1 
1 0 0 1 0 
1 1 0 0 1 
1 0 10 1 0 
1 1 0 0 -1 
1 10 0 0 1 
8 5 8
1 0 8 -0 -1 
1 0 0 0 1 
1 0 10 1 0 
1 0 -10 1 0 
1 0 10 1 0 
1 0 0 0 -1 
1 10 0 0 1 
8 5 8
1 0 -5 0 1 
1 0 0 1 0 
2 0 0 1 0 -0 1 0.5
1 0 3 1 0 
2 0 0 -1 0 0 1 0.5
1 0 0 0 1 
1 0.78539816339744828 0 0 1 
2 0 0 -1 0 0 1 1.5
1 0 0 1 0 
1 0 3 1 0 
2 0 0 1 0 -0 1 1.5
1 0 0 0 1 
1 0.78539816339744828 0 0 1 
1 -0.5 0 -1 0 
1 -0.35355339059327306 0.35355339059327306 -0.70710678118654757 0.70710678118654757 
1 1.5 0 -1 0 
1 1.060660171779821 1.060660171779821 -0.70710678118654757 -0.70710678118654757 
Curves 26
1 0 0 0 0 0 1 
1 0 0 1 -0 1 0 
1 0 10 0 0 0 1 
1 0 0 0 -0 1 0 
1 0 0 0 1 0 -0 
1 10 0 0 0 0 1 
1 0 0 1 1 0 -0 
1 0 10 1 1 0 -0 
1 10 0 1 -0 1 0 
1 0 10 0 1 0 -0 
1 10 10 0 0 0 1 
1 10 0 0 -0 1 0 
1 10 5 1 0 0 -1 
2 10 8 1.5 -0 -1 -0 0 0 -1 1 -0 0 0.5
2 10 5 1.5 -0 -1 -0 0 0 -1 1 -0 0 0.5
1 10 8 1 0 -1 0 
1 10 8 1 0 0 -1 
2 10 5 1.5 -0 -1 -0 0 0 -1 1 -0 0 1.5
2 10 8 1.5 -0 -1 -0 0 0 -1 1 -0 0 1.5
1 10 5 0 0 1 0 
1 10 5 1 0 0 -1 
1 10 8 0 0 0 1 
1 10 8 1 1 0 0 
1 10 5 1 1 0 0 
1 10 5 0 1 0 0 
1 10 8 0 1 0 0 
Polygon3D 0
PolygonOnTriangulations 0
Surfaces 15
1 0 0 0 1 0 -0 0 0 1 0 -1 0 
1 0 0 0 -0 1 0 0 0 1 1 0 -0 
1 0 0 1 0 0 1 1 0 -0 -0 1 0 
1 0 10 0 -0 1 0 0 0 1 1 0 -0 
1 0 0 0 0 0 1 1 0 -0 -0 1 0 
1 10 0 0 1 0 -0 0 0 1 0 -1 0 
2 10 8 1.5 -0 -1 -0 0 0 -1 1 -0 0 0.5
2 10 5 1.5 0 1 0 0 0 -1 1 -0 -0 1.5
1 10 5 1.5 -0 -1 -0 -0 -0 1 1 -0 0 
1 10 8 1.5 -0 -1 -0 0 0 -1 1 -0 0 
1 10 8 1 0 0 -1 0 -1 0 -1 -0 -0 
1 10 5 0 0 0 1 0 1 0 -1 0 0 
1 10 5 1 -0 1 0 0 0 -1 -1 0 -0 
1 10 8 0 0 -1 0 0 0 1 -1 0 0 
1 10 6.5 0.5 1 0 0 -0 0 1 0 -1 0 
Triangulations 0

TShapes 89
Ve
1e-07
0 0 1
0 0

0101101
*
Ve
1e-07
0 0 0
0 0

0101101
*
Ed
 1e-07 1 1 0
1  1 0 0 1
2  1 1 0 0 1
2  2 2 0 0 1
4 C0 1 0 2 0
0

0101000
-89 0 +88 0 *
Ve
1e-07
0 10 1
0 0

0101101
*
Ed
 1e-07 1 1 0
1  2 0 0 10
2  3 1 0 0 10
2  4 3 0 0 10
4 C0 1 0 3 0
0

0101000
-86 0 +89 0 *
Ve
1e-07
0 10 0
0 0

0101101
*
Ed
 1e-07 1 1 0
1  3 0 0 1
2  5 1 0 0 1
2  6 4 0 0 1
4 C0 1 0 4 0
0

0101000
-86 0 +84 0 *
Ed
 1e-07 1 1 0
1  4 0 0 10
2  7 1 0 0 10
2  8 5 0 0 10
4 C0 1 0 5 0
0

0101000
-84 0 +88 0 *
Wi

0101100
-87 0 -85 0 +83 0 +82 0 *
Fa
0  1e-07 1 0

0111000
+81 0 *
Ve
1e-07
10 0 0
0 0

0101101
*
Ed
 1e-07 1 1 0
1  5 0 0 10
2  9 2 0 0 10
2  10 5 0 0 10
4 C0 2 0 5 0
0

0101000
-79 0 +88 0 *
Ve
1e-07
10 0 1
0 0

0101101
*
Ed
 1e-07 1 1 0
1  6 0 0 1
2  11 6 0 0 1
2  12 2 0 0 1
4 C0 2 0 6 0
0

0101000
-77 0 +79 0 *
Ed
 1e-07 1 1 0
1  7 0 0 10
2  13 2 0 0 10
2  14 3 0 0 10
4 C0 2 0 3 0
0

0101000
-77 0 +89 0 *
Wi

0101100
-78 0 -76 0 +75 0 +87 0 *
Fa
0  1e-07 2 0

0111000
+74 0 *
Ve
1e-07
10 10 1
0 0

0101101
*
Ed
 1e-07 1 1 0
1  8 0 0 10
2  15 4 0 0 10
2  16 3 0 0 10
4 C0 3 0 4 0
0

0101000
-72 0 +86 0 *
Ve
1e-07
10 5 1
0 0

0101101
*
Ed
 1e-07 1 1 0
1  9 0 0 5
2  17 6 0 0 5
2  18 3 0 0 5
4 C0 3 0 6 0
0

0101000
+77 0 -70 0 *
Ve
1e-07
10 8 1
0 0

0101101
*
Ed
 1e-07 1 1 0
1  9 0 5 8
2  17 6 0 5 8
2  18 3 0 5 8
2  19 7 0 5 8
4 G1 3 0 7 0
0

0101000
+70 0 -68 0 *
Ed
 1e-07 1 1 0
1  9 0 8 10
2  17 6 0 8 10
2  18 3 0 8 10
4 C0 3 0 6 0
0

0101000
+68 0 -72 0 *
Wi

0101100
-85 0 -71 0 +69 0 +67 0 +66 0 +75 0 *
Fa
0  1e-07 3 0

0101000
+65 0 *
Ve
1e-07
10 10 0
0 0

0101101
*
Ed
 1e-07 1 1 0
1  10 0 0 10
2  20 4 0 0 10
2  21 5 0 0 10
4 C0 4 0 5 0
0

0101000
-63 0 +84 0 *
Ed
 1e-07 1 1 0
1  11 0 0 1
2  22 6 0 0 1
2  23 4 0 0 1
4 C0 4 0 6 0
0

0101000
-72 0 +63 0 *
Wi

0101100
-62 0 -61 0 +71 0 +83 0 *
Fa
0  1e-07 4 0

0111000
+60 0 *
Ve
1e-07
10 5 0
0 0

0101101
*
Ed
 1e-07 1 1 0
1  12 0 0 5
2  24 6 0 0 5
2  25 5 0 0 5
4 C0 5 0 6 0
0

0101000
+79 0 -58 0 *
Ve
1e-07
10 8 0
0 0

0101101
*
Ed
 1e-07 1 1 0
1  12 0 5 8
2  24 6 0 5 8
2  25 5 0 5 8
2  26 8 0 5 8
4 G1 5 0 8 0
0

0101000
+58 0 -56 0 *
Ed
 1e-07 1 1 0
1  12 0 8 10
2  24 6 0 8 10
2  25 5 0 8 10
4 C0 5 0 6 0
0

0101000
+56 0 -63 0 *
Wi

0101100
-82 0 -62 0 +57 0 +55 0 +54 0 +78 0 *
Fa
0  1e-07 5 0

0101000
+53 0 *
Ed
 1e-07 1 1 0
1  13 0 0 1
4 CN 6 0 6 0
4 C0 6 0 9 0
0

0101000
+70 0 -58 0 *
Wi

0101100
-76 0 -69 0 +57 0 -51 0 *
Fa
0  1e-07 6 0

0101000
+50 0 *
Ve
1.00000000444089e-07
10.3535533905933 8 1.14644660940673
0 0

0101101
*
Ed
 1e-07 1 1 0
1  14 0 0 0.785398163397448
2  27 7 0 0 0.785398163397448
2  28 10 0 0 0.785398163397448
4 C0 7 0 10 0
0

0101000
+68 0 -48 0 *
Ve
1.00000000444089e-07
10.3535533905933 5 1.14644660940673
0 0

0101101
*
Ed
 1e-07 1 1 0
1  15 0 0 0.785398163397448
2  29 7 0 0 0.785398163397448
2  30 9 0 0 0.785398163397448
4 C0 7 0 9 0
0

0101000
+70 0 -46 0 *
Ed
 1e-07 1 1 0
1  16 0 0 3
2  31 7 0 0 3
2  32 7 3 0 3
4 G1 7 3 11 5
0

0101000
+48 3 -46 3 *
Wi

0101100
+47 0 -45 0 +67 0 +44 2 *
Fa
0  1e-07 7 0

0101000
+43 0 *
Ed
 1e-07 1 1 0
1  17 0 0 1
4 CN 6 0 6 0
4 C0 6 0 10 0
0

0101000
+68 0 -56 0 *
Wi

0101100
+54 0 +61 0 -66 0 +41 0 *
Fa
0  1e-07 6 0

0101000
+40 0 *
Ve
1.00000000444089e-07
11.0606601717798 5 0.439339828220179
0 0

0101101
*
Ed
 1e-07 1 1 0
1  18 0 0 0.785398163397448
2  33 9 0 0 0.785398163397448
2  34 8 0 0 0.785398163397448
4 C0 8 0 9 0
0

0101000
+58 0 -38 0 *
Ve
1.00000000444089e-07
11.0606601717798 8 0.439339828220179
0 0

0101101
*
Ed
 1e-07 1 1 0
1  19 0 0 0.785398163397448
2  35 8 0 0 0.785398163397448
2  36 10 0 0 0.785398163397448
4 C0 8 0 10 0
0

0101000
+56 0 -36 0 *
Ed
 1e-07 1 1 0
1  20 0 0 3
2  37 8 0 0 3
2  38 8 3 0 3
4 G1 8 3 12 5
0

0101000
+38 3 -36 3 *
Wi

0101100
+37 0 -35 0 -55 0 +34 2 *
Fa
0  1e-07 8 0

0101000
+33 0 *
Ed
 1.00000000444089e-07 1 1 0
1  21 0 0 1
2  39 9 0 0 1
2  40 9 3 0 1
4 C1 9 3 13 5
0

0101000
+46 3 -38 3 *
Wi

0101100
+45 0 -37 0 -51 0 +31 2 *
Fa
0  1e-07 9 0

0101000
+30 0 *
Ed
 1.00000000444089e-07 1 1 0
1  22 0 0 1
2  41 10 0 0 1
2  42 10 3 0 1
4 C1 10 3 14 5
0

0101000
+36 3 -48 3 *
Wi

0101100
+35 0 -47 0 +41 0 +28 2 *
Fa
0  1e-07 10 0

0101000
+27 0 *
Ve
1e-07
10 8 1
0 0

0101101
*
Ed
 1e-07 1 1 0
1  23 0 0 5
4 C0 11 0 14 0
0

0101000
+48 6 -25 7 *
Ve
1e-07
10 5 1
0 0

0101101
*
Ed
 1e-07 1 1 0
1  24 0 0 5
4 C0 11 0 13 0
0

0101000
+46 6 -23 7 *
Ed
 1e-07 1 1 0
1  16 0 0 3
2  31 7 0 0 3
2  32 7 3 0 3
4 C0 11 9 15 0
0

0101000
+25 0 -23 0 *
Wi

0101100
+24 4 -22 4 -44 2 +21 8 *
Fa
0  1e-07 11 4

0101000
+20 0 *
Ve
1e-07
10 5 0
0 0

0101101
*
Ed
 1e-07 1 1 0
1  25 0 0 5
4 C0 12 0 13 0
0

0101000
+38 6 -18 7 *
Ve
1e-07
10 8 0
0 0

0101101
*
Ed
 1e-07 1 1 0
1  26 0 0 5
4 C0 12 0 14 0
0

0101000
+36 6 -16 7 *
Ed
 1e-07 1 1 0
1  20 0 0 3
2  37 8 0 0 3
2  38 8 3 0 3
4 C0 12 9 15 0
0

0101000
+18 0 -16 0 *
Wi

0101100
+17 4 -15 4 -34 2 +14 8 *
Fa
0  1e-07 12 4

0101000
+13 0 *
Ed
 1e-07 1 1 0
1  21 0 0 1
2  39 9 0 0 1
2  40 9 3 0 1
4 C0 13 9 15 0
0

0101000
+23 0 -18 0 *
Wi

0101100
+22 4 -17 4 -31 2 +11 8 *
Fa
0  1e-07 13 4

0101000
+10 0 *
Ed
 1e-07 1 1 0
1  22 0 0 1
2  41 10 0 0 1
2  42 10 3 0 1
4 C0 14 9 15 0
0

0101000
+16 0 -25 0 *
Wi

0101100
+15 4 -24 4 -28 2 +8 8 *
Fa
0  1e-07 14 4

0101000
+7 0 *
Wi

0101100
+21 0 +11 0 +14 0 +8 0 *
Fa
0  1e-07 15 0

0101000
+5 0 *
Sh

0101100
-80 0 -73 0 +64 0 +59 0 -52 0 +49 0 -42 0 +39 0 -32 0 -29 0 
-26 0 -19 0 -12 0 -9 0 -6 0 +4 8 *
So

0100000
+3 0 *
Co

1100000
+2 0 *

+1 1  