
CASCADE Topology V1, (c) Matra-Datavision
Locations 49
1
              1               0               0               0 
              0               1               0               0 
              0               0               1               0 
1
              1               0               0               0 
              0               1               0              -5 
              0               0               1              -0 
1
              1               0               0               0 
              0 0.17364817766693 -0.984807753012208 -0.492403876506104 
              0 0.984807753012208 0.17364817766693 -0.413175911166535 
2  2 1 3 1 0
2  3 -1 0
1
0.866025403784439 0.492403876506104 -0.0868240888334652 2.29633391773888 
-0.492403876506104 0.870065232173952 0.0229110052998224 4.67161582559142 
0.0868240888334652 0.0229110052998224 0.995960171610487 -0.823731913556418 
2  6 -1 3 -1 0
1
              1               0               0               5 
              0               1               0               0 
              0               0               1              -0 
2  8 -1 3 -1 0
2  3 1 6 1 0
1
              1               0               0               0 
              0 0.17364817766693 -0.984807753012208 -0.492403876506104 
              0 0.984807753012208 0.17364817766693 -0.413175911166535 
1
0.939692620785908               0 -0.342020143325669 1.11610400712942 
              0               1               0               0 
0.342020143325669               0 0.939692620785908 -3.32974036443555 
2  12 -1 0
1
              1               0               0               5 
              0               1               0               0 
              0               0               1              -0 
2  14 -1 0
2  11 -1 0
2  2 -1 0
2  6 -1 11 -1 0
2  8 -1 11 -1 0
2  3 1 11 -1 0
2  11 1 6 1 0
2  3 -1 2 -1 0
2  6 -1 3 -1 2 -1 0
2  8 -1 3 -1 2 -1 0
2  2 1 3 1 6 1 0
1
0.866025403784439 0.492403876506104 -0.0868240888334652 2.29633391773888 
-0.492403876506104 0.870065232173952 0.0229110052998224 4.67161582559142 
0.0868240888334652 0.0229110052998224 0.995960171610487 -0.823731913556418 
2  26 -1 0
2  2 1 3 1 8 1 0
2  3 1 8 1 26 1 0
2  11 1 8 1 26 1 0
1
            0.5               0 0.866025403784439 -1.29903810567666 
              0               1               0               0 
-0.866025403784439               0             0.5            0.75 
2  31 -1 0
1
              1               0               0              -5 
              0               1               0              -0 
              0               0               1               0 
2  33 -1 0
2  2 1 3 1 8 1 26 1 0
2  8 1 26 1 0
1
              1               0               0               0 
              0 0.766044443118978 0.642787609686539 2.66094937365349 
              0 -0.642787609686539 0.766044443118978 6.31089831842488 
2  37 -1 0
1
              1               0               0              -0 
              0               1               0               5 
              0               0               1               0 
2  39 -1 0
1
0.939692620785908               0 -0.342020143325669 1.11610400712942 
              0               1               0               0 
0.342020143325669               0 0.939692620785908 -3.32974036443555 
2  41 -1 0
2  14 1 41 1 0
1
            0.5               0 0.866025403784439 -1.29903810567666 
              0               1               0               0 
-0.866025403784439               0             0.5            0.75 
2  44 -1 0
2  33 1 44 1 0
1
              1               0               0               0 
              0 0.766044443118978 0.642787609686539 2.66094937365349 
              0 -0.642787609686539 0.766044443118978 6.31089831842488 
2  47 -1 0
2  39 1 47 1 0
Curve2ds 187
1 0 0 1 0 
2 0 0 1 0 -0 1 0.5
1 0 5 1 0 
2 0 0 1 0 -0 1 0.49999999999999983
1 1 0 0 -1 
1 10 0 0 -1 
1 0 0 0 1 
1 0.52359877559829882 0 0 1 
1 0 0 1 0 
1 0 -5 1 0 
1 0 0 1 0 
2 0 0 1 0 -0 1 1.4999999999999998
1 0 0 1 0 
1 0 10 1 0 
1 1.5 0 -1 0 
1 1.4095389311788624 0.51303021498850399 -0.93969262078590843 -0.34202014332566871 
1 0 0 1 0 
1 0 -5 1 0 
1 -0.5 0 -1 0 
1 -0.086824088833465207 0.49240387650610401 -0.17364817766693044 0.98480775301220813 
1 0 0 1 0 
1 0 -5 1 0 
1 1.5 0 -1 0 
1 1.299038105676658 0.75 -0.86602540378443871 -0.5 
1 0 0 1 0 
1 0 -5 1 0 
1 0 0 1 0 
1 0 5 1 0 
2 0 0 1 0 -0 1 1.4999999999999998
1 1.4999999999999996 0 -1 0 
1 1.2990381056766571 0.75 -0.86602540378443871 -0.5 
1 0 0 1 0 
1 0 -5 1 0 
1 1 0 0 -1 
1 0 0 0 -1 
1 1 0 0 1 
1 0 0 1 0 
1 0 0 0 1 
1 1.3962634015954636 0 0 1 
1 0 0 1 0 
1 0 -5 1 0 
1 0 0 1 0 
1 -2.7333906055587946e-17 0 0 -1 
1 0.99999999999999989 0 0 -1 
1 5 0 0 -1 
1 0.99999999999999989 0 0 -1 
1 10 0 0 -1 
1 0 0 0 -1 
1 0 0 0 1 
1 0.52359877559829882 0 0 1 
1 0 0 1 0 
1 0 -5 1 0 
2 0 0 -1 0 0 1 1.5
1 0 10 1 0 
1 0 10 1 0 
2 0 0 -1 0 0 1 0.5
1 0 0 0 -1 
1 0 0 0 -1 
1 0 0 0 1 
1 0 0 1 0 
1 0 0 0 1 
1 1.3962634015954636 0 0 1 
1 0 0 1 0 
1 0 -5 1 0 
1 0 0 1 0 
1 0 0 1 0 
1 1.5 0 -1 0 
1 0.75000000000000022 1.299038105676658 -0.50000000000000011 -0.8660254037844386 
1 0 0 1 0 
1 0 -5 1 0 
1 -0.5 0 -1 0 
1 -0.086824088833465207 0.49240387650610401 -0.17364817766693044 0.98480775301220813 
1 0 0 1 0 
1 0 -5 1 0 
1 0 0 0 -1 
1 5 0 0 -1 
1 0 0 0 -1 
1 0 0 0 -1 
1 0 0 1 0 
2 0 0 -1 0 0 1 1.5
1 0 0 1 0 
1 0 0 1 0 
2 0 0 -1 0 0 1 0.5
2 0 0 1 0 -0 1 0.5
1 0 0 1 0 
2 0 0 1 0 -0 1 1.5
1 0 0 1 0 
1 1 0 0 -1 
1 0 0 0 1 
1 0 0 0 1 
1 1.0471975511965976 0 0 1 
1 0 0 1 0 
1 0 -5 1 0 
1 1 0 0 1 
1 0 10 1 0 
1 0 0 0 1 
1 0.69813170079773179 0 0 1 
1 0 0 1 0 
1 0 -5 1 0 
1 1 0 0 -1 
1 10 0 0 1 
1 0 0 0 1 
1 0.3490658503988659 0 0 1 
1 0 0 1 0 
1 0 -5 1 0 
1 0 0 0 -1 
1 0 0 0 1 
1 0 0 0 1 
1 1.0471975511965976 0 0 1 
1 0 0 1 0 
1 0 -5 1 0 
1 0 0 0 1 
1 0 10 1 0 
1 0 0 0 1 
1 0.69813170079773179 0 0 1 
1 0 0 1 0 
1 0 -5 1 0 
1 0 0 0 -1 
1 10 0 0 1 
1 0 0 0 1 
1 0.3490658503988659 0 0 1 
1 0 0 1 0 
1 0 -5 1 0 
1 0 10 1 0 
2 0 0 1 0 -0 1 0.5
2 0 0 1 0 -0 1 1.5
1 0 10 1 0 
1 1 0 0 -1 
1 0 0 0 -1 
1 0 0 0 -1 
1 0 0 0 -1 
2 0 0 1 0 -0 1 0.5
1 0 0 1 0 
2 0 0 1 0 -0 1 1.5
1 0 0 1 0 
1 0 10 1 0 
2 0 0 1 0 -0 1 0.5
2 0 0 -1 0 0 1 1.5
1 0 10 1 0 
1 0 0 1 0 
2 0 0 -1 0 0 1 1.5
2 0 0 1 0 -0 1 1.5
1 0 10 1 0 
1 0 10 1 0 
2 0 0 -1 0 0 1 0.5
1 0 0 1 0 
2 0 0 -1 0 0 1 0.5
1 0 -10 1 0 
1 0 10 1 0 
1 1.5 0 -1 0 
1 1.4095389311788624 0.51303021498850399 -0.93969262078590843 -0.34202014332566871 
1 0 0 1 0 
1 0 -5 1 0 
1 -0.5 0 -1 0 
1 -0.3830222215594894 0.32139380484326985 -0.76604444311897812 0.64278760968653936 
1 0 0 1 0 
1 0 -5 1 0 
1 10 0 0 -1 
1 1 0 0 -1 
1 10 0 0 -1 
1 0 0 0 -1 
1 1 0 0 -1 
1 0 0 0 -1 
1 0 0 0 -1 
1 0 0 0 -1 
1 0 -10 1 0 
1 0 0 1 0 
1 -0.5 0 -1 0 
1 -0.3830222215594894 0.32139380484326985 -0.76604444311897812 0.64278760968653936 
1 0 0 1 0 
1 0 -5 1 0 
1 1.5 0 -1 0 
1 0.75000000000000022 1.299038105676658 -0.50000000000000011 -0.8660254037844386 
1 0 0 1 0 
1 0 -5 1 0 
1 10 0 0 -1 
1 1 0 0 -1 
1 1 0 0 -1 
1 10 0 0 -1 
1 1 0 0 -1 
1 0 0 0 -1 
1 10 0 0 -1 
1 0 0 0 -1 
1 10 0 0 -1 
1 0 0 0 -1 
1 0 0 0 -1 
1 0 0 0 -1 
Curves 52
2 10 -1.969615506024416 -0.15270364466613917 0 -0.17364817766693039 -0.98480775301220813 0 0.98480775301220813 -0.17364817766693039 1 0 0 0.5
2 10 -2.837856394359068 -5.0767424097271805 0 -0.17364817766693039 -0.98480775301220813 0 0.98480775301220813 -0.17364817766693039 1 0 0 0.49999999999999983
1 10 0 1 0 -1 -0 
2 10 -1.969615506024416 -0.15270364466613923 0 -0.17364817766693039 -0.98480775301220813 0 0.98480775301220813 -0.17364817766693039 1 0 0 1.4999999999999998
1 10 0 0 0 0 1 
2 10 -2.837856394359068 -5.0767424097271805 0 -0.17364817766693039 -0.98480775301220813 0 0.98480775301220813 -0.17364817766693039 1 0 0 1.4999999999999998
1 0 0 1 0 -1 -0 
1 0 0 1 1 0 -0 
1 10 -1.477211629518312 -0.23952773349960435 1 0 -0 
1 10 -2.3454525178529639 -5.1635664985606446 1 0 -0 
1 10 0 0 0 -1 -0 
2 10 0 -0.5 1 0 0 0 0 1 0 -1 0 1.5
2 10 0 -0.5 1 0 0 0 0 1 0 -1 0 0.5
1 10 -0.49240387650610401 -0.41317591116653479 1 0 -0 
1 0 0 0 1 0 -0 
1 0 0 0 0 0 1 
1 10 -1.360644764840756 -5.3372146762275747 1 0 -0 
1 0 0 0 0 -1 -0 
2 0 0 -0.5 1 0 0 0 0 1 0 -1 0 1.5
2 0 0 -0.5 1 0 0 0 0 1 0 -1 0 0.5
2 10 0 1.5 -0 -1 -0 0 0 -1 1 -0 0 0.5
2 10 0 1.5 -0 -1 -0 0 0 -1 1 -0 0 1.5
1 0 0 1 -0 1 0 
1 0 10 1 1 0 -0 
1 10 0 1 -0 1 0 
1 0 0 0 -0 1 0 
1 0 10 0 1 0 -0 
1 10 0 0 -0 1 0 
2 10 10 1.5 -0 -1 -0 0 0 -1 1 -0 0 0.5
2 10 10 1.5 -0 -1 -0 0 0 -1 1 -0 0 1.5
1 10 0 1 1 0 -0 
1 10 0 0 1 0 -0 
2 0 0 1.5 0 1 0 0 0 -1 -1 0 0 0.5
2 0 0 1.5 0 1 0 0 0 -1 -1 0 0 1.5
2 0 10 1.5 0 1 0 0 0 -1 -1 0 0 0.5
2 10 10 -0.5 -1 -0 -0 -0 0 1 0 1 -0 1.5
2 0 10 -0.5 -1 -0 -0 -0 0 1 0 1 -0 1.5
2 0 10 1.5 0 1 0 0 0 -1 -1 0 0 1.5
2 10 10 -0.5 -1 -0 -0 -0 0 1 0 1 -0 0.5
2 0 10 -0.5 -1 -0 -0 -0 0 1 0 1 -0 0.5
1 10 10 0 0 0 1 
1 10 10 1 1 0 -0 
1 10 10 0 1 0 -0 
1 0 0 1 -1 -0 0 
1 0 0 0 -1 -0 0 
1 0 10 0 0 0 1 
1 0 10 1 -1 -0 0 
1 10 10 1 -0 1 0 
1 0 10 1 -0 1 0 
1 0 10 0 -1 -0 0 
1 10 10 0 -0 1 0 
1 0 10 0 -0 1 0 
Polygon3D 0
PolygonOnTriangulations 0
Surfaces 46
2 10 -1.969615506024416 -0.15270364466613917 0 -0.17364817766693039 -0.98480775301220813 0 0.98480775301220813 -0.17364817766693039 1 0 0 0.50000000000000011
1 10 -1.969615506024416 -0.15270364466613923 -0 0.17364817766693039 0.98480775301220813 0 0.98480775301220813 -0.17364817766693039 1 -0 0 
1 10 -2.837856394359068 -5.0767424097271805 -0 0.17364817766693039 0.98480775301220813 0 0.98480775301220813 -0.17364817766693039 1 -0 0 
1 10 0 0 -1 -0 0 0 0 1 -0 1 0 
1 0 0 1 0 0 1 1 0 -0 -0 1 0 
1 10 -1.477211629518312 -0.23952773349960438 -0 0.98480775301220813 -0.17364817766693044 0 -0.17364817766693044 -0.98480775301220813 -1 -0 0 
2 10 -1.969615506024416 -0.15270364466613923 0 -0.17364817766693039 -0.98480775301220813 0 0.98480775301220813 -0.17364817766693039 1 0 0 1.5
1 10 0 0 1 0 -0 0 0 1 0 -1 0 
1 0 0 0 -0 1 0 0 0 1 1 0 -0 
1 10 0 1.5 -0 -1 -0 0 0 -1 1 -0 0 
1 10 0 0 0 -1 0 0 0 1 -1 0 0 
1 10 0 -0.5 1 0 0 -0 -0 -1 0 -1 0 
1 10 -0.49240387650610401 -0.41317591116653479 0 -0.17364817766693044 -0.98480775301220813 0 -0.98480775301220813 0.17364817766693044 -1 -0 0 
1 10 -1.360644764840756 -5.3372146762275747 0 -0.17364817766693044 -0.98480775301220813 0 -0.98480775301220813 0.17364817766693044 -1 -0 0 
1 0 0 0 -1 -0 0 0 0 1 -0 1 0 
1 0 0 1 0 0 1 1 0 -0 -0 1 0 
2 0 0 -0.5 1 0 0 0 0 1 0 -1 0 1.5
1 0 0 0 0 0 1 1 0 -0 -0 1 0 
1 10 -0.49240387650610401 -0.41317591116653479 -0 0.98480775301220813 -0.17364817766693044 0 -0.17364817766693044 -0.98480775301220813 -1 -0 0 
2 0 0 -0.5 1 0 0 0 0 1 0 -1 0 0.5
1 0 0 0 0 0 1 1 0 -0 -0 1 0 
1 0 0 0 1 0 -0 0 0 1 0 -1 0 
1 0 0 1.5 0 1 0 0 0 -1 -1 0 0 
1 0 0 0 -0 1 0 0 0 1 1 0 -0 
1 0 0 -0.5 1 0 0 -0 -0 -1 0 -1 0 
2 10 0 1.5 0 1 0 0 0 -1 1 -0 -0 0.5
2 10 0 1.5 0 1 0 0 0 -1 1 -0 -0 1.5
2 0 0 1.5 0 1 0 0 0 -1 -1 0 0 0.5
1 0 0 1 -0 0 -1 0 1 0 1 0 -0 
1 0 10 0 -0 1 0 0 0 1 1 0 -0 
2 0 10 -0.5 1 0 0 0 0 1 -0 1 -0 1.5
1 0 10 1 -0 0 -1 1 0 -0 0 -1 -0 
1 10 0 1 0 0 1 -0 1 0 -1 -0 0 
2 0 0 1.5 0 1 0 0 0 -1 -1 0 0 1.5
1 0 0 0 -0 0 -1 0 1 0 1 0 -0 
2 0 10 -0.5 1 0 0 0 0 1 -0 1 -0 0.5
1 0 10 0 -0 0 -1 1 0 -0 0 -1 -0 
1 10 0 0 0 0 1 -0 1 0 -1 -0 0 
1 10 10 1.5 -0 -1 -0 0 0 -1 1 -0 0 
1 0 10 1.5 0 1 0 0 0 -1 -1 0 0 
1 10 10 -0.5 -1 -0 -0 0 -0 -1 0 1 -0 
1 0 10 -0.5 -1 -0 -0 0 -0 -1 0 1 -0 
1 10 10 0 0 -1 0 0 0 1 -1 0 0 
1 10 10 0 1 0 -0 0 0 1 0 -1 0 
1 0 10 0 1 0 -0 0 0 1 0 -1 0 
1 0 10 0 -0 1 0 0 0 1 1 0 -0 
Triangulations 0

TShapes 195
Ve
1.00000000256634e-07
10 -1.47721162951831 -0.239527733499604
0 0

0101101
*
Ve
1.00000000993014e-07
10.25 -1.54318124004819 -0.227895511256357
0 0

0101101
*
Ed
 1.00000000256634e-07 1 1 0
1  1 0 0 0.523598775598299
2  1 1 0 0 0.523598775598299
2  2 2 0 0 0.523598775598299
0

0101000
+195 0 -194 0 *
Ve
1e-07
10 0 1
0 0

0101101
*
Ve
1.00000000993014e-07
10.25 -2.41142212838285 -5.1519342763174
0 0

0101101
*
Ed
 1e-07 1 1 0
1  2 0 0 0.523598775598299
2  3 1 0 0 0.523598775598299
2  4 3 0 0 0.523598775598299
0

0101000
+192 4 -191 0 *
Ed
 1e-07 1 1 0
1  3 0 0 5
2  5 4 0 0 5
2  6 5 0 0 5
2  7 1 5 0 5
2  8 1 7 0 5
2  9 6 5 0 5
2  10 6 9 0 5
0

0101000
+195 5 -192 2 *
Ed
 1.00000000993014e-07 1 1 0
1  3 0 0 5
2  5 4 0 0 5
2  6 5 0 0 5
2  7 1 5 0 5
2  8 1 7 0 5
2  9 6 5 0 5
2  10 6 9 0 5
0

0101000
+194 7 -191 7 *
Wi

0101100
+193 0 -190 0 -189 3 +188 10 *
Fa
0  1e-07 1 0

0111000
+187 0 *
Ve
1.00000000228878e-07
10 -0.492403876506104 -0.413175911166535
0 0

0101101
*
Ve
1.00000001790181e-07
10.75 -0.690312708095751 -0.378279244436792
0 0

0101101
*
Ed
 1.00000000228878e-07 1 1 0
1  4 0 0 0.523598775598299
2  11 7 0 0 0.523598775598299
2  12 2 0 0 0.523598775598299
0

0101000
+185 0 -184 0 *
Ed
 1.00000000228878e-07 1 1 0
1  5 0 0 1
2  13 8 0 0 1
2  14 9 0 0 1
2  15 10 0 0 1
2  16 10 13 0 1
2  17 11 0 0 1
2  18 11 15 0 1
2  19 12 0 0 1
2  20 12 16 0 1
2  21 4 0 0 1
2  22 4 17 0 1
2  23 2 16 0 1
2  24 2 18 0 1
2  25 13 16 0 1
2  26 13 19 0 1
2  27 4 20 0 1
0

0101000
+185 16 -195 16 *
Ed
 1.00000000457757e-07 1 1 0
1  5 0 0 1
2  13 8 0 0 1
2  14 9 0 0 1
2  15 10 0 0 1
2  16 10 13 0 1
2  17 11 0 0 1
2  18 11 15 0 1
2  19 12 0 0 1
2  20 12 16 0 1
2  21 4 0 0 1
2  22 4 17 0 1
2  23 2 16 0 1
2  24 2 18 0 1
2  25 13 16 0 1
2  26 13 19 0 1
2  27 4 20 0 1
0

0101000
+184 18 -194 18 *
Wi

0101100
+183 0 -193 0 -182 11 +181 21 *
Fa
0  1.00000000228878e-07 2 0

0101000
+180 0 *
Ve
1e-07
10 0 0
0 0

0101101
*
Ve
1.00000001790181e-07
10.75 -1.5585535964304 -5.30231800949783
0 0

0101101
*
Ed
 1e-07 1 1 0
1  6 0 0 0.523598775598299
2  28 7 0 0 0.523598775598299
2  29 3 0 0 0.523598775598299
0

0101000
+178 4 -177 0 *
Ed
 1e-07 1 1 0
1  5 0 0 1
2  13 8 0 0 1
2  14 9 0 0 1
2  15 10 0 0 1
2  16 10 13 0 1
2  17 11 0 0 1
2  18 11 15 0 1
2  19 12 0 0 1
2  20 12 16 0 1
2  21 4 0 0 1
2  22 4 17 0 1
2  30 3 22 0 1
2  31 3 23 0 1
2  32 14 22 0 1
2  33 14 24 0 1
0

0101000
-192 0 +178 0 *
Ed
 1.00000000444089e-07 1 1 0
1  5 0 0 1
2  13 8 0 0 1
2  14 9 0 0 1
2  15 10 0 0 1
2  16 10 13 0 1
2  17 11 0 0 1
2  18 11 15 0 1
2  19 12 0 0 1
2  20 12 16 0 1
2  21 4 0 0 1
2  22 4 17 0 1
2  30 3 22 0 1
2  31 3 23 0 1
2  32 14 22 0 1
2  33 14 24 0 1
0

0101000
+177 23 -191 23 *
Wi

0101100
-190 0 +176 0 -175 4 +174 25 *
Fa
0  1e-07 3 0

0101000
+173 0 *
Ve
1.00000000256634e-07
0 -1.47721162951831 -0.239527733499604
0 0

0101101
*
Ve
1e-07
0 0 1
0 0

0101101
*
Ed
 1e-07 1 1 0
1  7 0 0 5
2  34 15 0 0 5
2  35 5 0 0 5
0

0101000
+171 5 -170 2 *
Ed
 1e-07 1 1 0
1  8 0 0 10
2  36 9 0 0 10
2  37 16 0 0 10
2  38 17 0 0 10
2  39 17 16 0 10
2  40 5 0 0 10
2  41 5 17 0 10
2  42 5 20 0 10
0

0101000
+171 16 -195 16 *
Ed
 1e-07 1 1 0
1  8 0 0 10
2  36 9 0 0 10
2  37 16 0 0 10
2  38 17 0 0 10
2  39 17 16 0 10
2  40 5 0 0 10
2  41 5 17 0 10
0

0101000
-192 0 +170 0 *
Wi

0101100
-189 3 +169 3 -168 11 +167 4 *
Fa
0  1e-07 5 3

0101000
+166 0 *
Ed
 1.00000000256634e-07 1 1 0
1  9 0 0 5
2  43 6 0 0 5
2  44 13 0 0 5
0

0101000
+194 27 -195 8 *
Ed
 1e-07 1 1 0
1  10 0 0 5
2  45 6 0 0 5
2  46 14 0 0 5
0

0101000
+191 27 -192 28 *
Wi

0101100
+164 26 -163 26 -188 10 +189 29 *
Fa
0  1e-07 6 26

0101000
+162 0 *
Ed
 1e-07 1 1 0
1  11 0 0 5
2  47 18 0 0 5
2  48 4 0 0 5
2  49 7 5 0 5
2  50 7 7 0 5
2  51 19 5 0 5
2  52 19 9 0 5
0

0101000
+185 5 -178 2 *
Ed
 1.00000001790181e-07 1 1 0
1  11 0 0 5
2  47 18 0 0 5
2  48 4 0 0 5
2  49 7 5 0 5
2  50 7 7 0 5
2  51 19 5 0 5
2  52 19 9 0 5
0

0101000
+184 7 -177 7 *
Wi

0101100
+183 0 -176 0 -160 3 +159 10 *
Fa
0  1e-07 7 0

0111000
+158 0 *
Ed
 1e-07 1 1 0
1  12 0 0 1.39626340159546
2  53 12 0 0 1.39626340159546
2  54 17 0 0 1.39626340159546
0

0101000
+192 0 -195 0 *
Ed
 1e-07 1 1 0
1  13 0 0 1.39626340159546
2  55 20 0 0 1.39626340159546
2  56 12 0 0 1.39626340159546
0

0101000
+178 0 -185 0 *
Wi

0101100
-156 0 +155 0 -175 0 +182 11 *
Fa
0  1e-07 12 0

0111000
+154 0 *
Ed
 1.00000000228878e-07 1 1 0
1  14 0 0 5
2  57 13 0 0 5
2  58 19 0 0 5
0

0101000
+184 27 -185 8 *
Wi

0101100
+152 26 -164 26 -181 21 +182 30 *
Fa
0  1.00000000228878e-07 13 26

0101000
+151 0 *
Ve
1e-07
0 0 0
0 0

0101101
*
Ed
 1e-07 1 1 0
1  15 0 0 10
2  59 9 0 0 10
2  60 21 0 0 10
2  61 20 0 0 10
2  62 20 16 0 10
2  63 18 0 0 10
2  64 18 17 0 10
0

0101000
-178 0 +149 0 *
Ed
 1e-07 1 1 0
1  16 0 0 1
2  65 22 0 0 1
2  66 9 0 0 1
2  67 23 0 0 1
2  68 23 32 0 1
2  69 24 0 0 1
2  70 24 34 0 1
2  71 25 0 0 1
2  72 25 16 0 1
2  73 15 0 0 1
2  74 15 17 0 1
0

0101000
-170 0 +149 0 *
Wi

0101100
-148 0 -175 0 +167 0 +147 0 *
Fa
0  1e-07 9 0

0111000
+146 0 *
Ed
 1e-07 1 1 0
1  17 0 0 5
2  75 14 0 0 5
2  76 19 0 0 5
0

0101000
+177 27 -178 28 *
Wi

0101100
-163 26 +144 26 -174 25 +175 35 *
Fa
0  1e-07 14 26

0101000
+143 0 *
Ve
1.00000000228878e-07
0 -0.492403876506104 -0.413175911166535
0 0

0101101
*
Ed
 1e-07 1 1 0
1  18 0 0 5
2  77 18 0 0 5
2  78 15 0 0 5
0

0101000
+141 5 -149 2 *
Ed
 1.00000000228878e-07 1 1 0
1  16 0 0 1
2  65 22 0 0 1
2  66 9 0 0 1
2  67 23 0 0 1
2  68 23 32 0 1
2  69 24 0 0 1
2  70 24 34 0 1
2  71 25 0 0 1
2  72 25 16 0 1
2  73 15 0 0 1
2  74 15 17 0 1
0

0101000
+141 16 -171 16 *
Wi

0101100
-169 3 +140 3 -139 11 +147 4 *
Fa
0  1e-07 15 3

0101000
+138 0 *
Ed
 1e-07 1 1 0
1  19 0 0 1.39626340159546
2  79 17 0 0 1.39626340159546
2  80 25 0 0 1.39626340159546
0

0101000
+170 0 -171 0 *
Wi

0101100
-156 0 +136 0 -167 0 +168 11 *
Fa
0  1e-07 17 0

0111000
+135 0 *
Wi

0101100
-189 3 +160 3 -182 11 +175 4 *
Fa
0  1e-07 4 3

0111000
+133 0 *
Ed
 1e-07 1 1 0
1  15 0 0 10
2  59 9 0 0 10
2  60 21 0 0 10
2  61 20 0 0 10
2  62 20 16 0 10
2  63 18 0 0 10
2  64 18 17 0 10
2  81 18 20 0 10
0

0101000
+141 16 -185 16 *
Wi

0101100
-160 3 +140 3 -131 11 +148 4 *
Fa
0  1e-07 18 3

0101000
+130 0 *
Wi

0101100
+152 26 -144 26 -159 10 +160 29 *
Fa
0  1e-07 19 26

0101000
+128 0 *
Ed
 1e-07 1 1 0
1  20 0 0 1.39626340159546
2  82 20 0 0 1.39626340159546
2  83 25 0 0 1.39626340159546
0

0101000
+149 0 -141 0 *
Wi

0101100
-155 0 +126 0 -148 0 +131 11 *
Fa
0  1e-07 20 0

0111000
+125 0 *
Ve
1.00000000277556e-07
10.1710100716628 0 1.03015368960705
0 0

0101101
*
Ed
 1e-07 1 1 0
1  21 0 0 0.349065850398866
2  84 10 0 0 0.349065850398866
2  85 26 0 0 0.349065850398866
0

0101000
+192 0 -123 0 *
Ve
1.00000000277556e-07
10.5130302149885 0 0.0904610688211376
0 0

0101101
*
Ed
 1e-07 1 1 0
1  22 0 0 0.349065850398866
2  86 10 0 0 0.349065850398866
2  87 27 0 0 0.349065850398866
0

0101000
+178 0 -121 0 *
Ed
 1.00000000277556e-07 1 1 0
1  5 0 0 1
2  13 8 0 0 1
2  14 9 0 0 1
2  15 10 0 0 1
2  16 10 13 0 1
2  17 11 0 0 1
2  18 11 15 0 1
0

0101000
+121 13 -123 13 *
Wi

0101100
-122 0 +120 0 -175 0 +119 12 *
Fa
0  1e-07 10 0

0111000
+118 0 *
Wi

0101100
-136 0 +126 0 -147 0 +139 11 *
Fa
0  1e-07 25 0

0101000
+116 0 *
Ve
1e-07
0 10 1
0 0

0101101
*
Ed
 1e-07 1 1 0
1  23 0 0 10
2  88 22 0 0 10
2  89 16 0 0 10
2  90 28 0 0 10
2  91 28 32 0 10
2  92 29 0 0 10
2  93 29 34 0 10
0

0101000
-114 0 +170 0 *
Ve
1e-07
10 10 1
0 0

0101101
*
Ed
 1e-07 1 1 0
1  24 0 0 10
2  94 30 0 0 10
2  95 16 0 0 10
2  96 31 0 0 10
2  97 31 38 0 10
2  98 32 0 0 10
2  99 32 40 0 10
0

0101000
-112 0 +114 0 *
Ed
 1e-07 1 1 0
1  25 0 0 10
2  100 8 0 0 10
2  101 16 0 0 10
2  102 26 0 0 10
2  103 26 13 0 10
2  104 33 0 0 10
2  105 33 15 0 10
0

0101000
-112 0 +192 0 *
Wi

0101100
-113 0 -111 0 +110 0 +167 0 *
Fa
0  1e-07 16 0

0111000
+109 0 *
Ve
1e-07
0 10 0
0 0

0101101
*
Ed
 1e-07 1 1 0
1  26 0 0 10
2  106 22 0 0 10
2  107 21 0 0 10
2  108 34 0 0 10
2  109 34 32 0 10
2  110 35 0 0 10
2  111 35 34 0 10
0

0101000
-107 0 +149 0 *
Ve
1e-07
10 10 0
0 0

0101101
*
Ed
 1e-07 1 1 0
1  27 0 0 10
2  112 30 0 0 10
2  113 21 0 0 10
2  114 36 0 0 10
2  115 36 38 0 10
2  116 37 0 0 10
2  117 37 40 0 10
0

0101000
-105 0 +107 0 *
Ed
 1e-07 1 1 0
1  28 0 0 10
2  118 8 0 0 10
2  119 21 0 0 10
2  120 27 0 0 10
2  121 27 13 0 10
2  122 38 0 0 10
2  123 38 15 0 10
0

0101000
-105 0 +178 0 *
Wi

0101100
-106 0 -104 0 +103 0 +148 0 *
Fa
0  1e-07 21 0

0111000
+102 0 *
Ve
1.00000000277556e-07
10.1710100716628 10 1.03015368960705
0 0

0101101
*
Ed
 1e-07 1 1 0
1  29 0 0 0.349065850398866
2  124 26 0 0 0.349065850398866
2  125 39 0 0 0.349065850398866
0

0101000
+112 0 -100 0 *
Ed
 1e-07 1 1 0
1  25 0 0 10
2  100 8 0 0 10
2  101 16 0 0 10
2  102 26 0 0 10
2  103 26 13 0 10
2  104 33 0 0 10
2  105 33 15 0 10
0

0101000
+123 13 -100 13 *
Wi

0101100
-99 0 +122 0 -110 0 +98 12 *
Fa
0  1e-07 26 0

0101000
+97 0 *
Ve
1.00000000277556e-07
10.5130302149885 10 0.0904610688211376
0 0

0101101
*
Ed
 1e-07 1 1 0
1  30 0 0 0.349065850398866
2  126 39 0 0 0.349065850398866
2  127 27 0 0 0.349065850398866
0

0101000
+105 0 -95 0 *
Ed
 1e-07 1 1 0
1  28 0 0 10
2  118 8 0 0 10
2  119 21 0 0 10
2  120 27 0 0 10
2  121 27 13 0 10
2  122 38 0 0 10
2  123 38 15 0 10
0

0101000
+121 13 -95 13 *
Wi

0101100
-94 0 +120 0 -103 0 +93 12 *
Fa
0  1e-07 27 0

0101000
+92 0 *
Ed
 1e-07 1 1 0
1  31 0 0 5
2  128 11 0 0 5
2  129 33 0 0 5
0

0101000
+123 42 -192 14 *
Ed
 1e-07 1 1 0
1  32 0 0 5
2  130 11 0 0 5
2  131 38 0 0 5
0

0101000
+121 42 -178 14 *
Wi

0101100
-90 41 +89 41 -119 12 +175 43 *
Fa
0  1e-07 11 41

0101000
+88 0 *
Ve
1.00000000111022e-07
-0.433012701892219 0 1.25
0 0

0101101
*
Ed
 1e-07 1 1 0
1  33 0 0 1.0471975511966
2  132 23 0 0 1.0471975511966
2  133 28 0 0 1.0471975511966
0

0101000
+170 0 -86 0 *
Ve
1.00000000222045e-07
-1.29903810567666 0 0.75
0 0

0101101
*
Ed
 1e-07 1 1 0
1  34 0 0 1.0471975511966
2  134 23 0 0 1.0471975511966
2  135 34 0 0 1.0471975511966
0

0101000
+149 0 -84 0 *
Ed
 1.00000000111022e-07 1 1 0
1  16 0 0 1
2  65 22 0 0 1
2  66 9 0 0 1
2  67 23 0 0 1
2  68 23 32 0 1
2  69 24 0 0 1
2  70 24 34 0 1
0

0101000
+84 32 -86 32 *
Wi

0101100
-85 0 +83 0 -147 0 +82 31 *
Fa
0  1e-07 23 0

0111000
+81 0 *
Ve
1.00000000111022e-07
-0.433012701892219 10 1.25
0 0

0101101
*
Ed
 1e-07 1 1 0
1  35 0 0 1.0471975511966
2  136 28 0 0 1.0471975511966
2  137 40 0 0 1.0471975511966
0

0101000
+114 0 -79 0 *
Ed
 1e-07 1 1 0
1  23 0 0 10
2  88 22 0 0 10
2  89 16 0 0 10
2  90 28 0 0 10
2  91 28 32 0 10
2  92 29 0 0 10
2  93 29 34 0 10
0

0101000
+86 32 -79 32 *
Wi

0101100
-78 0 +85 0 -113 0 +77 31 *
Fa
0  1e-07 28 0

0101000
+76 0 *
Ve
1.00000002331468e-07
10 10.9641814145298 0.649066664678467
0 0

0101101
*
Ed
 1e-07 1 1 0
1  36 0 0 0.698131700797732
2  138 41 0 0 0.698131700797732
2  139 31 0 0 0.698131700797732
0

0101000
+112 0 -74 0 *
Ve
1.00000002331468e-07
0 10.9641814145298 0.649066664678467
0 0

0101101
*
Ed
 1e-07 1 1 0
1  37 0 0 0.698131700797732
2  140 31 0 0 0.698131700797732
2  141 42 0 0 0.698131700797732
0

0101000
+114 0 -72 0 *
Ed
 1e-07 1 1 0
1  24 0 0 10
2  94 30 0 0 10
2  95 16 0 0 10
2  96 31 0 0 10
2  97 31 38 0 10
2  98 32 0 0 10
2  99 32 40 0 10
0

0101000
+72 38 -74 38 *
Wi

0101100
-73 0 +71 0 -111 0 +70 37 *
Fa
0  1e-07 31 0

0111000
+69 0 *
Ve
1.00000000222045e-07
-1.29903810567666 10 0.75
0 0

0101101
*
Ed
 1e-07 1 1 0
1  38 0 0 1.0471975511966
2  142 40 0 0 1.0471975511966
2  143 34 0 0 1.0471975511966
0

0101000
+107 0 -67 0 *
Ed
 1e-07 1 1 0
1  26 0 0 10
2  106 22 0 0 10
2  107 21 0 0 10
2  108 34 0 0 10
2  109 34 32 0 10
2  110 35 0 0 10
2  111 35 34 0 10
0

0101000
+84 32 -67 32 *
Wi

0101100
-66 0 +83 0 -106 0 +65 31 *
Fa
0  1e-07 34 0

0101000
+64 0 *
Ve
1.00000000555112e-07
10 10.3213938048433 -0.116977778440511
0 0

0101101
*
Ed
 1e-07 1 1 0
1  39 0 0 0.698131700797732
2  144 36 0 0 0.698131700797732
2  145 41 0 0 0.698131700797732
0

0101000
+105 0 -62 0 *
Ve
1.00000000555112e-07
0 10.3213938048433 -0.116977778440511
0 0

0101101
*
Ed
 1e-07 1 1 0
1  40 0 0 0.698131700797732
2  146 36 0 0 0.698131700797732
2  147 42 0 0 0.698131700797732
0

0101000
+107 0 -60 0 *
Ed
 1e-07 1 1 0
1  27 0 0 10
2  112 30 0 0 10
2  113 21 0 0 10
2  114 36 0 0 10
2  115 36 38 0 10
2  116 37 0 0 10
2  117 37 40 0 10
0

0101000
+60 38 -62 38 *
Wi

0101100
-61 0 +59 0 -104 0 +58 37 *
Fa
0  1e-07 36 0

0111000
+57 0 *
Ed
 1e-07 1 1 0
1  41 0 0 1
2  148 8 0 0 1
2  149 30 0 0 1
2  150 39 0 0 1
2  151 39 13 0 1
2  152 43 0 0 1
2  153 43 15 0 1
2  154 41 0 0 1
2  155 41 38 0 1
2  156 44 0 0 1
2  157 44 40 0 1
0

0101000
-112 0 +105 0 *
Ed
 1.00000000277556e-07 1 1 0
1  41 0 0 1
2  148 8 0 0 1
2  149 30 0 0 1
2  150 39 0 0 1
2  151 39 13 0 1
2  152 43 0 0 1
2  153 43 15 0 1
0

0101000
+95 13 -100 13 *
Wi

0101100
-99 0 +94 0 -55 0 +54 12 *
Fa
0  1e-07 39 0

0111000
+53 0 *
Ed
 1e-07 1 1 0
1  42 0 0 5
2  158 33 0 0 5
2  159 43 0 0 5
0

0101000
+100 42 -112 14 *
Wi

0101100
-51 41 +90 41 -98 12 +110 43 *
Fa
0  1e-07 33 41

0101000
+50 0 *
Ed
 1e-07 1 1 0
1  43 0 0 5
2  160 38 0 0 5
2  161 43 0 0 5
0

0101000
+95 42 -105 14 *
Wi

0101100
-48 41 +89 41 -93 12 +103 43 *
Fa
0  1e-07 38 41

0111000
+47 0 *
Wi

0101100
-175 0 -110 0 +55 0 +103 0 *
Fa
0  1e-07 8 0

0111000
+45 0 *
Ed
 1e-07 1 1 0
1  44 0 0 5
2  162 24 0 0 5
2  163 29 0 0 5
0

0101000
+86 45 -170 33 *
Ed
 1e-07 1 1 0
1  45 0 0 5
2  164 24 0 0 5
2  165 35 0 0 5
0

0101000
+84 45 -149 33 *
Wi

0101100
-43 44 +42 44 -82 31 +147 46 *
Fa
0  1e-07 24 44

0101000
+41 0 *
Ed
 1e-07 1 1 0
1  46 0 0 1
2  166 22 0 0 1
2  167 30 0 0 1
2  168 42 0 0 1
2  169 42 38 0 1
2  170 45 0 0 1
2  171 45 40 0 1
2  172 40 0 0 1
2  173 40 32 0 1
2  174 46 0 0 1
2  175 46 34 0 1
0

0101000
-114 0 +107 0 *
Ed
 1.00000000111022e-07 1 1 0
1  46 0 0 1
2  166 22 0 0 1
2  167 30 0 0 1
2  168 42 0 0 1
2  169 42 38 0 1
2  170 45 0 0 1
2  171 45 40 0 1
2  172 40 0 0 1
2  173 40 32 0 1
2  174 46 0 0 1
2  175 46 34 0 1
0

0101000
+67 32 -79 32 *
Wi

0101100
-78 0 +66 0 -39 0 +38 31 *
Fa
0  1e-07 40 0

0111000
+37 0 *
Ed
 1e-07 1 1 0
1  47 0 0 5
2  176 29 0 0 5
2  177 46 0 0 5
0

0101000
+79 45 -114 33 *
Wi

0101100
-35 44 +43 44 -77 31 +113 46 *
Fa
0  1e-07 29 44

0101000
+34 0 *
Ed
 1.00000000555112e-07 1 1 0
1  41 0 0 1
2  148 8 0 0 1
2  149 30 0 0 1
2  150 39 0 0 1
2  151 39 13 0 1
2  152 43 0 0 1
2  153 43 15 0 1
2  154 41 0 0 1
2  155 41 38 0 1
2  156 44 0 0 1
2  157 44 40 0 1
0

0101000
+62 38 -74 38 *
Wi

0101100
-73 0 +61 0 -55 0 +32 37 *
Fa
0  1e-07 41 0

0101000
+31 0 *
Ed
 1.00000000555112e-07 1 1 0
1  46 0 0 1
2  166 22 0 0 1
2  167 30 0 0 1
2  168 42 0 0 1
2  169 42 38 0 1
2  170 45 0 0 1
2  171 45 40 0 1
0

0101000
+60 38 -72 38 *
Wi

0101100
-71 0 +59 0 -39 0 +29 37 *
Fa
0  1e-07 42 0

0111000
+28 0 *
Ed
 1e-07 1 1 0
1  48 0 0 5
2  178 44 0 0 5
2  179 32 0 0 5
0

0101000
+74 48 -112 39 *
Ed
 1e-07 1 1 0
1  49 0 0 5
2  180 45 0 0 5
2  181 32 0 0 5
0

0101000
+72 48 -114 39 *
Wi

0101100
-26 47 +25 47 -70 37 +111 49 *
Fa
0  1e-07 32 47

0101000
+24 0 *
Ed
 1e-07 1 1 0
1  50 0 0 5
2  182 35 0 0 5
2  183 46 0 0 5
0

0101000
+67 45 -107 33 *
Wi

0101100
-22 44 +42 44 -65 31 +106 46 *
Fa
0  1e-07 35 44

0101000
+21 0 *
Ed
 1e-07 1 1 0
1  51 0 0 5
2  184 37 0 0 5
2  185 44 0 0 5
0

0101000
+62 48 -105 39 *
Ed
 1e-07 1 1 0
1  52 0 0 5
2  186 37 0 0 5
2  187 45 0 0 5
0

0101000
+60 48 -107 39 *
Wi

0101100
-19 47 +18 47 -58 37 +104 49 *
Fa
0  1e-07 37 47

0101000
+17 0 *
Wi

0101100
-51 41 +48 41 -54 12 +55 43 *
Fa
0  1e-07 43 41

0101000
+15 0 *
Wi

0101100
-147 0 -113 0 +39 0 +106 0 *
Fa
0  1e-07 22 0

0111000
+13 0 *
Wi

0101100
-35 44 +22 44 -38 31 +39 46 *
Fa
0  1e-07 46 44

0101000
+11 0 *
Wi

0101100
-26 47 +19 47 -32 37 +55 49 *
Fa
0  1e-07 44 47

0101000
+9 0 *
Wi

0101100
-25 47 +18 47 -29 37 +39 49 *
Fa
0  1e-07 45 47

0101000
+7 0 *
Wi

0101100
-104 0 -55 0 +111 0 +39 0 *
Fa
0  1e-07 30 0

0111000
+5 0 *
Sh

0101100
-186 0 -179 0 +172 0 +165 0 -161 0 +157 0 -153 0 -150 0 -145 4 +142 0 
+137 0 +134 0 -132 36 -129 0 +127 0 -124 0 +117 0 +115 0 +108 0 -101 0 
+96 0 -91 0 +87 0 -80 0 -75 0 -68 0 +63 0 +56 0 -52 0 +49 0 
-46 0 +44 43 -40 0 +36 0 -33 0 +30 0 -27 0 -23 0 +20 0 +16 0 
-14 0 -12 46 +10 0 +8 0 -6 0 +4 49 *
So

0100000
+3 0 *
Co

1100000
+2 0 *

+1 1  