
CASCADE Topology V1, (c) Matra-Datavision
Locations 55
1
              1               0               0               0 
              0               1               0               0 
              0               0               1               0 
1
              1               0               0               0 
              0               1               0              -5 
              0               0               1              -0 
1
              1               0               0               0 
              0 0.17364817766693 -0.984807753012208 -0.492403876506104 
              0 0.984807753012208 0.17364817766693 -0.413175911166535 
2  2 1 3 1 0
2  3 -1 0
1
0.866025403784439 0.492403876506104 -0.0868240888334652 2.29633391773888 
-0.492403876506104 0.870065232173952 0.0229110052998224 4.67161582559142 
0.0868240888334652 0.0229110052998224 0.995960171610487 -0.823731913556418 
2  6 -1 3 -1 0
1
              1               0               0               5 
              0               1               0               0 
              0               0               1              -0 
2  8 -1 3 -1 0
2  3 1 6 1 0
1
0.866025403784439 0.492403876506104 -0.0868240888334652 2.29633391773888 
-0.492403876506104 0.870065232173952 0.0229110052998224 4.67161582559142 
0.0868240888334652 0.0229110052998224 0.995960171610487 -0.823731913556418 
2  11 1 6 -1 3 -1 0
1
              1               0               0               0 
              0 0.17364817766693 -0.984807753012208 -0.492403876506104 
              0 0.984807753012208 0.17364817766693 -0.413175911166535 
1
0.939692620785908               0 -0.342020143325669 1.11610400712942 
              0               1               0               0 
0.342020143325669               0 0.939692620785908 -3.32974036443555 
2  14 -1 0
1
              1               0               0               5 
              0               1               0               0 
              0               0               1              -0 
2  16 -1 0
2  13 -1 0
2  3 1 13 -1 0
2  6 -1 13 -1 0
2  8 -1 13 -1 0
2  13 1 6 1 0
2  11 1 6 -1 13 -1 0
2  2 -1 0
2  3 -1 2 -1 0
2  6 -1 3 -1 2 -1 0
2  8 -1 3 -1 2 -1 0
2  2 1 3 1 6 1 0
2  11 1 6 -1 3 -1 2 -1 0
2  11 -1 0
2  2 1 3 1 8 1 0
2  3 1 8 1 11 1 0
2  13 1 8 1 11 1 0
1
            0.5               0 0.866025403784439 -1.29903810567666 
              0               1               0               0 
-0.866025403784439               0             0.5            0.75 
2  34 -1 0
1
              1               0               0              -5 
              0               1               0              -0 
              0               0               1               0 
2  36 -1 0
2  2 1 3 1 8 1 11 1 0
2  8 1 11 1 0
1
0.939692620785908               0 -0.342020143325669 1.11610400712942 
              0               1               0               0 
0.342020143325669               0 0.939692620785908 -3.32974036443555 
2  40 1 14 -1 0
1
              1               0               0               0 
              0 0.766044443118978 0.642787609686539 2.66094937365349 
              0 -0.642787609686539 0.766044443118978 6.31089831842488 
2  42 -1 0
1
              1               0               0              -0 
              0               1               0               5 
              0               0               1               0 
2  44 -1 0
2  40 -1 0
2  16 1 40 1 0
1
            0.5               0 0.866025403784439 -1.29903810567666 
              0               1               0               0 
-0.866025403784439               0             0.5            0.75 
2  48 1 34 -1 0
1
              1               0               0               0 
              0 0.766044443118978 0.642787609686539 2.66094937365349 
              0 -0.642787609686539 0.766044443118978 6.31089831842488 
2  50 1 42 -1 0
2  48 -1 0
2  36 1 48 1 0
2  50 -1 0
2  44 1 50 1 0
Curve2ds 104
1 0 0 1 0 
2 0 0 1 0 -0 1 0.5
1 0 5 1 0 
2 0 0 1 0 -0 1 0.49999999999999983
1 0 0 0 1 
1 0.52359877559829882 0 0 1 
1 0 0 1 0 
2 0 0 1 0 -0 1 1.4999999999999998
1 0 0 1 0 
1 0 10 1 0 
1 1.5 0 -1 0 
1 1.4095389311788624 0.51303021498850399 -0.93969262078590843 -0.34202014332566871 
1 -0.5 0 -1 0 
1 -0.086824088833465207 0.49240387650610401 -0.17364817766693044 0.98480775301220813 
1 1.5 0 -1 0 
1 1.299038105676658 0.75 -0.86602540378443871 -0.5 
1 0 5 1 0 
2 0 0 1 0 -0 1 1.4999999999999998
1 1.4999999999999996 0 -1 0 
1 1.2990381056766571 0.75 -0.86602540378443871 -0.5 
1 1 0 0 1 
1 0 0 1 0 
1 0 0 0 1 
1 1.3962634015954636 0 0 1 
1 0 0 0 1 
1 0.52359877559829882 0 0 1 
2 0 0 -1 0 0 1 1.5
1 0 10 1 0 
1 0 10 1 0 
2 0 0 -1 0 0 1 0.5
1 0 0 0 1 
1 0 0 1 0 
1 0 0 0 1 
1 1.3962634015954636 0 0 1 
1 0 0 1 0 
1 0 0 1 0 
1 1.5 0 -1 0 
1 0.75000000000000022 1.299038105676658 -0.50000000000000011 -0.8660254037844386 
1 -0.5 0 -1 0 
1 -0.086824088833465207 0.49240387650610401 -0.17364817766693044 0.98480775301220813 
1 0 0 1 0 
2 0 0 -1 0 0 1 1.5
1 0 0 1 0 
2 0 0 -1 0 0 1 0.5
2 0 0 1 0 -0 1 0.5
1 0 0 1 0 
2 0 0 1 0 -0 1 1.5
1 0 0 1 0 
1 1 0 0 -1 
1 0 0 0 1 
1 0 0 0 1 
1 1.0471975511965976 0 0 1 
1 1 0 0 1 
1 0 10 1 0 
1 0 0 0 1 
1 0.69813170079773179 0 0 1 
1 1 0 0 -1 
1 10 0 0 1 
1 0 0 0 1 
1 0.3490658503988659 0 0 1 
1 0 0 0 -1 
1 0 0 0 1 
1 0 0 0 1 
1 1.0471975511965976 0 0 1 
1 0 0 0 1 
1 0 10 1 0 
1 0 0 0 1 
1 0.69813170079773179 0 0 1 
1 0 0 0 -1 
1 10 0 0 1 
1 0 0 0 1 
1 0.3490658503988659 0 0 1 
1 0 10 1 0 
2 0 0 1 0 -0 1 0.5
2 0 0 1 0 -0 1 1.5
1 0 10 1 0 
2 0 0 1 0 -0 1 0.5
1 0 0 1 0 
2 0 0 1 0 -0 1 1.5
1 0 0 1 0 
1 0 10 1 0 
2 0 0 1 0 -0 1 0.5
2 0 0 -1 0 0 1 1.5
1 0 10 1 0 
1 0 0 1 0 
2 0 0 -1 0 0 1 1.5
2 0 0 1 0 -0 1 1.5
1 0 10 1 0 
1 0 10 1 0 
2 0 0 -1 0 0 1 0.5
1 0 0 1 0 
2 0 0 -1 0 0 1 0.5
1 0 -10 1 0 
1 0 10 1 0 
1 1.5 0 -1 0 
1 1.4095389311788624 0.51303021498850399 -0.93969262078590843 -0.34202014332566871 
1 -0.5 0 -1 0 
1 -0.3830222215594894 0.32139380484326985 -0.76604444311897812 0.64278760968653936 
1 0 -10 1 0 
1 0 0 1 0 
1 -0.5 0 -1 0 
1 -0.3830222215594894 0.32139380484326985 -0.76604444311897812 0.64278760968653936 
1 1.5 0 -1 0 
1 0.75000000000000022 1.299038105676658 -0.50000000000000011 -0.8660254037844386 
Curves 52
2 10 -1.969615506024416 -0.15270364466613917 0 -0.17364817766693039 -0.98480775301220813 0 0.98480775301220813 -0.17364817766693039 1 0 0 0.5
2 10 -2.837856394359068 -5.0767424097271805 0 -0.17364817766693039 -0.98480775301220813 0 0.98480775301220813 -0.17364817766693039 1 0 0 0.49999999999999983
1 10 0 1 0 -1 -0 
2 10 -1.969615506024416 -0.15270364466613923 0 -0.17364817766693039 -0.98480775301220813 0 0.98480775301220813 -0.17364817766693039 1 0 0 1.4999999999999998
1 10 0 0 0 0 1 
2 10 -2.837856394359068 -5.0767424097271805 0 -0.17364817766693039 -0.98480775301220813 0 0.98480775301220813 -0.17364817766693039 1 0 0 1.4999999999999998
1 0 0 1 0 -1 -0 
1 0 0 1 1 0 -0 
1 10 -1.477211629518312 -0.23952773349960435 1 0 -0 
1 10 -2.3454525178529639 -5.1635664985606446 1 0 -0 
1 10 0 0 0 -1 -0 
2 10 0 -0.5 1 0 0 0 0 1 0 -1 0 1.5
2 10 0 -0.5 1 0 0 0 0 1 0 -1 0 0.5
1 10 -0.49240387650610401 -0.41317591116653479 1 0 -0 
1 0 0 0 1 0 -0 
1 0 0 0 0 0 1 
1 10 -1.360644764840756 -5.3372146762275747 1 0 -0 
1 0 0 0 0 -1 -0 
2 0 0 -0.5 1 0 0 0 0 1 0 -1 0 1.5
2 0 0 -0.5 1 0 0 0 0 1 0 -1 0 0.5
2 10 0 1.5 -0 -1 -0 0 0 -1 1 -0 0 0.5
2 10 0 1.5 -0 -1 -0 0 0 -1 1 -0 0 1.5
1 0 0 1 -0 1 0 
1 0 10 1 1 0 -0 
1 10 0 1 -0 1 0 
1 0 0 0 -0 1 0 
1 0 10 0 1 0 -0 
1 10 0 0 -0 1 0 
2 10 10 1.5 -0 -1 -0 0 0 -1 1 -0 0 0.5
2 10 10 1.5 -0 -1 -0 0 0 -1 1 -0 0 1.5
1 10 0 1 1 0 -0 
1 10 0 0 1 0 -0 
2 0 0 1.5 0 1 0 0 0 -1 -1 0 0 0.5
2 0 0 1.5 0 1 0 0 0 -1 -1 0 0 1.5
2 0 10 1.5 0 1 0 0 0 -1 -1 0 0 0.5
2 10 10 -0.5 -1 -0 -0 -0 0 1 0 1 -0 1.5
2 0 10 -0.5 -1 -0 -0 -0 0 1 0 1 -0 1.5
2 0 10 1.5 0 1 0 0 0 -1 -1 0 0 1.5
2 10 10 -0.5 -1 -0 -0 -0 0 1 0 1 -0 0.5
2 0 10 -0.5 -1 -0 -0 -0 0 1 0 1 -0 0.5
1 10 10 0 0 0 1 
1 10 10 1 1 0 -0 
1 10 10 0 1 0 -0 
1 0 0 1 -1 -0 0 
1 0 0 0 -1 -0 0 
1 0 10 0 0 0 1 
1 0 10 1 -1 -0 0 
1 10 10 1 -0 1 0 
1 0 10 1 -0 1 0 
1 0 10 0 -1 -0 0 
1 10 10 0 -0 1 0 
1 0 10 0 -0 1 0 
Polygon3D 0
PolygonOnTriangulations 0
Surfaces 46
2 10 -1.969615506024416 -0.15270364466613917 0 -0.17364817766693039 -0.98480775301220813 0 0.98480775301220813 -0.17364817766693039 1 0 0 0.50000000000000011
1 10 -1.969615506024416 -0.15270364466613923 -0 0.17364817766693039 0.98480775301220813 0 0.98480775301220813 -0.17364817766693039 1 -0 0 
1 10 -2.837856394359068 -5.0767424097271805 -0 0.17364817766693039 0.98480775301220813 0 0.98480775301220813 -0.17364817766693039 1 -0 0 
1 10 0 0 -1 -0 0 0 0 1 -0 1 0 
1 0 0 1 0 0 1 1 0 -0 -0 1 0 
1 10 -1.477211629518312 -0.23952773349960438 -0 0.98480775301220813 -0.17364817766693044 0 -0.17364817766693044 -0.98480775301220813 -1 -0 0 
2 10 -1.969615506024416 -0.15270364466613923 0 -0.17364817766693039 -0.98480775301220813 0 0.98480775301220813 -0.17364817766693039 1 0 0 1.5
1 10 0 0 1 0 -0 0 0 1 0 -1 0 
1 0 0 0 -0 1 0 0 0 1 1 0 -0 
1 10 0 1.5 -0 -1 -0 0 0 -1 1 -0 0 
1 10 0 0 0 -1 0 0 0 1 -1 0 0 
1 10 0 -0.5 1 0 0 -0 -0 -1 0 -1 0 
1 10 -0.49240387650610401 -0.41317591116653479 0 -0.17364817766693044 -0.98480775301220813 0 -0.98480775301220813 0.17364817766693044 -1 -0 0 
1 10 -1.360644764840756 -5.3372146762275747 0 -0.17364817766693044 -0.98480775301220813 0 -0.98480775301220813 0.17364817766693044 -1 -0 0 
1 0 0 0 -1 -0 0 0 0 1 -0 1 0 
1 0 0 1 0 0 1 1 0 -0 -0 1 0 
2 0 0 -0.5 1 0 0 0 0 1 0 -1 0 1.5
1 0 0 0 0 0 1 1 0 -0 -0 1 0 
1 10 -0.49240387650610401 -0.41317591116653479 -0 0.98480775301220813 -0.17364817766693044 0 -0.17364817766693044 -0.98480775301220813 -1 -0 0 
2 0 0 -0.5 1 0 0 0 0 1 0 -1 0 0.5
1 0 0 0 0 0 1 1 0 -0 -0 1 0 
1 0 0 0 1 0 -0 0 0 1 0 -1 0 
1 0 0 1.5 0 1 0 0 0 -1 -1 0 0 
1 0 0 0 -0 1 0 0 0 1 1 0 -0 
1 0 0 -0.5 1 0 0 -0 -0 -1 0 -1 0 
2 10 0 1.5 0 1 0 0 0 -1 1 -0 -0 0.5
2 10 0 1.5 0 1 0 0 0 -1 1 -0 -0 1.5
2 0 0 1.5 0 1 0 0 0 -1 -1 0 0 0.5
1 0 0 1 -0 0 -1 0 1 0 1 0 -0 
1 0 10 0 -0 1 0 0 0 1 1 0 -0 
2 0 10 -0.5 1 0 0 0 0 1 -0 1 -0 1.5
1 0 10 1 -0 0 -1 1 0 -0 0 -1 -0 
1 10 0 1 0 0 1 -0 1 0 -1 -0 0 
2 0 0 1.5 0 1 0 0 0 -1 -1 0 0 1.5
1 0 0 0 -0 0 -1 0 1 0 1 0 -0 
2 0 10 -0.5 1 0 0 0 0 1 -0 1 -0 0.5
1 0 10 0 -0 0 -1 1 0 -0 0 -1 -0 
1 10 0 0 0 0 1 -0 1 0 -1 -0 0 
1 10 10 1.5 -0 -1 -0 0 0 -1 1 -0 0 
1 0 10 1.5 0 1 0 0 0 -1 -1 0 0 
1 10 10 -0.5 -1 -0 -0 0 -0 -1 0 1 -0 
1 0 10 -0.5 -1 -0 -0 0 -0 -1 0 1 -0 
1 10 10 0 0 -1 0 0 0 1 -1 0 0 
1 10 10 0 1 0 -0 0 0 1 0 -1 0 
1 0 10 0 1 0 -0 0 0 1 0 -1 0 
1 0 10 0 -0 1 0 0 0 1 1 0 -0 
Triangulations 0

TShapes 195
Ve
1.00000000256634e-07
10 -1.47721162951831 -0.239527733499604
0 0

0101101
*
Ve
1.00000000993014e-07
10.25 -1.54318124004819 -0.227895511256357
0 0

0101101
*
Ed
 1.00000000256634e-07 1 1 0
1  1 0 0 0.523598775598299
2  1 1 0 0 0.523598775598299
2  2 2 0 0 0.523598775598299
4 C0 1 0 2 0
0

0101000
+195 0 -194 0 *
Ve
1e-07
10 0 1
0 0

0101101
*
Ve
1.00000000993014e-07
10.25 -2.41142212838285 -5.1519342763174
0 0

0101101
*
Ed
 1e-07 1 1 0
1  2 0 0 0.523598775598299
2  3 1 0 0 0.523598775598299
2  4 3 0 0 0.523598775598299
4 C0 1 0 3 0
0

0101000
+192 4 -191 0 *
Ed
 1e-07 1 1 0
1  3 0 0 5
4 C0 4 0 5 0
2  5 1 5 0 5
2  6 1 7 0 5
4 G1 1 5 5 0
4 C0 6 9 4 0
0

0101000
+195 5 -192 2 *
Ed
 1.00000000993014e-07 1 1 0
1  3 0 0 5
4 C0 4 0 5 0
2  5 1 5 0 5
2  6 1 7 0 5
4 G1 1 7 6 12
0

0101000
+194 7 -191 7 *
Wi

0101100
+193 0 -190 0 -189 3 +188 10 *
Fa
0  1e-07 1 0

0101000
+187 0 *
Ve
1.00000000228878e-07
10 -0.492403876506104 -0.413175911166535
0 0

0101101
*
Ve
1.00000001790181e-07
10.75 -0.690312708095751 -0.378279244436792
0 0

0101101
*
Ed
 1.00000000228878e-07 1 1 0
1  4 0 0 0.523598775598299
2  7 7 0 0 0.523598775598299
2  8 2 0 0 0.523598775598299
4 C0 2 0 7 0
0

0101000
+185 0 -184 0 *
Ed
 1.00000000228878e-07 1 1 0
1  5 0 0 1
2  9 8 0 0 1
2  10 9 0 0 1
2  11 10 0 0 1
2  12 10 15 0 1
4 G2 9 0 10 0
4 C0 11 17 8 0
2  13 12 0 0 1
2  14 12 18 0 1
4 C1 12 18 4 19
2  15 2 18 0 1
2  16 2 20 0 1
4 C0 2 18 12 18
4 C0 13 21 4 19
0

0101000
+185 18 -195 18 *
Ed
 1.00000000457757e-07 1 1 0
1  5 0 0 1
2  9 8 0 0 1
2  10 9 0 0 1
2  11 10 0 0 1
2  12 10 15 0 1
4 G2 9 0 10 0
4 C0 11 17 8 0
2  13 12 0 0 1
2  14 12 18 0 1
4 C1 12 18 4 19
2  15 2 18 0 1
2  16 2 20 0 1
4 C1 2 20 13 23
0

0101000
+184 20 -194 20 *
Wi

0101100
+183 0 -193 0 -182 13 +181 22 *
Fa
0  1.00000000228878e-07 2 0

0101000
+180 0 *
Ve
1e-07
10 0 0
0 0

0101101
*
Ve
1.00000001790181e-07
10.75 -1.5585535964304 -5.30231800949783
0 0

0101101
*
Ed
 1e-07 1 1 0
1  6 0 0 0.523598775598299
2  17 7 0 0 0.523598775598299
2  18 3 0 0 0.523598775598299
4 C0 3 0 7 0
0

0101000
+178 4 -177 0 *
Ed
 1e-07 1 1 0
1  5 0 0 1
2  9 8 0 0 1
2  10 9 0 0 1
2  11 10 0 0 1
2  12 10 15 0 1
4 G2 9 0 10 0
4 C0 11 17 8 0
2  13 12 0 0 1
2  14 12 18 0 1
4 C0 12 0 10 0
4 C0 4 24 9 0
2  19 3 25 0 1
2  20 3 26 0 1
4 G2 3 25 9 0
4 C0 14 27 4 24
0

0101000
-192 0 +178 0 *
Ed
 1.00000000444089e-07 1 1 0
1  5 0 0 1
2  9 8 0 0 1
2  10 9 0 0 1
2  11 10 0 0 1
2  12 10 15 0 1
4 G2 9 0 10 0
4 C0 11 17 8 0
2  13 12 0 0 1
2  14 12 18 0 1
4 C0 12 0 10 0
4 C0 4 24 9 0
2  19 3 25 0 1
2  20 3 26 0 1
4 C1 3 26 14 29
0

0101000
+177 26 -191 26 *
Wi

0101100
-190 0 +176 0 -175 4 +174 28 *
Fa
0  1e-07 3 0

0101000
+173 0 *
Ve
1.00000000256634e-07
0 -1.47721162951831 -0.239527733499604
0 0

0101101
*
Ve
1e-07
0 0 1
0 0

0101101
*
Ed
 1e-07 1 1 0
1  7 0 0 5
4 C0 15 0 5 0
0

0101000
+171 5 -170 2 *
Ed
 1e-07 1 1 0
1  8 0 0 10
2  21 9 0 0 10
2  22 16 0 0 10
4 C0 9 0 16 0
2  23 17 0 0 10
2  24 17 18 0 10
4 G1 17 18 5 19
0

0101000
+171 18 -195 18 *
Ed
 1e-07 1 1 0
1  8 0 0 10
2  21 9 0 0 10
2  22 16 0 0 10
4 C0 9 0 16 0
2  23 17 0 0 10
2  24 17 18 0 10
4 G1 17 0 16 0
4 C0 9 0 5 24
0

0101000
-192 0 +170 0 *
Wi

0101100
-189 3 +169 3 -168 13 +167 4 *
Fa
0  1e-07 5 3

0101000
+166 0 *
Ed
 1.00000000256634e-07 1 1 0
1  9 0 0 5
4 C0 6 0 13 0
0

0101000
+194 30 -195 8 *
Ed
 1e-07 1 1 0
1  10 0 0 5
4 C0 6 0 14 0
0

0101000
+191 30 -192 31 *
Wi

0101100
+164 11 -163 11 -188 10 +189 32 *
Fa
0  1e-07 6 11

0101000
+162 0 *
Ed
 1e-07 1 1 0
1  11 0 0 5
4 C0 18 0 4 0
2  25 7 5 0 5
2  26 7 7 0 5
4 G1 7 5 18 0
4 C0 4 0 19 9
0

0101000
+185 5 -178 2 *
Ed
 1.00000001790181e-07 1 1 0
1  11 0 0 5
4 C0 18 0 4 0
2  25 7 5 0 5
2  26 7 7 0 5
4 G1 7 7 19 12
0

0101000
+184 7 -177 7 *
Wi

0101100
+183 0 -176 0 -160 3 +159 10 *
Fa
0  1e-07 7 0

0101000
+158 0 *
Ed
 1e-07 1 1 0
1  12 0 0 1.39626340159546
2  27 12 0 0 1.39626340159546
2  28 17 0 0 1.39626340159546
4 C0 12 0 17 0
0

0101000
+192 0 -195 0 *
Ed
 1e-07 1 1 0
1  13 0 0 1.39626340159546
2  29 20 0 0 1.39626340159546
2  30 12 0 0 1.39626340159546
4 C0 20 0 12 0
0

0101000
+178 0 -185 0 *
Wi

0101100
-156 0 +155 0 -175 0 +182 13 *
Fa
0  1e-07 12 0

0101000
+154 0 *
Ed
 1.00000000228878e-07 1 1 0
1  14 0 0 5
4 C0 13 0 19 0
0

0101000
+184 30 -185 8 *
Wi

0101100
+152 11 -164 11 -181 22 +182 33 *
Fa
0  1.00000000228878e-07 13 11

0101000
+151 0 *
Ve
1e-07
0 0 0
0 0

0101101
*
Ed
 1e-07 1 1 0
1  15 0 0 10
2  31 9 0 0 10
2  32 21 0 0 10
4 C0 9 0 21 0
2  33 20 0 0 10
2  34 20 18 0 10
4 G1 20 0 21 0
4 C0 18 24 9 0
0

0101000
-178 0 +149 0 *
Ed
 1e-07 1 1 0
1  16 0 0 1
2  35 22 0 0 1
2  36 9 0 0 1
4 C0 22 0 9 0
2  37 23 0 0 1
2  38 23 35 0 1
4 G2 23 0 9 0
4 C0 24 37 22 0
2  39 25 0 0 1
2  40 25 18 0 1
4 C0 25 0 23 0
4 C0 15 24 9 0
0

0101000
-170 0 +149 0 *
Wi

0101100
-148 0 -175 0 +167 0 +147 0 *
Fa
0  1e-07 9 0

0111000
+146 0 *
Ed
 1e-07 1 1 0
1  17 0 0 5
4 C0 14 0 19 0
0

0101000
+177 30 -178 31 *
Wi

0101100
-163 11 +144 11 -174 28 +175 38 *
Fa
0  1e-07 14 11

0101000
+143 0 *
Ve
1.00000000228878e-07
0 -0.492403876506104 -0.413175911166535
0 0

0101101
*
Ed
 1e-07 1 1 0
1  18 0 0 5
4 C0 18 0 15 0
0

0101000
+141 5 -149 2 *
Ed
 1.00000000228878e-07 1 1 0
1  16 0 0 1
2  35 22 0 0 1
2  36 9 0 0 1
4 C0 22 0 9 0
2  37 23 0 0 1
2  38 23 35 0 1
4 G2 23 0 9 0
4 C0 24 37 22 0
2  39 25 0 0 1
2  40 25 18 0 1
4 C1 25 18 15 19
0

0101000
+141 18 -171 18 *
Wi

0101100
-169 3 +140 3 -139 13 +147 4 *
Fa
0  1e-07 15 3

0101000
+138 0 *
Ed
 1e-07 1 1 0
1  19 0 0 1.39626340159546
2  41 17 0 0 1.39626340159546
2  42 25 0 0 1.39626340159546
4 C0 25 0 17 0
0

0101000
+170 0 -171 0 *
Wi

0101100
-156 0 +136 0 -167 0 +168 13 *
Fa
0  1e-07 17 0

0101000
+135 0 *
Wi

0101100
-189 3 +160 3 -182 13 +175 4 *
Fa
0  1e-07 4 3

0101000
+133 0 *
Ed
 1e-07 1 1 0
1  15 0 0 10
2  31 9 0 0 10
2  32 21 0 0 10
4 C0 9 0 21 0
2  33 20 0 0 10
2  34 20 18 0 10
4 G1 20 18 18 19
0

0101000
+141 18 -185 18 *
Wi

0101100
-160 3 +140 3 -131 13 +148 4 *
Fa
0  1e-07 18 3

0101000
+130 0 *
Wi

0101100
+152 11 -144 11 -159 10 +160 32 *
Fa
0  1e-07 19 11

0101000
+128 0 *
Ed
 1e-07 1 1 0
1  20 0 0 1.39626340159546
2  43 20 0 0 1.39626340159546
2  44 25 0 0 1.39626340159546
4 C0 20 0 25 0
0

0101000
+149 0 -141 0 *
Wi

0101100
-155 0 +126 0 -148 0 +131 13 *
Fa
0  1e-07 20 0

0101000
+125 0 *
Ve
1.00000000277556e-07
10.1710100716628 0 1.03015368960705
0 0

0101101
*
Ed
 1e-07 1 1 0
1  21 0 0 0.349065850398866
2  45 10 0 0 0.349065850398866
2  46 26 0 0 0.349065850398866
4 C0 10 0 26 0
0

0101000
+192 0 -123 0 *
Ve
1.00000000277556e-07
10.5130302149885 0 0.0904610688211376
0 0

0101101
*
Ed
 1e-07 1 1 0
1  22 0 0 0.349065850398866
2  47 10 0 0 0.349065850398866
2  48 27 0 0 0.349065850398866
4 C0 10 0 27 0
0

0101000
+178 0 -121 0 *
Ed
 1.00000000277556e-07 1 1 0
1  5 0 0 1
2  9 8 0 0 1
2  10 9 0 0 1
2  11 10 0 0 1
2  12 10 15 0 1
4 C1 10 15 11 41
0

0101000
+121 15 -123 15 *
Wi

0101100
-122 0 +120 0 -175 0 +119 14 *
Fa
0  1e-07 10 0

0101000
+118 0 *
Wi

0101100
-136 0 +126 0 -147 0 +139 13 *
Fa
0  1e-07 25 0

0101000
+116 0 *
Ve
1e-07
0 10 1
0 0

0101101
*
Ed
 1e-07 1 1 0
1  23 0 0 10
2  49 22 0 0 10
2  50 16 0 0 10
4 C0 22 0 16 0
2  51 28 0 0 10
2  52 28 35 0 10
4 G1 28 0 16 0
4 C0 29 37 22 0
0

0101000
-114 0 +170 0 *
Ve
1e-07
10 10 1
0 0

0101101
*
Ed
 1e-07 1 1 0
1  24 0 0 10
2  53 30 0 0 10
2  54 16 0 0 10
4 C0 16 0 30 0
2  55 31 0 0 10
2  56 31 43 0 10
4 G1 31 0 16 0
4 C0 30 0 32 45
0

0101000
-112 0 +114 0 *
Ed
 1e-07 1 1 0
1  25 0 0 10
2  57 8 0 0 10
2  58 16 0 0 10
2  59 26 0 0 10
2  60 26 15 0 10
4 G1 16 0 26 0
4 C0 33 17 8 0
0

0101000
-112 0 +192 0 *
Wi

0101100
-113 0 -111 0 +110 0 +167 0 *
Fa
0  1e-07 16 0

0111000
+109 0 *
Ve
1e-07
0 10 0
0 0

0101101
*
Ed
 1e-07 1 1 0
1  26 0 0 10
2  61 22 0 0 10
2  62 21 0 0 10
4 C0 22 0 21 0
2  63 34 0 0 10
2  64 34 35 0 10
4 G1 34 0 21 0
4 C0 35 37 22 0
0

0101000
-107 0 +149 0 *
Ve
1e-07
10 10 0
0 0

0101101
*
Ed
 1e-07 1 1 0
1  27 0 0 10
2  65 30 0 0 10
2  66 21 0 0 10
4 C0 30 0 21 0
2  67 36 0 0 10
2  68 36 43 0 10
4 G1 36 0 21 0
4 C0 37 45 30 0
0

0101000
-105 0 +107 0 *
Ed
 1e-07 1 1 0
1  28 0 0 10
2  69 8 0 0 10
2  70 21 0 0 10
2  71 27 0 0 10
2  72 27 15 0 10
4 G1 21 0 27 0
4 C0 38 17 8 0
0

0101000
-105 0 +178 0 *
Wi

0101100
-106 0 -104 0 +103 0 +148 0 *
Fa
0  1e-07 21 0

0111000
+102 0 *
Ve
1.00000000277556e-07
10.1710100716628 10 1.03015368960705
0 0

0101101
*
Ed
 1e-07 1 1 0
1  29 0 0 0.349065850398866
2  73 26 0 0 0.349065850398866
2  74 39 0 0 0.349065850398866
4 C0 26 0 39 0
0

0101000
+112 0 -100 0 *
Ed
 1e-07 1 1 0
1  25 0 0 10
2  57 8 0 0 10
2  58 16 0 0 10
2  59 26 0 0 10
2  60 26 15 0 10
4 G1 26 15 33 41
0

0101000
+123 15 -100 15 *
Wi

0101100
-99 0 +122 0 -110 0 +98 14 *
Fa
0  1e-07 26 0

0101000
+97 0 *
Ve
1.00000000277556e-07
10.5130302149885 10 0.0904610688211376
0 0

0101101
*
Ed
 1e-07 1 1 0
1  30 0 0 0.349065850398866
2  75 39 0 0 0.349065850398866
2  76 27 0 0 0.349065850398866
4 C0 39 0 27 0
0

0101000
+105 0 -95 0 *
Ed
 1e-07 1 1 0
1  28 0 0 10
2  69 8 0 0 10
2  70 21 0 0 10
2  71 27 0 0 10
2  72 27 15 0 10
4 G1 27 15 38 41
0

0101000
+121 15 -95 15 *
Wi

0101100
-94 0 +120 0 -103 0 +93 14 *
Fa
0  1e-07 27 0

0101000
+92 0 *
Ed
 1e-07 1 1 0
1  31 0 0 5
4 C0 11 0 33 0
0

0101000
+123 46 -192 16 *
Ed
 1e-07 1 1 0
1  32 0 0 5
4 C0 11 0 38 0
0

0101000
+121 46 -178 16 *
Wi

0101100
-90 40 +89 40 -119 14 +175 47 *
Fa
0  1e-07 11 40

0101000
+88 0 *
Ve
1.00000000111022e-07
-0.433012701892219 0 1.25
0 0

0101101
*
Ed
 1e-07 1 1 0
1  33 0 0 1.0471975511966
2  77 23 0 0 1.0471975511966
2  78 28 0 0 1.0471975511966
4 C0 23 0 28 0
0

0101000
+170 0 -86 0 *
Ve
1.00000000222045e-07
-1.29903810567666 0 0.75
0 0

0101101
*
Ed
 1e-07 1 1 0
1  34 0 0 1.0471975511966
2  79 23 0 0 1.0471975511966
2  80 34 0 0 1.0471975511966
4 C0 23 0 34 0
0

0101000
+149 0 -84 0 *
Ed
 1.00000000111022e-07 1 1 0
1  16 0 0 1
2  35 22 0 0 1
2  36 9 0 0 1
4 C0 22 0 9 0
2  37 23 0 0 1
2  38 23 35 0 1
4 C1 23 35 24 49
0

0101000
+84 35 -86 35 *
Wi

0101100
-85 0 +83 0 -147 0 +82 34 *
Fa
0  1e-07 23 0

0101000
+81 0 *
Ve
1.00000000111022e-07
-0.433012701892219 10 1.25
0 0

0101101
*
Ed
 1e-07 1 1 0
1  35 0 0 1.0471975511966
2  81 28 0 0 1.0471975511966
2  82 40 0 0 1.0471975511966
4 C0 28 0 40 0
0

0101000
+114 0 -79 0 *
Ed
 1e-07 1 1 0
1  23 0 0 10
2  49 22 0 0 10
2  50 16 0 0 10
4 C0 22 0 16 0
2  51 28 0 0 10
2  52 28 35 0 10
4 G1 28 35 29 49
0

0101000
+86 35 -79 35 *
Wi

0101100
-78 0 +85 0 -113 0 +77 34 *
Fa
0  1e-07 28 0

0101000
+76 0 *
Ve
1.00000002331468e-07
10 10.9641814145298 0.649066664678467
0 0

0101101
*
Ed
 1e-07 1 1 0
1  36 0 0 0.698131700797732
2  83 41 0 0 0.698131700797732
2  84 31 0 0 0.698131700797732
4 C0 41 0 31 0
0

0101000
+112 0 -74 0 *
Ve
1.00000002331468e-07
0 10.9641814145298 0.649066664678467
0 0

0101101
*
Ed
 1e-07 1 1 0
1  37 0 0 0.698131700797732
2  85 31 0 0 0.698131700797732
2  86 42 0 0 0.698131700797732
4 C0 42 0 31 0
0

0101000
+114 0 -72 0 *
Ed
 1e-07 1 1 0
1  24 0 0 10
2  53 30 0 0 10
2  54 16 0 0 10
4 C0 16 0 30 0
2  55 31 0 0 10
2  56 31 43 0 10
4 G1 31 43 32 51
0

0101000
+72 43 -74 43 *
Wi

0101100
-73 0 +71 0 -111 0 +70 42 *
Fa
0  1e-07 31 0

0101000
+69 0 *
Ve
1.00000000222045e-07
-1.29903810567666 10 0.75
0 0

0101101
*
Ed
 1e-07 1 1 0
1  38 0 0 1.0471975511966
2  87 40 0 0 1.0471975511966
2  88 34 0 0 1.0471975511966
4 C0 34 0 40 0
0

0101000
+107 0 -67 0 *
Ed
 1e-07 1 1 0
1  26 0 0 10
2  61 22 0 0 10
2  62 21 0 0 10
4 C0 22 0 21 0
2  63 34 0 0 10
2  64 34 35 0 10
4 G1 34 35 35 49
0

0101000
+84 35 -67 35 *
Wi

0101100
-66 0 +83 0 -106 0 +65 34 *
Fa
0  1e-07 34 0

0101000
+64 0 *
Ve
1.00000000555112e-07
10 10.3213938048433 -0.116977778440511
0 0

0101101
*
Ed
 1e-07 1 1 0
1  39 0 0 0.698131700797732
2  89 36 0 0 0.698131700797732
2  90 41 0 0 0.698131700797732
4 C0 36 0 41 0
0

0101000
+105 0 -62 0 *
Ve
1.00000000555112e-07
0 10.3213938048433 -0.116977778440511
0 0

0101101
*
Ed
 1e-07 1 1 0
1  40 0 0 0.698131700797732
2  91 36 0 0 0.698131700797732
2  92 42 0 0 0.698131700797732
4 C0 36 0 42 0
0

0101000
+107 0 -60 0 *
Ed
 1e-07 1 1 0
1  27 0 0 10
2  65 30 0 0 10
2  66 21 0 0 10
4 C0 30 0 21 0
2  67 36 0 0 10
2  68 36 43 0 10
4 G1 36 43 37 51
0

0101000
+60 43 -62 43 *
Wi

0101100
-61 0 +59 0 -104 0 +58 42 *
Fa
0  1e-07 36 0

0101000
+57 0 *
Ed
 1e-07 1 1 0
1  41 0 0 1
2  93 8 0 0 1
2  94 30 0 0 1
2  95 39 0 0 1
2  96 39 15 0 1
4 G2 30 0 39 0
4 C0 43 17 8 0
2  97 41 0 0 1
2  98 41 43 0 1
4 C0 41 0 39 0
4 C0 44 45 30 0
0

0101000
-112 0 +105 0 *
Ed
 1.00000000277556e-07 1 1 0
1  41 0 0 1
2  93 8 0 0 1
2  94 30 0 0 1
2  95 39 0 0 1
2  96 39 15 0 1
4 C1 39 15 43 41
0

0101000
+95 15 -100 15 *
Wi

0101100
-99 0 +94 0 -55 0 +54 14 *
Fa
0  1e-07 39 0

0101000
+53 0 *
Ed
 1e-07 1 1 0
1  42 0 0 5
4 C0 33 0 43 0
0

0101000
+100 46 -112 16 *
Wi

0101100
-51 40 +90 40 -98 14 +110 47 *
Fa
0  1e-07 33 40

0101000
+50 0 *
Ed
 1e-07 1 1 0
1  43 0 0 5
4 C0 43 0 38 0
0

0101000
+95 46 -105 16 *
Wi

0101100
-48 40 +89 40 -93 14 +103 47 *
Fa
0  1e-07 38 40

0101000
+47 0 *
Wi

0101100
-175 0 -110 0 +55 0 +103 0 *
Fa
0  1e-07 8 0

0111000
+45 0 *
Ed
 1e-07 1 1 0
1  44 0 0 5
4 C0 24 0 29 0
0

0101000
+86 52 -170 36 *
Ed
 1e-07 1 1 0
1  45 0 0 5
4 C0 24 0 35 0
0

0101000
+84 52 -149 36 *
Wi

0101100
-43 48 +42 48 -82 34 +147 53 *
Fa
0  1e-07 24 48

0101000
+41 0 *
Ed
 1e-07 1 1 0
1  46 0 0 1
2  99 22 0 0 1
2  100 30 0 0 1
4 C0 22 0 30 0
2  101 42 0 0 1
2  102 42 43 0 1
4 G2 42 0 22 0
4 C0 45 45 30 0
2  103 40 0 0 1
2  104 40 35 0 1
4 C0 40 0 42 0
4 C0 22 0 46 37
0

0101000
-114 0 +107 0 *
Ed
 1.00000000111022e-07 1 1 0
1  46 0 0 1
2  99 22 0 0 1
2  100 30 0 0 1
4 C0 22 0 30 0
2  101 42 0 0 1
2  102 42 43 0 1
4 G2 42 0 22 0
4 C0 45 45 30 0
2  103 40 0 0 1
2  104 40 35 0 1
4 C1 40 35 46 49
0

0101000
+67 35 -79 35 *
Wi

0101100
-78 0 +66 0 -39 0 +38 34 *
Fa
0  1e-07 40 0

0101000
+37 0 *
Ed
 1e-07 1 1 0
1  47 0 0 5
4 C0 29 0 46 0
0

0101000
+79 52 -114 36 *
Wi

0101100
-35 48 +43 48 -77 34 +113 53 *
Fa
0  1e-07 29 48

0101000
+34 0 *
Ed
 1.00000000555112e-07 1 1 0
1  41 0 0 1
2  93 8 0 0 1
2  94 30 0 0 1
2  95 39 0 0 1
2  96 39 15 0 1
4 G2 30 0 39 0
4 C0 43 17 8 0
2  97 41 0 0 1
2  98 41 43 0 1
4 C1 41 43 44 51
0

0101000
+62 43 -74 43 *
Wi

0101100
-73 0 +61 0 -55 0 +32 42 *
Fa
0  1e-07 41 0

0101000
+31 0 *
Ed
 1.00000000555112e-07 1 1 0
1  46 0 0 1
2  99 22 0 0 1
2  100 30 0 0 1
4 C0 22 0 30 0
2  101 42 0 0 1
2  102 42 43 0 1
4 C1 42 43 45 51
0

0101000
+60 43 -72 43 *
Wi

0101100
-71 0 +59 0 -39 0 +29 42 *
Fa
0  1e-07 42 0

0101000
+28 0 *
Ed
 1e-07 1 1 0
1  48 0 0 5
4 C0 44 0 32 0
0

0101000
+74 54 -112 44 *
Ed
 1e-07 1 1 0
1  49 0 0 5
4 C0 45 0 32 0
0

0101000
+72 54 -114 44 *
Wi

0101100
-26 50 +25 50 -70 42 +111 55 *
Fa
0  1e-07 32 50

0101000
+24 0 *
Ed
 1e-07 1 1 0
1  50 0 0 5
4 C0 35 0 46 0
0

0101000
+67 52 -107 36 *
Wi

0101100
-22 48 +42 48 -65 34 +106 53 *
Fa
0  1e-07 35 48

0101000
+21 0 *
Ed
 1e-07 1 1 0
1  51 0 0 5
4 C0 37 0 44 0
0

0101000
+62 54 -105 44 *
Ed
 1e-07 1 1 0
1  52 0 0 5
4 C0 37 0 45 0
0

0101000
+60 54 -107 44 *
Wi

0101100
-19 50 +18 50 -58 42 +104 55 *
Fa
0  1e-07 37 50

0101000
+17 0 *
Wi

0101100
-51 40 +48 40 -54 14 +55 47 *
Fa
0  1e-07 43 40

0101000
+15 0 *
Wi

0101100
-147 0 -113 0 +39 0 +106 0 *
Fa
0  1e-07 22 0

0111000
+13 0 *
Wi

0101100
-35 48 +22 48 -38 34 +39 53 *
Fa
0  1e-07 46 48

0101000
+11 0 *
Wi

0101100
-26 50 +19 50 -32 42 +55 55 *
Fa
0  1e-07 44 50

0101000
+9 0 *
Wi

0101100
-25 50 +18 50 -29 42 +39 55 *
Fa
0  1e-07 45 50

0101000
+7 0 *
Wi

0101100
-104 0 -55 0 +111 0 +39 0 *
Fa
0  1e-07 30 0

0111000
+5 0 *
Sh

0101100
-186 0 -179 0 +172 0 +165 0 -161 0 +157 0 -153 0 -150 0 -145 4 +142 0 
+137 0 +134 0 -132 39 -129 0 +127 0 -124 0 +117 0 +115 0 +108 0 -101 0 
+96 0 -91 0 +87 0 -80 0 -75 0 -68 0 +63 0 +56 0 -52 0 +49 0 
-46 0 +44 47 -40 0 +36 0 -33 0 +30 0 -27 0 -23 0 +20 0 +16 0 
-14 0 -12 53 +10 0 +8 0 -6 0 +4 55 *
So

0100000
+3 0 *
Co

1100000
+2 0 *

+1 1  