
CASCADE Topology V1, (c) Matra-Datavision
Locations 9
1
              1               0               0               0 
              0               1               0               0 
              0               0               1               0 
1
              1               0               0               5 
              0               1               0               0 
              0               0               1              -0 
2  2 -1 0
1
0.707106781186548               0 0.707106781186548 3.63603896932107 
              0               1               0               0 
-0.707106781186548               0 0.707106781186548 6.77817459305202 
2  4 -1 0
1
0.707106781186548               0 0.707106781186548 3.63603896932107 
              0               1               0               0 
-0.707106781186548               0 0.707106781186548 6.77817459305202 
2  6 1 4 -1 0
2  6 -1 0
2  2 1 6 1 0
Curve2ds 41
1 0 0 1 0 
1 0 0 1 0 
1 1 0 0 -1 
1 0 0 0 1 
1 0 -10 1 0 
1 0 0 1 0 
1 0 0 0 -1 
1 0 0 0 1 
1 0 0 0 1 
1 0 0 1 0 
1 0 0 1 0 
1 0 10 1 0 
1 1 0 0 1 
1 0 0 1 0 
1 1 0 0 1 
1 0 10 1 0 
1 1 0 0 -1 
1 10 0 0 1 
8 0 10
1 0 10 -0 -1 
1 0 0 0 1 
1 0 10 1 0 
1 0 -10 1 0 
1 0 10 1 0 
1 0 0 0 -1 
1 10 0 0 1 
1 0 0 0 1 
1 0.78539816339744828 0 0 1 
1 0 10 1 0 
2 0 0 1 0 -0 1 2
1 0 0 1 0 
2 0 0 1 0 -0 1 1.5
1 2 0 -1 0 
1 1.4142135623730958 1.4142135623730958 -0.70710678118654757 -0.70710678118654757 
2 0 0 -1 0 0 1 2
1 0 0 1 0 
1 0 0 0 1 
1 0.78539816339744828 0 0 1 
1 0 10 1 0 
2 0 0 -1 0 0 1 1.5
1 -1.5 0 -1 0 
1 -1.0606601717798219 1.0606601717798227 -0.70710678118654757 0.70710678118654757 
Curves 24
1 0 0 0 0 0 1 
1 0 0 1 -0 1 0 
1 0 10 0 0 0 1 
1 0 0 0 -0 1 0 
1 0 0 0 1 0 -0 
1 10 0 0 0 0 1 
1 0 0 1 1 0 -0 
1 0 10 1 1 0 -0 
1 10 0 1 -0 1 0 
1 0 10 0 1 0 -0 
1 10 10 0 0 0 1 
1 10 0 0 -0 1 0 
1 10 0 0.5 0 1 0 
2 10 0 -1 0 1 0 0 -0 1 1 0 -0 2
2 10 0 -1 0 1 0 0 -0 1 1 0 -0 1.5
1 10 0 1 0 0 -1 
2 10 10 -1 0 1 0 0 -0 1 1 0 -0 2
1 10 10 1 0 -1 0 
2 10 10 -1 0 1 0 0 -0 1 1 0 -0 1.5
1 10 10 0.5 0 0 1 
1 10 0 1 1 0 -0 
1 10 0 0 1 0 -0 
1 10 10 1 1 0 -0 
1 10 10 0 1 0 -0 
Polygon3D 0
PolygonOnTriangulations 0
Surfaces 14
1 0 0 0 1 0 -0 0 0 1 0 -1 0 
1 0 0 0 -0 1 0 0 0 1 1 0 -0 
1 0 0 1 0 0 1 1 0 -0 -0 1 0 
1 0 10 0 -0 1 0 0 0 1 1 0 -0 
1 0 0 0 0 0 1 1 0 -0 -0 1 0 
1 10 0 0 1 0 -0 0 0 1 0 -1 0 
1 10 0 -1 0 1 0 0 -0 1 1 0 -0 
2 10 10 -1 -0 -1 -0 0 0 1 1 -0 -0 2
1 10 10 -1 0 1 0 -0 0 -1 1 0 -0 
1 10 0 0 0 0 1 -0 1 0 -1 -0 0 
2 10 0 -1 0 1 0 0 -0 1 1 0 -0 1.5
1 10 0 0 0 -1 0 0 0 1 -1 0 0 
1 10 0 1 0 0 1 -0 1 0 -1 -0 0 
1 10 10 0 0 -1 0 0 0 1 -1 0 0 
Triangulations 0

TShapes 83
Ve
1e-07
0 0 1
0 0

0101101
*
Ve
1e-07
0 0 0
0 0

0101101
*
Ed
 1e-07 1 1 0
1  1 0 0 1
2  1 1 0 0 1
2  2 2 0 0 1
4 C0 1 0 2 0
0

0101000
-83 0 +82 0 *
Ve
1e-07
0 10 1
0 0

0101101
*
Ed
 1e-07 1 1 0
1  2 0 0 10
2  3 1 0 0 10
2  4 3 0 0 10
4 C0 1 0 3 0
0

0101000
-80 0 +83 0 *
Ve
1e-07
0 10 0
0 0

0101101
*
Ed
 1e-07 1 1 0
1  3 0 0 1
2  5 1 0 0 1
2  6 4 0 0 1
4 C0 1 0 4 0
0

0101000
-80 0 +78 0 *
Ed
 1e-07 1 1 0
1  4 0 0 10
2  7 1 0 0 10
2  8 5 0 0 10
4 C0 1 0 5 0
0

0101000
-78 0 +82 0 *
Wi

0101100
-81 0 -79 0 +77 0 +76 0 *
Fa
0  1e-07 1 0

0111000
+75 0 *
Ve
1e-07
10 0 0
0 0

0101101
*
Ed
 1e-07 1 1 0
1  5 0 0 10
2  9 2 0 0 10
2  10 5 0 0 10
4 C0 2 0 5 0
0

0101000
-73 0 +82 0 *
Ve
1e-07
10 0 0.5
0 0

0101101
*
Ed
 1e-07 1 1 0
1  6 0 0 0.5
2  11 6 0 0 0.5
2  12 2 0 0 0.5
4 C0 2 0 6 0
0

0101000
+73 0 -71 0 *
Ve
1.00000000666134e-07
10 0 1
0 0

0101101
*
Ed
 1e-07 1 1 0
1  6 0 0.5 1
2  11 6 0 0.5 1
2  12 2 0 0.5 1
4 CN 2 0 7 0
0

0101000
+71 0 -69 0 *
Ed
 1e-07 1 1 0
1  7 0 0 10
2  13 2 0 0 10
2  14 3 0 0 10
4 C0 2 0 3 0
0

0101000
+83 0 -69 0 *
Wi

0101100
-72 0 -70 0 -68 0 +67 0 +81 0 *
Fa
0  1e-07 2 0

0101000
+66 0 *
Ve
1.00000000666134e-07
10 10 1
0 0

0101101
*
Ed
 1e-07 1 1 0
1  8 0 0 10
2  15 4 0 0 10
2  16 3 0 0 10
4 C0 3 0 4 0
0

0101000
+80 0 -64 0 *
Ed
 1.00000000666134e-07 1 1 0
1  9 0 0 10
2  17 6 0 0 10
2  18 3 0 0 10
2  19 8 0 0 10
4 G1 3 0 8 0
0

0101000
+69 0 -64 0 *
Wi

0101100
-79 0 -63 0 +62 0 +67 0 *
Fa
0  1e-07 3 0

0101000
+61 0 *
Ve
1e-07
10 10 0
0 0

0101101
*
Ed
 1e-07 1 1 0
1  10 0 0 10
2  20 4 0 0 10
2  21 5 0 0 10
4 C0 4 0 5 0
0

0101000
-59 0 +78 0 *
Ve
1e-07
10 10 0.5
0 0

0101101
*
Ed
 1e-07 1 1 0
1  11 0 0 0.5
2  22 6 0 0 0.5
2  23 4 0 0 0.5
4 C0 4 0 6 0
0

0101000
+59 0 -57 0 *
Ed
 1e-07 1 1 0
1  11 0 0.5 1
2  22 6 0 0.5 1
2  23 4 0 0.5 1
4 G2 4 0 9 0
0

0101000
+57 0 -64 0 *
Wi

0101100
-58 0 -56 0 -55 0 +63 0 +77 0 *
Fa
0  1e-07 4 0

0101000
+54 0 *
Ed
 1e-07 1 1 0
1  12 0 0 10
2  24 6 0 0 10
2  25 5 0 0 10
4 C0 5 0 6 0
4 C0 6 0 10 0
4 C0 10 3 6 0
0

0101000
-59 0 +73 0 *
Wi

0101100
-76 0 -58 0 +52 0 +72 0 *
Fa
0  1e-07 5 0

0111000
+51 0 *
Ed
 1e-07 1 1 0
1  13 0 0 10
2  26 11 0 0 10
2  27 11 5 0 10
4 C0 6 0 11 0
0

0101000
+71 0 -57 0 *
Wi

0101100
-70 0 -49 0 +56 0 +52 0 *
Fa
0  1e-07 6 0

0101000
+48 0 *
Ve
1.00000002275957e-07
11.4142135623731 0 0.414213562373096
0 0

0101101
*
Ed
 1e-07 1 1 0
1  14 0 0 0.785398163397448
2  28 8 0 0 0.785398163397448
2  29 7 0 0 0.785398163397448
4 C0 7 0 8 0
0

0101000
+69 0 -46 0 *
Ve
1.000000004996e-07
11.0606601717798 0 0.0606601717798219
0 0

0101101
*
Ed
 1e-07 1 1 0
1  15 0 0 0.785398163397448
2  30 11 0 0 0.785398163397448
2  31 7 0 0 0.785398163397448
4 C0 7 0 11 0
0

0101000
+71 0 -44 0 *
Ed
 1.000000004996e-07 1 1 0
1  16 0 0 0.5
2  32 7 0 0 0.5
2  33 7 5 0 0.5
4 C1 7 5 12 7
0

0101000
+46 5 -44 5 *
Wi

0101100
+45 0 -43 0 +68 0 +42 4 *
Fa
0  1e-07 7 0

0101000
+41 0 *
Ve
1.00000002720046e-07
11.4142135623731 10 0.414213562373096
0 0

0101101
*
Ed
 1e-07 1 1 0
1  17 0 0 0.785398163397448
2  34 9 0 0 0.785398163397448
2  35 8 0 0 0.785398163397448
4 C0 8 0 9 0
0

0101000
+64 0 -39 0 *
Ed
 1e-07 1 1 0
1  18 0 0 10
2  36 8 0 0 10
2  37 8 5 0 10
4 G1 8 5 13 7
0

0101000
+39 5 -46 5 *
Wi

0101100
+38 0 -45 0 +62 0 +37 4 *
Fa
0  1e-07 8 0

0101000
+36 0 *
Ve
1.0000000094369e-07
11.0606601717798 10 0.0606601717798219
0 0

0101101
*
Ed
 1e-07 1 1 0
1  19 0 0 0.785398163397448
2  38 11 0 0 0.785398163397448
2  39 9 0 0 0.785398163397448
4 C0 9 0 11 0
0

0101000
+57 0 -34 0 *
Ed
 1.0000000094369e-07 1 1 0
1  20 0 0 0.5
2  40 9 0 0 0.5
2  41 9 5 0 0.5
4 C1 9 5 14 7
0

0101000
+34 5 -39 5 *
Wi

0101100
+33 0 -38 0 -55 0 +32 4 *
Fa
0  1e-07 9 0

0101000
+31 0 *
Ed
 1.00000000430211e-07 1 1 0
1  13 0 0 10
2  26 11 0 0 10
2  27 11 5 0 10
4 C0 11 5 6 7
0

0101000
+44 5 -34 5 *
Wi

0101100
+43 0 -33 0 -49 0 +29 4 *
Fa
0  1e-07 11 0

0101000
+28 0 *
Ve
1e-07
10 0 1
0 0

0101101
*
Ed
 1e-07 1 1 0
1  21 0 0 5
4 C0 12 0 13 0
0

0101000
+46 8 -26 2 *
Ed
 1e-07 1 1 0
1  22 0 0 5
4 C0 12 0 10 0
0

0101000
+73 0 -73 2 *
Ed
 1e-07 1 1 0
1  6 0 0 0.500000000000001
2  11 6 0 0 0.500000000000001
2  12 2 0 0 0.500000000000001
4 C0 12 0 6 0
0

0101000
+73 0 -44 8 *
Ed
 1e-07 1 1 0
1  6 0 0 1
2  11 6 0 0 1
2  12 2 0 0 1
4 C0 12 3 6 0
0

0101000
-26 0 +73 0 *
Wi

0101100
-25 6 +24 6 -23 6 +42 4 +22 9 *
Fa
0  1e-07 12 6

0101000
+21 0 *
Ve
1e-07
10 10 1
0 0

0101101
*
Ed
 1e-07 1 1 0
1  23 0 0 5
4 C0 13 0 14 0
0

0101000
+39 8 -19 2 *
Ed
 1e-07 1 1 0
1  9 0 0 10
2  17 6 0 0 10
2  18 3 0 0 10
4 C0 13 3 6 0
0

0101000
-19 0 +26 0 *
Wi

0101100
-18 6 +25 6 +37 4 +17 9 *
Fa
0  1e-07 13 6

0101000
+16 0 *
Ed
 1e-07 1 1 0
1  24 0 0 5
4 C0 14 0 10 0
0

0101000
+59 0 -59 2 *
Ed
 1e-07 1 1 0
1  11 0 0 0.500000000000001
2  22 6 0 0 0.500000000000001
2  23 4 0 0 0.500000000000001
4 C0 14 0 6 0
0

0101000
+59 0 -34 8 *
Ed
 1e-07 1 1 0
1  11 0 0 1
2  22 6 0 0 1
2  23 4 0 0 1
4 C0 14 3 6 0
0

0101000
-19 0 +59 0 *
Wi

0101100
-18 6 +14 6 -13 6 -32 4 +12 9 *
Fa
0  1e-07 14 6

0101000
+11 0 *
Wi

0101100
-23 6 -29 4 +13 6 +52 6 *
Fa
0  1e-07 6 6

0101000
+9 0 *
Wi

0101100
-14 0 +24 0 -52 0 +52 2 *
Fa
0  1e-07 10 0

0101000
+7 0 *
Wi

0101100
-22 0 -17 0 +12 0 +52 0 *
Fa
0  1e-07 6 0

0111000
+5 0 *
Sh

0101100
-74 0 -65 0 +60 0 +53 0 -50 0 +47 0 -40 0 -35 0 -30 0 -27 0 
+20 0 +15 0 -10 0 -8 0 -6 6 +4 9 *
So

0100000
+3 0 *
Co

1100000
+2 0 *

+1 1  