
CASCADE Topology V1, (c) Matra-Datavision
Locations 10
1
              1               0               0               0 
              0               1               0               0 
              0               0               1               0 
1
              1               0               0               5 
              0               1               0               0 
              0               0               1              -0 
2  2 -1 0
1
0.707106781186548               0 -0.707106781186548 4.34314575050762 
              0               1               0               0 
0.707106781186548               0 0.707106781186548 -6.48528137423857 
2  4 -1 0
1
0.707106781186548               0 -0.707106781186548 4.34314575050762 
              0               1               0               0 
0.707106781186548               0 0.707106781186548 -6.48528137423857 
2  6 1 4 -1 0
2  6 -1 0
2  4 1 6 -1 0
2  2 1 6 1 0
Curve2ds 62
1 0 0 1 0 
1 0 0 1 0 
1 1 0 0 -1 
1 0 0 0 1 
1 0 -10 1 0 
1 0 0 1 0 
1 0 0 0 -1 
1 0 0 0 1 
1 0 0 0 1 
1 0 0 1 0 
1 0 0 1 0 
1 0 10 1 0 
1 0 0 1 0 
1 0 -5 1 0 
1 1 0 0 1 
1 0 0 1 0 
1 1 0 0 1 
1 0 10 1 0 
1 1 0 0 -1 
1 10 0 0 1 
1 0 0 1 0 
1 0 -5 1 0 
8 0 10
1 0 0 0 1 
1 0 0 0 1 
1 0 10 1 0 
1 0 -10 1 0 
1 0 10 1 0 
1 0 0 1 0 
1 0 -5 1 0 
1 0 0 0 -1 
1 10 0 0 1 
1 0 0 0 1 
1 0.78539816339744828 0 0 1 
1 0.25 -5 0 1 
1 0.5 -10 0 1 
1 0.50000000000000011 -10 0 1 
1 0 10 1 0 
2 0 0 1 0 -0 1 1.5
1 0 0 1 0 
2 0 0 1 0 -0 1 1
1 1.5 0 -1 0 
1 1.0606601717798219 1.060660171779821 -0.70710678118654757 -0.70710678118654757 
1 0.25 5 -1 0 
1 0.50000000000000011 0 1 0 
1 0 10 1 0 
2 0 0 -1 0 0 1 1
1 0 0 0 1 
1 0.78539816339744828 0 0 1 
1 -0.25 5 0 -1 
1 1.0000000000000002 0 0 -1 
2 0 0 -1 0 0 1 1.5
1 0 0 1 0 
1 -1 0 -1 0 
1 -0.70710678118654791 0.70710678118654613 -0.70710678118654757 0.70710678118654757 
1 -0.25 -5 1 0 
1 1.0000000000000002 -10 -1 0 
1 1 0 0 -1 
1 0 0 0 -1 
1 0 0 0 -1 
1 10 0 0 -1 
1 1 0 0 -1 
1 0 0 0 -1 
Curves 24
1 0 0 0 0 0 1 
1 0 0 1 -0 1 0 
1 0 10 0 0 0 1 
1 0 0 0 -0 1 0 
1 0 0 0 1 0 -0 
1 10 0 0 0 0 1 
1 0 0 1 1 0 -0 
1 0 10 1 1 0 -0 
1 10 0 1 -0 1 0 
1 0 10 0 1 0 -0 
1 10 10 0 0 0 1 
1 10 0 0 -0 1 0 
1 10 10 0.5 0 -1 0 
2 10 0 2 -0 -1 -0 0 0 -1 1 -0 0 1.5
2 10 0 2 -0 -1 -0 0 0 -1 1 -0 0 1
1 10 0 0.5 0 0 1 
2 10 10 2 -0 -1 -0 0 0 -1 1 -0 0 1
1 10 0 1 0 1 0 
2 10 10 2 -0 -1 -0 0 0 -1 1 -0 0 1.5
1 10 10 1 0 0 -1 
1 10 0 1 1 0 -0 
1 10 0 0 1 0 -0 
1 10 10 1 1 0 -0 
1 10 10 0 1 0 -0 
Polygon3D 0
PolygonOnTriangulations 0
Surfaces 15
1 0 0 0 1 0 -0 0 0 1 0 -1 0 
1 0 0 0 -0 1 0 0 0 1 1 0 -0 
1 0 0 1 0 0 1 1 0 -0 -0 1 0 
1 0 10 0 -0 1 0 0 0 1 1 0 -0 
1 0 0 0 0 0 1 1 0 -0 -0 1 0 
1 10 0 0 1 0 -0 0 0 1 0 -1 0 
1 10 0 0 0 -1 0 0 0 1 -1 0 0 
1 10 0 1 0 0 1 -0 1 0 -1 -0 0 
2 10 0 2 0 1 0 0 0 -1 1 -0 -0 1
1 10 10 0 0 -1 0 0 0 1 -1 0 0 
2 10 10 2 -0 -1 -0 0 0 -1 1 -0 0 1.5
1 10 5 0.75 -1 -0 -0 0 0 -1 0 -1 0 
1 10 0 2 -0 -1 -0 0 0 -1 1 -0 0 
1 10 10 2 -0 -1 -0 -0 -0 1 1 -0 0 
1 10 0 0 0 0 1 -0 1 0 -1 -0 0 
Triangulations 0

TShapes 80
Ve
1e-07
0 0 1
0 0

0101101
*
Ve
1e-07
0 0 0
0 0

0101101
*
Ed
 1e-07 1 1 0
1  1 0 0 1
2  1 1 0 0 1
2  2 2 0 0 1
0

0101000
-80 0 +79 0 *
Ve
1e-07
0 10 1
0 0

0101101
*
Ed
 1e-07 1 1 0
1  2 0 0 10
2  3 1 0 0 10
2  4 3 0 0 10
0

0101000
-77 0 +80 0 *
Ve
1e-07
0 10 0
0 0

0101101
*
Ed
 1e-07 1 1 0
1  3 0 0 1
2  5 1 0 0 1
2  6 4 0 0 1
0

0101000
-77 0 +75 0 *
Ed
 1e-07 1 1 0
1  4 0 0 10
2  7 1 0 0 10
2  8 5 0 0 10
0

0101000
-75 0 +79 0 *
Wi

0101100
-78 0 -76 0 +74 0 +73 0 *
Fa
0  1e-07 1 0

0111000
+72 0 *
Ve
1e-07
10 0 0
0 0

0101101
*
Ed
 1e-07 1 1 0
1  5 0 0 10
2  9 2 0 0 10
2  10 5 0 0 10
0

0101000
-70 0 +79 0 *
Ve
1.00000000888178e-07
10 0 0.5
0 0

0101101
*
Ed
 1e-07 1 1 0
1  6 0 0 0.5
2  11 6 0 0 0.5
2  12 2 0 0 0.5
2  13 7 0 0 0.5
2  14 7 3 0 0.5
0

0101000
+70 0 -68 0 *
Ve
1e-07
10 0 1
0 0

0101101
*
Ed
 1e-07 1 1 0
1  6 0 0.5 1
2  11 6 0 0.5 1
2  12 2 0 0.5 1
2  13 7 0 0.5 1
2  14 7 3 0.5 1
0

0101000
+68 0 -66 0 *
Ed
 1e-07 1 1 0
1  7 0 0 10
2  15 2 0 0 10
2  16 3 0 0 10
0

0101000
+80 0 -66 0 *
Wi

0101100
-69 0 -67 0 -65 0 +64 0 +78 0 *
Fa
0  1e-07 2 0

0101000
+63 0 *
Ve
1e-07
10 10 1
0 0

0101101
*
Ed
 1e-07 1 1 0
1  8 0 0 10
2  17 4 0 0 10
2  18 3 0 0 10
0

0101000
+77 0 -61 0 *
Ed
 1e-07 1 1 0
1  9 0 0 10
2  19 6 0 0 10
2  20 3 0 0 10
2  21 8 0 0 10
2  22 8 3 0 10
2  23 9 0 0 10
0

0101000
+66 0 -61 0 *
Wi

0101100
-76 0 -60 0 +59 0 +64 0 *
Fa
0  1e-07 3 0

0101000
+58 0 *
Ve
1e-07
10 10 0
0 0

0101101
*
Ed
 1e-07 1 1 0
1  10 0 0 10
2  24 4 0 0 10
2  25 5 0 0 10
0

0101000
-56 0 +75 0 *
Ve
1.00000002220446e-07
10 10 0.5
0 0

0101101
*
Ed
 1e-07 1 1 0
1  11 0 0 0.5
2  26 6 0 0 0.5
2  27 4 0 0 0.5
2  28 10 0 0 0.5
2  29 10 3 0 0.5
0

0101000
+56 0 -54 0 *
Ed
 1e-07 1 1 0
1  11 0 0.5 1
2  26 6 0 0.5 1
2  27 4 0 0.5 1
2  28 10 0 0.5 1
2  29 10 3 0.5 1
0

0101000
+54 0 -61 0 *
Wi

0101100
-55 0 -53 0 -52 0 +60 0 +74 0 *
Fa
0  1e-07 4 0

0101000
+51 0 *
Ed
 1e-07 1 1 0
1  12 0 0 10
2  30 6 0 0 10
2  31 5 0 0 10
0

0101000
-56 0 +70 0 *
Wi

0101100
-73 0 -55 0 +49 0 +69 0 *
Fa
0  1e-07 5 0

0111000
+48 0 *
Ed
 1.00000000444089e-07 1 1 0
1  13 0 0 10
2  32 11 0 0 10
2  33 11 5 0 10
2  34 12 0 0 10
2  35 6 0 0 10
2  36 6 7 0 10
0

0101000
+54 0 -68 0 *
Wi

0101100
-67 0 +46 0 +53 0 +49 0 *
Fa
0  1e-07 6 0

0111000
+45 0 *
Ed
 1e-07 1 1 0
1  14 0 0 0.785398163397448
2  37 11 0 0 0.785398163397448
2  38 13 0 0 0.785398163397448
0

0101000
+68 0 -68 4 *
Ve
1.00000000888178e-07
10.7071067811865 0 1.29289321881345
0 0

0101101
*
Ed
 1e-07 1 1 0
1  15 0 0 0.785398163397448
2  39 9 0 0 0.785398163397448
2  40 13 0 0 0.785398163397448
0

0101000
+66 0 -42 0 *
Ed
 1.00000000888178e-07 1 1 0
1  16 0 0 0.5
2  41 13 0 0 0.5
2  42 13 5 0 0.5
2  43 12 0 0 0.5
2  44 6 7 0 0.5
0

0101000
+68 0 -42 5 *
Wi

0101100
+43 0 -41 0 -65 0 +40 4 *
Fa
0  1e-07 13 0

0101000
+39 0 *
Ve
1.00000002220446e-07
10.7071067811865 10 1.29289321881345
0 0

0101101
*
Ed
 1e-07 1 1 0
1  17 0 0 0.785398163397448
2  45 9 0 0 0.785398163397448
2  46 14 0 0 0.785398163397448
0

0101000
+61 0 -37 0 *
Ed
 1e-07 1 1 0
1  18 0 0 10
2  47 9 0 0 10
2  48 9 5 0 10
2  49 12 0 0 10
2  50 6 7 0 10
0

0101000
+42 5 -37 5 *
Wi

0101100
+41 0 -36 0 -59 0 +35 4 *
Fa
0  1e-07 9 0

0101000
+34 0 *
Ed
 1e-07 1 1 0
1  19 0 0 0.785398163397448
2  51 14 0 0 0.785398163397448
2  52 11 0 0 0.785398163397448
0

0101000
+54 0 -54 4 *
Ed
 1.00000002220446e-07 1 1 0
1  20 0 0 0.5
2  53 14 0 0 0.5
2  54 14 5 0 0.5
2  55 12 0 0 0.5
2  56 6 7 0 0.5
0

0101000
+37 5 -54 0 *
Wi

0101100
+36 0 -32 0 +52 0 +31 4 *
Fa
0  1e-07 14 0

0101000
+30 0 *
Wi

0101100
+32 0 -43 0 -46 0 +46 4 *
Fa
0  1e-07 11 0

0111000
+28 0 *
Ve
1e-07
10 0 1
0 0

0101101
*
Ed
 1e-07 1 1 0
1  21 0 0 5
2  57 7 0 0 5
2  58 8 0 0 5
0

0101000
+42 8 -26 2 *
Ed
 1e-07 1 1 0
1  22 0 0 5
2  59 7 0 0 5
0

0101000
+70 0 -70 2 *
Ed
 1e-07 1 1 0
1  6 0 0 0.500000000000001
2  11 6 0 0 0.500000000000001
2  12 2 0 0 0.500000000000001
2  13 7 0 0 0.500000000000001
2  14 7 3 0 0.500000000000001
0

0101000
+70 0 -68 9 *
Ed
 1e-07 1 1 0
1  6 0 0 1
2  11 6 0 0 1
2  12 2 0 0 1
2  13 7 0 0 1
2  14 7 3 0 1
0

0101000
-26 0 +70 0 *
Wi

0101100
-25 6 +24 6 -23 6 -40 4 +22 10 *
Fa
0  1e-07 7 6

0101000
+21 0 *
Ve
1e-07
10 10 1
0 0

0101101
*
Ed
 1e-07 1 1 0
1  23 0 0 5
2  60 8 0 0 5
2  61 10 0 0 5
0

0101000
+37 8 -19 2 *
Ed
 1e-07 1 1 0
1  9 0 0 10
2  19 6 0 0 10
2  20 3 0 0 10
2  21 8 0 0 10
2  22 8 3 0 10
0

0101000
-19 0 +26 0 *
Wi

0101100
-18 6 +25 6 -35 4 +17 10 *
Fa
0  1e-07 8 6

0101000
+16 0 *
Ed
 1e-07 1 1 0
1  24 0 0 5
2  62 10 0 0 5
0

0101000
+56 0 -56 2 *
Ed
 1e-07 1 1 0
1  11 0 0 0.500000000000001
2  26 6 0 0 0.500000000000001
2  27 4 0 0 0.500000000000001
2  28 10 0 0 0.500000000000001
2  29 10 3 0 0.500000000000001
0

0101000
+56 0 -54 9 *
Ed
 1e-07 1 1 0
1  11 0 0 1
2  26 6 0 0 1
2  27 4 0 0 1
2  28 10 0 0 1
2  29 10 3 0 1
0

0101000
-19 0 +56 0 *
Wi

0101100
-18 6 +14 6 -13 6 +31 4 +12 10 *
Fa
0  1e-07 10 6

0101000
+11 0 *
Wi

0101100
-23 6 +46 4 +13 6 +49 6 *
Fa
0  1e-07 6 6

0111000
+9 0 *
Wi

0101100
-14 0 +24 0 -49 0 +49 2 *
Fa
0  1e-07 15 0

0101000
+7 0 *
Wi

0101100
-22 0 -17 0 +12 0 +49 0 *
Fa
0  1e-07 6 0

0111000
+5 0 *
Sh

0101100
-71 0 -62 0 +57 0 +50 0 -47 0 +44 0 +38 0 +33 0 +29 0 +27 0 
+20 0 +15 0 -10 0 -8 0 -6 6 +4 10 *
So

0100000
+3 0 *
Co

1100000
+2 0 *

+1 1  