
CASCADE Topology V1, (c) Matra-Datavision
Locations 39
1
              1               0               0               0 
              0               1               0               0 
              0               0               1               0 
1
              1               0               0               0 
              0 0.707106781186548 -0.707106781186548 7.17157287525381 
              0 0.707106781186548 0.707106781186548 -5.31370849898476 
1
              1               0               0               0 
              0 1.11022302462516e-16               1 19.556349186104 
              0              -1 1.11022302462516e-16              16 
1
              1               0               0               0 
              0               1               0 7.07106781186548 
              0               0               1 -7.07106781186547 
1
              1               0               0               0 
              0 0.707106781186548 -0.707106781186548 11.7279220613579 
              0 0.707106781186548 0.707106781186548 -16.3137084989848 
2  2 1 3 1 4 1 5 1 0
2  5 -1 0
1
0.707106781186548 -2.51214793389404e-16 0.707106781186548 3.28248557872781 
2.51214793389404e-16               1 1.04056574490646e-16 -3.5527136788005e-15 
-0.707106781186548 1.04056574490646e-16 0.707106781186548 6.92462120245875 
2  8 -1 5 -1 0
1
              1               0               0               5 
              0               1               0               0 
              0               0               1               0 
2  10 -1 5 -1 0
2  2 1 3 1 4 1 0
2  5 1 8 1 0
1
0.707106781186548 -2.51214793389404e-16 0.707106781186548 3.28248557872781 
2.51214793389404e-16               1 1.04056574490646e-16 -3.5527136788005e-15 
-0.707106781186548 1.04056574490646e-16 0.707106781186548 6.92462120245875 
2  14 1 8 -1 5 -1 0
2  2 1 3 1 5 1 0
2  2 -1 0
2  3 -1 2 -1 0
1
              1               0               0               0 
              0 0.707106781186548 -0.707106781186548 11.7279220613579 
              0 0.707106781186548 0.707106781186548 -16.3137084989848 
2  19 -1 3 -1 2 -1 0
2  4 -1 3 -1 2 -1 0
2  5 -1 3 -1 2 -1 0
2  2 1 3 1 19 1 5 -1 3 -1 2 -1 0
2  8 -1 5 -1 3 -1 2 -1 0
2  10 -1 5 -1 3 -1 2 -1 0
2  2 1 3 1 5 1 8 1 0
2  14 1 8 -1 5 -1 3 -1 2 -1 0
2  5 -1 4 -1 3 -1 2 -1 0
2  8 -1 5 -1 4 -1 3 -1 2 -1 0
2  10 -1 5 -1 4 -1 3 -1 2 -1 0
2  2 1 3 1 4 1 5 1 8 1 0
2  14 1 8 -1 5 -1 4 -1 3 -1 2 -1 0
2  14 -1 0
2  2 1 3 1 4 1 5 1 10 1 0
2  5 1 10 1 14 1 0
2  2 1 3 1 0
2  2 1 3 1 5 1 10 1 14 1 0
2  2 1 3 1 4 1 5 1 10 1 14 1 0
2  10 1 14 1 0
Curve2ds 112
1 0 0 1 0 
2 0 0 -1 0 0 1 1.5000000000000011
1 0 10.000000000000002 1 0 
2 0 0 -1 0 0 1 1.4999999999999976
1 1.0000000000000036 -3.6637359812630166e-15 1.1102230246251565e-16 -1 
1 10 0 0 -1 
1 0 0 0 1 
1 0.78539816339744828 0 0 1 
2 0 0 -1 0 0 1 0.50000000000000111
1 0 0 1 0 
1 0 -10 1 0 
1 0 10 1 0 
1 6 0 -1 0 
1 4.2426406871192857 4.2426406871192857 -0.70710678118654757 -0.70710678118654757 
1 -5 -1.7763568394002505e-15 -1 -2.2204460492503131e-16 
1 -1.7763568394002505e-15 4.9999999999999964 -3.8857805861880479e-16 1 
1 6.0000000000000036 0 -1 -2.2204460492503131e-16 
1 4.242640687119291 4.2426406871192857 -0.70710678118654735 -0.70710678118654768 
1 1.1102230246251565e-15 -1.2325951644078309e-31 1 0 
1 0 -10 1 0 
1 4.2426406871192919 4.2426406871192874 -0.70710678118654735 -0.70710678118654768 
1 0 10 1 0 
1 -0.50000000000000111 0 -1 0 
1 -0.35355339059327573 0.35355339059327129 -0.70710678118654746 0.70710678118654757 
2 0 0 -1 0 0 1 0.49999999999999756
1 0 10.000000000000002 1 0 
1 -0.49999999999999756 0 -1 0 
1 -0.35355339059327573 0.35355339059326951 -0.70710678118654746 0.70710678118654757 
1 1 0 0 1 
1 0 10 1 0 
1 0 0 0 1 
1 0.78539816339744828 0 0 1 
1 0 0 0 1 
1 1.5707963267948966 0 0 1 
1 0 0 0 1 
1 0.78539816339744828 0 0 1 
1 0 3.5527136788005009e-15 1 0 
1 0 -9.9999999999999964 1 0 
8 0 10
1 0.78539816339744828 0 0 1 
1 1 0 0 1 
1 1.0000000000000036 -3.6637359812630166e-15 1.1102230246251565e-16 -1 
1 0 0 0 -1 
1 10 0 0 -1 
1 0 0 1.1102230246251565e-16 -1 
1 0 0 0 1 
1 0.78539816339744828 0 0 1 
2 0 0 1 3.5527136788005011e-16 -3.5527136788005011e-16 1 5.0000000000000009
1 0 10 1 0 
1 0 10 1 0 
2 0 0 1 0 -0 1 6.0000000000000027
1 0 0 0 1 
1 0 10 1 0 
1 0 0 0 1 
1 0.78539816339744828 0 0 1 
1 0 0 0 1 
1 1.5707963267948966 0 0 1 
1 0 0 0 1 
1 0.78539816339744828 0 0 1 
1 0 0 1 0 
1 0 -10 1 0 
1 0 -10 1 0 
1 0 0 1 0 
1 6 0 -1 0 
1 4.2426406871192857 4.2426406871192857 -0.70710678118654757 -0.70710678118654757 
1 -5 -1.7763568394002505e-15 -1 -2.2204460492503131e-16 
1 -1.7763568394002505e-15 4.9999999999999964 -3.8857805861880479e-16 1 
1 6.0000000000000036 0 -1 -2.2204460492503131e-16 
1 4.242640687119291 4.2426406871192857 -0.70710678118654735 -0.70710678118654768 
1 1.1102230246251565e-15 -1.2325951644078309e-31 1 0 
1 0 -10 1 0 
1 0 0 1 0 
2 0 0 1 3.5527136788005011e-16 -3.5527136788005011e-16 1 5.0000000000000009
1 4.2426406871192919 4.2426406871192874 -0.70710678118654735 -0.70710678118654768 
1 0 0 1 0 
1 0 0 0 -1 
1 0 0 1.1102230246251565e-16 -1 
8 0 10
1 0.78539816339744828 0 0 1 
1 0 0 0 1 
2 0 0 -1 -2.9605947323337506e-16 -2.9605947323337506e-16 1 5.9999999999999991
1 0 10 1 0 
1 0 10 1 0 
2 0 0 -1 -3.5527136788005011e-16 -3.5527136788005011e-16 1 4.9999999999999991
1 0 0 1 0 
2 0 0 1 0 -0 1 6.0000000000000027
1 0 0 1 0 
2 0 0 -1 -2.9605947323337506e-16 -2.9605947323337506e-16 1 5.9999999999999991
1 0 0 1 0 
2 0 0 -1 -3.5527136788005011e-16 -3.5527136788005011e-16 1 4.9999999999999991
2 0 0 1 0 -0 1 5
1 0 10 1 0 
1 0 10 1 0 
2 0 0 1 0 -0 1 6
1 0 0 1 0 
2 0 0 1 0 -0 1 5
1 0 0 1 0 
2 0 0 1 0 -0 1 6
1 0 0 1 0 
1 0 10 1 0 
1 1 0 0 -1 
1 10 0 0 1 
1 0 0 0 -1 
1 10 0 0 1 
1 1 0 0 -1 
1 0 0 0 1 
1 1 0 0 1 
1 0 0 1 0 
1 0 0 0 -1 
1 0 0 0 1 
1 0 0 0 1 
1 0 0 1 0 
1 0 0 1 0 
1 0 0 1 0 
Curves 36
2 10 25.556349186104043 -0.50000000000000711 0 1 3.5527136788004982e-16 0 -3.5527136788004982e-16 1 1 0 -0 1.5000000000000011
2 10 35.556349186104043 -0.50000000000000355 0 1 3.5527136788004982e-16 0 -3.5527136788004982e-16 1 1 0 -0 1.4999999999999976
1 10 22.020815280171309 2.4644660940672614 0 0.70710678118654768 -0.70710678118654746 
2 10 25.556349186104043 -0.50000000000000711 0 1 3.5527136788004982e-16 0 -3.5527136788004982e-16 1 1 0 -0 0.50000000000000111
1 10 10 0 0 0 1 
2 10 35.556349186104043 -0.50000000000000355 0 1 3.5527136788004982e-16 0 -3.5527136788004982e-16 1 1 0 -0 0.49999999999999756
1 0 10 1 1 0 -0 
1 0 22.020815280171309 2.4644660940672614 0 0.70710678118654768 -0.70710678118654746 
1 10 25.556349186104043 0.999999999999994 1 0 0 
1 10 35.556349186104043 0.999999999999994 1 0 0 
1 10 21.313708498984759 1.7573593128807135 0 0.70710678118654768 -0.70710678118654746 
2 10 25.556349186104047 6 1 0 0 0 -0.70710678118654746 -0.70710678118654757 0 0.70710678118654757 -0.70710678118654746 5.0000000000000009
2 10 25.556349186104047 6 1 0 0 0 -0.70710678118654757 -0.70710678118654746 0 0.70710678118654746 -0.70710678118654757 6.0000000000000027
1 10 25.556349186104043 -5.9952043329758453e-15 1 0 0 
1 0 10 0 1 0 -0 
1 0 10 0 0 0 1 
1 10 35.556349186104043 -5.9952043329758453e-15 1 0 0 
2 0 25.556349186104047 6 1 0 0 0 -0.70710678118654746 -0.70710678118654757 0 0.70710678118654757 -0.70710678118654746 5.0000000000000009
1 0 21.313708498984759 1.7573593128807135 0 0.70710678118654768 -0.70710678118654746 
2 10 17.778174593052022 -1.7781745930520234 -1 -0 -0 0 -0.70710678118654746 0.70710678118654768 -0 0.70710678118654768 0.70710678118654746 5.9999999999999991
2 10 17.778174593052022 -1.7781745930520234 -1 -0 -0 0 -0.70710678118654735 0.70710678118654768 -0 0.70710678118654768 0.70710678118654735 4.9999999999999991
2 0 25.556349186104047 6 1 0 0 0 -0.70710678118654757 -0.70710678118654746 0 0.70710678118654746 -0.70710678118654757 6.0000000000000027
2 0 17.778174593052022 -1.7781745930520234 -1 -0 -0 0 -0.70710678118654746 0.70710678118654768 -0 0.70710678118654768 0.70710678118654746 5.9999999999999991
2 0 17.778174593052022 -1.7781745930520234 -1 -0 -0 0 -0.70710678118654735 0.70710678118654768 -0 0.70710678118654768 0.70710678118654735 4.9999999999999991
2 10 10 6 1 0 0 0 0 -1 -0 1 0 5
2 10 10 6 1 0 0 0 0 -1 -0 1 0 6
2 0 10 6 1 0 0 0 0 -1 -0 1 0 5
2 0 10 6 1 0 0 0 0 -1 -0 1 0 6
1 10 0 0 0 0 1 
1 10 0 1 0 1 0 
1 10 0 0 -0 1 0 
1 0 0 1 -0 1 0 
1 0 0 1 1 0 -0 
1 0 0 0 -0 1 0 
1 0 0 0 1 0 -0 
1 0 0 0 0 0 1 
Polygon3D 0
PolygonOnTriangulations 0
Surfaces 30
2 10 25.556349186104047 -0.50000000000000711 0 1 3.5527136788004982e-16 0 -3.5527136788004982e-16 1 1 0 -0 1.5000000000000036
1 10 25.556349186104043 -0.50000000000000711 0 1 3.5527136788004982e-16 -0 3.5527136788004982e-16 -1 1 0 -0 
1 10 35.556349186104043 -0.50000000000000355 0 1 3.5527136788004982e-16 -0 3.5527136788004982e-16 -1 1 0 -0 
1 10 21.313708498984759 1.7573593128807135 1 -0 0 0 0.70710678118654746 0.70710678118654768 -0 -0.70710678118654768 0.70710678118654746 
1 0 22.020815280171309 2.4644660940672614 0 -0.70710678118654746 -0.70710678118654768 1 0 0 0 -0.70710678118654768 0.70710678118654746 
1 10 25.556349186104047 0.99999999999999645 0 -1.1102230246251565e-16 1 0 1 1.1102230246251565e-16 -1 0 0 
2 10 25.556349186104043 -0.50000000000000711 0 1 3.5527136788004982e-16 0 -3.5527136788004982e-16 1 1 0 -0 0.5
1 10 0 0 1 0 -0 0 0 1 0 -1 0 
1 0 10 0 -0 1 0 0 0 1 1 0 -0 
1 10 10 6 1 0 0 0 0 -1 -0 1 0 
1 10 17.778174593052022 -1.7781745930520234 -1 -0 -0 0 0.70710678118654735 -0.70710678118654768 -0 0.70710678118654768 0.70710678118654735 
1 10 25.556349186104047 6 1 0 0 0 -0.70710678118654757 -0.70710678118654746 0 0.70710678118654746 -0.70710678118654757 
1 10 25.556349186104043 -5.9952043329758453e-15 0 -1 -1.1102230246251565e-16 0 -1.1102230246251565e-16 1 -1 -0 0 
1 10 35.556349186104043 -5.9952043329758453e-15 0 -1 -1.1102230246251565e-16 0 -1.1102230246251565e-16 1 -1 -0 0 
1 0 0 1 0 0 1 1 0 -0 -0 1 0 
2 0 10 6 1 0 0 0 0 -1 -0 1 0 5
2 0 17.778174593052022 -1.7781745930520234 1 0 0 0 -0.70710678118654746 0.70710678118654768 -0 0.70710678118654768 0.70710678118654746 6
2 0 25.556349186104047 6 1 0 0 0 -0.70710678118654746 -0.70710678118654757 0 0.70710678118654757 -0.70710678118654746 5.0000000000000009
1 0 21.313708498984759 1.7573593128807135 1 -0 0 0 0.70710678118654746 0.70710678118654768 -0 -0.70710678118654768 0.70710678118654746 
1 0 21.313708498984759 1.7573593128807135 0 -0.70710678118654746 -0.70710678118654768 1 0 0 0 -0.70710678118654768 0.70710678118654746 
1 10 25.556349186104043 -7.1054273576010019e-15 0 -1.1102230246251565e-16 1 0 1 1.1102230246251565e-16 -1 0 0 
2 0 25.556349186104047 6 1 0 0 0 -0.70710678118654757 -0.70710678118654746 0 0.70710678118654746 -0.70710678118654757 6.0000000000000027
1 0 0 0 0 0 1 1 0 -0 -0 1 0 
2 0 10 6 1 0 0 0 0 -1 -0 1 0 6
2 0 17.778174593052022 -1.7781745930520234 1 0 0 0 -0.70710678118654735 0.70710678118654768 -0 0.70710678118654768 0.70710678118654735 4.9999999999999982
1 0 0 0 1 0 -0 0 0 1 0 -1 0 
1 0 10 6 1 0 0 0 0 -1 -0 1 0 
1 0 17.778174593052022 -1.7781745930520234 -1 -0 -0 0 0.70710678118654735 -0.70710678118654768 -0 0.70710678118654768 0.70710678118654735 
1 0 25.556349186104047 6 1 0 0 0 -0.70710678118654757 -0.70710678118654746 0 0.70710678118654746 -0.70710678118654757 
1 0 0 0 -0 1 0 0 0 1 1 0 -0 
Triangulations 0

TShapes 123
Ve
1e-07
10 25.556349186104 0.999999999999994
0 0

0101101
*
Ve
1.00000000666134e-07
11.0606601717798 25.556349186104 0.560660171779816
0 0

0101101
*
Ed
 1e-07 1 1 0
1  1 0 0 0.785398163397448
2  1 1 0 0 0.785398163397448
2  2 2 0 0 0.785398163397448
4 C0 1 0 2 0
0

0101000
+123 0 -122 0 *
Ve
1e-07
10 10 1
0 0

0101101
*
Ve
1.00000000444089e-07
11.0606601717798 35.556349186104 0.56066017177982
0 0

0101101
*
Ed
 1e-07 1 1 0
1  2 0 0 0.785398163397448
2  3 1 0 0 0.785398163397448
2  4 3 0 0 0.785398163397448
4 C0 1 0 3 0
0

0101000
+120 6 -119 0 *
Ed
 1e-07 1 1 0
1  3 0 0 10
2  5 4 0 0 10
2  6 5 0 0 10
2  7 1 7 0 10
2  8 1 9 0 10
4 G1 1 7 5 0
4 C0 6 11 4 0
0

0101000
+123 7 -120 12 *
Ed
 1.00000000111022e-07 1 1 0
1  3 0 0 10
2  5 4 0 0 10
2  6 5 0 0 10
2  7 1 7 0 10
2  8 1 9 0 10
4 G1 1 9 6 15
0

0101000
+122 9 -119 9 *
Wi

0101100
+121 0 -118 0 -117 5 +116 13 *
Fa
0  1e-07 1 0

0101000
+115 0 *
Ve
1e-07
10 25.556349186104 -5.99520433297585e-15
0 0

0101101
*
Ve
1.00000000666134e-07
10.3535533905933 25.556349186104 -0.146446609406732
0 0

0101101
*
Ed
 1e-07 1 1 0
1  4 0 0 0.785398163397448
2  9 2 0 0 0.785398163397448
2  10 7 0 0 0.785398163397448
4 C0 2 0 7 0
0

0101000
+113 0 -112 0 *
Ed
 1e-07 1 1 0
1  5 0 0 1
2  11 8 0 0 1
2  12 9 0 0 1
2  13 10 0 0 1
2  14 10 17 0 1
2  15 11 17 0 1
2  16 11 18 0 1
2  17 12 18 0 1
2  18 12 20 0 1
2  19 4 18 0 1
2  20 4 21 0 1
2  21 12 22 0 1
2  22 9 23 0 1
2  23 2 22 0 1
2  24 2 24 0 1
4 C0 2 22 12 22
4 C0 13 25 4 18
0

0101000
+113 22 -123 22 *
Ed
 1.00000000666134e-07 1 1 0
1  5 0 0 1
2  11 8 0 0 1
2  12 9 0 0 1
2  13 10 0 0 1
2  14 10 17 0 1
2  15 11 17 0 1
2  16 11 18 0 1
2  17 12 18 0 1
2  18 12 20 0 1
2  19 4 18 0 1
2  20 4 21 0 1
2  21 12 22 0 1
2  22 9 23 0 1
2  23 2 22 0 1
2  24 2 24 0 1
4 C1 2 24 13 27
0

0101000
+112 24 -122 24 *
Wi

0101100
+111 0 -121 0 -110 16 +109 26 *
Fa
0  1e-07 2 0

0101000
+108 0 *
Ve
1e-07
10 10 0
0 0

0101101
*
Ve
1.00000000444089e-07
10.3535533905933 35.556349186104 -0.146446609406728
0 0

0101101
*
Ed
 1e-07 1 1 0
1  6 0 0 0.785398163397448
2  25 3 0 0 0.785398163397448
2  26 7 0 0 0.785398163397448
4 C0 3 0 7 0
0

0101000
+106 6 -105 0 *
Ed
 1e-07 1 1 0
1  5 0 0 1
2  11 8 0 0 1
2  12 9 0 0 1
2  13 10 0 0 1
2  14 10 17 0 1
2  15 11 17 0 1
2  16 11 18 0 1
2  17 12 18 0 1
2  18 12 20 0 1
2  19 4 18 0 1
2  20 4 21 0 1
2  27 3 28 0 1
2  28 3 29 0 1
4 G2 3 28 9 0
4 G2 12 18 11 18
4 C0 14 30 4 21
4 C1 11 17 10 17
4 G2 10 0 8 0
0

0101000
-120 0 +106 0 *
Ed
 1.00000000444089e-07 1 1 0
1  5 0 0 1
2  11 8 0 0 1
2  12 9 0 0 1
2  13 10 0 0 1
2  14 10 17 0 1
2  15 11 17 0 1
2  16 11 18 0 1
2  17 12 18 0 1
2  18 12 20 0 1
2  19 4 18 0 1
2  20 4 21 0 1
2  27 3 28 0 1
2  28 3 29 0 1
4 C1 3 29 14 32
0

0101000
+105 29 -119 29 *
Wi

0101100
-118 0 +104 0 -103 6 +102 31 *
Fa
0  1e-07 3 0

0101000
+101 0 *
Ve
1e-07
0 25.556349186104 0.999999999999994
0 0

0101101
*
Ed
 1e-07 1 1 0
1  7 0 0 10
2  29 9 0 0 10
2  30 15 0 0 10
2  31 16 0 0 10
2  32 16 17 0 10
2  33 17 17 0 10
2  34 17 18 0 10
2  35 18 18 0 10
2  36 18 20 0 10
2  37 5 18 0 10
2  38 5 21 0 10
2  39 18 22 0 10
2  40 9 23 0 10
4 G1 5 18 18 22
0

0101000
+99 22 -123 22 *
Ve
1e-07
0 10 1
0 0

0101101
*
Ed
 1e-07 1 1 0
1  7 0 0 10
2  29 9 0 0 10
2  30 15 0 0 10
2  31 16 0 0 10
2  32 16 17 0 10
2  33 17 17 0 10
2  34 17 18 0 10
2  35 18 18 0 10
2  36 18 20 0 10
2  37 5 18 0 10
2  38 5 21 0 10
4 C0 5 21 9 0
4 G1 18 18 17 18
4 G1 17 17 16 17
4 G1 16 0 15 0
0

0101000
-120 0 +97 0 *
Ed
 1e-07 1 1 0
1  8 0 0 10
2  41 19 0 0 10
2  42 5 0 0 10
4 C0 5 0 19 0
0

0101000
+99 7 -97 12 *
Wi

0101100
-117 5 -98 16 +96 6 +95 5 *
Fa
0  1e-07 5 5

0101000
+94 0 *
Ed
 1e-07 1 1 0
1  9 0 0 5
4 C0 6 0 13 0
0

0101000
+122 33 -123 10 *
Ed
 1e-07 1 1 0
1  10 0 0 5
4 C0 6 0 14 0
0

0101000
+119 33 -120 34 *
Wi

0101100
+92 14 -91 14 -116 13 +117 35 *
Fa
0  1e-07 6 14

0101000
+90 0 *
Ed
 1e-07 1 1 0
1  11 0 0 10
2  43 20 0 0 10
2  44 4 0 0 10
2  45 7 7 0 10
2  46 7 9 0 10
4 G1 7 7 20 0
4 C0 4 0 21 11
0

0101000
+113 7 -106 12 *
Ed
 1e-07 1 1 0
1  11 0 0 10
2  43 20 0 0 10
2  44 4 0 0 10
2  45 7 7 0 10
2  46 7 9 0 10
4 G1 7 9 21 15
0

0101000
+112 9 -105 9 *
Wi

0101100
+111 0 -104 0 -88 5 +87 13 *
Fa
0  1e-07 7 0

0101000
+86 0 *
Ed
 1e-07 1 1 0
1  12 0 0 0.785398163397448
2  47 12 0 0 0.785398163397448
2  48 18 0 0 0.785398163397448
4 C0 12 0 18 0
0

0101000
+120 36 -123 0 *
Ed
 1e-07 1 1 0
1  13 0 0 0.785398163397448
2  49 22 0 0 0.785398163397448
2  50 12 0 0 0.785398163397448
4 C0 12 0 22 0
0

0101000
+106 36 -113 0 *
Wi

0101100
-84 0 -103 36 +110 16 +83 0 *
Fa
0  1e-07 12 0

0101000
+82 0 *
Ed
 1e-07 1 1 0
1  14 0 0 5
4 C0 13 0 21 0
0

0101000
+112 33 -113 10 *
Wi

0101100
+80 14 -92 14 -109 26 +110 37 *
Fa
0  1e-07 13 14

0101000
+79 0 *
Ve
1e-07
0 10 0
0 0

0101101
*
Ed
 1e-07 1 1 0
1  15 0 0 10
2  51 9 0 0 10
2  52 23 0 0 10
2  53 24 0 0 10
2  54 24 17 0 10
2  55 25 17 0 10
2  56 25 18 0 10
2  57 22 18 0 10
2  58 22 20 0 10
2  59 20 18 0 10
2  60 20 21 0 10
4 C0 9 0 20 21
4 G1 22 18 25 18
4 G1 25 17 24 17
4 G1 24 0 23 0
0

0101000
-106 0 +77 0 *
Ed
 1e-07 1 1 0
1  16 0 0 1
2  61 26 0 0 1
2  62 9 0 0 1
2  63 27 0 0 1
2  64 27 17 0 1
2  65 28 17 0 1
2  66 28 18 0 1
2  67 29 18 0 1
2  68 29 20 0 1
2  69 19 18 0 1
2  70 19 21 0 1
4 C0 9 0 19 21
4 G2 29 18 28 18
4 C1 28 17 27 17
4 G2 27 0 26 0
0

0101000
-97 0 +77 0 *
Wi

0101100
-76 0 -103 0 +96 0 +75 0 *
Fa
0  1e-07 9 0

0101000
+74 0 *
Ed
 1e-07 1 1 0
1  17 0 0 5
4 C0 14 0 21 0
0

0101000
+105 33 -106 34 *
Wi

0101100
-91 14 +72 14 -102 31 +103 38 *
Fa
0  1e-07 14 14

0101000
+71 0 *
Ed
 1e-07 1 1 0
1  18 0 0 0.785398163397448
2  71 18 0 0 0.785398163397448
2  72 29 0 0 0.785398163397448
4 C0 18 0 29 0
0

0101000
+97 36 -99 0 *
Wi

0101100
-84 0 -96 36 +98 16 +69 0 *
Fa
0  1e-07 18 0

0101000
+68 0 *
Ve
1e-07
0 25.556349186104 -5.99520433297585e-15
0 0

0101101
*
Ed
 1e-07 1 1 0
1  16 0 0 1
2  61 26 0 0 1
2  62 9 0 0 1
2  63 27 0 0 1
2  64 27 17 0 1
2  65 28 17 0 1
2  66 28 18 0 1
2  67 29 18 0 1
2  68 29 20 0 1
2  69 19 18 0 1
2  70 19 21 0 1
2  73 29 22 0 1
2  74 9 23 0 1
4 C1 19 18 29 22
0

0101000
+66 22 -99 22 *
Ed
 1e-07 1 1 0
1  19 0 0 10
2  75 20 0 0 10
2  76 19 0 0 10
4 C0 19 0 20 0
0

0101000
+66 7 -77 12 *
Wi

0101100
-95 5 -65 16 +75 6 +64 5 *
Fa
0  1e-07 19 5

0101000
+63 0 *
Wi

0101100
-117 5 -110 16 +103 6 +88 5 *
Fa
0  1e-07 4 5

0101000
+61 0 *
Ed
 1e-07 1 1 0
1  15 0 0 10
2  51 9 0 0 10
2  52 23 0 0 10
2  53 24 0 0 10
2  54 24 17 0 10
2  55 25 17 0 10
2  56 25 18 0 10
2  57 22 18 0 10
2  58 22 20 0 10
2  59 20 18 0 10
2  60 20 21 0 10
2  77 22 22 0 10
2  78 9 23 0 10
4 G1 20 18 22 22
0

0101000
+66 22 -113 22 *
Wi

0101100
-88 5 -59 16 +76 6 +64 5 *
Fa
0  1e-07 20 5

0101000
+58 0 *
Wi

0101100
+80 14 -72 14 -87 13 +88 35 *
Fa
0  1e-07 21 14

0101000
+56 0 *
Ed
 1e-07 1 1 0
1  20 0 0 1.5707963267949
2  79 11 0 0 1.5707963267949
2  80 17 0 0 1.5707963267949
4 C0 11 0 17 0
0

0101000
+120 2 -120 36 *
Ed
 1e-07 1 1 0
1  21 0 0 1.5707963267949
2  81 25 0 0 1.5707963267949
2  82 11 0 0 1.5707963267949
4 C0 11 0 25 0
0

0101000
+106 2 -106 36 *
Wi

0101100
-54 0 +53 0 -103 2 +103 36 *
Fa
0  1e-07 11 0

0101000
+52 0 *
Ed
 1e-07 1 1 0
1  22 0 0 0.785398163397448
2  83 22 0 0 0.785398163397448
2  84 29 0 0 0.785398163397448
4 C0 22 0 29 0
0

0101000
+77 36 -66 0 *
Wi

0101100
-83 0 -76 36 +59 16 +50 0 *
Fa
0  1e-07 22 0

0101000
+49 0 *
Ed
 1e-07 1 1 0
1  23 0 0 1.5707963267949
2  85 17 0 0 1.5707963267949
2  86 28 0 0 1.5707963267949
4 C0 17 0 28 0
0

0101000
+97 2 -97 36 *
Wi

0101100
-54 0 +47 0 -96 2 +96 36 *
Fa
0  1e-07 17 0

0101000
+46 0 *
Wi

0101100
-69 0 -75 36 +65 16 +50 0 *
Fa
0  1e-07 29 0

0101000
+44 0 *
Ed
 1e-07 1 1 0
1  24 0 0 1.5707963267949
2  87 25 0 0 1.5707963267949
2  88 28 0 0 1.5707963267949
4 C0 25 0 28 0
0

0101000
+77 2 -77 36 *
Wi

0101100
-53 0 +42 0 -76 2 +76 36 *
Fa
0  1e-07 25 0

0101000
+41 0 *
Ed
 1e-07 1 1 0
1  25 0 0 0.785398163397448
2  89 10 0 0 0.785398163397448
2  90 16 0 0 0.785398163397448
4 C0 10 0 16 0
0

0101000
+120 0 -120 2 *
Ed
 1e-07 1 1 0
1  26 0 0 0.785398163397448
2  91 24 0 0 0.785398163397448
2  92 10 0 0 0.785398163397448
4 C0 10 0 24 0
0

0101000
+106 0 -106 2 *
Wi

0101100
-39 0 +38 0 -103 0 +103 2 *
Fa
0  1e-07 10 0

0101000
+37 0 *
Wi

0101100
-47 0 +42 0 -75 2 +75 36 *
Fa
0  1e-07 28 0

0101000
+35 0 *
Ed
 1e-07 1 1 0
1  27 0 0 0.785398163397448
2  93 16 0 0 0.785398163397448
2  94 27 0 0 0.785398163397448
4 C0 16 0 27 0
0

0101000
+97 0 -97 2 *
Wi

0101100
-39 0 +33 0 -96 0 +96 2 *
Fa
0  1e-07 16 0

0101000
+32 0 *
Ed
 1e-07 1 1 0
1  28 0 0 0.785398163397448
2  95 24 0 0 0.785398163397448
2  96 27 0 0 0.785398163397448
4 C0 24 0 27 0
0

0101000
+77 0 -77 2 *
Wi

0101100
-38 0 +30 0 -76 0 +76 2 *
Fa
0  1e-07 24 0

0101000
+29 0 *
Ve
1e-07
10 0 1
0 0

0101101
*
Ve
1e-07
10 0 0
0 0

0101101
*
Ed
 1e-07 1 1 0
1  29 0 0 1
2  97 8 0 0 1
2  98 30 0 0 1
4 C0 8 0 30 0
0

0101000
-27 0 +26 0 *
Ed
 1e-07 1 1 0
1  30 0 0 10
2  99 8 0 0 10
2  100 15 0 0 10
4 C0 8 0 15 0
0

0101000
-120 0 +27 0 *
Ed
 1e-07 1 1 0
1  31 0 0 10
2  101 8 0 0 10
2  102 23 0 0 10
4 C0 8 0 23 0
0

0101000
-106 0 +26 0 *
Wi

0101100
-25 0 -24 0 +103 0 +23 0 *
Fa
0  1e-07 8 0

0101000
+22 0 *
Wi

0101100
-33 0 +30 0 -75 0 +75 2 *
Fa
0  1e-07 27 0

0101000
+20 0 *
Ve
1e-07
0 0 1
0 0

0101101
*
Ed
 1e-07 1 1 0
1  32 0 0 10
2  103 26 0 0 10
2  104 15 0 0 10
4 C0 15 0 26 0
0

0101000
-97 0 +18 0 *
Ed
 1e-07 1 1 0
1  33 0 0 10
2  105 30 0 0 10
2  106 15 0 0 10
4 C0 15 0 30 0
0

0101000
-27 0 +18 0 *
Wi

0101100
-17 0 -96 0 +24 0 +16 0 *
Fa
0  1e-07 15 0

0101000
+15 0 *
Ve
1e-07
0 0 0
0 0

0101101
*
Ed
 1e-07 1 1 0
1  34 0 0 10
2  107 26 0 0 10
2  108 23 0 0 10
4 C0 23 0 26 0
0

0101000
-77 0 +13 0 *
Ed
 1e-07 1 1 0
1  35 0 0 10
2  109 30 0 0 10
2  110 23 0 0 10
4 C0 23 0 30 0
0

0101000
-26 0 +13 0 *
Wi

0101100
-12 0 -76 0 +23 0 +11 0 *
Fa
0  1e-07 23 0

0101000
+10 0 *
Ed
 1e-07 1 1 0
1  36 0 0 1
2  111 26 0 0 1
2  112 30 0 0 1
4 C0 30 0 26 0
0

0101000
-18 0 +13 0 *
Wi

0101100
-11 0 -25 0 +16 0 +8 0 *
Fa
0  1e-07 30 0

0101000
+7 0 *
Wi

0101100
-8 0 -17 0 +75 0 +12 0 *
Fa
0  1e-07 26 0

0101000
+5 0 *
Sh

0101100
+114 0 +107 0 -100 0 -93 0 +89 0 -85 0 +81 0 +78 0 +73 6 -70 0 
-67 0 -62 0 +60 39 +57 0 -55 0 +51 0 +48 0 -45 0 -43 0 +40 0 
+36 0 -34 0 -31 0 +28 0 +21 0 -19 0 +14 0 -9 0 -6 0 -4 0 
*
So

0100000
+3 0 *
Co

1100000
+2 0 *

+1 1  