
CASCADE Topology V1, (c) Matra-Datavision
Locations 10
1
              1               0               0               0 
              0               1               0               0 
              0               0               1               0 
1
              1               0               0               0 
              0 0.707106781186548 -0.707106781186548 -0.353553390593274 
              0 0.707106781186548 0.707106781186548 -0.146446609406726 
2  2 -1 0
1
              1               0               0               0 
              0 0.707106781186548 -0.707106781186548 -0.353553390593274 
              0 0.707106781186548 0.707106781186548 -0.146446609406726 
2  4 1 2 -1 0
2  4 -1 0
1
              1               0               0              -0 
              0               1               0              -5 
              0               0               1              -0 
2  7 -1 0
2  2 1 4 -1 0
2  7 1 4 1 0
Curve2ds 68
1 0 0 1 0 
1 0 0 1 0 
1 1 0 0 -1 
1 0 0 0 1 
1 0 -10 1 0 
1 0 0 1 0 
1 0 0 0 -1 
1 0 0 0 1 
1 0 0 0 1 
1 0 0 1 0 
1 1 0 0 1 
1 0 0 1 0 
1 0 2 1 0 
1 1 0 0 1 
1 0 10 1 0 
1 1 0 0 -1 
1 10 0 0 1 
8 2 5
1 0 5 -0 -1 
1 0 0 0 1 
1 0 10 1 0 
1 0 -10 1 0 
1 0 10 1 0 
1 0 0 0 -1 
1 10 0 0 1 
1 0 5 1 0 
1 0 0 0 1 
1 0.78539816339744828 0 0 1 
1 0.25 -1.5 0 1 
1 0.5 2 0 1 
1 -1.1102230246251565e-16 -1.5 0 1 
1 0 3 1 0 
2 0 0 1 0 -0 1 1.5
1 0 0 1 0 
2 0 0 1 0 -0 1 1
1 1.5 0 -1 0 
1 1.0606601717798214 1.0606601717798214 -0.70710678118654757 -0.70710678118654757 
1 -0.25 -1.5 1 0 
1 -0.50000000000000022 -1.5 1 0 
1 0 0 1 0 
1 0 10 1 0 
2 0 0 -1 0 0 1 1.5
1 0 0 1 0 
1 0 0 0 1 
1 0.78539816339744828 0 0 1 
1 -0.25 1.5 0 -1 
1 -0.50000000000000022 1.5 0 -1 
1 0 3 1 0 
2 0 0 -1 0 0 1 1
1 0 0 0 -1 
1 3 0 0 -1 
1 1 0 0 -1 
1 0 0 1 0 
1 0 -5 1 0 
1 -0.5 -1.5 1 0 
1 -1 0 -1 0 
1 -0.70710678118654757 0.70710678118654757 -0.70710678118654757 0.70710678118654757 
1 0.25 1.5 -1 0 
1 -1.1102230246251565e-16 1.5 -1 0 
1 1 0 0 -1 
1 0 0 0 -1 
1 -0.5 1.5 0 -1 
1 0 0 1 0 
1 0 -5 1 0 
1 0.5 1.5 -1 0 
1 0 0 1 0 
1 0 -5 1 0 
1 0.5 -1.5 0 1 
1 0 0 0 -1 
Curves 30
1 0 0 0 0 0 1 
1 0 0 1 -0 1 0 
1 0 10 0 0 0 1 
1 0 0 0 -0 1 0 
1 0 0 0 1 0 -0 
1 0 0 1 1 0 -0 
1 2 0 0 0 0 1 
1 0 10 1 1 0 -0 
1 10 0 1 -0 1 0 
1 0 10 0 1 0 -0 
1 10 10 0 0 0 1 
1 10 0 0 -0 1 0 
1 5 0 0 0 0 1 
1 2 0 0.5 1 0 0 
2 2 0 -0.5 1 0 0 0 0 1 0 -1 0 1.5
2 2 0 -0.5 1 0 0 0 0 1 0 -1 0 1
1 2 0 1 0 0 -1 
1 10 0 0 0 0 1 
2 5 0 -0.5 1 0 0 0 0 1 0 -1 0 1.5
1 5 0 1 -1 0 0 
2 5 0 -0.5 1 0 0 0 0 1 0 -1 0 1
1 2 0 1 -0 -1 -0 
1 2 0 0 -0 -1 -0 
1 2 0 1 0 0 -1 
1 5 0 0.5 0 0 1 
1 5 0 1 -0 -1 -0 
1 5 0 1 -1 0 0 
1 5 0 0 0 0 1 
1 2 0 0 1 0 0 
1 5 0 0 -0 -1 -0 
Polygon3D 0
PolygonOnTriangulations 0
Surfaces 16
1 0 0 0 1 0 -0 0 0 1 0 -1 0 
1 0 0 0 -0 1 0 0 0 1 1 0 -0 
1 0 0 1 0 0 1 1 0 -0 -0 1 0 
1 0 10 0 -0 1 0 0 0 1 1 0 -0 
1 0 0 0 0 0 1 1 0 -0 -0 1 0 
1 10 0 0 1 0 -0 0 0 1 0 -1 0 
2 5 0 -0.5 -1 -0 -0 -0 0 1 -0 -1 0 1.5
2 2 0 -0.5 1 0 0 0 0 1 0 -1 0 1
1 3.5 0 0.75 -0 -1 -0 0 0 -1 1 -0 0 
1 3.5 0 0.5 -0 -1 -0 0 0 -1 1 -0 0 
1 2 0 -0.5 1 0 0 0 0 1 0 -1 0 
1 5 0 -0.5 1 0 0 -0 -0 -1 0 -1 0 
1 2 0 1 1 -0 0 0 0 -1 0 1 0 
1 5 0 1 0 0 -1 -1 0 0 0 1 0 
1 5 0 0 -1 0 0 0 0 1 0 1 -0 
1 2 0 0 0 0 1 1 0 -0 -0 1 0 
Triangulations 0

TShapes 97
Ve
1e-07
0 0 1
0 0

0101101
*
Ve
1e-07
0 0 0
0 0

0101101
*
Ed
 1e-07 1 1 0
1  1 0 0 1
2  1 1 0 0 1
2  2 2 0 0 1
0

0101000
-97 0 +96 0 *
Ve
1e-07
0 10 1
0 0

0101101
*
Ed
 1e-07 1 1 0
1  2 0 0 10
2  3 1 0 0 10
2  4 3 0 0 10
0

0101000
-94 0 +97 0 *
Ve
1e-07
0 10 0
0 0

0101101
*
Ed
 1e-07 1 1 0
1  3 0 0 1
2  5 1 0 0 1
2  6 4 0 0 1
0

0101000
-94 0 +92 0 *
Ed
 1e-07 1 1 0
1  4 0 0 10
2  7 1 0 0 10
2  8 5 0 0 10
0

0101000
-92 0 +96 0 *
Wi

0101100
-95 0 -93 0 +91 0 +90 0 *
Fa
0  1e-07 1 0

0111000
+89 0 *
Ve
1e-07
2 0 0
0 0

0101101
*
Ed
 1e-07 1 1 0
1  5 0 0 2
2  9 2 0 0 2
2  10 5 0 0 2
0

0101000
+96 0 -87 0 *
Ve
1e-07
2 0 1
0 0

0101101
*
Ed
 1e-07 1 1 0
1  6 0 0 2
2  11 2 0 0 2
2  12 3 0 0 2
0

0101000
+97 0 -85 0 *
Ve
1.00000000111022e-07
2 0 0.5
0 0

0101101
*
Ed
 1e-07 1 1 0
1  7 0 0 0.5
4 CN 2 0 2 0
2  13 2 0 0 0.5
0

0101000
+87 0 -83 0 *
Ed
 1e-07 1 1 0
1  7 0 0.5 1
4 CN 2 0 2 0
2  13 2 0 0.5 1
0

0101000
+83 0 -85 0 *
Wi

0101100
-86 0 +84 0 +95 0 -82 0 -81 0 *
Fa
0  1e-07 2 0

0101000
+80 0 *
Ve
1e-07
10 10 1
0 0

0101101
*
Ed
 1e-07 1 1 0
1  8 0 0 10
2  14 4 0 0 10
2  15 3 0 0 10
0

0101000
-78 0 +94 0 *
Ve
1e-07
10 0 1
0 0

0101101
*
Ed
 1e-07 1 1 0
1  9 0 0 10
2  16 6 0 0 10
2  17 3 0 0 10
0

0101000
-78 0 +76 0 *
Ve
1e-07
5 0 1
0 0

0101101
*
Ed
 1e-07 1 1 0
1  6 0 2 5
2  11 2 0 2 5
2  12 3 0 2 5
2  18 7 0 2 5
0

0101000
+85 0 -74 0 *
Ed
 1e-07 1 1 0
1  6 0 5 10
2  11 2 0 5 10
2  12 3 0 5 10
0

0101000
+74 0 -76 0 *
Wi

0101100
-93 0 -77 0 +75 0 +84 0 +73 0 +72 0 *
Fa
0  1e-07 3 0

0101000
+71 0 *
Ve
1e-07
10 10 0
0 0

0101101
*
Ed
 1e-07 1 1 0
1  10 0 0 10
2  19 4 0 0 10
2  20 5 0 0 10
0

0101000
-69 0 +92 0 *
Ed
 1e-07 1 1 0
1  11 0 0 1
2  21 6 0 0 1
2  22 4 0 0 1
0

0101000
-78 0 +69 0 *
Wi

0101100
-68 0 -67 0 +77 0 +91 0 *
Fa
0  1e-07 4 0

0111000
+66 0 *
Ve
1e-07
10 0 0
0 0

0101101
*
Ed
 1e-07 1 1 0
1  12 0 0 10
2  23 6 0 0 10
2  24 5 0 0 10
0

0101000
-69 0 +64 0 *
Ve
1e-07
5 0 0
0 0

0101101
*
Ed
 1e-07 1 1 0
1  5 0 2 5
2  9 2 0 2 5
2  10 5 0 2 5
0

0101000
+87 0 -62 0 *
Ed
 1e-07 1 1 0
1  5 0 5 10
2  9 2 0 5 10
2  10 5 0 5 10
0

0101000
+62 0 -64 0 *
Wi

0101100
-90 0 -68 0 +63 0 +86 0 +61 0 +60 0 *
Fa
0  1e-07 5 0

0101000
+59 0 *
Ve
1.00000000314018e-07
5 0 0.5
0 0

0101101
*
Ed
 1e-07 1 1 0
1  13 0 0 0.5
4 CN 2 0 2 0
2  25 2 0 0 0.5
0

0101000
+62 0 -57 0 *
Ed
 1e-07 1 1 0
1  14 0 0 3
2  26 8 0 0 3
2  27 8 3 0 3
2  28 9 0 0 3
2  29 2 0 0 3
2  30 10 5 0 3
0

0101000
+83 0 -57 0 *
Wi

0101100
+82 0 -61 0 -56 0 +55 0 *
Fa
0  1e-07 2 0

0111000
+54 0 *
Ve
1.00000000111022e-07
2 -1.06066017177982 0.560660171779821
0 0

0101101
*
Ed
 1e-07 1 1 0
1  15 0 0 0.785398163397448
2  31 7 0 0 0.785398163397448
2  32 11 0 0 0.785398163397448
0

0101000
+85 0 -52 0 *
Ed
 1e-07 1 1 0
1  16 0 0 0.785398163397448
2  33 8 0 0 0.785398163397448
2  34 11 0 0 0.785398163397448
0

0101000
+83 0 -83 2 *
Ed
 1.00000000111022e-07 1 1 0
1  17 0 0 0.5
2  35 11 0 0 0.5
2  36 11 3 0 0.5
2  37 9 0 0 0.5
2  38 10 5 0 0.5
0

0101000
+52 3 -83 0 *
Wi

0101100
+51 0 -50 0 +81 0 +49 2 *
Fa
0  1e-07 11 0

0101000
+48 0 *
Ed
 1e-07 1 1 0
1  18 0 0 1
2  39 6 0 0 1
2  40 2 0 0 1
0

0101000
-76 0 +64 0 *
Wi

0101100
-46 0 -75 0 +67 0 +63 0 *
Fa
0  1e-07 6 0

0111000
+45 0 *
Ve
1.00000000314018e-07
5 -1.06066017177982 0.560660171779821
0 0

0101101
*
Ed
 1e-07 1 1 0
1  19 0 0 0.785398163397448
2  41 12 0 0 0.785398163397448
2  42 7 0 0 0.785398163397448
0

0101000
+74 0 -43 0 *
Ed
 1e-07 1 1 0
1  20 0 0 3
2  43 7 0 0 3
2  44 7 3 0 3
2  45 9 0 0 3
2  46 10 5 0 3
0

0101000
+43 3 -52 3 *
Wi

0101100
+42 0 -51 0 +73 0 +41 2 *
Fa
0  1e-07 7 0

0101000
+40 0 *
Ed
 1e-07 1 1 0
1  13 0 0.5 1
4 CN 2 0 2 0
2  25 2 0 0.5 1
0

0101000
+57 0 -74 0 *
Wi

0101100
+72 0 -46 0 -60 0 +56 0 +38 0 *
Fa
0  1e-07 2 0

0101000
+37 0 *
Ed
 1e-07 1 1 0
1  21 0 0 0.785398163397448
2  47 8 0 0 0.785398163397448
2  48 12 0 0 0.785398163397448
0

0101000
+57 0 -57 2 *
Wi

0101100
+50 0 -35 0 -55 0 +55 2 *
Fa
0  1e-07 8 0

0111000
+34 0 *
Ve
1e-07
2 0 1
0 0

0101101
*
Ed
 1e-07 1 1 0
1  22 0 0 5
2  49 13 0 0 5
2  50 14 0 0 5
0

0101000
+52 6 -32 7 *
Ve
1e-07
2 0 0
0 0

0101101
*
Ed
 1e-07 1 1 0
1  23 0 0 5
2  51 13 0 0 5
0

0101000
+30 0 -30 7 *
Ed
 1e-07 1 1 0
1  24 0 0.5 1
2  52 13 0 0.5 1
2  53 13 8 0.5 1
2  54 10 0 0.5 1
0

0101000
+83 9 -30 0 *
Ed
 1e-07 1 1 0
1  24 0 0 1
2  52 13 0 0 1
2  53 13 8 0 1
2  54 10 0 0 1
0

0101000
+32 0 -30 0 *
Wi

0101100
+31 4 -29 4 -49 2 -28 4 +27 10 *
Fa
0  1e-07 13 4

0101000
+26 0 *
Ed
 1.00000000314018e-07 1 1 0
1  25 0 0 0.5
2  55 12 0 0 0.5
2  56 12 3 0 0.5
2  57 9 0 0 0.5
2  58 10 5 0 0.5
0

0101000
+57 0 -43 3 *
Wi

0101100
+35 0 -42 0 -38 0 +24 2 *
Fa
0  1e-07 12 0

0101000
+23 0 *
Ve
1e-07
5 0 1
0 0

0101101
*
Ed
 1e-07 1 1 0
1  26 0 0 5
2  59 15 0 0 5
2  60 14 0 0 5
0

0101000
+43 6 -21 7 *
Ed
 1e-07 1 1 0
1  27 0 0 3
2  61 10 0 0 3
2  62 14 0 0 3
2  63 14 8 0 3
0

0101000
+21 0 -32 0 *
Wi

0101100
+20 4 -31 4 -41 2 +19 10 *
Fa
0  1e-07 14 4

0101000
+18 0 *
Ve
1e-07
5 0 0
0 0

0101101
*
Ed
 1e-07 1 1 0
1  28 0 0 0.5
2  64 10 0 0 0.5
2  65 15 0 0 0.5
2  66 15 8 0 0.5
0

0101000
+16 0 -57 9 *
Ed
 1e-07 1 1 0
1  29 0 0 3
2  67 10 0 0 3
0

0101000
+30 0 -16 0 *
Wi

0101100
+28 4 -55 2 +15 4 +14 4 *
Fa
0  1e-07 10 4

0111000
+13 0 *
Ed
 1e-07 1 1 0
1  30 0 0 5
2  68 15 0 0 5
0

0101000
+16 0 -16 7 *
Wi

0101100
+29 0 -11 0 -14 0 +14 7 *
Fa
0  1e-07 16 0

0111000
+10 0 *
Ed
 1e-07 1 1 0
1  28 0 0 1
2  64 10 0 0 1
2  65 15 0 0 1
2  66 15 8 0 1
0

0101000
+16 0 -21 0 *
Wi

0101100
+14 0 +8 0 +19 0 +27 0 *
Fa
0  1e-07 10 0

0111000
+7 0 *
Wi

0101100
+11 4 -20 4 -15 4 -24 2 +8 10 *
Fa
0  1e-07 15 4

0101000
+5 0 *
Sh

0101100
-88 0 -79 0 +70 0 +65 0 -58 0 -53 0 -47 0 +44 0 -39 0 -36 0 
-33 0 -25 0 -22 0 -17 0 -12 0 -9 4 +6 10 -4 0 *
So

0100000
+3 0 *
Co

1100000
+2 0 *

+1 1  