
CASCADE Topology V1, (c) Matra-Datavision
Locations 9
1
              1               0               0               0 
              0               1               0               0 
              0               0               1               0 
1
              1               0               0               0 
              0 0.707106781186548 -0.707106781186548 -0.353553390593274 
              0 0.707106781186548 0.707106781186548 -0.146446609406726 
2  2 -1 0
1
              1               0               0               0 
              0 0.707106781186548 -0.707106781186548 -0.353553390593274 
              0 0.707106781186548 0.707106781186548 -0.146446609406726 
2  4 1 2 -1 0
2  4 -1 0
1
              1               0               0              -0 
              0               1               0              -5 
              0               0               1              -0 
2  7 1 4 1 0
2  7 -1 0
Curve2ds 41
1 0 0 1 0 
1 0 0 1 0 
1 1 0 0 -1 
1 0 0 0 1 
1 0 -10 1 0 
1 0 0 1 0 
1 0 0 0 -1 
1 0 0 0 1 
1 0 0 0 1 
1 0 0 1 0 
1 1 0 0 1 
1 0 0 1 0 
1 1 0 0 1 
1 0 10 1 0 
1 1 0 0 -1 
1 10 0 0 1 
8 2 5
1 0 5 -0 -1 
1 0 0 0 1 
1 0 10 1 0 
1 0 -10 1 0 
1 0 10 1 0 
1 0 0 0 -1 
1 10 0 0 1 
1 0 0 0 1 
1 0.78539816339744828 0 0 1 
1 0 3 1 0 
2 0 0 1 0 -0 1 1.5
1 0 0 1 0 
2 0 0 1 0 -0 1 1
1 1.5 0 -1 0 
1 1.0606601717798214 1.0606601717798214 -0.70710678118654757 -0.70710678118654757 
1 0 0 1 0 
1 0 10 1 0 
2 0 0 -1 0 0 1 1.5
1 0 0 1 0 
1 0 0 0 1 
1 0.78539816339744828 0 0 1 
1 0 3 1 0 
2 0 0 -1 0 0 1 1
1 -1 0 -1 0 
1 -0.70710678118654757 0.70710678118654757 -0.70710678118654757 0.70710678118654757 
Curves 30
1 0 0 0 0 0 1 
1 0 0 1 -0 1 0 
1 0 10 0 0 0 1 
1 0 0 0 -0 1 0 
1 0 0 0 1 0 -0 
1 0 0 1 1 0 -0 
1 2 0 0 0 0 1 
1 0 10 1 1 0 -0 
1 10 0 1 -0 1 0 
1 0 10 0 1 0 -0 
1 10 10 0 0 0 1 
1 10 0 0 -0 1 0 
1 5 0 0 0 0 1 
1 2 0 0.5 1 0 0 
2 2 0 -0.5 1 0 0 0 0 1 0 -1 0 1.5
2 2 0 -0.5 1 0 0 0 0 1 0 -1 0 1
1 2 0 1 0 0 -1 
1 10 0 0 0 0 1 
2 5 0 -0.5 1 0 0 0 0 1 0 -1 0 1.5
1 5 0 1 -1 0 0 
2 5 0 -0.5 1 0 0 0 0 1 0 -1 0 1
1 2 0 1 -0 -1 -0 
1 2 0 0 -0 -1 -0 
1 2 0 1 0 0 -1 
1 5 0 0.5 0 0 1 
1 5 0 1 -0 -1 -0 
1 5 0 1 -1 0 0 
1 5 0 0 0 0 1 
1 2 0 0 1 0 0 
1 5 0 0 -0 -1 -0 
Polygon3D 0
PolygonOnTriangulations 0
Surfaces 15
1 0 0 0 1 0 -0 0 0 1 0 -1 0 
1 0 0 0 -0 1 0 0 0 1 1 0 -0 
1 0 0 1 0 0 1 1 0 -0 -0 1 0 
1 0 10 0 -0 1 0 0 0 1 1 0 -0 
1 0 0 0 0 0 1 1 0 -0 -0 1 0 
1 2 0 -0.5 1 0 0 0 0 1 0 -1 0 
1 10 0 0 1 0 -0 0 0 1 0 -1 0 
2 5 0 -0.5 -1 -0 -0 -0 0 1 -0 -1 0 1.5
2 2 0 -0.5 1 0 0 0 0 1 0 -1 0 1
1 2 0 1 1 -0 0 0 0 -1 0 1 0 
1 5 0 -0.5 1 0 0 -0 -0 -1 0 -1 0 
1 5 0 1 0 0 -1 -1 0 0 0 1 0 
1 3.5 0 0.5 -0 -1 -0 0 0 -1 1 -0 0 
1 2 0 0 0 0 1 1 0 -0 -0 1 0 
1 5 0 0 -1 0 0 0 0 1 0 1 -0 
Triangulations 0

TShapes 100
Ve
1e-07
0 0 1
0 0

0101101
*
Ve
1e-07
0 0 0
0 0

0101101
*
Ed
 1e-07 1 1 0
1  1 0 0 1
2  1 1 0 0 1
2  2 2 0 0 1
4 C0 1 0 2 0
0

0101000
-100 0 +99 0 *
Ve
1e-07
0 10 1
0 0

0101101
*
Ed
 1e-07 1 1 0
1  2 0 0 10
2  3 1 0 0 10
2  4 3 0 0 10
4 C0 1 0 3 0
0

0101000
-97 0 +100 0 *
Ve
1e-07
0 10 0
0 0

0101101
*
Ed
 1e-07 1 1 0
1  3 0 0 1
2  5 1 0 0 1
2  6 4 0 0 1
4 C0 1 0 4 0
0

0101000
-97 0 +95 0 *
Ed
 1e-07 1 1 0
1  4 0 0 10
2  7 1 0 0 10
2  8 5 0 0 10
4 C0 1 0 5 0
0

0101000
-95 0 +99 0 *
Wi

0101100
-98 0 -96 0 +94 0 +93 0 *
Fa
0  1e-07 1 0

0111000
+92 0 *
Ve
1e-07
2 0 0
0 0

0101101
*
Ed
 1e-07 1 1 0
1  5 0 0 2
2  9 2 0 0 2
2  10 5 0 0 2
4 C0 2 0 5 0
0

0101000
+99 0 -90 0 *
Ve
1e-07
2 0 1
0 0

0101101
*
Ed
 1e-07 1 1 0
1  6 0 0 2
2  11 2 0 0 2
2  12 3 0 0 2
4 C0 2 0 3 0
0

0101000
+100 0 -88 0 *
Ve
1e-07
2 0 0.5
0 0

0101101
*
Ed
 1e-07 1 1 0
1  7 0 0 0.5
4 CN 2 0 2 0
0

0101000
+90 0 -86 0 *
Ed
 1e-07 1 1 0
1  7 0 0.5 1
4 CN 2 0 2 0
4 C0 2 0 6 0
0

0101000
+86 0 -88 0 *
Wi

0101100
-89 0 +87 0 +98 0 -85 0 -84 0 *
Fa
0  1e-07 2 0

0101000
+83 0 *
Ve
1e-07
10 10 1
0 0

0101101
*
Ed
 1e-07 1 1 0
1  8 0 0 10
2  13 4 0 0 10
2  14 3 0 0 10
4 C0 3 0 4 0
0

0101000
-81 0 +97 0 *
Ve
1e-07
10 0 1
0 0

0101101
*
Ed
 1e-07 1 1 0
1  9 0 0 10
2  15 7 0 0 10
2  16 3 0 0 10
4 C0 3 0 7 0
0

0101000
-81 0 +79 0 *
Ve
1e-07
5 0 1
0 0

0101101
*
Ed
 1e-07 1 1 0
1  6 0 2 5
2  11 2 0 2 5
2  12 3 0 2 5
2  17 8 0 2 5
4 G1 3 0 8 0
0

0101000
+88 0 -77 0 *
Ed
 1e-07 1 1 0
1  6 0 5 10
2  11 2 0 5 10
2  12 3 0 5 10
4 C0 3 0 2 0
0

0101000
+77 0 -79 0 *
Wi

0101100
-96 0 -80 0 +78 0 +87 0 +76 0 +75 0 *
Fa
0  1e-07 3 0

0101000
+74 0 *
Ve
1e-07
10 10 0
0 0

0101101
*
Ed
 1e-07 1 1 0
1  10 0 0 10
2  18 4 0 0 10
2  19 5 0 0 10
4 C0 4 0 5 0
0

0101000
-72 0 +95 0 *
Ed
 1e-07 1 1 0
1  11 0 0 1
2  20 7 0 0 1
2  21 4 0 0 1
4 C0 4 0 7 0
0

0101000
-81 0 +72 0 *
Wi

0101100
-71 0 -70 0 +80 0 +94 0 *
Fa
0  1e-07 4 0

0111000
+69 0 *
Ve
1e-07
10 0 0
0 0

0101101
*
Ed
 1e-07 1 1 0
1  12 0 0 10
2  22 7 0 0 10
2  23 5 0 0 10
4 C0 5 0 7 0
0

0101000
-72 0 +67 0 *
Ve
1e-07
5 0 0
0 0

0101101
*
Ed
 1e-07 1 1 0
1  5 0 2 5
2  9 2 0 2 5
2  10 5 0 2 5
4 C0 5 0 2 0
0

0101000
+90 0 -65 0 *
Ed
 1e-07 1 1 0
1  5 0 5 10
2  9 2 0 5 10
2  10 5 0 5 10
4 C0 5 0 2 0
0

0101000
+65 0 -67 0 *
Wi

0101100
-93 0 -71 0 +66 0 +89 0 +64 0 +63 0 *
Fa
0  1e-07 5 0

0101000
+62 0 *
Ve
1e-07
5 0 0.5
0 0

0101101
*
Ed
 1e-07 1 1 0
1  13 0 0 0.5
4 CN 2 0 2 0
0

0101000
+65 0 -60 0 *
Ed
 1e-07 1 1 0
1  14 0 0 3
2  24 9 0 0 3
2  25 9 3 0 3
4 C0 2 0 9 0
0

0101000
+86 0 -60 0 *
Wi

0101100
+85 0 -64 0 -59 0 +58 0 *
Fa
0  1e-07 2 0

0101000
+57 0 *
Ve
1.00000000111022e-07
2 -1.06066017177982 0.560660171779821
0 0

0101101
*
Ed
 1e-07 1 1 0
1  15 0 0 0.785398163397448
2  26 8 0 0 0.785398163397448
2  27 6 0 0 0.785398163397448
4 C0 6 0 8 0
0

0101000
+88 0 -55 0 *
Ve
1.00000000111022e-07
2 -0.707106781186548 0.207106781186548
0 0

0101101
*
Ed
 1e-07 1 1 0
1  16 0 0 0.785398163397448
2  28 9 0 0 0.785398163397448
2  29 6 0 0 0.785398163397448
4 C0 6 0 9 0
0

0101000
+86 0 -53 0 *
Ed
 1.00000000111022e-07 1 1 0
1  17 0 0 0.5
2  30 6 0 0 0.5
2  31 6 3 0 0.5
4 C1 6 3 10 5
0

0101000
+55 3 -53 3 *
Wi

0101100
+54 0 -52 0 +84 0 +51 2 *
Fa
0  1e-07 6 0

0101000
+50 0 *
Ed
 1e-07 1 1 0
1  18 0 0 1
2  32 7 0 0 1
2  33 2 0 0 1
4 C0 7 0 2 0
0

0101000
-79 0 +67 0 *
Wi

0101100
-48 0 -78 0 +70 0 +66 0 *
Fa
0  1e-07 7 0

0111000
+47 0 *
Ve
1.00000000314018e-07
5 -1.06066017177982 0.560660171779821
0 0

0101101
*
Ed
 1e-07 1 1 0
1  19 0 0 0.785398163397448
2  34 11 0 0 0.785398163397448
2  35 8 0 0 0.785398163397448
4 C0 8 0 11 0
0

0101000
+77 0 -45 0 *
Ed
 1e-07 1 1 0
1  20 0 0 3
2  36 8 0 0 3
2  37 8 3 0 3
4 G1 8 3 12 5
0

0101000
+45 3 -55 3 *
Wi

0101100
+44 0 -54 0 +76 0 +43 2 *
Fa
0  1e-07 8 0

0101000
+42 0 *
Ed
 1e-07 1 1 0
1  13 0 0.5 1
4 CN 2 0 2 0
4 C0 2 0 11 0
0

0101000
+60 0 -77 0 *
Wi

0101100
+75 0 -48 0 -63 0 +59 0 +40 0 *
Fa
0  1e-07 2 0

0101000
+39 0 *
Ve
1.00000000314018e-07
5 -0.707106781186548 0.207106781186548
0 0

0101101
*
Ed
 1e-07 1 1 0
1  21 0 0 0.785398163397448
2  38 9 0 0 0.785398163397448
2  39 11 0 0 0.785398163397448
4 C0 9 0 11 0
0

0101000
+60 0 -37 0 *
Ed
 1e-07 1 1 0
1  14 0 0 3
2  24 9 0 0 3
2  25 9 3 0 3
4 C0 9 3 13 5
0

0101000
+53 3 -37 3 *
Wi

0101100
+52 0 -36 0 -58 0 +35 2 *
Fa
0  1e-07 9 0

0101000
+34 0 *
Ve
1e-07
2 0 1
0 0

0101101
*
Ed
 1e-07 1 1 0
1  22 0 0 5
4 C0 10 0 12 0
0

0101000
+55 6 -32 7 *
Ve
1e-07
2 0 0
0 0

0101101
*
Ed
 1e-07 1 1 0
1  23 0 0 5
4 C0 10 0 14 0
0

0101000
+30 0 -30 7 *
Ed
 1e-07 1 1 0
1  24 0 0.5 1
4 C0 10 0 13 0
0

0101000
+53 6 -30 0 *
Ed
 1e-07 1 1 0
1  24 0 0 1
4 C0 10 9 13 0
0

0101000
+32 0 -30 0 *
Wi

0101100
+31 4 -29 4 -51 2 -28 4 +27 8 *
Fa
0  1e-07 10 4

0101000
+26 0 *
Ed
 1.00000000314018e-07 1 1 0
1  25 0 0 0.5
2  40 11 0 0 0.5
2  41 11 3 0 0.5
4 C1 11 3 15 5
0

0101000
+37 3 -45 3 *
Wi

0101100
+36 0 -44 0 -40 0 +24 2 *
Fa
0  1e-07 11 0

0101000
+23 0 *
Ve
1e-07
5 0 1
0 0

0101101
*
Ed
 1e-07 1 1 0
1  26 0 0 5
4 C0 12 0 15 0
0

0101000
+45 6 -21 7 *
Ed
 1e-07 1 1 0
1  27 0 0 3
4 C0 12 9 13 0
0

0101000
+21 0 -32 0 *
Wi

0101100
+20 4 -31 4 -43 2 +19 8 *
Fa
0  1e-07 12 4

0101000
+18 0 *
Ve
1e-07
5 0 0
0 0

0101101
*
Ed
 1e-07 1 1 0
1  28 0 0 0.5
4 C0 13 0 15 0
0

0101000
+16 0 -37 6 *
Ed
 1e-07 1 1 0
1  29 0 0 3
4 C0 13 0 14 0
4 C0 14 9 13 0
0

0101000
+30 0 -16 0 *
Wi

0101100
+28 4 -35 2 +15 4 +14 4 *
Fa
0  1e-07 13 4

0101000
+13 0 *
Ed
 1e-07 1 1 0
1  30 0 0 5
4 C0 14 0 15 0
0

0101000
+16 0 -16 7 *
Wi

0101100
+29 0 -11 0 -14 0 +14 7 *
Fa
0  1e-07 14 0

0101000
+10 0 *
Ed
 1e-07 1 1 0
1  28 0 0 1
4 C0 13 0 15 9
0

0101000
+16 0 -21 0 *
Wi

0101100
+14 0 +8 0 +19 0 +27 0 *
Fa
0  1e-07 13 0

0101000
+7 0 *
Wi

0101100
+11 4 -20 4 -15 4 -24 2 +8 8 *
Fa
0  1e-07 15 4

0101000
+5 0 *
Sh

0101100
-91 0 -82 0 +73 0 +68 0 -61 0 -56 0 -49 0 +46 0 -41 0 -38 0 
-33 0 -25 0 -22 0 -17 0 -12 0 -9 4 +6 8 -4 0 *
So

0100000
+3 0 *
Co

1100000
+2 0 *

+1 1  