
CASCADE Topology V1, (c) Matra-Datavision
Locations 25
1
              1               0               0               0 
              0               1               0               0 
              0               0               1               0 
1
0.707106781186548               0 -0.707106781186548 3.98959235991435 
              0               1               0               0 
0.707106781186548               0 0.707106781186548 -6.6317279836453 
2  2 -1 0
1
0.707106781186548               0 -0.707106781186548 3.98959235991435 
              0               1               0               0 
0.707106781186548               0 0.707106781186548 -6.6317279836453 
2  4 1 2 -1 0
2  4 -1 0
1
              1               0               0               5 
              0               1               0               0 
              0               0               1               0 
2  7 1 4 1 0
2  7 -1 0
1
0.707106781186548               0 -0.707106781186548 3.98959235991435 
              0               1               0               0 
0.707106781186548               0 0.707106781186548 -6.6317279836453 
2  10 -1 0
1
0.707106781186548               0 0.707106781186548 3.2824855787278 
              0               1               0               0 
-0.707106781186548               0 0.707106781186548 6.92462120245875 
2  12 -1 0
1
0.707106781186548               0 0.707106781186548 3.2824855787278 
              0               1               0               0 
-0.707106781186548               0 0.707106781186548 6.92462120245875 
2  14 1 12 -1 0
1
0.707106781186548               0 -0.707106781186548 3.98959235991435 
              0               1               0               0 
0.707106781186548               0 0.707106781186548 -6.6317279836453 
2  16 1 10 -1 0
1
              1               0               0               5 
              0               1               0               0 
              0               0               1               0 
2  14 -1 0
2  18 1 14 1 0
2  18 -1 0
2  16 -1 0
1
              1               0               0               5 
              0               1               0               0 
              0               0               1               0 
2  23 1 16 1 0
2  23 -1 0
Curve2ds 76
1 0 0 1 0 
2 0 0 1 0 -0 1 0.5
1 0 3 1 0 
2 0 0 -1 0 0 1 0.5
1 1 0 0 -1 
1 10 0 0 1 
8 3.5 6.5
1 0 6.5 -0 -1 
1 0 0 0 1 
1 0.78539816339744828 0 0 1 
1 0 3 1 0 
2 0 0 1 0 -0 1 1.5
1 1.5 0 -1 0 
1 1.060660171779821 1.060660171779821 -0.70710678118654757 -0.70710678118654757 
2 0 0 -1 0 0 1 1.5
1 0 0 1 0 
1 -0.5 0 -1 0 
1 -0.35355339059327306 0.35355339059327306 -0.70710678118654757 0.70710678118654757 
1 1 0 0 -1 
1 0 0 0 1 
1 1 0 0 1 
1 0 10 1 0 
1 1 0 0 1 
1 0 0 1 0 
1 0 0 0 -1 
1 10 0 0 1 
8 3.5 6.5
1 0 -3.5 0 1 
1 0 0 0 1 
1 0.78539816339744828 0 0 1 
1 0 0 1 0 
1 0 0 1 0 
1 0 -10 1 0 
1 0 0 1 0 
1 0 0 0 -1 
1 0 0 0 1 
1 0 0 0 1 
1 0 10 1 0 
1 0 -10 1 0 
1 0 10 1 0 
1 0 0 1 0 
1 0 10 1 0 
1 0 0 0 1 
1 0.78539816339744828 0 0 1 
1 0 0 0 1 
1 0.78539816339744828 0 0 1 
1 0 0 0 1 
1 0 0 1 0 
8 0.5 2.5
1 0 -0.5 0 1 
8 7.5 9.5
1 0 -7.5 0 1 
1 0 2 1 0 
2 0 0 1 0 -0 1 1
1 0 0 1 0 
2 0 0 1 0 -0 1 0.5
1 1 0 -1 0 
1 0.70710678118654791 0.70710678118654791 -0.70710678118654757 -0.70710678118654757 
1 0 2 1 0 
2 0 0 1 0 -0 1 1.5
1 0 0 1 0 
2 0 0 1 0 -0 1 1
1 1.5 0 -1 0 
1 1.060660171779821 1.060660171779821 -0.70710678118654757 -0.70710678118654757 
1 0 2 1 0 
2 0 0 -1 0 0 1 1
2 0 0 -1 0 0 1 1.5
1 0 0 1 0 
1 -1 0 -1 0 
1 -0.70710678118654702 0.70710678118654613 -0.70710678118654757 0.70710678118654757 
2 0 0 -1 0 0 1 1
1 0 0 1 0 
1 0 2 1 0 
2 0 0 -1 0 0 1 0.5
1 -0.5 0 -1 0 
1 -0.35355339059327395 0.35355339059327306 -0.70710678118654757 0.70710678118654757 
1 0 0 0 1 
1 0.78539816339744828 0 0 1 
1 0 0 0 1 
1 0.78539816339744828 0 0 1 
Curves 62
2 10 6.5 1.5 -0 -1 -0 0 0 -1 1 -0 0 0.5
2 10 3.5 1.5 -0 -1 -0 0 0 -1 1 -0 0 0.5
1 10 0 1 -0 1 0 
1 10 6.5 1 0 -1 0 
2 10 6.5 1.5 -0 -1 -0 0 0 -1 1 -0 0 1.5
1 10 6.5 1 0 0 -1 
1 10 6.5 0 0 0 1 
2 10 3.5 1.5 -0 -1 -0 0 0 -1 1 -0 0 1.5
1 10 3.5 1 0 0 -1 
1 10 3.5 1 0 0 -1 
1 0 0 1 -0 1 0 
1 0 10 1 1 0 -0 
1 0 0 1 1 0 -0 
1 10 6.5 1 1 0 0 
1 10 3.5 1 1 0 0 
1 10 0 0 -0 1 0 
1 10 3.5 0 0 1 0 
1 10 7.5 0 0 0 1 
1 10 6.5 0 1 0 0 
1 10 2.5 1 0 0 -1 
1 10 3.5 0 1 0 0 
1 0 0 0 0 0 1 
1 0 10 0 0 0 1 
1 0 0 0 -0 1 0 
1 0 10 0 1 0 -0 
1 10 10 0 0 0 1 
1 10 0 0 0 0 1 
1 10 0.5 1 0 0 -1 
1 10 2.5 0.5 0 -1 0 
1 10 9.5 0 0 0 1 
1 10 9.5 0.5 0 -1 0 
1 0 0 0 1 0 -0 
2 10 7.5 -0.5 0 1 0 0 -0 1 1 0 -0 1
2 10 7.5 -0.5 0 1 0 0 -0 1 1 0 -0 0.5
1 10 7.5 0.5 0 0 -1 
2 10 2.5 1.5 -0 -1 -0 0 0 -1 1 -0 0 1.5
2 10 2.5 1.5 -0 -1 -0 0 0 -1 1 -0 0 1
1 10 2.5 0 0 0 1 
2 10 0.5 1.5 -0 -1 -0 0 0 -1 1 -0 0 1
2 10 0.5 1.5 -0 -1 -0 0 0 -1 1 -0 0 1.5
1 10 0.5 0.5 0 0 -1 
2 10 9.5 -0.5 0 1 0 0 -0 1 1 0 -0 1
2 10 9.5 -0.5 0 1 0 0 -0 1 1 0 -0 0.5
1 10 9.5 0 0 0 1 
1 10 0.5 0 0 1 0 
1 10 7.5 0 0 1 0 
1 10 7.5 1 1 0 0 
1 10 7.5 0 1 0 0 
1 10 7.5 1 0 0 -1 
1 10 2.5 0 1 0 0 
1 10 2.5 1 1 0 0 
1 10 2.5 0 0 0 1 
1 10 0.5 1 1 0 0 
1 10 0.5 0 1 0 0 
1 10 0.5 1 0 0 -1 
1 10 2.5 1 0 -1 0 
1 10 9.5 1 0 -1 0 
1 10 9.5 0 0 0 1 
1 10 9.5 0 1 0 0 
1 10 9.5 1 1 0 0 
1 10 0.5 0 0 1 0 
1 10 7.5 0 0 1 0 
Polygon3D 0
PolygonOnTriangulations 0
Surfaces 33
2 10 6.5 1.5 -0 -1 -0 0 0 -1 1 -0 0 0.5
1 10 6.5 1.5 -0 -1 -0 0 0 -1 1 -0 0 
1 10 3.5 1.5 -0 -1 -0 -0 -0 1 1 -0 0 
1 10 0 0 1 0 -0 0 0 1 0 -1 0 
1 0 0 1 0 0 1 1 0 -0 -0 1 0 
1 10 6.5 1 0 0 -1 0 -1 0 -1 -0 -0 
2 10 3.5 1.5 0 1 0 0 0 -1 1 -0 -0 1.5
1 10 6.5 0 0 -1 0 0 0 1 -1 0 0 
1 10 3.5 1 -0 1 0 0 0 -1 -1 0 -0 
1 0 0 0 1 0 -0 0 0 1 0 -1 0 
1 0 10 0 -0 1 0 0 0 1 1 0 -0 
1 0 0 0 -0 1 0 0 0 1 1 0 -0 
1 10 5 0.5 1 0 0 -0 0 1 0 -1 0 
1 0 0 0 0 0 1 1 0 -0 -0 1 0 
1 10 3.5 0 0 0 1 0 1 0 -1 0 0 
1 10 7.5 -0.5 0 1 0 0 -0 1 1 0 -0 
1 10 2.5 1.5 -0 -1 -0 0 0 -1 1 -0 0 
1 10 0.5 1.5 -0 -1 -0 -0 -0 1 1 -0 0 
2 10 2.5 1.5 -0 -1 -0 0 0 -1 1 -0 0 1
2 10 9.5 -0.5 -0 -1 -0 0 0 1 1 -0 -0 1
1 10 9.5 -0.5 0 1 0 -0 0 -1 1 0 -0 
2 10 0.5 1.5 0 1 0 0 0 -1 1 -0 -0 1.5
2 10 7.5 -0.5 0 1 0 0 -0 1 1 0 -0 0.5
1 10 7.5 1 -0 1 0 0 0 -1 -1 0 -0 
1 10 2.5 0 0 -1 0 0 0 1 -1 0 0 
1 10 0.5 1 -0 1 0 0 0 -1 -1 0 -0 
1 10 1.5 0.5 1 0 0 -0 0 1 0 -1 0 
1 10 8.5 0.5 1 0 0 -0 0 1 0 -1 0 
1 10 9.5 0 0 -1 0 0 0 1 -1 0 0 
1 10 0.5 0 0 0 1 0 1 0 -1 0 0 
1 10 7.5 0 0 0 1 0 1 0 -1 0 0 
1 10 9.5 1 0 0 -1 0 -1 0 -1 -0 -0 
1 10 2.5 1 0 0 -1 0 -1 0 -1 -0 -0 
Triangulations 0

TShapes 219
Ve
1e-07
10 6.5 1
0 0

0101101
*
Ve
1.00000000444089e-07
10.3535533905933 6.5 1.14644660940673
0 0

0101101
*
Ed
 1e-07 1 1 0
1  1 0 0 0.785398163397448
2  1 1 0 0 0.785398163397448
2  2 2 0 0 0.785398163397448
4 C0 1 0 2 0
0

0101000
+219 0 -218 0 *
Ve
1e-07
10 3.5 1
0 0

0101101
*
Ve
1.00000000444089e-07
10.3535533905933 3.5 1.14644660940673
0 0

0101101
*
Ed
 1e-07 1 1 0
1  2 0 0 0.785398163397448
2  3 1 0 0 0.785398163397448
2  4 3 0 0 0.785398163397448
4 C0 1 0 3 0
0

0101000
+216 0 -215 0 *
Ed
 1e-07 1 1 0
1  3 0 3.5 6.5
2  5 4 0 3.5 6.5
2  6 5 0 3.5 6.5
4 C0 5 0 4 0
2  7 1 0 3.5 6.5
4 G1 1 0 5 0
0

0101000
+216 0 -219 0 *
Ed
 1e-07 1 1 0
1  4 0 0 3
2  8 1 0 0 3
2  9 1 3 0 3
4 G1 1 3 6 5
0

0101000
+218 3 -215 3 *
Wi

0101100
+217 0 -214 0 +213 0 +212 2 *
Fa
0  1e-07 1 0

0101000
+211 0 *
Ve
1e-07
10 6.5 0
0 0

0101101
*
Ve
1.00000000444089e-07
11.0606601717798 6.5 0.439339828220179
0 0

0101101
*
Ed
 1e-07 1 1 0
1  5 0 0 0.785398163397448
2  10 7 0 0 0.785398163397448
2  11 2 0 0 0.785398163397448
4 C0 2 0 7 0
0

0101000
+209 0 -208 0 *
Ed
 1e-07 1 1 0
1  6 0 0 1
4 CN 4 0 4 0
4 C0 2 0 4 0
0

0101000
+219 0 -209 0 *
Ed
 1.00000000444089e-07 1 1 0
1  7 0 0 1
2  12 2 0 0 1
2  13 2 3 0 1
4 C1 2 3 8 5
0

0101000
+208 3 -218 3 *
Wi

0101100
+207 0 -217 0 +206 0 +205 2 *
Fa
0  1e-07 2 0

0101000
+204 0 *
Ve
1e-07
10 3.5 0
0 0

0101101
*
Ve
1.00000000444089e-07
11.0606601717798 3.5 0.439339828220179
0 0

0101101
*
Ed
 1e-07 1 1 0
1  8 0 0 0.785398163397448
2  14 3 0 0 0.785398163397448
2  15 7 0 0 0.785398163397448
4 C0 3 0 7 0
0

0101000
+202 0 -201 0 *
Ed
 1e-07 1 1 0
1  9 0 0 1
4 CN 4 0 4 0
4 C0 3 0 4 0
0

0101000
+216 0 -202 0 *
Ed
 1.00000000444089e-07 1 1 0
1  10 0 0 1
2  16 3 0 0 1
2  17 3 3 0 1
4 C1 3 3 9 5
0

0101000
+215 3 -201 3 *
Wi

0101100
+214 0 -200 0 -199 0 +198 2 *
Fa
0  1e-07 3 0

0101000
+197 0 *
Ve
1e-07
0 10 1
0 0

0101101
*
Ve
1e-07
0 0 1
0 0

0101101
*
Ed
 1e-07 1 1 0
1  11 0 0 10
2  18 10 0 0 10
2  19 5 0 0 10
4 C0 10 0 5 0
0

0101000
-195 0 +194 0 *
Ve
1e-07
10 10 1
0 0

0101101
*
Ed
 1e-07 1 1 0
1  12 0 0 10
2  20 11 0 0 10
2  21 5 0 0 10
4 C0 5 0 11 0
0

0101000
-192 0 +195 0 *
Ve
1e-07
10 0 1
0 0

0101101
*
Ve
1e-07
10 0.5 1
0 0

0101101
*
Ed
 1e-07 1 1 0
1  3 0 0 0.5
2  5 4 0 0 0.5
2  6 5 0 0 0.5
4 C0 5 0 4 0
0

0101000
+190 0 -189 0 *
Ve
1e-07
10 2.5 1
0 0

0101101
*
Ed
 1e-07 1 1 0
1  3 0 0.5 2.5
2  5 4 0 0.5 2.5
2  6 5 0 0.5 2.5
4 C0 5 0 4 0
0

0101000
+189 0 -187 0 *
Ed
 1e-07 1 1 0
1  3 0 2.5 3.5
2  5 4 0 2.5 3.5
2  6 5 0 2.5 3.5
4 C0 5 0 4 0
0

0101000
+187 0 -216 0 *
Ve
1e-07
10 7.5 1
0 0

0101101
*
Ed
 1e-07 1 1 0
1  3 0 6.5 7.5
2  5 4 0 6.5 7.5
2  6 5 0 6.5 7.5
4 C0 5 0 4 0
0

0101000
+219 0 -184 0 *
Ve
1e-07
10 9.5 1
0 0

0101101
*
Ed
 1e-07 1 1 0
1  3 0 7.5 9.5
2  5 4 0 7.5 9.5
2  6 5 0 7.5 9.5
4 C0 5 0 4 0
0

0101000
+184 0 -182 0 *
Ed
 1e-07 1 1 0
1  3 0 9.5 10
2  5 4 0 9.5 10
2  6 5 0 9.5 10
4 C0 5 0 4 0
0

0101000
+182 0 -192 0 *
Ed
 1e-07 1 1 0
1  13 0 0 10
2  22 12 0 0 10
2  23 5 0 0 10
4 C0 12 0 5 0
0

0101000
-190 0 +194 0 *
Wi

0101100
-193 0 -191 0 +188 0 +186 0 +185 0 +213 0 +183 0 +181 0 +180 0 +179 0 
*
Fa
0  1e-07 5 0

0101000
+178 0 *
Ve
1e-07
10 6.5 1
0 0

0101101
*
Ed
 1e-07 1 1 0
1  14 0 0 5
4 C0 6 0 8 0
0

0101000
+218 6 -176 7 *
Ve
1e-07
10 3.5 1
0 0

0101101
*
Ed
 1e-07 1 1 0
1  15 0 0 5
4 C0 6 0 9 0
0

0101000
+215 6 -174 7 *
Ed
 1e-07 1 1 0
1  4 0 0 3
2  8 1 0 0 3
2  9 1 3 0 3
4 C0 6 9 13 0
0

0101000
+176 0 -174 0 *
Wi

0101100
+175 4 -173 4 -212 2 +172 8 *
Fa
0  1e-07 6 4

0101000
+171 0 *
Ed
 1e-07 1 1 0
1  16 0 3.5 6.5
2  24 4 0 3.5 6.5
2  25 14 0 3.5 6.5
4 C0 14 0 4 0
2  26 7 0 3.5 6.5
4 G1 7 0 14 0
0

0101000
+202 0 -209 0 *
Ed
 1e-07 1 1 0
1  17 0 0 3
2  27 7 0 0 3
2  28 7 3 0 3
4 G1 7 3 15 5
0

0101000
+201 3 -208 3 *
Wi

0101100
+200 0 -207 0 -169 0 +168 2 *
Fa
0  1e-07 7 0

0101000
+167 0 *
Ve
1.00000000027756e-07
10 7.5 0
0 0

0101101
*
Ed
 1e-07 1 1 0
1  16 0 6.5 7.5
2  24 4 0 6.5 7.5
2  25 14 0 6.5 7.5
4 C0 14 0 4 0
0

0101000
+209 0 -165 0 *
Ve
1.00000000027756e-07
10 7.5 0.5
0 0

0101101
*
Ed
 1.00000000027756e-07 1 1 0
1  18 0 0 0.5
4 CN 4 0 4 0
4 C0 16 0 4 0
0

0101000
+165 0 -163 0 *
Ed
 1e-07 1 1 0
1  18 0 0.5 1
4 CN 4 0 4 0
0

0101000
+163 0 -184 0 *
Wi

0101100
+164 0 +162 0 +161 0 -183 0 +206 0 *
Fa
0  1e-07 4 0

0101000
+160 0 *
Ve
1e-07
10 6.5 0
0 0

0101101
*
Ed
 1e-07 1 1 0
1  19 0 0 5
4 C0 8 0 15 0
0

0101000
+208 6 -158 7 *
Ed
 1e-07 1 1 0
1  7 0 0 1
2  12 2 0 0 1
2  13 2 3 0 1
4 C0 8 9 13 0
0

0101000
+158 0 -176 0 *
Wi

0101100
+157 4 -175 4 -205 2 +156 8 *
Fa
0  1e-07 8 4

0101000
+155 0 *
Ve
1e-07
10 2.5 0.5
0 0

0101101
*
Ed
 1e-07 1 1 0
1  20 0 0 0.5
4 CN 4 0 4 0
0

0101000
+187 0 -153 0 *
Ve
1e-07
10 2.5 0
0 0

0101101
*
Ed
 1e-07 1 1 0
1  20 0 0.5 1
4 CN 4 0 4 0
4 C0 4 0 17 0
0

0101000
+153 0 -151 0 *
Ed
 1e-07 1 1 0
1  16 0 2.5 3.5
2  24 4 0 2.5 3.5
2  25 14 0 2.5 3.5
4 C0 14 0 4 0
0

0101000
+151 0 -202 0 *
Wi

0101100
-185 0 +152 0 +150 0 +149 0 -199 0 *
Fa
0  1e-07 4 0

0101000
+148 0 *
Ve
1e-07
10 3.5 0
0 0

0101101
*
Ed
 1e-07 1 1 0
1  21 0 0 5
4 C0 9 0 15 0
0

0101000
+201 6 -146 7 *
Ed
 1e-07 1 1 0
1  10 0 0 1
2  16 3 0 0 1
2  17 3 3 0 1
4 C0 9 9 13 0
0

0101000
+174 0 -146 0 *
Wi

0101100
+173 4 -145 4 -198 2 +144 8 *
Fa
0  1e-07 9 4

0101000
+143 0 *
Ve
1e-07
0 0 0
0 0

0101101
*
Ed
 1e-07 1 1 0
1  22 0 0 1
2  29 10 0 0 1
2  30 12 0 0 1
4 C0 10 0 12 0
0

0101000
-194 0 +141 0 *
Ve
1e-07
0 10 0
0 0

0101101
*
Ed
 1e-07 1 1 0
1  23 0 0 1
2  31 10 0 0 1
2  32 11 0 0 1
4 C0 10 0 11 0
0

0101000
-195 0 +139 0 *
Ed
 1e-07 1 1 0
1  24 0 0 10
2  33 10 0 0 10
2  34 14 0 0 10
4 C0 10 0 14 0
0

0101000
-139 0 +141 0 *
Wi

0101100
-140 0 -193 0 +138 0 +137 0 *
Fa
0  1e-07 10 0

0111000
+136 0 *
Ve
1e-07
10 10 0
0 0

0101101
*
Ed
 1e-07 1 1 0
1  25 0 0 10
2  35 11 0 0 10
2  36 14 0 0 10
4 C0 11 0 14 0
0

0101000
-134 0 +139 0 *
Ed
 1e-07 1 1 0
1  26 0 0 1
2  37 4 0 0 1
2  38 11 0 0 1
4 C0 11 0 4 0
0

0101000
-192 0 +134 0 *
Wi

0101100
-133 0 -132 0 +191 0 +138 0 *
Fa
0  1e-07 11 0

0111000
+131 0 *
Ve
1e-07
10 0 0
0 0

0101101
*
Ed
 1e-07 1 1 0
1  27 0 0 1
2  39 4 0 0 1
2  40 12 0 0 1
4 C0 12 0 4 0
0

0101000
-190 0 +129 0 *
Ve
1e-07
10 0.5 0
0 0

0101101
*
Ed
 1e-07 1 1 0
1  16 0 0 0.5
2  24 4 0 0 0.5
2  25 14 0 0 0.5
4 C0 14 0 4 0
0

0101000
+129 0 -127 0 *
Ve
1e-07
10 0.5 0.5
0 0

0101101
*
Ed
 1e-07 1 1 0
1  28 0 0 0.5
4 CN 4 0 4 0
0

0101000
+189 0 -125 0 *
Ed
 1e-07 1 1 0
1  28 0 0.5 1
4 CN 4 0 4 0
4 C0 4 0 18 0
0

0101000
+125 0 -127 0 *
Wi

0101100
-128 0 -188 0 +126 0 -124 0 -123 0 *
Fa
0  1e-07 4 0

0101000
+122 0 *
Ed
 1e-07 1 1 0
1  29 0 0 2
2  41 19 0 0 2
2  42 19 11 0 2
4 C0 4 0 19 0
0

0101000
+153 0 -125 0 *
Wi

0101100
+124 0 -186 0 -152 0 -120 0 *
Fa
0  1e-07 4 0

0101000
+119 0 *
Ve
1e-07
10 9.5 0.5
0 0

0101101
*
Ed
 1e-07 1 1 0
1  30 0 0.5 1
4 CN 4 0 4 0
0

0101000
+117 0 -182 0 *
Ed
 1e-07 1 1 0
1  31 0 0 2
2  43 20 0 0 2
2  44 20 13 0 2
4 C0 20 0 4 0
0

0101000
+117 0 -163 0 *
Wi

0101100
-181 0 +116 0 -115 0 -161 0 *
Fa
0  1e-07 4 0

0101000
+114 0 *
Ve
1e-07
10 9.5 0
0 0

0101101
*
Ed
 1e-07 1 1 0
1  16 0 9.5 10
2  24 4 0 9.5 10
2  25 14 0 9.5 10
4 C0 14 0 4 0
0

0101000
+112 0 -134 0 *
Ed
 1e-07 1 1 0
1  30 0 0 0.5
4 CN 4 0 4 0
4 C0 21 0 4 0
0

0101000
+112 0 -117 0 *
Wi

0101100
+111 0 +132 0 -180 0 -110 0 -116 0 *
Fa
0  1e-07 4 0

0101000
+109 0 *
Ed
 1e-07 1 1 0
1  32 0 0 10
2  45 12 0 0 10
2  46 14 0 0 10
4 C0 12 0 14 0
0

0101000
-129 0 +141 0 *
Wi

0101100
-107 0 -128 0 +179 0 +140 0 *
Fa
0  1e-07 12 0

0111000
+106 0 *
Ed
 1e-07 1 1 0
1  17 0 0 3
2  27 7 0 0 3
2  28 7 3 0 3
4 C0 13 0 15 9
0

0101000
+146 0 -158 0 *
Wi

0101100
+172 0 +144 0 +104 0 +156 0 *
Fa
0  1e-07 13 0

0101000
+103 0 *
Ed
 1e-07 1 1 0
1  16 0 0.5 2.5
2  24 4 0 0.5 2.5
2  25 14 0 0.5 2.5
2  47 22 0 0.5 2.5
4 G1 14 0 22 0
0

0101000
+127 0 -151 0 *
Ed
 1e-07 1 1 0
1  16 0 7.5 9.5
2  24 4 0 7.5 9.5
2  25 14 0 7.5 9.5
4 C0 14 0 4 0
2  48 23 0 7.5 9.5
4 G1 23 0 14 0
0

0101000
+165 0 -112 0 *
Wi

0101100
-137 0 -133 0 +126 0 +101 0 +149 0 +169 0 +164 0 +100 0 +111 0 +107 0 
*
Fa
0  1e-07 14 0

0101000
+99 0 *
Wi

0101100
+145 4 -157 4 -168 2 +104 8 *
Fa
0  1e-07 15 4

0101000
+97 0 *
Ve
1.0000000094369e-07
10.7071067811865 7.5 0.207106781186548
0 0

0101101
*
Ed
 1e-07 1 1 0
1  33 0 0 0.785398163397448
2  49 20 0 0 0.785398163397448
2  50 16 0 0 0.785398163397448
4 C0 16 0 20 0
0

0101000
+163 0 -95 0 *
Ve
1.0000000094369e-07
10.3535533905933 7.5 -0.146446609406726
0 0

0101101
*
Ed
 1e-07 1 1 0
1  34 0 0 0.785398163397448
2  51 23 0 0 0.785398163397448
2  52 16 0 0 0.785398163397448
4 C0 23 0 16 0
0

0101000
+165 0 -93 0 *
Ed
 1.0000000094369e-07 1 1 0
1  35 0 0 0.5
2  53 16 0 0 0.5
2  54 16 13 0 0.5
4 C1 16 13 24 15
0

0101000
+95 13 -93 13 *
Wi

0101100
+94 0 -92 0 +162 0 +91 12 *
Fa
0  1e-07 16 0

0101000
+90 0 *
Ve
1.00000000444089e-07
11.0606601717798 2.5 0.439339828220179
0 0

0101101
*
Ed
 1e-07 1 1 0
1  36 0 0 0.785398163397448
2  55 22 0 0 0.785398163397448
2  56 17 0 0 0.785398163397448
4 C0 22 0 17 0
0

0101000
+151 0 -88 0 *
Ve
1.00000000444089e-07
10.7071067811865 2.5 0.792893218813453
0 0

0101101
*
Ed
 1e-07 1 1 0
1  37 0 0 0.785398163397448
2  57 19 0 0 0.785398163397448
2  58 17 0 0 0.785398163397448
4 C0 19 0 17 0
0

0101000
+153 0 -86 0 *
Ed
 1.00000000444089e-07 1 1 0
1  38 0 0 0.5
2  59 17 0 0 0.5
2  60 17 11 0 0.5
4 C1 17 11 25 17
0

0101000
+88 11 -86 11 *
Wi

0101100
+87 0 -85 0 +150 0 +84 10 *
Fa
0  1e-07 17 0

0101000
+83 0 *
Ve
1.00000000666134e-07
10.7071067811865 0.5 0.792893218813453
0 0

0101101
*
Ed
 1e-07 1 1 0
1  39 0 0 0.785398163397448
2  61 19 0 0 0.785398163397448
2  62 18 0 0 0.785398163397448
4 C0 18 0 19 0
0

0101000
+125 0 -81 0 *
Ve
1.00000000666134e-07
11.0606601717798 0.5 0.439339828220179
0 0

0101101
*
Ed
 1e-07 1 1 0
1  40 0 0 0.785398163397448
2  63 18 0 0 0.785398163397448
2  64 22 0 0 0.785398163397448
4 C0 22 0 18 0
0

0101000
+127 0 -79 0 *
Ed
 1.00000000666134e-07 1 1 0
1  41 0 0 0.5
2  65 18 0 0 0.5
2  66 18 11 0 0.5
4 C1 18 11 26 17
0

0101000
+81 11 -79 11 *
Wi

0101100
+80 0 -78 0 -123 0 +77 10 *
Fa
0  1e-07 18 0

0101000
+76 0 *
Ed
 1e-07 1 1 0
1  29 0 0 2
2  41 19 0 0 2
2  42 19 11 0 2
4 C0 19 11 27 17
0

0101000
+86 11 -81 11 *
Wi

0101100
+85 0 -80 0 -120 0 +74 10 *
Fa
0  1e-07 19 0

0101000
+73 0 *
Ve
1.00000000444089e-07
10.7071067811865 9.5 0.207106781186548
0 0

0101101
*
Ed
 1e-07 1 1 0
1  42 0 0 0.785398163397448
2  67 21 0 0 0.785398163397448
2  68 20 0 0 0.785398163397448
4 C0 21 0 20 0
0

0101000
+117 0 -71 0 *
Ed
 1e-07 1 1 0
1  31 0 0 2
2  43 20 0 0 2
2  44 20 13 0 2
4 C0 20 13 28 15
0

0101000
+71 13 -95 13 *
Wi

0101100
+70 0 -94 0 -115 0 +69 12 *
Fa
0  1e-07 20 0

0101000
+68 0 *
Ve
1.00000000388578e-07
10.3535533905933 9.5 -0.146446609406726
0 0

0101101
*
Ed
 1e-07 1 1 0
1  43 0 0 0.785398163397448
2  69 23 0 0 0.785398163397448
2  70 21 0 0 0.785398163397448
4 C0 23 0 21 0
0

0101000
+112 0 -66 0 *
Ed
 1.00000000388578e-07 1 1 0
1  44 0 0 0.5
2  71 21 0 0 0.5
2  72 21 13 0 0.5
4 C1 21 13 29 15
0

0101000
+66 13 -71 13 *
Wi

0101100
+65 0 -70 0 -110 0 +64 12 *
Fa
0  1e-07 21 0

0101000
+63 0 *
Ed
 1e-07 1 1 0
1  45 0 0 2
2  73 22 0 0 2
2  74 22 11 0 2
4 G1 22 11 30 17
0

0101000
+79 11 -88 11 *
Wi

0101100
+78 0 -87 0 -101 0 +61 10 *
Fa
0  1e-07 22 0

0101000
+60 0 *
Ed
 1e-07 1 1 0
1  46 0 0 2
2  75 23 0 0 2
2  76 23 13 0 2
4 G1 23 13 31 15
0

0101000
+93 13 -66 13 *
Wi

0101100
+92 0 -65 0 -100 0 +58 12 *
Fa
0  1e-07 23 0

0101000
+57 0 *
Ve
1e-07
10 7.5 1
0 0

0101101
*
Ed
 1e-07 1 1 0
1  47 0 0 5
4 C0 24 0 32 0
0

0101000
+55 0 -55 18 *
Ve
1e-07
10 7.5 0
0 0

0101101
*
Ed
 1e-07 1 1 0
1  48 0 0 5
4 C0 31 0 24 0
0

0101000
+93 19 -53 18 *
Ed
 1e-07 1 1 0
1  49 0 0 0.500000000000001
4 C0 24 0 28 0
0

0101000
+55 0 -95 19 *
Ed
 1e-07 1 1 0
1  49 0 0 1
4 C0 24 21 28 0
0

0101000
+55 0 -53 0 *
Wi

0101100
+54 14 -52 14 -51 14 -91 12 +50 20 *
Fa
0  1e-07 24 14

0101000
+49 0 *
Ve
1e-07
10 2.5 0
0 0

0101101
*
Ed
 1e-07 1 1 0
1  50 0 0 5
4 C0 30 0 25 0
0

0101000
+88 22 -47 23 *
Ve
1e-07
10 2.5 1
0 0

0101101
*
Ed
 1e-07 1 1 0
1  51 0 0 5
4 C0 25 0 33 0
0

0101000
+45 0 -45 23 *
Ed
 1e-07 1 1 0
1  52 0 0.500000000000001 1
4 C0 27 0 25 0
0

0101000
+86 22 -45 0 *
Ed
 1e-07 1 1 0
1  52 0 0 1
4 C0 25 25 27 0
0

0101000
+47 0 -45 0 *
Wi

0101100
+46 16 -44 16 -84 10 -43 16 +42 24 *
Fa
0  1e-07 25 16

0101000
+41 0 *
Ve
1e-07
10 0.5 1
0 0

0101101
*
Ed
 1e-07 1 1 0
1  53 0 0 5
4 C0 26 0 33 0
0

0101000
+39 0 -39 23 *
Ve
1e-07
10 0.5 0
0 0

0101101
*
Ed
 1e-07 1 1 0
1  54 0 0 5
4 C0 30 0 26 0
0

0101000
+79 22 -37 23 *
Ed
 1e-07 1 1 0
1  55 0 0 0.5
4 C0 26 0 27 0
0

0101000
+39 0 -81 22 *
Ed
 1e-07 1 1 0
1  55 0 0 1
4 C0 26 25 27 0
0

0101000
+39 0 -37 0 *
Wi

0101100
+38 16 -36 16 -35 16 -77 10 +34 24 *
Fa
0  1e-07 26 16

0101000
+33 0 *
Ed
 1e-07 1 1 0
1  56 0 0 2
4 C0 27 0 33 0
4 C0 27 0 33 25
0

0101000
+45 0 -39 0 *
Wi

0101100
+43 16 -74 10 +35 16 +31 16 *
Fa
0  1e-07 27 16

0101000
+30 0 *
Ve
1e-07
10 9.5 1
0 0

0101101
*
Ed
 1e-07 1 1 0
1  57 0 0 2
4 C0 28 0 32 21
4 C0 28 0 32 0
0

0101000
+28 0 -55 0 *
Ed
 1e-07 1 1 0
1  58 0 0.500000000000001 1
4 C0 29 0 28 0
0

0101000
+71 19 -28 0 *
Wi

0101100
+51 14 +27 14 +26 14 -69 12 *
Fa
0  1e-07 28 14

0101000
+25 0 *
Ve
1e-07
10 9.5 0
0 0

0101101
*
Ed
 1e-07 1 1 0
1  59 0 0 5
4 C0 31 0 29 0
0

0101000
+66 19 -23 18 *
Ed
 1e-07 1 1 0
1  60 0 0 5
4 C0 29 0 32 0
0

0101000
+28 0 -28 18 *
Ed
 1e-07 1 1 0
1  58 0 0 1
4 C0 29 21 28 0
0

0101000
+23 0 -28 0 *
Wi

0101100
+22 14 -21 14 -64 12 -26 14 +20 20 *
Fa
0  1e-07 29 14

0101000
+19 0 *
Ed
 1e-07 1 1 0
1  61 0 0 2
4 C0 30 25 27 0
0

0101000
+37 0 -47 0 *
Wi

0101100
+36 16 -46 16 -61 10 +17 24 *
Fa
0  1e-07 30 16

0101000
+16 0 *
Ed
 1e-07 1 1 0
1  62 0 0 2
4 C0 31 21 28 0
0

0101000
+53 0 -23 0 *
Wi

0101100
+52 14 -22 14 -58 12 +14 20 *
Fa
0  1e-07 31 14

0101000
+13 0 *
Wi

0101100
+21 0 -54 0 -27 0 +27 18 *
Fa
0  1e-07 32 0

0101000
+11 0 *
Wi

0101100
+14 0 +20 0 +27 0 +50 0 *
Fa
0  1e-07 28 0

0101000
+9 0 *
Wi

0101100
+44 0 -38 0 -31 0 +31 23 *
Fa
0  1e-07 33 0

0101000
+7 0 *
Wi

0101100
+31 0 +34 0 +17 0 +42 0 *
Fa
0  1e-07 27 0

0101000
+5 0 *
Sh

0101100
-210 0 -203 0 -196 0 +177 0 -170 0 -166 0 +159 0 -154 0 +147 0 -142 0 
-135 0 +130 0 +121 0 +118 0 +113 0 +108 0 -105 0 +102 8 -98 0 -96 0 
-89 0 -82 0 -75 0 -72 0 -67 0 -62 0 -59 0 -56 0 -48 0 -40 0 
-32 0 -29 0 -24 0 -18 0 -15 0 -12 0 -10 14 +8 20 -6 16 +4 24 
*
So

0100000
+3 0 *
Co

1100000
+2 0 *

+1 1  