
CASCADE Topology V1, (c) Matra-Datavision
Locations 26
1
              1               0               0               0 
              0               1               0               0 
              0               0               1               0 
1
0.707106781186548               0 -0.707106781186548 3.98959235991435 
              0               1               0               0 
0.707106781186548               0 0.707106781186548 -6.6317279836453 
2  2 -1 0
1
              1               0               0               5 
              0               1               0               0 
              0               0               1               0 
2  4 -1 0
1
0.707106781186548               0 -0.707106781186548 3.98959235991435 
              0               1               0               0 
0.707106781186548               0 0.707106781186548 -6.6317279836453 
2  6 -1 0
2  4 1 6 1 0
1
0.707106781186548               0 -0.707106781186548 3.98959235991435 
              0               1               0               0 
0.707106781186548               0 0.707106781186548 -6.6317279836453 
2  9 -1 0
1
0.707106781186548               0 -0.707106781186548 3.98959235991435 
              0               1               0               0 
0.707106781186548               0 0.707106781186548 -6.6317279836453 
2  11 1 9 -1 0
1
0.707106781186548               0 0.707106781186548 3.2824855787278 
              0               1               0               0 
-0.707106781186548               0 0.707106781186548 6.92462120245875 
2  13 -1 0
1
0.707106781186548               0 0.707106781186548 3.2824855787278 
              0               1               0               0 
-0.707106781186548               0 0.707106781186548 6.92462120245875 
2  15 1 13 -1 0
1
              1               0               0               5 
              0               1               0               0 
              0               0               1               0 
2  15 -1 0
2  17 -1 0
2  13 1 15 -1 0
2  17 1 15 1 0
2  11 -1 0
1
              1               0               0               5 
              0               1               0               0 
              0               0               1               0 
2  23 -1 0
2  9 1 11 -1 0
2  23 1 11 1 0
Curve2ds 152
1 0 0 1 0 
2 0 0 1 0 -0 1 0.5
1 0 3 1 0 
2 0 0 -1 0 0 1 0.5
1 1 0 0 -1 
1 10 0 0 1 
8 3.5 6.5
1 0 6.5 -0 -1 
1 0 0 0 1 
1 0.78539816339744828 0 0 1 
1 0 -0 1 0 
1 0 -5 1 0 
1 0.5 -1.5 0 1 
1 0 3 1 0 
2 0 0 1 0 -0 1 1.5
1 1 -6.5 -1 0 
1 1.5 0 -1 0 
1 1.060660171779821 1.060660171779821 -0.70710678118654757 -0.70710678118654757 
1 0 0 1 0 
1 0 -5 1 0 
1 -0.5 -1.5 1 0 
2 0 0 -1 0 0 1 1.5
1 0 0 1 0 
1 1 -3.5 -1 0 
1 -0.5 0 -1 0 
1 -0.35355339059327306 0.35355339059327306 -0.70710678118654757 0.70710678118654757 
1 0 0 1 0 
1 0 -5 1 0 
1 0.5 1.5 -1 0 
1 1 0 0 -1 
1 0 0 0 1 
1 1 0 0 1 
1 0 10 1 0 
1 1 0 0 1 
1 0 0 1 0 
1 0 -0 0 -1 
1 1 0 0 -1 
1 3 0 0 -1 
1 0 0 0 -1 
1 0 0 0 -1 
1 10 0 0 1 
8 3.5 6.5
1 0 -3.5 0 1 
1 0 0 0 1 
1 0.78539816339744828 0 0 1 
1 0 0 1 0 
1 0 -5 1 0 
1 -0.5 1.5 0 -1 
1 0 -7.5 1 0 
1 0 0 0 -1 
1 3 0 0 -1 
1 1 -2.5 -1 0 
1 1 0 0 -1 
1 0 0 0 -1 
1 0 0 1 0 
1 0 0 1 0 
1 0 -10 1 0 
1 0 0 1 0 
1 0 0 0 -1 
1 0 0 0 1 
1 0 0 0 1 
1 0 10 1 0 
1 0 -10 1 0 
1 0 10 1 0 
1 0 0 1 0 
1 0 10 1 0 
1 1 -0.5 -1 0 
1 0 0 0 1 
1 0.78539816339744828 0 0 1 
1 0.25 -1 0 1 
1 0.5 -2.5 0 1 
1 1.1102230246251565e-16 -1 0 1 
1 0 -9.5 1 0 
1 0 0 0 1 
1 0.78539816339744828 0 0 1 
1 0.25 -1 0 1 
1 0.5 -9.5 0 1 
1 1.1102230246251565e-16 -1 0 1 
1 0 0 0 1 
1 0 0 1 0 
8 0.5 2.5
1 0 -0.5 0 1 
8 7.5 9.5
1 0 -7.5 0 1 
1 0 2 1 0 
2 0 0 1 0 -0 1 1
1 0 0 1 0 
2 0 0 1 0 -0 1 0.5
1 1 0 -1 0 
1 0.70710678118654791 0.70710678118654791 -0.70710678118654757 -0.70710678118654757 
1 0.25 1 -1 0 
1 1.1102230246251565e-16 1 -1 0 
1 0 2 1 0 
2 0 0 1 0 -0 1 1.5
1 0 0 1 0 
2 0 0 1 0 -0 1 1
1 1.5 0 -1 0 
1 1.060660171779821 1.060660171779821 -0.70710678118654757 -0.70710678118654757 
1 -0.25 -1 1 0 
1 -0.5 -1 1 0 
1 0 2 1 0 
2 0 0 -1 0 0 1 1
2 0 0 -1 0 0 1 1.5
1 0 0 1 0 
1 -1 0 -1 0 
1 -0.70710678118654702 0.70710678118654613 -0.70710678118654757 0.70710678118654757 
1 0.25 1 -1 0 
1 1.1102230246251565e-16 1 -1 0 
2 0 0 -1 0 0 1 1
1 0 0 1 0 
1 0 2 1 0 
2 0 0 -1 0 0 1 0.5
1 -0.5 0 -1 0 
1 -0.35355339059327395 0.35355339059327306 -0.70710678118654757 0.70710678118654757 
1 -0.25 -1 1 0 
1 -0.5 -1 1 0 
1 0 0 0 1 
1 0.78539816339744828 0 0 1 
1 -0.25 1 0 -1 
1 -0.5 1 0 -1 
1 0 0 0 1 
1 0.78539816339744828 0 0 1 
1 -0.25 1 0 -1 
1 -0.5 1 0 -1 
1 0 0 0 -1 
1 0 0 0 -1 
1 1 0 0 -1 
1 0 0 1 0 
1 0 -5 1 0 
1 0.5 1 -1 0 
1 0 0 0 -1 
1 2 0 0 -1 
1 1 0 0 -1 
1 0 0 1 0 
1 0 -5 1 0 
1 -0.5 -1 1 0 
1 0 0 0 -1 
1 1 0 0 -1 
1 0 0 0 -1 
1 0.5 1 -1 0 
1 0 0 1 0 
1 0 -5 1 0 
1 0.5 -1 0 1 
1 0.5 -1 0 1 
1 -0.5 -1 1 0 
1 0 0 1 0 
1 0 -5 1 0 
1 2 0 0 -1 
1 0 0 0 -1 
1 1 0 0 -1 
1 -0.5 1 0 -1 
1 0 0 1 0 
1 0 -5 1 0 
1 0 0 1 0 
1 0 -5 1 0 
1 -0.5 1 0 -1 
Curves 62
2 10 6.5 1.5 -0 -1 -0 0 0 -1 1 -0 0 0.5
2 10 3.5 1.5 -0 -1 -0 0 0 -1 1 -0 0 0.5
1 10 0 1 -0 1 0 
1 10 6.5 1 0 -1 0 
2 10 6.5 1.5 -0 -1 -0 0 0 -1 1 -0 0 1.5
1 10 6.5 1 0 0 -1 
1 10 6.5 0 0 0 1 
2 10 3.5 1.5 -0 -1 -0 0 0 -1 1 -0 0 1.5
1 10 3.5 1 0 0 -1 
1 10 3.5 1 0 0 -1 
1 0 0 1 -0 1 0 
1 0 10 1 1 0 -0 
1 0 0 1 1 0 -0 
1 10 6.5 1 1 0 0 
1 10 3.5 1 1 0 0 
1 10 0 0 -0 1 0 
1 10 3.5 0 0 1 0 
1 10 7.5 0 0 0 1 
1 10 6.5 0 1 0 0 
1 10 2.5 1 0 0 -1 
1 10 3.5 0 1 0 0 
1 0 0 0 0 0 1 
1 0 10 0 0 0 1 
1 0 0 0 -0 1 0 
1 0 10 0 1 0 -0 
1 10 10 0 0 0 1 
1 10 0 0 0 0 1 
1 10 0.5 1 0 0 -1 
1 10 2.5 0.5 0 -1 0 
1 10 9.5 0 0 0 1 
1 10 9.5 0.5 0 -1 0 
1 0 0 0 1 0 -0 
2 10 7.5 -0.5 0 1 0 0 -0 1 1 0 -0 1
2 10 7.5 -0.5 0 1 0 0 -0 1 1 0 -0 0.5
1 10 7.5 0.5 0 0 -1 
2 10 2.5 1.5 -0 -1 -0 0 0 -1 1 -0 0 1.5
2 10 2.5 1.5 -0 -1 -0 0 0 -1 1 -0 0 1
1 10 2.5 0 0 0 1 
2 10 0.5 1.5 -0 -1 -0 0 0 -1 1 -0 0 1
2 10 0.5 1.5 -0 -1 -0 0 0 -1 1 -0 0 1.5
1 10 0.5 0.5 0 0 -1 
2 10 9.5 -0.5 0 1 0 0 -0 1 1 0 -0 1
2 10 9.5 -0.5 0 1 0 0 -0 1 1 0 -0 0.5
1 10 9.5 0 0 0 1 
1 10 0.5 0 0 1 0 
1 10 7.5 0 0 1 0 
1 10 7.5 1 1 0 0 
1 10 7.5 0 1 0 0 
1 10 7.5 1 0 0 -1 
1 10 2.5 0 1 0 0 
1 10 2.5 1 1 0 0 
1 10 2.5 0 0 0 1 
1 10 0.5 1 1 0 0 
1 10 0.5 0 1 0 0 
1 10 0.5 1 0 0 -1 
1 10 2.5 1 0 -1 0 
1 10 9.5 1 0 -1 0 
1 10 9.5 0 0 0 1 
1 10 9.5 0 1 0 0 
1 10 9.5 1 1 0 0 
1 10 0.5 0 0 1 0 
1 10 7.5 0 0 1 0 
Polygon3D 0
PolygonOnTriangulations 0
Surfaces 35
2 10 6.5 1.5 -0 -1 -0 0 0 -1 1 -0 0 0.5
1 10 6.5 1.5 -0 -1 -0 0 0 -1 1 -0 0 
1 10 3.5 1.5 -0 -1 -0 -0 -0 1 1 -0 0 
1 10 0 0 1 0 -0 0 0 1 0 -1 0 
1 0 0 1 0 0 1 1 0 -0 -0 1 0 
1 10 6.5 1 0 0 -1 0 -1 0 -1 -0 -0 
1 10 5 0.5 1 0 0 -0 0 1 0 -1 0 
2 10 3.5 1.5 0 1 0 0 0 -1 1 -0 -0 1.5
1 10 6.5 0 0 -1 0 0 0 1 -1 0 0 
1 10 3.5 1 -0 1 0 0 0 -1 -1 0 -0 
1 0 0 0 1 0 -0 0 0 1 0 -1 0 
1 0 10 0 -0 1 0 0 0 1 1 0 -0 
1 0 0 0 -0 1 0 0 0 1 1 0 -0 
1 0 0 0 0 0 1 1 0 -0 -0 1 0 
1 10 3.5 0 0 0 1 0 1 0 -1 0 0 
2 10 2.5 1.5 -0 -1 -0 0 0 -1 1 -0 0 1
1 10 1.5 0.25 1 0 0 -0 0 1 0 -1 0 
1 10 1.5 0.5 1 0 0 -0 0 1 0 -1 0 
2 10 9.5 -0.5 -0 -1 -0 0 0 1 1 -0 -0 1
1 10 8.5 0.25 1 0 0 -0 0 1 0 -1 0 
1 10 8.5 0.5 1 0 0 -0 0 1 0 -1 0 
2 10 0.5 1.5 0 1 0 0 0 -1 1 -0 -0 1.5
2 10 7.5 -0.5 0 1 0 0 -0 1 1 0 -0 0.5
1 10 7.5 -0.5 0 1 0 0 -0 1 1 0 -0 
1 10 2.5 1.5 -0 -1 -0 0 0 -1 1 -0 0 
1 10 0.5 1.5 -0 -1 -0 -0 -0 1 1 -0 0 
1 10 9.5 -0.5 0 1 0 -0 0 -1 1 0 -0 
1 10 7.5 1 -0 1 0 0 0 -1 -1 0 -0 
1 10 7.5 0 0 0 1 0 1 0 -1 0 0 
1 10 2.5 0 0 -1 0 0 0 1 -1 0 0 
1 10 0.5 0 0 0 1 0 1 0 -1 0 0 
1 10 0.5 1 -0 1 0 0 0 -1 -1 0 -0 
1 10 9.5 0 0 -1 0 0 0 1 -1 0 0 
1 10 9.5 1 0 0 -1 0 -1 0 -1 -0 -0 
1 10 2.5 1 0 0 -1 0 -1 0 -1 -0 -0 
Triangulations 0

TShapes 213
Ve
1e-07
10 6.5 1
0 0

0101101
*
Ve
1.00000000444089e-07
10.3535533905933 6.5 1.14644660940673
0 0

0101101
*
Ed
 1e-07 1 1 0
1  1 0 0 0.785398163397448
2  1 1 0 0 0.785398163397448
2  2 2 0 0 0.785398163397448
0

0101000
+213 0 -212 0 *
Ve
1e-07
10 3.5 1
0 0

0101101
*
Ve
1.00000000444089e-07
10.3535533905933 3.5 1.14644660940673
0 0

0101101
*
Ed
 1e-07 1 1 0
1  2 0 0 0.785398163397448
2  3 1 0 0 0.785398163397448
2  4 3 0 0 0.785398163397448
0

0101000
+210 0 -209 0 *
Ed
 1e-07 1 1 0
1  3 0 3.5 6.5
2  5 4 0 3.5 6.5
2  6 5 0 3.5 6.5
2  7 1 0 3.5 6.5
0

0101000
+210 0 -213 0 *
Ed
 1e-07 1 1 0
1  4 0 0 3
2  8 1 0 0 3
2  9 1 3 0 3
2  10 6 0 0 3
2  11 6 5 0 3
2  12 7 0 0 3
0

0101000
+212 3 -209 3 *
Wi

0101100
+211 0 -208 0 +207 0 +206 2 *
Fa
0  1e-07 1 0

0111000
+205 0 *
Ve
1e-07
10 6.5 0
0 0

0101101
*
Ve
1.00000000444089e-07
11.0606601717798 6.5 0.439339828220179
0 0

0101101
*
Ed
 1e-07 1 1 0
1  5 0 0 0.785398163397448
2  13 8 0 0 0.785398163397448
2  14 2 0 0 0.785398163397448
0

0101000
+203 0 -202 0 *
Ed
 1e-07 1 1 0
1  6 0 0 1
4 CN 4 0 4 0
2  15 4 0 0 1
0

0101000
+213 0 -203 0 *
Ed
 1.00000000444089e-07 1 1 0
1  7 0 0 1
2  16 2 0 0 1
2  17 2 3 0 1
2  18 9 0 0 1
2  19 9 5 0 1
2  20 7 0 0 1
0

0101000
+202 3 -212 3 *
Wi

0101100
+201 0 -211 0 +200 0 +199 2 *
Fa
0  1e-07 2 0

0101000
+198 0 *
Ve
1e-07
10 3.5 0
0 0

0101101
*
Ve
1.00000000444089e-07
11.0606601717798 3.5 0.439339828220179
0 0

0101101
*
Ed
 1e-07 1 1 0
1  8 0 0 0.785398163397448
2  21 3 0 0 0.785398163397448
2  22 8 0 0 0.785398163397448
0

0101000
+196 0 -195 0 *
Ed
 1e-07 1 1 0
1  9 0 0 1
4 CN 4 0 4 0
2  23 4 0 0 1
0

0101000
+210 0 -196 0 *
Ed
 1.00000000444089e-07 1 1 0
1  10 0 0 1
2  24 3 0 0 1
2  25 3 3 0 1
2  26 10 0 0 1
2  27 10 5 0 1
2  28 7 0 0 1
0

0101000
+209 3 -195 3 *
Wi

0101100
+208 0 -194 0 -193 0 +192 2 *
Fa
0  1e-07 3 0

0101000
+191 0 *
Ve
1e-07
0 10 1
0 0

0101101
*
Ve
1e-07
0 0 1
0 0

0101101
*
Ed
 1e-07 1 1 0
1  11 0 0 10
2  29 11 0 0 10
2  30 5 0 0 10
0

0101000
-189 0 +188 0 *
Ve
1e-07
10 10 1
0 0

0101101
*
Ed
 1e-07 1 1 0
1  12 0 0 10
2  31 12 0 0 10
2  32 5 0 0 10
0

0101000
-186 0 +189 0 *
Ve
1e-07
10 0 1
0 0

0101101
*
Ve
1e-07
10 0.5 1
0 0

0101101
*
Ed
 1e-07 1 1 0
1  3 0 0 0.5
2  5 4 0 0 0.5
2  6 5 0 0 0.5
0

0101000
+184 0 -183 0 *
Ve
1e-07
10 2.5 1
0 0

0101101
*
Ed
 1e-07 1 1 0
1  3 0 0.5 2.5
2  5 4 0 0.5 2.5
2  6 5 0 0.5 2.5
0

0101000
+183 0 -181 0 *
Ed
 1e-07 1 1 0
1  3 0 2.5 3.5
2  5 4 0 2.5 3.5
2  6 5 0 2.5 3.5
0

0101000
+181 0 -210 0 *
Ve
1e-07
10 7.5 1
0 0

0101101
*
Ed
 1e-07 1 1 0
1  3 0 6.5 7.5
2  5 4 0 6.5 7.5
2  6 5 0 6.5 7.5
0

0101000
+213 0 -178 0 *
Ve
1e-07
10 9.5 1
0 0

0101101
*
Ed
 1e-07 1 1 0
1  3 0 7.5 9.5
2  5 4 0 7.5 9.5
2  6 5 0 7.5 9.5
0

0101000
+178 0 -176 0 *
Ed
 1e-07 1 1 0
1  3 0 9.5 10
2  5 4 0 9.5 10
2  6 5 0 9.5 10
0

0101000
+176 0 -186 0 *
Ed
 1e-07 1 1 0
1  13 0 0 10
2  33 13 0 0 10
2  34 5 0 0 10
0

0101000
-184 0 +188 0 *
Wi

0101100
-187 0 -185 0 +182 0 +180 0 +179 0 +207 0 +177 0 +175 0 +174 0 +173 0 
*
Fa
0  1e-07 5 0

0101000
+172 0 *
Ve
1e-07
10 6.5 1
0 0

0101101
*
Ed
 1e-07 1 1 0
1  14 0 0 5
2  35 6 0 0 5
2  36 9 0 0 5
0

0101000
+212 7 -170 4 *
Ve
1e-07
10 3.5 1
0 0

0101101
*
Ed
 1e-07 1 1 0
1  15 0 0 5
2  37 6 0 0 5
2  38 10 0 0 5
0

0101000
+209 7 -168 4 *
Ed
 1e-07 1 1 0
1  4 0 0 3
2  8 1 0 0 3
2  9 1 3 0 3
2  10 6 0 0 3
2  11 6 5 0 3
2  12 7 0 0 3
0

0101000
+170 0 -168 0 *
Wi

0101100
+169 6 -167 6 -206 2 +166 8 *
Fa
0  1e-07 6 6

0101000
+165 0 *
Ed
 1e-07 1 1 0
1  16 0 3.5 6.5
2  39 4 0 3.5 6.5
2  40 14 0 3.5 6.5
2  41 8 0 3.5 6.5
0

0101000
+196 0 -203 0 *
Ed
 1e-07 1 1 0
1  17 0 0 3
2  42 8 0 0 3
2  43 8 3 0 3
2  44 15 0 0 3
2  45 15 5 0 3
2  46 7 0 0 3
0

0101000
+195 3 -202 3 *
Wi

0101100
+194 0 -201 0 -163 0 +162 2 *
Fa
0  1e-07 8 0

0111000
+161 0 *
Ve
1.00000000027756e-07
10 7.5 0
0 0

0101101
*
Ed
 1e-07 1 1 0
1  16 0 6.5 7.5
2  39 4 0 6.5 7.5
2  40 14 0 6.5 7.5
0

0101000
+203 0 -159 0 *
Ve
1.0000000094369e-07
10 7.5 0.5
0 0

0101101
*
Ed
 1.00000000027756e-07 1 1 0
1  18 0 0 0.5
4 CN 4 0 4 0
2  47 4 0 0 0.5
0

0101000
+159 0 -157 0 *
Ed
 1e-07 1 1 0
1  18 0 0.5 1
4 CN 4 0 4 0
2  47 4 0 0.5 1
0

0101000
+157 0 -178 0 *
Wi

0101100
+158 0 +156 0 +155 0 -177 0 +200 0 *
Fa
0  1e-07 4 0

0101000
+154 0 *
Ve
1e-07
10 6.5 0
0 0

0101101
*
Ed
 1e-07 1 1 0
1  19 0 0 5
2  48 9 0 0 5
2  49 15 0 0 5
0

0101000
+202 7 -152 4 *
Ed
 1e-07 1 1 0
1  7 0 0 1
2  16 2 0 0 1
2  17 2 3 0 1
2  18 9 0 0 1
2  19 9 5 0 1
2  20 7 0 0 1
0

0101000
+152 0 -170 0 *
Wi

0101100
+151 6 -169 6 -199 2 +150 8 *
Fa
0  1e-07 9 6

0101000
+149 0 *
Ve
1.00000000444089e-07
10 2.5 0.5
0 0

0101101
*
Ed
 1e-07 1 1 0
1  20 0 0 0.5
4 CN 4 0 4 0
2  50 4 0 0 0.5
0

0101000
+181 0 -147 0 *
Ve
1e-07
10 2.5 0
0 0

0101101
*
Ed
 1e-07 1 1 0
1  20 0 0.5 1
4 CN 4 0 4 0
2  50 4 0 0.5 1
0

0101000
+147 0 -145 0 *
Ed
 1e-07 1 1 0
1  16 0 2.5 3.5
2  39 4 0 2.5 3.5
2  40 14 0 2.5 3.5
0

0101000
+145 0 -196 0 *
Wi

0101100
-179 0 +146 0 +144 0 +143 0 -193 0 *
Fa
0  1e-07 4 0

0101000
+142 0 *
Ve
1e-07
10 3.5 0
0 0

0101101
*
Ed
 1e-07 1 1 0
1  21 0 0 5
2  51 10 0 0 5
2  52 15 0 0 5
0

0101000
+195 7 -140 4 *
Ed
 1e-07 1 1 0
1  10 0 0 1
2  24 3 0 0 1
2  25 3 3 0 1
2  26 10 0 0 1
2  27 10 5 0 1
2  28 7 0 0 1
0

0101000
+168 0 -140 0 *
Wi

0101100
+167 6 -139 6 -192 2 +138 8 *
Fa
0  1e-07 10 6

0101000
+137 0 *
Ve
1e-07
0 0 0
0 0

0101101
*
Ed
 1e-07 1 1 0
1  22 0 0 1
2  53 11 0 0 1
2  54 13 0 0 1
0

0101000
-188 0 +135 0 *
Ve
1e-07
0 10 0
0 0

0101101
*
Ed
 1e-07 1 1 0
1  23 0 0 1
2  55 11 0 0 1
2  56 12 0 0 1
0

0101000
-189 0 +133 0 *
Ed
 1e-07 1 1 0
1  24 0 0 10
2  57 11 0 0 10
2  58 14 0 0 10
0

0101000
-133 0 +135 0 *
Wi

0101100
-134 0 -187 0 +132 0 +131 0 *
Fa
0  1e-07 11 0

0111000
+130 0 *
Ve
1e-07
10 10 0
0 0

0101101
*
Ed
 1e-07 1 1 0
1  25 0 0 10
2  59 12 0 0 10
2  60 14 0 0 10
0

0101000
-128 0 +133 0 *
Ed
 1e-07 1 1 0
1  26 0 0 1
2  61 4 0 0 1
2  62 12 0 0 1
0

0101000
-186 0 +128 0 *
Wi

0101100
-127 0 -126 0 +185 0 +132 0 *
Fa
0  1e-07 12 0

0111000
+125 0 *
Ve
1e-07
10 0 0
0 0

0101101
*
Ed
 1e-07 1 1 0
1  27 0 0 1
2  63 4 0 0 1
2  64 13 0 0 1
0

0101000
-184 0 +123 0 *
Ve
1e-07
10 0.5 0
0 0

0101101
*
Ed
 1e-07 1 1 0
1  16 0 0 0.5
2  39 4 0 0 0.5
2  40 14 0 0 0.5
0

0101000
+123 0 -121 0 *
Ve
1.00000000666134e-07
10 0.5 0.5
0 0

0101101
*
Ed
 1e-07 1 1 0
1  28 0 0 0.5
4 CN 4 0 4 0
2  65 4 0 0 0.5
0

0101000
+183 0 -119 0 *
Ed
 1e-07 1 1 0
1  28 0 0.5 1
4 CN 4 0 4 0
2  65 4 0 0.5 1
0

0101000
+119 0 -121 0 *
Wi

0101100
-122 0 -182 0 +120 0 -118 0 -117 0 *
Fa
0  1e-07 4 0

0101000
+116 0 *
Ed
 1e-07 1 1 0
1  29 0 0 2
2  66 16 0 0 2
2  67 16 10 0 2
2  68 17 0 0 2
2  69 4 0 0 2
2  70 18 12 0 2
0

0101000
+147 0 -119 0 *
Wi

0101100
+118 0 -180 0 -146 0 -114 0 *
Fa
0  1e-07 4 0

0111000
+113 0 *
Ve
1.00000000444089e-07
10 9.5 0.5
0 0

0101101
*
Ed
 1e-07 1 1 0
1  30 0 0.5 1
4 CN 4 0 4 0
2  71 4 0 0.5 1
0

0101000
+111 0 -176 0 *
Ed
 1e-07 1 1 0
1  31 0 0 2
2  72 19 0 0 2
2  73 19 14 0 2
2  74 20 0 0 2
2  75 4 0 0 2
2  76 21 16 0 2
0

0101000
+111 0 -157 0 *
Wi

0101100
-175 0 +110 0 -109 0 -155 0 *
Fa
0  1e-07 4 0

0111000
+108 0 *
Ve
1e-07
10 9.5 0
0 0

0101101
*
Ed
 1e-07 1 1 0
1  16 0 9.5 10
2  39 4 0 9.5 10
2  40 14 0 9.5 10
0

0101000
+106 0 -128 0 *
Ed
 1e-07 1 1 0
1  30 0 0 0.5
4 CN 4 0 4 0
2  71 4 0 0 0.5
0

0101000
+106 0 -111 0 *
Wi

0101100
+105 0 +126 0 -174 0 -104 0 -110 0 *
Fa
0  1e-07 4 0

0101000
+103 0 *
Ed
 1e-07 1 1 0
1  32 0 0 10
2  77 13 0 0 10
2  78 14 0 0 10
0

0101000
-123 0 +135 0 *
Wi

0101100
-101 0 -122 0 +173 0 +134 0 *
Fa
0  1e-07 13 0

0111000
+100 0 *
Ed
 1e-07 1 1 0
1  17 0 0 3
2  42 8 0 0 3
2  43 8 3 0 3
2  44 15 0 0 3
2  45 15 5 0 3
2  46 7 0 0 3
0

0101000
+140 0 -152 0 *
Wi

0101100
+166 0 +138 0 +98 0 +150 0 *
Fa
0  1e-07 7 0

0111000
+97 0 *
Ed
 1e-07 1 1 0
1  16 0 0.5 2.5
2  39 4 0 0.5 2.5
2  40 14 0 0.5 2.5
2  79 22 0 0.5 2.5
0

0101000
+121 0 -145 0 *
Ed
 1e-07 1 1 0
1  16 0 7.5 9.5
2  39 4 0 7.5 9.5
2  40 14 0 7.5 9.5
2  80 23 0 7.5 9.5
0

0101000
+159 0 -106 0 *
Wi

0101100
-131 0 -127 0 +120 0 +95 0 +143 0 +163 0 +158 0 +94 0 +105 0 +101 0 
*
Fa
0  1e-07 14 0

0101000
+93 0 *
Wi

0101100
+139 6 -151 6 -162 2 +98 8 *
Fa
0  1e-07 15 6

0101000
+91 0 *
Ed
 1e-07 1 1 0
1  33 0 0 0.785398163397448
2  81 19 0 0 0.785398163397448
2  82 24 0 0 0.785398163397448
0

0101000
+157 0 -157 13 *
Ve
1.0000000094369e-07
10.3535533905933 7.5 -0.146446609406726
0 0

0101101
*
Ed
 1e-07 1 1 0
1  34 0 0 0.785398163397448
2  83 23 0 0 0.785398163397448
2  84 24 0 0 0.785398163397448
0

0101000
+159 0 -88 0 *
Ed
 1.0000000094369e-07 1 1 0
1  35 0 0 0.5
2  85 24 0 0 0.5
2  86 24 14 0 0.5
2  87 20 0 0 0.5
2  88 21 16 0 0.5
0

0101000
+157 0 -88 14 *
Wi

0101100
+89 0 -87 0 +156 0 +86 13 *
Fa
0  1e-07 24 0

0101000
+85 0 *
Ve
1.00000000444089e-07
11.0606601717798 2.5 0.439339828220179
0 0

0101101
*
Ed
 1e-07 1 1 0
1  36 0 0 0.785398163397448
2  89 22 0 0 0.785398163397448
2  90 25 0 0 0.785398163397448
0

0101000
+145 0 -83 0 *
Ed
 1e-07 1 1 0
1  37 0 0 0.785398163397448
2  91 16 0 0 0.785398163397448
2  92 25 0 0 0.785398163397448
0

0101000
+147 0 -147 9 *
Ed
 1.00000000444089e-07 1 1 0
1  38 0 0 0.5
2  93 25 0 0 0.5
2  94 25 10 0 0.5
2  95 17 0 0 0.5
2  96 18 12 0 0.5
0

0101000
+83 10 -147 0 *
Wi

0101100
+82 0 -81 0 +144 0 +80 9 *
Fa
0  1e-07 25 0

0101000
+79 0 *
Ed
 1e-07 1 1 0
1  39 0 0 0.785398163397448
2  97 16 0 0 0.785398163397448
2  98 26 0 0 0.785398163397448
0

0101000
+119 0 -119 9 *
Ve
1.00000000666134e-07
11.0606601717798 0.5 0.439339828220179
0 0

0101101
*
Ed
 1e-07 1 1 0
1  40 0 0 0.785398163397448
2  99 26 0 0 0.785398163397448
2  100 22 0 0 0.785398163397448
0

0101000
+121 0 -76 0 *
Ed
 1.00000000666134e-07 1 1 0
1  41 0 0 0.5
2  101 26 0 0 0.5
2  102 26 10 0 0.5
2  103 17 0 0 0.5
2  104 18 12 0 0.5
0

0101000
+119 0 -76 10 *
Wi

0101100
+77 0 -75 0 -117 0 +74 9 *
Fa
0  1e-07 26 0

0101000
+73 0 *
Wi

0101100
+81 0 -77 0 -114 0 +114 9 *
Fa
0  1e-07 16 0

0111000
+71 0 *
Ed
 1e-07 1 1 0
1  42 0 0 0.785398163397448
2  105 27 0 0 0.785398163397448
2  106 19 0 0 0.785398163397448
0

0101000
+111 0 -111 13 *
Wi

0101100
+69 0 -89 0 -109 0 +109 13 *
Fa
0  1e-07 19 0

0111000
+68 0 *
Ve
1.00000000388578e-07
10.3535533905933 9.5 -0.146446609406726
0 0

0101101
*
Ed
 1e-07 1 1 0
1  43 0 0 0.785398163397448
2  107 23 0 0 0.785398163397448
2  108 27 0 0 0.785398163397448
0

0101000
+106 0 -66 0 *
Ed
 1.00000000388578e-07 1 1 0
1  44 0 0 0.5
2  109 27 0 0 0.5
2  110 27 14 0 0.5
2  111 20 0 0 0.5
2  112 21 16 0 0.5
0

0101000
+66 14 -111 0 *
Wi

0101100
+65 0 -69 0 -104 0 +64 13 *
Fa
0  1e-07 27 0

0101000
+63 0 *
Ed
 1e-07 1 1 0
1  45 0 0 2
2  113 22 0 0 2
2  114 22 10 0 2
2  115 17 0 0 2
2  116 18 12 0 2
0

0101000
+76 10 -83 10 *
Wi

0101100
+75 0 -82 0 -95 0 +61 9 *
Fa
0  1e-07 22 0

0101000
+60 0 *
Ed
 1e-07 1 1 0
1  46 0 0 2
2  117 23 0 0 2
2  118 23 14 0 2
2  119 20 0 0 2
2  120 21 16 0 2
0

0101000
+88 14 -66 14 *
Wi

0101100
+87 0 -65 0 -94 0 +58 13 *
Fa
0  1e-07 23 0

0111000
+57 0 *
Ve
1e-07
10 7.5 1
0 0

0101101
*
Ed
 1e-07 1 1 0
1  47 0 0 5
2  121 28 0 0 5
0

0101000
+55 0 -55 17 *
Ve
1e-07
10 7.5 0
0 0

0101101
*
Ed
 1e-07 1 1 0
1  48 0 0 5
2  122 29 0 0 5
2  123 28 0 0 5
0

0101000
+88 18 -53 17 *
Ed
 1e-07 1 1 0
1  49 0 0 0.500000000000001
2  124 28 0 0 0.500000000000001
2  125 28 19 0 0.500000000000001
2  126 21 0 0 0.500000000000001
0

0101000
+55 0 -157 20 *
Ed
 1e-07 1 1 0
1  49 0 0 1
2  124 28 0 0 1
2  125 28 19 0 1
2  126 21 0 0 1
0

0101000
+55 0 -53 0 *
Wi

0101100
+54 15 -52 15 -51 15 -86 13 +50 21 *
Fa
0  1e-07 28 15

0101000
+49 0 *
Ve
1e-07
10 2.5 0
0 0

0101101
*
Ed
 1e-07 1 1 0
1  50 0 0 5
2  127 30 0 0 5
2  128 31 0 0 5
0

0101000
+83 22 -47 23 *
Ve
1e-07
10 2.5 1
0 0

0101101
*
Ed
 1e-07 1 1 0
1  51 0 0 5
2  129 30 0 0 5
0

0101000
+45 0 -45 23 *
Ed
 1e-07 1 1 0
1  52 0 0.500000000000001 1
2  130 30 0 0.500000000000001 1
2  131 30 24 0.500000000000001 1
2  132 18 0 0.500000000000001 1
0

0101000
+147 25 -45 0 *
Ed
 1e-07 1 1 0
1  52 0 0 1
2  130 30 0 0 1
2  131 30 24 0 1
2  132 18 0 0 1
0

0101000
+47 0 -45 0 *
Wi

0101100
+46 11 -44 11 -80 9 -43 11 +42 26 *
Fa
0  1e-07 30 11

0101000
+41 0 *
Ve
1e-07
10 0.5 1
0 0

0101101
*
Ed
 1e-07 1 1 0
1  53 0 0 5
2  133 32 0 0 5
0

0101000
+39 0 -39 23 *
Ve
1e-07
10 0.5 0
0 0

0101101
*
Ed
 1e-07 1 1 0
1  54 0 0 5
2  134 32 0 0 5
2  135 31 0 0 5
0

0101000
+76 22 -37 23 *
Ed
 1e-07 1 1 0
1  55 0 0 0.5
2  136 18 0 0 0.5
2  137 32 0 0 0.5
2  138 32 24 0 0.5
0

0101000
+39 0 -119 25 *
Ed
 1e-07 1 1 0
1  55 0 0 1
2  136 18 0 0 1
2  137 32 0 0 1
2  138 32 24 0 1
0

0101000
+39 0 -37 0 *
Wi

0101100
+38 11 -36 11 -35 11 -74 9 +34 26 *
Fa
0  1e-07 32 11

0101000
+33 0 *
Ed
 1e-07 1 1 0
1  56 0 0 2
2  139 18 0 0 2
0

0101000
+45 0 -39 0 *
Wi

0101100
+43 11 -114 9 +35 11 +31 11 *
Fa
0  1e-07 18 11

0111000
+30 0 *
Ve
1e-07
10 9.5 1
0 0

0101101
*
Ed
 1e-07 1 1 0
1  57 0 0 2
2  140 21 0 0 2
0

0101000
+28 0 -55 0 *
Ed
 1e-07 1 1 0
1  58 0 0.500000000000001 1
2  141 21 0 0.500000000000001 1
2  142 33 0 0.500000000000001 1
2  143 33 19 0.500000000000001 1
0

0101000
+111 20 -28 0 *
Wi

0101100
+51 15 +27 15 +26 15 -109 13 *
Fa
0  1e-07 21 15

0111000
+25 0 *
Ve
1e-07
10 9.5 0
0 0

0101101
*
Ed
 1e-07 1 1 0
1  59 0 0 5
2  144 29 0 0 5
2  145 33 0 0 5
0

0101000
+66 18 -23 17 *
Ed
 1e-07 1 1 0
1  60 0 0 5
2  146 33 0 0 5
0

0101000
+28 0 -28 17 *
Ed
 1e-07 1 1 0
1  58 0 0 1
2  141 21 0 0 1
2  142 33 0 0 1
2  143 33 19 0 1
0

0101000
+23 0 -28 0 *
Wi

0101100
+22 15 -21 15 -64 13 -26 15 +20 21 *
Fa
0  1e-07 33 15

0101000
+19 0 *
Ed
 1e-07 1 1 0
1  61 0 0 2
2  147 18 0 0 2
2  148 31 0 0 2
2  149 31 24 0 2
0

0101000
+37 0 -47 0 *
Wi

0101100
+36 11 -46 11 -61 9 +17 26 *
Fa
0  1e-07 31 11

0101000
+16 0 *
Ed
 1e-07 1 1 0
1  62 0 0 2
2  150 29 0 0 2
2  151 29 19 0 2
2  152 21 0 0 2
0

0101000
+53 0 -23 0 *
Wi

0101100
+52 15 -22 15 -58 13 +14 21 *
Fa
0  1e-07 29 15

0101000
+13 0 *
Wi

0101100
+21 0 -54 0 -27 0 +27 17 *
Fa
0  1e-07 34 0

0111000
+11 0 *
Wi

0101100
+14 0 +20 0 +27 0 +50 0 *
Fa
0  1e-07 21 0

0111000
+9 0 *
Wi

0101100
+44 0 -38 0 -31 0 +31 23 *
Fa
0  1e-07 35 0

0111000
+7 0 *
Wi

0101100
+31 0 +34 0 +17 0 +42 0 *
Fa
0  1e-07 18 0

0111000
+5 0 *
Sh

0101100
-204 0 -197 0 -190 0 +171 0 -164 0 -160 0 +153 0 -148 0 +141 0 -136 0 
-129 0 +124 0 +115 0 +112 0 +107 0 +102 0 -99 0 +96 8 -92 0 -90 0 
-84 0 -78 0 -72 0 -70 0 -67 0 -62 0 -59 0 -56 0 -48 0 -40 0 
-32 0 -29 0 -24 0 -18 0 -15 0 -12 0 -10 15 +8 21 -6 11 +4 26 
*
So

0100000
+3 0 *
Co

1100000
+2 0 *

+1 1  