
CASCADE Topology V1, (c) Matra-Datavision
Locations 10
1
              1               0               0              -5 
              0               1               0              -1 
              0               0               1               0 
1
              1               0               0               0 
              0               1               0              -4 
              0               0               1               0 
1
              1               0               0               4 
              0               1               0              -4 
              0               0               1               0 
1
              1               0               0               4 
              0               1               0              -4 
              0               0               1               0 
1
              1               0               0              -4 
              0               1               0               4 
              0               0               1               0 
2  5 -1 0
2  3 -1 0
2  4 1 3 -1 0
2  5 -1 3 -1 0
2  2 -1 0
Curve2ds 79
1 0 0 1 0 
1 0 0 1 0 
1 0 -4 1 0 
8 -1.5 0.5
1 1 -0.5 0 1 
8 -1.5 0.5
1 -1 -0.5 0 -1 
1 0 -2 1 0 
1 0 0 1 0 
1 0 -6 1 0 
1 0 0 0 -1 
1 0 0 0 1 
1 0 -4 0 -1 
1 0 4 0 1 
1 0 0 0 1 
1 0 0 1 0 
8 -2 0
1 0 4 -1 0 
8 -2 0
1 0 -4 -1 0 
1 0 -4 -1 0 
1 0 -4 -1 0 
8 -3.5 -1.5
1 1 2.5 0 -1 
8 -3.5 -1.5
1 2.5 -1 1 -0 
8 -2 0
1 0 6 -1 0 
8 -2 0
1 0 -4 -1 0 
1 0 -4 -1 0 
1 0 -4 -1 0 
1 0 0 1 0 
1 0 10 1 0 
1 2 0 0 1 
1 0 0 1 0 
8 -2 0
1 0 2 -1 0 
8 -2 0
1 0 -4 -1 0 
8 -0.5 1.5
1 1 0.5 0 1 
8 -0.5 1.5
1 -0.5 -1 1 0 
8 -0.5 1.5
1 1 0.5 0 1 
8 -0.5 1.5
1 -0.5 1 1 0 
8 -3.5 -1.5
1 1 -2.5 0 1 
8 -3.5 -1.5
1 1 -2.5 0 -1 
1 0 0 0 1 
1 0 2 1 0 
8 -2 0
1 0 4 -1 0 
8 -2 0
1 0 -6 -1 0 
1 0 -6 -1 0 
1 0 -6 -1 0 
8 -3.5 -1.5
1 1 2.5 0 -1 
8 -3.5 -1.5
1 2.5 1 1 -0 
8 -2 0
1 0 6 -1 0 
8 -2 0
1 0 -6 -1 0 
1 0 -6 -1 0 
1 0 -6 -1 0 
1 0 -2 1 0 
1 0 10 1 0 
1 2 0 0 1 
1 0 2 1 0 
8 -2 0
1 0 2 -1 0 
8 -2 0
1 0 -6 -1 0 
1 0 0 0 -1 
1 0 0 0 1 
1 4 -4 0 1 
1 0 0 0 -1 
1 0 0 0 -1 
8 1.5 3.5
1 1 -2.5 0 -1 
8 1.5 3.5
1 1 -2.5 0 1 
1 1 -2.5 0 -1 
1 1 -2.5 0 -1 
8 1.5 3.5
1 1 -2.5 0 -1 
8 1.5 3.5
1 -1 -2.5 0 1 
1 1 -2.5 0 -1 
1 1 -2.5 0 -1 
1 0 0 0 -1 
1 2 0 0 1 
1 6 -4 0 1 
1 0 0 0 -1 
1 0 0 0 -1 
1 0 0 0 -1 
1 10 0 0 1 
1 2 0 0 -1 
1 10 0 0 1 
1 2 0 0 -1 
1 2 0 0 1 
1 2 -4 0 1 
Curves 28
1 0 0 0 0 0 1 
1 0 0.5 1 0 -1 0 
1 0 2 0 0 0 1 
1 0 0 0 -0 1 0 
1 0 0 0 1 0 -0 
1 4 0 0 0 0 -1 
1 2.5 0 1 -1 -0 0 
1 6 0 0 0 0 -1 
1 10 0 0 0 0 1 
1 0 0 2 1 0 -0 
1 2 0 0 0 0 -1 
1 0.5 0 1 1 0 -0 
1 0.5 2 1 1 0 -0 
1 2 -1.5 1 0 -1 0 
1 0 2 0 1 0 -0 
1 4 2 0 0 0 -1 
1 2.5 2 1 -1 -0 0 
1 6 2 0 0 0 -1 
1 10 2 0 0 0 1 
1 0 2 2 1 0 -0 
1 2 2 0 0 0 -1 
1 0 0 0 -0 1 0 
1 4 -1.5 1 0 1 0 
1 6 -1.5 1 0 1 0 
1 2 0 0 -0 1 0 
1 10 0 0 -0 1 0 
1 10 0 2 -0 1 0 
1 2 0 2 -0 1 0 
Polygon3D 0
PolygonOnTriangulations 0
Surfaces 15
1 0 0 0 1 0 -0 0 0 1 0 -1 0 
1 0 0 0 -0 1 0 0 0 1 1 0 -0 
1 0 0 0 1 0 -0 0 0 1 0 -1 0 
1 1 1 1 0 0 1 1 0 -0 -0 1 0 
1 0 2 0 -0 1 0 0 0 1 1 0 -0 
1 0 0 0 0 0 1 1 0 -0 -0 1 0 
1 0 0 0 0 0 1 1 0 -0 -0 1 0 
1 0 0 0 1 0 -0 0 0 1 0 -1 0 
1 5 1 1 -0 -0 -1 -1 0 0 0 1 -0 
1 2 0 0 1 0 -0 0 0 1 0 -1 0 
1 2 0 0 1 0 -0 0 0 1 0 -1 0 
1 10 0 0 1 0 -0 0 0 1 0 -1 0 
1 0 0 2 0 0 1 1 0 -0 -0 1 0 
1 0 0 0 0 0 1 1 0 -0 -0 1 0 
1 0 0 2 0 0 1 1 0 -0 -0 1 0 
Triangulations 0

TShapes 77
Ve
1.00000000444089e-07
0 0 0
0 0

0101101
*
Ve
1.5e-07
0 0 1
0 0

0101101
*
Ed
 1e-07 1 1 0
1  1 0 0 1
2  1 1 0 0 1
2  2 2 0 0 1
2  3 3 2 0 1
0

0101000
+77 0 -76 0 *
Ve
1.5e-07
0 2 1
0 0

0101101
*
Ed
 1.5e-07 1 1 0
1  2 0 -1.5 0.5
2  4 1 0 -1.5 0.5
2  5 4 0 -1.5 0.5
0

0101000
+74 0 -76 0 *
Ve
1.00000000444089e-07
0 2 0
0 0

0101101
*
Ed
 1e-07 1 1 0
1  3 0 0 1
2  6 1 0 0 1
2  7 5 0 0 1
2  8 3 2 0 1
0

0101000
+72 0 -74 0 *
Ed
 1.00000000444089e-07 1 1 0
1  4 0 0 2
2  9 1 0 0 2
2  10 6 0 0 2
2  11 3 2 0 2
2  12 7 2 0 2
0

0101000
-72 0 +77 0 *
Wi

0101100
-75 0 +73 0 +71 0 +70 0 *
Fa
0  1e-07 1 0

0101000
+69 0 *
Ve
1.5e-07
4 0 0
0 0

0101101
*
Ed
 1e-07 1 1 0
1  5 0 0 4
2  13 2 0 0 4
2  14 6 0 0 4
0

0101000
+77 0 -67 0 *
Ve
1.5e-07
4 0 1
0 0

0101101
*
Ed
 1.5e-07 1 1 0
1  6 0 -1 0
2  15 2 0 -1 0
2  16 8 3 -1 0
2  17 3 4 -1 0
2  18 3 6 -1 0
0

0101000
+65 0 -67 0 *
Ve
1.5e-07
6 0 1
0 0

0101101
*
Ed
 1.5e-07 1 1 0
1  7 0 -3.5 -1.5
2  19 2 0 -3.5 -1.5
2  20 9 0 -3.5 -1.5
0

0101000
+63 0 -65 0 *
Ve
1.5e-07
6 0 0
0 0

0101101
*
Ed
 1.5e-07 1 1 0
1  8 0 -1 0
2  21 2 0 -1 0
2  22 10 3 -1 0
2  23 11 4 -1 0
2  24 11 6 -1 0
0

0101000
+63 0 -61 0 *
Ve
1e-07
10 0 0
0 0

0101101
*
Ed
 1e-07 1 1 0
1  5 0 6 10
2  13 2 0 6 10
2  14 6 0 6 10
0

0101000
+61 0 -59 0 *
Ve
1e-07
10 0 2
0 0

0101101
*
Ed
 1e-07 1 1 0
1  9 0 0 2
2  25 12 0 0 2
2  26 2 0 0 2
0

0101000
-57 0 +59 0 *
Ve
1.5e-07
2 0 2
0 0

0101101
*
Ed
 1e-07 1 1 0
1  10 0 2 10
2  27 2 0 2 10
2  28 13 0 2 10
0

0101000
+55 0 -57 0 *
Ve
1.5e-07
2 0 1
0 0

0101101
*
Ed
 1.5e-07 1 1 0
1  11 0 -2 -1
2  29 2 0 -2 -1
2  30 11 2 -2 -1
0

0101000
+55 0 -53 0 *
Ed
 1.5e-07 1 1 0
1  12 0 -0.5 1.5
2  31 2 0 -0.5 1.5
2  32 4 0 -0.5 1.5
0

0101000
+76 0 -53 0 *
Wi

0101100
-66 0 +64 0 +62 0 -60 0 -58 0 -56 0 +54 0 -52 0 +51 0 +75 0 
*
Fa
0  1e-07 2 0

0101000
+50 0 *
Ve
1.5e-07
2 2 1
0 0

0101101
*
Ed
 1.5e-07 1 1 0
1  13 0 -0.5 1.5
2  33 5 0 -0.5 1.5
2  34 4 0 -0.5 1.5
0

0101000
+74 0 -48 0 *
Ed
 1.5e-07 1 1 0
1  14 0 -3.5 -1.5
2  35 11 2 -3.5 -1.5
2  36 4 0 -3.5 -1.5
0

0101000
+48 0 -53 0 *
Wi

0101100
-47 0 -46 0 +51 0 +73 0 *
Fa
0  1e-07 4 0

0101000
+45 0 *
Ve
1.5e-07
4 2 0
0 0

0101101
*
Ed
 1e-07 1 1 0
1  15 0 0 4
2  37 5 0 0 4
2  38 6 0 0 4
0

0101000
+72 0 -43 0 *
Ve
1.5e-07
4 2 1
0 0

0101101
*
Ed
 1.5e-07 1 1 0
1  16 0 -1 0
2  39 5 0 -1 0
2  40 8 3 -1 0
2  41 3 4 -1 0
2  42 3 6 -1 0
0

0101000
+41 0 -43 0 *
Ve
1.5e-07
6 2 1
0 0

0101101
*
Ed
 1.5e-07 1 1 0
1  17 0 -3.5 -1.5
2  43 5 0 -3.5 -1.5
2  44 9 0 -3.5 -1.5
0

0101000
+39 0 -41 0 *
Ve
1.5e-07
6 2 0
0 0

0101101
*
Ed
 1.5e-07 1 1 0
1  18 0 -1 0
2  45 5 0 -1 0
2  46 10 3 -1 0
2  47 11 4 -1 0
2  48 11 6 -1 0
0

0101000
+39 0 -37 0 *
Ve
1e-07
10 2 0
0 0

0101101
*
Ed
 1e-07 1 1 0
1  15 0 6 10
2  37 5 0 6 10
2  38 6 0 6 10
0

0101000
+37 0 -35 0 *
Ve
1e-07
10 2 2
0 0

0101101
*
Ed
 1e-07 1 1 0
1  19 0 0 2
2  49 12 0 0 2
2  50 5 0 0 2
0

0101000
-33 0 +35 0 *
Ve
1.5e-07
2 2 2
0 0

0101101
*
Ed
 1e-07 1 1 0
1  20 0 2 10
2  51 5 0 2 10
2  52 13 0 2 10
0

0101000
+31 0 -33 0 *
Ed
 1.5e-07 1 1 0
1  21 0 -2 -1
2  53 5 0 -2 -1
2  54 11 2 -2 -1
0

0101000
+31 0 -48 0 *
Wi

0101100
-42 0 +40 0 +38 0 -36 0 -34 0 -32 0 +30 0 -29 0 +47 0 +71 0 
*
Fa
0  1e-07 5 0

0101000
+28 0 *
Ed
 1e-07 1 1 0
1  22 0 4 6
2  55 8 0 4 6
2  56 14 0 4 6
2  57 6 7 4 6
2  58 3 8 4 6
2  59 3 9 4 6
0

0101000
+67 7 -43 7 *
Wi

0101100
-42 0 +26 3 +66 0 -70 0 *
Fa
0  1e-07 6 0

0101000
+25 0 *
Ed
 1.5e-07 1 1 0
1  23 0 1.5 3.5
2  60 8 3 1.5 3.5
2  61 9 0 1.5 3.5
2  62 3 4 1.5 3.5
2  63 3 6 1.5 3.5
0

0101000
+65 0 -41 0 *
Wi

0101100
-23 0 -40 0 +26 3 +64 0 *
Fa
0  1e-07 8 3

0101000
+22 0 *
Ed
 1.5e-07 1 1 0
1  24 0 1.5 3.5
2  64 10 3 1.5 3.5
2  65 9 0 1.5 3.5
2  66 11 4 1.5 3.5
2  67 11 6 1.5 3.5
0

0101000
+63 0 -39 0 *
Wi

0101100
-20 0 -38 0 +23 0 +62 0 *
Fa
0  1e-07 9 0

0101000
+19 0 *
Ed
 1e-07 1 1 0
1  25 0 4 6
2  68 10 0 4 6
2  69 14 0 4 6
2  70 6 7 4 6
2  71 11 8 4 6
2  72 11 9 4 6
0

0101000
+61 7 -37 7 *
Wi

0101100
-20 0 -36 0 +17 3 +60 0 *
Fa
0  1e-07 10 3

0101000
+16 0 *
Ed
 1e-07 1 1 0
1  26 0 0 2
2  73 12 0 0 2
2  74 6 0 0 2
0

0101000
-35 0 +59 0 *
Wi

0101100
-34 0 +14 0 +58 0 -17 3 *
Fa
0  1e-07 6 0

0101000
+13 0 *
Ed
 1e-07 1 1 0
1  27 0 0 2
2  75 12 0 0 2
2  76 13 0 0 2
0

0101000
-33 0 +57 0 *
Wi

0101100
-56 0 -11 0 +32 0 +14 0 *
Fa
0  1e-07 12 0

0101000
+10 0 *
Ed
 1e-07 1 1 0
1  28 0 4 6
2  77 11 0 4 6
2  78 15 0 4 6
2  79 13 10 4 6
0

0101000
+55 10 -31 10 *
Wi

0101100
-30 0 +11 0 +54 0 -8 2 *
Fa
0  1e-07 13 0

0101000
+7 0 *
Wi

0101100
-8 2 -29 0 -46 0 +52 0 *
Fa
0  1e-07 11 2

0101000
+5 0 *
Sh

0101100
-68 0 -49 0 +44 0 +27 0 -24 0 +21 0 +18 0 -15 0 -12 0 +9 0 
+6 0 -4 0 *
So

0100000
+3 0 *
Co

1100000
+2 0 *

+1 1  