
CASCADE Topology V1, (c) Matra-Datavision
Locations 2
1
              1               0               0              -1 
              0               1               0              -5 
              0               0               1               0 
1
              1               0               0              -4 
              0 0.996194698091746 -0.0871557427476582               4 
              0 0.0871557427476582 0.996194698091746             0.5 
Curve2ds 44
1 2 0 0 -1 
1 0 0 0 1 
8 -1.580466945342641 -0.074737189027619999
1 -0.074737189027619999 4 -1 0 
8 -1.580466945342641 -0.074737189027619999
1 0.42554720854040434 -4.0065137752205739 -0.99619469809174555 -0.08715574274765818 
8 1.426420729482001 3.5520662644992287
1 1.184832134642819 -2.4437039116946244 0.043619387365336007 -0.9990482215818578 
8 1.426420729482001 3.5520662644992287
1 2.4930596988950269 1 -1 0 
8 -1.4054896182907932 -0.074737189027620055
1 -0.074737189027620055 4 -1 0 
8 -1.4054896182907932 -0.074737189027620055
1 0.59985869403572067 -5.9989031714040646 -0.99619469809174555 -0.08715574274765818 
1 0 -10 1 0 
1 0 0 1 0 
1 0 0 0 -1 
1 0 0 0 1 
1 0 0 1 0 
1 0 0 1 0 
8 2 4
1 1.5057297563150212 2 0 1 
8 2 4
1 -2 3.8687670047111138 1 0 
1 2 0 0 -1 
1 2 0 0 1 
1 2 0 0 1 
1 0 0 1 0 
8 -3.5 -1.5
1 0.75278148930306066 2.5 0 -1 
8 -3.5 -1.5
1 1.000952685163319 2.5 -0 1 
8 -1.580466945342641 -0.074737189027619999
1 -0.074737189027619999 6 -1 0 
8 -1.580466945342641 -0.074737189027619999
1 0.42554720854040434 -4.0065137752205739 -0.99619469809174555 -0.08715574274765818 
8 1.426420729482001 3.5520662644992287
1 1.184832134642819 -2.4437039116946244 0.043619387365336007 -0.9990482215818578 
8 1.426420729482001 3.5520662644992287
1 2.4930596988950269 -1 -1 0 
8 -3.5 -1.5
1 0.66545960348603661 2.5 0 -1 
8 -3.5 -1.5
1 -1.0009526851633199 2.5 -0 1 
8 -1.4054896182907932 -0.074737189027620055
1 -0.074737189027620055 6 -1 0 
8 -1.4054896182907932 -0.074737189027620055
1 0.59985869403572067 -5.9989031714040646 -0.99619469809174555 -0.08715574274765818 
8 2 4
1 1.3307524292631732 2 0 1 
8 2 4
1 -2 5.8764066797978085 1 0 
1 2 0 0 1 
1 0 10 1 0 
1 0 0 0 1 
1 0 10 1 0 
1 0 -10 1 0 
1 0 2 1 0 
1 0 0 0 -1 
1 2 0 0 1 
1 0 0 0 1 
1 0 0 1 0 
1 0 0 1 0 
1 0 2 1 0 
Curves 22
1 0 0 2 -0 1 0 
1 0 4.0065137752205739 0.42554720854040434 -0 0.08715574274765818 -0.99619469809174555 
1 -1.1102230246251565e-16 2.4437039116946244 1.184832134642819 0 0.9990482215818578 0.043619387365336007 
1 0 5.9989031714040646 0.59985869403572067 -0 0.08715574274765818 -0.99619469809174555 
1 0 10 0 0 0 1 
1 0 0 0 -0 1 0 
1 0 0 0 0 0 1 
1 -2 3.8687670047111138 2 1 0 0 
1 2 0 2 -0 1 0 
1 0 0 2 1 0 -0 
1 -1.5 3.9343907701731036 1.2499169284653171 -1 0 0 
1 2 4.0065137752205739 0.42554720854040434 -0 0.08715574274765818 -0.99619469809174555 
1 2 2.4437039116946244 1.184832134642819 0 0.9990482215818578 0.043619387365336007 
1 -1.5 5.9343907701731027 1.3372388142823413 -1 0 0 
1 2 5.9989031714040646 0.59985869403572067 -0 0.08715574274765818 -0.99619469809174555 
1 -2 5.8764066797978085 2 1 0 0 
1 0 10 2 1 0 -0 
1 0 10 0 1 0 -0 
1 2 10 0 0 0 1 
1 2 0 0 -0 1 0 
1 0 0 0 1 0 -0 
1 2 0 0 0 0 1 
Polygon3D 0
PolygonOnTriangulations 0
Surfaces 9
1 0 0 0 1 0 -0 0 0 1 0 -1 0 
1 0 0 2 0 0 1 1 0 -0 -0 1 0 
1 0 0 0 -0 1 0 0 0 1 1 0 -0 
1 1 4.9343907701731027 1.2935778713738291 -0 0.043619387365336007 -0.9990482215818578 0 -0.9990482215818578 -0.043619387365336007 -1 -0 0 
1 0 2 0 -0 1 0 0 0 1 1 0 -0 
1 0 10 0 -0 1 0 0 0 1 1 0 -0 
1 0 0 0 0 0 1 1 0 -0 -0 1 0 
1 0 0 0 -0 1 0 0 0 1 1 0 -0 
1 2 0 0 1 0 -0 0 0 1 0 -1 0 
Triangulations 0

TShapes 63
Ve
1e-07
0 0 2
0 0

0101101
*
Ve
1.50000000444089e-07
0 3.86876700471111 2
0 0

0101101
*
Ed
 1e-07 1 1 0
1  1 0 0 3.86876700471111
2  1 1 0 0 3.86876700471111
2  2 2 0 0 3.86876700471111
0

0101000
+63 0 -62 0 *
Ve
1.50000000457757e-07
0 3.9343907701731 1.24991692846532
0 0

0101101
*
Ed
 1.5e-07 1 1 0
1  2 0 -1.58046694534264 -0.827518678330681
2  3 3 2 -1.58046694534264 -0.827518678330681
2  4 1 0 -1.58046694534264 -0.827518678330681
0

0101000
+62 0 -60 0 *
Ve
1.50000000248253e-07
0 5.9343907701731 1.33723881428234
0 0

0101101
*
Ed
 1.5e-07 1 1 0
1  3 0 1.49210701373171 3.49401238405835
2  5 1 0 1.49210701373171 3.49401238405835
2  6 4 0 1.49210701373171 3.49401238405835
0

0101000
+60 0 -58 0 *
Ve
1.50000000888178e-07
0 5.87640667979781 2
0 0

0101101
*
Ed
 1.5e-07 1 1 0
1  4 0 -1.40548961829079 -0.740196792513656
2  7 5 2 -1.40548961829079 -0.740196792513656
2  8 1 0 -1.40548961829079 -0.740196792513656
0

0101000
+56 0 -58 0 *
Ve
1e-07
0 10 2
0 0

0101101
*
Ed
 1e-07 1 1 0
1  1 0 5.87640667979781 10
2  1 1 0 5.87640667979781 10
2  2 2 0 5.87640667979781 10
0

0101000
+56 0 -54 0 *
Ve
1e-07
0 10 0
0 0

0101101
*
Ed
 1e-07 1 1 0
1  5 0 0 2
2  9 1 0 0 2
2  10 6 0 0 2
0

0101000
-54 0 +52 0 *
Ve
1e-07
0 0 0
0 0

0101101
*
Ed
 1e-07 1 1 0
1  6 0 0 10
2  11 1 0 0 10
2  12 7 0 0 10
0

0101000
-52 0 +50 0 *
Ed
 1e-07 1 1 0
1  7 0 0 2
2  13 1 0 0 2
2  14 8 0 0 2
0

0101000
-63 0 +50 0 *
Wi

0101100
-61 0 -59 0 -57 0 +55 0 -53 0 +51 0 +49 0 -48 0 *
Fa
0  1e-07 1 0

0101000
+47 0 *
Ve
1.50000000444089e-07
2 3.86876700471111 2
0 0

0101101
*
Ed
 1.5e-07 1 1 0
1  8 0 2 4
2  15 3 2 2 4
2  16 2 0 2 4
0

0101000
+62 0 -45 0 *
Ve
1e-07
2 0 2
0 0

0101101
*
Ed
 1e-07 1 1 0
1  9 0 0 3.86876700471111
2  17 9 0 0 3.86876700471111
2  18 2 0 0 3.86876700471111
0

0101000
+43 0 -45 0 *
Ed
 1e-07 1 1 0
1  10 0 0 2
2  19 8 0 0 2
2  20 2 0 0 2
0

0101000
-43 0 +63 0 *
Wi

0101100
-61 0 -44 0 +42 0 +41 0 *
Fa
0  1e-07 2 0

0101000
+40 0 *
Ve
1.50000000444089e-07
2 3.9343907701731 1.24991692846532
0 0

0101101
*
Ed
 1.5e-07 1 1 0
1  11 0 -3.5 -1.5
2  21 3 2 -3.5 -1.5
2  22 4 0 -3.5 -1.5
0

0101000
+38 0 -60 0 *
Ed
 1.5e-07 1 1 0
1  12 0 -1.58046694534264 -0.827518678330681
2  23 3 2 -1.58046694534264 -0.827518678330681
2  24 9 0 -1.58046694534264 -0.827518678330681
0

0101000
+45 0 -38 0 *
Wi

0101100
+37 0 +36 0 +44 0 -59 0 *
Fa
0  1e-07 3 2

0101000
+35 0 *
Ve
1.50000000222045e-07
2 5.9343907701731 1.33723881428234
0 0

0101101
*
Ed
 1.5e-07 1 1 0
1  13 0 1.49210701373171 3.49401238405835
2  25 9 0 1.49210701373171 3.49401238405835
2  26 4 0 1.49210701373171 3.49401238405835
0

0101000
+38 0 -33 0 *
Ed
 1.5e-07 1 1 0
1  14 0 -3.5 -1.5
2  27 5 2 -3.5 -1.5
2  28 4 0 -3.5 -1.5
0

0101000
+33 0 -58 0 *
Wi

0101100
-32 0 -31 0 +57 0 +37 0 *
Fa
0  1e-07 4 0

0101000
+30 0 *
Ve
1.50000000888178e-07
2 5.87640667979781 2
0 0

0101101
*
Ed
 1.5e-07 1 1 0
1  15 0 -1.40548961829079 -0.740196792513656
2  29 5 2 -1.40548961829079 -0.740196792513656
2  30 9 0 -1.40548961829079 -0.740196792513656
0

0101000
+28 0 -33 0 *
Ed
 1.5e-07 1 1 0
1  16 0 2 4
2  31 5 2 2 4
2  32 2 0 2 4
0

0101000
+56 0 -28 0 *
Wi

0101100
+31 0 +27 0 +26 0 -55 0 *
Fa
0  1e-07 5 2

0101000
+25 0 *
Ve
1e-07
2 10 2
0 0

0101101
*
Ed
 1e-07 1 1 0
1  17 0 0 2
2  33 6 0 0 2
2  34 2 0 0 2
0

0101000
-23 0 +54 0 *
Ed
 1e-07 1 1 0
1  9 0 5.87640667979781 10
2  17 9 0 5.87640667979781 10
2  18 2 0 5.87640667979781 10
0

0101000
+28 0 -23 0 *
Wi

0101100
-53 0 -22 0 +21 0 +26 0 *
Fa
0  1e-07 2 0

0101000
+20 0 *
Ve
1e-07
2 10 0
0 0

0101101
*
Ed
 1e-07 1 1 0
1  18 0 0 2
2  35 6 0 0 2
2  36 7 0 0 2
0

0101000
-18 0 +52 0 *
Ed
 1e-07 1 1 0
1  19 0 0 2
2  37 9 0 0 2
2  38 6 0 0 2
0

0101000
-23 0 +18 0 *
Wi

0101100
-17 0 -16 0 +22 0 +51 0 *
Fa
0  1e-07 6 0

0111000
+15 0 *
Ve
1e-07
2 0 0
0 0

0101101
*
Ed
 1e-07 1 1 0
1  20 0 0 10
2  39 9 0 0 10
2  40 7 0 0 10
0

0101000
-18 0 +13 0 *
Ed
 1e-07 1 1 0
1  21 0 0 2
2  41 8 0 0 2
2  42 7 0 0 2
0

0101000
-13 0 +50 0 *
Wi

0101100
-49 0 -17 0 +12 0 +11 0 *
Fa
0  1e-07 7 0

0111000
+10 0 *
Ed
 1e-07 1 1 0
1  22 0 0 2
2  43 9 0 0 2
2  44 8 0 0 2
0

0101000
-43 0 +13 0 *
Wi

0101100
-11 0 -8 0 +41 0 +48 0 *
Fa
0  1e-07 8 0

0111000
+7 0 *
Wi

0101100
-42 0 -36 0 -32 0 +27 0 -21 0 +16 0 +12 0 -8 0 *
Fa
0  1e-07 9 0

0101000
+5 0 *
Sh

0101100
-46 0 +39 0 +34 0 -29 0 -24 0 +19 0 +14 0 -9 0 -6 0 +4 0 
*
So

0100000
+3 0 *
Co

1100000
+2 0 *

+1 1  