
CASCADE Topology V1, (c) Matra-Datavision
Locations 5
1
              1               0               0               0 
              0               1               0               0 
              0               0               1               0 
1
              1               0               0               0 
              0               1               0               0 
              0               0               1               2 
2  2 -1 0
1
              1               0               0             -11 
              0               1               0               0 
              0               0               1               0 
2  4 -1 0
Curve2ds 72
1 20 0 0 -1 
1 0 0 0 -1 
1 -10 -10 1 0 
1 -10 -10 1 0 
1 -10 10 0 -1 
1 0 0 1 0 
1 0 -2 1 0 
1 -10 10 0 -1 
8 0 2
1 8 0 0 -1 
8 0 2
1 0 1 1 0 
8 -5.5 -3.5
1 4.5 -1 -1 -0 
8 -5.5 -3.5
1 1 4.5 0 1 
8 0 2
1 10 0 0 -1 
8 0 2
1 0 1 1 0 
1 0 0 0 -1 
1 10 -10 0 1 
1 0 0 1 0 
1 0 -2 1 0 
1 10 -10 0 1 
8 -2 0
1 10 0 0 1 
8 -2 0
1 0 21 -1 0 
8 -6.5 -4.5
1 5.5 -1 -1 0 
8 -6.5 -4.5
1 -1 -5.5 0 -1 
8 -2 0
1 12 0 0 1 
8 -2 0
1 0 21 -1 0 
1 20 0 0 -1 
1 0 0 0 1 
1 0 0 1 0 
1 -11 0 1 0 
1 -8 8 0 -1 
1 0 0 1 0 
1 0 -2 1 0 
1 -8 8 0 -1 
1 -8 -8 1 0 
1 -8 -8 1 0 
1 8 -8 0 1 
1 0 0 1 0 
1 0 -2 1 0 
1 8 -8 0 1 
1 -11 0 1 0 
1 10 10 -1 0 
1 10 10 -1 0 
1 8 8 -1 0 
1 8 8 -1 0 
1 0 0 0 1 
1 0 2 1 0 
1 -11 2 1 0 
1 -11 2 1 0 
8 0 2
1 6 0 0 -1 
8 0 2
1 0 3 1 0 
8 -2 0
1 1 1 0 -1 
8 -2 0
1 1 1 1 0 
8 -2 0
1 1 1 0 -1 
8 -2 0
1 1 -1 1 0 
8 -4.5 -2.5
1 3.5 -1 -1 -0 
8 -4.5 -2.5
1 -1 3.5 0 1 
8 0 2
1 8 0 0 -1 
8 0 2
1 0 3 1 0 
8 -11 -9
1 1 10 0 -1 
8 -11 -9
1 10 -1 1 0 
8 -2 0
1 8 0 0 1 
8 -2 0
1 0 19 -1 0 
8 -11 -9
1 1 10 0 -1 
8 -11 -9
1 10 1 1 0 
8 -5.5 -3.5
1 4.5 -1 -1 0 
8 -5.5 -3.5
1 1 -4.5 0 -1 
8 -2 0
1 10 0 0 1 
8 -2 0
1 0 19 -1 0 
1 16 0 0 -1 
1 0 0 0 -1 
1 0 0 0 -1 
1 16 0 0 -1 
Curves 34
1 -10 -10 0 0 0 1 
1 10 -10 0 0 0 1 
1 -10 -10 0 1 0 0 
1 -10 10 0 0 -1 -0 
1 -10 2 0 0 -0 1 
1 -10 5.5 1 -0 1 0 
1 -10 0 0 0 -0 1 
1 -10 10 0 0 0 1 
1 10 -10 0 0 1 0 
1 10 0 0 0 0 -1 
1 10 -4.5 1 0 -1 0 
1 10 2 0 0 0 -1 
1 10 10 0 0 0 1 
1 0 0 0 1 0 -0 
1 -8 8 0 0 -1 -0 
1 -8 -8 0 1 0 0 
1 8 -8 0 0 1 0 
1 10 10 0 -1 0 0 
1 8 8 0 -1 0 0 
1 0 2 0 1 0 -0 
1 -8 2 0 0 -0 1 
1 -10 2 1 -1 0 0 
1 -10 0 1 -1 0 0 
1 -8 4.5 1 -0 1 0 
1 -8 0 0 0 -0 1 
1 -1 0 1 -1 0 0 
1 8 0 0 0 0 -1 
1 -1 2 1 -1 0 0 
1 8 -3.5 1 0 -1 0 
1 8 2 0 0 0 -1 
1 -8 -8 0 0 0 1 
1 -8 8 0 0 0 1 
1 8 -8 0 0 0 1 
1 8 8 0 0 0 1 
Polygon3D 0
PolygonOnTriangulations 0
Surfaces 15
1 -10 -10 0 0 1 0 1 0 0 0 0 -1 
1 -10 10 0 1 0 -0 0 -1 0 0 -0 -1 
1 10 -10 0 -1 0 0 0 1 0 0 0 -1 
1 0 0 0 0 0 1 1 0 -0 -0 1 0 
1 0 0 0 0 0 1 1 0 -0 -0 1 0 
1 0 2 0 -0 1 0 0 0 1 1 0 -0 
1 -9 1 1 -0 -0 -1 -1 0 0 0 1 -0 
1 0 0 0 -0 1 0 0 0 1 1 0 -0 
1 9 1 1 -0 -0 -1 -1 0 0 0 1 -0 
1 0 0 0 0 0 1 1 0 -0 -0 1 0 
1 -8 8 0 1 0 -0 0 -1 0 0 -0 -1 
1 8 -8 0 -1 0 0 0 1 0 0 0 -1 
1 10 10 0 0 -1 0 -1 0 0 -0 -0 -1 
1 -8 -8 0 0 1 0 1 0 0 0 0 -1 
1 8 8 0 0 -1 0 -1 0 0 -0 -0 -1 
Triangulations 0

TShapes 106
Ve
1e-07
-10 -10 0
0 0

0101101
*
Ed
 1e-07 1 1 0
1  1 0 0 2
2  1 2 0 0 2
0

0101000
+106 0 -106 2 *
Ve
1e-07
10 -10 0
0 0

0101101
*
Ed
 1e-07 1 1 0
1  2 0 0 2
2  2 3 0 0 2
0

0101000
+104 0 -104 2 *
Ed
 1e-07 1 1 0
2  3 4 0 0 20
1  3 0 0 20
2  4 5 0 0 20
0

0101000
+106 0 -104 0 *
Wi

0101100
+105 0 -103 0 -102 0 +102 2 *
Fa
0  1e-07 1 0

0101000
+101 0 *
Ve
1e-07
-10 10 0
0 0

0101101
*
Ve
1.5e-07
-10 2 0
0 0

0101101
*
Ed
 1e-07 1 1 0
2  5 4 0 0 8
1  4 0 0 8
2  6 2 0 0 8
2  7 2 3 0 8
2  8 5 0 0 8
0

0101000
+99 0 -98 0 *
Ve
1.5e-07
-10 2 1
0 0

0101101
*
Ed
 1.5e-07 1 1 0
1  5 0 0 1
2  9 2 0 0 1
2  10 6 4 0 1
0

0101000
+98 0 -96 0 *
Ve
1.5e-07
-10 0 1
0 0

0101101
*
Ed
 1.5e-07 1 1 0
1  6 0 -5.5 -3.5
2  11 2 0 -5.5 -3.5
2  12 7 0 -5.5 -3.5
0

0101000
+94 0 -96 0 *
Ve
1.5e-07
-10 0 0
0 0

0101101
*
Ed
 1.5e-07 1 1 0
1  7 0 0 1
2  13 2 0 0 1
2  14 8 4 0 1
0

0101000
+92 0 -94 0 *
Ed
 1e-07 1 1 0
2  5 4 0 10 20
1  4 0 10 20
2  6 2 0 10 20
2  7 2 3 10 20
2  8 5 0 10 20
0

0101000
+92 0 -106 0 *
Ed
 1e-07 1 1 0
2  5 4 0 0 20
1  4 0 0 20
2  6 2 0 0 20
2  7 2 3 0 20
2  8 5 0 0 20
0

0101000
+99 0 -106 0 *
Ed
 1e-07 1 1 0
1  8 0 0 2
2  15 2 0 0 2
0

0101000
+99 0 -99 2 *
Wi

0101100
-97 0 -95 0 +93 0 +91 0 -90 0 -105 0 +89 2 +88 0 *
Fa
0  1e-07 2 0

0101000
+87 0 *
Ve
1.5e-07
10 0 0
0 0

0101101
*
Ed
 1e-07 1 1 0
2  16 4 0 0 10
1  9 0 0 10
2  17 3 0 0 10
2  18 3 3 0 10
2  19 5 0 0 10
0

0101000
+104 0 -85 0 *
Ve
1.5e-07
10 0 1
0 0

0101101
*
Ed
 1.5e-07 1 1 0
1  10 0 -1 0
2  20 3 0 -1 0
2  21 8 4 -1 0
0

0101000
+83 0 -85 0 *
Ve
1.5e-07
10 2 1
0 0

0101101
*
Ed
 1.5e-07 1 1 0
1  11 0 -6.5 -4.5
2  22 3 0 -6.5 -4.5
2  23 9 0 -6.5 -4.5
0

0101000
+81 0 -83 0 *
Ve
1.5e-07
10 2 0
0 0

0101101
*
Ed
 1.5e-07 1 1 0
1  12 0 -1 0
2  24 3 0 -1 0
2  25 6 4 -1 0
0

0101000
+81 0 -79 0 *
Ve
1e-07
10 10 0
0 0

0101101
*
Ed
 1e-07 1 1 0
2  16 4 0 12 20
1  9 0 12 20
2  17 3 0 12 20
2  18 3 3 12 20
2  19 5 0 12 20
0

0101000
+79 0 -77 0 *
Ed
 1e-07 1 1 0
1  13 0 0 2
2  26 3 0 0 2
0

0101000
+77 0 -77 2 *
Ed
 1e-07 1 1 0
2  16 4 0 0 20
1  9 0 0 20
2  17 3 0 0 20
2  18 3 3 0 20
2  19 5 0 0 20
0

0101000
+104 0 -77 0 *
Wi

0101100
-84 0 +82 0 +80 0 -78 0 -76 0 -75 0 +74 2 +103 0 *
Fa
0  1e-07 3 0

0101000
+73 0 *
Ve
1.5e-07
-8 0 0
0 0

0101101
*
Ed
 1e-07 1 1 0
1  14 0 1 3
2  27 8 0 1 3
2  28 10 0 1 3
2  29 5 5 1 3
0

0101000
+92 5 -71 5 *
Ve
1e-07
-8 -8 0
0 0

0101101
*
Ed
 1e-07 1 1 0
2  30 4 0 8 16
1  15 0 8 16
2  31 11 0 8 16
2  32 11 3 8 16
2  33 5 0 8 16
0

0101000
+71 0 -69 0 *
Ve
1e-07
8 -8 0
0 0

0101101
*
Ed
 1e-07 1 1 0
2  34 4 0 0 16
1  16 0 0 16
2  35 5 0 0 16
0

0101000
+69 0 -67 0 *
Ve
1.5e-07
8 0 0
0 0

0101101
*
Ed
 1e-07 1 1 0
2  36 4 0 0 8
1  17 0 0 8
2  37 12 0 0 8
2  38 12 3 0 8
2  39 5 0 0 8
0

0101000
+67 0 -65 0 *
Ed
 1e-07 1 1 0
1  14 0 19 21
2  27 8 0 19 21
2  28 10 0 19 21
2  40 5 5 19 21
0

0101000
+65 5 -85 5 *
Wi

0101100
-70 4 -68 0 -66 0 -64 0 -63 4 +84 0 +102 0 +90 0 *
Fa
0  1e-07 5 0

0101000
+62 0 *
Ed
 1e-07 1 1 0
2  41 4 0 0 20
1  18 0 0 20
2  42 5 0 0 20
0

0101000
+77 0 -99 0 *
Wi

0101100
+102 0 +74 0 +60 0 +89 0 *
Ve
1e-07
-8 8 0
0 0

0101101
*
Ed
 1e-07 1 1 0
2  30 4 0 0 16
1  15 0 0 16
2  31 11 0 0 16
2  32 11 3 0 16
2  33 5 0 0 16
0

0101000
+58 0 -69 0 *
Ve
1e-07
8 8 0
0 0

0101101
*
Ed
 1e-07 1 1 0
2  43 4 0 0 16
1  19 0 0 16
2  44 5 0 0 16
0

0101000
+56 0 -58 0 *
Ed
 1e-07 1 1 0
2  36 4 0 0 16
1  17 0 0 16
2  37 12 0 0 16
2  38 12 3 0 16
2  39 5 0 0 16
0

0101000
+67 0 -56 0 *
Wi

0101100
-57 0 -55 0 -54 0 -66 0 *
Fa
0  1e-07 5 0

0111000
+59 0 +53 0 *
Ve
1.5e-07
8 2 0
0 0

0101101
*
Ed
 1e-07 1 1 0
1  20 0 19 21
2  45 6 0 19 21
2  46 10 0 19 21
2  47 5 5 19 21
0

0101000
+51 5 -79 5 *
Ed
 1e-07 1 1 0
2  36 4 0 10 16
1  17 0 10 16
2  37 12 0 10 16
2  38 12 3 10 16
2  39 5 0 10 16
0

0101000
+51 0 -56 0 *
Ve
1.5e-07
-8 2 0
0 0

0101101
*
Ed
 1e-07 1 1 0
2  30 4 0 0 6
1  15 0 0 6
2  31 11 0 0 6
2  32 11 3 0 6
2  33 5 0 0 6
0

0101000
+58 0 -48 0 *
Ed
 1e-07 1 1 0
1  20 0 1 3
2  45 6 0 1 3
2  46 10 0 1 3
2  48 5 5 1 3
0

0101000
+98 5 -48 5 *
Wi

0101100
+50 4 -49 0 -55 0 -47 0 +46 4 +97 0 +60 0 +76 0 *
Fa
0  1e-07 5 0

0101000
+45 0 *
Ve
1.5e-07
-8 2 1
0 0

0101101
*
Ed
 1.5e-07 1 1 0
1  21 0 0 1
2  49 11 0 0 1
2  50 6 4 0 1
0

0101000
+48 0 -43 0 *
Ed
 1.5e-07 1 1 0
1  22 0 -2 0
2  51 6 4 -2 0
2  52 7 0 -2 0
0

0101000
+43 0 -96 0 *
Wi

0101100
-46 4 -42 0 -41 0 +95 0 *
Fa
0  1e-07 6 4

0101000
+40 0 *
Ve
1.5e-07
-8 0 1
0 0

0101101
*
Ed
 1.5e-07 1 1 0
1  23 0 -2 0
2  53 8 4 -2 0
2  54 7 0 -2 0
0

0101000
+38 0 -94 0 *
Ed
 1.5e-07 1 1 0
1  24 0 -4.5 -2.5
2  55 11 0 -4.5 -2.5
2  56 7 0 -4.5 -2.5
0

0101000
+38 0 -43 0 *
Wi

0101100
+37 0 -36 0 -41 0 +93 0 *
Fa
0  1e-07 7 0

0101000
+35 0 *
Ed
 1.5e-07 1 1 0
1  25 0 0 1
2  57 11 0 0 1
2  58 8 4 0 1
0

0101000
+71 0 -38 0 *
Wi

0101100
-70 4 -33 0 -37 0 +91 0 *
Fa
0  1e-07 8 4

0101000
+32 0 *
Wi

0101100
+75 0 -88 0 -60 0 +60 2 *
Fa
0  1e-07 13 0

0101000
+30 0 *
Ve
1.5e-07
8 0 1
0 0

0101101
*
Ed
 1.5e-07 1 1 0
1  26 0 -11 -9
2  59 8 4 -11 -9
2  60 9 0 -11 -9
0

0101000
+83 0 -28 0 *
Ed
 1.5e-07 1 1 0
1  27 0 -1 0
2  61 12 0 -1 0
2  62 8 4 -1 0
0

0101000
+28 0 -65 0 *
Wi

0101100
-63 4 +82 0 -27 0 -26 0 *
Fa
0  1e-07 8 4

0101000
+25 0 *
Ve
1.5e-07
8 2 1
0 0

0101101
*
Ed
 1.5e-07 1 1 0
1  28 0 -11 -9
2  63 6 4 -11 -9
2  64 9 0 -11 -9
0

0101000
+81 0 -23 0 *
Ed
 1.5e-07 1 1 0
1  29 0 -5.5 -3.5
2  65 12 0 -5.5 -3.5
2  66 9 0 -5.5 -3.5
0

0101000
+23 0 -28 0 *
Wi

0101100
-22 0 -21 0 +27 0 +80 0 *
Fa
0  1e-07 9 0

0101000
+20 0 *
Ed
 1.5e-07 1 1 0
1  30 0 -1 0
2  67 12 0 -1 0
2  68 6 4 -1 0
0

0101000
+23 0 -51 0 *
Wi

0101100
-50 4 +78 0 -22 0 -18 0 *
Fa
0  1e-07 6 4

0101000
+17 0 *
Ed
 1e-07 1 1 0
1  31 0 0 2
2  69 11 0 0 2
0

0101000
+69 0 -69 2 *
Ed
 1e-07 1 1 0
1  32 0 0 2
2  70 11 0 0 2
0

0101000
+58 0 -58 2 *
Wi

0101100
-47 0 -42 0 +36 0 +33 0 -68 0 -15 0 +57 2 +14 0 *
Fa
0  1e-07 11 0

0101000
+13 0 *
Ed
 1e-07 1 1 0
1  33 0 0 2
2  71 12 0 0 2
0

0101000
+67 0 -67 2 *
Wi

0101100
+15 0 -11 0 -66 0 +66 2 *
Fa
0  1e-07 14 0

0101000
+10 0 *
Ed
 1e-07 1 1 0
1  34 0 0 2
2  72 12 0 0 2
0

0101000
+56 0 -56 2 *
Wi

0101100
-64 0 +26 0 +21 0 -18 0 -49 0 -8 0 +54 2 +11 0 *
Fa
0  1e-07 12 0

0101000
+7 0 *
Wi

0101100
+8 0 -14 0 -55 0 +55 2 *
Fa
0  1e-07 15 0

0101000
+5 0 *
Sh

0101100
-100 0 -86 0 -72 0 -61 0 +52 2 -44 0 -39 0 +34 0 +31 0 -29 0 
+24 0 +19 0 -16 0 +12 0 +9 0 +6 0 +4 0 *
So

0100000
+3 0 *
Co

1100000
+2 0 *

+1 1  