
CASCADE Topology V1, (c) Matra-Datavision
Locations 6
1
              1               0               0             -11 
              0               1               0               0 
              0               0               1               0 
1
              1               0               0              11 
              0               1               0               0 
              0               0               1               0 
1
              1               0               0               0 
              0               1               0               0 
              0               0               1               2 
2  3 1 2 1 0
2  3 -1 0
2  2 -1 3 -1 0
Curve2ds 76
1 0 0 1 0 
1 0 0 1 0 
1 2 0 0 -1 
1 0 0 0 1 
1 0 -2 1 0 
1 0 0 1 0 
1 0 0 0 -1 
1 0 0 0 1 
1 2 0 0 1 
1 0 0 1 0 
8 -2 0
1 10 0 0 1 
8 -2 0
1 0 21 -1 0 
8 -11 -9
1 1 10 0 -1 
8 -11 -9
1 10 -1 1 -0 
8 -2 0
1 8 0 0 1 
8 -2 0
1 0 19 -1 0 
8 0 2
1 8 0 0 -1 
8 0 2
1 0 3 1 0 
8 -2 0
1 1 1 0 -1 
8 -2 0
1 1 -1 1 -0 
8 0 2
1 10 0 0 -1 
8 0 2
1 0 1 1 0 
1 0 0 0 1 
1 0 0 1 0 
1 0 0 1 0 
1 0 22 1 0 
1 2 0 0 1 
1 0 2 1 0 
1 -10 10 0 -1 
1 0 0 1 0 
1 0 -2 1 0 
1 -10 10 0 -1 
1 1 10 0 -1 
8 -2 0
1 12 0 0 1 
8 -2 0
1 0 21 -1 0 
8 -11 -9
1 1 10 0 -1 
8 -11 -9
1 10 1 1 -0 
8 -2 0
1 10 0 0 1 
8 -2 0
1 0 19 -1 0 
8 0 2
1 6 0 0 -1 
8 0 2
1 0 3 1 0 
8 -2 0
1 1 1 0 -1 
8 -2 0
1 1 1 1 -0 
8 0 2
1 8 0 0 -1 
8 0 2
1 0 1 1 0 
1 0 0 0 1 
1 0 2 1 0 
1 0 -2 1 0 
1 0 22 1 0 
1 0 0 0 -1 
1 22 0 0 1 
1 2 0 0 -1 
1 22 0 0 1 
1 10 -10 0 1 
1 0 0 1 0 
1 0 -2 1 0 
1 10 -10 0 1 
1 21 -10 0 1 
8 -6.5 -4.5
1 5.5 -1 -1 0 
8 -6.5 -4.5
1 -1 -5.5 0 -1 
8 -5.5 -3.5
1 4.5 -1 -1 0 
8 -5.5 -3.5
1 1 -4.5 0 -1 
1 8 -8 0 1 
1 0 0 1 0 
1 0 -2 1 0 
1 8 -8 0 1 
1 19 -8 0 1 
1 -8 8 0 -1 
1 0 0 1 0 
1 0 -2 1 0 
1 -8 8 0 -1 
1 3 8 0 -1 
8 -4.5 -2.5
1 3.5 -1 -1 0 
8 -4.5 -2.5
1 -1 3.5 0 1 
8 -5.5 -3.5
1 4.5 -1 -1 0 
8 -5.5 -3.5
1 1 4.5 0 1 
Curves 32
1 0 0 0 0 0 1 
1 0 0 2 -0 1 0 
1 0 2 0 0 0 1 
1 0 0 0 -0 1 0 
1 0 0 2 1 0 -0 
1 21 0 0 0 0 -1 
1 10 0 1 -1 -0 0 
1 19 0 0 0 0 -1 
1 3 0 0 0 -0 1 
1 1 0 1 -1 -0 0 
1 1 0 0 0 -0 1 
1 0 0 0 1 0 -0 
1 22 0 0 0 0 1 
1 0 2 2 1 0 -0 
1 -10 10 0 0 -1 -0 
1 21 2 0 0 0 -1 
1 10 2 1 -1 -0 0 
1 19 2 0 0 0 -1 
1 3 2 0 0 -0 1 
1 1 2 1 -1 -0 0 
1 1 2 0 0 -0 1 
1 0 2 0 1 0 -0 
1 22 2 0 0 0 1 
1 22 0 0 -0 1 0 
1 22 0 2 -0 1 0 
1 10 -10 0 0 1 0 
1 21 -4.5 1 0 -1 0 
1 19 -3.5 1 0 -1 0 
1 8 -8 0 0 1 0 
1 -8 8 0 0 -1 -0 
1 3 4.5 1 0 1 0 
1 1 5.5 1 0 1 0 
Polygon3D 0
PolygonOnTriangulations 0
Surfaces 14
1 0 0 0 1 0 -0 0 0 1 0 -1 0 
1 0 0 0 -0 1 0 0 0 1 1 0 -0 
1 0 0 2 0 0 1 1 0 -0 -0 1 0 
1 0 2 0 -0 1 0 0 0 1 1 0 -0 
1 0 0 0 0 0 1 1 0 -0 -0 1 0 
1 10 -10 0 -1 0 0 0 1 0 0 0 -1 
1 20 1 1 -0 -0 -1 -1 0 0 0 1 -0 
1 8 -8 0 -1 0 0 0 1 0 0 0 -1 
1 -8 8 0 1 0 -0 0 -1 0 0 -0 -1 
1 2 1 1 -0 -0 -1 -1 0 0 0 1 -0 
1 -10 10 0 1 0 -0 0 -1 0 0 -0 -1 
1 22 0 0 1 0 -0 0 0 1 0 -1 0 
1 0 0 0 0 0 1 1 0 -0 -0 1 0 
1 0 0 0 0 0 1 1 0 -0 -0 1 0 
Triangulations 0

TShapes 91
Ve
1e-07
0 0 2
0 0

0101101
*
Ve
1e-07
0 0 0
0 0

0101101
*
Ed
 1e-07 1 1 0
1  1 0 0 2
2  1 1 0 0 2
2  2 2 0 0 2
0

0101000
-91 0 +90 0 *
Ve
1e-07
0 2 2
0 0

0101101
*
Ed
 1e-07 1 1 0
1  2 0 0 2
2  3 1 0 0 2
2  4 3 0 0 2
0

0101000
-88 0 +91 0 *
Ve
1e-07
0 2 0
0 0

0101101
*
Ed
 1e-07 1 1 0
1  3 0 0 2
2  5 1 0 0 2
2  6 4 0 0 2
0

0101000
-88 0 +86 0 *
Ed
 1e-07 1 1 0
1  4 0 0 2
2  7 1 0 0 2
2  8 5 0 0 2
0

0101000
-86 0 +90 0 *
Wi

0101100
-89 0 -87 0 +85 0 +84 0 *
Fa
0  1e-07 1 0

0111000
+83 0 *
Ve
1.5e-07
21 0 2
0 0

0101101
*
Ve
1e-07
22 0 2
0 0

0101101
*
Ed
 1e-07 1 1 0
1  5 0 21 22
2  9 2 0 21 22
2  10 3 0 21 22
0

0101000
+81 0 -80 0 *
Ve
1.5e-07
21 0 1
0 0

0101101
*
Ed
 1.5e-07 1 1 0
1  6 0 -2 -1
2  11 6 2 -2 -1
2  12 2 0 -2 -1
0

0101000
+81 0 -78 0 *
Ve
1.5e-07
19 0 1
0 0

0101101
*
Ed
 1.5e-07 1 1 0
1  7 0 -11 -9
2  13 2 0 -11 -9
2  14 7 0 -11 -9
0

0101000
+78 0 -76 0 *
Ve
1.5e-07
19 0 2
0 0

0101101
*
Ed
 1.5e-07 1 1 0
1  8 0 -2 -1
2  15 8 2 -2 -1
2  16 2 0 -2 -1
0

0101000
+74 0 -76 0 *
Ve
1.5e-07
3 0 2
0 0

0101101
*
Ed
 1e-07 1 1 0
1  5 0 3 19
2  9 2 0 3 19
2  10 3 0 3 19
0

0101000
+72 0 -74 0 *
Ve
1.5e-07
3 0 1
0 0

0101101
*
Ed
 1.5e-07 1 1 0
1  9 0 1 2
2  17 9 2 1 2
2  18 2 0 1 2
0

0101000
+70 0 -72 0 *
Ve
1.5e-07
1 0 1
0 0

0101101
*
Ed
 1.5e-07 1 1 0
1  10 0 -2 0
2  19 2 0 -2 0
2  20 10 0 -2 0
0

0101000
+70 0 -68 0 *
Ve
1.5e-07
1 0 2
0 0

0101101
*
Ed
 1.5e-07 1 1 0
1  11 0 1 2
2  21 11 2 1 2
2  22 2 0 1 2
0

0101000
+68 0 -66 0 *
Ed
 1e-07 1 1 0
1  5 0 0 1
2  9 2 0 0 1
2  10 3 0 0 1
0

0101000
+91 0 -66 0 *
Ve
1e-07
22 0 0
0 0

0101101
*
Ed
 1e-07 1 1 0
1  12 0 0 22
2  23 2 0 0 22
2  24 5 0 0 22
0

0101000
-63 0 +90 0 *
Ed
 1e-07 1 1 0
1  13 0 0 2
2  25 12 0 0 2
2  26 2 0 0 2
0

0101000
-80 0 +63 0 *
Wi

0101100
+79 0 -77 0 -75 0 +73 0 +71 0 +69 0 -67 0 -65 0 +64 0 +89 0 
-62 0 -61 0 *
Fa
0  1e-07 2 0

0101000
+60 0 *
Ve
1.5e-07
1 2 2
0 0

0101101
*
Ed
 1e-07 1 1 0
1  14 0 0 1
2  27 4 0 0 1
2  28 3 0 0 1
0

0101000
+88 0 -58 0 *
Ed
 1e-07 1 1 0
2  29 13 0 8 10
1  15 0 8 10
2  30 11 0 8 10
2  31 11 5 8 10
2  32 14 0 8 10
2  33 3 6 8 10
0

0101000
+58 6 -66 6 *
Wi

0101100
-57 0 -56 4 +64 0 -87 0 *
Fa
0  1e-07 3 0

0101000
+55 0 *
Ve
1.5e-07
21 2 2
0 0

0101101
*
Ve
1e-07
22 2 2
0 0

0101101
*
Ed
 1e-07 1 1 0
1  14 0 21 22
2  27 4 0 21 22
2  28 3 0 21 22
0

0101000
+53 0 -52 0 *
Ve
1.5e-07
21 2 1
0 0

0101101
*
Ed
 1.5e-07 1 1 0
1  16 0 -2 -1
2  34 6 2 -2 -1
2  35 4 0 -2 -1
0

0101000
+53 0 -50 0 *
Ve
1.5e-07
19 2 1
0 0

0101101
*
Ed
 1.5e-07 1 1 0
1  17 0 -11 -9
2  36 4 0 -11 -9
2  37 7 0 -11 -9
0

0101000
+50 0 -48 0 *
Ve
1.5e-07
19 2 2
0 0

0101101
*
Ed
 1.5e-07 1 1 0
1  18 0 -2 -1
2  38 8 2 -2 -1
2  39 4 0 -2 -1
0

0101000
+46 0 -48 0 *
Ve
1.5e-07
3 2 2
0 0

0101101
*
Ed
 1e-07 1 1 0
1  14 0 3 19
2  27 4 0 3 19
2  28 3 0 3 19
0

0101000
+44 0 -46 0 *
Ve
1.5e-07
3 2 1
0 0

0101101
*
Ed
 1.5e-07 1 1 0
1  19 0 1 2
2  40 9 2 1 2
2  41 4 0 1 2
0

0101000
+42 0 -44 0 *
Ve
1.5e-07
1 2 1
0 0

0101101
*
Ed
 1.5e-07 1 1 0
1  20 0 -2 0
2  42 4 0 -2 0
2  43 10 0 -2 0
0

0101000
+42 0 -40 0 *
Ed
 1.5e-07 1 1 0
1  21 0 1 2
2  44 11 2 1 2
2  45 4 0 1 2
0

0101000
+40 0 -58 0 *
Ve
1e-07
22 2 0
0 0

0101101
*
Ed
 1e-07 1 1 0
1  22 0 0 22
2  46 4 0 0 22
2  47 5 0 0 22
0

0101000
-37 0 +86 0 *
Ed
 1e-07 1 1 0
1  23 0 0 2
2  48 12 0 0 2
2  49 4 0 0 2
0

0101000
-52 0 +37 0 *
Wi

0101100
+51 0 -49 0 -47 0 +45 0 +43 0 +41 0 -39 0 -38 0 +57 0 +85 0 
-36 0 -35 0 *
Fa
0  1e-07 4 0

0101000
+34 0 *
Ed
 1e-07 1 1 0
1  24 0 0 2
2  50 12 0 0 2
2  51 5 0 0 2
0

0101000
-37 0 +63 0 *
Wi

0101100
-84 0 -36 0 +32 0 +62 0 *
Fa
0  1e-07 5 0

0111000
+31 0 *
Ed
 1e-07 1 1 0
1  25 0 0 2
2  52 12 0 0 2
2  53 3 0 0 2
0

0101000
-52 0 +80 0 *
Ed
 1e-07 1 1 0
2  54 13 0 10 12
1  26 0 10 12
2  55 6 0 10 12
2  56 6 5 10 12
2  57 14 0 10 12
2  58 3 6 10 12
0

0101000
+81 6 -53 6 *
Wi

0101100
-51 0 +29 0 +79 0 -28 4 *
Fa
0  1e-07 3 0

0101000
+27 0 *
Ed
 1.5e-07 1 1 0
1  27 0 -6.5 -4.5
2  59 6 2 -6.5 -4.5
2  60 7 0 -6.5 -4.5
0

0101000
+50 0 -78 0 *
Wi

0101100
+25 0 +49 0 +28 4 -77 0 *
Fa
0  1e-07 6 2

0101000
+24 0 *
Ed
 1.5e-07 1 1 0
1  28 0 -5.5 -3.5
2  61 8 2 -5.5 -3.5
2  62 7 0 -5.5 -3.5
0

0101000
+48 0 -76 0 *
Wi

0101100
-47 0 -22 0 +75 0 +25 0 *
Fa
0  1e-07 7 0

0101000
+21 0 *
Ed
 1e-07 1 1 0
2  63 13 0 8 10
1  29 0 8 10
2  64 8 0 8 10
2  65 8 5 8 10
2  66 14 0 8 10
2  67 3 6 8 10
0

0101000
+74 6 -46 6 *
Wi

0101100
+22 0 +45 0 +19 4 -73 0 *
Fa
0  1e-07 8 2

0101000
+18 0 *
Ed
 1e-07 1 1 0
2  68 13 0 6 8
1  30 0 6 8
2  69 9 0 6 8
2  70 9 5 6 8
2  71 14 0 6 8
2  72 3 6 6 8
0

0101000
+44 6 -72 6 *
Wi

0101100
-43 0 +19 4 +71 0 +16 4 *
Fa
0  1e-07 3 0

0101000
+15 0 *
Ed
 1.5e-07 1 1 0
1  31 0 -4.5 -2.5
2  73 9 2 -4.5 -2.5
2  74 10 0 -4.5 -2.5
0

0101000
+70 0 -42 0 *
Wi

0101100
+13 0 -69 0 +16 4 +41 0 *
Fa
0  1e-07 9 2

0101000
+12 0 *
Ed
 1.5e-07 1 1 0
1  32 0 -5.5 -3.5
2  75 11 2 -5.5 -3.5
2  76 10 0 -5.5 -3.5
0

0101000
+68 0 -40 0 *
Wi

0101100
+67 0 -13 0 -39 0 +10 0 *
Fa
0  1e-07 10 0

0101000
+9 0 *
Wi

0101100
+10 0 -65 0 +56 4 +38 0 *
Fa
0  1e-07 11 2

0101000
+7 0 *
Wi

0101100
-61 0 -29 0 +35 0 +32 0 *
Fa
0  1e-07 12 0

0111000
+5 0 *
Sh

0101100
-82 0 -59 0 +54 0 +33 0 -30 0 +26 0 +23 0 -20 0 -17 0 +14 0 
-11 0 -8 0 +6 0 +4 0 *
So

0100000
+3 0 *
Co

1100000
+2 0 *

+1 1  