<?xml version="1.0" encoding="utf-8"?>
<!DOCTYPE svg PUBLIC "-//W3C//DTD SVG 1.1//EN" "http://www.w3.org/Graphics/SVG/1.1/DTD/svg11.dtd">
<svg width="97.029495mm" height="51.136246mm" viewBox="0, 0, 366.72565, 193.27086" version="1.1" xmlns:xlink="http://www.w3.org/1999/xlink" xmlns:xml="http://www.w3.org/XML/1998/namespace" xmlns:sodipodi="http://sodipodi.sourceforge.net/DTD/sodipodi-0.dtd" xmlns:inkscape="http://www.inkscape.org/namespaces/inkscape" xmlns="http://www.w3.org/2000/svg">
  <sodipodi:namedview inkscape:document-units="mm" />
  <g id="Contours" transform="translate(183.36282,97.46381)">
    <g id="Layer0" stroke-width="0.37795275" style="stroke:black;fill:none;">
      <path d="M-145.56754,-59.668518 L-145.4477,-56.423344 C-142.52188,-52.277683 -139.51704,-48.187828 -136.42805,-44.162384 C-133.33907,-40.13694 -130.1659,-36.17592 -126.903824,-32.289406 C-120.37967,-24.516382 -113.498924,-17.040377 -106.23179,-9.956978 C-101.32091,-5.170257 -96.23221,-0.56196326 -90.96462,3.8322873 C-85.69704,8.226538 -80.25042,12.406546 -74.63014,16.33827 C-69.009865,20.269995 -63.215763,23.953192 -57.26193,27.358751 C-51.308098,30.76431 -45.19434,33.89195 -38.946194,36.721485 C-34.54861,38.712975 -30.083937,40.55736 -25.56332,42.251846 C-21.042704,43.94633 -16.466154,45.49094 -11.8448925,46.88727 C-7.22363,48.283607 -2.557665,49.531696 2.1418285,50.63713 C6.8413224,51.742565 11.574335,52.70538 16.329876,53.5347 C20.728764,54.301823 25.1474,54.954884 29.57883,55.503483 C34.01026,56.052086 38.454483,56.496254 42.905903,56.84731 C50.158554,57.419277 57.42973,57.74373 64.70361,57.87674 C71.97749,58.009747 79.25408,57.951366 86.526764,57.76452 C89.81468,57.752205 93.1027,57.58252 96.36915,57.21095 C99.6356,56.83938 102.88042,56.265457 106.061935,55.43788 C108.71442,54.747917 111.32202,53.88096 113.84557,52.812305 C116.10585,51.85515 118.29864,50.735477 120.38863,49.448162 C122.47863,48.16085 124.46554,46.70541 126.317825,45.094906 C127.760185,43.84082 129.12111,42.493084 130.39143,41.064938 C131.66177,39.636787 132.84163,38.128323 133.92847,36.556004 C134.99435,35.013996 135.97101,33.410618 136.86162,31.761042 C137.68698,30.232313 138.43857,28.663979 139.12161,27.066483 C139.80466,25.468987 140.41924,23.842358 140.97174,22.195047 C141.85031,19.575575 142.57162,16.906343 143.16306,14.208612 C143.7545,11.510881 144.21606,8.78465 144.57092,6.045019 C144.92578,3.305388 145.17392,0.55235595 145.33437,-2.205125 C145.4948,-4.9626064 145.56754,-7.7245374 145.56754,-10.488101 L145.50067,-53.75225 L134.34453,-53.75225 L134.34453,-59.62374 L105.808685,-59.628307 L105.808685,-53.75225 L94.48819,-53.75225 L94.48819,-59.63012 L66.14173,-59.63465 L66.14173,-53.75225 L54.821236,-53.75225 L54.821236,-59.636463 L26.438606,-59.641003 L26.438606,-53.75225 L15.118111,-53.75225 L15.118111,-59.642815 L-13.228347,-59.64735 L-13.228347,-53.75225 L-24.548843,-53.75225 L-24.548843,-59.64916 L-52.894302,-59.653694 L-52.894302,-53.75225 L-64.2148,-53.75225 L-64.2148,-59.655506 L-92.59843,-59.660046 L-92.59843,-53.75225 L-103.91892,-53.75225 L-103.91892,-59.661858 L-145.56754,-59.668518 Z" />
    </g>
  </g>
</svg>