<?xml version="1.0" encoding="utf-8"?>
<!DOCTYPE svg PUBLIC "-//W3C//DTD SVG 1.1//EN" "http://www.w3.org/Graphics/SVG/1.1/DTD/svg11.dtd">
<svg width="203.06995mm" height="220.2862mm" viewBox="0, 0, 767.5085, 832.57776" version="1.1" xmlns:xlink="http://www.w3.org/1999/xlink" xmlns:xml="http://www.w3.org/XML/1998/namespace" xmlns:sodipodi="http://sodipodi.sourceforge.net/DTD/sodipodi-0.dtd" xmlns:inkscape="http://www.inkscape.org/namespaces/inkscape" xmlns="http://www.w3.org/2000/svg">
  <sodipodi:namedview inkscape:document-units="mm" />
  <g id="Drawing" transform="translate(305.04822,422.92294)">
    <g id="Inline" stroke-width="0.37795275" style="stroke:black;fill:none;">
      <path d="M248.38205,-121.12181 C248.38205,-121.07378 248.38371,-121.025734 248.38704,-120.97763 C248.40117,-120.77365 248.4451,-120.568695 248.52081,-120.35903 C248.59653,-120.14937 248.70348,-119.9359 248.8488,-119.71061 C248.97958,-119.50784 249.14137,-119.29582 249.3435,-119.06917 C249.54562,-118.84251 249.78763,-118.60146 250.08688,-118.33722 C250.30121,-118.14796 250.5447,-117.94699 250.82939,-117.728424 C250.97176,-117.61915 251.12451,-117.505424 251.28973,-117.38637 C251.45497,-117.26731 251.63211,-117.14332 251.82646,-117.011375 C252.06624,-116.8486 252.33176,-116.67407 252.63097,-116.4849 C252.93016,-116.29572 253.26373,-116.09167 253.6263,-115.87814 M317.69363,-162.1267 A90.708664,52.37067 60 0 1 320.4363,-160.62416 M207.95305,-111.1119 A102.04724,58.917004 60 0 1 213.53511,-108.16273 M141.73878,-70.56138 A102.04724,58.917004 60 0 0 152.18994,-16.889559 M86.76874,100.70589 L109.12564,113.61365 M-93.918396,126.43554 L-115.18603,138.71442 M-115.18603,261.84467 L-112.5135,263.38766 M-115.18603,144.88635 L-93.918396,132.60748 M122.669106,127.60491 L81.02942,103.56423 M169.8994,16.089472 A102.04724,58.917004 60 0 0 213.53511,58.478584 M245.60706,33.78985 C244.86131,33.346485 244.15399,32.87481 243.4947,32.386448 C242.8354,31.898085 242.22375,31.393244 241.6584,30.878946 C240.96274,30.246115 240.33893,29.601154 239.77635,28.949625 C239.21378,28.298094 238.71233,27.63991 238.26265,26.976408 C237.75165,26.222391 237.30893,25.46378 236.92477,24.700996 C236.54062,23.938213 236.21497,23.171057 235.94232,22.397875 C235.64796,21.563105 235.41574,20.722425 235.24359,19.873919 C235.07144,19.025412 234.95926,18.168922 234.91025,17.300629 C234.86179,16.442043 234.87497,15.572666 234.95973,14.687358 C235.0445,13.802051 235.2002,12.900889 235.44989,11.975096 C235.64896,11.237027 235.90726,10.483988 236.25008,9.707756 C236.4215,9.319639 236.61423,8.925781 236.83363,8.525093 C237.05304,8.124405 237.29898,7.716931 237.5798,7.301027 C237.91136,6.8100066 238.29034,6.3081007 238.73956,5.792392 C239.18878,5.2766824 239.70767,4.7471514 240.33107,4.2076964 C240.58931,3.9842312 240.8674,3.7577822 241.16537,3.53192 C241.46335,3.3060575 241.78133,3.0808136 242.11568,2.861339 C242.45004,2.6418643 242.80087,2.4282143 243.16003,2.226011 C243.51921,2.023808 243.8869,1.8330753 244.24783,1.6596606 C244.98166,1.3070786 245.70024,1.0181369 246.39076,0.777482 C247.0813,0.536827 247.74393,0.34407088 248.38205,0.18415968 M305.04822,-23.62248 A90.708664,52.37067 60 0 0 320.4363,-12.498827 M317.76376,-7.869844 A94.48819,54.55278 60 0 1 304.3022,-17.287556 M280.3682,5.1631665 C280.7955,5.3453746 281.22382,5.532611 281.6463,5.721583 C282.06882,5.9105554 282.48526,6.101109 282.89105,6.2902374 C283.36746,6.5122986 283.83038,6.732792 284.28745,6.9556966 C284.74448,7.1786013 285.19565,7.4040213 285.64575,7.6349854 C286.546,8.096914 287.44003,8.579714 288.36267,9.104892 M248.38205,10.05792 C248.38205,10.559026 248.41129,11.054006 248.46867,11.54343 C248.52608,12.032854 248.6116,12.516492 248.72612,12.994991 C248.84491,13.491417 248.99518,13.983111 249.17972,14.468586 C249.36424,14.954061 249.58287,15.433013 249.84047,15.903547 C250.06715,16.317596 250.32501,16.726612 250.61879,17.126965 C250.91258,17.527317 251.24222,17.918818 251.6124,18.295496 C251.89757,18.585669 252.20828,18.86827 252.54475,19.13795 C252.88123,19.40763 253.24359,19.664223 253.6263,19.90068 M218.88017,49.220627 A94.48819,54.55278 60 0 1 179.05948,10.8008995 M161.43329,-22.226213 A94.48819,54.55278 60 0 1 152.40189,-69.78145" />
    </g>
    <g id="HiddenOutline" stroke-width="0.37795275" stroke-dasharray="2 0.5" style="stroke:black;fill:none;">
      <path d="M370.12906,-241.50548 A109.6063,63.281227 240 0 1 424.66495,-236.23058 M424.66495,-47.987335 A120.944885,69.82756 60 0 1 364.45975,-251.32498 M89.77413,-192.72687 A15.118111,8.728445 240 0 1 98.267715,-191.39127 M93.55366,-186.18053 A7.5590553,4.3642225 240 1 0 101.11272,-173.08786 M70.378624,-155.34352 A7.5590553,4.3642225 240 0 0 71.94415,-158.8039 A7.5590553,4.3642225 240 0 0 62.81957,-168.43619 M-52.913387,-321.24808 A75.59055,43.642223 0 0 1 52.913387,-321.24808 M37.147205,-311.83685 L52.913387,-320.93945 M53.18267,-319.18433 A136.06299,78.55601 0 0 0 -58.307713,-317.85504 M-37.681713,-249.80882 A52.913387,30.549557 0 0 0 -52.913387,-228.36188 M-98.267715,-228.36188 A98.267715,56.734894 0 0 0 -69.75251,-188.39885 M-98.267715,-182.07231 A98.267715,56.734894 0 1 1 98.267715,-182.07231 M98.267715,-185.17152 A7.5590553,4.3642225 240 0 0 93.55366,-186.18053 L62.81957,-168.43619 A7.5590553,4.3642225 240 1 0 70.378624,-155.34352 L96.08699,-170.18626 M148.05814,-85.78952 A120.944885,69.82756 240 0 0 87.85295,-91.62596 M5.345059,95.66511 L5.345059,86.407196 M-69.75251,21.446796 A75.59055,43.642223 0 0 1 -75.59055,4.628957 M-63.88498,0.042024173 A72.755905,42.005642 0 0 0 -51.446194,9.643661 A72.755905,42.005642 0 0 0 -34.815674,16.825197 M-33.445957,12.343885 A22.677166,13.092668 0 0 0 -63.88498,0.042024173 C-64.71977,1.652224 -65.53347,3.297664 -66.32329,4.970794 M-66.49177,5.020291 A75.59055,43.642223 0 0 1 -75.59055,-15.738454 M-60.472443,-74.06331 A60.472443,34.91378 0 0 0 -43.02689,-49.530323 A60.472443,34.91378 0 0 1 -60.472443,-74.06331 Z M-56.692913,-79.92666 A56.692913,32.73167 0 0 0 -43.02689,-58.613335 M-43.02689,-55.39367 A60.472443,34.91378 0 0 1 -60.472443,-79.92666 M-90.708664,-117.26691 A90.708664,52.37067 0 0 0 -74.14968,-87.10133 M-74.618774,-86.830505 C-74.60714,-87.11334 -74.58037,-87.35649 -74.54712,-87.56535 C-74.51387,-87.77421 -74.47443,-87.94987 -74.43046,-88.110016 C-74.37044,-88.32862 -74.303375,-88.511475 -74.23172,-88.67367 C-74.160065,-88.83586 -74.08374,-88.97673 -74.00338,-89.10316 C-73.88189,-89.29428 -73.751434,-89.45212 -73.61165,-89.58725 C-73.47186,-89.72238 -73.32277,-89.83438 -73.16243,-89.92695 M-69.75251,-89.640045 C-70.090546,-89.8171 -70.376884,-89.93359 -70.62329,-90.017075 C-70.869705,-90.10055 -71.07652,-90.1515 -71.26972,-90.18669 C-71.40277,-90.21094 -71.52602,-90.22655 -71.642395,-90.23575 C-71.75877,-90.24495 -71.86821,-90.247696 -71.97239,-90.24522 C-72.18073,-90.24026 -72.3682,-90.21465 -72.54244,-90.17276 C-72.76962,-90.11813 -72.97364,-90.03595 -73.16243,-89.92695 L-97.31806,-75.98069 M-86.92913,-74.06331 A86.92913,50.18856 0 0 1 56.692913,-112.10972 M69.218,-114.33494 A98.267715,56.734894 0 0 0 -98.267715,-74.06331 M-136.06299,-30.859713 A136.06299,78.55601 0 0 1 95.94344,-86.56128 A136.06299,78.55601 0 0 0 -136.06299,-30.859713 Z M-118.84372,-2.5746675 L-118.84372,-5.3520417 M-121.51625,-6.895027 L-121.51625,-1.0316818 M-115.17934,29.474886 A7.5590553,4.3642225 180 0 0 -117.13277,32.4027 A7.5590553,4.3642225 180 0 0 -115.17934,35.330513 A7.5590553,4.3642225 180 0 1 -117.13277,32.4027 A7.5590553,4.3642225 180 0 1 -115.17934,29.474886 Z M-115.17934,13.728712 L-115.17934,18.907156 M-120.52774,16.816614 A15.118111,8.728445 180 0 1 -124.691826,10.8008995 A15.118111,8.728445 180 0 0 -120.52774,16.816614 L-115.17934,13.728712 A7.5590553,4.3642225 180 0 1 -117.13277,10.8008995 A7.5590553,4.3642225 180 0 1 -104.502594,7.56449 M-99.15419,-4.7813263 A15.118111,8.728445 180 0 0 -124.691826,1.5429857 L-124.691826,10.8008995 A15.118111,8.728445 180 0 1 -99.15419,4.4765873 M-98.267715,1.946148E-13 A98.267715,56.734894 0 0 0 -69.75251,39.96303 M-74.826294,42.892387 A22.677166,13.092668 0 0 1 -78.800285,35.48867 M-78.800285,37.031654 A22.677166,13.092668 0 0 0 -75.85369,43.485554 M-72.158295,87.64159 A22.677166,13.092668 0 0 1 -78.800285,78.383675 M-78.800285,78.53797 L-78.800285,35.48867 A22.677166,13.092668 0 0 1 -69.75251,25.024548 M-66.49177,25.387701 L-66.49177,23.844715 M-67.57426,24.187855 A75.59055,43.642223 0 0 0 -66.49177,25.387701 A22.677166,13.092668 0 0 0 -78.800285,37.031654 L-78.800285,78.383675 A22.677166,13.092668 0 1 1 -33.445957,78.383675 M-24.299986,95.75706 C-24.31881,95.741264 -24.327879,95.73201 -24.327879,95.73201 C-24.327911,95.731995 -24.318554,95.74162 -24.302353,95.76159 C-24.286152,95.781555 -24.26311,95.81186 -24.23633,95.851105 C-24.21067,95.888695 -24.18156,95.93445 -24.151152,95.98648 C-24.117487,96.044075 -24.082245,96.10932 -24.047335,96.17971 C-23.96076,96.35428 -23.87737,96.55946 -23.808973,96.76876 C-23.757118,96.927505 -23.713442,97.08931 -23.680273,97.24239 C-23.650188,97.38124 -23.628859,97.51314 -23.61652,97.62281 C-23.605122,97.724106 -23.60166,97.80595 -23.601665,97.85152 L-23.601665,128.71123 M-18.327845,124.76253 L-21.870235,126.807724 M-22.313137,127.06344 C-22.326736,127.071465 -22.362064,127.09182 -22.406086,127.11963 C-22.450106,127.147446 -22.502832,127.18263 -22.556494,127.22135 C-22.610155,127.26007 -22.664764,127.30224 -22.717623,127.346245 C-22.77048,127.39025 -22.821598,127.43601 -22.87315,127.485344 C-23.025688,127.63182 -23.158907,127.79258 -23.266027,127.95311 C-23.345778,128.07272 -23.411348,128.19229 -23.461805,128.303 C-23.51226,128.4137 -23.5476,128.5155 -23.569496,128.59486 C-23.596733,128.69324 -23.602877,128.75584 -23.602888,128.75578 C-23.60289,128.75578 -23.601664,128.74112 -23.601665,128.71123 M-32.560352,120.63578 L235.72256,-34.25743 M305.04822,-21.601799 A37.795277,21.821112 180 0 0 293.97824,-37.031654 A37.795277,21.821112 180 0 0 229.45769,-21.601799 M253.91704,-13.871441 A18.897638,10.910556 0 0 1 248.38205,-21.586369 A18.897638,10.910556 0 1 1 286.1773,-21.586369 M280.34512,-1.1316732 L280.34512,-32.55513 M277.69922,-31.027514 L277.69922,-0.6307182 M252.16158,21.586369 A15.118111,8.728445 180 0 0 256.32565,27.602085 M258.9681,47.677776 C253.72983,44.634544 248.49156,41.03388 243.34344,36.937386 C238.19531,32.840893 233.13733,28.248734 228.25418,23.23793 C223.37103,18.227129 218.66275,12.797731 214.2083,7.0405807 C209.75383,1.2834306 205.55327,-4.8015413 201.6787,-11.109512 C197.45699,-17.98267 193.61957,-25.125584 190.24547,-32.39205 C186.87137,-39.658516 183.9604,-47.04844 181.57027,-54.415005 C179.18011,-61.781574 177.31082,-69.12468 175.99971,-76.29842 C175.34416,-79.8853 174.82784,-83.429855 174.45335,-86.91406 C174.07889,-90.39828 173.84627,-93.82214 173.75662,-97.167854 C173.66698,-100.51356 173.72025,-103.78274 173.91628,-106.95827 C174.1123,-110.1338 174.45107,-113.21568 174.93086,-116.188255 C175.41066,-119.16083 176.03146,-122.02409 176.79015,-124.76374 C177.54883,-127.50339 178.44537,-130.11942 179.47531,-132.59883 C180.50526,-135.07825 181.6686,-137.42104 182.95955,-139.61557 C184.2505,-141.81009 185.66908,-143.85632 187.20819,-145.744 C188.74731,-147.63168 190.40698,-149.3608 192.17876,-150.92253 C193.95055,-152.48428 195.83443,-153.87866 197.82053,-155.09854 C198.13214,-155.28993 198.44629,-155.47705 198.76292,-155.65987 M188.91335,-160.37595 C186.39984,-157.683 184.13182,-154.71179 182.123,-151.50685 C180.47116,-148.87091 178.99435,-146.076 177.69366,-143.14256 C176.39297,-140.20912 175.26843,-137.13715 174.31845,-133.94408 C171.86575,-125.70012 170.57768,-116.64995 170.41188,-107.06213 C170.31012,-101.17722 170.63106,-95.08962 171.36201,-88.86687 C172.09297,-82.64411 173.23396,-76.28621 174.76653,-69.86738 C175.85423,-65.31173 177.13902,-60.725132 178.61185,-56.13619 C180.08469,-51.54725 181.74554,-46.955956 183.5833,-42.391056 C185.42105,-37.826157 187.43568,-33.287647 189.61394,-28.80442 C191.7922,-24.321192 194.13408,-19.893244 196.62424,-15.549615 C200.28809,-9.158684 204.27347,-2.9496396 208.52505,2.9904046 C212.77666,8.930449 217.29445,14.601493 222.01747,19.924261 C227.26077,25.833384 232.75743,31.312904 238.42035,36.26947 C244.08325,41.226036 249.9124,45.65965 255.8238,49.493145 M248.278,53.849716 C243.0397,50.806484 237.80144,47.205822 232.65332,43.10933 C227.5052,39.012836 222.44722,34.420677 217.56406,29.409874 C212.68091,24.39907 207.97264,18.969673 203.51817,13.212523 C199.0637,7.4553733 194.86314,1.3704011 190.98859,-4.93757 C186.76686,-11.810728 182.92944,-18.953642 179.55534,-26.220108 C176.18124,-33.486572 173.2703,-40.876495 170.88014,-48.243065 C168.49,-55.60963 166.62071,-62.95274 165.3096,-70.12649 C164.65404,-73.713356 164.13771,-77.25791 163.76324,-80.74213 C163.38876,-84.22633 163.15616,-87.6502 163.0665,-90.99592 C162.97685,-94.34161 163.03012,-97.610794 163.22615,-100.78632 C163.42218,-103.96185 163.76096,-107.04374 164.24074,-110.01631 C164.72054,-112.98889 165.34134,-115.85216 166.10002,-118.5918 C166.8587,-121.33144 167.75525,-123.94747 168.7852,-126.42689 C169.81514,-128.9063 170.97847,-131.2491 172.26942,-133.44362 C173.56038,-135.63815 174.97896,-137.68439 176.51808,-139.57207 C178.0572,-141.45975 179.71687,-143.18884 181.48865,-144.7506 C183.26042,-146.31235 185.14432,-147.70673 187.13042,-148.9266 C187.44202,-149.118 187.75616,-149.30511 188.07281,-149.48793 C190.04364,-150.62578 192.11128,-151.59683 194.26556,-152.39616 C196.41983,-153.19548 198.66072,-153.8231 200.9774,-154.27599 C203.29407,-154.72887 205.68652,-155.00702 208.14331,-155.10916 C210.6001,-155.2113 213.12123,-155.13745 215.69475,-154.88795 C218.26826,-154.63844 220.89418,-154.21332 223.56001,-153.61453 C226.22586,-153.01576 228.93164,-152.24333 231.66444,-151.30092 C234.39723,-150.3585 237.15706,-149.2461 239.93053,-147.96909 C242.704,-146.69208 245.4911,-145.25044 248.278,-143.65149 M252.16158,-144.62941 C252.16158,-144.22995 252.21867,-143.8302 252.34067,-143.41953 C252.40166,-143.21417 252.47908,-143.00609 252.5758,-142.79338 C252.67255,-142.58067 252.7885,-142.3634 252.92915,-142.13861 C253.09708,-141.87022 253.29901,-141.59209 253.55383,-141.29564 C253.68126,-141.14742 253.82205,-140.99461 253.98051,-140.83566 C254.13899,-140.6767 254.31496,-140.51166 254.516,-140.33778 C254.73933,-140.14467 254.99008,-139.94327 255.28793,-139.7264 C255.43687,-139.61795 255.59747,-139.50587 255.77052,-139.39096 C255.94359,-139.27605 256.1292,-139.15826 256.32565,-139.03984 M248.36739,-121.53527 C248.33954,-121.9264 248.271,-122.30418 248.18059,-122.63042 C248.09016,-122.956665 247.97787,-123.23138 247.88394,-123.422325 C247.83025,-123.5315 247.78223,-123.61476 247.74811,-123.669785 C247.714,-123.72481 247.69379,-123.7516 247.69379,-123.75168 C247.69359,-123.75213 247.71011,-123.73008 247.74596,-123.68881 C247.78181,-123.64755 247.83696,-123.58709 247.91252,-123.51075 C248.06364,-123.35806 248.29716,-123.14211 248.60889,-122.887794 C248.92061,-122.63348 249.3098,-122.34106 249.76396,-122.02988 C250.21812,-121.718704 250.73654,-121.38904 251.30898,-121.05076 M280.34512,-103.79135 A37.795277,21.821112 180 0 0 248.38205,-102.22776 M256.32565,-80.40691 A15.118111,8.728445 180 0 1 252.16158,-86.42263 M248.38205,-83.30579 L248.38205,-21.586369 M252.16158,-24.703201 A15.118111,8.728445 180 0 1 277.69922,-31.027514 L280.34512,-32.55513 A18.897638,10.910556 180 0 0 248.38205,-24.67234 A18.897638,10.910556 180 0 0 253.6263,-17.129007 M256.32565,-18.687485 A15.118111,8.728445 180 0 1 252.16158,-24.703201 L252.16158,21.586369 A15.118111,8.728445 180 0 1 256.32565,15.570654 M248.38205,10.05792 C248.38202,9.7899685 248.404,9.522059 248.44794,9.256962 C248.49185,8.991865 248.55771,8.72958 248.64638,8.470461 C248.72969,8.227029 248.83292,7.987211 248.95923,7.748974 C249.08554,7.5107365 249.23494,7.2740793 249.41393,7.0369 C249.54623,6.8620114 249.69398,6.6870894 249.86206,6.511543 C250.03014,6.3359957 250.21854,6.159824 250.4311,5.9839954 C250.64368,5.808167 250.88043,5.6326823 251.14424,5.4600697 C251.40805,5.287457 251.69891,5.1177163 252.0187,4.9549375 C252.44362,4.7378955 252.92204,4.5316453 253.45065,4.3456187 C253.97926,4.1595917 254.55809,3.9937885 255.18031,3.854773 C255.80255,3.7157578 256.4682,3.6035306 257.167,3.521789 C257.86578,3.4400477 258.59772,3.388792 259.34906,3.3688524 C260.5066,3.337439 261.7195,3.3821487 262.95386,3.490924 C264.18823,3.599699 265.444,3.7725396 266.69833,3.9985158 C268.10678,4.2513266 269.51132,4.5754495 270.89056,4.94859 C272.26984,5.3217306 273.6238,5.7438893 274.92703,6.202558 C275.61774,6.446098 276.29248,6.698611 276.94818,6.959338 C277.6039,7.220065 278.24063,7.489007 278.86328,7.7639894 C279.57925,8.080308 280.26236,8.398796 280.90607,8.719123 C281.5498,9.039449 282.15414,9.361612 282.72314,9.683196 M309.27438,18.633432 C303.36298,14.799935 297.53384,10.366323 291.87094,5.409757 C286.20804,0.45319098 280.71136,-5.0263305 275.46805,-10.935452 C270.74503,-16.25822 266.22723,-21.929264 261.97565,-27.869308 C257.72406,-33.809353 253.73868,-40.0184 250.07483,-46.40933 C247.58467,-50.752956 245.2428,-55.180904 243.06453,-59.664135 C240.88628,-64.14736 238.87164,-68.68587 237.03389,-73.25077 C235.19614,-77.815674 233.53528,-82.40696 232.06244,-86.9959 C230.58961,-91.58485 229.30482,-96.17144 228.21712,-100.7271 C226.68456,-107.14592 225.54356,-113.50383 224.8126,-119.72658 C224.08165,-125.94933 223.76071,-132.03694 223.86247,-137.92184 C224.02827,-147.50966 225.31635,-156.55983 227.76904,-164.80379 C228.71902,-167.99686 229.84357,-171.06883 231.14426,-174.00227 C232.44493,-176.93571 233.92175,-179.73062 235.5736,-182.36656 C237.58241,-185.5715 239.85043,-188.54271 242.36394,-191.23567 M252.21352,-186.51958 C251.89688,-186.33676 251.58273,-186.14964 251.27112,-185.95825 C249.28502,-184.73839 247.40114,-183.344 245.62935,-181.78226 C243.85757,-180.2205 242.1979,-178.4914 240.65878,-176.60371 C239.11966,-174.71605 237.7011,-172.6698 236.41014,-170.47528 C235.11919,-168.28076 233.95586,-165.93796 232.9259,-163.45854 C231.89597,-160.97913 230.99942,-158.3631 230.24074,-155.62346 C229.48206,-152.8838 228.86125,-150.02054 228.38145,-147.04797 C227.90166,-144.0754 227.5629,-140.9935 227.36687,-137.81798 C227.17084,-134.64246 227.11757,-131.37328 227.20721,-128.02757 C227.29686,-124.68186 227.52948,-121.257996 227.90395,-117.77378 C228.27843,-114.289566 228.79475,-110.74501 229.4503,-107.15814 C230.76141,-99.9844 232.6307,-92.64129 235.02086,-85.27472 C237.411,-77.90815 240.32196,-70.51823 243.69606,-63.251762 C247.07016,-55.9853 250.90758,-48.842384 255.12929,-41.969227 C259.00385,-35.661255 263.2044,-29.576283 267.65887,-23.819132 C272.11334,-18.061981 276.82162,-12.632585 281.70477,-7.6217823 C286.58792,-2.6109798 291.6459,1.9811794 296.79404,6.077673 C301.94217,10.174167 307.18042,13.77483 312.4187,16.818062 M339.144,1.3882048 C333.9057,-1.6550269 328.66745,-5.25569 323.51932,-9.352183 C318.37122,-13.448677 313.31323,-18.040836 308.43005,-23.05164 C303.5469,-28.06244 298.83865,-33.49184 294.3842,-39.24899 C289.92972,-45.006138 285.72916,-51.09111 281.85458,-57.399082 C277.63287,-64.27224 273.79547,-71.41515 270.42136,-78.68162 C267.04724,-85.94809 264.1363,-93.338005 261.74615,-100.704575 C259.35602,-108.071144 257.48672,-115.41425 256.1756,-122.588 C255.52005,-126.174866 255.00372,-129.71942 254.62924,-133.20363 C254.25478,-136.68785 254.02216,-140.11171 253.93251,-143.45743 C253.84286,-146.80313 253.89613,-150.07231 254.09216,-153.24783 C254.2882,-156.42337 254.62695,-159.50525 255.10675,-162.47783 C255.58655,-165.4504 256.20734,-168.31366 256.96603,-171.05331 C257.7247,-173.79295 258.62125,-176.40898 259.6512,-178.8884 C260.68115,-181.36781 261.84448,-183.71062 263.13544,-185.90514 C264.4264,-188.09966 265.84497,-190.1459 267.3841,-192.03357 C268.92322,-193.92125 270.5829,-195.65036 272.35464,-197.21211 C274.12643,-198.77386 276.0103,-200.16824 277.99643,-201.3881 C278.308,-201.57951 278.62216,-201.76662 278.9388,-201.94943 M269.08923,-206.66553 C266.5757,-203.97256 264.3077,-201.00136 262.2989,-197.79643 C260.64706,-195.16048 259.17023,-192.36559 257.86954,-189.43214 C256.56888,-186.4987 255.44432,-183.42671 254.49434,-180.23364 C252.04164,-171.98969 250.75357,-162.93951 250.58777,-153.3517 C250.48601,-147.4668 250.80695,-141.3792 251.5379,-135.15643 C252.26886,-128.93369 253.40985,-122.575775 254.94241,-116.15695 C256.03012,-111.601295 257.3149,-107.0147 258.78775,-102.42576 C260.26056,-97.836815 261.92145,-93.24553 263.7592,-88.680626 C265.59692,-84.11573 267.61157,-79.57722 269.78983,-75.09399 C271.96808,-70.61076 274.30997,-66.182816 276.8001,-61.839184 C280.46396,-55.448254 284.44937,-49.23921 288.70096,-43.299164 C292.95255,-37.35912 297.47034,-31.688078 302.19336,-26.365309 C307.43668,-20.456186 312.93332,-14.9766655 318.59622,-10.0201 C324.25912,-5.063533 330.0883,-0.6299215 335.9997,3.203575 M328.4539,7.5601473 C323.2156,4.516916 317.97733,0.9162527 312.82922,-3.180241 C307.6811,-7.276735 302.6231,-11.868894 297.73996,-16.879696 C292.8568,-21.8905 288.14853,-27.319897 283.69406,-33.077045 C279.2396,-38.834198 275.03903,-44.91917 271.16446,-51.22714 C266.94275,-58.1003 263.10535,-65.24321 259.73123,-72.509674 C256.35715,-79.776146 253.44617,-87.16606 251.05603,-94.53263 C248.6659,-101.8992 246.79659,-109.24231 245.48549,-116.41605 C244.82993,-120.00293 244.3136,-123.54748 243.93913,-127.03169 C243.56465,-130.5159 243.33203,-133.93977 243.24239,-137.28549 C243.15274,-140.63118 243.20601,-143.90036 243.40204,-147.0759 C243.59807,-150.25142 243.93684,-153.33331 244.41663,-156.30588 C244.89642,-159.27846 245.51723,-162.14172 246.27591,-164.88136 C247.03459,-167.62102 247.93114,-170.23705 248.96109,-172.71646 C249.99103,-175.19588 251.15436,-177.53867 252.44531,-179.7332 C253.73627,-181.92772 255.15485,-183.97395 256.69397,-185.86163 C258.2331,-187.74931 259.89276,-189.47842 261.66452,-191.04016 C263.4363,-192.60191 265.3202,-193.99629 267.3063,-195.21617 C267.61792,-195.40756 267.93204,-195.59468 268.2487,-195.7775 C270.21954,-196.91536 272.28717,-197.8864 274.44144,-198.68573 C276.59573,-199.48506 278.8366,-200.11267 281.1533,-200.56555 C283.46997,-201.01843 285.8624,-201.29659 288.31918,-201.39873 C290.77597,-201.50089 293.29712,-201.42702 295.87064,-201.17752 C298.44415,-200.92802 301.07007,-200.50288 303.7359,-199.9041 C306.40173,-199.30533 309.1075,-198.53291 311.84033,-197.5905 C314.57312,-196.64809 317.33295,-195.53568 320.1064,-194.25865 C322.87988,-192.98164 325.667,-191.54001 328.4539,-189.94106 M347.1616,-191.484 A109.6063,63.281227 60 0 0 292.6257,-196.7589 M294.974,-211.20735 C294.65735,-211.02454 294.3432,-210.83742 294.0316,-210.64603 C292.0455,-209.42615 290.1616,-208.03177 288.38983,-206.47002 C286.61804,-204.90828 284.95837,-203.17917 283.41925,-201.29149 C281.88013,-199.40381 280.46158,-197.35757 279.17062,-195.16306 C277.87967,-192.96852 276.7163,-190.62573 275.68637,-188.14632 C274.65643,-185.6669 273.7599,-183.05087 273.00122,-180.31122 C272.24252,-177.57158 271.62173,-174.70831 271.14194,-171.73573 C270.66214,-168.76317 270.32336,-165.68127 270.12735,-162.50575 C269.9313,-159.33022 269.87805,-156.06105 269.96768,-152.71535 C270.05734,-149.36963 270.28995,-145.94577 270.66443,-142.46155 C271.0389,-138.97734 271.55524,-135.43279 272.2108,-131.84592 C273.52188,-124.672165 275.39117,-117.329056 277.7813,-109.96249 C280.17148,-102.595924 283.08243,-95.206 286.45654,-87.93954 C289.83063,-80.673065 293.66806,-73.53015 297.88977,-66.657 C301.76434,-60.349026 305.9649,-54.264053 310.41934,-48.506905 C314.8738,-42.749752 319.5821,-37.320354 324.46524,-32.30955 C329.3484,-27.29875 334.40637,-22.70659 339.5545,-18.610098 C344.70264,-14.513604 349.9409,-10.912941 355.17917,-7.869709 M347.1616,-12.498716 A109.6063,63.281227 60 0 1 292.6257,-196.7589 L158.99922,-119.60961 M186.80981,-108.16281 A120.944885,69.82756 60 0 0 126.60463,-113.99925 M122.668816,-101.99119 A173.85826,100.37712 0 0 0 -173.85826,-30.859713 M-167.60939,-88.388954 L26.725296,-200.58813 M42.492386,-206.9139 L47.837536,-209.99992 A68.031494,39.278004 0 0 0 -68.031494,-182.07231 M-60.472443,-182.07231 L-60.472443,-74.06331 A60.472443,34.91378 0 0 1 42.492386,-98.9049 M47.837536,-101.99092 L42.492386,-98.9049 L42.492386,-206.9139 A60.472443,34.91378 0 0 0 -60.472443,-182.07231 M-43.02689,-157.53932 L-43.02689,-131.06502 M-48.372044,-132.68712 L-48.372044,-154.4533 M-56.692913,-162.93929 L-56.692913,-79.92666 A56.692913,32.73167 0 1 1 56.692913,-79.92666 M56.692913,-92.07614 A60.472443,34.91378 0 0 0 -60.472443,-79.92666 L-60.472443,-27.773743 L-60.472443,-74.06331 A60.472443,34.91378 0 1 1 60.472443,-74.06331 L60.472443,-27.773743 A60.472443,34.91378 0 1 0 -60.472443,-27.773743 A60.472443,34.91378 0 0 0 -42.76047,-3.0859714 A60.472443,34.91378 0 0 0 60.472443,-27.773743 A60.472443,34.91378 0 1 0 -60.472443,-27.773743 A60.472443,34.91378 0 0 0 -42.76047,-3.0859714 A60.472443,34.91378 0 0 0 60.472443,-27.773743 L60.472443,-74.06331 M65.13645,-78.51058 A120.944885,69.82756 60 0 1 112.129166,-79.06846 C113.068886,-78.69911 114.0466,-78.28408 115.0779,-77.81487 C115.59356,-77.58027 116.1227,-77.33206 116.66839,-77.06864 C117.21407,-76.805214 117.77624,-76.52659 118.359314,-76.23036 C119.16445,-75.82132 120.01146,-75.37766 120.90598,-74.895874 C121.35324,-74.65498 121.81219,-74.40466 122.282005,-74.145325 C122.751816,-73.88599 123.232544,-73.617615 123.721794,-73.341515 M136.35594,-72.83108 A109.6063,63.281227 60 0 1 158.99922,-119.60961 A109.6063,63.281227 60 0 1 213.53511,-114.33471 M205.18657,-109.51468 C203.18878,-110.30645 201.22092,-110.975655 199.29463,-111.52191 C197.36836,-112.06818 195.48375,-112.4915 193.65118,-112.79396 C191.81862,-113.09643 190.03818,-113.27804 188.31827,-113.34317 C186.59836,-113.408295 184.93904,-113.35695 183.3461,-113.19565 C181.20518,-112.97892 179.18336,-112.56332 177.27838,-111.962006 C175.3734,-111.3607 173.58525,-110.57369 171.90334,-109.60291 L270.78693,-166.69339 C273.25134,-168.11644 275.89517,-169.22845 278.67456,-170.01549 C281.45392,-170.80252 284.36887,-171.26456 287.37802,-171.40387 C289.904,-171.52078 292.49588,-171.41032 295.1345,-171.07881 C297.77313,-170.74731 300.45844,-170.19475 303.17197,-169.42911 C305.8855,-168.66345 308.6272,-167.68471 311.3793,-166.50249 C314.1314,-165.32025 316.8939,-163.93454 319.6497,-162.35657 M301.72858,-174.5112 C298.94168,-176.11015 296.15457,-177.55179 293.3811,-178.8288 C290.60767,-180.10582 287.84784,-181.21823 285.11502,-182.16064 C282.38223,-183.10306 279.67645,-183.87547 277.01062,-184.47424 C274.34476,-185.07303 271.71887,-185.49817 269.14536,-185.74767 C266.57184,-185.99716 264.0507,-186.07103 261.5939,-185.96887 C259.13712,-185.86673 256.74466,-185.58858 254.428,-185.1357 C252.11131,-184.68282 249.87042,-184.05519 247.71616,-183.25587 C245.56187,-182.45654 243.49423,-181.4855 241.5234,-180.34764 C241.20676,-180.16483 240.89261,-179.9777 240.581,-179.78632 C238.59491,-178.56644 236.71101,-177.17206 234.93924,-175.6103 C233.16747,-174.04855 231.50778,-172.31946 229.96867,-170.43178 C228.42955,-168.5441 227.01097,-166.49786 225.72002,-164.30333 C224.42906,-162.10881 223.26573,-159.766 222.2358,-157.2866 C221.20584,-154.80719 220.3093,-152.19116 219.55061,-149.4515 C218.79193,-146.71187 218.17113,-143.8486 217.69133,-140.87602 C217.21155,-137.90346 216.87277,-134.82156 216.67674,-131.64604 C216.48071,-128.4705 216.42744,-125.20133 216.51709,-121.85563 C216.60674,-118.50992 216.83936,-115.08605 217.21384,-111.60184 C217.5883,-108.11762 218.10463,-104.57307 218.7602,-100.9862 C220.0713,-93.812454 221.9406,-86.469345 224.33073,-79.102776 C226.72087,-71.736206 229.63184,-64.34628 233.00594,-57.079823 C236.38004,-49.813354 240.21745,-42.67044 244.43918,-35.797283 C248.31374,-29.489311 252.5143,-23.40434 256.96878,-17.64719 C261.42322,-11.890039 266.1315,-6.460642 271.01465,-1.4498394 C275.8978,3.560963 280.95578,8.153122 286.1039,12.249616 C291.25204,16.34611 296.4903,19.946772 301.72858,22.990004 M285.69342,32.247917 C280.4551,29.204687 275.21686,25.604023 270.06873,21.50753 C264.92062,17.411036 259.86264,12.818877 254.97948,7.8080745 C250.09633,2.7972722 245.38805,-2.6321254 240.9336,-8.389276 C236.47913,-14.146426 232.27856,-20.231398 228.40399,-26.53937 C224.18228,-33.41253 220.34486,-40.555443 216.97076,-47.821907 C213.59666,-55.08837 210.6857,-62.478294 208.29556,-69.844864 C205.90541,-77.21143 204.03612,-84.55454 202.725,-91.72829 C202.06946,-95.315155 201.55313,-98.85971 201.17865,-102.343925 C200.80418,-105.82813 200.57156,-109.25201 200.48192,-112.59772 C200.39227,-115.94341 200.44554,-119.21259 200.64157,-122.38812 C200.8376,-125.56365 201.17636,-128.64554 201.65616,-131.61812 C202.13596,-134.59068 202.75676,-137.45395 203.51544,-140.1936 C204.27412,-142.93324 205.17067,-145.54927 206.2006,-148.02869 C207.23056,-150.5081 208.39389,-152.8509 209.68484,-155.04543 C210.9758,-157.23994 212.39438,-159.28618 213.93349,-161.17386 C215.47261,-163.06154 217.13228,-164.79065 218.90405,-166.3524 C220.67584,-167.91414 222.55972,-169.30852 224.54582,-170.5284 C224.85744,-170.71979 225.17159,-170.9069 225.48822,-171.08972 M215.63864,-175.80582 C213.12514,-173.11285 210.85712,-170.14165 208.8483,-166.9367 C207.19646,-164.30077 205.71964,-161.50586 204.41896,-158.57242 C203.11827,-155.63898 201.99373,-152.567 201.04375,-149.37393 C198.59105,-141.12997 197.30298,-132.0798 197.13718,-122.49199 C197.03542,-116.60708 197.35635,-110.51948 198.08731,-104.29672 C198.81827,-98.073975 199.95926,-91.716064 201.49182,-85.29724 C202.57953,-80.741585 203.86432,-76.15499 205.33714,-71.56605 C206.80998,-66.977104 208.47084,-62.385815 210.3086,-57.820915 C212.14635,-53.256016 214.16098,-48.717506 216.33923,-44.234276 C218.5175,-39.75105 220.85938,-35.3231 223.34953,-30.979471 C227.01338,-24.588541 230.99876,-18.379496 235.25035,-12.439452 C239.50195,-6.499408 244.01974,-0.8283637 248.74277,4.4944043 C253.98607,10.403526 259.48273,15.883048 265.14563,20.839615 C270.80853,25.79618 276.6377,30.229792 282.5491,34.06329 M275.0033,38.41986 C269.765,35.37663 264.52673,31.775967 259.37863,27.679472 C254.2305,23.58298 249.17252,18.99082 244.28935,13.980018 C239.4062,8.969214 234.69794,3.539817 230.24347,-2.217333 C225.789,-7.9744835 221.58844,-14.059456 217.71388,-20.367426 C213.49216,-27.240585 209.65474,-34.3835 206.28064,-41.649963 C202.90654,-48.91643 199.99557,-56.30635 197.60544,-63.67292 C195.2153,-71.03949 193.34601,-78.3826 192.0349,-85.55634 C191.37933,-89.14321 190.863,-92.68777 190.48854,-96.17198 C190.11406,-99.6562 189.88144,-103.08006 189.7918,-106.42577 C189.70215,-109.77148 189.75542,-113.04065 189.95145,-116.21618 C190.14748,-119.39171 190.48625,-122.473595 190.96603,-125.44617 C191.44583,-128.41875 192.06664,-131.28201 192.82532,-134.02165 C193.584,-136.7613 194.48055,-139.37733 195.5105,-141.85674 C196.54044,-144.33615 197.70377,-146.67896 198.99472,-148.87347 C200.28568,-151.06801 201.70425,-153.11424 203.24338,-155.00192 C204.78249,-156.8896 206.44217,-158.6187 208.21394,-160.18045 C209.98572,-161.7422 211.86961,-163.13658 213.8557,-164.35646 C214.16731,-164.54785 214.48146,-164.73497 214.79811,-164.91779 C216.76894,-166.05563 218.83658,-167.02669 220.99086,-167.82602 C223.14513,-168.62534 225.38602,-169.25296 227.7027,-169.70584 C230.01936,-170.15872 232.4118,-170.43687 234.8686,-170.53902 C237.3254,-170.64116 239.84653,-170.5673 242.42004,-170.31781 C244.99356,-170.0683 247.61948,-169.64317 250.28531,-169.04439 C252.95116,-168.44562 255.65694,-167.67319 258.38974,-166.73079 C261.12253,-165.78838 263.88235,-164.67596 266.65582,-163.39894 C269.4293,-162.12193 272.2164,-160.6803 275.0033,-159.08134 M277.69922,-151.37987 C277.65945,-151.40154 277.6197,-151.42296 277.58,-151.44406 C277.25055,-151.6193 276.9301,-151.77187 276.6214,-151.90671 C276.3127,-152.04155 276.01572,-152.15868 275.7305,-152.26244 C275.44525,-152.36618 275.17175,-152.45656 274.9075,-152.53725 C274.64325,-152.61794 274.38828,-152.68895 274.13754,-152.7533 C273.76624,-152.84859 273.41013,-152.92776 273.06403,-152.99557 C272.7179,-153.06339 272.3819,-153.11974 272.05307,-153.16725 C271.39545,-153.2623 270.76645,-153.32246 270.15042,-153.35838 C269.55292,-153.3932 268.96936,-153.40477 268.3902,-153.39693 C267.81104,-153.38907 267.23654,-153.3617 266.65967,-153.31546 C266.0828,-153.26921 265.50375,-153.20413 264.9149,-153.11816 C264.32605,-153.0322 263.72778,-152.92555 263.10788,-152.7918 C262.6246,-152.68752 262.12894,-152.56696 261.61124,-152.42328 C261.09354,-152.2796 260.55472,-152.1135 259.97684,-151.90944 C259.72913,-151.82198 259.47803,-151.72879 259.21686,-151.62617 C258.9557,-151.52354 258.68445,-151.4114 258.4011,-151.28654 C258.11777,-151.16167 257.82224,-151.02397 257.51804,-150.87169 C257.21384,-150.71942 256.9008,-150.55232 256.58957,-150.37263 C256.21997,-150.15924 255.89177,-149.95071 255.60118,-149.75166 C255.3106,-149.55263 255.05727,-149.36296 254.83331,-149.1834 C254.60934,-149.00385 254.41466,-148.83437 254.2406,-148.67264 C254.06653,-148.5109 253.91304,-148.3569 253.77188,-148.2054 C253.57088,-147.98969 253.40045,-147.78479 253.25119,-147.5867 C253.10194,-147.38861 252.97412,-147.19743 252.86278,-147.01097 C252.64009,-146.63803 252.48251,-146.28389 252.37103,-145.93727 C252.29944,-145.71466 252.24747,-145.49579 252.213,-145.27844 C252.17851,-145.06111 252.16158,-144.84534 252.16158,-144.62941 L252.16158,-86.42263 A15.118111,8.728445 180 0 1 256.32565,-92.43834 M256.32565,-92.19643 A18.897638,10.910556 0 0 0 248.57198,-84.848785 M248.38205,-86.39177 A18.897638,10.910556 180 0 1 280.34512,-94.27456 M286.1773,-83.30579 L286.1773,-21.586369 A18.897638,10.910556 0 0 1 253.91704,-13.871441 M256.32565,-0.7125926 L256.32565,-18.687485 L253.6263,-17.129007 L253.6263,-1.2482835 M248.38205,-2.6952615 L248.38205,-24.67234 M246.41267,-28.08549 A37.795277,21.821112 180 0 1 235.72256,-34.25743 L235.72256,-65.11714 M229.45769,-61.500114 L229.45769,-21.601799 A37.795277,21.821112 180 0 0 229.83754,-18.515827 M166.08934,18.289213 A109.6063,63.281227 60 0 1 148.30869,-14.648722 M127.8515,-2.837758 L-32.560352,89.77607 M-33.003258,90.03178 C-33.006824,90.03384 -33.02132,90.04218 -33.04157,90.053 C-33.076878,90.071884 -33.127758,90.096985 -33.182785,90.1199 C-33.24566,90.14606 -33.314823,90.170074 -33.38636,90.18889 C-33.457897,90.2077 -33.53181,90.22131 -33.603016,90.22844 C-33.69375,90.23744 -33.780052,90.23546 -33.84453,90.227196 C-33.909008,90.21893 -33.95166,90.20441 -33.955437,90.20273 C-32.4357,90.80633 -30.999716,91.46996 -29.664782,92.18329 C-28.329847,92.896614 -27.095963,93.65963 -25.977776,94.458984 C-25.385586,94.88232 -24.82576,95.31578 -24.299986,95.75706 M-21.870235,95.94801 L128.50394,9.129443 M126.489395,59.066513 A98.267715,56.734894 240 0 1 109.88165,-78.158905 M102.014656,-66.34838 A7.5590553,4.3642225 180 0 1 103.96809,-69.2762 M99.191536,-71.98696 A98.267715,56.734894 240 0 0 120.94517,71.05106 M80.17589,46.28957 L53.450592,61.719425 M26.725296,46.28957 L-267.25296,216.01799 M-248.54524,220.64696 L-248.54524,226.8189 M-248.54524,232.99083 L18.707706,78.69227 M18.707706,66.34838 L18.707706,78.69227 L259.23538,217.56097 M208.4573,212.93202 L5.345059,95.66511 L-208.4573,219.10396 L-107.168434,277.58313 M-114.40326,263.57486 L-218.36465,203.5527 C-218.47163,203.49101 -218.57944,203.41826 -218.68442,203.33849 C-218.7894,203.25873 -218.89157,203.17195 -218.99031,203.07967 C-219.21461,202.86981 -219.42198,202.63058 -219.6011,202.36554 C-219.7695,202.11641 -219.9119,201.84483 -220.01932,201.55894 C-220.17262,201.15094 -220.2544,200.71281 -220.25443,200.27956 L-220.25443,5.8633456 C-220.2544,5.430077 -220.17262,4.991947 -220.01932,4.583945 C-219.9119,4.2980547 -219.7695,4.0264697 -219.6011,3.7773523 C-219.42198,3.512297 -219.21461,3.2730794 -218.99031,3.0632222 C-218.89157,2.970866 -218.7894,2.8841722 -218.68442,2.8043928 C-218.57944,2.7246132 -218.47163,2.651936 -218.36465,2.590179 L16.817944,-133.19257 C16.942047,-133.26425 17.07522,-133.3267 17.20706,-133.38 C17.352467,-133.43877 17.497538,-133.48763 17.642063,-133.52945 C17.82465,-133.58228 18.006382,-133.6236 18.18381,-133.65166 C18.361238,-133.6797 18.533794,-133.69421 18.70582,-133.69435 C18.81354,-133.69435 18.921108,-133.68887 19.030306,-133.67784 C19.139502,-133.66681 19.250248,-133.65027 19.362452,-133.62871 C19.58686,-133.58557 19.816425,-133.52333 20.045954,-133.44165 C20.138826,-133.4085 20.232067,-133.37193 20.324844,-133.33061 C20.417624,-133.28928 20.509937,-133.24318 20.597471,-133.19257 L124.55887,-73.17042 M129.39502,-75.014366 A98.267715,56.734894 240 0 0 99.191536,-71.98696 L109.88165,-78.158905 A98.267715,56.734894 240 0 1 158.74826,-73.445526 M158.74826,-82.7035 A109.6063,63.281227 240 0 0 104.21236,-87.9784 M103.96809,-97.04994 A7.5590553,4.3642225 180 0 0 102.014656,-94.12212 A7.5590553,4.3642225 180 0 0 103.96809,-91.19431 A7.5590553,4.3642225 180 0 1 102.014656,-94.12212 A7.5590553,4.3642225 180 0 1 103.96809,-97.04994 Z M99.87933,-98.5694 A120.944885,69.82756 240 0 0 160.08452,104.76824 A120.944885,69.82756 60 0 1 99.87933,-98.5694 L87.85295,-91.62596 A120.944885,69.82756 240 0 0 112.37785,81.964676 M92.08842,97.727104 A120.944885,69.82756 60 0 1 65.13645,-78.51058 L99.87933,-98.5694 A120.944885,69.82756 60 0 1 160.08452,-92.732956 A120.944885,69.82756 240 0 0 99.87933,-98.5694 M94.455605,-115.72392 A15.118111,8.728445 180 0 0 98.61968,-109.708206 M102.014656,-115.72392 L102.014656,-94.12212 L102.014656,-66.34838 A7.5590553,4.3642225 180 0 0 103.96809,-63.42057 M95.94344,-55.70157 A136.06299,78.55601 0 0 0 -136.06299,-9.620336E-15 M-136.06299,-1.8515828 A136.06299,78.55601 0 0 1 95.94344,-57.55315 M98.267715,-58.895073 L95.94344,-57.55315 L95.94344,-86.3298 L95.94344,-55.70157 L69.218,-40.27163 L69.218,-114.33494 A98.267715,56.734894 0 0 0 -98.267715,-74.06331 M-102.014656,-66.34838 A7.5590553,4.3642225 180 0 0 -114.91877,-69.43436 A7.5590553,4.3642225 180 0 0 -117.13277,-66.34838 L-117.13277,-94.12212 A7.5590553,4.3642225 180 1 0 -102.014656,-94.12212 A7.5590553,4.3642225 180 1 1 -117.13277,-94.12212 A7.5590553,4.3642225 180 0 1 -114.91877,-97.2081 A7.5590553,4.3642225 180 0 1 -102.014656,-94.12212 L-102.014656,-66.34838 A7.5590553,4.3642225 180 1 1 -117.13277,-66.34838 M-136.06299,-61.719425 A136.06299,78.55601 0 0 1 95.94344,-117.421 M94.455605,-124.98184 L94.455605,-115.72392 A15.118111,8.728445 180 0 1 96.756714,-120.35288 M95.94344,-121.20591 A15.118111,8.728445 180 0 1 94.455605,-124.98184 A15.118111,8.728445 180 0 1 95.94344,-128.75777 M95.94344,-145.42836 A173.85826,100.37712 0 0 0 -136.06299,-124.20558 M-124.691826,-115.72392 A15.118111,8.728445 180 0 1 -120.26383,-121.89587 M-124.691826,-124.98184 L-124.691826,-115.72392 A15.118111,8.728445 180 1 0 -94.455605,-115.72392 M-98.267715,-129.6108 A98.267715,56.734894 0 0 0 -69.75251,-89.647766 M-64.4074,-92.73376 A90.708664,52.37067 0 0 1 -90.708664,-129.6108 M-94.455605,-124.98184 A15.118111,8.728445 180 1 1 -124.691826,-124.98184 A15.118111,8.728445 180 0 1 -120.26383,-131.15378 A15.118111,8.728445 180 0 1 -94.455605,-124.98184 L-94.455605,-115.72392 A15.118111,8.728445 180 0 0 -120.26383,-121.89587 M-117.13277,-115.72392 A7.5590553,4.3642225 180 0 1 -114.91877,-118.8099 A7.5590553,4.3642225 180 0 1 -102.014656,-115.72392 A7.5590553,4.3642225 180 1 1 -117.13277,-115.72392 L-117.13277,-94.12212 A7.5590553,4.3642225 180 0 1 -114.91877,-97.2081 A7.5590553,4.3642225 180 0 1 -102.014656,-94.12212 L-102.014656,-115.72392 M-98.267715,-117.26691 A98.267715,56.734894 0 0 1 69.218,-157.53854 M63.8729,-154.45255 A90.708664,52.37067 0 0 0 -90.708664,-117.26691 L-90.708664,-129.6108 A90.708664,52.37067 0 0 1 63.8729,-166.79643 M69.218,-169.88243 L69.218,-222.34393 M52.913387,-245.26443 A60.472443,34.91378 0 0 0 -60.472443,-228.36188 M-75.59055,-228.36188 A75.59055,43.642223 0 0 1 53.18267,-259.37552 M52.913387,-259.22003 L37.147205,-250.11743 L37.147205,-311.83685 M53.18267,-294.58566 A98.267715,56.734894 0 0 0 -75.59055,-283.12967 M-75.59055,-264.61383 A98.267715,56.734894 0 0 1 53.18267,-276.06982 M69.218,-268.6335 L69.218,-141.80067 L69.218,-157.53854 L63.8729,-154.45255 L63.8729,-166.79643 L69.218,-169.88243 A98.267715,56.734894 0 0 0 -98.267715,-129.6108 L-98.267715,-182.07231 L-98.267715,-228.36188 A98.267715,56.734894 0 0 1 -96.95059,-237.6198 M-98.267715,-246.8777 L-98.267715,-0 A98.267715,56.734894 0 0 1 69.218,-40.27163 M63.637638,-41.660614 A68.031494,39.278004 0 0 0 -63.637638,-41.660614 A68.031494,39.278004 0 0 0 -48.105534,9.399306E-14 A68.031494,39.278004 0 0 0 63.637638,-41.660614 L70.531715,-31.129736 M75.59055,-15.738454 A75.59055,43.642223 0 1 0 -75.59055,-15.738454 L-75.59055,4.628957 A75.59055,43.642223 0 1 1 75.59055,4.628957 M75.25984,8.706848 A75.59055,43.642223 0 0 0 75.59055,4.628957 L75.59055,-15.738454 A75.59055,43.642223 0 0 1 -35.9552,22.650585 M-35.9552,25.02704 L-35.9552,22.650585 A22.677166,13.092668 0 0 0 -35.86947,22.553314 C-35.471703,20.653837 -35.11977,18.741793 -34.815674,16.825197 A22.677166,13.092668 0 0 0 -33.445957,12.343885 L-33.445957,78.383675 A22.677166,13.092668 0 0 1 -72.158295,87.64159 M-72.158295,87.79588 A22.677166,13.092668 0 0 0 -33.445957,78.53797 A22.677166,13.092668 0 1 0 -78.800285,78.53797 A22.677166,13.092668 0 0 0 -72.158295,87.79588 Z M-75.09617,89.02917 L-77.76894,90.572296 L-77.76894,160.31525 M-82.57981,149.66962 A26.456694,15.274778 0 0 0 -75.09617,160.31511 M-72.423325,158.77194 L-72.423325,161.85791 M-72.158295,162.01349 A22.677166,13.092668 0 0 1 -78.800285,152.75558 A22.677166,13.092668 0 0 0 -72.423325,161.85791 L-78.84367,165.5647 M-80.44166,163.40132 L-75.09617,160.31511 L-75.09617,89.02917 A26.456694,15.274778 0 0 1 -82.57981,78.383675 M-82.57981,78.53797 A26.456694,15.274778 0 0 0 -74.830826,89.33887 A26.456694,15.274778 0 0 0 -29.666428,78.53797 M-25.8869,78.69227 A30.236221,17.45689 0 0 1 -77.50336,91.036156 A30.236221,17.45689 0 0 1 -86.359344,78.69227 M-86.359344,78.383675 A30.236221,17.45689 0 0 1 -35.011806,65.88645 M-37.684574,67.42957 A26.456694,15.274778 0 0 0 -82.57981,78.383675 L-82.57981,149.66962 M-86.359344,148.12662 A30.236221,17.45689 0 0 0 -77.76894,160.31525 L-80.44166,161.85834 M-89.40111,158.47165 A113.385826,65.46334 0 0 1 -18.327845,134.1341 M-18.327845,135.98567 A113.385826,65.46334 0 0 0 -88.33186,159.54414 M-87.59083,160.21335 A34.015747,19.639002 0 0 1 -90.13887,152.75558 M-93.918396,148.12662 A37.795277,21.821112 0 1 1 -18.327845,148.12662 M-25.8869,148.12662 L-25.8869,78.69227 A30.236221,17.45689 0 1 0 -86.359344,78.69227 L-86.359344,148.12662 M-90.13887,148.12662 A34.015747,19.639002 0 0 0 -80.44166,161.85834 L-80.44166,163.40132 M-80.44166,164.83083 L-80.44166,163.40132 A34.015747,19.639002 0 0 1 -90.13887,149.66962 A34.015747,19.639002 0 0 0 -80.44166,163.40132 L-72.423325,158.77194 A22.677166,13.092668 0 0 1 -78.800285,149.66962 A22.677166,13.092668 0 0 1 -40.35742,140.25868 M-40.35742,143.34465 A22.677166,13.092668 0 0 0 -78.800285,152.75558 L-78.800285,149.66962 A22.677166,13.092668 0 1 1 -33.445957,149.66962 M-33.445957,152.75558 A22.677166,13.092668 0 1 0 -78.800285,152.75558 L-78.800285,149.66962 A22.677166,13.092668 0 0 0 -72.158295,158.92752 A22.677166,13.092668 0 0 0 -33.445957,149.66962 L-33.445957,152.75558 A22.677166,13.092668 0 0 1 -72.158295,162.01349 M-71.85877,167.96658 A26.456694,15.274778 0 0 1 -74.830826,166.48816 A26.456694,15.274778 0 0 1 -82.57981,155.68726 M-82.57981,152.75558 A26.456694,15.274778 0 1 1 -29.666428,152.75558 L-29.666428,155.68726 M-40.387474,167.96658 A26.456694,15.274778 0 0 0 -29.666428,155.68726 A26.456694,15.274778 0 1 0 -82.57981,155.68726 L-82.57981,152.75558 A26.456694,15.274778 0 0 0 -74.830826,163.55649 A26.456694,15.274778 0 0 0 -29.666428,152.75558 M-29.666428,149.66962 L-29.666428,78.53797 A26.456694,15.274778 0 1 0 -82.57981,78.53797 L-82.57981,149.66962 A26.456694,15.274778 0 0 0 -74.830826,160.4705 A26.456694,15.274778 0 0 0 -29.666428,149.66962 A26.456694,15.274778 0 1 0 -82.57981,149.66962 A26.456694,15.274778 0 0 1 -37.684574,138.71552 M-32.339092,134.08632 A34.015747,19.639002 0 0 0 -90.13887,148.12662 L-90.13887,149.66962 A34.015747,19.639002 0 0 1 -32.339092,135.6293 M-32.339092,138.71527 L-32.339092,135.6293 L-40.35742,140.25868 L-40.35742,143.34465 L-32.339092,138.71527 A34.015747,19.639002 0 0 0 -90.13887,152.75558 L-90.13887,149.66962 A34.015747,19.639002 0 0 1 -32.339092,135.6293 M-35.011806,135.62941 L-35.011806,65.88645 L-37.684574,67.42957 L-37.684574,138.71552 L-32.339092,135.6293 L-32.339092,134.08632 L-35.011806,135.62941 A30.236221,17.45689 0 0 0 -86.359344,148.12662 A30.236221,17.45689 0 0 0 -77.50336,160.4705 A30.236221,17.45689 0 0 0 -25.8869,148.12662 A30.236221,17.45689 0 1 0 -86.359344,148.12662 L-86.359344,78.383675 A30.236221,17.45689 0 0 0 -77.76894,90.572296 M-93.918396,96.61889 L-93.918396,78.69227 A37.795277,21.821112 0 0 0 -82.84842,94.12212 A37.795277,21.821112 0 0 0 -18.327845,78.69227 L-18.327845,119.41428 M-9.989283,119.94826 L128.50394,39.989155 M128.50394,45.980972 A128.50394,74.19178 0 1 0 -128.50394,45.980972 L-128.50394,4.628957 A128.50394,74.19178 0 0 1 98.267715,-43.178707 M98.267715,-27.773743 A98.267715,56.734894 0 1 0 -98.267715,-27.773743 L-98.267715,-74.06331 L-98.267715,-117.26691 A98.267715,56.734894 0 0 0 -69.75251,-77.30388 M-68.031494,-74.06331 L-68.031494,-182.07231 A68.031494,39.278004 0 0 0 -48.372044,-154.4533 L-43.02689,-157.53932 A60.472443,34.91378 0 0 1 -60.472443,-182.07231 L-60.472443,-228.36188 A60.472443,34.91378 0 0 0 -43.02689,-203.82889 M-37.681713,-206.91493 A52.913387,30.549557 0 0 1 -52.913387,-228.36188 L-52.913387,-290.0813 L-52.913387,-215.4008 A52.913387,30.549557 0 0 0 -37.415413,-193.799 A52.913387,30.549557 0 0 0 52.325615,-210.86002 M47.837536,-209.99992 L47.837536,-101.99092 A68.031494,39.278004 0 0 0 -68.031494,-74.06331 A68.031494,39.278004 0 0 0 -61.73485,-57.559853 M-63.637638,-41.660614 L-70.531715,-31.129736 A75.40157,43.53312 0 0 0 -66.32329,4.970794 A22.677166,13.092668 0 0 0 -66.49177,5.020291 L-66.49177,14.001008 M-69.75251,12.18929 A98.267715,56.734894 0 0 1 -98.267715,-27.773743 M-96.752426,-6.167985 L-99.15419,-4.7813263 L-99.15419,4.4765873 L-104.502594,7.56449 L-104.502594,29.166288 L-102.014656,27.72988 L-104.502594,29.166288 M-96.47794,24.533258 A136.06299,78.55601 0 0 1 -136.06299,-30.859713 A136.06299,78.55601 0 0 0 -96.47794,24.533258 Z M-102.014656,18.359955 L-102.014656,10.8008995 A7.5590553,4.3642225 180 0 1 -114.91877,13.886871 A7.5590553,4.3642225 180 0 1 -117.13277,10.8008995 L-117.13277,60.17644 A7.5590553,4.3642225 180 1 1 -102.014656,60.17644 M-102.014656,56.73801 L-112.5135,62.799515 A3.7795277,2.1821113 120 0 0 -113.7181,63.826252 M-115.17934,63.104256 L-104.502594,56.94003 M-98.063644,54.456894 A136.06299,78.55601 0 0 1 -136.06299,-9.620336E-15 L-136.06299,-30.859713 L-136.06299,-1.8515828 A136.06299,78.55601 0 0 0 -96.47794,53.54139 M-95.04138,54.563572 A128.50394,74.19178 0 0 1 -128.50394,4.628957 M-124.691826,1.5429857 L-124.691826,10.8008995 A15.118111,8.728445 180 1 1 -94.455605,10.8008995 M-100.3037,11.215387 L-121.51625,-1.0316818 A15.118111,8.728445 180 0 1 -118.84372,-2.5746675 L-100.3037,8.1294155 M-102.014656,10.8008995 A7.5590553,4.3642225 180 1 0 -117.13277,10.8008995 L-117.13277,32.4027 L-117.13277,60.17644 A7.5590553,4.3642225 180 0 1 -115.17934,57.248627 M-117.13277,60.17644 A7.5590553,4.3642225 180 0 0 -115.17934,63.104256 A7.5590553,4.3642225 180 0 1 -117.13277,60.17644 Z M-128.50394,45.980972 A128.50394,74.19178 0 0 0 -115.18603,78.87191 M-93.918396,78.69227 A37.795277,21.821112 0 1 1 -18.327845,78.69227 M-33.445957,78.53797 L-33.445957,35.48867 A22.677166,13.092668 0 0 0 -35.9552,29.50233 M-33.445957,35.48867 A22.677166,13.092668 0 0 1 -35.9552,41.47501 M-35.86947,22.553314 A75.40157,43.53312 0 0 0 70.531715,-31.129736 A75.40157,43.53312 0 0 0 -70.531715,-31.129736 M-69.75251,-34.10028 A98.267715,56.734894 0 0 1 -98.267715,-74.06331 A98.267715,56.734894 0 0 0 -69.75251,-34.10028 Z M-61.73485,-38.729275 A86.92913,50.18856 0 0 1 -86.92913,-74.06331 L-86.92913,-182.07231 A86.92913,50.18856 0 0 0 -61.73485,-146.73827 L-61.73485,-137.93105 M-61.73485,-146.73827 L-69.75251,-142.10928 A98.267715,56.734894 0 0 1 -98.267715,-182.07231 A98.267715,56.734894 0 0 0 -69.75251,-142.10928 M-60.472443,-162.93929 L-60.472443,-215.4008 A60.472443,34.91378 0 0 0 -42.76047,-190.71303 A60.472443,34.91378 0 0 0 60.472443,-215.4008 A60.472443,34.91378 0 0 0 59.421577,-221.88133 M61.200348,-217.71494 A86.92913,50.18856 0 0 0 -86.92913,-182.07231 M-98.267715,-182.07231 A98.267715,56.734894 0 0 1 69.218,-222.34393 L61.200348,-217.71494 L61.200348,-137.68364 M56.692913,-135.73134 L56.692913,-162.93929 A56.692913,32.73167 0 1 0 -56.692913,-162.93929 A56.692913,32.73167 0 0 0 -40.087944,-139.7945 A56.692913,32.73167 0 0 0 56.692913,-162.93929 M60.472443,-162.93929 A60.472443,34.91378 0 1 0 -60.472443,-162.93929 A60.472443,34.91378 0 0 0 -42.76047,-138.25151 A60.472443,34.91378 0 0 0 60.472443,-162.93929 L60.472443,-215.4008 M52.913387,-215.4008 A52.913387,30.549557 0 1 0 -52.913387,-215.4008 M-60.472443,-215.4008 A60.472443,34.91378 0 0 1 52.913387,-232.30336 M60.472443,-228.36188 L60.472443,-182.07231 A60.472443,34.91378 0 1 0 -60.472443,-182.07231 A60.472443,34.91378 0 0 0 -42.76047,-157.38454 A60.472443,34.91378 0 0 0 60.472443,-182.07231 M53.450592,-185.15828 L53.450592,61.719425 L160.08452,123.28455 L26.725296,46.28957 L26.725296,-200.58813 L95.94344,-160.62502 L53.450592,-185.15828 L80.17589,-200.58813 L118.654366,-178.37257 M115.58236,-172.71347 A15.118111,8.728445 240 1 1 100.46425,-198.8988 M98.267715,-197.63063 L89.77413,-192.72687 A15.118111,8.728445 240 0 0 95.94344,-168.19743 M95.94344,-169.80582 L95.94344,-240.62837 M80.17589,-200.58813 L80.17589,46.28957 L186.80981,107.8547 M186.80981,89.33839 A120.944885,69.82756 60 0 1 126.60463,-113.99925 L172.03763,-140.23001 C174.2802,-141.52475 176.64812,-142.60344 179.12634,-143.45906 M172.03763,-140.23001 C171.721,-140.0472 171.40685,-139.86008 171.09523,-139.66869 C169.10913,-138.4488 167.22525,-137.05443 165.45346,-135.49268 C163.68169,-133.93094 162.02202,-132.20183 160.4829,-130.31415 C158.94379,-128.42647 157.5252,-126.38023 156.23425,-124.18571 C154.9433,-121.99119 153.77997,-119.648384 152.75002,-117.16897 C151.72008,-114.68956 150.82353,-112.07353 150.06485,-109.333885 C149.30617,-106.59424 148.68536,-103.73097 148.20557,-100.7584 C147.72577,-97.78583 147.38701,-94.70393 147.19098,-91.52841 C146.99495,-88.35288 146.94168,-85.0837 147.03133,-81.738 C147.12097,-78.39229 147.35359,-74.96842 147.72806,-71.48421 C148.10254,-68 148.61887,-64.455444 149.27441,-60.868572 C150.58553,-53.694828 152.45482,-46.35172 154.84497,-38.98515 C157.2351,-31.618582 160.14607,-24.228659 163.52017,-16.962194 C166.89427,-9.695728 170.73169,-2.552814 174.9534,4.320344 C178.82797,10.628315 183.02853,16.713287 187.483,22.470438 C191.93745,28.227589 196.64574,33.656986 201.52888,38.66779 C206.41203,43.67859 211.47002,48.27075 216.61815,52.367245 C221.76627,56.463737 227.00453,60.0644 232.24281,63.10763 M229.09851,64.923004 C223.21083,61.104893 217.40475,56.691486 211.76324,51.758987 C206.12175,46.826492 200.6448,41.374897 195.4185,35.49635 C190.71089,30.20121 186.20628,24.559954 181.965,18.650787 C177.72371,12.741622 173.74573,6.5645475 170.08585,0.20550115 C166.62004,-5.816341 163.43938,-12.001423 160.58376,-18.27297 C157.72813,-24.544518 155.19759,-30.902533 153.0244,-37.269444 C151.40242,-42.021473 149.97961,-46.778793 148.76627,-51.50958 C147.5529,-56.240364 146.54898,-60.94462 145.76277,-65.592285 C144.97658,-70.23995 144.40808,-74.83103 144.06363,-79.337234 C143.71918,-83.84343 143.59875,-88.264755 143.7067,-92.57466 C143.93741,-101.78559 145.21324,-110.488304 147.57175,-118.44216 C148.52496,-121.6568 149.65489,-124.748985 150.96315,-127.700935 C152.27141,-130.6529 153.75798,-133.46461 155.42174,-136.11531 C157.11081,-138.80579 158.98242,-141.33131 161.0293,-143.6653 C163.07619,-145.99928 165.29834,-148.14171 167.67903,-150.06818 M188.07281,-149.48793 L198.76292,-155.65987 C201.0623,-156.98741 203.4935,-158.08781 206.04022,-158.95354 C208.58694,-159.81924 211.2492,-160.4503 214.00954,-160.8426 M214.79811,-164.91779 L225.48822,-171.08972 C227.78761,-172.41727 230.2188,-173.51767 232.76553,-174.38339 C235.31227,-175.24911 237.97453,-175.88017 240.73486,-176.27248 M241.5234,-180.34764 L252.21352,-186.51958 C254.51291,-187.84712 256.9441,-188.94753 259.4908,-189.81325 C262.03757,-190.67897 264.69983,-191.31003 267.46014,-191.70233 M268.2487,-195.7775 L278.9388,-201.94943 C281.2382,-203.27698 283.6694,-204.37738 286.21613,-205.2431 C288.76285,-206.10883 291.4251,-206.73988 294.18546,-207.13219 M294.974,-211.20735 L315.83008,-223.24863 M294.974,-211.20735 C296.94482,-212.34521 299.01248,-213.31625 301.16675,-214.11559 C303.321,-214.91492 305.56192,-215.54253 307.87857,-215.9954 C310.19525,-216.44829 312.5877,-216.72644 315.0445,-216.8286 C317.50128,-216.93074 320.0224,-216.85687 322.59595,-216.60738 C325.16946,-216.35788 327.79535,-215.93274 330.4612,-215.33397 C333.12704,-214.73518 335.83282,-213.96277 338.5656,-213.02036 C341.29843,-212.07794 344.05823,-210.96553 346.8317,-209.6885 C349.60516,-208.4115 352.39227,-206.96986 355.17917,-205.37091 M347.4293,-191.63855 A109.6063,63.281227 240 0 1 370.12906,-241.50548 L104.21236,-87.9784 A109.6063,63.281227 240 0 0 158.74826,96.28178 M138.70428,135.62843 L18.707706,66.34838 L-248.54524,220.64696 L-128.54868,289.927 M-107.168434,277.58313 L114.65152,149.5153 M99.685356,140.87459 L5.345059,86.407196 L-208.4573,209.84605 L-133.89374,252.89536 M-80.442696,246.72314 A113.385826,65.46334 0 0 1 -113.385826,200.58813 L-113.385826,198.73656 M-113.37449,199.66234 A113.385826,65.46334 0 0 0 -113.385826,200.58813 M-208.4573,209.84605 L-208.4573,219.10396" />
    </g>
    <g id="Outline" stroke-width="0.7559055" style="stroke:black;fill:none;">
      <path d="M-267.25296,-30.859713 L-167.60939,-88.388954 M-136.06299,-124.20558 A173.85826,100.37712 0 0 0 -173.85826,-61.719425 M-108.641235,-48.370922 L-106.901184,-49.37554 M-61.73485,-38.729275 L-61.73485,-137.93105 M-37.681713,-206.91493 L-53.717175,-197.65685 M-69.75251,-188.39885 A98.267715,56.734894 0 0 0 -69.48577,-188.24425 A98.267715,56.734894 0 0 0 98.267715,-228.36188 M59.421577,-221.88133 A60.472443,34.91378 0 0 0 52.913387,-232.30336 M37.147205,-250.11743 A52.913387,30.549557 0 0 0 -37.681713,-249.80882 M-75.59055,-264.61383 A98.267715,56.734894 0 0 0 -96.95059,-237.6198 M-136.06299,-246.8777 A136.06299,78.55601 0 0 1 -58.307713,-317.85504 M-52.913387,-290.0813 A52.913387,30.549557 0 0 1 37.147205,-311.83685 M52.913387,-354.5781 L52.913387,-215.4008 A52.913387,30.549557 0 0 1 52.325615,-210.86002 M56.692913,-112.10972 A86.92913,50.18856 0 0 1 61.200348,-109.70595 M119.99323,-131.30615 A15.118111,8.728445 180 0 0 95.94344,-128.75777 M102.014656,-115.72392 A7.5590553,4.3642225 180 0 0 103.96809,-112.79611 M103.96809,-97.04994 A7.5590553,4.3642225 180 0 1 114.64484,-97.358536 A7.5590553,4.3642225 180 0 0 103.96809,-97.04994 Z M95.94344,-86.3298 L95.94344,-86.56128 L95.94344,-86.3298 Z M98.267715,-74.06331 A98.267715,56.734894 0 0 1 -69.48577,-33.945686 M-69.75251,-34.10028 A98.267715,56.734894 0 0 0 -69.48577,-33.945686 M-90.866005,98.44248 A128.50394,74.19178 0 0 1 -115.18603,78.87191 M-74.826294,42.892387 A22.677166,13.092668 0 0 0 -72.158295,44.746586 A22.677166,13.092668 0 0 0 -35.9552,41.47501 M-35.9552,43.017998 A75.59055,43.642223 0 0 0 75.25984,8.706848 M98.267715,-27.773743 A98.267715,56.734894 0 0 1 -69.48577,12.343885 M-69.75251,12.18929 A98.267715,56.734894 0 0 0 -69.48577,12.343885 M-66.49177,14.001008 L-66.49177,23.844715 M-69.75251,21.446796 A75.59055,43.642223 0 0 0 -67.57426,24.187855 M-69.75251,25.024548 A22.677166,13.092668 0 0 1 -35.9552,29.50233 M-35.9552,25.02704 L-35.9552,43.017998 A22.677166,13.092668 0 0 1 -72.158295,46.28957 A22.677166,13.092668 0 0 1 -75.85369,43.485554 M-115.17934,29.474886 A7.5590553,4.3642225 180 0 1 -104.502594,29.166288 M-96.47794,24.533258 L-102.014656,27.72988 L-96.47794,24.533258 Z M-97.63117,9.672401 A15.118111,8.728445 180 0 1 -100.3037,11.215387 M-118.84372,-8.438013 L-97.63117,3.809056 M-96.47794,-6.3264556 L-96.752426,-6.167985 M-94.455605,-1.5429857 A15.118111,8.728445 180 0 1 -97.63117,3.809056 L-97.63117,9.672401 L-100.3037,8.1294155 M-100.3037,5.3520417 L-100.3037,11.215387 M-102.014656,18.359955 L-102.014656,60.17644 M-98.063644,54.456894 A136.06299,78.55601 0 0 0 -96.47794,55.39297 M-95.04138,54.563572 A128.50394,74.19178 0 0 0 -90.866005,57.09047 A128.50394,74.19178 0 0 0 128.50394,4.628957 M128.50394,9.129443 L246.41267,-58.9452 M305.04822,-83.32123 A37.795277,21.821112 180 1 1 229.45769,-83.32123 A37.795277,21.821112 180 0 1 248.38205,-102.22776 M248.36739,-121.53527 C248.37712,-121.39843 248.38206,-121.26001 248.38205,-121.12181 L248.38205,-86.39177 M253.6263,-78.848434 L253.6263,-115.87814 C253.6263,-116.30783 253.60031,-116.71588 253.55116,-117.099045 C253.50203,-117.48221 253.42982,-117.84061 253.33748,-118.173744 C253.15279,-118.84002 252.88899,-119.40505 252.55878,-119.87742 C252.21309,-120.37192 251.79427,-120.76431 251.30898,-121.050766 C250.77861,-121.36381 250.16818,-121.54945 249.49052,-121.591324 C248.91386,-121.62696 248.28844,-121.55754 247.63316,-121.376816 C246.97789,-121.19608 246.29279,-120.90339 245.60706,-120.507484 L218.88017,-105.076706 C218.6315,-104.933136 218.38304,-104.80988 218.1396,-104.708664 C217.89616,-104.607445 217.65773,-104.52817 217.42755,-104.47033 C216.96718,-104.35466 216.54082,-104.32505 216.15932,-104.36532 C215.76251,-104.407196 215.41241,-104.52372 215.10806,-104.69806 M205.18657,-109.51468 C208.43246,-108.22825 211.7572,-106.61726 215.10806,-104.69806 C214.7584,-104.89836 214.46907,-105.17474 214.23729,-105.51016 C214.0038,-105.84802 213.82883,-106.24583 213.71164,-106.69153 C213.59447,-107.13723 213.53511,-107.63092 213.53511,-108.16273 L213.53511,-114.33471 L256.32565,-139.03984 L256.32565,-80.40691 L253.6263,-78.848434 A18.897638,10.910556 180 0 1 248.38205,-86.39177 M248.57198,-84.848785 A18.897638,10.910556 0 0 0 248.38205,-83.30579 A18.897638,10.910556 0 0 0 253.91704,-75.590866 A18.897638,10.910556 0 0 0 286.1773,-83.30579 A18.897638,10.910556 0 0 0 256.32565,-92.19643 M256.32565,-92.43834 A15.118111,8.728445 180 0 1 277.69922,-92.74694 M280.34512,-103.79135 A37.795277,21.821112 180 0 1 293.97824,-98.75108 A37.795277,21.821112 180 0 1 305.04822,-83.32123 L305.04822,-21.601799 A37.795277,21.821112 180 0 1 229.83754,-18.515827 M248.38205,-2.6952615 L248.38205,10.057896 M253.6263,19.90068 C253.6263,20.330494 253.6003,20.768282 253.55122,21.207838 C253.50214,21.647394 253.43004,22.088766 253.33778,22.528296 C253.24554,22.967827 253.13318,23.405537 253.00284,23.839817 C252.8725,24.274097 252.72421,24.704948 252.55878,25.132635 C252.19804,26.065195 251.75705,26.980185 251.24287,27.863571 C250.7287,28.746956 250.14076,29.598444 249.49052,30.389458 C248.9141,31.090673 248.28859,31.743582 247.63322,32.319588 C246.97784,32.895596 246.29262,33.394043 245.60706,33.78985 M261.30814,52.863556 C260.78806,52.56153 260.36108,52.1482 260.02136,51.656612 C259.66013,51.133846 259.39734,50.52278 259.22433,49.851658 C259.05136,49.18053 258.9681,48.449303 258.9681,47.677776 M288.03342,37.433697 C287.51337,37.131676 287.0864,36.71834 286.74667,36.226753 C286.3854,35.70399 286.12262,35.092926 285.94965,34.4218 C285.77667,33.750675 285.69342,33.019444 285.69342,32.247917 M277.69922,15.262057 L256.32565,27.602085 L256.32565,-0.7125926 M253.6263,-1.2482835 L253.6263,19.90068 M256.32565,15.570654 A15.118111,8.728445 180 0 1 277.69922,15.262057 L277.69922,-0.6307182 M280.34512,-1.1316732 L280.34512,4.4745975 C280.34512,4.90395 280.37103,5.311776 280.4201,5.6948423 C280.46918,6.0779085 280.54132,6.436338 280.63364,6.7695885 C280.8182,7.43609 281.08206,8.001672 281.4124,8.474378 C281.77237,8.989419 282.2116,9.393922 282.72314,9.683196 C283.2384,9.974553 283.82758,10.148109 284.47995,10.18846 C285.05545,10.224055 285.68024,10.155013 286.33548,9.974456 C286.9907,9.793898 287.67636,9.501128 288.36267,9.104892 L317.76376,-7.869844 C318.00003,-8.0062475 318.23575,-8.179301 318.45746,-8.376108 C318.67914,-8.572915 318.88693,-8.793062 319.07452,-9.023264 C319.29138,-9.289408 319.48187,-9.569139 319.64532,-9.850582 C319.80875,-10.132027 319.94525,-10.415202 320.05627,-10.693266 C320.18552,-11.01695 320.28027,-11.333613 320.34296,-11.636507 C320.40567,-11.939401 320.4363,-12.228563 320.4363,-12.498827 L320.4363,-160.62416 C320.4363,-160.89442 320.40567,-161.14821 320.34296,-161.37871 C320.28027,-161.6092 320.18552,-161.81645 320.05627,-161.9909 C319.94623,-162.13942 319.8112,-162.26408 319.6497,-162.35657 C319.4853,-162.45073 319.29333,-162.51143 319.07452,-162.52728 C318.88693,-162.5409 318.67914,-162.5211 318.45746,-162.46191 C318.23575,-162.40271 318.00003,-162.30357 317.76376,-162.16718 L288.36435,-145.1934 C287.67865,-144.79753 286.9938,-144.29933 286.33865,-143.72356 C285.68347,-143.14778 285.05798,-142.49507 284.4809,-141.79303 C283.83334,-141.0053 283.24655,-140.15639 282.73215,-139.27332 C282.2177,-138.39023 281.77512,-137.47327 281.41263,-136.5362 C281.2475,-136.10927 281.0992,-135.67862 280.9688,-135.24423 C280.8384,-134.80984 280.72592,-134.3717 280.6336,-133.93173 C280.54126,-133.49176 280.46912,-133.04993 280.42004,-132.61026 C280.371,-132.1706 280.34512,-131.73305 280.34512,-131.30423 L280.34512,-94.27456 L277.69922,-92.74694 L277.69922,-151.37987 L347.1616,-191.484 M339.144,-196.11299 C339.144,-196.88452 339.22726,-197.71188 339.40024,-198.58275 C339.5732,-199.45361 339.836,-200.36812 340.19727,-201.30803 C340.5173,-202.14072 340.91473,-202.99321 341.39462,-203.844 C341.8745,-204.69476 342.4372,-205.54387 343.0803,-206.35434 C343.65912,-207.08377 344.30463,-207.78232 344.99557,-208.40512 C345.34106,-208.7165 345.6976,-209.00883 346.06042,-209.27641 C346.42328,-209.544 346.79242,-209.78677 347.1616,-209.99991 C347.53076,-210.21304 347.8999,-210.39655 348.26276,-210.54793 C348.62558,-210.69933 348.98212,-210.81868 349.3276,-210.9062 C349.6731,-210.99374 350.00754,-211.04948 350.3276,-211.07542 C350.6477,-211.10136 350.95346,-211.09753 351.2429,-211.067 C351.8392,-211.00406 352.3665,-210.82803 352.82254,-210.56628 M424.66495,-245.48854 L355.17917,-205.37091 C355.17917,-206.14244 355.09592,-206.87367 354.92294,-207.54478 C354.74997,-208.21591 354.48718,-208.82698 354.12592,-209.34975 C353.7826,-209.84656 353.35013,-210.26346 352.82254,-210.56628 C349.00674,-212.75583 345.1704,-214.69017 341.33096,-216.35306 C337.49152,-218.01595 333.649,-219.40736 329.82355,-220.51117 C325.9981,-221.61497 322.18976,-222.43115 318.4215,-222.94362 C314.65326,-223.45607 310.92508,-223.66481 307.2627,-223.5538 C304.93176,-223.48305 302.62805,-223.2834 300.36188,-222.95149 C298.09567,-222.61958 295.86703,-222.15541 293.687,-221.55824 C291.507,-220.96107 289.37558,-220.23094 287.3048,-219.36978 C285.23404,-218.50862 283.22385,-217.51645 281.2871,-216.39789 C279.03717,-215.0993 276.88547,-213.62968 274.848,-212.00284 C272.81052,-210.37599 270.88727,-208.5919 269.08923,-206.66553 M267.46014,-191.70233 C270.81183,-192.17868 274.30814,-192.30286 277.91577,-192.07378 C281.5234,-191.8447 285.2423,-191.26237 289.03723,-190.33228 C292.83212,-189.40219 296.703,-188.12431 300.61264,-186.51085 C304.52225,-184.89738 308.47064,-182.9483 312.4187,-180.68314 L301.72858,-174.5112 C301.72858,-175.28273 301.64532,-176.01395 301.47235,-176.68507 C301.29938,-177.3562 301.0366,-177.96727 300.67532,-178.49004 C300.332,-178.98685 299.89954,-179.40375 299.37195,-179.70657 C298.9159,-179.96832 298.3886,-180.14435 297.7923,-180.20728 C297.50287,-180.23782 297.1971,-180.24165 296.877,-180.21571 C296.55695,-180.18977 296.2225,-180.13402 295.877,-180.0465 C295.53152,-179.95897 295.175,-179.83961 294.81216,-179.68822 C294.4493,-179.53682 294.08017,-179.35333 293.711,-179.1402 C293.34183,-178.92706 292.9727,-178.68428 292.60983,-178.4167 C292.247,-178.14912 291.89047,-177.8568 291.54498,-177.5454 C290.85403,-176.9226 290.20853,-176.22406 289.6297,-175.49461 C288.9866,-174.68416 288.42392,-173.83505 287.94403,-172.98428 C287.46414,-172.1335 287.0667,-171.281 286.74667,-170.44832 C286.3854,-169.5084 286.12262,-168.5939 285.94965,-167.72304 C285.77667,-166.85217 285.69342,-166.02481 285.69342,-165.25328 M272.64667,-164.27672 C273.17426,-163.97389 273.60672,-163.55699 273.95004,-163.06018 C274.31128,-162.53741 274.57407,-161.92635 274.74707,-161.25522 C274.92004,-160.58409 275.0033,-159.85286 275.0033,-159.08134 L285.69342,-165.25328 C281.74536,-167.51845 277.79697,-169.46753 273.88733,-171.081 C269.9777,-172.69446 266.10684,-173.97234 262.31192,-174.90242 C258.51703,-175.83252 254.7981,-176.41484 251.19048,-176.64392 C247.58286,-176.873 244.08653,-176.74883 240.73486,-176.27248 M242.36394,-191.23567 C244.16196,-193.16205 246.0852,-194.94614 248.1227,-196.57298 C250.16017,-198.19983 252.31187,-199.66945 254.56181,-200.96803 C256.49857,-202.0866 258.50873,-203.07877 260.57953,-203.93993 C262.6503,-204.80109 264.78168,-205.53122 266.9617,-206.12839 C269.14172,-206.72554 271.3704,-207.18973 273.63657,-207.52164 C275.90274,-207.85355 278.20645,-208.05319 280.5374,-208.12395 C284.19977,-208.23495 287.92795,-208.02621 291.69623,-207.51376 C295.46448,-207.0013 299.2728,-206.18512 303.09824,-205.08131 C306.92368,-203.97751 310.76624,-202.58607 314.60568,-200.9232 C318.44513,-199.26031 322.28146,-197.32597 326.09726,-195.13643 M320.4363,-194.57005 C320.80545,-194.78319 321.17462,-194.96667 321.53745,-195.11807 C321.9003,-195.26947 322.25684,-195.38882 322.6023,-195.47635 C322.94778,-195.56387 323.28223,-195.61963 323.60233,-195.64557 C323.92242,-195.67151 324.22818,-195.66768 324.51758,-195.63715 C325.11392,-195.5742 325.6412,-195.39818 326.09726,-195.13643 M314.75873,22.003841 C314.23865,21.701817 313.81168,21.288486 313.47195,20.796898 C313.11072,20.274134 312.84793,19.663069 312.67493,18.991943 C312.50195,18.320818 312.4187,17.589588 312.4187,16.818062 M341.484,6.573985 C340.96396,6.2719607 340.537,5.858629 340.19727,5.367041 C339.836,4.844277 339.5732,4.233212 339.40024,3.5620863 C339.22726,2.8909612 339.144,2.1597316 339.144,1.3882049 M424.66495,-57.2453 A109.6063,63.281227 240 0 1 347.4293,-191.63855 M347.1616,-191.484 L347.1616,-12.498716 L213.53511,64.650566 M234.58284,68.29341 C234.06276,67.99139 233.63579,67.57806 233.29608,67.086464 C232.93481,66.563705 232.67203,65.95264 232.49905,65.28151 C232.32607,64.61039 232.24281,63.879158 232.24281,63.10763 M245.60706,33.78985 L218.88017,49.220627 C218.6315,49.3642 218.38304,49.52785 218.1396,49.707726 C217.89616,49.8876 217.65773,50.08364 217.42755,50.2916 C216.96718,50.70752 216.54082,51.17023 216.15932,51.651012 C215.73297,52.18831 215.36055,52.74944 215.04085,53.315155 C214.72115,53.88087 214.45406,54.451244 214.23729,55.01522 C214.0038,55.622692 213.82883,56.22253 213.71164,56.803547 C213.59447,57.384563 213.53511,57.94678 213.53511,58.478584 L213.53511,64.650566 A109.6063,63.281227 60 0 1 166.08934,18.289213 M229.45769,-61.500114 L229.45769,-83.32123 M258.9681,-149.82343 C255.02007,-152.0886 251.07167,-154.03767 247.16203,-155.65114 C243.2524,-157.2646 239.38152,-158.54248 235.58661,-159.47256 C231.79172,-160.40266 228.07278,-160.98499 224.46515,-161.21407 C220.85753,-161.44315 217.36122,-161.31895 214.00954,-160.8426 M215.63864,-175.80582 C217.43666,-177.7322 219.35992,-179.51628 221.3974,-181.14313 C223.43488,-182.76997 225.58658,-184.2396 227.83652,-185.53818 C229.77327,-186.65674 231.78345,-187.64891 233.85422,-188.51007 C235.925,-189.37123 238.05638,-190.10136 240.2364,-190.69853 C242.41643,-191.29568 244.6451,-191.75987 246.91127,-192.09178 C249.17746,-192.42369 251.48116,-192.62334 253.8121,-192.69409 C257.4745,-192.8051 261.20267,-192.59636 264.97092,-192.0839 C268.73917,-191.57144 272.54752,-190.75526 276.37296,-189.65146 C280.1984,-188.54765 284.04092,-187.15622 287.88037,-185.49335 C291.71982,-183.83046 295.55615,-181.89612 299.37195,-179.70657 M312.4187,-180.68314 C312.4187,-181.45467 312.50195,-182.28203 312.67493,-183.1529 C312.84793,-184.02376 313.11072,-184.93826 313.47195,-185.87817 C313.79202,-186.71086 314.18945,-187.56335 314.66934,-188.41414 C315.1492,-189.26491 315.7119,-190.11401 316.355,-190.92448 C316.9338,-191.65392 317.5793,-192.35246 318.2703,-192.97525 C318.61575,-193.28665 318.9723,-193.57898 319.33514,-193.84656 C319.69797,-194.11414 320.06714,-194.35692 320.4363,-194.57005 M326.09726,-195.13643 C326.62485,-194.8336 327.0573,-194.4167 327.40063,-193.91989 C327.76187,-193.39713 328.02466,-192.78606 328.19766,-192.11493 C328.37064,-191.4438 328.4539,-190.71259 328.4539,-189.94106 L339.144,-196.11299 C335.19595,-198.37816 331.24756,-200.32726 327.33792,-201.9407 C323.42828,-203.55417 319.55743,-204.83205 315.7625,-205.76213 C311.96762,-206.69223 308.2487,-207.27455 304.64105,-207.50363 C301.03345,-207.73271 297.53714,-207.60854 294.18546,-207.13219 M315.83008,-223.24863 L364.45975,-251.32498 A120.944885,69.82756 60 0 1 424.66495,-245.48854 L424.66495,-236.23058 L158.74826,-82.7035 L158.74826,-73.445526 L148.05814,-67.27358 L148.05814,-85.78952 L160.08452,-92.732956 L160.08452,-123.593155 L160.08452,-92.732956 L125.118706,-72.54543 A3.7795277,2.1821113 120 0 0 124.55887,-73.17042 A3.7795277,2.1821113 120 0 0 122.669106,-72.98322 L98.267715,-58.895073 M103.96809,-63.42057 L103.96809,-91.19431 L95.94344,-86.56128 L103.96809,-91.19431 L103.96809,-112.79611 L98.61968,-109.708206 L98.61968,-118.966125 A15.118111,8.728445 180 0 1 95.94344,-121.20591 M96.756714,-120.35288 A15.118111,8.728445 180 0 1 119.99323,-122.04824 L114.64484,-118.960335 L114.64484,-97.358536 L160.08452,-123.593155 L186.80981,-139.02301 L186.80981,-108.16281 L232.24281,-134.39357 C232.24281,-135.1651 232.32607,-135.99246 232.49905,-136.86333 C232.67203,-137.73419 232.93481,-138.6487 233.29608,-139.58861 C233.61612,-140.4213 234.01357,-141.27379 234.49344,-142.12457 C234.97331,-142.97534 235.53601,-143.82443 236.17912,-144.6349 C236.75793,-145.36435 237.40343,-146.06288 238.09439,-146.68568 C238.43988,-146.99709 238.7964,-147.28941 239.15924,-147.55699 C239.5221,-147.82457 239.89125,-148.06735 240.2604,-148.28049 C240.62958,-148.49362 240.99873,-148.67711 241.36157,-148.8285 C241.72441,-148.97989 242.08093,-149.09926 242.42642,-149.18678 C242.7719,-149.2743 243.10634,-149.33006 243.42644,-149.356 C243.74654,-149.38194 244.05229,-149.37811 244.34169,-149.34756 C244.93802,-149.28464 245.46532,-149.10861 245.92136,-148.84686 C242.07318,-151.05496 238.20418,-153.00351 234.33217,-154.67586 C230.46014,-156.34819 226.58513,-157.74431 222.72786,-158.84763 C218.87059,-159.95094 215.03105,-160.76146 211.23293,-161.26268 C207.43481,-161.7639 203.6781,-161.95581 199.98938,-161.82202 C197.69241,-161.73863 195.42244,-161.52956 193.18939,-161.19167 C190.95636,-160.85376 188.76025,-160.38702 186.61182,-159.79085 C184.46336,-159.19466 182.36258,-158.46904 180.32097,-157.6159 C178.27936,-156.76276 176.2969,-155.78212 174.38593,-154.67847 C172.03719,-153.32285 169.79553,-151.78084 167.67903,-150.06818 M179.12634,-143.45906 C182.86267,-144.74905 186.84991,-145.53133 191.03185,-145.795 C195.21378,-146.05867 199.59035,-145.8038 204.10065,-145.03403 C208.61096,-144.26424 213.25497,-142.97949 217.9677,-141.19763 C222.6804,-139.41576 227.4618,-137.13663 232.24281,-134.39357 M248.278,-143.65149 C248.278,-144.423 248.19475,-145.15424 248.02176,-145.82536 C247.84879,-146.49649 247.586,-147.10756 247.22473,-147.63033 C246.88141,-148.12714 246.44894,-148.54404 245.92136,-148.84686 M248.278,-143.65149 L258.9681,-149.82343 C258.9681,-150.59496 259.05136,-151.42232 259.22433,-152.29318 C259.39734,-153.16405 259.66013,-154.07855 260.02136,-155.01846 C260.34143,-155.85115 260.73886,-156.70364 261.21875,-157.55443 C261.6986,-158.4052 262.26132,-159.25429 262.90442,-160.06476 C263.48322,-160.7942 264.12872,-161.49274 264.8197,-162.11554 C265.16516,-162.42694 265.5217,-162.71927 265.88455,-162.98685 C266.24738,-163.25443 266.61655,-163.49721 266.98572,-163.71034 C267.35486,-163.92348 267.72403,-164.10696 268.08685,-164.25836 C268.4497,-164.40976 268.80624,-164.52911 269.1517,-164.61664 C269.4972,-164.70416 269.83163,-164.75992 270.15173,-164.78586 C270.47183,-164.8118 270.7776,-164.80797 271.067,-164.77742 C271.66333,-164.7145 272.1906,-164.53847 272.64667,-164.27672 C268.83087,-166.46626 264.99454,-168.4006 261.1551,-170.06349 C257.31564,-171.72636 253.4731,-173.1178 249.64766,-174.2216 C245.82222,-175.32541 242.01389,-176.14159 238.24562,-176.65404 C234.47737,-177.1665 230.74919,-177.37524 227.0868,-177.26424 C224.75586,-177.19348 222.45216,-176.99384 220.18597,-176.66193 C217.9198,-176.33002 215.69113,-175.86583 213.51111,-175.26868 C211.33109,-174.67151 209.1997,-173.94138 207.12892,-173.08022 C205.05815,-172.21906 203.04797,-171.22688 201.11122,-170.10832 C198.86128,-168.80974 196.70958,-167.34012 194.6721,-165.71327 C192.63461,-164.08641 190.71136,-162.30234 188.91335,-160.37595 M186.80981,-139.02301 L118.654366,-178.37257 M118.713425,-179.6342 A15.118111,8.728445 240 0 0 100.46425,-198.8988 L98.267715,-197.63063 M98.267715,-191.39127 A15.118111,8.728445 240 0 1 108.0233,-173.46225 A15.118111,8.728445 240 0 1 104.89224,-166.54152 L115.58236,-172.71347 A15.118111,8.728445 240 0 0 118.713425,-179.6342 M102.678246,-176.54822 A7.5590553,4.3642225 240 0 0 98.267715,-185.17152 M98.267715,-182.07231 L98.267715,-228.36188 A98.267715,56.734894 0 0 0 53.18267,-276.06982 M53.18267,-259.37552 L53.18267,-321.09494 A75.59055,43.642223 0 0 0 52.913387,-321.24808 M52.913387,-320.93945 L53.18267,-321.09494 M53.18267,-319.18433 A136.06299,78.55601 0 0 1 95.94344,-302.57928 L69.218,-287.14932 M95.94344,-240.62837 L95.94344,-302.57928 M69.218,-287.14932 A98.267715,56.734894 0 0 0 53.18267,-294.58566 M69.218,-287.14932 L69.218,-268.6335 M53.18267,-259.37552 L52.913387,-259.22003 M52.913387,-245.26443 A60.472443,34.91378 0 0 1 60.472443,-228.36188 A60.472443,34.91378 0 0 1 -42.76047,-203.6741 A60.472443,34.91378 0 0 1 -43.02689,-203.82889 M-37.681713,-206.91493 L-37.681713,-268.63437 L-53.717175,-259.37628 A75.59055,43.642223 0 0 1 -75.59055,-290.0813 L-75.59055,-228.36188 A75.59055,43.642223 0 0 0 -53.717175,-197.65685 L-53.717175,-259.37628 M-37.681713,-268.63437 A52.913387,30.549557 0 0 1 -52.913387,-290.0813 L-52.913387,-354.5781 A52.913387,30.549557 0 0 0 -37.415413,-332.97632 A52.913387,30.549557 0 0 0 52.913387,-354.5781 A52.913387,30.549557 0 1 0 -52.913387,-354.5781 M-52.913387,-321.24808 A75.59055,43.642223 0 0 0 -75.59055,-290.0813 M-75.59055,-283.12967 A98.267715,56.734894 0 0 0 -98.267715,-246.8777 A98.267715,56.734894 0 0 0 -69.75251,-206.91467 L-93.805786,-193.02751 L-106.901184,-200.58813 L-106.901184,-49.37554 L-93.805786,-41.81491 L-93.805786,-63.42443 A7.5590553,4.3642225 60 0 1 -98.88359,-72.520325 A7.5590553,4.3642225 60 0 1 -97.31806,-75.98069 A7.5590553,4.3642225 60 0 1 -93.805786,-75.75288 L-93.805786,-193.02751 M-106.901184,-200.58813 L-108.641235,-199.58351 A136.06299,78.55601 0 0 1 -136.06299,-246.8777 L-136.06299,-61.719425 A136.06299,78.55601 0 0 0 -96.47794,-6.3264556 L-96.47794,-40.27214 L-93.805786,-41.81491 M-96.47794,-40.27214 A136.06299,78.55601 0 0 1 -108.641235,-48.370922 L-108.641235,-199.58351 M-69.75251,-206.91467 L-69.75251,-89.640045 L-93.805786,-75.75288 M-93.805786,-63.42443 L-69.75251,-77.3116 C-69.92617,-77.422714 -70.087715,-77.5368 -70.23503,-77.64819 C-70.38235,-77.7596 -70.51578,-77.8683 -70.64128,-77.97616 C-70.895744,-78.19485 -71.11182,-78.40465 -71.308105,-78.6099 C-71.50439,-78.81515 -71.679794,-79.01546 -71.84264,-79.21399 C-72.052635,-79.46999 -72.24085,-79.72218 -72.4156,-79.97479 C-72.590355,-80.2274 -72.75132,-80.48026 -72.90233,-80.73623 C-73.05334,-80.9922 -73.194305,-81.25119 -73.32734,-81.516396 C-73.46038,-81.7816 -73.585464,-82.05289 -73.703835,-82.3353 C-73.83289,-82.643196 -73.953636,-82.963036 -74.06605,-83.30543 C-74.122246,-83.47663 -74.17632,-83.653496 -74.22795,-83.83824 C-74.27957,-84.02298 -74.32876,-84.21548 -74.37483,-84.419815 C-74.40718,-84.56328 -74.43742,-84.7099 -74.46576,-84.8648 C-74.494095,-85.0197 -74.52052,-85.182884 -74.54379,-85.35691 C-74.56707,-85.53093 -74.587166,-85.71582 -74.60165,-85.91133 C-74.616135,-86.10684 -74.62495,-86.31308 -74.62495,-86.52606 C-74.62495,-86.63151 -74.62277,-86.73325 -74.618774,-86.830505 M-74.14968,-87.10133 A90.708664,52.37067 0 0 0 -64.4074,-80.38988 L-64.4074,-92.73376 L-69.75251,-89.647766 L-69.75251,-142.10928 A98.267715,56.734894 0 0 0 -69.48577,-141.95468 A98.267715,56.734894 0 0 0 98.267715,-182.07231 M102.678246,-176.54822 A7.5590553,4.3642225 240 0 1 101.11272,-173.08786 L96.08699,-170.18626 M95.94344,-169.80582 L95.94344,-117.421 L98.61968,-118.966125 M102.014656,-115.72392 A7.5590553,4.3642225 180 0 1 114.64484,-118.960335 M119.99323,-122.04824 L119.99323,-131.30615 L122.668816,-132.85089 A173.85826,100.37712 0 0 0 95.94344,-145.42836 M95.94344,-160.62502 L160.08452,-123.593155 L95.94344,-160.62502 Z M95.94344,-168.19743 A15.118111,8.728445 240 0 0 104.89224,-166.54152 M122.668816,-132.85089 L122.668816,-101.99119 L114.64484,-97.358536 L114.64484,-69.58479 L103.96809,-63.42057 M103.96809,-69.2762 A7.5590553,4.3642225 180 0 1 114.64484,-69.58479 M123.721794,-73.341515 C124.181145,-73.082275 124.64803,-72.816216 125.118706,-72.54543 M129.39502,-75.014366 A98.267715,56.734894 240 0 1 148.05814,-67.27358 M136.35594,-72.83108 A109.6063,63.281227 60 0 0 148.30869,-14.648722 M127.8515,-2.837758 L235.72256,-65.11714 A37.795277,21.821112 180 0 0 246.41267,-58.9452 L246.41267,-28.08549 L128.50394,39.989155 M128.50394,45.980972 L128.50394,4.628957 A128.50394,74.19178 0 0 0 98.267715,-43.178707 M98.267715,-27.773743 L98.267715,-74.06331 A98.267715,56.734894 0 0 0 69.218,-114.33494 L69.218,-141.80067 L69.218,-114.33494 L61.200348,-109.70595 L61.200348,-137.68364 M56.692913,-135.73134 L56.692913,-79.92666 A56.692913,32.73167 0 0 1 -40.087944,-56.78187 A56.692913,32.73167 0 0 1 -43.02689,-58.613335 M-43.02689,-55.39367 A60.472443,34.91378 0 0 0 -42.76047,-55.238888 A60.472443,34.91378 0 0 0 60.472443,-79.92666 A60.472443,34.91378 0 0 0 56.692913,-92.07614 M60.472443,-79.92666 L60.472443,-74.06331 A60.472443,34.91378 0 0 1 -42.76047,-49.37554 A60.472443,34.91378 0 0 1 -43.02689,-49.530323 L-43.02689,-131.06502 M-48.372044,-132.68712 L-48.372044,-46.444298 L-43.02689,-49.530323 M-48.372044,-46.444298 A68.031494,39.278004 0 0 1 -61.73485,-57.559853 M-61.73485,-38.729275 L-69.75251,-34.10028 L-69.75251,-77.30388 L-64.4074,-80.38988 M-69.75251,-77.3116 L-69.75251,39.96303 L-96.47794,55.39297 L-96.47794,24.533258 L-96.47794,53.54139 L-102.014656,56.73801 M-104.502594,56.94003 A7.5590553,4.3642225 180 0 0 -115.17934,57.248627 M-115.17934,63.104256 L-115.17934,35.330513 L-133.89374,46.135273 L-133.89374,293.01297 L-107.168434,277.58313 L-5.345059,336.37088 L208.4573,212.93202 L208.4573,203.6741 L-5.345059,327.11298 L-5.345059,336.37088 M-5.345059,327.11298 L-133.89374,252.89536 M-115.18603,261.84467 A3.7795277,2.1821113 120 0 0 -114.40326,263.57486 A3.7795277,2.1821113 120 0 0 -112.5135,263.38766 L-80.442696,244.87157 A113.385826,65.46334 0 0 1 -113.385826,198.73656 A113.385826,65.46334 0 0 1 -89.40111,158.47165 M-88.33186,159.54414 A113.385826,65.46334 0 0 0 -113.37449,199.66234 M-80.44166,166.48729 A34.015747,19.639002 0 0 1 -87.59083,160.21335 M-82.84842,163.55649 A37.795277,21.821112 0 0 0 -18.327845,148.12662 L-18.327845,119.41428 M-18.327845,124.76253 L-9.989283,119.94826 M-18.327845,134.1341 A113.385826,65.46334 0 0 1 79.90819,152.29294 L122.669106,127.60491 A3.7795277,2.1821113 120 0 0 124.80744,125.135475 M109.12564,113.61365 A120.944885,69.82756 60 0 1 92.08842,97.727104 M124.80744,125.135475 C124.01697,124.67409 123.248024,124.20266 122.51078,123.73156 C121.77354,123.26046 121.06746,122.78962 120.392815,122.32509 C119.71817,121.86055 119.07475,121.4023 118.45828,120.9527 C117.841805,120.50309 117.25226,120.06215 116.6823,119.62854 C115.98046,119.094604 115.306786,118.570595 114.65108,118.05394 C113.99537,117.537285 113.35784,117.028076 112.73331,116.52613 C112.10877,116.02418 111.49732,115.52954 110.89653,115.0435 C110.29573,114.557465 109.705635,114.080055 109.12564,113.61365 M124.80744,125.135475 L160.08452,104.76824 L148.05814,111.71168 L148.05814,93.19574 L158.74826,87.023796 L158.74826,96.28178 L424.66495,-57.2453 L424.66495,-47.987335 L355.17917,-7.869709 C355.17917,-7.098182 355.09592,-6.2708225 354.92294,-5.399955 C354.74997,-4.529087 354.48718,-3.6145844 354.12592,-2.6746747 C353.80588,-1.8419889 353.40845,-0.98949045 352.92856,-0.13871257 C352.44867,0.71206534 351.886,1.5611602 351.2429,2.3716288 C350.66406,3.1010664 350.01855,3.7996092 349.3276,4.4224086 C348.98212,4.7338085 348.62558,5.0261364 348.26276,5.2937155 C347.8999,5.561295 347.53076,5.804067 347.1616,6.0172033 C346.79242,6.230339 346.42328,6.4138336 346.06042,6.5652256 C345.6976,6.716618 345.34106,6.8359766 344.99557,6.9235044 C344.6501,7.011032 344.31564,7.0667806 343.99557,7.0927205 C343.67548,7.1186604 343.36972,7.1148343 343.0803,7.0842905 C342.4767,7.0205874 341.94388,6.8410387 341.484,6.573985 C339.6497,5.508649 337.82077,4.38453 335.9997,3.203575 M339.144,1.3882049 L328.4539,7.560148 C328.4539,8.331675 328.37064,9.159034 328.19766,10.0299015 C328.02466,10.900769 327.76187,11.815272 327.40063,12.755181 C327.08057,13.587868 326.68314,14.440366 326.20325,15.291144 C325.7234,16.141922 325.16068,16.991016 324.51758,17.801485 C323.93878,18.530924 323.29327,19.229465 322.6023,19.852264 C322.25684,20.163666 321.9003,20.455994 321.53745,20.723572 C321.17462,20.991152 320.80545,21.233925 320.4363,21.44706 C320.06714,21.660196 319.69797,21.84369 319.33514,21.995083 C318.9723,22.146475 318.61575,22.265833 318.2703,22.353361 C317.9248,22.44089 317.59036,22.496637 317.27026,22.522577 C316.95016,22.548517 316.6444,22.544691 316.355,22.514147 C315.75143,22.450445 315.21857,22.270895 314.75873,22.003841 C312.92438,20.938505 311.09546,19.814386 309.27438,18.633432 M312.4187,16.818062 L301.72858,22.990004 C301.72858,23.761532 301.64532,24.58889 301.47235,25.459759 C301.29938,26.330626 301.0366,27.245129 300.67532,28.185038 C300.3553,29.017725 299.95786,29.870222 299.47797,30.721 C298.99808,31.57178 298.4354,32.42087 297.7923,33.231342 C297.21347,33.96078 296.56796,34.65932 295.877,35.282124 C295.53152,35.59352 295.175,35.88585 294.81216,36.153427 C294.4493,36.42101 294.08017,36.66378 293.711,36.876915 C293.34183,37.090054 292.9727,37.27355 292.60983,37.42494 C292.247,37.576332 291.89047,37.69569 291.54498,37.78322 C291.1995,37.870747 290.86505,37.926495 290.54498,37.952435 C290.22488,37.978374 289.91913,37.97455 289.6297,37.944004 C289.02612,37.880302 288.4933,37.700752 288.03342,37.433697 C286.1991,36.368362 284.37018,35.244244 282.5491,34.06329 M285.69342,32.247917 L275.0033,38.41986 C275.0033,39.191387 274.92004,40.01875 274.74707,40.889614 C274.57407,41.760483 274.31128,42.674984 273.95004,43.614895 C273.62997,44.447582 273.23254,45.30008 272.7527,46.150856 C272.2728,47.001637 271.71008,47.85073 271.067,48.661198 C270.4882,49.390636 269.84268,50.08918 269.1517,50.71198 C268.80624,51.023376 268.4497,51.315704 268.08685,51.583286 C267.72403,51.850864 267.35486,52.093636 266.98572,52.306774 C266.61655,52.51991 266.24738,52.703403 265.88455,52.854797 C265.5217,53.006187 265.16516,53.125546 264.8197,53.213074 C264.4742,53.300602 264.13977,53.35635 263.81967,53.38229 C263.49957,53.40823 263.19382,53.404404 262.90442,53.37386 C262.30084,53.310158 261.76797,53.130608 261.30814,52.863556 C259.4738,51.798218 257.6449,50.6741 255.8238,49.493145 M258.9681,47.677776 L248.278,53.849716 C248.278,54.621243 248.19475,55.448605 248.02176,56.319473 C247.84879,57.19034 247.586,58.104843 247.22473,59.04475 C246.9047,59.877438 246.50725,60.729935 246.02737,61.580715 C245.5475,62.43149 244.9848,63.280586 244.34169,64.09106 C243.76288,64.820496 243.11739,65.519035 242.42642,66.14184 C242.08093,66.45323 241.72441,66.74556 241.36157,67.013145 C240.99873,67.28072 240.62958,67.52349 240.2604,67.73663 C239.89125,67.94977 239.5221,68.13326 239.15924,68.28465 C238.7964,68.43604 238.43988,68.555405 238.09439,68.64293 C237.74892,68.73046 237.41447,68.78621 237.09438,68.81215 C236.77429,68.83809 236.46852,68.83426 236.17912,68.80372 C235.57553,68.74001 235.0427,68.56046 234.58284,68.29341 C232.74849,67.22807 230.91959,66.10396 229.09851,64.923004 M232.24281,63.10763 L186.80981,89.33839 L186.80981,107.8547 L160.08452,123.28455 L160.08452,104.76824 L160.08452,123.28455 L114.65152,149.5153 M99.685356,140.87459 L208.4573,203.6741 M259.23538,205.21709 L-8.017589,359.51566 L-128.54868,289.927 M-133.89374,293.01297 L-267.25296,216.01799 L-267.25296,-30.859713 L-133.89374,46.135273 M-123.20332,39.96316 A173.85826,100.37712 0 0 1 -173.85826,-30.859713 L-173.85826,-61.719425 A173.85826,100.37712 0 0 0 -123.20332,9.103448 L-120.52774,7.5587006 A15.118111,8.728445 180 0 1 -124.691826,1.5429857 L-124.691826,-1.5429857 A15.118111,8.728445 180 0 1 -121.51625,-6.895027 L-100.3037,5.3520417 A15.118111,8.728445 180 0 1 -120.26383,4.628957 A15.118111,8.728445 180 0 1 -124.691826,-1.5429857 M-118.84372,-5.3520417 L-118.84372,-8.438013 A15.118111,8.728445 180 0 1 -94.455605,-1.5429857 L-94.455605,10.8008995 A15.118111,8.728445 180 0 1 -120.26383,16.972843 A15.118111,8.728445 180 0 1 -120.52774,16.816614 L-120.52774,7.5587006 M-123.20332,9.103448 L-123.20332,39.96316 L-115.17934,35.330513 L-115.17934,18.907156 M-115.17934,29.474886 A7.5590553,4.3642225 180 0 1 -104.502594,29.166288 L-104.502594,56.94003 M-102.014656,60.17644 A7.5590553,4.3642225 180 0 1 -114.91877,63.262413 A7.5590553,4.3642225 180 0 1 -115.17934,63.104256 M-113.7181,63.826252 A3.7795277,2.1821113 120 0 0 -115.18603,67.428474 L-115.18603,261.84467 M-80.442696,246.72314 L-80.442696,244.87157 M-80.442696,246.72314 L79.90819,154.14453 L79.90819,152.29294 M79.90819,154.14453 A113.385826,65.46334 0 0 0 -18.327845,135.98567 M-40.387474,167.96658 A26.456694,15.274778 0 0 1 -71.85877,167.96658 M-78.84367,165.5647 L-80.44166,166.48729 L-80.44166,164.83083 M-82.84842,163.55649 A37.795277,21.821112 0 0 1 -93.918396,148.12662 L-93.918396,96.61889 M-90.866005,98.44248 A128.50394,74.19178 0 0 0 128.50394,45.980972 M126.489395,59.066513 A98.267715,56.734894 240 0 0 158.74826,87.023796 M148.05814,93.19574 A98.267715,56.734894 240 0 1 120.94517,71.05106 M112.37785,81.964676 A120.944885,69.82756 240 0 0 148.05814,111.71168 M138.70428,135.62843 L259.23538,205.21709 L259.23538,217.56097 L-8.017589,371.85956 L-8.017589,359.51566 M-8.017589,371.85956 L-248.54524,232.99083 L-248.54524,226.8189" />
    </g>
  </g>
</svg>