<?xml version="1.0" encoding="utf-8"?>
<!DOCTYPE svg PUBLIC "-//W3C//DTD SVG 1.1//EN" "http://www.w3.org/Graphics/SVG/1.1/DTD/svg11.dtd">
<svg width="203.0699mm" height="220.2862mm" viewBox="0, 0, 767.5085, 832.5778" version="1.1" xmlns:xlink="http://www.w3.org/1999/xlink" xmlns:xml="http://www.w3.org/XML/1998/namespace" xmlns:sodipodi="http://sodipodi.sourceforge.net/DTD/sodipodi-0.dtd" xmlns:inkscape="http://www.inkscape.org/namespaces/inkscape" xmlns="http://www.w3.org/2000/svg">
  <sodipodi:namedview inkscape:document-units="mm" />
  <g id="Drawing" transform="translate(305.0482,422.9229)">
    <g id="Outline" stroke-width="0.7559055" style="stroke:black;fill:none;">
      <path d="M-267.253,-30.85971 L-167.6094,-88.38895" />
      <path d="M-136.063,-124.2056 A173.8583,100.3771 0 0 0 -173.8583,-61.71943" />
      <path d="M-108.6412,-48.37092 L-106.9012,-49.37554" />
      <path d="M-61.73485,-38.72927 L-61.73485,-137.931" />
      <path d="M-37.68171,-206.9149 L-53.71717,-197.6568" />
      <path d="M-69.75251,-188.3988 A98.26772,56.73489 0 0 0 -69.48577,-188.2442 A98.26772,56.73489 0 0 0 98.26772,-228.3619" />
      <path d="M59.42158,-221.8813 A60.47244,34.91378 0 0 0 52.91339,-232.3034" />
      <path d="M37.14721,-250.1174 A52.91339,30.54956 0 0 0 -37.68171,-249.8088" />
      <path d="M-75.59055,-264.6138 A98.26772,56.73489 0 0 0 -96.95059,-237.6198" />
      <path d="M-136.063,-246.8777 A136.063,78.55601 0 0 1 -58.30771,-317.855" />
      <path d="M-52.91339,-290.0813 A52.91339,30.54956 0 0 1 37.14721,-311.8369" />
      <path d="M52.91339,-354.5781 L52.91339,-215.4008 A52.91339,30.54956 0 0 1 52.32561,-210.86" />
      <path d="M56.69291,-112.1097 A86.92913,50.18856 0 0 1 61.20035,-109.7059" />
      <path d="M119.9932,-131.3062 A15.11811,8.728445 180 0 0 95.94344,-128.7578" />
      <path d="M102.0147,-115.7239 A7.559055,4.364223 180 0 0 103.9681,-112.7961" />
      <path d="M103.9681,-97.04994 A7.559055,4.364223 180 0 1 114.6448,-97.35854 A7.559055,4.364223 180 0 0 103.9681,-97.04994 Z" />
      <path d="M95.94344,-86.3298 L95.94344,-86.56128 L95.94344,-86.3298 Z" />
      <path d="M98.26772,-74.06331 A98.26772,56.73489 0 0 1 -69.48577,-33.94569" />
      <path d="M-69.75251,-34.10028 A98.26772,56.73489 0 0 0 -69.48577,-33.94569" />
      <path d="M-90.866,98.44248 A128.5039,74.19178 0 0 1 -115.186,78.87191" />
      <path d="M-74.82629,42.89239 A22.67717,13.09267 0 0 0 -72.15829,44.74659 A22.67717,13.09267 0 0 0 -35.9552,41.47501" />
      <path d="M-35.9552,43.018 A75.59055,43.64222 0 0 0 75.25984,8.706848" />
      <path d="M98.26772,-27.77374 A98.26772,56.73489 0 0 1 -69.48577,12.34389" />
      <path d="M-69.75251,12.18929 A98.26772,56.73489 0 0 0 -69.48577,12.34389" />
      <path d="M-66.49177,14.00101 L-66.49177,23.84472" />
      <path d="M-69.75251,21.4468 A75.59055,43.64222 0 0 0 -67.57426,24.18785" />
      <path d="M-69.75251,25.02455 A22.67717,13.09267 0 0 1 -35.9552,29.50233" />
      <path d="M-35.9552,25.02704 L-35.9552,43.018 A22.67717,13.09267 0 0 1 -72.15829,46.28957 A22.67717,13.09267 0 0 1 -75.85369,43.48555" />
      <path d="M-115.1793,29.47489 A7.559055,4.364223 180 0 1 -104.5026,29.16629" />
      <path d="M-96.47794,24.53326 L-102.0147,27.72988 L-96.47794,24.53326 Z" />
      <path d="M-97.63117,9.672401 A15.11811,8.728445 180 0 1 -100.3037,11.21539" />
      <path d="M-118.8437,-8.438013 L-97.63117,3.809056" />
      <path d="M-96.47794,-6.326456 L-96.75243,-6.167985" />
      <path d="M-94.4556,-1.542986 A15.11811,8.728445 180 0 1 -97.63117,3.809056 L-97.63117,9.672401 L-100.3037,8.129416" />
      <path d="M-100.3037,5.352042 L-100.3037,11.21539" />
      <path d="M-102.0147,18.35995 L-102.0147,60.17644" />
      <path d="M-98.06364,54.45689 A136.063,78.55601 0 0 0 -96.47794,55.39297" />
      <path d="M-95.04138,54.56357 A128.5039,74.19178 0 0 0 -90.866,57.09047 A128.5039,74.19178 0 0 0 128.5039,4.628957" />
      <path d="M128.5039,9.129443 L246.4127,-58.9452" />
      <path d="M305.0482,-83.32123 A37.79528,21.82111 180 1 1 229.4577,-83.32123 A37.79528,21.82111 180 0 1 248.382,-102.2278" />
      <path d="M248.3674,-121.5353 C248.3771,-121.3984 248.3821,-121.26 248.382,-121.1218 L248.382,-86.39177" />
      <path d="M253.6263,-78.84843 L253.6263,-115.8781 C253.6263,-116.7375 253.5222,-117.5075 253.3375,-118.1737 C253.1528,-118.84 252.889,-119.4051 252.5588,-119.8774 C252.2131,-120.3719 251.7943,-120.7643 251.309,-121.0508 C250.7786,-121.3638 250.1682,-121.5495 249.4905,-121.5913 C248.9139,-121.627 248.2884,-121.5575 247.6332,-121.3768 C246.9779,-121.1961 246.2928,-120.9034 245.6071,-120.5075 L218.8802,-105.0767 C218.3828,-104.7896 217.8879,-104.586 217.4276,-104.4703 C216.9672,-104.3547 216.5408,-104.3251 216.1593,-104.3653 C215.7625,-104.4072 215.4124,-104.5237 215.1081,-104.6981" />
      <path d="M205.1866,-109.5147 C208.4325,-108.2282 211.7572,-106.6173 215.1081,-104.6981 C214.7584,-104.8984 214.4691,-105.1747 214.2373,-105.5102 C213.7703,-106.1859 213.5351,-107.0991 213.5351,-108.1627 L213.5351,-114.3347 L256.3257,-139.0398 L256.3257,-80.40691 L253.6263,-78.84843 A18.89764,10.91056 180 0 1 248.382,-86.39177" />
      <path d="M248.572,-84.84879 A18.89764,10.91056 0 0 0 248.382,-83.30579 A18.89764,10.91056 0 0 0 253.917,-75.59087 A18.89764,10.91056 0 0 0 286.1773,-83.30579 A18.89764,10.91056 0 0 0 256.3257,-92.19643" />
      <path d="M256.3257,-92.43834 A15.11811,8.728445 180 0 1 277.6992,-92.74694" />
      <path d="M280.3451,-103.7914 A37.79528,21.82111 180 0 1 293.9782,-98.75108 A37.79528,21.82111 180 0 1 305.0482,-83.32123 L305.0482,-21.6018 A37.79528,21.82111 180 0 1 229.8375,-18.51583" />
      <path d="M248.382,-2.695261 L248.382,10.0579" />
      <path d="M253.6263,19.90068 C253.6263,20.76031 253.5223,21.64924 253.3378,22.5283 C253.1533,23.40736 252.8896,24.27726 252.5588,25.13264 C252.198,26.0652 251.757,26.98018 251.2429,27.86357 C250.7287,28.74696 250.1408,29.59844 249.4905,30.38946 C248.3377,31.79189 246.9782,32.99824 245.6071,33.78985" />
      <path d="M261.3081,52.86356 C260.7881,52.56153 260.3611,52.1482 260.0214,51.65661 C259.2989,50.61108 258.9681,49.22083 258.9681,47.67778" />
      <path d="M288.0334,37.4337 C287.5134,37.13168 287.0864,36.71834 286.7467,36.22675 C286.0241,35.18122 285.6934,33.79097 285.6934,32.24792" />
      <path d="M277.6992,15.26206 L256.3257,27.60209 L256.3257,-0.7125926" />
      <path d="M253.6263,-1.248284 L253.6263,19.90068" />
      <path d="M256.3257,15.57065 A15.11811,8.728445 180 0 1 277.6992,15.26206 L277.6992,-0.6307182" />
      <path d="M280.3451,-1.131673 L280.3451,4.474597 C280.3451,5.333301 280.449,6.103087 280.6336,6.769588 C280.8182,7.43609 281.0821,8.001672 281.4124,8.474378 C281.7724,8.989419 282.2116,9.393922 282.7231,9.683196 C283.2384,9.974553 283.8276,10.14811 284.4799,10.18846 C285.0555,10.22406 285.6802,10.15501 286.3355,9.974456 C286.9907,9.793898 287.6764,9.501128 288.3627,9.104892 L317.7638,-7.869844 C318.2363,-8.142651 318.6994,-8.56286 319.0745,-9.023264 C319.5083,-9.555551 319.8342,-10.13714 320.0563,-10.69327 C320.3148,-11.34063 320.4363,-11.9583 320.4363,-12.49883 L320.4363,-160.6242 C320.4363,-161.1647 320.3148,-161.642 320.0563,-161.9909 C319.9462,-162.1394 319.8112,-162.2641 319.6497,-162.3566 C319.4853,-162.4507 319.2933,-162.5114 319.0745,-162.5273 C318.6994,-162.5545 318.2363,-162.44 317.7638,-162.1672 L288.3643,-145.1934 C286.993,-144.4017 285.6351,-143.1971 284.4809,-141.793 C283.1858,-140.2176 282.1376,-138.4103 281.4126,-136.5362 C281.0823,-135.6823 280.8183,-134.8117 280.6336,-133.9317 C280.4489,-133.0518 280.3451,-132.1618 280.3451,-131.3042 L280.3451,-94.27456 L277.6992,-92.74694 L277.6992,-151.3799 L347.1616,-191.484" />
      <path d="M339.144,-196.113 C339.144,-197.6561 339.4747,-199.4282 340.1973,-201.308 C340.5173,-202.1407 340.9147,-202.9932 341.3946,-203.844 C341.8745,-204.6948 342.4372,-205.5439 343.0803,-206.3543 C343.6591,-207.0838 344.3046,-207.7823 344.9956,-208.4051 C345.6866,-209.0279 346.4233,-209.5736 347.1616,-209.9999 C347.8999,-210.4262 348.6366,-210.7312 349.3276,-210.9062 C350.0186,-211.0813 350.6641,-211.1281 351.2429,-211.067 C351.8392,-211.0041 352.3665,-210.828 352.8225,-210.5663" />
      <path d="M424.6649,-245.4885 L355.1792,-205.3709 C355.1792,-206.914 354.8484,-208.3042 354.1259,-209.3497 C353.7826,-209.8466 353.3501,-210.2635 352.8225,-210.5663 C345.1909,-214.9454 337.4744,-218.3036 329.8235,-220.5112 C322.1727,-222.7188 314.5875,-223.7758 307.2627,-223.5538 C302.6008,-223.4123 298.0471,-222.7526 293.687,-221.5582 C289.327,-220.3639 285.1606,-218.635 281.2871,-216.3979 C276.7872,-213.8007 272.6853,-210.5183 269.0892,-206.6655" />
      <path d="M267.4601,-191.7023 C274.1635,-192.655 281.4474,-192.1925 289.0372,-190.3323 C296.627,-188.4721 304.5226,-185.2135 312.4187,-180.6831 L301.7286,-174.5112 C301.7286,-176.0542 301.3979,-177.4445 300.6753,-178.49 C300.332,-178.9868 299.8995,-179.4037 299.3719,-179.7066 C298.9159,-179.9683 298.3886,-180.1443 297.7923,-180.2073 C297.2135,-180.2684 296.568,-180.2216 295.877,-180.0465 C295.186,-179.8714 294.4493,-179.5665 293.711,-179.1402 C292.9727,-178.7139 292.236,-178.1682 291.545,-177.5454 C290.854,-176.9226 290.2085,-176.2241 289.6297,-175.4946 C288.9866,-174.6842 288.4239,-173.8351 287.944,-172.9843 C287.4641,-172.1335 287.0667,-171.281 286.7467,-170.4483 C286.0241,-168.5685 285.6934,-166.7963 285.6934,-165.2533" />
      <path d="M272.6467,-164.2767 C273.1743,-163.9739 273.6067,-163.557 273.95,-163.0602 C274.6725,-162.0146 275.0033,-160.6244 275.0033,-159.0813 L285.6934,-165.2533 C277.7973,-169.7836 269.9017,-173.0422 262.3119,-174.9024 C254.7221,-176.7626 247.4382,-177.2252 240.7349,-176.2725" />
      <path d="M242.3639,-191.2357 C245.96,-195.0884 250.0619,-198.3708 254.5618,-200.968 C258.4353,-203.2052 262.6017,-204.9341 266.9617,-206.1284 C271.3217,-207.3227 275.8755,-207.9824 280.5374,-208.1239 C287.8622,-208.346 295.4474,-207.2889 303.0982,-205.0813 C310.7491,-202.8737 318.4657,-199.5155 326.0973,-195.1364" />
      <path d="M320.4363,-194.5701 C321.1746,-194.9963 321.9113,-195.3013 322.6023,-195.4763 C323.2933,-195.6514 323.9388,-195.6982 324.5176,-195.6371 C325.1139,-195.5742 325.6412,-195.3982 326.0973,-195.1364" />
      <path d="M314.7587,22.00384 C314.2386,21.70182 313.8117,21.28849 313.472,20.7969 C312.7495,19.75137 312.4187,18.36111 312.4187,16.81806" />
      <path d="M341.484,6.573985 C340.964,6.271961 340.537,5.858629 340.1973,5.367041 C339.4747,4.321512 339.144,2.931258 339.144,1.388205" />
      <path d="M424.6649,-57.2453 A109.6063,63.28123 240 0 1 347.4293,-191.6385" />
      <path d="M347.1616,-191.484 L347.1616,-12.49872 L213.5351,64.65057" />
      <path d="M234.5828,68.29341 C234.0628,67.99139 233.6358,67.57806 233.2961,67.08646 C232.5736,66.04094 232.2428,64.65069 232.2428,63.10763" />
      <path d="M245.6071,33.78985 L218.8802,49.22063 C218.3828,49.50777 217.8879,49.87568 217.4276,50.2916 C216.9672,50.70752 216.5408,51.17023 216.1593,51.65101 C215.3066,52.72561 214.6708,53.88727 214.2373,55.01522 C213.7703,56.23016 213.5351,57.41497 213.5351,58.47858 L213.5351,64.65057 A109.6063,63.28123 60 0 1 166.0893,18.28921" />
      <path d="M229.4577,-61.50011 L229.4577,-83.32123" />
      <path d="M258.9681,-149.8234 C251.072,-154.3537 243.1764,-157.6124 235.5866,-159.4726 C227.9968,-161.3327 220.7129,-161.7953 214.0095,-160.8426" />
      <path d="M215.6386,-175.8058 C219.2347,-179.6586 223.3366,-182.941 227.8365,-185.5382 C231.71,-187.7753 235.8764,-189.5042 240.2364,-190.6985 C244.5965,-191.8929 249.1502,-192.5526 253.8121,-192.6941 C261.1369,-192.9161 268.7221,-191.8591 276.373,-189.6515 C284.0238,-187.4438 291.7404,-184.0857 299.3719,-179.7066" />
      <path d="M312.4187,-180.6831 C312.4187,-182.2262 312.7495,-183.9984 313.472,-185.8782 C313.792,-186.7109 314.1895,-187.5634 314.6693,-188.4141 C315.1492,-189.2649 315.7119,-190.114 316.355,-190.9245 C316.9338,-191.6539 317.5793,-192.3525 318.2703,-192.9753 C318.9612,-193.5981 319.698,-194.1438 320.4363,-194.5701" />
      <path d="M326.0973,-195.1364 C326.6248,-194.8336 327.0573,-194.4167 327.4006,-193.9199 C328.1231,-192.8744 328.4539,-191.4841 328.4539,-189.9411 L339.144,-196.113 C331.2479,-200.6433 323.3523,-203.902 315.7625,-205.7621 C308.1727,-207.6223 300.8888,-208.0849 294.1855,-207.1322" />
      <path d="M315.8301,-223.2486 L364.4597,-251.325 A120.9449,69.82756 60 0 1 424.6649,-245.4885 L424.6649,-236.2306 L158.7483,-82.7035 L158.7483,-73.44553 L148.0581,-67.27358 L148.0581,-85.78952 L160.0845,-92.73296 L160.0845,-123.5932 L160.0845,-92.73296 L125.1187,-72.54543 A3.779528,2.182111 120 0 0 124.5589,-73.17042 A3.779528,2.182111 120 0 0 122.6691,-72.98322 L98.26772,-58.89507" />
      <path d="M103.9681,-63.42057 L103.9681,-91.19431 L95.94344,-86.56128 L103.9681,-91.19431 L103.9681,-112.7961 L98.61968,-109.7082 L98.61968,-118.9661 A15.11811,8.728445 180 0 1 95.94344,-121.2059" />
      <path d="M96.75671,-120.3529 A15.11811,8.728445 180 0 1 119.9932,-122.0482 L114.6448,-118.9603 L114.6448,-97.35854 L160.0845,-123.5932 L186.8098,-139.023 L186.8098,-108.1628 L232.2428,-134.3936 C232.2428,-135.9366 232.5736,-137.7088 233.2961,-139.5886 C233.6161,-140.4213 234.0136,-141.2738 234.4934,-142.1246 C234.9733,-142.9753 235.536,-143.8244 236.1791,-144.6349 C236.7579,-145.3643 237.4034,-146.0629 238.0944,-146.6857 C238.7854,-147.3085 239.5221,-147.8542 240.2604,-148.2805 C240.9987,-148.7068 241.7355,-149.0117 242.4264,-149.1868 C243.1174,-149.3618 243.7629,-149.4087 244.3417,-149.3476 C244.938,-149.2846 245.4653,-149.1086 245.9214,-148.8469 C238.225,-153.2631 230.4424,-156.641 222.7279,-158.8476 C215.0133,-161.0543 207.3668,-162.0896 199.9894,-161.822 C195.3954,-161.6552 190.9087,-160.9832 186.6118,-159.7908 C182.3149,-158.5985 178.2079,-156.8858 174.3859,-154.6785 C172.0372,-153.3228 169.7955,-151.7808 167.679,-150.0682" />
      <path d="M179.1263,-143.4591 C182.8627,-144.7491 186.8499,-145.5313 191.0318,-145.795 C195.2138,-146.0587 199.5903,-145.8038 204.1006,-145.034 C208.611,-144.2642 213.255,-142.9795 217.9677,-141.1976 C222.6804,-139.4158 227.4618,-137.1366 232.2428,-134.3936" />
      <path d="M248.278,-143.6515 C248.278,-145.1945 247.9473,-146.5848 247.2247,-147.6303 C246.8814,-148.1271 246.4489,-148.544 245.9214,-148.8469" />
      <path d="M248.278,-143.6515 L258.9681,-149.8234 C258.9681,-151.3665 259.2989,-153.1386 260.0214,-155.0185 C260.3414,-155.8512 260.7389,-156.7036 261.2188,-157.5544 C261.6986,-158.4052 262.2613,-159.2543 262.9044,-160.0648 C263.4832,-160.7942 264.1287,-161.4927 264.8197,-162.1155 C265.5107,-162.7383 266.2474,-163.2841 266.9857,-163.7103 C267.724,-164.1366 268.4608,-164.4416 269.1517,-164.6166 C269.8427,-164.7917 270.4882,-164.8385 271.067,-164.7774 C271.6633,-164.7145 272.1906,-164.5385 272.6467,-164.2767 C265.0151,-168.6558 257.2985,-172.014 249.6477,-174.2216 C241.9968,-176.4292 234.4116,-177.4863 227.0868,-177.2642 C222.4249,-177.1227 217.8712,-176.463 213.5111,-175.2687 C209.1511,-174.0744 204.9847,-172.3454 201.1112,-170.1083 C196.6113,-167.5111 192.5094,-164.2287 188.9133,-160.3759" />
      <path d="M186.8098,-139.023 L118.6544,-178.3726" />
      <path d="M118.7134,-179.6342 A15.11811,8.728445 240 0 0 100.4642,-198.8988 L98.26772,-197.6306" />
      <path d="M98.26772,-191.3913 A15.11811,8.728445 240 0 1 108.0233,-173.4622 A15.11811,8.728445 240 0 1 104.8922,-166.5415 L115.5824,-172.7135 A15.11811,8.728445 240 0 0 118.7134,-179.6342" />
      <path d="M102.6782,-176.5482 A7.559055,4.364223 240 0 0 98.26772,-185.1715" />
      <path d="M98.26772,-182.0723 L98.26772,-228.3619 A98.26772,56.73489 0 0 0 53.18267,-276.0698" />
      <path d="M53.18267,-259.3755 L53.18267,-321.0949 A75.59055,43.64222 0 0 0 52.91339,-321.2481" />
      <path d="M52.91339,-320.9395 L53.18267,-321.0949" />
      <path d="M53.18267,-319.1843 A136.063,78.55601 0 0 1 95.94344,-302.5793 L69.218,-287.1493" />
      <path d="M95.94344,-240.6284 L95.94344,-302.5793" />
      <path d="M69.218,-287.1493 A98.26772,56.73489 0 0 0 53.18267,-294.5857" />
      <path d="M69.218,-287.1493 L69.218,-268.6335" />
      <path d="M53.18267,-259.3755 L52.91339,-259.22" />
      <path d="M52.91339,-245.2644 A60.47244,34.91378 0 0 1 60.47244,-228.3619 A60.47244,34.91378 0 0 1 -42.76047,-203.6741 A60.47244,34.91378 0 0 1 -43.02689,-203.8289" />
      <path d="M-37.68171,-206.9149 L-37.68171,-268.6344 L-53.71717,-259.3763 A75.59055,43.64222 0 0 1 -75.59055,-290.0813 L-75.59055,-228.3619 A75.59055,43.64222 0 0 0 -53.71717,-197.6568 L-53.71717,-259.3763" />
      <path d="M-37.68171,-268.6344 A52.91339,30.54956 0 0 1 -52.91339,-290.0813 L-52.91339,-354.5781 A52.91339,30.54956 0 0 0 -37.41541,-332.9763 A52.91339,30.54956 0 0 0 52.91339,-354.5781 A52.91339,30.54956 0 1 0 -52.91339,-354.5781" />
      <path d="M-52.91339,-321.2481 A75.59055,43.64222 0 0 0 -75.59055,-290.0813" />
      <path d="M-75.59055,-283.1297 A98.26772,56.73489 0 0 0 -98.26772,-246.8777 A98.26772,56.73489 0 0 0 -69.75251,-206.9147 L-93.80579,-193.0275 L-106.9012,-200.5881 L-106.9012,-49.37554 L-93.80579,-41.81491 L-93.80579,-63.42443 A7.559055,4.364223 60 0 1 -98.88359,-72.52032 A7.559055,4.364223 60 0 1 -97.31806,-75.98069 A7.559055,4.364223 60 0 1 -93.80579,-75.75288 L-93.80579,-193.0275" />
      <path d="M-106.9012,-200.5881 L-108.6412,-199.5835 A136.063,78.55601 0 0 1 -136.063,-246.8777 L-136.063,-61.71943 A136.063,78.55601 0 0 0 -96.47794,-6.326456 L-96.47794,-40.27214 L-93.80579,-41.81491" />
      <path d="M-96.47794,-40.27214 A136.063,78.55601 0 0 1 -108.6412,-48.37092 L-108.6412,-199.5835" />
      <path d="M-69.75251,-206.9147 L-69.75251,-89.64005 L-93.80579,-75.75288" />
      <path d="M-93.80579,-63.42443 L-69.75251,-77.3116 C-70.09984,-77.53384 -70.39027,-77.76044 -70.64128,-77.97616 C-71.15021,-78.41353 -71.51695,-78.81693 -71.84264,-79.21399 C-72.26263,-79.726 -72.60031,-80.2243 -72.90233,-80.73623 C-73.20435,-81.24817 -73.46709,-81.77048 -73.70383,-82.3353 C-73.83289,-82.6432 -73.95364,-82.96304 -74.06605,-83.30543 C-74.17845,-83.64783 -74.28268,-84.01114 -74.37483,-84.41982 C-74.43953,-84.70674 -74.49725,-85.00887 -74.54379,-85.35691 C-74.59034,-85.70496 -74.62495,-86.10009 -74.62495,-86.52606 C-74.62495,-86.63151 -74.62277,-86.73325 -74.61877,-86.83051" />
      <path d="M-74.14968,-87.10133 A90.70866,52.37067 0 0 0 -64.4074,-80.38988 L-64.4074,-92.73376 L-69.75251,-89.64777 L-69.75251,-142.1093 A98.26772,56.73489 0 0 0 -69.48577,-141.9547 A98.26772,56.73489 0 0 0 98.26772,-182.0723" />
      <path d="M102.6782,-176.5482 A7.559055,4.364223 240 0 1 101.1127,-173.0879 L96.08699,-170.1863" />
      <path d="M95.94344,-169.8058 L95.94344,-117.421 L98.61968,-118.9661" />
      <path d="M102.0147,-115.7239 A7.559055,4.364223 180 0 1 114.6448,-118.9603" />
      <path d="M119.9932,-122.0482 L119.9932,-131.3062 L122.6688,-132.8509 A173.8583,100.3771 0 0 0 95.94344,-145.4284" />
      <path d="M95.94344,-160.625 L160.0845,-123.5932 L95.94344,-160.625 Z" />
      <path d="M95.94344,-168.1974 A15.11811,8.728445 240 0 0 104.8922,-166.5415" />
      <path d="M122.6688,-132.8509 L122.6688,-101.9912 L114.6448,-97.35854 L114.6448,-69.58479 L103.9681,-63.42057" />
      <path d="M103.9681,-69.2762 A7.559055,4.364223 180 0 1 114.6448,-69.58479" />
      <path d="M123.7218,-73.34151 C124.1811,-73.08228 124.648,-72.81622 125.1187,-72.54543" />
      <path d="M129.395,-75.01437 A98.26772,56.73489 240 0 1 148.0581,-67.27358" />
      <path d="M136.3559,-72.83108 A109.6063,63.28123 60 0 0 148.3087,-14.64872" />
      <path d="M127.8515,-2.837758 L235.7226,-65.11714 A37.79528,21.82111 180 0 0 246.4127,-58.9452 L246.4127,-28.08549 L128.5039,39.98915" />
      <path d="M128.5039,45.98097 L128.5039,4.628957 A128.5039,74.19178 0 0 0 98.26772,-43.17871" />
      <path d="M98.26772,-27.77374 L98.26772,-74.06331 A98.26772,56.73489 0 0 0 69.218,-114.3349 L69.218,-141.8007 L69.218,-114.3349 L61.20035,-109.7059 L61.20035,-137.6836" />
      <path d="M56.69291,-135.7313 L56.69291,-79.92666 A56.69291,32.73167 0 0 1 -40.08794,-56.78187 A56.69291,32.73167 0 0 1 -43.02689,-58.61333" />
      <path d="M-43.02689,-55.39367 A60.47244,34.91378 0 0 0 -42.76047,-55.23889 A60.47244,34.91378 0 0 0 60.47244,-79.92666 A60.47244,34.91378 0 0 0 56.69291,-92.07614" />
      <path d="M60.47244,-79.92666 L60.47244,-74.06331 A60.47244,34.91378 0 0 1 -42.76047,-49.37554 A60.47244,34.91378 0 0 1 -43.02689,-49.53032 L-43.02689,-131.065" />
      <path d="M-48.37204,-132.6871 L-48.37204,-46.4443 L-43.02689,-49.53032" />
      <path d="M-48.37204,-46.4443 A68.03149,39.278 0 0 1 -61.73485,-57.55985" />
      <path d="M-61.73485,-38.72927 L-69.75251,-34.10028 L-69.75251,-77.30388 L-64.4074,-80.38988" />
      <path d="M-69.75251,-77.3116 L-69.75251,39.96303 L-96.47794,55.39297 L-96.47794,24.53326 L-96.47794,53.54139 L-102.0147,56.73801" />
      <path d="M-104.5026,56.94003 A7.559055,4.364223 180 0 0 -115.1793,57.24863" />
      <path d="M-115.1793,63.10426 L-115.1793,35.33051 L-133.8937,46.13527 L-133.8937,293.013 L-107.1684,277.5831 L-5.345059,336.3709 L208.4573,212.932 L208.4573,203.6741 L-5.345059,327.113 L-5.345059,336.3709" />
      <path d="M-5.345059,327.113 L-133.8937,252.8954" />
      <path d="M-115.186,261.8447 A3.779528,2.182111 120 0 0 -114.4033,263.5749 A3.779528,2.182111 120 0 0 -112.5135,263.3877 L-80.4427,244.8716 A113.3858,65.46334 0 0 1 -113.3858,198.7366 A113.3858,65.46334 0 0 1 -89.40111,158.4716" />
      <path d="M-88.33186,159.5441 A113.3858,65.46334 0 0 0 -113.3745,199.6623" />
      <path d="M-80.44166,166.4873 A34.01575,19.639 0 0 1 -87.59083,160.2133" />
      <path d="M-82.84842,163.5565 A37.79528,21.82111 0 0 0 -18.32784,148.1266 L-18.32784,119.4143" />
      <path d="M-18.32784,124.7625 L-9.989283,119.9483" />
      <path d="M-18.32784,134.1341 A113.3858,65.46334 0 0 1 79.90819,152.2929 L122.6691,127.6049 A3.779528,2.182111 120 0 0 124.8074,125.1355" />
      <path d="M109.1256,113.6136 A120.9449,69.82756 60 0 1 92.08842,97.7271" />
      <path d="M124.8074,125.1355 C123.2265,124.2127 121.7421,123.2542 120.3928,122.3251 C119.0435,121.396 117.8222,120.4958 116.6823,119.6285 C115.2786,118.5607 113.9824,117.53 112.7333,116.5261 C111.4842,115.5222 110.2856,114.5465 109.1256,113.6136" />
      <path d="M124.8074,125.1355 L160.0845,104.7682 L148.0581,111.7117 L148.0581,93.19574 L158.7483,87.0238 L158.7483,96.28178 L424.6649,-57.2453 L424.6649,-47.98734 L355.1792,-7.869709 C355.1792,-6.326655 354.8484,-4.554494 354.1259,-2.674675 C353.8059,-1.841989 353.4084,-0.9894904 352.9286,-0.1387126 C352.4487,0.7120653 351.886,1.56116 351.2429,2.371629 C350.6641,3.101066 350.0186,3.799609 349.3276,4.422409 C348.6366,5.045208 347.8999,5.590931 347.1616,6.017203 C346.4233,6.443475 345.6866,6.748449 344.9956,6.923504 C344.3046,7.09856 343.6591,7.145378 343.0803,7.084291 C342.4767,7.020587 341.9439,6.841039 341.484,6.573985 C339.6497,5.508649 337.8208,4.38453 335.9997,3.203575" />
      <path d="M339.144,1.388205 L328.4539,7.560148 C328.4539,9.103201 328.1231,10.87536 327.4006,12.75518 C327.0806,13.58787 326.6831,14.44037 326.2032,15.29114 C325.7234,16.14192 325.1607,16.99102 324.5176,17.80149 C323.9388,18.53092 323.2933,19.22947 322.6023,19.85226 C321.9113,20.47507 321.1746,21.02079 320.4363,21.44706 C319.698,21.87333 318.9612,22.1783 318.2703,22.35336 C317.5793,22.52842 316.9338,22.57524 316.355,22.51415 C315.7514,22.45045 315.2186,22.2709 314.7587,22.00384 C312.9244,20.93851 311.0955,19.81439 309.2744,18.63343" />
      <path d="M312.4187,16.81806 L301.7286,22.99 C301.7286,24.53306 301.3979,26.30522 300.6753,28.18504 C300.3553,29.01772 299.9579,29.87022 299.478,30.721 C298.9981,31.57178 298.4354,32.42087 297.7923,33.23134 C297.2135,33.96078 296.568,34.65932 295.877,35.28212 C295.186,35.90492 294.4493,36.45065 293.711,36.87691 C292.9727,37.30319 292.236,37.60816 291.545,37.78322 C290.854,37.95827 290.2085,38.00509 289.6297,37.944 C289.0261,37.8803 288.4933,37.70075 288.0334,37.4337 C286.1991,36.36836 284.3702,35.24424 282.5491,34.06329" />
      <path d="M285.6934,32.24792 L275.0033,38.41986 C275.0033,39.96291 274.6725,41.73508 273.95,43.61489 C273.63,44.44758 273.2325,45.30008 272.7527,46.15086 C272.2728,47.00164 271.7101,47.85073 271.067,48.6612 C270.4882,49.39064 269.8427,50.08918 269.1517,50.71198 C268.4608,51.33478 267.724,51.8805 266.9857,52.30677 C266.2474,52.73304 265.5107,53.03802 264.8197,53.21307 C264.1287,53.38813 263.4832,53.43495 262.9044,53.37386 C262.3008,53.31016 261.768,53.13061 261.3081,52.86356 C259.4738,51.79822 257.6449,50.6741 255.8238,49.49314" />
      <path d="M258.9681,47.67778 L248.278,53.84972 C248.278,55.39277 247.9473,57.16493 247.2247,59.04475 C246.9047,59.87744 246.5072,60.72993 246.0274,61.58072 C245.5475,62.43149 244.9848,63.28059 244.3417,64.09106 C243.7629,64.8205 243.1174,65.51904 242.4264,66.14184 C241.7355,66.76463 240.9987,67.31036 240.2604,67.73663 C239.5221,68.1629 238.7854,68.46787 238.0944,68.64293 C237.4034,68.81799 236.7579,68.86481 236.1791,68.80372 C235.5755,68.74001 235.0427,68.56046 234.5828,68.29341 C232.7485,67.22807 230.9196,66.10396 229.0985,64.923" />
      <path d="M232.2428,63.10763 L186.8098,89.33839 L186.8098,107.8547 L160.0845,123.2846 L160.0845,104.7682 L160.0845,123.2846 L114.6515,149.5153" />
      <path d="M99.68536,140.8746 L208.4573,203.6741" />
      <path d="M259.2354,205.2171 L-8.017589,359.5157 L-128.5487,289.927" />
      <path d="M-133.8937,293.013 L-267.253,216.018 L-267.253,-30.85971 L-133.8937,46.13527" />
      <path d="M-123.2033,39.96316 A173.8583,100.3771 0 0 1 -173.8583,-30.85971 L-173.8583,-61.71943 A173.8583,100.3771 0 0 0 -123.2033,9.103448 L-120.5277,7.558701 A15.11811,8.728445 180 0 1 -124.6918,1.542986 L-124.6918,-1.542986 A15.11811,8.728445 180 0 1 -121.5163,-6.895027 L-100.3037,5.352042 A15.11811,8.728445 180 0 1 -120.2638,4.628957 A15.11811,8.728445 180 0 1 -124.6918,-1.542986" />
      <path d="M-118.8437,-5.352042 L-118.8437,-8.438013 A15.11811,8.728445 180 0 1 -94.4556,-1.542986 L-94.4556,10.8009 A15.11811,8.728445 180 0 1 -120.2638,16.97284 A15.11811,8.728445 180 0 1 -120.5277,16.81661 L-120.5277,7.558701" />
      <path d="M-123.2033,9.103448 L-123.2033,39.96316 L-115.1793,35.33051 L-115.1793,18.90716" />
      <path d="M-115.1793,29.47489 A7.559055,4.364223 180 0 1 -104.5026,29.16629 L-104.5026,56.94003" />
      <path d="M-102.0147,60.17644 A7.559055,4.364223 180 0 1 -114.9188,63.26241 A7.559055,4.364223 180 0 1 -115.1793,63.10426" />
      <path d="M-113.7181,63.82625 A3.779528,2.182111 120 0 0 -115.186,67.42847 L-115.186,261.8447" />
      <path d="M-80.4427,246.7231 L-80.4427,244.8716" />
      <path d="M-80.4427,246.7231 L79.90819,154.1445 L79.90819,152.2929" />
      <path d="M79.90819,154.1445 A113.3858,65.46334 0 0 0 -18.32784,135.9857" />
      <path d="M-40.38747,167.9666 A26.45669,15.27478 0 0 1 -71.85877,167.9666" />
      <path d="M-78.84367,165.5647 L-80.44166,166.4873 L-80.44166,164.8308" />
      <path d="M-82.84842,163.5565 A37.79528,21.82111 0 0 1 -93.9184,148.1266 L-93.9184,96.61889" />
      <path d="M-90.866,98.44248 A128.5039,74.19178 0 0 0 128.5039,45.98097" />
      <path d="M126.4894,59.06651 A98.26772,56.73489 240 0 0 158.7483,87.0238" />
      <path d="M148.0581,93.19574 A98.26772,56.73489 240 0 1 120.9452,71.05106" />
      <path d="M112.3779,81.96468 A120.9449,69.82756 240 0 0 148.0581,111.7117" />
      <path d="M138.7043,135.6284 L259.2354,205.2171 L259.2354,217.561 L-8.017589,371.8596 L-8.017589,359.5157" />
      <path d="M-8.017589,371.8596 L-248.5452,232.9908 L-248.5452,226.8189" />
    </g>
    <g id="Inline" stroke-width="0.3779528" style="stroke:black;fill:none;">
      <path d="M248.382,-121.1218 C248.382,-121.0738 248.3837,-121.0257 248.387,-120.9776 C248.4153,-120.5697 248.5582,-120.1612 248.8488,-119.7106 C249.1104,-119.3051 249.4884,-118.8657 250.0869,-118.3372 C250.3012,-118.148 250.5447,-117.947 250.8294,-117.7284 C251.1141,-117.5099 251.4377,-117.2753 251.8265,-117.0114 C252.0662,-116.8486 252.3318,-116.6741 252.631,-116.4849 C252.9302,-116.2957 253.2637,-116.0917 253.6263,-115.8781" />
      <path d="M317.6936,-162.1267 A90.70866,52.37067 60 0 1 320.4363,-160.6242" />
      <path d="M207.953,-111.1119 A102.0472,58.917 60 0 1 213.5351,-108.1627" />
      <path d="M141.7388,-70.56138 A102.0472,58.917 60 0 0 152.1899,-16.88956" />
      <path d="M86.76874,100.7059 L109.1256,113.6136" />
      <path d="M-93.9184,126.4355 L-115.186,138.7144" />
      <path d="M-115.186,261.8447 L-112.5135,263.3877" />
      <path d="M-115.186,144.8864 L-93.9184,132.6075" />
      <path d="M122.6691,127.6049 L81.02942,103.5642" />
      <path d="M169.8994,16.08947 A102.0472,58.917 60 0 0 213.5351,58.47858" />
      <path d="M245.6071,33.78985 C244.1156,32.90312 242.7891,31.90754 241.6584,30.87895 C240.2671,29.61329 239.162,28.30341 238.2626,26.97641 C237.2406,25.46837 236.4876,23.94424 235.9423,22.39787 C235.3536,20.72833 235.0083,19.03722 234.9102,17.30063 C234.8133,15.58346 234.9505,13.82668 235.4499,11.9751 C235.649,11.23703 235.9073,10.48399 236.2501,9.707756 C236.5929,8.931523 237.0181,8.132835 237.5798,7.301027 C238.2429,6.318986 239.0843,5.286607 240.3311,4.207696 C240.8475,3.760766 241.447,3.300288 242.1157,2.861339 C242.7844,2.42239 243.526,2.00649 244.2478,1.659661 C244.9817,1.307079 245.7002,1.018137 246.3908,0.777482 C247.0813,0.536827 247.7439,0.3440709 248.382,0.1841597" />
      <path d="M305.0482,-23.62248 A90.70866,52.37067 60 0 0 320.4363,-12.49883" />
      <path d="M317.7638,-7.869844 A94.48819,54.55278 60 0 1 304.3022,-17.28756" />
      <path d="M280.3682,5.163167 C281.2228,5.527583 282.0795,5.911981 282.8911,6.290237 C283.8439,6.73436 284.7455,7.173057 285.6458,7.634985 C286.546,8.096914 287.44,8.579714 288.3627,9.104892" />
      <path d="M248.382,10.05792 C248.382,11.06013 248.4971,12.03799 248.7261,12.99499 C248.9637,13.98784 249.3253,14.96248 249.8405,15.90355 C250.2938,16.73165 250.872,17.54214 251.6124,18.2955 C252.1827,18.87584 252.8609,19.42776 253.6263,19.90068" />
      <path d="M218.8802,49.22063 A94.48819,54.55278 60 0 1 179.0595,10.8009" />
      <path d="M161.4333,-22.22621 A94.48819,54.55278 60 0 1 152.4019,-69.78145" />
    </g>
    <g id="HiddenOutline" stroke-width="0.3779528" stroke-dasharray="2 0.5" style="stroke:black;fill:none;">
      <path d="M370.1291,-241.5055 A109.6063,63.28123 240 0 1 424.6649,-236.2306" />
      <path d="M424.6649,-47.98734 A120.9449,69.82756 60 0 1 364.4597,-251.325" />
      <path d="M89.77413,-192.7269 A15.11811,8.728445 240 0 1 98.26772,-191.3913" />
      <path d="M93.55366,-186.1805 A7.559055,4.364223 240 1 0 101.1127,-173.0879" />
      <path d="M70.37862,-155.3435 A7.559055,4.364223 240 0 0 71.94415,-158.8039 A7.559055,4.364223 240 0 0 62.81957,-168.4362" />
      <path d="M-52.91339,-321.2481 A75.59055,43.64222 0 0 1 52.91339,-321.2481" />
      <path d="M37.14721,-311.8369 L52.91339,-320.9395" />
      <path d="M53.18267,-319.1843 A136.063,78.55601 0 0 0 -58.30771,-317.855" />
      <path d="M-37.68171,-249.8088 A52.91339,30.54956 0 0 0 -52.91339,-228.3619" />
      <path d="M-98.26772,-228.3619 A98.26772,56.73489 0 0 0 -69.75251,-188.3988" />
      <path d="M-98.26772,-182.0723 A98.26772,56.73489 0 1 1 98.26772,-182.0723" />
      <path d="M98.26772,-185.1715 A7.559055,4.364223 240 0 0 93.55366,-186.1805 L62.81957,-168.4362 A7.559055,4.364223 240 1 0 70.37862,-155.3435 L96.08699,-170.1863" />
      <path d="M148.0581,-85.78952 A120.9449,69.82756 240 0 0 87.85295,-91.62596" />
      <path d="M5.345059,95.66511 L5.345059,86.4072" />
      <path d="M-69.75251,21.4468 A75.59055,43.64222 0 0 1 -75.59055,4.628957" />
      <path d="M-63.88498,0.04202417 A72.75591,42.00564 0 0 0 -51.44619,9.643661 A72.75591,42.00564 0 0 0 -34.81567,16.8252" />
      <path d="M-33.44596,12.34389 A22.67717,13.09267 0 0 0 -63.88498,0.04202417 C-64.71977,1.652224 -65.53347,3.297664 -66.32329,4.970794" />
      <path d="M-66.49177,5.020291 A75.59055,43.64222 0 0 1 -75.59055,-15.73845" />
      <path d="M-60.47244,-74.06331 A60.47244,34.91378 0 0 0 -43.02689,-49.53032 A60.47244,34.91378 0 0 1 -60.47244,-74.06331 Z" />
      <path d="M-56.69291,-79.92666 A56.69291,32.73167 0 0 0 -43.02689,-58.61333" />
      <path d="M-43.02689,-55.39367 A60.47244,34.91378 0 0 1 -60.47244,-79.92666" />
      <path d="M-90.70866,-117.2669 A90.70866,52.37067 0 0 0 -74.14968,-87.10133" />
      <path d="M-74.61877,-86.83051 C-74.60714,-87.11334 -74.58037,-87.35649 -74.54712,-87.56535 C-74.51387,-87.77421 -74.47443,-87.94987 -74.43046,-88.11002 C-74.31042,-88.54723 -74.1641,-88.8503 -74.00338,-89.10316 C-73.7604,-89.4854 -73.48311,-89.74181 -73.16243,-89.92695" />
      <path d="M-69.75251,-89.64005 C-70.09055,-89.8171 -70.37688,-89.93359 -70.62329,-90.01707 C-70.86971,-90.10055 -71.07652,-90.1515 -71.26972,-90.18669 C-71.80192,-90.28366 -72.19396,-90.25655 -72.54244,-90.17276 C-72.76962,-90.11813 -72.97364,-90.03595 -73.16243,-89.92695 L-97.31806,-75.98069" />
      <path d="M-86.92913,-74.06331 A86.92913,50.18856 0 0 1 56.69291,-112.1097" />
      <path d="M69.218,-114.3349 A98.26772,56.73489 0 0 0 -98.26772,-74.06331" />
      <path d="M-136.063,-30.85971 A136.063,78.55601 0 0 1 95.94344,-86.56128 A136.063,78.55601 0 0 0 -136.063,-30.85971 Z" />
      <path d="M-118.8437,-2.574667 L-118.8437,-5.352042" />
      <path d="M-121.5163,-6.895027 L-121.5163,-1.031682" />
      <path d="M-115.1793,29.47489 A7.559055,4.364223 180 0 0 -117.1328,32.4027 A7.559055,4.364223 180 0 0 -115.1793,35.33051 A7.559055,4.364223 180 0 1 -117.1328,32.4027 A7.559055,4.364223 180 0 1 -115.1793,29.47489 Z" />
      <path d="M-115.1793,13.72871 L-115.1793,18.90716" />
      <path d="M-120.5277,16.81661 A15.11811,8.728445 180 0 1 -124.6918,10.8009 A15.11811,8.728445 180 0 0 -120.5277,16.81661 L-115.1793,13.72871 A7.559055,4.364223 180 0 1 -117.1328,10.8009 A7.559055,4.364223 180 0 1 -104.5026,7.56449" />
      <path d="M-99.15419,-4.781326 A15.11811,8.728445 180 0 0 -124.6918,1.542986 L-124.6918,10.8009 A15.11811,8.728445 180 0 1 -99.15419,4.476587" />
      <path d="M-98.26772,1.946148E-13 A98.26772,56.73489 0 0 0 -69.75251,39.96303" />
      <path d="M-74.82629,42.89239 A22.67717,13.09267 0 0 1 -78.80029,35.48867" />
      <path d="M-78.80029,37.03165 A22.67717,13.09267 0 0 0 -75.85369,43.48555" />
      <path d="M-72.15829,87.64159 A22.67717,13.09267 0 0 1 -78.80029,78.38367" />
      <path d="M-78.80029,78.53797 L-78.80029,35.48867 A22.67717,13.09267 0 0 1 -69.75251,25.02455" />
      <path d="M-66.49177,25.3877 L-66.49177,23.84472" />
      <path d="M-67.57426,24.18785 A75.59055,43.64222 0 0 0 -66.49177,25.3877 A22.67717,13.09267 0 0 0 -78.80029,37.03165 L-78.80029,78.38367 A22.67717,13.09267 0 1 1 -33.44596,78.38367" />
      <path d="M-24.29999,95.75706 C-24.31881,95.74126 -24.32788,95.73201 -24.32788,95.73201 C-24.32794,95.73198 -24.28989,95.77261 -24.23633,95.8511 C-24.21067,95.88869 -24.18156,95.93445 -24.15115,95.98648 C-24.11749,96.04408 -24.08224,96.10932 -24.04733,96.17971 C-23.96076,96.35428 -23.87737,96.55946 -23.80897,96.76876 C-23.75712,96.92751 -23.71344,97.08931 -23.68027,97.24239 C-23.65019,97.38124 -23.62886,97.51314 -23.61652,97.62281 C-23.60512,97.72411 -23.60166,97.80595 -23.60167,97.85152 L-23.60167,128.7112" />
      <path d="M-18.32784,124.7625 L-21.87024,126.8077" />
      <path d="M-22.31314,127.0634 C-22.34034,127.0795 -22.44917,127.1439 -22.55649,127.2214 C-22.66382,127.2988 -22.77004,127.3867 -22.87315,127.4853 C-23.02569,127.6318 -23.15891,127.7926 -23.26603,127.9531 C-23.42553,128.1923 -23.5257,128.4361 -23.5695,128.5949 C-23.59673,128.6932 -23.60288,128.7558 -23.60289,128.7558 C-23.60289,128.7558 -23.60166,128.7411 -23.60167,128.7112" />
      <path d="M-32.56035,120.6358 L235.7226,-34.25743" />
      <path d="M305.0482,-21.6018 A37.79528,21.82111 180 0 0 293.9782,-37.03165 A37.79528,21.82111 180 0 0 229.4577,-21.6018" />
      <path d="M253.917,-13.87144 A18.89764,10.91056 0 0 1 248.382,-21.58637 A18.89764,10.91056 0 1 1 286.1773,-21.58637" />
      <path d="M280.3451,-1.131673 L280.3451,-32.55513" />
      <path d="M277.6992,-31.02751 L277.6992,-0.6307182" />
      <path d="M252.1616,21.58637 A15.11811,8.728445 180 0 0 256.3257,27.60209" />
      <path d="M258.9681,47.67778 C253.7298,44.63454 248.4916,41.03388 243.3434,36.93739 C238.1953,32.84089 233.1373,28.24873 228.2542,23.23793 C223.371,18.22713 218.6628,12.79773 214.2083,7.040581 C209.7538,1.283431 205.5533,-4.801541 201.6787,-11.10951 C197.457,-17.98267 193.6196,-25.12558 190.2455,-32.39205 C186.8714,-39.65852 183.9604,-47.04844 181.5703,-54.415 C179.1801,-61.78157 177.3108,-69.12468 175.9997,-76.29842 C174.6886,-83.47217 173.9359,-90.47643 173.7566,-97.16785 C173.5773,-103.8593 173.9713,-110.2431 174.9309,-116.1883 C175.8904,-122.1334 177.4154,-127.64 179.4753,-132.5988 C181.5352,-137.5577 184.13,-141.9687 187.2082,-145.744 C190.2864,-149.5194 193.8483,-152.6588 197.8205,-155.0985 C198.1321,-155.2899 198.4463,-155.4771 198.7629,-155.6599" />
      <path d="M188.9133,-160.3759 C186.3998,-157.683 184.1318,-154.7118 182.123,-151.5069 C178.8193,-146.235 176.2184,-140.3302 174.3185,-133.9441 C171.8658,-125.7001 170.5777,-116.6499 170.4119,-107.0621 C170.2084,-95.29231 171.7014,-82.70503 174.7665,-69.86738 C176.9419,-60.75607 179.9078,-51.52085 183.5833,-42.39106 C187.2588,-33.26126 191.6439,-24.23687 196.6242,-15.54961 C203.9519,-2.767753 212.5714,9.278725 222.0175,19.92426 C227.2608,25.83338 232.7574,31.3129 238.4203,36.26947 C244.0833,41.22604 249.9124,45.65965 255.8238,49.49314" />
      <path d="M248.278,53.84972 C243.0397,50.80648 237.8014,47.20582 232.6533,43.10933 C227.5052,39.01284 222.4472,34.42068 217.5641,29.40987 C212.6809,24.39907 207.9726,18.96967 203.5182,13.21252 C199.0637,7.455373 194.8631,1.370401 190.9886,-4.93757 C186.7669,-11.81073 182.9294,-18.95364 179.5553,-26.22011 C176.1812,-33.48657 173.2703,-40.8765 170.8801,-48.24306 C168.49,-55.60963 166.6207,-62.95274 165.3096,-70.12649 C163.9985,-77.30023 163.2458,-84.30449 163.0665,-90.99592 C162.8872,-97.68732 163.2812,-104.0712 164.2407,-110.0163 C165.2003,-115.9615 166.7253,-121.4681 168.7852,-126.4269 C170.8451,-131.3857 173.4398,-135.7967 176.5181,-139.5721 C179.5963,-143.3474 183.1582,-146.4868 187.1304,-148.9266 C187.442,-149.118 187.7562,-149.3051 188.0728,-149.4879 C192.0145,-151.7636 196.3441,-153.3702 200.9774,-154.276 C205.6107,-155.1817 210.5477,-155.3869 215.6947,-154.888 C220.8418,-154.3889 226.1988,-153.1857 231.6644,-151.3009 C237.13,-149.4161 242.7042,-146.8494 248.278,-143.6515" />
      <path d="M252.1616,-144.6294 C252.1616,-144.2299 252.2187,-143.8302 252.3407,-143.4195 C252.4626,-143.0088 252.6478,-142.5882 252.9292,-142.1386 C253.0971,-141.8702 253.299,-141.5921 253.5538,-141.2956 C253.8087,-140.9992 254.1139,-140.6855 254.516,-140.3378 C254.7393,-140.1447 254.9901,-139.9433 255.2879,-139.7264 C255.5858,-139.5095 255.9328,-139.2767 256.3257,-139.0398" />
      <path d="M248.3674,-121.5353 C248.3395,-121.9264 248.271,-122.3042 248.1806,-122.6304 C248.0902,-122.9567 247.9779,-123.2314 247.8839,-123.4223 C247.7766,-123.6407 247.6938,-123.7515 247.6938,-123.7517 C247.6934,-123.7526 247.7614,-123.6634 247.9125,-123.5107 C248.0636,-123.3581 248.2972,-123.1421 248.6089,-122.8878 C249.2323,-122.3792 250.1641,-121.7273 251.309,-121.0508" />
      <path d="M280.3451,-103.7914 A37.79528,21.82111 180 0 0 248.382,-102.2278" />
      <path d="M256.3257,-80.40691 A15.11811,8.728445 180 0 1 252.1616,-86.42263" />
      <path d="M248.382,-83.30579 L248.382,-21.58637" />
      <path d="M252.1616,-24.7032 A15.11811,8.728445 180 0 1 277.6992,-31.02751 L280.3451,-32.55513 A18.89764,10.91056 180 0 0 248.382,-24.67234 A18.89764,10.91056 180 0 0 253.6263,-17.12901" />
      <path d="M256.3257,-18.68748 A15.11811,8.728445 180 0 1 252.1616,-24.7032 L252.1616,21.58637 A15.11811,8.728445 180 0 1 256.3257,15.57065" />
      <path d="M248.382,10.05792 C248.382,9.522017 248.469,8.988699 248.6464,8.470461 C248.813,7.983597 249.0559,7.511259 249.4139,7.0369 C249.6785,6.687123 250.006,6.335652 250.4311,5.983995 C250.8563,5.632339 251.3791,5.280496 252.0187,4.954937 C252.8685,4.520854 253.9359,4.132804 255.1803,3.854773 C256.4248,3.576742 257.8464,3.408731 259.3491,3.368852 C261.6641,3.306026 264.1897,3.546563 266.6983,3.998516 C269.5152,4.504138 272.3206,5.285221 274.927,6.202558 C276.3085,6.689638 277.618,7.214025 278.8633,7.763989 C280.2952,8.396626 281.5851,9.04003 282.7231,9.683196" />
      <path d="M309.2744,18.63343 C303.363,14.79994 297.5338,10.36632 291.8709,5.409757 C286.208,0.453191 280.7114,-5.02633 275.468,-10.93545 C266.022,-21.58099 257.4025,-33.62747 250.0748,-46.40933 C245.0945,-55.09658 240.7094,-64.12097 237.0339,-73.25077 C233.3584,-82.38057 230.3925,-91.61578 228.2171,-100.7271 C225.152,-113.5648 223.659,-126.152 223.8625,-137.9218 C224.0283,-147.5097 225.3163,-156.5598 227.769,-164.8038 C229.669,-171.1899 232.2699,-177.0947 235.5736,-182.3666 C237.5824,-185.5715 239.8504,-188.5427 242.3639,-191.2357" />
      <path d="M252.2135,-186.5196 C251.8969,-186.3368 251.5827,-186.1496 251.2711,-185.9583 C247.2989,-183.5185 243.737,-180.3791 240.6588,-176.6037 C237.5806,-172.8284 234.9858,-168.4174 232.9259,-163.4585 C230.866,-158.4997 229.341,-152.9931 228.3815,-147.048 C227.4219,-141.1028 227.0279,-134.719 227.2072,-128.0276 C227.3865,-121.3362 228.1392,-114.3319 229.4503,-107.1581 C230.7614,-99.9844 232.6307,-92.64129 235.0209,-85.27472 C237.411,-77.90815 240.322,-70.51823 243.6961,-63.25176 C247.0702,-55.9853 250.9076,-48.84238 255.1293,-41.96923 C259.0038,-35.66125 263.2044,-29.57628 267.6589,-23.81913 C272.1133,-18.06198 276.8216,-12.63258 281.7048,-7.621782 C286.5879,-2.61098 291.6459,1.981179 296.794,6.077673 C301.9422,10.17417 307.1804,13.77483 312.4187,16.81806" />
      <path d="M339.144,1.388205 C333.9057,-1.655027 328.6674,-5.25569 323.5193,-9.352183 C318.3712,-13.44868 313.3132,-18.04084 308.4301,-23.05164 C303.5469,-28.06244 298.8387,-33.49184 294.3842,-39.24899 C289.9297,-45.00614 285.7292,-51.09111 281.8546,-57.39908 C277.6329,-64.27224 273.7955,-71.41515 270.4214,-78.68162 C267.0472,-85.94809 264.1363,-93.33801 261.7462,-100.7046 C259.356,-108.0711 257.4867,-115.4143 256.1756,-122.588 C254.8645,-129.7617 254.1118,-136.766 253.9325,-143.4574 C253.7532,-150.1488 254.1472,-156.5327 255.1068,-162.4778 C256.0663,-168.423 257.5913,-173.9296 259.6512,-178.8884 C261.7111,-183.8472 264.3058,-188.2582 267.3841,-192.0336 C270.4623,-195.8089 274.0242,-198.9484 277.9964,-201.3881 C278.308,-201.5795 278.6222,-201.7666 278.9388,-201.9494" />
      <path d="M269.0892,-206.6655 C266.5757,-203.9726 264.3077,-201.0014 262.2989,-197.7964 C258.9952,-192.5245 256.3943,-186.6198 254.4943,-180.2336 C252.0416,-171.9897 250.7536,-162.9395 250.5878,-153.3517 C250.3842,-141.5819 251.8773,-128.9946 254.9424,-116.157 C257.1178,-107.0456 260.0837,-97.81042 263.7592,-88.68063 C267.4347,-79.55083 271.8198,-70.52644 276.8001,-61.83918 C284.1278,-49.05732 292.7473,-37.01085 302.1934,-26.36531 C307.4367,-20.45619 312.9333,-14.97667 318.5962,-10.0201 C324.2591,-5.063533 330.0883,-0.6299215 335.9997,3.203575" />
      <path d="M328.4539,7.560147 C323.2156,4.516916 317.9773,0.9162527 312.8292,-3.180241 C307.6811,-7.276735 302.6231,-11.86889 297.74,-16.8797 C292.8568,-21.8905 288.1485,-27.3199 283.6941,-33.07705 C279.2396,-38.8342 275.039,-44.91917 271.1645,-51.22714 C266.9427,-58.1003 263.1053,-65.24321 259.7312,-72.50967 C256.3571,-79.77615 253.4462,-87.16606 251.056,-94.53263 C248.6659,-101.8992 246.7966,-109.2423 245.4855,-116.4161 C244.1744,-123.5898 243.4217,-130.5941 243.2424,-137.2855 C243.0631,-143.9769 243.457,-150.3607 244.4166,-156.3059 C245.3762,-162.251 246.9012,-167.7576 248.9611,-172.7165 C251.021,-177.6753 253.6157,-182.0863 256.694,-185.8616 C259.7722,-189.637 263.3341,-192.7764 267.3063,-195.2162 C267.6179,-195.4076 267.932,-195.5947 268.2487,-195.7775 C272.1904,-198.0532 276.5199,-199.6598 281.1533,-200.5656 C285.7866,-201.4713 290.7236,-201.6765 295.8706,-201.1775 C301.0177,-200.6785 306.3747,-199.4753 311.8403,-197.5905 C317.3059,-195.7057 322.8801,-193.139 328.4539,-189.9411" />
      <path d="M347.1616,-191.484 A109.6063,63.28123 60 0 0 292.6257,-196.7589" />
      <path d="M294.974,-211.2074 C294.6573,-211.0245 294.3432,-210.8374 294.0316,-210.646 C290.0594,-208.2063 286.4975,-205.0668 283.4193,-201.2915 C280.341,-197.5161 277.7463,-193.1051 275.6864,-188.1463 C273.6265,-183.1875 272.1015,-177.6809 271.1419,-171.7357 C270.1823,-165.7906 269.7884,-159.4067 269.9677,-152.7153 C270.147,-146.0239 270.8997,-139.0197 272.2108,-131.8459 C273.5219,-124.6722 275.3912,-117.3291 277.7813,-109.9625 C280.1715,-102.5959 283.0824,-95.206 286.4565,-87.93954 C289.8306,-80.67307 293.6681,-73.53015 297.8898,-66.657 C301.7643,-60.34903 305.9649,-54.26405 310.4193,-48.5069 C314.8738,-42.74975 319.5821,-37.32035 324.4652,-32.30955 C329.3484,-27.29875 334.4064,-22.70659 339.5545,-18.6101 C344.7026,-14.5136 349.9409,-10.91294 355.1792,-7.869709" />
      <path d="M347.1616,-12.49872 A109.6063,63.28123 60 0 1 292.6257,-196.7589 L158.9992,-119.6096" />
      <path d="M186.8098,-108.1628 A120.9449,69.82756 60 0 0 126.6046,-113.9993" />
      <path d="M122.6688,-101.9912 A173.8583,100.3771 0 0 0 -173.8583,-30.85971" />
      <path d="M-167.6094,-88.38895 L26.7253,-200.5881" />
      <path d="M42.49239,-206.9139 L47.83754,-209.9999 A68.03149,39.278 0 0 0 -68.03149,-182.0723" />
      <path d="M-60.47244,-182.0723 L-60.47244,-74.06331 A60.47244,34.91378 0 0 1 42.49239,-98.9049" />
      <path d="M47.83754,-101.9909 L42.49239,-98.9049 L42.49239,-206.9139 A60.47244,34.91378 0 0 0 -60.47244,-182.0723" />
      <path d="M-43.02689,-157.5393 L-43.02689,-131.065" />
      <path d="M-48.37204,-132.6871 L-48.37204,-154.4533" />
      <path d="M-56.69291,-162.9393 L-56.69291,-79.92666 A56.69291,32.73167 0 1 1 56.69291,-79.92666" />
      <path d="M56.69291,-92.07614 A60.47244,34.91378 0 0 0 -60.47244,-79.92666 L-60.47244,-27.77374 L-60.47244,-74.06331 A60.47244,34.91378 0 1 1 60.47244,-74.06331 L60.47244,-27.77374 A60.47244,34.91378 0 1 0 -60.47244,-27.77374 A60.47244,34.91378 0 0 0 -42.76047,-3.085971 A60.47244,34.91378 0 0 0 60.47244,-27.77374 A60.47244,34.91378 0 1 0 -60.47244,-27.77374 A60.47244,34.91378 0 0 0 -42.76047,-3.085971 A60.47244,34.91378 0 0 0 60.47244,-27.77374 L60.47244,-74.06331" />
      <path d="M65.13645,-78.51058 A120.9449,69.82756 60 0 1 112.1292,-79.06846 C113.0689,-78.69911 114.0466,-78.28408 115.0779,-77.81487 C116.1092,-77.34566 117.1932,-76.82281 118.3593,-76.23036 C119.1645,-75.82132 120.0115,-75.37766 120.906,-74.89587 C121.8005,-74.41409 122.7433,-73.89372 123.7218,-73.34151" />
      <path d="M136.3559,-72.83108 A109.6063,63.28123 60 0 1 158.9992,-119.6096 A109.6063,63.28123 60 0 1 213.5351,-114.3347" />
      <path d="M205.1866,-109.5147 C201.191,-111.0982 197.3163,-112.189 193.6512,-112.794 C189.9861,-113.3989 186.532,-113.5182 183.3461,-113.1956 C179.0643,-112.7622 175.2672,-111.5445 171.9033,-109.6029 L270.7869,-166.6934 C273.2513,-168.1164 275.8952,-169.2285 278.6746,-170.0155 C281.4539,-170.8025 284.3689,-171.2646 287.378,-171.4039 C292.43,-171.6377 297.7449,-170.9604 303.172,-169.4291 C308.599,-167.8978 314.1381,-165.5125 319.6497,-162.3566" />
      <path d="M301.7286,-174.5112 C296.1548,-177.7091 290.5806,-180.2758 285.115,-182.1606 C279.6494,-184.0455 274.2924,-185.2487 269.1454,-185.7477 C263.9983,-186.2467 259.0613,-186.0415 254.428,-185.1357 C249.7946,-184.2299 245.4651,-182.6234 241.5234,-180.3476 C241.2068,-180.1648 240.8926,-179.9777 240.581,-179.7863 C236.6088,-177.3466 233.0469,-174.2071 229.9687,-170.4318 C226.8904,-166.6564 224.2957,-162.2454 222.2358,-157.2866 C220.1759,-152.3278 218.6509,-146.8212 217.6913,-140.876 C216.7318,-134.9309 216.3378,-128.547 216.5171,-121.8556 C216.6964,-115.1642 217.4491,-108.1599 218.7602,-100.9862 C220.0713,-93.81245 221.9406,-86.46935 224.3307,-79.10278 C226.7209,-71.73621 229.6318,-64.34628 233.0059,-57.07982 C236.38,-49.81335 240.2175,-42.67044 244.4392,-35.79728 C248.3137,-29.48931 252.5143,-23.40434 256.9688,-17.64719 C261.4232,-11.89004 266.1315,-6.460642 271.0146,-1.449839 C275.8978,3.560963 280.9558,8.153122 286.1039,12.24962 C291.252,16.34611 296.4903,19.94677 301.7286,22.99" />
      <path d="M285.6934,32.24792 C280.4551,29.20469 275.2169,25.60402 270.0687,21.50753 C264.9206,17.41104 259.8626,12.81888 254.9795,7.808074 C250.0963,2.797272 245.388,-2.632125 240.9336,-8.389276 C236.4791,-14.14643 232.2786,-20.2314 228.404,-26.53937 C224.1823,-33.41253 220.3449,-40.55544 216.9708,-47.82191 C213.5967,-55.08837 210.6857,-62.47829 208.2956,-69.84486 C205.9054,-77.21143 204.0361,-84.55454 202.725,-91.72829 C201.4139,-98.90203 200.6612,-105.9063 200.4819,-112.5977 C200.3026,-119.2891 200.6966,-125.673 201.6562,-131.6181 C202.6157,-137.5633 204.1407,-143.0699 206.2006,-148.0287 C208.2605,-152.9875 210.8553,-157.3985 213.9335,-161.1739 C217.0117,-164.9492 220.5736,-168.0887 224.5458,-170.5284 C224.8574,-170.7198 225.1716,-170.9069 225.4882,-171.0897" />
      <path d="M215.6386,-175.8058 C213.1251,-173.1129 210.8571,-170.1416 208.8483,-166.9367 C205.5446,-161.6648 202.9437,-155.7601 201.0437,-149.3739 C198.591,-141.13 197.303,-132.0798 197.1372,-122.492 C196.9337,-110.7222 198.4267,-98.1349 201.4918,-85.29724 C203.6672,-76.18593 206.6331,-66.95071 210.3086,-57.82092 C213.9841,-48.69111 218.3692,-39.66673 223.3495,-30.97947 C230.6772,-18.19761 239.2967,-6.151132 248.7428,4.494404 C253.9861,10.40353 259.4827,15.88305 265.1456,20.83961 C270.8085,25.79618 276.6377,30.22979 282.5491,34.06329" />
      <path d="M275.0033,38.41986 C269.765,35.37663 264.5267,31.77597 259.3786,27.67947 C254.2305,23.58298 249.1725,18.99082 244.2894,13.98002 C239.4062,8.969214 234.6979,3.539817 230.2435,-2.217333 C225.789,-7.974483 221.5884,-14.05946 217.7139,-20.36743 C213.4922,-27.24059 209.6547,-34.3835 206.2806,-41.64996 C202.9065,-48.91643 199.9956,-56.30635 197.6054,-63.67292 C195.2153,-71.03949 193.346,-78.3826 192.0349,-85.55634 C190.7238,-92.73009 189.9711,-99.73435 189.7918,-106.4258 C189.6125,-113.1172 190.0065,-119.501 190.966,-125.4462 C191.9256,-131.3913 193.4506,-136.8979 195.5105,-141.8567 C197.5704,-146.8156 200.1651,-151.2266 203.2434,-155.0019 C206.3216,-158.7773 209.8835,-161.9167 213.8557,-164.3565 C214.1673,-164.5479 214.4815,-164.735 214.7981,-164.9178 C218.7398,-167.1935 223.0694,-168.8001 227.7027,-169.7058 C232.336,-170.6116 237.273,-170.8168 242.42,-170.3178 C247.5671,-169.8188 252.9241,-168.6156 258.3897,-166.7308 C263.8553,-164.846 269.4295,-162.2793 275.0033,-159.0813" />
      <path d="M277.6992,-151.3799 C277.6595,-151.4015 277.6197,-151.423 277.58,-151.4441 C276.9211,-151.7945 276.301,-152.0549 275.7305,-152.2624 C275.16,-152.4699 274.639,-152.6246 274.1375,-152.7533 C273.3949,-152.9439 272.7107,-153.0722 272.0531,-153.1673 C271.3954,-153.2623 270.7664,-153.3225 270.1504,-153.3584 C268.9554,-153.428 267.8134,-153.4079 266.6597,-153.3155 C265.5059,-153.223 264.3477,-153.0593 263.1079,-152.7918 C262.1413,-152.5832 261.1326,-152.3175 259.9768,-151.9094 C259.4814,-151.7345 258.9678,-151.5363 258.4011,-151.2865 C257.8344,-151.0368 257.212,-150.732 256.5896,-150.3726 C255.8504,-149.9459 255.2812,-149.5425 254.8333,-149.1834 C254.3854,-148.8243 254.0542,-148.5084 253.7719,-148.2054 C253.3699,-147.774 253.0855,-147.3839 252.8628,-147.011 C252.6401,-146.638 252.4825,-146.2839 252.371,-145.9373 C252.2278,-145.4921 252.1616,-145.0612 252.1616,-144.6294 L252.1616,-86.42263 A15.11811,8.728445 180 0 1 256.3257,-92.43834" />
      <path d="M256.3257,-92.19643 A18.89764,10.91056 0 0 0 248.572,-84.84879" />
      <path d="M248.382,-86.39177 A18.89764,10.91056 180 0 1 280.3451,-94.27456" />
      <path d="M286.1773,-83.30579 L286.1773,-21.58637 A18.89764,10.91056 0 0 1 253.917,-13.87144" />
      <path d="M256.3257,-0.7125926 L256.3257,-18.68748 L253.6263,-17.12901 L253.6263,-1.248284" />
      <path d="M248.382,-2.695261 L248.382,-24.67234" />
      <path d="M246.4127,-28.08549 A37.79528,21.82111 180 0 1 235.7226,-34.25743 L235.7226,-65.11714" />
      <path d="M229.4577,-61.50011 L229.4577,-21.6018 A37.79528,21.82111 180 0 0 229.8375,-18.51583" />
      <path d="M166.0893,18.28921 A109.6063,63.28123 60 0 1 148.3087,-14.64872" />
      <path d="M127.8515,-2.837758 L-32.56035,89.77607" />
      <path d="M-33.00326,90.03178 C-33.00682,90.03384 -33.02132,90.04218 -33.04157,90.053 C-33.07688,90.07188 -33.12776,90.09698 -33.18279,90.1199 C-33.30854,90.1722 -33.46061,90.21419 -33.60302,90.22844 C-33.78448,90.24644 -33.94788,90.20609 -33.95544,90.20273 C-30.91596,91.40993 -28.21415,92.86028 -25.97778,94.45898 C-25.38559,94.88232 -24.82576,95.31578 -24.29999,95.75706" />
      <path d="M-21.87024,95.94801 L128.5039,9.129443" />
      <path d="M126.4894,59.06651 A98.26772,56.73489 240 0 1 109.8817,-78.15891" />
      <path d="M102.0147,-66.34838 A7.559055,4.364223 180 0 1 103.9681,-69.2762" />
      <path d="M99.19154,-71.98696 A98.26772,56.73489 240 0 0 120.9452,71.05106" />
      <path d="M80.17589,46.28957 L53.45059,61.71943" />
      <path d="M26.7253,46.28957 L-267.253,216.018" />
      <path d="M-248.5452,220.647 L-248.5452,226.8189" />
      <path d="M-248.5452,232.9908 L18.70771,78.69227" />
      <path d="M18.70771,66.34838 L18.70771,78.69227 L259.2354,217.561" />
      <path d="M208.4573,212.932 L5.345059,95.66511 L-208.4573,219.104 L-107.1684,277.5831" />
      <path d="M-114.4033,263.5749 L-218.3647,203.5527 C-218.5786,203.4293 -218.7928,203.2643 -218.9903,203.0797 C-219.2146,202.8698 -219.422,202.6306 -219.6011,202.3655 C-219.7695,202.1164 -219.9119,201.8448 -220.0193,201.5589 C-220.1726,201.1509 -220.2544,200.7128 -220.2544,200.2796 L-220.2544,5.863346 C-220.2544,5.430077 -220.1726,4.991947 -220.0193,4.583945 C-219.9119,4.298055 -219.7695,4.02647 -219.6011,3.777352 C-219.422,3.512297 -219.2146,3.273079 -218.9903,3.063222 C-218.7928,2.87851 -218.5786,2.713693 -218.3647,2.590179 L16.81794,-133.1926 C16.94205,-133.2643 17.07522,-133.3267 17.20706,-133.38 C17.35247,-133.4388 17.49754,-133.4876 17.64206,-133.5294 C18.00724,-133.6351 18.36177,-133.6941 18.70582,-133.6944 C19.1367,-133.6944 19.5869,-133.605 20.04595,-133.4417 C20.2317,-133.3753 20.4224,-133.2938 20.59747,-133.1926 L124.5589,-73.17042" />
      <path d="M129.395,-75.01437 A98.26772,56.73489 240 0 0 99.19154,-71.98696 L109.8817,-78.15891 A98.26772,56.73489 240 0 1 158.7483,-73.44553" />
      <path d="M158.7483,-82.7035 A109.6063,63.28123 240 0 0 104.2124,-87.9784" />
      <path d="M103.9681,-97.04994 A7.559055,4.364223 180 0 0 102.0147,-94.12212 A7.559055,4.364223 180 0 0 103.9681,-91.19431 A7.559055,4.364223 180 0 1 102.0147,-94.12212 A7.559055,4.364223 180 0 1 103.9681,-97.04994 Z" />
      <path d="M99.87933,-98.5694 A120.9449,69.82756 240 0 0 160.0845,104.7682 A120.9449,69.82756 60 0 1 99.87933,-98.5694 L87.85295,-91.62596 A120.9449,69.82756 240 0 0 112.3779,81.96468" />
      <path d="M92.08842,97.7271 A120.9449,69.82756 60 0 1 65.13645,-78.51058 L99.87933,-98.5694 A120.9449,69.82756 60 0 1 160.0845,-92.73296 A120.9449,69.82756 240 0 0 99.87933,-98.5694" />
      <path d="M94.4556,-115.7239 A15.11811,8.728445 180 0 0 98.61968,-109.7082" />
      <path d="M102.0147,-115.7239 L102.0147,-94.12212 L102.0147,-66.34838 A7.559055,4.364223 180 0 0 103.9681,-63.42057" />
      <path d="M95.94344,-55.70157 A136.063,78.55601 0 0 0 -136.063,-9.620336E-15" />
      <path d="M-136.063,-1.851583 A136.063,78.55601 0 0 1 95.94344,-57.55315" />
      <path d="M98.26772,-58.89507 L95.94344,-57.55315 L95.94344,-86.3298 L95.94344,-55.70157 L69.218,-40.27163 L69.218,-114.3349 A98.26772,56.73489 0 0 0 -98.26772,-74.06331" />
      <path d="M-102.0147,-66.34838 A7.559055,4.364223 180 0 0 -114.9188,-69.43436 A7.559055,4.364223 180 0 0 -117.1328,-66.34838 L-117.1328,-94.12212 A7.559055,4.364223 180 1 0 -102.0147,-94.12212 A7.559055,4.364223 180 1 1 -117.1328,-94.12212 A7.559055,4.364223 180 0 1 -114.9188,-97.2081 A7.559055,4.364223 180 0 1 -102.0147,-94.12212 L-102.0147,-66.34838 A7.559055,4.364223 180 1 1 -117.1328,-66.34838" />
      <path d="M-136.063,-61.71943 A136.063,78.55601 0 0 1 95.94344,-117.421" />
      <path d="M94.4556,-124.9818 L94.4556,-115.7239 A15.11811,8.728445 180 0 1 96.75671,-120.3529" />
      <path d="M95.94344,-121.2059 A15.11811,8.728445 180 0 1 94.4556,-124.9818 A15.11811,8.728445 180 0 1 95.94344,-128.7578" />
      <path d="M95.94344,-145.4284 A173.8583,100.3771 0 0 0 -136.063,-124.2056" />
      <path d="M-124.6918,-115.7239 A15.11811,8.728445 180 0 1 -120.2638,-121.8959" />
      <path d="M-124.6918,-124.9818 L-124.6918,-115.7239 A15.11811,8.728445 180 1 0 -94.4556,-115.7239" />
      <path d="M-98.26772,-129.6108 A98.26772,56.73489 0 0 0 -69.75251,-89.64777" />
      <path d="M-64.4074,-92.73376 A90.70866,52.37067 0 0 1 -90.70866,-129.6108" />
      <path d="M-94.4556,-124.9818 A15.11811,8.728445 180 1 1 -124.6918,-124.9818 A15.11811,8.728445 180 0 1 -120.2638,-131.1538 A15.11811,8.728445 180 0 1 -94.4556,-124.9818 L-94.4556,-115.7239 A15.11811,8.728445 180 0 0 -120.2638,-121.8959" />
      <path d="M-117.1328,-115.7239 A7.559055,4.364223 180 0 1 -114.9188,-118.8099 A7.559055,4.364223 180 0 1 -102.0147,-115.7239 A7.559055,4.364223 180 1 1 -117.1328,-115.7239 L-117.1328,-94.12212 A7.559055,4.364223 180 0 1 -114.9188,-97.2081 A7.559055,4.364223 180 0 1 -102.0147,-94.12212 L-102.0147,-115.7239" />
      <path d="M-98.26772,-117.2669 A98.26772,56.73489 0 0 1 69.218,-157.5385" />
      <path d="M63.8729,-154.4525 A90.70866,52.37067 0 0 0 -90.70866,-117.2669 L-90.70866,-129.6108 A90.70866,52.37067 0 0 1 63.8729,-166.7964" />
      <path d="M69.218,-169.8824 L69.218,-222.3439" />
      <path d="M52.91339,-245.2644 A60.47244,34.91378 0 0 0 -60.47244,-228.3619" />
      <path d="M-75.59055,-228.3619 A75.59055,43.64222 0 0 1 53.18267,-259.3755" />
      <path d="M52.91339,-259.22 L37.14721,-250.1174 L37.14721,-311.8369" />
      <path d="M53.18267,-294.5857 A98.26772,56.73489 0 0 0 -75.59055,-283.1297" />
      <path d="M-75.59055,-264.6138 A98.26772,56.73489 0 0 1 53.18267,-276.0698" />
      <path d="M69.218,-268.6335 L69.218,-141.8007 L69.218,-157.5385 L63.8729,-154.4525 L63.8729,-166.7964 L69.218,-169.8824 A98.26772,56.73489 0 0 0 -98.26772,-129.6108 L-98.26772,-182.0723 L-98.26772,-228.3619 A98.26772,56.73489 0 0 1 -96.95059,-237.6198" />
      <path d="M-98.26772,-246.8777 L-98.26772,0 A98.26772,56.73489 0 0 1 69.218,-40.27163" />
      <path d="M63.63764,-41.66061 A68.03149,39.278 0 0 0 -63.63764,-41.66061 A68.03149,39.278 0 0 0 -48.10553,9.399306E-14 A68.03149,39.278 0 0 0 63.63764,-41.66061 L70.53172,-31.12974" />
      <path d="M75.59055,-15.73845 A75.59055,43.64222 0 1 0 -75.59055,-15.73845 L-75.59055,4.628957 A75.59055,43.64222 0 1 1 75.59055,4.628957" />
      <path d="M75.25984,8.706848 A75.59055,43.64222 0 0 0 75.59055,4.628957 L75.59055,-15.73845 A75.59055,43.64222 0 0 1 -35.9552,22.65059" />
      <path d="M-35.9552,25.02704 L-35.9552,22.65059 A22.67717,13.09267 0 0 0 -35.86947,22.55331 C-35.4717,20.65384 -35.11977,18.74179 -34.81567,16.8252 A22.67717,13.09267 0 0 0 -33.44596,12.34389 L-33.44596,78.38367 A22.67717,13.09267 0 0 1 -72.15829,87.64159" />
      <path d="M-72.15829,87.79588 A22.67717,13.09267 0 0 0 -33.44596,78.53797 A22.67717,13.09267 0 1 0 -78.80029,78.53797 A22.67717,13.09267 0 0 0 -72.15829,87.79588 Z" />
      <path d="M-75.09617,89.02917 L-77.76894,90.5723 L-77.76894,160.3152" />
      <path d="M-82.57981,149.6696 A26.45669,15.27478 0 0 0 -75.09617,160.3151" />
      <path d="M-72.42332,158.7719 L-72.42332,161.8579" />
      <path d="M-72.15829,162.0135 A22.67717,13.09267 0 0 1 -78.80029,152.7556 A22.67717,13.09267 0 0 0 -72.42332,161.8579 L-78.84367,165.5647" />
      <path d="M-80.44166,163.4013 L-75.09617,160.3151 L-75.09617,89.02917 A26.45669,15.27478 0 0 1 -82.57981,78.38367" />
      <path d="M-82.57981,78.53797 A26.45669,15.27478 0 0 0 -74.83083,89.33887 A26.45669,15.27478 0 0 0 -29.66643,78.53797" />
      <path d="M-25.8869,78.69227 A30.23622,17.45689 0 0 1 -77.50336,91.03616 A30.23622,17.45689 0 0 1 -86.35934,78.69227" />
      <path d="M-86.35934,78.38367 A30.23622,17.45689 0 0 1 -35.01181,65.88645" />
      <path d="M-37.68457,67.42957 A26.45669,15.27478 0 0 0 -82.57981,78.38367 L-82.57981,149.6696" />
      <path d="M-86.35934,148.1266 A30.23622,17.45689 0 0 0 -77.76894,160.3152 L-80.44166,161.8583" />
      <path d="M-89.40111,158.4716 A113.3858,65.46334 0 0 1 -18.32784,134.1341" />
      <path d="M-18.32784,135.9857 A113.3858,65.46334 0 0 0 -88.33186,159.5441" />
      <path d="M-87.59083,160.2133 A34.01575,19.639 0 0 1 -90.13887,152.7556" />
      <path d="M-93.9184,148.1266 A37.79528,21.82111 0 1 1 -18.32784,148.1266" />
      <path d="M-25.8869,148.1266 L-25.8869,78.69227 A30.23622,17.45689 0 1 0 -86.35934,78.69227 L-86.35934,148.1266" />
      <path d="M-90.13887,148.1266 A34.01575,19.639 0 0 0 -80.44166,161.8583 L-80.44166,163.4013" />
      <path d="M-80.44166,164.8308 L-80.44166,163.4013 A34.01575,19.639 0 0 1 -90.13887,149.6696 A34.01575,19.639 0 0 0 -80.44166,163.4013 L-72.42332,158.7719 A22.67717,13.09267 0 0 1 -78.80029,149.6696 A22.67717,13.09267 0 0 1 -40.35742,140.2587" />
      <path d="M-40.35742,143.3447 A22.67717,13.09267 0 0 0 -78.80029,152.7556 L-78.80029,149.6696 A22.67717,13.09267 0 1 1 -33.44596,149.6696" />
      <path d="M-33.44596,152.7556 A22.67717,13.09267 0 1 0 -78.80029,152.7556 L-78.80029,149.6696 A22.67717,13.09267 0 0 0 -72.15829,158.9275 A22.67717,13.09267 0 0 0 -33.44596,149.6696 L-33.44596,152.7556 A22.67717,13.09267 0 0 1 -72.15829,162.0135" />
      <path d="M-71.85877,167.9666 A26.45669,15.27478 0 0 1 -74.83083,166.4882 A26.45669,15.27478 0 0 1 -82.57981,155.6873" />
      <path d="M-82.57981,152.7556 A26.45669,15.27478 0 1 1 -29.66643,152.7556 L-29.66643,155.6873" />
      <path d="M-40.38747,167.9666 A26.45669,15.27478 0 0 0 -29.66643,155.6873 A26.45669,15.27478 0 1 0 -82.57981,155.6873 L-82.57981,152.7556 A26.45669,15.27478 0 0 0 -74.83083,163.5565 A26.45669,15.27478 0 0 0 -29.66643,152.7556" />
      <path d="M-29.66643,149.6696 L-29.66643,78.53797 A26.45669,15.27478 0 1 0 -82.57981,78.53797 L-82.57981,149.6696 A26.45669,15.27478 0 0 0 -74.83083,160.4705 A26.45669,15.27478 0 0 0 -29.66643,149.6696 A26.45669,15.27478 0 1 0 -82.57981,149.6696 A26.45669,15.27478 0 0 1 -37.68457,138.7155" />
      <path d="M-32.33909,134.0863 A34.01575,19.639 0 0 0 -90.13887,148.1266 L-90.13887,149.6696 A34.01575,19.639 0 0 1 -32.33909,135.6293" />
      <path d="M-32.33909,138.7153 L-32.33909,135.6293 L-40.35742,140.2587 L-40.35742,143.3447 L-32.33909,138.7153 A34.01575,19.639 0 0 0 -90.13887,152.7556 L-90.13887,149.6696 A34.01575,19.639 0 0 1 -32.33909,135.6293" />
      <path d="M-35.01181,135.6294 L-35.01181,65.88645 L-37.68457,67.42957 L-37.68457,138.7155 L-32.33909,135.6293 L-32.33909,134.0863 L-35.01181,135.6294 A30.23622,17.45689 0 0 0 -86.35934,148.1266 A30.23622,17.45689 0 0 0 -77.50336,160.4705 A30.23622,17.45689 0 0 0 -25.8869,148.1266 A30.23622,17.45689 0 1 0 -86.35934,148.1266 L-86.35934,78.38367 A30.23622,17.45689 0 0 0 -77.76894,90.5723" />
      <path d="M-93.9184,96.61889 L-93.9184,78.69227 A37.79528,21.82111 0 0 0 -82.84842,94.12212 A37.79528,21.82111 0 0 0 -18.32784,78.69227 L-18.32784,119.4143" />
      <path d="M-9.989283,119.9483 L128.5039,39.98915" />
      <path d="M128.5039,45.98097 A128.5039,74.19178 0 1 0 -128.5039,45.98097 L-128.5039,4.628957 A128.5039,74.19178 0 0 1 98.26772,-43.17871" />
      <path d="M98.26772,-27.77374 A98.26772,56.73489 0 1 0 -98.26772,-27.77374 L-98.26772,-74.06331 L-98.26772,-117.2669 A98.26772,56.73489 0 0 0 -69.75251,-77.30388" />
      <path d="M-68.03149,-74.06331 L-68.03149,-182.0723 A68.03149,39.278 0 0 0 -48.37204,-154.4533 L-43.02689,-157.5393 A60.47244,34.91378 0 0 1 -60.47244,-182.0723 L-60.47244,-228.3619 A60.47244,34.91378 0 0 0 -43.02689,-203.8289" />
      <path d="M-37.68171,-206.9149 A52.91339,30.54956 0 0 1 -52.91339,-228.3619 L-52.91339,-290.0813 L-52.91339,-215.4008 A52.91339,30.54956 0 0 0 -37.41541,-193.799 A52.91339,30.54956 0 0 0 52.32561,-210.86" />
      <path d="M47.83754,-209.9999 L47.83754,-101.9909 A68.03149,39.278 0 0 0 -68.03149,-74.06331 A68.03149,39.278 0 0 0 -61.73485,-57.55985" />
      <path d="M-63.63764,-41.66061 L-70.53172,-31.12974 A75.40157,43.53312 0 0 0 -66.32329,4.970794 A22.67717,13.09267 0 0 0 -66.49177,5.020291 L-66.49177,14.00101" />
      <path d="M-69.75251,12.18929 A98.26772,56.73489 0 0 1 -98.26772,-27.77374" />
      <path d="M-96.75243,-6.167985 L-99.15419,-4.781326 L-99.15419,4.476587 L-104.5026,7.56449 L-104.5026,29.16629 L-102.0147,27.72988 L-104.5026,29.16629" />
      <path d="M-96.47794,24.53326 A136.063,78.55601 0 0 1 -136.063,-30.85971 A136.063,78.55601 0 0 0 -96.47794,24.53326 Z" />
      <path d="M-102.0147,18.35995 L-102.0147,10.8009 A7.559055,4.364223 180 0 1 -114.9188,13.88687 A7.559055,4.364223 180 0 1 -117.1328,10.8009 L-117.1328,60.17644 A7.559055,4.364223 180 1 1 -102.0147,60.17644" />
      <path d="M-102.0147,56.73801 L-112.5135,62.79951 A3.779528,2.182111 120 0 0 -113.7181,63.82625" />
      <path d="M-115.1793,63.10426 L-104.5026,56.94003" />
      <path d="M-98.06364,54.45689 A136.063,78.55601 0 0 1 -136.063,-9.620336E-15 L-136.063,-30.85971 L-136.063,-1.851583 A136.063,78.55601 0 0 0 -96.47794,53.54139" />
      <path d="M-95.04138,54.56357 A128.5039,74.19178 0 0 1 -128.5039,4.628957" />
      <path d="M-124.6918,1.542986 L-124.6918,10.8009 A15.11811,8.728445 180 1 1 -94.4556,10.8009" />
      <path d="M-100.3037,11.21539 L-121.5163,-1.031682 A15.11811,8.728445 180 0 1 -118.8437,-2.574667 L-100.3037,8.129416" />
      <path d="M-102.0147,10.8009 A7.559055,4.364223 180 1 0 -117.1328,10.8009 L-117.1328,32.4027 L-117.1328,60.17644 A7.559055,4.364223 180 0 1 -115.1793,57.24863" />
      <path d="M-117.1328,60.17644 A7.559055,4.364223 180 0 0 -115.1793,63.10426 A7.559055,4.364223 180 0 1 -117.1328,60.17644 Z" />
      <path d="M-128.5039,45.98097 A128.5039,74.19178 0 0 0 -115.186,78.87191" />
      <path d="M-93.9184,78.69227 A37.79528,21.82111 0 1 1 -18.32784,78.69227" />
      <path d="M-33.44596,78.53797 L-33.44596,35.48867 A22.67717,13.09267 0 0 0 -35.9552,29.50233" />
      <path d="M-33.44596,35.48867 A22.67717,13.09267 0 0 1 -35.9552,41.47501" />
      <path d="M-35.86947,22.55331 A75.40157,43.53312 0 0 0 70.53172,-31.12974 A75.40157,43.53312 0 0 0 -70.53172,-31.12974" />
      <path d="M-69.75251,-34.10028 A98.26772,56.73489 0 0 1 -98.26772,-74.06331 A98.26772,56.73489 0 0 0 -69.75251,-34.10028 Z" />
      <path d="M-61.73485,-38.72927 A86.92913,50.18856 0 0 1 -86.92913,-74.06331 L-86.92913,-182.0723 A86.92913,50.18856 0 0 0 -61.73485,-146.7383 L-61.73485,-137.931" />
      <path d="M-61.73485,-146.7383 L-69.75251,-142.1093 A98.26772,56.73489 0 0 1 -98.26772,-182.0723 A98.26772,56.73489 0 0 0 -69.75251,-142.1093" />
      <path d="M-60.47244,-162.9393 L-60.47244,-215.4008 A60.47244,34.91378 0 0 0 -42.76047,-190.713 A60.47244,34.91378 0 0 0 60.47244,-215.4008 A60.47244,34.91378 0 0 0 59.42158,-221.8813" />
      <path d="M61.20035,-217.7149 A86.92913,50.18856 0 0 0 -86.92913,-182.0723" />
      <path d="M-98.26772,-182.0723 A98.26772,56.73489 0 0 1 69.218,-222.3439 L61.20035,-217.7149 L61.20035,-137.6836" />
      <path d="M56.69291,-135.7313 L56.69291,-162.9393 A56.69291,32.73167 0 1 0 -56.69291,-162.9393 A56.69291,32.73167 0 0 0 -40.08794,-139.7945 A56.69291,32.73167 0 0 0 56.69291,-162.9393" />
      <path d="M60.47244,-162.9393 A60.47244,34.91378 0 1 0 -60.47244,-162.9393 A60.47244,34.91378 0 0 0 -42.76047,-138.2515 A60.47244,34.91378 0 0 0 60.47244,-162.9393 L60.47244,-215.4008" />
      <path d="M52.91339,-215.4008 A52.91339,30.54956 0 1 0 -52.91339,-215.4008" />
      <path d="M-60.47244,-215.4008 A60.47244,34.91378 0 0 1 52.91339,-232.3034" />
      <path d="M60.47244,-228.3619 L60.47244,-182.0723 A60.47244,34.91378 0 1 0 -60.47244,-182.0723 A60.47244,34.91378 0 0 0 -42.76047,-157.3845 A60.47244,34.91378 0 0 0 60.47244,-182.0723" />
      <path d="M53.45059,-185.1583 L53.45059,61.71943 L160.0845,123.2846 L26.7253,46.28957 L26.7253,-200.5881 L95.94344,-160.625 L53.45059,-185.1583 L80.17589,-200.5881 L118.6544,-178.3726" />
      <path d="M115.5824,-172.7135 A15.11811,8.728445 240 1 1 100.4642,-198.8988" />
      <path d="M98.26772,-197.6306 L89.77413,-192.7269 A15.11811,8.728445 240 0 0 95.94344,-168.1974" />
      <path d="M95.94344,-169.8058 L95.94344,-240.6284" />
      <path d="M80.17589,-200.5881 L80.17589,46.28957 L186.8098,107.8547" />
      <path d="M186.8098,89.33839 A120.9449,69.82756 60 0 1 126.6046,-113.9993 L172.0376,-140.23 C174.2802,-141.5247 176.6481,-142.6034 179.1263,-143.4591" />
      <path d="M172.0376,-140.23 C171.721,-140.0472 171.4068,-139.8601 171.0952,-139.6687 C167.123,-137.2289 163.5611,-134.0895 160.4829,-130.3141 C157.4047,-126.5388 154.8099,-122.1278 152.75,-117.169 C150.6901,-112.2101 149.1651,-106.7036 148.2056,-100.7584 C147.246,-94.81325 146.852,-88.42941 147.0313,-81.738 C147.2106,-75.04658 147.9633,-68.04231 149.2744,-60.86857 C150.5855,-53.69483 152.4548,-46.35172 154.845,-38.98515 C157.2351,-31.61858 160.1461,-24.22866 163.5202,-16.96219 C166.8943,-9.695728 170.7317,-2.552814 174.9534,4.320344 C178.828,10.62831 183.0285,16.71329 187.483,22.47044 C191.9375,28.22759 196.6457,33.65699 201.5289,38.66779 C206.412,43.67859 211.47,48.27075 216.6181,52.36724 C221.7663,56.46374 227.0045,60.0644 232.2428,63.10763" />
      <path d="M229.0985,64.923 C223.2108,61.10489 217.4048,56.69149 211.7632,51.75899 C206.1217,46.82649 200.6448,41.3749 195.4185,35.49635 C186.0033,24.90607 177.4056,12.92359 170.0858,0.2055012 C163.1542,-11.83818 157.3708,-24.53562 153.0244,-37.26944 C149.7804,-46.77351 147.3352,-56.29695 145.7628,-65.59229 C144.1904,-74.88762 143.4908,-83.95484 143.7067,-92.57466 C143.9374,-101.7856 145.2132,-110.4883 147.5717,-118.4422 C149.4782,-124.8714 152.0942,-130.8139 155.4217,-136.1153 C158.7999,-141.4963 162.9177,-146.2153 167.679,-150.0682" />
      <path d="M188.0728,-149.4879 L198.7629,-155.6599 C203.3617,-158.315 208.4889,-160.058 214.0095,-160.8426" />
      <path d="M214.7981,-164.9178 L225.4882,-171.0897 C230.087,-173.7448 235.2142,-175.4879 240.7349,-176.2725" />
      <path d="M241.5234,-180.3476 L252.2135,-186.5196 C256.8123,-189.1747 261.9395,-190.9177 267.4601,-191.7023" />
      <path d="M268.2487,-195.7775 L278.9388,-201.9494 C283.5376,-204.6045 288.6648,-206.3476 294.1855,-207.1322" />
      <path d="M294.974,-211.2074 L315.8301,-223.2486" />
      <path d="M294.974,-211.2074 C298.9156,-213.4831 303.2452,-215.0896 307.8786,-215.9954 C312.5119,-216.9012 317.4489,-217.1064 322.5959,-216.6074 C327.743,-216.1084 333.1,-214.9052 338.5656,-213.0204 C344.0312,-211.1355 349.6054,-208.5688 355.1792,-205.3709" />
      <path d="M347.4293,-191.6385 A109.6063,63.28123 240 0 1 370.1291,-241.5055 L104.2124,-87.9784 A109.6063,63.28123 240 0 0 158.7483,96.28178" />
      <path d="M138.7043,135.6284 L18.70771,66.34838 L-248.5452,220.647 L-128.5487,289.927" />
      <path d="M-107.1684,277.5831 L114.6515,149.5153" />
      <path d="M99.68536,140.8746 L5.345059,86.4072 L-208.4573,209.8461 L-133.8937,252.8954" />
      <path d="M-80.4427,246.7231 A113.3858,65.46334 0 0 1 -113.3858,200.5881 L-113.3858,198.7366" />
      <path d="M-113.3745,199.6623 A113.3858,65.46334 0 0 0 -113.3858,200.5881" />
      <path d="M-208.4573,209.8461 L-208.4573,219.104" />
    </g>
  </g>
</svg>