<?xml version="1.0" encoding="utf-8"?>
<!DOCTYPE svg PUBLIC "-//W3C//DTD SVG 1.1//EN" "http://www.w3.org/Graphics/SVG/1.1/DTD/svg11.dtd">
<svg width="220.00002mm" height="130.00002mm" viewBox="0, 0, 831.4961, 491.33862" version="1.1" xmlns:xlink="http://www.w3.org/1999/xlink" xmlns:xml="http://www.w3.org/XML/1998/namespace" xmlns:sodipodi="http://sodipodi.sourceforge.net/DTD/sodipodi-0.dtd" xmlns:inkscape="http://www.inkscape.org/namespaces/inkscape" xmlns="http://www.w3.org/2000/svg">
  <sodipodi:namedview inkscape:document-units="mm" />
  <g id="Masks" transform="translate(226.77167,245.66931)">
    <g id="Layer0" stroke-width="0.37795275" style="stroke:black;fill:black;">
      <path d="M188.97638,-207.87401 L-188.97638,-207.87401 L-188.97638,207.87401 L188.97638,207.87401 L188.97638,-207.87401 Z M-112.46671,95.86685 C-113.750725,95.82113 -115.03281,95.733986 -116.31014,95.59984 C-117.58748,95.46569 -118.86008,95.28454 -120.12287,95.049934 C-121.385666,94.81533 -122.63865,94.527275 -123.87451,94.178566 C-125.110374,93.82986 -126.32912,93.42051 -127.52112,92.94241 C-128.81035,92.425316 -130.06775,91.827965 -131.27457,91.14072 C-132.4814,90.453476 -133.63756,89.676216 -134.71648,88.80214 C-135.55081,88.12621 -136.33867,87.39243 -137.06393,86.6009 C-137.78922,85.809364 -138.45178,84.95998 -139.0332,84.05769 C-139.63687,83.12085 -140.15273,82.126884 -140.55995,81.08968 C-140.80685,80.460815 -141.01382,79.816246 -141.17705,79.16073 C-141.35947,78.428055 -141.48715,77.68165 -141.55658,76.92983 C-141.62599,76.17802 -141.63712,75.420784 -141.58907,74.66733 C-141.54277,73.94129 -141.44156,73.21874 -141.28722,72.50775 C-141.13287,71.79677 -140.92543,71.09733 -140.6689,70.416466 C-140.43668,69.80012 -140.16428,69.198944 -139.85579,68.616936 C-139.36023,67.68201 -138.77155,66.796936 -138.10909,65.97155 C-137.48419,65.19298 -136.79388,64.46738 -136.05379,63.7971 C-135.31369,63.126827 -134.5239,62.511776 -133.69778,61.9506 C-132.39444,61.06524 -131.00194,60.314243 -129.55827,59.68244 C-128.11461,59.05064 -126.61992,58.537792 -125.09836,58.126194 C-123.194626,57.611214 -121.24964,57.25452 -119.29065,57.024933 C-117.33166,56.79535 -115.35863,56.692913 -113.385826,56.692913 L-75.131,54.854694 C-73.252686,53.04574 -71.33849,51.274918 -69.37269,49.562645 C-68.38978,48.706512 -67.39392,47.86526 -66.38233,47.043583 C-65.370735,46.221905 -64.34347,45.41972 -63.296368,44.64413 C-62.58535,44.117477 -61.865906,43.603664 -61.135635,43.105587 C-60.40536,42.60751 -59.664276,42.125134 -58.910294,41.66366 C-58.15631,41.202187 -57.38947,40.761543 -56.607567,40.350033 C-55.825665,39.938526 -55.028797,39.555973 -54.21366,39.215565 C-53.590286,38.955235 -52.95664,38.7198 -52.31208,38.51898 C-51.667522,38.318157 -51.012074,38.151897 -50.347607,38.035095 C-49.569298,37.89828 -48.777832,37.829414 -47.98912,37.86183 C-47.60941,37.877438 -47.23065,37.91668 -46.856647,37.982975 C-46.512913,38.043903 -46.173187,38.127758 -45.841373,38.235897 C-45.50956,38.34404 -45.185677,38.476517 -44.87364,38.63268 C-44.313763,38.91287 -43.793056,39.270077 -43.324425,39.685577 C-43.09872,39.88569 -42.884815,40.099113 -42.68275,40.323227 C-42.287117,40.76204 -41.93713,41.2414 -41.627007,41.74489 C-41.35787,42.181835 -41.118774,42.636536 -40.904156,43.102684 C-40.689537,43.568832 -40.499413,44.046436 -40.32924,44.531025 C-40.15907,45.015614 -40.008854,45.5072 -39.874878,46.00308 C-39.740902,46.49896 -39.62317,46.999138 -39.518658,47.502647 C-39.323322,48.443756 -39.174374,49.39389 -39.05849,50.34829 C-38.942608,51.30269 -38.860016,52.261375 -38.802387,53.221462 C-38.744755,54.18155 -38.712173,55.14305 -38.699055,56.104736 C-38.685936,57.066425 -38.69232,58.0283 -38.714386,58.99069 A31.763403,31.763403 0 0 1 -48.865257,83.418205 A33.704235,33.704235 0 1 1 -112.46671,95.86685 Z M-151.1811,18.897638 L-151.1811,-18.897638 L-75.59055,-18.897638 L-75.59055,18.897638 L-151.1811,18.897638 Z M-59.935234,-94.48819 A53.450592,53.450592 45 0 1 -113.385826,-41.037598 A53.450592,53.450592 45 0 1 -166.83641,-94.48819 A53.450592,53.450592 45 0 1 -113.385826,-147.93878 A53.450592,53.450592 45 0 1 -59.935234,-94.48819 Z M75.59055,-18.897638 L151.1811,-18.897638 L151.1811,18.897638 L75.59055,18.897638 L75.59055,-18.897638 Z M37.795277,-170.07874 C38.610638,-170.07874 39.426136,-170.02573 40.234814,-169.92111 C41.043488,-169.8165 41.845352,-169.66035 42.634983,-169.45645 C44.21424,-169.04865 45.743404,-168.44913 47.19458,-167.70392 C48.20483,-167.18515 49.17864,-166.5959 50.113964,-165.95099 C51.049286,-165.30606 51.946194,-164.60556 52.805588,-163.86177 C54.22898,-162.62985 55.549118,-161.28049 56.77783,-159.85318 C58.006542,-158.42587 59.143814,-156.92058 60.20246,-155.36186 C61.29239,-153.75708 62.29874,-152.0958 63.233173,-150.39513 C64.1676,-148.69444 65.03001,-146.95432 65.82961,-145.18568 C66.60767,-143.46468 67.32616,-141.71674 67.99157,-139.94879 C68.65698,-138.18085 69.26928,-136.39288 69.833496,-134.58983 C70.84542,-131.35602 71.70281,-128.07536 72.42632,-124.76513 C73.14984,-121.45489 73.73914,-118.11499 74.2063,-114.75836 C74.67346,-111.40174 75.01837,-108.028366 75.24764,-104.6475 C75.47692,-101.266624 75.59055,-97.87825 75.59055,-94.48819 C75.59055,-90.80784 75.45665,-87.127556 75.18595,-83.45729 C74.91525,-79.78703 74.50785,-76.126785 73.95447,-72.4886 C73.425735,-69.01243 72.763916,-65.55662 71.95387,-62.135567 C71.14383,-58.714523 70.18592,-55.328148 69.055016,-51.999996 C68.43846,-50.185543 67.77034,-48.388683 67.04473,-46.61535 C66.31912,-44.84202 65.53609,-43.092194 64.687965,-41.37449 C63.828384,-39.633595 62.902092,-37.925743 61.89872,-36.264244 C60.895344,-34.602745 59.815,-32.98753 58.644882,-31.439741 C58.001007,-30.588041 57.330166,-29.757252 56.629757,-28.952085 C55.929348,-28.146921 55.199356,-27.367386 54.43764,-26.620241 C53.675922,-25.873098 52.882465,-25.158352 52.055706,-24.484674 C51.228947,-23.810997 50.368874,-23.178398 49.47466,-22.597303 C48.474777,-21.94754 47.43244,-21.36256 46.35154,-20.860119 C45.270638,-20.357676 44.151043,-19.93806 43.003098,-19.618664 C42.156193,-19.383026 41.29401,-19.201982 40.423496,-19.080622 C39.552982,-18.959259 38.67413,-18.897638 37.795277,-18.897638 C36.75289,-18.897638 35.71054,-18.984497 34.681988,-19.154524 C33.65343,-19.32455 32.638653,-19.57759 31.64836,-19.904055 C30.82964,-20.173956 30.027723,-20.493805 29.245886,-20.856924 C28.464048,-21.220043 27.702261,-21.626385 26.96221,-22.069199 C25.482107,-22.954824 24.089876,-23.985237 22.784962,-25.11461 C21.36157,-26.346523 20.041433,-27.695885 18.812721,-29.123198 C17.584011,-30.55051 16.44674,-32.055794 15.388088,-33.61452 C14.2981615,-35.219303 13.291809,-36.880577 12.35738,-38.581257 C11.42295,-40.281933 10.560541,-42.022068 9.760941,-43.790695 C8.982874,-45.511696 8.264391,-47.259644 7.59898,-49.027588 C6.9335685,-50.795532 6.32127,-52.583492 5.7570543,-54.386555 C4.745133,-57.620358 3.8877385,-60.90101 3.1642258,-64.21125 C2.4407132,-67.52149 1.8514106,-70.86139 1.3842492,-74.21801 C0.91708785,-77.57464 0.5721795,-80.948006 0.34290612,-84.32888 C0.11363273,-87.709755 1.9723069E-13,-91.09813 0,-94.48819 C-2.1465605E-13,-98.16853 0.13390133,-101.84882 0.4045991,-105.51909 C0.67529684,-109.18935 1.0827043,-112.849594 1.6360799,-116.48777 C2.1648142,-119.96395 2.8266337,-123.41976 3.6366773,-126.84081 C4.446721,-130.26186 5.404633,-133.64822 6.5355372,-136.97638 C7.152088,-138.79083 7.820213,-140.58769 8.545819,-142.36102 C9.271426,-144.13435 10.054462,-145.88419 10.902589,-147.60188 C11.762167,-149.34279 12.68846,-151.05063 13.6918335,-152.71213 C14.695207,-154.37363 15.775552,-155.98885 16.945667,-157.53664 C17.589544,-158.38834 18.260386,-159.21913 18.960794,-160.02429 C19.661205,-160.82945 20.391193,-161.609 21.15291,-162.35614 C21.914629,-163.10329 22.708086,-163.81802 23.534845,-164.4917 C24.361605,-165.16537 25.221678,-165.79797 26.115892,-166.37907 C26.983885,-166.94313 27.884966,-167.45906 28.815727,-167.91435 C29.74649,-168.36966 30.706966,-168.76424 31.690903,-169.0863 C32.67484,-169.40836 33.68228,-169.65776 34.703564,-169.82541 C35.72485,-169.99306 36.760033,-170.07874 37.795277,-170.07874 Z M302.3622,-147.93878 A53.450592,53.450592 45 0 0 248.9116,-94.48819 A53.450592,53.450592 45 0 0 302.3622,-41.037598 A53.450592,53.450592 45 0 0 355.8128,-94.48819 A53.450592,53.450592 45 0 0 302.3622,-147.93878 Z M453.5433,-170.07874 C452.50806,-170.07874 451.47287,-169.99306 450.4516,-169.82541 C449.43033,-169.65776 448.42288,-169.40836 447.43893,-169.0863 C446.455,-168.76424 445.4945,-168.36966 444.56375,-167.91435 C443.633,-167.45906 442.7319,-166.94313 441.86392,-166.37907 C440.9697,-165.79797 440.10965,-165.16537 439.28287,-164.4917 C438.45612,-163.81802 437.66266,-163.10329 436.90094,-162.35614 C436.13922,-161.609 435.40924,-160.82945 434.70883,-160.02429 C434.00842,-159.21913 433.3376,-158.38834 432.6937,-157.53664 C431.5236,-155.98885 430.44324,-154.37363 429.43985,-152.71213 C428.4365,-151.05063 427.5102,-149.34279 426.65063,-147.60188 C425.8025,-145.88419 425.01947,-144.13435 424.29385,-142.36102 C423.56824,-140.58769 422.90012,-138.79083 422.28357,-136.97638 C421.15268,-133.64822 420.19476,-130.26186 419.3847,-126.84081 C418.57468,-123.41976 417.91284,-119.96395 417.38412,-116.48777 C416.83075,-112.849594 416.42334,-109.18935 416.15262,-105.51909 C415.88193,-101.84882 415.74802,-98.16853 415.74802,-94.48819 C415.74802,-91.09813 415.86166,-87.709755 416.09094,-84.32888 C416.32022,-80.948006 416.66513,-77.57464 417.1323,-74.21801 C417.59946,-70.86139 418.18875,-67.52149 418.91226,-64.21125 C419.63577,-60.90101 420.49316,-57.620358 421.5051,-54.386555 C422.0693,-52.583492 422.6816,-50.795532 423.34702,-49.027588 C424.01242,-47.259644 424.7309,-45.511696 425.50897,-43.790695 C426.30856,-42.022068 427.171,-40.281933 428.1054,-38.581257 C429.03983,-36.880577 430.0462,-35.219303 431.1361,-33.61452 C432.19476,-32.055794 433.33203,-30.55051 434.56076,-29.123198 C435.78946,-27.695885 437.1096,-26.346523 438.533,-25.11461 C439.83792,-23.985237 441.23013,-22.954824 442.71024,-22.069199 C443.4503,-21.626385 444.21207,-21.220043 444.99393,-20.856924 C445.77576,-20.493805 446.57767,-20.173956 447.3964,-19.904055 C448.3867,-19.57759 449.40146,-19.32455 450.43002,-19.154524 C451.45856,-18.984497 452.50092,-18.897638 453.5433,-18.897638 C454.42215,-18.897638 455.30103,-18.959259 456.17154,-19.080622 C457.04205,-19.201982 457.90424,-19.383026 458.75113,-19.618664 C459.89908,-19.93806 461.01868,-20.357676 462.09958,-20.860119 C463.18048,-21.36256 464.2228,-21.94754 465.2227,-22.597303 C466.1169,-23.178398 466.977,-23.810997 467.80374,-24.484674 C468.6305,-25.158352 469.42395,-25.873098 470.18567,-26.620241 C470.9474,-27.367386 471.67737,-28.146921 472.37778,-28.952085 C473.0782,-29.757252 473.74902,-30.588041 474.3929,-31.439741 C475.56302,-32.98753 476.64337,-34.602745 477.64676,-36.264244 C478.65012,-37.925743 479.57642,-39.633595 480.436,-41.37449 C481.28412,-43.092194 482.06717,-44.84202 482.79276,-46.61535 C483.51837,-48.388683 484.1865,-50.185543 484.80304,-51.999996 C485.93396,-55.328148 486.89188,-58.714523 487.7019,-62.135567 C488.51196,-65.55662 489.17377,-69.01243 489.7025,-72.4886 C490.2559,-76.126785 490.6633,-79.78703 490.934,-83.45729 C491.20468,-87.127556 491.3386,-90.80784 491.3386,-94.48819 C491.3386,-97.87825 491.22495,-101.266624 490.99567,-104.6475 C490.7664,-108.028366 490.4215,-111.40174 489.95435,-114.75836 C489.48718,-118.11499 488.89786,-121.45489 488.17435,-124.76513 C487.45084,-128.07536 486.59344,-131.35602 485.58154,-134.58983 C485.0173,-136.39288 484.40503,-138.18085 483.7396,-139.94879 C483.0742,-141.71674 482.3557,-143.46468 481.57764,-145.18568 C480.77805,-146.95432 479.91562,-148.69444 478.9812,-150.39513 C478.04678,-152.0958 477.04044,-153.75708 475.9505,-155.36186 C474.89185,-156.92058 473.75458,-158.42587 472.52585,-159.85318 C471.29715,-161.28049 469.97702,-162.62985 468.55362,-163.86177 C467.6942,-164.60556 466.79733,-165.30606 465.862,-165.95099 C464.92667,-166.5959 463.95285,-167.18515 462.9426,-167.70392 C461.49142,-168.44913 459.96228,-169.04865 458.38303,-169.45645 C457.59338,-169.66035 456.79153,-169.8165 455.98285,-169.92111 C455.17416,-170.02573 454.35867,-170.07874 453.5433,-170.07874 Z M340.15747,-18.897638 L264.56693,-18.897638 L264.56693,18.897638 L340.15747,18.897638 L340.15747,-18.897638 Z M566.92914,-18.897638 L491.3386,-18.897638 L491.3386,18.897638 L566.92914,18.897638 L566.92914,-18.897638 Z M264.56693,56.692913 C263.3901,56.692913 262.21365,56.729485 261.0398,56.80753 C259.86597,56.88558 258.6947,57.00511 257.53012,57.171825 C256.36554,57.338543 255.20763,57.552444 254.06224,57.819954 C252.91685,58.08746 251.784,58.40856 250.67139,58.790497 C249.43752,59.21406 248.22899,59.712334 247.06207,60.294937 C245.89516,60.87754 244.7699,61.544594 243.70949,62.303593 C242.87457,62.901196 242.08011,63.55579 241.341,64.26822 C240.6019,64.98064 239.91829,65.751 239.3074,66.57578 C238.66492,67.44324 238.1032,68.37102 237.64279,69.347145 C237.35867,69.9495 237.11314,70.57009 236.91031,71.20438 C236.684,71.91208 236.51091,72.6369 236.39502,73.37078 C236.27913,74.10466 236.22047,74.84761 236.22047,75.59055 C236.22047,76.333496 236.27913,77.07644 236.39502,77.81032 C236.51091,78.544205 236.684,79.26902 236.91031,79.97673 C237.11314,80.611015 237.35867,81.231606 237.64279,81.83396 C238.1032,82.81008 238.66492,83.73787 239.3074,84.605316 C239.91829,85.4301 240.6019,86.20046 241.341,86.91289 C242.08011,87.62531 242.87457,88.27991 243.70949,88.87751 C244.7699,89.636505 245.89516,90.30356 247.06207,90.88616 C248.22899,91.468765 249.43752,91.96704 250.67139,92.3906 C251.784,92.772545 252.91685,93.09364 254.06224,93.36115 C255.20763,93.628654 256.36554,93.84256 257.53012,94.00928 C258.6947,94.175995 259.86597,94.295525 261.0398,94.37357 C262.21365,94.45162 263.3901,94.48819 264.56693,94.48819 A34.10675,34.10675 0 1 0 329.0875,83.418205 A37.795277,37.795277 0 0 0 340.15747,56.692913 C340.15747,55.81779 340.1424,54.943546 340.10852,54.069954 C340.07462,53.19636 340.02197,52.323414 339.94522,51.452503 C339.86844,50.581596 339.7676,49.71272 339.6348,48.849003 C339.50198,47.985287 339.3374,47.126713 339.1285,46.278423 C338.9186,45.426147 338.66452,44.585125 338.34637,43.768097 C338.02826,42.95107 337.64618,42.15801 337.17313,41.420673 C336.88156,40.966206 336.55527,40.53372 336.18988,40.13677 C335.98956,39.91914 335.77756,39.712288 335.554,39.518814 C335.11465,39.138653 334.6297,38.81091 334.11023,38.55118 C333.7982,38.395164 333.474,38.263485 333.14178,38.15683 C332.80957,38.05017 332.46933,37.968475 332.12518,37.910248 C331.76846,37.84989 331.4075,37.81466 331.04575,37.8014 C330.269,37.772923 329.49002,37.84505 328.7244,37.984253 C328.06097,38.104877 327.407,38.275795 326.76434,38.48153 C326.12167,38.68726 325.4903,38.927876 324.86945,39.193398 C324.0702,39.53522 323.28903,39.91793 322.52267,40.32872 C321.75632,40.73951 321.00482,41.17855 320.266,41.637787 C319.52716,42.097023 318.80103,42.576527 318.0855,43.07126 C317.36996,43.565987 316.6651,44.075977 315.9685,44.598427 C314.75427,45.50911 313.5673,46.455746 312.40094,47.427425 C311.23456,48.39911 310.089,49.395992 308.96002,50.41131 C307.83102,51.426624 306.71872,52.460445 305.62003,53.50849 C304.52133,54.55654 303.43625,55.61886 302.3622,56.692913 L264.56693,56.692913 Z" />
    </g>
  </g>
</svg>