<?xml version="1.0" encoding="utf-8"?>
<!DOCTYPE svg PUBLIC "-//W3C//DTD SVG 1.1//EN" "http://www.w3.org/Graphics/SVG/1.1/DTD/svg11.dtd">
<svg width="38mm" height="31.02mm" viewBox="0, 0, 143.62206, 117.240944" version="1.1" xmlns:xlink="http://www.w3.org/1999/xlink" xmlns:xml="http://www.w3.org/XML/1998/namespace" xmlns:sodipodi="http://sodipodi.sourceforge.net/DTD/sodipodi-0.dtd" xmlns:inkscape="http://www.inkscape.org/namespaces/inkscape" xmlns="http://www.w3.org/2000/svg">
  <sodipodi:namedview inkscape:document-units="mm" />
  <g id="Contours" transform="translate(71.81103,48.188976)">
    <g id="Layer0" stroke-width="0.37795275" style="stroke:black;fill:none;">
      <path d="M31.181103,-8.503937 L31.181103,8.503937 L13.228347,8.503937 L13.228347,-8.503937 L31.181103,-8.503937 Z M29.385826,6.6141734 L29.385826,-6.6141734 L15.0236225,-6.6141734 L15.0236225,6.6141734 L29.385826,6.6141734 Z M15.0236225,6.6141734 L29.385826,6.6141734 L29.385826,-6.6141734 L15.0236225,-6.6141734 L15.0236225,6.6141734 Z M31.181103,12.3590555 L31.181103,29.36693 L13.228347,29.36693 L13.228347,12.3590555 L31.181103,12.3590555 Z M29.385826,27.477165 L29.385826,14.248819 L15.0236225,14.248819 L15.0236225,27.477165 L29.385826,27.477165 Z M29.385826,27.477165 L29.385826,14.248819 L15.0236225,14.248819 L15.0236225,27.477165 L29.385826,27.477165 Z M-34.015747,10.393701 L34.015747,10.393701 L34.015747,-10.393701 L-34.015747,-10.393701 L-34.015747,10.393701 Z M-32.125984,0.9448819 L-24.566929,0.9448819 L-24.566929,8.503937 L-31.181103,8.503937 A0.9448819,0.9448819 0 0 1 -32.125984,7.5590553 L-32.125984,0.9448819 Z M-11.338583,8.503937 L-22.677166,8.503937 L-22.677166,1.1338583 L-11.338583,8.503937 Z M1.8897638,1.1338583 L1.8897638,8.503937 L-9.448819,8.503937 L1.8897638,1.1338583 Z M-24.566929,-8.503937 L-24.566929,-0.9448819 L-32.125984,-0.9448819 L-32.125984,-7.5590553 A0.9448819,0.9448819 0 0 1 -31.181103,-8.503937 L-24.566929,-8.503937 Z M-10.393701,7.5590553 L-21.732283,-3.356895E-15 L-10.393701,-7.5590553 L0.9448819,-4.1961186E-15 L-10.393701,7.5590553 Z M-22.677166,-1.1338583 L-22.677166,-8.503937 L-11.338583,-8.503937 L-22.677166,-1.1338583 Z M1.8897638,-1.1338583 L-9.448819,-8.503937 L1.8897638,-8.503937 L1.8897638,-1.1338583 Z M11.338583,7.5590553 A0.9448819,0.9448819 0 0 1 10.393701,8.503937 L3.7795277,8.503937 L3.7795277,0.9448819 L11.338583,0.9448819 L11.338583,7.5590553 Z M3.7795277,-8.503937 L10.393701,-8.503937 A0.9448819,0.9448819 0 0 1 11.338583,-7.5590553 L11.338583,-0.9448819 L3.7795277,-0.9448819 L3.7795277,-8.503937 Z M13.228347,-8.503937 L31.181103,-8.503937 L31.181103,8.503937 L13.228347,8.503937 L13.228347,-8.503937 Z M34.015747,31.256693 L34.015747,10.469292 L-34.015747,10.469292 L-34.015747,31.256693 L34.015747,31.256693 Z M-32.125984,21.807875 L-24.566929,21.807875 L-24.566929,29.36693 L-31.181103,29.36693 A0.9448819,0.9448819 0 0 1 -32.125984,28.422047 L-32.125984,21.807875 Z M-11.338583,29.36693 L-22.677166,29.36693 L-22.677166,21.996851 L-11.338583,29.36693 Z M-10.393701,28.422047 L-21.732283,20.862991 L-10.393701,13.303937 L0.9448819,20.862991 L-10.393701,28.422047 Z M1.8897638,29.36693 L-9.448819,29.36693 L1.8897638,21.996851 L1.8897638,29.36693 Z M-24.566929,12.3590555 L-24.566929,19.91811 L-32.125984,19.91811 L-32.125984,13.303937 A0.9448819,0.9448819 0 0 1 -31.181103,12.3590555 L-24.566929,12.3590555 Z M-22.677166,19.729134 L-22.677166,12.3590555 L-11.338583,12.3590555 L-22.677166,19.729134 Z M-9.448819,12.3590555 L1.8897638,12.3590555 L1.8897638,19.729134 L-9.448819,12.3590555 Z M11.338583,21.807875 L11.338583,28.422047 A0.9448819,0.9448819 0 0 1 10.393701,29.36693 L3.7795277,29.36693 L3.7795277,21.807875 L11.338583,21.807875 Z M31.181103,12.3590555 L31.181103,29.36693 L13.228347,29.36693 L13.228347,12.3590555 L31.181103,12.3590555 Z M3.7795277,12.3590555 L10.393701,12.3590555 A0.9448819,0.9448819 0 0 1 11.338583,13.303937 L11.338583,19.91811 L3.7795277,19.91811 L3.7795277,12.3590555 Z" />
    </g>
  </g>
</svg>