<?xml version="1.0" encoding="utf-8"?>
<!DOCTYPE svg PUBLIC "-//W3C//DTD SVG 1.1//EN" "http://www.w3.org/Graphics/SVG/1.1/DTD/svg11.dtd">
<svg width="58mm" height="130mm" viewBox="0, 0, 219.2126, 491.3386" version="1.1" xmlns:xlink="http://www.w3.org/1999/xlink" xmlns:xml="http://www.w3.org/XML/1998/namespace" xmlns:sodipodi="http://sodipodi.sourceforge.net/DTD/sodipodi-0.dtd" xmlns:inkscape="http://www.inkscape.org/namespaces/inkscape" xmlns="http://www.w3.org/2000/svg">
  <sodipodi:namedview inkscape:document-units="mm" />
  <g id="Contours" transform="translate(109.6063,245.6693)">
    <g id="Layer0" stroke-width="0.37795275" style="stroke:black;fill:none;">
      <circle cx="-28.346457" cy="-17.952755" r="30.236221" />
      <path d="M71.81102,207.87401 L71.81102,-207.87401 L-71.81102,-207.87401 L-71.81102,207.87401 L71.81102,207.87401 Z M-7.5590553,151.1811 L-30.236221,151.1811 A15.118111,15.118111 0 1 1 -30.236221,120.944885 L-7.5590553,120.944885 A15.118111,15.118111 0 1 1 -7.5590553,151.1811 Z M-30.236221,-75.59055 L-51.02362,-75.59055 A7.5590553,7.5590553 0 0 1 -58.582676,-83.149605 L-58.582676,-124.72441 A7.5590553,7.5590553 0 0 1 -51.02362,-132.28346 L-30.236221,-132.28346 A7.5590553,7.5590553 0 0 1 -22.677166,-124.72441 L-22.677166,-83.149605 A7.5590553,7.5590553 0 0 1 -30.236221,-75.59055 Z" />
    </g>
    <g id="Layer1" stroke-width="0.37795275" style="stroke:black;fill:none;">
      <circle cx="-28.346457" cy="-17.952755" r="18.897638" />
      <path d="M71.81102,200.31496 L71.81102,-200.31496 L-71.81102,-200.31496 L-71.81102,200.31496 L71.81102,200.31496 Z M-7.5590553,151.1811 L-30.236221,151.1811 A15.118111,15.118111 0 1 1 -30.236221,120.944885 L-7.5590553,120.944885 A15.118111,15.118111 0 1 1 -7.5590553,151.1811 Z M-43.464565,-86.92913 A3.7795277,3.7795277 0 0 1 -47.244095,-90.708664 L-47.244095,-117.16535 A3.7795277,3.7795277 0 0 1 -43.464565,-120.944885 L-36.68828,-120.944885 A3.7795277,3.7795277 0 0 1 -32.90875,-117.16535 L-32.90875,-90.708664 A3.7795277,3.7795277 0 0 1 -36.68828,-86.92913 L-43.464565,-86.92913 Z" />
    </g>
  </g>
</svg>