<?xml version="1.0" encoding="utf-8"?>
<!DOCTYPE svg PUBLIC "-//W3C//DTD SVG 1.1//EN" "http://www.w3.org/Graphics/SVG/1.1/DTD/svg11.dtd">
<svg width="48.28427mm" height="40.41241mm" viewBox="0, 0, 182.4917, 152.7398" version="1.1" xmlns:xlink="http://www.w3.org/1999/xlink" xmlns:xml="http://www.w3.org/XML/1998/namespace" xmlns:sodipodi="http://sodipodi.sourceforge.net/DTD/sodipodi-0.dtd" xmlns:inkscape="http://www.inkscape.org/namespaces/inkscape" xmlns="http://www.w3.org/2000/svg">
  <sodipodi:namedview inkscape:document-units="mm" />
  <g id="Drawing" transform="translate(91.24586,84.08485)">
    <g id="Outline" stroke-width="0.7559055" style="stroke:black;fill:none;">
      <path d="M26.7253,-18.5185 L26.7253,-18.13046 L26.7253,-15.43253 L26.71399,-14.98108 L25.81465,-11.43632 L23.52364,-8.106841 L19.96447,-5.172152 L15.329,-2.790458 L9.867144,-1.090158 L3.873347,-0.162914 L-2.329263,-0.05871526 L-8.406301,-0.7831787 L-14.03015,-2.297248 L-18.89764,-4.5193 L-22.74635,-7.329543 L-25.36879,-10.57648 L-26.6236,-14.08506 L-26.7253,-15.43176 L-26.7253,-16.59063 L-26.7253,-18.51773 L-26.6236,-17.17103 L-25.36879,-13.66245 L-22.74635,-10.41551 L-18.89764,-7.605272 L-14.03015,-5.38322 L-8.406301,-3.86915 L-2.329263,-3.144687 L3.873347,-3.248885 L9.867144,-4.176129 L15.329,-5.87643 L19.96447,-8.258123 L23.52364,-11.19281 L25.81465,-14.52229 L26.71399,-18.06705 L26.7253,-18.5185 L26.17317,-21.63602 L24.22134,-25.03677 L20.96374,-28.08597 L16.57598,-30.61925 L11.2946,-32.50003 L5.404325,-33.62691 L-0.7772977,-33.93916 L-6.917016,-33.41993 L-12.68384,-32.09721 L-17.76687,-30.04232 L-21.89208,-27.36603 L-24.83709,-24.21263 L-26.44312,-20.75211 L-26.7253,-18.51773" />
      <path d="M-53.45059,-15.42986 L0,15.42986 L0,30.85971 L-53.45059,0 L-53.45059,-15.42986 L0,-46.28957 L53.45059,-15.42986 L0,15.42986" />
      <path d="M0,30.85971 L53.45059,0 L53.45059,-15.42986" />
    </g>
    <g id="HiddenOutline" stroke-width="0.3779528" stroke-dasharray="2 0.5" style="stroke:black;fill:none;">
      <path d="M-53.45059,0 L0,-30.85971" />
      <path d="M26.7253,-15.43253 L26.17317,-18.55005 L24.22134,-21.9508 L20.96374,-25 L16.57598,-27.53328 L11.2946,-29.41406 L5.404325,-30.54094 L-0.7772977,-30.85319 L-6.917016,-30.33395 L-12.68384,-29.01124 L-17.76687,-26.95635 L-21.89208,-24.28006 L-24.83709,-21.12665 L-26.44312,-17.66613 L-26.7253,-15.43176" />
      <path d="M0,-30.85971 L53.45059,0" />
      <path d="M0,-30.85971 L0,-46.28957" />
    </g>
  </g>
</svg>