<?xml version="1.0" encoding="utf-8"?>
<!DOCTYPE svg PUBLIC "-//W3C//DTD SVG 1.1//EN" "http://www.w3.org/Graphics/SVG/1.1/DTD/svg11.dtd">
<svg width="48.28427mm" height="40.412415mm" viewBox="0, 0, 182.49173, 152.73984" version="1.1" xmlns:xlink="http://www.w3.org/1999/xlink" xmlns:xml="http://www.w3.org/XML/1998/namespace" xmlns:sodipodi="http://sodipodi.sourceforge.net/DTD/sodipodi-0.dtd" xmlns:inkscape="http://www.inkscape.org/namespaces/inkscape" xmlns="http://www.w3.org/2000/svg">
  <sodipodi:namedview inkscape:document-units="mm" />
  <g id="Drawing" transform="translate(91.245865,84.08485)">
    <g id="HiddenOutline" stroke-width="0.37795275" stroke-dasharray="2 0.5" style="stroke:black;fill:none;">
      <path d="M-53.450592,-0 L0,-30.859713 M26.725296,-15.432526 L26.173168,-18.550045 L24.221344,-21.950796 L20.963741,-25.000002 L16.575977,-27.533278 L11.294598,-29.414057 L5.4043245,-30.540941 L-0.77729774,-30.853186 L-6.9170156,-30.333954 L-12.683835,-29.011238 L-17.766867,-26.956347 L-21.89208,-24.280058 L-24.837088,-21.126654 L-26.443121,-17.666134 L-26.725296,-15.431758 M0,-30.859713 L53.450592,-0 M0,-30.859713 L0,-46.28957" />
    </g>
    <g id="Outline" stroke-width="0.7559055" style="stroke:black;fill:none;">
      <path d="M26.725296,-18.518497 L26.725296,-18.130457 L26.725296,-15.432526 L26.71399,-14.981084 L25.814653,-11.436316 L23.523642,-8.106841 L19.964466,-5.1721516 L15.3289995,-2.790458 L9.867144,-1.0901576 L3.8733468,-0.16291401 L-2.329263,-0.05871526 L-8.4063015,-0.78317875 L-14.030154,-2.2972484 L-18.897638,-4.5193005 L-22.746346,-7.329543 L-25.36879,-10.576476 L-26.623598,-14.085056 L-26.725296,-15.431758 L-26.725296,-16.590631 L-26.725296,-18.517729 L-26.623598,-17.171028 L-25.36879,-13.662448 L-22.746346,-10.415515 L-18.897638,-7.605272 L-14.030154,-5.3832197 L-8.4063015,-3.8691502 L-2.329263,-3.1446867 L3.8733468,-3.2488854 L9.867144,-4.176129 L15.3289995,-5.8764296 L19.964466,-8.258123 L23.523642,-11.192812 L25.814653,-14.522287 L26.71399,-18.067055 L26.725296,-18.518497 L26.173168,-21.636017 L24.221344,-25.036768 L20.963741,-28.085972 L16.575977,-30.61925 L11.294598,-32.500027 L5.4043245,-33.626915 L-0.77729774,-33.939156 L-6.9170156,-33.419926 L-12.683835,-32.09721 L-17.766867,-30.042318 L-21.89208,-27.36603 L-24.837088,-24.212626 L-26.443121,-20.752106 L-26.725296,-18.517729 M-53.450592,-15.429856 L0,15.429856 L0,30.859713 L-53.450592,-0 L-53.450592,-15.429856 L0,-46.28957 L53.450592,-15.429856 L0,15.429856 M0,30.859713 L53.450592,-0 L53.450592,-15.429856" />
    </g>
  </g>
</svg>