<?xml version="1.0" encoding="utf-8"?>
<!DOCTYPE svg PUBLIC "-//W3C//DTD SVG 1.1//EN" "http://www.w3.org/Graphics/SVG/1.1/DTD/svg11.dtd">
<svg width="59.642014mm" height="113.08061mm" viewBox="0, 0, 225.41864, 427.3913" version="1.1" xmlns:xlink="http://www.w3.org/1999/xlink" xmlns:xml="http://www.w3.org/XML/1998/namespace" xmlns:sodipodi="http://sodipodi.sourceforge.net/DTD/sodipodi-0.dtd" xmlns:inkscape="http://www.inkscape.org/namespaces/inkscape" xmlns="http://www.w3.org/2000/svg">
  <sodipodi:namedview inkscape:document-units="mm" />
  <g id="Drawing" transform="translate(97.92719,342.53494)">
    <g id="Inline" stroke-width="0.37795275" style="stroke:black;fill:none;">
      <path d="M-3.340662,-45.903824 L-3.340662,-55.16174 M81.60349,-119.634125 L82.441986,-119.152596 M72.3574,-179.10129 L73.218376,-178.60686 M37.72183,-223.90984 L38.761852,-223.31258 M-3.340662,-175.51462 L-3.340662,-184.77254 M-3.340662,-110.70922 L-3.340662,-119.96713" />
    </g>
    <g id="HiddenOutline" stroke-width="0.37795275" stroke-dasharray="2 0.5" style="stroke:black;fill:none;">
      <path d="M-15.672569,-277.9087 A5.6692915,3.273167 0 0 0 -14.012073,-275.5942 A5.6692915,3.273167 0 0 0 -4.3339868,-277.9087 M17.371443,-304.73965 L-24.134876,-249.98598 M-22.662668,-244.53215 Q-19.703049,-238.20476 -10.756971,-235.33365 M-10.762029,-237.63332 A5.6692915,3.273167 0 0 1 -14.012073,-238.56256 A5.6692915,3.273167 0 0 1 -15.672569,-240.87703 M-22.662668,-235.27423 L-22.662668,-244.53215 L-1.2824324,-256.87604 M-0.18232146,-256.24088 L-1.2824324,-256.87604 L-1.2824324,-247.61812 M-5.6692915,-246.8777 A5.6692915,3.273167 0 0 0 -4.3339868,-244.76762 A5.6692915,3.273167 0 0 1 -5.6692915,-246.8777 Z M-4.3339868,-248.9878 A5.6692915,3.273167 0 0 0 -5.6692915,-246.8777 L-5.6692915,-237.6198 M-4.3339868,-240.87703 L-4.3339868,-231.61913 L-4.3339868,-240.87703 Z M0.9500972,-241.23453 L3.5989394,-242.76382 M4.9342914,-242.00475 L2.6396065,-240.77776 M2.286362,-240.46303 L0.9500972,-241.23453 L0.98074114,-226.5067 M2.3170059,-225.7352 L2.286362,-240.46303 L4.935204,-241.99234 M13.563379,-234.71187 L15.480468,-237.70226 M17.31761,-236.87938 L-1.2824324,-247.61812 L-22.662668,-235.27423 Q-19.69968,-228.93964 -10.736596,-226.0692 M-5.6692915,-224.81058 L-5.6692915,-246.8777 A5.6692915,3.273167 0 0 1 -4.3339868,-248.9878 M-4.3339868,-250.76414 L-4.3339868,-277.9087 A5.6692915,3.273167 0 1 0 -15.672569,-277.9087 L-15.672569,-231.61913 A5.6692915,3.273167 0 0 0 -14.012073,-229.30464 A5.6692915,3.273167 0 0 0 -4.3339868,-231.61913 A5.6692915,3.273167 0 1 0 -15.672569,-231.61913 A5.6692915,3.273167 0 0 0 -14.012073,-229.30464 A5.6692915,3.273167 0 0 0 -4.3339868,-231.61913 A5.6692915,3.273167 0 1 0 -15.672569,-231.61913 L-15.672569,-240.87703 A5.6692915,3.273167 0 0 1 -9.363571,-244.1293 M-10.772228,-242.27104 L-24.134876,-249.98598 L-23.572226,5.850905 M-19.464355,5.786196 A9.442369,5.4515543 180 0 0 -1.4226407,8.037832 Q-0.45560598,7.1961856 0.6320882,6.536879 L-12.026383,-0.77149284 L-14.698913,13.115378 M-10.209578,13.565833 L-23.572226,5.850905 L-12.026383,-0.77149284 M-13.956144,0.83036697 L-13.956144,-8.427547 M-10.255231,-7.1926556 A3.7795277,2.1821113 0 0 0 -13.801514,-5.0147033 L-13.801514,5.786196 A3.7795277,2.1821113 0 0 0 -12.694515,7.3291817 A3.7795277,2.1821113 0 0 0 -6.2424583,5.786196 A3.7795277,2.1821113 0 1 0 -13.801514,5.786196 A3.7795277,2.1821113 0 0 0 -12.694515,7.3291817 A3.7795277,2.1821113 0 0 0 -6.2424583,5.786196 A3.7795277,2.1821113 0 1 0 -13.801514,5.786196 L-13.801514,-3.4717178 M-19.464355,-3.4717178 A9.442369,5.4515543 180 0 1 -13.956144,-8.427547 Q-11.887615,-9.182797 -10.261939,-10.242702 M-5.6692915,-9.257914 L-5.6692915,-0 L-5.6692915,-9.257914 Z M-1.3362647,-14.658363 L-1.3362647,-5.4004498 M5.6692915,-9.257914 L5.6692915,-0 A5.6692915,3.273167 0 1 0 -5.6692915,-4.0084733E-16 A5.6692915,3.273167 0 0 0 -4.0087943,2.3144784 A5.6692915,3.273167 0 0 0 5.6692915,8.0169466E-16 A5.6692915,3.273167 0 1 0 -5.6692915,-4.0084733E-16 A5.6692915,3.273167 0 0 0 -4.0087943,2.3144784 A5.6692915,3.273167 0 0 0 5.6692915,8.0169466E-16 L5.6692915,-9.257914 Z M2.6712687,-12.248792 L5.343798,-10.705806 M9.495568,-13.102832 L6.823039,-14.645817 M5.8837523,-15.118842 L-1.3362647,-14.658363 A9.145947,5.280415 360 0 0 -5.6692915,-13.611851 M-7.936173,-12.141849 L-7.936173,-2.8839343 M-6.2424583,-3.4717178 L-6.2424583,5.786196 L-6.2424583,-3.4717178 A3.7795277,2.1821113 0 1 0 -13.801514,-3.4717178 A3.7795277,2.1821113 0 0 0 -12.694515,-1.928732 A3.7795277,2.1821113 0 0 0 -10.242257,-1.2933155 M-10.235062,1.9784485 A9.442369,5.4515543 180 0 1 -19.464355,-3.4717178 L-19.464355,5.786196 A9.442369,5.4515543 180 0 1 -13.956144,0.83036697 Q-10.226191,-0.5314944 -7.936173,-2.8839343 A9.145947,5.280415 360 0 1 -1.3362647,-5.4004498 L5.8837523,-5.860928 L5.8837523,-15.118842 L9.356726,-13.117037 L9.356726,-3.8591223 M9.495568,-3.9938745 L40.087944,-21.601799 Q61.169292,-33.77312 73.04216,-49.88584 M73.17367,-49.961765 L73.17367,-48.88001 M73.847496,-48.494232 L73.17367,-48.88001 C72.34318,-47.850033 71.49909,-46.839573 70.641556,-45.852543 C69.78403,-44.865513 68.91304,-43.901943 68.02993,-42.964584 C66.546165,-41.389668 65.02807,-39.88953 63.486374,-38.465893 C61.94468,-37.04226 60.379578,-35.69451 58.801685,-34.412918 C57.410603,-33.283054 56.009842,-32.204414 54.60343,-31.166796 C53.19702,-30.129177 51.784977,-29.132511 50.37013,-28.167713 C48.955276,-27.202915 47.53763,-26.269987 46.11873,-25.361414 C44.699833,-24.45284 43.279686,-23.568645 41.858555,-22.70267 L41.843967,-22.615639 L9.356726,-3.8591223 L5.8837523,-5.860928 M6.823039,-5.53686 L37.415413,-23.144785 Q85.52094,-50.918526 85.67731,-99.21539 M88.34984,-97.6724 L85.67731,-99.21539 C86.79472,-150.08281 81.560196,-202.72813 37.31709,-229.24078 M40.363983,-224.17393 L40.508606,-224.08125 L40.64443,-223.9744 L40.771027,-223.85368 L40.888,-223.71951 L40.994976,-223.5723 L41.091618,-223.4125 L41.17762,-223.24066 L41.252712,-223.05728 L41.31666,-222.86295 L41.36926,-222.6583 L41.41034,-222.44394 L41.439777,-222.22057 L41.457478,-221.9889 L41.463383,-221.74966 L41.463383,-221.13246 L41.439857,-220.63515 L41.369576,-220.11693 L41.25342,-219.58432 L41.092854,-219.044 L40.889893,-218.50279 L40.647095,-217.96748 L40.367508,-217.44481 L40.05465,-216.94135 L39.712456,-216.46341 L39.34523,-216.01704 L38.957584,-215.60782 L38.5544,-215.24092 L38.14075,-214.92094 L37.72183,-214.65192 L9.34591,-198.26907 L5.7797236,-200.29686 M5.6692915,-203.6741 L5.6692915,-194.4162 A5.6692915,3.273167 0 1 0 -5.6692915,-194.4162 A5.6692915,3.273167 0 0 0 -4.0087943,-192.10172 A5.6692915,3.273167 0 0 0 5.6692915,-194.4162 M5.6692915,-190.03041 L5.6692915,-203.6741 M4.1203623,-205.92233 A5.6692915,3.273167 0 0 0 3.894031,-206.053 M2.6443176,-206.77452 L5.3168473,-205.23154 M5.6692915,-205.43503 L5.3168473,-205.23154 L5.312136,-239.23477 M4.9588914,-238.92163 L4.9895353,-224.1938 M5.6692915,-223.80135 L4.9895353,-224.1938 L14.144203,-238.47374 M11.471674,-240.01515 L2.3170059,-225.7352 L0.98074114,-226.5067 L10.135408,-240.78664 L11.471674,-240.01515 L4.935204,-241.99234 L3.5989394,-242.76382 L10.135408,-240.78664 M8.943998,-239.67944 L6.2951565,-238.15013 M5.6692915,-237.6198 A5.6692915,3.273167 0 1 0 -5.6692915,-237.6198 A5.6692915,3.273167 0 0 0 -4.0087943,-235.30531 A5.6692915,3.273167 0 0 0 5.6692915,-237.6198 L5.6692915,-246.8777 L5.6692915,-230.15422 M6.3110223,-230.52472 L6.2951565,-238.15013 L4.9588914,-238.92163 L7.6077337,-240.45093 L14.144203,-238.47374 L15.480468,-237.70226 L8.943998,-239.67944 L7.6077337,-240.45093 M7.606821,-240.46175 L4.9342914,-242.00475 C9.286357,-240.97075 13.410291,-239.77777 17.31761,-238.43564 M17.31761,-237.77647 C14.214069,-238.76398 10.978926,-239.6606 7.606821,-240.46175 L5.312136,-239.23477 L2.6396065,-240.77776 L2.6443176,-206.77452 L6.823039,-209.1871 L6.823039,-199.94395 L2.6455982,-197.53212 L2.6488087,-174.35884 L6.823039,-176.76883 L6.823039,-167.52568 L2.6500893,-165.11642 L2.6532955,-141.9743 L6.823039,-144.38171 L6.823039,-135.13857 L2.654576,-132.7319 L2.6577826,-109.58897 L6.823039,-111.99378 L6.823039,-102.75063 L2.6590629,-100.34656 L2.6622734,-77.174095 L6.823039,-79.57631 L6.823039,-70.33317 L2.663554,-67.93169 L2.6667604,-44.788754 L6.823039,-47.18838 L6.823039,-37.945232 L2.6680408,-35.546345 L2.6712687,-12.248792 L6.823039,-14.645817 L6.823039,-5.53686 L9.495568,-3.9938745 L9.495568,-13.102832 L5.343798,-10.705806 L5.3405704,-34.003357 M5.6692915,-32.4027 A5.6692915,3.273167 0 1 0 -5.6692915,-32.4027 A5.6692915,3.273167 0 0 0 -4.0087943,-30.08822 A5.6692915,3.273167 0 0 0 5.6692915,-32.4027 L5.6692915,-41.660614 L5.6692915,-28.037922 M5.3405704,-34.003357 L2.6680408,-35.546345 M5.3405704,-34.003357 L9.495568,-36.40225 L6.823039,-37.945232 M6.681324,-37.80315 L75.08795,-77.29773 L75.50688,-77.56677 L75.92055,-77.88676 L76.323746,-78.25366 L76.711395,-78.66288 L77.078636,-79.10926 L77.42084,-79.5872 L77.7337,-80.09067 L78.0133,-80.61334 L78.25611,-81.14866 L78.459076,-81.68988 L78.619644,-82.230194 L78.7358,-82.76281 L78.80609,-83.28104 L78.82961,-83.77834 L78.82961,-84.39554 L78.82379,-84.633156 L78.806335,-84.863304 L78.7773,-85.08527 L78.73678,-85.29837 L78.6849,-85.50193 L78.62181,-85.69531 L78.54773,-85.87793 L78.462875,-86.0492 L78.36751,-86.208595 L78.26193,-86.35562 L78.14647,-86.489815 L78.02149,-86.61077 L77.887375,-86.718094 L77.744545,-86.81146 L77.04559,-87.22163 L77.194984,-87.124405 L77.335266,-87.013466 L77.46599,-86.889145 L77.586754,-86.75183 L77.69718,-86.60196 L77.79693,-86.439995 L77.88569,-86.26643 L77.96317,-86.08182 L78.02916,-85.886734 L78.08342,-85.68178 L78.12581,-85.46759 L78.15617,-85.244835 L78.17443,-85.01421 L78.18053,-84.77644 L78.18053,-84.15925 L78.155914,-83.662575 L78.082405,-83.14625 L77.96091,-82.61676 L77.79296,-82.08077 L77.580666,-81.54503 L77.3267,-81.01626 L77.034256,-80.50112 L76.707016,-80.00609 L76.34908,-79.537384 L75.96497,-79.10091 L75.5595,-78.70214 L75.13778,-78.34611 L74.70511,-78.03728 L74.26692,-77.77953 L2.133623,-39.822693 Q-0.4135446,-38.334106 -2.1743243,-37.85141 L-2.1743243,-47.109325 Q-0.4135446,-47.592022 2.133623,-49.080605 L74.26692,-87.037445 L74.4875,-87.14665 L74.70739,-87.241776 L74.92587,-87.32251 L75.14226,-87.3886 L75.35586,-87.43984 L75.566,-87.47607 L75.77201,-87.49716 L75.973236,-87.50306 L76.16904,-87.493744 L76.35879,-87.46924 L76.54189,-87.42963 L76.717766,-87.37503 L76.88584,-87.30562 L77.04559,-87.22163 M77.744545,-86.81146 L77.59181,-86.89134 L77.431114,-86.95641 L77.26297,-87.00647 L77.08791,-87.04137 L76.906494,-87.06098 L76.7193,-87.06525 L76.52692,-87.05416 L76.329956,-87.027756 L76.12904,-86.986115 L75.92483,-86.92937 L75.71795,-86.8577 L75.50906,-86.771324 L75.29884,-86.67054 L75.08795,-86.55565 L6.681324,-47.06106 L6.681324,-37.80315 L10.16451,-35.802402 M9.495568,-36.40225 L9.495568,-45.444557 M9.495568,-45.645393 L6.823039,-47.18838 M6.681324,-47.06106 L9.321194,-45.54472 M5.6692915,-43.436295 L5.33929,-43.245766 L2.6667604,-44.788754 M5.33929,-43.245766 L5.3360834,-66.3887 L9.495568,-68.79018 L6.823039,-70.33317 M5.7608232,-70.7373 L9.353853,-68.662865 L9.353853,-77.92078 M9.327239,-77.93614 L5.7608232,-79.99522 L-1.3362647,-79.46376 A9.145947,5.280415 360 0 0 -5.6692915,-78.41725 M-7.936173,-76.94724 L-7.936173,-67.68933 Q-10.226191,-65.33689 -13.956144,-63.975033 L-13.956144,-73.23295 A9.442369,5.4515543 180 0 0 -19.464355,-68.277115 L-19.464355,-59.019203 A9.442369,5.4515543 180 0 1 -13.956144,-63.975033 M-16.70331,-62.876667 L-16.010256,-63.22829 L-15.241896,-63.526985 L-14.407892,-63.76899 L-13.518734,-63.951263 L-12.585602,-64.07151 L-11.620231,-64.12823 L-10.634761,-64.1207 L-9.641584,-64.049 L-8.6531925,-63.914066 L-7.682013,-63.717567 L-6.7402606,-63.461987 L-5.839778,-63.15053 L-4.991889,-62.78713 L-4.207256,-62.37634 L-3.8104758,-62.13475 L-3.4368358,-61.881554 L-3.087728,-61.6177 L-2.7644534,-61.34416 L-2.4682157,-61.06196 L-2.2001188,-60.77215 L-1.9611614,-60.47581 L-1.7522337,-60.17404 L-1.5741142,-59.867973 L-1.4274663,-59.558743 L-1.3128363,-59.2475 L-1.2306514,-58.93541 L-1.1812177,-58.62363 L-1.1647192,-58.313328 L-1.1647192,-56.98702 M-1.1647192,-58.313328 L-1.174004,-58.082222 L-1.2018386,-57.85308 L-1.2481648,-57.626385 L-1.3128855,-57.40261 L-1.395865,-57.182224 L-1.4969292,-56.96569 L-1.6158663,-56.75346 L-1.752427,-56.54598 L-1.906325,-56.343685 L-2.0772376,-56.147 L-2.2648065,-55.956337 L-2.4686384,-55.772095 L-2.688306,-55.59466 L-2.923349,-55.424404 M-4.207256,-53.118423 L-4.991889,-53.529213 L-5.839778,-53.89262 L-6.7402606,-54.20407 L-7.682013,-54.459652 L-8.6531925,-54.65615 L-9.641584,-54.791092 L-10.634761,-54.86278 L-11.620231,-54.870316 L-12.585602,-54.8136 L-13.518734,-54.693348 L-14.407892,-54.511074 L-15.241896,-54.26907 L-16.010256,-53.970375 L-16.70331,-53.61875 L-23.384634,-49.761288 L-23.384634,-59.019203 L-16.70331,-62.876667 M-19.464355,-59.019203 A9.442369,5.4515543 180 0 0 -10.357229,-53.571083 M-10.352664,-51.49519 L-23.384634,-59.019203 M-23.384634,-49.761288 L-10.332277,-42.225506 M-9.352238,-42.43304 A9.448133,5.4548826 180 0 1 -6.6729302,-45.52124 Q-5.309525,-46.37431 -2.1743243,-47.109325 M-1.1647192,-49.055412 L-1.1812177,-49.36572 L-1.2306514,-49.677498 L-1.3128363,-49.98959 L-1.4274663,-50.30083 L-1.5741142,-50.61006 L-1.7522337,-50.91613 L-1.9611614,-51.217896 L-2.2001188,-51.514236 L-2.4682157,-51.804047 L-2.7644534,-52.086246 L-3.087728,-52.359783 L-3.4368358,-52.623642 L-3.8104758,-52.876835 L-4.207256,-53.118423 M-6.2424583,-49.761288 A3.7795277,2.1821113 0 1 0 -13.801514,-49.761288 A3.7795277,2.1821113 0 0 0 -12.694515,-48.218304 A3.7795277,2.1821113 0 0 0 -6.2424583,-49.761288 L-6.2424583,-59.019203 A3.7795277,2.1821113 0 1 0 -13.801514,-59.019203 L-13.801514,-49.761288 M-13.801514,-48.218304 L-13.801514,-69.8201 A3.7795277,2.1821113 0 0 0 -12.694515,-68.277115 A3.7795277,2.1821113 0 0 0 -10.388188,-67.648254 M-10.384794,-66.10508 A3.7795277,2.1821113 0 0 1 -12.694515,-66.73413 A3.7795277,2.1821113 0 0 1 -13.801514,-68.277115 L-13.801514,-59.019203 A3.7795277,2.1821113 0 0 0 -12.694515,-57.476215 A3.7795277,2.1821113 0 0 0 -6.2424583,-59.019203 A3.7795277,2.1821113 0 1 0 -13.801514,-59.019203 A3.7795277,2.1821113 0 0 0 -12.694515,-57.476215 A3.7795277,2.1821113 0 0 0 -6.2424583,-59.019203 L-6.2424583,-68.277115 A3.7795277,2.1821113 0 1 0 -13.801514,-68.277115 M-13.801514,-69.8201 A3.7795277,2.1821113 0 0 1 -10.39774,-71.9914 M-10.404261,-74.95643 Q-11.977628,-73.95533 -13.956144,-73.23295 M-19.464355,-68.277115 A9.442369,5.4515543 180 0 0 -10.37759,-62.82943 M-5.6692915,-64.8054 L-5.6692915,-74.06331 L-5.6692915,-44.559387 M-6.6729302,-45.52124 L-6.6729302,-36.263325 Q-5.309525,-37.116398 -2.1743243,-37.85141 M2.133623,-39.822693 L2.133623,-49.080605 M-6.2424583,-48.218304 L-6.2424583,-68.277115 M-7.936173,-67.68933 A9.145947,5.280415 360 0 1 -1.3362647,-70.20585 L-1.3362647,-79.46376 M2.6622734,-77.174095 L5.334803,-75.63111 L5.6692915,-75.82423 M5.334803,-75.63111 L5.3315926,-98.80357 L9.495568,-101.20765 L6.823039,-102.75063 M6.681324,-102.60854 L10.16451,-100.6078 M9.495568,-101.20765 L9.495568,-110.249954 M9.495568,-110.45079 L6.823039,-111.99378 M6.681324,-111.86646 L9.321194,-110.35012 M6.681324,-111.86646 L75.08795,-151.36104 L75.29884,-151.47594 L75.50906,-151.57672 L75.71795,-151.66309 L75.92483,-151.73477 L76.12904,-151.79152 L76.329956,-151.83316 L76.52692,-151.85956 L76.7193,-151.87065 L76.906494,-151.86638 L77.08791,-151.84677 L77.26297,-151.81187 L77.431114,-151.76181 L77.59181,-151.69673 L77.744545,-151.61687 L77.04559,-152.02702 L77.194984,-151.92981 L77.335266,-151.81886 L77.46599,-151.69455 L77.586754,-151.55724 L77.69718,-151.40736 L77.79693,-151.24539 L77.88569,-151.07182 L77.96317,-150.88722 L78.02916,-150.69214 L78.08342,-150.48717 L78.12581,-150.273 L78.15617,-150.05023 L78.17443,-149.81961 L78.18053,-149.58183 L78.18053,-148.96465 L78.155914,-148.46797 L78.082405,-147.95164 L77.96091,-147.42216 L77.79296,-146.88617 L77.580666,-146.35043 L77.3267,-145.82166 L77.034256,-145.30652 L76.707016,-144.81148 L76.34908,-144.34279 L75.96497,-143.9063 L75.5595,-143.50754 L75.13778,-143.1515 L74.70511,-142.84267 L74.26692,-142.58493 L2.133623,-104.62809 Q-0.4135446,-103.1395 -2.1743243,-102.65681 L-2.1743243,-111.91473 Q-0.4135446,-112.397415 2.133623,-113.886 L74.26692,-151.84285 L74.4875,-151.95206 L74.70739,-152.04716 L74.92587,-152.1279 L75.14226,-152.194 L75.35586,-152.24524 L75.566,-152.28146 L75.77201,-152.30257 L75.973236,-152.30846 L76.16904,-152.29913 L76.35879,-152.27463 L76.54189,-152.23502 L76.717766,-152.18042 L76.88584,-152.11102 L77.04559,-152.02702 M77.744545,-151.61687 L77.887375,-151.5235 L78.02149,-151.41617 L78.14647,-151.29521 L78.26193,-151.16103 L78.36751,-151.01399 L78.462875,-150.8546 L78.54773,-150.68332 L78.62181,-150.50072 L78.6849,-150.30733 L78.73678,-150.10376 L78.7773,-149.89067 L78.806335,-149.6687 L78.82379,-149.43855 L78.82961,-149.20094 L78.82961,-148.58374 L78.80609,-148.08643 L78.7358,-147.5682 L78.619644,-147.0356 L78.459076,-146.49527 L78.25611,-145.95406 L78.0133,-145.41875 L77.7337,-144.89606 L77.42084,-144.3926 L77.078636,-143.91466 L76.711395,-143.46828 L76.323746,-143.05907 L75.92055,-142.69215 L75.50688,-142.37216 L75.08795,-142.10313 L6.681324,-102.60854 L6.681324,-111.86646 M5.6692915,-108.24169 L5.330312,-108.04598 L2.6577826,-109.58897 M5.330312,-108.04598 L5.3271055,-131.18892 L9.495568,-133.59558 L6.823039,-135.13857 M5.755105,-135.54604 L-1.3362647,-135.01125 A9.145947,5.280415 360 0 0 -7.936173,-132.49474 Q-10.226191,-130.14229 -13.956144,-128.78043 L-13.956144,-138.03835 A9.442369,5.4515543 180 0 0 -19.464355,-133.08252 L-19.464355,-123.8246 A9.442369,5.4515543 180 0 1 -13.956144,-128.78043 M-16.70331,-127.68206 L-16.010256,-128.03369 L-15.241896,-128.33238 L-14.407892,-128.57439 L-13.518734,-128.75667 L-12.585602,-128.8769 L-11.620231,-128.93362 L-10.634761,-128.92609 L-9.641584,-128.8544 L-8.6531925,-128.71947 L-7.682013,-128.52296 L-6.7402606,-128.26738 L-5.839778,-127.95593 L-4.991889,-127.59252 L-4.207256,-127.18173 L-3.8104758,-126.94015 L-3.4368358,-126.68695 L-3.087728,-126.423096 L-2.7644534,-126.14956 L-2.4682157,-125.867355 L-2.2001188,-125.577545 L-1.9611614,-125.281204 L-1.7522337,-124.97944 L-1.5741142,-124.67337 L-1.4274663,-124.36414 L-1.3128363,-124.0529 L-1.2306514,-123.74081 L-1.1812177,-123.42903 L-1.1647192,-123.11872 L-1.1647192,-121.79241 M-1.1647192,-123.11872 L-1.174004,-122.88762 L-1.2018386,-122.65848 L-1.2481648,-122.431786 L-1.3128855,-122.20801 L-1.395865,-121.987625 L-1.4969292,-121.77109 L-1.6158663,-121.55886 L-1.752427,-121.35138 L-1.906325,-121.149086 L-2.0772376,-120.9524 L-2.2648065,-120.761734 L-2.4686384,-120.57749 L-2.688306,-120.400055 L-2.923349,-120.229805 M-4.207256,-117.92382 L-4.991889,-118.33461 L-5.839778,-118.69802 L-6.7402606,-119.00947 L-7.682013,-119.26505 L-8.6531925,-119.46155 L-9.641584,-119.59649 L-10.634761,-119.668175 L-11.620231,-119.67571 L-12.585602,-119.618996 L-13.518734,-119.49875 L-14.407892,-119.316475 L-15.241896,-119.07447 L-16.010256,-118.77577 L-16.70331,-118.42415 L-23.384634,-114.56669 L-23.384634,-123.8246 L-16.70331,-127.68206 M-19.464355,-123.8246 A9.442369,5.4515543 180 0 0 -10.499761,-118.38003 M-10.495368,-116.38298 L-23.384634,-123.8246 M-23.384634,-114.56669 L-10.474982,-107.1133 M-9.352238,-107.238434 A9.448133,5.4548826 180 0 1 -6.6729302,-110.32664 Q-5.309525,-111.17971 -2.1743243,-111.91473 M-1.1647192,-113.86081 L-1.1812177,-114.17111 L-1.2306514,-114.482895 L-1.3128363,-114.79498 L-1.4274663,-115.106224 L-1.5741142,-115.41546 L-1.7522337,-115.72153 L-1.9611614,-116.02329 L-2.2001188,-116.31963 L-2.4682157,-116.60944 L-2.7644534,-116.89164 L-3.087728,-117.165184 L-3.4368358,-117.42904 L-3.8104758,-117.682236 L-4.207256,-117.92382 M-6.2424583,-114.56669 A3.7795277,2.1821113 0 1 0 -13.801514,-114.56669 A3.7795277,2.1821113 0 0 0 -12.694515,-113.0237 A3.7795277,2.1821113 0 0 0 -6.2424583,-114.56669 L-6.2424583,-123.8246 A3.7795277,2.1821113 0 1 0 -13.801514,-123.8246 L-13.801514,-114.56669 M-13.801514,-113.0237 L-13.801514,-134.6255 A3.7795277,2.1821113 0 0 0 -12.694515,-133.08252 A3.7795277,2.1821113 0 0 0 -10.530733,-132.46324 M-10.527339,-130.92 A3.7795277,2.1821113 0 0 1 -12.694515,-131.53954 A3.7795277,2.1821113 0 0 1 -13.801514,-133.08252 L-13.801514,-123.8246 A3.7795277,2.1821113 0 0 0 -12.694515,-122.28162 A3.7795277,2.1821113 0 0 0 -6.2424583,-123.8246 A3.7795277,2.1821113 0 1 0 -13.801514,-123.8246 A3.7795277,2.1821113 0 0 0 -12.694515,-122.28162 A3.7795277,2.1821113 0 0 0 -6.2424583,-123.8246 L-6.2424583,-133.08252 A3.7795277,2.1821113 0 1 0 -13.801514,-133.08252 M-13.801514,-134.6255 A3.7795277,2.1821113 0 0 1 -10.540242,-136.787 M-10.546588,-139.67235 Q-12.066601,-138.72824 -13.956144,-138.03835 M-7.936173,-141.75264 L-7.936173,-132.49474 M-6.2424583,-133.08252 L-6.2424583,-113.0237 A3.7795277,2.1821113 0 1 0 -13.801514,-113.0237 A3.7795277,2.1821113 0 0 0 -12.694515,-111.48071 A3.7795277,2.1821113 0 0 0 -6.2424583,-113.0237 M-6.6729302,-110.32664 L-6.6729302,-101.068726 Q-5.309525,-101.92179 -2.1743243,-102.65681 M2.133623,-104.62809 L2.133623,-113.886 M5.6692915,-106.46601 L5.6692915,-97.2081 A5.6692915,3.273167 0 1 0 -5.6692915,-97.2081 L-5.6692915,-106.46601 L-5.6692915,-92.84374 M-4.0087943,-94.893616 A5.6692915,3.273167 0 0 0 5.6692915,-97.2081 M5.3315926,-98.80357 L2.6590629,-100.34656 M5.6692915,-106.46601 L5.6692915,-92.84332 M-4.0087943,-94.893616 A5.6692915,3.273167 0 0 1 -5.6692915,-97.2081 M-9.447649,-97.20726 A9.448133,5.4548826 180 0 1 -6.6729302,-101.068726 M-5.6692915,-109.364784 L-5.6692915,-138.86871 L-5.6692915,-129.6108 A5.6692915,3.273167 0 0 0 -4.0087943,-127.29632 A5.6692915,3.273167 0 0 0 5.6692915,-129.6108 L5.6692915,-138.86871 L5.6692915,-125.225006 M5.6692915,-129.6108 A5.6692915,3.273167 0 1 0 -5.6692915,-129.6108 M-10.520123,-127.63855 A9.442369,5.4515543 180 0 1 -19.464355,-133.08252 M-5.6692915,-143.22264 A9.145947,5.280415 360 0 1 -1.3362647,-144.26917 L-1.3362647,-135.01125 M2.654576,-132.7319 L5.3271055,-131.18892 M5.755105,-135.54604 L5.755105,-144.80396 L-1.3362647,-144.26917 M2.6532955,-141.9743 L5.325825,-140.43132 L5.6692915,-140.62962 M5.325825,-140.43132 L5.322619,-163.57344 L9.495568,-165.9827 L6.823039,-167.52568 M6.681324,-167.41394 L54.76385,-195.17441 L55.182785,-195.44344 L55.59645,-195.76343 L55.999645,-196.13034 L56.3873,-196.53955 L56.75454,-196.98593 L57.096745,-197.46387 L57.40961,-197.96733 L57.689205,-198.49002 L57.93201,-199.02533 L58.134975,-199.56654 L58.295547,-200.10687 L58.411705,-200.63948 L58.48199,-201.1577 L58.50552,-201.65501 L58.50552,-202.27222 L58.499695,-202.50983 L58.482235,-202.73997 L58.4532,-202.96194 L58.41268,-203.17505 L58.360798,-203.3786 L58.297718,-203.57199 L58.223633,-203.7546 L58.138775,-203.92587 L58.04341,-204.08527 L57.93783,-204.2323 L57.822376,-204.36649 L57.69739,-204.48744 L57.56328,-204.59477 L57.420444,-204.68814 L56.70215,-205.10965 L56.85409,-205.01094 L56.99676,-204.89859 L57.129715,-204.77296 L57.252537,-204.63445 L57.364845,-204.48347 L57.466293,-204.3205 L57.556564,-204.14606 L57.635372,-203.96066 L57.702477,-203.76492 L57.75767,-203.55942 L57.800777,-203.3448 L57.83166,-203.12175 L57.85023,-202.89095 L57.85643,-202.65312 L57.85643,-202.03592 L57.8314,-201.53949 L57.756634,-201.0239 L57.633068,-200.49564 L57.462254,-199.96132 L57.24634,-199.4277 L56.98805,-198.90147 L56.69062,-198.38927 L56.3578,-197.8975 L55.99377,-197.43237 L55.603107,-196.99974 L55.19073,-196.60503 L54.761818,-196.25322 L54.32177,-195.94872 L53.876114,-195.69536 L2.133623,-169.43349 Q-0.8865773,-167.76283 -2.1743243,-167.4622 Q-5.309525,-166.72719 -6.6729302,-165.87411 L-6.6729302,-175.13203 Q-5.309525,-175.9851 -2.1743243,-176.72012 Q-0.8865773,-177.02075 2.133623,-178.6914 L53.876114,-204.95326 L54.100456,-205.06027 L54.32409,-205.15318 L54.54629,-205.23174 L54.76637,-205.29567 L54.983612,-205.34477 L55.197334,-205.37889 L55.406857,-205.39793 L55.611515,-205.40181 L55.810654,-205.39053 L56.00364,-205.36414 L56.189865,-205.3227 L56.368732,-205.26633 L56.539673,-205.19525 L56.70215,-205.10965 M57.420444,-204.68814 L57.26771,-204.768 L57.107018,-204.83308 L56.938877,-204.88315 L56.763817,-204.91805 L56.5824,-204.93765 L56.395203,-204.94193 L56.202816,-204.93083 L56.005856,-204.90443 L55.804947,-204.8628 L55.600727,-204.80605 L55.39385,-204.73438 L55.184967,-204.648 L54.974743,-204.54721 L54.76385,-204.43231 L6.681324,-176.67186 L6.681324,-167.41394 L10.16451,-165.4132 M9.495568,-165.9827 L9.495568,-175.05536 M9.495568,-175.22585 L6.823039,-176.76883 M6.681324,-176.67186 L9.347544,-175.14038 M5.6692915,-173.01674 L5.321338,-172.81584 L2.6488087,-174.35884 M3.7068543,-173.74797 A5.6692915,3.273167 0 0 1 4.289533,-173.41156 M5.321338,-172.81584 L5.3181276,-195.98914 L9.495568,-198.40097 L6.823039,-199.94395 M5.7797236,-200.29686 L-1.3362647,-199.81665 A9.145947,5.280415 360 0 0 -7.936173,-197.30013 Q-10.226191,-194.9477 -13.956144,-193.58583 L-13.956144,-202.84373 A9.442369,5.4515543 180 0 0 -19.464355,-197.88791 L-19.464355,-188.63 A9.442369,5.4515543 180 0 1 -13.956144,-193.58583 M-16.70331,-192.48746 L-16.010256,-192.83908 L-15.241896,-193.13779 L-14.407892,-193.37979 L-13.518734,-193.56206 L-12.585602,-193.68231 L-11.620231,-193.73903 L-10.634761,-193.73149 L-9.641584,-193.6598 L-8.6531925,-193.52486 L-7.682013,-193.32837 L-6.7402606,-193.07278 L-5.839778,-192.76132 L-4.991889,-192.39792 L-4.207256,-191.98714 L-3.8104758,-191.74554 L-3.4368358,-191.49236 L-3.087728,-191.2285 L-2.7644534,-190.95496 L-2.4682157,-190.67276 L-2.2001188,-190.38295 L-1.9611614,-190.08661 L-1.7522337,-189.78484 L-1.5741142,-189.47878 L-1.4274663,-189.16954 L-1.3128363,-188.85829 L-1.2306514,-188.5462 L-1.1812177,-188.23442 L-1.1647192,-187.92412 L-1.1647192,-186.59781 M-1.1647192,-187.92412 L-1.174004,-187.69302 L-1.2018386,-187.46388 L-1.2481648,-187.23718 L-1.3128855,-187.01341 L-1.395865,-186.79301 L-1.4969292,-186.57649 L-1.6158663,-186.36426 L-1.752427,-186.15677 L-1.906325,-185.95448 L-2.0772376,-185.7578 L-2.2648065,-185.56714 L-2.4686384,-185.38289 L-2.688306,-185.20546 L-2.923349,-185.0352 M-4.207256,-182.72922 L-4.991889,-183.14001 L-5.839778,-183.50342 L-6.7402606,-183.81487 L-7.682013,-184.07045 L-8.6531925,-184.26695 L-9.641584,-184.40189 L-10.634761,-184.47357 L-11.620231,-184.48111 L-12.585602,-184.4244 L-13.518734,-184.30414 L-14.407892,-184.12187 L-15.241896,-183.87987 L-16.010256,-183.58118 L-16.70331,-183.22955 L-23.384634,-179.37209 L-23.384634,-188.63 L-16.70331,-192.48746 M-19.464355,-188.63 A9.442369,5.4515543 180 0 0 -10.642295,-183.19022 M-10.638073,-181.27077 L-23.384634,-188.63 M-23.384634,-179.37209 L-10.617687,-172.00108 M-9.352238,-172.04384 A9.448133,5.4548826 180 0 1 -6.6729302,-175.13203 M-5.6692915,-174.17018 L-5.6692915,-203.6741 L-5.6692915,-194.4162 M-6.2424583,-197.88791 L-6.2424583,-188.63 L-6.2424583,-179.37209 A3.7795277,2.1821113 0 1 0 -13.801514,-179.37209 A3.7795277,2.1821113 0 0 0 -12.694515,-177.8291 A3.7795277,2.1821113 0 0 0 -6.2424583,-179.37209 M-6.2424583,-177.8291 L-6.2424583,-197.88791 A3.7795277,2.1821113 0 1 0 -13.801514,-197.88791 L-13.801514,-188.63 L-13.801514,-179.37209 M-13.801514,-177.8291 L-13.801514,-199.4309 A3.7795277,2.1821113 0 0 0 -12.694515,-197.88791 A3.7795277,2.1821113 0 0 0 -10.673285,-197.28143 M-10.66989,-195.7381 A3.7795277,2.1821113 0 0 1 -12.694515,-196.34492 A3.7795277,2.1821113 0 0 1 -13.801514,-197.88791 M-13.801514,-199.4309 A3.7795277,2.1821113 0 0 1 -10.682737,-201.5794 M-10.688919,-204.3904 Q-12.15457,-203.50153 -13.956144,-202.84373 M-7.936173,-206.55804 L-7.936173,-197.30013 M-10.662657,-192.44891 A9.442369,5.4515543 180 0 1 -19.464355,-197.88791 M-13.801514,-188.63 A3.7795277,2.1821113 0 0 0 -12.694515,-187.087 A3.7795277,2.1821113 0 0 0 -6.2424583,-188.63 A3.7795277,2.1821113 0 1 0 -13.801514,-188.63 A3.7795277,2.1821113 0 0 0 -12.694515,-187.087 A3.7795277,2.1821113 0 0 0 -6.2424583,-188.63 A3.7795277,2.1821113 0 1 0 -13.801514,-188.63 Z M-13.801514,-177.8291 A3.7795277,2.1821113 0 0 0 -12.694515,-176.28612 A3.7795277,2.1821113 0 0 0 -6.2424583,-177.8291 A3.7795277,2.1821113 0 1 0 -13.801514,-177.8291 Z M-5.6692915,-171.27141 L-5.6692915,-157.64914 M-4.0087943,-159.69902 A5.6692915,3.273167 0 0 0 5.6692915,-162.01349 L5.6692915,-171.27141 L5.6692915,-157.64871 M5.6692915,-162.01349 A5.6692915,3.273167 0 1 0 -5.6692915,-162.01349 L-5.6692915,-171.27141 M-6.6729302,-165.87411 A9.448133,5.4548826 180 0 0 -9.447649,-162.01265 M-5.6692915,-162.01349 A5.6692915,3.273167 0 0 0 -4.0087943,-159.69902 M2.6500893,-165.11642 L5.322619,-163.57344 M2.133623,-169.43349 L2.133623,-178.6914 M-1.1647192,-178.66621 L-1.1812177,-178.97652 L-1.2306514,-179.2883 L-1.3128363,-179.60039 L-1.4274663,-179.91162 L-1.5741142,-180.22086 L-1.7522337,-180.52693 L-1.9611614,-180.82869 L-2.2001188,-181.12503 L-2.4682157,-181.41484 L-2.7644534,-181.69704 L-3.087728,-181.97058 L-3.4368358,-182.23444 L-3.8104758,-182.48763 L-4.207256,-182.72922 M2.6455982,-197.53212 L5.3181276,-195.98914 M5.7797236,-200.29686 L5.7797236,-209.55478 L-1.3362647,-209.07455 A9.145947,5.280415 360 0 0 -5.6692915,-208.02805 M-1.3362647,-209.07455 L-1.3362647,-199.81665 M9.34591,-198.26907 L9.34591,-207.527 M9.319093,-207.54224 L5.7797236,-209.55478 M6.823039,-209.1871 L9.495568,-207.64412 M9.495568,-207.61339 L9.495568,-198.40097 M5.755105,-144.80396 L9.327142,-142.74149 M9.353755,-142.72612 L9.353755,-133.4682 L5.755105,-135.54604 M9.353755,-133.4682 L72.3574,-169.84337 L72.77632,-170.11241 L73.18997,-170.43239 L73.593155,-170.79929 L73.9808,-171.2085 L74.34803,-171.65488 L74.69022,-172.1328 L75.003075,-172.63626 L75.28266,-173.15894 L75.52547,-173.69424 L75.728424,-174.23546 L75.88899,-174.77577 L76.00514,-175.3084 L76.075424,-175.82661 L76.09895,-176.32393 L76.09895,-176.94112 L76.09305,-177.18036 L76.07535,-177.41203 L76.04591,-177.63539 L76.00483,-177.84975 L75.95223,-178.05441 L75.88828,-178.24873 L75.813194,-178.43211 L75.72719,-178.60397 L75.63055,-178.76375 L75.52357,-178.91096 L75.4066,-179.04514 L75.28,-179.16585 L75.14417,-179.2727 L74.99955,-179.3654 M84.24564,-119.89823 L84.39027,-119.80555 L84.52609,-119.698685 L84.65269,-119.57797 L84.76966,-119.4438 L84.87664,-119.29659 L84.97328,-119.13681 L85.05928,-118.96495 L85.13438,-118.78157 L85.198326,-118.58724 L85.25092,-118.38258 L85.292,-118.16823 L85.32144,-117.94487 L85.33914,-117.713196 L85.34505,-117.47395 L85.34505,-116.85676 L85.32152,-116.35945 L85.251236,-115.841225 L85.135086,-115.30861 L84.97452,-114.768295 L84.77155,-114.22708 L84.528755,-113.69177 L84.24917,-113.1691 L83.93631,-112.665634 L83.59412,-112.187706 L83.22689,-111.74133 L82.83925,-111.33212 L82.436066,-110.96522 L82.022415,-110.64524 L81.60349,-110.37621 L9.353853,-68.662865 M9.495568,-68.79018 L9.495568,-78.002594 M9.495568,-78.033325 L6.823039,-79.57631 M5.7608232,-79.99522 L5.7608232,-70.7373 L-1.3362647,-70.20585 M2.663554,-67.93169 L5.3360834,-66.3887 M5.6692915,-64.8054 A5.6692915,3.273167 0 1 0 -5.6692915,-64.8054 A5.6692915,3.273167 0 0 0 -4.0087943,-62.49092 A5.6692915,3.273167 0 0 0 5.6692915,-64.8054 L5.6692915,-74.06331 L5.6692915,-60.41961 M-6.2424583,-48.218304 A3.7795277,2.1821113 0 1 0 -13.801514,-48.218304 A3.7795277,2.1821113 0 0 0 -12.694515,-46.675316 A3.7795277,2.1821113 0 0 0 -6.2424583,-48.218304 Z M-5.6692915,-41.660614 L-5.6692915,-32.4027 M-9.447649,-32.40186 A9.448133,5.4548826 180 0 1 -6.6729302,-36.263325 M-5.6692915,-41.660614 L-5.6692915,-28.038342 M-13.801514,-5.0147033 A3.7795277,2.1821113 0 0 0 -12.694515,-3.4717178 A3.7795277,2.1821113 0 0 0 -10.24565,-2.8364165 M-14.698913,13.115378 L-60.131916,39.346134 M-14.698913,13.115378 L-1.3362647,20.830307 M41.843967,-22.615639 L44.149757,-21.28439 M44.163586,-21.371859 L41.858555,-22.70267 M9.495568,-133.59558 L9.495568,-142.808 M9.495568,-142.83873 L6.823039,-144.38171" />
    </g>
    <g id="Outline" stroke-width="0.7559055" style="stroke:black;fill:none;">
      <path d="M9.353853,-31.631207 L9.353853,-40.889122 A9.448133,5.4548826 180 0 1 -9.447649,-41.659775 M-10.021986,-42.04636 L-10.332277,-42.225506 M-10.021986,-42.04636 L-3.340662,-45.903824 L-3.0520833,-46.08053 L-2.7817392,-46.266857 L-2.5303369,-46.462334 L-2.2985342,-46.66644 L-2.0869374,-46.87864 L-1.8961004,-47.098385 L-1.7265221,-47.325092 L-1.5786463,-47.558178 L-1.4528598,-47.797024 L-1.3494918,-48.04101 L-1.2688127,-48.289497 L-1.2110335,-48.541836 L-1.1763054,-48.797363 L-1.1647192,-49.055412 L-1.1647192,-53.63808 L-1.1647192,-56.98702 M-1.4226407,-56.767567 L-1.4226407,-66.02548 A9.442369,5.4515543 180 0 1 -10.37759,-62.82943 M-3.340662,-55.16174 L-3.3095765,-55.179794 L-3.2786841,-55.197964 L-3.2479856,-55.216244 L-3.2174819,-55.23463 L-3.1871738,-55.253128 L-3.1570623,-55.271732 L-3.1271484,-55.290443 L-3.0974326,-55.309265 L-3.067916,-55.32819 L-3.0385993,-55.347225 L-3.0094833,-55.366364 L-2.9805691,-55.385605 L-2.9518573,-55.404953 L-2.923349,-55.424404 M-3.340662,-55.16174 L-10.021986,-51.30427 M-5.6692915,-44.559387 L-5.6692915,-41.660614 A5.6692915,3.273167 0 0 0 -4.0087943,-39.346134 A5.6692915,3.273167 0 0 0 5.6692915,-41.660614 A5.6692915,3.273167 0 1 0 -5.6692915,-41.660614 M-9.352238,-42.43304 A9.448133,5.4548826 180 0 0 -9.447649,-41.659775 M-5.6692915,-28.038342 L-5.6692915,-9.257914 M-7.936173,-12.141849 Q-8.95621,-11.094007 -10.261939,-10.242702 M-7.936173,-12.141849 A9.145947,5.280415 360 0 1 -5.6692915,-13.611851 M-10.255231,-7.1926556 A3.7795277,2.1821113 0 0 1 -6.2424583,-5.0147033 L-6.2424583,-3.4717178 A3.7795277,2.1821113 0 0 1 -10.242257,-1.2933155 M-10.24565,-2.8364165 A3.7795277,2.1821113 0 0 0 -6.2424583,-5.0147033 M-1.4226407,-1.2200813 A9.442369,5.4515543 180 0 1 -10.235062,1.9784485 M4.2237153,4.9519825 L4.2237153,-4.3059316 M9.353853,-40.889122 L10.16451,-45.060318 M9.353853,-77.92078 L9.327239,-77.93614 M9.353853,-77.92078 L81.60349,-119.634125 L81.81293,-119.74827 L82.021706,-119.8485 L82.22917,-119.934525 L82.43468,-120.00606 L82.63757,-120.062874 L82.837234,-120.1048 L83.03302,-120.1317 L83.22433,-120.143486 L83.410545,-120.14014 L83.5911,-120.12165 L83.76543,-120.08809 L83.932976,-120.03956 L84.093216,-119.976204 L84.24564,-119.89823 L84.967865,-119.48348 M75.72838,-178.94685 L74.99955,-179.3654 L74.84712,-179.44337 L74.68688,-179.50671 L74.51933,-179.55525 L74.34501,-179.58882 L74.16446,-179.6073 L73.97823,-179.61066 L73.78693,-179.59886 L73.59114,-179.57196 L73.39149,-179.53003 L73.18858,-179.47322 L72.98308,-179.40169 L72.77561,-179.31567 L72.56683,-179.21544 L72.3574,-179.10129 L9.353755,-142.72612 L9.327142,-142.74149 M-5.6692915,-143.22264 A9.145947,5.280415 360 0 0 -7.936173,-141.75264 M9.353853,-161.242 L10.16451,-165.4132 L10.16451,-174.67111 M9.353853,-170.49991 L9.353853,-161.242 M-6.2424583,-197.88791 L-6.2424583,-199.4309 A3.7795277,2.1821113 0 0 0 -10.682737,-201.5794 M-10.688919,-204.3904 Q-9.120108,-205.34183 -7.936173,-206.55804 A9.145947,5.280415 360 0 1 -5.6692915,-208.02805 M-5.6692915,-203.6741 L-5.6692915,-224.81058 M-4.062627,-224.53549 Q-7.7358656,-225.10822 -10.736596,-226.0692 M-10.772228,-242.27104 L30.73409,-297.02475 L17.371443,-304.73965 L-60.131916,-259.99307 M-46.769268,-252.27815 L30.73409,-297.02475 M5.6692915,-246.8777 A5.6692915,3.273167 0 0 0 -4.3339868,-248.9878 A5.6692915,3.273167 0 0 1 5.6692915,-246.8777 A5.6692915,3.273167 0 0 1 -4.0087943,-244.56323 A5.6692915,3.273167 0 0 0 5.6692915,-246.8777 Z M-4.0087943,-244.56323 A5.6692915,3.273167 0 0 1 -4.3339868,-244.76762 A5.6692915,3.273167 0 0 0 -4.0087943,-244.56323 Z M5.6692915,-223.80135 L6.3258004,-223.4223 M-6.2424583,-199.4309 A3.7795277,2.1821113 0 0 1 -10.673285,-197.28143 M-10.66989,-195.7381 A3.7795277,2.1821113 0 0 0 -6.2424583,-197.88791 M10.16451,-109.865715 L10.16451,-100.6078 L9.353853,-96.43661 L9.353853,-105.69452 M-5.6692915,-78.41725 A9.145947,5.280415 360 0 0 -7.936173,-76.94724 M-46.769268,47.06106 L-46.769268,-252.27815 L-60.131916,-259.99307 L-60.131916,39.346134 L-46.769268,47.06106 L-1.3362647,20.830307 L1.3362647,6.9434357 M0.6320882,6.536879 L1.3362647,6.9434357 L-10.209578,13.565833 L-10.772228,-242.27104 M-9.363571,-244.1293 A5.6692915,3.273167 0 0 1 -4.3339868,-240.87703 M-4.062627,-233.79341 Q-7.7483406,-234.36807 -10.756971,-235.33365 M-10.762029,-237.63332 A5.6692915,3.273167 0 0 0 -4.3339868,-240.87703 L-4.3339868,-250.76414 M-0.18232146,-256.24088 L17.31761,-246.1373 M17.31761,-236.87938 L17.31761,-246.1373 L-4.062627,-233.79341 L-4.062627,-224.53549 L17.31761,-236.87938 Z M13.563379,-234.71187 L6.3258004,-223.4223 L6.3110223,-230.52472 M5.6692915,-230.15422 L5.6692915,-203.6741 M3.894031,-206.053 A5.6692915,3.273167 0 0 0 -5.6692915,-203.6741 A5.6692915,3.273167 0 0 0 -4.0087943,-201.35963 A5.6692915,3.273167 0 0 0 5.6692915,-203.6741 A5.6692915,3.273167 0 0 0 4.1203623,-205.92233 M5.6692915,-205.43503 L9.495568,-207.64412 L9.495568,-207.61339 M9.319093,-207.54224 L9.34591,-207.527 L37.72183,-223.90984 L37.931263,-224.02397 L38.14004,-224.1242 L38.34751,-224.21024 L38.553017,-224.28175 L38.755913,-224.33858 L38.95557,-224.3805 L39.15136,-224.4074 L39.342663,-224.41919 L39.528885,-224.41585 L39.709442,-224.39735 L39.883766,-224.3638 L40.051308,-224.31526 L40.211548,-224.2519 L40.363983,-224.17393 M41.145412,-223.72519 L41.275883,-223.64062 L41.398415,-223.5414 L41.512623,-223.4278 L41.618145,-223.3002 L41.71465,-223.15901 L41.801834,-223.00465 L41.87942,-222.83763 L41.947166,-222.65848 L42.004852,-222.46774 L42.052303,-222.26604 L42.089363,-222.05399 L42.11592,-221.83228 L42.13189,-221.60161 L42.137215,-221.36269 L42.137215,-220.7455 L42.115993,-220.24687 L42.05259,-219.7247 L41.947803,-219.18555 L41.80295,-218.63622 L41.619854,-218.08359 L41.400818,-217.53464 L41.148594,-216.99625 L40.866356,-216.47519 L40.557655,-215.97804 L40.226368,-215.51102 L39.876663,-215.08002 L39.51294,-214.69046 L39.139774,-214.34723 L38.761852,-214.05466 L11.377543,-194.82295 L11.377543,-204.08087 L38.761852,-223.31258 L38.95079,-223.43849 L39.139133,-223.55046 L39.326298,-223.64813 L39.51169,-223.73122 L39.69473,-223.79944 L39.874844,-223.85258 L40.05147,-223.89049 L40.224052,-223.91304 L40.392048,-223.92015 L40.554935,-223.9118 L40.712196,-223.88805 L40.863342,-223.84894 L41.0079,-223.79459 L41.145412,-223.72519 L40.363983,-224.17393 M38.662807,-228.47826 C32.350903,-232.12244 25.265837,-235.24748 17.31761,-237.77647 M17.31761,-238.43564 C24.191286,-236.07457 30.394606,-233.2519 35.990276,-230.02124 M37.31709,-229.24078 C36.87866,-229.50351 36.4364,-229.76367 35.990276,-230.02124 L37.339905,-229.24203 L38.662807,-228.47826 C84.12836,-202.22871 89.478325,-149.04388 88.34984,-97.6724 Q88.26199,-70.54074 73.04216,-49.88584 M73.847496,-49.5748 L12.436492,-10.218109 L12.436492,-0.9601951 M8.995799,1.9005642 L8.995799,-7.35735 Q9.534583,-8.527554 12.436492,-10.218109 M9.356726,-13.117037 L73.17367,-49.961765 L73.847496,-49.5748 L73.847496,-48.494232 C73.060326,-47.43922 72.260315,-46.403378 71.447624,-45.39062 C70.634926,-44.37787 69.80953,-43.388226 68.97272,-42.42448 C67.56109,-40.798744 66.11683,-39.247486 64.650185,-37.772667 C63.183544,-36.297844 61.694702,-34.898838 60.19378,-33.56602 C58.87744,-32.39712 57.552048,-31.278942 56.221367,-30.20143 C54.89069,-29.123919 53.55473,-28.08701 52.21615,-27.081743 C50.877567,-26.076479 49.53636,-25.102858 48.193985,-24.153456 C46.85161,-23.204054 45.50806,-22.278894 44.163586,-21.371859 L44.149757,-21.28439 L12.436492,-0.9601951 Q9.534583,0.7303602 8.995799,1.9005642 Q7.3281355,3.9299054 4.2237153,4.9519825 Q2.2880638,5.5331078 0.6320882,6.536879 M-1.4226407,8.037832 L-1.4226407,-1.2200813 Q1.01667,-3.3431056 4.2237153,-4.3059316 Q7.3281355,-5.3280087 8.995799,-7.35735 M5.6692915,-9.257914 A5.6692915,3.273167 0 1 0 -5.6692915,-9.257914 A5.6692915,3.273167 0 0 0 -4.0087943,-6.9434357 A5.6692915,3.273167 0 0 0 5.6692915,-9.257914 L5.6692915,-28.037922 M9.353853,-31.631207 L10.16451,-35.802402 L10.16451,-45.060318 L9.321194,-45.54472 M9.495568,-45.444557 L9.495568,-45.645393 L5.6692915,-43.436295 M5.6692915,-41.660614 L5.6692915,-60.41961 M4.2237153,-59.853416 Q7.3281355,-60.875492 8.995799,-62.904835 Q9.534583,-64.075035 12.436492,-65.765594 L12.436492,-75.023506 L82.441986,-119.152596 L82.642204,-119.27203 L82.8418,-119.37755 L83.04013,-119.46881 L83.236595,-119.54553 L83.430565,-119.607475 L83.62144,-119.65445 L83.8086,-119.686295 L83.99149,-119.70293 L84.16952,-119.70428 L84.342125,-119.69036 L84.50878,-119.6612 L84.66895,-119.616905 L84.822136,-119.5576 L84.967865,-119.48348 L85.10612,-119.394455 L85.23597,-119.29102 L85.356995,-119.17351 L85.46882,-119.0423 L85.57108,-118.89779 L85.663475,-118.74045 L85.74569,-118.57077 L85.81748,-118.38928 L85.87862,-118.19657 L85.928894,-117.99324 L85.96817,-117.77992 L85.996315,-117.557304 L86.01323,-117.32608 L86.018875,-117.08699 L86.018875,-116.469795 L85.99639,-115.971886 L85.9292,-115.45189 L85.81815,-114.916336 L85.66466,-114.37197 L85.47063,-113.82562 L85.23852,-113.28418 L84.97123,-112.75443 L84.67214,-112.243065 L84.34501,-111.756485 L83.99394,-111.300835 L83.62336,-110.88182 L83.23792,-110.50473 L82.842476,-110.1743 L82.441986,-109.894684 L12.436492,-65.765594 M8.995799,-62.904835 L8.995799,-72.16275 Q9.534583,-73.332954 12.436492,-75.023506 M9.495568,-78.002594 L9.495568,-78.033325 L5.6692915,-75.82423 M5.6692915,-74.06331 L5.6692915,-92.84332 M9.353853,-96.43661 A9.448133,5.4548826 180 0 1 -9.447649,-97.20726 L-9.447649,-106.46517 A9.448133,5.4548826 180 0 1 -9.352238,-107.238434 M-10.021986,-106.85176 L-3.340662,-110.70922 L-3.0520833,-110.885925 L-2.7817392,-111.07226 L-2.5303369,-111.26773 L-2.2985342,-111.47184 L-2.0869374,-111.68404 L-1.8961004,-111.90378 L-1.7265221,-112.13049 L-1.5786463,-112.36358 L-1.4528598,-112.602425 L-1.3494918,-112.846405 L-1.2688127,-113.094894 L-1.2110335,-113.34724 L-1.1763054,-113.60276 L-1.1647192,-113.86081 L-1.1647192,-118.443474 L-1.1647192,-121.79241 M-1.4226407,-121.57296 A9.442369,5.4515543 180 0 1 -10.499761,-118.38003 M-10.495368,-116.38298 L-10.021986,-116.10967 L-10.021986,-106.85176 L-10.474982,-107.1133 M-9.447649,-106.46517 A9.448133,5.4548826 180 0 0 9.353853,-105.69452 L10.16451,-109.865715 L9.321194,-110.35012 M9.495568,-110.249954 L9.495568,-110.45079 L5.6692915,-108.24169 M5.6692915,-106.46601 L5.6692915,-125.225006 M4.2237153,-124.65881 Q7.3281355,-125.68089 8.995799,-127.71023 Q9.650002,-128.88599 12.436492,-130.57098 L12.436492,-139.8289 L73.218376,-178.60686 L73.417336,-178.727 L73.61567,-178.83325 L73.81276,-178.92522 L74.00799,-179.00266 L74.20074,-179.06529 L74.39041,-179.11296 L74.5764,-179.14548 L74.75814,-179.16277 L74.93505,-179.16476 L75.106575,-179.15147 L75.27218,-179.12291 L75.43134,-179.0792 L75.583565,-179.02045 L75.72838,-178.94685 L75.86576,-178.85832 L75.9948,-178.75536 L76.11506,-178.63829 L76.22618,-178.50748 L76.327805,-178.36334 L76.41962,-178.20633 L76.50132,-178.03694 L76.572655,-177.85573 L76.6334,-177.66322 L76.68337,-177.46008 L76.7224,-177.2469 L76.75036,-177.02438 L76.76717,-176.79323 L76.77279,-176.55415 L76.77279,-175.93695 L76.750435,-175.43896 L76.68367,-174.91873 L76.573326,-174.38278 L76.42079,-173.83786 L76.22798,-173.2908 L75.99733,-172.74852 L75.73173,-172.21782 L75.43452,-171.70537 L75.109436,-171.2176 L74.760574,-170.76068 L74.39233,-170.34035 L74.00931,-169.96185 L73.61635,-169.63 L73.218376,-169.34894 L12.436492,-130.57098 M8.995799,-127.71023 L8.995799,-136.96814 Q9.650002,-138.1439 12.436492,-139.8289 M9.495568,-142.808 L9.495568,-142.83873 L5.6692915,-140.62962 M5.6692915,-138.86871 L5.6692915,-157.64871 M9.353853,-161.242 A9.448133,5.4548826 180 0 1 -9.447649,-162.01265 L-9.447649,-171.27057 A9.448133,5.4548826 180 0 1 -9.352238,-172.04384 M-10.021986,-171.65715 L-10.021986,-180.91507 L-10.638073,-181.27077 M-10.021986,-180.91507 L-3.340662,-184.77254 L-3.3095765,-184.79059 L-3.2786841,-184.80876 L-3.2479856,-184.82704 L-3.2174819,-184.84543 L-3.1871738,-184.86392 L-3.1570623,-184.88252 L-3.1271484,-184.90125 L-3.0974326,-184.92006 L-3.067916,-184.93898 L-3.0385993,-184.95802 L-3.0094833,-184.97716 L-2.9805691,-184.9964 L-2.9518573,-185.01575 L-2.923349,-185.0352 M-1.4226407,-186.37836 Q1.01667,-188.50139 4.2237153,-189.46422 Q7.3281355,-190.48628 8.995799,-192.51562 Q9.880494,-193.85359 11.377543,-194.82295 M8.995799,-192.51562 L8.995799,-201.77354 Q9.880494,-203.11151 11.377543,-204.08087 M8.995799,-201.77354 Q7.3281355,-199.7442 4.2237153,-198.72212 L4.2237153,-189.46422 M5.6692915,-190.03041 L5.6692915,-171.27141 A5.6692915,3.273167 0 0 0 4.289533,-173.41156 M3.7068543,-173.74797 A5.6692915,3.273167 0 0 0 -5.6692915,-171.27141 L-5.6692915,-174.17018 M-3.340662,-175.51462 L-3.0520833,-175.69131 L-2.7817392,-175.87766 L-2.5303369,-176.07314 L-2.2985342,-176.27724 L-2.0869374,-176.48944 L-1.8961004,-176.70918 L-1.7265221,-176.93588 L-1.5786463,-177.16898 L-1.4528598,-177.40782 L-1.3494918,-177.65181 L-1.2688127,-177.9003 L-1.2110335,-178.15263 L-1.1763054,-178.40816 L-1.1647192,-178.66621 L-1.1647192,-183.24887 L-1.1647192,-186.59781 M-1.4226407,-186.37836 A9.442369,5.4515543 180 0 1 -10.642295,-183.19022 M-10.662657,-192.44891 A9.442369,5.4515543 180 0 0 -1.4226407,-195.63628 Q1.01667,-197.7593 4.2237153,-198.72212 M-1.4226407,-195.63628 L-1.4226407,-186.37836 M-3.340662,-175.51462 L-10.021986,-171.65715 L-10.617687,-172.00108 M-9.447649,-171.27057 A9.448133,5.4548826 180 0 0 9.353853,-170.49991 L10.16451,-174.67111 L9.347544,-175.14038 M9.495568,-175.05536 L9.495568,-175.22585 L5.6692915,-173.01674 M5.6692915,-171.27141 A5.6692915,3.273167 0 0 1 -4.0087943,-168.95692 A5.6692915,3.273167 0 0 1 -5.6692915,-171.27141 M-5.6692915,-157.64914 L-5.6692915,-138.86871 A5.6692915,3.273167 0 0 0 -4.0087943,-136.55423 A5.6692915,3.273167 0 0 0 5.6692915,-138.86871 A5.6692915,3.273167 0 1 0 -5.6692915,-138.86871 M-7.936173,-141.75264 Q-9.066099,-140.59192 -10.546588,-139.67235 M-10.540242,-136.787 A3.7795277,2.1821113 0 0 1 -6.2424583,-134.6255 L-6.2424583,-133.08252 A3.7795277,2.1821113 0 0 1 -10.527339,-130.92 M-10.530733,-132.46324 A3.7795277,2.1821113 0 0 0 -6.2424583,-134.6255 M-1.4226407,-130.83087 Q1.01667,-132.9539 4.2237153,-133.91673 Q7.3281355,-134.9388 8.995799,-136.96814 M4.2237153,-133.91673 L4.2237153,-124.65881 Q1.01667,-123.695984 -1.4226407,-121.57296 L-1.4226407,-130.83087 A9.442369,5.4515543 180 0 1 -10.520123,-127.63855 M-3.340662,-119.96713 L-3.3095765,-119.98519 L-3.2786841,-120.003365 L-3.2479856,-120.02164 L-3.2174819,-120.04003 L-3.1871738,-120.058525 L-3.1570623,-120.07713 L-3.1271484,-120.09584 L-3.0974326,-120.11466 L-3.067916,-120.13359 L-3.0385993,-120.15262 L-3.0094833,-120.17176 L-2.9805691,-120.191 L-2.9518573,-120.21035 L-2.923349,-120.229805 M-3.340662,-119.96713 L-10.021986,-116.10967 M-5.6692915,-109.364784 L-5.6692915,-106.46601 A5.6692915,3.273167 0 0 0 -4.0087943,-104.151535 A5.6692915,3.273167 0 0 0 5.6692915,-106.46601 A5.6692915,3.273167 0 1 0 -5.6692915,-106.46601 M-5.6692915,-92.84374 L-5.6692915,-74.06331 A5.6692915,3.273167 0 0 0 -4.0087943,-71.74883 A5.6692915,3.273167 0 0 0 5.6692915,-74.06331 A5.6692915,3.273167 0 1 0 -5.6692915,-74.06331 M-7.936173,-76.94724 Q-9.011474,-75.842636 -10.404261,-74.95643 M-10.39774,-71.9914 A3.7795277,2.1821113 0 0 1 -6.2424583,-69.8201 L-6.2424583,-68.277115 A3.7795277,2.1821113 0 0 1 -10.384794,-66.10508 M-10.388188,-67.648254 A3.7795277,2.1821113 0 0 0 -6.2424583,-69.8201 M-1.4226407,-66.02548 Q1.01667,-68.148506 4.2237153,-69.11133 Q7.3281355,-70.13341 8.995799,-72.16275 M4.2237153,-69.11133 L4.2237153,-59.853416 Q1.01667,-58.89059 -1.4226407,-56.767567 A9.442369,5.4515543 180 0 1 -10.357229,-53.571083 M-10.352664,-51.49519 L-10.021986,-51.30427 L-10.021986,-42.04636 M-9.447649,-41.659775 L-9.447649,-32.40186 A9.448133,5.4548826 180 0 0 9.353853,-31.631207" />
    </g>
  </g>
</svg>