<?xml version="1.0" encoding="utf-8"?>
<!DOCTYPE svg PUBLIC "-//W3C//DTD SVG 1.1//EN" "http://www.w3.org/Graphics/SVG/1.1/DTD/svg11.dtd">
<svg width="59.58438mm" height="113.0806mm" viewBox="0, 0, 225.2008, 427.3913" version="1.1" xmlns:xlink="http://www.w3.org/1999/xlink" xmlns:xml="http://www.w3.org/XML/1998/namespace" xmlns:sodipodi="http://sodipodi.sourceforge.net/DTD/sodipodi-0.dtd" xmlns:inkscape="http://www.inkscape.org/namespaces/inkscape" xmlns="http://www.w3.org/2000/svg">
  <sodipodi:namedview inkscape:document-units="mm" />
  <g id="Drawing" transform="translate(97.92719,342.5349)">
    <g id="Outline" stroke-width="0.7559055" style="stroke:black;fill:none;">
      <path d="M9.353853,-31.63121 L9.353853,-40.88912 A9.448133,5.454883 180 0 1 -9.447649,-41.65977" />
      <path d="M-10.02199,-42.04636 L-10.33228,-42.22551" />
      <path d="M-10.02199,-42.04636 L-3.340662,-45.90382 L-3.052083,-46.08053 L-2.781739,-46.26686 L-2.530337,-46.46233 L-2.298534,-46.66644 L-2.086937,-46.87864 L-1.8961,-47.09838 L-1.726522,-47.32509 L-1.578646,-47.55818 L-1.45286,-47.79702 L-1.349492,-48.04101 L-1.268813,-48.2895 L-1.211033,-48.54184 L-1.176305,-48.79736 L-1.164719,-49.05541 L-1.164719,-53.63808 L-1.164719,-56.98702" />
      <path d="M-1.422641,-56.76757 L-1.422641,-66.02548 A9.442369,5.451554 180 0 1 -10.37759,-62.82943" />
      <path d="M-3.340662,-55.16174 L-3.309577,-55.17979 L-3.278684,-55.19796 L-3.247986,-55.21624 L-3.217482,-55.23463 L-3.187174,-55.25313 L-3.157062,-55.27173 L-3.127148,-55.29044 L-3.097433,-55.30927 L-3.067916,-55.32819 L-3.038599,-55.34723 L-3.009483,-55.36636 L-2.980569,-55.3856 L-2.951857,-55.40495 L-2.923349,-55.4244" />
      <path d="M-3.340662,-55.16174 L-10.02199,-51.30427" />
      <path d="M-5.669291,-44.55939 L-5.669291,-41.66061 A5.669291,3.273167 0 0 0 -4.008794,-39.34613 A5.669291,3.273167 0 0 0 5.669291,-41.66061 A5.669291,3.273167 0 1 0 -5.669291,-41.66061" />
      <path d="M-9.352238,-42.43304 A9.448133,5.454883 180 0 0 -9.447649,-41.65977" />
      <path d="M-5.669291,-28.03834 L-5.669291,-9.257914" />
      <path d="M-7.936173,-12.14185 Q-8.95621,-11.09401 -10.26194,-10.2427" />
      <path d="M-7.936173,-12.14185 A9.145947,5.280415 360 0 1 -5.669291,-13.61185" />
      <path d="M-10.25523,-7.192656 A3.779528,2.182111 0 0 1 -6.242458,-5.014703 L-6.242458,-3.471718 A3.779528,2.182111 0 0 1 -10.24226,-1.293316" />
      <path d="M-10.24565,-2.836416 A3.779528,2.182111 0 0 0 -6.242458,-5.014703" />
      <path d="M-1.422641,-1.220081 A9.442369,5.451554 180 0 1 -10.23506,1.978449" />
      <path d="M4.223715,4.951982 L4.223715,-4.305932" />
      <path d="M9.353853,-40.88912 L10.16451,-45.06032" />
      <path d="M9.353853,-77.92078 L9.327239,-77.93614" />
      <path d="M9.353853,-77.92078 L81.60349,-119.6341 L81.81293,-119.7483 L82.02171,-119.8485 L82.22917,-119.9345 L82.43468,-120.0061 L82.63757,-120.0629 L82.83723,-120.1048 L83.03302,-120.1317 L83.22433,-120.1435 L83.41055,-120.1401 L83.5911,-120.1217 L83.76543,-120.0881 L83.93298,-120.0396 L84.09322,-119.9762 L84.24564,-119.8982 L84.96786,-119.4835" />
      <path d="M75.72838,-178.9469 L74.99955,-179.3654 L74.84712,-179.4434 L74.68688,-179.5067 L74.51933,-179.5553 L74.34501,-179.5888 L74.16446,-179.6073 L73.97823,-179.6107 L73.78693,-179.5989 L73.59114,-179.572 L73.39149,-179.53 L73.18858,-179.4732 L72.98308,-179.4017 L72.77561,-179.3157 L72.56683,-179.2154 L72.3574,-179.1013 L9.353755,-142.7261 L9.327142,-142.7415" />
      <path d="M-5.669291,-143.2226 A9.145947,5.280415 360 0 0 -7.936173,-141.7526" />
      <path d="M9.353853,-161.242 L10.16451,-165.4132 L10.16451,-174.6711" />
      <path d="M9.353853,-170.4999 L9.353853,-161.242" />
      <path d="M-6.242458,-197.8879 L-6.242458,-199.4309 A3.779528,2.182111 0 0 0 -10.68274,-201.5794" />
      <path d="M-10.68892,-204.3904 Q-9.120108,-205.3418 -7.936173,-206.558 A9.145947,5.280415 360 0 1 -5.669291,-208.028" />
      <path d="M-5.669291,-203.6741 L-5.669291,-224.8106" />
      <path d="M-4.062627,-224.5355 Q-7.735866,-225.1082 -10.7366,-226.0692" />
      <path d="M-10.77223,-242.271 L30.73409,-297.0247 L17.37144,-304.7397 L-60.13192,-259.9931" />
      <path d="M-46.76927,-252.2782 L30.73409,-297.0247" />
      <path d="M5.669291,-246.8777 A5.669291,3.273167 0 0 0 -4.333987,-248.9878 A5.669291,3.273167 0 0 1 5.669291,-246.8777 A5.669291,3.273167 0 0 1 -4.008794,-244.5632 A5.669291,3.273167 0 0 0 5.669291,-246.8777 Z" />
      <path d="M-4.008794,-244.5632 A5.669291,3.273167 0 0 1 -4.333987,-244.7676 A5.669291,3.273167 0 0 0 -4.008794,-244.5632 Z" />
      <path d="M5.669291,-223.8013 L6.3258,-223.4223" />
      <path d="M-6.242458,-199.4309 A3.779528,2.182111 0 0 1 -10.67328,-197.2814" />
      <path d="M-10.66989,-195.7381 A3.779528,2.182111 0 0 0 -6.242458,-197.8879" />
      <path d="M10.16451,-109.8657 L10.16451,-100.6078 L9.353853,-96.43661 L9.353853,-105.6945" />
      <path d="M-5.669291,-78.41725 A9.145947,5.280415 360 0 0 -7.936173,-76.94724" />
      <path d="M-46.76927,47.06106 L-46.76927,-252.2782 L-60.13192,-259.9931 L-60.13192,39.34613 L-46.76927,47.06106 L-1.336265,20.83031 L1.336265,6.943436" />
      <path d="M0.6320882,6.536879 L1.336265,6.943436 L-10.20958,13.56583 L-10.77223,-242.271" />
      <path d="M-9.363571,-244.1293 A5.669291,3.273167 0 0 1 -4.333987,-240.877" />
      <path d="M-4.062627,-233.7934 Q-7.748341,-234.3681 -10.75697,-235.3336" />
      <path d="M-10.76203,-237.6333 A5.669291,3.273167 0 0 0 -4.333987,-240.877 L-4.333987,-250.7641" />
      <path d="M-0.1823215,-256.2409 L17.31761,-246.1373" />
      <path d="M17.31761,-236.8794 L17.31761,-246.1373 L-4.062627,-233.7934 L-4.062627,-224.5355 L17.31761,-236.8794 Z" />
      <path d="M13.56338,-234.7119 L6.3258,-223.4223 L6.311022,-230.5247" />
      <path d="M5.669291,-230.1542 L5.669291,-203.6741" />
      <path d="M3.894031,-206.053 A5.669291,3.273167 0 0 0 -5.669291,-203.6741 A5.669291,3.273167 0 0 0 -4.008794,-201.3596 A5.669291,3.273167 0 0 0 5.669291,-203.6741 A5.669291,3.273167 0 0 0 4.120362,-205.9223" />
      <path d="M5.669291,-205.435 L9.495568,-207.6441 L9.495568,-207.6134" />
      <path d="M9.319093,-207.5422 L9.34591,-207.527 L37.72183,-223.9098 L37.93126,-224.024 L38.14004,-224.1242 L38.34751,-224.2102 L38.55302,-224.2818 L38.75591,-224.3386 L38.95557,-224.3805 L39.15136,-224.4074 L39.34266,-224.4192 L39.52888,-224.4158 L39.70944,-224.3974 L39.88377,-224.3638 L40.05131,-224.3153 L40.21155,-224.2519 L40.36398,-224.1739" />
      <path d="M41.14541,-223.7252 L41.27588,-223.6406 L41.39841,-223.5414 L41.51262,-223.4278 L41.61814,-223.3002 L41.71465,-223.159 L41.80183,-223.0047 L41.87942,-222.8376 L41.94717,-222.6585 L42.00485,-222.4677 L42.0523,-222.266 L42.08936,-222.054 L42.11592,-221.8323 L42.13189,-221.6016 L42.13721,-221.3627 L42.13721,-220.7455 L42.11599,-220.2469 L42.05259,-219.7247 L41.9478,-219.1855 L41.80295,-218.6362 L41.61985,-218.0836 L41.40082,-217.5346 L41.14859,-216.9962 L40.86636,-216.4752 L40.55766,-215.978 L40.22637,-215.511 L39.87666,-215.08 L39.51294,-214.6905 L39.13977,-214.3472 L38.76185,-214.0547 L11.37754,-194.823 L11.37754,-204.0809 L38.76185,-223.3126 L38.95079,-223.4385 L39.13913,-223.5505 L39.3263,-223.6481 L39.51169,-223.7312 L39.69473,-223.7994 L39.87484,-223.8526 L40.05147,-223.8905 L40.22405,-223.913 L40.39205,-223.9202 L40.55494,-223.9118 L40.7122,-223.888 L40.86334,-223.8489 L41.0079,-223.7946 L41.14541,-223.7252 L40.36398,-224.1739" />
      <path d="M38.66281,-228.4783 C32.3509,-232.1224 25.26584,-235.2475 17.31761,-237.7765" />
      <path d="M17.31761,-238.4356 C24.19129,-236.0746 30.39461,-233.2519 35.99028,-230.0212" />
      <path d="M37.31709,-229.2408 C36.87866,-229.5035 36.4364,-229.7637 35.99028,-230.0212 L37.3399,-229.242 L38.66281,-228.4783 C84.12836,-202.2287 89.47832,-149.0439 88.34984,-97.6724 Q88.26199,-70.54074 73.04216,-49.88584" />
      <path d="M73.8475,-49.5748 L12.43649,-10.21811 L12.43649,-0.9601951" />
      <path d="M8.995799,1.900564 L8.995799,-7.35735 Q9.534583,-8.527554 12.43649,-10.21811" />
      <path d="M9.356726,-13.11704 L73.17367,-49.96177 L73.8475,-49.5748 L73.8475,-48.49423 C72.27316,-46.38421 70.64635,-44.35197 68.97272,-42.42448 C66.14946,-39.17301 63.19563,-36.23165 60.19378,-33.56602 C57.5611,-31.22822 54.89331,-29.09227 52.21615,-27.08174 C49.53899,-25.07121 46.85253,-23.18593 44.16359,-21.37186 L44.14976,-21.28439 L12.43649,-0.9601951 Q9.534583,0.7303602 8.995799,1.900564 Q7.328135,3.929905 4.223715,4.951982 Q2.288064,5.533108 0.6320882,6.536879" />
      <path d="M-1.422641,8.037832 L-1.422641,-1.220081 Q1.01667,-3.343106 4.223715,-4.305932 Q7.328135,-5.328009 8.995799,-7.35735" />
      <path d="M5.669291,-9.257914 A5.669291,3.273167 0 1 0 -5.669291,-9.257914 A5.669291,3.273167 0 0 0 -4.008794,-6.943436 A5.669291,3.273167 0 0 0 5.669291,-9.257914 L5.669291,-28.03792" />
      <path d="M9.353853,-31.63121 L10.16451,-35.8024 L10.16451,-45.06032 L9.321194,-45.54472" />
      <path d="M9.495568,-45.44456 L9.495568,-45.64539 L5.669291,-43.43629" />
      <path d="M5.669291,-41.66061 L5.669291,-60.41961" />
      <path d="M4.223715,-59.85342 Q7.328135,-60.87549 8.995799,-62.90483 Q9.534583,-64.07504 12.43649,-65.76559 L12.43649,-75.02351 L82.44199,-119.1526 L82.6422,-119.272 L82.8418,-119.3775 L83.04013,-119.4688 L83.2366,-119.5455 L83.43056,-119.6075 L83.62144,-119.6544 L83.8086,-119.6863 L83.99149,-119.7029 L84.16952,-119.7043 L84.34212,-119.6904 L84.50878,-119.6612 L84.66895,-119.6169 L84.82214,-119.5576 L84.96786,-119.4835 L85.10612,-119.3945 L85.23597,-119.291 L85.35699,-119.1735 L85.46882,-119.0423 L85.57108,-118.8978 L85.66348,-118.7404 L85.74569,-118.5708 L85.81748,-118.3893 L85.87862,-118.1966 L85.92889,-117.9932 L85.96817,-117.7799 L85.99632,-117.5573 L86.01323,-117.3261 L86.01888,-117.087 L86.01888,-116.4698 L85.99639,-115.9719 L85.9292,-115.4519 L85.81815,-114.9163 L85.66466,-114.372 L85.47063,-113.8256 L85.23852,-113.2842 L84.97123,-112.7544 L84.67214,-112.2431 L84.34501,-111.7565 L83.99394,-111.3008 L83.62336,-110.8818 L83.23792,-110.5047 L82.84248,-110.1743 L82.44199,-109.8947 L12.43649,-65.76559" />
      <path d="M8.995799,-62.90483 L8.995799,-72.16275 Q9.534583,-73.33295 12.43649,-75.02351" />
      <path d="M9.495568,-78.00259 L9.495568,-78.03333 L5.669291,-75.82423" />
      <path d="M5.669291,-74.06331 L5.669291,-92.84332" />
      <path d="M9.353853,-96.43661 A9.448133,5.454883 180 0 1 -9.447649,-97.20726 L-9.447649,-106.4652 A9.448133,5.454883 180 0 1 -9.352238,-107.2384" />
      <path d="M-10.02199,-106.8518 L-3.340662,-110.7092 L-3.052083,-110.8859 L-2.781739,-111.0723 L-2.530337,-111.2677 L-2.298534,-111.4718 L-2.086937,-111.684 L-1.8961,-111.9038 L-1.726522,-112.1305 L-1.578646,-112.3636 L-1.45286,-112.6024 L-1.349492,-112.8464 L-1.268813,-113.0949 L-1.211033,-113.3472 L-1.176305,-113.6028 L-1.164719,-113.8608 L-1.164719,-118.4435 L-1.164719,-121.7924" />
      <path d="M-1.422641,-121.573 A9.442369,5.451554 180 0 1 -10.49976,-118.38" />
      <path d="M-10.49537,-116.383 L-10.02199,-116.1097 L-10.02199,-106.8518 L-10.47498,-107.1133" />
      <path d="M-9.447649,-106.4652 A9.448133,5.454883 180 0 0 9.353853,-105.6945 L10.16451,-109.8657 L9.321194,-110.3501" />
      <path d="M9.495568,-110.25 L9.495568,-110.4508 L5.669291,-108.2417" />
      <path d="M5.669291,-106.466 L5.669291,-125.225" />
      <path d="M4.223715,-124.6588 Q7.328135,-125.6809 8.995799,-127.7102 Q9.650002,-128.886 12.43649,-130.571 L12.43649,-139.8289 L73.21838,-178.6069 L73.41734,-178.727 L73.61567,-178.8333 L73.81276,-178.9252 L74.00799,-179.0027 L74.20074,-179.0653 L74.39041,-179.113 L74.5764,-179.1455 L74.75814,-179.1628 L74.93505,-179.1648 L75.10658,-179.1515 L75.27218,-179.1229 L75.43134,-179.0792 L75.58356,-179.0204 L75.72838,-178.9469 L75.86576,-178.8583 L75.9948,-178.7554 L76.11506,-178.6383 L76.22618,-178.5075 L76.3278,-178.3633 L76.41962,-178.2063 L76.50132,-178.0369 L76.57265,-177.8557 L76.6334,-177.6632 L76.68337,-177.4601 L76.7224,-177.2469 L76.75036,-177.0244 L76.76717,-176.7932 L76.77279,-176.5542 L76.77279,-175.937 L76.75043,-175.439 L76.68367,-174.9187 L76.57333,-174.3828 L76.42079,-173.8379 L76.22798,-173.2908 L75.99733,-172.7485 L75.73173,-172.2178 L75.43452,-171.7054 L75.10944,-171.2176 L74.76057,-170.7607 L74.39233,-170.3403 L74.00931,-169.9619 L73.61635,-169.63 L73.21838,-169.3489 L12.43649,-130.571" />
      <path d="M8.995799,-127.7102 L8.995799,-136.9681 Q9.650002,-138.1439 12.43649,-139.8289" />
      <path d="M9.495568,-142.808 L9.495568,-142.8387 L5.669291,-140.6296" />
      <path d="M5.669291,-138.8687 L5.669291,-157.6487" />
      <path d="M9.353853,-161.242 A9.448133,5.454883 180 0 1 -9.447649,-162.0126 L-9.447649,-171.2706 A9.448133,5.454883 180 0 1 -9.352238,-172.0438" />
      <path d="M-10.02199,-171.6572 L-10.02199,-180.9151 L-10.63807,-181.2708" />
      <path d="M-10.02199,-180.9151 L-3.340662,-184.7725 L-3.309577,-184.7906 L-3.278684,-184.8088 L-3.247986,-184.827 L-3.217482,-184.8454 L-3.187174,-184.8639 L-3.157062,-184.8825 L-3.127148,-184.9012 L-3.097433,-184.9201 L-3.067916,-184.939 L-3.038599,-184.958 L-3.009483,-184.9772 L-2.980569,-184.9964 L-2.951857,-185.0157 L-2.923349,-185.0352" />
      <path d="M-1.422641,-186.3784 Q1.01667,-188.5014 4.223715,-189.4642 Q7.328135,-190.4863 8.995799,-192.5156 Q9.880494,-193.8536 11.37754,-194.823" />
      <path d="M8.995799,-192.5156 L8.995799,-201.7735 Q9.880494,-203.1115 11.37754,-204.0809" />
      <path d="M8.995799,-201.7735 Q7.328135,-199.7442 4.223715,-198.7221 L4.223715,-189.4642" />
      <path d="M5.669291,-190.0304 L5.669291,-171.2714 A5.669291,3.273167 0 0 0 4.289533,-173.4116" />
      <path d="M3.706854,-173.748 A5.669291,3.273167 0 0 0 -5.669291,-171.2714 L-5.669291,-174.1702" />
      <path d="M-3.340662,-175.5146 L-3.052083,-175.6913 L-2.781739,-175.8777 L-2.530337,-176.0731 L-2.298534,-176.2772 L-2.086937,-176.4894 L-1.8961,-176.7092 L-1.726522,-176.9359 L-1.578646,-177.169 L-1.45286,-177.4078 L-1.349492,-177.6518 L-1.268813,-177.9003 L-1.211033,-178.1526 L-1.176305,-178.4082 L-1.164719,-178.6662 L-1.164719,-183.2489 L-1.164719,-186.5978" />
      <path d="M-1.422641,-186.3784 A9.442369,5.451554 180 0 1 -10.64229,-183.1902" />
      <path d="M-10.66266,-192.4489 A9.442369,5.451554 180 0 0 -1.422641,-195.6363 Q1.01667,-197.7593 4.223715,-198.7221" />
      <path d="M-1.422641,-195.6363 L-1.422641,-186.3784" />
      <path d="M-3.340662,-175.5146 L-10.02199,-171.6572 L-10.61769,-172.0011" />
      <path d="M-9.447649,-171.2706 A9.448133,5.454883 180 0 0 9.353853,-170.4999 L10.16451,-174.6711 L9.347544,-175.1404" />
      <path d="M9.495568,-175.0554 L9.495568,-175.2258 L5.669291,-173.0167" />
      <path d="M5.669291,-171.2714 A5.669291,3.273167 0 0 1 -4.008794,-168.9569 A5.669291,3.273167 0 0 1 -5.669291,-171.2714" />
      <path d="M-5.669291,-157.6491 L-5.669291,-138.8687 A5.669291,3.273167 0 0 0 -4.008794,-136.5542 A5.669291,3.273167 0 0 0 5.669291,-138.8687 A5.669291,3.273167 0 1 0 -5.669291,-138.8687" />
      <path d="M-7.936173,-141.7526 Q-9.066099,-140.5919 -10.54659,-139.6723" />
      <path d="M-10.54024,-136.787 A3.779528,2.182111 0 0 1 -6.242458,-134.6255 L-6.242458,-133.0825 A3.779528,2.182111 0 0 1 -10.52734,-130.92" />
      <path d="M-10.53073,-132.4632 A3.779528,2.182111 0 0 0 -6.242458,-134.6255" />
      <path d="M-1.422641,-130.8309 Q1.01667,-132.9539 4.223715,-133.9167 Q7.328135,-134.9388 8.995799,-136.9681" />
      <path d="M4.223715,-133.9167 L4.223715,-124.6588 Q1.01667,-123.696 -1.422641,-121.573 L-1.422641,-130.8309 A9.442369,5.451554 180 0 1 -10.52012,-127.6385" />
      <path d="M-3.340662,-119.9671 L-3.309577,-119.9852 L-3.278684,-120.0034 L-3.247986,-120.0216 L-3.217482,-120.04 L-3.187174,-120.0585 L-3.157062,-120.0771 L-3.127148,-120.0958 L-3.097433,-120.1147 L-3.067916,-120.1336 L-3.038599,-120.1526 L-3.009483,-120.1718 L-2.980569,-120.191 L-2.951857,-120.2104 L-2.923349,-120.2298" />
      <path d="M-3.340662,-119.9671 L-10.02199,-116.1097" />
      <path d="M-5.669291,-109.3648 L-5.669291,-106.466 A5.669291,3.273167 0 0 0 -4.008794,-104.1515 A5.669291,3.273167 0 0 0 5.669291,-106.466 A5.669291,3.273167 0 1 0 -5.669291,-106.466" />
      <path d="M-5.669291,-92.84374 L-5.669291,-74.06331 A5.669291,3.273167 0 0 0 -4.008794,-71.74883 A5.669291,3.273167 0 0 0 5.669291,-74.06331 A5.669291,3.273167 0 1 0 -5.669291,-74.06331" />
      <path d="M-7.936173,-76.94724 Q-9.011474,-75.84264 -10.40426,-74.95643" />
      <path d="M-10.39774,-71.9914 A3.779528,2.182111 0 0 1 -6.242458,-69.8201 L-6.242458,-68.27711 A3.779528,2.182111 0 0 1 -10.38479,-66.10508" />
      <path d="M-10.38819,-67.64825 A3.779528,2.182111 0 0 0 -6.242458,-69.8201" />
      <path d="M-1.422641,-66.02548 Q1.01667,-68.14851 4.223715,-69.11133 Q7.328135,-70.13341 8.995799,-72.16275" />
      <path d="M4.223715,-69.11133 L4.223715,-59.85342 Q1.01667,-58.89059 -1.422641,-56.76757 A9.442369,5.451554 180 0 1 -10.35723,-53.57108" />
      <path d="M-10.35266,-51.49519 L-10.02199,-51.30427 L-10.02199,-42.04636" />
      <path d="M-9.447649,-41.65977 L-9.447649,-32.40186 A9.448133,5.454883 180 0 0 9.353853,-31.63121" />
    </g>
    <g id="Inline" stroke-width="0.3779528" style="stroke:black;fill:none;">
      <path d="M-3.340662,-45.90382 L-3.340662,-55.16174" />
      <path d="M81.60349,-119.6341 L82.44199,-119.1526" />
      <path d="M72.3574,-179.1013 L73.21838,-178.6069" />
      <path d="M37.72183,-223.9098 L38.76185,-223.3126" />
      <path d="M-3.340662,-175.5146 L-3.340662,-184.7725" />
      <path d="M-3.340662,-110.7092 L-3.340662,-119.9671" />
    </g>
    <g id="HiddenOutline" stroke-width="0.3779528" stroke-dasharray="2 0.5" style="stroke:black;fill:none;">
      <path d="M-15.67257,-277.9087 A5.669291,3.273167 0 0 0 -14.01207,-275.5942 A5.669291,3.273167 0 0 0 -4.333987,-277.9087" />
      <path d="M17.37144,-304.7397 L-24.13488,-249.986" />
      <path d="M-22.66267,-244.5322 Q-19.70305,-238.2048 -10.75697,-235.3336" />
      <path d="M-10.76203,-237.6333 A5.669291,3.273167 0 0 1 -14.01207,-238.5626 A5.669291,3.273167 0 0 1 -15.67257,-240.877" />
      <path d="M-22.66267,-235.2742 L-22.66267,-244.5322 L-1.282432,-256.876" />
      <path d="M-0.1823215,-256.2409 L-1.282432,-256.876 L-1.282432,-247.6181" />
      <path d="M-5.669291,-246.8777 A5.669291,3.273167 0 0 0 -4.333987,-244.7676 A5.669291,3.273167 0 0 1 -5.669291,-246.8777 Z" />
      <path d="M-4.333987,-248.9878 A5.669291,3.273167 0 0 0 -5.669291,-246.8777 L-5.669291,-237.6198" />
      <path d="M-4.333987,-240.877 L-4.333987,-231.6191 L-4.333987,-240.877 Z" />
      <path d="M0.9500972,-241.2345 L3.598939,-242.7638" />
      <path d="M4.934291,-242.0047 L2.639606,-240.7778" />
      <path d="M2.286362,-240.463 L0.9500972,-241.2345 L0.9807411,-226.5067" />
      <path d="M2.317006,-225.7352 L2.286362,-240.463 L4.935204,-241.9923" />
      <path d="M13.56338,-234.7119 L15.48047,-237.7023" />
      <path d="M17.31761,-236.8794 L-1.282432,-247.6181 L-22.66267,-235.2742 Q-19.69968,-228.9396 -10.7366,-226.0692" />
      <path d="M-5.669291,-224.8106 L-5.669291,-246.8777 A5.669291,3.273167 0 0 1 -4.333987,-248.9878" />
      <path d="M-4.333987,-250.7641 L-4.333987,-277.9087 A5.669291,3.273167 0 1 0 -15.67257,-277.9087 L-15.67257,-231.6191 A5.669291,3.273167 0 0 0 -14.01207,-229.3046 A5.669291,3.273167 0 0 0 -4.333987,-231.6191 A5.669291,3.273167 0 1 0 -15.67257,-231.6191 A5.669291,3.273167 0 0 0 -14.01207,-229.3046 A5.669291,3.273167 0 0 0 -4.333987,-231.6191 A5.669291,3.273167 0 1 0 -15.67257,-231.6191 L-15.67257,-240.877 A5.669291,3.273167 0 0 1 -9.363571,-244.1293" />
      <path d="M-10.77223,-242.271 L-24.13488,-249.986 L-23.57223,5.850905" />
      <path d="M-19.46436,5.786196 A9.442369,5.451554 180 0 0 -1.422641,8.037832 Q-0.455606,7.196186 0.6320882,6.536879 L-12.02638,-0.7714928 L-14.69891,13.11538" />
      <path d="M-10.20958,13.56583 L-23.57223,5.850905 L-12.02638,-0.7714928" />
      <path d="M-13.95614,0.830367 L-13.95614,-8.427547" />
      <path d="M-10.25523,-7.192656 A3.779528,2.182111 0 0 0 -13.80151,-5.014703 L-13.80151,5.786196 A3.779528,2.182111 0 0 0 -12.69452,7.329182 A3.779528,2.182111 0 0 0 -6.242458,5.786196 A3.779528,2.182111 0 1 0 -13.80151,5.786196 A3.779528,2.182111 0 0 0 -12.69452,7.329182 A3.779528,2.182111 0 0 0 -6.242458,5.786196 A3.779528,2.182111 0 1 0 -13.80151,5.786196 L-13.80151,-3.471718" />
      <path d="M-19.46436,-3.471718 A9.442369,5.451554 180 0 1 -13.95614,-8.427547 Q-11.88762,-9.182797 -10.26194,-10.2427" />
      <path d="M-5.669291,-9.257914 L-5.669291,0 L-5.669291,-9.257914 Z" />
      <path d="M-1.336265,-14.65836 L-1.336265,-5.40045" />
      <path d="M5.669291,-9.257914 L5.669291,0 A5.669291,3.273167 0 1 0 -5.669291,-4.008473E-16 A5.669291,3.273167 0 0 0 -4.008794,2.314478 A5.669291,3.273167 0 0 0 5.669291,8.016947E-16 A5.669291,3.273167 0 1 0 -5.669291,-4.008473E-16 A5.669291,3.273167 0 0 0 -4.008794,2.314478 A5.669291,3.273167 0 0 0 5.669291,8.016947E-16 L5.669291,-9.257914 Z" />
      <path d="M2.671269,-12.24879 L5.343798,-10.70581" />
      <path d="M9.495568,-13.10283 L6.823039,-14.64582" />
      <path d="M5.883752,-15.11884 L-1.336265,-14.65836 A9.145947,5.280415 360 0 0 -5.669291,-13.61185" />
      <path d="M-7.936173,-12.14185 L-7.936173,-2.883934" />
      <path d="M-6.242458,-3.471718 L-6.242458,5.786196 L-6.242458,-3.471718 A3.779528,2.182111 0 1 0 -13.80151,-3.471718 A3.779528,2.182111 0 0 0 -12.69452,-1.928732 A3.779528,2.182111 0 0 0 -10.24226,-1.293316" />
      <path d="M-10.23506,1.978449 A9.442369,5.451554 180 0 1 -19.46436,-3.471718 L-19.46436,5.786196 A9.442369,5.451554 180 0 1 -13.95614,0.830367 Q-10.22619,-0.5314944 -7.936173,-2.883934 A9.145947,5.280415 360 0 1 -1.336265,-5.40045 L5.883752,-5.860928 L5.883752,-15.11884 L9.356726,-13.11704 L9.356726,-3.859122" />
      <path d="M9.495568,-3.993875 L40.08794,-21.6018 Q61.16929,-33.77312 73.04216,-49.88584" />
      <path d="M73.17367,-49.96177 L73.17367,-48.88001" />
      <path d="M73.8475,-48.49423 L73.17367,-48.88001 C71.51269,-46.82006 69.79614,-44.8393 68.02993,-42.96458 C65.06239,-39.81475 61.95747,-36.9761 58.80169,-34.41292 C56.01952,-32.15319 53.19983,-30.09731 50.37013,-28.16771 C47.54043,-26.23812 44.70082,-24.43462 41.85855,-22.70267 L41.84397,-22.61564 L9.356726,-3.859122 L5.883752,-5.860928" />
      <path d="M6.823039,-5.53686 L37.41541,-23.14478 Q85.52094,-50.91853 85.67731,-99.21539" />
      <path d="M88.34984,-97.6724 L85.67731,-99.21539 C86.79472,-150.0828 81.5602,-202.7281 37.31709,-229.2408" />
      <path d="M40.36398,-224.1739 L40.50861,-224.0813 L40.64443,-223.9744 L40.77103,-223.8537 L40.888,-223.7195 L40.99498,-223.5723 L41.09162,-223.4125 L41.17762,-223.2407 L41.25271,-223.0573 L41.31666,-222.8629 L41.36926,-222.6583 L41.41034,-222.4439 L41.43978,-222.2206 L41.45748,-221.9889 L41.46338,-221.7497 L41.46338,-221.1325 L41.43986,-220.6351 L41.36958,-220.1169 L41.25342,-219.5843 L41.09285,-219.044 L40.88989,-218.5028 L40.64709,-217.9675 L40.36751,-217.4448 L40.05465,-216.9413 L39.71246,-216.4634 L39.34523,-216.017 L38.95758,-215.6078 L38.5544,-215.2409 L38.14075,-214.9209 L37.72183,-214.6519 L9.34591,-198.2691 L5.779724,-200.2969" />
      <path d="M5.669291,-203.6741 L5.669291,-194.4162 A5.669291,3.273167 0 1 0 -5.669291,-194.4162 A5.669291,3.273167 0 0 0 -4.008794,-192.1017 A5.669291,3.273167 0 0 0 5.669291,-194.4162" />
      <path d="M5.669291,-190.0304 L5.669291,-203.6741" />
      <path d="M4.120362,-205.9223 A5.669291,3.273167 0 0 0 3.894031,-206.053" />
      <path d="M2.644318,-206.7745 L5.316847,-205.2315" />
      <path d="M5.669291,-205.435 L5.316847,-205.2315 L5.312136,-239.2348" />
      <path d="M4.958891,-238.9216 L4.989535,-224.1938" />
      <path d="M5.669291,-223.8013 L4.989535,-224.1938 L14.1442,-238.4737" />
      <path d="M11.47167,-240.0152 L2.317006,-225.7352 L0.9807411,-226.5067 L10.13541,-240.7866 L11.47167,-240.0152 L4.935204,-241.9923 L3.598939,-242.7638 L10.13541,-240.7866" />
      <path d="M8.943998,-239.6794 L6.295156,-238.1501" />
      <path d="M5.669291,-237.6198 A5.669291,3.273167 0 1 0 -5.669291,-237.6198 A5.669291,3.273167 0 0 0 -4.008794,-235.3053 A5.669291,3.273167 0 0 0 5.669291,-237.6198 L5.669291,-246.8777 L5.669291,-230.1542" />
      <path d="M6.311022,-230.5247 L6.295156,-238.1501 L4.958891,-238.9216 L7.607734,-240.4509 L14.1442,-238.4737 L15.48047,-237.7023 L8.943998,-239.6794 L7.607734,-240.4509" />
      <path d="M7.606821,-240.4617 L4.934291,-242.0047 C9.286357,-240.9707 13.41029,-239.7778 17.31761,-238.4356" />
      <path d="M17.31761,-237.7765 C14.21407,-238.764 10.97893,-239.6606 7.606821,-240.4617 L5.312136,-239.2348 L2.639606,-240.7778 L2.644318,-206.7745 L6.823039,-209.1871 L6.823039,-199.944 L2.645598,-197.5321 L2.648809,-174.3588 L6.823039,-176.7688 L6.823039,-167.5257 L2.650089,-165.1164 L2.653296,-141.9743 L6.823039,-144.3817 L6.823039,-135.1386 L2.654576,-132.7319 L2.657783,-109.589 L6.823039,-111.9938 L6.823039,-102.7506 L2.659063,-100.3466 L2.662273,-77.1741 L6.823039,-79.57631 L6.823039,-70.33317 L2.663554,-67.93169 L2.66676,-44.78875 L6.823039,-47.18838 L6.823039,-37.94523 L2.668041,-35.54634 L2.671269,-12.24879 L6.823039,-14.64582 L6.823039,-5.53686 L9.495568,-3.993875 L9.495568,-13.10283 L5.343798,-10.70581 L5.34057,-34.00336" />
      <path d="M5.669291,-32.4027 A5.669291,3.273167 0 1 0 -5.669291,-32.4027 A5.669291,3.273167 0 0 0 -4.008794,-30.08822 A5.669291,3.273167 0 0 0 5.669291,-32.4027 L5.669291,-41.66061 L5.669291,-28.03792" />
      <path d="M5.34057,-34.00336 L2.668041,-35.54634" />
      <path d="M5.34057,-34.00336 L9.495568,-36.40225 L6.823039,-37.94523" />
      <path d="M6.681324,-37.80315 L75.08795,-77.29773 L75.50688,-77.56677 L75.92055,-77.88676 L76.32375,-78.25366 L76.7114,-78.66288 L77.07864,-79.10926 L77.42084,-79.5872 L77.7337,-80.09067 L78.0133,-80.61334 L78.25611,-81.14866 L78.45908,-81.68988 L78.61964,-82.23019 L78.7358,-82.76281 L78.80609,-83.28104 L78.82961,-83.77834 L78.82961,-84.39554 L78.82379,-84.63316 L78.80634,-84.8633 L78.7773,-85.08527 L78.73678,-85.29837 L78.6849,-85.50193 L78.62181,-85.69531 L78.54773,-85.87793 L78.46288,-86.0492 L78.36751,-86.2086 L78.26193,-86.35562 L78.14647,-86.48981 L78.02149,-86.61077 L77.88737,-86.71809 L77.74454,-86.81146 L77.04559,-87.22163 L77.19498,-87.1244 L77.33527,-87.01347 L77.46599,-86.88914 L77.58675,-86.75183 L77.69718,-86.60196 L77.79693,-86.43999 L77.88569,-86.26643 L77.96317,-86.08182 L78.02916,-85.88673 L78.08342,-85.68178 L78.12581,-85.46759 L78.15617,-85.24483 L78.17443,-85.01421 L78.18053,-84.77644 L78.18053,-84.15925 L78.15591,-83.66257 L78.08241,-83.14625 L77.96091,-82.61676 L77.79296,-82.08077 L77.58067,-81.54503 L77.3267,-81.01626 L77.03426,-80.50112 L76.70702,-80.00609 L76.34908,-79.53738 L75.96497,-79.10091 L75.5595,-78.70214 L75.13778,-78.34611 L74.70511,-78.03728 L74.26692,-77.77953 L2.133623,-39.82269 Q-0.4135446,-38.33411 -2.174324,-37.85141 L-2.174324,-47.10933 Q-0.4135446,-47.59202 2.133623,-49.0806 L74.26692,-87.03745 L74.4875,-87.14665 L74.70739,-87.24178 L74.92587,-87.32251 L75.14226,-87.3886 L75.35586,-87.43984 L75.566,-87.47607 L75.77201,-87.49716 L75.97324,-87.50306 L76.16904,-87.49374 L76.35879,-87.46924 L76.54189,-87.42963 L76.71777,-87.37503 L76.88584,-87.30562 L77.04559,-87.22163" />
      <path d="M77.74454,-86.81146 L77.59181,-86.89134 L77.43111,-86.95641 L77.26297,-87.00647 L77.08791,-87.04137 L76.90649,-87.06098 L76.7193,-87.06525 L76.52692,-87.05416 L76.32996,-87.02776 L76.12904,-86.98611 L75.92483,-86.92937 L75.71795,-86.8577 L75.50906,-86.77132 L75.29884,-86.67054 L75.08795,-86.55565 L6.681324,-47.06106 L6.681324,-37.80315 L10.16451,-35.8024" />
      <path d="M9.495568,-36.40225 L9.495568,-45.44456" />
      <path d="M9.495568,-45.64539 L6.823039,-47.18838" />
      <path d="M6.681324,-47.06106 L9.321194,-45.54472" />
      <path d="M5.669291,-43.43629 L5.33929,-43.24577 L2.66676,-44.78875" />
      <path d="M5.33929,-43.24577 L5.336083,-66.3887 L9.495568,-68.79018 L6.823039,-70.33317" />
      <path d="M5.760823,-70.7373 L9.353853,-68.66286 L9.353853,-77.92078" />
      <path d="M9.327239,-77.93614 L5.760823,-79.99522 L-1.336265,-79.46376 A9.145947,5.280415 360 0 0 -5.669291,-78.41725" />
      <path d="M-7.936173,-76.94724 L-7.936173,-67.68933 Q-10.22619,-65.33689 -13.95614,-63.97503 L-13.95614,-73.23295 A9.442369,5.451554 180 0 0 -19.46436,-68.27711 L-19.46436,-59.0192 A9.442369,5.451554 180 0 1 -13.95614,-63.97503" />
      <path d="M-16.70331,-62.87667 L-16.01026,-63.22829 L-15.2419,-63.52699 L-14.40789,-63.76899 L-13.51873,-63.95126 L-12.5856,-64.07151 L-11.62023,-64.12823 L-10.63476,-64.1207 L-9.641584,-64.049 L-8.653193,-63.91407 L-7.682013,-63.71757 L-6.740261,-63.46199 L-5.839778,-63.15053 L-4.991889,-62.78713 L-4.207256,-62.37634 L-3.810476,-62.13475 L-3.436836,-61.88155 L-3.087728,-61.6177 L-2.764453,-61.34416 L-2.468216,-61.06196 L-2.200119,-60.77215 L-1.961161,-60.47581 L-1.752234,-60.17404 L-1.574114,-59.86797 L-1.427466,-59.55874 L-1.312836,-59.2475 L-1.230651,-58.93541 L-1.181218,-58.62363 L-1.164719,-58.31333 L-1.164719,-56.98702" />
      <path d="M-1.164719,-58.31333 L-1.174004,-58.08222 L-1.201839,-57.85308 L-1.248165,-57.62638 L-1.312886,-57.40261 L-1.395865,-57.18222 L-1.496929,-56.96569 L-1.615866,-56.75346 L-1.752427,-56.54598 L-1.906325,-56.34369 L-2.077238,-56.147 L-2.264807,-55.95634 L-2.468638,-55.77209 L-2.688306,-55.59466 L-2.923349,-55.4244" />
      <path d="M-4.207256,-53.11842 L-4.991889,-53.52921 L-5.839778,-53.89262 L-6.740261,-54.20407 L-7.682013,-54.45965 L-8.653193,-54.65615 L-9.641584,-54.79109 L-10.63476,-54.86278 L-11.62023,-54.87032 L-12.5856,-54.8136 L-13.51873,-54.69335 L-14.40789,-54.51107 L-15.2419,-54.26907 L-16.01026,-53.97038 L-16.70331,-53.61875 L-23.38463,-49.76129 L-23.38463,-59.0192 L-16.70331,-62.87667" />
      <path d="M-19.46436,-59.0192 A9.442369,5.451554 180 0 0 -10.35723,-53.57108" />
      <path d="M-10.35266,-51.49519 L-23.38463,-59.0192" />
      <path d="M-23.38463,-49.76129 L-10.33228,-42.22551" />
      <path d="M-9.352238,-42.43304 A9.448133,5.454883 180 0 1 -6.67293,-45.52124 Q-5.309525,-46.37431 -2.174324,-47.10933" />
      <path d="M-1.164719,-49.05541 L-1.181218,-49.36572 L-1.230651,-49.6775 L-1.312836,-49.98959 L-1.427466,-50.30083 L-1.574114,-50.61006 L-1.752234,-50.91613 L-1.961161,-51.2179 L-2.200119,-51.51424 L-2.468216,-51.80405 L-2.764453,-52.08625 L-3.087728,-52.35978 L-3.436836,-52.62364 L-3.810476,-52.87683 L-4.207256,-53.11842" />
      <path d="M-6.242458,-49.76129 A3.779528,2.182111 0 1 0 -13.80151,-49.76129 A3.779528,2.182111 0 0 0 -12.69452,-48.2183 A3.779528,2.182111 0 0 0 -6.242458,-49.76129 L-6.242458,-59.0192 A3.779528,2.182111 0 1 0 -13.80151,-59.0192 L-13.80151,-49.76129" />
      <path d="M-13.80151,-48.2183 L-13.80151,-69.8201 A3.779528,2.182111 0 0 0 -12.69452,-68.27711 A3.779528,2.182111 0 0 0 -10.38819,-67.64825" />
      <path d="M-10.38479,-66.10508 A3.779528,2.182111 0 0 1 -12.69452,-66.73413 A3.779528,2.182111 0 0 1 -13.80151,-68.27711 L-13.80151,-59.0192 A3.779528,2.182111 0 0 0 -12.69452,-57.47622 A3.779528,2.182111 0 0 0 -6.242458,-59.0192 A3.779528,2.182111 0 1 0 -13.80151,-59.0192 A3.779528,2.182111 0 0 0 -12.69452,-57.47622 A3.779528,2.182111 0 0 0 -6.242458,-59.0192 L-6.242458,-68.27711 A3.779528,2.182111 0 1 0 -13.80151,-68.27711" />
      <path d="M-13.80151,-69.8201 A3.779528,2.182111 0 0 1 -10.39774,-71.9914" />
      <path d="M-10.40426,-74.95643 Q-11.97763,-73.95533 -13.95614,-73.23295" />
      <path d="M-19.46436,-68.27711 A9.442369,5.451554 180 0 0 -10.37759,-62.82943" />
      <path d="M-5.669291,-64.8054 L-5.669291,-74.06331 L-5.669291,-44.55939" />
      <path d="M-6.67293,-45.52124 L-6.67293,-36.26332 Q-5.309525,-37.1164 -2.174324,-37.85141" />
      <path d="M2.133623,-39.82269 L2.133623,-49.0806" />
      <path d="M-6.242458,-48.2183 L-6.242458,-68.27711" />
      <path d="M-7.936173,-67.68933 A9.145947,5.280415 360 0 1 -1.336265,-70.20585 L-1.336265,-79.46376" />
      <path d="M2.662273,-77.1741 L5.334803,-75.63111 L5.669291,-75.82423" />
      <path d="M5.334803,-75.63111 L5.331593,-98.80357 L9.495568,-101.2076 L6.823039,-102.7506" />
      <path d="M6.681324,-102.6085 L10.16451,-100.6078" />
      <path d="M9.495568,-101.2076 L9.495568,-110.25" />
      <path d="M9.495568,-110.4508 L6.823039,-111.9938" />
      <path d="M6.681324,-111.8665 L9.321194,-110.3501" />
      <path d="M6.681324,-111.8665 L75.08795,-151.361 L75.29884,-151.4759 L75.50906,-151.5767 L75.71795,-151.6631 L75.92483,-151.7348 L76.12904,-151.7915 L76.32996,-151.8332 L76.52692,-151.8596 L76.7193,-151.8707 L76.90649,-151.8664 L77.08791,-151.8468 L77.26297,-151.8119 L77.43111,-151.7618 L77.59181,-151.6967 L77.74454,-151.6169 L77.04559,-152.027 L77.19498,-151.9298 L77.33527,-151.8189 L77.46599,-151.6945 L77.58675,-151.5572 L77.69718,-151.4074 L77.79693,-151.2454 L77.88569,-151.0718 L77.96317,-150.8872 L78.02916,-150.6921 L78.08342,-150.4872 L78.12581,-150.273 L78.15617,-150.0502 L78.17443,-149.8196 L78.18053,-149.5818 L78.18053,-148.9646 L78.15591,-148.468 L78.08241,-147.9516 L77.96091,-147.4222 L77.79296,-146.8862 L77.58067,-146.3504 L77.3267,-145.8217 L77.03426,-145.3065 L76.70702,-144.8115 L76.34908,-144.3428 L75.96497,-143.9063 L75.5595,-143.5075 L75.13778,-143.1515 L74.70511,-142.8427 L74.26692,-142.5849 L2.133623,-104.6281 Q-0.4135446,-103.1395 -2.174324,-102.6568 L-2.174324,-111.9147 Q-0.4135446,-112.3974 2.133623,-113.886 L74.26692,-151.8428 L74.4875,-151.9521 L74.70739,-152.0472 L74.92587,-152.1279 L75.14226,-152.194 L75.35586,-152.2452 L75.566,-152.2815 L75.77201,-152.3026 L75.97324,-152.3085 L76.16904,-152.2991 L76.35879,-152.2746 L76.54189,-152.235 L76.71777,-152.1804 L76.88584,-152.111 L77.04559,-152.027" />
      <path d="M77.74454,-151.6169 L77.88737,-151.5235 L78.02149,-151.4162 L78.14647,-151.2952 L78.26193,-151.161 L78.36751,-151.014 L78.46288,-150.8546 L78.54773,-150.6833 L78.62181,-150.5007 L78.6849,-150.3073 L78.73678,-150.1038 L78.7773,-149.8907 L78.80634,-149.6687 L78.82379,-149.4386 L78.82961,-149.2009 L78.82961,-148.5837 L78.80609,-148.0864 L78.7358,-147.5682 L78.61964,-147.0356 L78.45908,-146.4953 L78.25611,-145.9541 L78.0133,-145.4187 L77.7337,-144.8961 L77.42084,-144.3926 L77.07864,-143.9147 L76.7114,-143.4683 L76.32375,-143.0591 L75.92055,-142.6922 L75.50688,-142.3722 L75.08795,-142.1031 L6.681324,-102.6085 L6.681324,-111.8665" />
      <path d="M5.669291,-108.2417 L5.330312,-108.046 L2.657783,-109.589" />
      <path d="M5.330312,-108.046 L5.327106,-131.1889 L9.495568,-133.5956 L6.823039,-135.1386" />
      <path d="M5.755105,-135.546 L-1.336265,-135.0112 A9.145947,5.280415 360 0 0 -7.936173,-132.4947 Q-10.22619,-130.1423 -13.95614,-128.7804 L-13.95614,-138.0383 A9.442369,5.451554 180 0 0 -19.46436,-133.0825 L-19.46436,-123.8246 A9.442369,5.451554 180 0 1 -13.95614,-128.7804" />
      <path d="M-16.70331,-127.6821 L-16.01026,-128.0337 L-15.2419,-128.3324 L-14.40789,-128.5744 L-13.51873,-128.7567 L-12.5856,-128.8769 L-11.62023,-128.9336 L-10.63476,-128.9261 L-9.641584,-128.8544 L-8.653193,-128.7195 L-7.682013,-128.523 L-6.740261,-128.2674 L-5.839778,-127.9559 L-4.991889,-127.5925 L-4.207256,-127.1817 L-3.810476,-126.9401 L-3.436836,-126.687 L-3.087728,-126.4231 L-2.764453,-126.1496 L-2.468216,-125.8674 L-2.200119,-125.5775 L-1.961161,-125.2812 L-1.752234,-124.9794 L-1.574114,-124.6734 L-1.427466,-124.3641 L-1.312836,-124.0529 L-1.230651,-123.7408 L-1.181218,-123.429 L-1.164719,-123.1187 L-1.164719,-121.7924" />
      <path d="M-1.164719,-123.1187 L-1.174004,-122.8876 L-1.201839,-122.6585 L-1.248165,-122.4318 L-1.312886,-122.208 L-1.395865,-121.9876 L-1.496929,-121.7711 L-1.615866,-121.5589 L-1.752427,-121.3514 L-1.906325,-121.1491 L-2.077238,-120.9524 L-2.264807,-120.7617 L-2.468638,-120.5775 L-2.688306,-120.4001 L-2.923349,-120.2298" />
      <path d="M-4.207256,-117.9238 L-4.991889,-118.3346 L-5.839778,-118.698 L-6.740261,-119.0095 L-7.682013,-119.2651 L-8.653193,-119.4615 L-9.641584,-119.5965 L-10.63476,-119.6682 L-11.62023,-119.6757 L-12.5856,-119.619 L-13.51873,-119.4987 L-14.40789,-119.3165 L-15.2419,-119.0745 L-16.01026,-118.7758 L-16.70331,-118.4241 L-23.38463,-114.5667 L-23.38463,-123.8246 L-16.70331,-127.6821" />
      <path d="M-19.46436,-123.8246 A9.442369,5.451554 180 0 0 -10.49976,-118.38" />
      <path d="M-10.49537,-116.383 L-23.38463,-123.8246" />
      <path d="M-23.38463,-114.5667 L-10.47498,-107.1133" />
      <path d="M-9.352238,-107.2384 A9.448133,5.454883 180 0 1 -6.67293,-110.3266 Q-5.309525,-111.1797 -2.174324,-111.9147" />
      <path d="M-1.164719,-113.8608 L-1.181218,-114.1711 L-1.230651,-114.4829 L-1.312836,-114.795 L-1.427466,-115.1062 L-1.574114,-115.4155 L-1.752234,-115.7215 L-1.961161,-116.0233 L-2.200119,-116.3196 L-2.468216,-116.6094 L-2.764453,-116.8916 L-3.087728,-117.1652 L-3.436836,-117.429 L-3.810476,-117.6822 L-4.207256,-117.9238" />
      <path d="M-6.242458,-114.5667 A3.779528,2.182111 0 1 0 -13.80151,-114.5667 A3.779528,2.182111 0 0 0 -12.69452,-113.0237 A3.779528,2.182111 0 0 0 -6.242458,-114.5667 L-6.242458,-123.8246 A3.779528,2.182111 0 1 0 -13.80151,-123.8246 L-13.80151,-114.5667" />
      <path d="M-13.80151,-113.0237 L-13.80151,-134.6255 A3.779528,2.182111 0 0 0 -12.69452,-133.0825 A3.779528,2.182111 0 0 0 -10.53073,-132.4632" />
      <path d="M-10.52734,-130.92 A3.779528,2.182111 0 0 1 -12.69452,-131.5395 A3.779528,2.182111 0 0 1 -13.80151,-133.0825 L-13.80151,-123.8246 A3.779528,2.182111 0 0 0 -12.69452,-122.2816 A3.779528,2.182111 0 0 0 -6.242458,-123.8246 A3.779528,2.182111 0 1 0 -13.80151,-123.8246 A3.779528,2.182111 0 0 0 -12.69452,-122.2816 A3.779528,2.182111 0 0 0 -6.242458,-123.8246 L-6.242458,-133.0825 A3.779528,2.182111 0 1 0 -13.80151,-133.0825" />
      <path d="M-13.80151,-134.6255 A3.779528,2.182111 0 0 1 -10.54024,-136.787" />
      <path d="M-10.54659,-139.6723 Q-12.0666,-138.7282 -13.95614,-138.0383" />
      <path d="M-7.936173,-141.7526 L-7.936173,-132.4947" />
      <path d="M-6.242458,-133.0825 L-6.242458,-113.0237 A3.779528,2.182111 0 1 0 -13.80151,-113.0237 A3.779528,2.182111 0 0 0 -12.69452,-111.4807 A3.779528,2.182111 0 0 0 -6.242458,-113.0237" />
      <path d="M-6.67293,-110.3266 L-6.67293,-101.0687 Q-5.309525,-101.9218 -2.174324,-102.6568" />
      <path d="M2.133623,-104.6281 L2.133623,-113.886" />
      <path d="M5.669291,-106.466 L5.669291,-97.2081 A5.669291,3.273167 0 1 0 -5.669291,-97.2081 L-5.669291,-106.466 L-5.669291,-92.84374" />
      <path d="M-4.008794,-94.89362 A5.669291,3.273167 0 0 0 5.669291,-97.2081" />
      <path d="M5.331593,-98.80357 L2.659063,-100.3466" />
      <path d="M5.669291,-106.466 L5.669291,-92.84332" />
      <path d="M-4.008794,-94.89362 A5.669291,3.273167 0 0 1 -5.669291,-97.2081" />
      <path d="M-9.447649,-97.20726 A9.448133,5.454883 180 0 1 -6.67293,-101.0687" />
      <path d="M-5.669291,-109.3648 L-5.669291,-138.8687 L-5.669291,-129.6108 A5.669291,3.273167 0 0 0 -4.008794,-127.2963 A5.669291,3.273167 0 0 0 5.669291,-129.6108 L5.669291,-138.8687 L5.669291,-125.225" />
      <path d="M5.669291,-129.6108 A5.669291,3.273167 0 1 0 -5.669291,-129.6108" />
      <path d="M-10.52012,-127.6385 A9.442369,5.451554 180 0 1 -19.46436,-133.0825" />
      <path d="M-5.669291,-143.2226 A9.145947,5.280415 360 0 1 -1.336265,-144.2692 L-1.336265,-135.0112" />
      <path d="M2.654576,-132.7319 L5.327106,-131.1889" />
      <path d="M5.755105,-135.546 L5.755105,-144.804 L-1.336265,-144.2692" />
      <path d="M2.653296,-141.9743 L5.325825,-140.4313 L5.669291,-140.6296" />
      <path d="M5.325825,-140.4313 L5.322619,-163.5734 L9.495568,-165.9827 L6.823039,-167.5257" />
      <path d="M6.681324,-167.4139 L54.76385,-195.1744 L55.18279,-195.4434 L55.59645,-195.7634 L55.99965,-196.1303 L56.3873,-196.5396 L56.75454,-196.9859 L57.09674,-197.4639 L57.40961,-197.9673 L57.68921,-198.49 L57.93201,-199.0253 L58.13498,-199.5665 L58.29555,-200.1069 L58.41171,-200.6395 L58.48199,-201.1577 L58.50552,-201.655 L58.50552,-202.2722 L58.49969,-202.5098 L58.48223,-202.74 L58.4532,-202.9619 L58.41268,-203.175 L58.3608,-203.3786 L58.29772,-203.572 L58.22363,-203.7546 L58.13877,-203.9259 L58.04341,-204.0853 L57.93783,-204.2323 L57.82238,-204.3665 L57.69739,-204.4874 L57.56328,-204.5948 L57.42044,-204.6881 L56.70215,-205.1096 L56.85409,-205.0109 L56.99676,-204.8986 L57.12971,-204.773 L57.25254,-204.6344 L57.36485,-204.4835 L57.46629,-204.3205 L57.55656,-204.1461 L57.63537,-203.9607 L57.70248,-203.7649 L57.75767,-203.5594 L57.80078,-203.3448 L57.83166,-203.1217 L57.85023,-202.8909 L57.85643,-202.6531 L57.85643,-202.0359 L57.8314,-201.5395 L57.75663,-201.0239 L57.63307,-200.4956 L57.46225,-199.9613 L57.24634,-199.4277 L56.98805,-198.9015 L56.69062,-198.3893 L56.3578,-197.8975 L55.99377,-197.4324 L55.60311,-196.9997 L55.19073,-196.605 L54.76182,-196.2532 L54.32177,-195.9487 L53.87611,-195.6954 L2.133623,-169.4335 Q-0.8865773,-167.7628 -2.174324,-167.4622 Q-5.309525,-166.7272 -6.67293,-165.8741 L-6.67293,-175.132 Q-5.309525,-175.9851 -2.174324,-176.7201 Q-0.8865773,-177.0208 2.133623,-178.6914 L53.87611,-204.9533 L54.10046,-205.0603 L54.32409,-205.1532 L54.54629,-205.2317 L54.76637,-205.2957 L54.98361,-205.3448 L55.19733,-205.3789 L55.40686,-205.3979 L55.61152,-205.4018 L55.81065,-205.3905 L56.00364,-205.3641 L56.18987,-205.3227 L56.36873,-205.2663 L56.53967,-205.1953 L56.70215,-205.1096" />
      <path d="M57.42044,-204.6881 L57.26771,-204.768 L57.10702,-204.8331 L56.93888,-204.8831 L56.76382,-204.918 L56.5824,-204.9377 L56.3952,-204.9419 L56.20282,-204.9308 L56.00586,-204.9044 L55.80495,-204.8628 L55.60073,-204.806 L55.39385,-204.7344 L55.18497,-204.648 L54.97474,-204.5472 L54.76385,-204.4323 L6.681324,-176.6719 L6.681324,-167.4139 L10.16451,-165.4132" />
      <path d="M9.495568,-165.9827 L9.495568,-175.0554" />
      <path d="M9.495568,-175.2258 L6.823039,-176.7688" />
      <path d="M6.681324,-176.6719 L9.347544,-175.1404" />
      <path d="M5.669291,-173.0167 L5.321338,-172.8158 L2.648809,-174.3588" />
      <path d="M3.706854,-173.748 A5.669291,3.273167 0 0 1 4.289533,-173.4116" />
      <path d="M5.321338,-172.8158 L5.318128,-195.9891 L9.495568,-198.401 L6.823039,-199.944" />
      <path d="M5.779724,-200.2969 L-1.336265,-199.8167 A9.145947,5.280415 360 0 0 -7.936173,-197.3001 Q-10.22619,-194.9477 -13.95614,-193.5858 L-13.95614,-202.8437 A9.442369,5.451554 180 0 0 -19.46436,-197.8879 L-19.46436,-188.63 A9.442369,5.451554 180 0 1 -13.95614,-193.5858" />
      <path d="M-16.70331,-192.4875 L-16.01026,-192.8391 L-15.2419,-193.1378 L-14.40789,-193.3798 L-13.51873,-193.5621 L-12.5856,-193.6823 L-11.62023,-193.739 L-10.63476,-193.7315 L-9.641584,-193.6598 L-8.653193,-193.5249 L-7.682013,-193.3284 L-6.740261,-193.0728 L-5.839778,-192.7613 L-4.991889,-192.3979 L-4.207256,-191.9871 L-3.810476,-191.7455 L-3.436836,-191.4924 L-3.087728,-191.2285 L-2.764453,-190.955 L-2.468216,-190.6728 L-2.200119,-190.3829 L-1.961161,-190.0866 L-1.752234,-189.7848 L-1.574114,-189.4788 L-1.427466,-189.1695 L-1.312836,-188.8583 L-1.230651,-188.5462 L-1.181218,-188.2344 L-1.164719,-187.9241 L-1.164719,-186.5978" />
      <path d="M-1.164719,-187.9241 L-1.174004,-187.693 L-1.201839,-187.4639 L-1.248165,-187.2372 L-1.312886,-187.0134 L-1.395865,-186.793 L-1.496929,-186.5765 L-1.615866,-186.3643 L-1.752427,-186.1568 L-1.906325,-185.9545 L-2.077238,-185.7578 L-2.264807,-185.5671 L-2.468638,-185.3829 L-2.688306,-185.2055 L-2.923349,-185.0352" />
      <path d="M-4.207256,-182.7292 L-4.991889,-183.14 L-5.839778,-183.5034 L-6.740261,-183.8149 L-7.682013,-184.0704 L-8.653193,-184.267 L-9.641584,-184.4019 L-10.63476,-184.4736 L-11.62023,-184.4811 L-12.5856,-184.4244 L-13.51873,-184.3041 L-14.40789,-184.1219 L-15.2419,-183.8799 L-16.01026,-183.5812 L-16.70331,-183.2296 L-23.38463,-179.3721 L-23.38463,-188.63 L-16.70331,-192.4875" />
      <path d="M-19.46436,-188.63 A9.442369,5.451554 180 0 0 -10.64229,-183.1902" />
      <path d="M-10.63807,-181.2708 L-23.38463,-188.63" />
      <path d="M-23.38463,-179.3721 L-10.61769,-172.0011" />
      <path d="M-9.352238,-172.0438 A9.448133,5.454883 180 0 1 -6.67293,-175.132" />
      <path d="M-5.669291,-174.1702 L-5.669291,-203.6741 L-5.669291,-194.4162" />
      <path d="M-6.242458,-197.8879 L-6.242458,-188.63 L-6.242458,-179.3721 A3.779528,2.182111 0 1 0 -13.80151,-179.3721 A3.779528,2.182111 0 0 0 -12.69452,-177.8291 A3.779528,2.182111 0 0 0 -6.242458,-179.3721" />
      <path d="M-6.242458,-177.8291 L-6.242458,-197.8879 A3.779528,2.182111 0 1 0 -13.80151,-197.8879 L-13.80151,-188.63 L-13.80151,-179.3721" />
      <path d="M-13.80151,-177.8291 L-13.80151,-199.4309 A3.779528,2.182111 0 0 0 -12.69452,-197.8879 A3.779528,2.182111 0 0 0 -10.67328,-197.2814" />
      <path d="M-10.66989,-195.7381 A3.779528,2.182111 0 0 1 -12.69452,-196.3449 A3.779528,2.182111 0 0 1 -13.80151,-197.8879" />
      <path d="M-13.80151,-199.4309 A3.779528,2.182111 0 0 1 -10.68274,-201.5794" />
      <path d="M-10.68892,-204.3904 Q-12.15457,-203.5015 -13.95614,-202.8437" />
      <path d="M-7.936173,-206.558 L-7.936173,-197.3001" />
      <path d="M-10.66266,-192.4489 A9.442369,5.451554 180 0 1 -19.46436,-197.8879" />
      <path d="M-13.80151,-188.63 A3.779528,2.182111 0 0 0 -12.69452,-187.087 A3.779528,2.182111 0 0 0 -6.242458,-188.63 A3.779528,2.182111 0 1 0 -13.80151,-188.63 A3.779528,2.182111 0 0 0 -12.69452,-187.087 A3.779528,2.182111 0 0 0 -6.242458,-188.63 A3.779528,2.182111 0 1 0 -13.80151,-188.63 Z" />
      <path d="M-13.80151,-177.8291 A3.779528,2.182111 0 0 0 -12.69452,-176.2861 A3.779528,2.182111 0 0 0 -6.242458,-177.8291 A3.779528,2.182111 0 1 0 -13.80151,-177.8291 Z" />
      <path d="M-5.669291,-171.2714 L-5.669291,-157.6491" />
      <path d="M-4.008794,-159.699 A5.669291,3.273167 0 0 0 5.669291,-162.0135 L5.669291,-171.2714 L5.669291,-157.6487" />
      <path d="M5.669291,-162.0135 A5.669291,3.273167 0 1 0 -5.669291,-162.0135 L-5.669291,-171.2714" />
      <path d="M-6.67293,-165.8741 A9.448133,5.454883 180 0 0 -9.447649,-162.0126" />
      <path d="M-5.669291,-162.0135 A5.669291,3.273167 0 0 0 -4.008794,-159.699" />
      <path d="M2.650089,-165.1164 L5.322619,-163.5734" />
      <path d="M2.133623,-169.4335 L2.133623,-178.6914" />
      <path d="M-1.164719,-178.6662 L-1.181218,-178.9765 L-1.230651,-179.2883 L-1.312836,-179.6004 L-1.427466,-179.9116 L-1.574114,-180.2209 L-1.752234,-180.5269 L-1.961161,-180.8287 L-2.200119,-181.125 L-2.468216,-181.4148 L-2.764453,-181.697 L-3.087728,-181.9706 L-3.436836,-182.2344 L-3.810476,-182.4876 L-4.207256,-182.7292" />
      <path d="M2.645598,-197.5321 L5.318128,-195.9891" />
      <path d="M5.779724,-200.2969 L5.779724,-209.5548 L-1.336265,-209.0746 A9.145947,5.280415 360 0 0 -5.669291,-208.028" />
      <path d="M-1.336265,-209.0746 L-1.336265,-199.8167" />
      <path d="M9.34591,-198.2691 L9.34591,-207.527" />
      <path d="M9.319093,-207.5422 L5.779724,-209.5548" />
      <path d="M6.823039,-209.1871 L9.495568,-207.6441" />
      <path d="M9.495568,-207.6134 L9.495568,-198.401" />
      <path d="M5.755105,-144.804 L9.327142,-142.7415" />
      <path d="M9.353755,-142.7261 L9.353755,-133.4682 L5.755105,-135.546" />
      <path d="M9.353755,-133.4682 L72.3574,-169.8434 L72.77632,-170.1124 L73.18997,-170.4324 L73.59315,-170.7993 L73.9808,-171.2085 L74.34803,-171.6549 L74.69022,-172.1328 L75.00307,-172.6363 L75.28266,-173.1589 L75.52547,-173.6942 L75.72842,-174.2355 L75.88899,-174.7758 L76.00514,-175.3084 L76.07542,-175.8266 L76.09895,-176.3239 L76.09895,-176.9411 L76.09305,-177.1804 L76.07535,-177.412 L76.04591,-177.6354 L76.00483,-177.8497 L75.95223,-178.0544 L75.88828,-178.2487 L75.81319,-178.4321 L75.72719,-178.604 L75.63055,-178.7637 L75.52357,-178.911 L75.4066,-179.0451 L75.28,-179.1658 L75.14417,-179.2727 L74.99955,-179.3654" />
      <path d="M84.24564,-119.8982 L84.39027,-119.8055 L84.52609,-119.6987 L84.65269,-119.578 L84.76966,-119.4438 L84.87664,-119.2966 L84.97328,-119.1368 L85.05928,-118.965 L85.13438,-118.7816 L85.19833,-118.5872 L85.25092,-118.3826 L85.292,-118.1682 L85.32144,-117.9449 L85.33914,-117.7132 L85.34505,-117.474 L85.34505,-116.8568 L85.32152,-116.3595 L85.25124,-115.8412 L85.13509,-115.3086 L84.97452,-114.7683 L84.77155,-114.2271 L84.52876,-113.6918 L84.24917,-113.1691 L83.93631,-112.6656 L83.59412,-112.1877 L83.22689,-111.7413 L82.83925,-111.3321 L82.43607,-110.9652 L82.02242,-110.6452 L81.60349,-110.3762 L9.353853,-68.66286" />
      <path d="M9.495568,-68.79018 L9.495568,-78.00259" />
      <path d="M9.495568,-78.03333 L6.823039,-79.57631" />
      <path d="M5.760823,-79.99522 L5.760823,-70.7373 L-1.336265,-70.20585" />
      <path d="M2.663554,-67.93169 L5.336083,-66.3887" />
      <path d="M5.669291,-64.8054 A5.669291,3.273167 0 1 0 -5.669291,-64.8054 A5.669291,3.273167 0 0 0 -4.008794,-62.49092 A5.669291,3.273167 0 0 0 5.669291,-64.8054 L5.669291,-74.06331 L5.669291,-60.41961" />
      <path d="M-6.242458,-48.2183 A3.779528,2.182111 0 1 0 -13.80151,-48.2183 A3.779528,2.182111 0 0 0 -12.69452,-46.67532 A3.779528,2.182111 0 0 0 -6.242458,-48.2183 Z" />
      <path d="M-5.669291,-41.66061 L-5.669291,-32.4027" />
      <path d="M-9.447649,-32.40186 A9.448133,5.454883 180 0 1 -6.67293,-36.26332" />
      <path d="M-5.669291,-41.66061 L-5.669291,-28.03834" />
      <path d="M-13.80151,-5.014703 A3.779528,2.182111 0 0 0 -12.69452,-3.471718 A3.779528,2.182111 0 0 0 -10.24565,-2.836416" />
      <path d="M-14.69891,13.11538 L-60.13192,39.34613" />
      <path d="M-14.69891,13.11538 L-1.336265,20.83031" />
      <path d="M41.84397,-22.61564 L44.14976,-21.28439" />
      <path d="M44.16359,-21.37186 L41.85855,-22.70267" />
      <path d="M9.495568,-133.5956 L9.495568,-142.808" />
      <path d="M9.495568,-142.8387 L6.823039,-144.3817" />
    </g>
  </g>
</svg>