<?xml version="1.0" encoding="utf-8"?>
<!DOCTYPE svg PUBLIC "-//W3C//DTD SVG 1.1//EN" "http://www.w3.org/Graphics/SVG/1.1/DTD/svg11.dtd">
<svg width="48.28427mm" height="40.41241mm" viewBox="0, 0, 182.4917, 152.7398" version="1.1" xmlns:xlink="http://www.w3.org/1999/xlink" xmlns:xml="http://www.w3.org/XML/1998/namespace" xmlns:sodipodi="http://sodipodi.sourceforge.net/DTD/sodipodi-0.dtd" xmlns:inkscape="http://www.inkscape.org/namespaces/inkscape" xmlns="http://www.w3.org/2000/svg">
  <sodipodi:namedview inkscape:document-units="mm" />
  <g id="Drawing" transform="translate(91.24586,84.08485)">
    <g id="Outline" stroke-width="0.7559055" style="stroke:black;fill:none;">
      <path d="M-26.7253,-18.51583 A26.7253,15.42986 0 0 0 -18.89764,-7.605272 A26.7253,15.42986 0 0 0 26.7253,-18.51583 A26.7253,15.42986 0 1 0 -26.7253,-18.51583 L-26.7253,-15.42986 A26.7253,15.42986 0 0 0 -18.89764,-4.5193 A26.7253,15.42986 0 0 0 26.7253,-15.42986 L26.7253,-18.51583" />
      <path d="M53.45059,-15.42986 L0,15.42986 L-53.45059,-15.42986 L-53.45059,0 L0,30.85971 L0,15.42986" />
      <path d="M0,30.85971 L53.45059,0 L53.45059,-15.42986 L0,-46.28957 L-53.45059,-15.42986" />
    </g>
    <g id="HiddenOutline" stroke-width="0.3779528" stroke-dasharray="2 0.5" style="stroke:black;fill:none;">
      <path d="M-26.7253,-15.42986 A26.7253,15.42986 0 1 1 26.7253,-15.42986" />
      <path d="M53.45059,0 L0,-30.85971 L0,-46.28957" />
      <path d="M0,-30.85971 L-53.45059,0" />
    </g>
  </g>
</svg>