<?xml version="1.0" encoding="utf-8"?>
<!DOCTYPE svg PUBLIC "-//W3C//DTD SVG 1.1//EN" "http://www.w3.org/Graphics/SVG/1.1/DTD/svg11.dtd">
<svg width="126.133446mm" height="104.11142mm" viewBox="0, 0, 476.72482, 393.49197" version="1.1" xmlns:xlink="http://www.w3.org/1999/xlink" xmlns:xml="http://www.w3.org/XML/1998/namespace" xmlns:sodipodi="http://sodipodi.sourceforge.net/DTD/sodipodi-0.dtd" xmlns:inkscape="http://www.inkscape.org/namespaces/inkscape" xmlns="http://www.w3.org/2000/svg">
  <sodipodi:namedview inkscape:document-units="mm" />
  <g id="Contours" transform="translate(360.50436,135.84596)">
    <g id="Layer0" stroke-width="0.37795275" style="stroke:black;fill:none;">
      <path d="M-162.918,-75.59055 L-238.50854,-75.59055 L-238.50854,-77.17389 L-238.50854,-96.071526 L-276.30383,-96.071526 L-276.30383,-77.17389 L-276.30383,-75.59055 L-280.75494,-75.59055 L-314.7707,-75.59055 L-316.85013,-75.59055 L-318.92957,-75.59055 L-322.70908,-75.59055 L-322.70908,75.59055 L-318.92957,75.59055 L-316.85013,75.59055 L-314.7707,75.59055 L-280.75494,75.59055 L-276.30383,75.59055 L-276.30383,80.04167 L-276.30383,136.73459 L-276.30383,157.51363 L-276.30383,199.0717 L-276.30383,219.85074 L-125.12272,219.85074 L-125.12272,199.0717 L-125.12272,157.51363 L-125.12272,136.73459 L-125.12272,80.04167 L-125.12272,75.59055 L-120.67159,75.59055 L-82.87632,75.59055 L-78.42519,75.59055 L78.42519,75.59055 L78.42519,-75.59055 L-78.42519,-75.59055 L-82.87632,-75.59055 L-120.67159,-75.59055 L-125.12272,-75.59055 L-125.12272,-79.15305 L-125.12272,-98.05069 L-162.918,-98.05069 L-162.918,-79.15305 L-162.918,-75.59055 Z M-177.55376,-14.368293 A27.25456,27.25456 0 0 1 -173.45871,-0 A27.25456,27.25456 0 0 1 -177.13828,13.675917 L-177.06044,18.929325 L-181.16368,18.990116 A27.25456,27.25456 0 0 1 -219.69173,19.560911 L-222.45187,19.601803 L-222.49966,16.375706 A27.25456,27.25456 0 0 1 -222.97522,-15.723126 L-223.18727,-30.036432 L-177.79584,-30.70891 L-177.55376,-14.368293 Z M19.639357,-30.036432 L18.903961,19.601803 L-26.48747,18.929325 L-25.752075,-30.70891 L19.639357,-30.036432 Z" />
    </g>
    <g id="Layer1" stroke-width="0.37795275" style="stroke:black;fill:none;">
      <circle cx="-246.0676" cy="-45.354332" r="11.338583" />
      <circle cx="-155.35893" cy="-45.354332" r="10.690118" />
      <path d="M-162.918,-75.59055 L-238.50854,-75.59055 L-276.30383,-75.59055 L-280.75494,-75.59055 L-314.7707,-75.59055 L-316.85013,-75.59055 L-318.92957,-75.59055 L-322.70908,-75.59055 L-322.70908,75.59055 L-318.92957,75.59055 L-316.85013,75.59055 L-314.7707,75.59055 L-280.75494,75.59055 L-276.30383,75.59055 L-276.30383,80.04167 L-276.30383,136.73459 L-276.30383,157.51363 L-276.30383,199.0717 L-276.30383,219.85074 L-125.12272,219.85074 L-125.12272,199.0717 L-125.12272,157.51363 L-125.12272,136.73459 L-125.12272,80.04167 L-125.12272,75.59055 L-120.67159,75.59055 L-82.87632,75.59055 L-78.42519,75.59055 L78.42519,75.59055 L78.42519,-75.59055 L-78.42519,-75.59055 L-82.87632,-75.59055 L-120.67159,-75.59055 L-125.12272,-75.59055 L-162.918,-75.59055 Z M-257.4062,56.692913 L-257.4062,37.795277 L-238.50854,37.795277 L-238.50854,56.692913 L-257.4062,56.692913 Z M-144.02036,37.795277 A15.144334,15.144334 0 0 1 -162.918,56.692913 L-162.918,37.795277 L-144.02036,37.795277 Z M-177.55376,-14.368293 A27.25456,27.25456 0 0 1 -173.45871,-0 A27.25456,27.25456 0 0 1 -177.13828,13.675917 L-177.06044,18.929325 L-181.16368,18.990116 A27.25456,27.25456 0 0 1 -219.69173,19.560911 L-222.45187,19.601803 L-222.49966,16.375706 A27.25456,27.25456 0 0 1 -222.97522,-15.723126 L-223.18727,-30.036432 L-177.79584,-30.70891 L-177.55376,-14.368293 Z M19.639357,-30.036432 L18.903961,19.601803 L-26.48747,18.929325 L-25.752075,-30.70891 L19.639357,-30.036432 Z M-276.30383,-77.17389 L-238.50854,-77.17389 L-238.50854,-96.071526 L-276.30383,-96.071526 L-276.30383,-77.17389 Z M-162.918,-79.15305 L-125.12272,-79.15305 L-125.12272,-98.05069 L-162.918,-98.05069 L-162.918,-79.15305 Z" />
    </g>
  </g>
</svg>