999
DXF created by Macad3D
0
SECTION
2
HEADER
9
$ACADVER
1
AC1015
9
$HANDSEED
5
FFFFFF
9
$ANGDIR
70
1
9
$MEASUREMENT
70
1
9
$DWGCODEPAGE
3
iso8859-1
0
ENDSEC
0
SECTION
2
CLASSES
0
ENDSEC
0
SECTION
2
TABLES
0
TABLE
2
VPORT
5
1
100
AcDbSymbolTable
70
0
0
ENDTAB
0
TABLE
2
LTYPE
5
2
100
AcDbSymbolTable
70
4
0
LTYPE
5
3
100
AcDbSymbolTableRecord
100
AcDbLinetypeTableRecord
2
BYBLOCK
70
0
3

72
65
73
0
40
0
0
LTYPE
5
4
100
AcDbSymbolTableRecord
100
AcDbLinetypeTableRecord
2
BYLAYER
70
0
3

72
65
73
0
40
0
0
LTYPE
5
5
100
AcDbSymbolTableRecord
100
AcDbLinetypeTableRecord
2
CONTINUOUS
70
0
3
Solid line
72
65
73
0
40
0
0
LTYPE
5
6
100
AcDbSymbolTableRecord
100
AcDbLinetypeTableRecord
2
Solid
70
0
3

72
65
73
0
40
0
0
ENDTAB
0
TABLE
2
LAYER
5
7
100
AcDbSymbolTable
70
3
0
LAYER
5
8
100
AcDbSymbolTableRecord
100
AcDbLayerTableRecord
2
0
70
0
6
CONTINUOUS
390
0
0
LAYER
5
9
100
AcDbSymbolTableRecord
100
AcDbLayerTableRecord
2
Layer0
70
0
6
Solid
370
10
390
0
0
LAYER
5
A
100
AcDbSymbolTableRecord
100
AcDbLayerTableRecord
2
Layer1
70
0
6
Solid
370
10
390
0
0
ENDTAB
0
TABLE
2
STYLE
5
B
100
AcDbSymbolTable
70
1
0
STYLE
5
C
100
AcDbSymbolTableRecord
100
AcDbTextStyleTableRecord
2
Standard
70
0
40
0
41
1
50
0
71
0
42
2.5
3
TXT.SHX
4

0
ENDTAB
0
TABLE
2
VIEW
5
D
100
AcDbSymbolTable
70
0
0
ENDTAB
0
TABLE
2
UCS
5
E
100
AcDbSymbolTable
70
0
0
ENDTAB
0
TABLE
2
APPID
5
F
100
AcDbSymbolTable
70
1
0
APPID
5
10
100
AcDbSymbolTableRecord
100
AcDbRegAppTableRecord
2
ACAD
70
0
0
ENDTAB
0
TABLE
2
DIMSTYLE
5
11
100
AcDbSymbolTable
70
1
100
AcDbDimStyleTable
0
DIMSTYLE
105
12
100
AcDbSymbolTableRecord
100
AcDbDimStyleTableRecord
2
Standard
70
0
40
1
140
2
45
0.1
41
3
275
0
280
0
277
2
77
1
78
12
174
1
0
ENDTAB
0
TABLE
2
BLOCK_RECORD
5
13
100
AcDbSymbolTable
70
2
0
BLOCK_RECORD
5
14
100
AcDbSymbolTableRecord
100
AcDbBlockTableRecord
2
*Model_Space
0
BLOCK_RECORD
5
15
100
AcDbSymbolTableRecord
100
AcDbBlockTableRecord
2
*Paper_Space
0
ENDTAB
0
ENDSEC
0
SECTION
2
BLOCKS
0
BLOCK
5
16
100
AcDbEntity
8
0
100
AcDbBlockBegin
2
*Model_Space
70
0
10
0
20
0
30
0
3
*Model_Space
0
ENDBLK
5
17
100
AcDbEntity
8
0
100
AcDbBlockEnd
0
BLOCK
5
18
100
AcDbEntity
8
0
100
AcDbBlockBegin
2
*Paper_Space
70
0
10
0
20
0
30
0
3
*Paper_Space
0
ENDBLK
5
19
100
AcDbEntity
8
0
100
AcDbBlockEnd
0
ENDSEC
0
SECTION
2
ENTITIES
0
LINE
5
1A
100
AcDbEntity
8
Layer0
100
AcDbLine
10
19
20
-55
30
0
11
19
21
55
31
0
0
LINE
5
1B
100
AcDbEntity
8
Layer0
100
AcDbLine
10
19
20
55
30
0
11
-19
21
55
31
0
0
LINE
5
1C
100
AcDbEntity
8
Layer0
100
AcDbLine
10
-19
20
55
30
0
11
-19
21
-55
31
0
0
LINE
5
1D
100
AcDbEntity
8
Layer0
100
AcDbLine
10
-19
20
-55
30
0
11
19
21
-55
31
0
0
LINE
5
1E
100
AcDbEntity
8
Layer0
100
AcDbLine
10
-2
20
-40
30
0
11
-8
21
-40
31
0
0
ARC
5
1F
100
AcDbEntity
8
Layer0
100
AcDbCircle
10
-8
20
-36
30
0
40
4
100
AcDbArc
50
90
51
270
0
LINE
5
20
100
AcDbEntity
8
Layer0
100
AcDbLine
10
-8
20
-32
30
0
11
-2
21
-32
31
0
0
ARC
5
21
100
AcDbEntity
8
Layer0
100
AcDbCircle
10
-2
20
-36
30
0
40
4
100
AcDbArc
50
-90
51
90
0
CIRCLE
5
22
100
AcDbEntity
8
Layer0
100
AcDbCircle
10
-7.5
20
4.75
30
0
40
8
0
LINE
5
23
100
AcDbEntity
8
Layer0
100
AcDbLine
10
-8
20
20
30
0
11
-13.5
21
20
31
0
0
ARC
5
24
100
AcDbEntity
8
Layer0
100
AcDbCircle
10
-13.5
20
22
30
0
40
2
100
AcDbArc
50
180
51
270
0
LINE
5
25
100
AcDbEntity
8
Layer0
100
AcDbLine
10
-15.5
20
22
30
0
11
-15.5
21
33
31
0
0
ARC
5
26
100
AcDbEntity
8
Layer0
100
AcDbCircle
10
-13.5
20
33
30
0
40
2
100
AcDbArc
50
90
51
180
0
LINE
5
27
100
AcDbEntity
8
Layer0
100
AcDbLine
10
-13.5
20
35
30
0
11
-8
21
35
31
0
0
ARC
5
28
100
AcDbEntity
8
Layer0
100
AcDbCircle
10
-8
20
33
30
0
40
2
100
AcDbArc
50
2.0355549961366E-13
51
90
0
LINE
5
29
100
AcDbEntity
8
Layer0
100
AcDbLine
10
-6
20
33
30
0
11
-6
21
22
31
0
0
ARC
5
2A
100
AcDbEntity
8
Layer0
100
AcDbCircle
10
-8
20
22
30
0
40
2
100
AcDbArc
50
270
51
360
0
LINE
5
2B
100
AcDbEntity
8
Layer1
100
AcDbLine
10
19
20
-53
30
0
11
19
21
53
31
0
0
LINE
5
2C
100
AcDbEntity
8
Layer1
100
AcDbLine
10
19
20
53
30
0
11
-19
21
53
31
0
0
LINE
5
2D
100
AcDbEntity
8
Layer1
100
AcDbLine
10
-19
20
53
30
0
11
-19
21
-53
31
0
0
LINE
5
2E
100
AcDbEntity
8
Layer1
100
AcDbLine
10
-19
20
-53
30
0
11
19
21
-53
31
0
0
LINE
5
2F
100
AcDbEntity
8
Layer1
100
AcDbLine
10
-2
20
-40
30
0
11
-8
21
-40
31
0
0
ARC
5
30
100
AcDbEntity
8
Layer1
100
AcDbCircle
10
-8
20
-36
30
0
40
4
100
AcDbArc
50
90
51
270
0
LINE
5
31
100
AcDbEntity
8
Layer1
100
AcDbLine
10
-8
20
-32
30
0
11
-2
21
-32
31
0
0
ARC
5
32
100
AcDbEntity
8
Layer1
100
AcDbCircle
10
-2
20
-36
30
0
40
4
100
AcDbArc
50
-90
51
90
0
CIRCLE
5
33
100
AcDbEntity
8
Layer1
100
AcDbCircle
10
-7.5
20
4.75
30
0
40
5
0
ARC
5
34
100
AcDbEntity
8
Layer1
100
AcDbCircle
10
-11.5
20
24
30
0
40
1
100
AcDbArc
50
180
51
270
0
LINE
5
35
100
AcDbEntity
8
Layer1
100
AcDbLine
10
-12.5
20
24
30
0
11
-12.5
21
31
31
0
0
ARC
5
36
100
AcDbEntity
8
Layer1
100
AcDbCircle
10
-11.5
20
31
30
0
40
1
100
AcDbArc
50
90
51
180
0
LINE
5
37
100
AcDbEntity
8
Layer1
100
AcDbLine
10
-11.5
20
32
30
0
11
-9.7071067811865
21
32
31
0
0
ARC
5
38
100
AcDbEntity
8
Layer1
100
AcDbCircle
10
-9.7071067811865
20
31
30
0
40
1
100
AcDbArc
50
2.0355549961367E-13
51
90
0
LINE
5
39
100
AcDbEntity
8
Layer1
100
AcDbLine
10
-8.7071067811865
20
31
30
0
11
-8.7071067811865
21
24
31
0
0
ARC
5
3A
100
AcDbEntity
8
Layer1
100
AcDbCircle
10
-9.7071067811865
20
24
30
0
40
1
100
AcDbArc
50
-90
51
-2.0355549961367E-13
0
LINE
5
3B
100
AcDbEntity
8
Layer1
100
AcDbLine
10
-9.7071067811865
20
23
30
0
11
-11.5
21
23
31
0
0
ENDSEC
0
SECTION
2
OBJECTS
0
DICTIONARY
5
3C
100
AcDbDictionary
281
1
3
ACAD_GROUP
350
3D
0
DICTIONARY
5
3D
100
AcDbDictionary
281
1
0
ENDSEC
0
EOF
