999
DXF created by Macad3D
0
SECTION
2
HEADER
9
$ACADVER
1
AC1015
9
$HANDSEED
5
FFFFFF
9
$ANGDIR
70
1
9
$MEASUREMENT
70
1
9
$DWGCODEPAGE
3
iso8859-1
0
ENDSEC
0
SECTION
2
CLASSES
0
ENDSEC
0
SECTION
2
TABLES
0
TABLE
2
VPORT
5
1
100
AcDbSymbolTable
70
0
0
ENDTAB
0
TABLE
2
LTYPE
5
2
100
AcDbSymbolTable
70
4
0
LTYPE
5
3
100
AcDbSymbolTableRecord
100
AcDbLinetypeTableRecord
2
BYBLOCK
70
0
3

72
65
73
0
40
0
0
LTYPE
5
4
100
AcDbSymbolTableRecord
100
AcDbLinetypeTableRecord
2
BYLAYER
70
0
3

72
65
73
0
40
0
0
LTYPE
5
5
100
AcDbSymbolTableRecord
100
AcDbLinetypeTableRecord
2
CONTINUOUS
70
0
3
Solid line
72
65
73
0
40
0
0
LTYPE
5
6
100
AcDbSymbolTableRecord
100
AcDbLinetypeTableRecord
2
Solid
70
0
3

72
65
73
0
40
0
0
ENDTAB
0
TABLE
2
LAYER
5
7
100
AcDbSymbolTable
70
3
0
LAYER
5
8
100
AcDbSymbolTableRecord
100
AcDbLayerTableRecord
2
0
70
0
6
CONTINUOUS
390
0
0
LAYER
5
9
100
AcDbSymbolTableRecord
100
AcDbLayerTableRecord
2
Contour
70
0
6
Solid
370
5
390
0
0
LAYER
5
A
100
AcDbSymbolTableRecord
100
AcDbLayerTableRecord
2
Dimension
70
0
6
Solid
370
10
390
0
0
ENDTAB
0
TABLE
2
STYLE
5
B
100
AcDbSymbolTable
70
1
0
STYLE
5
C
100
AcDbSymbolTableRecord
100
AcDbTextStyleTableRecord
2
Standard
70
0
40
0
41
1
50
0
71
0
42
2.5
3
TXT.SHX
4

0
ENDTAB
0
TABLE
2
VIEW
5
D
100
AcDbSymbolTable
70
0
0
ENDTAB
0
TABLE
2
UCS
5
E
100
AcDbSymbolTable
70
0
0
ENDTAB
0
TABLE
2
APPID
5
F
100
AcDbSymbolTable
70
1
0
APPID
5
10
100
AcDbSymbolTableRecord
100
AcDbRegAppTableRecord
2
ACAD
70
0
0
ENDTAB
0
TABLE
2
DIMSTYLE
5
11
100
AcDbSymbolTable
70
1
100
AcDbDimStyleTable
0
DIMSTYLE
105
12
100
AcDbSymbolTableRecord
100
AcDbDimStyleTableRecord
2
Standard
70
0
40
1
140
2
45
0.1
41
3
275
0
280
0
277
2
77
1
78
12
174
1
0
ENDTAB
0
TABLE
2
BLOCK_RECORD
5
13
100
AcDbSymbolTable
70
2
0
BLOCK_RECORD
5
14
100
AcDbSymbolTableRecord
100
AcDbBlockTableRecord
2
*Model_Space
0
BLOCK_RECORD
5
15
100
AcDbSymbolTableRecord
100
AcDbBlockTableRecord
2
*Paper_Space
0
BLOCK_RECORD
5
16
100
AcDbSymbolTableRecord
100
AcDbBlockTableRecord
2
*D1
0
BLOCK_RECORD
5
17
100
AcDbSymbolTableRecord
100
AcDbBlockTableRecord
2
*D2
0
BLOCK_RECORD
5
18
100
AcDbSymbolTableRecord
100
AcDbBlockTableRecord
2
*D3
0
BLOCK_RECORD
5
19
100
AcDbSymbolTableRecord
100
AcDbBlockTableRecord
2
*D4
0
BLOCK_RECORD
5
1A
100
AcDbSymbolTableRecord
100
AcDbBlockTableRecord
2
*D5
0
ENDTAB
0
ENDSEC
0
SECTION
2
BLOCKS
0
BLOCK
5
1B
100
AcDbEntity
8
0
100
AcDbBlockBegin
2
*Model_Space
70
0
10
0
20
0
30
0
3
*Model_Space
0
ENDBLK
5
1C
100
AcDbEntity
8
0
100
AcDbBlockEnd
0
BLOCK
5
1D
100
AcDbEntity
8
0
100
AcDbBlockBegin
2
*Paper_Space
70
0
10
0
20
0
30
0
3
*Paper_Space
0
ENDBLK
5
1E
100
AcDbEntity
8
0
100
AcDbBlockEnd
0
BLOCK
5
1F
100
AcDbEntity
8
0
100
AcDbBlockBegin
2
*D1
70
1
10
0
20
0
30
0
3
*D1
0
LINE
5
20
100
AcDbEntity
8
Dimension
100
AcDbLine
10
0
20
-48
30
0
11
12
21
-48
31
0
0
LINE
5
21
100
AcDbEntity
8
Dimension
100
AcDbLine
10
-1.1102230246252E-16
20
4.6393890812374
30
0
11
12
21
4.6393890812374
31
0
0
LINE
5
22
100
AcDbEntity
8
Dimension
100
AcDbLine
10
10
20
-45
30
0
11
10
21
1.6393890812374
31
0
0
LINE
5
23
100
AcDbEntity
8
Dimension
100
AcDbLine
10
10
20
-48
30
0
11
9.5
21
-45
31
0
0
LINE
5
24
100
AcDbEntity
8
Dimension
100
AcDbLine
10
9.5
20
-45
30
0
11
10.5
21
-45
31
0
0
LINE
5
25
100
AcDbEntity
8
Dimension
100
AcDbLine
10
10.5
20
-45
30
0
11
10
21
-48
31
0
0
LINE
5
26
100
AcDbEntity
8
Dimension
100
AcDbLine
10
10
20
4.6393890812374
30
0
11
10.5
21
1.6393890812374
31
0
0
LINE
5
27
100
AcDbEntity
8
Dimension
100
AcDbLine
10
10.5
20
1.6393890812374
30
0
11
9.5
21
1.6393890812374
31
0
0
LINE
5
28
100
AcDbEntity
8
Dimension
100
AcDbLine
10
9.5
20
1.6393890812374
30
0
11
10
21
4.6393890812374
31
0
0
TEXT
5
29
100
AcDbEntity
8
Dimension
100
AcDbText
10
9
20
-24.599739053131
30
0
40
2.3076923076923
1
52.6
50
90
100
AcDbText
0
ENDBLK
5
2A
100
AcDbEntity
8
0
100
AcDbBlockEnd
0
BLOCK
5
2B
100
AcDbEntity
8
0
100
AcDbBlockBegin
2
*D2
70
1
10
0
20
0
30
0
3
*D2
0
LINE
5
2C
100
AcDbEntity
8
Dimension
100
AcDbLine
10
-1.1102230246252E-16
20
4.6393890812374
30
0
11
12
21
4.6393890812374
31
0
0
LINE
5
2D
100
AcDbEntity
8
Dimension
100
AcDbLine
10
-0.3584053267039
20
4.9601771859218
30
0
11
-1.6835836396021
21
16.886782002005
31
0
0
ARC
5
2E
100
AcDbEntity
8
Dimension
100
AcDbCircle
10
-0.32276220396119
20
4.6393890812374
30
0
40
10.322762203961
100
AcDbArc
50
16.651293049576
51
79.688898696334
0
LINE
5
2F
100
AcDbEntity
8
Dimension
100
AcDbLine
10
9.9999946798529
20
4.6499242958665
30
0
11
9.0708667997882
21
7.5459079599237
31
0
0
LINE
5
30
100
AcDbEntity
8
Dimension
100
AcDbLine
10
9.0708667997882
20
7.5459079599237
30
0
11
10.06032787354
21
7.69070707432
31
0
0
LINE
5
31
100
AcDbEntity
8
Dimension
100
AcDbLine
10
10.06032787354
20
7.69070707432
30
0
11
9.9999946798529
21
4.6499242958665
31
0
0
LINE
5
32
100
AcDbEntity
8
Dimension
100
AcDbLine
10
-1.4522492214792
20
14.900172664879
30
0
11
1.5632726360496
21
15.295935127433
31
0
0
LINE
5
33
100
AcDbEntity
8
Dimension
100
AcDbLine
10
1.5632726360496
20
15.295935127433
30
0
11
1.528626847822
21
14.296535472961
31
0
0
LINE
5
34
100
AcDbEntity
8
Dimension
100
AcDbLine
10
1.528626847822
20
14.296535472961
30
0
11
-1.4522492214792
21
14.900172664879
31
0
0
TEXT
5
35
100
AcDbEntity
8
Dimension
100
AcDbText
10
5.5384491813707
20
14.589081426279
30
0
40
2.3076923076923
1
96°
50
318.17009587295
100
AcDbText
0
ENDBLK
5
36
100
AcDbEntity
8
0
100
AcDbBlockEnd
0
BLOCK
5
37
100
AcDbEntity
8
0
100
AcDbBlockBegin
2
*D3
70
1
10
0
20
0
30
0
3
*D3
0
LINE
5
38
100
AcDbEntity
8
Dimension
100
AcDbLine
10
-0.3584053267039
20
4.9601771859218
30
0
11
-1.6835836396021
21
16.886782002005
31
0
0
LINE
5
39
100
AcDbEntity
8
Dimension
100
AcDbLine
10
-8.9410558946064
20
4.0065493450437
30
0
11
-10.266234207505
21
15.933154161127
31
0
0
LINE
5
3A
100
AcDbEntity
8
Dimension
100
AcDbLine
10
-4.3236041100865
20
14.581138585699
30
0
11
-7.1844876327207
21
14.263262638739
31
0
0
LINE
5
3B
100
AcDbEntity
8
Dimension
100
AcDbLine
10
-1.4627205874524
20
14.899014532658
30
0
11
-4.2706247855933
21
14.10432466526
31
0
0
LINE
5
3C
100
AcDbEntity
8
Dimension
100
AcDbLine
10
-4.2706247855933
20
14.10432466526
30
0
11
-4.3765834345797
21
15.057952506138
31
0
0
LINE
5
3D
100
AcDbEntity
8
Dimension
100
AcDbLine
10
-4.3765834345797
20
15.057952506138
30
0
11
-1.4627205874524
21
14.899014532658
31
0
0
LINE
5
3E
100
AcDbEntity
8
Dimension
100
AcDbLine
10
-10.045371155355
20
13.94538669178
30
0
11
-7.2374669572139
21
14.740076559178
31
0
0
LINE
5
3F
100
AcDbEntity
8
Dimension
100
AcDbLine
10
-7.2374669572139
20
14.740076559178
30
0
11
-7.1315083082275
21
13.7864487183
31
0
0
LINE
5
40
100
AcDbEntity
8
Dimension
100
AcDbLine
10
-7.1315083082275
20
13.7864487183
30
0
11
-10.045371155355
21
13.94538669178
31
0
0
TEXT
5
41
100
AcDbEntity
8
Dimension
100
AcDbText
10
-7.9369288080857
20
15.185811967936
30
0
40
2.3076923076923
1
8.6
50
6.3401917459099
100
AcDbText
0
ENDBLK
5
42
100
AcDbEntity
8
0
100
AcDbBlockEnd
0
BLOCK
5
43
100
AcDbEntity
8
0
100
AcDbBlockBegin
2
*D4
70
1
10
0
20
0
30
0
3
*D4
0
LINE
5
44
100
AcDbEntity
8
Dimension
100
AcDbLine
10
-8.9410558946064
20
4.0065493450437
30
0
11
-10.266234207505
21
15.933154161127
31
0
0
LINE
5
45
100
AcDbEntity
8
Dimension
100
AcDbLine
10
-9.0375553334318
20
3.9540990369166
30
0
11
-18.325042923872
21
11.552952520004
31
0
0
ARC
5
46
100
AcDbEntity
8
Dimension
100
AcDbCircle
10
-8.9249953575083
20
3.862004511161
30
0
40
10.145434348948
100
AcDbArc
50
111.13032554311
51
125.9204593403
0
LINE
5
47
100
AcDbEntity
8
Dimension
100
AcDbLine
10
-10.052585595409
20
13.944582495869
30
0
11
-12.492963307827
21
12.898757235853
31
0
0
LINE
5
48
100
AcDbEntity
8
Dimension
100
AcDbLine
10
-12.492963307827
20
12.898757235853
30
0
11
-12.700237569864
21
13.746762183666
31
0
0
LINE
5
49
100
AcDbEntity
8
Dimension
100
AcDbLine
10
-12.700237569864
20
13.746762183666
30
0
11
-10.052585595409
21
13.944582495869
31
0
0
LINE
5
4A
100
AcDbEntity
8
Dimension
100
AcDbLine
10
-16.772529580914
20
10.292093559907
30
0
11
-15.166482201787
21
12.406285053067
31
0
0
LINE
5
4B
100
AcDbEntity
8
Dimension
100
AcDbLine
10
-15.166482201787
20
12.406285053067
30
0
11
-14.56761184612
21
11.771124200746
31
0
0
LINE
5
4C
100
AcDbEntity
8
Dimension
100
AcDbLine
10
-14.56761184612
20
11.771124200746
30
0
11
-16.772529580914
21
10.292093559907
31
0
0
TEXT
5
4D
100
AcDbEntity
8
Dimension
100
AcDbText
10
-16.240427601643
20
12.571217486239
30
0
40
2.3076923076923
1
44°
50
28.525392441705
100
AcDbText
0
ENDBLK
5
4E
100
AcDbEntity
8
0
100
AcDbBlockEnd
0
BLOCK
5
4F
100
AcDbEntity
8
0
100
AcDbBlockBegin
2
*D5
70
1
10
0
20
0
30
0
3
*D5
0
LINE
5
50
100
AcDbEntity
8
Dimension
100
AcDbLine
10
-9.0375553334318
20
3.9540990369166
30
0
11
-18.325042923872
21
11.552952520004
31
0
0
LINE
5
51
100
AcDbEntity
8
Dimension
100
AcDbLine
10
-18
20
-7
30
0
11
-27.28748759044
21
0.59885348308715
31
0
0
LINE
5
52
100
AcDbEntity
8
Dimension
100
AcDbLine
10
-18.676841696237
20
7.9646050418793
30
0
11
-23.839859621261
21
1.6542498001826
31
0
0
LINE
5
53
100
AcDbEntity
8
Dimension
100
AcDbLine
10
-16.777128325465
20
10.286476939489
30
0
11
-18.289863046635
21
7.6479861467507
31
0
0
LINE
5
54
100
AcDbEntity
8
Dimension
100
AcDbLine
10
-18.289863046635
20
7.6479861467507
30
0
11
-19.063820345839
21
8.2812239370079
31
0
0
LINE
5
55
100
AcDbEntity
8
Dimension
100
AcDbLine
10
-19.063820345839
20
8.2812239370079
30
0
11
-16.777128325465
21
10.286476939489
31
0
0
LINE
5
56
100
AcDbEntity
8
Dimension
100
AcDbLine
10
-25.739572992033
20
-0.66762209742737
30
0
11
-24.226838270863
21
1.9708686953112
31
0
0
LINE
5
57
100
AcDbEntity
8
Dimension
100
AcDbLine
10
-24.226838270863
20
1.9708686953112
30
0
11
-23.45288097166
21
1.337630905054
31
0
0
LINE
5
58
100
AcDbEntity
8
Dimension
100
AcDbLine
10
-23.45288097166
20
1.337630905054
30
0
11
-25.739572992033
21
-0.66762209742737
31
0
0
TEXT
5
59
100
AcDbEntity
8
Dimension
100
AcDbText
10
-23.881003635662
20
3.183148271866
30
0
40
2.3076923076923
1
14.2
50
50.7105931375
100
AcDbText
0
ENDBLK
5
5A
100
AcDbEntity
8
0
100
AcDbBlockEnd
0
ENDSEC
0
SECTION
2
ENTITIES
0
LINE
5
5B
100
AcDbEntity
8
Contour
100
AcDbLine
10
-0.5
20
3.8827349846514
30
0
11
-0.5
21
-48
31
0
0
LINE
5
5C
100
AcDbEntity
8
Contour
100
AcDbLine
10
-0.5
20
-48
30
0
11
0.5
21
-48
31
0
0
LINE
5
5D
100
AcDbEntity
8
Contour
100
AcDbLine
10
0.5
20
-48
30
0
11
0.5
21
3.8827349846514
31
0
0
ARC
5
5E
100
AcDbEntity
8
Contour
100
AcDbCircle
10
-1
20
3.8827349846514
30
0
40
1.5
100
AcDbArc
50
360
51
456.34019174591
0
LINE
5
5F
100
AcDbEntity
8
Contour
100
AcDbLine
10
-1.1656472891123
20
5.3735605866618
30
0
11
-8.6499187625708
21
4.5419748673887
31
0
0
ARC
5
60
100
AcDbEntity
8
Contour
100
AcDbCircle
10
-8.4842714734586
20
3.0511492653782
30
0
40
1.5
100
AcDbArc
50
456.34019174591
51
500.7105931375
0
LINE
5
61
100
AcDbEntity
8
Contour
100
AcDbLine
10
-9.6452074222635
20
4.0010059507641
30
0
11
-18.386978649602
21
-6.6833811048714
31
0
0
LINE
5
62
100
AcDbEntity
8
Contour
100
AcDbLine
10
-18.386978649602
20
-6.6833811048714
30
0
11
-17.613021350398
21
-7.3166188951286
31
0
0
LINE
5
63
100
AcDbEntity
8
Contour
100
AcDbLine
10
-17.613021350398
20
-7.3166188951286
30
0
11
-8.8712501230602
21
3.3677681605069
31
0
0
ARC
5
64
100
AcDbEntity
8
Contour
100
AcDbCircle
10
-8.4842714734586
20
3.0511492653782
30
0
40
0.5
100
AcDbArc
50
456.34019174591
51
500.7105931375
0
LINE
5
65
100
AcDbEntity
8
Contour
100
AcDbLine
10
-8.539487236496
20
3.548091132715
30
0
11
-1.0552157630374
21
4.3796768519882
31
0
0
ARC
5
66
100
AcDbEntity
8
Contour
100
AcDbCircle
10
-1
20
3.8827349846514
30
0
40
0.5
100
AcDbArc
50
360
51
456.34019174591
0
DIMENSION
5
67
100
AcDbEntity
8
Contour
100
AcDbDimension
2
*D1
10
10
20
4.6393890812374
30
0
11
10.67578125
21
-21.680305459381
31
0
70
33
53
-270
3
Standard
71
5
100
AcDbAlignedDimension
13
0
23
-48
33
0
14
-1.1102230246252E-16
24
4.6393890812374
34
0
0
DIMENSION
5
68
100
AcDbEntity
8
Dimension
100
AcDbDimension
2
*D2
10
6.5617094607469
20
12.331168421374
30
0
11
8.3462454049648
21
14.324968000481
31
0
70
37
53
-41.829904127045
3
Standard
71
5
100
AcDb3PointAngularDimension
13
-1.1102230246252E-16
23
4.6393890812374
33
0
14
-0.3584053267039
24
4.9601771859218
34
0
15
-0.32276220396119
25
4.6393890812374
35
0
16
0
26
0
36
0
0
DIMENSION
5
69
100
AcDbEntity
8
Dimension
100
AcDbDimension
2
*D3
10
-10.045371155355
20
13.94538669178
30
0
11
-10.194439299498
21
16.621071316226
31
0
70
33
53
-353.65980825409
3
Standard
71
5
100
AcDbAlignedDimension
13
-0.3584053267039
23
4.9601771859218
33
0
14
-8.9410558946064
24
4.0065493450437
34
0
0
DIMENSION
5
6A
100
AcDbEntity
8
Dimension
100
AcDbDimension
2
*D4
10
-13.769929158084
20
12.775839521798
30
0
11
-15.047743648344
21
15.126795800918
31
0
70
37
53
-331.47460755829
3
Standard
71
5
100
AcDb3PointAngularDimension
13
-8.9410558946064
23
4.0065493450437
33
0
14
-9.0375553334318
24
3.9540990369166
34
0
15
-8.9249953575083
25
3.862004511161
35
0
16
0
26
0
36
0
0
DIMENSION
5
6B
100
AcDbEntity
8
Dimension
100
AcDbDimension
2
*D5
10
-25.739572992033
20
-0.66762209742737
30
0
11
-27.026682443676
21
1.9847993481484
31
0
70
33
53
-309.2894068625
3
Standard
71
5
100
AcDbAlignedDimension
13
-9.0375553334318
23
3.9540990369166
33
0
14
-18
24
-7
34
0
0
ENDSEC
0
SECTION
2
OBJECTS
0
DICTIONARY
5
6C
100
AcDbDictionary
281
1
3
ACAD_GROUP
350
6D
0
DICTIONARY
5
6D
100
AcDbDictionary
281
1
0
ENDSEC
0
EOF
