999
DXF created by Macad3D
0
SECTION
2
HEADER
9
$ACADVER
1
AC1015
9
$HANDSEED
5
FFFFFF
9
$ANGDIR
70
1
9
$MEASUREMENT
70
1
0
ENDSEC
0
SECTION
2
CLASSES
0
ENDSEC
0
SECTION
2
TABLES
0
TABLE
2
VPORT
5
1
100
AcDbSymbolTable
70
0
0
ENDTAB
0
TABLE
2
LTYPE
5
2
100
AcDbSymbolTable
70
5
0
LTYPE
5
3
100
AcDbSymbolTableRecord
100
AcDbLinetypeTableRecord
2
BYBLOCK
70
0
3

72
65
73
0
40
0
0
LTYPE
5
4
100
AcDbSymbolTableRecord
100
AcDbLinetypeTableRecord
2
BYLAYER
70
0
3

72
65
73
0
40
0
0
LTYPE
5
5
100
AcDbSymbolTableRecord
100
AcDbLinetypeTableRecord
2
CONTINUOUS
70
0
3
Solid line
72
65
73
0
40
0
0
LTYPE
5
6
100
AcDbSymbolTableRecord
100
AcDbLinetypeTableRecord
2
Dash
70
0
3

72
65
73
2
40
0.6
49
0.4
74
0
49
-0.2
74
0
0
LTYPE
5
7
100
AcDbSymbolTableRecord
100
AcDbLinetypeTableRecord
2
Solid
70
0
3

72
65
73
0
40
0
0
ENDTAB
0
TABLE
2
LAYER
5
8
100
AcDbSymbolTable
70
3
0
LAYER
5
9
100
AcDbSymbolTableRecord
100
AcDbLayerTableRecord
2
0
70
0
6
CONTINUOUS
390
0
0
LAYER
5
A
100
AcDbSymbolTableRecord
100
AcDbLayerTableRecord
2
HiddenOutline
70
0
6
Dash
370
10
390
0
0
LAYER
5
B
100
AcDbSymbolTableRecord
100
AcDbLayerTableRecord
2
Outline
70
0
6
Solid
370
20
390
0
0
ENDTAB
0
TABLE
2
STYLE
5
C
100
AcDbSymbolTable
70
1
0
STYLE
5
D
100
AcDbSymbolTableRecord
100
AcDbTextStyleTableRecord
2
STANDARD
70
0
40
0
41
1
50
0
71
0
42
2.5
3
txt
4

0
ENDTAB
0
TABLE
2
VIEW
5
E
100
AcDbSymbolTable
70
0
0
ENDTAB
0
TABLE
2
UCS
5
F
100
AcDbSymbolTable
70
0
0
ENDTAB
0
TABLE
2
APPID
5
10
100
AcDbSymbolTable
70
1
0
APPID
5
11
100
AcDbSymbolTableRecord
100
AcDbRegAppTableRecord
2
ACAD
70
0
0
ENDTAB
0
TABLE
2
DIMSTYLE
5
12
100
AcDbSymbolTable
70
1
100
AcDbDimStyleTable
0
DIMSTYLE
105
13
100
AcDbSymbolTableRecord
100
AcDbDimStyleTableRecord
2
STANDARD
70
0
0
ENDTAB
0
TABLE
2
BLOCK_RECORD
5
14
100
AcDbSymbolTable
70
2
0
BLOCK_RECORD
5
15
100
AcDbSymbolTableRecord
100
AcDbBlockTableRecord
2
*MODEL_SPACE
0
BLOCK_RECORD
5
16
100
AcDbSymbolTableRecord
100
AcDbBlockTableRecord
2
*PAPER_SPACE
0
ENDTAB
0
ENDSEC
0
SECTION
2
BLOCKS
0
BLOCK
5
17
100
AcDbEntity
8
0
100
AcDbBlockBegin
2
*Model_Space
70
0
10
0
20
0
30
0
3
*Model_Space
1

0
ENDBLK
5
18
100
AcDbEntity
8
0
100
AcDbBlockEnd
0
BLOCK
5
19
100
AcDbEntity
8
0
100
AcDbBlockBegin
2
*Paper_Space
70
0
10
0
20
0
30
0
3
*Paper_Space
1

0
ENDBLK
5
1A
100
AcDbEntity
8
0
100
AcDbBlockEnd
0
ENDSEC
0
SECTION
2
ENTITIES
0
LINE
5
1B
100
AcDbEntity
8
HiddenOutline
100
AcDbLine
10
-14.142135623731
20
0
30
0
11
0
21
8.1649658092773
31
0
0
LINE
5
1C
100
AcDbEntity
8
HiddenOutline
100
AcDbLine
10
7.071067706076
20
4.0831890891102
30
0
11
6.9249839474187
21
4.9080326867017
31
0
0
LINE
5
1D
100
AcDbEntity
8
HiddenOutline
100
AcDbLine
10
6.9249839474187
20
4.9080326867017
30
0
11
6.4085638205579
21
5.8078147333831
31
0
0
LINE
5
1E
100
AcDbEntity
8
HiddenOutline
100
AcDbLine
10
6.4085638205579
20
5.8078147333831
30
0
11
5.5466563593359
21
6.6145836945914
31
0
0
LINE
5
1F
100
AcDbEntity
8
HiddenOutline
100
AcDbLine
10
5.5466563593359
20
6.6145836945914
30
0
11
4.3857272180836
21
7.2848464468035
31
0
0
LINE
5
20
100
AcDbEntity
8
HiddenOutline
100
AcDbLine
10
4.3857272180836
20
7.2848464468035
30
0
11
2.9883623873012
21
7.7824689515566
31
0
0
LINE
5
21
100
AcDbEntity
8
HiddenOutline
100
AcDbLine
10
2.9883623873012
20
7.7824689515566
30
0
11
1.4298941667107
21
8.0806242508147
31
0
0
LINE
5
22
100
AcDbEntity
8
HiddenOutline
100
AcDbLine
10
1.4298941667107
20
8.0806242508147
30
0
11
-0.20566001852158
21
8.16323871522
31
0
0
LINE
5
23
100
AcDbEntity
8
HiddenOutline
100
AcDbLine
10
-0.20566001852158
20
8.16323871522
30
0
11
-1.8301270189222
21
8.0258585776127
31
0
0
LINE
5
24
100
AcDbEntity
8
HiddenOutline
100
AcDbLine
10
-1.8301270189222
20
8.0258585776127
30
0
11
-3.355931398022
21
7.6758900367706
31
0
0
LINE
5
25
100
AcDbEntity
8
HiddenOutline
100
AcDbLine
10
-3.355931398022
20
7.6758900367706
30
0
11
-4.700816646804
21
7.1321999873165
31
0
0
LINE
5
26
100
AcDbEntity
8
HiddenOutline
100
AcDbLine
10
-4.700816646804
20
7.1321999873165
30
0
11
-5.7922796533957
21
6.4240989005453
31
0
0
LINE
5
27
100
AcDbEntity
8
HiddenOutline
100
AcDbLine
10
-5.7922796533957
20
6.4240989005453
30
0
11
-6.5714793645972
21
5.5897606893302
31
0
0
LINE
5
28
100
AcDbEntity
8
HiddenOutline
100
AcDbLine
10
-6.5714793645972
20
5.5897606893302
30
0
11
-6.9964089222892
21
4.674164742598
31
0
0
LINE
5
29
100
AcDbEntity
8
HiddenOutline
100
AcDbLine
10
-6.9964089222892
20
4.674164742598
30
0
11
-7.0710677581833
21
4.0829859556977
31
0
0
LINE
5
2A
100
AcDbEntity
8
HiddenOutline
100
AcDbLine
10
0
20
8.1649658092773
30
0
11
14.142135623731
21
0
31
0
0
LINE
5
2B
100
AcDbEntity
8
HiddenOutline
100
AcDbLine
10
0
20
8.1649658092773
30
0
11
0
21
12.247448713916
31
0
0
LINE
5
2C
100
AcDbEntity
8
Outline
100
AcDbLine
10
7.071067706076
20
4.899685670038
30
0
11
7.071067706076
21
4.7970166765723
31
0
0
LINE
5
2D
100
AcDbEntity
8
Outline
100
AcDbLine
10
7.071067706076
20
4.7970166765723
30
0
11
7.071067706076
21
4.0831890891102
31
0
0
LINE
5
2E
100
AcDbEntity
8
Outline
100
AcDbLine
10
7.071067706076
20
4.0831890891102
30
0
11
7.0680763972089
21
3.9637450375837
31
0
0
LINE
5
2F
100
AcDbEntity
8
Outline
100
AcDbLine
10
7.0680763972089
20
3.9637450375837
30
0
11
6.8301270189222
21
3.0258585776127
31
0
0
LINE
5
30
100
AcDbEntity
8
Outline
100
AcDbLine
10
6.8301270189222
20
3.0258585776127
30
0
11
6.2239637251329
21
2.1449350086087
31
0
0
LINE
5
31
100
AcDbEntity
8
Outline
100
AcDbLine
10
6.2239637251329
20
2.1449350086087
30
0
11
5.2822649359087
21
1.3684651481953
31
0
0
LINE
5
32
100
AcDbEntity
8
Outline
100
AcDbLine
10
5.2822649359087
20
1.3684651481953
30
0
11
4.0557978767264
21
0.73830868752903
31
0
0
LINE
5
33
100
AcDbEntity
8
Outline
100
AcDbLine
10
4.0557978767264
20
0.73830868752903
30
0
11
2.6106817042056
21
0.28843752451439
31
0
0
LINE
5
34
100
AcDbEntity
8
Outline
100
AcDbLine
10
2.6106817042056
20
0.28843752451439
30
0
11
1.0248230052613
21
0.043104329994291
31
0
0
LINE
5
35
100
AcDbEntity
8
Outline
100
AcDbLine
10
1.0248230052613
20
0.043104329994291
30
0
11
-0.61628416716219
21
0.015535079987438
31
0
0
LINE
5
36
100
AcDbEntity
8
Outline
100
AcDbLine
10
-0.61628416716219
20
0.015535079987438
30
0
11
-2.2241673006148
21
0.20721603989774
31
0
0
LINE
5
37
100
AcDbEntity
8
Outline
100
AcDbLine
10
-2.2241673006148
20
0.20721603989774
30
0
11
-3.7121449991869
21
0.60781363956166
31
0
0
LINE
5
38
100
AcDbEntity
8
Outline
100
AcDbLine
10
-3.7121449991869
20
0.60781363956166
30
0
11
-5
21
1.1957315586905
31
0
0
LINE
5
39
100
AcDbEntity
8
Outline
100
AcDbLine
10
-5
20
1.1957315586905
30
0
11
-6.0183037066113
21
1.9392749900871
31
0
0
LINE
5
3A
100
AcDbEntity
8
Outline
100
AcDbLine
10
-6.0183037066113
20
1.9392749900871
30
0
11
-6.7121591026194
21
2.7983593149059
31
0
0
LINE
5
3B
100
AcDbEntity
8
Outline
100
AcDbLine
10
-6.7121591026194
20
2.7983593149059
30
0
11
-7.0441602640276
21
3.7266710748302
31
0
0
LINE
5
3C
100
AcDbEntity
8
Outline
100
AcDbLine
10
-7.0441602640276
20
3.7266710748302
30
0
11
-7.0710677581833
21
4.0829859556977
31
0
0
LINE
5
3D
100
AcDbEntity
8
Outline
100
AcDbLine
10
-7.0710677581833
20
4.0829859556977
30
0
11
-7.0710677581833
21
4.3896045140852
31
0
0
LINE
5
3E
100
AcDbEntity
8
Outline
100
AcDbLine
10
-7.0710677581833
20
4.3896045140852
30
0
11
-7.0710677581833
21
4.8994825366254
31
0
0
LINE
5
3F
100
AcDbEntity
8
Outline
100
AcDbLine
10
-7.0710677581833
20
4.8994825366254
30
0
11
-7.0441602640276
21
4.543167655758
31
0
0
LINE
5
40
100
AcDbEntity
8
Outline
100
AcDbLine
10
-7.0441602640276
20
4.543167655758
30
0
11
-6.7121591026194
21
3.6148558958337
31
0
0
LINE
5
41
100
AcDbEntity
8
Outline
100
AcDbLine
10
-6.7121591026194
20
3.6148558958337
30
0
11
-6.0183037066113
21
2.7557715710149
31
0
0
LINE
5
42
100
AcDbEntity
8
Outline
100
AcDbLine
10
-6.0183037066113
20
2.7557715710149
30
0
11
-5
21
2.0122281396182
31
0
0
LINE
5
43
100
AcDbEntity
8
Outline
100
AcDbLine
10
-5
20
2.0122281396182
30
0
11
-3.7121449991869
21
1.4243102204894
31
0
0
LINE
5
44
100
AcDbEntity
8
Outline
100
AcDbLine
10
-3.7121449991869
20
1.4243102204894
30
0
11
-2.2241673006147
21
1.0237126208255
31
0
0
LINE
5
45
100
AcDbEntity
8
Outline
100
AcDbLine
10
-2.2241673006147
20
1.0237126208255
30
0
11
-0.61628416716219
21
0.83203166091516
31
0
0
LINE
5
46
100
AcDbEntity
8
Outline
100
AcDbLine
10
-0.61628416716219
20
0.83203166091516
30
0
11
1.0248230052613
21
0.85960091092202
31
0
0
LINE
5
47
100
AcDbEntity
8
Outline
100
AcDbLine
10
1.0248230052613
20
0.85960091092202
30
0
11
2.6106817042056
21
1.1049341054421
31
0
0
LINE
5
48
100
AcDbEntity
8
Outline
100
AcDbLine
10
2.6106817042056
20
1.1049341054421
30
0
11
4.0557978767264
21
1.5548052684568
31
0
0
LINE
5
49
100
AcDbEntity
8
Outline
100
AcDbLine
10
4.0557978767264
20
1.5548052684568
30
0
11
5.2822649359087
21
2.184961729123
31
0
0
LINE
5
4A
100
AcDbEntity
8
Outline
100
AcDbLine
10
5.2822649359087
20
2.184961729123
30
0
11
6.2239637251329
21
2.9614315895364
31
0
0
LINE
5
4B
100
AcDbEntity
8
Outline
100
AcDbLine
10
6.2239637251329
20
2.9614315895364
30
0
11
6.8301270189222
21
3.8423551585404
31
0
0
LINE
5
4C
100
AcDbEntity
8
Outline
100
AcDbLine
10
6.8301270189222
20
3.8423551585404
30
0
11
7.0680763972089
21
4.7802416185114
31
0
0
LINE
5
4D
100
AcDbEntity
8
Outline
100
AcDbLine
10
7.0680763972089
20
4.7802416185114
30
0
11
7.071067706076
21
4.899685670038
31
0
0
LINE
5
4E
100
AcDbEntity
8
Outline
100
AcDbLine
10
7.071067706076
20
4.899685670038
30
0
11
6.9249839474187
21
5.7245292676294
31
0
0
LINE
5
4F
100
AcDbEntity
8
Outline
100
AcDbLine
10
6.9249839474187
20
5.7245292676294
30
0
11
6.4085638205579
21
6.6243113143109
31
0
0
LINE
5
50
100
AcDbEntity
8
Outline
100
AcDbLine
10
6.4085638205579
20
6.6243113143109
30
0
11
5.5466563593359
21
7.4310802755192
31
0
0
LINE
5
51
100
AcDbEntity
8
Outline
100
AcDbLine
10
5.5466563593359
20
7.4310802755192
30
0
11
4.3857272180836
21
8.1013430277313
31
0
0
LINE
5
52
100
AcDbEntity
8
Outline
100
AcDbLine
10
4.3857272180836
20
8.1013430277313
30
0
11
2.9883623873012
21
8.5989655324844
31
0
0
LINE
5
53
100
AcDbEntity
8
Outline
100
AcDbLine
10
2.9883623873012
20
8.5989655324844
30
0
11
1.4298941667107
21
8.8971208317424
31
0
0
LINE
5
54
100
AcDbEntity
8
Outline
100
AcDbLine
10
1.4298941667107
20
8.8971208317424
30
0
11
-0.20566001852157
21
8.9797352961478
31
0
0
LINE
5
55
100
AcDbEntity
8
Outline
100
AcDbLine
10
-0.20566001852157
20
8.9797352961478
30
0
11
-1.8301270189222
21
8.8423551585404
31
0
0
LINE
5
56
100
AcDbEntity
8
Outline
100
AcDbLine
10
-1.8301270189222
20
8.8423551585404
30
0
11
-3.355931398022
21
8.4923866176983
31
0
0
LINE
5
57
100
AcDbEntity
8
Outline
100
AcDbLine
10
-3.355931398022
20
8.4923866176983
30
0
11
-4.700816646804
21
7.9486965682442
31
0
0
LINE
5
58
100
AcDbEntity
8
Outline
100
AcDbLine
10
-4.700816646804
20
7.9486965682442
30
0
11
-5.7922796533957
21
7.2405954814731
31
0
0
LINE
5
59
100
AcDbEntity
8
Outline
100
AcDbLine
10
-5.7922796533957
20
7.2405954814731
30
0
11
-6.5714793645972
21
6.4062572702579
31
0
0
LINE
5
5A
100
AcDbEntity
8
Outline
100
AcDbLine
10
-6.5714793645972
20
6.4062572702579
30
0
11
-6.9964089222892
21
5.4906613235257
31
0
0
LINE
5
5B
100
AcDbEntity
8
Outline
100
AcDbLine
10
-6.9964089222892
20
5.4906613235257
30
0
11
-7.0710677581833
21
4.8994825366254
31
0
0
LINE
5
5C
100
AcDbEntity
8
Outline
100
AcDbLine
10
-14.142135623731
20
4.0824829046386
30
0
11
0
21
-4.0824829046386
31
0
0
LINE
5
5D
100
AcDbEntity
8
Outline
100
AcDbLine
10
0
20
-4.0824829046386
30
0
11
0
21
-8.1649658092773
31
0
0
LINE
5
5E
100
AcDbEntity
8
Outline
100
AcDbLine
10
0
20
-8.1649658092773
30
0
11
-14.142135623731
21
0
31
0
0
LINE
5
5F
100
AcDbEntity
8
Outline
100
AcDbLine
10
-14.142135623731
20
0
30
0
11
-14.142135623731
21
4.0824829046386
31
0
0
LINE
5
60
100
AcDbEntity
8
Outline
100
AcDbLine
10
-14.142135623731
20
4.0824829046386
30
0
11
0
21
12.247448713916
31
0
0
LINE
5
61
100
AcDbEntity
8
Outline
100
AcDbLine
10
0
20
12.247448713916
30
0
11
14.142135623731
21
4.0824829046386
31
0
0
LINE
5
62
100
AcDbEntity
8
Outline
100
AcDbLine
10
14.142135623731
20
4.0824829046386
30
0
11
0
21
-4.0824829046386
31
0
0
LINE
5
63
100
AcDbEntity
8
Outline
100
AcDbLine
10
0
20
-8.1649658092773
30
0
11
14.142135623731
21
0
31
0
0
LINE
5
64
100
AcDbEntity
8
Outline
100
AcDbLine
10
14.142135623731
20
0
30
0
11
14.142135623731
21
4.0824829046386
31
0
0
ENDSEC
0
SECTION
2
OBJECTS
0
DICTIONARY
5
65
100
AcDbDictionary
281
1
3
ACAD_GROUP
350
66
0
DICTIONARY
5
66
100
AcDbDictionary
281
1
0
ENDSEC
0
EOF
