999
DXF created by Macad3D
0
SECTION
2
HEADER
9
$ACADVER
1
AC1015
9
$HANDSEED
5
FFFFFF
9
$ANGDIR
70
1
9
$MEASUREMENT
70
1
0
ENDSEC
0
SECTION
2
CLASSES
0
ENDSEC
0
SECTION
2
TABLES
0
TABLE
2
VPORT
5
1
100
AcDbSymbolTable
70
0
0
ENDTAB
0
TABLE
2
LTYPE
5
2
100
AcDbSymbolTable
70
7
0
LTYPE
5
3
100
AcDbSymbolTableRecord
100
AcDbLinetypeTableRecord
2
BYBLOCK
70
0
3

72
65
73
0
40
0
0
LTYPE
5
4
100
AcDbSymbolTableRecord
100
AcDbLinetypeTableRecord
2
BYLAYER
70
0
3

72
65
73
0
40
0
0
LTYPE
5
5
100
AcDbSymbolTableRecord
100
AcDbLinetypeTableRecord
2
CONTINUOUS
70
0
3
Solid line
72
65
73
0
40
0
0
LTYPE
5
6
100
AcDbSymbolTableRecord
100
AcDbLinetypeTableRecord
2
Outline
70
0
3

72
65
73
0
40
0
0
LTYPE
5
7
100
AcDbSymbolTableRecord
100
AcDbLinetypeTableRecord
2
Inline
70
0
3

72
65
73
0
40
0
0
LTYPE
5
8
100
AcDbSymbolTableRecord
100
AcDbLinetypeTableRecord
2
HiddenOutline
70
0
3

72
65
73
2
40
0.6
49
0.4
74
0
49
-0.2
74
0
0
LTYPE
5
9
100
AcDbSymbolTableRecord
100
AcDbLinetypeTableRecord
2
HiddenInline
70
0
3

72
65
73
2
40
0.4
49
0.2
74
0
49
-0.2
74
0
0
ENDTAB
0
TABLE
2
LAYER
5
A
100
AcDbSymbolTable
70
3
0
LAYER
5
B
100
AcDbSymbolTableRecord
100
AcDbLayerTableRecord
2
0
70
0
6
CONTINUOUS
390
0
0
LAYER
5
C
100
AcDbSymbolTableRecord
100
AcDbLayerTableRecord
2
Outline
70
0
6
Outline
370
50
390
0
0
LAYER
5
D
100
AcDbSymbolTableRecord
100
AcDbLayerTableRecord
2
HiddenOutline
70
0
6
HiddenOutline
370
30
390
0
0
ENDTAB
0
TABLE
2
STYLE
5
E
100
AcDbSymbolTable
70
1
0
STYLE
5
F
100
AcDbSymbolTableRecord
100
AcDbTextStyleTableRecord
2
STANDARD
70
0
40
0
41
1
50
0
71
0
42
2.5
3
txt
4

0
ENDTAB
0
TABLE
2
VIEW
5
10
100
AcDbSymbolTable
70
0
0
ENDTAB
0
TABLE
2
UCS
5
11
100
AcDbSymbolTable
70
0
0
ENDTAB
0
TABLE
2
APPID
5
12
100
AcDbSymbolTable
70
1
0
APPID
5
13
100
AcDbSymbolTableRecord
100
AcDbRegAppTableRecord
2
ACAD
70
0
0
ENDTAB
0
TABLE
2
DIMSTYLE
5
14
100
AcDbSymbolTable
70
1
100
AcDbDimStyleTable
0
DIMSTYLE
105
15
100
AcDbSymbolTableRecord
100
AcDbDimStyleTableRecord
2
STANDARD
70
0
0
ENDTAB
0
TABLE
2
BLOCK_RECORD
5
16
100
AcDbSymbolTable
70
2
0
BLOCK_RECORD
5
17
100
AcDbSymbolTableRecord
100
AcDbBlockTableRecord
2
*MODEL_SPACE
0
BLOCK_RECORD
5
18
100
AcDbSymbolTableRecord
100
AcDbBlockTableRecord
2
*PAPER_SPACE
0
ENDTAB
0
ENDSEC
0
SECTION
2
BLOCKS
0
BLOCK
5
19
100
AcDbEntity
8
0
100
AcDbBlockBegin
2
*Model_Space
70
0
10
0
20
0
30
0
3
*Model_Space
1

0
ENDBLK
5
1A
100
AcDbEntity
8
0
100
AcDbBlockEnd
0
BLOCK
5
1B
100
AcDbEntity
8
0
100
AcDbBlockBegin
2
*Paper_Space
70
0
10
0
20
0
30
0
3
*Paper_Space
1

0
ENDBLK
5
1C
100
AcDbEntity
8
0
100
AcDbBlockEnd
0
ENDSEC
0
SECTION
2
ENTITIES
0
LINE
5
1D
100
AcDbEntity
8
Outline
100
AcDbLine
10
7.07106770607597
20
4.79701667657226
30
0
11
7.07106770607597
21
4.08318908911023
31
0
0
LINE
5
1E
100
AcDbEntity
8
Outline
100
AcDbLine
10
7.07106770607597
20
4.79701667657226
30
0
11
7.07106770607597
21
4.89968567003796
31
0
0
LINE
5
1F
100
AcDbEntity
8
Outline
100
AcDbLine
10
-7.07106775818326
20
4.38960451408518
30
0
11
-7.07106775818327
21
4.89948253662544
31
0
0
LINE
5
20
100
AcDbEntity
8
Outline
100
AcDbLine
10
-7.07106775818326
20
4.38960451408518
30
0
11
-7.07106775818327
21
4.08298595569771
31
0
0
LINE
5
21
100
AcDbEntity
8
Outline
100
AcDbLine
10
-6.01830370661132
20
2.75577157101487
30
0
11
-5
21
2.01222813961823
31
0
0
LINE
5
22
100
AcDbEntity
8
Outline
100
AcDbLine
10
-6.71215910261937
20
3.61485589583367
30
0
11
-6.01830370661132
21
2.75577157101487
31
0
0
LINE
5
23
100
AcDbEntity
8
Outline
100
AcDbLine
10
-7.04416026402759
20
4.54316765575796
30
0
11
-6.71215910261937
21
3.61485589583367
31
0
0
LINE
5
24
100
AcDbEntity
8
Outline
100
AcDbLine
10
-7.07106775818326
20
4.89948253662544
30
0
11
-7.04416026402759
21
4.54316765575796
31
0
0
LINE
5
25
100
AcDbEntity
8
Outline
100
AcDbLine
10
-6.99640892228915
20
5.49066132352568
30
0
11
-7.07106775818326
21
4.89948253662544
31
0
0
LINE
5
26
100
AcDbEntity
8
Outline
100
AcDbLine
10
-6.57147936459715
20
6.40625727025789
30
0
11
-6.99640892228915
21
5.49066132352568
31
0
0
LINE
5
27
100
AcDbEntity
8
Outline
100
AcDbLine
10
-5.79227965339569
20
7.24059548147305
30
0
11
-6.57147936459715
21
6.40625727025789
31
0
0
LINE
5
28
100
AcDbEntity
8
Outline
100
AcDbLine
10
-4.70081664680396
20
7.94869656824418
30
0
11
-5.79227965339569
21
7.24059548147305
31
0
0
LINE
5
29
100
AcDbEntity
8
Outline
100
AcDbLine
10
-3.35593139802199
20
8.4923866176983
30
0
11
-4.70081664680396
21
7.94869656824418
31
0
0
LINE
5
2A
100
AcDbEntity
8
Outline
100
AcDbLine
10
-1.83012701892219
20
8.84235515854042
30
0
11
-3.35593139802199
21
8.4923866176983
31
0
0
LINE
5
2B
100
AcDbEntity
8
Outline
100
AcDbLine
10
-0.205660018521574
20
8.97973529614777
30
0
11
-1.83012701892219
21
8.84235515854042
31
0
0
LINE
5
2C
100
AcDbEntity
8
Outline
100
AcDbLine
10
1.42989416671065
20
8.89712083174239
30
0
11
-0.205660018521574
21
8.97973529614777
31
0
0
LINE
5
2D
100
AcDbEntity
8
Outline
100
AcDbLine
10
2.9883623873012
20
8.59896553248435
30
0
11
1.42989416671065
21
8.89712083174239
31
0
0
LINE
5
2E
100
AcDbEntity
8
Outline
100
AcDbLine
10
4.38572721808357
20
8.10134302773127
30
0
11
2.9883623873012
21
8.59896553248435
31
0
0
LINE
5
2F
100
AcDbEntity
8
Outline
100
AcDbLine
10
5.54665635933587
20
7.43108027551917
30
0
11
4.38572721808357
21
8.10134302773127
31
0
0
LINE
5
30
100
AcDbEntity
8
Outline
100
AcDbLine
10
6.40856382055789
20
6.62431131431086
30
0
11
5.54665635933587
21
7.43108027551917
31
0
0
LINE
5
31
100
AcDbEntity
8
Outline
100
AcDbLine
10
6.92498394741872
20
5.72452926762943
30
0
11
6.40856382055789
21
6.62431131431086
31
0
0
LINE
5
32
100
AcDbEntity
8
Outline
100
AcDbLine
10
7.07106770607597
20
4.89968567003795
30
0
11
6.92498394741872
21
5.72452926762943
31
0
0
LINE
5
33
100
AcDbEntity
8
Outline
100
AcDbLine
10
7.06807639720891
20
4.78024161851138
30
0
11
7.07106770607597
21
4.89968567003795
31
0
0
LINE
5
34
100
AcDbEntity
8
Outline
100
AcDbLine
10
6.8301270189222
20
3.84235515854042
30
0
11
7.06807639720891
21
4.78024161851138
31
0
0
LINE
5
35
100
AcDbEntity
8
Outline
100
AcDbLine
10
6.2239637251329
20
2.96143158953644
30
0
11
6.8301270189222
21
3.84235515854042
31
0
0
LINE
5
36
100
AcDbEntity
8
Outline
100
AcDbLine
10
5.28226493590872
20
2.18496172912302
30
0
11
6.2239637251329
21
2.96143158953644
31
0
0
LINE
5
37
100
AcDbEntity
8
Outline
100
AcDbLine
10
4.05579787672639
20
1.55480526845676
30
0
11
5.28226493590872
21
2.18496172912302
31
0
0
LINE
5
38
100
AcDbEntity
8
Outline
100
AcDbLine
10
2.61068170420559
20
1.10493410544212
30
0
11
4.05579787672639
21
1.55480526845676
31
0
0
LINE
5
39
100
AcDbEntity
8
Outline
100
AcDbLine
10
1.02482300526129
20
0.859600910922016
30
0
11
2.61068170420559
21
1.10493410544212
31
0
0
LINE
5
3A
100
AcDbEntity
8
Outline
100
AcDbLine
10
-0.616284167162194
20
0.832031660915164
30
0
11
1.02482300526129
21
0.859600910922016
31
0
0
LINE
5
3B
100
AcDbEntity
8
Outline
100
AcDbLine
10
-2.22416730061475
20
1.02371262082546
30
0
11
-0.616284167162194
21
0.832031660915164
31
0
0
LINE
5
3C
100
AcDbEntity
8
Outline
100
AcDbLine
10
-3.71214499918692
20
1.42431022048939
30
0
11
-2.22416730061475
21
1.02371262082546
31
0
0
LINE
5
3D
100
AcDbEntity
8
Outline
100
AcDbLine
10
-5
20
2.01222813961823
30
0
11
-3.71214499918692
21
1.42431022048939
31
0
0
LINE
5
3E
100
AcDbEntity
8
Outline
100
AcDbLine
10
-14.142135623731
20
0
30
0
11
0
21
-8.16496580927726
31
0
0
LINE
5
3F
100
AcDbEntity
8
Outline
100
AcDbLine
10
0
20
-8.16496580927726
30
0
11
0
21
-4.08248290463863
31
0
0
LINE
5
40
100
AcDbEntity
8
Outline
100
AcDbLine
10
14.142135623731
20
0
30
0
11
0
21
-8.16496580927726
31
0
0
LINE
5
41
100
AcDbEntity
8
Outline
100
AcDbLine
10
-6.01830370661132
20
1.93927499008714
30
0
11
-5
21
1.1957315586905
31
0
0
LINE
5
42
100
AcDbEntity
8
Outline
100
AcDbLine
10
-6.71215910261937
20
2.79835931490594
30
0
11
-6.01830370661132
21
1.93927499008714
31
0
0
LINE
5
43
100
AcDbEntity
8
Outline
100
AcDbLine
10
-7.04416026402759
20
3.72667107483023
30
0
11
-6.71215910261937
21
2.79835931490594
31
0
0
LINE
5
44
100
AcDbEntity
8
Outline
100
AcDbLine
10
-7.07106775818326
20
4.08298595569771
30
0
11
-7.04416026402759
21
3.72667107483023
31
0
0
LINE
5
45
100
AcDbEntity
8
Outline
100
AcDbLine
10
7.06807639720891
20
3.96374503758365
30
0
11
7.07106770607597
21
4.08318908911023
31
0
0
LINE
5
46
100
AcDbEntity
8
Outline
100
AcDbLine
10
6.83012701892219
20
3.02585857761269
30
0
11
7.06807639720891
21
3.96374503758365
31
0
0
LINE
5
47
100
AcDbEntity
8
Outline
100
AcDbLine
10
6.2239637251329
20
2.14493500860871
30
0
11
6.83012701892219
21
3.02585857761269
31
0
0
LINE
5
48
100
AcDbEntity
8
Outline
100
AcDbLine
10
5.28226493590872
20
1.36846514819529
30
0
11
6.2239637251329
21
2.14493500860871
31
0
0
LINE
5
49
100
AcDbEntity
8
Outline
100
AcDbLine
10
4.05579787672639
20
0.738308687529034
30
0
11
5.28226493590872
21
1.36846514819529
31
0
0
LINE
5
4A
100
AcDbEntity
8
Outline
100
AcDbLine
10
2.61068170420559
20
0.288437524514391
30
0
11
4.05579787672639
21
0.738308687529034
31
0
0
LINE
5
4B
100
AcDbEntity
8
Outline
100
AcDbLine
10
1.02482300526129
20
0.043104329994291
30
0
11
2.61068170420559
21
0.288437524514391
31
0
0
LINE
5
4C
100
AcDbEntity
8
Outline
100
AcDbLine
10
-0.616284167162193
20
0.0155350799874379
30
0
11
1.02482300526129
21
0.043104329994291
31
0
0
LINE
5
4D
100
AcDbEntity
8
Outline
100
AcDbLine
10
-2.22416730061475
20
0.207216039897738
30
0
11
-0.616284167162193
21
0.0155350799874379
31
0
0
LINE
5
4E
100
AcDbEntity
8
Outline
100
AcDbLine
10
-3.71214499918692
20
0.60781363956166
30
0
11
-2.22416730061475
21
0.207216039897738
31
0
0
LINE
5
4F
100
AcDbEntity
8
Outline
100
AcDbLine
10
-5
20
1.1957315586905
30
0
11
-3.71214499918692
21
0.60781363956166
31
0
0
LINE
5
50
100
AcDbEntity
8
Outline
100
AcDbLine
10
-14.142135623731
20
4.08248290463863
30
0
11
0
21
-4.08248290463863
31
0
0
LINE
5
51
100
AcDbEntity
8
Outline
100
AcDbLine
10
14.142135623731
20
4.08248290463863
30
0
11
0
21
-4.08248290463863
31
0
0
LINE
5
52
100
AcDbEntity
8
Outline
100
AcDbLine
10
0
20
12.2474487139159
30
0
11
-14.142135623731
21
4.08248290463863
31
0
0
LINE
5
53
100
AcDbEntity
8
Outline
100
AcDbLine
10
-14.142135623731
20
0
30
0
11
-14.142135623731
21
4.08248290463863
31
0
0
LINE
5
54
100
AcDbEntity
8
Outline
100
AcDbLine
10
14.142135623731
20
0
30
0
11
14.142135623731
21
4.08248290463863
31
0
0
LINE
5
55
100
AcDbEntity
8
Outline
100
AcDbLine
10
0
20
12.2474487139159
30
0
11
14.142135623731
21
4.08248290463863
31
0
0
LINE
5
56
100
AcDbEntity
8
HiddenOutline
100
AcDbLine
10
-6.99640892228915
20
4.67416474259796
30
0
11
-7.07106775818326
21
4.08298595569771
31
0
0
LINE
5
57
100
AcDbEntity
8
HiddenOutline
100
AcDbLine
10
-6.57147936459715
20
5.58976068933016
30
0
11
-6.99640892228915
21
4.67416474259796
31
0
0
LINE
5
58
100
AcDbEntity
8
HiddenOutline
100
AcDbLine
10
-5.79227965339569
20
6.42409890054533
30
0
11
-6.57147936459715
21
5.58976068933016
31
0
0
LINE
5
59
100
AcDbEntity
8
HiddenOutline
100
AcDbLine
10
-4.70081664680396
20
7.13219998731645
30
0
11
-5.79227965339569
21
6.42409890054533
31
0
0
LINE
5
5A
100
AcDbEntity
8
HiddenOutline
100
AcDbLine
10
-3.35593139802199
20
7.67589003677058
30
0
11
-4.70081664680396
21
7.13219998731645
31
0
0
LINE
5
5B
100
AcDbEntity
8
HiddenOutline
100
AcDbLine
10
-1.83012701892219
20
8.0258585776127
30
0
11
-3.35593139802199
21
7.67589003677058
31
0
0
LINE
5
5C
100
AcDbEntity
8
HiddenOutline
100
AcDbLine
10
-0.205660018521575
20
8.16323871522004
30
0
11
-1.83012701892219
21
8.0258585776127
31
0
0
LINE
5
5D
100
AcDbEntity
8
HiddenOutline
100
AcDbLine
10
1.42989416671065
20
8.08062425081466
30
0
11
-0.205660018521575
21
8.16323871522004
31
0
0
LINE
5
5E
100
AcDbEntity
8
HiddenOutline
100
AcDbLine
10
2.9883623873012
20
7.78246895155662
30
0
11
1.42989416671065
21
8.08062425081466
31
0
0
LINE
5
5F
100
AcDbEntity
8
HiddenOutline
100
AcDbLine
10
4.38572721808356
20
7.28484644680354
30
0
11
2.9883623873012
21
7.78246895155662
31
0
0
LINE
5
60
100
AcDbEntity
8
HiddenOutline
100
AcDbLine
10
5.54665635933587
20
6.61458369459144
30
0
11
4.38572721808356
21
7.28484644680354
31
0
0
LINE
5
61
100
AcDbEntity
8
HiddenOutline
100
AcDbLine
10
6.40856382055789
20
5.80781473338313
30
0
11
5.54665635933587
21
6.61458369459144
31
0
0
LINE
5
62
100
AcDbEntity
8
HiddenOutline
100
AcDbLine
10
6.92498394741871
20
4.9080326867017
30
0
11
6.40856382055789
21
5.80781473338313
31
0
0
LINE
5
63
100
AcDbEntity
8
HiddenOutline
100
AcDbLine
10
7.07106770607597
20
4.08318908911023
30
0
11
6.92498394741871
21
4.9080326867017
31
0
0
LINE
5
64
100
AcDbEntity
8
HiddenOutline
100
AcDbLine
10
0
20
8.16496580927726
30
0
11
-14.142135623731
21
0
31
0
0
LINE
5
65
100
AcDbEntity
8
HiddenOutline
100
AcDbLine
10
0
20
8.16496580927726
30
0
11
14.142135623731
21
0
31
0
0
LINE
5
66
100
AcDbEntity
8
HiddenOutline
100
AcDbLine
10
0
20
8.16496580927726
30
0
11
0
21
12.2474487139159
31
0
0
ENDSEC
0
SECTION
2
OBJECTS
0
DICTIONARY
5
67
100
AcDbDictionary
281
1
3
ACAD_GROUP
350
68
0
DICTIONARY
5
68
100
AcDbDictionary
281
1
0
ENDSEC
0
EOF
