999
DXF created by Macad3D
0
SECTION
2
HEADER
9
$ACADVER
1
AC1015
9
$HANDSEED
5
FFFFFF
9
$ANGDIR
70
1
9
$MEASUREMENT
70
1
9
$DWGCODEPAGE
3
iso8859-1
0
ENDSEC
0
SECTION
2
CLASSES
0
ENDSEC
0
SECTION
2
TABLES
0
TABLE
2
VPORT
5
1
100
AcDbSymbolTable
70
0
0
ENDTAB
0
TABLE
2
LTYPE
5
2
100
AcDbSymbolTable
70
4
0
LTYPE
5
3
100
AcDbSymbolTableRecord
100
AcDbLinetypeTableRecord
2
BYBLOCK
70
0
3

72
65
73
0
40
0
0
LTYPE
5
4
100
AcDbSymbolTableRecord
100
AcDbLinetypeTableRecord
2
BYLAYER
70
0
3

72
65
73
0
40
0
0
LTYPE
5
5
100
AcDbSymbolTableRecord
100
AcDbLinetypeTableRecord
2
CONTINUOUS
70
0
3
Solid line
72
65
73
0
40
0
0
LTYPE
5
6
100
AcDbSymbolTableRecord
100
AcDbLinetypeTableRecord
2
Solid
70
0
3

72
65
73
0
40
0
0
ENDTAB
0
TABLE
2
LAYER
5
7
100
AcDbSymbolTable
70
3
0
LAYER
5
8
100
AcDbSymbolTableRecord
100
AcDbLayerTableRecord
2
0
70
0
6
CONTINUOUS
390
0
0
LAYER
5
9
100
AcDbSymbolTableRecord
100
AcDbLayerTableRecord
2
Layer0
70
0
6
Solid
370
10
390
0
0
LAYER
5
A
100
AcDbSymbolTableRecord
100
AcDbLayerTableRecord
2
Layer1
70
0
6
Solid
370
10
390
0
0
ENDTAB
0
TABLE
2
STYLE
5
B
100
AcDbSymbolTable
70
1
0
STYLE
5
C
100
AcDbSymbolTableRecord
100
AcDbTextStyleTableRecord
2
Standard
70
0
40
0
41
1
50
0
71
0
42
2.5
3
TXT.SHX
4

0
ENDTAB
0
TABLE
2
VIEW
5
D
100
AcDbSymbolTable
70
0
0
ENDTAB
0
TABLE
2
UCS
5
E
100
AcDbSymbolTable
70
0
0
ENDTAB
0
TABLE
2
APPID
5
F
100
AcDbSymbolTable
70
1
0
APPID
5
10
100
AcDbSymbolTableRecord
100
AcDbRegAppTableRecord
2
ACAD
70
0
0
ENDTAB
0
TABLE
2
DIMSTYLE
5
11
100
AcDbSymbolTable
70
1
100
AcDbDimStyleTable
0
DIMSTYLE
105
12
100
AcDbSymbolTableRecord
100
AcDbDimStyleTableRecord
2
Standard
70
0
40
1
140
2
45
0.1
41
3
275
0
280
0
277
2
77
1
78
12
174
1
0
ENDTAB
0
TABLE
2
BLOCK_RECORD
5
13
100
AcDbSymbolTable
70
2
0
BLOCK_RECORD
5
14
100
AcDbSymbolTableRecord
100
AcDbBlockTableRecord
2
*Model_Space
0
BLOCK_RECORD
5
15
100
AcDbSymbolTableRecord
100
AcDbBlockTableRecord
2
*Paper_Space
0
ENDTAB
0
ENDSEC
0
SECTION
2
BLOCKS
0
BLOCK
5
16
100
AcDbEntity
8
0
100
AcDbBlockBegin
2
*Model_Space
70
0
10
0
20
0
30
0
3
*Model_Space
0
ENDBLK
5
17
100
AcDbEntity
8
0
100
AcDbBlockEnd
0
BLOCK
5
18
100
AcDbEntity
8
0
100
AcDbBlockBegin
2
*Paper_Space
70
0
10
0
20
0
30
0
3
*Paper_Space
0
ENDBLK
5
19
100
AcDbEntity
8
0
100
AcDbBlockEnd
0
ENDSEC
0
SECTION
2
ENTITIES
0
LINE
5
1A
100
AcDbEntity
8
Layer0
100
AcDbLine
10
-43.105385533489
20
20
30
0
11
-63.105385533489
21
20
31
0
0
LINE
5
1B
100
AcDbEntity
8
Layer0
100
AcDbLine
10
-63.105385533489
20
20
30
0
11
-63.105385533489
21
20.418923962518
31
0
0
LINE
5
1C
100
AcDbEntity
8
Layer0
100
AcDbLine
10
-63.105385533489
20
20.418923962518
30
0
11
-63.105385533489
21
25.418923962518
31
0
0
LINE
5
1D
100
AcDbEntity
8
Layer0
100
AcDbLine
10
-63.105385533489
20
25.418923962518
30
0
11
-73.105385533489
21
25.418923962518
31
0
0
LINE
5
1E
100
AcDbEntity
8
Layer0
100
AcDbLine
10
-73.105385533489
20
25.418923962518
30
0
11
-73.105385533489
21
20.418923962518
31
0
0
LINE
5
1F
100
AcDbEntity
8
Layer0
100
AcDbLine
10
-73.105385533489
20
20.418923962518
30
0
11
-73.105385533489
21
20
31
0
0
LINE
5
20
100
AcDbEntity
8
Layer0
100
AcDbLine
10
-73.10538553349
20
20
30
0
11
-74.283078300234
21
20
31
0
0
LINE
5
21
100
AcDbEntity
8
Layer0
100
AcDbLine
10
-74.283078300234
20
20
30
0
11
-83.283078300234
21
20
31
0
0
LINE
5
22
100
AcDbEntity
8
Layer0
100
AcDbLine
10
-83.283078300234
20
20
30
0
11
-83.833261492964
21
20
31
0
0
LINE
5
23
100
AcDbEntity
8
Layer0
100
AcDbLine
10
-83.833261492964
20
20
30
0
11
-84.383444685693
21
20
31
0
0
LINE
5
24
100
AcDbEntity
8
Layer0
100
AcDbLine
10
-84.383444685693
20
20
30
0
11
-85.383444685693
21
20
31
0
0
LINE
5
25
100
AcDbEntity
8
Layer0
100
AcDbLine
10
-85.383444685693
20
20
30
0
11
-85.383444685693
21
-20
31
0
0
LINE
5
26
100
AcDbEntity
8
Layer0
100
AcDbLine
10
-85.383444685693
20
-20
30
0
11
-84.383444685693
21
-20
31
0
0
LINE
5
27
100
AcDbEntity
8
Layer0
100
AcDbLine
10
-84.383444685693
20
-20
30
0
11
-83.833261492964
21
-20
31
0
0
LINE
5
28
100
AcDbEntity
8
Layer0
100
AcDbLine
10
-83.833261492964
20
-20
30
0
11
-83.283078300234
21
-20
31
0
0
LINE
5
29
100
AcDbEntity
8
Layer0
100
AcDbLine
10
-83.283078300234
20
-20
30
0
11
-74.283078300234
21
-20
31
0
0
LINE
5
2A
100
AcDbEntity
8
Layer0
100
AcDbLine
10
-74.283078300234
20
-20
30
0
11
-73.10538553349
21
-20
31
0
0
LINE
5
2B
100
AcDbEntity
8
Layer0
100
AcDbLine
10
-73.105385533489
20
-20
30
0
11
-73.105385533489
21
-21.177692766745
31
0
0
LINE
5
2C
100
AcDbEntity
8
Layer0
100
AcDbLine
10
-73.105385533489
20
-21.177692766745
30
0
11
-73.105385533489
21
-36.177692766745
31
0
0
LINE
5
2D
100
AcDbEntity
8
Layer0
100
AcDbLine
10
-73.105385533489
20
-36.177692766745
30
0
11
-73.105385533489
21
-41.675479910527
31
0
0
LINE
5
2E
100
AcDbEntity
8
Layer0
100
AcDbLine
10
-73.105385533489
20
-41.675479910527
30
0
11
-73.105385533489
21
-52.671054198091
31
0
0
LINE
5
2F
100
AcDbEntity
8
Layer0
100
AcDbLine
10
-73.105385533489
20
-52.671054198091
30
0
11
-73.105385533489
21
-58.168841341873
31
0
0
LINE
5
30
100
AcDbEntity
8
Layer0
100
AcDbLine
10
-73.105385533489
20
-58.168841341873
30
0
11
-33.105385533489
21
-58.168841341873
31
0
0
LINE
5
31
100
AcDbEntity
8
Layer0
100
AcDbLine
10
-33.105385533489
20
-58.168841341873
30
0
11
-33.105385533489
21
-52.671054198091
31
0
0
LINE
5
32
100
AcDbEntity
8
Layer0
100
AcDbLine
10
-33.105385533489
20
-52.671054198091
30
0
11
-33.105385533489
21
-41.675479910527
31
0
0
LINE
5
33
100
AcDbEntity
8
Layer0
100
AcDbLine
10
-33.10538553349
20
-41.675479910527
30
0
11
-33.10538553349
21
-36.177692766745
31
0
0
LINE
5
34
100
AcDbEntity
8
Layer0
100
AcDbLine
10
-33.105385533489
20
-36.177692766745
30
0
11
-33.105385533489
21
-21.177692766745
31
0
0
LINE
5
35
100
AcDbEntity
8
Layer0
100
AcDbLine
10
-33.105385533489
20
-21.177692766745
30
0
11
-33.105385533489
21
-20
31
0
0
LINE
5
36
100
AcDbEntity
8
Layer0
100
AcDbLine
10
-33.105385533489
20
-20
30
0
11
-31.927692766745
21
-20
31
0
0
LINE
5
37
100
AcDbEntity
8
Layer0
100
AcDbLine
10
-31.927692766745
20
-20
30
0
11
-21.927692766745
21
-20
31
0
0
LINE
5
38
100
AcDbEntity
8
Layer0
100
AcDbLine
10
-21.927692766745
20
-20
30
0
11
-20.75
21
-20
31
0
0
LINE
5
39
100
AcDbEntity
8
Layer0
100
AcDbLine
10
-20.75
20
-20
30
0
11
20.75
21
-20
31
0
0
LINE
5
3A
100
AcDbEntity
8
Layer0
100
AcDbLine
10
20.75
20
-20
30
0
11
20.75
21
20
31
0
0
LINE
5
3B
100
AcDbEntity
8
Layer0
100
AcDbLine
10
20.75
20
20
30
0
11
-20.75
21
20
31
0
0
LINE
5
3C
100
AcDbEntity
8
Layer0
100
AcDbLine
10
-20.75
20
20
30
0
11
-21.927692766745
21
20
31
0
0
LINE
5
3D
100
AcDbEntity
8
Layer0
100
AcDbLine
10
-21.927692766745
20
20
30
0
11
-31.927692766745
21
20
31
0
0
LINE
5
3E
100
AcDbEntity
8
Layer0
100
AcDbLine
10
-31.927692766745
20
20
30
0
11
-33.105385533489
21
20
31
0
0
LINE
5
3F
100
AcDbEntity
8
Layer0
100
AcDbLine
10
-33.105385533489
20
20
30
0
11
-33.105385533489
21
20.942578915665
31
0
0
LINE
5
40
100
AcDbEntity
8
Layer0
100
AcDbLine
10
-33.105385533489
20
20.942578915665
30
0
11
-33.105385533489
21
25.942578915665
31
0
0
LINE
5
41
100
AcDbEntity
8
Layer0
100
AcDbLine
10
-33.105385533489
20
25.942578915665
30
0
11
-43.105385533489
21
25.942578915665
31
0
0
LINE
5
42
100
AcDbEntity
8
Layer0
100
AcDbLine
10
-43.105385533489
20
25.942578915665
30
0
11
-43.105385533489
21
20.942578915665
31
0
0
LINE
5
43
100
AcDbEntity
8
Layer0
100
AcDbLine
10
-43.105385533489
20
20.942578915665
30
0
11
-43.105385533489
21
20
31
0
0
ARC
5
44
100
AcDbEntity
8
Layer0
100
AcDbCircle
10
-53.105385533489
20
0
30
0
40
7.211102550928
100
AcDbArc
50
0
51
31.815692987399
0
ARC
5
45
100
AcDbEntity
8
Layer0
100
AcDbCircle
10
-53.105385533489
20
0
30
0
40
7.211102550928
100
AcDbArc
50
329.88186581073
51
360
0
LINE
5
46
100
AcDbEntity
8
Layer0
100
AcDbLine
10
-46.867834839828
20
-3.6184197302149
30
0
11
-46.847242408714
21
-5.0083840534964
31
0
0
LINE
5
47
100
AcDbEntity
8
Layer0
100
AcDbLine
10
-46.847242408714
20
-5.0083840534964
30
0
11
-47.932888902499
21
-5.0244679919765
31
0
0
ARC
5
48
100
AcDbEntity
8
Layer0
100
AcDbCircle
10
-53.105385533489
20
0
30
0
40
7.211102550928
100
AcDbArc
50
225.86585830339
51
315.83170049682
0
LINE
5
49
100
AcDbEntity
8
Layer0
100
AcDbLine
10
-58.126768965156
20
-5.1754911295631
30
0
11
-58.857058757409
21
-5.1863104304668
31
0
0
LINE
5
4A
100
AcDbEntity
8
Layer0
100
AcDbLine
10
-58.857058757409
20
-5.1863104304668
30
0
11
-58.869704485901
21
-4.3327389737746
31
0
0
ARC
5
4B
100
AcDbEntity
8
Layer0
100
AcDbCircle
10
-53.105385533489
20
0
30
0
40
7.211102550928
100
AcDbArc
50
144.76727691001
51
216.93028189036
0
LINE
5
4C
100
AcDbEntity
8
Layer0
100
AcDbLine
10
-58.995526228254
20
4.1600772343648
30
0
11
-59.051631851427
21
7.947139286942
31
0
0
LINE
5
4D
100
AcDbEntity
8
Layer0
100
AcDbLine
10
-59.051631851427
20
7.947139286942
30
0
11
-47.041815502475
21
8.125065663848
31
0
0
LINE
5
4E
100
AcDbEntity
8
Layer0
100
AcDbLine
10
-47.041815502475
20
8.125065663848
30
0
11
-46.977763176735
21
3.8016107445396
31
0
0
LINE
5
4F
100
AcDbEntity
8
Layer0
100
AcDbLine
10
5.1962463179376
20
7.947139286942
30
0
11
5.0016732239195
21
-5.1863104304668
31
0
0
LINE
5
50
100
AcDbEntity
8
Layer0
100
AcDbLine
10
5.0016732239195
20
-5.1863104304668
30
0
11
-7.0081431247753
21
-5.0083840534964
31
0
0
LINE
5
51
100
AcDbEntity
8
Layer0
100
AcDbLine
10
-7.0081431247753
20
-5.0083840534964
30
0
11
-6.8135700310148
21
8.125065663848
31
0
0
LINE
5
52
100
AcDbEntity
8
Layer0
100
AcDbLine
10
-6.8135700310149
20
8.1250656638479
30
0
11
5.1962463179376
21
7.947139286942
31
0
0
LINE
5
53
100
AcDbEntity
8
Layer1
100
AcDbLine
10
-43.105385533489
20
20
30
0
11
-63.105385533489
21
20
31
0
0
LINE
5
54
100
AcDbEntity
8
Layer1
100
AcDbLine
10
-63.105385533489
20
20
30
0
11
-73.105385533489
21
20
31
0
0
LINE
5
55
100
AcDbEntity
8
Layer1
100
AcDbLine
10
-73.10538553349
20
20
30
0
11
-74.283078300234
21
20
31
0
0
LINE
5
56
100
AcDbEntity
8
Layer1
100
AcDbLine
10
-74.283078300234
20
20
30
0
11
-83.283078300234
21
20
31
0
0
LINE
5
57
100
AcDbEntity
8
Layer1
100
AcDbLine
10
-83.283078300234
20
20
30
0
11
-83.833261492964
21
20
31
0
0
LINE
5
58
100
AcDbEntity
8
Layer1
100
AcDbLine
10
-83.833261492964
20
20
30
0
11
-84.383444685693
21
20
31
0
0
LINE
5
59
100
AcDbEntity
8
Layer1
100
AcDbLine
10
-84.383444685693
20
20
30
0
11
-85.383444685693
21
20
31
0
0
LINE
5
5A
100
AcDbEntity
8
Layer1
100
AcDbLine
10
-85.383444685693
20
20
30
0
11
-85.383444685693
21
-20
31
0
0
LINE
5
5B
100
AcDbEntity
8
Layer1
100
AcDbLine
10
-85.383444685693
20
-20
30
0
11
-84.383444685693
21
-20
31
0
0
LINE
5
5C
100
AcDbEntity
8
Layer1
100
AcDbLine
10
-84.383444685693
20
-20
30
0
11
-83.833261492964
21
-20
31
0
0
LINE
5
5D
100
AcDbEntity
8
Layer1
100
AcDbLine
10
-83.833261492964
20
-20
30
0
11
-83.283078300234
21
-20
31
0
0
LINE
5
5E
100
AcDbEntity
8
Layer1
100
AcDbLine
10
-83.283078300234
20
-20
30
0
11
-74.283078300234
21
-20
31
0
0
LINE
5
5F
100
AcDbEntity
8
Layer1
100
AcDbLine
10
-74.283078300234
20
-20
30
0
11
-73.10538553349
21
-20
31
0
0
LINE
5
60
100
AcDbEntity
8
Layer1
100
AcDbLine
10
-73.105385533489
20
-20
30
0
11
-73.105385533489
21
-21.177692766745
31
0
0
LINE
5
61
100
AcDbEntity
8
Layer1
100
AcDbLine
10
-73.105385533489
20
-21.177692766745
30
0
11
-73.105385533489
21
-36.177692766745
31
0
0
LINE
5
62
100
AcDbEntity
8
Layer1
100
AcDbLine
10
-73.105385533489
20
-36.177692766745
30
0
11
-73.105385533489
21
-41.675479910527
31
0
0
LINE
5
63
100
AcDbEntity
8
Layer1
100
AcDbLine
10
-73.105385533489
20
-41.675479910527
30
0
11
-73.105385533489
21
-52.671054198091
31
0
0
LINE
5
64
100
AcDbEntity
8
Layer1
100
AcDbLine
10
-73.105385533489
20
-52.671054198091
30
0
11
-73.105385533489
21
-58.168841341873
31
0
0
LINE
5
65
100
AcDbEntity
8
Layer1
100
AcDbLine
10
-73.105385533489
20
-58.168841341873
30
0
11
-33.105385533489
21
-58.168841341873
31
0
0
LINE
5
66
100
AcDbEntity
8
Layer1
100
AcDbLine
10
-33.105385533489
20
-58.168841341873
30
0
11
-33.105385533489
21
-52.671054198091
31
0
0
LINE
5
67
100
AcDbEntity
8
Layer1
100
AcDbLine
10
-33.105385533489
20
-52.671054198091
30
0
11
-33.105385533489
21
-41.675479910527
31
0
0
LINE
5
68
100
AcDbEntity
8
Layer1
100
AcDbLine
10
-33.10538553349
20
-41.675479910527
30
0
11
-33.10538553349
21
-36.177692766745
31
0
0
LINE
5
69
100
AcDbEntity
8
Layer1
100
AcDbLine
10
-33.105385533489
20
-36.177692766745
30
0
11
-33.105385533489
21
-21.177692766745
31
0
0
LINE
5
6A
100
AcDbEntity
8
Layer1
100
AcDbLine
10
-33.105385533489
20
-21.177692766745
30
0
11
-33.105385533489
21
-20
31
0
0
LINE
5
6B
100
AcDbEntity
8
Layer1
100
AcDbLine
10
-33.105385533489
20
-20
30
0
11
-31.927692766745
21
-20
31
0
0
LINE
5
6C
100
AcDbEntity
8
Layer1
100
AcDbLine
10
-31.927692766745
20
-20
30
0
11
-21.927692766745
21
-20
31
0
0
LINE
5
6D
100
AcDbEntity
8
Layer1
100
AcDbLine
10
-21.927692766745
20
-20
30
0
11
-20.75
21
-20
31
0
0
LINE
5
6E
100
AcDbEntity
8
Layer1
100
AcDbLine
10
-20.75
20
-20
30
0
11
20.75
21
-20
31
0
0
LINE
5
6F
100
AcDbEntity
8
Layer1
100
AcDbLine
10
20.75
20
-20
30
0
11
20.75
21
20
31
0
0
LINE
5
70
100
AcDbEntity
8
Layer1
100
AcDbLine
10
20.75
20
20
30
0
11
-20.75
21
20
31
0
0
LINE
5
71
100
AcDbEntity
8
Layer1
100
AcDbLine
10
-20.75
20
20
30
0
11
-21.927692766745
21
20
31
0
0
LINE
5
72
100
AcDbEntity
8
Layer1
100
AcDbLine
10
-21.927692766745
20
20
30
0
11
-31.927692766745
21
20
31
0
0
LINE
5
73
100
AcDbEntity
8
Layer1
100
AcDbLine
10
-31.927692766745
20
20
30
0
11
-33.105385533489
21
20
31
0
0
LINE
5
74
100
AcDbEntity
8
Layer1
100
AcDbLine
10
-33.105385533489
20
20
30
0
11
-43.105385533489
21
20
31
0
0
LINE
5
75
100
AcDbEntity
8
Layer1
100
AcDbLine
10
-68.105385533489
20
-15
30
0
11
-68.105385533489
21
-10
31
0
0
LINE
5
76
100
AcDbEntity
8
Layer1
100
AcDbLine
10
-68.105385533489
20
-10
30
0
11
-63.105385533489
21
-10
31
0
0
LINE
5
77
100
AcDbEntity
8
Layer1
100
AcDbLine
10
-63.105385533489
20
-10
30
0
11
-63.105385533489
21
-15
31
0
0
LINE
5
78
100
AcDbEntity
8
Layer1
100
AcDbLine
10
-63.105385533489
20
-15
30
0
11
-68.105385533489
21
-15
31
0
0
ARC
5
79
100
AcDbEntity
8
Layer1
100
AcDbCircle
10
-41.938718866823
20
-11.166666666667
30
0
40
4.0069384267238
100
AcDbArc
50
253.07248693585
51
376.92751306415
0
LINE
5
7A
100
AcDbEntity
8
Layer1
100
AcDbLine
10
-43.105385533489
20
-15
30
0
11
-43.105385533489
21
-10
31
0
0
LINE
5
7B
100
AcDbEntity
8
Layer1
100
AcDbLine
10
-43.105385533489
20
-10
30
0
11
-38.105385533489
21
-10
31
0
0
ARC
5
7C
100
AcDbEntity
8
Layer1
100
AcDbCircle
10
-53.105385533489
20
0
30
0
40
7.211102550928
100
AcDbArc
50
0
51
31.815692987399
0
ARC
5
7D
100
AcDbEntity
8
Layer1
100
AcDbCircle
10
-53.105385533489
20
0
30
0
40
7.211102550928
100
AcDbArc
50
329.88186581073
51
360
0
LINE
5
7E
100
AcDbEntity
8
Layer1
100
AcDbLine
10
-46.867834839828
20
-3.6184197302149
30
0
11
-46.847242408714
21
-5.0083840534964
31
0
0
LINE
5
7F
100
AcDbEntity
8
Layer1
100
AcDbLine
10
-46.847242408714
20
-5.0083840534964
30
0
11
-47.932888902499
21
-5.0244679919765
31
0
0
ARC
5
80
100
AcDbEntity
8
Layer1
100
AcDbCircle
10
-53.105385533489
20
0
30
0
40
7.211102550928
100
AcDbArc
50
225.86585830339
51
315.83170049682
0
LINE
5
81
100
AcDbEntity
8
Layer1
100
AcDbLine
10
-58.126768965156
20
-5.1754911295631
30
0
11
-58.857058757409
21
-5.1863104304668
31
0
0
LINE
5
82
100
AcDbEntity
8
Layer1
100
AcDbLine
10
-58.857058757409
20
-5.1863104304668
30
0
11
-58.869704485901
21
-4.3327389737746
31
0
0
ARC
5
83
100
AcDbEntity
8
Layer1
100
AcDbCircle
10
-53.105385533489
20
0
30
0
40
7.211102550928
100
AcDbArc
50
144.76727691001
51
216.93028189036
0
LINE
5
84
100
AcDbEntity
8
Layer1
100
AcDbLine
10
-58.995526228254
20
4.1600772343648
30
0
11
-59.051631851427
21
7.947139286942
31
0
0
LINE
5
85
100
AcDbEntity
8
Layer1
100
AcDbLine
10
-59.051631851427
20
7.947139286942
30
0
11
-47.041815502475
21
8.125065663848
31
0
0
LINE
5
86
100
AcDbEntity
8
Layer1
100
AcDbLine
10
-47.041815502475
20
8.125065663848
30
0
11
-46.977763176735
21
3.8016107445396
31
0
0
CIRCLE
5
87
100
AcDbEntity
8
Layer1
100
AcDbCircle
10
-65.105385533489
20
12
30
0
40
3
0
CIRCLE
5
88
100
AcDbEntity
8
Layer1
100
AcDbCircle
10
-41.105385533489
20
12
30
0
40
2.8284271247462
0
LINE
5
89
100
AcDbEntity
8
Layer1
100
AcDbLine
10
5.1962463179376
20
7.947139286942
30
0
11
5.0016732239195
21
-5.1863104304668
31
0
0
LINE
5
8A
100
AcDbEntity
8
Layer1
100
AcDbLine
10
5.0016732239195
20
-5.1863104304668
30
0
11
-7.0081431247753
21
-5.0083840534964
31
0
0
LINE
5
8B
100
AcDbEntity
8
Layer1
100
AcDbLine
10
-7.0081431247753
20
-5.0083840534964
30
0
11
-6.8135700310148
21
8.125065663848
31
0
0
LINE
5
8C
100
AcDbEntity
8
Layer1
100
AcDbLine
10
-6.8135700310149
20
8.1250656638479
30
0
11
5.1962463179376
21
7.947139286942
31
0
0
LINE
5
8D
100
AcDbEntity
8
Layer1
100
AcDbLine
10
-73.105385533489
20
20.418923962518
30
0
11
-63.105385533489
21
20.418923962518
31
0
0
LINE
5
8E
100
AcDbEntity
8
Layer1
100
AcDbLine
10
-63.105385533489
20
20.418923962518
30
0
11
-63.105385533489
21
25.418923962518
31
0
0
LINE
5
8F
100
AcDbEntity
8
Layer1
100
AcDbLine
10
-63.105385533489
20
25.418923962518
30
0
11
-73.105385533489
21
25.418923962518
31
0
0
LINE
5
90
100
AcDbEntity
8
Layer1
100
AcDbLine
10
-73.105385533489
20
25.418923962518
30
0
11
-73.105385533489
21
20.418923962518
31
0
0
LINE
5
91
100
AcDbEntity
8
Layer1
100
AcDbLine
10
-43.105385533489
20
20.942578915665
30
0
11
-33.105385533489
21
20.942578915665
31
0
0
LINE
5
92
100
AcDbEntity
8
Layer1
100
AcDbLine
10
-33.105385533489
20
20.942578915665
30
0
11
-33.105385533489
21
25.942578915665
31
0
0
LINE
5
93
100
AcDbEntity
8
Layer1
100
AcDbLine
10
-33.105385533489
20
25.942578915665
30
0
11
-43.105385533489
21
25.942578915665
31
0
0
LINE
5
94
100
AcDbEntity
8
Layer1
100
AcDbLine
10
-43.105385533489
20
25.942578915665
30
0
11
-43.105385533489
21
20.942578915665
31
0
0
ENDSEC
0
SECTION
2
OBJECTS
0
DICTIONARY
5
95
100
AcDbDictionary
281
1
3
ACAD_GROUP
350
96
0
DICTIONARY
5
96
100
AcDbDictionary
281
1
0
ENDSEC
0
EOF
