
CASCADE Topology V1, (c) Matra-Datavision
Locations 4
1
              1               0               0             -10 
              0               1               0             -10 
              0               0               1               0 
1
              1               0               0              10 
              0               1               0              10 
              0               0               1               5 
1
              1               0               0               0 
              0               1               0               0 
              0               0               1               1 
2  2 1 3 1 0
Curve2ds 106
1 5 0 0 -1 
1 1.5707963267948966 0 0 1 
1 0 0 0 1 
1 3.1415926535897931 0 0 1 
1 0 20 1 0 
7 0 0  7 20 4  4.0969092717143019 0  4.0175720763900458 0.079337195324256538  3.9382338891313111 0.15867405707206217  3.8572712513891929 0.23719751354840923  3.7730237211053463 0.31408266079947111  3.6837629884905709 0.38838822498641434  3.5872124901429219 0.4588202268756485  3.4285380994944092 0.55598804995962425  3.3733385351654435 0.58696417112678356  3.3155906740569412 0.61630457999822652  3.2550735686396757 0.64375964773957151  3.1916279376271826 0.6690460713614621  3.1252184299123007 0.69186009659513403  2.9868130394243599 0.73196103953625136  2.9148166734119352 0.74924761598625966  2.8401957037635515 0.763482035561035  2.7633103939842596 0.77438180284882008  2.6847869902314025 0.78172686011812176  2.6054501402436601 0.78539816339744917  2.5261129449194031 0.78539816339744906 
 1.5707963267948966 8 2.3561944901923426 6 2.7488935718910668 6 3.1415926535897931 8
1 0 0 1 0 
7 0 0  7 20 4  4.0969092717143019 0  4.0175720763900458 -0.079337195324256565  3.9382338891298332 -0.15867405707204796  3.8572712513919214 -0.2371975135484945  3.7730237211017084 -0.31408266079947111  3.6837629884919352 -0.38838822498644276  3.5872124901429232 -0.45882022687564805  3.4285380994944101 -0.55598804995962392  3.3733385351655047 -0.58696417112677834  3.3155906740568151 -0.61630457999822341  3.255073568639562 -0.6437596477395654  3.1916279376272647 -0.66904607136145278  3.125218429912302 -0.69186009659513714  2.9868130394243617 -0.73196103953625458  2.9148166734118952 -0.74924761598625556  2.8401957037634946 -0.763482035561032  2.7633103939842028 -0.77438180284882008  2.684786990231363 -0.78172686011812176  2.6054501402436618 -0.78539816339744861  2.5261129449194049 -0.78539816339744861 
 1.5707963267948966 8 2.3561944901923453 6 2.7488935718910694 6 3.1415926535897931 8
1 0 0 1 0 
1 1.5707963267948966 0 0 1 
1 0 -20 1 0 
1 1.5707963267948966 0 0 1 
1 0 0 0 -1 
1 1.5707963267948966 0 0 1 
1 0 0 0 1 
1 3.1415926535897931 0 0 1 
1 0 20 1 0 
7 0 0  7 20 4  4.0969092717143019 0  4.0175720763900449 -0.079337195324256524  3.9382338891304016 -0.1586740570721048  3.8572712513914666 -0.23719751354829555  3.7730237211003441 -0.3140826607995848  3.6837629884917078 -0.38838822498640013  3.5872124901429259 -0.45882022687564777  3.4285380994944132 -0.55598804995962381  3.3733385351654244 -0.58696417112677324  3.3155906740568639 -0.61630457999825283  3.2550735686396104 -0.64375964773958572  3.1916279376271826 -0.66904607136143235  3.1252184299123007 -0.6918600965951367  2.9868130394243599 -0.73196103953625402  2.9148166734118948 -0.74924761598622991  2.8401957037634946 -0.76348203556106553  2.7633103939842152 -0.7743818028488505  2.6847869902313835 -0.78172686011809078  2.6054501402436623 -0.78539816339744717  2.5261129449194066 -0.78539816339744717 
 1.5707963267948966 8 2.3561944901923457 6 2.7488935718910685 6 3.1415926535897931 8
1 0 0 1 0 
7 0 0  7 20 4  4.0969092717143027 3.5206820122414088e-17  4.0175720763900467 0.079337195324256579  3.9382338891298332 0.15867405707211901  3.8572712513919214 0.23719751354832397  3.7730237211017084 0.31408266079961322  3.6837629884919352 0.38838822498641434  3.5872124901429236 0.45882022687564827  3.4285380994944106 0.55598804995962425  3.3733385351654639 0.58696417112676325  3.3155906740569208 0.61630457999823862  3.2550735686396672 0.64375964773957761  3.1916279376272243 0.66904607136143246  3.1252184299123025 0.69186009659513703  2.9868130394243622 0.73196103953625435  2.9148166734119156 0.74924761598622502  2.8401957037635719 0.76348203556106242  2.76331039398428 0.7743818028488535  2.6847869902313835 0.78172686011809611  2.6054501402436618 0.78539816339744828  2.5261129449194057 0.78539816339744828 
 1.5707963267948966 8 2.3561944901923493 6 2.7488935718910712 6 3.1415926535897931 8
1 0 20 1 0 
1 3.1415926535897931 0 0 1 
1 20 0 0 1 
1 1.5707963267948966 0 0 1 
1 0 0 1 0 
1 3.1415926535897931 0 0 1 
1 0 0 0 1 
1 1.5707963267948966 0 0 1 
1 0 20 1 0 
7 0 0  7 20 4  4.0969092717143019 0  4.0175720763900449 0.079337195324256524  3.9382338891304016 0.1586740570721048  3.8572712513914666 0.23719751354829555  3.7730237211003441 0.3140826607995848  3.6837629884917078 0.38838822498640013  3.5872124901429259 0.45882022687564777  3.4285380994944132 0.55598804995962381  3.3733385351654244 0.58696417112677324  3.3155906740568639 0.61630457999825283  3.2550735686396104 0.64375964773958572  3.1916279376271826 0.66904607136143235  3.1252184299123007 0.6918600965951367  2.9868130394243599 0.73196103953625402  2.9148166734118948 0.74924761598622991  2.8401957037634946 0.76348203556106553  2.7633103939842152 0.7743818028488505  2.6847869902313835 0.78172686011809078  2.6054501402436623 0.78539816339744717  2.5261129449194066 0.78539816339744717 
 1.5707963267948966 8 2.3561944901923457 6 2.7488935718910685 6 3.1415926535897931 8
1 0 0 1 0 
1 2.5261129449194062 -2.3561944901923448 -0 1 
1 0 20 1 0 
1 1.5707963267948966 0 0 1 
1 5 0 0 1 
1 1.5707963267948966 0 0 1 
1 0 0 1 0 
1 3.1415926535897931 0 0 1 
1 0 5 1 0 
7 0 0  7 20 4  4.0969092717143019 0  4.0175720763900458 0.079337195324256538  3.9382338891310837 0.15867405707216165  3.8572712513887382 0.23719751354803975  3.7730237211039821 0.31408266079972691  3.6837629884905709 0.38838822498634329  3.5872124901429259 0.45882022687564772  3.4285380994944132 0.55598804995962381  3.3733385351654244 0.58696417112676313  3.3155906740569612 0.61630457999823862  3.2550735686397201 0.64375964773958061  3.191627937627203 0.66904607136143746  3.1252184299123007 0.6918600965951367  2.9868130394243599 0.73196103953625402  2.9148166734118948 0.74924761598625533  2.8401957037635595 0.7634820355610239  2.7633103939842676 0.77438180284881797  2.684786990231363 0.78172686011813142  2.6054501402436623 0.78539816339744717  2.5261129449194066 0.78539816339744717 
 1.5707963267948966 8 2.3561944901923457 6 2.7488935718910685 6 3.1415926535897931 8
1 0 20 1 0 
7 0 0  7 20 4  4.0969092717143019 0  4.0175720763900458 -0.079337195324256538  3.9382338891313111 -0.15867405707206217  3.8572712513891929 -0.23719751354840923  3.7730237211053463 -0.31408266079947111  3.6837629884905709 -0.38838822498641434  3.5872124901429219 -0.4588202268756485  3.4285380994944092 -0.55598804995962425  3.3733385351654435 -0.58696417112678356  3.3155906740569412 -0.61630457999822652  3.2550735686396757 -0.64375964773957151  3.1916279376271826 -0.6690460713614621  3.1252184299123007 -0.69186009659513403  2.9868130394243599 -0.73196103953625136  2.9148166734119352 -0.74924761598625966  2.8401957037635515 -0.763482035561035  2.7633103939842596 -0.77438180284882008  2.6847869902314025 -0.78172686011812176  2.6054501402436601 -0.78539816339744917  2.5261129449194031 -0.78539816339744906 
 1.5707963267948966 8 2.3561944901923426 6 2.7488935718910668 6 3.1415926535897931 8
1 0 0 1 0 
1 2.5261129449194044 -2.3561944901923448 -0 1 
1 0 0 1 0 
1 3.1415926535897931 0 0 1 
1 0 0 1 0 
7 0 0  7 20 4  4.0969092717143019 0  4.0175720763900458 -0.079337195324256565  3.9382338891308564 -0.15867405707207638  3.8572712513896477 -0.23719751354832397  3.7730237211021631 -0.3140826607995848  3.6837629884912531 -0.38838822498637171  3.5872124901429232 -0.45882022687565005  3.4285380994944101 -0.55598804995962603  3.3733385351653626 -0.58696417112675869  3.3155906740569248 -0.61630457999824373  3.2550735686396712 -0.64375964773958871  3.1916279376271217 -0.66904607136143746  3.1252184299123007 -0.6918600965951367  2.9868130394243599 -0.73196103953625402  2.9148166734119352 -0.74924761598625023  2.840195703763519 -0.76348203556103711  2.7633103939842152 -0.77438180284882818  2.6847869902313835 -0.78172686011812131  2.6054501402436623 -0.78539816339744717  2.5261129449194066 -0.78539816339744717 
 1.5707963267948966 8 2.3561944901923439 6 2.7488935718910672 6 3.1415926535897931 8
1 5 0 0 -1 
1 3.1415926535897931 0 0 1 
1 0 -20 1 0 
1 3.1415926535897931 0 0 1 
1 0 0 0 -1 
1 3.1415926535897931 0 0 1 
1 0 0 1 0 
1 3.1415926535897931 0 0 1 
1 0 0 1 0 
1 2.5261129449194044 2.3561944901923444 0 -1 
1 0 0 1 0 
7 0 0  7 20 4  4.0969092717143027 -3.5206820122414088e-17  4.0175720763900467 -0.079337195324256579  3.9382338891298332 -0.15867405707211901  3.8572712513919214 -0.23719751354832397  3.7730237211017084 -0.31408266079961322  3.6837629884919352 -0.38838822498641434  3.5872124901429236 -0.45882022687564827  3.4285380994944106 -0.55598804995962425  3.3733385351654639 -0.58696417112676325  3.3155906740569208 -0.61630457999823862  3.2550735686396672 -0.64375964773957761  3.1916279376272243 -0.66904607136143246  3.1252184299123025 -0.69186009659513703  2.9868130394243622 -0.73196103953625435  2.9148166734119156 -0.74924761598622502  2.8401957037635719 -0.76348203556106242  2.76331039398428 -0.7743818028488535  2.6847869902313835 -0.78172686011809611  2.6054501402436618 -0.78539816339744828  2.5261129449194057 -0.78539816339744828 
 1.5707963267948966 8 2.3561944901923493 6 2.7488935718910712 6 3.1415926535897931 8
1 20 0 0 1 
1 1.5707963267948966 0 0 1 
1 0 20 1 0 
7 0 0  7 20 4  4.0969092717142992 0  4.0175720763900431 0.079337195324256538  3.9382338891304016 0.15867405707207638  3.8572712513901024 0.23719751354826712  3.7730237211021631 0.31408266079944269  3.6837629884912531 0.38838822498642855  3.5872124901429219 0.4588202268756485  3.4285380994944092 0.55598804995962425  3.3733385351654026 0.58696417112675814  3.3155906740569168 0.61630457999824373  3.2550735686396632 0.64375964773958272  3.1916279376271626 0.66904607136142735  3.1252184299123007 0.6918600965951367  2.9868130394243599 0.73196103953625402  2.9148166734119556 0.74924761598619949  2.840195703763531 0.76348203556107153  2.7633103939842516 0.7743818028488596  2.6847869902314421 0.78172686011806569  2.6054501402436552 0.78539816339744806  2.5261129449193995 0.78539816339744761 
 1.5707963267948966 8 2.3561944901923426 6 2.7488935718910668 6 3.1415926535897931 8
1 0 0 1 0 
7 0 0  7 20 4  4.0969092717143019 0  4.0175720763900458 0.079337195324256565  3.9382338891308564 0.15867405707207638  3.8572712513896477 0.23719751354832397  3.7730237211021631 0.3140826607995848  3.6837629884912531 0.38838822498637171  3.5872124901429232 0.45882022687565005  3.4285380994944101 0.55598804995962603  3.3733385351653626 0.58696417112675869  3.3155906740569248 0.61630457999824373  3.2550735686396712 0.64375964773958871  3.1916279376271217 0.66904607136143746  3.1252184299123007 0.6918600965951367  2.9868130394243599 0.73196103953625402  2.9148166734119352 0.74924761598625023  2.840195703763519 0.76348203556103711  2.7633103939842152 0.77438180284882818  2.6847869902313835 0.78172686011812131  2.6054501402436623 0.78539816339744717  2.5261129449194066 0.78539816339744717 
 1.5707963267948966 8 2.3561944901923439 6 2.7488935718910672 6 3.1415926535897931 8
1 0 0 1 0 
1 2.5261129449194044 2.3561944901923448 0 -1 
1 0 5 1 0 
7 0 0  7 20 4  4.0969092717143019 0  4.0175720763900449 0.079337195324256524  3.9382338891296058 0.15867405707207638  3.8572712513937404 0.23719751354832397  3.7730237210998894 0.31408266079952796  3.6837629884921625 0.38838822498642855  3.5872124901429232 0.45882022687564811  3.4285380994944101 0.55598804995962392  3.3733385351655047 0.58696417112676813  3.3155906740568151 0.61630457999824984  3.255073568639562 0.64375964773958871  3.1916279376272647 0.66904607136143746  3.1252184299123025 0.69186009659513659  2.9868130394243622 0.73196103953625413  2.9148166734118952 0.74924761598624023  2.8401957037634946 0.76348203556103911  2.7633103939842028 0.77438180284883018  2.684786990231363 0.7817268601181111  2.6054501402436623 0.78539816339744761  2.5261129449194066 0.78539816339744761 
 1.5707963267948966 8 2.3561944901923453 6 2.7488935718910694 6 3.1415926535897931 8
1 0 5 1 0 
7 0 0  7 20 4  4.0969092717143019 0  4.0175720763900458 -0.079337195324256538  3.9382338891310837 -0.15867405707216165  3.8572712513887382 -0.23719751354803975  3.7730237211039821 -0.31408266079972691  3.6837629884905709 -0.38838822498634329  3.5872124901429259 -0.45882022687564772  3.4285380994944132 -0.55598804995962381  3.3733385351654244 -0.58696417112676313  3.3155906740569612 -0.61630457999823862  3.2550735686397201 -0.64375964773958061  3.191627937627203 -0.66904607136143746  3.1252184299123007 -0.6918600965951367  2.9868130394243599 -0.73196103953625402  2.9148166734118948 -0.74924761598625533  2.8401957037635595 -0.7634820355610239  2.7633103939842676 -0.77438180284881797  2.684786990231363 -0.78172686011813142  2.6054501402436623 -0.78539816339744717  2.5261129449194066 -0.78539816339744717 
 1.5707963267948966 8 2.3561944901923457 6 2.7488935718910685 6 3.1415926535897931 8
1 0 0 1 0 
1 2.5261129449194044 2.3561944901923448 0 -1 
1 0 0 0 1 
1 1.5707963267948966 0 0 1 
1 0 20 1 0 
1 1.5707963267948966 0 0 1 
1 5 0 0 1 
1 3.1415926535897931 0 0 1 
1 0 0 1 0 
1 3.1415926535897931 0 0 1 
1 0 20 1 0 
1 1.5707963267948966 0 0 1 
1 0 20 1 0 
7 0 0  7 20 4  4.0969092717142992 0  4.0175720763900431 -0.079337195324256538  3.9382338891304016 -0.15867405707207638  3.8572712513901024 -0.23719751354826712  3.7730237211021631 -0.31408266079944269  3.6837629884912531 -0.38838822498642855  3.5872124901429219 -0.4588202268756485  3.4285380994944092 -0.55598804995962425  3.3733385351654026 -0.58696417112675814  3.3155906740569168 -0.61630457999824373  3.2550735686396632 -0.64375964773958272  3.1916279376271626 -0.66904607136142735  3.1252184299123007 -0.6918600965951367  2.9868130394243599 -0.73196103953625402  2.9148166734119556 -0.74924761598619949  2.840195703763531 -0.76348203556107153  2.7633103939842516 -0.7743818028488596  2.6847869902314421 -0.78172686011806569  2.6054501402436552 -0.78539816339744806  2.5261129449193995 -0.78539816339744761 
 1.5707963267948966 8 2.3561944901923426 6 2.7488935718910668 6 3.1415926535897931 8
1 0 5 1 0 
1 2.5261129449194062 -2.3561944901923448 -0 1 
1 0 0 1 0 
7 0 0  7 20 4  4.096909271714309 3.5527136788004859e-15  4.017572076390052 0.079337195324259452  3.9382338891304016 0.15867405707207638  3.8572712513914666 0.23719751354832397  3.7730237211030726 0.31408266079949954  3.6837629884914804 0.38838822498642855  3.5872124901429236 0.45882022687564528  3.4285380994944101 0.55598804995962026  3.3733385351655047 0.58696417112676713  3.3155906740568803 0.61630457999823363  3.2550735686396024 0.64375964773956951  3.1916279376272265 0.66904607136143124  3.1252184299123096 0.69186009659513259  2.9868130394243706 0.7319610395362498  2.9148166734118774 0.74924761598624912  2.8401957037636123 0.76348203556102889  2.7633103939843449 0.77438180284882008  2.6847869902313843 0.78172686011811898  2.6054501402436672 0.7853981633974394  2.5261129449194111 0.7853981633974394 
 1.5707963267948966 8 2.3561944901923466 6 2.7488935718910708 6 3.1415926535897931 8
1 0 20 1 0 
7 0 0  7 20 4  4.096909271714309 0  4.0175720763900529 -0.07933719532425719  3.9382338891308564 -0.15867405707206217  3.8572712513891929 -0.23719751354832397  3.7730237211048916 -0.3140826607995848  3.6837629884907983 -0.38838822498640013  3.5872124901429356 -0.45882022687565216  3.4285380994944239 -0.55598804995962947  3.3733385351654479 -0.58696417112678501  3.3155906740569736 -0.61630457999821842  3.2550735686396957 -0.6437596477395725  3.1916279376271675 -0.66904607136147887  3.1252184299123189 -0.69186009659513947  2.9868130394243786 -0.73196103953625802  2.9148166734118797 -0.74924761598628198  2.8401957037635799 -0.76348203556104721  2.7633103939843005 -0.77438180284883218  2.6847869902313639 -0.78172686011814407  2.6054501402436663 -0.78539816339745627  2.5261129449194093 -0.78539816339745627 
 1.5707963267948966 8 2.3561944901923426 6 2.7488935718910659 6 3.1415926535897931 8
1 0 0 1 0 
1 2.5261129449194044 2.3561944901923444 0 -1 
1 6.2831853071795862 -0.5 -1 0 
2 10 10 1 0 0 -1 7.5710678118654755
1 0 0 0 -1 
1 6.2831853071795862 0 0 -1 
1 0 -1 1 0 
1 0 0 1 0 
2 0 0 1 0 -0 1 7.0710678118654755
1 0 1.5707963267948966 1 0 
1 6.2831853071795862 0 0 1 
1 0 0 0 1 
1 0 20 1 0 
1 2.5261129449194097 -2.3561944901923528 -0 1 
Curves 53
1 -0.5 0 5 0 1 0 
1 0 0 5.5 0 1 0 
2 0 20 5 0 1 0 -1.1102230246251565e-16 0 -1 -1 0 1.1102230246251565e-16 0.5
2 0 0 5 0 1 0 -1.1102230246251565e-16 0 -1 -1 0 1.1102230246251565e-16 0.5
1 -0.5 0 0 0 0 1 
1 -0.5 20 0 0 0 1 
1 -0.5 0 0 0 1 0 
1 0 0 -0.5 0 1 0 
2 0 20 0 -0 -1 0 -1.1102230246251565e-16 0 1 -1 0 -1.1102230246251565e-16 0.5
2 0 0 0 -0 -1 0 -1.1102230246251565e-16 0 1 -1 0 -1.1102230246251565e-16 0.5
1 0 20 -0.5 1 0 0 
1 20 0 -0.5 0 1 0 
1 0 0 -0.5 1 0 0 
1 0 -0.5 0 1 0 0 
2 20 0 0 1 0 0 0 -1.1102230246251565e-16 1 0 -1 -1.1102230246251565e-16 0.5
2 0 0 0 1 0 0 0 -1.1102230246251565e-16 1 0 -1 -1.1102230246251565e-16 0.5
1 20 -0.5 0 0 0 1 
1 0 -0.5 5 1 0 0 
1 0 -0.5 0 0 0 1 
2 20 0 5 0 0 1 -1 -1.1102230246251565e-16 0 1.1102230246251565e-16 -1 0 0.5
2 20 0 5 -1 -0 0 0 -1.1102230246251565e-16 -1 0 -1 1.1102230246251565e-16 0.5
2 20 0 5 0 1 -0 -1 0 1.1102230246251565e-16 1.1102230246251565e-16 0 1 0.5
1 20.5 0 0 0 0 1 
2 20 0 0 0 0 1 -1 -1.1102230246251565e-16 0 1.1102230246251565e-16 -1 0 0.5
1 20.5 0 5 0 1 0 
1 20.5 20 0 0 0 1 
1 20.5 0 0 0 1 0 
1 0 0 5.5 1 0 0 
2 0 0 5 -1 -0 0 0 -1.1102230246251565e-16 -1 0 -1 1.1102230246251565e-16 0.5
2 0 0 0 0 0 1 -1.1102230246251565e-16 1 0 -1 -1.1102230246251565e-16 0 0.5
1 20 0 5.5 0 1 0 
2 20 20 5 0 1 -0 -1 0 1.1102230246251565e-16 1.1102230246251565e-16 0 1 0.5
2 0 20 0 -0 0 -1 -1.1102230246251565e-16 -1 0 -1 1.1102230246251565e-16 0 0.5
2 0 20 0 -1 0 0 0 1.1102230246251565e-16 1 0 1 -1.1102230246251565e-16 0.5
2 0 0 5 0 0 1 -1.1102230246251565e-16 1 0 -1 -1.1102230246251565e-16 0 0.5
2 0 20 5 -0 0 -1 -1.1102230246251565e-16 -1 0 -1 1.1102230246251565e-16 0 0.5
2 0 20 5 -1 0 0 0 -1 1.1102230246251565e-16 0 1.1102230246251565e-16 1 0.5
1 0 20.5 0 1 0 0 
1 20 20.5 0 0 0 1 
1 0 20.5 5 1 0 0 
1 0 20.5 0 0 0 1 
1 0 20 5.5 1 0 0 
2 20 20 5 -1 0 0 0 -1 1.1102230246251565e-16 0 1.1102230246251565e-16 1 0.5
2 20.000000000000004 20 5 0 0 -1 -1 1.1102230246251565e-16 0 1.1102230246251565e-16 1 0 0.5
2 20.000000000000004 20 0 0 0 -1 -1 1.1102230246251565e-16 0 1.1102230246251565e-16 1 0 0.5
2 20 20 0 -1 0 0 0 1.1102230246251565e-16 1 0 1 -1.1102230246251565e-16 0.5
2 20 0 0 0 -1 -0 -1 0 -1.1102230246251565e-16 1.1102230246251565e-16 0 -1 0.5
2 10 10 5.5 0 0 -1 1 0 0 0 -1 0 7.5710678118654755
1 17.571067811865476 10 5 0 0 1 
2 10 10 6 0 0 1 1 0 0 0 1 0 7.5710678118654755
2 0 0 0.5 0 -0 1 1 0 0 -0 1 0 7.0710678118654755
2 17.071067811865476 9.9999999999999982 6 -2.4492935982947064e-16 -1 0 1 -2.4492935982947064e-16 0 0 0 1 0.5
2 20 20 0 0 -1 -0 -1 0 -1.1102230246251565e-16 1.1102230246251565e-16 0 -1 0.5
Polygon3D 0
PolygonOnTriangulations 0
Surfaces 29
10 1.5707963267948966 3.1415926535897931 0 20
2 0 0 5 0 1 0 -1.1102230246251565e-16 0 -1 -1 0 1.1102230246251565e-16 0.5
1 -0.5 0 0 1 0 -0 0 0 1 0 -1 0 
1 0 0 5.5 0 0 1 1 0 -0 -0 1 0 
4 0 20 5 0 -0.70710678118654746 0.70710678118654746 0.57735026918962595 -0.57735026918962573 -0.57735026918962573 0.81649658092772592 0.40824829046386313 0.40824829046386313 0.5
4 0 0 5 -0 -0.70710678118654735 -0.70710678118654779 0.57735026918962595 0.57735026918962595 -0.57735026918962562 0.81649658092772603 -0.40824829046386329 0.40824829046386307 0.5
10 1.5707963267948966 3.1415926535897931 0 5
2 0 0 0 0 0 1 -1.1102230246251565e-16 1 0 -1 -1.1102230246251565e-16 0 0.5
10 1.5707963267948966 3.1415926535897931 0 5
2 0 20 0 0 0 1 -1.1102230246251565e-16 -1 0 -1 1.1102230246251565e-16 0 0.5
10 1.5707963267948966 3.1415926535897931 0 20
2 0 0 0 0 1 0 -1.1102230246251565e-16 0 1 -1 0 -1.1102230246251565e-16 0.5
1 0 0 -0.5 0 0 1 1 0 -0 -0 1 0 
4 0 20 0 0 0.70710678118654779 0.70710678118654735 0.57735026918962595 -0.57735026918962562 0.57735026918962595 0.81649658092772603 0.40824829046386307 -0.40824829046386329 0.5
4 0 0 0 0 0.70710678118654746 -0.70710678118654746 0.57735026918962573 0.57735026918962584 0.57735026918962584 0.81649658092772615 -0.40824829046386302 -0.40824829046386302 0.5
10 1.5707963267948966 3.1415926535897931 0 20
2 0 20 0 1 0 0 0 1.1102230246251565e-16 1 0 1 -1.1102230246251565e-16 0.5
10 1.5707963267948966 3.1415926535897931 0 20
2 20 0 0 0 1 0 -1 0 -1.1102230246251565e-16 1.1102230246251565e-16 0 -1 0.5
10 1.5707963267948966 3.1415926535897931 0 20
2 0 0 0 1 0 0 0 -1.1102230246251565e-16 1 0 -1 -1.1102230246251565e-16 0.5
1 0 -0.5 0 -0 1 0 0 0 1 1 0 -0 
4 20 0 0 -0.70710678118654779 -0 -0.70710678118654735 -0.57735026918962562 0.57735026918962595 0.57735026918962595 0.40824829046386307 0.81649658092772603 -0.40824829046386329 0.5
10 1.5707963267948966 3.1415926535897931 0 5
2 20 0 0 0 0 1 -1 -1.1102230246251565e-16 0 1.1102230246251565e-16 -1 0 0.5
10 1.5707963267948966 3.1415926535897931 0 20
2 0 0 5 1 0 0 0 -1.1102230246251565e-16 -1 0 -1 1.1102230246251565e-16 0.5
4 20 0 5 0.70710678118654746 0 -0.70710678118654746 -0.57735026918962573 0.57735026918962595 -0.57735026918962573 0.40824829046386313 0.81649658092772592 0.40824829046386313 0.5
10 1.5707963267948966 3.1415926535897931 0 20
2 20 0 5 0 1 0 -1 0 1.1102230246251565e-16 1.1102230246251565e-16 0 1 0.5
1 20.5 0 0 1 0 -0 0 0 1 0 -1 0 
10 1.5707963267948966 3.1415926535897931 0 5
2 20.000000000000004 20 0 0 0 1 -1 1.1102230246251565e-16 0 1.1102230246251565e-16 1 0 0.5
4 20 20 5 0.70710678118654746 -0.70710678118654746 0 -0.57735026918962584 -0.57735026918962584 -0.57735026918962584 0.40824829046386302 0.40824829046386302 -0.81649658092772603 0.5
10 1.5707963267948966 3.1415926535897931 0 20
2 0 20 5 1 0 0 0 -1 1.1102230246251565e-16 0 1.1102230246251565e-16 1 0.5
1 0 20.5 0 -0 1 0 0 0 1 1 0 -0 
4 20 20 0 0.70710678118654169 -0 0.70710678118655323 -0.57735026918963206 -0.5773502691896224 0.57735026918962273 0.40824829046386407 -0.81649658092772848 -0.40824829046385736 0.5
2 10 10 5 -0 -0 -1 1 0 0 0 1 0 7.5710678118654755
10 0 6.2831853071795862 0 1.5707963267948966
5 10 10 6 0 0 1 1 0 0 0 1 0 7.0710678118654755 0.5
1 0 0 0.5 0 0 1 1 0 -0 -0 1 0 
Triangulations 0

TShapes 141
Ve
1e-06
-0.5 0 5
0 0

0101101
*
Ve
1e-06
-0.5 20 5
0 0

0101101
*
Ed
 1e-07 1 1 0
2  1 2 0 0 20
1  1 0 0 20
2  2 1 0 0 20
4 G1 1 0 2 0
0

0101000
+141 0 -140 0 *
Ve
0.001
0 0 5.5
0 0

0101101
*
Ve
0.001
0 20 5.5
0 0

0101101
*
Ed
 0.001 1 1 0
2  3 3 0 0 20
1  2 0 0 20
2  4 1 0 0 20
4 G1 1 0 3 0
0

0101000
+138 0 -137 0 *
Ed
 1e-06 1 1 0
2  5 1 0 1.5707963267949 3.14159265358979
1  3 0 1.5707963267949 3.14159265358979
2  6 4 0 1.5707963267949 3.14159265358979
4 G1 1 0 4 0
0

0101000
+140 0 -137 0 *
Ed
 1e-06 1 1 0
2  7 1 0 1.5707963267949 3.14159265358979
1  4 0 1.5707963267949 3.14159265358979
2  8 5 0 1.5707963267949 3.14159265358979
4 G1 1 0 5 0
0

0101000
+141 0 -138 0 *
Wi

0101000
-139 0 +136 0 -135 0 +134 0 *
Fa
0  1e-07 1 0

0111000
+133 0 *
Ve
1e-06
-0.5 0 0
0 0

0101101
*
Ed
 1e-07 1 1 0
2  9 2 0 0 5
1  5 0 0 5
2  10 6 0 0 5
4 G1 2 0 6 0
0

0101000
+131 0 -141 0 *
Ve
1e-06
-0.5 20 0
0 0

0101101
*
Ed
 1e-07 1 1 0
2  11 2 0 0 5
1  6 0 0 5
2  12 7 0 0 5
4 G1 2 0 7 0
0

0101000
+129 0 -140 0 *
Ed
 1e-07 1 1 0
2  13 2 0 0 20
1  7 0 0 20
2  14 8 0 0 20
4 G1 8 0 2 0
0

0101000
+131 0 -129 0 *
Wi

0101000
-130 0 -139 0 +128 0 +127 0 *
Fa
0  1e-07 2 0

0111000
+126 0 *
Ve
1e-06
0 0 -0.5
0 0

0101101
*
Ve
1e-06
0 20 -0.5
0 0

0101101
*
Ed
 1e-07 1 1 0
2  15 9 0 0 20
1  8 0 0 20
2  16 8 0 0 20
4 G1 8 0 9 0
0

0101000
+124 0 -123 0 *
Ed
 1e-06 1 1 0
2  17 8 0 1.5707963267949 3.14159265358979
1  9 0 1.5707963267949 3.14159265358979
2  18 10 0 1.5707963267949 3.14159265358979
4 G1 8 0 10 0
0

0101000
+129 0 -123 0 *
Ed
 1e-06 1 1 0
2  19 8 0 1.5707963267949 3.14159265358979
1  10 0 1.5707963267949 3.14159265358979
2  20 11 0 1.5707963267949 3.14159265358979
4 G1 8 0 11 0
0

0101000
+131 0 -124 0 *
Wi

0101000
-127 0 +122 0 -121 0 +120 0 *
Fa
0  1e-07 8 0

0111000
+119 0 *
Ve
1e-06
20 20 -0.5
0 0

0101101
*
Ed
 1e-07 1 1 0
2  21 9 0 0 20
1  11 0 0 20
2  22 12 0 0 20
4 G1 9 0 12 0
0

0101000
+123 0 -117 0 *
Ve
1e-06
20 0 -0.5
0 0

0101101
*
Ed
 1e-07 1 1 0
2  23 9 0 0 20
1  12 0 0 20
2  24 13 0 0 20
4 G1 9 0 13 0
0

0101000
+115 0 -117 0 *
Ed
 1e-07 1 1 0
2  25 9 0 0 20
1  13 0 0 20
2  26 14 0 0 20
4 G1 9 0 14 0
0

0101000
+124 0 -115 0 *
Wi

0101000
-122 0 -116 0 +114 0 +113 0 *
Fa
0  1e-07 9 0

0111000
+112 0 *
Ve
1e-06
0 -0.5 0
0 0

0101101
*
Ve
1e-06
20 -0.5 0
0 0

0101101
*
Ed
 1e-07 1 1 0
2  27 15 0 0 20
1  14 0 0 20
2  28 14 0 0 20
4 G1 14 0 15 0
0

0101000
+110 0 -109 0 *
Ed
 1e-06 1 1 0
2  29 14 0 1.5707963267949 3.14159265358979
1  15 0 1.5707963267949 3.14159265358979
2  30 16 0 1.5707963267949 3.14159265358979
4 G1 14 0 16 0
0

0101000
+109 0 -115 0 *
Ed
 1e-06 1 1 0
2  31 14 0 1.5707963267949 3.14159265358979
1  16 0 1.5707963267949 3.14159265358979
2  32 11 0 1.5707963267949 3.14159265358979
4 G1 14 0 11 0
0

0101000
+110 0 -124 0 *
Wi

0101000
-108 0 +113 0 -107 0 +106 0 *
Fa
0  1e-07 14 0

0111000
+105 0 *
Ve
1e-06
20 -0.5 5
0 0

0101101
*
Ed
 1e-07 1 1 0
2  33 15 0 0 5
1  17 0 0 5
2  34 17 0 0 5
4 G1 17 0 15 0
0

0101000
+109 0 -103 0 *
Ve
1e-06
0 -0.5 5
0 0

0101101
*
Ed
 1e-07 1 1 0
2  35 15 0 0 20
1  18 0 0 20
2  36 18 0 0 20
4 G1 18 0 15 0
0

0101000
+101 0 -103 0 *
Ed
 1e-07 1 1 0
2  37 15 0 0 5
1  19 0 0 5
2  38 6 0 0 5
4 G1 15 0 6 0
0

0101000
+110 0 -101 0 *
Wi

0101000
-108 0 -102 0 +100 0 +99 0 *
Fa
0  1e-07 15 0

0111000
+98 0 *
Ve
1e-06
20.5 0 5
0 0

0101101
*
Ed
 1e-06 1 1 0
2  39 17 0 1.5707963267949 3.14159265358979
1  20 0 1.5707963267949 3.14159265358979
2  40 19 0 1.5707963267949 3.14159265358979
4 G1 19 0 17 0
0

0101000
+103 0 -96 0 *
Ve
0.001
20 0 5.5
0 0

0101101
*
Ed
 1e-06 1 1 0
2  41 18 0 1.5707963267949 3.14159265358979
1  21 0 1.5707963267949 3.14159265358979
2  42 19 0 1.5707963267949 3.14159265358979
4 G1 19 0 18 0
0

0101000
+103 0 -94 0 *
Ed
 1e-06 1 1 0
2  43 20 0 1.5707963267949 3.14159265358979
1  22 0 1.5707963267949 3.14159265358979
2  44 19 0 1.5707963267949 3.14159265358979
4 G1 19 0 20 0
0

0101000
+94 0 -96 0 *
Wi

0101000
+95 0 -93 0 -92 0 *
Fa
0  1e-07 19 0

0111000
+91 0 *
Ve
1e-06
20.5 0 0
0 0

0101101
*
Ed
 1e-07 1 1 0
2  45 21 0 0 5
1  23 0 0 5
2  46 17 0 0 5
4 G1 17 0 21 0
0

0101000
+89 0 -96 0 *
Ed
 1e-06 1 1 0
2  47 17 0 1.5707963267949 3.14159265358979
1  24 0 1.5707963267949 3.14159265358979
2  48 16 0 1.5707963267949 3.14159265358979
4 G1 17 0 16 0
0

0101000
+109 0 -89 0 *
Wi

0101000
-102 0 +88 0 -95 0 +87 0 *
Fa
0  1e-07 17 0

0111000
+86 0 *
Ve
1e-06
20.5 20 5
0 0

0101101
*
Ed
 1e-07 1 1 0
2  49 21 0 0 20
1  25 0 0 20
2  50 20 0 0 20
4 G1 21 0 20 0
0

0101000
+96 0 -84 0 *
Ve
1e-06
20.5 20 0
0 0

0101101
*
Ed
 1e-07 1 1 0
2  51 21 0 0 5
1  26 0 0 5
2  52 22 0 0 5
4 G1 21 0 22 0
0

0101000
+82 0 -84 0 *
Ed
 1e-07 1 1 0
2  53 21 0 0 20
1  27 0 0 20
2  54 13 0 0 20
4 G1 21 0 13 0
0

0101000
+89 0 -82 0 *
Wi

0101000
-88 0 -83 0 +81 0 +80 0 *
Fa
0  1e-07 21 0

0111000
+79 0 *
Ed
 0.001 1 1 0
2  55 3 0 0 20
1  28 0 0 20
2  56 18 0 0 20
4 G1 18 0 3 0
0

0101000
+138 0 -94 0 *
Ed
 1e-06 1 1 0
2  57 18 0 1.5707963267949 3.14159265358979
1  29 0 1.5707963267949 3.14159265358979
2  58 5 0 1.5707963267949 3.14159265358979
4 G1 18 0 5 0
0

0101000
+101 0 -138 0 *
Wi

0101000
-100 0 +77 0 -93 0 +76 0 *
Fa
0  1e-07 18 0

0111000
+75 0 *
Ed
 1e-06 1 1 0
2  59 6 0 1.5707963267949 3.14159265358979
1  30 0 1.5707963267949 3.14159265358979
2  60 11 0 1.5707963267949 3.14159265358979
4 G1 11 0 6 0
0

0101000
+131 0 -110 0 *
Wi

0101000
-73 0 +120 0 -106 0 *
Fa
0  1e-07 11 0

0111000
+72 0 *
Ve
0.001
20 20 5.5
0 0

0101101
*
Ed
 0.001 1 1 0
2  61 3 0 0 20
1  31 0 0 20
2  62 20 0 0 20
4 G1 20 0 3 0
0

0101000
+94 0 -70 0 *
Ed
 1e-06 1 1 0
2  63 20 0 1.5707963267949 3.14159265358979
1  32 0 1.5707963267949 3.14159265358979
2  64 23 0 1.5707963267949 3.14159265358979
4 G1 20 0 23 0
0

0101000
+70 0 -84 0 *
Wi

0101000
-69 0 +83 0 -68 0 +92 0 *
Fa
0  1e-07 20 0

0111000
+67 0 *
Ve
1e-06
0 20.5 0
0 0

0101101
*
Ed
 1e-06 1 1 0
2  65 7 0 1.5707963267949 3.14159265358979
1  33 0 1.5707963267949 3.14159265358979
2  66 10 0 1.5707963267949 3.14159265358979
4 G1 10 0 7 0
0

0101000
+129 0 -65 0 *
Ed
 1e-06 1 1 0
2  67 12 0 1.5707963267949 3.14159265358979
1  34 0 1.5707963267949 3.14159265358979
2  68 10 0 1.5707963267949 3.14159265358979
4 G1 10 0 12 0
0

0101000
+65 0 -123 0 *
Wi

0101000
+64 0 -121 0 +63 0 *
Fa
0  1e-07 10 0

0111000
+62 0 *
Ed
 1e-06 1 1 0
2  69 6 0 1.5707963267949 3.14159265358979
1  35 0 1.5707963267949 3.14159265358979
2  70 5 0 1.5707963267949 3.14159265358979
4 G1 5 0 6 0
0

0101000
+141 0 -101 0 *
Wi

0101000
+60 0 -134 0 +76 0 *
Fa
0  1e-07 5 0

0111000
+59 0 *
Ve
1e-06
0 20.5 5
0 0

0101101
*
Ed
 1e-06 1 1 0
2  71 7 0 1.5707963267949 3.14159265358979
1  36 0 1.5707963267949 3.14159265358979
2  72 4 0 1.5707963267949 3.14159265358979
4 G1 4 0 7 0
0

0101000
+140 0 -57 0 *
Ed
 1e-06 1 1 0
2  73 24 0 1.5707963267949 3.14159265358979
1  37 0 1.5707963267949 3.14159265358979
2  74 4 0 1.5707963267949 3.14159265358979
4 G1 24 0 4 0
0

0101000
+137 0 -57 0 *
Wi

0101000
+135 0 -56 0 +55 0 *
Fa
0  1e-07 4 0

0111000
+54 0 *
Ve
1e-06
20 20.5 0
0 0

0101101
*
Ed
 1e-07 1 1 0
2  75 25 0 0 20
1  38 0 0 20
2  76 12 0 0 20
4 G1 25 0 12 0
0

0101000
+65 0 -52 0 *
Ve
1e-06
20 20.5 5
0 0

0101101
*
Ed
 1e-07 1 1 0
2  77 25 0 0 5
1  39 0 0 5
2  78 22 0 0 5
4 G1 25 0 22 0
0

0101000
+52 0 -50 0 *
Ed
 1e-07 1 1 0
2  79 25 0 0 20
1  40 0 0 20
2  80 24 0 0 20
4 G1 25 0 24 0
0

0101000
+57 0 -50 0 *
Ed
 1e-07 1 1 0
2  81 25 0 0 5
1  41 0 0 5
2  82 7 0 0 5
4 G1 25 0 7 0
0

0101000
+65 0 -57 0 *
Wi

0101000
-51 0 -49 0 +48 0 +47 0 *
Fa
0  1e-07 25 0

0111000
+46 0 *
Ed
 0.001 1 1 0
2  83 3 0 0 20
1  42 0 0 20
2  84 24 0 0 20
4 G1 24 0 3 0
0

0101000
+137 0 -70 0 *
Ed
 1e-06 1 1 0
2  85 24 0 1.5707963267949 3.14159265358979
1  43 0 1.5707963267949 3.14159265358979
2  86 23 0 1.5707963267949 3.14159265358979
4 G1 24 0 23 0
0

0101000
+70 0 -50 0 *
Wi

0101000
-44 0 +48 0 -43 0 +55 0 *
Fa
0  1e-07 24 0

0111000
+42 0 *
Ed
 1e-06 1 1 0
2  87 22 0 1.5707963267949 3.14159265358979
1  44 0 1.5707963267949 3.14159265358979
2  88 23 0 1.5707963267949 3.14159265358979
4 G1 22 0 23 0
0

0101000
+50 0 -84 0 *
Ed
 1e-06 1 1 0
2  89 22 0 1.5707963267949 3.14159265358979
1  45 0 1.5707963267949 3.14159265358979
2  90 26 0 1.5707963267949 3.14159265358979
4 G1 22 0 26 0
0

0101000
+52 0 -82 0 *
Wi

0101000
-49 0 +81 0 -40 0 +39 0 *
Fa
0  1e-07 22 0

0111000
+38 0 *
Ed
 1e-06 1 1 0
2  91 12 0 1.5707963267949 3.14159265358979
1  46 0 1.5707963267949 3.14159265358979
2  92 26 0 1.5707963267949 3.14159265358979
4 G1 12 0 26 0
0

0101000
+52 0 -117 0 *
Wi

0101000
-51 0 +116 0 -36 0 +63 0 *
Fa
0  1e-07 12 0

0111000
+35 0 *
Wi

0101000
-130 0 +99 0 -60 0 +73 0 *
Fa
0  1e-07 6 0

0111000
+33 0 *
Wi

0101000
-128 0 +47 0 -56 0 +64 0 *
Fa
0  1e-07 7 0

0111000
+31 0 *
Wi

0101000
-43 0 +68 0 -40 0 *
Fa
0  1e-07 23 0

0111000
+29 0 *
Ed
 1e-06 1 1 0
2  93 13 0 1.5707963267949 3.14159265358979
1  47 0 1.5707963267949 3.14159265358979
2  94 16 0 1.5707963267949 3.14159265358979
4 G1 16 0 13 0
0

0101000
+115 0 -89 0 *
Wi

0101000
+107 0 -87 0 +27 0 *
Fa
0  1e-07 16 0

0111000
+26 0 *
Wi

0101100
-136 0 +77 0 +69 0 -44 0 *
Ve
0.001
17.5710678118655 10 5.5
0 0

0101101
*
Ed
 0.001 1 1 0
1  48 0 0 6.28318530717959
2  95 27 0 0 6.28318530717959
2  96 3 0 0 6.28318530717959
0

0101000
+23 0 -23 0 *
Wi

0101100
+22 0 *
Fa
0  1e-07 3 0

0101000
+24 0 +21 0 *
Ve
0.001
17.5710678118655 10 6
0 0

0101101
*
Ed
 0.001 1 1 0
1  49 0 0.5 1
3  97 98CN 27 0 0.5 1
0

0101000
+23 0 -19 0 *
Ed
 0.001 1 1 0
2  99 27 0 0 6.28318530717959
1  50 0 0 6.28318530717959
2  100 28 0 0 6.28318530717959
4 G1 27 0 28 0
0

0101000
+19 0 -19 0 *
Wi

0101100
-18 0 +22 0 +18 0 +17 0 *
Fa
0  1e-07 27 0

0101000
+16 0 *
Ve
1e-06
17.0710678118655 10 6.5
0 0

0101101
*
Ed
 1e-07 1 1 0
2  101 29 4 0 6.28318530717959
1  51 4 0 6.28318530717959
2  102 28 0 0 6.28318530717959
4 G1 29 4 28 0
0

0101000
+14 0 -14 0 *
Ed
 1e-06 1 1 0
3  103 104C0 28 0 0 1.5707963267949
1  52 0 0 1.5707963267949
0

0101000
+19 0 -14 0 *
Wi

0101000
-17 0 +13 0 -12 0 +12 0 *
Fa
0  1e-07 28 0

0111000
-11 0 *
Wi

0101000
+13 0 *
Fa
0  1e-07 29 4

0111000
+9 0 *
Ed
 1e-06 1 1 0
2  105 13 0 1.5707963267949 3.14159265358979
1  53 0 1.5707963267949 3.14159265358979
2  106 26 0 1.5707963267949 3.14159265358979
4 G1 13 0 26 0
0

0101000
+117 0 -82 0 *
Wi

0101000
-114 0 +80 0 -7 0 +27 0 *
Fa
0  1e-07 13 0

0111000
+6 0 *
Wi

0101000
-36 0 +39 0 -7 0 *
Fa
0  1e-07 26 0

0111000
+4 0 *
Sh

0101100
+132 0 -125 0 -118 0 -111 0 +104 0 -97 0 +90 0 +85 0 +78 0 -74 0 
+71 0 +66 0 +61 0 +58 0 +53 0 +45 0 -41 0 -37 0 -34 0 +32 0 
-30 0 +28 0 +25 0 +20 0 -15 0 +10 0 +8 0 -5 0 +3 0 *
So

1100100
+2 0 *

+1 1  