
CASCADE Topology V1, (c) Matra-Datavision
Locations 1
1
              1               0               0               0 
              0               1               0               0 
              0               0               1               0 
Curve2ds 96
1 0 0 1 0 
1 1.5707963267948966 0 0 1 
1 0 10 1 0 
1 3.1415926535897931 0 0 1 
1 0 10 1 0 
7 0 0  7 20 4  4.0969092717143027 0  4.0175720763900467 -0.07933719532425669  3.9382338891301742 -0.15867405707206217  3.8572712513910119 -0.23719751354829555  3.7730237211026179 -0.31408266079952796  3.6837629884919352 -0.38838822498645698  3.5872124901429276 -0.45882022687564805  3.4285380994944141 -0.55598804995962425  3.3733385351654852 -0.58696417112678356  3.3155906740568355 -0.61630457999822652  3.255073568639582 -0.6437596477395624  3.1916279376272447 -0.66904607136144822  3.1252184299123047 -0.69186009659513859  2.9868130394243644 -0.73196103953625613  2.9148166734118957 -0.74924761598624579  2.8401957037635595 -0.7634820355610421  2.763310393984292 -0.77438180284883329  2.6847869902314039 -0.78172686011811676  2.6054501402436645 -0.78539816339744972  2.526112944919408 -0.78539816339744972 
 1.5707963267948966 8 2.3561944901923444 6 2.7488935718910663 6 3.1415926535897931 8
1 0 0 1 0 
7 0 0  7 20 4  4.0969092717143019 3.5206820122414069e-17  4.0175720763900458 0.079337195324256579  3.9382338891292648 0.15867405707209059  3.8572712513937404 0.23719751354826712  3.7730237210980704 0.31408266079955638  3.6837629884926173 0.38838822498642855  3.5872124901429236 0.45882022687564805  3.4285380994944106 0.55598804995962392  3.3733385351655047 0.58696417112675803  3.3155906740569128 0.61630457999824373  3.2550735686396592 0.64375964773958572  3.1916279376272647 0.66904607136143235  3.1252184299123025 0.6918600965951367  2.9868130394243622 0.73196103953625424  2.9148166734118952 0.74924761598623513  2.8401957037635919 0.76348203556104421  2.763310393984288 0.77438180284883218  2.6847869902313426 0.78172686011810122  2.6054501402436623 0.78539816339744806  2.5261129449194066 0.78539816339744806 
 1.5707963267948966 8 2.3561944901923493 6 2.7488935718910716 6 3.1415926535897931 8
1 10 0 0 -1 
1 1.5707963267948966 0 0 1 
1 0 -10 1 0 
1 1.5707963267948966 0 0 1 
1 0 0 0 -1 
1 1.5707963267948966 0 0 1 
1 10 0 0 -1 
1 1.5707963267948966 0 0 1 
1 0 0 0 1 
1 3.1415926535897931 0 0 1 
1 0 10 1 0 
7 0 0  7 20 4  4.0969092717143036 0  4.0175720763900467 0.079337195324256385  3.9382338891299469 0.1586740570721048  3.8572712513932856 0.23719751354818186  3.7730237211003441 0.31408266079955638  3.6837629884919352 0.38838822498638592  3.5872124901429223 0.45882022687564689  3.4285380994944097 0.55598804995962248  3.3733385351654031 0.5869641711267779  3.3155906740569168 0.61630457999823152  3.2550735686396388 0.6437596477395674  3.1916279376271226 0.66904607136144201  3.1252184299123025 0.69186009659513481  2.9868130394243622 0.73196103953625191  2.9148166734118952 0.74924761598622436  2.8401957037635595 0.76348203556104621  2.76331039398428 0.77438180284883729  2.6847869902313835 0.78172686011809545  2.6054501402436641 0.78539816339744584  2.5261129449194075 0.78539816339744584 
 1.5707963267948966 8 2.3561944901923475 6 2.7488935718910708 6 3.1415926535897931 8
1 0 0 1 0 
7 0 0  7 20 4  4.0969092717143019 0  4.0175720763900458 -0.079337195324256565  3.9382338891298332 -0.15867405707204796  3.8572712513919214 -0.2371975135484945  3.7730237211017084 -0.31408266079947111  3.6837629884919352 -0.38838822498644276  3.5872124901429232 -0.45882022687564805  3.4285380994944101 -0.55598804995962392  3.3733385351655047 -0.58696417112677834  3.3155906740568151 -0.61630457999822341  3.255073568639562 -0.6437596477395654  3.1916279376272647 -0.66904607136145278  3.125218429912302 -0.69186009659513714  2.9868130394243617 -0.73196103953625458  2.9148166734118952 -0.74924761598625556  2.8401957037634946 -0.763482035561032  2.7633103939842028 -0.77438180284882008  2.684786990231363 -0.78172686011812176  2.6054501402436618 -0.78539816339744861  2.5261129449194049 -0.78539816339744861 
 1.5707963267948966 8 2.3561944901923453 6 2.7488935718910694 6 3.1415926535897931 8
1 0 10 1 0 
1 3.1415926535897931 0 0 1 
1 10 0 0 1 
1 3.1415926535897931 0 0 1 
1 0 0 1 0 
1 3.1415926535897931 0 0 1 
1 0 10 1 0 
7 0 0  7 20 4  4.0969092717143027 -1.7763568394002485e-15  4.0175720763900467 -0.0793371953242583  3.9382338891298332 -0.1586740570719769  3.8572712513923761 -0.23719751354852292  3.7730237211012536 -0.31408266079930058  3.6837629884919352 -0.38838822498651382  3.5872124901429245 -0.45882022687564772  3.428538099494411 -0.55598804995962359  3.3733385351654239 -0.58696417112678334  3.3155906740568963 -0.61630457999824273  3.2550735686396308 -0.64375964773957861  3.1916279376271635 -0.66904607136144789  3.1252184299123038 -0.69186009659513747  2.9868130394243635 -0.73196103953625469  2.9148166734119161 -0.74924761598625056  2.840195703763539 -0.76348203556103711  2.7633103939842596 -0.77438180284882818  2.6847869902314039 -0.78172686011812131  2.6054501402436654 -0.78539816339744684  2.5261129449194084 -0.78539816339744684 
 1.5707963267948966 8 2.3561944901923377 6 2.7488935718910681 6 3.1415926535897931 8
1 0 0 1 0 
7 0 0  7 20 4  4.0969092717143027 8.8817841970012365e-16  4.0175720763900458 0.079337195324257287  3.9382338891298332 0.15867405707217586  3.8572712513905572 0.23719751354798291  3.7730237211012536 0.3140826607998406  3.6837629884919352 0.3883882249863575  3.5872124901429241 0.458820226875648  3.4285380994944106 0.55598804995962381  3.3733385351655047 0.58696417112676313  3.3155906740568151 0.61630457999824684  3.255073568639562 0.64375964773958572  3.1916279376272647 0.66904607136143224  3.1252184299123025 0.69186009659513614  2.9868130394243622 0.73196103953625336  2.9148166734119356 0.74924761598624001  2.840195703763519 0.763482035561031  2.7633103939842392 0.77438180284881908  2.6847869902314239 0.78172686011810577  2.6054501402436636 0.78539816339744639  2.5261129449194066 0.78539816339744639 
 1.5707963267948966 8 2.3561944901923448 6 2.7488935718910685 6 3.1415926535897931 8
1 10 0 0 1 
1 1.5707963267948966 0 0 1 
1 0 10 1 0 
1 2.526112944919408 -2.3561944901923466 -0 1 
1 0 0 1 0 
1 2.5261129449194044 2.3561944901923444 0 -1 
1 0 10 1 0 
1 3.1415926535897931 0 0 1 
1 0 10 1 0 
7 0 0  7 20 4  4.0969092717143027 1.7763568394002485e-15  4.0175720763900467 0.0793371953242583  3.9382338891300606 0.15867405707206217  3.8572712513919214 0.23719751354840923  3.7730237211017084 0.31408266079949954  3.6837629884917078 0.38838822498641434  3.5872124901429259 0.45882022687564927  3.4285380994944132 0.55598804995962514  3.3733385351655056 0.58696417112676347  3.3155906740568151 0.61630457999823862  3.255073568639562 0.64375964773958061  3.1916279376272647 0.66904607136143768  3.1252184299123038 0.69186009659513747  2.9868130394243635 0.73196103953625469  2.9148166734118957 0.74924761598625056  2.840195703763527 0.76348203556103711  2.7633103939842476 0.77438180284882818  2.6847869902313835 0.78172686011812131  2.6054501402436654 0.78539816339744684  2.5261129449194084 0.78539816339744684 
 1.5707963267948966 8 2.3561944901923502 6 2.7488935718910743 6 3.1415926535897931 8
1 0 0 1 0 
7 0 0  7 20 4  4.096909271714301 -8.8817841970012326e-16  4.017572076390044 -0.079337195324257287  3.9382338891301742 -0.15867405707216165  3.8572712513923761 -0.23719751354815344  3.7730237211003441 -0.31408266079975533  3.6837629884919352 -0.38838822498634329  3.5872124901429232 -0.45882022687564727  3.4285380994944101 -0.55598804995962292  3.3733385351655047 -0.58696417112676791  3.3155906740568151 -0.61630457999822552  3.255073568639562 -0.6437596477395674  3.1916279376272647 -0.66904607136144201  3.1252184299123025 -0.69186009659513492  2.9868130394243622 -0.73196103953625224  2.914816673411956 -0.74924761598623957  2.840195703763531 -0.76348203556103911  2.7633103939842392 -0.77438180284883018  2.6847869902314239 -0.78172686011811066  2.6054501402436645 -0.78539816339744539  2.526112944919408 -0.78539816339744539 
 1.5707963267948966 8 2.3561944901923448 6 2.748893571891069 6 3.1415926535897931 8
1 0 0 0 1 
1 1.5707963267948966 0 0 1 
1 10 0 0 1 
1 1.5707963267948966 0 0 1 
1 0 0 1 0 
1 3.1415926535897931 0 0 1 
1 0 -10 1 0 
1 1.5707963267948966 0 0 1 
1 0 10 1 0 
7 0 0  7 20 4  4.0969092717143036 0  4.0175720763900475 -0.079337195324256704  3.9382338891296058 -0.15867405707207638  3.8572712513923761 -0.23719751354829555  3.7730237211012536 -0.3140826607995848  3.6837629884921625 -0.38838822498641434  3.5872124901429245 -0.45882022687565038  3.428538099494411 -0.55598804995962647  3.3733385351654648 -0.58696417112677912  3.3155906740568883 -0.61630457999823152  3.2550735686396228 -0.64375964773957051  3.1916279376272039 -0.66904607136144811  3.1252184299123047 -0.69186009659513847  2.9868130394243644 -0.73196103953625613  2.9148166734118552 -0.74924761598625089  2.8401957037635026 -0.76348203556104521  2.7633103939842352 -0.77438180284883329  2.6847869902313621 -0.78172686011811721  2.6054501402436618 -0.78539816339745083  2.5261129449194049 -0.78539816339745072 
 1.5707963267948966 8 2.3561944901923324 6 2.7488935718910605 6 3.1415926535897931 8
1 0 0 1 0 
7 0 0  7 20 4  4.0969092717143019 0  4.0175720763900458 0.079337195324256565  3.9382338891298332 0.15867405707204796  3.8572712513919214 0.2371975135484945  3.7730237211017084 0.31408266079947111  3.6837629884919352 0.38838822498644276  3.5872124901429232 0.45882022687564805  3.4285380994944101 0.55598804995962392  3.3733385351655047 0.58696417112677834  3.3155906740568151 0.61630457999822341  3.255073568639562 0.6437596477395654  3.1916279376272647 0.66904607136145278  3.125218429912302 0.69186009659513714  2.9868130394243617 0.73196103953625458  2.9148166734118952 0.74924761598625556  2.8401957037634946 0.763482035561032  2.7633103939842028 0.77438180284882008  2.684786990231363 0.78172686011812176  2.6054501402436618 0.78539816339744861  2.5261129449194049 0.78539816339744861 
 1.5707963267948966 8 2.3561944901923453 6 2.7488935718910694 6 3.1415926535897931 8
1 0 10 1 0 
1 3.1415926535897931 0 0 1 
1 0 10 1 0 
1 2.526112944919408 -2.3561944901923431 -0 1 
1 0 0 1 0 
1 2.5261129449194044 2.3561944901923448 0 -1 
1 0 0 0 1 
1 3.1415926535897931 0 0 1 
1 10 0 0 1 
1 3.1415926535897931 0 0 1 
1 0 0 1 0 
1 3.1415926535897931 0 0 1 
1 0 0 0 1 
1 1.5707963267948966 0 0 1 
1 0 10 1 0 
1 2.5261129449194062 2.3561944901923448 0 -1 
1 0 0 1 0 
1 2.5261129449194062 -2.3561944901923448 -0 1 
1 0 10 1 0 
7 0 0  7 20 4  4.0969092717143027 0  4.0175720763900467 0.07933719532425669  3.9382338891296058 0.15867405707200533  3.8572712513910119 0.23719751354843766  3.7730237211003441 0.31408266079935743  3.6837629884921625 0.3883882249864854  3.5872124901429268 0.45882022687564827  3.4285380994944137 0.5559880499596247  3.3733385351655261 0.58696417112677857  3.3155906740568275 0.61630457999823152  3.255073568639562 0.64375964773957051  3.1916279376272647 0.66904607136144789  3.1252184299123047 0.69186009659513747  2.9868130394243644 0.73196103953625502  2.9148166734119769 0.74924761598624046  2.8401957037635106 0.76348203556104721  2.7633103939842192 0.77438180284883218  2.6847869902314443 0.781726860118102  2.6054501402436636 0.78539816339745039  2.5261129449194066 0.78539816339745039 
 1.5707963267948966 8 2.3561944901923422 6 2.7488935718910654 6 3.1415926535897931 8
1 0 0 1 0 
7 0 0  7 20 4  4.0969092717143019 -3.5206820122414069e-17  4.0175720763900458 -0.079337195324256579  3.9382338891292648 -0.15867405707209059  3.8572712513937404 -0.23719751354826712  3.7730237210980704 -0.31408266079955638  3.6837629884926173 -0.38838822498642855  3.5872124901429236 -0.45882022687564805  3.4285380994944106 -0.55598804995962392  3.3733385351655047 -0.58696417112675803  3.3155906740569128 -0.61630457999824373  3.2550735686396592 -0.64375964773958572  3.1916279376272647 -0.66904607136143235  3.1252184299123025 -0.6918600965951367  2.9868130394243622 -0.73196103953625424  2.9148166734118952 -0.74924761598623513  2.8401957037635919 -0.76348203556104421  2.763310393984288 -0.77438180284883218  2.6847869902313426 -0.78172686011810122  2.6054501402436623 -0.78539816339744806  2.5261129449194066 -0.78539816339744806 
 1.5707963267948966 8 2.3561944901923493 6 2.7488935718910716 6 3.1415926535897931 8
1 0 0 1 0 
1 3.1415926535897931 0 0 1 
1 0 0 1 0 
1 1.5707963267948966 0 0 1 
1 0 10 1 0 
7 0 0  7 20 4  4.0969092717143019 0  4.0175720763900449 0.079337195324256524  3.9382338891296058 0.15867405707207638  3.8572712513937404 0.23719751354832397  3.7730237210998894 0.31408266079952796  3.6837629884921625 0.38838822498642855  3.5872124901429232 0.45882022687564811  3.4285380994944101 0.55598804995962392  3.3733385351655047 0.58696417112676813  3.3155906740568151 0.61630457999824984  3.255073568639562 0.64375964773958871  3.1916279376272647 0.66904607136143746  3.1252184299123025 0.69186009659513659  2.9868130394243622 0.73196103953625413  2.9148166734118952 0.74924761598624023  2.8401957037634946 0.76348203556103911  2.7633103939842028 0.77438180284883018  2.684786990231363 0.7817268601181111  2.6054501402436623 0.78539816339744761  2.5261129449194066 0.78539816339744761 
 1.5707963267948966 8 2.3561944901923453 6 2.7488935718910694 6 3.1415926535897931 8
1 0 0 1 0 
7 0 0  7 20 4  4.0969092717143027 -3.5206820122414088e-17  4.0175720763900467 -0.079337195324256579  3.9382338891298332 -0.15867405707211901  3.8572712513919214 -0.23719751354832397  3.7730237211017084 -0.31408266079961322  3.6837629884919352 -0.38838822498641434  3.5872124901429236 -0.45882022687564827  3.4285380994944106 -0.55598804995962425  3.3733385351654639 -0.58696417112676325  3.3155906740569208 -0.61630457999823862  3.2550735686396672 -0.64375964773957761  3.1916279376272243 -0.66904607136143246  3.1252184299123025 -0.69186009659513703  2.9868130394243622 -0.73196103953625435  2.9148166734119156 -0.74924761598622502  2.8401957037635719 -0.76348203556106242  2.76331039398428 -0.7743818028488535  2.6847869902313835 -0.78172686011809611  2.6054501402436618 -0.78539816339744828  2.5261129449194057 -0.78539816339744828 
 1.5707963267948966 8 2.3561944901923493 6 2.7488935718910712 6 3.1415926535897931 8
1 0 10 1 0 
1 2.526112944919408 2.3561944901923448 0 -1 
1 0 0 1 0 
1 2.5261129449194062 -2.3561944901923466 -0 1 
1 0 0 1 0 
7 0 0  7 20 4  4.0969092717143027 3.5206820122414088e-17  4.0175720763900467 0.079337195324256579  3.9382338891298332 0.15867405707211901  3.8572712513919214 0.23719751354832397  3.7730237211017084 0.31408266079961322  3.6837629884919352 0.38838822498641434  3.5872124901429236 0.45882022687564827  3.4285380994944106 0.55598804995962425  3.3733385351654639 0.58696417112676325  3.3155906740569208 0.61630457999823862  3.2550735686396672 0.64375964773957761  3.1916279376272243 0.66904607136143246  3.1252184299123025 0.69186009659513703  2.9868130394243622 0.73196103953625435  2.9148166734119156 0.74924761598622502  2.8401957037635719 0.76348203556106242  2.76331039398428 0.7743818028488535  2.6847869902313835 0.78172686011809611  2.6054501402436618 0.78539816339744828  2.5261129449194057 0.78539816339744828 
 1.5707963267948966 8 2.3561944901923493 6 2.7488935718910712 6 3.1415926535897931 8
1 0 10 1 0 
7 0 0  7 20 4  4.0969092717143019 0  4.0175720763900449 -0.079337195324256524  3.9382338891296058 -0.15867405707207638  3.8572712513937404 -0.23719751354840923  3.7730237210998894 -0.31408266079955638  3.6837629884921625 -0.38838822498644276  3.5872124901429232 -0.45882022687564811  3.4285380994944101 -0.55598804995962392  3.3733385351654843 -0.58696417112677324  3.3155906740568355 -0.61630457999823662  3.25507356863957 -0.64375964773957861  3.1916279376272243 -0.66904607136144756  3.1252184299123025 -0.69186009659513659  2.9868130394243622 -0.73196103953625413  2.9148166734118952 -0.74924761598624023  2.8401957037634946 -0.76348203556104721  2.7633103939842028 -0.77438180284883529  2.684786990231363 -0.7817268601181061  2.6054501402436623 -0.78539816339744761  2.5261129449194066 -0.78539816339744761 
 1.5707963267948966 8 2.3561944901923453 6 2.7488935718910694 6 3.1415926535897931 8
1 0 0 0 -1 
1 1.5707963267948966 0 0 1 
Curves 48
1 11 0 0 0 0 1 
1 10 -1 0 0 0 1 
2 10 0 10 0 0 -1 1.1102230246251565e-16 1 0 1 -1.1102230246251565e-16 0 1
2 10 0 0 0 0 -1 1.1102230246251565e-16 1 0 1 -1.1102230246251565e-16 0 1
1 11 0 10 0 1 0 
1 11 10 0 0 0 1 
1 11 0 0 0 1 0 
1 -1 0 10 0 1 0 
1 0 0 11 0 1 0 
2 0 10 10 0 1 0 -1.1102230246251565e-16 0 -1 -1 0 1.1102230246251565e-16 1
2 0 0 10 0 1 0 -1.1102230246251565e-16 0 -1 -1 0 1.1102230246251565e-16 1
1 0 10 11 1 0 0 
1 10 0 11 0 1 0 
1 0 0 11 1 0 0 
2 10 10 10.000000000000002 0 -1 0 1.1102230246251565e-16 0 -1 1 0 1.1102230246251565e-16 1
2 10 0 10.000000000000002 0 -1 0 1.1102230246251565e-16 0 -1 1 0 1.1102230246251565e-16 1
1 0 -1 10 1 0 0 
2 10 0 10 -1 -0 0 0 -1.1102230246251565e-16 -1 0 -1 1.1102230246251565e-16 1
2 0 0 10 -1 -0 0 0 -1.1102230246251565e-16 -1 0 -1 1.1102230246251565e-16 1
1 10 11 0 0 0 1 
2 10 10.000000000000002 10 -0 0 1 1.1102230246251565e-16 -1 0 1 1.1102230246251565e-16 0 1
2 10 10.000000000000002 0 -0 0 1 1.1102230246251565e-16 -1 0 1 1.1102230246251565e-16 0 1
1 0 11 0 1 0 0 
1 0 11 10 1 0 0 
1 0 11 0 0 0 1 
1 -1 10 0 0 0 1 
2 0 10 10 -0 0 -1 -1.1102230246251565e-16 -1 0 -1 1.1102230246251565e-16 0 1
2 0 10 0 -0 0 -1 -1.1102230246251565e-16 -1 0 -1 1.1102230246251565e-16 0 1
1 0 10 -1 1 0 0 
2 10 10 0 -1 0 0 0 1.1102230246251565e-16 1 0 1 -1.1102230246251565e-16 1
2 0 10 0 -1 0 0 0 1.1102230246251565e-16 1 0 1 -1.1102230246251565e-16 1
1 0 0 -1 0 1 0 
1 10 0 -1 0 1 0 
1 0 0 -1 1 0 0 
1 0 -1 0 1 0 0 
2 10 0 0 1 0 0 0 -1.1102230246251565e-16 1 0 -1 -1.1102230246251565e-16 1
2 0 0 0 1 0 0 0 -1.1102230246251565e-16 1 0 -1 -1.1102230246251565e-16 1
2 10 10 0 -0 1 0 1.1102230246251565e-16 0 1 1 0 -1.1102230246251565e-16 1
2 10 0 0 -0 1 0 1.1102230246251565e-16 0 1 1 0 -1.1102230246251565e-16 1
1 0 -1 0 0 0 1 
1 -1 0 0 0 0 1 
2 0 0 10 0 0 1 -1.1102230246251565e-16 1 0 -1 -1.1102230246251565e-16 0 1
2 0 0 0 0 0 1 -1.1102230246251565e-16 1 0 -1 -1.1102230246251565e-16 0 1
2 10 10 10.000000000000002 1 -0 0 0 1.1102230246251565e-16 -1 0 1 1.1102230246251565e-16 1
2 0 10 10.000000000000002 1 -0 0 0 1.1102230246251565e-16 -1 0 1 1.1102230246251565e-16 1
2 0 0 0 -0 -1 0 -1.1102230246251565e-16 0 1 -1 0 -1.1102230246251565e-16 1
2 0 10 0 -0 -1 0 -1.1102230246251565e-16 0 1 -1 0 -1.1102230246251565e-16 1
1 -1 0 0 0 1 0 
Polygon3D 0
PolygonOnTriangulations 0
Surfaces 26
10 1.5707963267948966 3.1415926535897931 0 10
2 10 0 0 0 0 1 1.1102230246251565e-16 1 0 1 -1.1102230246251565e-16 0 1
1 11 0 0 1 0 -0 0 0 1 0 -1 0 
1 0 -1 0 -0 1 0 0 0 1 1 0 -0 
4 10 0 10 -0 0.70710678118654879 0.70710678118654613 -0.57735026918962495 0.57735026918962518 -0.5773502691896274 -0.8164965809277267 -0.40824829046386163 0.40824829046386318 1
4 10 0 0 0 -0.70710678118654746 0.70710678118654746 -0.57735026918962551 0.57735026918962584 0.57735026918962584 -0.81649658092772626 -0.40824829046386291 -0.40824829046386291 1
10 1.5707963267948966 3.1415926535897931 0 10
2 10 0 10.000000000000002 0 1 0 1.1102230246251565e-16 0 -1 1 0 1.1102230246251565e-16 1
10 1.5707963267948966 3.1415926535897931 0 10
2 10 10.000000000000002 0 0 0 1 1.1102230246251565e-16 -1 0 1 1.1102230246251565e-16 0 1
10 1.5707963267948966 3.1415926535897931 0 10
2 10 0 0 0 1 0 1.1102230246251565e-16 0 1 1 0 -1.1102230246251565e-16 1
10 1.5707963267948966 3.1415926535897931 0 10
2 0 0 10 0 1 0 -1.1102230246251565e-16 0 -1 -1 0 1.1102230246251565e-16 1
1 -1 0 0 1 0 -0 0 0 1 0 -1 0 
1 0 0 11 0 0 1 1 0 -0 -0 1 0 
4 0 10 10 0 -0.70710678118654902 0.70710678118654613 0.57735026918962518 -0.57735026918962495 -0.57735026918962729 0.81649658092772659 0.4082482904638618 0.40824829046386346 1
4 0 0 10 -0 -0.70710678118654735 -0.70710678118654779 0.57735026918962595 0.57735026918962595 -0.57735026918962562 0.81649658092772603 -0.40824829046386329 0.40824829046386307 1
10 1.5707963267948966 3.1415926535897931 0 10
2 0 10 10.000000000000002 1 0 0 0 1.1102230246251565e-16 -1 0 1 1.1102230246251565e-16 1
10 1.5707963267948966 3.1415926535897931 0 10
2 0 0 10 1 0 0 0 -1.1102230246251565e-16 -1 0 -1 1.1102230246251565e-16 1
4 10 10 10 0 0.70710678118654757 -0.70710678118654757 -0.57735026918962429 -0.57735026918962662 -0.57735026918962662 -0.81649658092772703 0.40824829046386191 0.40824829046386191 1
1 0 11 0 -0 1 0 0 0 1 1 0 -0 
4 10 10 0 0 -0.70710678118654613 -0.70710678118654879 -0.57735026918962484 -0.57735026918962729 0.57735026918962506 -0.8164965809277267 0.40824829046386313 -0.40824829046386163 1
10 1.5707963267948966 3.1415926535897931 0 10
2 0 10 0 1 0 0 0 1.1102230246251565e-16 1 0 1 -1.1102230246251565e-16 1
10 1.5707963267948966 3.1415926535897931 0 10
2 0 10 0 0 0 1 -1.1102230246251565e-16 -1 0 -1 1.1102230246251565e-16 0 1
4 0 10 0 0 0.70710678118654779 0.70710678118654735 0.57735026918962595 -0.57735026918962562 0.57735026918962595 0.81649658092772603 0.40824829046386307 -0.40824829046386329 1
1 0 0 -1 0 0 1 1 0 -0 -0 1 0 
10 1.5707963267948966 3.1415926535897931 0 10
2 0 0 0 0 1 0 -1.1102230246251565e-16 0 1 -1 0 -1.1102230246251565e-16 1
10 1.5707963267948966 3.1415926535897931 0 10
2 0 0 0 1 0 0 0 -1.1102230246251565e-16 1 0 -1 -1.1102230246251565e-16 1
4 0 0 0 0 0.70710678118654746 -0.70710678118654746 0.57735026918962573 0.57735026918962584 0.57735026918962584 0.81649658092772615 -0.40824829046386302 -0.40824829046386302 1
10 1.5707963267948966 3.1415926535897931 0 10
2 0 0 0 0 0 1 -1.1102230246251565e-16 1 0 -1 -1.1102230246251565e-16 0 1
Triangulations 0

TShapes 126
Ve
1e-06
11 0 0
0 0

0101101
*
Ve
1e-06
11 0 10
0 0

0101101
*
Ed
 1e-07 1 1 0
2  1 2 0 0 10
1  1 0 0 10
2  2 1 0 0 10
4 G1 1 0 2 0
0

0101000
+126 0 -125 0 *
Ve
1e-06
10 -1 0
0 0

0101101
*
Ve
1e-06
10 -1 10
0 0

0101101
*
Ed
 1e-07 1 1 0
2  3 3 0 0 10
1  2 0 0 10
2  4 1 0 0 10
4 G1 1 0 3 0
0

0101000
+123 0 -122 0 *
Ed
 1e-06 1 1 0
2  5 1 0 1.5707963267949 3.14159265358979
1  3 0 1.5707963267949 3.14159265358979
2  6 4 0 1.5707963267949 3.14159265358979
4 G1 1 0 4 0
0

0101000
+125 0 -122 0 *
Ed
 1e-06 1 1 0
2  7 1 0 1.5707963267949 3.14159265358979
1  4 0 1.5707963267949 3.14159265358979
2  8 5 0 1.5707963267949 3.14159265358979
4 G1 1 0 5 0
0

0101000
+126 0 -123 0 *
Wi

0101000
-124 0 +121 0 -120 0 +119 0 *
Fa
0  1e-07 1 0

0111000
+118 0 *
Ve
1e-06
11 10 10
0 0

0101101
*
Ed
 1e-07 1 1 0
2  9 2 0 0 10
1  5 0 0 10
2  10 6 0 0 10
4 G1 6 0 2 0
0

0101000
+125 0 -116 0 *
Ve
1e-06
11 10 0
0 0

0101101
*
Ed
 1e-07 1 1 0
2  11 2 0 0 10
1  6 0 0 10
2  12 7 0 0 10
4 G1 7 0 2 0
0

0101000
+114 0 -116 0 *
Ed
 1e-07 1 1 0
2  13 2 0 0 10
1  7 0 0 10
2  14 8 0 0 10
4 G1 8 0 2 0
0

0101000
+126 0 -114 0 *
Wi

0101000
-124 0 -115 0 +113 0 +112 0 *
Fa
0  1e-07 2 0

0111000
+111 0 *
Ve
1e-06
-1 0 10
0 0

0101101
*
Ve
1e-06
-1 10 10
0 0

0101101
*
Ed
 1e-07 1 1 0
2  15 10 0 0 10
1  8 0 0 10
2  16 9 0 0 10
4 G1 9 0 10 0
0

0101000
+109 0 -108 0 *
Ve
1e-06
0 0 11
0 0

0101101
*
Ve
1e-06
0 10 11
0 0

0101101
*
Ed
 1e-07 1 1 0
2  17 11 0 0 10
1  9 0 0 10
2  18 9 0 0 10
4 G1 9 0 11 0
0

0101000
+106 0 -105 0 *
Ed
 1e-06 1 1 0
2  19 9 0 1.5707963267949 3.14159265358979
1  10 0 1.5707963267949 3.14159265358979
2  20 12 0 1.5707963267949 3.14159265358979
4 G1 9 0 12 0
0

0101000
+108 0 -105 0 *
Ed
 1e-06 1 1 0
2  21 9 0 1.5707963267949 3.14159265358979
1  11 0 1.5707963267949 3.14159265358979
2  22 13 0 1.5707963267949 3.14159265358979
4 G1 9 0 13 0
0

0101000
+109 0 -106 0 *
Wi

0101000
-107 0 +104 0 -103 0 +102 0 *
Fa
0  1e-07 9 0

0111000
+101 0 *
Ve
1e-06
10 10 11
0 0

0101101
*
Ed
 1e-07 1 1 0
2  23 11 0 0 10
1  12 0 0 10
2  24 14 0 0 10
4 G1 11 0 14 0
0

0101000
+105 0 -99 0 *
Ve
1e-06
10 0 11
0 0

0101101
*
Ed
 1e-07 1 1 0
2  25 11 0 0 10
1  13 0 0 10
2  26 6 0 0 10
4 G1 6 0 11 0
0

0101000
+97 0 -99 0 *
Ed
 1e-07 1 1 0
2  27 11 0 0 10
1  14 0 0 10
2  28 15 0 0 10
4 G1 11 0 15 0
0

0101000
+106 0 -97 0 *
Wi

0101000
-104 0 -98 0 +96 0 +95 0 *
Fa
0  1e-07 11 0

0111000
+94 0 *
Ed
 1e-06 1 1 0
2  29 6 0 1.5707963267949 3.14159265358979
1  15 0 1.5707963267949 3.14159265358979
2  30 16 0 1.5707963267949 3.14159265358979
4 G1 6 0 16 0
0

0101000
+116 0 -99 0 *
Ed
 1e-06 1 1 0
2  31 6 0 1.5707963267949 3.14159265358979
1  16 0 1.5707963267949 3.14159265358979
2  32 4 0 1.5707963267949 3.14159265358979
4 G1 6 0 4 0
0

0101000
+125 0 -97 0 *
Wi

0101000
-115 0 +96 0 -92 0 +91 0 *
Fa
0  1e-07 6 0

0111000
+90 0 *
Ve
1e-06
0 -1 10
0 0

0101101
*
Ed
 1e-07 1 1 0
2  33 3 0 0 10
1  17 0 0 10
2  34 15 0 0 10
4 G1 15 0 3 0
0

0101000
+88 0 -122 0 *
Ed
 1e-06 1 1 0
2  35 15 0 1.5707963267949 3.14159265358979
1  18 0 1.5707963267949 3.14159265358979
2  36 4 0 1.5707963267949 3.14159265358979
4 G1 15 0 4 0
0

0101000
+122 0 -97 0 *
Ed
 1e-06 1 1 0
2  37 15 0 1.5707963267949 3.14159265358979
1  19 0 1.5707963267949 3.14159265358979
2  38 13 0 1.5707963267949 3.14159265358979
4 G1 15 0 13 0
0

0101000
+88 0 -106 0 *
Wi

0101000
-87 0 +95 0 -86 0 +85 0 *
Fa
0  1e-07 15 0

0111000
+84 0 *
Ve
1e-06
10 11 0
0 0

0101101
*
Ve
1e-06
10 11 10
0 0

0101101
*
Ed
 1e-07 1 1 0
2  39 17 0 0 10
1  20 0 0 10
2  40 7 0 0 10
4 G1 7 0 17 0
0

0101000
+82 0 -81 0 *
Ed
 1e-06 1 1 0
2  41 7 0 1.5707963267949 3.14159265358979
1  21 0 1.5707963267949 3.14159265358979
2  42 16 0 1.5707963267949 3.14159265358979
4 G1 7 0 16 0
0

0101000
+116 0 -81 0 *
Ed
 1e-06 1 1 0
2  43 7 0 1.5707963267949 3.14159265358979
1  22 0 1.5707963267949 3.14159265358979
2  44 18 0 1.5707963267949 3.14159265358979
4 G1 7 0 18 0
0

0101000
+114 0 -82 0 *
Wi

0101000
-113 0 +80 0 -79 0 +78 0 *
Fa
0  1e-07 7 0

0111000
+77 0 *
Ve
1e-06
0 11 0
0 0

0101101
*
Ed
 1e-07 1 1 0
2  45 17 0 0 10
1  23 0 0 10
2  46 19 0 0 10
4 G1 17 0 19 0
0

0101000
+75 0 -82 0 *
Ve
1e-06
0 11 10
0 0

0101101
*
Ed
 1e-07 1 1 0
2  47 17 0 0 10
1  24 0 0 10
2  48 14 0 0 10
4 G1 17 0 14 0
0

0101000
+73 0 -81 0 *
Ed
 1e-07 1 1 0
2  49 17 0 0 10
1  25 0 0 10
2  50 20 0 0 10
4 G1 17 0 20 0
0

0101000
+75 0 -73 0 *
Wi

0101000
-74 0 -80 0 +72 0 +71 0 *
Fa
0  1e-07 17 0

0111000
+70 0 *
Ve
1e-06
-1 10 0
0 0

0101101
*
Ed
 1e-07 1 1 0
2  51 10 0 0 10
1  26 0 0 10
2  52 20 0 0 10
4 G1 20 0 10 0
0

0101000
+68 0 -108 0 *
Ed
 1e-06 1 1 0
2  53 20 0 1.5707963267949 3.14159265358979
1  27 0 1.5707963267949 3.14159265358979
2  54 12 0 1.5707963267949 3.14159265358979
4 G1 20 0 12 0
0

0101000
+108 0 -73 0 *
Ed
 1e-06 1 1 0
2  55 20 0 1.5707963267949 3.14159265358979
1  28 0 1.5707963267949 3.14159265358979
2  56 21 0 1.5707963267949 3.14159265358979
4 G1 20 0 21 0
0

0101000
+68 0 -75 0 *
Wi

0101000
-67 0 +71 0 -66 0 +65 0 *
Fa
0  1e-07 20 0

0111000
+64 0 *
Ve
1e-06
0 10 -1
0 0

0101101
*
Ve
1e-06
10 10 -1
0 0

0101101
*
Ed
 1e-07 1 1 0
2  57 22 0 0 10
1  29 0 0 10
2  58 19 0 0 10
4 G1 22 0 19 0
0

0101000
+62 0 -61 0 *
Ed
 1e-06 1 1 0
2  59 19 0 1.5707963267949 3.14159265358979
1  30 0 1.5707963267949 3.14159265358979
2  60 18 0 1.5707963267949 3.14159265358979
4 G1 19 0 18 0
0

0101000
+82 0 -61 0 *
Ed
 1e-06 1 1 0
2  61 19 0 1.5707963267949 3.14159265358979
1  31 0 1.5707963267949 3.14159265358979
2  62 21 0 1.5707963267949 3.14159265358979
4 G1 19 0 21 0
0

0101000
+75 0 -62 0 *
Wi

0101000
-74 0 +60 0 -59 0 +58 0 *
Fa
0  1e-07 19 0

0111000
+57 0 *
Ve
1e-06
0 0 -1
0 0

0101101
*
Ed
 1e-07 1 1 0
2  63 22 0 0 10
1  32 0 0 10
2  64 23 0 0 10
4 G1 22 0 23 0
0

0101000
+55 0 -62 0 *
Ve
1e-06
10 0 -1
0 0

0101101
*
Ed
 1e-07 1 1 0
2  65 22 0 0 10
1  33 0 0 10
2  66 8 0 0 10
4 G1 22 0 8 0
0

0101000
+53 0 -61 0 *
Ed
 1e-07 1 1 0
2  67 22 0 0 10
1  34 0 0 10
2  68 24 0 0 10
4 G1 22 0 24 0
0

0101000
+55 0 -53 0 *
Wi

0101000
-54 0 -60 0 +52 0 +51 0 *
Fa
0  1e-07 22 0

0111000
+50 0 *
Ve
1e-06
0 -1 0
0 0

0101101
*
Ed
 1e-07 1 1 0
2  69 3 0 0 10
1  35 0 0 10
2  70 24 0 0 10
4 G1 24 0 3 0
0

0101000
+48 0 -123 0 *
Ed
 1e-06 1 1 0
2  71 24 0 1.5707963267949 3.14159265358979
1  36 0 1.5707963267949 3.14159265358979
2  72 5 0 1.5707963267949 3.14159265358979
4 G1 24 0 5 0
0

0101000
+123 0 -53 0 *
Ed
 1e-06 1 1 0
2  73 24 0 1.5707963267949 3.14159265358979
1  37 0 1.5707963267949 3.14159265358979
2  74 25 0 1.5707963267949 3.14159265358979
4 G1 24 0 25 0
0

0101000
+48 0 -55 0 *
Wi

0101000
-47 0 +51 0 -46 0 +45 0 *
Fa
0  1e-07 24 0

0111000
+44 0 *
Ed
 1e-06 1 1 0
2  75 8 0 1.5707963267949 3.14159265358979
1  38 0 1.5707963267949 3.14159265358979
2  76 18 0 1.5707963267949 3.14159265358979
4 G1 8 0 18 0
0

0101000
+114 0 -61 0 *
Ed
 1e-06 1 1 0
2  77 8 0 1.5707963267949 3.14159265358979
1  39 0 1.5707963267949 3.14159265358979
2  78 5 0 1.5707963267949 3.14159265358979
4 G1 8 0 5 0
0

0101000
+126 0 -53 0 *
Wi

0101000
-112 0 +52 0 -42 0 +41 0 *
Fa
0  1e-07 8 0

0111000
+40 0 *
Ed
 1e-07 1 1 0
2  79 3 0 0 10
1  40 0 0 10
2  80 26 0 0 10
4 G1 26 0 3 0
0

0101000
+48 0 -88 0 *
Wi

0101000
-47 0 -121 0 +87 0 +38 0 *
Fa
0  1e-07 3 0

0111000
+37 0 *
Ve
1e-06
-1 0 0
0 0

0101101
*
Ed
 1e-07 1 1 0
2  81 10 0 0 10
1  41 0 0 10
2  82 26 0 0 10
4 G1 26 0 10 0
0

0101000
+35 0 -109 0 *
Ed
 1e-06 1 1 0
2  83 26 0 1.5707963267949 3.14159265358979
1  42 0 1.5707963267949 3.14159265358979
2  84 13 0 1.5707963267949 3.14159265358979
4 G1 26 0 13 0
0

0101000
+109 0 -88 0 *
Ed
 1e-06 1 1 0
2  85 26 0 1.5707963267949 3.14159265358979
1  43 0 1.5707963267949 3.14159265358979
2  86 25 0 1.5707963267949 3.14159265358979
4 G1 26 0 25 0
0

0101000
+35 0 -48 0 *
Wi

0101000
-34 0 +38 0 -33 0 +32 0 *
Fa
0  1e-07 26 0

0111000
+31 0 *
Ed
 1e-06 1 1 0
2  87 14 0 1.5707963267949 3.14159265358979
1  44 0 1.5707963267949 3.14159265358979
2  88 16 0 1.5707963267949 3.14159265358979
4 G1 14 0 16 0
0

0101000
+81 0 -99 0 *
Ed
 1e-06 1 1 0
2  89 14 0 1.5707963267949 3.14159265358979
1  45 0 1.5707963267949 3.14159265358979
2  90 12 0 1.5707963267949 3.14159265358979
4 G1 14 0 12 0
0

0101000
+73 0 -105 0 *
Wi

0101000
-72 0 +98 0 -29 0 +28 0 *
Fa
0  1e-07 14 0

0111000
+27 0 *
Wi

0101000
-92 0 +79 0 +29 0 *
Fa
0  1e-07 16 0

0111000
+25 0 *
Wi

0101000
+103 0 -66 0 -28 0 *
Fa
0  1e-07 12 0

0111000
+23 0 *
Wi

0101000
+33 0 -102 0 +85 0 *
Fa
0  1e-07 13 0

0111000
+21 0 *
Ed
 1e-06 1 1 0
2  91 23 0 1.5707963267949 3.14159265358979
1  46 0 1.5707963267949 3.14159265358979
2  92 25 0 1.5707963267949 3.14159265358979
4 G1 25 0 23 0
0

0101000
+35 0 -55 0 *
Wi

0101000
-32 0 +19 0 -45 0 *
Fa
0  1e-07 25 0

0111000
+18 0 *
Wi

0101000
+119 0 -41 0 +46 0 *
Fa
0  1e-07 5 0

0111000
+16 0 *
Wi

0101000
-120 0 +91 0 -86 0 *
Fa
0  1e-07 4 0

0111000
+14 0 *
Wi

0101000
-78 0 +42 0 -59 0 *
Fa
0  1e-07 18 0

0111000
+12 0 *
Ed
 1e-06 1 1 0
2  93 23 0 1.5707963267949 3.14159265358979
1  47 0 1.5707963267949 3.14159265358979
2  94 21 0 1.5707963267949 3.14159265358979
4 G1 21 0 23 0
0

0101000
+68 0 -62 0 *
Wi

0101000
+65 0 -10 0 +58 0 *
Fa
0  1e-07 21 0

0111000
+9 0 *
Ed
 1e-07 1 1 0
2  95 10 0 0 10
1  48 0 0 10
2  96 23 0 0 10
4 G1 23 0 10 0
0

0101000
+35 0 -68 0 *
Wi

0101000
-7 0 +54 0 -10 0 +19 0 *
Fa
0  1e-07 23 0

0111000
+6 0 *
Wi

0101000
-34 0 -107 0 +67 0 +7 0 *
Fa
0  1e-07 10 0

0111000
+4 0 *
Sh

0101100
-117 0 +110 0 +100 0 +93 0 -89 0 -83 0 +76 0 +69 0 -63 0 -56 0 
-49 0 +43 0 +39 0 -36 0 +30 0 +26 0 +24 0 +22 0 +20 0 +17 0 
+15 0 +13 0 +11 0 +8 0 -5 0 -3 0 *
So

1100100
+2 0 *

+1 1  