
CASCADE Topology V1, (c) Matra-Datavision
Locations 2
1
              1               0               0               0 
              0               1               0               0 
              0               0               1               0 
1
              1               0               0               0 
              0               1               0               0 
              0               0               1              30 
Curve2ds 48
1 0 0 1 0 
1 1 0 0 1 
1 1 0 0 1 
1 0 1 1 0 
1 0 0 0 1 
1 12 0 0 1 
1 0 0 1 0 
1 2 0 0 1 
1 2 0 0 1 
1 0 1 1 0 
1 0 0 1 0 
1 3 0 0 1 
1 3 0 0 1 
1 0 1 1 0 
1 0 0 1 0 
1 4 0 0 1 
1 4 0 0 1 
1 0 1 1 0 
1 0 0 1 0 
1 5 0 0 1 
1 5 0 0 1 
1 0 1 1 0 
1 0 0 1 0 
1 6 0 0 1 
1 6 0 0 1 
1 0 1 1 0 
1 0 0 1 0 
1 7 0 0 1 
1 7 0 0 1 
1 0 1 1 0 
1 0 0 1 0 
1 8 0 0 1 
1 8 0 0 1 
1 0 1 1 0 
1 0 0 1 0 
1 9 0 0 1 
1 9 0 0 1 
1 0 1 1 0 
1 0 0 1 0 
1 10 0 0 1 
1 10 0 0 1 
1 0 1 1 0 
1 0 0 1 0 
1 11 0 0 1 
1 11 0 0 1 
1 0 1 1 0 
1 0 0 1 0 
1 0 1 1 0 
Curves 36
7 0 0  7 8 2  5 5 0  4.5540507510237722 5 0  4.1081015020475418 5 0  3.6621522530713131 5 0  3.2162030040950849 5 0  2.7702537551188549 5 0  2.3243045061426271 5 0  1.878355257166398 5 0 
 0 8 1 8
7 0 0  2 3 2  1.878355257166398 5 0  -1.501261239125437 -0.52623049415733303 13.552865575620517  7 7 30 
 0 3 1 3
7 0 0  7 8 2  8.8731416338150932 4.625082395525717 30  8.6596503471383706 5.0027099827616794 30.000000000000025  8.4268657619018121 5.3694301467031398 29.999999999999972  8.1754562292072119 5.7240597395888697 29.999999999999979  7.9061816019397799 6.0654674800346351 30.000000000000011  7.6198866534203304 6.3925822973882065 30.000000000000021  7.3174944960575106 6.7044016760843812 29.999999999999975  7 7 30 
 0 8 1 8
7 0 0  2 3 2  5 5 0  -2.7969824967439219 -1.5182012993760516 12.961870224675183  8.8731416338150932 4.625082395525717 30 
 0 3 1 3
7 0 0  7 8 2  1.878355257166398 5 0  1.5850753850770931 5 0  1.2917955129877885 5 0  0.99851564089848355 5 0  0.70523576880917827 5 0  0.41195589671987337 5 0  0.11867602463056856 5 0  -0.17460384745873636 5 0 
 1 8 2 8
7 0 0  2 3 2  -0.17460384745873636 5 0  -1.2159754890971157 -0.35373405846617961 14.342543832526271  4.1638043674666934 8.2155124139428466 30 
 0 3 1 3
7 0 0  7 8 2  7 7 30  6.594829195352383 7.1736446305632642 30  6.1896583907047686 7.3472892611265275 30  5.7844875860571543 7.5209338916897917 30  5.3793167814095399 7.6945785222530549 30  4.9741459767619238 7.8682231528163191 30  4.5689751721143086 8.0418677833795833 30  4.1638043674666934 8.2155124139428466 30 
 1 8 2 8
7 0 0  7 8 2  -0.17460384745873636 5 0  -0.47341809831022241 5 0  -0.77223234916170824 5 0  -1.0710466000131944 5 0  -1.3698608508646803 5 0  -1.6686751017161661 5 0  -1.9674893525676522 5 0  -2.2663036034191388 5 0 
 2 8 3 8
7 0 0  2 3 2  -2.2663036034191388 5 0  -0.48597712249917557 -1.3431372735678315 15.233508795407316  0 10 30 
 0 3 1 3
7 0 0  7 8 2  4.1638043674666934 8.2155124139428466 30  3.5689751721143081 8.4704392119510086 30  2.9741459767619238 8.7253660099591741 30  2.3793167814095386 8.9802928079673396 30  1.7844875860571541 9.2352196059755052 30  1.1896583907047695 9.4901464039836707 30  0.59482919535238477 9.7450732019918345 30  0 10 30 
 2 8 3 8
7 0 0  7 8 2  -2.2663036034191388 5 0  -2.6568316600735473 5 0  -3.0473597167279558 5 0  -3.4378877733823643 5 0  -3.8284158300367737 5 0  -4.2189438866911813 5 0  -4.6094719433455902 5 0  -5 5 0 
 3 8 4 8
7 0 0  2 3 2  -5 5 0  0.25349073276399342 -1.1882383592307555 16.033762751523376  0.59559349145179319 4.0440650854820674 30 
 0 3 1 3
7 0 0  7 8 2  0 10 30  0.085084784493113325 9.1491521550688653 30  0.17016956898622668 8.2983043101377323 30  0.25525435347934 7.4474564652065993 30  0.3403391379724533 6.5966086202754655 30  0.42542392246556665 5.7457607753443343 30  0.51050870695868 4.8949129304132004 30  0.59559349145179319 4.0440650854820674 30 
 3 8 4 8
7 0 0  7 8 2  -5 5 0  -5 4.4905324183991491 0  -5 3.9810648367982977 0  -5 3.4715972551974468 0  -5 2.962129673596595 0  -5 2.4526620919957436 0  -5 1.9431945103948915 0  -5 1.4337269287940397 0 
 4 8 5 8
7 0 0  2 3 2  -5 1.4337269287940397 0  -1.3866119077958539 0.23311176258000868 16.926946672671438  0.87817571274726791 1.2182428725273216 30 
 0 3 1 3
7 0 0  7 8 2  0.59559349145179319 4.0440650854820674 30  0.63596238020828966 3.6403761979171043 30  0.6763312689647859 3.2366873103521407 30  0.71670015772128237 2.8329984227871763 30  0.75706904647777884 2.4293095352222123 30  0.7974379352342752 2.0256206476572487 30  0.83780682399077144 1.6219317600922849 30  0.87817571274726791 1.2182428725273216 30 
 4 8 5 8
7 0 0  7 8 2  -5 1.4337269287940397 0  -5 0.51462308182346272 0  -5 -0.40448076514711417 0  -5 -1.3235846121176909 0  -5 -2.2426884590882681 0  -5 -3.1617923060588455 0  -5 -4.0808961530294221 0  -5 -5 0 
 5 8 6 8
7 0 0  2 3 2  -5 -5 0  0.26448870368899347 1.1017066333870964 17.151840194160915  1.2952781125717614 -2.952781125717614 30 
 0 3 1 3
7 0 0  7 8 2  0.87817571274726791 1.2182428725273216 30  0.93776176986505244 0.62238230134947359 30  0.99734782698283742 0.026521730171625655 30  1.0569338841006222 -0.56933884100622223 30  1.1165199412184073 -1.1651994121840701 30  1.1761059983361919 -1.761059983361918 30  1.2356920554539763 -2.3569205545397667 30  1.2952781125717614 -2.952781125717614 30 
 5 8 6 8
7 0 0  7 8 2  -5 -5 0  -4.7675060834588763 -5 0  -4.5350121669177526 -5 0  -4.3025182503766288 -5 0  -4.0700243338355051 -5 0  -3.8375304172943814 -5 0  -3.6050365007532577 -5 0  -3.3725425842121344 -5 0 
 6 8 7 8
7 0 0  2 3 2  -3.3725425842121344 -5 0  -0.43968027714547708 0.59361999635656304 16.926946672671455  1.4275989599908576 -4.2759895999085762 30 
 0 3 1 3
7 0 0  7 8 2  1.2952781125717614 -2.952781125717614 30  1.3141810907744891 -3.1418109077448944 30  1.333084068977217 -3.3308406897721747 30  1.3519870471799453 -3.5198704717994551 30  1.3708900253826735 -3.708900253826735 30  1.3897930035854014 -3.897930035854015 30  1.4086959817881295 -4.0869598178812963 30  1.4275989599908576 -4.2759895999085762 30 
 6 8 7 8
7 0 0  7 8 2  -3.3725425842121344 -5 0  -3.0619598688398844 -5 0  -2.7513771534676339 -5 0  -2.4407944380953839 -5 0  -2.1302117227231334 -5 0  -1.8196290073508834 -5 0  -1.5090462919786332 -5 0  -1.1984635766063836 -5 0 
 7 8 8 8
7 0 0  2 3 2  -1.1984635766063836 -5 0  -0.65917013683906234 1.014037519429323 16.331987039344583  2 -10.000000000000004 30 
 0 3 1 3
7 0 0  7 8 2  1.4275989599908576 -4.2759895999085762 30  1.509370537135021 -5.0937053713502083 30  1.5911421142791844 -5.9114211427918422 30  1.6729136914233476 -6.7291369142334743 30  1.7546852685675103 -7.5468526856751055 30  1.8364568457116737 -8.3645684571167376 30  1.9182284228558371 -9.1822842285583697 30  2 -10.000000000000004 30 
 7 8 8 8
7 0 0  7 8 2  -1.1984635766063836 -5 0  -0.46919333244353012 -5 0  0.26007691171932307 -5 0  0.98934715588217614 -5 0  1.7186174000450289 -5 0  2.4478876442078827 -5 0  3.1771578883707363 -5 0  3.9064281325335903 -5 0 
 8 8 9 8
7 0 0  2 3 2  3.9064281325335903 -5 0  -2.0596263791025664 0.97627518002907065 14.342543832526271  8.7570889438966457 -5.3248830233446265 30 
 0 3 1 3
7 0 0  7 8 2  2 -10.000000000000004 30  3.1913428840250431 -9.786169225944203 29.999999999999893  4.3522032990868471 -9.4025078299281972 30.000000000000171  5.453529757748524 -8.854231080196401 29.999999999999822  6.4673834732753308 -8.1527626288174648 30.000000000000103  7.3687181141488551 -7.3154316142204232 29.999999999999961  8.1369939923970325 -6.3643558312502 30.000000000000004  8.7570889438966457 -5.3248830233446265 30 
 8 8 9 8
7 0 0  7 8 2  3.9064281325335903 -5 0  4.0626526850287918 -5 0  4.2188772375239934 -5 0  4.3751017900191949 -5 0  4.5313263425143964 -5 0  4.6875508950095979 -5 0  4.8437754475047985 -5 0  5 -5 0 
 9 8 10 8
7 0 0  2 3 2  5 -5 0  -2.6878955807005585 1.3115846865640273 14.07994766731272  9.1789814332106818 -4.5393228562768266 29.999999999999993 
 0 3 1 3
7 0 0  7 8 2  8.7570889438966457 -5.3248830233446265 30  8.8223712129667415 -5.2154495513051646 29.999999999999993  8.8860111358783538 -5.1050363281596729 29.999999999999996  8.9479910546883694 -4.99367295599437 30  9.008293994401118 -4.8813894036788259 30  9.0669036629683752 -4.7682160068659725 30  9.123804451289347 -4.6541834679920928 29.999999999999993  9.1789814332106818 -4.5393228562768266 29.999999999999993 
 9 8 10 8
7 0 0  7 8 2  5 -5 0  5 -4.0257355469527125 0  5 -3.0514710939054246 0  5 -2.0772066408581376 0  5 -1.1029421878108503 0  5 -0.12867773476356267 0  5 0.845586718283725 0  5 1.8198511713310128 0 
 10 8 11 8
7 0 0  2 3 2  5 1.8198511713310128 0  -1.5058806909662639 -0.19403129396923416 12.745295036694797  9.856684783957375 2.1659071715779734 30 
 0 3 1 3
7 0 0  7 8 2  9.1789814332106818 -4.5393228562768266 29.999999999999993  9.6043617719271985 -3.6538187164113367 29.999999999999904  9.9272886907001201 -2.7190985221426476 30.000000000000227  10.140929468179859 -1.7493831635973096 29.999999999999893  10.240917953465097 -0.76009221020933548 29.999999999999861  10.225635624627008 0.23276060306466226 30.000000000000178  10.096274911674064 1.2131938962499758 29.999999999999922  9.856684783957375 2.1659071715779734 30 
 10 8 11 8
7 0 0  7 8 2  5 1.8198511713310128 0  5 2.2741581468551533 0  5 2.7284651223792946 0  5 3.182772097903436 0  5 3.6370790734275764 0  5 4.0913860489517173 0  5 4.5456930244758587 0  5 5 0 
 11 8 12 8
7 0 0  7 8 2  9.856684783957375 2.1659071715779734 30  9.7641286270103311 2.5339502135727536 29.999999999999943  9.6551223486801714 2.8978563547901524 30.000000000000021  9.5298876360725071 3.2567432061082977 30.000000000000036  9.3887057742807833 3.609743414120298 29.999999999999989  9.2319156234939843 3.9560097190175982 29.999999999999972  9.059911596104353 4.2947200124733387 30.000000000000021  8.8731416338150932 4.625082395525717 30 
 11 8 12 8
Polygon3D 0
PolygonOnTriangulations 0
Surfaces 14
9 0 0 0 0 7 2 8 3 2 2 5 5 0  -2.7969824967439219 -1.5182012993760516 12.961870224675183  8.8731416338150932 4.625082395525717 30  
4.5540507510237722 5 0  -2.5771822327595277 -1.3178014341246986 13.021327511705071  8.6596503471383706 5.0027099827616794 30.000000000000025  
4.1081015020475418 5 0  -2.3717296713077967 -1.134791778532416 13.089838431688797  8.4268657619018121 5.3694301467031398 29.999999999999972  
3.6621522530713131 5 0  -2.1790922784501561 -0.97066104772092243 13.167043900623232  8.1754562292072119 5.7240597395888697 29.999999999999979  
3.2162030040950849 5 0  -1.9975836926900996 -0.82672430428373134 13.252501202891965  7.9061816019397799 6.0654674800346351 30.000000000000011  
2.7702537551188549 5 0  -1.8253923673286176 -0.70410422771125258 13.34569175775483  7.6198866534203304 6.3925822973882065 30.000000000000021  
2.3243045061426271 5 0  -1.6606102128196383 -0.60371238381592518 13.446028885837402  7.3174944960575106 6.7044016760843812 29.999999999999975  
1.878355257166398 5 0  -1.501261239125437 -0.52623049415733303 13.552865575620517  7 7 30  

0 8
1 8

0 3
1 3

1 5 5 0 -0 0 -1 -0.70710678118654757 -0.70710678118654757 0 -0.70710678118654757 0.70710678118654757 0 
9 0 0 0 0 7 2 8 3 2 2 1.878355257166398 5 0  -1.501261239125437 -0.52623049415733303 13.552865575620517  7 7 30  
1.5850753850770931 5 0  -1.4459267933662323 -0.4296445899100273 13.651734423178665  6.594829195352383 7.1736446305632642 30  
1.2917955129877885 5 0  -1.3984667230671897 -0.35613870920496526 13.756169585991925  6.1896583907047686 7.3472892611265275 30  
0.99851564089848355 5 0  -1.3571197227719827 -0.30643881606251133 13.865659033856948  5.7844875860571543 7.5209338916897917 30  
0.70523576880917827 5 0  -1.3200626933126198 -0.28108835377281993 13.9796468807554  5.3793167814095399 7.6945785222530549 30  
0.41195589671987337 5 0  -1.2854346445000358 -0.28044366796714842 14.097540990296009  4.9741459767619238 7.8682231528163191 30  
0.11867602463056856 5 0  -1.2513605978146818 -0.30466942968914718 14.218720581156628  4.5689751721143086 8.0418677833795833 30  
-0.17460384745873636 5 0  -1.2159754890971157 -0.35373405846617961 14.342543832526271  4.1638043674666934 8.2155124139428466 30  

1 8
2 8

0 3
1 3

1 8.8731416338150932 4.625082395525717 30 -0 0 -1 -0.42532834096467131 -0.90503911648737068 0 -0.90503911648737068 0.42532834096467131 0 
9 0 0 0 0 7 2 8 3 2 2 5 1.8198511713310128 0  -1.5058806909662639 -0.19403129396923416 12.745295036694797  9.856684783957375 2.1659071715779734 30  
5 2.2741581468551533 0  -1.6269160492115833 -0.34584976931890637 12.745295036694781  9.7641286270103311 2.5339502135727536 29.999999999999943  
5 2.7284651223792946 0  -1.7709065647853912 -0.5064839611725811 12.755773097912593  9.6551223486801714 2.8978563547901524 30.000000000000021  
5 3.182772097903436 0  -1.9369952143791211 -0.67822771168549822 12.776730123965729  9.5298876360725071 3.2567432061082977 30.000000000000036  
5 3.6370790734275764 0  -2.1240774287852457 -0.86328209239975817 12.808065261400875  9.3887057742807833 3.609743414120298 29.999999999999989  
5 4.0913860489517173 0  -2.3308228032032683 -1.0637207912634441 12.849579031754503  9.2319156234939843 3.9560097190175982 29.999999999999972  
5 4.5456930244758587 0  -2.5556968075456776 -1.281455499649738 12.900976463613388  9.059911596104353 4.2947200124733387 30.000000000000021  
5 5 0  -2.7969824967439192 -1.5182012993760496 12.961870224675183  8.8731416338150932 4.625082395525717 30  

11 8
12 8

0 3
1 3

9 0 0 0 0 7 2 8 3 2 2 -0.17460384745873636 5 0  -1.2159754890971157 -0.35373405846617961 14.342543832526271  4.1638043674666934 8.2155124139428466 30  
-0.47341809831022241 5 0  -1.1245043486565747 -0.42298913707556601 14.465233388862579  3.5689751721143081 8.4704392119510086 30  
-0.77223234916170824 5 0  -1.0317461623003537 -0.51663034292278109 14.590518460318744  2.9741459767619238 8.7253660099591741 30  
-1.0710466000131944 5 0  -0.93588648915869777 -0.63462970544127562 14.717774989648113  2.3793167814095386 8.9802928079673396 30  
-1.3698608508646803 5 0  -0.83512128494344795 -0.77677016068490634 14.846358936126411  1.7844875860571541 9.2352196059755052 30  
-1.6686751017161661 5 0  -0.7276792415099782 -0.94265060994491212 14.975614545854604  1.1896583907047695 9.4901464039836707 30  
-1.9674893525676522 5 0  -0.61184412641913399 -1.1316909783669 15.104882622061645  0.59482919535238477 9.7450732019918345 30  
-2.2663036034191388 5 0  -0.48597712249917557 -1.3431372735678315 15.233508795407316  0 10 30  

2 8
3 8

0 3
1 3

9 0 0 0 0 7 2 8 3 2 2 -2.2663036034191388 5 0  -0.48597712249917557 -1.3431372735678315 15.233508795407316  0 10 30  
-2.6568316600735473 5 0  -0.41196291656142164 -1.2675125294503868 15.351987355885077  0.085084784493113325 9.1491521550688653 30  
-3.0473597167279558 5 0  -0.32943730068876237 -1.2108979674833333 15.469921328125576  0.17016956898622668 8.2983043101377323 30  
-3.4378877733823643 5 0  -0.23711879642268124 -1.1727060953731721 15.586799286615602  0.25525435347934 7.4474564652065993 30  
-3.8284158300367737 5 0  -0.13378200072488286 -1.1522247469001248 15.702113464712451  0.3403391379724533 6.5966086202754655 30  
-4.2189438866911813 5 0  -0.018269981276080739 -1.14862595272857 15.815365098370071  0.42542392246556665 5.7457607753443343 30  
-4.6094719433455902 5 0  0.11049332822523285 -1.1609748112174585 15.926069769865173  0.51050870695868 4.8949129304132004 30  
-5 5 0  0.25349073276399342 -1.1882383592307555 16.033762751523376  0.59559349145179319 4.0440650854820674 30  

3 8
4 8

0 3
1 3

9 0 0 0 0 7 2 8 3 2 2 -5 5 0  0.25349073276399342 -1.1882383592307555 16.033762751523376  0.59559349145179319 4.0440650854820674 30  
-5 4.4905324183991491 0  -0.077017900139457807 -0.91271513871444776 16.185243778258368  0.63596238020828966 3.6403761979171043 30  
-5 3.9810648367982977 0  -0.37936373721286226 -0.66670132531274717 16.3307660445479  0.6763312689647859 3.2366873103521407 30  
-5 3.4715972551974468 0  -0.65081041681519014 -0.44732433077724082 16.469036065007845  0.71670015772128237 2.8329984227871763 30  
-5 2.962129673596595 0  -0.88898183185655066 -0.25133278086804089 16.598836415334993  0.75706904647777884 2.4293095352222123 30  
-5 2.4526620919957436 0  -1.0919218731486009 -0.075159897432954287 16.719054055865069  0.7974379352342752 2.0256206476572487 30  
-5 1.9431945103948915 0  -1.2581356099627012 0.085001412780473823 16.828703763595257  0.83780682399077144 1.6219317600922849 30  
-5 1.4337269287940397 0  -1.3866119077958539 0.23311176258000868 16.926946672671438  0.87817571274726791 1.2182428725273216 30  

4 8
5 8

0 3
1 3

9 0 0 0 0 7 2 8 3 2 2 -5 1.4337269287940397 0  -1.3866119077958539 0.23311176258000868 16.926946672671438  0.87817571274726791 1.2182428725273216 30  
-5 0.51462308182346272 0  -1.6505471416099806 0.3284603401829293 17.133595550383625  0.93776176986505244 0.62238230134947359 30  
-5 -0.40448076514711417 0  -1.7475127134919537 0.37048979922491698 17.289774878952102  0.99734782698283742 0.026521730171625655 30  
-5 -1.3235846121176909 0  -1.66810059019545 0.39606202197267898 17.387678164494542  1.0569338841006222 -0.56933884100622223 30  
-5 -2.2426884590882681 0  -1.4123493018580384 0.44506341891672591 17.422353319228918  1.1165199412184073 -1.1651994121840701 30  
-5 -3.1617923060588455 0  -0.9906961332913975 0.55691439894652028 17.392462849228338  1.1761059983361919 -1.761059983361918 30  
-5 -4.0808961530294221 0  -0.4229071179133741 0.7665280810937799 17.300420971151564  1.2356920554539763 -2.3569205545397667 30  
-5 -5 0  0.26448870368899347 1.1017066333870964 17.151840194160915  1.2952781125717614 -2.952781125717614 30  

5 8
6 8

0 3
1 3

9 0 0 0 0 7 2 8 3 2 2 -5 -5 0  0.26448870368899347 1.1017066333870964 17.151840194160915  1.2952781125717614 -2.952781125717614 30  
-4.7675060834588763 -5 0  0.15303728902467373 1.0160973946053748 17.125046939293718  1.3141810907744891 -3.1418109077448944 30  
-4.5350121669177526 -5 0  0.045475507255205369 0.93457105760247561 17.096415090979068  1.333084068977217 -3.3308406897721747 30  
-4.3025182503766288 -5 0  -0.058352837141045194 0.85729120297496686 17.065977707876296  1.3519870471799453 -3.5198704717994551 30  
-4.0700243338355051 -5 0  -0.15861035470625484 0.7844131763538793 17.033771067841876  1.3708900253826735 -3.708900253826735 30  
-3.8375304172943814 -5 0  -0.25546607100313995 0.71608408840472371 16.999834667929509  1.3897930035854014 -3.897930035854015 30  
-3.6050365007532577 -5 0  -0.34909542661495058 0.6524428148274708 16.964211224390027  1.4086959817881295 -4.0869598178812963 30  
-3.3725425842121344 -5 0  -0.43968027714547708 0.59361999635656304 16.926946672671455  1.4275989599908576 -4.2759895999085762 30  

6 8
7 8

0 3
1 3

9 0 0 0 0 7 2 8 3 2 2 -3.3725425842121344 -5 0  -0.43968027714547708 0.59361999635656304 16.926946672671455  1.4275989599908576 -4.2759895999085762 30  
-3.0619598688398844 -5 0  -0.49664181005147062 0.59971261813988253 16.857428245163792  1.509370537135021 -5.0937053713502083 30  
-2.7513771534676339 -5 0  -0.54300692963222108 0.62257361288939694 16.782198217399728  1.5911421142791844 -5.9114211427918422 30  
-2.4407944380953839 -5 0  -0.57995189337688469 0.66304847059671923 16.701553642184241  1.6729136914233476 -6.7291369142334743 30  
-2.1302117227231334 -5 0  -0.60872166031052133 0.72187352486214906 16.615828657981599  1.7546852685675103 -7.5468526856751055 30  
-1.8196290073508834 -5 0  -0.63061609305621791 0.79966936538461519 16.525390589789737  1.8364568457116737 -8.3645684571167376 30  
-1.5090462919786332 -5 0  -0.64697615989721946 0.89693425045164721 16.43063605001462  1.9182284228558371 -9.1822842285583697 30  
-1.1984635766063836 -5 0  -0.65917013683906234 1.014037519429323 16.331987039344583  2 -10.000000000000004 30  

7 8
8 8

0 3
1 3

9 0 0 0 0 7 2 8 3 2 2 -1.1984635766063836 -5 0  -0.65917013683906234 1.014037519429323 16.331987039344583  2 -10.000000000000004 30  
-0.46919333244353012 -5 0  -0.8853287446351088 0.74365431417586381 16.084514606173979  3.1913428840250431 -9.786169225944203 29.999999999999893  
0.26007691171932307 -5 0  -1.0776772719856063 0.55582128553999921 15.812533358600833  4.3522032990868471 -9.4025078299281972 30.000000000000171  
0.98934715588217614 -5 0  -1.2505768838849212 0.45767902901262653 15.522702555273135  5.453529757748524 -8.854231080196401 29.999999999999822  
1.7186174000450289 -5 0  -1.4197248469187895 0.45287957694171632 15.222670403409047  6.4673834732753308 -8.1527626288174648 30.000000000000103  
2.4478876442078827 -5 0  -1.6011425224790348 0.54110064955169235 14.920627407086243  7.3687181141488551 -7.3154316142204232 29.999999999999961  
3.1771578883707363 -5 0  -1.809986195170012 0.71809906144459823 14.624720873105867  8.1369939923970325 -6.3643558312502 30.000000000000004  
3.9064281325335903 -5 0  -2.0596263791025664 0.97627518002907065 14.342543832526271  8.7570889438966457 -5.3248830233446265 30  

8 8
9 8

0 3
1 3

9 0 0 0 0 7 2 8 3 2 2 3.9064281325335903 -5 0  -2.0596263791025664 0.97627518002907065 14.342543832526271  8.7570889438966457 -5.3248830233446265 30  
4.0626526850287918 -5 0  -2.1461073725091682 1.0193290485404611 14.304174088999625  8.8223712129667415 -5.2154495513051646 29.999999999999993  
4.2188772375239934 -5 0  -2.2336160014372739 1.0640469615609578 14.266058190788421  8.8860111358783538 -5.1050363281596729 29.999999999999996  
4.3751017900191949 -5 0  -2.3221910146800608 1.1104012547021065 14.228215256472724  8.9479910546883694 -4.99367295599437 30  
4.5313263425143964 -5 0  -2.411870180860388 1.1583629991714486 14.19066417999106  9.008293994401118 -4.8813894036788259 30  
4.6875508950095979 -5 0  -2.5026902884308107 1.2079020017725215 14.153423630640429  9.0669036629683752 -4.7682160068659725 30  
4.8437754475047985 -5 0  -2.5946871456735598 1.2589868049048678 14.116512053076331  9.123804451289347 -4.6541834679920928 29.999999999999993  
5 -5 0  -2.6878955807005585 1.3115846865640273 14.07994766731272  9.1789814332106818 -4.5393228562768266 29.999999999999993  

9 8
10 8

0 3
1 3

9 0 0 0 0 7 2 8 3 2 2 5 -5 0  -2.6878955807005585 1.3115846865640273 14.07994766731272  9.1789814332106818 -4.5393228562768266 29.999999999999993  
5 -4.0257355469527125 0  -2.0755783610090424 0.86712520920757152 13.74042122807924  9.6043617719271985 -3.6538187164113367 29.999999999999904  
5 -3.0514710939054246 0  -1.5792289878253256 0.55865749341241433 13.430830459787083  9.9272886907001201 -2.7190985221426476 30.000000000000227  
5 -2.0772066408581376 0  -1.2279536386325318 0.35737290575009117 13.165739430910088  10.140929468179859 -1.7493831635973096 29.999999999999893  
5 -1.1029421878108503 0  -1.0423947209159605 0.22523053250414166 12.957793768496472  10.240917953465097 -0.76009221020933548 29.999999999999861  
5 -0.12867773476356267 0  -1.0313947495695561 0.11823779845812371 12.816128565540348  10.225635624627008 0.23276060306466226 30.000000000000178  
5 0.845586718283725 0  -1.1909257874553065 -0.0080679715708214441 12.745295036694751  10.096274911674064 1.2131938962499758 29.999999999999922  
5 1.8198511713310128 0  -1.5058806909662639 -0.19403129396923416 12.745295036694797  9.856684783957375 2.1659071715779734 30  

10 8
11 8

0 3
1 3

Triangulations 0

TShapes 90
Ve
1e-07
5 5 0
0 0

0101101
*
Ve
1e-07
1.8783552571664 5 0
0 0

0101101
*
Ed
 1e-07 1 1 0
1  1 0 0 1
2  1 1 0 0 1
4 C0 1 0 2 0
0

0101000
+90 0 -89 0 *
Ve
1.00000001831027e-07
7 7 0
0 0

0101101
*
Ed
 1e-07 1 1 0
1  2 0 0 1
2  2 1 0 0 1
2  3 3 0 0 1
4 C0 1 0 3 0
0

0101000
+89 0 -87 2 *
Ve
1e-07
8.87314163381509 4.62508239552572 30
0 0

0101101
*
Ed
 1e-07 1 1 0
1  3 0 0 1
2  4 1 0 0 1
4 C0 1 0 4 0
0

0101000
+85 0 -87 2 *
Ed
 1e-07 1 1 0
1  4 0 0 1
2  5 1 0 0 1
2  6 5 0 0 1
4 C0 1 0 5 0
0

0101000
+90 0 -85 0 *
Wi

0101000
+88 0 +86 0 -84 0 -83 0 *
Fa
0  1e-07 1 0

0101000
+82 0 *
Ve
1e-07
-0.174603847458736 5 0
0 0

0101101
*
Ed
 1e-07 1 1 0
1  5 0 1 2
2  7 3 0 1 2
4 C0 3 0 2 0
0

0101000
+89 0 -80 0 *
Ve
1e-07
4.16380436746669 8.21551241394285 30
0 0

0101101
*
Ed
 1e-07 1 1 0
1  6 0 0 1
2  8 3 0 0 1
2  9 6 0 0 1
4 C0 3 0 6 0
0

0101000
+80 0 -78 0 *
Ed
 1e-07 1 1 0
1  7 0 1 2
2  10 3 0 1 2
4 C0 3 0 4 0
0

0101000
+87 2 -78 0 *
Wi

0101000
+79 0 +77 0 -76 0 -86 0 *
Fa
0  1e-07 3 0

0101000
+75 0 *
Ve
1e-07
-2.26630360341914 5 0
0 0

0101101
*
Ed
 1e-07 1 1 0
1  8 0 2 3
2  11 6 0 2 3
4 C0 6 0 2 0
0

0101000
+80 0 -73 0 *
Ve
1e-07
0 10 0
0 0

0101101
*
Ed
 1e-07 1 1 0
1  9 0 0 1
2  12 6 0 0 1
2  13 7 0 0 1
4 C0 6 0 7 0
0

0101000
+73 0 -71 2 *
Ed
 1e-07 1 1 0
1  10 0 2 3
2  14 6 0 2 3
4 C0 6 0 4 0
0

0101000
+78 0 -71 2 *
Wi

0101000
+72 0 +70 0 -69 0 -77 0 *
Fa
0  1e-07 6 0

0101000
+68 0 *
Ve
1e-07
-5 5 0
0 0

0101101
*
Ed
 1e-07 1 1 0
1  11 0 3 4
2  15 7 0 3 4
4 C0 7 0 2 0
0

0101000
+73 0 -66 0 *
Ve
1e-07
0.595593491451793 4.04406508548207 30
0 0

0101101
*
Ed
 1e-07 1 1 0
1  12 0 0 1
2  16 7 0 0 1
2  17 8 0 0 1
4 C0 7 0 8 0
0

0101000
+66 0 -64 0 *
Ed
 1e-07 1 1 0
1  13 0 3 4
2  18 7 0 3 4
4 C0 7 0 4 0
0

0101000
+71 2 -64 0 *
Wi

0101000
+65 0 +63 0 -62 0 -70 0 *
Fa
0  1e-07 7 0

0101000
+61 0 *
Ve
1e-07
-5 1.43372692879404 0
0 0

0101101
*
Ed
 1e-07 1 1 0
1  14 0 4 5
2  19 8 0 4 5
4 C0 8 0 2 0
0

0101000
+66 0 -59 0 *
Ve
1e-07
0.878175712747268 1.21824287252732 30
0 0

0101101
*
Ed
 1e-07 1 1 0
1  15 0 0 1
2  20 8 0 0 1
2  21 9 0 0 1
4 C0 8 0 9 0
0

0101000
+59 0 -57 0 *
Ed
 1e-07 1 1 0
1  16 0 4 5
2  22 8 0 4 5
4 C0 8 0 4 0
0

0101000
+64 0 -57 0 *
Wi

0101000
+58 0 +56 0 -55 0 -63 0 *
Fa
0  1e-07 8 0

0101000
+54 0 *
Ve
1e-07
-5 -5 0
0 0

0101101
*
Ed
 1e-07 1 1 0
1  17 0 5 6
2  23 9 0 5 6
4 C0 9 0 2 0
0

0101000
+59 0 -52 0 *
Ve
1e-07
1.29527811257176 -2.95278112571761 30
0 0

0101101
*
Ed
 1e-07 1 1 0
1  18 0 0 1
2  24 9 0 0 1
2  25 10 0 0 1
4 C0 9 0 10 0
0

0101000
+52 0 -50 0 *
Ed
 1e-07 1 1 0
1  19 0 5 6
2  26 9 0 5 6
4 C0 9 0 4 0
0

0101000
+57 0 -50 0 *
Wi

0101000
+51 0 +49 0 -48 0 -56 0 *
Fa
0  1e-07 9 0

0101000
+47 0 *
Ve
1e-07
-3.37254258421213 -5 0
0 0

0101101
*
Ed
 1e-07 1 1 0
1  20 0 6 7
2  27 10 0 6 7
4 C0 10 0 2 0
0

0101000
+52 0 -45 0 *
Ve
1e-07
1.42759895999086 -4.27598959990858 30
0 0

0101101
*
Ed
 1e-07 1 1 0
1  21 0 0 1
2  28 10 0 0 1
2  29 11 0 0 1
4 C0 10 0 11 0
0

0101000
+45 0 -43 0 *
Ed
 1e-07 1 1 0
1  22 0 6 7
2  30 10 0 6 7
4 C0 10 0 4 0
0

0101000
+50 0 -43 0 *
Wi

0101000
+44 0 +42 0 -41 0 -49 0 *
Fa
0  1e-07 10 0

0101000
+40 0 *
Ve
1e-07
-1.19846357660638 -5 0
0 0

0101101
*
Ed
 1e-07 1 1 0
1  23 0 7 8
2  31 11 0 7 8
4 C0 11 0 2 0
0

0101000
+45 0 -38 0 *
Ve
1.00000001790181e-07
2 -10 0
0 0

0101101
*
Ed
 1e-07 1 1 0
1  24 0 0 1
2  32 11 0 0 1
2  33 12 0 0 1
4 C0 11 0 12 0
0

0101000
+38 0 -36 2 *
Ed
 1e-07 1 1 0
1  25 0 7 8
2  34 11 0 7 8
4 C0 11 0 4 0
0

0101000
+43 0 -36 2 *
Wi

0101000
+37 0 +35 0 -34 0 -42 0 *
Fa
0  1e-07 11 0

0101000
+33 0 *
Ve
1e-07
3.90642813253359 -5 0
0 0

0101101
*
Ed
 1e-07 1 1 0
1  26 0 8 9
2  35 12 0 8 9
4 C0 12 0 2 0
0

0101000
+38 0 -31 0 *
Ve
1e-07
8.75708894389664 -5.32488302334463 30
0 0

0101101
*
Ed
 1e-07 1 1 0
1  27 0 0 1
2  36 12 0 0 1
2  37 13 0 0 1
4 C0 12 0 13 0
0

0101000
+31 0 -29 0 *
Ed
 1e-07 1 1 0
1  28 0 8 9
2  38 12 0 8 9
4 C0 12 0 4 0
0

0101000
+36 2 -29 0 *
Wi

0101000
+30 0 +28 0 -27 0 -35 0 *
Fa
0  1e-07 12 0

0101000
+26 0 *
Ve
1e-07
5 -5 0
0 0

0101101
*
Ed
 1e-07 1 1 0
1  29 0 9 10
2  39 13 0 9 10
4 C0 13 0 2 0
0

0101000
+31 0 -24 0 *
Ve
1e-07
9.17898143321069 -4.53932285627683 30
0 0

0101101
*
Ed
 1e-07 1 1 0
1  30 0 0 1
2  40 13 0 0 1
2  41 14 0 0 1
4 C0 13 0 14 0
0

0101000
+24 0 -22 0 *
Ed
 1e-07 1 1 0
1  31 0 9 10
2  42 13 0 9 10
4 C0 13 0 4 0
0

0101000
+29 0 -22 0 *
Wi

0101000
+23 0 +21 0 -20 0 -28 0 *
Fa
0  1e-07 13 0

0101000
+19 0 *
Ve
1e-07
5 1.81985117133101 0
0 0

0101101
*
Ed
 1e-07 1 1 0
1  32 0 10 11
2  43 14 0 10 11
4 C0 14 0 2 0
0

0101000
+24 0 -17 0 *
Ve
1e-07
9.85668478395738 2.16590717157797 30
0 0

0101101
*
Ed
 1e-07 1 1 0
1  33 0 0 1
2  44 14 0 0 1
2  45 5 0 0 1
4 C0 14 0 5 0
0

0101000
+17 0 -15 0 *
Ed
 1e-07 1 1 0
1  34 0 10 11
2  46 14 0 10 11
4 C0 14 0 4 0
0

0101000
+22 0 -15 0 *
Wi

0101000
+16 0 +14 0 -13 0 -21 0 *
Fa
0  1e-07 14 0

0101000
+12 0 *
Ed
 1e-07 1 1 0
1  35 0 11 12
2  47 5 0 11 12
4 C0 5 0 2 0
0

0101000
+17 0 -90 0 *
Ed
 1e-07 1 1 0
1  36 0 11 12
2  48 5 0 11 12
4 C0 5 0 4 0
0

0101000
+15 0 -85 0 *
Wi

0101000
+10 0 +83 0 -9 0 -14 0 *
Fa
0  1e-07 5 0

0101000
+8 0 *
Wi

0101000
-88 0 -79 0 -72 0 -65 0 -58 0 -51 0 -44 0 -37 0 -30 0 -23 0 
-16 0 -10 0 *
Fa
0  1e-07 2 0

0101000
+6 0 *
Wi

0101000
+84 0 +76 0 +69 0 +62 0 +55 0 +48 0 +41 0 +34 0 +27 0 +20 0 
+13 0 +9 0 *
Fa
0  1e-07 4 0

0101000
-4 0 *
Sh

0101100
+81 0 +74 0 +67 0 +60 0 +53 0 +46 0 +39 0 +32 0 +25 0 +18 0 
+11 0 +7 0 +5 0 -3 0 *
So

1100100
+2 0 *

+1 1  