
CASCADE Topology V1, (c) Matra-Datavision
Locations 3
1
0.883022221559489 -0.342020143325669 0.32139380484327               0 
0.32139380484327 0.939692620785908 0.116977778440511               0 
-0.342020143325669 -1.38777878078145e-17 0.939692620785908              10 
1
0.883022221559489 0.32139380484327 -0.342020143325669 3.42020143325669 
-0.342020143325669 0.939692620785908 1.38777878078145e-17 -1.38777878078145e-16 
0.32139380484327 0.116977778440511 0.939692620785908 -9.39692620785909 
1
0.896280576369176 -0.32139380484327 0.305593112866937 -1.81323240904034 
0.262002630229385 0.939692620785909 0.219846310392954 4.69846310392954 
-0.357820835302002 -0.116977778440511 0.926434265976222 9.98181510006164 
Curve2ds 16
1 0 0 1 0 
1 1 0 0 1 
1 1 0 0 1 
1 0 1 1 0 
1 0 0 0 1 
1 4 0 0 1 
1 0 0 1 0 
1 2 0 0 1 
1 2 0 0 1 
1 0 1 1 0 
1 0 0 1 0 
1 3 0 0 1 
1 3 0 0 1 
1 0 1 1 0 
1 0 0 1 0 
1 0 1 1 0 
Curves 12
7 0 0  8 9 2  9.4422815652704788 2.9883623873011982 -7.2050682914401838  8.3385037883211215 3.4158875664582848 -7.606810547494268  7.2347260113717597 3.8434127456153706 -8.0085528035483566  6.130948234422398 4.2709379247724559 -8.4102950596024435  5.0271704574730363 4.6984631039295417 -8.8120373156565321  3.923392680523675 5.1259882830866283 -9.2137795717106172  2.8196149035743132 5.5535134622437141 -9.6155218277647041  1.7158371266249517 5.9810386414007999 -10.017264083818793  0.61205934967559072 6.4085638205578865 -10.419006339872878 
 0 9 1 9
7 1 0  2 3 2  0.61205934967559072 6.4085638205578865 -10.419006339872878  1 -0.81849807570233157 -2.3722673988152714 2.3041284613146265  0.99999999999999978 1.0612014485891921 10.706939359006013 7.6078220313490794  1
 0 3 1 3
7 0 0  8 9 2  4.2751394970218906 1.310013151146924 8.7775998157541881  3.8733972409678037 2.48462892712931 8.6313775927035525  3.4716549849137159 3.6592447031116966 8.4851553696529116  3.0699127288596291 4.8338604790940813 8.3389331466022725  2.6681704728055413 6.0084762550764674 8.1927109235516333  2.2664282167514536 7.1830920310588517 8.0464887005009942  1.8646859606973669 8.3577078070412369 7.9002664774503559  1.4629437046432798 9.5323235830236239 7.7540442543997186  1.0612014485891921 10.706939359006013 7.6078220313490794 
 0 9 1 9
7 1 0  2 3 2  9.4422815652704788 2.9883623873011982 -7.2050682914401838  1 -1.1331328694160563 -2.2426963428136104 0.00045928528233441223  0.99999999999999978 4.2751394970218906 1.310013151146924 8.7775998157541881  1
 0 3 1 3
7 0 0  8 9 2  0.61205934967559072 6.4085638205578865 -10.419006339872878  0.21031709362150336 5.2339480445754996 -10.565228562923515  -0.19142516243258387 4.0593322685931152 -10.711450785974154  -0.59316741848667109 2.8847164926107296 -10.857673009024795  -0.99490967454075829 1.7101007166283433 -11.003895232075433  -1.3966519305948455 0.5354849406459582 -11.15011745512607  -1.7983941866489326 -0.63913083533642745 -11.296339678176709  -2.2001364427030201 -1.8137466113188137 -11.442561901227348  -2.6018786987571079 -2.9883623873011982 -11.588784124277991 
 1 9 2 9
7 1 0  2 3 2  -2.6018786987571079 -2.9883623873011982 -11.588784124277991  1 -0.99941125340244452 -2.0138944496564233 1.3288882302799301  0.99999999999999978 -7.9016043151025661 8.0869130567121612 11.186030384369092  1
 0 3 1 3
7 0 0  8 9 2  1.0612014485891921 10.706939359006013 7.6078220313490794  -0.059149271872277726 10.379436071219278 8.0550980754765824  -1.1794999923337475 10.051932783432546 8.5023741196040845  -2.2998507127952168 9.7244294956458148 8.9496501637315848  -3.4202014332566866 9.3969262078590852 9.3969262078590852  -4.5405521537181572 9.0694229200723537 9.8442022519865873  -5.6609028741796275 8.7419196322856241 10.291478296114093  -6.7812535946410959 8.4144163444988926 10.738754340241593  -7.9016043151025661 8.0869130567121612 11.186030384369092 
 1 9 2 9
7 0 0  8 9 2  -2.6018786987571079 -2.9883623873011982 -11.588784124277991  -1.4981009218077463 -3.4158875664582844 -11.187041868223902  -0.39432314485838471 -3.8434127456153706 -10.785299612169814  0.7094546320909767 -4.2709379247724568 -10.383557356115727  1.8132324090403384 -4.6984631039295417 -9.98181510006164  2.9170101859896995 -5.1259882830866275 -9.5800728440075531  4.0207879629390613 -5.5535134622437141 -9.1783305879534662  5.1245657398884212 -5.9810386414007999 -8.7765883318993776  6.228343516837783 -6.4085638205578865 -8.3748460758452925 
 2 9 3 9
7 1 0  2 3 2  6.228343516837783 -6.4085638205578865 -8.3748460758452925  1 -1.3140460471161564 -1.8843233936547843 -0.97478094575236574  0.99999999999999978 -4.6876662666698676 -1.3100131511469257 12.355808168774205  1
 0 3 1 3
7 0 0  8 9 2  -7.9016043151025661 8.0869130567121612 11.186030384369092  -7.4998620590484784 6.9122972807297751 11.332252607419735  -7.0981198029943906 5.737681504747389 11.478474830470374  -6.696377546940302 4.5630657287650029 11.624697053521015  -6.294635290886216 3.3884499527826173 11.770919276571652  -5.89289303483213 2.2138341768002316 11.917141499622288  -5.4911507787780423 1.0392184008178458 12.063363722672927  -5.0894085227239554 -0.13539737516453987 12.209585945723568  -4.6876662666698676 -1.3100131511469257 12.355808168774205 
 2 9 3 9
7 0 0  8 9 2  6.228343516837783 -6.4085638205578865 -8.3748460758452925  6.6300857728918707 -5.2339480445755004 -8.2286238527946516  7.0318280289459585 -4.0593322685931152 -8.0824016297440142  7.4335702850000454 -2.88471649261073 -7.9361794066933768  7.8353125410541304 -1.710100716628344 -7.7899571836427377  8.2370547971082182 -0.5354849406459582 -7.6437349605920994  8.6387970531623033 0.63913083533642756 -7.4975127375414594  9.0405393092163902 1.8137466113188137 -7.3512905144908194  9.4422815652704788 2.9883623873011982 -7.2050682914401838 
 3 9 4 9
7 0 0  8 9 2  -4.6876662666698676 -1.3100131511469257 12.355808168774205  -3.5673155462083992 -0.98250986336019452 11.908532124646705  -2.446964825746929 -0.6550065755734632 11.461256080519203  -1.3266141052854588 -0.3275032877867321 11.013980036391702  -0.20626338482398865 -8.9511731360403246e-16 10.566703992264197  0.91408733563748146 0.32750328778673038 10.119427948136696  2.034438056098951 0.65500657557346142 9.6721519040091941  3.1547887765604208 0.98250986336019264 9.2248758598816867  4.2751394970218906 1.310013151146924 8.7775998157541881 
 3 9 4 9
Polygon3D 0
PolygonOnTriangulations 0
Surfaces 6
9 1 0 0 0 8 2 9 3 2 2 9.4422815652704788 2.9883623873011982 -7.2050682914401838  1 -1.1331328694160563 -2.2426963428136104 0.00045928528233441223  0.99999999999999978 4.2751394970218906 1.310013151146924 8.7775998157541881  1 
8.3385037883211215 3.4158875664582848 -7.606810547494268  1 -0.34197298903577072 -1.8297506192519608 0.28841793228636781  0.99999999999999978 3.8733972409678037 2.48462892712931 8.6313775927035525  1 
7.2347260113717597 3.8434127456153706 -8.0085528035483566  1 0.18417692039819139 -1.4168045239523026 0.57637657929040709  0.99999999999999978 3.4716549849137159 3.6592447031116966 8.4851553696529116  1 
6.130948234422398 4.2709379247724559 -8.4102950596024435  1 0.44531946175320791 -1.0732404285078443 0.86433522629444315  0.99999999999999978 3.0699127288596291 4.8338604790940813 8.3389331466022725  1 
5.0271704574730363 4.6984631039295417 -8.8120373156565321  1 0.4632408269939608 -0.86842557126147124 1.1522938732984811  0.99999999999999978 2.6681704728055413 6.0084762550764674 8.1927109235516333  1 
3.923392680523675 5.1259882830866283 -9.2137795717106172  1 0.28155893696128603 -0.86321396928787952 1.4402525203025167  0.99999999999999978 2.2664282167514536 7.1830920310588517 8.0464887005009942  1 
2.8196149035743132 5.5535134622437141 -9.6155218277647041  1 -0.038872191268989865 -1.1012235434291076 1.7282111673065539  0.99999999999999978 1.8646859606973669 8.3577078070412369 7.9002664774503559  1 
1.7158371266249517 5.9810386414007999 -10.017264083818793  1 -0.42868531935469528 -1.6042404856489796 2.0161698143105897  0.99999999999999978 1.4629437046432798 9.5323235830236239 7.7540442543997186  1 
0.61205934967559072 6.4085638205578865 -10.419006339872878  1 -0.81849807570233157 -2.3722673988152714 2.3041284613146265  0.99999999999999978 1.0612014485891921 10.706939359006013 7.6078220313490794  1 

0 9
1 9

0 3
1 3

1 9.4422815652704788 2.9883623873011982 -7.2050682914401838 -0.34202014332566882 1.1775693440128312e-16 0.93969262078590832 -0.85165073963914661 -0.4226182617406995 -0.30997551921944472 0.3971312619671028 -0.90630778703665005 0.14454395845259918 
9 1 0 0 0 8 2 9 3 2 2 0.61205934967559072 6.4085638205578865 -10.419006339872878  1 -0.81849807570233157 -2.3722673988152714 2.3041284613146265  0.99999999999999978 1.0612014485891921 10.706939359006013 7.6078220313490794  1 
0.21031709362150336 5.2339480445754996 -10.565228562923515  1 -1.2702543284766981 -1.5756402490043357 2.1822234324352876  0.99999999999999978 -0.059149271872277726 10.379436071219278 8.0550980754765824  1 
-0.19142516243258387 4.0593322685931152 -10.711450785974154  1 -1.7220109529890921 -1.0440230701397923 2.0603184035559501  0.99999999999999978 -1.1794999923337475 10.051932783432546 8.5023741196040845  1 
-0.59316741848667109 2.8847164926107296 -10.857673009024795  1 -2.104385577646239 -0.77741325935395666 1.9384133746766152  0.99999999999999978 -2.2998507127952168 9.7244294956458148 8.9496501637315848  1 
-0.99490967454075829 1.7101007166283433 -11.003895232075433  1 -2.3480109641054039 -0.75402462468287612 1.816508345797277  0.99999999999999978 -3.4202014332566866 9.3969262078590852 9.3969262078590852  1 
-1.3966519305948455 0.5354849406459582 -11.15011745512607  1 -2.3920330952916191 -0.93023924528458291 1.6946033169179398  0.99999999999999978 -4.5405521537181572 9.0694229200723537 9.8442022519865873  1 
-1.7983941866489326 -0.63913083533642745 -11.296339678176709  1 -2.1928340503631993 -1.2452031040844358 1.5726982880386005  0.99999999999999978 -5.6609028741796275 8.7419196322856241 10.291478296114093  1 
-2.2001364427030201 -1.8137466113188137 -11.442561901227348  1 -1.7286276373560094 -1.6295489627394162 1.4507932591592638  0.99999999999999978 -6.7812535946410959 8.4144163444988926 10.738754340241593  1 
-2.6018786987571079 -2.9883623873011982 -11.588784124277991  1 -0.99941125340244452 -2.0138944496564233 1.3288882302799301  0.99999999999999978 -7.9016043151025661 8.0869130567121612 11.186030384369092  1 

1 9
2 9

0 3
1 3

1 4.2751394970218906 1.310013151146924 8.7775998157541881 0.30559311286693663 0.21984631039295452 0.92643426597622158 -0.86102581223245334 0.47919918786476517 0.1703017587084571 -0.40650633456040969 -0.8497268609125842 0.33573331947530327 
9 1 0 0 0 8 2 9 3 2 2 6.228343516837783 -6.4085638205578865 -8.3748460758452925  1 -1.3140460471161564 -1.8843233936547843 -0.97478094575236574  0.99999999999999978 -4.6876662666698676 -1.3100131511469257 12.355808168774205  1 
6.6300857728918707 -5.2339480445755004 -8.2286238527946516  1 -0.86228979434177311 -2.6809505434657397 -0.85287591687303022  0.99999999999999978 -3.5673155462083992 -0.98250986336019452 11.908532124646705  1 
7.0318280289459585 -4.0593322685931152 -8.0824016297440142  1 -0.4105331698295121 -3.2125677223300899 -0.73097088799369181  0.99999999999999978 -2.446964825746929 -0.6550065755734632 11.461256080519203  1 
7.4335702850000454 -2.88471649261073 -7.9361794066933768  1 -0.028158545172115499 -3.4791775331163333 -0.60906585911435451  0.99999999999999978 -1.3266141052854588 -0.3275032877867321 11.013980036391702  1 
7.8353125410541304 -1.710100716628344 -7.7899571836427377  1 0.21546684128674581 -3.5025661677869007 -0.48716083023501633  0.99999999999999978 -0.20626338482398865 -8.9511731360403246e-16 10.566703992264197  1 
8.2370547971082182 -0.5354849406459582 -7.6437349605920994  1 0.25948897247323693 -3.3263515471856215 -0.36525580135567892  0.99999999999999978 0.91408733563748146 0.32750328778673038 10.119427948136696  1 
8.6387970531623033 0.63913083533642756 -7.4975127375414594  1 0.060289927544626684 -3.0113876883855228 -0.24335077247634251  0.99999999999999978 2.034438056098951 0.65500657557346142 9.6721519040091941  1 
9.0405393092163902 1.8137466113188137 -7.3512905144908194  1 -0.40391648546246967 -2.6270418297306359 -0.12144574359700248  0.99999999999999978 3.1547887765604208 0.98250986336019264 9.2248758598816867  1 
9.4422815652704788 2.9883623873011982 -7.2050682914401838  1 -1.1331328694160554 -2.24269634281361 0.00045928528233441223  0.99999999999999978 4.2751394970218906 1.310013151146924 8.7775998157541881  1 

3 9
4 9

0 3
1 3

9 1 0 0 0 8 2 9 3 2 2 -2.6018786987571079 -2.9883623873011982 -11.588784124277991  1 -0.99941125340244452 -2.0138944496564233 1.3288882302799301  0.99999999999999978 -7.9016043151025661 8.0869130567121612 11.186030384369092  1 
-1.4981009218077463 -3.4158875664582844 -11.187041868223902  1 -1.7905711337827421 -2.4268401732180771 1.0409295832758907  0.99999999999999978 -7.4998620590484784 6.9122972807297751 11.332252607419735  1 
-0.39432314485838471 -3.8434127456153706 -10.785299612169814  1 -2.3167210432166576 -2.8397862685177224 0.75297093627185374  0.99999999999999978 -7.0981198029943906 5.737681504747389 11.478474830470374  1 
0.7094546320909767 -4.2709379247724568 -10.383557356115727  1 -2.5778635845717819 -3.1833503639621927 0.46501228926781574  0.99999999999999978 -6.696377546940302 4.5630657287650029 11.624697053521015  1 
1.8132324090403384 -4.6984631039295417 -9.98181510006164  1 -2.5957849498123928 -3.388165221208574 0.17705364226378048  0.99999999999999978 -6.294635290886216 3.3884499527826173 11.770919276571652  1 
2.9170101859896995 -5.1259882830866275 -9.5800728440075531  1 -2.414103059779829 -3.3933768231821344 -0.11090500474025562  0.99999999999999978 -5.89289303483213 2.2138341768002316 11.917141499622288  1 
4.0207879629390613 -5.5535134622437141 -9.1783305879534662  1 -2.0936719315494972 -3.1553672490409381 -0.39886365174429173  0.99999999999999978 -5.4911507787780423 1.0392184008178458 12.063363722672927  1 
5.1245657398884212 -5.9810386414007999 -8.7765883318993776  1 -1.7038588034638087 -2.6523503068210528 -0.68682229874833045  0.99999999999999978 -5.0894085227239554 -0.13539737516453987 12.209585945723568  1 
6.228343516837783 -6.4085638205578865 -8.3748460758452925  1 -1.3140460471161564 -1.8843233936547843 -0.97478094575236574  0.99999999999999978 -4.6876662666698676 -1.3100131511469257 12.355808168774205  1 

2 9
3 9

0 3
1 3

Triangulations 0

TShapes 34
Ve
1e-07
5 5 0
0 0

0101101
*
Ve
1e-07
-5 5 0
0 0

0101101
*
Ed
 1e-07 1 1 0
1  1 0 0 1
2  1 1 0 0 1
4 C0 1 0 2 0
0

0101000
+34 2 -33 2 *
Ve
1e-07
5 5 0
0 0

0101101
*
Ed
 1e-07 1 1 0
1  2 0 0 1
2  2 1 0 0 1
2  3 3 0 0 1
4 C0 1 0 3 0
0

0101000
+33 2 -31 3 *
Ve
1e-07
5 -5 0
0 0

0101101
*
Ed
 1e-07 1 1 0
1  3 0 0 1
2  4 1 0 0 1
4 C0 1 0 4 0
0

0101000
+29 3 -31 3 *
Ed
 1e-07 1 1 0
1  4 0 0 1
2  5 1 0 0 1
2  6 5 0 0 1
4 C0 1 0 5 0
0

0101000
+34 2 -29 3 *
Wi

0101000
+32 0 +30 0 -28 0 -27 0 *
Fa
0  1e-07 1 0

0111000
+26 0 *
Ve
1e-07
-5 -5 0
0 0

0101101
*
Ed
 1e-07 1 1 0
1  5 0 1 2
2  7 3 0 1 2
4 C0 3 0 2 0
0

0101000
+33 2 -24 2 *
Ve
1e-07
-5 5 0
0 0

0101101
*
Ed
 1e-07 1 1 0
1  6 0 0 1
2  8 3 0 0 1
2  9 6 0 0 1
4 C0 3 0 6 0
0

0101000
+24 2 -22 3 *
Ed
 1e-07 1 1 0
1  7 0 1 2
2  10 3 0 1 2
4 C0 3 0 4 0
0

0101000
+31 3 -22 3 *
Wi

0101000
+23 0 +21 0 -20 0 -30 0 *
Fa
0  1e-07 3 0

0101000
+19 0 *
Ve
1e-07
5 -5 0
0 0

0101101
*
Ed
 1e-07 1 1 0
1  8 0 2 3
2  11 6 0 2 3
4 C0 6 0 2 0
0

0101000
+24 2 -17 2 *
Ve
1e-07
-5 -5 0
0 0

0101101
*
Ed
 1e-07 1 1 0
1  9 0 0 1
2  12 6 0 0 1
2  13 5 0 0 1
4 C0 6 0 5 0
0

0101000
+17 2 -15 3 *
Ed
 1e-07 1 1 0
1  10 0 2 3
2  14 6 0 2 3
4 C0 6 0 4 0
0

0101000
+22 3 -15 3 *
Wi

0101000
+16 0 +14 0 -13 0 -21 0 *
Fa
0  1e-07 6 0

0101000
+12 0 *
Ed
 1e-07 1 1 0
1  11 0 3 4
2  15 5 0 3 4
4 C0 5 0 2 0
0

0101000
+17 2 -34 2 *
Ed
 1e-07 1 1 0
1  12 0 3 4
2  16 5 0 3 4
4 C0 5 0 4 0
0

0101000
+15 3 -29 3 *
Wi

0101000
+10 0 +27 0 -9 0 -14 0 *
Fa
0  1e-07 5 0

0101000
+8 0 *
Wi

0101000
-32 0 -23 0 -16 0 -10 0 *
Fa
0  1e-07 2 0

0101000
-6 0 *
Wi

0101000
+28 0 +20 0 +13 0 +9 0 *
Fa
0  1e-07 4 0

0111000
+4 0 *
Sh

0101100
+25 0 +18 0 +11 0 +7 0 -5 0 +3 0 *
So

1100100
+2 0 *

+1 1  