
CASCADE Topology V1, (c) Matra-Datavision
Locations 3
1
0.469846310392954 -0.342020143325669 0.813797681349374              10 
0.171010071662834 0.939692620785908 0.296198132726024               0 
-0.866025403784439               0             0.5              30 
1
0.653100778927739 0.171010071662834 0.737709243505768 0.7366721700147 
0.116977778440511 0.939692620785908 -0.32139380484327 -6.84040286651337 
-0.748181510006164 0.296198132726024 0.593709604313854 21.2759536269875 
1
0.469846310392954 0.171010071662834 -0.866025403784439 21.2822990096036 
-0.342020143325669 0.939692620785908               0 3.42020143325669 
0.813797681349374 0.296198132726024             0.5 -23.1379768134937 
Curve2ds 16
1 0 0 1 0 
1 1 0 0 1 
1 1 0 0 1 
1 0 1 1 0 
1 0 0 0 1 
1 4 0 0 1 
1 0 0 1 0 
1 2 0 0 1 
1 2 0 0 1 
1 0 1 1 0 
1 0 0 1 0 
1 3 0 0 1 
1 3 0 0 1 
1 0 1 1 0 
1 0 0 1 0 
1 0 1 1 0 
Curves 12
7 0 0  8 9 2  2.6959745067979153 -6.489469531191844 19.031409096968979  2.7967077539527549 -5.9359448872993017 19.205884199052562  2.8111126260434975 -5.3978824687993336 19.4792557589073  2.733271873148885 -4.9078018040722249 19.8412723590884  2.5643656561116122 -4.4969443327087149 20.27355561962349  2.3134120884755327 -4.1912875229435702 20.750837727818531  1.9965142184904545 -4.0077245787063625 21.243965140419963  1.6344104992156685 -3.95241940489653 21.723832737280464  1.2497023850032023 -4.0213250041556492 22.164548025165541 
 0 9 1 9
7 1 0  5 6 2  1.2497023850032023 -4.0213250041556492 22.164548025165541  1 -28.210471934909293 31.122996571259389 19.426985688449975  1.0000000000000022 11.050825291149565 -76.632984009767938 -6.4086213541869554  0.99999999999999334 10.48137778249164 102.30985802024416 -12.453439652505695  1.0000000000000075 6.7903336424060816 -28.947339817933649 -14.105833610829182  0.99999999999999689 19.788117815953012 9.8287652538145753 -25.725974556610485  1
 0 6 1 6
7 0 0  8 9 2  24.486580919882556 6.4085638205578865 -17.587997743116748  23.899273031891362 6.8360889997149705 -18.605244844803472  23.311965143900167 7.263614178872059 -19.622491946490186  22.724657255908976 7.6911393580291465 -20.639739048176903  22.137349367917786 8.1186645371862323 -21.65698614986362  21.550041479926591 8.5461897163433171 -22.674233251550334  20.962733591935393 8.973714895500402 -23.691480353237054  20.375425703944206 9.4012400746574869 -24.708727454923771  19.788117815953012 9.8287652538145753 -25.725974556610485 
 0 9 1 9
7 1 0  5 6 2  2.6959745067979153 -6.489469531191844 19.031409096968979  1 2.0341652999243367 24.463445489293825 16.291994516075818  1.0000000000000022 -11.968686778321283 -42.910269762573662 -16.453547002965767  0.99999999999999334 24.85029661823247 42.321021650234712 10.194643764222826  1.0000000000000075 3.6642054865616083 -11.600720170673833 -25.67509502481753  0.99999999999999689 24.486580919882556 6.4085638205578865 -17.587997743116748  1
 0 6 1 6
7 0 0  8 9 2  1.2497023850032023 -4.0213250041556492 22.164548025165541  0.8649942707907361 -4.0902306034147689 22.605263313050617  0.4576815194493018 -4.28334701912204 23.006826569410634  0.050366029363696718 -4.5966248139786376 23.343346070098626  -0.33249715926239931 -5.0158054143716848 23.59215401273158  -0.66736405558026024 -5.5168943806892958 23.736984944694271  -0.93483523397855683 -6.0688243401883053 23.770552013241961  -1.1218969196136725 -6.6378115579423627 23.69497325908954  -1.222630166768516 -7.1913362018349067 23.52049815700596 
 1 9 2 9
7 1 0  5 6 2  -1.222630166768516 -7.1913362018349067 23.52049815700596  1 -34.741910073821529 -1.7866536371123725 11.911423238802174  1.0000000000000022 44.403571641733151 -44.468131761544896 13.093162064167972  0.99999999999999334 -49.156357266863353 75.72957332832496 -35.228097924867164  1.0000000000000075 24.064636833255946 -18.696604812538585 -8.3232619950227829  0.99999999999999689 18.078017099324668 0.43183904595548794 -28.687955883870728  1
 0 6 1 6
7 0 0  8 9 2  19.788117815953012 9.8287652538145753 -25.725974556610485  19.574355226374472 8.6541494778321901 -26.096222222518012  19.360592636795925 7.4795337018498032 -26.466469888425543  19.146830047217385 6.3049179258674144 -26.836717554333081  18.933067457638842 5.1303021498850301 -27.206965220240615  18.719304868060298 3.9556863739026449 -27.577212886148143  18.505542278481755 2.7810705979202592 -27.94746055205567  18.291779688903208 1.606454821937874 -28.317708217963201  18.078017099324668 0.43183904595548794 -28.687955883870728 
 1 9 2 9
7 0 0  8 9 2  -1.222630166768516 -7.1913362018349067 23.52049815700596  -1.3233634139233592 -7.7448608457274508 23.34602305492238  -1.3377682860140858 -8.28292326422741 23.072651495067628  -1.2599275331195088 -8.7730039289545321 22.710634894886564  -1.0910213160821909 -9.1838614003180368 22.27835163435142  -0.84006774844614496 -9.4895182100831725 21.801069526156425  -0.52316987846105123 -9.6730811543203927 21.307942113554965  -0.16106615918626976 -9.7283863281302203 20.828074516694475  0.22364195502619982 -9.6594807288711095 20.387359228809387 
 2 9 3 9
7 1 0  5 6 2  0.22364195502619982 -9.6594807288711095 20.387359228809387  1 -4.4972728389878975 -8.4462047190777909 8.7764320664281161  1.0000000000000022 21.384059572262267 -10.745417514350972 3.0482364153889199  0.99999999999999334 -34.787438431122446 15.740736958315841 -12.580014508138396  1.0000000000000075 20.938508677411445 -1.3499851652789121 -19.892523409011233  0.99999999999999689 22.776480203254213 -2.9883623873011982 -20.549979070376992  1
 0 6 1 6
7 0 0  8 9 2  18.078017099324668 0.43183904595548794 -28.687955883870728  18.665324987315859 0.0043138667984021304 -27.670708782184015  19.252632875307047 -0.42321131235868376 -26.653461680497298  19.839940763298248 -0.85073649151576969 -25.636214578810581  20.427248651289435 -1.2782616706728551 -24.618967477123864  21.01455653928063 -1.7057868498299411 -23.601720375437143  21.601864427271821 -2.1333120289870275 -22.584473273750433  22.189172315263015 -2.5608372081441138 -21.567226172063716  22.776480203254213 -2.9883623873011982 -20.549979070376992 
 2 9 3 9
7 0 0  8 9 2  0.22364195502619982 -9.6594807288711095 20.387359228809387  0.60835006923866941 -9.5905751296120005 19.946643940924304  1.0156628205800771 -9.3974587139046459 19.545080684564365  1.422978310665729 -9.0841809190482241 19.20856118387622  1.8058414992917693 -8.665000318654954 18.959753241243455  2.1407083956096837 -8.1639113523375268 18.814922309280597  2.4081795740079386 -7.6119813928384144 18.781355240733014  2.5952412596430774 -7.0429941750843952 18.856933994885388  2.6959745067979153 -6.4894695311918431 19.031409096968979 
 3 9 4 9
7 0 0  8 9 2  22.776480203254213 -2.9883623873011982 -20.549979070376992  22.99024279283276 -1.8137466113188134 -20.179731404469461  23.204005382411296 -0.63913083533642767 -19.809483738561934  23.417767971989839 0.53548494064595786 -19.439236072654403  23.631530561568383 1.7101007166283431 -19.068988406746872  23.845293151146922 2.8847164926107278 -18.698740740839337  24.059055740725469 4.0593322685931135 -18.328493074931806  24.272818330304009 5.2339480445754996 -17.958245409024276  24.486580919882556 6.4085638205578865 -17.587997743116748 
 3 9 4 9
Polygon3D 0
PolygonOnTriangulations 0
Surfaces 6
9 1 0 0 0 8 5 9 6 2 2 2.6959745067979153 -6.489469531191844 19.031409096968979  1 2.0341652999243367 24.463445489293825 16.291994516075818  1.0000000000000022 -11.968686778321283 -42.910269762573662 -16.453547002965767  0.99999999999999334 24.85029661823247 42.321021650234712 10.194643764222826  1.0000000000000075 3.6642054865616083 -11.600720170673833 -25.67509502481753  0.99999999999999689 24.486580919882556 6.4085638205578865 -17.587997743116748  1 
2.7967077539527549 -5.9359448872993017 19.205884199052562  1 -3.7055024856241672 23.996807506414772 16.683895483754696  1.0000000000000022 -4.2102319727099058 -44.02664478790512 -14.423653367374225  0.99999999999999334 18.81084609856654 47.020671717058434 5.9156610756897603  1.0000000000000075 6.0942335369943752 -12.353095947510379 -23.11097307090369  0.99999999999999689 23.899273031891362 6.8360889997149705 -18.605244844803472  1 
2.8111126260434975 -5.3978824687993336 19.4792557589073  1 -8.7726461474894482 23.551772641013475 17.044562145133863  1.0000000000000022 1.8428875696217852 -45.161180016012125 -12.640431154708159  0.99999999999999334 14.25953195933168 51.729404831122686 2.133937492717612  1.0000000000000075 7.8074122313696783 -13.107822465623496 -20.93751890600555  0.99999999999999689 23.311965143900167 7.263614178872059 -19.622491946490186  1 
2.733271873148885 -4.9078018040722249 19.8412723590884  1 -13.159003476958791 23.328462911894349 17.388316813113832  1.0000000000000022 6.1837369294196982 -46.80657539310431 -11.115918585547389  0.99999999999999334 11.199816960476525 56.895579952675781 -1.1445088766032383  1.0000000000000075 8.8028484175776125 -14.092747612846631 -19.156287872810086  0.99999999999999689 22.724657255908976 7.6911393580291465 -20.639739048176903  1 
2.5643656561116122 -4.4969443327087149 20.27355561962349  1 -16.911594970486114 23.525180842847192 17.732046103269656  1.0000000000000022 8.945559782029914 -49.453930430850306 -9.8418750725364088  0.99999999999999334 9.5128395859140653 62.966711432641382 -3.9545355064781575  1.0000000000000075 9.138573533777544 -15.535476251012916 -17.736722420797303  0.99999999999999689 22.137349367917786 8.1186645371862323 -21.65698614986362  1 
2.3134120884755327 -4.1912875229435702 20.750837727818531  1 -20.133858775984489 24.313894177531363 18.093452420427067  1.0000000000000022 10.402939630093329 -53.532394036091588 -8.7882616503942277  0.99999999999999334 8.9567178037184654 70.334551472514775 -6.3727034896740538  1.0000000000000075 8.9317840833984175 -17.635462532774948 -16.615890169006601  0.99999999999999689 21.550041479926591 8.5461897163433171 -22.674233251550334  1 
1.9965142184904545 -4.0077245787063625 21.243965140419963  1 -22.975027780808571 25.815450803198704 18.48871172667879  1.0000000000000022 10.943100950611163 -59.347536344597003 -7.9060048232950715  0.99999999999999334 9.1919181894989119 79.278879182502209 -8.5094116103096695  1.0000000000000075 8.3465236679571326 -20.535405243849254 -15.705062593119843  0.99999999999999689 20.962733591935393 8.973714895500402 -23.691480353237054  1 
1.6344104992156685 -3.95241940489653 21.723832737280464  1 -25.608540992397025 28.087034499244684 18.930496821344914  1.0000000000000022 11.010238074574158 -67.049311915111389 -7.1343182958375735  0.99999999999999334 9.830008010442107 89.938101980151998 -10.492927865457078  1.0000000000000075 7.5701473216509667 -24.306233412399848 -14.902470687499482  0.99999999999999689 20.375425703944206 9.4012400746574869 -24.708727454923771  1 
1.2497023850032023 -4.0213250041556492 22.164548025165541  1 -28.210471934909293 31.122996571259389 19.426985688449975  1.0000000000000022 11.050825291149565 -76.632984009767938 -6.4086213541869554  0.99999999999999334 10.48137778249164 102.30985802024416 -12.453439652505695  1.0000000000000075 6.7903336424060816 -28.947339817933649 -14.105833610829182  0.99999999999999689 19.788117815953012 9.8287652538145753 -25.725974556610485  1 

0 9
1 9

0 6
1 6

1 2.6959745067979153 -6.489469531191844 19.031409096968979 0.73770924350576828 -0.32139380484326996 0.59370960431385422 -0.65310077892773899 -0.11697777844051052 0.74818151000616395 -0.17101007166283488 -0.93969262078590854 -0.29619813272602369 
9 1 0 0 0 8 5 9 6 2 2 1.2497023850032023 -4.0213250041556492 22.164548025165541  1 -28.210471934909293 31.122996571259389 19.426985688449975  1.0000000000000022 11.050825291149565 -76.632984009767938 -6.4086213541869554  0.99999999999999334 10.48137778249164 102.30985802024416 -12.453439652505695  1.0000000000000075 6.7903336424060816 -28.947339817933649 -14.105833610829182  0.99999999999999689 19.788117815953012 9.8287652538145753 -25.725974556610485  1 
0.8649942707907361 -4.0902306034147689 22.605263313050617  1 -28.027455480855615 24.875741305617993 18.281767534544596  1.0000000000000022 12.533723987972502 -67.302868417740356 -4.2398712748855516  0.99999999999999334 5.3987835173274394 94.143595862304053 -14.560304127675792  1.0000000000000075 7.7985509035841076 -25.200836260316418 -13.998742073989778  0.99999999999999689 19.574355226374472 8.6541494778321901 -26.096222222518012  1 
0.4576815194493018 -4.28334701912204 23.006826569410634  1 -27.812854870983013 19.392864476554884 17.191253065451598  1.0000000000000022 13.990067993150046 -59.854649400809564 -2.1171114734191789  0.99999999999999334 0.32947337818354433 87.689866972294638 -16.6441627397041  1.0000000000000075 8.803328820727911 -22.324610946280458 -13.897606462105148  0.99999999999999689 19.360592636795925 7.4795337018498032 -26.466469888425543  1 
0.050366029363696718 -4.5966248139786376 23.343346070098626  1 -27.742744249856507 14.668702374557629 16.163619190619787  1.0000000000000022 15.866332117429032 -54.283553253987002 0.024239667453400834  0.99999999999999334 -5.1161623799012803 82.946275864769902 -18.835203337883975  1.0000000000000075 9.9923460593040652 -20.318039559982012 -13.700145816874048  0.99999999999999689 19.146830047217385 6.3049179258674144 -26.836717554333081  1 
-0.33249715926239931 -5.0158054143716848 23.59215401273158  1 -27.995755470504548 10.634761283698536 15.202544436975066  1.0000000000000022 18.611076365233846 -50.430117050028521 2.2525300113225564  0.99999999999999334 -11.328740294683815 79.769658829152377 -21.265476380397413  1.0000000000000075 11.553522977918403 -19.108961805534022 -13.303611962063023  0.99999999999999689 18.933067457638842 5.1303021498850301 -27.206965220240615  1 
-0.66736405558026024 -5.5168943806892958 23.736984944694271  1 -28.731517965402332 7.160271412852234 14.306197422234023  1.0000000000000022 22.620265685432251 -47.980429216592071 4.6319719953785414  0.99999999999999334 -18.652165964959586 77.876064186974418 -24.052953479579152  1.0000000000000075 13.65203500852474 -18.553598739082357 -12.617315985528629  0.99999999999999689 18.719304868060298 3.9556863739026449 -27.577212886148143  1 
-0.93483523397855683 -6.0688243401883053 23.770552013241961  1 -30.067974735567045 4.0661533626536706 13.467157408693687  1.0000000000000022 28.180677945149842 -46.499362011951618 7.2137258437468912  0.99999999999999334 -27.334421309381625 76.870748993304446 -27.284761041921119  1.0000000000000075 16.406657740112685 -18.451721990356369 -11.575590449892431  0.99999999999999689 18.505542278481755 2.7810705979202592 -27.94746055205567  1 
-1.1218969196136725 -6.6378115579423627 23.69497325908954  1 -32.068680298549836 1.1505524937276776 12.673673247332829  1.0000000000000022 35.439457124555751 -45.492829627932785 10.030108177982914  0.99999999999999334 -37.501321079275698 76.304705086660377 -31.007799898343322  1.0000000000000075 19.877222603832465 -18.575339992852996 -10.144760125319387  0.99999999999999689 18.291779688903208 1.606454821937874 -28.317708217963201  1 
-1.222630166768516 -7.1913362018349067 23.52049815700596  1 -34.741910073821529 -1.7866536371123725 11.911423238802174  1.0000000000000022 44.403571641733151 -44.468131761544896 13.093162064167972  0.99999999999999334 -49.156357266863353 75.72957332832496 -35.228097924867164  1.0000000000000075 24.064636833255946 -18.696604812538585 -8.3232619950227829  0.99999999999999689 18.078017099324668 0.43183904595548794 -28.687955883870728  1 

1 9
2 9

0 6
1 6

1 24.486580919882556 6.4085638205578865 -17.587997743116748 0.86602540378443849 3.9252311467094373e-16 -0.50000000000000011 -0.45315389351832497 -0.4226182617406995 -0.78488556722139591 -0.21130913087035011 0.90630778703664994 -0.36599815077066661 
9 1 0 0 0 8 5 9 6 2 2 0.22364195502619982 -9.6594807288711095 20.387359228809387  1 -4.4972728389878975 -8.4462047190777909 8.7764320664281161  1.0000000000000022 21.384059572262267 -10.745417514350972 3.0482364153889199  0.99999999999999334 -34.787438431122446 15.740736958315841 -12.580014508138396  1.0000000000000075 20.938508677411445 -1.3499851652789121 -19.892523409011233  0.99999999999999689 22.776480203254213 -2.9883623873011982 -20.549979070376992  1 
0.60835006923866941 -9.5905751296120005 19.946643940924304  1 -4.680289293041632 -2.1989494534363669 9.921650220333424  1.0000000000000022 19.901160875439476 -20.075533106378639 0.87948633608775195  0.99999999999999334 -29.704844165958391 23.906999116256031 -10.473150032968574  1.0000000000000075 19.930291416233477 -5.0964887228962015 -19.999614945850503  0.99999999999999689 22.99024279283276 -1.8137466113188134 -20.179731404469461  1 
1.0156628205800771 -9.3974587139046459 19.545080684564365  1 -4.8948899029139437 3.2839273756261846 11.012164689426497  1.0000000000000022 18.444816870261153 -27.523752123308007 -1.2432734653790647  0.99999999999999334 -24.635534026813815 30.360728006264107 -8.3892914209396707  1.0000000000000075 18.925513499089352 -7.9727140369314817 -20.100750557735466  0.99999999999999689 23.204005382411296 -0.63913083533642767 -19.809483738561934  1 
1.422978310665729 -9.0841809190482241 19.20856118387622  1 -4.9650005240410593 8.0080894776245728 12.03979856425836  1.0000000000000022 16.568552745983784 -33.094848270133397 -3.3846246062513319  0.99999999999999334 -19.189898268730406 35.104319113791441 -6.1982508227603814  1.0000000000000075 17.736496260513874 -9.9792854232312482 -20.298211202966137  0.99999999999999689 23.417767971989839 0.53548494064595786 -19.439236072654403  1 
1.8058414992917693 -8.665000318654954 18.959753241243455  1 -4.7119893033922775 12.042030568482231 13.000873317902977  1.0000000000000022 13.823808498177007 -36.948284474088304 -5.6129149501207563  0.99999999999999334 -12.977320353946139 38.280936149405711 -3.7679777802463477  1.0000000000000075 16.1753193418987 -11.188363177677578 -20.694745057777624  0.99999999999999689 23.631530561568383 1.7101007166283431 -19.068988406746872  1 
2.1407083956096837 -8.1639113523375268 18.814922309280597  1 -3.9762268084951962 15.51652043932971 13.89722033264402  1.0000000000000022 9.814619177980461 -39.397972307527724 -7.9923569341762626  0.99999999999999334 -5.653894683672025 40.174530791586413 -0.98050068106537902  1.0000000000000075 14.076807311293161 -11.74372624413064 -21.381041034311522  0.99999999999999689 23.845293151146922 2.8847164926107278 -18.698740740839337  1 
2.4081795740079386 -7.6119813928384144 18.781355240733014  1 -2.6397700383300013 18.610638489527616 14.736260346184398  1.0000000000000022 4.2542069182615965 -40.879039512166528 -10.574110782545024  0.99999999999999334 3.0283606607511495 41.17984598525485 2.2513068812771779  1.0000000000000075 11.322184579704661 -11.845602992855845 -22.422766569948084  0.99999999999999689 24.059055740725469 4.0593322685931135 -18.328493074931806  1 
2.5952412596430774 -7.0429941750843952 18.856933994885388  1 -0.63906447534739497 21.526239358453847 15.529744507545244  1.0000000000000022 -3.0045722611438088 -41.885571896185958 -13.390493116780874  0.99999999999999334 13.195260430644765 41.745889891899473 5.9743457376991289  1.0000000000000075 7.8516197159851302 -11.721984990359509 -23.853596894520965  0.99999999999999689 24.272818330304009 5.2339480445754996 -17.958245409024276  1 
2.6959745067979153 -6.4894695311918431 19.031409096968979  1 2.0341652999243669 24.463445489293829 16.291994516075849  1.0000000000000022 -11.968686778321365 -42.910269762573677 -16.453547002965852  0.99999999999999334 24.850296618232559 42.321021650234734 10.194643764222919  1.0000000000000075 3.664205486561575 -11.600720170673842 -25.675095024817566  0.99999999999999689 24.486580919882556 6.4085638205578865 -17.587997743116748  1 

3 9
4 9

0 6
1 6

9 1 0 0 0 8 5 9 6 2 2 -1.222630166768516 -7.1913362018349067 23.52049815700596  1 -34.741910073821529 -1.7866536371123725 11.911423238802174  1.0000000000000022 44.403571641733151 -44.468131761544896 13.093162064167972  0.99999999999999334 -49.156357266863353 75.72957332832496 -35.228097924867164  1.0000000000000075 24.064636833255946 -18.696604812538585 -8.3232619950227829  0.99999999999999689 18.078017099324668 0.43183904595548794 -28.687955883870728  1 
-1.3233634139233592 -7.7448608457274508 23.34602305492238  1 -29.002242288273028 -1.3200156542331818 11.519522271123343  1.0000000000000022 36.645116836121758 -43.35175673621378 11.063268428576245  0.99999999999999334 -43.116906747197405 71.02992326150158 -30.949115236333874  1.0000000000000075 21.634608782823172 -17.944229035702175 -10.887383948936725  0.99999999999999689 18.665324987315859 0.0043138667984021304 -27.670708782184015  1 
-1.3377682860140858 -8.28292326422741 23.072651495067628  1 -23.93509862640779 -0.87498078883206343 11.158855609744162  1.0000000000000022 30.591997293790186 -42.217221508106348 9.2800462159102555  0.99999999999999334 -38.565592607962628 66.321190147436909 -27.167391653361864  1.0000000000000075 19.921430088447927 -17.189502517588874 -13.060838113834764  0.99999999999999689 19.252632875307047 -0.42321131235868376 -26.653461680497298  1 
-1.2599275331195088 -8.7730039289545321 22.710634894886564  1 -19.548741296938175 -0.6516710597128913 10.815100941764229  1.0000000000000022 26.251147933991572 -40.571826131014248 7.755533646749301  0.99999999999999334 -35.505877609106861 61.155015025883891 -23.888945284040719  1.0000000000000075 18.925993902239696 -16.20457737036579 -14.842069147030429  0.99999999999999689 19.839940763298248 -0.85073649151576969 -25.636214578810581  1 
-1.0910213160821909 -9.1838614003180368 22.27835163435142  1 -15.79614980341128 -0.84838899066564177 10.471371651608406  1.0000000000000022 23.489325081382457 -37.924471093268508 6.4814901337385189  0.99999999999999334 -33.818900234545382 55.083883545918546 -21.078918654166163  1.0000000000000075 18.590268786040216 -14.761848732199621 -16.261634599042946  0.99999999999999689 20.427248651289435 -1.2782616706728551 -24.618967477123864  1 
-0.84006774844614496 -9.4895182100831725 21.801069526156425  1 -12.573885997912559 -1.6371023253498862 10.109965334451056  1.0000000000000022 22.031945233318154 -33.846007488027027 5.4278767115959967  0.99999999999999334 -33.262778452348982 47.716043506044961 -18.660750670969769  1.0000000000000075 18.79705823641897 -12.661862450437471 -17.38246685083395  0.99999999999999689 21.01455653928063 -1.7057868498299411 -23.601720375437143  1 
-0.52316987846105123 -9.6730811543203927 21.307942113554965  1 -9.7327169930886974 -3.1386589510171312 9.7147060281992346  1.0000000000000022 21.491783912800877 -28.03086517952185 4.5456198844971905  0.99999999999999334 -33.497978838129946 38.771715796057741 -16.524042550334595  1.0000000000000075 19.382318651860498 -9.7619197393632824 -18.293294426720472  0.99999999999999689 21.601864427271821 -2.1333120289870275 -22.584473273750433  1 
-0.16106615918626976 -9.7283863281302203 20.828074516694475  1 -7.0992037815001598 -5.4102426470632867 9.2729209335331202  1.0000000000000022 21.424646788837663 -20.329089609007028 3.7739333570396245  0.99999999999999334 -34.13606865907294 28.112492998407532 -14.540526295187075  1.0000000000000075 20.15869499816657 -5.9910915708125039 -19.0958863323409  0.99999999999999689 22.189172315263015 -2.5608372081441138 -21.567226172063716  1 
0.22364195502619982 -9.6594807288711095 20.387359228809387  1 -4.4972728389878975 -8.4462047190777909 8.7764320664281161  1.0000000000000022 21.384059572262267 -10.745417514350972 3.0482364153889199  0.99999999999999334 -34.787438431122446 15.740736958315841 -12.580014508138396  1.0000000000000075 20.938508677411445 -1.3499851652789121 -19.892523409011233  0.99999999999999689 22.776480203254213 -2.9883623873011982 -20.549979070376992  1 

2 9
3 9

0 6
1 6

Triangulations 0

TShapes 34
Ve
1.00000000227761e-07
3 -7.85494496103628e-16 0
0 0

0101101
*
Ve
1.00000000230228e-07
2.44535758822163e-16 3 0
0 0

0101101
*
Ed
 1e-07 1 1 0
1  1 0 0 1
2  1 1 0 0 1
4 C0 1 0 2 0
0

0101000
+34 2 -33 2 *
Ve
1e-07
-5 5 0
0 0

0101101
*
Ed
 1e-07 1 1 0
1  2 0 0 1
2  2 1 0 0 1
2  3 3 0 0 1
4 C0 1 0 3 0
0

0101000
+33 2 -31 3 *
Ve
1e-07
5 5 0
0 0

0101101
*
Ed
 1e-07 1 1 0
1  3 0 0 1
2  4 1 0 0 1
4 C0 1 0 4 0
0

0101000
+29 3 -31 3 *
Ed
 1e-07 1 1 0
1  4 0 0 1
2  5 1 0 0 1
2  6 5 0 0 1
4 C0 1 0 5 0
0

0101000
+34 2 -29 3 *
Wi

0101000
+32 0 +30 0 -28 0 -27 0 *
Fa
0  1e-07 1 0

0111000
+26 0 *
Ve
1.00000000127924e-07
-3 2.39469591865925e-16 0
0 0

0101101
*
Ed
 1e-07 1 1 0
1  5 0 1 2
2  7 3 0 1 2
4 C0 3 0 2 0
0

0101000
+33 2 -24 2 *
Ve
1e-07
-5 -5 0
0 0

0101101
*
Ed
 1e-07 1 1 0
1  6 0 0 1
2  8 3 0 0 1
2  9 6 0 0 1
4 C0 3 0 6 0
0

0101000
+24 2 -22 3 *
Ed
 1e-07 1 1 0
1  7 0 1 2
2  10 3 0 1 2
4 C0 3 0 4 0
0

0101000
+31 3 -22 3 *
Wi

0101000
+23 0 +21 0 -20 0 -30 0 *
Fa
0  1e-07 3 0

0101000
+19 0 *
Ve
1e-07
-5.51091059616309e-16 -3 0
0 0

0101101
*
Ed
 1e-07 1 1 0
1  8 0 2 3
2  11 6 0 2 3
4 C0 6 0 2 0
0

0101000
+24 2 -17 2 *
Ve
1e-07
5 -5 0
0 0

0101101
*
Ed
 1e-07 1 1 0
1  9 0 0 1
2  12 6 0 0 1
2  13 5 0 0 1
4 C0 6 0 5 0
0

0101000
+17 2 -15 3 *
Ed
 1e-07 1 1 0
1  10 0 2 3
2  14 6 0 2 3
4 C0 6 0 4 0
0

0101000
+22 3 -15 3 *
Wi

0101000
+16 0 +14 0 -13 0 -21 0 *
Fa
0  1e-07 6 0

0111000
+12 0 *
Ed
 1e-07 1 1 0
1  11 0 3 4
2  15 5 0 3 4
4 C0 5 0 2 0
0

0101000
+17 2 -34 2 *
Ed
 1e-07 1 1 0
1  12 0 3 4
2  16 5 0 3 4
4 C0 5 0 4 0
0

0101000
+15 3 -29 3 *
Wi

0101000
+10 0 +27 0 -9 0 -14 0 *
Fa
0  1e-07 5 0

0101000
+8 0 *
Wi

0101000
-32 0 -23 0 -16 0 -10 0 *
Fa
0  1e-07 2 0

0101000
-6 0 *
Wi

0101000
+28 0 +20 0 +13 0 +9 0 *
Fa
0  1e-07 4 0

0101000
-4 0 *
Sh

0101100
+25 0 +18 0 +11 0 +7 0 -5 0 -3 0 *
So

1100100
-2 0 *

+1 1  