
CASCADE Topology V1, (c) Matra-Datavision
Locations 2
1
              1               0               0               0 
              0               1               0               0 
              0               0               1               0 
1
0.586824088833465 -0.642787609686539 0.492403876506104               0 
0.492403876506104 0.766044443118978 0.413175911166535               5 
-0.642787609686539 1.38777878078145e-16 0.766044443118978              20 
Curve2ds 16
1 0 0 1 0 
1 1 0 0 1 
1 1 0 0 1 
1 0 1 1 0 
1 0 0 0 1 
1 4 0 0 1 
1 0 0 1 0 
1 2 0 0 1 
1 2 0 0 1 
1 0 1 1 0 
1 0 0 1 0 
1 3 0 0 1 
1 3 0 0 1 
1 0 1 1 0 
1 0 0 1 0 
1 0 1 1 0 
Curves 12
7 0 0  8 9 2  5 5 0  3.7500000000000004 5 0  2.5 5 0  1.2499999999999998 5 0  -2.7755575615628914e-17 5 0  -1.2500000000000002 5 0  -2.5000000000000004 5 0  -3.7500000000000004 5 0  -5 5 0 
 0 9 1 9
7 1 0  2 3 2  -5 5 0  1 0.82914385963034754 -2.2227305513584197 12.445115341603639  0.99999999999999978 -0.27981760426537194 11.292241598125413 16.786061951567305  1
 0 3 1 3
7 0 0  8 9 2  6.1480584926000228 3.6317971669356304 16.786061951567302  5.3445739804918508 4.5893527208343547 16.786061951567305  4.5410894683836744 5.5469082747330765 16.786061951567305  3.737604956275502 6.5044638286317991 16.786061951567305  2.9341204441673265 7.4620193825305208 16.786061951567305  2.1306359320591515 8.4195749364292425 16.786061951567305  1.3271514199509771 9.377130490327966 16.786061951567305  0.52366690784280268 10.334686044226688 16.786061951567305  -0.27981760426537194 11.292241598125413 16.786061951567305 
 0 9 1 9
7 1 0  2 3 2  5 5 0  1 -0.23338656762438231 -2.4715733621280944 10.38798585339535  0.99999999999999978 6.1480584926000228 3.6317971669356304 16.786061951567302  1
 0 3 1 3
7 0 0  8 9 2  -5 5 0  -5 3.7500000000000004 0  -5 2.5 0  -5 1.25 0  -5 -2.7755575615628914e-17 0  -5 -1.2499999999999998 0  -5 -2.5 0  -5 -3.7500000000000004 0  -5 -5 0 
 1 9 2 9
7 1 0  2 3 2  -5 -5 0  1 0.23338656762438231 -2.0581959457441421 11.59056524397328  0.99999999999999978 -6.1480584926000228 6.3682028330643679 23.213938048432706  1
 0 3 1 3
7 0 0  8 9 2  -0.27981760426537194 11.292241598125413 16.786061951567305  -1.013347715307203 10.676736752492783 17.589546463675482  -1.7468778263490345 10.061231906860149 18.393030975783649  -2.4804079373908658 9.4457270612275188 19.196515487891826  -3.2139380484326976 8.8302222155948922 20  -3.9474681594745289 8.214717369962262 20.803484512108174  -4.6809982705163611 7.5992125243296318 21.606969024216351  -5.4145283815581937 6.9837076786970007 22.410453536324528  -6.1480584926000228 6.3682028330643679 23.213938048432706 
 1 9 2 9
7 0 0  8 9 2  -5 -5 0  -3.7500000000000004 -5 0  -2.5000000000000004 -5 0  -1.2500000000000002 -5 0  0 -5 0  1.2499999999999998 -5 0  2.5 -5 0  3.7500000000000004 -5 0  5 -5 0 
 2 9 3 9
7 1 0  2 3 2  5 -5 0  1 -0.82914385963032655 -2.3070387565138337 9.5334357557649856  0.99999999999999978 0.27981760426537194 -1.2922415981254112 23.213938048432702  1
 0 3 1 3
7 0 0  8 9 2  -6.1480584926000228 6.3682028330643679 23.213938048432706  -5.3445739804918508 5.4106472791656453 23.213938048432702  -4.5410894683836744 4.4530917252669235 23.213938048432702  -3.7376049562754998 3.4955361713682009 23.213938048432702  -2.9341204441673256 2.5379806174694792 23.213938048432702  -2.1306359320591515 1.5804250635707566 23.213938048432702  -1.3271514199509771 0.62286950967203403 23.213938048432702  -0.52366690784280268 -0.33468604422668863 23.213938048432702  0.27981760426537194 -1.2922415981254112 23.213938048432702 
 2 9 3 9
7 0 0  8 9 2  5 -5 0  5 -3.7500000000000004 0  5 -2.5 0  5 -1.25 0  5 -2.7755575615628914e-17 0  5 1.2499999999999996 0  5 2.5 0  5 3.7499999999999991 0  5 5 0 
 3 9 4 9
7 0 0  8 9 2  0.27981760426537194 -1.2922415981254112 23.213938048432702  1.013347715307203 -0.67673675249278098 22.410453536324528  1.7468778263490345 -0.061231906860150814 21.606969024216351  2.4804079373908658 0.55427293877247941 20.803484512108174  3.2139380484326976 1.1697777844051096 20  3.9474681594745293 1.7852826300377398 19.196515487891823  4.680998270516362 2.4007874756703704 18.393030975783649  5.4145283815581937 3.0162923213030002 17.589546463675475  6.1480584926000228 3.6317971669356304 16.786061951567302 
 3 9 4 9
Polygon3D 0
PolygonOnTriangulations 0
Surfaces 6
9 1 0 0 0 8 2 9 3 2 2 5 5 0  1 -0.23338656762438231 -2.4715733621280944 10.38798585339535  0.99999999999999978 6.1480584926000228 3.6317971669356304 16.786061951567302  1 
3.7500000000000004 5 0  1 0.41653755719762753 -1.7955726659080808 10.387985853395351  0.99999999999999978 5.3445739804918508 4.5893527208343547 16.786061951567305  1 
2.5 5 0  1 0.83245186159731233 -1.2047441832524457 10.478624601641149  0.99999999999999978 4.5410894683836744 5.5469082747330765 16.786061951567305  1 
1.2499999999999998 5 0  1 1.0380888126409888 -0.7642851802145072 10.659901207899663  0.99999999999999978 3.737604956275502 6.5044638286317991 16.786061951567305  1 
-2.7755575615628914e-17 5 0  1 1.0764110947567742 -0.5323775916607919 10.924364355672619  0.99999999999999978 2.9341204441673265 7.4620193825305208 16.786061951567305  1 
-1.2500000000000002 5 0  1 1.0067476009471774 -0.55218695884318392 11.257095837422458  0.99999999999999978 2.1306359320591515 8.4195749364292425 16.786061951567305  1 
-2.5000000000000004 5 0  1 0.89775198809927825 -0.84514261602297547 11.63728235350697  0.99999999999999978 1.3271514199509771 9.377130490327966 16.786061951567305  1 
-3.7500000000000004 5 0  1 0.81812838561541212 -1.4094226863613346 12.041198911126262  0.99999999999999978 0.52366690784280268 10.334686044226688 16.786061951567305  1 
-5 5 0  1 0.82914385963034754 -2.2227305513584197 12.445115341603639  0.99999999999999978 -0.27981760426537194 11.292241598125413 16.786061951567305  1 

0 9
1 9

0 3
1 3

1 5 5 0 -0 0 -1 -0.70710678118654757 -0.70710678118654757 0 -0.70710678118654757 0.70710678118654757 0 
9 1 0 0 0 8 2 9 3 2 2 -5 5 0  1 0.82914385963034754 -2.2227305513584197 12.445115341603639  0.99999999999999978 -0.27981760426537194 11.292241598125413 16.786061951567305  1 
-5 3.7500000000000004 0  1 0.11859099668562265 -1.6335977375632993 12.48507182385119  0.99999999999999978 -1.013347715307203 10.676736752492783 17.589546463675482  1 
-5 2.5 0  1 -0.50132344626622571 -1.293492957375485 12.525028433240635  0.99999999999999978 -1.7468778263490345 10.061231906860149 18.393030975783649  1 
-5 1.25 0  1 -0.96933418355701495 -1.1801147005040158 12.541255001095363  0.99999999999999978 -2.4804079373908658 9.4457270612275188 19.196515487891826  1 
-5 -2.7755575615628914e-17 0  1 -1.2316397187799299 -1.2506964424628997 12.510026534615291  0.99999999999999978 -3.2139380484326976 8.8302222155948922 20  1 
-5 -1.2499999999999998 0  1 -1.249422810124551 -1.4446926408151906 12.410529734158498  0.99999999999999978 -3.9474681594745289 8.214717369962262 20.803484512108174  1 
-5 -2.5 0  1 -1.0049811638712558 -1.6909006952320083 12.227846392187136  0.99999999999999978 -4.6809982705163611 7.5992125243296318 21.606969024216351  1 
-5 -3.7500000000000004 0  1 -0.50280208119273861 -1.9171347765897206 11.954525192203112  0.99999999999999978 -5.4145283815581937 6.9837076786970007 22.410453536324528  1 
-5 -5 0  1 0.23338656762438231 -2.0581959457441421 11.59056524397328  0.99999999999999978 -6.1480584926000228 6.3682028330643679 23.213938048432706  1 

1 9
2 9

0 3
1 3

1 6.1480584926000228 3.6317971669356304 16.786061951567302 -0.4924038765061044 -0.41317591116653468 -0.76604444311897779 -0.86946677024980357 0.19349310025969213 0.45451947767204426 -0.039572185094283903 0.88985734057971144 -0.45451947767204343 
9 1 0 0 0 8 2 9 3 2 2 5 -5 0  1 -0.82914385963032655 -2.3070387565138337 9.5334357557649856  0.99999999999999978 0.27981760426537194 -1.2922415981254112 23.213938048432702  1 
5 -3.7500000000000004 0  1 -0.11859099668557992 -2.8961715703089697 9.4934792735174298  0.99999999999999978 1.013347715307203 -0.67673675249278098 22.410453536324528  1 
5 -2.5 0  1 0.50132344626608505 -3.2362763504966434 9.4535226641280357  0.99999999999999978 1.7468778263490345 -0.061231906860150814 21.606969024216351  1 
5 -1.25 0  1 0.96933418355723489 -3.3496546073684144 9.4372960962732204  0.99999999999999978 2.4804079373908658 0.55427293877247941 20.803484512108174  1 
5 -2.7755575615628914e-17 0  1 1.2316397187797037 -3.2790728654091472 9.4685245627533963  0.99999999999999978 3.2139380484326976 1.1697777844051096 20  1 
5 1.2499999999999996 0  1 1.2494228101247145 -3.085076667057169 9.5680213632100983  0.99999999999999978 3.9474681594745293 1.7852826300377398 19.196515487891823  1 
5 2.5 0  1 1.0049811638711672 -2.8388686126401823 9.7507047051815245  0.99999999999999978 4.680998270516362 2.4007874756703704 18.393030975783649  1 
5 3.7499999999999991 0  1 0.50280208119276437 -2.6126345312825263 10.024025905165514  0.99999999999999978 5.4145283815581937 3.0162923213030002 17.589546463675475  1 
5 5 0  1 -0.23338656762438142 -2.4715733621280935 10.38798585339535  0.99999999999999978 6.1480584926000228 3.6317971669356304 16.786061951567302  1 

3 9
4 9

0 3
1 3

9 1 0 0 0 8 2 9 3 2 2 -5 -5 0  1 0.23338656762438231 -2.0581959457441421 11.59056524397328  0.99999999999999978 -6.1480584926000228 6.3682028330643679 23.213938048432706  1 
-3.7500000000000004 -5 0  1 -0.41653755719763458 -2.7341966419641635 11.590565243973282  0.99999999999999978 -5.3445739804918508 5.4106472791656453 23.213938048432702  1 
-2.5000000000000004 -5 0  1 -0.83245186159728157 -3.3250251246197711 11.499926495727468  0.99999999999999978 -4.5410894683836744 4.4530917252669235 23.213938048432702  1 
-1.2500000000000002 -5 0  1 -1.0380888126410492 -3.7654841276577571 11.318649889468993  0.99999999999999978 -3.7376049562754998 3.4955361713682009 23.213938048432702  1 
0 -5 0  1 -1.0764110947567072 -3.9973917162114332 11.054186741695988  0.99999999999999978 -2.9341204441673256 2.5379806174694792 23.213938048432702  1 
1.2499999999999998 -5 0  1 -1.0067476009472194 -3.9775823490290469 10.721455259946186  0.99999999999999978 -2.1306359320591515 1.5804250635707566 23.213938048432702  1 
2.5 -5 0  1 -0.89775198809925882 -3.6846266918492687 10.341268743861654  0.99999999999999978 -1.3271514199509771 0.62286950967203403 23.213938048432702  1 
3.7500000000000004 -5 0  1 -0.81812838561541368 -3.1203466215109028 9.9373521862423715  0.99999999999999978 -0.52366690784280268 -0.33468604422668863 23.213938048432702  1 
5 -5 0  1 -0.82914385963032655 -2.3070387565138337 9.5334357557649856  0.99999999999999978 0.27981760426537194 -1.2922415981254112 23.213938048432702  1 

2 9
3 9

0 3
1 3

Triangulations 0

TShapes 34
Ve
1e-07
5 5 0
0 0

0101101
*
Ve
1e-07
-5 5 0
0 0

0101101
*
Ed
 1e-07 1 1 0
1  1 0 0 1
2  1 1 0 0 1
4 C0 1 0 2 0
0

0101000
+34 0 -33 0 *
Ve
1e-07
5 5 0
0 0

0101101
*
Ed
 1e-07 1 1 0
1  2 0 0 1
2  2 1 0 0 1
2  3 3 0 0 1
4 C0 1 0 3 0
0

0101000
+33 0 -31 2 *
Ve
1e-07
5 -5 0
0 0

0101101
*
Ed
 1e-07 1 1 0
1  3 0 0 1
2  4 1 0 0 1
4 C0 1 0 4 0
0

0101000
+29 2 -31 2 *
Ed
 1e-07 1 1 0
1  4 0 0 1
2  5 1 0 0 1
2  6 5 0 0 1
4 C0 1 0 5 0
0

0101000
+34 0 -29 2 *
Wi

0101000
+32 0 +30 0 -28 0 -27 0 *
Fa
0  1e-07 1 0

0111000
+26 0 *
Ve
1e-07
-5 -5 0
0 0

0101101
*
Ed
 1e-07 1 1 0
1  5 0 1 2
2  7 3 0 1 2
4 C0 3 0 2 0
0

0101000
+33 0 -24 0 *
Ve
1e-07
-5 5 0
0 0

0101101
*
Ed
 1e-07 1 1 0
1  6 0 0 1
2  8 3 0 0 1
2  9 6 0 0 1
4 C0 3 0 6 0
0

0101000
+24 0 -22 2 *
Ed
 1e-07 1 1 0
1  7 0 1 2
2  10 3 0 1 2
4 C0 3 0 4 0
0

0101000
+31 2 -22 2 *
Wi

0101000
+23 0 +21 0 -20 0 -30 0 *
Fa
0  1e-07 3 0

0101000
+19 0 *
Ve
1e-07
5 -5 0
0 0

0101101
*
Ed
 1e-07 1 1 0
1  8 0 2 3
2  11 6 0 2 3
4 C0 6 0 2 0
0

0101000
+24 0 -17 0 *
Ve
1e-07
-5 -5 0
0 0

0101101
*
Ed
 1e-07 1 1 0
1  9 0 0 1
2  12 6 0 0 1
2  13 5 0 0 1
4 C0 6 0 5 0
0

0101000
+17 0 -15 2 *
Ed
 1e-07 1 1 0
1  10 0 2 3
2  14 6 0 2 3
4 C0 6 0 4 0
0

0101000
+22 2 -15 2 *
Wi

0101000
+16 0 +14 0 -13 0 -21 0 *
Fa
0  1e-07 6 0

0101000
+12 0 *
Ed
 1e-07 1 1 0
1  11 0 3 4
2  15 5 0 3 4
4 C0 5 0 2 0
0

0101000
+17 0 -34 0 *
Ed
 1e-07 1 1 0
1  12 0 3 4
2  16 5 0 3 4
4 C0 5 0 4 0
0

0101000
+15 2 -29 2 *
Wi

0101000
+10 0 +27 0 -9 0 -14 0 *
Fa
0  1e-07 5 0

0101000
+8 0 *
Wi

0101000
-32 0 -23 0 -16 0 -10 0 *
Fa
0  1e-07 2 0

0111000
+6 0 *
Wi

0101000
+28 0 +20 0 +13 0 +9 0 *
Fa
0  1e-07 4 0

0101000
-4 0 *
Sh

0101100
+25 0 +18 0 +11 0 +7 0 +5 0 -3 0 *
So

1100100
+2 0 *

+1 1  