
CASCADE Topology V1, (c) Matra-Datavision
Locations 2
1
              1               0               0               0 
              0               1               0               0 
              0               0               1               0 
1
0.586824088833465 -0.642787609686539 0.492403876506104               0 
0.492403876506104 0.766044443118978 0.413175911166535               5 
-0.642787609686539 1.38777878078145e-16 0.766044443118978              20 
Curve2ds 52
1 0 0 1 0 
1 0 0 1 0 
1 1 0 0 1 
1 1 0 0 1 
1 0 1 1 0 
1 0 0 1 0 
1 0 0 0 1 
1 0 0 1 0 
1 0 0 1 0 
1 0 0 1 0 
1 2 0 0 1 
1 2 0 0 1 
1 0 1 1 0 
1 0 0 1 0 
1 0 0 1 0 
1 0 0 1 0 
1 3 0 0 1 
1 0 0 1 0 
1 0 1 1 0 
1 0 0 1 0 
1 1 0 0 1 
1 0 1 1 0 
1 0 0 0 1 
1 0 0 0 1 
1 0 0 0 1 
1 0 1 1 0 
1 0 1 1 0 
1 1 0 0 1 
1 0 1 1 0 
1 0 0 1 0 
1 0 1 1 0 
1 0 0 0 1 
1 0 1 1 0 
1 1 0 0 1 
1 0 1 1 0 
1 0 0 1 0 
1 0 1 1 0 
1 0 1 1 0 
1 0 1 1 0 
1 1 0 0 1 
1 2 0 0 1 
1 2 0 0 1 
1 3 0 0 1 
1 0 0 0 1 
1 1 0 0 1 
1 3 0 0 1 
1 2 0 0 1 
1 2 0 0 1 
1 1 0 0 1 
1 1 0 0 1 
1 0 0 0 1 
1 1 0 0 1 
Curves 38
7 0 0  1 2 2  -5 5 0  -5 -5 0 
 0 2 1 2
7 0 0  2 3 2  -5 -5 0  -1.6993419278019894 -6.7643889972329498 12.304440273581669  0.27981760426537194 -1.2922415981254112 23.213938048432695 
 0 3 1 3
7 0 0  1 2 2  -6.1480584926000237 6.3682028330643696 23.213938048432698  0.27981760426537194 -1.2922415981254112 23.213938048432695 
 0 2 1 2
7 0 0  2 3 2  -5 5 0  -4.2810401094413395 -0.68482272209376727 12.304440273581669  -6.1480584926000237 6.3682028330643696 23.213938048432698 
 0 3 1 3
7 0 0  1 2 2  -5 -5 0  5 -5 0 
 1 2 2 2
7 0 0  2 3 2  5 -5 0  4.2810401094413395 -3.8340002326788571 9.7227420919423171  6.1480584926000237 3.6317971669356304 16.786061951567302 
 0 3 1 3
7 0 0  1 2 2  0.27981760426537194 -1.2922415981254112 23.213938048432695  6.1480584926000237 3.6317971669356304 16.786061951567302 
 1 2 2 2
7 0 0  1 2 2  5 -5 0  5 5 0 
 2 2 3 2
7 0 0  2 3 2  5 5 0  1.6993419278019894 2.2455660424603261 9.7227420919423153  -0.27981760426537194 11.292241598125411 16.786061951567305 
 0 3 1 3
7 0 0  1 2 2  6.1480584926000237 3.6317971669356304 16.786061951567302  -0.27981760426537194 11.292241598125411 16.786061951567305 
 2 2 3 2
7 0 0  1 2 2  -5 -5 0  -5.9658533120254527 -5 0.25908952053192597 
 0 2 1 2
7 0 0  5 6 2  -5.9982972720173233 5 0.058331438202483987  -5.9958577987960906 2.9999999999999947 0.10008112819718724  -5.991251028757091 1.0000000000000075 0.14144872807265188  -5.9845546709512227 -1.0000000000000053 0.18198104054731576  -5.9759958302354779 -2.9999999999999978 0.22127948180356152  -5.9658533120254527 -5 0.25908952053192597 
 0 6 1 6
7 0 0  1 2 2  -5 5 0  -5.9982972720173233 5 0.058331438202483099 
 0 2 1 2
7 1 0  9 10 2  -5.9658533120254518 -5 0.25908952053192635  1 -5.2364296725936903 -5.4474984824825752 2.9782895737351947  0.99999999999999356 -4.5388888371935217 -5.7088075204724822 5.662842752965954  1.0000000000000273 -3.8681829794862841 -5.784311500480011 8.3162654528909101  0.99999999999994382 -3.2243990467086352 -5.6714940750357012 10.94057109308503  1.0000000000000644 -2.5882783449814228 -5.3627024287477125 13.544579823607769  0.9999999999999537 -1.9833615777792719 -4.8194830720990547 16.12038802914244  1.0000000000000209 -1.4181593354219866 -4.0573757941177684 18.662325984661816  0.99999999999999523 -0.89518586872624639 -3.074330440041571 21.167304074929614  1.0000000000000004 -0.41575844950711804 -1.8758992083016555 23.632886431293453  1
 0 10 1 10
7 0 0  4 5 2  -6.8848710823021948 5.7499436607985004 23.487548727254815  -5.2693252648885167 3.842029337009615 23.5269074503044  -3.6523981397408618 1.9352740680308622 23.564432456420349  -2.0344312923317198 0.029391229618237258 23.599773032984256  -0.41575844950711849 -1.8758992083016559 23.63288643129345 
 0 5 1 5
7 0 0  10 11 2  -5.9982972720173233 5 0.058331438202483099  -5.8570753411733181 3.8114894105432384 2.4752351295080524  -5.7679245026132016 2.8939613928357848 4.8658849774279069  -5.7290414923022217 2.2472414598621042 7.2353052883497639  -5.7388614762690056 1.8731681294357014 9.5907018327085876  -5.7965858659208713 1.7771546490921806 11.938082450771738  -5.9042279353109546 1.9683361039050218 14.285292127529518  -6.0633907461093637 2.4610864834286414 16.623304061976803  -6.2783563475091198 3.2567096571722733 18.941158239224514  -6.5516022618156455 4.3541316987210523 21.230996138441487  -6.8848710823021957 5.7499436607985004 23.487548727254818 
 0 11 1 11
7 1 0  9 10 2  -5.0000000000000009 -5.9898748888472015 -0.14194260963410699  1 -4.2102034222804008 -6.3886761534805316 2.6392050564447516  0.99999999999999356 -3.4419553577171733 -6.5805580685657397 5.3821975189289111  1.0000000000000273 -2.6921412367611941 -6.5608543535967625 8.0862501901392871  0.99999999999994382 -1.9653796036413822 -6.3288334703944695 10.749548262355543  1.0000000000000644 -1.2532347579075029 -5.8682080122487568 13.371870799059625  0.9999999999999537 -0.60192329530324673 -5.1822994110544247 15.943809327907399  1.0000000000000209 -0.0055722240278028856 -4.2965371836988417 18.471712965867162  0.99999999999999523 0.53496751241374341 -3.2123531667190246 20.956711463377363  1.0000000000000004 1.0234006288720141 -1.9341764983335068 23.401031258923243  1
 0 10 1 10
7 1 0  2 3 2  -0.41575844950711804 -1.8758992083016555 23.632886431293453  1 0.33111619855568941 -2.6018675100092574 23.861533205556611  0.68404460447229787 1.0234006288720141 -1.9341764983335068 23.401031258923243  1
 0 3 1 3
7 1 0  2 3 2  -5.9658533120254518 -5 0.25908952053192635  1 -6.0027295356730885 -6.0276682549099618 0.12161957318732419  0.69398276539365455 -5.0000000000000009 -5.9898748888472015 -0.14194260963410699  1
 0 3 1 3
7 0 0  6 7 2  -5 -5.9898748888472007 -0.14194260963410732  -3.3333333333333326 -5.9946980531074123 -0.10830697902062371  -1.6666666666666736 -5.9986119108158125 -0.071258635583797095  1.1102230246251556e-14 -6.0011705645839601 -0.030358317822918087  1.6666666666666561 -6.0017618511846917 0.014835042414499584  3.3333333333333401 -5.9994051150800862 0.064708912286200473  5 -5.9928856458349751 0.11907180310578509 
 1 7 2 7
7 1 0  10 11 2  5 -5.992885645834976 0.11907180310578624  1 4.9205469898603784 -5.7511323695597962 2.1349424927761849  1.00000000000003 4.9152727023454155 -5.359211504830423 4.0910744909861885  0.99999999999988121 4.986724798317038 -4.8121249407654645 5.9824994706869603  1.0000000000002538 5.1276048456114589 -4.1111478902031013 7.8030319284186973  0.99999999999962186 5.3463828720574469 -3.2404938804769472 9.5427038869230199  1.0000000000004188 5.5840931984141084 -2.2234629091445925 11.183083029639697  0.99999999999965283 5.8625540030439049 -1.0820319762606974 12.760989091996329  1.0000000000002087 6.1778821207936243 0.19044476350943174 14.270985189072643  0.99999999999991496 6.536148822763705 1.5902225557809393 15.722666824480312  1.0000000000000193 6.9406236131188646 3.1199794554350322 17.11754824077282  1
 0 11 1 11
7 0 0  5 6 2  1.0234006288720137 -1.9341764983335055 23.401031258923243  2.208216534828948 -0.92888868581915141 22.141340098946028  3.3927070397900412 0.078848653482413961 20.883228314998227  4.5765835364028744 1.0893672674564223 19.626686560599229  5.7594065007138315 2.1030277407406652 18.371589802271636  6.9406236131188646 3.1199794554350326 17.117548240772823 
 1 6 2 6
7 1 0  10 11 2  5.9972771407578298 -5.0000000000000009 0.073744860986293403  1 5.8557417166275005 -4.7153066749179802 1.9877771230971826  1.00000000000003 5.7684491706188883 -4.2788116570027528 3.8317791894627193  0.99999999999988121 5.732680705546394 -3.6879200333193412 5.6004734211877221  1.0000000000002538 5.7396732784786346 -2.9527529158053261 7.2941350636461522  0.99999999999962186 5.7940448868790098 -2.0575298188357651 8.9005389772937171  1.0000000000004188 5.8516368418561893 -1.0565211195181037 10.4322517585423  0.99999999999965283 5.9780571637049249 0.052142029654483668 11.927894656407537  1.0000000000002087 6.1601797138330117 1.2810047530447557 13.372406847958825  0.99999999999991496 6.4086403049519278 2.6328193999885037 14.772414793546824  1.0000000000000193 6.7225967264368949 4.1138919870453954 16.124631379033083  1
 0 11 1 11
7 1 0  2 3 2  6.9406236131188646 3.1199794554350322 17.11754824077282  1 7.5298654741229871 3.6017545964861895 16.452569013550161  0.70333460420068805 6.7225967264368949 4.1138919870453954 16.124631379033083  1
 0 3 1 3
7 1 0  2 3 2  5 -5.992885645834976 0.11907180310578624  1 5.9885963419541337 -5.9842430727985363 0.19113829145264205  0.71020452461506578 5.9972771407578298 -5.0000000000000009 0.073744860986293403  1
 0 3 1 3
7 0 0  5 6 2  5.9972771407578289 -5 0.073744860986296873  5.9933821163010661 -2.9999999999999996 0.12641861752297051  5.9860482464079148 -1.0000000000000044 0.17832306831554159  5.9754731379636015 1.0000000000000067 0.22854622167575619  5.9622307047605121 2.999999999999996 0.27636859108279538  5.9469232558830747 5 0.32145971360000525 
 2 6 3 6
7 0 0  14 15 2  5.9469232558830747 4.9999999999999982 0.3214597136000048  5.4732755993155138 4.6414332924615724 1.7166826983829524  5.0143006095297222 4.4179138329841461 3.0780444808230354  4.5699336783006785 4.3297111872745688 4.4035792584319662  4.1407120451068522 4.3772183115078684 5.6917455659821181  3.7244130165771536 4.5596020046299452 6.9371977805196217  3.325288869320584 4.8774922405416907 8.144341027465444  2.933242435979619 5.3286762348200307 9.2939061518952073  2.5567436306347173 5.9078405763880131 10.409596621033016  2.1835142105048932 6.6200001868392446 11.455058832985566  1.8047464341806532 7.4366177839843637 12.463894521216019  1.4309009835130329 8.3658912660555398 13.442564118956957  1.064833181688762 9.4066701130867507 14.400599285237213  0.7117633761739649 10.563902130325609 15.341466811164919  0.37455477422566119 11.841325219569836 16.266154299258297 
 0 15 1 15
7 0 0  5 6 2  6.7225967264368958 4.1138919870453954 16.124631379033083  5.4525985790025144 5.6590515886019412 16.147688897363093  4.1829772458567742 7.2045273748890777 16.173091318271375  2.9136012343769844 8.7502090104956967 16.201122250199838  1.6442467272510319 10.295908690397615 16.232087554621703  0.37455477422566075 11.841325219569836 16.266154299258297 
 2 6 3 6
7 0 0  1 2 2  -5 -5 0  -5 -5.9898748888472007 -0.14194260963410732 
 0 2 1 2
7 0 0  1 2 2  5 -5 0  5 -5.9928856458349751 0.11907180310578509 
 0 2 1 2
7 0 0  1 2 2  5 -5 0  5.9972771407578289 -5 0.073744860986296873 
 0 2 1 2
7 0 0  1 2 2  5 5 0  5.9469232558830747 4.9999999999999982 0.3214597136000048 
 0 2 1 2
7 0 0  1 2 2  -0.27981760426537194 11.292241598125409 16.786061951567305  0.37455477422566075 11.841325219569836 16.266154299258297 
 0 2 1 2
7 0 0  1 2 2  6.1480584926000246 3.6317971669356304 16.786061951567302  6.7225967264368958 4.1138919870453954 16.124631379033083 
 0 2 1 2
7 0 0  1 2 2  6.1480584926000246 3.6317971669356304 16.786061951567302  6.9406236131188646 3.1199794554350326 17.117548240772823 
 0 2 1 2
7 0 0  1 2 2  0.27981760426537194 -1.2922415981254112 23.213938048432695  1.0234006288720137 -1.9341764983335055 23.401031258923243 
 0 2 1 2
7 0 0  1 2 2  0.27981760426537194 -1.2922415981254112 23.213938048432695  -0.41575844950711849 -1.8758992083016559 23.63288643129345 
 0 2 1 2
7 0 0  1 2 2  -6.1480584926000228 6.368202833064367 23.213938048432706  -6.8848710823021957 5.7499436607985004 23.487548727254818 
 0 2 1 2
Polygon3D 0
PolygonOnTriangulations 0
Surfaces 20
9 0 0 0 0 1 2 2 3 2 2 -5 5 0  -4.2810401094413395 -0.68482272209376727 12.304440273581669  -6.1480584926000237 6.3682028330643696 23.213938048432698  
-5 -5 0  -1.6993419278019894 -6.7643889972329498 12.304440273581669  0.27981760426537194 -1.2922415981254112 23.213938048432695  

0 2
1 2

0 3
1 3

9 0 0 0 0 5 1 6 2 2 2 -5 5 0  -5.9982972720173233 5 0.058331438202483987  
-5 3 0  -5.9958577987960906 2.9999999999999947 0.10008112819718724  
-5 1 0  -5.991251028757091 1.0000000000000075 0.14144872807265188  
-5 -1 0  -5.9845546709512227 -1.0000000000000053 0.18198104054731576  
-5 -3 0  -5.9759958302354779 -2.9999999999999978 0.22127948180356152  
-5 -5 0  -5.9658533120254527 -5 0.25908952053192597  

0 6
1 6

0 2
1 2

9 0 0 0 0 1 2 2 3 2 2 -5 -5 0  -1.6993419278019894 -6.7643889972329498 12.304440273581669  0.27981760426537194 -1.2922415981254112 23.213938048432695  
5 -5 0  4.2810401094413395 -3.8340002326788571 9.7227420919423171  6.1480584926000237 3.6317971669356304 16.786061951567302  

1 2
2 2

0 3
1 3

9 0 0 0 0 4 1 5 2 2 2 -6.1480584926000246 6.3682028330643696 23.213938048432698  -6.8848710823021948 5.7499436607985004 23.487548727254815  
-4.5410894683836753 4.4530917252669244 23.213938048432695  -5.2693252648885167 3.842029337009615 23.5269074503044  
-2.9341204441673261 2.5379806174694792 23.213938048432695  -3.6523981397408618 1.9352740680308622 23.564432456420349  
-1.3271514199509773 0.62286950967203403 23.213938048432695  -2.0344312923317198 0.029391229618237258 23.599773032984256  
0.27981760426537194 -1.2922415981254112 23.213938048432695  -0.41575844950711849 -1.8758992083016559 23.63288643129345  

0 5
1 5

0 2
1 2

9 0 0 0 0 10 1 11 2 2 2 -5 5 0  -5.9982972720173233 5 0.058331438202483099  
-4.8562080218882677 3.8630354555812465 2.4608880547163334  -5.8570753411733181 3.8114894105432384 2.4752351295080524  
-4.7698822276369208 3.009134206212535 4.8907773872386517  -5.7679245026132016 2.8939613928357848 4.8658849774279069  
-4.7410226172459584 2.4382962518938669 7.2896679975669603  -5.7290414923022217 2.2472414598621042 7.2353052883497639  
-4.769629190715384 2.1505215926252395 9.6575598857012501  -5.7388614762690056 1.8731681294357014 9.5907018327085876  
-4.8557019480451933 2.1458102284066554 11.994453051641527  -5.7965858659208713 1.7771546490921806 11.938082450771738  
-4.9992408892353897 2.4241621592381142 14.300347495387786  -5.9042279353109546 1.9683361039050218 14.285292127529518  
-5.2002460142859706 2.9855773851196146 16.575243216940034  -6.0633907461093637 2.4610864834286414 16.623304061976803  
-5.4587173231969359 3.8300559060511574 18.819140216298273  -6.2783563475091198 3.2567096571722733 18.941158239224514  
-5.7746548159682876 4.9575977220327427 21.032038493462498  -6.5516022618156455 4.3541316987210523 21.230996138441487  
-6.1480584926000228 6.368202833064367 23.213938048432706  -6.8848710823021957 5.7499436607985004 23.487548727254818  

0 11
1 11

0 2
1 2

9 0 0 0 0 6 1 7 2 2 2 -5 -5 0  -5 -5.9898748888472007 -0.14194260963410732  
-3.3333333333333335 -5 0  -3.3333333333333326 -5.9946980531074123 -0.10830697902062371  
-1.6666666666666667 -5 0  -1.6666666666666736 -5.9986119108158125 -0.071258635583797095  
0 -5 0  1.1102230246251556e-14 -6.0011705645839601 -0.030358317822918087  
1.6666666666666667 -5 0  1.6666666666666561 -6.0017618511846917 0.014835042414499584  
3.3333333333333335 -5 0  3.3333333333333401 -5.9994051150800862 0.064708912286200473  
5 -5 0  5 -5.9928856458349751 0.11907180310578509  

1 7
2 7

0 2
1 2

9 0 0 0 0 1 2 2 3 2 2 5 -5 0  4.2810401094413395 -3.8340002326788571 9.7227420919423171  6.1480584926000237 3.6317971669356304 16.786061951567302  
5 5 0  1.6993419278019894 2.2455660424603261 9.7227420919423153  -0.27981760426537194 11.292241598125411 16.786061951567305  

2 2
3 2

0 3
1 3

9 0 0 0 0 5 1 6 2 2 2 0.27981760426537194 -1.2922415981254112 23.213938048432695  1.0234006288720137 -1.9341764983335055 23.401031258923243  
1.4534657819323022 -0.30743384511320287 21.928362829059616  2.208216534828948 -0.92888868581915141 22.141340098946028  
2.6271139595992326 0.67737390789900542 20.64278760968654  3.3927070397900412 0.078848653482413961 20.883228314998227  
3.8007621372661631 1.6621816609112137 19.357212390313464  4.5765835364028744 1.0893672674564223 19.626686560599229  
4.9744103149330936 2.6469894139234222 18.071637170940384  5.7594065007138315 2.1030277407406652 18.371589802271636  
6.1480584926000246 3.6317971669356304 16.786061951567302  6.9406236131188646 3.1199794554350326 17.117548240772823  

1 6
2 6

0 2
1 2

9 0 0 0 0 5 1 6 2 2 2 5 -5 0  5.9972771407578289 -5 0.073744860986296873  
5 -3 0  5.9933821163010661 -2.9999999999999996 0.12641861752297051  
5 -1 0  5.9860482464079148 -1.0000000000000044 0.17832306831554159  
5 1 0  5.9754731379636015 1.0000000000000067 0.22854622167575619  
5 3 0  5.9622307047605121 2.999999999999996 0.27636859108279538  
5 5 0  5.9469232558830747 5 0.32145971360000525  

2 6
3 6

0 2
1 2

9 0 0 0 0 14 1 15 2 2 2 5 5 0  5.9469232558830747 4.9999999999999982 0.3214597136000048  
4.5284774182574239 4.6065094346371902 1.388963155991759  5.4732755993155138 4.6414332924615724 1.7166826983829524  
4.0714767984943085 4.3427013913975072 2.7487018918481638  5.0143006095297222 4.4179138329841461 3.0780444808230354  
3.628998140710654 4.2085758702809564 4.0792162075692113  4.5699336783006785 4.3297111872745688 4.4035792584319662  
3.2010414449064535 4.2041328712875305 5.3805061031549055  4.1407120451068522 4.3772183115078684 5.6917455659821181  
2.7876067110817111 4.3293723944172378 6.6525715786052455  3.7244130165771536 4.5596020046299452 6.9371977805196217  
2.3886939392364268 4.5842944396700744 7.8954126339202286  3.325288869320584 4.8774922405416907 8.144341027465444  
2.0043031293706011 4.9688990070460388 9.1090292690998584  2.933242435979619 5.3286762348200307 9.2939061518952073  
1.6344342814842319 5.4831860965451344 10.293421484144131  2.5567436306347173 5.9078405763880131 10.409596621033016  
1.2790873955773197 6.1271557081673587 11.448589279053047  2.1835142105048932 6.6200001868392446 11.455058832985566  
0.93826247164986598 6.900807841912707 12.574532653826607  1.8047464341806532 7.4366177839843637 12.463894521216019  
0.61195950970186996 7.8041424977811884 13.671251608464811  1.4309009835130329 8.3658912660555398 13.442564118956957  
0.30017850973333188 8.837159675772801 14.738746142967665  1.064833181688762 9.4066701130867507 14.400599285237213  
0.0029194717442510803 9.999859375887544 15.777016257335166  0.7117633761739649 10.563902130325609 15.341466811164919  
-0.27981760426537194 11.292241598125411 16.786061951567316  0.37455477422566119 11.841325219569836 16.266154299258297  

0 15
1 15

0 2
1 2

9 0 0 0 0 5 1 6 2 2 2 6.1480584926000246 3.6317971669356304 16.786061951567302  6.7225967264368958 4.1138919870453954 16.124631379033083  
4.8624832732269443 5.163886053173588 16.786061951567305  5.4525985790025144 5.6590515886019412 16.147688897363093  
3.5769080538538658 6.6959749394115438 16.786061951567305  4.1829772458567742 7.2045273748890777 16.173091318271375  
2.2913328344807864 8.2280638256494978 16.786061951567305  2.9136012343769844 8.7502090104956967 16.201122250199838  
1.0057576151077074 9.7601527118874536 16.786061951567305  1.6442467272510319 10.295908690397615 16.232087554621703  
-0.27981760426537194 11.292241598125409 16.786061951567305  0.37455477422566075 11.841325219569836 16.266154299258297  

2 6
3 6

0 2
1 2

11 1
9 0 0 0 0 1 2 2 3 2 2 -5 5 0  -4.2810401094413395 -0.68482272209376727 12.304440273581669  -6.1480584926000237 6.3682028330643696 23.213938048432698  
-5 -5 0  -1.6993419278019894 -6.7643889972329498 12.304440273581669  0.27981760426537194 -1.2922415981254112 23.213938048432695  

0 2
1 2

0 3
1 3

9 1 1 0 0 2 9 3 10 2 2 -5.9658533120254518 -5 0.25908952053192635  1 -5.2364296725936903 -5.4474984824825752 2.9782895737351947  0.99999999999999356 -4.5388888371935217 -5.7088075204724822 5.662842752965954  1.0000000000000273 -3.8681829794862841 -5.784311500480011 8.3162654528909101  0.99999999999994382 -3.2243990467086352 -5.6714940750357012 10.94057109308503  1.0000000000000644 -2.5882783449814228 -5.3627024287477125 13.544579823607769  0.9999999999999537 -1.9833615777792719 -4.8194830720990547 16.12038802914244  1.0000000000000209 -1.4181593354219866 -4.0573757941177684 18.662325984661816  0.99999999999999523 -0.89518586872624639 -3.074330440041571 21.167304074929614  1.0000000000000004 -0.41575844950711804 -1.8758992083016555 23.632886431293453  1 
-6.0027295356730885 -6.0276682549099627 0.12161957318732419  0.69398276539365455 -5.2057497002139064 -6.4651852933854119 2.8660049729111226  0.69929115869556568 -4.4254342104820727 -6.7157422428156277 5.5870789934712235  0.70392082866171624 -3.6554318936824068 -6.7732361103519905 8.2920890159647769  0.70719890225318194 -2.9004582759831377 -6.6369359294408206 10.972215476207158  0.70910344715366092 -2.1336249902899573 -6.2728502755104607 13.682746107513106  0.70711901991737247 -1.4328157805959172 -5.671378294497627 16.296292485657162  0.70106422943632485 -0.78698925189827085 -4.8620327794766576 18.861417064156626  0.69486692204079048 -0.19994926703644067 -3.838216158068513 21.380158114012957  0.68888460964727249 0.33111619855568941 -2.6018675100092574 23.861533205556611  0.68404460447229787 
-5.0000000000000009 -5.9898748888472015 -0.14194260963410699  1 -4.2102034222804008 -6.3886761534805316 2.6392050564447516  0.99999999999999356 -3.4419553577171733 -6.5805580685657397 5.3821975189289111  1.0000000000000273 -2.6921412367611941 -6.5608543535967625 8.0862501901392871  0.99999999999994382 -1.9653796036413822 -6.3288334703944695 10.749548262355543  1.0000000000000644 -1.2532347579075029 -5.8682080122487568 13.371870799059625  0.9999999999999537 -0.60192329530324673 -5.1822994110544247 15.943809327907399  1.0000000000000209 -0.0055722240278028856 -4.2965371836988417 18.471712965867162  0.99999999999999523 0.53496751241374341 -3.2123531667190246 20.956711463377363  1.0000000000000004 1.0234006288720141 -1.9341764983335068 23.401031258923243  1 

0 3
1 3

0 10
1 10

11 1
9 0 0 0 0 1 2 2 3 2 2 -5 -5 0  -1.6993419278019894 -6.7643889972329498 12.304440273581669  0.27981760426537194 -1.2922415981254112 23.213938048432695  
5 -5 0  4.2810401094413395 -3.8340002326788571 9.7227420919423171  6.1480584926000237 3.6317971669356304 16.786061951567302  

1 2
2 2

0 3
1 3

9 1 1 0 0 2 10 3 11 2 2 5 -5.992885645834976 0.11907180310578624  1 4.9205469898603784 -5.7511323695597962 2.1349424927761849  1.00000000000003 4.9152727023454155 -5.359211504830423 4.0910744909861885  0.99999999999988121 4.986724798317038 -4.8121249407654645 5.9824994706869603  1.0000000000002538 5.1276048456114589 -4.1111478902031013 7.8030319284186973  0.99999999999962186 5.3463828720574469 -3.2404938804769472 9.5427038869230199  1.0000000000004188 5.5840931984141084 -2.2234629091445925 11.183083029639697  0.99999999999965283 5.8625540030439049 -1.0820319762606974 12.760989091996329  1.0000000000002087 6.1778821207936243 0.19044476350943174 14.270985189072643  0.99999999999991496 6.536148822763705 1.5902225557809393 15.722666824480312  1.0000000000000193 6.9406236131188646 3.1199794554350322 17.11754824077282  1 
5.9885963419541337 -5.9842430727985363 0.19113829145264205  0.71020452461506578 5.8971156447534927 -5.6794282391125508 2.159057395830918  0.71536599191235128 5.8736741746125363 -5.2171619237925544 4.0593051991353173  0.7204700311762976 5.9191380809420924 -4.5887605039456822 5.8912453587791855  0.72507285662387033 6.0215719015175546 -3.8118702691399196 7.6297563659333001  0.72831661556655791 6.1949621949737326 -2.8337647653966105 9.3314027557341745  0.72943919143605584 6.380171972096484 -1.745406253682781 10.869711949327513  0.72277776310506336 6.5987131838484627 -0.57991894810946687 12.344864479384771  0.71846364952505459 6.859729934199934 0.7038347269492764 13.764320526898175  0.71308639193952605 7.1684984729281318 2.0946794926224754 15.132742573033525  0.70820786068417629 7.5298654741229871 3.6017545964861895 16.452569013550161  0.70333460420068805 
5.9972771407578298 -5.0000000000000009 0.073744860986293403  1 5.8557417166275005 -4.7153066749179802 1.9877771230971826  1.00000000000003 5.7684491706188883 -4.2788116570027528 3.8317791894627193  0.99999999999988121 5.732680705546394 -3.6879200333193412 5.6004734211877221  1.0000000000002538 5.7396732784786346 -2.9527529158053261 7.2941350636461522  0.99999999999962186 5.7940448868790098 -2.0575298188357651 8.9005389772937171  1.0000000000004188 5.8516368418561893 -1.0565211195181037 10.4322517585423  0.99999999999965283 5.9780571637049249 0.052142029654483668 11.927894656407537  1.0000000000002087 6.1601797138330117 1.2810047530447557 13.372406847958825  0.99999999999991496 6.4086403049519278 2.6328193999885037 14.772414793546824  1.0000000000000193 6.7225967264368949 4.1138919870453954 16.124631379033083  1 

0 3
1 3

0 11
1 11

11 1
9 0 0 0 0 1 2 2 3 2 2 5 -5 0  4.2810401094413395 -3.8340002326788571 9.7227420919423171  6.1480584926000237 3.6317971669356304 16.786061951567302  
5 5 0  1.6993419278019894 2.2455660424603261 9.7227420919423153  -0.27981760426537194 11.292241598125411 16.786061951567305  

2 2
3 2

0 3
1 3

1 -5.3941858958769311 -5.403989627625803 0.047810220710051483 -0.25663981693457349 0.13718854220779828 -0.95672112355204519 -0.9658533120254531 6.9388939039072284e-18 0.2590895205319248 0.035544113623092191 0.99054495298643519 0.13250400786334562 
1 5.4010584725144799 -5.3992924175495807 0.077541892434578 0.07322303690540477 -0.1187521656151219 -0.99022033408129351 0 -0.99288564583497607 0.11907180310578493 -0.99731559040574003 -0.0087187990332079791 -0.072702102287821091 
1 6.70127373739082 3.6197694321017719 16.652545925227777 -0.17873417813926204 -0.71471881284680827 -0.67618866607458883 0 0.68725526272467508 -0.72641599917487909 0.98389739991773673 -0.12983536659973285 -0.12283600455497741 
1 0.29958969916386746 -1.7970126970126976 23.46354163074523 -0.16006907593097247 -0.44257249774011942 -0.88233070624039645 -1.3877787807814457e-17 -0.89385625372102118 0.44835365247070486 -0.98710581546792886 0.071767554841262113 0.14307874454824474 
Triangulations 0

TShapes 100
Ve
1.02469507659596e-07
-5 5 0
0 0

0101101
*
Ve
1e-05
-5 -5 0
0 0

0101101
*
Ed
 1e-07 1 1 0
1  1 0 0 1
2  1 1 0 0 1
2  2 2 0 0 1
0

0101000
+100 0 -99 0 *
Ve
1e-05
-5 -5 0
0 0

0101101
*
Ed
 1e-07 1 1 0
1  2 0 0 1
2  3 1 0 0 1
2  4 3 0 0 1
4 C0 1 0 3 0
0

0101000
+99 0 -97 2 *
Ve
1.02469507659596e-07
-5 5 0
0 0

0101101
*
Ed
 1e-07 1 1 0
1  3 0 0 1
2  5 1 0 0 1
2  6 4 0 0 1
0

0101000
+95 2 -97 2 *
Ed
 1e-07 1 1 0
1  4 0 0 1
2  7 1 0 0 1
2  8 5 0 0 1
0

0101000
+100 0 -95 2 *
Wi

0101000
+98 0 +96 0 -94 0 -93 0 *
Fa
0  1e-07 1 0

0101000
+92 0 *
Ve
1.02469507659596e-07
5 -5 0
0 0

0101101
*
Ed
 1e-07 1 1 0
1  5 0 1 2
2  9 3 0 1 2
2  10 6 0 1 2
0

0101000
+99 0 -90 0 *
Ve
1.02469507659596e-07
5 -5 0
0 0

0101101
*
Ed
 1e-07 1 1 0
1  6 0 0 1
2  11 3 0 0 1
2  12 7 0 0 1
4 C0 3 0 7 0
0

0101000
+90 0 -88 2 *
Ed
 1e-07 1 1 0
1  7 0 1 2
2  13 3 0 1 2
2  14 8 0 1 2
0

0101000
+97 2 -88 2 *
Wi

0101000
+89 0 +87 0 -86 0 -96 0 *
Fa
0  1e-07 3 0

0101000
+85 0 *
Ve
1.02469507659596e-07
5 5 0
0 0

0101101
*
Ed
 1e-07 1 1 0
1  8 0 2 3
2  15 7 0 2 3
2  16 9 0 2 3
0

0101000
+90 0 -83 0 *
Ve
1.02469507659596e-07
5 5 0
0 0

0101101
*
Ed
 1e-07 1 1 0
1  9 0 0 1
2  17 7 0 0 1
2  18 10 0 0 1
0

0101000
+83 0 -81 2 *
Ed
 1e-07 1 1 0
1  10 0 2 3
2  19 7 0 2 3
2  20 11 0 2 3
0

0101000
+88 2 -81 2 *
Wi

0101000
+82 0 +80 0 -79 0 -87 0 *
Fa
0  1e-07 7 0

0101000
+78 0 *
Ve
2.4999733889234e-05
-5.96585331202545 -5 0.259089520531926
0 0

0101101
*
Ed
 1e-05 1 1 0
1  11 0 0 1
2  21 2 0 0 1
0

0101000
+99 0 -76 0 *
Ve
1e-05
-5.99829727201732 5 0.058331438202484
0 0

0101101
*
Ed
 1e-05 1 1 0
2  1 12 0 0 1
1  12 0 0 1
2  22 2 0 0 1
0

0101000
+74 0 -76 0 *
Ed
 1e-07 1 1 0
1  13 0 0 1
2  23 2 0 0 1
2  24 5 0 0 1
0

0101000
+100 0 -74 0 *
Wi

0101100
+98 0 +75 0 -73 0 -72 0 *
Fa
0  1e-07 2 0

0111000
+71 0 *
Ve
2.4999733889234e-05
-0.415758449507119 -1.87589920830166 23.6328864312935
0 0

0101101
*
Ed
 2.4999733889234e-05 1 1 0
2  3 12 0 0 1
1  14 0 0 1
2  25 13 0 0 1
4 G1 12 0 13 0
0

0101000
+76 0 -69 0 *
Ve
1e-05
-6.8848710823022 5.7499436607985 23.4875487272548
0 0

0101101
*
Ed
 1e-05 1 1 0
2  5 12 0 0 1
1  15 0 0 1
2  26 4 0 0 1
0

0101000
+67 0 -69 0 *
Ed
 1e-05 1 1 0
2  7 12 0 0 1
1  16 0 0 1
2  27 5 0 0 1
0

0101000
+74 0 -67 0 *
Wi

0101000
+73 0 +68 0 -66 0 -65 0 *
Fa
0  1e-07 12 0

0111000
+64 0 *
Ve
2.4999733889234e-05
-5 -5.9898748888472 -0.141942609634107
0 0

0101101
*
Ve
2.4999733889234e-05
1.02340062887201 -1.93417649833351 23.4010312589232
0 0

0101101
*
Ed
 2.4999733889234e-05 1 1 0
2  4 14 0 0 1
1  17 0 0 1
2  28 13 0 0 1
4 G1 13 0 14 0
0

0101000
+62 0 -61 0 *
Ed
 1e-05 1 1 0
2  29 13 0 0 1
1  18 0 0 1
0

0101000
+69 0 -61 0 *
Ed
 1e-05 1 1 0
2  30 13 0 0 1
1  19 0 0 1
0

0101000
+76 0 -62 0 *
Wi

0101000
-68 0 +60 0 -59 0 +58 0 *
Fa
0  1e-07 13 0

0111000
+57 0 *
Ve
3.11487181605573e-05
5 -5.99288564583498 0.119071803105785
0 0

0101101
*
Ed
 1e-05 1 1 0
2  9 14 0 1 2
1  20 0 1 2
2  31 6 0 1 2
0

0101000
+62 0 -55 0 *
Ve
3.11487181605573e-05
6.94062361311886 3.11997945543503 17.1175482407728
0 0

0101101
*
Ed
 3.11487181605573e-05 1 1 0
2  11 14 0 0 1
1  21 0 0 1
2  32 15 0 0 1
4 G1 14 0 15 0
0

0101000
+55 0 -53 0 *
Ed
 1e-05 1 1 0
2  13 14 0 1 2
1  22 0 1 2
2  33 8 0 1 2
0

0101000
+61 0 -53 0 *
Wi

0101000
+54 0 +52 0 -51 0 -60 0 *
Fa
0  1e-07 14 0

0111000
+50 0 *
Ve
3.11487181605573e-05
5.99727714075783 -5 0.0737448609862968
0 0

0101101
*
Ve
3.11487181605573e-05
6.72259672643689 4.1138919870454 16.1246313790331
0 0

0101101
*
Ed
 3.11487181605573e-05 1 1 0
2  12 16 0 0 1
1  23 0 0 1
2  34 15 0 0 1
4 G1 16 0 15 0
0

0101000
+48 0 -47 0 *
Ed
 1e-07 1 1 0
2  35 15 0 0 1
1  24 0 0 1
0

0101000
+53 0 -47 0 *
Ed
 1e-07 1 1 0
2  36 15 0 0 1
1  25 0 0 1
0

0101000
+55 0 -48 0 *
Wi

0101000
-52 0 +46 0 -45 0 +44 0 *
Fa
0  1e-07 15 0

0111000
+43 0 *
Ve
1e-05
5.94692325588307 5 0.321459713600005
0 0

0101101
*
Ed
 1e-05 1 1 0
2  15 16 0 2 3
1  26 0 2 3
2  37 9 0 2 3
0

0101000
+48 0 -41 0 *
Ve
1e-05
0.374554774225661 11.8413252195698 16.2661542992583
0 0

0101101
*
Ed
 1e-05 1 1 0
2  17 16 0 0 1
1  27 0 0 1
2  38 10 0 0 1
0

0101000
+41 0 -39 0 *
Ed
 1e-05 1 1 0
2  19 16 0 2 3
1  28 0 2 3
2  39 11 0 2 3
0

0101000
+47 0 -39 0 *
Wi

0101000
+40 0 +38 0 -37 0 -46 0 *
Fa
0  1e-07 16 0

0111000
+36 0 *
Ed
 1e-05 1 1 0
1  29 0 0 1
2  40 6 0 0 1
0

0101000
+99 0 -62 0 *
Wi

0101100
-75 0 -58 0 +34 0 *
Fa
0  1e-05 17 0

0111000
+33 0 *
Ed
 1e-07 1 1 0
1  30 0 0 1
2  41 6 0 0 1
0

0101000
+90 0 -55 0 *
Wi

0101100
+89 0 +31 0 -54 0 -34 0 *
Fa
0  1e-07 6 0

0111000
+30 0 *
Ed
 1e-07 1 1 0
1  31 0 0 1
2  42 9 0 0 1
0

0101000
+90 0 -48 0 *
Wi

0101100
-31 0 -44 0 +28 0 *
Fa
0  1e-07 18 0

0111000
+27 0 *
Ed
 1e-07 1 1 0
1  32 0 0 1
2  43 9 0 0 1
2  44 10 0 0 1
0

0101000
+83 0 -41 0 *
Wi

0101100
+82 0 +25 0 -40 0 -28 0 *
Fa
0  1e-07 9 0

0111000
+24 0 *
Ed
 1e-07 1 1 0
1  33 0 0 1
2  45 10 0 0 1
2  46 11 0 0 1
0

0101000
+81 2 -39 0 *
Wi

0101100
+80 0 +22 0 -38 0 -25 0 *
Fa
0  1e-07 10 0

0111000
+21 0 *
Ed
 1e-07 1 1 0
1  34 0 0 1
2  47 11 0 0 1
0

0101000
+88 2 -47 0 *
Wi

0101100
+79 0 -19 0 -37 0 +22 0 *
Fa
0  1e-07 11 0

0111000
+18 0 *
Ed
 1e-07 1 1 0
1  35 0 0 1
2  48 8 0 0 1
0

0101000
+88 2 -53 0 *
Wi

0101100
+19 0 -45 0 -16 0 *
Fa
0  1e-07 19 0

0111000
+15 0 *
Ed
 1e-05 1 1 0
1  36 0 0 1
2  49 8 0 0 1
0

0101000
+97 2 -61 0 *
Wi

0101100
+86 0 -13 0 -51 0 +16 0 *
Fa
0  1e-07 8 0

0111000
+12 0 *
Ed
 1e-05 1 1 0
1  37 0 0 1
2  50 4 0 0 1
0

0101000
+97 2 -69 0 *
Wi

0101100
+13 0 -59 0 -10 0 *
Fa
0  1e-05 20 0

0111000
+9 0 *
Ed
 1e-07 1 1 0
1  38 0 0 1
2  51 4 0 0 1
2  52 5 0 0 1
0

0101000
+95 2 -67 0 *
Wi

0101100
+94 0 -7 0 -66 0 +10 0 *
Fa
0  1e-07 4 0

0111000
+6 0 *
Wi

0101100
+93 0 -72 0 -65 0 +7 0 *
Fa
0  1e-07 5 0

0111000
+4 0 *
Sh

0101100
+91 0 +84 0 +77 0 -70 0 -63 0 -56 0 -49 0 -42 0 -35 0 -32 0 
-29 0 -26 0 -23 0 -20 0 +17 0 +14 0 +11 0 +8 0 +5 0 +3 0 
*
So

1100100
-2 0 *

+1 1  