999
DXF created by Macad3D
0
SECTION
2
HEADER
9
$ACADVER
1
AC1015
9
$HANDSEED
5
FFFFFF
9
$ANGDIR
70
1
9
$MEASUREMENT
70
1
0
ENDSEC
0
SECTION
2
CLASSES
0
ENDSEC
0
SECTION
2
TABLES
0
TABLE
2
VPORT
5
1
100
AcDbSymbolTable
70
0
0
ENDTAB
0
TABLE
2
LTYPE
5
2
100
AcDbSymbolTable
70
5
0
LTYPE
5
3
100
AcDbSymbolTableRecord
100
AcDbLinetypeTableRecord
2
BYBLOCK
70
0
3

72
65
73
0
40
0
0
LTYPE
5
4
100
AcDbSymbolTableRecord
100
AcDbLinetypeTableRecord
2
BYLAYER
70
0
3

72
65
73
0
40
0
0
LTYPE
5
5
100
AcDbSymbolTableRecord
100
AcDbLinetypeTableRecord
2
CONTINUOUS
70
0
3
Solid line
72
65
73
0
40
0
0
LTYPE
5
6
100
AcDbSymbolTableRecord
100
AcDbLinetypeTableRecord
2
Outline
70
0
3

72
65
73
0
40
0
0
LTYPE
5
7
100
AcDbSymbolTableRecord
100
AcDbLinetypeTableRecord
2
FilledOutline
70
0
3

72
65
73
0
40
0
0
ENDTAB
0
TABLE
2
LAYER
5
8
100
AcDbSymbolTable
70
2
0
LAYER
5
9
100
AcDbSymbolTableRecord
100
AcDbLayerTableRecord
2
0
70
0
6
CONTINUOUS
390
0
0
LAYER
5
A
100
AcDbSymbolTableRecord
100
AcDbLayerTableRecord
2
Layer0
70
0
6
Outline
390
0
0
ENDTAB
0
TABLE
2
STYLE
5
B
100
AcDbSymbolTable
70
1
0
STYLE
5
C
100
AcDbSymbolTableRecord
100
AcDbTextStyleTableRecord
2
STANDARD
70
0
40
0
41
1
50
0
71
0
42
2.5
3
txt
4

0
ENDTAB
0
TABLE
2
VIEW
5
D
100
AcDbSymbolTable
70
0
0
ENDTAB
0
TABLE
2
UCS
5
E
100
AcDbSymbolTable
70
0
0
ENDTAB
0
TABLE
2
APPID
5
F
100
AcDbSymbolTable
70
1
0
APPID
5
10
100
AcDbSymbolTableRecord
100
AcDbRegAppTableRecord
2
ACAD
70
0
0
ENDTAB
0
TABLE
2
DIMSTYLE
5
11
100
AcDbSymbolTable
70
1
100
AcDbDimStyleTable
0
DIMSTYLE
105
12
100
AcDbSymbolTableRecord
100
AcDbDimStyleTableRecord
2
STANDARD
70
0
0
ENDTAB
0
TABLE
2
BLOCK_RECORD
5
13
100
AcDbSymbolTable
70
2
0
BLOCK_RECORD
5
14
100
AcDbSymbolTableRecord
100
AcDbBlockTableRecord
2
*MODEL_SPACE
0
BLOCK_RECORD
5
15
100
AcDbSymbolTableRecord
100
AcDbBlockTableRecord
2
*PAPER_SPACE
0
ENDTAB
0
ENDSEC
0
SECTION
2
BLOCKS
0
BLOCK
5
16
100
AcDbEntity
8
0
100
AcDbBlockBegin
2
*Model_Space
70
0
10
0
20
0
30
0
3
*Model_Space
1

0
ENDBLK
5
17
100
AcDbEntity
8
0
100
AcDbBlockEnd
0
BLOCK
5
18
100
AcDbEntity
8
0
100
AcDbBlockBegin
2
*Paper_Space
70
0
10
0
20
0
30
0
3
*Paper_Space
1

0
ENDBLK
5
19
100
AcDbEntity
8
0
100
AcDbBlockEnd
0
ENDSEC
0
SECTION
2
ENTITIES
0
LINE
5
1A
100
AcDbEntity
8
Layer0
100
AcDbLine
10
8.25
20
2.25
30
0
11
8.25
21
-2.25
31
0
0
LINE
5
1B
100
AcDbEntity
8
Layer0
100
AcDbLine
10
3.5
20
2.25
30
0
11
8.25
21
2.25
31
0
0
LINE
5
1C
100
AcDbEntity
8
Layer0
100
AcDbLine
10
8.25
20
-2.25
30
0
11
3.5
21
-2.25
31
0
0
LINE
5
1D
100
AcDbEntity
8
Layer0
100
AcDbLine
10
3.5
20
-2.25
30
0
11
3.5
21
2.25
31
0
0
LINE
5
1E
100
AcDbEntity
8
Layer0
100
AcDbLine
10
7.775
20
-1.75
30
0
11
7.775
21
1.75
31
0
0
LINE
5
1F
100
AcDbEntity
8
Layer0
100
AcDbLine
10
3.975
20
-1.75
30
0
11
7.775
21
-1.75
31
0
0
LINE
5
20
100
AcDbEntity
8
Layer0
100
AcDbLine
10
3.975
20
1.75
30
0
11
3.975
21
-1.75
31
0
0
LINE
5
21
100
AcDbEntity
8
Layer0
100
AcDbLine
10
7.775
20
1.75
30
0
11
3.975
21
1.75
31
0
0
LINE
5
22
100
AcDbEntity
8
Layer0
100
AcDbLine
10
8.25
20
-7.77
30
0
11
8.25
21
-3.27
31
0
0
LINE
5
23
100
AcDbEntity
8
Layer0
100
AcDbLine
10
3.5
20
-7.77
30
0
11
8.25
21
-7.77
31
0
0
LINE
5
24
100
AcDbEntity
8
Layer0
100
AcDbLine
10
8.25
20
-3.27
30
0
11
3.5
21
-3.27
31
0
0
LINE
5
25
100
AcDbEntity
8
Layer0
100
AcDbLine
10
3.5
20
-3.27
30
0
11
3.5
21
-7.77
31
0
0
LINE
5
26
100
AcDbEntity
8
Layer0
100
AcDbLine
10
7.775
20
-3.77
30
0
11
7.775
21
-7.27
31
0
0
LINE
5
27
100
AcDbEntity
8
Layer0
100
AcDbLine
10
3.975
20
-3.77
30
0
11
7.775
21
-3.77
31
0
0
LINE
5
28
100
AcDbEntity
8
Layer0
100
AcDbLine
10
3.975
20
-7.27
30
0
11
3.975
21
-3.77
31
0
0
LINE
5
29
100
AcDbEntity
8
Layer0
100
AcDbLine
10
7.775
20
-7.27
30
0
11
3.975
21
-7.27
31
0
0
LINE
5
2A
100
AcDbEntity
8
Layer0
100
AcDbLine
10
-9
20
-2.75
30
0
11
9
21
-2.75
31
0
0
LINE
5
2B
100
AcDbEntity
8
Layer0
100
AcDbLine
10
-9
20
-2.75
30
0
11
-9
21
2.75
31
0
0
LINE
5
2C
100
AcDbEntity
8
Layer0
100
AcDbLine
10
-9
20
2.75
30
0
11
9
21
2.75
31
0
0
LINE
5
2D
100
AcDbEntity
8
Layer0
100
AcDbLine
10
9
20
-2.75
30
0
11
9
21
2.75
31
0
0
LINE
5
2E
100
AcDbEntity
8
Layer0
100
AcDbLine
10
-6.5
20
-0.25
30
0
11
-8.5
21
-0.25
31
0
0
LINE
5
2F
100
AcDbEntity
8
Layer0
100
AcDbLine
10
-8.5
20
-0.25
30
0
11
-8.5
21
-2
31
0
0
ARC
5
30
100
AcDbEntity
8
Layer0
100
AcDbCircle
10
-8.25
20
-2
30
0
40
0.25
100
AcDbArc
50
-180
51
-90
0
LINE
5
31
100
AcDbEntity
8
Layer0
100
AcDbLine
10
-8.25
20
-2.25
30
0
11
-6.5
21
-2.25
31
0
0
LINE
5
32
100
AcDbEntity
8
Layer0
100
AcDbLine
10
-6.5
20
-2.25
30
0
11
-6.5
21
-0.25
31
0
0
LINE
5
33
100
AcDbEntity
8
Layer0
100
AcDbLine
10
-6
20
-2.25
30
0
11
-3
21
-2.25
31
0
0
LINE
5
34
100
AcDbEntity
8
Layer0
100
AcDbLine
10
-3
20
-2.25
30
0
11
-6
21
-0.3
31
0
0
LINE
5
35
100
AcDbEntity
8
Layer0
100
AcDbLine
10
-6
20
-0.3
30
0
11
-6
21
-2.25
31
0
0
LINE
5
36
100
AcDbEntity
8
Layer0
100
AcDbLine
10
0.5
20
-2.25
30
0
11
0.5
21
-0.3
31
0
0
LINE
5
37
100
AcDbEntity
8
Layer0
100
AcDbLine
10
0.5
20
-0.3
30
0
11
-2.5
21
-2.25
31
0
0
LINE
5
38
100
AcDbEntity
8
Layer0
100
AcDbLine
10
-2.5
20
-2.25
30
0
11
0.5
21
-2.25
31
0
0
LINE
5
39
100
AcDbEntity
8
Layer0
100
AcDbLine
10
-6.5
20
0.25
30
0
11
-6.5
21
2.25
31
0
0
LINE
5
3A
100
AcDbEntity
8
Layer0
100
AcDbLine
10
-6.5
20
2.25
30
0
11
-8.25
21
2.25
31
0
0
ARC
5
3B
100
AcDbEntity
8
Layer0
100
AcDbCircle
10
-8.25
20
2
30
0
40
0.250000000000001
100
AcDbArc
50
90
51
180
0
LINE
5
3C
100
AcDbEntity
8
Layer0
100
AcDbLine
10
-8.5
20
2
30
0
11
-8.5
21
0.25
31
0
0
LINE
5
3D
100
AcDbEntity
8
Layer0
100
AcDbLine
10
-8.5
20
0.25
30
0
11
-6.5
21
0.25
31
0
0
LINE
5
3E
100
AcDbEntity
8
Layer0
100
AcDbLine
10
-2.75
20
-2
30
0
11
-5.75
21
8.88178419700125E-16
31
0
0
LINE
5
3F
100
AcDbEntity
8
Layer0
100
AcDbLine
10
0.25
20
2.08166817117217E-16
30
0
11
-2.75
21
-2
31
0
0
LINE
5
40
100
AcDbEntity
8
Layer0
100
AcDbLine
10
-2.75
20
2
30
0
11
0.250000000000001
21
1.11022302462516E-15
31
0
0
LINE
5
41
100
AcDbEntity
8
Layer0
100
AcDbLine
10
-5.75
20
0
30
0
11
-2.75
21
2
31
0
0
LINE
5
42
100
AcDbEntity
8
Layer0
100
AcDbLine
10
-6
20
0.3
30
0
11
-6
21
2.25
31
0
0
LINE
5
43
100
AcDbEntity
8
Layer0
100
AcDbLine
10
-3
20
2.25
30
0
11
-6
21
0.3
31
0
0
LINE
5
44
100
AcDbEntity
8
Layer0
100
AcDbLine
10
-6
20
2.25
30
0
11
-3
21
2.25
31
0
0
LINE
5
45
100
AcDbEntity
8
Layer0
100
AcDbLine
10
0.5
20
0.3
30
0
11
-2.5
21
2.25
31
0
0
LINE
5
46
100
AcDbEntity
8
Layer0
100
AcDbLine
10
0.5
20
2.25
30
0
11
0.5
21
0.3
31
0
0
LINE
5
47
100
AcDbEntity
8
Layer0
100
AcDbLine
10
-2.5
20
2.25
30
0
11
0.5
21
2.25
31
0
0
ARC
5
48
100
AcDbEntity
8
Layer0
100
AcDbCircle
10
2.75
20
-2
30
0
40
0.25
100
AcDbArc
50
-90
51
-5.08888749034163E-14
0
LINE
5
49
100
AcDbEntity
8
Layer0
100
AcDbLine
10
3
20
-0.25
30
0
11
3
21
-2
31
0
0
LINE
5
4A
100
AcDbEntity
8
Layer0
100
AcDbLine
10
1
20
-0.25
30
0
11
3
21
-0.25
31
0
0
LINE
5
4B
100
AcDbEntity
8
Layer0
100
AcDbLine
10
1
20
-2.25
30
0
11
1
21
-0.25
31
0
0
LINE
5
4C
100
AcDbEntity
8
Layer0
100
AcDbLine
10
2.75
20
-2.25
30
0
11
1
21
-2.25
31
0
0
LINE
5
4D
100
AcDbEntity
8
Layer0
100
AcDbLine
10
1
20
2.25
30
0
11
2.75
21
2.25
31
0
0
LINE
5
4E
100
AcDbEntity
8
Layer0
100
AcDbLine
10
1
20
0.25
30
0
11
1
21
2.25
31
0
0
LINE
5
4F
100
AcDbEntity
8
Layer0
100
AcDbLine
10
3
20
0.25
30
0
11
1
21
0.25
31
0
0
LINE
5
50
100
AcDbEntity
8
Layer0
100
AcDbLine
10
3
20
2
30
0
11
3
21
0.25
31
0
0
ARC
5
51
100
AcDbEntity
8
Layer0
100
AcDbCircle
10
2.75
20
2
30
0
40
0.25
100
AcDbArc
50
0
51
90
0
LINE
5
52
100
AcDbEntity
8
Layer0
100
AcDbLine
10
9
20
-2.77
30
0
11
9
21
-8.27
31
0
0
LINE
5
53
100
AcDbEntity
8
Layer0
100
AcDbLine
10
-9
20
-8.27
30
0
11
9
21
-8.27
31
0
0
LINE
5
54
100
AcDbEntity
8
Layer0
100
AcDbLine
10
-9
20
-2.77
30
0
11
-9
21
-8.27
31
0
0
LINE
5
55
100
AcDbEntity
8
Layer0
100
AcDbLine
10
-9
20
-2.77
30
0
11
9
21
-2.77
31
0
0
LINE
5
56
100
AcDbEntity
8
Layer0
100
AcDbLine
10
-8.5
20
-5.77
30
0
11
-6.5
21
-5.77
31
0
0
LINE
5
57
100
AcDbEntity
8
Layer0
100
AcDbLine
10
-8.5
20
-7.52
30
0
11
-8.5
21
-5.77
31
0
0
ARC
5
58
100
AcDbEntity
8
Layer0
100
AcDbCircle
10
-8.25
20
-7.52
30
0
40
0.250000000000001
100
AcDbArc
50
-180
51
-90
0
LINE
5
59
100
AcDbEntity
8
Layer0
100
AcDbLine
10
-6.5
20
-7.77
30
0
11
-8.25
21
-7.77
31
0
0
LINE
5
5A
100
AcDbEntity
8
Layer0
100
AcDbLine
10
-6.5
20
-5.77
30
0
11
-6.5
21
-7.77
31
0
0
LINE
5
5B
100
AcDbEntity
8
Layer0
100
AcDbLine
10
-6
20
-7.77
30
0
11
-3
21
-7.77
31
0
0
LINE
5
5C
100
AcDbEntity
8
Layer0
100
AcDbLine
10
-3
20
-7.77
30
0
11
-6
21
-5.82
31
0
0
LINE
5
5D
100
AcDbEntity
8
Layer0
100
AcDbLine
10
-6
20
-5.82
30
0
11
-6
21
-7.77
31
0
0
LINE
5
5E
100
AcDbEntity
8
Layer0
100
AcDbLine
10
-5.75
20
-5.52
30
0
11
-2.75
21
-7.52
31
0
0
LINE
5
5F
100
AcDbEntity
8
Layer0
100
AcDbLine
10
-2.75
20
-7.52
30
0
11
0.25
21
-5.52
31
0
0
LINE
5
60
100
AcDbEntity
8
Layer0
100
AcDbLine
10
0.250000000000001
20
-5.52
30
0
11
-2.75
21
-3.52
31
0
0
LINE
5
61
100
AcDbEntity
8
Layer0
100
AcDbLine
10
-2.75
20
-3.52
30
0
11
-5.75
21
-5.52
31
0
0
LINE
5
62
100
AcDbEntity
8
Layer0
100
AcDbLine
10
-2.5
20
-7.77
30
0
11
0.5
21
-7.77
31
0
0
LINE
5
63
100
AcDbEntity
8
Layer0
100
AcDbLine
10
0.5
20
-7.77
30
0
11
0.5
21
-5.82
31
0
0
LINE
5
64
100
AcDbEntity
8
Layer0
100
AcDbLine
10
0.5
20
-5.82
30
0
11
-2.5
21
-7.77
31
0
0
LINE
5
65
100
AcDbEntity
8
Layer0
100
AcDbLine
10
-6.5
20
-3.27
30
0
11
-6.5
21
-5.27
31
0
0
LINE
5
66
100
AcDbEntity
8
Layer0
100
AcDbLine
10
-8.25
20
-3.27
30
0
11
-6.5
21
-3.27
31
0
0
ARC
5
67
100
AcDbEntity
8
Layer0
100
AcDbCircle
10
-8.25
20
-3.52
30
0
40
0.25
100
AcDbArc
50
90
51
180
0
LINE
5
68
100
AcDbEntity
8
Layer0
100
AcDbLine
10
-8.5
20
-5.27
30
0
11
-8.5
21
-3.52
31
0
0
LINE
5
69
100
AcDbEntity
8
Layer0
100
AcDbLine
10
-6.5
20
-5.27
30
0
11
-8.5
21
-5.27
31
0
0
LINE
5
6A
100
AcDbEntity
8
Layer0
100
AcDbLine
10
-6
20
-5.22
30
0
11
-6
21
-3.27
31
0
0
LINE
5
6B
100
AcDbEntity
8
Layer0
100
AcDbLine
10
-3
20
-3.27
30
0
11
-6
21
-5.22
31
0
0
LINE
5
6C
100
AcDbEntity
8
Layer0
100
AcDbLine
10
-6
20
-3.27
30
0
11
-3
21
-3.27
31
0
0
LINE
5
6D
100
AcDbEntity
8
Layer0
100
AcDbLine
10
-2.5
20
-3.27
30
0
11
0.5
21
-3.27
31
0
0
LINE
5
6E
100
AcDbEntity
8
Layer0
100
AcDbLine
10
0.500000000000001
20
-5.22
30
0
11
-2.5
21
-3.27
31
0
0
LINE
5
6F
100
AcDbEntity
8
Layer0
100
AcDbLine
10
0.5
20
-3.27
30
0
11
0.5
21
-5.22
31
0
0
LINE
5
70
100
AcDbEntity
8
Layer0
100
AcDbLine
10
3
20
-7.52
30
0
11
3
21
-5.77
31
0
0
LINE
5
71
100
AcDbEntity
8
Layer0
100
AcDbLine
10
3
20
-5.77
30
0
11
1
21
-5.77
31
0
0
LINE
5
72
100
AcDbEntity
8
Layer0
100
AcDbLine
10
1
20
-5.77
30
0
11
1
21
-7.77
31
0
0
LINE
5
73
100
AcDbEntity
8
Layer0
100
AcDbLine
10
1
20
-7.77
30
0
11
2.75
21
-7.77
31
0
0
ARC
5
74
100
AcDbEntity
8
Layer0
100
AcDbCircle
10
2.75
20
-7.52
30
0
40
0.25
100
AcDbArc
50
-90
51
0
0
LINE
5
75
100
AcDbEntity
8
Layer0
100
AcDbLine
10
2.75
20
-3.27
30
0
11
1
21
-3.27
31
0
0
LINE
5
76
100
AcDbEntity
8
Layer0
100
AcDbLine
10
1
20
-3.27
30
0
11
1
21
-5.27
31
0
0
LINE
5
77
100
AcDbEntity
8
Layer0
100
AcDbLine
10
1
20
-5.27
30
0
11
3
21
-5.27
31
0
0
LINE
5
78
100
AcDbEntity
8
Layer0
100
AcDbLine
10
3
20
-5.27
30
0
11
3
21
-3.52
31
0
0
ARC
5
79
100
AcDbEntity
8
Layer0
100
AcDbCircle
10
2.75
20
-3.52
30
0
40
0.25
100
AcDbArc
50
1.01777749806832E-13
51
90
0
ENDSEC
0
SECTION
2
OBJECTS
0
DICTIONARY
5
7A
100
AcDbDictionary
281
1
3
ACAD_GROUP
350
7B
0
DICTIONARY
5
7B
100
AcDbDictionary
281
1
0
ENDSEC
0
EOF
