999
DXF created by Macad3D
0
SECTION
2
HEADER
9
$ACADVER
1
AC1015
9
$HANDSEED
5
FFFFFF
9
$ANGDIR
70
1
9
$MEASUREMENT
70
1
0
ENDSEC
0
SECTION
2
CLASSES
0
ENDSEC
0
SECTION
2
TABLES
0
TABLE
2
VPORT
5
1
100
AcDbSymbolTable
70
0
0
ENDTAB
0
TABLE
2
LTYPE
5
2
100
AcDbSymbolTable
70
5
0
LTYPE
5
3
100
AcDbSymbolTableRecord
100
AcDbLinetypeTableRecord
2
BYBLOCK
70
0
3

72
65
73
0
40
0
0
LTYPE
5
4
100
AcDbSymbolTableRecord
100
AcDbLinetypeTableRecord
2
BYLAYER
70
0
3

72
65
73
0
40
0
0
LTYPE
5
5
100
AcDbSymbolTableRecord
100
AcDbLinetypeTableRecord
2
CONTINUOUS
70
0
3
Solid line
72
65
73
0
40
0
0
LTYPE
5
6
100
AcDbSymbolTableRecord
100
AcDbLinetypeTableRecord
2
Outline
70
0
3

72
65
73
0
40
0
0
LTYPE
5
7
100
AcDbSymbolTableRecord
100
AcDbLinetypeTableRecord
2
FilledOutline
70
0
3

72
65
73
0
40
0
0
ENDTAB
0
TABLE
2
LAYER
5
8
100
AcDbSymbolTable
70
3
0
LAYER
5
9
100
AcDbSymbolTableRecord
100
AcDbLayerTableRecord
2
0
70
0
6
CONTINUOUS
390
0
0
LAYER
5
A
100
AcDbSymbolTableRecord
100
AcDbLayerTableRecord
2
Layer0
70
0
6
Outline
390
0
0
LAYER
5
B
100
AcDbSymbolTableRecord
100
AcDbLayerTableRecord
2
Layer1
70
0
6
Outline
390
0
0
ENDTAB
0
TABLE
2
STYLE
5
C
100
AcDbSymbolTable
70
1
0
STYLE
5
D
100
AcDbSymbolTableRecord
100
AcDbTextStyleTableRecord
2
STANDARD
70
0
40
0
41
1
50
0
71
0
42
2.5
3
txt
4

0
ENDTAB
0
TABLE
2
VIEW
5
E
100
AcDbSymbolTable
70
0
0
ENDTAB
0
TABLE
2
UCS
5
F
100
AcDbSymbolTable
70
0
0
ENDTAB
0
TABLE
2
APPID
5
10
100
AcDbSymbolTable
70
1
0
APPID
5
11
100
AcDbSymbolTableRecord
100
AcDbRegAppTableRecord
2
ACAD
70
0
0
ENDTAB
0
TABLE
2
DIMSTYLE
5
12
100
AcDbSymbolTable
70
1
100
AcDbDimStyleTable
0
DIMSTYLE
105
13
100
AcDbSymbolTableRecord
100
AcDbDimStyleTableRecord
2
STANDARD
70
0
0
ENDTAB
0
TABLE
2
BLOCK_RECORD
5
14
100
AcDbSymbolTable
70
2
0
BLOCK_RECORD
5
15
100
AcDbSymbolTableRecord
100
AcDbBlockTableRecord
2
*MODEL_SPACE
0
BLOCK_RECORD
5
16
100
AcDbSymbolTableRecord
100
AcDbBlockTableRecord
2
*PAPER_SPACE
0
ENDTAB
0
ENDSEC
0
SECTION
2
BLOCKS
0
BLOCK
5
17
100
AcDbEntity
8
0
100
AcDbBlockBegin
2
*Model_Space
70
0
10
0
20
0
30
0
3
*Model_Space
1

0
ENDBLK
5
18
100
AcDbEntity
8
0
100
AcDbBlockEnd
0
BLOCK
5
19
100
AcDbEntity
8
0
100
AcDbBlockBegin
2
*Paper_Space
70
0
10
0
20
0
30
0
3
*Paper_Space
1

0
ENDBLK
5
1A
100
AcDbEntity
8
0
100
AcDbBlockEnd
0
ENDSEC
0
SECTION
2
ENTITIES
0
LINE
5
1B
100
AcDbEntity
8
Layer0
100
AcDbLine
10
-63.1053855334895
20
20
30
0
11
-43.1053855334895
21
20
31
0
0
LINE
5
1C
100
AcDbEntity
8
Layer0
100
AcDbLine
10
-43.1053855334895
20
20.9425789156648
30
0
11
-43.1053855334895
21
20
31
0
0
LINE
5
1D
100
AcDbEntity
8
Layer0
100
AcDbLine
10
-43.1053855334895
20
25.9425789156649
30
0
11
-43.1053855334895
21
20.9425789156649
31
0
0
LINE
5
1E
100
AcDbEntity
8
Layer0
100
AcDbLine
10
-43.1053855334895
20
25.9425789156649
30
0
11
-33.1053855334895
21
25.9425789156649
31
0
0
LINE
5
1F
100
AcDbEntity
8
Layer0
100
AcDbLine
10
-33.1053855334895
20
20.9425789156649
30
0
11
-33.1053855334895
21
25.9425789156649
31
0
0
LINE
5
20
100
AcDbEntity
8
Layer0
100
AcDbLine
10
-33.1053855334895
20
20.9425789156648
30
0
11
-33.1053855334895
21
20
31
0
0
LINE
5
21
100
AcDbEntity
8
Layer0
100
AcDbLine
10
-31.9276927667447
20
20
30
0
11
-33.1053855334895
21
20
31
0
0
LINE
5
22
100
AcDbEntity
8
Layer0
100
AcDbLine
10
-21.9276927667447
20
20
30
0
11
-31.9276927667447
21
20
31
0
0
LINE
5
23
100
AcDbEntity
8
Layer0
100
AcDbLine
10
-20.7499999999999
20
20
30
0
11
-21.9276927667447
21
20
31
0
0
LINE
5
24
100
AcDbEntity
8
Layer0
100
AcDbLine
10
20.75
20
20
30
0
11
-20.75
21
20
31
0
0
LINE
5
25
100
AcDbEntity
8
Layer0
100
AcDbLine
10
20.75
20
20
30
0
11
20.75
21
-20
31
0
0
LINE
5
26
100
AcDbEntity
8
Layer0
100
AcDbLine
10
20.75
20
-20
30
0
11
-20.75
21
-20
31
0
0
LINE
5
27
100
AcDbEntity
8
Layer0
100
AcDbLine
10
-20.75
20
-20
30
0
11
-21.9276927667447
21
-20
31
0
0
LINE
5
28
100
AcDbEntity
8
Layer0
100
AcDbLine
10
-21.9276927667447
20
-20
30
0
11
-31.9276927667447
21
-20
31
0
0
LINE
5
29
100
AcDbEntity
8
Layer0
100
AcDbLine
10
-31.9276927667447
20
-20
30
0
11
-33.1053855334895
21
-20
31
0
0
LINE
5
2A
100
AcDbEntity
8
Layer0
100
AcDbLine
10
-33.1053855334895
20
-21.1776927667448
30
0
11
-33.1053855334895
21
-20
31
0
0
LINE
5
2B
100
AcDbEntity
8
Layer0
100
AcDbLine
10
-33.1053855334895
20
-36.1776927667448
30
0
11
-33.1053855334895
21
-21.1776927667448
31
0
0
LINE
5
2C
100
AcDbEntity
8
Layer0
100
AcDbLine
10
-33.1053855334895
20
-41.6754799105269
30
0
11
-33.1053855334895
21
-36.1776927667448
31
0
0
LINE
5
2D
100
AcDbEntity
8
Layer0
100
AcDbLine
10
-33.1053855334895
20
-52.6710541980912
30
0
11
-33.1053855334895
21
-41.6754799105269
31
0
0
LINE
5
2E
100
AcDbEntity
8
Layer0
100
AcDbLine
10
-33.1053855334895
20
-58.1688413418733
30
0
11
-33.1053855334895
21
-52.6710541980912
31
0
0
LINE
5
2F
100
AcDbEntity
8
Layer0
100
AcDbLine
10
-73.1053855334895
20
-58.1688413418733
30
0
11
-33.1053855334895
21
-58.1688413418733
31
0
0
LINE
5
30
100
AcDbEntity
8
Layer0
100
AcDbLine
10
-73.1053855334895
20
-58.1688413418733
30
0
11
-73.1053855334895
21
-52.6710541980912
31
0
0
LINE
5
31
100
AcDbEntity
8
Layer0
100
AcDbLine
10
-73.1053855334895
20
-52.6710541980912
30
0
11
-73.1053855334895
21
-41.6754799105269
31
0
0
LINE
5
32
100
AcDbEntity
8
Layer0
100
AcDbLine
10
-73.1053855334895
20
-41.6754799105269
30
0
11
-73.1053855334895
21
-36.1776927667448
31
0
0
LINE
5
33
100
AcDbEntity
8
Layer0
100
AcDbLine
10
-73.1053855334895
20
-36.1776927667448
30
0
11
-73.1053855334895
21
-21.1776927667448
31
0
0
LINE
5
34
100
AcDbEntity
8
Layer0
100
AcDbLine
10
-73.1053855334895
20
-21.1776927667448
30
0
11
-73.1053855334895
21
-20
31
0
0
LINE
5
35
100
AcDbEntity
8
Layer0
100
AcDbLine
10
-74.2830783002343
20
-20
30
0
11
-73.1053855334895
21
-20
31
0
0
LINE
5
36
100
AcDbEntity
8
Layer0
100
AcDbLine
10
-83.2830783002343
20
-20
30
0
11
-74.2830783002343
21
-20
31
0
0
LINE
5
37
100
AcDbEntity
8
Layer0
100
AcDbLine
10
-83.8332614929639
20
-20
30
0
11
-83.2830783002343
21
-20
31
0
0
LINE
5
38
100
AcDbEntity
8
Layer0
100
AcDbLine
10
-84.3834446856935
20
-20
30
0
11
-83.8332614929639
21
-20
31
0
0
LINE
5
39
100
AcDbEntity
8
Layer0
100
AcDbLine
10
-85.3834446856935
20
-20
30
0
11
-84.3834446856935
21
-20
31
0
0
LINE
5
3A
100
AcDbEntity
8
Layer0
100
AcDbLine
10
-85.3834446856935
20
20
30
0
11
-85.3834446856935
21
-20
31
0
0
LINE
5
3B
100
AcDbEntity
8
Layer0
100
AcDbLine
10
-85.3834446856935
20
20
30
0
11
-84.3834446856935
21
20
31
0
0
LINE
5
3C
100
AcDbEntity
8
Layer0
100
AcDbLine
10
-84.3834446856935
20
20
30
0
11
-83.8332614929639
21
20
31
0
0
LINE
5
3D
100
AcDbEntity
8
Layer0
100
AcDbLine
10
-83.8332614929639
20
20
30
0
11
-83.2830783002343
21
20
31
0
0
LINE
5
3E
100
AcDbEntity
8
Layer0
100
AcDbLine
10
-83.2830783002343
20
20
30
0
11
-74.2830783002343
21
20
31
0
0
LINE
5
3F
100
AcDbEntity
8
Layer0
100
AcDbLine
10
-74.2830783002343
20
20
30
0
11
-73.1053855334895
21
20
31
0
0
LINE
5
40
100
AcDbEntity
8
Layer0
100
AcDbLine
10
-73.1053855334895
20
20.4189239625177
30
0
11
-73.1053855334895
21
20
31
0
0
LINE
5
41
100
AcDbEntity
8
Layer0
100
AcDbLine
10
-73.1053855334895
20
25.4189239625177
30
0
11
-73.1053855334895
21
20.4189239625177
31
0
0
LINE
5
42
100
AcDbEntity
8
Layer0
100
AcDbLine
10
-73.1053855334895
20
25.4189239625177
30
0
11
-63.1053855334895
21
25.4189239625177
31
0
0
LINE
5
43
100
AcDbEntity
8
Layer0
100
AcDbLine
10
-63.1053855334895
20
20.4189239625177
30
0
11
-63.1053855334895
21
25.4189239625177
31
0
0
LINE
5
44
100
AcDbEntity
8
Layer0
100
AcDbLine
10
-63.1053855334895
20
20.4189239625177
30
0
11
-63.1053855334895
21
20
31
0
0
ARC
5
45
100
AcDbEntity
8
Layer0
100
AcDbCircle
10
-53.1053855334895
20
0
30
0
40
7.21110255092798
100
AcDbArc
50
0
51
31.8156929873986
0
LINE
5
46
100
AcDbEntity
8
Layer0
100
AcDbLine
10
-47.0418155024746
20
8.12506566384796
30
0
11
-46.9777631767348
21
3.80161074453962
31
0
0
LINE
5
47
100
AcDbEntity
8
Layer0
100
AcDbLine
10
-59.0516318514271
20
7.94713928694202
30
0
11
-47.0418155024746
21
8.12506566384795
31
0
0
LINE
5
48
100
AcDbEntity
8
Layer0
100
AcDbLine
10
-58.9955262282539
20
4.16007723436481
30
0
11
-59.0516318514271
21
7.94713928694203
31
0
0
ARC
5
49
100
AcDbEntity
8
Layer0
100
AcDbCircle
10
-53.1053855334895
20
0
30
0
40
7.21110255092798
100
AcDbArc
50
144.767276910011
51
-143.069718109644
0
LINE
5
4A
100
AcDbEntity
8
Layer0
100
AcDbLine
10
-58.857058757409
20
-5.18631043046675
30
0
11
-58.8697044859013
21
-4.33273897377465
31
0
0
LINE
5
4B
100
AcDbEntity
8
Layer0
100
AcDbLine
10
-58.1267689651559
20
-5.17549112956311
30
0
11
-58.857058757409
21
-5.18631043046675
31
0
0
ARC
5
4C
100
AcDbEntity
8
Layer0
100
AcDbCircle
10
-53.1053855334895
20
0
30
0
40
7.21110255092798
100
AcDbArc
50
-134.134141696606
51
-44.1682995031823
0
LINE
5
4D
100
AcDbEntity
8
Layer0
100
AcDbLine
10
-46.8472424087142
20
-5.00838405349639
30
0
11
-47.9328889024995
21
-5.0244679919765
31
0
0
LINE
5
4E
100
AcDbEntity
8
Layer0
100
AcDbLine
10
-46.8678348398285
20
-3.6184197302149
30
0
11
-46.8472424087142
21
-5.00838405349639
31
0
0
ARC
5
4F
100
AcDbEntity
8
Layer0
100
AcDbCircle
10
-53.1053855334895
20
0
30
0
40
7.21110255092798
100
AcDbArc
50
-30.1181341892707
51
1.89522081016595E-13
0
LINE
5
50
100
AcDbEntity
8
Layer0
100
AcDbLine
10
5.19624631793757
20
7.94713928694203
30
0
11
5.00167322391949
21
-5.18631043046676
31
0
0
LINE
5
51
100
AcDbEntity
8
Layer0
100
AcDbLine
10
-6.81357003101486
20
8.12506566384795
30
0
11
5.19624631793757
21
7.94713928694202
31
0
0
LINE
5
52
100
AcDbEntity
8
Layer0
100
AcDbLine
10
-7.00814312477533
20
-5.0083840534964
30
0
11
-6.81357003101485
21
8.12506566384795
31
0
0
LINE
5
53
100
AcDbEntity
8
Layer0
100
AcDbLine
10
5.00167322391953
20
-5.18631043046675
30
0
11
-7.00814312477534
21
-5.00838405349639
31
0
0
LINE
5
54
100
AcDbEntity
8
Layer1
100
AcDbLine
10
-63.1053855334895
20
20
30
0
11
-43.1053855334895
21
20
31
0
0
LINE
5
55
100
AcDbEntity
8
Layer1
100
AcDbLine
10
-43.1053855334895
20
20
30
0
11
-33.1053855334895
21
20
31
0
0
LINE
5
56
100
AcDbEntity
8
Layer1
100
AcDbLine
10
-31.9276927667447
20
20
30
0
11
-33.1053855334895
21
20
31
0
0
LINE
5
57
100
AcDbEntity
8
Layer1
100
AcDbLine
10
-21.9276927667447
20
20
30
0
11
-31.9276927667447
21
20
31
0
0
LINE
5
58
100
AcDbEntity
8
Layer1
100
AcDbLine
10
-20.7499999999999
20
20
30
0
11
-21.9276927667447
21
20
31
0
0
LINE
5
59
100
AcDbEntity
8
Layer1
100
AcDbLine
10
20.75
20
20
30
0
11
-20.75
21
20
31
0
0
LINE
5
5A
100
AcDbEntity
8
Layer1
100
AcDbLine
10
20.75
20
20
30
0
11
20.75
21
-20
31
0
0
LINE
5
5B
100
AcDbEntity
8
Layer1
100
AcDbLine
10
20.75
20
-20
30
0
11
-20.75
21
-20
31
0
0
LINE
5
5C
100
AcDbEntity
8
Layer1
100
AcDbLine
10
-20.75
20
-20
30
0
11
-21.9276927667447
21
-20
31
0
0
LINE
5
5D
100
AcDbEntity
8
Layer1
100
AcDbLine
10
-21.9276927667447
20
-20
30
0
11
-31.9276927667447
21
-20
31
0
0
LINE
5
5E
100
AcDbEntity
8
Layer1
100
AcDbLine
10
-31.9276927667447
20
-20
30
0
11
-33.1053855334895
21
-20
31
0
0
LINE
5
5F
100
AcDbEntity
8
Layer1
100
AcDbLine
10
-33.1053855334895
20
-21.1776927667448
30
0
11
-33.1053855334895
21
-20
31
0
0
LINE
5
60
100
AcDbEntity
8
Layer1
100
AcDbLine
10
-33.1053855334895
20
-36.1776927667448
30
0
11
-33.1053855334895
21
-21.1776927667448
31
0
0
LINE
5
61
100
AcDbEntity
8
Layer1
100
AcDbLine
10
-33.1053855334895
20
-41.6754799105269
30
0
11
-33.1053855334895
21
-36.1776927667448
31
0
0
LINE
5
62
100
AcDbEntity
8
Layer1
100
AcDbLine
10
-33.1053855334895
20
-52.6710541980912
30
0
11
-33.1053855334895
21
-41.6754799105269
31
0
0
LINE
5
63
100
AcDbEntity
8
Layer1
100
AcDbLine
10
-33.1053855334895
20
-58.1688413418733
30
0
11
-33.1053855334895
21
-52.6710541980912
31
0
0
LINE
5
64
100
AcDbEntity
8
Layer1
100
AcDbLine
10
-73.1053855334895
20
-58.1688413418733
30
0
11
-33.1053855334895
21
-58.1688413418733
31
0
0
LINE
5
65
100
AcDbEntity
8
Layer1
100
AcDbLine
10
-73.1053855334895
20
-58.1688413418733
30
0
11
-73.1053855334895
21
-52.6710541980912
31
0
0
LINE
5
66
100
AcDbEntity
8
Layer1
100
AcDbLine
10
-73.1053855334895
20
-52.6710541980912
30
0
11
-73.1053855334895
21
-41.6754799105269
31
0
0
LINE
5
67
100
AcDbEntity
8
Layer1
100
AcDbLine
10
-73.1053855334895
20
-41.6754799105269
30
0
11
-73.1053855334895
21
-36.1776927667448
31
0
0
LINE
5
68
100
AcDbEntity
8
Layer1
100
AcDbLine
10
-73.1053855334895
20
-36.1776927667448
30
0
11
-73.1053855334895
21
-21.1776927667448
31
0
0
LINE
5
69
100
AcDbEntity
8
Layer1
100
AcDbLine
10
-73.1053855334895
20
-21.1776927667448
30
0
11
-73.1053855334895
21
-20
31
0
0
LINE
5
6A
100
AcDbEntity
8
Layer1
100
AcDbLine
10
-74.2830783002343
20
-20
30
0
11
-73.1053855334895
21
-20
31
0
0
LINE
5
6B
100
AcDbEntity
8
Layer1
100
AcDbLine
10
-83.2830783002343
20
-20
30
0
11
-74.2830783002343
21
-20
31
0
0
LINE
5
6C
100
AcDbEntity
8
Layer1
100
AcDbLine
10
-83.8332614929639
20
-20
30
0
11
-83.2830783002343
21
-20
31
0
0
LINE
5
6D
100
AcDbEntity
8
Layer1
100
AcDbLine
10
-84.3834446856935
20
-20
30
0
11
-83.8332614929639
21
-20
31
0
0
LINE
5
6E
100
AcDbEntity
8
Layer1
100
AcDbLine
10
-85.3834446856935
20
-20
30
0
11
-84.3834446856935
21
-20
31
0
0
LINE
5
6F
100
AcDbEntity
8
Layer1
100
AcDbLine
10
-85.3834446856935
20
20
30
0
11
-85.3834446856935
21
-20
31
0
0
LINE
5
70
100
AcDbEntity
8
Layer1
100
AcDbLine
10
-85.3834446856935
20
20
30
0
11
-84.3834446856935
21
20
31
0
0
LINE
5
71
100
AcDbEntity
8
Layer1
100
AcDbLine
10
-84.3834446856935
20
20
30
0
11
-83.8332614929639
21
20
31
0
0
LINE
5
72
100
AcDbEntity
8
Layer1
100
AcDbLine
10
-83.8332614929639
20
20
30
0
11
-83.2830783002343
21
20
31
0
0
LINE
5
73
100
AcDbEntity
8
Layer1
100
AcDbLine
10
-83.2830783002343
20
20
30
0
11
-74.2830783002343
21
20
31
0
0
LINE
5
74
100
AcDbEntity
8
Layer1
100
AcDbLine
10
-74.2830783002343
20
20
30
0
11
-73.1053855334895
21
20
31
0
0
LINE
5
75
100
AcDbEntity
8
Layer1
100
AcDbLine
10
-73.1053855334895
20
20
30
0
11
-63.1053855334895
21
20
31
0
0
LINE
5
76
100
AcDbEntity
8
Layer1
100
AcDbLine
10
-68.1053855334895
20
-10
30
0
11
-68.1053855334895
21
-15
31
0
0
LINE
5
77
100
AcDbEntity
8
Layer1
100
AcDbLine
10
-68.1053855334895
20
-15
30
0
11
-63.1053855334895
21
-15
31
0
0
LINE
5
78
100
AcDbEntity
8
Layer1
100
AcDbLine
10
-63.1053855334895
20
-15
30
0
11
-63.1053855334895
21
-10
31
0
0
LINE
5
79
100
AcDbEntity
8
Layer1
100
AcDbLine
10
-63.1053855334895
20
-10
30
0
11
-68.1053855334895
21
-10
31
0
0
ARC
5
7A
100
AcDbEntity
8
Layer1
100
AcDbCircle
10
-41.9387188668228
20
-11.1666666666667
30
0
40
4.00693842672376
100
AcDbArc
50
-106.927513064147
51
16.9275130641471
0
LINE
5
7B
100
AcDbEntity
8
Layer1
100
AcDbLine
10
-38.1053855334895
20
-10
30
0
11
-43.1053855334895
21
-10
31
0
0
LINE
5
7C
100
AcDbEntity
8
Layer1
100
AcDbLine
10
-43.1053855334895
20
-10
30
0
11
-43.1053855334895
21
-15
31
0
0
ARC
5
7D
100
AcDbEntity
8
Layer1
100
AcDbCircle
10
-53.1053855334895
20
0
30
0
40
7.21110255092798
100
AcDbArc
50
0
51
31.8156929873986
0
LINE
5
7E
100
AcDbEntity
8
Layer1
100
AcDbLine
10
-47.0418155024746
20
8.12506566384796
30
0
11
-46.9777631767348
21
3.80161074453962
31
0
0
LINE
5
7F
100
AcDbEntity
8
Layer1
100
AcDbLine
10
-59.0516318514271
20
7.94713928694202
30
0
11
-47.0418155024746
21
8.12506566384795
31
0
0
LINE
5
80
100
AcDbEntity
8
Layer1
100
AcDbLine
10
-58.9955262282539
20
4.16007723436481
30
0
11
-59.0516318514271
21
7.94713928694203
31
0
0
ARC
5
81
100
AcDbEntity
8
Layer1
100
AcDbCircle
10
-53.1053855334895
20
0
30
0
40
7.21110255092798
100
AcDbArc
50
144.767276910011
51
-143.069718109644
0
LINE
5
82
100
AcDbEntity
8
Layer1
100
AcDbLine
10
-58.857058757409
20
-5.18631043046675
30
0
11
-58.8697044859013
21
-4.33273897377465
31
0
0
LINE
5
83
100
AcDbEntity
8
Layer1
100
AcDbLine
10
-58.1267689651559
20
-5.17549112956311
30
0
11
-58.857058757409
21
-5.18631043046675
31
0
0
ARC
5
84
100
AcDbEntity
8
Layer1
100
AcDbCircle
10
-53.1053855334895
20
0
30
0
40
7.21110255092798
100
AcDbArc
50
-134.134141696606
51
-44.1682995031823
0
LINE
5
85
100
AcDbEntity
8
Layer1
100
AcDbLine
10
-46.8472424087142
20
-5.00838405349639
30
0
11
-47.9328889024995
21
-5.0244679919765
31
0
0
LINE
5
86
100
AcDbEntity
8
Layer1
100
AcDbLine
10
-46.8678348398285
20
-3.6184197302149
30
0
11
-46.8472424087142
21
-5.00838405349639
31
0
0
ARC
5
87
100
AcDbEntity
8
Layer1
100
AcDbCircle
10
-53.1053855334895
20
0
30
0
40
7.21110255092798
100
AcDbArc
50
-30.1181341892707
51
1.89522081016595E-13
0
CIRCLE
5
88
100
AcDbEntity
8
Layer1
100
AcDbCircle
10
-65.1053855334895
20
12
30
0
40
3
0
CIRCLE
5
89
100
AcDbEntity
8
Layer1
100
AcDbCircle
10
-41.1053855334895
20
12
30
0
40
2.82842712474619
0
LINE
5
8A
100
AcDbEntity
8
Layer1
100
AcDbLine
10
5.19624631793757
20
7.94713928694203
30
0
11
5.00167322391949
21
-5.18631043046676
31
0
0
LINE
5
8B
100
AcDbEntity
8
Layer1
100
AcDbLine
10
-6.81357003101486
20
8.12506566384795
30
0
11
5.19624631793757
21
7.94713928694202
31
0
0
LINE
5
8C
100
AcDbEntity
8
Layer1
100
AcDbLine
10
-7.00814312477533
20
-5.0083840534964
30
0
11
-6.81357003101485
21
8.12506566384795
31
0
0
LINE
5
8D
100
AcDbEntity
8
Layer1
100
AcDbLine
10
5.00167322391953
20
-5.18631043046675
30
0
11
-7.00814312477534
21
-5.00838405349639
31
0
0
LINE
5
8E
100
AcDbEntity
8
Layer1
100
AcDbLine
10
-73.1053855334895
20
20.4189239625177
30
0
11
-63.1053855334895
21
20.4189239625177
31
0
0
LINE
5
8F
100
AcDbEntity
8
Layer1
100
AcDbLine
10
-73.1053855334895
20
25.4189239625177
30
0
11
-73.1053855334895
21
20.4189239625177
31
0
0
LINE
5
90
100
AcDbEntity
8
Layer1
100
AcDbLine
10
-73.1053855334895
20
25.4189239625177
30
0
11
-63.1053855334895
21
25.4189239625177
31
0
0
LINE
5
91
100
AcDbEntity
8
Layer1
100
AcDbLine
10
-63.1053855334895
20
20.4189239625177
30
0
11
-63.1053855334895
21
25.4189239625177
31
0
0
LINE
5
92
100
AcDbEntity
8
Layer1
100
AcDbLine
10
-43.1053855334895
20
20.9425789156649
30
0
11
-33.1053855334895
21
20.9425789156649
31
0
0
LINE
5
93
100
AcDbEntity
8
Layer1
100
AcDbLine
10
-43.1053855334895
20
25.9425789156649
30
0
11
-43.1053855334895
21
20.9425789156649
31
0
0
LINE
5
94
100
AcDbEntity
8
Layer1
100
AcDbLine
10
-43.1053855334895
20
25.9425789156649
30
0
11
-33.1053855334895
21
25.9425789156649
31
0
0
LINE
5
95
100
AcDbEntity
8
Layer1
100
AcDbLine
10
-33.1053855334895
20
20.9425789156649
30
0
11
-33.1053855334895
21
25.9425789156649
31
0
0
ENDSEC
0
SECTION
2
OBJECTS
0
DICTIONARY
5
96
100
AcDbDictionary
281
1
3
ACAD_GROUP
350
97
0
DICTIONARY
5
97
100
AcDbDictionary
281
1
0
ENDSEC
0
EOF
