
CASCADE Topology V1, (c) Matra-Datavision
Locations 5
1
              1               0               0              -5 
              0               1               0              -5 
              0               0               1              -5 
1
              1               0               0               0 
              0               1               0               0 
              0               0               1               0 
2  2 -1 0
1
              1               0               0               5 
              0               1               0               0 
              0               0               1               0 
2  4 -1 0
Curve2ds 108
1 0 0 1 0 
1 0 0 1 0 
8 -2 0
1 2 0 0 1 
8 -2 0
1 0 0 0 -1 
1 0 -2 1 0 
1 0 0 1 0 
1 0 -2 1 0 
1 0 0 0 -1 
1 0 0 0 1 
1 0 0 1 0 
1 0 10 1 0 
1 10 0 0 1 
1 0 0 1 0 
1 0 0 0 1 
1 0 0 1 0 
8 0 2
1 8 0 0 1 
8 0 2
1 0 0 1 0 
8 0 2
1 2 0 0 1 
8 0 2
1 0 0 1 0 
1 0 0 1 0 
1 0 2 1 0 
1 0 2 1 0 
8 0 2
1 6 0 0 1 
8 0 2
1 0 0 1 0 
8 0 2
1 4 0 0 1 
8 0 2
1 0 0 1 0 
8 2.5 4.5
1 2 -2.5 0 1 
8 2.5 4.5
1 2.5 0 1 0 
1 2 2.5 0 1 
1 0 0 1 0 
1 0 0 1 0 
1 0 5 1 0 
8 2.5 4.5
1 4 -2.5 0 1 
8 2.5 4.5
1 2.5 0 1 0 
1 4 2.5 0 1 
1 0 0 1 0 
1 0 2 1 0 
1 0 7 1 0 
8 2.5 4.5
1 6 -2.5 0 1 
8 2.5 4.5
1 2.5 0 1 0 
1 6 2.5 0 1 
8 2.5 4.5
1 8 -2.5 0 1 
8 2.5 4.5
1 2.5 0 1 0 
1 8 2.5 0 1 
8 0 2
1 2 0 0 1 
8 0 2
1 0 2 1 0 
8 -2 0
1 2 0 0 1 
8 -2 0
1 2 0 0 -1 
1 0 -2 1 0 
1 0 10 1 0 
1 10 0 0 1 
1 0 2 1 0 
1 0 0 0 1 
1 0 2 1 0 
8 0 2
1 8 0 0 1 
8 0 2
1 0 2 1 0 
8 -10 0
1 0 2 -1 0 
8 -10 0
1 0 -2 -1 0 
8 0 2
1 6 0 0 1 
8 0 2
1 0 2 1 0 
8 0 2
1 4 0 0 1 
8 0 2
1 0 2 1 0 
8 -10 0
1 0 7 -1 0 
8 -10 0
1 0 -2 -1 0 
8 5 7
1 2 0 0 1 
8 5 7
1 0 2 1 0 
8 -10 0
1 0 5 -1 0 
8 -10 0
1 0 -2 -1 0 
8 5 7
1 4 0 0 1 
8 5 7
1 0 2 1 0 
8 5 7
1 6 0 0 1 
8 5 7
1 0 2 1 0 
8 5 7
1 8 0 0 1 
8 5 7
1 0 2 1 0 
1 0 0 0 -1 
1 10 0 0 1 
1 10 0 0 -1 
1 10 0 0 1 
1 10 0 0 -1 
1 0 0 0 1 
8 -2 0
1 8 0 0 1 
8 -2 0
1 0 0 0 -1 
8 -2 0
1 8 0 0 1 
8 -2 0
1 2 0 0 -1 
8 -2 0
1 6 0 0 1 
8 -2 0
1 2 0 0 -1 
8 -2 0
1 4 0 0 1 
8 -2 0
1 2 0 0 -1 
8 -2 0
1 6 0 0 1 
8 -2 0
1 0 0 0 -1 
8 -2 0
1 4 0 0 1 
8 -2 0
1 0 0 0 -1 
8 -2 0
1 2 0 0 1 
8 -2 0
1 5 0 0 -1 
8 -2 0
1 2 0 0 1 
8 -2 0
1 7 0 0 -1 
8 -2 0
1 4 0 0 1 
8 -2 0
1 5 0 0 -1 
8 -2 0
1 4 0 0 1 
8 -2 0
1 7 0 0 -1 
8 -2 0
1 6 0 0 1 
8 -2 0
1 5 0 0 -1 
8 -2 0
1 6 0 0 1 
8 -2 0
1 7 0 0 -1 
8 -2 0
1 8 0 0 1 
8 -2 0
1 5 0 0 -1 
8 -2 0
1 8 0 0 1 
8 -2 0
1 7 0 0 -1 
Curves 50
1 0 0 0 0 0 1 
1 0 0 2 0 -1 0 
1 0 2 0 0 0 1 
1 0 0 0 -0 1 0 
1 10 0 0 0 0 1 
1 0 0 10 1 0 -0 
1 0 0 0 1 0 -0 
1 0 0 8 1 0 -0 
1 0 0 2 1 0 -0 
1 2 0 0 0 0 1 
1 0 0 6 1 0 -0 
1 0 0 4 1 0 -0 
1 2.5 0 2 1 0 0 
1 0 0 0 0 0 1 
1 2.5 0 4 1 0 0 
1 2 0 0 0 0 1 
1 2.5 0 6 1 0 0 
1 2.5 0 8 1 0 0 
1 0 2 2 1 0 -0 
1 2 0 2 0 -1 0 
1 10 2 0 0 0 1 
1 0 2 10 1 0 -0 
1 0 2 0 1 0 -0 
1 0 2 8 1 0 -0 
1 2 2 0 0 0 -1 
1 0 2 6 1 0 -0 
1 0 2 4 1 0 -0 
1 7 2 0 0 0 -1 
1 0 2 2 1 0 -0 
1 5 2 0 0 0 -1 
1 0 2 4 1 0 -0 
1 0 2 6 1 0 -0 
1 0 2 8 1 0 -0 
1 10 0 0 -0 1 0 
1 10 0 10 -0 1 0 
1 0 0 10 -0 1 0 
1 0 0 8 0 -1 0 
1 2 0 8 0 -1 0 
1 2 0 6 0 -1 0 
1 2 0 4 0 -1 0 
1 0 0 6 0 -1 0 
1 0 0 4 0 -1 0 
1 5 0 2 0 -1 0 
1 7 0 2 0 -1 0 
1 5 0 4 0 -1 0 
1 7 0 4 0 -1 0 
1 5 0 6 0 -1 0 
1 7 0 6 0 -1 0 
1 5 0 8 0 -1 0 
1 7 0 8 0 -1 0 
Polygon3D 0
PolygonOnTriangulations 0
Surfaces 20
1 0 0 0 1 0 -0 0 0 1 0 -1 0 
1 0 0 0 -0 1 0 0 0 1 1 0 -0 
1 0 0 2 0 0 1 1 0 -0 -0 1 0 
1 0 2 0 -0 1 0 0 0 1 1 0 -0 
1 0 0 0 1 0 -0 0 0 1 0 -1 0 
1 0 0 0 0 0 1 1 0 -0 -0 1 0 
1 10 0 0 1 0 -0 0 0 1 0 -1 0 
1 0 0 10 0 0 1 1 0 -0 -0 1 0 
1 0 0 8 0 0 1 1 0 -0 -0 1 0 
1 2 0 0 1 0 -0 0 0 1 0 -1 0 
1 0 0 0 -0 1 0 0 0 1 1 0 -0 
1 0 0 6 0 0 1 1 0 -0 -0 1 0 
1 0 0 4 0 0 1 1 0 -0 -0 1 0 
1 0 0 0 -0 1 0 0 0 1 1 0 -0 
1 0 0 2 0 0 1 1 0 -0 -0 1 0 
1 0 0 0 1 0 -0 0 0 1 0 -1 0 
1 0 0 4 0 0 1 1 0 -0 -0 1 0 
1 2 0 0 1 0 -0 0 0 1 0 -1 0 
1 0 0 6 0 0 1 1 0 -0 -0 1 0 
1 0 0 8 0 0 1 1 0 -0 -0 1 0 
Triangulations 0

TShapes 151
Ve
1e-07
0 0 0
0 0

0101101
*
Ve
1.5e-07
0 0 2
0 0

0101101
*
Ed
 1e-07 1 1 0
1  1 0 0 2
2  1 1 0 0 2
2  2 2 0 0 2
0

0101000
+151 0 -150 0 *
Ve
1.5e-07
0 2 2
0 0

0101101
*
Ed
 1.5e-07 1 1 0
1  2 0 -2 0
2  3 1 0 -2 0
2  4 3 0 -2 0
0

0101000
+148 0 -150 0 *
Ve
1e-07
0 2 0
0 0

0101101
*
Ed
 1e-07 1 1 0
1  3 0 0 2
2  5 1 0 0 2
2  6 4 0 0 2
2  7 5 2 0 2
0

0101000
+146 0 -148 0 *
Ed
 1e-07 1 1 0
1  4 0 0 2
2  8 1 0 0 2
2  9 6 0 0 2
0

0101000
-146 0 +151 0 *
Wi

0101100
-149 0 +147 0 +145 0 +144 0 *
Fa
0  1e-07 1 0

0111000
+143 0 *
Ve
1e-07
10 0 10
0 0

0101101
*
Ve
1e-07
10 0 0
0 0

0101101
*
Ed
 1e-07 1 1 0
1  5 0 0 10
2  10 7 0 0 10
2  11 2 0 0 10
0

0101000
-141 0 +140 0 *
Ve
1e-07
0 0 10
0 0

0101101
*
Ed
 1e-07 1 1 0
1  6 0 0 10
2  12 2 0 0 10
2  13 8 0 0 10
0

0101000
-141 0 +138 0 *
Ed
 1e-07 1 1 0
1  7 0 0 10
2  14 2 0 0 10
2  15 6 0 0 10
0

0101000
-140 0 +151 0 *
Ve
1.5e-07
0 0 8
0 0

0101101
*
Ed
 1e-07 1 1 0
1  1 0 8 10
2  1 1 0 8 10
2  2 2 0 8 10
0

0101000
+135 0 -138 0 *
Ve
1.5e-07
2 0 8
0 0

0101101
*
Ed
 1.5e-07 1 1 0
1  8 0 0 2
2  16 2 0 0 2
2  17 9 0 0 2
0

0101000
+135 0 -133 0 *
Ve
1.5e-07
2 0 2
0 0

0101101
*
Ed
 1.5e-07 1 1 0
1  9 0 0 2
2  18 2 0 0 2
2  19 3 0 0 2
0

0101000
+150 0 -131 0 *
Ve
1.5e-07
2 0 6
0 0

0101101
*
Ed
 1e-07 1 1 0
1  10 0 6 8
2  20 10 0 6 8
2  21 11 0 6 8
2  22 2 3 6 8
0

0101000
+129 3 -133 3 *
Ve
1.5e-07
2 0 4
0 0

0101101
*
Ed
 1e-07 1 1 0
1  10 0 2 4
2  20 10 0 2 4
2  21 11 0 2 4
2  22 2 3 2 4
0

0101000
+131 3 -127 3 *
Ve
1.5e-07
0 0 6
0 0

0101101
*
Ed
 1.5e-07 1 1 0
1  11 0 0 2
2  23 2 0 0 2
2  24 12 0 0 2
0

0101000
+125 0 -129 0 *
Ve
1.5e-07
0 0 4
0 0

0101101
*
Ed
 1.5e-07 1 1 0
1  12 0 0 2
2  25 2 0 0 2
2  26 13 0 0 2
0

0101000
+123 0 -127 0 *
Ed
 1e-07 1 1 0
1  1 0 4 6
2  1 1 0 4 6
2  2 2 0 4 6
0

0101000
+123 0 -125 0 *
Wi

0101100
-139 0 +137 0 -136 0 +134 0 +149 0 -132 0 +130 0 +128 2 +126 2 +124 0 
-122 0 +121 0 *
Ve
1.5e-07
5 0 2
0 0

0101101
*
Ve
1.5e-07
7 0 2
0 0

0101101
*
Ed
 1.5e-07 1 1 0
1  13 0 2.5 4.5
2  27 14 4 2.5 4.5
2  28 15 0 2.5 4.5
2  29 2 0 2.5 4.5
0

0101000
+119 0 -118 0 *
Ve
1.5e-07
5 0 4
0 0

0101101
*
Ed
 1e-07 1 1 0
1  14 0 2 4
2  30 16 0 2 4
2  31 14 0 2 4
2  32 2 5 2 4
0

0101000
+119 5 -116 5 *
Ve
1.5e-07
7 0 4
0 0

0101101
*
Ed
 1.5e-07 1 1 0
1  15 0 2.5 4.5
2  33 14 4 2.5 4.5
2  34 17 0 2.5 4.5
2  35 2 0 2.5 4.5
0

0101000
+116 0 -114 0 *
Ed
 1e-07 1 1 0
1  16 0 2 4
2  36 18 0 2 4
2  37 14 0 2 4
2  38 2 5 2 4
0

0101000
+118 5 -114 5 *
Wi

0101100
+117 0 -115 4 -113 0 +112 4 *
Ve
1.5e-07
5 0 6
0 0

0101101
*
Ve
1.5e-07
7 0 6
0 0

0101101
*
Ed
 1.5e-07 1 1 0
1  17 0 2.5 4.5
2  39 14 4 2.5 4.5
2  40 19 0 2.5 4.5
2  41 2 0 2.5 4.5
0

0101000
+110 0 -109 0 *
Ve
1.5e-07
5 0 8
0 0

0101101
*
Ed
 1e-07 1 1 0
1  14 0 6 8
2  30 16 0 6 8
2  31 14 0 6 8
2  32 2 5 6 8
0

0101000
+110 5 -107 5 *
Ve
1.5e-07
7 0 8
0 0

0101101
*
Ed
 1.5e-07 1 1 0
1  18 0 2.5 4.5
2  42 14 4 2.5 4.5
2  43 20 0 2.5 4.5
2  44 2 0 2.5 4.5
0

0101000
+107 0 -105 0 *
Ed
 1e-07 1 1 0
1  16 0 6 8
2  36 18 0 6 8
2  37 14 0 6 8
2  38 2 5 6 8
0

0101000
+109 5 -105 5 *
Wi

0101100
+108 0 -106 4 -104 0 +103 4 *
Fa
0  1e-07 2 0

0111000
+120 0 +111 0 +102 0 *
Ve
1.5e-07
2 2 2
0 0

0101101
*
Ed
 1.5e-07 1 1 0
1  19 0 0 2
2  45 4 0 0 2
2  46 3 0 0 2
0

0101000
+148 0 -100 0 *
Ed
 1.5e-07 1 1 0
1  20 0 -2 0
2  47 10 2 -2 0
2  48 3 0 -2 0
0

0101000
+100 0 -131 0 *
Wi

0101100
-99 0 -98 0 +130 0 +147 0 *
Fa
0  1e-07 3 0

0111000
+97 0 *
Ve
1e-07
10 2 10
0 0

0101101
*
Ve
1e-07
10 2 0
0 0

0101101
*
Ed
 1e-07 1 1 0
1  21 0 0 10
2  49 7 0 0 10
2  50 4 0 0 10
0

0101000
-95 0 +94 0 *
Ve
1e-07
0 2 10
0 0

0101101
*
Ed
 1e-07 1 1 0
1  22 0 0 10
2  51 4 0 0 10
2  52 8 0 0 10
0

0101000
-95 0 +92 0 *
Ed
 1e-07 1 1 0
1  23 0 0 10
2  53 4 0 0 10
2  54 6 0 0 10
0

0101000
-94 0 +146 0 *
Ve
1.5e-07
0 2 8
0 0

0101101
*
Ed
 1e-07 1 1 0
1  3 0 8 10
2  5 1 0 8 10
2  6 4 0 8 10
2  7 5 2 8 10
0

0101000
+89 0 -92 0 *
Ve
1.5e-07
2 2 8
0 0

0101101
*
Ed
 1.5e-07 1 1 0
1  24 0 0 2
2  55 4 0 0 2
2  56 9 0 0 2
0

0101000
+89 0 -87 0 *
Ve
1.5e-07
2 2 6
0 0

0101101
*
Ed
 1.5e-07 1 1 0
1  25 0 -8 -6
2  57 4 0 -8 -6
2  58 10 2 -8 -6
0

0101000
+87 0 -85 0 *
Ve
1.5e-07
2 2 4
0 0

0101101
*
Ed
 1.5e-07 1 1 0
1  25 0 -4 -2
2  57 4 0 -4 -2
2  58 10 2 -4 -2
0

0101000
+83 0 -100 0 *
Ve
1.5e-07
0 2 6
0 0

0101101
*
Ed
 1.5e-07 1 1 0
1  26 0 0 2
2  59 4 0 0 2
2  60 12 0 0 2
0

0101000
+81 0 -85 0 *
Ve
1.5e-07
0 2 4
0 0

0101101
*
Ed
 1.5e-07 1 1 0
1  27 0 0 2
2  61 4 0 0 2
2  62 13 0 0 2
0

0101000
+79 0 -83 0 *
Ed
 1e-07 1 1 0
1  3 0 4 6
2  5 1 0 4 6
2  6 4 0 4 6
2  7 5 2 4 6
0

0101000
+79 0 -81 0 *
Wi

0101100
-93 0 +91 0 -90 0 +88 0 +145 0 -86 0 +99 0 -84 0 -82 0 +80 0 
-78 0 +77 0 *
Ve
1.5e-07
7 2 4
0 0

0101101
*
Ve
1.5e-07
7 2 2
0 0

0101101
*
Ed
 1.5e-07 1 1 0
1  28 0 -4 -2
2  63 4 0 -4 -2
2  64 18 4 -4 -2
0

0101000
+75 0 -74 0 *
Ve
1.5e-07
5 2 2
0 0

0101101
*
Ed
 1.5e-07 1 1 0
1  29 0 5 7
2  65 4 0 5 7
2  66 15 0 5 7
0

0101000
+72 0 -74 0 *
Ve
1.5e-07
5 2 4
0 0

0101101
*
Ed
 1.5e-07 1 1 0
1  30 0 -4 -2
2  67 4 0 -4 -2
2  68 16 4 -4 -2
0

0101000
+70 0 -72 0 *
Ed
 1.5e-07 1 1 0
1  31 0 5 7
2  69 4 0 5 7
2  70 17 0 5 7
0

0101000
+70 0 -75 0 *
Wi

0101100
-73 0 +71 0 +69 0 -68 0 *
Ve
1.5e-07
7 2 8
0 0

0101101
*
Ve
1.5e-07
7 2 6
0 0

0101101
*
Ed
 1.5e-07 1 1 0
1  28 0 -8 -6
2  63 4 0 -8 -6
2  64 18 4 -8 -6
0

0101000
+66 0 -65 0 *
Ve
1.5e-07
5 2 6
0 0

0101101
*
Ed
 1.5e-07 1 1 0
1  32 0 5 7
2  71 4 0 5 7
2  72 19 0 5 7
0

0101000
+63 0 -65 0 *
Ve
1.5e-07
5 2 8
0 0

0101101
*
Ed
 1.5e-07 1 1 0
1  30 0 -8 -6
2  67 4 0 -8 -6
2  68 16 4 -8 -6
0

0101000
+61 0 -63 0 *
Ed
 1.5e-07 1 1 0
1  33 0 5 7
2  73 4 0 5 7
2  74 20 0 5 7
0

0101000
+61 0 -66 0 *
Wi

0101100
-64 0 +62 0 +60 0 -59 0 *
Fa
0  1e-07 4 0

0111000
+76 0 +67 0 +58 0 *
Ed
 1e-07 1 1 0
1  34 0 0 2
2  75 7 0 0 2
2  76 6 0 0 2
0

0101000
-94 0 +140 0 *
Wi

0101100
-144 0 -90 0 +56 0 +136 0 *
Fa
0  1e-07 6 0

0111000
+55 0 *
Ed
 1e-07 1 1 0
1  35 0 0 2
2  77 7 0 0 2
2  78 8 0 0 2
0

0101000
-95 0 +141 0 *
Wi

0101100
-139 0 -53 0 +93 0 +56 0 *
Fa
0  1e-07 7 0

0111000
+52 0 *
Ed
 1e-07 1 1 0
1  36 0 0 2
2  79 1 0 0 2
2  80 8 0 0 2
0

0101000
-92 0 +138 0 *
Wi

0101100
-50 0 -91 0 +53 0 +137 0 *
Fa
0  1e-07 8 0

0111000
+49 0 *
Ed
 1.5e-07 1 1 0
1  37 0 -2 0
2  81 1 0 -2 0
2  82 9 0 -2 0
0

0101000
+89 0 -135 0 *
Wi

0101100
-134 0 -50 0 +88 0 -47 0 *
Fa
0  1e-07 1 0

0111000
+46 0 *
Ed
 1.5e-07 1 1 0
1  38 0 -2 0
2  83 10 2 -2 0
2  84 9 0 -2 0
0

0101000
+87 0 -133 0 *
Wi

0101100
-86 0 -44 0 +132 0 +47 0 *
Fa
0  1e-07 9 0

0111000
+43 0 *
Ed
 1.5e-07 1 1 0
1  39 0 -2 0
2  85 10 2 -2 0
2  86 12 0 -2 0
0

0101000
+85 0 -129 0 *
Wi

0101100
+44 0 -84 0 -41 0 -128 2 *
Fa
0  1e-07 10 2

0111000
+40 0 *
Ed
 1.5e-07 1 1 0
1  40 0 -2 0
2  87 10 2 -2 0
2  88 13 0 -2 0
0

0101000
+83 0 -127 0 *
Wi

0101100
+38 0 -82 0 -98 0 -126 2 *
Fa
0  1e-07 10 2

0111000
+37 0 *
Ed
 1.5e-07 1 1 0
1  41 0 -2 0
2  89 1 0 -2 0
2  90 12 0 -2 0
0

0101000
+81 0 -125 0 *
Wi

0101100
-80 0 -41 0 +124 0 +35 0 *
Fa
0  1e-07 12 0

0111000
+34 0 *
Ed
 1.5e-07 1 1 0
1  42 0 -2 0
2  91 1 0 -2 0
2  92 13 0 -2 0
0

0101000
+79 0 -123 0 *
Wi

0101100
-78 0 -38 0 +122 0 +32 0 *
Fa
0  1e-07 13 0

0111000
+31 0 *
Wi

0101100
-121 0 +35 0 +77 0 -32 0 *
Fa
0  1e-07 1 0

0111000
+29 0 *
Ed
 1.5e-07 1 1 0
1  43 0 -2 0
2  93 16 4 -2 0
2  94 15 0 -2 0
0

0101000
+72 0 -119 0 *
Ed
 1.5e-07 1 1 0
1  44 0 -2 0
2  95 18 4 -2 0
2  96 15 0 -2 0
0

0101000
+74 0 -118 0 *
Wi

0101100
+27 0 -71 0 -26 0 +117 0 *
Fa
0  1e-07 15 0

0111000
+25 0 *
Ed
 1.5e-07 1 1 0
1  45 0 -2 0
2  97 16 4 -2 0
2  98 17 0 -2 0
0

0101000
+70 0 -116 0 *
Wi

0101100
+23 0 -69 0 -27 0 -115 4 *
Fa
0  1e-07 16 4

0111000
+22 0 *
Ed
 1.5e-07 1 1 0
1  46 0 -2 0
2  99 18 4 -2 0
2  100 17 0 -2 0
0

0101000
+75 0 -114 0 *
Wi

0101100
+23 0 -68 0 -20 0 +113 0 *
Fa
0  1e-07 17 0

0111000
+19 0 *
Wi

0101100
+20 0 -73 0 -26 0 -112 4 *
Fa
0  1e-07 18 4

0111000
+17 0 *
Ed
 1.5e-07 1 1 0
1  47 0 -2 0
2  101 16 4 -2 0
2  102 19 0 -2 0
0

0101000
+63 0 -110 0 *
Ed
 1.5e-07 1 1 0
1  48 0 -2 0
2  103 18 4 -2 0
2  104 19 0 -2 0
0

0101000
+65 0 -109 0 *
Wi

0101100
+15 0 -62 0 -14 0 +108 0 *
Fa
0  1e-07 19 0

0111000
+13 0 *
Ed
 1.5e-07 1 1 0
1  49 0 -2 0
2  105 16 4 -2 0
2  106 20 0 -2 0
0

0101000
+61 0 -107 0 *
Wi

0101100
+11 0 -60 0 -15 0 -106 4 *
Fa
0  1e-07 16 4

0111000
+10 0 *
Ed
 1.5e-07 1 1 0
1  50 0 -2 0
2  107 18 4 -2 0
2  108 20 0 -2 0
0

0101000
+66 0 -105 0 *
Wi

0101100
+11 0 -59 0 -8 0 +104 0 *
Fa
0  1e-07 20 0

0111000
+7 0 *
Wi

0101100
+8 0 -64 0 -14 0 -103 4 *
Fa
0  1e-07 18 4

0111000
+5 0 *
Sh

0101100
-142 0 -101 0 +96 0 +57 0 -54 0 +51 0 +48 0 -45 0 -42 0 -39 0 
-36 0 +33 0 -30 0 -28 0 +24 0 +21 0 -18 0 -16 0 +12 0 +9 0 
-6 0 -4 0 *
So

0100000
+3 0 *
Co

1100000
+2 0 *

+1 1  