
CASCADE Topology V1, (c) Matra-Datavision
Locations 3
1
              1               0               0              -5 
              0               1               0              -5 
              0               0               1              -5 
1
              1               0               0               0 
              0               1               0               0 
              0               0               1               0 
2  2 -1 0
Curve2ds 64
1 0 0 1 0 
1 0 0 1 0 
8 -2 0
1 5.9999999999999991 0 0 1 
8 -2 0
1 0 0 0 -1 
1 0 -2 1 0 
1 0 0 1 0 
1 0 -2 1 0 
8 -2 0
1 3.3333333333333339 0 0 1 
8 -2 0
1 0 0 0 -1 
1 0 0 0 1 
1 0 0 1 0 
1 0 0 1 0 
1 0 10 1 0 
1 10 0 0 1 
1 0 0 1 0 
1 0 0 1 0 
1 0 2 1 0 
1 0 2 1 0 
8 0 2
1 9.3333333333333339 0 0 1 
8 0 2
1 0 0 1 0 
8 0 2
1 8 0 0 1 
8 0 2
1 0 0 1 0 
8 0 2
1 5.9999999999999991 0 0 1 
8 0 2
1 0 0 1 0 
8 0 2
1 3.3333333333333339 0 0 1 
8 0 2
1 0 0 1 0 
8 0 2
1 5.9999999999999991 0 0 1 
8 0 2
1 0 2 1 0 
8 -2 0
1 5.9999999999999991 0 0 1 
8 -2 0
1 2 0 0 -1 
1 0 0 0 1 
1 0 2 1 0 
1 0 -2 1 0 
1 0 10 1 0 
1 10 0 0 1 
1 0 2 1 0 
8 -10 0
1 0 2 -1 0 
8 -10 0
1 0 -2 -1 0 
8 0 2
1 9.3333333333333339 0 0 1 
8 0 2
1 0 2 1 0 
8 0 2
1 8 0 0 1 
8 0 2
1 0 2 1 0 
8 0 2
1 3.3333333333333339 0 0 1 
8 0 2
1 0 2 1 0 
8 -2 0
1 3.3333333333333339 0 0 1 
8 -2 0
1 2 0 0 -1 
1 0 0 0 -1 
1 2 0 0 1 
1 2 0 0 1 
1 0 0 0 -1 
1 10 0 0 1 
1 10 0 0 -1 
1 10 0 0 1 
1 10 0 0 -1 
1 2 0 0 1 
1 2 0 0 1 
8 -2 0
1 9.3333333333333339 0 0 1 
8 -2 0
1 2 0 0 -1 
8 -2 0
1 9.3333333333333339 0 0 1 
8 -2 0
1 0 0 0 -1 
8 -2 0
1 8 0 0 1 
8 -2 0
1 0 0 0 -1 
8 -2 0
1 8 0 0 1 
8 -2 0
1 2 0 0 -1 
Curves 30
1 0 0 0 0 0 1 
1 0 0 5.9999999999999991 0 -1 0 
1 0 2 0 0 0 1 
1 0 0 3.3333333333333339 0 -1 0 
1 0 0 0 1 0 -0 
1 10 0 0 0 0 1 
1 0 0 10 1 0 -0 
1 2 0 0 0 0 1 
1 0 0 9.3333333333333339 1 0 -0 
1 0 0 8 1 0 -0 
1 0 0 5.9999999999999991 1 0 -0 
1 0 0 3.3333333333333339 1 0 -0 
1 0 2 5.9999999999999991 1 0 -0 
1 2 0 5.9999999999999991 0 -1 0 
1 0 2 0 1 0 -0 
1 10 2 0 0 0 1 
1 0 2 10 1 0 -0 
1 2 2 0 0 0 -1 
1 0 2 9.3333333333333339 1 0 -0 
1 0 2 8 1 0 -0 
1 0 2 3.3333333333333339 1 0 -0 
1 2 0 3.3333333333333339 0 -1 0 
1 2 0 0 -0 1 0 
1 10 0 0 -0 1 0 
1 10 0 10 -0 1 0 
1 2 0 10 -0 1 0 
1 2 0 9.3333333333333339 0 -1 0 
1 0 0 9.3333333333333339 0 -1 0 
1 0 0 8 0 -1 0 
1 2 0 8 0 -1 0 
Polygon3D 0
PolygonOnTriangulations 0
Surfaces 15
1 0 0 0 1 0 -0 0 0 1 0 -1 0 
1 0 0 0 -0 1 0 0 0 1 1 0 -0 
1 0 0 5.9999999999999991 0 0 1 1 0 -0 -0 1 0 
1 0 2 0 -0 1 0 0 0 1 1 0 -0 
1 0 0 0 1 0 -0 0 0 1 0 -1 0 
1 0 0 3.3333333333333339 0 0 1 1 0 -0 -0 1 0 
1 0 0 0 0 0 1 1 0 -0 -0 1 0 
1 10 0 0 1 0 -0 0 0 1 0 -1 0 
1 0 0 10 0 0 1 1 0 -0 -0 1 0 
1 2 0 0 1 0 -0 0 0 1 0 -1 0 
1 0 0 0 -0 1 0 0 0 1 1 0 -0 
1 0 0 9.3333333333333339 0 0 1 1 0 -0 -0 1 0 
1 0 0 8 0 0 1 1 0 -0 -0 1 0 
1 0 0 0 0 0 1 1 0 -0 -0 1 0 
1 0 0 10 0 0 1 1 0 -0 -0 1 0 
Triangulations 0

TShapes 91
Ve
1.5e-07
0 0 3.33333333333333
0 0

0101101
*
Ve
1.5e-07
0 0 6
0 0

0101101
*
Ed
 1e-07 1 1 0
1  1 0 3.33333333333333 6
2  1 1 0 3.33333333333333 6
2  2 2 0 3.33333333333333 6
0

0101000
+91 0 -90 0 *
Ve
1.5e-07
0 2 6
0 0

0101101
*
Ed
 1.5e-07 1 1 0
1  2 0 -2 0
2  3 1 0 -2 0
2  4 3 0 -2 0
0

0101000
+88 0 -90 0 *
Ve
1.5e-07
0 2 3.33333333333333
0 0

0101101
*
Ed
 1e-07 1 1 0
1  3 0 3.33333333333333 6
2  5 1 0 3.33333333333333 6
2  6 4 0 3.33333333333333 6
2  7 5 2 3.33333333333333 6
0

0101000
+86 0 -88 0 *
Ed
 1.5e-07 1 1 0
1  4 0 -2 0
2  8 1 0 -2 0
2  9 6 0 -2 0
0

0101000
+86 0 -91 0 *
Wi

0101100
-89 0 +87 0 +85 0 -84 0 *
Fa
0  1e-07 1 0

0111000
+83 0 *
Ve
1e-07
2 0 0
0 0

0101101
*
Ve
1e-07
10 0 0
0 0

0101101
*
Ed
 1e-07 1 1 0
1  5 0 2 10
2  10 2 0 2 10
2  11 7 0 2 10
0

0101000
+81 2 -80 0 *
Ve
1e-07
10 0 10
0 0

0101101
*
Ed
 1e-07 1 1 0
1  6 0 0 10
2  12 8 0 0 10
2  13 2 0 0 10
0

0101000
-78 0 +80 0 *
Ve
1e-07
2 0 10
0 0

0101101
*
Ed
 1e-07 1 1 0
1  7 0 2 10
2  14 2 0 2 10
2  15 9 0 2 10
0

0101000
+76 2 -78 0 *
Ve
1.5e-07
2 0 9.33333333333333
0 0

0101101
*
Ed
 1e-07 1 1 0
1  8 0 9.33333333333333 10
2  16 10 0 9.33333333333333 10
2  17 11 0 9.33333333333333 10
2  18 2 3 9.33333333333333 10
0

0101000
+74 3 -76 0 *
Ve
1.5e-07
0 0 9.33333333333333
0 0

0101101
*
Ed
 1.5e-07 1 1 0
1  9 0 0 2
2  19 2 0 0 2
2  20 12 0 0 2
0

0101000
+72 0 -74 0 *
Ve
1.5e-07
0 0 8
0 0

0101101
*
Ed
 1e-07 1 1 0
1  1 0 8 9.33333333333333
2  1 1 0 8 9.33333333333333
2  2 2 0 8 9.33333333333333
0

0101000
+70 0 -72 0 *
Ve
1.5e-07
2 0 8
0 0

0101101
*
Ed
 1.5e-07 1 1 0
1  10 0 0 2
2  21 2 0 0 2
2  22 13 0 0 2
0

0101000
+70 0 -68 0 *
Ve
1.5e-07
2 0 6
0 0

0101101
*
Ed
 1e-07 1 1 0
1  8 0 6 8
2  16 10 0 6 8
2  17 11 0 6 8
2  18 2 3 6 8
0

0101000
+66 3 -68 3 *
Ed
 1.5e-07 1 1 0
1  11 0 0 2
2  23 2 0 0 2
2  24 3 0 0 2
0

0101000
+90 0 -66 0 *
Ve
1.5e-07
2 0 3.33333333333333
0 0

0101101
*
Ed
 1.5e-07 1 1 0
1  12 0 0 2
2  25 2 0 0 2
2  26 6 0 0 2
0

0101000
+91 0 -63 0 *
Ed
 1e-07 1 1 0
1  8 0 0 3.33333333333333
2  16 10 0 0 3.33333333333333
2  17 11 0 0 3.33333333333333
2  18 2 3 0 3.33333333333333
0

0101000
+81 0 -63 3 *
Wi

0101100
-79 0 -77 0 +75 0 +73 2 +71 0 +69 0 -67 0 +65 2 +64 0 +89 0 
-62 0 +61 2 *
Fa
0  1e-07 2 0

0111000
+60 0 *
Ve
1.5e-07
2 2 6
0 0

0101101
*
Ed
 1.5e-07 1 1 0
1  13 0 0 2
2  27 4 0 0 2
2  28 3 0 0 2
0

0101000
+88 0 -58 0 *
Ed
 1.5e-07 1 1 0
1  14 0 -2 0
2  29 10 2 -2 0
2  30 3 0 -2 0
0

0101000
+58 0 -66 0 *
Wi

0101100
-57 0 -56 0 +64 0 +87 0 *
Fa
0  1e-07 3 0

0111000
+55 0 *
Ve
1.5e-07
2 2 0
0 0

0101101
*
Ve
1e-07
10 2 0
0 0

0101101
*
Ed
 1e-07 1 1 0
1  15 0 2 10
2  31 4 0 2 10
2  32 7 0 2 10
0

0101000
+53 0 -52 0 *
Ve
1e-07
10 2 10
0 0

0101101
*
Ed
 1e-07 1 1 0
1  16 0 0 10
2  33 8 0 0 10
2  34 4 0 0 10
0

0101000
-50 0 +52 0 *
Ve
1.5e-07
2 2 10
0 0

0101101
*
Ed
 1e-07 1 1 0
1  17 0 2 10
2  35 4 0 2 10
2  36 9 0 2 10
0

0101000
+48 0 -50 0 *
Ve
1.5e-07
2 2 9.33333333333333
0 0

0101101
*
Ed
 1.5e-07 1 1 0
1  18 0 -10 -9.33333333333333
2  37 4 0 -10 -9.33333333333333
2  38 10 2 -10 -9.33333333333333
0

0101000
+48 0 -46 0 *
Ve
1.5e-07
0 2 9.33333333333333
0 0

0101101
*
Ed
 1.5e-07 1 1 0
1  19 0 0 2
2  39 4 0 0 2
2  40 12 0 0 2
0

0101000
+44 0 -46 0 *
Ve
1.5e-07
0 2 8
0 0

0101101
*
Ed
 1e-07 1 1 0
1  3 0 8 9.33333333333333
2  5 1 0 8 9.33333333333333
2  6 4 0 8 9.33333333333333
2  7 5 2 8 9.33333333333333
0

0101000
+42 0 -44 0 *
Ve
1.5e-07
2 2 8
0 0

0101101
*
Ed
 1.5e-07 1 1 0
1  20 0 0 2
2  41 4 0 0 2
2  42 13 0 0 2
0

0101000
+42 0 -40 0 *
Ed
 1.5e-07 1 1 0
1  18 0 -8 -6
2  37 4 0 -8 -6
2  38 10 2 -8 -6
0

0101000
+40 0 -58 0 *
Ve
1.5e-07
2 2 3.33333333333333
0 0

0101101
*
Ed
 1.5e-07 1 1 0
1  21 0 0 2
2  43 4 0 0 2
2  44 6 0 0 2
0

0101000
+86 0 -37 0 *
Ed
 1.5e-07 1 1 0
1  18 0 -3.33333333333333 0
2  37 4 0 -3.33333333333333 0
2  38 10 2 -3.33333333333333 0
0

0101000
+37 0 -53 0 *
Wi

0101100
-51 0 -49 0 +47 0 -45 0 +43 0 +41 0 -39 0 -38 0 +57 0 +85 0 
-36 0 -35 0 *
Fa
0  1e-07 4 0

0111000
+34 0 *
Ed
 1.5e-07 1 1 0
1  22 0 -2 0
2  45 10 2 -2 0
2  46 6 0 -2 0
0

0101000
+37 0 -63 0 *
Wi

0101100
-36 0 -32 0 +62 0 +84 0 *
Fa
0  1e-07 6 0

0111000
+31 0 *
Ed
 1e-07 1 1 0
1  23 0 0 2
2  47 10 0 0 2
2  48 14 0 0 2
2  49 7 3 0 2
0

0101000
+81 0 -53 3 *
Ed
 1e-07 1 1 0
1  24 0 0 2
2  50 8 0 0 2
2  51 7 0 0 2
0

0101000
-52 0 +80 0 *
Wi

0101100
-29 2 -51 0 +28 0 +79 0 *
Fa
0  1e-07 7 0

0111000
+27 0 *
Ed
 1e-07 1 1 0
1  25 0 0 2
2  52 8 0 0 2
2  53 9 0 0 2
0

0101000
-50 0 +78 0 *
Wi

0101100
-77 0 -25 0 +49 0 +28 0 *
Fa
0  1e-07 8 0

0111000
+24 0 *
Ed
 1e-07 1 1 0
1  26 0 0 2
2  54 10 0 0 2
2  55 15 0 0 2
2  56 9 3 0 2
0

0101000
+76 0 -48 3 *
Wi

0101100
-22 2 -47 0 +25 0 +75 0 *
Fa
0  1e-07 9 0

0111000
+21 0 *
Ed
 1.5e-07 1 1 0
1  27 0 -2 0
2  57 10 2 -2 0
2  58 12 0 -2 0
0

0101000
+46 0 -74 0 *
Wi

0101100
-22 2 -45 0 -19 0 -73 2 *
Fa
0  1e-07 10 2

0111000
+18 0 *
Ed
 1.5e-07 1 1 0
1  28 0 -2 0
2  59 1 0 -2 0
2  60 12 0 -2 0
0

0101000
+44 0 -72 0 *
Wi

0101100
-43 0 -19 0 +71 0 +16 0 *
Fa
0  1e-07 12 0

0111000
+15 0 *
Ed
 1.5e-07 1 1 0
1  29 0 -2 0
2  61 1 0 -2 0
2  62 13 0 -2 0
0

0101000
+42 0 -70 0 *
Wi

0101100
-69 0 +16 0 +41 0 -13 0 *
Fa
0  1e-07 1 0

0111000
+12 0 *
Ed
 1.5e-07 1 1 0
1  30 0 -2 0
2  63 10 2 -2 0
2  64 13 0 -2 0
0

0101000
+40 0 -68 0 *
Wi

0101100
-39 0 -10 0 +67 0 +13 0 *
Fa
0  1e-07 13 0

0111000
+9 0 *
Wi

0101100
+10 0 -38 0 -56 0 -65 2 *
Fa
0  1e-07 10 2

0111000
+7 0 *
Wi

0101100
+32 0 -35 0 +29 2 -61 2 *
Fa
0  1e-07 10 2

0111000
+5 0 *
Sh

0101100
-82 0 -59 0 +54 0 +33 0 -30 0 -26 0 +23 0 +20 0 -17 0 +14 0 
-11 0 -8 0 -6 0 -4 0 *
So

0100000
+3 0 *
Co

1100000
+2 0 *

+1 1  