
CASCADE Topology V1, (c) Matra-Datavision
Locations 4
1
              1               0               0              -5 
              0               1               0              -5 
              0               0               1               0 
1
              1               0               0               0 
              0               1               0               0 
              0               0               1              -5 
2  2 -1 0
1
              1               0               0               0 
              0               1               0               0 
              0               0               1               5 
Curve2ds 80
1 0 0 1 0 
1 0 0 1 0 
8 -2 0
1 7 0 0 1 
8 -2 0
1 0 0 0 -1 
1 2 0 0 1 
1 0 -2 1 0 
1 0 0 1 0 
1 -5 -2 1 0 
8 -2 0
1 8 0 0 1 
8 -2 0
1 0 0 0 -1 
1 3 0 0 1 
8 -2 0
1 9 0 0 1 
8 -2 0
1 0 0 0 -1 
1 4 0 0 1 
1 10 0 0 -1 
1 0 0 0 1 
1 5 0 0 -1 
1 5 0 0 -1 
1 10 0 0 -1 
1 0 0 0 1 
1 0 -10 1 0 
1 0 0 1 0 
1 0 0 0 -1 
1 0 0 0 1 
8 -2 0
1 6 0 0 1 
8 -2 0
1 0 0 0 -1 
1 1 0 0 1 
1 0 0 1 0 
1 0 2 1 0 
8 0 2
1 7 0 0 1 
8 0 2
1 0 0 1 0 
1 2 0 0 1 
8 0 2
1 6 0 0 1 
8 0 2
1 0 0 1 0 
1 1 0 0 1 
8 0 2
1 7 0 0 1 
8 0 2
1 0 2 1 0 
8 -2 0
1 2 0 0 1 
8 -2 0
1 2 0 0 -1 
8 -7.5 -2.5
1 2.5 2 -1 0 
8 -7.5 -2.5
1 -2.5 -2 -1 -0 
8 0 2
1 8 0 0 1 
8 0 2
1 0 2 1 0 
8 -2 0
1 3 0 0 1 
8 -2 0
1 2 0 0 -1 
8 0 2
1 8 0 0 1 
8 0 2
1 0 0 1 0 
1 3 0 0 1 
8 0 2
1 9 0 0 1 
8 0 2
1 0 0 1 0 
1 4 0 0 1 
8 0 2
1 9 0 0 1 
8 0 2
1 0 2 1 0 
8 -2 0
1 4 0 0 1 
8 -2 0
1 2 0 0 -1 
1 10 0 0 1 
1 0 2 1 0 
8 0 2
1 2 0 0 1 
8 0 2
1 5 0 0 -1 
1 10 0 0 1 
1 0 0 1 0 
1 5 0 0 1 
1 10 0 0 1 
1 0 0 1 0 
1 10 0 0 1 
1 0 10 1 0 
1 10 0 0 -1 
1 2 0 0 1 
1 0 0 0 1 
1 0 10 1 0 
1 0 -10 1 0 
1 0 2 1 0 
1 0 0 0 -1 
1 2 0 0 1 
8 0 2
1 5 0 0 1 
8 0 2
1 0 2 1 0 
8 0 2
1 6 0 0 1 
8 0 2
1 0 2 1 0 
8 -2 0
1 1 0 0 1 
8 -2 0
1 2 0 0 -1 
Curves 34
1 0 0 0 0 0 1 
1 0 0 2 0 -1 0 
1 0 2 0 0 0 1 
1 0 0 3 0 -1 0 
1 0 0 4 0 -1 0 
1 0 0 10 -0 1 0 
1 0 0 10 -0 1 0 
1 0 10 0 0 0 1 
1 0 0 0 -0 1 0 
1 0 0 1 0 -1 0 
1 2 0 0 0 0 1 
1 0 0 2 1 0 0 
1 0 0 1 1 0 0 
1 0 2 2 1 0 0 
1 2 0 2 0 -1 0 
1 2 2 -2.5 -0 0 -1 
1 0 2 3 1 0 0 
1 2 0 3 0 -1 0 
1 0 0 3 1 0 0 
1 0 0 4 1 0 0 
1 0 2 4 1 0 0 
1 2 0 4 0 -1 0 
1 0 2 10 1 0 -0 
1 2 0 5 -0 1 0 
1 0 0 10 1 0 -0 
1 0 0 10 1 0 -0 
1 0 10 10 1 0 -0 
1 2 0 10 -0 1 0 
1 0 10 0 1 0 -0 
1 2 10 0 0 0 1 
1 2 0 0 -0 1 0 
1 0 2 0 1 0 0 
1 0 2 1 1 0 0 
1 2 0 1 0 -1 0 
Polygon3D 0
PolygonOnTriangulations 0
Surfaces 14
1 0 0 0 1 0 -0 0 0 1 0 -1 0 
1 0 0 0 -0 1 0 0 0 1 1 0 -0 
1 0 0 0 1 0 -0 0 0 1 0 -1 0 
1 0 0 2 0 0 1 1 0 0 0 1 0 
1 0 2 0 -0 1 0 0 0 1 1 0 -0 
1 0 0 3 0 0 1 1 0 0 0 1 0 
1 0 0 4 0 0 1 1 0 0 0 1 0 
1 0 0 10 0 0 1 1 0 -0 -0 1 0 
1 0 0 10 0 0 1 1 0 -0 -0 1 0 
1 0 10 0 -0 1 0 0 0 1 1 0 -0 
1 0 0 0 0 0 1 1 0 -0 -0 1 0 
1 0 0 1 0 0 1 1 0 0 0 1 0 
1 2 0 0 1 0 -0 0 0 1 0 -1 0 
1 0 0 0 -0 1 0 0 0 1 1 0 -0 
Triangulations 0

TShapes 105
Ve
1.5e-07
0 0 1
0 0

0101101
*
Ve
1.5e-07
0 0 2
0 0

0101101
*
Ed
 1e-07 1 1 0
1  1 0 1 2
2  1 1 0 1 2
2  2 2 0 1 2
0

0101000
+105 0 -104 0 *
Ve
1.5e-07
0 2 2
0 0

0101101
*
Ed
 1.5e-07 1 1 0
1  2 0 -2 0
2  3 3 2 -2 0
2  4 4 0 -2 0
2  5 1 0 -2 0
0

0101000
+102 0 -104 0 *
Ve
1.5e-07
0 2 3
0 0

0101101
*
Ed
 1e-07 1 1 0
1  3 0 7 8
2  6 3 0 7 8
2  7 5 0 7 8
2  8 1 3 7 8
0

0101000
+102 3 -100 3 *
Ve
1.5e-07
0 0 3
0 0

0101101
*
Ed
 1.5e-07 1 1 0
1  4 0 -2 0
2  9 3 2 -2 0
2  10 6 0 -2 0
2  11 1 0 -2 0
0

0101000
+100 0 -98 0 *
Ve
1.5e-07
0 0 4
0 0

0101101
*
Ed
 1e-07 1 1 0
1  1 0 3 4
2  1 1 0 3 4
2  2 2 0 3 4
0

0101000
+98 0 -96 0 *
Ve
1.5e-07
0 2 4
0 0

0101101
*
Ed
 1.5e-07 1 1 0
1  5 0 -2 0
2  12 3 2 -2 0
2  13 7 0 -2 0
2  14 1 0 -2 0
0

0101000
+94 0 -96 0 *
Ve
1e-07
0 2 10
0 0

0101101
*
Ed
 1e-07 1 1 0
1  3 0 9 10
2  6 3 0 9 10
2  7 5 0 9 10
2  8 1 3 9 10
0

0101000
+94 3 -92 0 *
Ve
1.00000000888178e-07
0 0 10
0 0

0101101
*
Ed
 1e-07 1 1 0
1  6 0 0 2
2  15 3 0 0 2
2  16 8 0 0 2
2  17 1 4 0 2
2  18 1 3 0 2
0

0101000
-92 0 +90 0 *
Ve
1e-07
0 0 10
0 0

0101101
*
Ed
 1e-07 1 1 0
1  1 0 5 10
2  1 1 0 5 10
2  2 2 0 5 10
0

0101000
+90 2 -88 0 *
Ve
1e-07
0 10 10
0 0

0101101
*
Ed
 1e-07 1 1 0
1  7 0 0 10
2  19 1 0 0 10
2  20 9 0 0 10
0

0101000
-86 0 +88 0 *
Ve
1e-07
0 10 0
0 0

0101101
*
Ed
 1e-07 1 1 0
1  8 0 0 10
2  21 1 0 0 10
2  22 10 0 0 10
0

0101000
-86 0 +84 0 *
Ve
1.5e-07
0 2 0
0 0

0101101
*
Ed
 1e-07 1 1 0
1  9 0 2 10
2  23 1 0 2 10
2  24 11 0 2 10
0

0101000
+82 0 -84 0 *
Ve
1.5e-07
0 2 1
0 0

0101101
*
Ed
 1e-07 1 1 0
1  3 0 5 6
2  6 3 0 5 6
2  7 5 0 5 6
2  8 1 3 5 6
0

0101000
+82 3 -80 3 *
Ed
 1.5e-07 1 1 0
1  10 0 -2 0
2  25 3 2 -2 0
2  26 12 0 -2 0
2  27 1 0 -2 0
0

0101000
+80 0 -105 0 *
Wi

0101100
-103 0 +101 0 -99 2 -97 0 -95 0 +93 0 -91 2 +89 2 -87 0 -85 0 
+83 0 +81 0 -79 2 -78 0 *
Fa
0  1e-07 1 0

0111000
+77 0 *
Ve
1.5e-07
2 0 1
0 0

0101101
*
Ve
1.5e-07
2 0 2
0 0

0101101
*
Ed
 1e-07 1 1 0
1  11 0 1 2
2  28 13 0 1 2
2  29 2 0 1 2
0

0101000
+75 0 -74 0 *
Ed
 1.5e-07 1 1 0
1  12 0 0 2
2  30 14 2 0 2
2  31 4 0 0 2
2  32 2 0 0 2
0

0101000
+104 0 -74 0 *
Ed
 1.5e-07 1 1 0
1  13 0 0 2
2  33 14 2 0 2
2  34 12 0 0 2
2  35 2 0 0 2
0

0101000
+105 0 -75 0 *
Wi

0101100
-73 0 +72 0 +103 0 -71 0 *
Fa
0  1e-07 2 0

0111000
+70 0 *
Ve
1.5e-07
2 2 2
0 0

0101101
*
Ed
 1.5e-07 1 1 0
1  14 0 0 2
2  36 5 2 0 2
2  37 4 0 0 2
0

0101000
+102 0 -68 0 *
Ed
 1.5e-07 1 1 0
1  15 0 -2 0
2  38 13 0 -2 0
2  39 4 0 -2 0
0

0101000
+68 0 -74 0 *
Wi

0101100
-67 0 -66 0 +72 0 +101 0 *
Fa
0  1e-07 4 0

0111000
+65 0 *
Ve
1.5e-07
2 2 3
0 0

0101101
*
Ed
 1.5e-07 1 1 0
1  16 0 -5.5 -4.5
2  40 5 2 -5.5 -4.5
2  41 13 0 -5.5 -4.5
0

0101000
+63 0 -68 0 *
Ed
 1.5e-07 1 1 0
1  17 0 0 2
2  42 5 2 0 2
2  43 6 0 0 2
0

0101000
+100 0 -63 0 *
Wi

0101100
-67 0 +62 0 +61 0 +99 2 *
Fa
0  1e-07 5 2

0111000
+60 0 *
Ve
1.5e-07
2 0 3
0 0

0101101
*
Ed
 1.5e-07 1 1 0
1  18 0 -2 0
2  44 13 0 -2 0
2  45 6 0 -2 0
0

0101000
+63 0 -58 0 *
Ed
 1.5e-07 1 1 0
1  19 0 0 2
2  46 14 2 0 2
2  47 6 0 0 2
2  48 2 0 0 2
0

0101000
+98 0 -58 0 *
Wi

0101100
-61 0 -57 0 +56 0 +97 0 *
Fa
0  1e-07 6 0

0111000
+55 0 *
Ve
1.5e-07
2 0 4
0 0

0101101
*
Ed
 1e-07 1 1 0
1  11 0 3 4
2  28 13 0 3 4
2  29 2 0 3 4
0

0101000
+58 0 -53 0 *
Ed
 1.5e-07 1 1 0
1  20 0 0 2
2  49 14 2 0 2
2  50 7 0 0 2
2  51 2 0 0 2
0

0101000
+96 0 -53 0 *
Wi

0101100
-52 0 +51 0 +95 0 -56 0 *
Fa
0  1e-07 2 0

0111000
+50 0 *
Ve
1.5e-07
2 2 4
0 0

0101101
*
Ed
 1.5e-07 1 1 0
1  21 0 0 2
2  52 5 2 0 2
2  53 7 0 0 2
0

0101000
+94 0 -48 0 *
Ed
 1.5e-07 1 1 0
1  22 0 -2 0
2  54 13 0 -2 0
2  55 7 0 -2 0
0

0101000
+48 0 -53 0 *
Wi

0101100
-47 0 -46 0 +51 0 +93 0 *
Fa
0  1e-07 7 0

0111000
+45 0 *
Ve
1.5e-07
2 2 5
0 0

0101101
*
Ed
 1.5e-07 1 1 0
1  16 0 -7.5 -6.5
2  40 5 2 -7.5 -6.5
2  41 13 0 -7.5 -6.5
0

0101000
+43 0 -48 0 *
Ed
 1e-07 1 1 0
1  23 0 0 2
2  56 5 0 0 2
2  57 8 0 0 2
0

0101000
+92 0 -43 3 *
Wi

0101100
-47 0 +42 0 +41 2 +91 2 *
Fa
0  1e-07 5 2

0111000
+40 0 *
Ve
1.5e-07
2 0 5
0 0

0101101
*
Ed
 1.5e-07 1 1 0
1  24 0 0 2
2  58 8 2 0 2
2  59 13 0 0 2
0

0101000
+38 0 -43 0 *
Ed
 1e-07 1 1 0
1  25 0 0 2
2  60 14 0 0 2
2  61 8 0 0 2
2  62 2 3 0 2
0

0101000
+90 0 -38 3 *
Wi

0101100
-41 2 +37 0 +36 2 -89 2 *
Fa
0  1e-07 8 2

0111000
+35 0 *
Ve
1e-07
2 0 10
0 0

0101101
*
Ed
 1e-07 1 1 0
1  11 0 5 10
2  28 13 0 5 10
2  29 2 0 5 10
0

0101000
+38 0 -33 0 *
Ed
 1e-07 1 1 0
1  26 0 0 2
2  63 2 0 0 2
2  64 9 0 0 2
0

0101000
-33 0 +88 0 *
Wi

0101100
-32 0 +31 0 +87 0 -36 2 *
Fa
0  1e-07 2 0

0111000
+30 0 *
Ve
1e-07
2 10 10
0 0

0101101
*
Ed
 1e-07 1 1 0
1  27 0 0 2
2  65 10 0 0 2
2  66 9 0 0 2
0

0101000
-28 0 +86 0 *
Ed
 1e-07 1 1 0
1  28 0 0 10
2  67 13 0 0 10
2  68 9 0 0 10
0

0101000
-28 0 +33 0 *
Wi

0101100
-85 0 -27 0 +26 0 +31 0 *
Fa
0  1e-07 9 0

0111000
+25 0 *
Ve
1e-07
2 10 0
0 0

0101101
*
Ed
 1e-07 1 1 0
1  29 0 0 2
2  69 10 0 0 2
2  70 11 0 0 2
0

0101000
-23 0 +84 0 *
Ed
 1e-07 1 1 0
1  30 0 0 10
2  71 13 0 0 10
2  72 10 0 0 10
0

0101000
-28 0 +23 0 *
Wi

0101100
-22 0 -21 0 +27 0 +83 0 *
Fa
0  1e-07 10 0

0111000
+20 0 *
Ve
1.5e-07
2 2 0
0 0

0101101
*
Ed
 1e-07 1 1 0
1  31 0 2 10
2  73 13 0 2 10
2  74 11 0 2 10
0

0101000
+18 0 -23 0 *
Ed
 1.5e-07 1 1 0
1  32 0 0 2
2  75 5 2 0 2
2  76 11 0 0 2
0

0101000
+82 0 -18 0 *
Wi

0101100
-81 0 -22 0 +17 0 +16 0 *
Fa
0  1e-07 11 0

0111000
+15 0 *
Ve
1.5e-07
2 2 1
0 0

0101101
*
Ed
 1.5e-07 1 1 0
1  16 0 -3.5 -2.5
2  40 5 2 -3.5 -2.5
2  41 13 0 -3.5 -2.5
0

0101000
+13 0 -18 0 *
Ed
 1.5e-07 1 1 0
1  33 0 0 2
2  77 5 2 0 2
2  78 12 0 0 2
0

0101000
+80 0 -13 0 *
Wi

0101100
-16 0 +12 0 +11 0 +79 2 *
Fa
0  1e-07 5 2

0111000
+10 0 *
Ed
 1.5e-07 1 1 0
1  34 0 -2 0
2  79 13 0 -2 0
2  80 12 0 -2 0
0

0101000
+13 0 -75 0 *
Wi

0101100
-11 0 -8 0 +71 0 +78 0 *
Fa
0  1e-07 12 0

0111000
+7 0 *
Wi

0101100
-73 0 +66 0 +62 0 -57 0 -52 0 +46 0 +42 0 +37 0 -32 0 -26 0 
+21 0 +17 0 +12 0 -8 0 *
Fa
0  1e-07 13 0

0111000
+5 0 *
Sh

0101100
-76 0 -69 0 +64 0 -59 0 -54 0 -49 0 +44 0 -39 0 -34 0 -29 0 
+24 0 +19 0 -14 0 -9 0 -6 0 +4 0 *
So

0100000
+3 0 *
Co

1100000
+2 0 *

+1 1  