
CASCADE Topology V1, (c) Matra-Datavision
Locations 3
1
              1               0               0              -5 
              0               1               0              -5 
              0               0               1              -5 
1
              1               0               0               5 
              0               1               0               0 
              0               0               1               0 
2  2 -1 0
Curve2ds 108
1 0 0 1 0 
1 0 0 1 0 
1 10 0 0 -1 
1 0 0 0 1 
1 0 -2 1 0 
1 0 0 1 0 
1 0 0 0 -1 
1 0 0 0 1 
1 0 0 0 1 
1 0 0 1 0 
1 0 0 1 0 
1 0 10 1 0 
1 10 0 0 1 
1 0 0 1 0 
8 2 4
1 0.59999999999999964 -2 0 1 
8 2 4
1 2 0 1 0 
1 0.59999999999999964 3 0 1 
1 0 0 1 0 
1 0 0 1 0 
1 0 5 1 0 
8 1.5 3.5
1 1.2000000000000002 -1.5 0 1 
8 1.5 3.5
1 1.5 0 1 0 
1 1.2000000000000002 3.5 0 1 
1 0 0 1 0 
1 0 2 1 0 
1 0 7 1 0 
8 1 3
1 1.7999999999999998 -1 0 1 
8 1 3
1 1 0 1 0 
1 1.7999999999999998 4 0 1 
8 0.5 2.5
1 2.3999999999999999 -0.5 0 1 
8 0.5 2.5
1 0.5 0 1 0 
1 2.3999999999999999 4.5 0 1 
8 0.5 2.5
1 7.5999999999999996 -0.5 0 1 
8 0.5 2.5
1 0.5 0 1 0 
1 7.5999999999999996 4.5 0 1 
1 0 5 1 0 
8 1 3
1 8.1999999999999993 -1 0 1 
8 1 3
1 1 0 1 0 
1 8.1999999999999993 4 0 1 
1 0 7 1 0 
8 1.5 3.5
1 8.8000000000000007 -1.5 0 1 
8 1.5 3.5
1 1.5 0 1 0 
1 8.8000000000000007 3.5 0 1 
8 2 4
1 9.4000000000000004 -2 0 1 
8 2 4
1 2 0 1 0 
1 9.4000000000000004 3 0 1 
1 10 0 0 1 
1 0 2 1 0 
1 10 0 0 -1 
1 10 0 0 1 
1 0 0 0 1 
1 0 2 1 0 
1 0 -2 1 0 
1 0 10 1 0 
8 -10 0
1 0 7 -1 0 
8 -10 0
1 0 -2 -1 0 
8 4.5 6.5
1 0.59999999999999964 0.5 0 1 
8 4.5 6.5
1 -0.5 2 1 0 
8 -10 0
1 0 5 -1 0 
8 -10 0
1 0 -2 -1 0 
8 4 6
1 1.2000000000000002 1 0 1 
8 4 6
1 -1 2 1 0 
8 3.5 5.5
1 1.7999999999999998 1.5 0 1 
8 3.5 5.5
1 -1.5 2 1 0 
8 3 5
1 2.3999999999999999 2 0 1 
8 3 5
1 -2 2 1 0 
8 3 5
1 7.5999999999999996 2 0 1 
8 3 5
1 -2 2 1 0 
8 3.5 5.5
1 8.1999999999999993 1.5 0 1 
8 3.5 5.5
1 -1.5 2 1 0 
8 4 6
1 8.8000000000000007 1 0 1 
8 4 6
1 -1 2 1 0 
8 4.5 6.5
1 9.4000000000000004 0.5 0 1 
8 4.5 6.5
1 -0.5 2 1 0 
1 0 0 0 -1 
1 10 0 0 1 
8 -2 0
1 0.59999999999999964 0 0 1 
8 -2 0
1 4 0 0 -1 
8 -2 0
1 0.59999999999999964 0 0 1 
8 -2 0
1 6 0 0 -1 
8 -2 0
1 1.2000000000000002 0 0 1 
8 -2 0
1 3 0 0 -1 
8 -2 0
1 1.2000000000000002 0 0 1 
8 -2 0
1 5 0 0 -1 
8 -2 0
1 1.7999999999999998 0 0 1 
8 -2 0
1 2 0 0 -1 
8 -2 0
1 1.7999999999999998 0 0 1 
8 -2 0
1 4 0 0 -1 
8 -2 0
1 2.3999999999999999 0 0 1 
8 -2 0
1 1 0 0 -1 
8 -2 0
1 2.3999999999999999 0 0 1 
8 -2 0
1 3 0 0 -1 
8 -2 0
1 7.5999999999999996 0 0 1 
8 -2 0
1 1 0 0 -1 
8 -2 0
1 7.5999999999999996 0 0 1 
8 -2 0
1 3 0 0 -1 
8 -2 0
1 8.1999999999999993 0 0 1 
8 -2 0
1 2 0 0 -1 
8 -2 0
1 8.1999999999999993 0 0 1 
8 -2 0
1 4 0 0 -1 
8 -2 0
1 8.8000000000000007 0 0 1 
8 -2 0
1 3 0 0 -1 
8 -2 0
1 8.8000000000000007 0 0 1 
8 -2 0
1 5 0 0 -1 
8 -2 0
1 9.4000000000000004 0 0 1 
8 -2 0
1 4 0 0 -1 
8 -2 0
1 9.4000000000000004 0 0 1 
8 -2 0
1 6 0 0 -1 
Curves 48
1 0 0 0 0 0 1 
1 0 0 10 -0 1 0 
1 0 2 0 0 0 1 
1 0 0 0 -0 1 0 
1 0 0 0 1 0 -0 
1 10 0 0 0 0 1 
1 0 0 10 1 0 -0 
1 3 0 0.59999999999999964 1 0 0 
1 0 0 0 0 0 1 
1 3.5 0 1.2000000000000002 1 0 0 
1 2 0 0 0 0 1 
1 4 0 1.7999999999999998 1 0 0 
1 4.5 0 2.3999999999999999 1 0 0 
1 4.5 0 7.5999999999999996 1 0 0 
1 4 0 8.1999999999999993 1 0 0 
1 3.5 0 8.8000000000000007 1 0 0 
1 3 0 9.4000000000000004 1 0 0 
1 0 2 10 1 0 -0 
1 10 0 10 -0 1 0 
1 0 2 0 1 0 -0 
1 10 2 0 0 0 1 
1 7 2 0 0 0 -1 
1 0.5 2 0.59999999999999964 1 0 -0 
1 5 2 0 0 0 -1 
1 1 2 1.2000000000000002 1 0 -0 
1 1.5 2 1.7999999999999998 1 0 -0 
1 2 2 2.3999999999999999 1 0 -0 
1 2 2 7.5999999999999996 1 0 -0 
1 1.5 2 8.1999999999999993 1 0 -0 
1 1 2 8.8000000000000007 1 0 -0 
1 0.5 2 9.4000000000000004 1 0 -0 
1 10 0 0 -0 1 0 
1 5 0 0.59999999999999964 0 -1 0 
1 7 0 0.59999999999999964 0 -1 0 
1 5 0 1.2000000000000002 0 -1 0 
1 7 0 1.2000000000000002 0 -1 0 
1 5 0 1.7999999999999998 0 -1 0 
1 7 0 1.7999999999999998 0 -1 0 
1 5 0 2.3999999999999999 0 -1 0 
1 7 0 2.3999999999999999 0 -1 0 
1 5 0 7.5999999999999996 0 -1 0 
1 7 0 7.5999999999999996 0 -1 0 
1 5 0 8.1999999999999993 0 -1 0 
1 7 0 8.1999999999999993 0 -1 0 
1 5 0 8.8000000000000007 0 -1 0 
1 7 0 8.8000000000000007 0 -1 0 
1 5 0 9.4000000000000004 0 -1 0 
1 7 0 9.4000000000000004 0 -1 0 
Polygon3D 0
PolygonOnTriangulations 0
Surfaces 17
1 0 0 0 1 0 -0 0 0 1 0 -1 0 
1 0 0 0 -0 1 0 0 0 1 1 0 -0 
1 0 0 10 0 0 1 1 0 -0 -0 1 0 
1 0 2 0 -0 1 0 0 0 1 1 0 -0 
1 0 0 0 0 0 1 1 0 -0 -0 1 0 
1 10 0 0 1 0 -0 0 0 1 0 -1 0 
1 0 0 0 -0 1 0 0 0 1 1 0 -0 
1 1 0 0.59999999999999964 0 0 1 1 0 0 0 1 0 
1 0 0 0 1 0 -0 0 0 1 0 -1 0 
1 2 0 1.2000000000000002 0 0 1 1 0 0 0 1 0 
1 2 0 0 1 0 -0 0 0 1 0 -1 0 
1 3 0 1.7999999999999998 0 0 1 1 0 0 0 1 0 
1 4 0 2.3999999999999999 0 0 1 1 0 0 0 1 0 
1 4 0 7.5999999999999996 0 0 1 1 0 -0 -0 1 0 
1 3 0 8.1999999999999993 0 0 1 1 0 -0 -0 1 0 
1 2 0 8.8000000000000007 0 0 1 1 0 -0 -0 1 0 
1 1 0 9.4000000000000004 0 0 1 1 0 -0 -0 1 0 
Triangulations 0

TShapes 155
Ve
1e-07
0 0 10
0 0

0101101
*
Ve
1e-07
0 0 0
0 0

0101101
*
Ed
 1e-07 1 1 0
1  1 0 0 10
2  1 1 0 0 10
2  2 2 0 0 10
0

0101000
-155 0 +154 0 *
Ve
1e-07
0 2 10
0 0

0101101
*
Ed
 1e-07 1 1 0
1  2 0 0 2
2  3 1 0 0 2
2  4 3 0 0 2
0

0101000
-152 0 +155 0 *
Ve
1e-07
0 2 0
0 0

0101101
*
Ed
 1e-07 1 1 0
1  3 0 0 10
2  5 1 0 0 10
2  6 4 0 0 10
0

0101000
-152 0 +150 0 *
Ed
 1e-07 1 1 0
1  4 0 0 2
2  7 1 0 0 2
2  8 5 0 0 2
0

0101000
-150 0 +154 0 *
Wi

0101100
-153 0 -151 0 +149 0 +148 0 *
Fa
0  1e-07 1 0

0111000
+147 0 *
Ve
1e-07
10 0 0
0 0

0101101
*
Ed
 1e-07 1 1 0
1  5 0 0 10
2  9 2 0 0 10
2  10 5 0 0 10
0

0101000
-145 0 +154 0 *
Ve
1e-07
10 0 10
0 0

0101101
*
Ed
 1e-07 1 1 0
1  6 0 0 10
2  11 6 0 0 10
2  12 2 0 0 10
0

0101000
-143 0 +145 0 *
Ed
 1e-07 1 1 0
1  7 0 0 10
2  13 2 0 0 10
2  14 3 0 0 10
0

0101000
-143 0 +155 0 *
Wi

0101100
-144 0 -142 0 +153 0 +141 0 *
Ve
1.5e-07
5 0 0.6
0 0

0101101
*
Ve
1.5e-07
7 0 0.6
0 0

0101101
*
Ed
 1.5e-07 1 1 0
1  8 0 2 4
2  15 7 2 2 4
2  16 8 0 2 4
2  17 2 0 2 4
0

0101000
+139 0 -138 0 *
Ve
1.5e-07
5 0 1.2
0 0

0101101
*
Ed
 1e-07 1 1 0
1  9 0 0.6 1.2
2  18 9 0 0.6 1.2
2  19 7 0 0.6 1.2
2  20 2 3 0.6 1.2
0

0101000
+139 3 -136 3 *
Ve
1.5e-07
7 0 1.2
0 0

0101101
*
Ed
 1.5e-07 1 1 0
1  10 0 1.5 3.5
2  21 7 2 1.5 3.5
2  22 10 0 1.5 3.5
2  23 2 0 1.5 3.5
0

0101000
+136 0 -134 0 *
Ed
 1e-07 1 1 0
1  11 0 0.6 1.2
2  24 11 0 0.6 1.2
2  25 7 0 0.6 1.2
2  26 2 3 0.6 1.2
0

0101000
+138 3 -134 3 *
Wi

0101100
+137 0 -135 2 -133 0 +132 2 *
Ve
1.5e-07
5 0 1.8
0 0

0101101
*
Ve
1.5e-07
7 0 1.8
0 0

0101101
*
Ed
 1.5e-07 1 1 0
1  12 0 1 3
2  27 7 2 1 3
2  28 12 0 1 3
2  29 2 0 1 3
0

0101000
+130 0 -129 0 *
Ve
1.5e-07
5 0 2.4
0 0

0101101
*
Ed
 1e-07 1 1 0
1  9 0 1.8 2.4
2  18 9 0 1.8 2.4
2  19 7 0 1.8 2.4
2  20 2 3 1.8 2.4
0

0101000
+130 3 -127 3 *
Ve
1.5e-07
7 0 2.4
0 0

0101101
*
Ed
 1.5e-07 1 1 0
1  13 0 0.5 2.5
2  30 7 2 0.5 2.5
2  31 13 0 0.5 2.5
2  32 2 0 0.5 2.5
0

0101000
+127 0 -125 0 *
Ed
 1e-07 1 1 0
1  11 0 1.8 2.4
2  24 11 0 1.8 2.4
2  25 7 0 1.8 2.4
2  26 2 3 1.8 2.4
0

0101000
+129 3 -125 3 *
Wi

0101100
+128 0 -126 2 -124 0 +123 2 *
Ve
1.5e-07
5 0 7.6
0 0

0101101
*
Ve
1.5e-07
7 0 7.6
0 0

0101101
*
Ed
 1.5e-07 1 1 0
1  14 0 0.5 2.5
2  33 7 2 0.5 2.5
2  34 14 0 0.5 2.5
2  35 2 0 0.5 2.5
0

0101000
+121 0 -120 0 *
Ve
1.5e-07
5 0 8.2
0 0

0101101
*
Ed
 1e-07 1 1 0
1  9 0 7.6 8.2
2  18 9 0 7.6 8.2
2  19 7 0 7.6 8.2
2  36 2 3 7.6 8.2
0

0101000
+121 3 -118 3 *
Ve
1.5e-07
7 0 8.2
0 0

0101101
*
Ed
 1.5e-07 1 1 0
1  15 0 1 3
2  37 7 2 1 3
2  38 15 0 1 3
2  39 2 0 1 3
0

0101000
+118 0 -116 0 *
Ed
 1e-07 1 1 0
1  11 0 7.6 8.2
2  24 11 0 7.6 8.2
2  25 7 0 7.6 8.2
2  40 2 3 7.6 8.2
0

0101000
+120 3 -116 3 *
Wi

0101100
+119 0 -117 2 -115 0 +114 2 *
Ve
1.5e-07
5 0 8.8
0 0

0101101
*
Ve
1.5e-07
7 0 8.8
0 0

0101101
*
Ed
 1.5e-07 1 1 0
1  16 0 1.5 3.5
2  41 7 2 1.5 3.5
2  42 16 0 1.5 3.5
2  43 2 0 1.5 3.5
0

0101000
+112 0 -111 0 *
Ve
1.5e-07
5 0 9.4
0 0

0101101
*
Ed
 1e-07 1 1 0
1  9 0 8.8 9.4
2  18 9 0 8.8 9.4
2  19 7 0 8.8 9.4
2  36 2 3 8.8 9.4
0

0101000
+112 3 -109 3 *
Ve
1.5e-07
7 0 9.4
0 0

0101101
*
Ed
 1.5e-07 1 1 0
1  17 0 2 4
2  44 7 2 2 4
2  45 17 0 2 4
2  46 2 0 2 4
0

0101000
+109 0 -107 0 *
Ed
 1e-07 1 1 0
1  11 0 8.8 9.4
2  24 11 0 8.8 9.4
2  25 7 0 8.8 9.4
2  40 2 3 8.8 9.4
0

0101000
+111 3 -107 3 *
Wi

0101100
+110 0 -108 2 -106 0 +105 2 *
Fa
0  1e-07 2 0

0111000
+140 0 +131 0 +122 0 +113 0 +104 0 *
Ve
1e-07
10 2 10
0 0

0101101
*
Ed
 1e-07 1 1 0
1  18 0 0 10
2  47 4 0 0 10
2  48 3 0 0 10
0

0101000
-102 0 +152 0 *
Ed
 1e-07 1 1 0
1  19 0 0 2
2  49 6 0 0 2
2  50 3 0 0 2
0

0101000
-102 0 +143 0 *
Wi

0101100
-151 0 -101 0 +100 0 +141 0 *
Fa
0  1e-07 3 0

0111000
+99 0 *
Ve
1e-07
10 2 0
0 0

0101101
*
Ed
 1e-07 1 1 0
1  20 0 0 10
2  51 4 0 0 10
2  52 5 0 0 10
0

0101000
-97 0 +150 0 *
Ed
 1e-07 1 1 0
1  21 0 0 10
2  53 6 0 0 10
2  54 4 0 0 10
0

0101000
-102 0 +97 0 *
Wi

0101100
-96 0 -95 0 +149 0 +101 0 *
Ve
1.5e-07
7 2 1.2
0 0

0101101
*
Ve
1.5e-07
7 2 0.6
0 0

0101101
*
Ed
 1.5e-07 1 1 0
1  22 0 -1.2 -0.6
2  55 4 0 -1.2 -0.6
2  56 11 2 -1.2 -0.6
0

0101000
+93 0 -92 0 *
Ve
1.5e-07
5 2 0.6
0 0

0101101
*
Ed
 1.5e-07 1 1 0
1  23 0 4.5 6.5
2  57 4 0 4.5 6.5
2  58 8 0 4.5 6.5
0

0101000
+90 0 -92 0 *
Ve
1.5e-07
5 2 1.2
0 0

0101101
*
Ed
 1.5e-07 1 1 0
1  24 0 -1.2 -0.6
2  59 4 0 -1.2 -0.6
2  60 9 2 -1.2 -0.6
0

0101000
+88 0 -90 0 *
Ed
 1.5e-07 1 1 0
1  25 0 4 6
2  61 4 0 4 6
2  62 10 0 4 6
0

0101000
+88 0 -93 0 *
Wi

0101100
-91 0 +89 0 +87 0 -86 0 *
Ve
1.5e-07
7 2 2.4
0 0

0101101
*
Ve
1.5e-07
7 2 1.8
0 0

0101101
*
Ed
 1.5e-07 1 1 0
1  22 0 -2.4 -1.8
2  55 4 0 -2.4 -1.8
2  56 11 2 -2.4 -1.8
0

0101000
+84 0 -83 0 *
Ve
1.5e-07
5 2 1.8
0 0

0101101
*
Ed
 1.5e-07 1 1 0
1  26 0 3.5 5.5
2  63 4 0 3.5 5.5
2  64 12 0 3.5 5.5
0

0101000
+81 0 -83 0 *
Ve
1.5e-07
5 2 2.4
0 0

0101101
*
Ed
 1.5e-07 1 1 0
1  24 0 -2.4 -1.8
2  59 4 0 -2.4 -1.8
2  60 9 2 -2.4 -1.8
0

0101000
+79 0 -81 0 *
Ed
 1.5e-07 1 1 0
1  27 0 3 5
2  65 4 0 3 5
2  66 13 0 3 5
0

0101000
+79 0 -84 0 *
Wi

0101100
-82 0 +80 0 +78 0 -77 0 *
Ve
1.5e-07
7 2 8.2
0 0

0101101
*
Ve
1.5e-07
7 2 7.6
0 0

0101101
*
Ed
 1.5e-07 1 1 0
1  22 0 -8.2 -7.6
2  55 4 0 -8.2 -7.6
2  56 11 2 -8.2 -7.6
0

0101000
+75 0 -74 0 *
Ve
1.5e-07
5 2 7.6
0 0

0101101
*
Ed
 1.5e-07 1 1 0
1  28 0 3 5
2  67 4 0 3 5
2  68 14 0 3 5
0

0101000
+72 0 -74 0 *
Ve
1.5e-07
5 2 8.2
0 0

0101101
*
Ed
 1.5e-07 1 1 0
1  24 0 -8.2 -7.6
2  59 4 0 -8.2 -7.6
2  60 9 2 -8.2 -7.6
0

0101000
+70 0 -72 0 *
Ed
 1.5e-07 1 1 0
1  29 0 3.5 5.5
2  69 4 0 3.5 5.5
2  70 15 0 3.5 5.5
0

0101000
+70 0 -75 0 *
Wi

0101100
-73 0 +71 0 +69 0 -68 0 *
Ve
1.5e-07
7 2 9.4
0 0

0101101
*
Ve
1.5e-07
7 2 8.8
0 0

0101101
*
Ed
 1.5e-07 1 1 0
1  22 0 -9.4 -8.8
2  55 4 0 -9.4 -8.8
2  56 11 2 -9.4 -8.8
0

0101000
+66 0 -65 0 *
Ve
1.5e-07
5 2 8.8
0 0

0101101
*
Ed
 1.5e-07 1 1 0
1  30 0 4 6
2  71 4 0 4 6
2  72 16 0 4 6
0

0101000
+63 0 -65 0 *
Ve
1.5e-07
5 2 9.4
0 0

0101101
*
Ed
 1.5e-07 1 1 0
1  24 0 -9.4 -8.8
2  59 4 0 -9.4 -8.8
2  60 9 2 -9.4 -8.8
0

0101000
+61 0 -63 0 *
Ed
 1.5e-07 1 1 0
1  31 0 4.5 6.5
2  73 4 0 4.5 6.5
2  74 17 0 4.5 6.5
0

0101000
+61 0 -66 0 *
Wi

0101100
-64 0 +62 0 +60 0 -59 0 *
Fa
0  1e-07 4 0

0111000
+94 0 +85 0 +76 0 +67 0 +58 0 *
Ed
 1e-07 1 1 0
1  32 0 0 2
2  75 6 0 0 2
2  76 5 0 0 2
0

0101000
-97 0 +145 0 *
Wi

0101100
-148 0 -96 0 +56 0 +144 0 *
Fa
0  1e-07 5 0

0111000
+55 0 *
Wi

0101100
-142 0 -100 0 +95 0 +56 0 *
Fa
0  1e-07 6 0

0111000
+53 0 *
Ed
 1.5e-07 1 1 0
1  33 0 -2 0
2  77 9 2 -2 0
2  78 8 0 -2 0
0

0101000
+90 0 -139 0 *
Ed
 1.5e-07 1 1 0
1  34 0 -2 0
2  79 11 2 -2 0
2  80 8 0 -2 0
0

0101000
+92 0 -138 0 *
Wi

0101100
+51 0 -89 0 -50 0 +137 0 *
Fa
0  1e-07 8 0

0111000
+49 0 *
Ed
 1.5e-07 1 1 0
1  35 0 -2 0
2  81 9 2 -2 0
2  82 10 0 -2 0
0

0101000
+88 0 -136 0 *
Wi

0101100
-135 2 +47 0 -87 0 -51 0 *
Fa
0  1e-07 9 2

0111000
+46 0 *
Ed
 1.5e-07 1 1 0
1  36 0 -2 0
2  83 11 2 -2 0
2  84 10 0 -2 0
0

0101000
+93 0 -134 0 *
Wi

0101100
+47 0 -86 0 -44 0 +133 0 *
Fa
0  1e-07 10 0

0111000
+43 0 *
Wi

0101100
-132 2 +44 0 -91 0 -50 0 *
Fa
0  1e-07 11 2

0111000
+41 0 *
Ed
 1.5e-07 1 1 0
1  37 0 -2 0
2  85 9 2 -2 0
2  86 12 0 -2 0
0

0101000
+81 0 -130 0 *
Ed
 1.5e-07 1 1 0
1  38 0 -2 0
2  87 11 2 -2 0
2  88 12 0 -2 0
0

0101000
+83 0 -129 0 *
Wi

0101100
+39 0 -80 0 -38 0 +128 0 *
Fa
0  1e-07 12 0

0111000
+37 0 *
Ed
 1.5e-07 1 1 0
1  39 0 -2 0
2  89 9 2 -2 0
2  90 13 0 -2 0
0

0101000
+79 0 -127 0 *
Wi

0101100
-126 2 +35 0 -78 0 -39 0 *
Fa
0  1e-07 9 2

0111000
+34 0 *
Ed
 1.5e-07 1 1 0
1  40 0 -2 0
2  91 11 2 -2 0
2  92 13 0 -2 0
0

0101000
+84 0 -125 0 *
Wi

0101100
+35 0 -77 0 -32 0 +124 0 *
Fa
0  1e-07 13 0

0111000
+31 0 *
Wi

0101100
-123 2 +32 0 -82 0 -38 0 *
Fa
0  1e-07 11 2

0111000
+29 0 *
Ed
 1.5e-07 1 1 0
1  41 0 -2 0
2  93 9 2 -2 0
2  94 14 0 -2 0
0

0101000
+72 0 -121 0 *
Ed
 1.5e-07 1 1 0
1  42 0 -2 0
2  95 11 2 -2 0
2  96 14 0 -2 0
0

0101000
+74 0 -120 0 *
Wi

0101100
+27 0 -71 0 -26 0 +119 0 *
Fa
0  1e-07 14 0

0111000
+25 0 *
Ed
 1.5e-07 1 1 0
1  43 0 -2 0
2  97 9 2 -2 0
2  98 15 0 -2 0
0

0101000
+70 0 -118 0 *
Wi

0101100
-69 0 -27 0 -117 2 +23 0 *
Fa
0  1e-07 9 2

0111000
+22 0 *
Ed
 1.5e-07 1 1 0
1  44 0 -2 0
2  99 11 2 -2 0
2  100 15 0 -2 0
0

0101000
+75 0 -116 0 *
Wi

0101100
+23 0 -68 0 -20 0 +115 0 *
Fa
0  1e-07 15 0

0111000
+19 0 *
Wi

0101100
-73 0 -26 0 -114 2 +20 0 *
Fa
0  1e-07 11 2

0111000
+17 0 *
Ed
 1.5e-07 1 1 0
1  45 0 -2 0
2  101 9 2 -2 0
2  102 16 0 -2 0
0

0101000
+63 0 -112 0 *
Ed
 1.5e-07 1 1 0
1  46 0 -2 0
2  103 11 2 -2 0
2  104 16 0 -2 0
0

0101000
+65 0 -111 0 *
Wi

0101100
+15 0 -62 0 -14 0 +110 0 *
Fa
0  1e-07 16 0

0111000
+13 0 *
Ed
 1.5e-07 1 1 0
1  47 0 -2 0
2  105 9 2 -2 0
2  106 17 0 -2 0
0

0101000
+61 0 -109 0 *
Wi

0101100
-60 0 -15 0 -108 2 +11 0 *
Fa
0  1e-07 9 2

0111000
+10 0 *
Ed
 1.5e-07 1 1 0
1  48 0 -2 0
2  107 11 2 -2 0
2  108 17 0 -2 0
0

0101000
+66 0 -107 0 *
Wi

0101100
+11 0 -59 0 -8 0 +106 0 *
Fa
0  1e-07 17 0

0111000
+7 0 *
Wi

0101100
-64 0 -14 0 -105 2 +8 0 *
Fa
0  1e-07 11 2

0111000
+5 0 *
Sh

0101100
-146 0 -103 0 +98 0 +57 0 -54 0 +52 0 +48 0 +45 0 -42 0 -40 0 
+36 0 +33 0 -30 0 -28 0 +24 0 +21 0 -18 0 -16 0 +12 0 +9 0 
-6 0 -4 0 *
So

0100000
+3 0 *
Co

1100000
+2 0 *

+1 1  