
CASCADE Topology V1, (c) Matra-Datavision
Locations 7
1
              1               0               0               0 
              0               1               0              -5 
              0               0               1              -5 
1
              1               0               0               5 
              0               1               0               0 
              0               0               1               0 
2  2 -1 0
1
              1               0               0              -5 
              0               1               0               0 
              0               0               1               0 
1
              1               0               0               0 
              0               1               0               0 
              0               0               1               3 
2  5 -1 0
2  4 -1 0
Curve2ds 128
1 0 0 1 0 
1 0 0 1 0 
1 0 5 1 0 
1 0 5 1 0 
8 -2 0
1 1.2000000000000002 0 0 1 
8 -2 0
1 3 0 0 -1 
8 -10 0
1 0 5 -1 0 
8 -10 0
1 0 -2 -1 -0 
8 -2 0
1 1.7999999999999998 0 0 1 
8 -2 0
1 2 0 0 -1 
8 -2 0
1 2.3999999999999999 0 0 1 
8 -2 0
1 1 0 0 -1 
1 0 0 0 -1 
1 0 0 0 1 
1 3 0 0 -1 
1 0 -5 1 0 
1 0 0 1 0 
1 3 -5 1 0 
1 4 0 0 -1 
1 0 0 0 1 
1 7 0 0 -1 
8 -2 0
1 7.5999999999999996 0 0 1 
8 -2 0
1 1 0 0 -1 
1 0 5 1 0 
1 0 5 1 0 
8 -2 0
1 8.1999999999999993 0 0 1 
8 -2 0
1 2 0 0 -1 
8 -2 0
1 8.8000000000000007 0 0 1 
8 -2 0
1 3 0 0 -1 
8 -2 0
1 9.4000000000000004 0 0 1 
8 -2 0
1 4 0 0 -1 
1 10 0 0 -1 
1 0 0 0 1 
1 0 -10 1 0 
1 0 0 1 0 
1 0 0 0 -1 
1 0 0 0 1 
8 -2 0
1 0.59999999999999964 0 0 1 
8 -2 0
1 4 0 0 -1 
1 0 0 1 0 
1 0 2 1 0 
1 0 7 1 0 
1 0 7 1 0 
8 1.5 3.5
1 1.2000000000000002 -1.5 0 1 
8 1.5 3.5
1 1.5 0 1 0 
8 2 4
1 0.59999999999999964 -2 0 1 
8 2 4
1 2 0 1 0 
8 4 6
1 1.2000000000000002 1 0 1 
8 4 6
1 -1 2 1 0 
8 -2 0
1 1.2000000000000002 0 0 1 
8 -2 0
1 5 0 0 -1 
8 -10 0
1 0 7 -1 0 
8 -10 0
1 0 -2 -1 -0 
8 3.5 5.5
1 1.7999999999999998 1.5 0 1 
8 3.5 5.5
1 -1.5 2 1 0 
8 -2 0
1 1.7999999999999998 0 0 1 
8 -2 0
1 4 0 0 -1 
8 1 3
1 1.7999999999999998 -1 0 1 
8 1 3
1 1 0 1 0 
8 0.5 2.5
1 2.3999999999999999 -0.5 0 1 
8 0.5 2.5
1 0.5 0 1 0 
8 3 5
1 2.3999999999999999 2 0 1 
8 3 5
1 -2 2 1 0 
8 -2 0
1 2.3999999999999999 0 0 1 
8 -2 0
1 3 0 0 -1 
8 2.5 4.5
1 3 2.5 0 1 
8 2.5 4.5
1 -2.5 2 1 0 
1 0 0 0 1 
1 0 5 1 0 
1 0 0 0 -1 
1 2 0 0 1 
1 3 0 0 -1 
1 0 -5 1 0 
1 0 2 1 0 
1 3 -5 1 0 
1 4 0 0 1 
1 0 5 1 0 
1 4 0 0 -1 
1 2 0 0 1 
1 7 0 0 -1 
8 2.5 4.5
1 7 2.5 0 1 
8 2.5 4.5
1 -2.5 2 1 0 
8 3 5
1 7.5999999999999996 2 0 1 
8 3 5
1 -2 2 1 0 
8 -2 0
1 7.5999999999999996 0 0 1 
8 -2 0
1 3 0 0 -1 
8 0.5 2.5
1 7.5999999999999996 -0.5 0 1 
8 0.5 2.5
1 0.5 0 1 0 
1 0 7 1 0 
1 0 7 1 0 
8 1 3
1 8.1999999999999993 -1 0 1 
8 1 3
1 1 0 1 0 
8 3.5 5.5
1 8.1999999999999993 1.5 0 1 
8 3.5 5.5
1 -1.5 2 1 0 
8 -2 0
1 8.1999999999999993 0 0 1 
8 -2 0
1 4 0 0 -1 
8 4 6
1 8.8000000000000007 1 0 1 
8 4 6
1 -1 2 1 0 
8 -2 0
1 8.8000000000000007 0 0 1 
8 -2 0
1 5 0 0 -1 
8 1.5 3.5
1 8.8000000000000007 -1.5 0 1 
8 1.5 3.5
1 1.5 0 1 0 
8 2 4
1 9.4000000000000004 -2 0 1 
8 2 4
1 2 0 1 0 
8 4.5 6.5
1 9.4000000000000004 0.5 0 1 
8 4.5 6.5
1 -0.5 2 1 0 
8 -2 0
1 9.4000000000000004 0 0 1 
8 -2 0
1 6 0 0 -1 
1 10 0 0 1 
1 0 2 1 0 
1 -5 2 1 0 
1 10 0 0 1 
1 0 10 1 0 
1 10 0 0 -1 
1 2 0 0 1 
1 0 0 0 1 
1 0 10 1 0 
1 0 -10 1 0 
1 0 2 1 0 
1 0 0 0 -1 
1 2 0 0 1 
1 0 0 0 1 
1 0 2 1 0 
1 -5 2 1 0 
8 4.5 6.5
1 0.59999999999999964 0.5 0 1 
8 4.5 6.5
1 -0.5 2 1 0 
8 -2 0
1 0.59999999999999964 0 0 1 
8 -2 0
1 6 0 0 -1 
Curves 56
1 0 0 0 0 0 1 
1 0 0 1.2000000000000002 0 -1 0 
1 0 2 0 -0 0 -1 
1 0 0 1.7999999999999998 0 -1 0 
1 0 0 2.3999999999999999 0 -1 0 
1 0 0 0 -0 1 0 
1 0 5 0 0 0 1 
1 0 0 4 -0 1 0 
1 0 0 7.5999999999999996 0 -1 0 
1 0 0 8.1999999999999993 0 -1 0 
1 0 0 8.8000000000000007 0 -1 0 
1 0 0 9.4000000000000004 0 -1 0 
1 0 0 10 -0 1 0 
1 0 10 0 0 0 1 
1 0 0 0 -0 1 0 
1 0 0 0.59999999999999964 0 -1 0 
1 2 0 0 0 0 1 
1 -1.5 0 1.2000000000000002 1 0 -0 
1 -2 0 0.59999999999999964 1 0 -0 
1 -4 2 1.2000000000000002 1 0 0 
1 2 0 1.2000000000000002 0 -1 0 
1 2 2 0 -0 0 -1 
1 -3.5 2 1.7999999999999998 1 0 0 
1 2 0 1.7999999999999998 0 -1 0 
1 -1 0 1.7999999999999998 1 0 -0 
1 -0.5 0 2.3999999999999999 1 0 -0 
1 -3 2 2.3999999999999999 1 0 0 
1 2 0 2.3999999999999999 0 -1 0 
1 -2.5 2 3 1 0 0 
1 0 5 0 1 0 -0 
1 2 0 0 -0 1 0 
1 2 5 0 0 0 1 
1 0 5 4 1 0 -0 
1 2 0 4 -0 1 0 
1 -2.5 2 7 1 0 0 
1 -3 2 7.5999999999999996 1 0 0 
1 2 0 7.5999999999999996 0 -1 0 
1 -0.5 0 7.5999999999999996 1 0 -0 
1 -1 0 8.1999999999999993 1 0 -0 
1 -3.5 2 8.1999999999999993 1 0 0 
1 2 0 8.1999999999999993 0 -1 0 
1 -4 2 8.8000000000000007 1 0 0 
1 2 0 8.8000000000000007 0 -1 0 
1 -1.5 0 8.8000000000000007 1 0 -0 
1 -2 0 9.4000000000000004 1 0 -0 
1 -4.5 2 9.4000000000000004 1 0 0 
1 2 0 9.4000000000000004 0 -1 0 
1 0 2 10 1 0 -0 
1 0 10 10 1 0 -0 
1 2 0 10 -0 1 0 
1 0 10 0 1 0 -0 
1 2 10 0 0 0 1 
1 2 0 0 -0 1 0 
1 0 2 0 1 0 -0 
1 -4.5 2 0.59999999999999964 1 0 0 
1 2 0 0.59999999999999964 0 -1 0 
Polygon3D 0
PolygonOnTriangulations 0
Surfaces 23
1 0 0 0 1 0 -0 0 0 1 0 -1 0 
1 0 0 0 -0 1 0 0 0 1 1 0 -0 
1 0 0 0 -0 1 0 0 0 1 1 0 -0 
1 -3 0 1.2000000000000002 0 0 1 1 0 0 0 1 0 
1 0 2 0 -0 1 0 0 0 1 1 0 -0 
1 -2 0 1.7999999999999998 0 0 1 1 0 0 0 1 0 
1 -1 0 2.3999999999999999 0 0 1 1 0 0 0 1 0 
1 0 0 0 1 0 -0 0 0 1 0 -1 0 
1 0 0 0 0 0 1 1 0 -0 -0 1 0 
1 0 5 0 -0 1 0 0 0 1 1 0 -0 
1 0 0 4 0 0 1 1 0 -0 -0 1 0 
1 -1 0 7.5999999999999996 0 0 1 1 0 0 0 1 0 
1 -2 0 8.1999999999999993 0 0 1 1 0 0 0 1 0 
1 -3 0 8.8000000000000007 0 0 1 1 0 0 0 1 0 
1 -4 0 9.4000000000000004 0 0 1 1 0 0 0 1 0 
1 0 0 10 0 0 1 1 0 -0 -0 1 0 
1 0 10 0 -0 1 0 0 0 1 1 0 -0 
1 0 0 0 0 0 1 1 0 -0 -0 1 0 
1 -4 0 0.59999999999999964 0 0 1 1 0 0 0 1 0 
1 2 0 0 1 0 -0 0 0 1 0 -1 0 
1 2 0 0 1 0 -0 0 0 1 0 -1 0 
1 0 0 10 0 0 1 1 0 -0 -0 1 0 
1 0 0 0 0 0 1 1 0 -0 -0 1 0 
Triangulations 0

TShapes 175
Ve
1.5e-07
0 0 0.6
0 0

0101101
*
Ve
1.5e-07
0 0 1.2
0 0

0101101
*
Ed
 1e-07 1 1 0
1  1 0 0.6 1.2
2  1 1 0 0.6 1.2
2  2 2 0 0.6 1.2
2  3 3 3 0.6 1.2
2  4 3 4 0.6 1.2
0

0101000
+175 0 -174 0 *
Ve
1.5e-07
0 2 1.2
0 0

0101101
*
Ed
 1.5e-07 1 1 0
1  2 0 -2 0
2  5 1 0 -2 0
2  6 4 0 -2 0
0

0101000
+172 0 -174 0 *
Ve
1.5e-07
0 2 1.8
0 0

0101101
*
Ed
 1.5e-07 1 1 0
1  3 0 -1.8 -1.2
2  7 5 4 -1.8 -1.2
2  8 1 0 -1.8 -1.2
0

0101000
+170 0 -172 0 *
Ve
1.5e-07
0 0 1.8
0 0

0101101
*
Ed
 1.5e-07 1 1 0
1  4 0 -2 0
2  9 1 0 -2 0
2  10 6 0 -2 0
0

0101000
+170 0 -168 0 *
Ve
1.5e-07
0 0 2.4
0 0

0101101
*
Ed
 1e-07 1 1 0
1  1 0 1.8 2.4
2  1 1 0 1.8 2.4
2  2 2 0 1.8 2.4
2  3 3 3 1.8 2.4
2  4 3 4 1.8 2.4
0

0101000
+168 0 -166 0 *
Ve
1.5e-07
0 2 2.4
0 0

0101101
*
Ed
 1.5e-07 1 1 0
1  5 0 -2 0
2  11 1 0 -2 0
2  12 7 0 -2 0
0

0101000
+164 0 -166 0 *
Ve
1.5e-07
0 2 3
0 0

0101101
*
Ed
 1.5e-07 1 1 0
1  3 0 -3 -2.4
2  7 5 4 -3 -2.4
2  8 1 0 -3 -2.4
0

0101000
+162 0 -164 0 *
Ve
1e-07
0 5 0
0 0

0101101
*
Ed
 1e-07 1 1 0
1  6 0 2 5
2  13 8 0 2 5
2  14 9 0 2 5
2  15 1 6 2 5
0

0101000
+162 6 -160 0 *
Ve
1e-07
0 5 4
0 0

0101101
*
Ed
 1e-07 1 1 0
1  7 0 0 4
2  16 8 0 0 4
2  17 10 0 0 4
2  18 1 6 0 4
0

0101000
-158 0 +160 0 *
Ve
1.5e-07
0 2 7
0 0

0101101
*
Ed
 1e-07 1 1 0
1  8 0 2 5
2  19 8 0 2 5
2  20 11 0 2 5
2  21 1 6 2 5
0

0101000
+156 6 -158 0 *
Ve
1.5e-07
0 2 7.6
0 0

0101101
*
Ed
 1.5e-07 1 1 0
1  3 0 -7.6 -7
2  7 5 4 -7.6 -7
2  8 1 0 -7.6 -7
0

0101000
+154 0 -156 0 *
Ve
1.5e-07
0 0 7.6
0 0

0101101
*
Ed
 1.5e-07 1 1 0
1  9 0 -2 0
2  22 1 0 -2 0
2  23 12 0 -2 0
0

0101000
+154 0 -152 0 *
Ve
1.5e-07
0 0 8.2
0 0

0101101
*
Ed
 1e-07 1 1 0
1  1 0 7.6 8.2
2  1 1 0 7.6 8.2
2  2 2 0 7.6 8.2
2  24 3 3 7.6 8.2
2  25 3 4 7.6 8.2
0

0101000
+152 0 -150 0 *
Ve
1.5e-07
0 2 8.2
0 0

0101101
*
Ed
 1.5e-07 1 1 0
1  10 0 -2 0
2  26 1 0 -2 0
2  27 13 0 -2 0
0

0101000
+148 0 -150 0 *
Ve
1.5e-07
0 2 8.8
0 0

0101101
*
Ed
 1.5e-07 1 1 0
1  3 0 -8.8 -8.2
2  7 5 4 -8.8 -8.2
2  8 1 0 -8.8 -8.2
0

0101000
+146 0 -148 0 *
Ve
1.5e-07
0 0 8.8
0 0

0101101
*
Ed
 1.5e-07 1 1 0
1  11 0 -2 0
2  28 1 0 -2 0
2  29 14 0 -2 0
0

0101000
+146 0 -144 0 *
Ve
1.5e-07
0 0 9.4
0 0

0101101
*
Ed
 1e-07 1 1 0
1  1 0 8.8 9.4
2  1 1 0 8.8 9.4
2  2 2 0 8.8 9.4
2  24 3 3 8.8 9.4
2  25 3 4 8.8 9.4
0

0101000
+144 0 -142 0 *
Ve
1.5e-07
0 2 9.4
0 0

0101101
*
Ed
 1.5e-07 1 1 0
1  12 0 -2 0
2  30 1 0 -2 0
2  31 15 0 -2 0
0

0101000
+140 0 -142 0 *
Ve
1.5e-07
0 2 10
0 0

0101101
*
Ed
 1.5e-07 1 1 0
1  3 0 -10 -9.4
2  7 5 4 -10 -9.4
2  8 1 0 -10 -9.4
0

0101000
+138 0 -140 0 *
Ve
1e-07
0 10 10
0 0

0101101
*
Ed
 1e-07 1 1 0
1  13 0 2 10
2  32 1 0 2 10
2  33 16 0 2 10
0

0101000
+138 0 -136 0 *
Ve
1e-07
0 10 0
0 0

0101101
*
Ed
 1e-07 1 1 0
1  14 0 0 10
2  34 1 0 0 10
2  35 17 0 0 10
0

0101000
-136 0 +134 0 *
Ve
1.5e-07
0 2 0
0 0

0101101
*
Ed
 1e-07 1 1 0
1  15 0 2 10
2  36 1 0 2 10
2  37 18 0 2 10
0

0101000
+132 0 -134 0 *
Ve
1.5e-07
0 2 0.6
0 0

0101101
*
Ed
 1.5e-07 1 1 0
1  3 0 -0.6 0
2  7 5 4 -0.6 0
2  8 1 0 -0.6 0
0

0101000
+130 0 -132 0 *
Ed
 1.5e-07 1 1 0
1  16 0 -2 0
2  38 1 0 -2 0
2  39 19 0 -2 0
0

0101000
+130 0 -175 0 *
Wi

0101100
-173 0 +171 0 +169 0 -167 0 -165 0 +163 0 +161 0 -159 5 -157 5 +155 5 
+153 0 -151 0 -149 0 +147 0 +145 0 -143 0 -141 0 +139 0 +137 0 -135 0 
+133 0 +131 0 +129 0 -128 0 *
Fa
0  1e-07 1 0

0111000
+127 0 *
Ve
1.5e-07
2 0 0.6
0 0

0101101
*
Ve
1.5e-07
2 0 1.2
0 0

0101101
*
Ed
 1e-07 1 1 0
1  17 0 0.6 1.2
2  40 20 0 0.6 1.2
2  41 2 0 0.6 1.2
2  42 3 3 0.6 1.2
2  43 3 4 0.6 1.2
0

0101000
+125 0 -124 0 *
Ed
 1.5e-07 1 1 0
1  18 0 1.5 3.5
2  44 2 0 1.5 3.5
2  45 4 0 1.5 3.5
0

0101000
+174 0 -124 0 *
Ed
 1.5e-07 1 1 0
1  19 0 2 4
2  46 2 0 2 4
2  47 19 0 2 4
0

0101000
+175 0 -125 0 *
Wi

0101100
-123 0 +122 0 +173 0 -121 0 *
Fa
0  1e-07 2 0

0111000
+120 0 *
Ve
1.5e-07
2 2 1.2
0 0

0101101
*
Ed
 1.5e-07 1 1 0
1  20 0 4 6
2  48 5 4 4 6
2  49 4 0 4 6
0

0101000
+172 0 -118 0 *
Ed
 1.5e-07 1 1 0
1  21 0 -2 0
2  50 20 0 -2 0
2  51 4 0 -2 0
0

0101000
+118 0 -124 0 *
Wi

0101100
+171 0 -117 0 -116 0 +122 0 *
Fa
0  1e-07 4 0

0111000
+115 0 *
Ve
1.5e-07
2 2 1.8
0 0

0101101
*
Ed
 1.5e-07 1 1 0
1  22 0 -1.8 -1.2
2  52 5 4 -1.8 -1.2
2  53 20 0 -1.8 -1.2
0

0101000
+113 0 -118 0 *
Ed
 1.5e-07 1 1 0
1  23 0 3.5 5.5
2  54 5 4 3.5 5.5
2  55 6 0 3.5 5.5
0

0101000
+170 0 -113 0 *
Wi

0101100
-117 0 +112 0 +111 0 -169 0 *
Fa
0  1e-07 5 4

0111000
+110 0 *
Ve
1.5e-07
2 0 1.8
0 0

0101101
*
Ed
 1.5e-07 1 1 0
1  24 0 -2 0
2  56 20 0 -2 0
2  57 6 0 -2 0
0

0101000
+113 0 -108 0 *
Ed
 1.5e-07 1 1 0
1  25 0 1 3
2  58 2 0 1 3
2  59 6 0 1 3
0

0101000
+168 0 -108 0 *
Wi

0101100
+167 0 -111 0 -107 0 +106 0 *
Fa
0  1e-07 6 0

0111000
+105 0 *
Ve
1.5e-07
2 0 2.4
0 0

0101101
*
Ed
 1e-07 1 1 0
1  17 0 1.8 2.4
2  40 20 0 1.8 2.4
2  41 2 0 1.8 2.4
2  42 3 3 1.8 2.4
2  43 3 4 1.8 2.4
0

0101000
+108 0 -103 0 *
Ed
 1.5e-07 1 1 0
1  26 0 0.5 2.5
2  60 2 0 0.5 2.5
2  61 7 0 0.5 2.5
0

0101000
+166 0 -103 0 *
Wi

0101100
-102 0 +101 0 +165 0 -106 0 *
Fa
0  1e-07 2 0

0111000
+100 0 *
Ve
1.5e-07
2 2 2.4
0 0

0101101
*
Ed
 1.5e-07 1 1 0
1  27 0 3 5
2  62 5 4 3 5
2  63 7 0 3 5
0

0101000
+164 0 -98 0 *
Ed
 1.5e-07 1 1 0
1  28 0 -2 0
2  64 20 0 -2 0
2  65 7 0 -2 0
0

0101000
+98 0 -103 0 *
Wi

0101100
+163 0 -97 0 -96 0 +101 0 *
Fa
0  1e-07 7 0

0111000
+95 0 *
Ve
1.5e-07
2 2 3
0 0

0101101
*
Ed
 1.5e-07 1 1 0
1  22 0 -3 -2.4
2  52 5 4 -3 -2.4
2  53 20 0 -3 -2.4
0

0101000
+93 0 -98 0 *
Ed
 1.5e-07 1 1 0
1  29 0 2.5 4.5
2  66 5 4 2.5 4.5
2  67 9 5 2.5 4.5
0

0101000
+162 0 -93 0 *
Wi

0101100
-97 0 +92 0 +91 0 -161 0 *
Fa
0  1e-07 5 4

0111000
+90 0 *
Ve
1e-07
2 5 0
0 0

0101101
*
Ed
 1e-07 1 1 0
1  30 0 0 2
2  68 10 0 0 2
2  69 9 0 0 2
0

0101000
-88 0 +160 0 *
Ed
 1e-07 1 1 0
1  31 0 2 5
2  70 21 0 2 5
2  71 9 0 2 5
2  72 20 6 2 5
0

0101000
+93 6 -88 0 *
Wi

0101100
-159 5 -87 5 +86 5 +91 0 *
Fa
0  1e-07 9 5

0111000
+85 0 *
Ve
1e-07
2 5 4
0 0

0101101
*
Ed
 1e-07 1 1 0
1  32 0 0 4
2  73 21 0 0 4
2  74 10 0 0 4
2  75 20 6 0 4
0

0101000
-83 0 +88 0 *
Ed
 1e-07 1 1 0
1  33 0 0 2
2  76 10 0 0 2
2  77 11 0 0 2
0

0101000
-83 0 +158 0 *
Wi

0101100
-87 0 -82 0 +81 0 +157 0 *
Fa
0  1e-07 10 0

0111000
+80 0 *
Ve
1.5e-07
2 2 7
0 0

0101101
*
Ed
 1e-07 1 1 0
1  34 0 2 5
2  78 21 0 2 5
2  79 11 0 2 5
2  80 20 6 2 5
0

0101000
+78 6 -83 0 *
Ed
 1.5e-07 1 1 0
1  35 0 2.5 4.5
2  81 5 4 2.5 4.5
2  82 11 5 2.5 4.5
0

0101000
+156 0 -78 0 *
Wi

0101100
-155 5 -81 5 +77 5 +76 0 *
Fa
0  1e-07 11 5

0111000
+75 0 *
Ve
1.5e-07
2 2 7.6
0 0

0101101
*
Ed
 1.5e-07 1 1 0
1  22 0 -7.6 -7
2  52 5 4 -7.6 -7
2  53 20 0 -7.6 -7
0

0101000
+73 0 -78 0 *
Ed
 1.5e-07 1 1 0
1  36 0 3 5
2  83 5 4 3 5
2  84 12 0 3 5
0

0101000
+154 0 -73 0 *
Wi

0101100
-153 0 -76 0 +72 0 +71 0 *
Fa
0  1e-07 5 4

0111000
+70 0 *
Ve
1.5e-07
2 0 7.6
0 0

0101101
*
Ed
 1.5e-07 1 1 0
1  37 0 -2 0
2  85 20 0 -2 0
2  86 12 0 -2 0
0

0101000
+73 0 -68 0 *
Ed
 1.5e-07 1 1 0
1  38 0 0.5 2.5
2  87 2 0 0.5 2.5
2  88 12 0 0.5 2.5
0

0101000
+152 0 -68 0 *
Wi

0101100
+151 0 -71 0 -67 0 +66 0 *
Fa
0  1e-07 12 0

0111000
+65 0 *
Ve
1.5e-07
2 0 8.2
0 0

0101101
*
Ed
 1e-07 1 1 0
1  17 0 7.6 8.2
2  40 20 0 7.6 8.2
2  41 2 0 7.6 8.2
2  89 3 3 7.6 8.2
2  90 3 4 7.6 8.2
0

0101000
+68 0 -63 0 *
Ed
 1.5e-07 1 1 0
1  39 0 1 3
2  91 2 0 1 3
2  92 13 0 1 3
0

0101000
+150 0 -63 0 *
Wi

0101100
-62 0 +61 0 +149 0 -66 0 *
Fa
0  1e-07 2 0

0111000
+60 0 *
Ve
1.5e-07
2 2 8.2
0 0

0101101
*
Ed
 1.5e-07 1 1 0
1  40 0 3.5 5.5
2  93 5 4 3.5 5.5
2  94 13 0 3.5 5.5
0

0101000
+148 0 -58 0 *
Ed
 1.5e-07 1 1 0
1  41 0 -2 0
2  95 20 0 -2 0
2  96 13 0 -2 0
0

0101000
+58 0 -63 0 *
Wi

0101100
+147 0 -57 0 -56 0 +61 0 *
Fa
0  1e-07 13 0

0111000
+55 0 *
Ve
1.5e-07
2 2 8.8
0 0

0101101
*
Ed
 1.5e-07 1 1 0
1  22 0 -8.8 -8.2
2  52 5 4 -8.8 -8.2
2  53 20 0 -8.8 -8.2
0

0101000
+53 0 -58 0 *
Ed
 1.5e-07 1 1 0
1  42 0 4 6
2  97 5 4 4 6
2  98 14 0 4 6
0

0101000
+146 0 -53 0 *
Wi

0101100
-145 0 -57 0 +52 0 +51 0 *
Fa
0  1e-07 5 4

0111000
+50 0 *
Ve
1.5e-07
2 0 8.8
0 0

0101101
*
Ed
 1.5e-07 1 1 0
1  43 0 -2 0
2  99 20 0 -2 0
2  100 14 0 -2 0
0

0101000
+53 0 -48 0 *
Ed
 1.5e-07 1 1 0
1  44 0 1.5 3.5
2  101 2 0 1.5 3.5
2  102 14 0 1.5 3.5
0

0101000
+144 0 -48 0 *
Wi

0101100
+143 0 -51 0 -47 0 +46 0 *
Fa
0  1e-07 14 0

0111000
+45 0 *
Ve
1.5e-07
2 0 9.4
0 0

0101101
*
Ed
 1e-07 1 1 0
1  17 0 8.8 9.4
2  40 20 0 8.8 9.4
2  41 2 0 8.8 9.4
2  89 3 3 8.8 9.4
2  90 3 4 8.8 9.4
0

0101000
+48 0 -43 0 *
Ed
 1.5e-07 1 1 0
1  45 0 2 4
2  103 2 0 2 4
2  104 15 0 2 4
0

0101000
+142 0 -43 0 *
Wi

0101100
-42 0 +41 0 +141 0 -46 0 *
Fa
0  1e-07 2 0

0111000
+40 0 *
Ve
1.5e-07
2 2 9.4
0 0

0101101
*
Ed
 1.5e-07 1 1 0
1  46 0 4.5 6.5
2  105 5 4 4.5 6.5
2  106 15 0 4.5 6.5
0

0101000
+140 0 -38 0 *
Ed
 1.5e-07 1 1 0
1  47 0 -2 0
2  107 20 0 -2 0
2  108 15 0 -2 0
0

0101000
+38 0 -43 0 *
Wi

0101100
+139 0 -37 0 -36 0 +41 0 *
Fa
0  1e-07 15 0

0111000
+35 0 *
Ve
1.5e-07
2 2 10
0 0

0101101
*
Ed
 1.5e-07 1 1 0
1  22 0 -10 -9.4
2  52 5 4 -10 -9.4
2  53 20 0 -10 -9.4
0

0101000
+33 0 -38 0 *
Ed
 1e-07 1 1 0
1  48 0 5 7
2  109 5 0 5 7
2  110 22 0 5 7
2  111 16 7 5 7
0

0101000
+138 7 -33 7 *
Wi

0101100
-137 0 -37 0 +32 0 +31 4 *
Fa
0  1e-07 5 4

0111000
+30 0 *
Ve
1e-07
2 10 10
0 0

0101101
*
Ed
 1e-07 1 1 0
1  49 0 0 2
2  112 17 0 0 2
2  113 16 0 0 2
0

0101000
-28 0 +136 0 *
Ed
 1e-07 1 1 0
1  50 0 2 10
2  114 20 0 2 10
2  115 16 0 2 10
0

0101000
+33 0 -28 0 *
Wi

0101100
-135 0 -27 0 +26 0 +31 4 *
Fa
0  1e-07 16 0

0111000
+25 0 *
Ve
1e-07
2 10 0
0 0

0101101
*
Ed
 1e-07 1 1 0
1  51 0 0 2
2  116 17 0 0 2
2  117 18 0 0 2
0

0101000
-23 0 +134 0 *
Ed
 1e-07 1 1 0
1  52 0 0 10
2  118 20 0 0 10
2  119 17 0 0 10
0

0101000
-28 0 +23 0 *
Wi

0101100
-22 0 -21 0 +27 0 +133 0 *
Fa
0  1e-07 17 0

0111000
+20 0 *
Ve
1.5e-07
2 2 0
0 0

0101101
*
Ed
 1e-07 1 1 0
1  53 0 2 10
2  120 20 0 2 10
2  121 18 0 2 10
0

0101000
+18 0 -23 0 *
Ed
 1e-07 1 1 0
1  54 0 5 7
2  122 5 0 5 7
2  123 23 0 5 7
2  124 18 7 5 7
0

0101000
+132 7 -18 7 *
Wi

0101100
-131 0 -22 0 +17 0 +16 4 *
Fa
0  1e-07 18 0

0111000
+15 0 *
Ve
1.5e-07
2 2 0.6
0 0

0101101
*
Ed
 1.5e-07 1 1 0
1  22 0 -0.6 0
2  52 5 4 -0.6 0
2  53 20 0 -0.6 0
0

0101000
+13 0 -18 0 *
Ed
 1.5e-07 1 1 0
1  55 0 4.5 6.5
2  125 5 4 4.5 6.5
2  126 19 0 4.5 6.5
0

0101000
+130 0 -13 0 *
Wi

0101100
-16 4 +12 0 +11 0 -129 0 *
Fa
0  1e-07 5 4

0111000
+10 0 *
Ed
 1.5e-07 1 1 0
1  56 0 -2 0
2  127 20 0 -2 0
2  128 19 0 -2 0
0

0101000
+13 0 -125 0 *
Wi

0101100
+128 0 -11 0 -8 0 +121 0 *
Fa
0  1e-07 19 0

0111000
+7 0 *
Wi

0101100
-123 0 +116 0 +112 0 -107 0 -102 0 +96 0 +92 0 -86 5 -82 5 +77 5 
+72 0 -67 0 -62 0 +56 0 +52 0 -47 0 -42 0 +36 0 +32 0 -26 0 
+21 0 +17 0 +12 0 -8 0 *
Fa
0  1e-07 20 0

0111000
+5 0 *
Sh

0101100
-126 0 -119 0 +114 0 -109 0 -104 0 -99 0 +94 0 -89 0 +84 0 -79 5 
-74 0 -69 0 -64 0 -59 0 +54 0 -49 0 -44 0 -39 0 +34 0 -29 0 
+24 0 +19 0 -14 0 -9 0 -6 0 +4 0 *
So

0100000
+3 0 *
Co

1100000
+2 0 *

+1 1  