
CASCADE Topology V1, (c) Matra-Datavision
Locations 9
1
              1               0               0              -5 
              0               1               0              -5 
              0               0               1              -5 
1
              1               0               0               0 
              0               1               0               0 
              0               0               1               0 
1
              1               0               0               0 
              0               1               0               0 
              0               0               1               0 
1
              1               0               0               0 
              0               1               0               0 
              0               0               1               0 
2  4 -1 0
1
              1               0               0               0 
              0               1               0               0 
              0               0               1               0 
2  2 -1 0
2  3 -1 0
2  6 -1 0
Curve2ds 76
1 0 0 1 0 
1 0 0 1 0 
8 -2 0
1 2.7272727272727266 0 0 1 
8 -2 0
1 0 0 0 -1 
1 2.7272727272727266 0 0 1 
1 0 -2 1 0 
1 0 0 1 0 
1 0 -2 1 0 
1 0 -2 1 0 
1 0 -2 1 0 
1 0 -2 1 0 
8 -2 0
1 3.6363636363636367 0 0 1 
8 -2 0
1 0 0 0 -1 
1 3.6363636363636367 0 0 1 
8 -2 0
1 6.3636363636363633 0 0 1 
8 -2 0
1 0 0 0 -1 
1 6.3636363636363633 0 0 1 
8 -2 0
1 7.2727272727272734 0 0 1 
8 -2 0
1 0 0 0 -1 
1 7.2727272727272734 0 0 1 
1 10 0 0 -1 
1 0 0 0 1 
1 0 -10 1 0 
1 0 0 1 0 
1 0 0 0 -1 
1 0 0 0 1 
1 0 0 1 0 
1 0 2 1 0 
1 0 2 1 0 
1 0 2 1 0 
1 0 2 1 0 
1 0 2 1 0 
8 0 2
1 2.7272727272727266 0 0 1 
8 0 2
1 0 0 1 0 
1 2.7272727272727266 0 0 1 
1 0 0 0 1 
1 0 0 1 0 
8 0 2
1 2.7272727272727266 0 0 1 
8 0 2
1 0 2 1 0 
8 -2 0
1 2.7272727272727266 0 0 1 
8 -2 0
1 2 0 0 -1 
8 -10 0
1 0 2 -1 0 
8 -10 0
1 0 -2 -1 -0 
8 0 2
1 3.6363636363636367 0 0 1 
8 0 2
1 0 2 1 0 
8 -2 0
1 3.6363636363636367 0 0 1 
8 -2 0
1 2 0 0 -1 
8 0 2
1 3.6363636363636367 0 0 1 
8 0 2
1 0 0 1 0 
1 3.6363636363636367 0 0 1 
8 0 2
1 6.3636363636363633 0 0 1 
8 0 2
1 0 0 1 0 
1 6.3636363636363633 0 0 1 
8 0 2
1 6.3636363636363633 0 0 1 
8 0 2
1 0 2 1 0 
8 -2 0
1 6.3636363636363633 0 0 1 
8 -2 0
1 2 0 0 -1 
8 0 2
1 7.2727272727272734 0 0 1 
8 0 2
1 0 2 1 0 
8 -2 0
1 7.2727272727272734 0 0 1 
8 -2 0
1 2 0 0 -1 
8 0 2
1 7.2727272727272734 0 0 1 
8 0 2
1 0 0 1 0 
1 7.2727272727272734 0 0 1 
1 10 0 0 1 
1 0 0 1 0 
1 10 0 0 1 
1 0 10 1 0 
1 10 0 0 -1 
1 2 0 0 1 
1 0 0 0 1 
1 0 10 1 0 
1 0 -10 1 0 
1 0 2 1 0 
1 0 0 0 -1 
1 2 0 0 1 
Curves 30
1 0 0 0 0 0 1 
1 0 0 2.7272727272727266 0 -1 0 
1 0 2 0 0 0 1 
1 0 0 3.6363636363636367 0 -1 0 
1 0 0 6.3636363636363633 0 -1 0 
1 0 0 7.2727272727272734 0 -1 0 
1 0 0 10 -0 1 0 
1 0 10 0 0 0 1 
1 0 0 0 -0 1 0 
1 2 0 0 0 0 1 
1 0 0 2.7272727272727266 1 0 0 
1 0 0 0 1 0 -0 
1 0 2 2.7272727272727266 1 0 0 
1 2 0 2.7272727272727266 0 -1 0 
1 2 2 0 -0 0 -1 
1 0 2 3.6363636363636367 1 0 0 
1 2 0 3.6363636363636367 0 -1 0 
1 0 0 3.6363636363636367 1 0 0 
1 0 0 6.3636363636363633 1 0 0 
1 0 2 6.3636363636363633 1 0 0 
1 2 0 6.3636363636363633 0 -1 0 
1 0 2 7.2727272727272734 1 0 0 
1 2 0 7.2727272727272734 0 -1 0 
1 0 0 7.2727272727272734 1 0 0 
1 0 0 10 1 0 -0 
1 0 10 10 1 0 -0 
1 2 0 10 -0 1 0 
1 0 10 0 1 0 -0 
1 2 10 0 0 0 1 
1 2 0 0 -0 1 0 
Polygon3D 0
PolygonOnTriangulations 0
Surfaces 13
1 0 0 0 1 0 -0 0 0 1 0 -1 0 
1 0 0 0 -0 1 0 0 0 1 1 0 -0 
1 0 0 0 1 0 -0 0 0 1 0 -1 0 
1 0 0 2.7272727272727266 0 0 1 1 0 0 0 1 0 
1 0 2 0 -0 1 0 0 0 1 1 0 -0 
1 0 0 3.6363636363636367 0 0 1 1 0 0 0 1 0 
1 0 0 6.3636363636363633 0 0 1 1 0 0 0 1 0 
1 0 0 7.2727272727272734 0 0 1 1 0 0 0 1 0 
1 0 0 10 0 0 1 1 0 -0 -0 1 0 
1 0 10 0 -0 1 0 0 0 1 1 0 -0 
1 0 0 0 0 0 1 1 0 -0 -0 1 0 
1 2 0 0 1 0 -0 0 0 1 0 -1 0 
1 0 0 0 -0 1 0 0 0 1 1 0 -0 
Triangulations 0

TShapes 91
Ve
1e-07
0 0 0
0 0

0101101
*
Ve
1.5e-07
0 0 2.72727272727273
0 0

0101101
*
Ed
 1e-07 1 1 0
1  1 0 0 2.72727272727273
2  1 1 0 0 2.72727272727273
2  2 2 0 0 2.72727272727273
0

0101000
+91 0 -90 0 *
Ve
1.5e-07
0 2 2.72727272727273
0 0

0101101
*
Ed
 1.5e-07 1 1 0
1  2 0 -2 0
2  3 3 2 -2 0
2  4 4 0 -2 0
2  5 1 0 -2 0
0

0101000
+88 0 -90 0 *
Ve
1.5e-07
0 2 3.63636363636364
0 0

0101101
*
Ed
 1e-07 1 1 0
1  3 0 2.72727272727273 3.63636363636364
2  6 3 0 2.72727272727273 3.63636363636364
2  7 5 0 2.72727272727273 3.63636363636364
2  8 1 3 2.72727272727273 3.63636363636364
2  9 1 5 2.72727272727273 3.63636363636364
2  10 1 6 2.72727272727273 3.63636363636364
2  11 1 7 2.72727272727273 3.63636363636364
0

0101000
+88 7 -86 7 *
Ve
1.5e-07
0 0 3.63636363636364
0 0

0101101
*
Ed
 1.5e-07 1 1 0
1  4 0 -2 0
2  12 3 2 -2 0
2  13 6 0 -2 0
2  14 1 0 -2 0
0

0101000
+86 0 -84 0 *
Ve
1.5e-07
0 0 6.36363636363636
0 0

0101101
*
Ed
 1e-07 1 1 0
1  1 0 3.63636363636364 6.36363636363636
2  1 1 0 3.63636363636364 6.36363636363636
2  2 2 0 3.63636363636364 6.36363636363636
0

0101000
+84 0 -82 0 *
Ve
1.5e-07
0 2 6.36363636363636
0 0

0101101
*
Ed
 1.5e-07 1 1 0
1  5 0 -2 0
2  15 3 2 -2 0
2  16 7 0 -2 0
2  17 1 0 -2 0
0

0101000
+80 0 -82 0 *
Ve
1.5e-07
0 2 7.27272727272727
0 0

0101101
*
Ed
 1e-07 1 1 0
1  3 0 6.36363636363636 7.27272727272727
2  6 3 0 6.36363636363636 7.27272727272727
2  7 5 0 6.36363636363636 7.27272727272727
2  8 1 3 6.36363636363636 7.27272727272727
2  9 1 5 6.36363636363636 7.27272727272727
2  10 1 6 6.36363636363636 7.27272727272727
2  11 1 7 6.36363636363636 7.27272727272727
0

0101000
+80 7 -78 7 *
Ve
1.5e-07
0 0 7.27272727272727
0 0

0101101
*
Ed
 1.5e-07 1 1 0
1  6 0 -2 0
2  18 3 2 -2 0
2  19 8 0 -2 0
2  20 1 0 -2 0
0

0101000
+78 0 -76 0 *
Ve
1e-07
0 0 10
0 0

0101101
*
Ed
 1e-07 1 1 0
1  1 0 7.27272727272727 10
2  1 1 0 7.27272727272727 10
2  2 2 0 7.27272727272727 10
0

0101000
+76 0 -74 0 *
Ve
1e-07
0 10 10
0 0

0101101
*
Ed
 1e-07 1 1 0
1  7 0 0 10
2  21 1 0 0 10
2  22 9 0 0 10
0

0101000
-72 0 +74 0 *
Ve
1e-07
0 10 0
0 0

0101101
*
Ed
 1e-07 1 1 0
1  8 0 0 10
2  23 1 0 0 10
2  24 10 0 0 10
0

0101000
-72 0 +70 0 *
Ed
 1e-07 1 1 0
1  9 0 0 10
2  25 1 0 0 10
2  26 11 0 0 10
0

0101000
-70 0 +91 0 *
Wi

0101100
-89 0 +87 0 -85 2 -83 0 -81 0 +79 0 -77 2 -75 0 -73 0 -71 0 
+69 0 +68 0 *
Fa
0  1e-07 1 0

0111000
+67 0 *
Ve
1e-07
2 0 0
0 0

0101101
*
Ve
1.5e-07
2 0 2.72727272727273
0 0

0101101
*
Ed
 1e-07 1 1 0
1  10 0 0 2.72727272727273
2  27 12 0 0 2.72727272727273
2  28 2 0 0 2.72727272727273
2  29 13 8 0 2.72727272727273
2  30 13 4 0 2.72727272727273
2  31 13 9 0 2.72727272727273
2  32 13 2 0 2.72727272727273
0

0101000
+65 0 -64 0 *
Ed
 1.5e-07 1 1 0
1  11 0 0 2
2  33 13 2 0 2
2  34 4 0 0 2
2  35 2 0 0 2
0

0101000
+90 0 -64 0 *
Ed
 1e-07 1 1 0
1  12 0 0 2
2  36 2 0 0 2
2  37 11 0 0 2
0

0101000
-65 0 +91 0 *
Wi

0101100
-63 0 +62 0 +89 0 -61 0 *
Fa
0  1e-07 2 0

0111000
+60 0 *
Ve
1.5e-07
2 2 2.72727272727273
0 0

0101101
*
Ed
 1.5e-07 1 1 0
1  13 0 0 2
2  38 5 2 0 2
2  39 4 0 0 2
0

0101000
+88 0 -58 0 *
Ed
 1.5e-07 1 1 0
1  14 0 -2 0
2  40 12 0 -2 0
2  41 4 0 -2 0
0

0101000
+58 0 -64 0 *
Wi

0101100
-57 0 -56 0 +62 0 +87 0 *
Fa
0  1e-07 4 0

0111000
+55 0 *
Ve
1.5e-07
2 2 3.63636363636364
0 0

0101101
*
Ed
 1.5e-07 1 1 0
1  15 0 -3.63636363636364 -2.72727272727273
2  42 5 2 -3.63636363636364 -2.72727272727273
2  43 12 0 -3.63636363636364 -2.72727272727273
0

0101000
+53 0 -58 0 *
Ed
 1.5e-07 1 1 0
1  16 0 0 2
2  44 5 2 0 2
2  45 6 0 0 2
0

0101000
+86 0 -53 0 *
Wi

0101100
-57 0 +52 0 +51 0 +85 2 *
Fa
0  1e-07 5 2

0111000
+50 0 *
Ve
1.5e-07
2 0 3.63636363636364
0 0

0101101
*
Ed
 1.5e-07 1 1 0
1  17 0 -2 0
2  46 12 0 -2 0
2  47 6 0 -2 0
0

0101000
+53 0 -48 0 *
Ed
 1.5e-07 1 1 0
1  18 0 0 2
2  48 13 2 0 2
2  49 6 0 0 2
2  50 2 0 0 2
0

0101000
+84 0 -48 0 *
Wi

0101100
-51 0 -47 0 +46 0 +83 0 *
Fa
0  1e-07 6 0

0111000
+45 0 *
Ve
1.5e-07
2 0 6.36363636363636
0 0

0101101
*
Ed
 1e-07 1 1 0
1  10 0 3.63636363636364 6.36363636363636
2  27 12 0 3.63636363636364 6.36363636363636
2  28 2 0 3.63636363636364 6.36363636363636
2  29 13 8 3.63636363636364 6.36363636363636
2  30 13 4 3.63636363636364 6.36363636363636
2  31 13 9 3.63636363636364 6.36363636363636
2  32 13 2 3.63636363636364 6.36363636363636
0

0101000
+48 0 -43 0 *
Ed
 1.5e-07 1 1 0
1  19 0 0 2
2  51 13 2 0 2
2  52 7 0 0 2
2  53 2 0 0 2
0

0101000
+82 0 -43 0 *
Wi

0101100
-42 0 +41 0 +81 0 -46 0 *
Fa
0  1e-07 2 0

0111000
+40 0 *
Ve
1.5e-07
2 2 6.36363636363636
0 0

0101101
*
Ed
 1.5e-07 1 1 0
1  20 0 0 2
2  54 5 2 0 2
2  55 7 0 0 2
0

0101000
+80 0 -38 0 *
Ed
 1.5e-07 1 1 0
1  21 0 -2 0
2  56 12 0 -2 0
2  57 7 0 -2 0
0

0101000
+38 0 -43 0 *
Wi

0101100
-37 0 -36 0 +41 0 +79 0 *
Fa
0  1e-07 7 0

0111000
+35 0 *
Ve
1.5e-07
2 2 7.27272727272727
0 0

0101101
*
Ed
 1.5e-07 1 1 0
1  15 0 -7.27272727272727 -6.36363636363636
2  42 5 2 -7.27272727272727 -6.36363636363636
2  43 12 0 -7.27272727272727 -6.36363636363636
0

0101000
+33 0 -38 0 *
Ed
 1.5e-07 1 1 0
1  22 0 0 2
2  58 5 2 0 2
2  59 8 0 0 2
0

0101000
+78 0 -33 0 *
Wi

0101100
-37 0 +32 0 +31 0 +77 2 *
Fa
0  1e-07 5 2

0111000
+30 0 *
Ve
1.5e-07
2 0 7.27272727272727
0 0

0101101
*
Ed
 1.5e-07 1 1 0
1  23 0 -2 0
2  60 12 0 -2 0
2  61 8 0 -2 0
0

0101000
+33 0 -28 0 *
Ed
 1.5e-07 1 1 0
1  24 0 0 2
2  62 13 2 0 2
2  63 8 0 0 2
2  64 2 0 0 2
0

0101000
+76 0 -28 0 *
Wi

0101100
-31 0 -27 0 +26 0 +75 0 *
Fa
0  1e-07 8 0

0111000
+25 0 *
Ve
1e-07
2 0 10
0 0

0101101
*
Ed
 1e-07 1 1 0
1  10 0 7.27272727272727 10
2  27 12 0 7.27272727272727 10
2  28 2 0 7.27272727272727 10
2  29 13 8 7.27272727272727 10
2  30 13 4 7.27272727272727 10
2  31 13 9 7.27272727272727 10
2  32 13 2 7.27272727272727 10
0

0101000
+28 0 -23 0 *
Ed
 1e-07 1 1 0
1  25 0 0 2
2  65 2 0 0 2
2  66 9 0 0 2
0

0101000
-23 0 +74 0 *
Wi

0101100
-22 0 +21 0 +73 0 -26 0 *
Fa
0  1e-07 2 0

0111000
+20 0 *
Ve
1e-07
2 10 10
0 0

0101101
*
Ed
 1e-07 1 1 0
1  26 0 0 2
2  67 10 0 0 2
2  68 9 0 0 2
0

0101000
-18 0 +72 0 *
Ed
 1e-07 1 1 0
1  27 0 0 10
2  69 12 0 0 10
2  70 9 0 0 10
0

0101000
-18 0 +23 0 *
Wi

0101100
-71 0 -17 0 +16 0 +21 0 *
Fa
0  1e-07 9 0

0111000
+15 0 *
Ve
1e-07
2 10 0
0 0

0101101
*
Ed
 1e-07 1 1 0
1  28 0 0 2
2  71 10 0 0 2
2  72 11 0 0 2
0

0101000
-13 0 +70 0 *
Ed
 1e-07 1 1 0
1  29 0 0 10
2  73 12 0 0 10
2  74 10 0 0 10
0

0101000
-18 0 +13 0 *
Wi

0101100
-12 0 -11 0 +17 0 +69 0 *
Fa
0  1e-07 10 0

0111000
+10 0 *
Ed
 1e-07 1 1 0
1  30 0 0 10
2  75 12 0 0 10
2  76 11 0 0 10
0

0101000
-13 0 +65 0 *
Wi

0101100
-68 0 -12 0 +8 0 +61 0 *
Fa
0  1e-07 11 0

0111000
+7 0 *
Wi

0101100
-63 0 +56 0 +52 0 -47 0 -42 0 +36 0 +32 0 -27 0 -22 0 -16 0 
+11 0 +8 0 *
Fa
0  1e-07 12 0

0111000
+5 0 *
Sh

0101100
-66 0 -59 0 +54 0 -49 0 -44 0 -39 0 +34 0 -29 0 -24 0 -19 0 
+14 0 +9 0 -6 0 +4 0 *
So

0100000
+3 0 *
Co

1100000
+2 0 *

+1 1  