
CASCADE Topology V1, (c) Matra-Datavision
Locations 5
1
              1               0               0              -5 
              0               1               0              -5 
              0               0               1              -5 
1
              1               0               0               0 
              0               1               0               0 
              0               0               1               0 
1
              1               0               0               0 
              0               1               0               0 
              0               0               1               0 
2  2 -1 0
2  3 -1 0
Curve2ds 74
1 0 0 1 0 
1 0 0 1 0 
8 -2 0
1 4.4444444444444446 0 0 1 
8 -2 0
1 0 0 0 -1 
1 4.4444444444444446 0 0 1 
1 0 -2 1 0 
1 0 0 1 0 
1 0 -2 1 0 
1 0 -2 1 0 
8 -2 0
1 5.5555555555555554 0 0 1 
8 -2 0
1 0 0 0 -1 
1 5.5555555555555554 0 0 1 
8 -2 0
1 8.8888888888888893 0 0 1 
8 -2 0
1 0 0 0 -1 
1 8.8888888888888893 0 0 1 
1 10 0 0 -1 
1 0 0 0 1 
1 0 -10 1 0 
1 0 0 1 0 
1 0 0 0 -1 
1 0 0 0 1 
8 -2 0
1 1.1111111111111107 0 0 1 
8 -2 0
1 0 0 0 -1 
1 1.1111111111111107 0 0 1 
8 0 2
1 1.1111111111111107 0 0 1 
8 0 2
1 0 0 1 0 
1 1.1111111111111107 0 0 1 
1 0 0 1 0 
1 0 2 1 0 
1 0 2 1 0 
1 0 2 1 0 
8 0 2
1 4.4444444444444446 0 0 1 
8 0 2
1 0 0 1 0 
1 4.4444444444444446 0 0 1 
8 0 2
1 4.4444444444444446 0 0 1 
8 0 2
1 0 2 1 0 
8 -2 0
1 4.4444444444444446 0 0 1 
8 -2 0
1 2 0 0 -1 
8 -10 0
1 0 2 -1 0 
8 -10 0
1 0 -2 -1 -0 
8 0 2
1 5.5555555555555554 0 0 1 
8 0 2
1 0 2 1 0 
8 -2 0
1 5.5555555555555554 0 0 1 
8 -2 0
1 2 0 0 -1 
8 0 2
1 5.5555555555555554 0 0 1 
8 0 2
1 0 0 1 0 
1 5.5555555555555554 0 0 1 
8 0 2
1 8.8888888888888893 0 0 1 
8 0 2
1 0 0 1 0 
1 8.8888888888888893 0 0 1 
8 0 2
1 8.8888888888888893 0 0 1 
8 0 2
1 0 2 1 0 
8 -2 0
1 8.8888888888888893 0 0 1 
8 -2 0
1 2 0 0 -1 
1 10 0 0 1 
1 0 2 1 0 
1 0 2 1 0 
1 10 0 0 1 
1 0 10 1 0 
1 10 0 0 -1 
1 2 0 0 1 
1 0 0 0 1 
1 0 10 1 0 
1 0 -10 1 0 
1 0 2 1 0 
1 0 0 0 -1 
1 2 0 0 1 
1 0 0 0 1 
1 0 2 1 0 
1 0 2 1 0 
8 0 2
1 1.1111111111111107 0 0 1 
8 0 2
1 0 2 1 0 
8 -2 0
1 1.1111111111111107 0 0 1 
8 -2 0
1 2 0 0 -1 
Curves 30
1 0 0 0 0 0 1 
1 0 0 4.4444444444444446 0 -1 0 
1 0 2 0 0 0 1 
1 0 0 5.5555555555555554 0 -1 0 
1 0 0 8.8888888888888893 0 -1 0 
1 0 0 10 -0 1 0 
1 0 10 0 0 0 1 
1 0 0 0 -0 1 0 
1 0 0 1.1111111111111107 0 -1 0 
1 0 0 1.1111111111111107 1 0 0 
1 2 0 0 0 0 1 
1 0 0 4.4444444444444446 1 0 0 
1 0 2 4.4444444444444446 1 0 0 
1 2 0 4.4444444444444446 0 -1 0 
1 2 2 0 -0 0 -1 
1 0 2 5.5555555555555554 1 0 0 
1 2 0 5.5555555555555554 0 -1 0 
1 0 0 5.5555555555555554 1 0 0 
1 0 0 8.8888888888888893 1 0 0 
1 0 2 8.8888888888888893 1 0 0 
1 2 0 8.8888888888888893 0 -1 0 
1 0 2 10 1 0 -0 
1 0 10 10 1 0 -0 
1 2 0 10 -0 1 0 
1 0 10 0 1 0 -0 
1 2 10 0 0 0 1 
1 2 0 0 -0 1 0 
1 0 2 0 1 0 -0 
1 0 2 1.1111111111111107 1 0 0 
1 2 0 1.1111111111111107 0 -1 0 
Polygon3D 0
PolygonOnTriangulations 0
Surfaces 15
1 0 0 0 1 0 -0 0 0 1 0 -1 0 
1 0 0 0 -0 1 0 0 0 1 1 0 -0 
1 0 0 0 1 0 -0 0 0 1 0 -1 0 
1 0 0 4.4444444444444446 0 0 1 1 0 0 0 1 0 
1 0 2 0 -0 1 0 0 0 1 1 0 -0 
1 0 0 5.5555555555555554 0 0 1 1 0 0 0 1 0 
1 0 0 8.8888888888888893 0 0 1 1 0 0 0 1 0 
1 0 0 10 0 0 1 1 0 -0 -0 1 0 
1 0 10 0 -0 1 0 0 0 1 1 0 -0 
1 0 0 0 0 0 1 1 0 -0 -0 1 0 
1 0 0 1.1111111111111107 0 0 1 1 0 0 0 1 0 
1 0 0 0 -0 1 0 0 0 1 1 0 -0 
1 2 0 0 1 0 -0 0 0 1 0 -1 0 
1 0 0 10 0 0 1 1 0 -0 -0 1 0 
1 0 0 0 0 0 1 1 0 -0 -0 1 0 
Triangulations 0

TShapes 91
Ve
1.5e-07
0 0 1.11111111111111
0 0

0101101
*
Ve
1.5e-07
0 0 4.44444444444444
0 0

0101101
*
Ed
 1e-07 1 1 0
1  1 0 1.11111111111111 4.44444444444444
2  1 1 0 1.11111111111111 4.44444444444444
2  2 2 0 1.11111111111111 4.44444444444444
0

0101000
+91 0 -90 0 *
Ve
1.5e-07
0 2 4.44444444444444
0 0

0101101
*
Ed
 1.5e-07 1 1 0
1  2 0 -2 0
2  3 3 2 -2 0
2  4 4 0 -2 0
2  5 1 0 -2 0
0

0101000
+88 0 -90 0 *
Ve
1.5e-07
0 2 5.55555555555556
0 0

0101101
*
Ed
 1e-07 1 1 0
1  3 0 4.44444444444444 5.55555555555556
2  6 3 0 4.44444444444444 5.55555555555556
2  7 5 0 4.44444444444444 5.55555555555556
2  8 1 3 4.44444444444444 5.55555555555556
2  9 1 4 4.44444444444444 5.55555555555556
0

0101000
+88 4 -86 4 *
Ve
1.5e-07
0 0 5.55555555555556
0 0

0101101
*
Ed
 1.5e-07 1 1 0
1  4 0 -2 0
2  10 3 2 -2 0
2  11 6 0 -2 0
2  12 1 0 -2 0
0

0101000
+86 0 -84 0 *
Ve
1.5e-07
0 0 8.88888888888889
0 0

0101101
*
Ed
 1e-07 1 1 0
1  1 0 5.55555555555556 8.88888888888889
2  1 1 0 5.55555555555556 8.88888888888889
2  2 2 0 5.55555555555556 8.88888888888889
0

0101000
+84 0 -82 0 *
Ve
1.5e-07
0 2 8.88888888888889
0 0

0101101
*
Ed
 1.5e-07 1 1 0
1  5 0 -2 0
2  13 3 2 -2 0
2  14 7 0 -2 0
2  15 1 0 -2 0
0

0101000
+80 0 -82 0 *
Ve
1e-07
0 2 10
0 0

0101101
*
Ed
 1e-07 1 1 0
1  3 0 8.88888888888889 10
2  6 3 0 8.88888888888889 10
2  7 5 0 8.88888888888889 10
2  8 1 3 8.88888888888889 10
2  9 1 4 8.88888888888889 10
0

0101000
+80 4 -78 0 *
Ve
1e-07
0 10 10
0 0

0101101
*
Ed
 1e-07 1 1 0
1  6 0 2 10
2  16 1 0 2 10
2  17 8 0 2 10
0

0101000
+78 2 -76 0 *
Ve
1e-07
0 10 0
0 0

0101101
*
Ed
 1e-07 1 1 0
1  7 0 0 10
2  18 1 0 0 10
2  19 9 0 0 10
0

0101000
-76 0 +74 0 *
Ve
1e-07
0 2 0
0 0

0101101
*
Ed
 1e-07 1 1 0
1  8 0 2 10
2  20 1 0 2 10
2  21 10 0 2 10
0

0101000
+72 2 -74 0 *
Ve
1.5e-07
0 2 1.11111111111111
0 0

0101101
*
Ed
 1e-07 1 1 0
1  3 0 0 1.11111111111111
2  6 3 0 0 1.11111111111111
2  7 5 0 0 1.11111111111111
2  8 1 3 0 1.11111111111111
2  9 1 4 0 1.11111111111111
0

0101000
+72 0 -70 4 *
Ed
 1.5e-07 1 1 0
1  9 0 -2 0
2  22 3 2 -2 0
2  23 11 0 -2 0
2  24 1 0 -2 0
0

0101000
+70 0 -91 0 *
Wi

0101100
-89 0 +87 0 -85 2 -83 0 -81 0 +79 0 -77 2 -75 0 +73 0 +71 0 
-69 2 -68 0 *
Fa
0  1e-07 1 0

0111000
+67 0 *
Ve
1.5e-07
2 0 1.11111111111111
0 0

0101101
*
Ed
 1.5e-07 1 1 0
1  10 0 0 2
2  25 12 2 0 2
2  26 11 0 0 2
2  27 2 0 0 2
0

0101000
+91 0 -65 0 *
Ve
1.5e-07
2 0 4.44444444444444
0 0

0101101
*
Ed
 1e-07 1 1 0
1  11 0 1.11111111111111 4.44444444444444
2  28 13 0 1.11111111111111 4.44444444444444
2  29 2 0 1.11111111111111 4.44444444444444
2  30 12 5 1.11111111111111 4.44444444444444
2  31 12 2 1.11111111111111 4.44444444444444
0

0101000
+65 0 -63 0 *
Ed
 1.5e-07 1 1 0
1  12 0 0 2
2  32 12 2 0 2
2  33 4 0 0 2
2  34 2 0 0 2
0

0101000
+90 0 -63 0 *
Wi

0101100
-64 0 -62 0 +61 0 +89 0 *
Fa
0  1e-07 2 0

0111000
+60 0 *
Ve
1.5e-07
2 2 4.44444444444444
0 0

0101101
*
Ed
 1.5e-07 1 1 0
1  13 0 0 2
2  35 5 2 0 2
2  36 4 0 0 2
0

0101000
+88 0 -58 0 *
Ed
 1.5e-07 1 1 0
1  14 0 -2 0
2  37 13 0 -2 0
2  38 4 0 -2 0
0

0101000
+58 0 -63 0 *
Wi

0101100
-57 0 -56 0 +61 0 +87 0 *
Fa
0  1e-07 4 0

0111000
+55 0 *
Ve
1.5e-07
2 2 5.55555555555556
0 0

0101101
*
Ed
 1.5e-07 1 1 0
1  15 0 -5.55555555555556 -4.44444444444444
2  39 5 2 -5.55555555555556 -4.44444444444444
2  40 13 0 -5.55555555555556 -4.44444444444444
0

0101000
+53 0 -58 0 *
Ed
 1.5e-07 1 1 0
1  16 0 0 2
2  41 5 2 0 2
2  42 6 0 0 2
0

0101000
+86 0 -53 0 *
Wi

0101100
-57 0 +52 0 +51 0 +85 2 *
Fa
0  1e-07 5 2

0111000
+50 0 *
Ve
1.5e-07
2 0 5.55555555555556
0 0

0101101
*
Ed
 1.5e-07 1 1 0
1  17 0 -2 0
2  43 13 0 -2 0
2  44 6 0 -2 0
0

0101000
+53 0 -48 0 *
Ed
 1.5e-07 1 1 0
1  18 0 0 2
2  45 12 2 0 2
2  46 6 0 0 2
2  47 2 0 0 2
0

0101000
+84 0 -48 0 *
Wi

0101100
-51 0 -47 0 +46 0 +83 0 *
Fa
0  1e-07 6 0

0111000
+45 0 *
Ve
1.5e-07
2 0 8.88888888888889
0 0

0101101
*
Ed
 1e-07 1 1 0
1  11 0 5.55555555555556 8.88888888888889
2  28 13 0 5.55555555555556 8.88888888888889
2  29 2 0 5.55555555555556 8.88888888888889
2  30 12 5 5.55555555555556 8.88888888888889
2  31 12 2 5.55555555555556 8.88888888888889
0

0101000
+48 0 -43 0 *
Ed
 1.5e-07 1 1 0
1  19 0 0 2
2  48 12 2 0 2
2  49 7 0 0 2
2  50 2 0 0 2
0

0101000
+82 0 -43 0 *
Wi

0101100
-46 0 -42 0 +41 0 +81 0 *
Fa
0  1e-07 2 0

0111000
+40 0 *
Ve
1.5e-07
2 2 8.88888888888889
0 0

0101101
*
Ed
 1.5e-07 1 1 0
1  20 0 0 2
2  51 5 2 0 2
2  52 7 0 0 2
0

0101000
+80 0 -38 0 *
Ed
 1.5e-07 1 1 0
1  21 0 -2 0
2  53 13 0 -2 0
2  54 7 0 -2 0
0

0101000
+38 0 -43 0 *
Wi

0101100
-37 0 -36 0 +41 0 +79 0 *
Fa
0  1e-07 7 0

0111000
+35 0 *
Ve
1.5e-07
2 2 10
0 0

0101101
*
Ed
 1.5e-07 1 1 0
1  15 0 -10 -8.88888888888889
2  39 5 2 -10 -8.88888888888889
2  40 13 0 -10 -8.88888888888889
0

0101000
+33 0 -38 0 *
Ed
 1e-07 1 1 0
1  22 0 0 2
2  55 5 0 0 2
2  56 14 0 0 2
2  57 8 4 0 2
0

0101000
+78 0 -33 4 *
Wi

0101100
-37 0 +32 0 +31 2 +77 2 *
Fa
0  1e-07 5 2

0111000
+30 0 *
Ve
1e-07
2 10 10
0 0

0101101
*
Ed
 1e-07 1 1 0
1  23 0 0 2
2  58 9 0 0 2
2  59 8 0 0 2
0

0101000
-28 0 +76 0 *
Ed
 1e-07 1 1 0
1  24 0 2 10
2  60 13 0 2 10
2  61 8 0 2 10
0

0101000
+33 0 -28 0 *
Wi

0101100
-75 0 -27 0 +26 0 +31 2 *
Fa
0  1e-07 8 0

0111000
+25 0 *
Ve
1e-07
2 10 0
0 0

0101101
*
Ed
 1e-07 1 1 0
1  25 0 0 2
2  62 9 0 0 2
2  63 10 0 0 2
0

0101000
-23 0 +74 0 *
Ed
 1e-07 1 1 0
1  26 0 0 10
2  64 13 0 0 10
2  65 9 0 0 10
0

0101000
-28 0 +23 0 *
Wi

0101100
-22 0 -21 0 +27 0 +73 0 *
Fa
0  1e-07 9 0

0111000
+20 0 *
Ve
1.5e-07
2 2 0
0 0

0101101
*
Ed
 1e-07 1 1 0
1  27 0 2 10
2  66 13 0 2 10
2  67 10 0 2 10
0

0101000
+18 0 -23 0 *
Ed
 1e-07 1 1 0
1  28 0 0 2
2  68 5 0 0 2
2  69 15 0 0 2
2  70 10 4 0 2
0

0101000
+72 0 -18 4 *
Wi

0101100
-71 0 -22 0 +17 0 +16 2 *
Fa
0  1e-07 10 0

0111000
+15 0 *
Ve
1.5e-07
2 2 1.11111111111111
0 0

0101101
*
Ed
 1.5e-07 1 1 0
1  15 0 -1.11111111111111 0
2  39 5 2 -1.11111111111111 0
2  40 13 0 -1.11111111111111 0
0

0101000
+13 0 -18 0 *
Ed
 1.5e-07 1 1 0
1  29 0 0 2
2  71 5 2 0 2
2  72 11 0 0 2
0

0101000
+70 0 -13 0 *
Wi

0101100
-16 2 +12 0 +11 0 +69 2 *
Fa
0  1e-07 5 2

0111000
+10 0 *
Ed
 1.5e-07 1 1 0
1  30 0 -2 0
2  73 13 0 -2 0
2  74 11 0 -2 0
0

0101000
+13 0 -65 0 *
Wi

0101100
-11 0 -8 0 +64 0 +68 0 *
Fa
0  1e-07 11 0

0111000
+7 0 *
Wi

0101100
-62 0 +56 0 +52 0 -47 0 -42 0 +36 0 +32 0 -26 0 +21 0 +17 0 
+12 0 -8 0 *
Fa
0  1e-07 13 0

0111000
+5 0 *
Sh

0101100
-66 0 -59 0 +54 0 -49 0 -44 0 -39 0 +34 0 -29 0 +24 0 +19 0 
-14 0 -9 0 -6 0 +4 0 *
So

0100000
+3 0 *
Co

1100000
+2 0 *

+1 1  