
CASCADE Topology V1, (c) Matra-Datavision
Locations 7
1
              1               0               0              -5 
              0               1               0              -5 
              0               0               1              -5 
1
              1               0               0               0 
              0               1               0               0 
              0               0               1               0 
1
              1               0               0               0 
              0               1               0               0 
              0               0               1               0 
2  3 -1 0
1
              1               0               0               0 
              0               1               0               0 
              0               0               1               0 
2  2 -1 0
2  5 -1 0
Curve2ds 68
1 0 0 1 0 
1 0 0 1 0 
8 -2 0
1 3.6363636363636367 0 0 1 
8 -2 0
1 0 0 0 -1 
1 0 -2 1 0 
1 0 0 1 0 
1 0 -2 1 0 
1 0 -2 1 0 
1 0 -2 1 0 
8 -2 0
1 2.7272727272727266 0 0 1 
8 -2 0
1 0 0 0 -1 
1 0 0 0 1 
1 0 0 1 0 
1 0 0 1 0 
1 0 10 1 0 
1 10 0 0 1 
1 0 0 1 0 
1 0 0 1 0 
1 0 2 1 0 
1 0 2 1 0 
1 0 2 1 0 
1 0 2 1 0 
8 0 2
1 7.2727272727272734 0 0 1 
8 0 2
1 0 0 1 0 
8 0 2
1 6.3636363636363633 0 0 1 
8 0 2
1 0 0 1 0 
8 0 2
1 3.6363636363636367 0 0 1 
8 0 2
1 0 0 1 0 
8 0 2
1 2.7272727272727266 0 0 1 
8 0 2
1 0 0 1 0 
8 0 2
1 3.6363636363636367 0 0 1 
8 0 2
1 0 2 1 0 
8 -2 0
1 3.6363636363636367 0 0 1 
8 -2 0
1 2 0 0 -1 
1 0 0 0 1 
1 0 2 1 0 
1 0 -2 1 0 
1 0 10 1 0 
1 10 0 0 1 
1 0 2 1 0 
8 -10 0
1 0 2 -1 0 
8 -10 0
1 0 -2 -1 0 
8 0 2
1 7.2727272727272734 0 0 1 
8 0 2
1 0 2 1 0 
8 0 2
1 6.3636363636363633 0 0 1 
8 0 2
1 0 2 1 0 
8 0 2
1 2.7272727272727266 0 0 1 
8 0 2
1 0 2 1 0 
8 -2 0
1 2.7272727272727266 0 0 1 
8 -2 0
1 2 0 0 -1 
1 0 0 0 -1 
1 2 0 0 1 
1 2 0 0 1 
1 0 0 0 -1 
1 10 0 0 1 
1 10 0 0 -1 
1 10 0 0 1 
1 10 0 0 -1 
1 2 0 0 1 
1 2 0 0 1 
8 -2 0
1 7.2727272727272734 0 0 1 
8 -2 0
1 2 0 0 -1 
8 -2 0
1 7.2727272727272734 0 0 1 
8 -2 0
1 0 0 0 -1 
8 -2 0
1 6.3636363636363633 0 0 1 
8 -2 0
1 0 0 0 -1 
8 -2 0
1 6.3636363636363633 0 0 1 
8 -2 0
1 2 0 0 -1 
Curves 30
1 0 0 0 0 0 1 
1 0 0 3.6363636363636367 0 -1 0 
1 0 2 0 0 0 1 
1 0 0 2.7272727272727266 0 -1 0 
1 0 0 0 1 0 -0 
1 10 0 0 0 0 1 
1 0 0 10 1 0 -0 
1 2 0 0 0 0 1 
1 0 0 7.2727272727272734 1 0 -0 
1 0 0 6.3636363636363633 1 0 -0 
1 0 0 3.6363636363636367 1 0 -0 
1 0 0 2.7272727272727266 1 0 -0 
1 0 2 3.6363636363636367 1 0 -0 
1 2 0 3.6363636363636367 0 -1 0 
1 0 2 0 1 0 -0 
1 10 2 0 0 0 1 
1 0 2 10 1 0 -0 
1 2 2 0 0 0 -1 
1 0 2 7.2727272727272734 1 0 -0 
1 0 2 6.3636363636363633 1 0 -0 
1 0 2 2.7272727272727266 1 0 -0 
1 2 0 2.7272727272727266 0 -1 0 
1 2 0 0 -0 1 0 
1 10 0 0 -0 1 0 
1 10 0 10 -0 1 0 
1 2 0 10 -0 1 0 
1 2 0 7.2727272727272734 0 -1 0 
1 0 0 7.2727272727272734 0 -1 0 
1 0 0 6.3636363636363633 0 -1 0 
1 2 0 6.3636363636363633 0 -1 0 
Polygon3D 0
PolygonOnTriangulations 0
Surfaces 15
1 0 0 0 1 0 -0 0 0 1 0 -1 0 
1 0 0 0 -0 1 0 0 0 1 1 0 -0 
1 0 0 3.6363636363636367 0 0 1 1 0 -0 -0 1 0 
1 0 2 0 -0 1 0 0 0 1 1 0 -0 
1 0 0 0 1 0 -0 0 0 1 0 -1 0 
1 0 0 2.7272727272727266 0 0 1 1 0 -0 -0 1 0 
1 0 0 0 0 0 1 1 0 -0 -0 1 0 
1 10 0 0 1 0 -0 0 0 1 0 -1 0 
1 0 0 10 0 0 1 1 0 -0 -0 1 0 
1 2 0 0 1 0 -0 0 0 1 0 -1 0 
1 0 0 0 -0 1 0 0 0 1 1 0 -0 
1 0 0 7.2727272727272734 0 0 1 1 0 -0 -0 1 0 
1 0 0 6.3636363636363633 0 0 1 1 0 -0 -0 1 0 
1 0 0 0 0 0 1 1 0 -0 -0 1 0 
1 0 0 10 0 0 1 1 0 -0 -0 1 0 
Triangulations 0

TShapes 91
Ve
1.5e-07
0 0 2.72727272727273
0 0

0101101
*
Ve
1.5e-07
0 0 3.63636363636364
0 0

0101101
*
Ed
 1e-07 1 1 0
1  1 0 2.72727272727273 3.63636363636364
2  1 1 0 2.72727272727273 3.63636363636364
2  2 2 0 2.72727272727273 3.63636363636364
0

0101000
+91 0 -90 0 *
Ve
1.5e-07
0 2 3.63636363636364
0 0

0101101
*
Ed
 1.5e-07 1 1 0
1  2 0 -2 0
2  3 1 0 -2 0
2  4 3 0 -2 0
0

0101000
+88 0 -90 0 *
Ve
1.5e-07
0 2 2.72727272727273
0 0

0101101
*
Ed
 1e-07 1 1 0
1  3 0 2.72727272727273 3.63636363636364
2  5 1 0 2.72727272727273 3.63636363636364
2  6 4 0 2.72727272727273 3.63636363636364
2  7 5 2 2.72727272727273 3.63636363636364
2  8 5 4 2.72727272727273 3.63636363636364
2  9 5 5 2.72727272727273 3.63636363636364
0

0101000
+86 0 -88 0 *
Ed
 1.5e-07 1 1 0
1  4 0 -2 0
2  10 1 0 -2 0
2  11 6 0 -2 0
0

0101000
+86 0 -91 0 *
Wi

0101100
-89 0 +87 0 +85 0 -84 0 *
Fa
0  1e-07 1 0

0111000
+83 0 *
Ve
1e-07
2 0 0
0 0

0101101
*
Ve
1e-07
10 0 0
0 0

0101101
*
Ed
 1e-07 1 1 0
1  5 0 2 10
2  12 2 0 2 10
2  13 7 0 2 10
0

0101000
+81 5 -80 0 *
Ve
1e-07
10 0 10
0 0

0101101
*
Ed
 1e-07 1 1 0
1  6 0 0 10
2  14 8 0 0 10
2  15 2 0 0 10
0

0101000
-78 0 +80 0 *
Ve
1e-07
2 0 10
0 0

0101101
*
Ed
 1e-07 1 1 0
1  7 0 2 10
2  16 2 0 2 10
2  17 9 0 2 10
0

0101000
+76 5 -78 0 *
Ve
1.5e-07
2 0 7.27272727272727
0 0

0101101
*
Ed
 1e-07 1 1 0
1  8 0 7.27272727272727 10
2  18 10 0 7.27272727272727 10
2  19 11 0 7.27272727272727 10
2  20 2 6 7.27272727272727 10
2  21 2 3 7.27272727272727 10
2  22 2 7 7.27272727272727 10
0

0101000
+74 7 -76 0 *
Ve
1.5e-07
0 0 7.27272727272727
0 0

0101101
*
Ed
 1.5e-07 1 1 0
1  9 0 0 2
2  23 2 0 0 2
2  24 12 0 0 2
0

0101000
+72 0 -74 0 *
Ve
1.5e-07
0 0 6.36363636363636
0 0

0101101
*
Ed
 1e-07 1 1 0
1  1 0 6.36363636363636 7.27272727272727
2  1 1 0 6.36363636363636 7.27272727272727
2  2 2 0 6.36363636363636 7.27272727272727
0

0101000
+70 0 -72 0 *
Ve
1.5e-07
2 0 6.36363636363636
0 0

0101101
*
Ed
 1.5e-07 1 1 0
1  10 0 0 2
2  25 2 0 0 2
2  26 13 0 0 2
0

0101000
+70 0 -68 0 *
Ve
1.5e-07
2 0 3.63636363636364
0 0

0101101
*
Ed
 1e-07 1 1 0
1  8 0 3.63636363636364 6.36363636363636
2  18 10 0 3.63636363636364 6.36363636363636
2  19 11 0 3.63636363636364 6.36363636363636
2  20 2 6 3.63636363636364 6.36363636363636
2  21 2 3 3.63636363636364 6.36363636363636
2  22 2 7 3.63636363636364 6.36363636363636
0

0101000
+66 7 -68 7 *
Ed
 1.5e-07 1 1 0
1  11 0 0 2
2  27 2 0 0 2
2  28 3 0 0 2
0

0101000
+90 0 -66 0 *
Ve
1.5e-07
2 0 2.72727272727273
0 0

0101101
*
Ed
 1.5e-07 1 1 0
1  12 0 0 2
2  29 2 0 0 2
2  30 6 0 0 2
0

0101000
+91 0 -63 0 *
Ed
 1e-07 1 1 0
1  8 0 0 2.72727272727273
2  18 10 0 0 2.72727272727273
2  19 11 0 0 2.72727272727273
2  20 2 6 0 2.72727272727273
2  21 2 3 0 2.72727272727273
2  22 2 7 0 2.72727272727273
0

0101000
+81 0 -63 7 *
Wi

0101100
-79 0 -77 0 +75 0 +73 5 +71 0 +69 0 -67 0 +65 5 +64 0 +89 0 
-62 0 +61 5 *
Fa
0  1e-07 2 0

0111000
+60 0 *
Ve
1.5e-07
2 2 3.63636363636364
0 0

0101101
*
Ed
 1.5e-07 1 1 0
1  13 0 0 2
2  31 4 0 0 2
2  32 3 0 0 2
0

0101000
+88 0 -58 0 *
Ed
 1.5e-07 1 1 0
1  14 0 -2 0
2  33 10 5 -2 0
2  34 3 0 -2 0
0

0101000
+58 0 -66 0 *
Wi

0101100
-57 0 -56 0 +64 0 +87 0 *
Fa
0  1e-07 3 0

0111000
+55 0 *
Ve
1.5e-07
2 2 0
0 0

0101101
*
Ve
1e-07
10 2 0
0 0

0101101
*
Ed
 1e-07 1 1 0
1  15 0 2 10
2  35 4 0 2 10
2  36 7 0 2 10
0

0101000
+53 0 -52 0 *
Ve
1e-07
10 2 10
0 0

0101101
*
Ed
 1e-07 1 1 0
1  16 0 0 10
2  37 8 0 0 10
2  38 4 0 0 10
0

0101000
-50 0 +52 0 *
Ve
1.5e-07
2 2 10
0 0

0101101
*
Ed
 1e-07 1 1 0
1  17 0 2 10
2  39 4 0 2 10
2  40 9 0 2 10
0

0101000
+48 0 -50 0 *
Ve
1.5e-07
2 2 7.27272727272727
0 0

0101101
*
Ed
 1.5e-07 1 1 0
1  18 0 -10 -7.27272727272727
2  41 4 0 -10 -7.27272727272727
2  42 10 5 -10 -7.27272727272727
0

0101000
+48 0 -46 0 *
Ve
1.5e-07
0 2 7.27272727272727
0 0

0101101
*
Ed
 1.5e-07 1 1 0
1  19 0 0 2
2  43 4 0 0 2
2  44 12 0 0 2
0

0101000
+44 0 -46 0 *
Ve
1.5e-07
0 2 6.36363636363636
0 0

0101101
*
Ed
 1e-07 1 1 0
1  3 0 6.36363636363636 7.27272727272727
2  5 1 0 6.36363636363636 7.27272727272727
2  6 4 0 6.36363636363636 7.27272727272727
2  7 5 2 6.36363636363636 7.27272727272727
2  8 5 4 6.36363636363636 7.27272727272727
2  9 5 5 6.36363636363636 7.27272727272727
0

0101000
+42 0 -44 0 *
Ve
1.5e-07
2 2 6.36363636363636
0 0

0101101
*
Ed
 1.5e-07 1 1 0
1  20 0 0 2
2  45 4 0 0 2
2  46 13 0 0 2
0

0101000
+42 0 -40 0 *
Ed
 1.5e-07 1 1 0
1  18 0 -6.36363636363636 -3.63636363636364
2  41 4 0 -6.36363636363636 -3.63636363636364
2  42 10 5 -6.36363636363636 -3.63636363636364
0

0101000
+40 0 -58 0 *
Ve
1.5e-07
2 2 2.72727272727273
0 0

0101101
*
Ed
 1.5e-07 1 1 0
1  21 0 0 2
2  47 4 0 0 2
2  48 6 0 0 2
0

0101000
+86 0 -37 0 *
Ed
 1.5e-07 1 1 0
1  18 0 -2.72727272727273 0
2  41 4 0 -2.72727272727273 0
2  42 10 5 -2.72727272727273 0
0

0101000
+37 0 -53 0 *
Wi

0101100
-51 0 -49 0 +47 0 -45 0 +43 0 +41 0 -39 0 -38 0 +57 0 +85 0 
-36 0 -35 0 *
Fa
0  1e-07 4 0

0111000
+34 0 *
Ed
 1.5e-07 1 1 0
1  22 0 -2 0
2  49 10 5 -2 0
2  50 6 0 -2 0
0

0101000
+37 0 -63 0 *
Wi

0101100
-36 0 -32 0 +62 0 +84 0 *
Fa
0  1e-07 6 0

0111000
+31 0 *
Ed
 1e-07 1 1 0
1  23 0 0 2
2  51 10 0 0 2
2  52 14 0 0 2
2  53 7 7 0 2
0

0101000
+81 0 -53 7 *
Ed
 1e-07 1 1 0
1  24 0 0 2
2  54 8 0 0 2
2  55 7 0 0 2
0

0101000
-52 0 +80 0 *
Wi

0101100
-29 5 -51 0 +28 0 +79 0 *
Fa
0  1e-07 7 0

0111000
+27 0 *
Ed
 1e-07 1 1 0
1  25 0 0 2
2  56 8 0 0 2
2  57 9 0 0 2
0

0101000
-50 0 +78 0 *
Wi

0101100
-77 0 -25 0 +49 0 +28 0 *
Fa
0  1e-07 8 0

0111000
+24 0 *
Ed
 1e-07 1 1 0
1  26 0 0 2
2  58 10 0 0 2
2  59 15 0 0 2
2  60 9 7 0 2
0

0101000
+76 0 -48 7 *
Wi

0101100
-22 5 -47 0 +25 0 +75 0 *
Fa
0  1e-07 9 0

0111000
+21 0 *
Ed
 1.5e-07 1 1 0
1  27 0 -2 0
2  61 10 5 -2 0
2  62 12 0 -2 0
0

0101000
+46 0 -74 0 *
Wi

0101100
-22 5 -45 0 -19 0 -73 5 *
Fa
0  1e-07 10 5

0111000
+18 0 *
Ed
 1.5e-07 1 1 0
1  28 0 -2 0
2  63 1 0 -2 0
2  64 12 0 -2 0
0

0101000
+44 0 -72 0 *
Wi

0101100
-43 0 -19 0 +71 0 +16 0 *
Fa
0  1e-07 12 0

0111000
+15 0 *
Ed
 1.5e-07 1 1 0
1  29 0 -2 0
2  65 1 0 -2 0
2  66 13 0 -2 0
0

0101000
+42 0 -70 0 *
Wi

0101100
-69 0 +16 0 +41 0 -13 0 *
Fa
0  1e-07 1 0

0111000
+12 0 *
Ed
 1.5e-07 1 1 0
1  30 0 -2 0
2  67 10 5 -2 0
2  68 13 0 -2 0
0

0101000
+40 0 -68 0 *
Wi

0101100
-39 0 -10 0 +67 0 +13 0 *
Fa
0  1e-07 13 0

0111000
+9 0 *
Wi

0101100
+10 0 -38 0 -56 0 -65 5 *
Fa
0  1e-07 10 5

0111000
+7 0 *
Wi

0101100
+32 0 -35 0 +29 5 -61 5 *
Fa
0  1e-07 10 5

0111000
+5 0 *
Sh

0101100
-82 0 -59 0 +54 0 +33 0 -30 0 -26 0 +23 0 +20 0 -17 0 +14 0 
-11 0 -8 0 -6 0 -4 0 *
So

0100000
+3 0 *
Co

1100000
+2 0 *

+1 1  