
CASCADE Topology V1, (c) Matra-Datavision
Locations 3
1
              1               0               0              -5 
              0               1               0              -5 
              0               0               1              -5 
1
              1               0               0               0 
              0               1               0               0 
              0               0               1               0 
2  2 -1 0
Curve2ds 62
1 0 0 1 0 
1 0 0 1 0 
8 -2 0
1 1.1111111111111107 0 0 1 
8 -2 0
1 0 0 0 -1 
1 0 -2 1 0 
1 0 0 1 0 
1 0 -2 1 0 
1 0 0 0 -1 
1 0 0 0 1 
1 0 0 1 0 
1 0 10 1 0 
1 10 0 0 1 
1 0 0 1 0 
8 0 2
1 8.8888888888888893 0 0 1 
8 0 2
1 0 0 1 0 
1 0 0 1 0 
1 0 2 1 0 
1 0 2 1 0 
8 0 2
1 5.5555555555555554 0 0 1 
8 0 2
1 0 0 1 0 
8 0 2
1 4.4444444444444446 0 0 1 
8 0 2
1 0 0 1 0 
8 0 2
1 1.1111111111111107 0 0 1 
8 0 2
1 0 0 1 0 
1 0 0 0 1 
1 0 0 1 0 
8 0 2
1 1.1111111111111107 0 0 1 
8 0 2
1 0 2 1 0 
8 -2 0
1 1.1111111111111107 0 0 1 
8 -2 0
1 2 0 0 -1 
1 0 -2 1 0 
1 0 10 1 0 
1 10 0 0 1 
1 0 2 1 0 
8 0 2
1 8.8888888888888893 0 0 1 
8 0 2
1 0 2 1 0 
8 -10 0
1 0 2 -1 0 
8 -10 0
1 0 -2 -1 0 
8 0 2
1 5.5555555555555554 0 0 1 
8 0 2
1 0 2 1 0 
8 0 2
1 4.4444444444444446 0 0 1 
8 0 2
1 0 2 1 0 
1 0 0 0 1 
1 0 2 1 0 
1 0 0 0 -1 
1 10 0 0 1 
1 10 0 0 -1 
1 10 0 0 1 
1 10 0 0 -1 
1 0 0 0 1 
8 -2 0
1 8.8888888888888893 0 0 1 
8 -2 0
1 0 0 0 -1 
8 -2 0
1 8.8888888888888893 0 0 1 
8 -2 0
1 2 0 0 -1 
8 -2 0
1 5.5555555555555554 0 0 1 
8 -2 0
1 2 0 0 -1 
8 -2 0
1 5.5555555555555554 0 0 1 
8 -2 0
1 0 0 0 -1 
8 -2 0
1 4.4444444444444446 0 0 1 
8 -2 0
1 0 0 0 -1 
8 -2 0
1 4.4444444444444446 0 0 1 
8 -2 0
1 2 0 0 -1 
Curves 30
1 0 0 0 0 0 1 
1 0 0 1.1111111111111107 0 -1 0 
1 0 2 0 0 0 1 
1 0 0 0 -0 1 0 
1 10 0 0 0 0 1 
1 0 0 10 1 0 -0 
1 0 0 8.8888888888888893 1 0 -0 
1 2 0 0 0 0 1 
1 0 0 5.5555555555555554 1 0 -0 
1 0 0 4.4444444444444446 1 0 -0 
1 0 0 1.1111111111111107 1 0 -0 
1 0 0 0 1 0 -0 
1 0 2 1.1111111111111107 1 0 -0 
1 2 0 1.1111111111111107 0 -1 0 
1 10 2 0 0 0 1 
1 0 2 10 1 0 -0 
1 0 2 8.8888888888888893 1 0 -0 
1 2 2 0 0 0 -1 
1 0 2 5.5555555555555554 1 0 -0 
1 0 2 4.4444444444444446 1 0 -0 
1 0 2 0 1 0 -0 
1 10 0 0 -0 1 0 
1 10 0 10 -0 1 0 
1 0 0 10 -0 1 0 
1 0 0 8.8888888888888893 0 -1 0 
1 2 0 8.8888888888888893 0 -1 0 
1 2 0 5.5555555555555554 0 -1 0 
1 0 0 5.5555555555555554 0 -1 0 
1 0 0 4.4444444444444446 0 -1 0 
1 2 0 4.4444444444444446 0 -1 0 
Polygon3D 0
PolygonOnTriangulations 0
Surfaces 13
1 0 0 0 1 0 -0 0 0 1 0 -1 0 
1 0 0 0 -0 1 0 0 0 1 1 0 -0 
1 0 0 1.1111111111111107 0 0 1 1 0 -0 -0 1 0 
1 0 2 0 -0 1 0 0 0 1 1 0 -0 
1 0 0 0 1 0 -0 0 0 1 0 -1 0 
1 0 0 0 0 0 1 1 0 -0 -0 1 0 
1 10 0 0 1 0 -0 0 0 1 0 -1 0 
1 0 0 10 0 0 1 1 0 -0 -0 1 0 
1 0 0 8.8888888888888893 0 0 1 1 0 -0 -0 1 0 
1 2 0 0 1 0 -0 0 0 1 0 -1 0 
1 0 0 0 -0 1 0 0 0 1 1 0 -0 
1 0 0 5.5555555555555554 0 0 1 1 0 -0 -0 1 0 
1 0 0 4.4444444444444446 0 0 1 1 0 -0 -0 1 0 
Triangulations 0

TShapes 91
Ve
1e-07
0 0 0
0 0

0101101
*
Ve
1.5e-07
0 0 1.11111111111111
0 0

0101101
*
Ed
 1e-07 1 1 0
1  1 0 0 1.11111111111111
2  1 1 0 0 1.11111111111111
2  2 2 0 0 1.11111111111111
0

0101000
+91 0 -90 0 *
Ve
1.5e-07
0 2 1.11111111111111
0 0

0101101
*
Ed
 1.5e-07 1 1 0
1  2 0 -2 0
2  3 1 0 -2 0
2  4 3 0 -2 0
0

0101000
+88 0 -90 0 *
Ve
1e-07
0 2 0
0 0

0101101
*
Ed
 1e-07 1 1 0
1  3 0 0 1.11111111111111
2  5 1 0 0 1.11111111111111
2  6 4 0 0 1.11111111111111
2  7 5 2 0 1.11111111111111
0

0101000
+86 0 -88 0 *
Ed
 1e-07 1 1 0
1  4 0 0 2
2  8 1 0 0 2
2  9 6 0 0 2
0

0101000
-86 0 +91 0 *
Wi

0101100
-89 0 +87 0 +85 0 +84 0 *
Fa
0  1e-07 1 0

0111000
+83 0 *
Ve
1e-07
10 0 10
0 0

0101101
*
Ve
1e-07
10 0 0
0 0

0101101
*
Ed
 1e-07 1 1 0
1  5 0 0 10
2  10 7 0 0 10
2  11 2 0 0 10
0

0101000
-81 0 +80 0 *
Ve
1e-07
0 0 10
0 0

0101101
*
Ed
 1e-07 1 1 0
1  6 0 0 10
2  12 2 0 0 10
2  13 8 0 0 10
0

0101000
-81 0 +78 0 *
Ve
1.5e-07
0 0 8.88888888888889
0 0

0101101
*
Ed
 1e-07 1 1 0
1  1 0 8.88888888888889 10
2  1 1 0 8.88888888888889 10
2  2 2 0 8.88888888888889 10
0

0101000
+76 0 -78 0 *
Ve
1.5e-07
2 0 8.88888888888889
0 0

0101101
*
Ed
 1.5e-07 1 1 0
1  7 0 0 2
2  14 2 0 0 2
2  15 9 0 0 2
0

0101000
+76 0 -74 0 *
Ve
1.5e-07
2 0 5.55555555555556
0 0

0101101
*
Ed
 1e-07 1 1 0
1  8 0 5.55555555555556 8.88888888888889
2  16 10 0 5.55555555555556 8.88888888888889
2  17 11 0 5.55555555555556 8.88888888888889
2  18 2 3 5.55555555555556 8.88888888888889
0

0101000
+72 3 -74 3 *
Ve
1.5e-07
0 0 5.55555555555556
0 0

0101101
*
Ed
 1.5e-07 1 1 0
1  9 0 0 2
2  19 2 0 0 2
2  20 12 0 0 2
0

0101000
+70 0 -72 0 *
Ve
1.5e-07
0 0 4.44444444444444
0 0

0101101
*
Ed
 1e-07 1 1 0
1  1 0 4.44444444444444 5.55555555555556
2  1 1 0 4.44444444444444 5.55555555555556
2  2 2 0 4.44444444444444 5.55555555555556
0

0101000
+68 0 -70 0 *
Ve
1.5e-07
2 0 4.44444444444444
0 0

0101101
*
Ed
 1.5e-07 1 1 0
1  10 0 0 2
2  21 2 0 0 2
2  22 13 0 0 2
0

0101000
+68 0 -66 0 *
Ve
1.5e-07
2 0 1.11111111111111
0 0

0101101
*
Ed
 1e-07 1 1 0
1  8 0 1.11111111111111 4.44444444444444
2  16 10 0 1.11111111111111 4.44444444444444
2  17 11 0 1.11111111111111 4.44444444444444
2  18 2 3 1.11111111111111 4.44444444444444
0

0101000
+64 3 -66 3 *
Ed
 1.5e-07 1 1 0
1  11 0 0 2
2  23 2 0 0 2
2  24 3 0 0 2
0

0101000
+90 0 -64 0 *
Ed
 1e-07 1 1 0
1  12 0 0 10
2  25 2 0 0 10
2  26 6 0 0 10
0

0101000
-80 0 +91 0 *
Wi

0101100
-79 0 +77 0 +75 0 -73 0 +71 2 +69 0 +67 0 -65 0 +63 2 +62 0 
+89 0 -61 0 *
Fa
0  1e-07 2 0

0111000
+60 0 *
Ve
1.5e-07
2 2 1.11111111111111
0 0

0101101
*
Ed
 1.5e-07 1 1 0
1  13 0 0 2
2  27 4 0 0 2
2  28 3 0 0 2
0

0101000
+88 0 -58 0 *
Ed
 1.5e-07 1 1 0
1  14 0 -2 0
2  29 10 2 -2 0
2  30 3 0 -2 0
0

0101000
+58 0 -64 0 *
Wi

0101100
-57 0 -56 0 +62 0 +87 0 *
Fa
0  1e-07 3 0

0111000
+55 0 *
Ve
1e-07
10 2 10
0 0

0101101
*
Ve
1e-07
10 2 0
0 0

0101101
*
Ed
 1e-07 1 1 0
1  15 0 0 10
2  31 7 0 0 10
2  32 4 0 0 10
0

0101000
-53 0 +52 0 *
Ve
1e-07
0 2 10
0 0

0101101
*
Ed
 1e-07 1 1 0
1  16 0 0 10
2  33 4 0 0 10
2  34 8 0 0 10
0

0101000
-53 0 +50 0 *
Ve
1.5e-07
0 2 8.88888888888889
0 0

0101101
*
Ed
 1e-07 1 1 0
1  3 0 8.88888888888889 10
2  5 1 0 8.88888888888889 10
2  6 4 0 8.88888888888889 10
2  7 5 2 8.88888888888889 10
0

0101000
+48 0 -50 0 *
Ve
1.5e-07
2 2 8.88888888888889
0 0

0101101
*
Ed
 1.5e-07 1 1 0
1  17 0 0 2
2  35 4 0 0 2
2  36 9 0 0 2
0

0101000
+48 0 -46 0 *
Ve
1.5e-07
2 2 5.55555555555556
0 0

0101101
*
Ed
 1.5e-07 1 1 0
1  18 0 -8.88888888888889 -5.55555555555556
2  37 4 0 -8.88888888888889 -5.55555555555556
2  38 10 2 -8.88888888888889 -5.55555555555556
0

0101000
+46 0 -44 0 *
Ve
1.5e-07
0 2 5.55555555555556
0 0

0101101
*
Ed
 1.5e-07 1 1 0
1  19 0 0 2
2  39 4 0 0 2
2  40 12 0 0 2
0

0101000
+42 0 -44 0 *
Ve
1.5e-07
0 2 4.44444444444444
0 0

0101101
*
Ed
 1e-07 1 1 0
1  3 0 4.44444444444444 5.55555555555556
2  5 1 0 4.44444444444444 5.55555555555556
2  6 4 0 4.44444444444444 5.55555555555556
2  7 5 2 4.44444444444444 5.55555555555556
0

0101000
+40 0 -42 0 *
Ve
1.5e-07
2 2 4.44444444444444
0 0

0101101
*
Ed
 1.5e-07 1 1 0
1  20 0 0 2
2  41 4 0 0 2
2  42 13 0 0 2
0

0101000
+40 0 -38 0 *
Ed
 1.5e-07 1 1 0
1  18 0 -4.44444444444444 -1.11111111111111
2  37 4 0 -4.44444444444444 -1.11111111111111
2  38 10 2 -4.44444444444444 -1.11111111111111
0

0101000
+38 0 -58 0 *
Ed
 1e-07 1 1 0
1  21 0 0 10
2  43 4 0 0 10
2  44 6 0 0 10
0

0101000
-52 0 +86 0 *
Wi

0101100
-51 0 +49 0 +47 0 -45 0 -43 0 +41 0 +39 0 -37 0 -36 0 +57 0 
+85 0 -35 0 *
Fa
0  1e-07 4 0

0111000
+34 0 *
Ed
 1e-07 1 1 0
1  22 0 0 2
2  45 7 0 0 2
2  46 6 0 0 2
0

0101000
-52 0 +80 0 *
Wi

0101100
-84 0 -35 0 +32 0 +61 0 *
Fa
0  1e-07 6 0

0111000
+31 0 *
Ed
 1e-07 1 1 0
1  23 0 0 2
2  47 7 0 0 2
2  48 8 0 0 2
0

0101000
-53 0 +81 0 *
Wi

0101100
-79 0 -29 0 +51 0 +32 0 *
Fa
0  1e-07 7 0

0111000
+28 0 *
Ed
 1e-07 1 1 0
1  24 0 0 2
2  49 1 0 0 2
2  50 8 0 0 2
0

0101000
-50 0 +78 0 *
Wi

0101100
-26 0 -49 0 +29 0 +77 0 *
Fa
0  1e-07 8 0

0111000
+25 0 *
Ed
 1.5e-07 1 1 0
1  25 0 -2 0
2  51 1 0 -2 0
2  52 9 0 -2 0
0

0101000
+48 0 -76 0 *
Wi

0101100
-75 0 -26 0 +47 0 -23 0 *
Fa
0  1e-07 1 0

0111000
+22 0 *
Ed
 1.5e-07 1 1 0
1  26 0 -2 0
2  53 10 2 -2 0
2  54 9 0 -2 0
0

0101000
+46 0 -74 0 *
Wi

0101100
-45 0 -20 0 +73 0 +23 0 *
Fa
0  1e-07 9 0

0111000
+19 0 *
Ed
 1.5e-07 1 1 0
1  27 0 -2 0
2  55 10 2 -2 0
2  56 12 0 -2 0
0

0101000
+44 0 -72 0 *
Wi

0101100
+20 0 -43 0 -17 0 -71 2 *
Fa
0  1e-07 10 2

0111000
+16 0 *
Ed
 1.5e-07 1 1 0
1  28 0 -2 0
2  57 1 0 -2 0
2  58 12 0 -2 0
0

0101000
+42 0 -70 0 *
Wi

0101100
-41 0 -17 0 +69 0 +14 0 *
Fa
0  1e-07 12 0

0111000
+13 0 *
Ed
 1.5e-07 1 1 0
1  29 0 -2 0
2  59 1 0 -2 0
2  60 13 0 -2 0
0

0101000
+40 0 -68 0 *
Wi

0101100
-67 0 +14 0 +39 0 -11 0 *
Fa
0  1e-07 1 0

0111000
+10 0 *
Ed
 1.5e-07 1 1 0
1  30 0 -2 0
2  61 10 2 -2 0
2  62 13 0 -2 0
0

0101000
+38 0 -66 0 *
Wi

0101100
-37 0 -8 0 +65 0 +11 0 *
Fa
0  1e-07 13 0

0111000
+7 0 *
Wi

0101100
+8 0 -36 0 -56 0 -63 2 *
Fa
0  1e-07 10 2

0111000
+5 0 *
Sh

0101100
-82 0 -59 0 +54 0 +33 0 -30 0 +27 0 +24 0 -21 0 -18 0 -15 0 
+12 0 -9 0 -6 0 -4 0 *
So

0100000
+3 0 *
Co

1100000
+2 0 *

+1 1  