
CASCADE Topology V1, (c) Matra-Datavision
Locations 2
1
              1               0               0              -5 
              0               1               0              -5 
              0               0               1              -5 
1
              1               0               0               5 
              0               1               0              -1 
              0               0               1               0 
Curve2ds 96
1 0 0 1 0 
1 0 0 1 0 
1 10 0 0 -1 
1 0 0 0 1 
1 0 -2 1 0 
1 0 0 1 0 
1 0 0 0 -1 
1 0 0 0 1 
1 0 0 0 1 
1 0 0 1 0 
1 0 0 1 0 
1 0 10 1 0 
1 10 0 0 1 
1 0 0 1 0 
8 -10 0
1 0 5 -1 0 
8 -10 0
1 0 -1 -1 0 
8 4 6
1 1.2000000000000002 1 0 1 
8 4 6
1 -1 0.40000000000000002 1 0 
8 -10 0
1 0 7 -1 0 
8 -10 0
1 0 -1 -1 0 
8 4.5 6.5
1 0.60000000000000009 0.5 0 1 
8 4.5 6.5
1 -0.5 0.20000000000000001 1 0 
8 3 5
1 2.4000000000000004 2 0 1 
8 3 5
1 -2 0.80000000000000004 1 0 
8 3.5 5.5
1 1.7999999999999998 1.5 0 1 
8 3.5 5.5
1 -1.5 0.59999999999999998 1 0 
8 3.5 5.5
1 8.1999999999999993 1.5 0 1 
8 3.5 5.5
1 -1.5 0.59999999999999998 1 0 
8 3 5
1 7.5999999999999996 2 0 1 
8 3 5
1 -2 0.80000000000000004 1 0 
8 4.5 6.5
1 9.4000000000000004 0.5 0 1 
8 4.5 6.5
1 -0.5 0.19999999999999996 1 0 
8 4 6
1 8.8000000000000007 1 0 1 
8 4 6
1 -1 0.40000000000000002 1 0 
1 10 0 0 1 
1 0 2 1 0 
1 10 0 0 -1 
1 10 0 0 1 
1 0 0 0 1 
1 0 2 1 0 
1 0 -2 1 0 
1 0 10 1 0 
8 -10 0
1 0 5 -1 0 
8 -10 0
1 0 -3 -1 0 
8 4 6
1 1.2000000000000002 1 0 1 
8 4 6
1 -1 2.3999999999999999 1 0 
8 -10 0
1 0 7 -1 0 
8 -10 0
1 0 -3 -1 0 
8 4.5 6.5
1 0.60000000000000009 0.5 0 1 
8 4.5 6.5
1 -0.5 2.2000000000000002 1 0 
8 3 5
1 2.4000000000000004 2 0 1 
8 3 5
1 -2 2.7999999999999998 1 0 
8 3.5 5.5
1 1.7999999999999998 1.5 0 1 
8 3.5 5.5
1 -1.5 2.6000000000000001 1 0 
8 3.5 5.5
1 8.1999999999999993 1.5 0 1 
8 3.5 5.5
1 -1.5 2.6000000000000001 1 0 
8 3 5
1 7.5999999999999996 2 0 1 
8 3 5
1 -2 2.7999999999999998 1 0 
8 4.5 6.5
1 9.4000000000000004 0.5 0 1 
8 4.5 6.5
1 -0.5 2.2000000000000002 1 0 
8 4 6
1 8.8000000000000007 1 0 1 
8 4 6
1 -1 2.3999999999999999 1 0 
1 0 0 0 -1 
1 10 0 0 1 
8 -2.7000000000000002 -0.69999999999999996
1 1.2000000000000002 -0.30000000000000004 0 1 
8 -2.7000000000000002 -0.69999999999999996
1 3 -0.29999999999999993 0 -1 
8 -2.6000000000000001 -0.59999999999999998
1 0.60000000000000009 -0.40000000000000002 0 1 
8 -2.6000000000000001 -0.59999999999999998
1 4 -0.39999999999999997 0 -1 
8 -2.7000000000000002 -0.69999999999999996
1 1.2000000000000002 -0.30000000000000004 0 1 
8 -2.7000000000000002 -0.69999999999999996
1 5 -0.29999999999999993 0 -1 
8 -2.6000000000000001 -0.59999999999999998
1 0.60000000000000009 -0.40000000000000002 0 1 
8 -2.6000000000000001 -0.59999999999999998
1 6 -0.39999999999999997 0 -1 
8 -2.8999999999999999 -0.90000000000000002
1 2.4000000000000004 -0.099999999999999978 0 1 
8 -2.8999999999999999 -0.90000000000000002
1 1 -0.099999999999999978 0 -1 
8 -2.7999999999999998 -0.80000000000000004
1 1.7999999999999998 -0.19999999999999996 0 1 
8 -2.7999999999999998 -0.80000000000000004
1 2 -0.20000000000000007 0 -1 
8 -2.8999999999999999 -0.90000000000000002
1 2.4000000000000004 -0.099999999999999978 0 1 
8 -2.8999999999999999 -0.90000000000000002
1 3 -0.099999999999999978 0 -1 
8 -2.7999999999999998 -0.80000000000000004
1 1.7999999999999998 -0.19999999999999996 0 1 
8 -2.7999999999999998 -0.80000000000000004
1 4 -0.20000000000000007 0 -1 
8 -2.7999999999999998 -0.80000000000000004
1 8.1999999999999993 -0.19999999999999996 0 1 
8 -2.7999999999999998 -0.80000000000000004
1 2 -0.20000000000000007 0 -1 
8 -2.7999999999999998 -0.80000000000000004
1 8.1999999999999993 -0.19999999999999996 0 1 
8 -2.7999999999999998 -0.80000000000000004
1 4 -0.20000000000000007 0 -1 
8 -2.8999999999999999 -0.90000000000000002
1 7.5999999999999996 -0.099999999999999978 0 1 
8 -2.8999999999999999 -0.90000000000000002
1 3 -0.099999999999999978 0 -1 
8 -2.8999999999999999 -0.90000000000000002
1 7.5999999999999996 -0.099999999999999978 0 1 
8 -2.8999999999999999 -0.90000000000000002
1 1 -0.099999999999999978 0 -1 
8 -2.6000000000000001 -0.59999999999999998
1 9.4000000000000004 -0.40000000000000002 0 1 
8 -2.6000000000000001 -0.59999999999999998
1 4 -0.40000000000000002 0 -1 
8 -2.6000000000000001 -0.59999999999999998
1 9.4000000000000004 -0.40000000000000002 0 1 
8 -2.6000000000000001 -0.59999999999999998
1 6 -0.40000000000000002 0 -1 
8 -2.7000000000000002 -0.69999999999999996
1 8.8000000000000007 -0.30000000000000004 0 1 
8 -2.7000000000000002 -0.69999999999999996
1 5 -0.29999999999999993 0 -1 
8 -2.7000000000000002 -0.69999999999999996
1 8.8000000000000007 -0.30000000000000004 0 1 
8 -2.7000000000000002 -0.69999999999999996
1 3 -0.29999999999999993 0 -1 
Curves 48
1 0 0 0 0 0 1 
1 0 0 10 -0 1 0 
1 0 2 0 0 0 1 
1 0 0 0 -0 1 0 
1 0 0 0 1 0 -0 
1 10 0 0 0 0 1 
1 0 0 10 1 0 -0 
1 5 0 0 0 0 -1 
1 1 0 1.2000000000000002 1 0 -0 
1 7 0 0 0 0 -1 
1 0.5 0 0.60000000000000009 1 0 -0 
1 2 0 2.4000000000000004 1 0 -0 
1 1.5 0 1.7999999999999998 1 0 -0 
1 1.5 0 8.1999999999999993 1 0 -0 
1 2 0 7.5999999999999996 1 0 -0 
1 0.5 0 9.4000000000000004 1 0 -0 
1 1 0 8.8000000000000007 1 0 -0 
1 0 2 10 1 0 -0 
1 10 0 10 -0 1 0 
1 0 2 0 1 0 -0 
1 10 2 0 0 0 1 
1 5 2 0 0 0 -1 
1 1 2 1.2000000000000002 1 0 -0 
1 7 2 0 0 0 -1 
1 0.5 2 0.60000000000000009 1 0 -0 
1 2 2 2.4000000000000004 1 0 -0 
1 1.5 2 1.7999999999999998 1 0 -0 
1 1.5 2 8.1999999999999993 1 0 -0 
1 2 2 7.5999999999999996 1 0 -0 
1 0.5 2 9.4000000000000004 1 0 -0 
1 1 2 8.8000000000000007 1 0 -0 
1 10 0 0 -0 1 0 
1 5 -0.69999999999999996 1.2000000000000002 0 -1 0 
1 5 -0.59999999999999998 0.60000000000000009 0 -1 0 
1 7 -0.69999999999999996 1.2000000000000002 0 -1 0 
1 7 -0.59999999999999998 0.60000000000000009 0 -1 0 
1 5 -0.90000000000000002 2.4000000000000004 0 -1 0 
1 5 -0.80000000000000004 1.7999999999999998 0 -1 0 
1 7 -0.90000000000000002 2.4000000000000004 0 -1 0 
1 7 -0.80000000000000004 1.7999999999999998 0 -1 0 
1 5 -0.80000000000000004 8.1999999999999993 0 -1 0 
1 7 -0.80000000000000004 8.1999999999999993 0 -1 0 
1 7 -0.90000000000000002 7.5999999999999996 0 -1 0 
1 5 -0.90000000000000002 7.5999999999999996 0 -1 0 
1 5 -0.59999999999999998 9.4000000000000004 0 -1 0 
1 7 -0.59999999999999998 9.4000000000000004 0 -1 0 
1 7 -0.69999999999999996 8.8000000000000007 0 -1 0 
1 5 -0.69999999999999996 8.8000000000000007 0 -1 0 
Polygon3D 0
PolygonOnTriangulations 0
Surfaces 16
1 0 0 0 1 0 -0 0 0 1 0 -1 0 
1 0 0 0 -0 1 0 0 0 1 1 0 -0 
1 0 0 10 0 0 1 1 0 -0 -0 1 0 
1 0 2 0 -0 1 0 0 0 1 1 0 -0 
1 0 0 0 0 0 1 1 0 -0 -0 1 0 
1 10 0 0 1 0 -0 0 0 1 0 -1 0 
1 0 0 0 1 0 -0 0 0 1 0 -1 0 
1 2 -0.40000000000000002 1.2000000000000002 0 0 1 1 0 -0 -0 1 0 
1 2 0 0 1 0 -0 0 0 1 0 -1 0 
1 1 -0.20000000000000001 0.60000000000000009 0 0 1 1 0 -0 -0 1 0 
1 4 -0.80000000000000004 2.4000000000000004 0 0 1 1 0 -0 -0 1 0 
1 3 -0.59999999999999998 1.7999999999999998 0 0 1 1 0 -0 -0 1 0 
1 3 -0.59999999999999998 8.1999999999999993 0 0 1 1 0 0 0 1 0 
1 4 -0.80000000000000004 7.5999999999999996 0 0 1 1 0 0 0 1 0 
1 1 -0.19999999999999996 9.4000000000000004 0 0 1 1 0 0 0 1 0 
1 2 -0.40000000000000002 8.8000000000000007 0 0 1 1 0 0 0 1 0 
Triangulations 0

TShapes 155
Ve
1e-07
0 0 10
0 0

0101101
*
Ve
1e-07
0 0 0
0 0

0101101
*
Ed
 1e-07 1 1 0
1  1 0 0 10
2  1 1 0 0 10
2  2 2 0 0 10
0

0101000
-155 0 +154 0 *
Ve
1e-07
0 2 10
0 0

0101101
*
Ed
 1e-07 1 1 0
1  2 0 0 2
2  3 1 0 0 2
2  4 3 0 0 2
0

0101000
-152 0 +155 0 *
Ve
1e-07
0 2 0
0 0

0101101
*
Ed
 1e-07 1 1 0
1  3 0 0 10
2  5 1 0 0 10
2  6 4 0 0 10
0

0101000
-152 0 +150 0 *
Ed
 1e-07 1 1 0
1  4 0 0 2
2  7 1 0 0 2
2  8 5 0 0 2
0

0101000
-150 0 +154 0 *
Wi

0101100
-153 0 -151 0 +149 0 +148 0 *
Fa
0  1e-07 1 0

0111000
+147 0 *
Ve
1e-07
10 0 0
0 0

0101101
*
Ed
 1e-07 1 1 0
1  5 0 0 10
2  9 2 0 0 10
2  10 5 0 0 10
0

0101000
-145 0 +154 0 *
Ve
1e-07
10 0 10
0 0

0101101
*
Ed
 1e-07 1 1 0
1  6 0 0 10
2  11 6 0 0 10
2  12 2 0 0 10
0

0101000
-143 0 +145 0 *
Ed
 1e-07 1 1 0
1  7 0 0 10
2  13 2 0 0 10
2  14 3 0 0 10
0

0101000
-143 0 +155 0 *
Wi

0101100
-144 0 -142 0 +153 0 +141 0 *
Ve
1.5e-07
5 0 1.2
0 0

0101101
*
Ve
1.5e-07
5 0 0.6
0 0

0101101
*
Ed
 1.5e-07 1 1 0
1  8 0 -1.2 -0.6
2  15 2 0 -1.2 -0.6
2  16 7 2 -1.2 -0.6
0

0101000
+139 0 -138 0 *
Ve
1.5e-07
7 0 1.2
0 0

0101101
*
Ed
 1.5e-07 1 1 0
1  9 0 4 6
2  17 2 0 4 6
2  18 8 0 4 6
0

0101000
+139 0 -136 0 *
Ve
1.5e-07
7 0 0.6
0 0

0101101
*
Ed
 1.5e-07 1 1 0
1  10 0 -1.2 -0.6
2  19 2 0 -1.2 -0.6
2  20 9 2 -1.2 -0.6
0

0101000
+136 0 -134 0 *
Ed
 1.5e-07 1 1 0
1  11 0 4.5 6.5
2  21 2 0 4.5 6.5
2  22 10 0 4.5 6.5
0

0101000
+138 0 -134 0 *
Wi

0101100
+137 0 -135 0 -133 0 +132 0 *
Ve
1.5e-07
5 0 2.4
0 0

0101101
*
Ve
1.5e-07
5 0 1.8
0 0

0101101
*
Ed
 1.5e-07 1 1 0
1  8 0 -2.4 -1.8
2  15 2 0 -2.4 -1.8
2  16 7 2 -2.4 -1.8
0

0101000
+130 0 -129 0 *
Ve
1.5e-07
7 0 2.4
0 0

0101101
*
Ed
 1.5e-07 1 1 0
1  12 0 3 5
2  23 2 0 3 5
2  24 11 0 3 5
0

0101000
+130 0 -127 0 *
Ve
1.5e-07
7 0 1.8
0 0

0101101
*
Ed
 1.5e-07 1 1 0
1  10 0 -2.4 -1.8
2  19 2 0 -2.4 -1.8
2  20 9 2 -2.4 -1.8
0

0101000
+127 0 -125 0 *
Ed
 1.5e-07 1 1 0
1  13 0 3.5 5.5
2  25 2 0 3.5 5.5
2  26 12 0 3.5 5.5
0

0101000
+129 0 -125 0 *
Wi

0101100
+128 0 -126 0 -124 0 +123 0 *
Ve
1.5e-07
5 0 8.2
0 0

0101101
*
Ve
1.5e-07
7 0 8.2
0 0

0101101
*
Ed
 1.5e-07 1 1 0
1  14 0 3.5 5.5
2  27 2 0 3.5 5.5
2  28 13 0 3.5 5.5
0

0101000
+121 0 -120 0 *
Ve
1.5e-07
7 0 7.6
0 0

0101101
*
Ed
 1.5e-07 1 1 0
1  10 0 -8.2 -7.6
2  19 2 0 -8.2 -7.6
2  20 9 2 -8.2 -7.6
0

0101000
+120 0 -118 0 *
Ve
1.5e-07
5 0 7.6
0 0

0101101
*
Ed
 1.5e-07 1 1 0
1  15 0 3 5
2  29 2 0 3 5
2  30 14 0 3 5
0

0101000
+116 0 -118 0 *
Ed
 1.5e-07 1 1 0
1  8 0 -8.2 -7.6
2  15 2 0 -8.2 -7.6
2  16 7 2 -8.2 -7.6
0

0101000
+121 0 -116 0 *
Wi

0101100
-119 0 -117 0 +115 0 +114 0 *
Ve
1.5e-07
5 0 9.4
0 0

0101101
*
Ve
1.5e-07
7 0 9.4
0 0

0101101
*
Ed
 1.5e-07 1 1 0
1  16 0 4.5 6.5
2  31 2 0 4.5 6.5
2  32 15 0 4.5 6.5
0

0101000
+112 0 -111 0 *
Ve
1.5e-07
7 0 8.8
0 0

0101101
*
Ed
 1.5e-07 1 1 0
1  10 0 -9.4 -8.8
2  19 2 0 -9.4 -8.8
2  20 9 2 -9.4 -8.8
0

0101000
+111 0 -109 0 *
Ve
1.5e-07
5 0 8.8
0 0

0101101
*
Ed
 1.5e-07 1 1 0
1  17 0 4 6
2  33 2 0 4 6
2  34 16 0 4 6
0

0101000
+107 0 -109 0 *
Ed
 1.5e-07 1 1 0
1  8 0 -9.4 -8.8
2  15 2 0 -9.4 -8.8
2  16 7 2 -9.4 -8.8
0

0101000
+112 0 -107 0 *
Wi

0101100
-110 0 -108 0 +106 0 +105 0 *
Fa
0  1e-07 2 0

0111000
+140 0 +131 0 +122 0 +113 0 +104 0 *
Ve
1e-07
10 2 10
0 0

0101101
*
Ed
 1e-07 1 1 0
1  18 0 0 10
2  35 4 0 0 10
2  36 3 0 0 10
0

0101000
-102 0 +152 0 *
Ed
 1e-07 1 1 0
1  19 0 0 2
2  37 6 0 0 2
2  38 3 0 0 2
0

0101000
-102 0 +143 0 *
Wi

0101100
-151 0 -101 0 +100 0 +141 0 *
Fa
0  1e-07 3 0

0111000
+99 0 *
Ve
1e-07
10 2 0
0 0

0101101
*
Ed
 1e-07 1 1 0
1  20 0 0 10
2  39 4 0 0 10
2  40 5 0 0 10
0

0101000
-97 0 +150 0 *
Ed
 1e-07 1 1 0
1  21 0 0 10
2  41 6 0 0 10
2  42 4 0 0 10
0

0101000
-102 0 +97 0 *
Wi

0101100
-96 0 -95 0 +149 0 +101 0 *
Ve
1.5e-07
5 2 1.2
0 0

0101101
*
Ve
1.5e-07
5 2 0.6
0 0

0101101
*
Ed
 1.5e-07 1 1 0
1  22 0 -1.2 -0.6
2  43 4 0 -1.2 -0.6
2  44 7 2 -1.2 -0.6
0

0101000
+93 0 -92 0 *
Ve
1.5e-07
7 2 1.2
0 0

0101101
*
Ed
 1.5e-07 1 1 0
1  23 0 4 6
2  45 4 0 4 6
2  46 8 0 4 6
0

0101000
+93 0 -90 0 *
Ve
1.5e-07
7 2 0.6
0 0

0101101
*
Ed
 1.5e-07 1 1 0
1  24 0 -1.2 -0.6
2  47 4 0 -1.2 -0.6
2  48 9 2 -1.2 -0.6
0

0101000
+90 0 -88 0 *
Ed
 1.5e-07 1 1 0
1  25 0 4.5 6.5
2  49 4 0 4.5 6.5
2  50 10 0 4.5 6.5
0

0101000
+92 0 -88 0 *
Wi

0101100
+91 0 -89 0 -87 0 +86 0 *
Ve
1.5e-07
5 2 2.4
0 0

0101101
*
Ve
1.50000000222045e-07
5 2 1.8
0 0

0101101
*
Ed
 1.5e-07 1 1 0
1  22 0 -2.4 -1.8
2  43 4 0 -2.4 -1.8
2  44 7 2 -2.4 -1.8
0

0101000
+84 0 -83 0 *
Ve
1.5e-07
7 2 2.4
0 0

0101101
*
Ed
 1.5e-07 1 1 0
1  26 0 3 5
2  51 4 0 3 5
2  52 11 0 3 5
0

0101000
+84 0 -81 0 *
Ve
1.50000000222045e-07
7 2 1.8
0 0

0101101
*
Ed
 1.5e-07 1 1 0
1  24 0 -2.4 -1.8
2  47 4 0 -2.4 -1.8
2  48 9 2 -2.4 -1.8
0

0101000
+81 0 -79 0 *
Ed
 1.5e-07 1 1 0
1  27 0 3.5 5.5
2  53 4 0 3.5 5.5
2  54 12 0 3.5 5.5
0

0101000
+83 0 -79 0 *
Wi

0101100
+82 0 -80 0 -78 0 +77 0 *
Ve
1.50000000222045e-07
5 2 8.2
0 0

0101101
*
Ve
1.50000000222045e-07
7 2 8.2
0 0

0101101
*
Ed
 1.5e-07 1 1 0
1  28 0 3.5 5.5
2  55 4 0 3.5 5.5
2  56 13 0 3.5 5.5
0

0101000
+75 0 -74 0 *
Ve
1.5e-07
7 2 7.6
0 0

0101101
*
Ed
 1.5e-07 1 1 0
1  24 0 -8.2 -7.6
2  47 4 0 -8.2 -7.6
2  48 9 2 -8.2 -7.6
0

0101000
+74 0 -72 0 *
Ve
1.5e-07
5 2 7.6
0 0

0101101
*
Ed
 1.5e-07 1 1 0
1  29 0 3 5
2  57 4 0 3 5
2  58 14 0 3 5
0

0101000
+70 0 -72 0 *
Ed
 1.5e-07 1 1 0
1  22 0 -8.2 -7.6
2  43 4 0 -8.2 -7.6
2  44 7 2 -8.2 -7.6
0

0101000
+75 0 -70 0 *
Wi

0101100
-73 0 -71 0 +69 0 +68 0 *
Ve
1.5e-07
5 2 9.4
0 0

0101101
*
Ve
1.5e-07
7 2 9.4
0 0

0101101
*
Ed
 1.5e-07 1 1 0
1  30 0 4.5 6.5
2  59 4 0 4.5 6.5
2  60 15 0 4.5 6.5
0

0101000
+66 0 -65 0 *
Ve
1.5e-07
7 2 8.8
0 0

0101101
*
Ed
 1.5e-07 1 1 0
1  24 0 -9.4 -8.8
2  47 4 0 -9.4 -8.8
2  48 9 2 -9.4 -8.8
0

0101000
+65 0 -63 0 *
Ve
1.5e-07
5 2 8.8
0 0

0101101
*
Ed
 1.5e-07 1 1 0
1  31 0 4 6
2  61 4 0 4 6
2  62 16 0 4 6
0

0101000
+61 0 -63 0 *
Ed
 1.5e-07 1 1 0
1  22 0 -9.4 -8.8
2  43 4 0 -9.4 -8.8
2  44 7 2 -9.4 -8.8
0

0101000
+66 0 -61 0 *
Wi

0101100
-64 0 -62 0 +60 0 +59 0 *
Fa
0  1e-07 4 0

0111000
+94 0 +85 0 +76 0 +67 0 +58 0 *
Ed
 1e-07 1 1 0
1  32 0 0 2
2  63 6 0 0 2
2  64 5 0 0 2
0

0101000
-97 0 +145 0 *
Wi

0101100
-148 0 -96 0 +56 0 +144 0 *
Fa
0  1e-07 5 0

0111000
+55 0 *
Wi

0101100
-142 0 -100 0 +95 0 +56 0 *
Fa
0  1e-07 6 0

0111000
+53 0 *
Ed
 1.5e-07 1 1 0
1  33 0 -2.7 -0.7
2  65 7 2 -2.7 -0.7
2  66 8 0 -2.7 -0.7
0

0101000
+93 0 -139 0 *
Ed
 1.5e-07 1 1 0
1  34 0 -2.6 -0.6
2  67 7 2 -2.6 -0.6
2  68 10 0 -2.6 -0.6
0

0101000
+92 0 -138 0 *
Wi

0101100
+51 0 -91 0 -50 0 +137 0 *
Fa
0  1e-07 7 2

0111000
+49 0 *
Ed
 1.5e-07 1 1 0
1  35 0 -2.7 -0.7
2  69 9 2 -2.7 -0.7
2  70 8 0 -2.7 -0.7
0

0101000
+90 0 -136 0 *
Wi

0101100
+51 0 -89 0 -47 0 +135 0 *
Fa
0  1e-07 8 0

0111000
+46 0 *
Ed
 1.5e-07 1 1 0
1  36 0 -2.6 -0.6
2  71 9 2 -2.6 -0.6
2  72 10 0 -2.6 -0.6
0

0101000
+88 0 -134 0 *
Wi

0101100
+47 0 -87 0 -44 0 +133 0 *
Fa
0  1e-07 9 2

0111000
+43 0 *
Wi

0101100
+50 0 -86 0 -44 0 +132 0 *
Fa
0  1e-07 10 0

0111000
+41 0 *
Ed
 1.5e-07 1 1 0
1  37 0 -2.9 -0.9
2  73 7 2 -2.9 -0.9
2  74 11 0 -2.9 -0.9
0

0101000
+84 0 -130 0 *
Ed
 1.5e-07 1 1 0
1  38 0 -2.8 -0.8
2  75 7 2 -2.8 -0.8
2  76 12 0 -2.8 -0.8
0

0101000
+83 0 -129 0 *
Wi

0101100
+39 0 -82 0 -38 0 +128 0 *
Fa
0  1e-07 7 2

0111000
+37 0 *
Ed
 1.5e-07 1 1 0
1  39 0 -2.9 -0.9
2  77 9 2 -2.9 -0.9
2  78 11 0 -2.9 -0.9
0

0101000
+81 0 -127 0 *
Wi

0101100
+39 0 -80 0 -35 0 +126 0 *
Fa
0  1e-07 11 0

0111000
+34 0 *
Ed
 1.5e-07 1 1 0
1  40 0 -2.8 -0.8
2  79 9 2 -2.8 -0.8
2  80 12 0 -2.8 -0.8
0

0101000
+79 0 -125 0 *
Wi

0101100
+35 0 -78 0 -32 0 +124 0 *
Fa
0  1e-07 9 2

0111000
+31 0 *
Wi

0101100
+38 0 -77 0 -32 0 +123 0 *
Fa
0  1e-07 12 0

0111000
+29 0 *
Ed
 1.5e-07 1 1 0
1  41 0 -2.8 -0.8
2  81 7 2 -2.8 -0.8
2  82 13 0 -2.8 -0.8
0

0101000
+75 0 -121 0 *
Ed
 1.5e-07 1 1 0
1  42 0 -2.8 -0.8
2  83 9 2 -2.8 -0.8
2  84 13 0 -2.8 -0.8
0

0101000
+74 0 -120 0 *
Wi

0101100
+27 0 -73 0 -26 0 +119 0 *
Fa
0  1e-07 13 0

0111000
+25 0 *
Ed
 1.5e-07 1 1 0
1  43 0 -2.9 -0.9
2  85 9 2 -2.9 -0.9
2  86 14 0 -2.9 -0.9
0

0101000
+72 0 -118 0 *
Wi

0101100
-71 0 -23 0 +117 0 +26 0 *
Fa
0  1e-07 9 2

0111000
+22 0 *
Ed
 1.5e-07 1 1 0
1  44 0 -2.9 -0.9
2  87 7 2 -2.9 -0.9
2  88 14 0 -2.9 -0.9
0

0101000
+70 0 -116 0 *
Wi

0101100
+20 0 -69 0 -23 0 +115 0 *
Fa
0  1e-07 14 0

0111000
+19 0 *
Wi

0101100
-68 0 -20 0 +114 0 +27 0 *
Fa
0  1e-07 7 2

0111000
+17 0 *
Ed
 1.5e-07 1 1 0
1  45 0 -2.6 -0.6
2  89 7 2 -2.6 -0.6
2  90 15 0 -2.6 -0.6
0

0101000
+66 0 -112 0 *
Ed
 1.5e-07 1 1 0
1  46 0 -2.6 -0.6
2  91 9 2 -2.6 -0.6
2  92 15 0 -2.6 -0.6
0

0101000
+65 0 -111 0 *
Wi

0101100
+15 0 -64 0 -14 0 +110 0 *
Fa
0  1e-07 15 0

0111000
+13 0 *
Ed
 1.5e-07 1 1 0
1  47 0 -2.7 -0.7
2  93 9 2 -2.7 -0.7
2  94 16 0 -2.7 -0.7
0

0101000
+63 0 -109 0 *
Wi

0101100
-62 0 -11 0 +108 0 +14 0 *
Fa
0  1e-07 9 2

0111000
+10 0 *
Ed
 1.5e-07 1 1 0
1  48 0 -2.7 -0.7
2  95 7 2 -2.7 -0.7
2  96 16 0 -2.7 -0.7
0

0101000
+61 0 -107 0 *
Wi

0101100
+8 0 -60 0 -11 0 +106 0 *
Fa
0  1e-07 16 0

0111000
+7 0 *
Wi

0101100
-59 0 -8 0 +105 0 +15 0 *
Fa
0  1e-07 7 2

0111000
+5 0 *
Sh

0101100
-146 0 -103 0 +98 0 +57 0 -54 0 +52 0 +48 0 -45 0 -42 0 +40 0 
+36 0 -33 0 -30 0 +28 0 -24 0 -21 0 +18 0 +16 0 -12 0 -9 0 
+6 0 +4 0 *
So

0100000
+3 0 *
Co

1100000
+2 0 *

+1 1  