
CASCADE Topology V1, (c) Matra-Datavision
Locations 5
1
              1               0               0               0 
              0               1               0              -6 
              0               0               1              -5 
1
              1               0               0              -5 
              0               1               0               1 
              0               0               1               0 
1
              1               0               0               0 
              0               1               0               0 
              0               0               1               3 
2  3 -1 0
2  2 -1 0
Curve2ds 120
8 -2.8999999999999999 -0.90000000000000002
1 2.4000000000000004 -0.099999999999999978 0 1 
8 -2.8999999999999999 -0.90000000000000002
1 1 -0.099999999999999978 0 -1 
8 -10 0
1 0 5 -1 0 
8 -10 0
1 0 -3 -1 -0 
1 0 0 0 -1 
1 0 0 0 1 
1 3 0 0 -1 
1 0 -5 1 0 
1 0 0 1 0 
1 3 -5 1 0 
1 4 0 0 -1 
1 0 0 0 1 
1 7 0 0 -1 
8 -2.8999999999999999 -0.90000000000000002
1 7.5999999999999996 -0.10000000000000001 0 1 
8 -2.8999999999999999 -0.90000000000000002
1 1 -0.10000000000000001 0 -1 
8 -10 0
1 0 5 -1 0 
8 -10 0
1 0 -1 -1 -0 
8 -2.7999999999999998 -0.80000000000000004
1 8.1999999999999993 -0.20000000000000001 0 1 
8 -2.7999999999999998 -0.80000000000000004
1 2 -0.20000000000000001 0 -1 
8 -2.7000000000000002 -0.69999999999999996
1 8.8000000000000007 -0.29999999999999999 0 1 
8 -2.7000000000000002 -0.69999999999999996
1 3 -0.29999999999999999 0 -1 
8 -2.6000000000000001 -0.59999999999999998
1 9.4000000000000004 -0.40000000000000002 0 1 
8 -2.6000000000000001 -0.59999999999999998
1 4 -0.40000000000000002 0 -1 
1 10 0 0 -1 
1 0 0 0 1 
1 0 -10 1 0 
1 0 0 1 0 
1 0 0 0 -1 
1 0 0 0 1 
8 -2.6000000000000001 -0.59999999999999998
1 0.60000000000000009 -0.40000000000000002 0 1 
8 -2.6000000000000001 -0.59999999999999998
1 4 -0.40000000000000002 0 -1 
8 -2.7000000000000002 -0.69999999999999996
1 1.2000000000000002 -0.29999999999999999 0 1 
8 -2.7000000000000002 -0.69999999999999996
1 3 -0.29999999999999999 0 -1 
8 -2.7999999999999998 -0.80000000000000004
1 1.7999999999999998 -0.20000000000000001 0 1 
8 -2.7999999999999998 -0.80000000000000004
1 2 -0.20000000000000001 0 -1 
8 3 5
1 2.4000000000000004 2 0 1 
8 3 5
1 -2 2.7999999999999998 1 0 
8 -2.8999999999999999 -0.90000000000000002
1 2.4000000000000004 -0.099999999999999978 0 1 
8 -2.8999999999999999 -0.90000000000000002
1 3 -0.099999999999999978 0 -1 
8 3 5
1 2.4000000000000004 2 0 1 
8 3 5
1 -2 0.80000000000000004 1 0 
8 -10 0
1 0 7 -1 0 
8 -10 0
1 0 -3 -1 -0 
8 2.5 4.5
1 3 2.5 0 1 
8 2.5 4.5
1 -2.5 3 1 0 
1 0 0 0 1 
1 0 5 1 0 
1 0 0 0 -1 
1 2 0 0 1 
1 3 0 0 -1 
1 0 -5 1 0 
1 0 2 1 0 
1 3 -5 1 0 
1 4 0 0 1 
1 0 5 1 0 
1 4 0 0 -1 
1 2 0 0 1 
1 7 0 0 -1 
8 2.5 4.5
1 7 2.5 0 1 
8 2.5 4.5
1 -2.5 3 1 0 
8 3 5
1 7.5999999999999996 2 0 1 
8 3 5
1 -2 2.7999999999999998 1 0 
8 -2.8999999999999999 -0.90000000000000002
1 7.5999999999999996 -0.10000000000000001 0 1 
8 -2.8999999999999999 -0.90000000000000002
1 3 -0.10000000000000001 0 -1 
8 3 5
1 7.5999999999999996 2 0 1 
8 3 5
1 -2 0.80000000000000004 1 0 
8 -10 0
1 0 7 -1 0 
8 -10 0
1 0 -1 -1 -0 
8 3.5 5.5
1 8.1999999999999993 1.5 0 1 
8 3.5 5.5
1 -1.5 0.59999999999999998 1 0 
8 3.5 5.5
1 8.1999999999999993 1.5 0 1 
8 3.5 5.5
1 -1.5 2.6000000000000001 1 0 
8 -2.7999999999999998 -0.80000000000000004
1 8.1999999999999993 -0.20000000000000001 0 1 
8 -2.7999999999999998 -0.80000000000000004
1 4 -0.20000000000000001 0 -1 
8 4 6
1 8.8000000000000007 1 0 1 
8 4 6
1 -1 2.3999999999999999 1 0 
8 -2.7000000000000002 -0.69999999999999996
1 8.8000000000000007 -0.29999999999999999 0 1 
8 -2.7000000000000002 -0.69999999999999996
1 5 -0.29999999999999999 0 -1 
8 4 6
1 8.8000000000000007 1 0 1 
8 4 6
1 -1 0.40000000000000002 1 0 
8 4.5 6.5
1 9.4000000000000004 0.5 0 1 
8 4.5 6.5
1 -0.5 0.19999999999999996 1 0 
8 4.5 6.5
1 9.4000000000000004 0.5 0 1 
8 4.5 6.5
1 -0.5 2.2000000000000002 1 0 
8 -2.6000000000000001 -0.59999999999999998
1 9.4000000000000004 -0.40000000000000002 0 1 
8 -2.6000000000000001 -0.59999999999999998
1 6 -0.40000000000000002 0 -1 
1 10 0 0 1 
1 0 2 1 0 
1 -5 3 1 0 
1 10 0 0 1 
1 0 10 1 0 
1 10 0 0 -1 
1 2 0 0 1 
1 0 0 0 1 
1 0 10 1 0 
1 0 -10 1 0 
1 0 2 1 0 
1 0 0 0 -1 
1 2 0 0 1 
1 0 0 0 1 
1 0 2 1 0 
1 -5 3 1 0 
8 4.5 6.5
1 0.60000000000000009 0.5 0 1 
8 4.5 6.5
1 -0.5 2.2000000000000002 1 0 
8 -2.6000000000000001 -0.59999999999999998
1 0.60000000000000009 -0.40000000000000002 0 1 
8 -2.6000000000000001 -0.59999999999999998
1 6 -0.40000000000000002 0 -1 
8 4.5 6.5
1 0.60000000000000009 0.5 0 1 
8 4.5 6.5
1 -0.5 0.19999999999999996 1 0 
8 4 6
1 1.2000000000000002 1 0 1 
8 4 6
1 -1 0.40000000000000002 1 0 
8 4 6
1 1.2000000000000002 1 0 1 
8 4 6
1 -1 2.3999999999999999 1 0 
8 -2.7000000000000002 -0.69999999999999996
1 1.2000000000000002 -0.29999999999999999 0 1 
8 -2.7000000000000002 -0.69999999999999996
1 5 -0.29999999999999999 0 -1 
8 3.5 5.5
1 1.7999999999999998 1.5 0 1 
8 3.5 5.5
1 -1.5 2.6000000000000001 1 0 
8 -2.7999999999999998 -0.80000000000000004
1 1.7999999999999998 -0.20000000000000001 0 1 
8 -2.7999999999999998 -0.80000000000000004
1 4 -0.20000000000000001 0 -1 
8 3.5 5.5
1 1.7999999999999998 1.5 0 1 
8 3.5 5.5
1 -1.5 0.59999999999999998 1 0 
Curves 56
1 0 0.099999999999999978 2.4000000000000004 0 -1 0 
1 0 3 0 -0 0 -1 
1 0 0 0 -0 1 0 
1 0 5 0 0 0 1 
1 0 0 4 -0 1 0 
1 0 0.10000000000000001 7.5999999999999996 0 -1 0 
1 0 1 0 -0 0 -1 
1 0 0.20000000000000001 8.1999999999999993 0 -1 0 
1 0 0.29999999999999999 8.8000000000000007 0 -1 0 
1 0 0.40000000000000002 9.4000000000000004 0 -1 0 
1 0 0 10 -0 1 0 
1 0 10 0 0 0 1 
1 0 0 0 -0 1 0 
1 0 0.40000000000000002 0.60000000000000009 0 -1 0 
1 0 0.29999999999999999 1.2000000000000002 0 -1 0 
1 0 0.20000000000000001 1.7999999999999998 0 -1 0 
1 -3 3 2.4000000000000004 1 0 0 
1 2 0.099999999999999978 2.4000000000000004 0 -1 0 
1 -3 1 2.4000000000000004 1 0 0 
1 2 3 0 -0 0 -1 
1 -2.5 3 3 1 0 0 
1 0 5 0 1 0 -0 
1 2 0 0 -0 1 0 
1 2 5 0 0 0 1 
1 0 5 4 1 0 -0 
1 2 0 4 -0 1 0 
1 -2.5 3 7 1 0 0 
1 -3 3 7.5999999999999996 1 0 0 
1 2 0.10000000000000001 7.5999999999999996 0 -1 0 
1 -3 1 7.5999999999999996 1 0 0 
1 2 1 0 -0 0 -1 
1 -3.5 1 8.1999999999999993 1 0 0 
1 -3.5 3 8.1999999999999993 1 0 0 
1 2 0.20000000000000001 8.1999999999999993 0 -1 0 
1 -4 3 8.8000000000000007 1 0 0 
1 2 0.29999999999999999 8.8000000000000007 0 -1 0 
1 -4 1 8.8000000000000007 1 0 0 
1 -4.5 1 9.4000000000000004 1 0 0 
1 -4.5 3 9.4000000000000004 1 0 0 
1 2 0.40000000000000002 9.4000000000000004 0 -1 0 
1 0 2 10 1 0 -0 
1 0 10 10 1 0 -0 
1 2 0 10 -0 1 0 
1 0 10 0 1 0 -0 
1 2 10 0 0 0 1 
1 2 0 0 -0 1 0 
1 0 2 0 1 0 -0 
1 -4.5 3 0.60000000000000009 1 0 0 
1 2 0.40000000000000002 0.60000000000000009 0 -1 0 
1 -4.5 1 0.60000000000000009 1 0 0 
1 -4 1 1.2000000000000002 1 0 0 
1 -4 3 1.2000000000000002 1 0 0 
1 2 0.29999999999999999 1.2000000000000002 0 -1 0 
1 -3.5 3 1.7999999999999998 1 0 0 
1 2 0.20000000000000001 1.7999999999999998 0 -1 0 
1 -3.5 1 1.7999999999999998 1 0 0 
Polygon3D 0
PolygonOnTriangulations 0
Surfaces 22
1 0 0 0 1 0 -0 0 0 1 0 -1 0 
1 -1 0.19999999999999996 2.4000000000000004 0 0 1 1 0 0 0 1 0 
1 0 2 0 -0 1 0 0 0 1 1 0 -0 
1 0 0 0 1 0 -0 0 0 1 0 -1 0 
1 0 0 0 0 0 1 1 0 -0 -0 1 0 
1 0 5 0 -0 1 0 0 0 1 1 0 -0 
1 0 0 4 0 0 1 1 0 -0 -0 1 0 
1 -1 0.20000000000000001 7.5999999999999996 0 0 1 1 0 0 0 1 0 
1 0 0 0 -0 1 0 0 0 1 1 0 -0 
1 -2 0.40000000000000002 8.1999999999999993 0 0 1 1 0 0 0 1 0 
1 -3 0.59999999999999998 8.8000000000000007 0 0 1 1 0 0 0 1 0 
1 -4 0.80000000000000004 9.4000000000000004 0 0 1 1 0 0 0 1 0 
1 0 0 10 0 0 1 1 0 -0 -0 1 0 
1 0 10 0 -0 1 0 0 0 1 1 0 -0 
1 0 0 0 0 0 1 1 0 -0 -0 1 0 
1 -4 0.80000000000000004 0.60000000000000009 0 0 1 1 0 0 0 1 0 
1 -3 0.59999999999999998 1.2000000000000002 0 0 1 1 0 0 0 1 0 
1 -2 0.40000000000000002 1.7999999999999998 0 0 1 1 0 0 0 1 0 
1 2 0 0 1 0 -0 0 0 1 0 -1 0 
1 2 0 0 1 0 -0 0 0 1 0 -1 0 
1 0 0 10 0 0 1 1 0 -0 -0 1 0 
1 0 0 0 0 0 1 1 0 -0 -0 1 0 
Triangulations 0

TShapes 175
Ve
1.5e-07
0 3 2.4
0 0

0101101
*
Ve
1.5e-07
0 1 2.4
0 0

0101101
*
Ed
 1.5e-07 1 1 0
1  1 0 -2.9 -0.9
2  1 1 0 -2.9 -0.9
2  2 2 0 -2.9 -0.9
0

0101000
+175 0 -174 0 *
Ve
1.5e-07
0 3 3
0 0

0101101
*
Ed
 1.5e-07 1 1 0
1  2 0 -3 -2.4
2  3 3 2 -3 -2.4
2  4 1 0 -3 -2.4
0

0101000
+172 0 -175 0 *
Ve
1e-07
0 5 0
0 0

0101101
*
Ed
 1e-07 1 1 0
1  3 0 3 5
2  5 4 0 3 5
2  6 5 0 3 5
2  7 1 4 3 5
0

0101000
+172 4 -170 0 *
Ve
1e-07
0 5 4
0 0

0101101
*
Ed
 1e-07 1 1 0
1  4 0 0 4
2  8 4 0 0 4
2  9 6 0 0 4
2  10 1 4 0 4
0

0101000
-168 0 +170 0 *
Ve
1.5e-07
0 3 7
0 0

0101101
*
Ed
 1e-07 1 1 0
1  5 0 3 5
2  11 4 0 3 5
2  12 7 0 3 5
2  13 1 4 3 5
0

0101000
+166 4 -168 0 *
Ve
1.5e-07
0 3 7.6
0 0

0101101
*
Ed
 1.5e-07 1 1 0
1  2 0 -7.6 -7
2  3 3 2 -7.6 -7
2  4 1 0 -7.6 -7
0

0101000
+164 0 -166 0 *
Ve
1.5e-07
0 1 7.6
0 0

0101101
*
Ed
 1.5e-07 1 1 0
1  6 0 -2.9 -0.9
2  14 1 0 -2.9 -0.9
2  15 8 0 -2.9 -0.9
0

0101000
+164 0 -162 0 *
Ve
1.5e-07
0 1 8.2
0 0

0101101
*
Ed
 1.5e-07 1 1 0
1  7 0 -8.2 -7.6
2  16 9 2 -8.2 -7.6
2  17 1 0 -8.2 -7.6
0

0101000
+160 0 -162 0 *
Ve
1.5e-07
0 3 8.2
0 0

0101101
*
Ed
 1.5e-07 1 1 0
1  8 0 -2.8 -0.8
2  18 1 0 -2.8 -0.8
2  19 10 0 -2.8 -0.8
0

0101000
+158 0 -160 0 *
Ve
1.5e-07
0 3 8.8
0 0

0101101
*
Ed
 1.5e-07 1 1 0
1  2 0 -8.8 -8.2
2  3 3 2 -8.8 -8.2
2  4 1 0 -8.8 -8.2
0

0101000
+156 0 -158 0 *
Ve
1.5e-07
0 1 8.8
0 0

0101101
*
Ed
 1.5e-07 1 1 0
1  9 0 -2.7 -0.7
2  20 1 0 -2.7 -0.7
2  21 11 0 -2.7 -0.7
0

0101000
+156 0 -154 0 *
Ve
1.5e-07
0 1 9.4
0 0

0101101
*
Ed
 1.5e-07 1 1 0
1  7 0 -9.4 -8.8
2  16 9 2 -9.4 -8.8
2  17 1 0 -9.4 -8.8
0

0101000
+152 0 -154 0 *
Ve
1.5e-07
0 3 9.4
0 0

0101101
*
Ed
 1.5e-07 1 1 0
1  10 0 -2.6 -0.6
2  22 1 0 -2.6 -0.6
2  23 12 0 -2.6 -0.6
0

0101000
+150 0 -152 0 *
Ve
1.5e-07
0 3 10
0 0

0101101
*
Ed
 1.5e-07 1 1 0
1  2 0 -10 -9.4
2  3 3 2 -10 -9.4
2  4 1 0 -10 -9.4
0

0101000
+148 0 -150 0 *
Ve
1e-07
0 10 10
0 0

0101101
*
Ed
 1e-07 1 1 0
1  11 0 3 10
2  24 1 0 3 10
2  25 13 0 3 10
0

0101000
+148 0 -146 0 *
Ve
1e-07
0 10 0
0 0

0101101
*
Ed
 1e-07 1 1 0
1  12 0 0 10
2  26 1 0 0 10
2  27 14 0 0 10
0

0101000
-146 0 +144 0 *
Ve
1.5e-07
0 3 0
0 0

0101101
*
Ed
 1e-07 1 1 0
1  13 0 3 10
2  28 1 0 3 10
2  29 15 0 3 10
0

0101000
+142 0 -144 0 *
Ve
1.5e-07
0 3 0.6
0 0

0101101
*
Ed
 1.5e-07 1 1 0
1  2 0 -0.6 0
2  3 3 2 -0.6 0
2  4 1 0 -0.6 0
0

0101000
+140 0 -142 0 *
Ve
1.5e-07
0 1 0.6
0 0

0101101
*
Ed
 1.5e-07 1 1 0
1  14 0 -2.6 -0.6
2  30 1 0 -2.6 -0.6
2  31 16 0 -2.6 -0.6
0

0101000
+140 0 -138 0 *
Ve
1.5e-07
0 1 1.2
0 0

0101101
*
Ed
 1.5e-07 1 1 0
1  7 0 -1.2 -0.6
2  16 9 2 -1.2 -0.6
2  17 1 0 -1.2 -0.6
0

0101000
+136 0 -138 0 *
Ve
1.5e-07
0 3 1.2
0 0

0101101
*
Ed
 1.5e-07 1 1 0
1  15 0 -2.7 -0.7
2  32 1 0 -2.7 -0.7
2  33 17 0 -2.7 -0.7
0

0101000
+134 0 -136 0 *
Ve
1.5e-07
0 3 1.8
0 0

0101101
*
Ed
 1.5e-07 1 1 0
1  2 0 -1.8 -1.2
2  3 3 2 -1.8 -1.2
2  4 1 0 -1.8 -1.2
0

0101000
+132 0 -134 0 *
Ve
1.5e-07
0 1 1.8
0 0

0101101
*
Ed
 1.5e-07 1 1 0
1  16 0 -2.8 -0.8
2  34 1 0 -2.8 -0.8
2  35 18 0 -2.8 -0.8
0

0101000
+132 0 -130 0 *
Ed
 1.5e-07 1 1 0
1  7 0 -2.4 -1.8
2  16 9 2 -2.4 -1.8
2  17 1 0 -2.4 -1.8
0

0101000
+174 0 -130 0 *
Wi

0101100
+173 0 +171 0 -169 3 -167 3 +165 3 +163 0 -161 0 +159 0 +157 0 +155 0 
-153 0 +151 0 +149 0 +147 0 -145 0 +143 0 +141 0 +139 0 -137 0 +135 0 
+133 0 +131 0 -129 0 +128 0 *
Fa
0  1e-07 1 0

0111000
+127 0 *
Ve
1.5e-07
2 3 2.4
0 0

0101101
*
Ed
 1.5e-07 1 1 0
1  17 0 3 5
2  36 3 2 3 5
2  37 2 0 3 5
0

0101000
+175 0 -125 0 *
Ve
1.5e-07
2 1 2.4
0 0

0101101
*
Ed
 1.5e-07 1 1 0
1  18 0 -2.9 -0.9
2  38 19 0 -2.9 -0.9
2  39 2 0 -2.9 -0.9
0

0101000
+125 0 -123 0 *
Ed
 1.5e-07 1 1 0
1  19 0 3 5
2  40 9 2 3 5
2  41 2 0 3 5
0

0101000
+174 0 -123 0 *
Wi

0101100
+173 0 -124 0 -122 0 +121 0 *
Fa
0  1e-07 2 0

0111000
+120 0 *
Ve
1.5e-07
2 3 3
0 0

0101101
*
Ed
 1.5e-07 1 1 0
1  20 0 -3 -2.4
2  42 3 2 -3 -2.4
2  43 19 0 -3 -2.4
0

0101000
+118 0 -125 0 *
Ed
 1.5e-07 1 1 0
1  21 0 2.5 4.5
2  44 3 2 2.5 4.5
2  45 5 3 2.5 4.5
0

0101000
+172 0 -118 0 *
Wi

0101100
-124 0 +117 0 +116 0 -171 0 *
Fa
0  1e-07 3 2

0111000
+115 0 *
Ve
1e-07
2 5 0
0 0

0101101
*
Ed
 1e-07 1 1 0
1  22 0 0 2
2  46 6 0 0 2
2  47 5 0 0 2
0

0101000
-113 0 +170 0 *
Ed
 1e-07 1 1 0
1  23 0 3 5
2  48 20 0 3 5
2  49 5 0 3 5
2  50 19 4 3 5
0

0101000
+118 4 -113 0 *
Wi

0101100
-169 3 -112 3 +111 3 +116 0 *
Fa
0  1e-07 5 3

0111000
+110 0 *
Ve
1e-07
2 5 4
0 0

0101101
*
Ed
 1e-07 1 1 0
1  24 0 0 4
2  51 20 0 0 4
2  52 6 0 0 4
2  53 19 4 0 4
0

0101000
-108 0 +113 0 *
Ed
 1e-07 1 1 0
1  25 0 0 2
2  54 6 0 0 2
2  55 7 0 0 2
0

0101000
-108 0 +168 0 *
Wi

0101100
-112 0 -107 0 +106 0 +167 0 *
Fa
0  1e-07 6 0

0111000
+105 0 *
Ve
1.5e-07
2 3 7
0 0

0101101
*
Ed
 1e-07 1 1 0
1  26 0 3 5
2  56 20 0 3 5
2  57 7 0 3 5
2  58 19 4 3 5
0

0101000
+103 4 -108 0 *
Ed
 1.5e-07 1 1 0
1  27 0 2.5 4.5
2  59 3 2 2.5 4.5
2  60 7 3 2.5 4.5
0

0101000
+166 0 -103 0 *
Wi

0101100
-165 3 -106 3 +102 3 +101 0 *
Fa
0  1e-07 7 3

0111000
+100 0 *
Ve
1.5e-07
2 3 7.6
0 0

0101101
*
Ed
 1.5e-07 1 1 0
1  20 0 -7.6 -7
2  42 3 2 -7.6 -7
2  43 19 0 -7.6 -7
0

0101000
+98 0 -103 0 *
Ed
 1.5e-07 1 1 0
1  28 0 3 5
2  61 3 2 3 5
2  62 8 0 3 5
0

0101000
+164 0 -98 0 *
Wi

0101100
-163 0 -101 0 +97 0 +96 0 *
Fa
0  1e-07 3 2

0111000
+95 0 *
Ve
1.5e-07
2 1 7.6
0 0

0101101
*
Ed
 1.5e-07 1 1 0
1  29 0 -2.9 -0.9
2  63 19 0 -2.9 -0.9
2  64 8 0 -2.9 -0.9
0

0101000
+98 0 -93 0 *
Ed
 1.5e-07 1 1 0
1  30 0 3 5
2  65 9 2 3 5
2  66 8 0 3 5
0

0101000
+162 0 -93 0 *
Wi

0101100
+161 0 -96 0 -92 0 +91 0 *
Fa
0  1e-07 8 0

0111000
+90 0 *
Ve
1.5e-07
2 1 8.2
0 0

0101101
*
Ed
 1.5e-07 1 1 0
1  31 0 -8.2 -7.6
2  67 9 2 -8.2 -7.6
2  68 19 0 -8.2 -7.6
0

0101000
+88 0 -93 0 *
Ed
 1.5e-07 1 1 0
1  32 0 3.5 5.5
2  69 9 2 3.5 5.5
2  70 10 0 3.5 5.5
0

0101000
+160 0 -88 0 *
Wi

0101100
-159 0 -91 0 +87 0 +86 0 *
Fa
0  1e-07 9 2

0111000
+85 0 *
Ve
1.5e-07
2 3 8.2
0 0

0101101
*
Ed
 1.5e-07 1 1 0
1  33 0 3.5 5.5
2  71 3 2 3.5 5.5
2  72 10 0 3.5 5.5
0

0101000
+158 0 -83 0 *
Ed
 1.5e-07 1 1 0
1  34 0 -2.8 -0.8
2  73 19 0 -2.8 -0.8
2  74 10 0 -2.8 -0.8
0

0101000
+83 0 -88 0 *
Wi

0101100
+157 0 -82 0 -81 0 +86 0 *
Fa
0  1e-07 10 0

0111000
+80 0 *
Ve
1.5e-07
2 3 8.8
0 0

0101101
*
Ed
 1.5e-07 1 1 0
1  20 0 -8.8 -8.2
2  42 3 2 -8.8 -8.2
2  43 19 0 -8.8 -8.2
0

0101000
+78 0 -83 0 *
Ed
 1.5e-07 1 1 0
1  35 0 4 6
2  75 3 2 4 6
2  76 11 0 4 6
0

0101000
+156 0 -78 0 *
Wi

0101100
-155 0 -82 0 +77 0 +76 0 *
Fa
0  1e-07 3 2

0111000
+75 0 *
Ve
1.5e-07
2 1 8.8
0 0

0101101
*
Ed
 1.5e-07 1 1 0
1  36 0 -2.7 -0.7
2  77 19 0 -2.7 -0.7
2  78 11 0 -2.7 -0.7
0

0101000
+78 0 -73 0 *
Ed
 1.5e-07 1 1 0
1  37 0 4 6
2  79 9 2 4 6
2  80 11 0 4 6
0

0101000
+154 0 -73 0 *
Wi

0101100
+153 0 -76 0 -72 0 +71 0 *
Fa
0  1e-07 11 0

0111000
+70 0 *
Ve
1.5e-07
2 1 9.4
0 0

0101101
*
Ed
 1.5e-07 1 1 0
1  31 0 -9.4 -8.8
2  67 9 2 -9.4 -8.8
2  68 19 0 -9.4 -8.8
0

0101000
+68 0 -73 0 *
Ed
 1.5e-07 1 1 0
1  38 0 4.5 6.5
2  81 9 2 4.5 6.5
2  82 12 0 4.5 6.5
0

0101000
+152 0 -68 0 *
Wi

0101100
-151 0 -71 0 +67 0 +66 0 *
Fa
0  1e-07 9 2

0111000
+65 0 *
Ve
1.5e-07
2 3 9.4
0 0

0101101
*
Ed
 1.5e-07 1 1 0
1  39 0 4.5 6.5
2  83 3 2 4.5 6.5
2  84 12 0 4.5 6.5
0

0101000
+150 0 -63 0 *
Ed
 1.5e-07 1 1 0
1  40 0 -2.6 -0.6
2  85 19 0 -2.6 -0.6
2  86 12 0 -2.6 -0.6
0

0101000
+63 0 -68 0 *
Wi

0101100
+149 0 -62 0 -61 0 +66 0 *
Fa
0  1e-07 12 0

0111000
+60 0 *
Ve
1.5e-07
2 3 10
0 0

0101101
*
Ed
 1.5e-07 1 1 0
1  20 0 -10 -9.4
2  42 3 2 -10 -9.4
2  43 19 0 -10 -9.4
0

0101000
+58 0 -63 0 *
Ed
 1e-07 1 1 0
1  41 0 5 7
2  87 3 0 5 7
2  88 21 0 5 7
2  89 13 5 5 7
0

0101000
+148 5 -58 5 *
Wi

0101100
-147 0 -62 0 +57 0 +56 2 *
Fa
0  1e-07 3 2

0111000
+55 0 *
Ve
1e-07
2 10 10
0 0

0101101
*
Ed
 1e-07 1 1 0
1  42 0 0 2
2  90 14 0 0 2
2  91 13 0 0 2
0

0101000
-53 0 +146 0 *
Ed
 1e-07 1 1 0
1  43 0 3 10
2  92 19 0 3 10
2  93 13 0 3 10
0

0101000
+58 0 -53 0 *
Wi

0101100
-145 0 -52 0 +51 0 +56 2 *
Fa
0  1e-07 13 0

0111000
+50 0 *
Ve
1e-07
2 10 0
0 0

0101101
*
Ed
 1e-07 1 1 0
1  44 0 0 2
2  94 14 0 0 2
2  95 15 0 0 2
0

0101000
-48 0 +144 0 *
Ed
 1e-07 1 1 0
1  45 0 0 10
2  96 19 0 0 10
2  97 14 0 0 10
0

0101000
-53 0 +48 0 *
Wi

0101100
-47 0 -46 0 +52 0 +143 0 *
Fa
0  1e-07 14 0

0111000
+45 0 *
Ve
1.5e-07
2 3 0
0 0

0101101
*
Ed
 1e-07 1 1 0
1  46 0 3 10
2  98 19 0 3 10
2  99 15 0 3 10
0

0101000
+43 0 -48 0 *
Ed
 1e-07 1 1 0
1  47 0 5 7
2  100 3 0 5 7
2  101 22 0 5 7
2  102 15 5 5 7
0

0101000
+142 5 -43 5 *
Wi

0101100
-141 0 -47 0 +42 0 +41 2 *
Fa
0  1e-07 15 0

0111000
+40 0 *
Ve
1.5e-07
2 3 0.6
0 0

0101101
*
Ed
 1.5e-07 1 1 0
1  20 0 -0.6 0
2  42 3 2 -0.6 0
2  43 19 0 -0.6 0
0

0101000
+38 0 -43 0 *
Ed
 1.5e-07 1 1 0
1  48 0 4.5 6.5
2  103 3 2 4.5 6.5
2  104 16 0 4.5 6.5
0

0101000
+140 0 -38 0 *
Wi

0101100
-41 2 +37 0 +36 0 -139 0 *
Fa
0  1e-07 3 2

0111000
+35 0 *
Ve
1.5e-07
2 1 0.6
0 0

0101101
*
Ed
 1.5e-07 1 1 0
1  49 0 -2.6 -0.6
2  105 19 0 -2.6 -0.6
2  106 16 0 -2.6 -0.6
0

0101000
+38 0 -33 0 *
Ed
 1.5e-07 1 1 0
1  50 0 4.5 6.5
2  107 9 2 4.5 6.5
2  108 16 0 4.5 6.5
0

0101000
+138 0 -33 0 *
Wi

0101100
+137 0 -36 0 -32 0 +31 0 *
Fa
0  1e-07 16 0

0111000
+30 0 *
Ve
1.5e-07
2 1 1.2
0 0

0101101
*
Ed
 1.5e-07 1 1 0
1  31 0 -1.2 -0.6
2  67 9 2 -1.2 -0.6
2  68 19 0 -1.2 -0.6
0

0101000
+28 0 -33 0 *
Ed
 1.5e-07 1 1 0
1  51 0 4 6
2  109 9 2 4 6
2  110 17 0 4 6
0

0101000
+136 0 -28 0 *
Wi

0101100
-31 0 +27 0 +26 0 -135 0 *
Fa
0  1e-07 9 2

0111000
+25 0 *
Ve
1.5e-07
2 3 1.2
0 0

0101101
*
Ed
 1.5e-07 1 1 0
1  52 0 4 6
2  111 3 2 4 6
2  112 17 0 4 6
0

0101000
+134 0 -23 0 *
Ed
 1.5e-07 1 1 0
1  53 0 -2.7 -0.7
2  113 19 0 -2.7 -0.7
2  114 17 0 -2.7 -0.7
0

0101000
+23 0 -28 0 *
Wi

0101100
+133 0 -22 0 -21 0 +26 0 *
Fa
0  1e-07 17 0

0111000
+20 0 *
Ve
1.5e-07
2 3 1.8
0 0

0101101
*
Ed
 1.5e-07 1 1 0
1  20 0 -1.8 -1.2
2  42 3 2 -1.8 -1.2
2  43 19 0 -1.8 -1.2
0

0101000
+18 0 -23 0 *
Ed
 1.5e-07 1 1 0
1  54 0 3.5 5.5
2  115 3 2 3.5 5.5
2  116 18 0 3.5 5.5
0

0101000
+132 0 -18 0 *
Wi

0101100
-22 0 +17 0 +16 0 -131 0 *
Fa
0  1e-07 3 2

0111000
+15 0 *
Ve
1.5e-07
2 1 1.8
0 0

0101101
*
Ed
 1.5e-07 1 1 0
1  55 0 -2.8 -0.8
2  117 19 0 -2.8 -0.8
2  118 18 0 -2.8 -0.8
0

0101000
+18 0 -13 0 *
Ed
 1.5e-07 1 1 0
1  56 0 3.5 5.5
2  119 9 2 3.5 5.5
2  120 18 0 3.5 5.5
0

0101000
+130 0 -13 0 *
Wi

0101100
+129 0 -16 0 -12 0 +11 0 *
Fa
0  1e-07 18 0

0111000
+10 0 *
Ed
 1.5e-07 1 1 0
1  31 0 -2.4 -1.8
2  67 9 2 -2.4 -1.8
2  68 19 0 -2.4 -1.8
0

0101000
+123 0 -13 0 *
Wi

0101100
-11 0 +8 0 +121 0 -128 0 *
Fa
0  1e-07 9 2

0111000
+7 0 *
Wi

0101100
+122 0 +117 0 -111 3 -107 3 +102 3 +97 0 -92 0 +87 0 +81 0 +77 0 
-72 0 +67 0 +61 0 +57 0 -51 0 +46 0 +42 0 +37 0 -32 0 +27 0 
+21 0 +17 0 -12 0 +8 0 *
Fa
0  1e-07 19 0

0111000
+5 0 *
Sh

0101100
-126 0 +119 0 -114 0 +109 0 -104 3 -99 0 -94 0 -89 0 -84 0 +79 0 
-74 0 -69 0 -64 0 +59 0 -54 0 +49 0 +44 0 -39 0 -34 0 -29 0 
-24 0 +19 0 -14 0 -9 0 -6 0 +4 0 *
So

0100000
+3 0 *
Co

1100000
+2 0 *

+1 1  