
CASCADE Topology V1, (c) Matra-Datavision
Locations 14
1
              1               0               0               0 
              0               1               0               0 
              0               0               1               0 
1
              1               0               0            -100 
              0               1               0            -130 
              0               0               1               0 
2  2 -1 0
1
0.977209209045565 0.212278500457631               0 -113.162000474263 
-0.212278500457631 0.977209209045565              -0 -194.89691888934 
             -0               0               1               0 
1
              1               0               0               0 
              0               1               0               0 
              0               0               1               0 
2  4 1 5 1 0
2  2 1 5 -1 4 -1 0
2  5 -1 4 -1 0
1
              1               0               0               0 
              0               1               0               0 
              0               0               1               0 
2  4 -1 0
1
              1               0               0               0 
              0               1               0               0 
              0               0               1               0 
2  2 1 11 1 0
2  4 1 11 -1 2 -1 0
2  11 -1 2 -1 0
Curve2ds 100
1 0 0 0 1 
1 0 0 1 0 
1 0 0 1 0 
1 0 60 1 0 
1 50 0 0 1 
1 0 0 1 0 
8 -50 0
1 0 0.9355136492528402 -1 0 
8 -50 0
1 0 -66.410465935666352 -1 -0 
8 0.9355136492528402 11.16873690117751
1 37.5 0 0 1 
8 0.9355136492528402 11.16873690117751
1 0 0 1 0 
8 -50 0
1 0 11.16873690117751 -1 0 
8 -50 0
1 0 -68.582759222433097 -1 -0 
8 0.9355136492528402 11.16873690117751
1 25 0 0 1 
8 0.9355136492528402 11.16873690117751
1 0 0 1 0 
8 0.9355136492528402 11.16873690117751
1 12.5 0 0 1 
8 0.9355136492528402 11.16873690117751
1 0 0 1 0 
1 0 0 0 1 
1 0 10 1 0 
1 0 0 0 -1 
1 60 0 0 1 
1 0 0 0 -1 
1 10 0 0 1 
1 -3.3899083838073452 -67.019703893916301 0.21227850045763108 0.97720920904556541 
1 50 0 0 -1 
1 60 0 0 1 
1 0 -10 1 0 
1 0 60 1 0 
1 50 0 0 1 
1 0 10 1 0 
1 50 0 0 -1 
1 0 0 0 1 
1 -13.162000474262996 -64.896918889339986 0.21227850045763108 0.97720920904556541 
8 -50 0
1 0 3.1078069360195855 -1 0 
8 -50 0
1 0 -76.643689187591036 -1 -0 
8 -43.537750937068367 -33.304527685143682
1 37.5 -33.105938250522669 0 1 
8 -43.537750937068367 -33.304527685143682
1 -6.1343215461991178 -32.545491156835396 -0.21227850045763108 -0.97720920904556541 
8 3.1078069360195855 13.341030187944241
1 37.5 0 0 1 
8 3.1078069360195855 13.341030187944241
1 0 10 1 0 
8 -45.710044223835091 -35.476820971910421
1 37.5 -33.105938250522676 0 1 
8 -45.710044223835091 -35.476820971910421
1 3.63777054425654 -34.668276161411711 -0.21227850045763108 -0.97720920904556541 
8 -50 0
1 0 13.341030187944241 -1 0 
8 -50 0
1 0 -78.815982474357767 -1 -0 
8 -45.710044223835091 -35.476820971910421
1 25 -33.105938250522676 0 1 
8 -45.710044223835091 -35.476820971910421
1 3.63777054425654 -34.668276161411711 -0.21227850045763108 -0.97720920904556541 
8 -43.537750937068367 -33.304527685143682
1 25 -33.105938250522669 0 1 
8 -43.537750937068367 -33.304527685143682
1 -6.1343215461991178 -32.545491156835396 -0.21227850045763108 -0.97720920904556541 
8 3.1078069360195855 13.341030187944241
1 25 0 0 1 
8 3.1078069360195855 13.341030187944241
1 0 10 1 0 
8 -43.537750937068367 -33.304527685143682
1 12.5 -33.105938250522669 0 1 
8 -43.537750937068367 -33.304527685143682
1 -6.1343215461991178 -32.545491156835396 -0.21227850045763108 -0.97720920904556541 
8 3.1078069360195855 13.341030187944241
1 12.5 0 0 1 
8 3.1078069360195855 13.341030187944241
1 0 10 1 0 
8 -45.710044223835091 -35.476820971910421
1 12.5 -33.105938250522676 0 1 
8 -45.710044223835091 -35.476820971910421
1 3.63777054425654 -34.668276161411711 -0.21227850045763108 -0.97720920904556541 
8 -50 0
1 0 0.9355136492528402 -1 0 
8 -50 0
1 0 -66.410465935666352 -1 -0 
8 -43.537750937068367 -33.304527685143682
1 37.5 -33.105938250522669 0 1 
8 -43.537750937068367 -33.304527685143682
1 -6.1343215461991178 -32.545491156835396 -0.21227850045763108 -0.97720920904556541 
8 -50 0
1 0 3.1078069360195855 -1 0 
8 -50 0
1 0 -76.643689187591036 -1 -0 
8 -43.537750937068367 -33.304527685143682
1 25 -33.105938250522669 0 1 
8 -43.537750937068367 -33.304527685143682
1 -6.1343215461991178 -32.545491156835396 -0.21227850045763108 -0.97720920904556541 
8 -43.537750937068367 -33.304527685143682
1 12.5 -33.105938250522669 0 1 
8 -43.537750937068367 -33.304527685143682
1 -6.1343215461991178 -32.545491156835396 -0.21227850045763108 -0.97720920904556541 
1 0 0 0 -1 
1 0 0 0 1 
1 0 0 1 0 
1 0 0 1 0 
1 -0.91419255323771154 66.211876501045339 0.97720920904556541 0.21227850045763108 
1 50 0 0 -1 
1 10 0 0 1 
1 50 0 0 1 
1 0 0 1 0 
8 0.9355136492528402 11.16873690117751
1 37.5 0 0 1 
8 0.9355136492528402 11.16873690117751
1 0 0 1 0 
8 -50 0
1 0 11.16873690117751 -1 0 
8 -50 0
1 0 -68.582759222433097 -1 -0 
8 3.1078069360195855 13.341030187944241
1 37.5 0 0 1 
8 3.1078069360195855 13.341030187944241
1 0 10 1 0 
8 -45.710044223835091 -35.476820971910421
1 37.5 -33.105938250522676 0 1 
8 -45.710044223835091 -35.476820971910421
1 3.63777054425654 -34.668276161411711 -0.21227850045763108 -0.97720920904556541 
8 3.1078069360195855 13.341030187944241
1 25 0 0 1 
8 3.1078069360195855 13.341030187944241
1 0 10 1 0 
8 -50 0
1 0 13.341030187944241 -1 0 
8 -50 0
1 0 -78.815982474357767 -1 -0 
8 -45.710044223835091 -35.476820971910421
1 25 -33.105938250522676 0 1 
8 -45.710044223835091 -35.476820971910421
1 3.63777054425654 -34.668276161411711 -0.21227850045763108 -0.97720920904556541 
8 0.9355136492528402 11.16873690117751
1 25 0 0 1 
8 0.9355136492528402 11.16873690117751
1 0 0 1 0 
8 0.9355136492528402 11.16873690117751
1 12.5 0 0 1 
8 0.9355136492528402 11.16873690117751
1 0 0 1 0 
8 3.1078069360195855 13.341030187944241
1 12.5 0 0 1 
8 3.1078069360195855 13.341030187944241
1 0 10 1 0 
8 -45.710044223835091 -35.476820971910421
1 12.5 -33.105938250522676 0 1 
8 -45.710044223835091 -35.476820971910421
1 3.63777054425654 -34.668276161411711 -0.21227850045763108 -0.97720920904556541 
1 -3.0369775578140232 75.983968591500997 0.97720920904556541 0.21227850045763108 
1 0 0 0 1 
1 0 0 1 0 
1 0 0 1 0 
1 0 10 1 0 
Curves 48
1 0 0 0 1 0 -0 
1 60 0 0 0 0 1 
1 0 0 50 1 0 -0 
1 -99.06448635074716 -130 0 0 0 -1 
1 -100 -130 37.5 1 0 0 
1 -88.83126309882249 -130 0 0 0 -1 
1 -100 -130 25 1 0 0 
1 -100 -130 12.5 1 0 0 
1 0 10 0 1 0 -0 
1 60 0 0 -0 1 0 
1 10 0 0 -0 1 0 
1 60 0 50 -0 1 0 
1 60 10 0 0 0 1 
1 0 10 50 1 0 -0 
1 0 0 50 -0 1 0 
1 -96.892193063980415 -120 0 0 0 -1 
1 -106.13432154619912 -162.5454911568354 37.5 -0.21227850045763108 -0.97720920904556541 0 
1 -100 -120 37.5 1 0 0 
1 -96.36222945574346 -164.66827616141171 37.5 -0.21227850045763108 -0.97720920904556541 0 
1 -86.658969812055759 -120 0 0 0 -1 
1 -96.36222945574346 -164.66827616141171 25 -0.21227850045763108 -0.97720920904556541 0 
1 -106.13432154619912 -162.5454911568354 25 -0.21227850045763108 -0.97720920904556541 0 
1 -100 -120 25 1 0 0 
1 -106.13432154619912 -162.5454911568354 12.5 -0.21227850045763108 -0.97720920904556541 0 
1 -100 -120 12.5 1 0 0 
1 -96.36222945574346 -164.66827616141171 12.5 -0.21227850045763108 -0.97720920904556541 0 
1 -99.06448635074716 -130 0 0 0 -1 
1 -106.13432154619912 -162.5454911568354 37.5 -0.21227850045763108 -0.97720920904556541 0 
1 -96.892193063980415 -120 0 0 0 -1 
1 -106.13432154619912 -162.5454911568354 25 -0.21227850045763108 -0.97720920904556541 0 
1 -106.13432154619912 -162.5454911568354 12.5 -0.21227850045763108 -0.97720920904556541 0 
1 0 0 0 -0 1 0 
1 0 0 0 0 0 1 
1 10 0 50 -0 1 0 
1 0 0 50 1 0 -0 
1 -100 -130 37.5 1 0 0 
1 -88.83126309882249 -130 0 0 0 -1 
1 -100 -120 37.5 1 0 0 
1 -96.36222945574346 -164.66827616141171 37.5 -0.21227850045763108 -0.97720920904556541 0 
1 -100 -120 25 1 0 0 
1 -86.658969812055759 -120 0 0 0 -1 
1 -96.36222945574346 -164.66827616141171 25 -0.21227850045763108 -0.97720920904556541 0 
1 -100 -130 25 1 0 0 
1 -100 -130 12.5 1 0 0 
1 -100 -120 12.5 1 0 0 
1 -96.36222945574346 -164.66827616141171 12.5 -0.21227850045763108 -0.97720920904556541 0 
1 0 0 0 1 0 -0 
1 10 0 0 0 0 1 
Polygon3D 0
PolygonOnTriangulations 0
Surfaces 16
1 0 0 0 -0 1 0 0 0 1 1 0 -0 
1 0 0 0 0 0 1 1 0 -0 -0 1 0 
1 60 0 0 1 0 -0 0 0 1 0 -1 0 
1 0 0 50 0 0 1 1 0 -0 -0 1 0 
1 0 0 0 1 0 -0 0 0 1 0 -1 0 
1 -100 -130 37.5 0 0 1 1 0 0 0 1 0 
1 10 0 0 1 0 -0 0 0 1 0 -1 0 
1 -100 -130 25 0 0 1 1 0 0 0 1 0 
1 -100 -130 12.5 0 0 1 1 0 0 0 1 0 
1 0 10 0 -0 1 0 0 0 1 1 0 -0 
1 0 0 0 0 0 1 1 0 -0 -0 1 0 
1 0 0 50 0 0 1 1 0 -0 -0 1 0 
1 -100 -130 37.5 0 0 1 1 0 0 0 1 0 
1 -100 -130 25 0 0 1 1 0 0 0 1 0 
1 -100 -130 12.5 0 0 1 1 0 0 0 1 0 
1 0 0 0 -0 1 0 0 0 1 1 0 -0 
Triangulations 0

TShapes 155
Ve
1.5e-07
-88.8312630988225 -130 0
0 0

0101101
*
Ve
1e-07
60 0 0
0 0

0101101
*
Ed
 1e-07 1 1 0
1  1 0 11.1687369011775 60
2  1 1 0 11.1687369011775 60
2  2 2 0 11.1687369011775 60
0

0101000
+155 3 -154 0 *
Ve
1e-07
60 0 50
0 0

0101101
*
Ed
 1e-07 1 1 0
1  2 0 0 50
2  3 3 0 0 50
2  4 1 0 0 50
0

0101000
-152 0 +154 0 *
Ve
1.50000007105427e-07
-99.0644863507472 -130 50
0 0

0101101
*
Ed
 1e-07 1 1 0
1  3 0 0.93551364925284 60
2  5 1 0 0.93551364925284 60
2  6 4 0 0.93551364925284 60
0

0101000
+150 3 -152 0 *
Ve
1.5e-07
-99.0644863507472 -130 37.5
0 0

0101101
*
Ed
 1.5e-07 1 1 0
1  4 0 -50 -37.5
2  7 1 2 -50 -37.5
2  8 5 6 -50 -37.5
0

0101000
+150 0 -148 0 *
Ve
1.50000014210855e-07
-88.8312630988225 -130 37.5
0 0

0101101
*
Ed
 1.5e-07 1 1 0
1  5 0 0.93551364925284 11.1687369011775
2  9 1 2 0.93551364925284 11.1687369011775
2  10 6 0 0.93551364925284 11.1687369011775
0

0101000
+148 0 -146 0 *
Ve
1.50000014210855e-07
-88.8312630988225 -130 25
0 0

0101101
*
Ed
 1.5e-07 1 1 0
1  6 0 -37.5 -25
2  11 1 2 -37.5 -25
2  12 7 6 -37.5 -25
0

0101000
+146 0 -144 0 *
Ve
1.5e-07
-99.0644863507472 -130 25
0 0

0101101
*
Ed
 1.5e-07 1 1 0
1  7 0 0.93551364925284 11.1687369011775
2  13 1 2 0.93551364925284 11.1687369011775
2  14 8 0 0.93551364925284 11.1687369011775
0

0101000
+142 0 -144 0 *
Ve
1.5e-07
-99.0644863507472 -130 12.5
0 0

0101101
*
Ed
 1.5e-07 1 1 0
1  4 0 -25 -12.5
2  7 1 2 -25 -12.5
2  8 5 6 -25 -12.5
0

0101000
+142 0 -140 0 *
Ve
1.50000014210855e-07
-88.8312630988225 -130 12.5
0 0

0101101
*
Ed
 1.5e-07 1 1 0
1  8 0 0.93551364925284 11.1687369011775
2  15 1 2 0.93551364925284 11.1687369011775
2  16 9 0 0.93551364925284 11.1687369011775
0

0101000
+140 0 -138 0 *
Ed
 1.5e-07 1 1 0
1  6 0 -12.5 0
2  11 1 2 -12.5 0
2  12 7 6 -12.5 0
0

0101000
+138 0 -155 0 *
Wi

0101100
-153 2 -151 2 +149 2 -147 0 -145 0 -143 0 +141 0 -139 0 -137 0 -136 0 
*
Fa
0  1e-07 1 2

0111000
+135 0 *
Ve
1.5e-07
-86.6589698120558 -120 0
0 0

0101101
*
Ve
1e-07
60 10 0
0 0

0101101
*
Ed
 1e-07 1 1 0
1  9 0 13.3410301879442 60
2  17 10 0 13.3410301879442 60
2  18 2 0 13.3410301879442 60
0

0101000
+133 3 -132 0 *
Ed
 1e-07 1 1 0
1  10 0 0 10
2  19 3 0 0 10
2  20 2 0 0 10
0

0101000
-132 0 +154 0 *
Ed
 1e-07 1 1 0
1  11 0 68.5827592224331 78.8159824743578
2  21 7 0 68.5827592224331 78.8159824743578
2  22 11 0 68.5827592224331 78.8159824743578
2  23 2 7 68.5827592224331 78.8159824743578
0

0101000
+155 8 -133 8 *
Wi

0101100
-131 2 +130 2 +153 2 -129 6 *
Fa
0  1e-07 2 2

0111000
+128 0 *
Ve
1e-07
60 10 50
0 0

0101101
*
Ed
 1e-07 1 1 0
1  12 0 0 10
2  24 3 0 0 10
2  25 4 0 0 10
0

0101000
-126 0 +152 0 *
Ed
 1e-07 1 1 0
1  13 0 0 50
2  26 3 0 0 50
2  27 10 0 0 50
0

0101000
-126 0 +132 0 *
Wi

0101100
-151 0 -125 0 +124 0 +130 0 *
Fa
0  1e-07 3 0

0111000
+123 0 *
Ve
1.50000007105427e-07
-96.8921930639804 -120 50
0 0

0101101
*
Ed
 1e-07 1 1 0
1  14 0 3.10780693601959 60
2  28 10 0 3.10780693601959 60
2  29 4 0 3.10780693601959 60
0

0101000
+121 3 -126 0 *
Ed
 1.00000014210855e-07 1 1 0
1  15 0 66.4104659356664 76.643689187591
2  30 5 0 66.4104659356664 76.643689187591
2  31 12 0 66.4104659356664 76.643689187591
2  32 4 7 66.4104659356664 76.643689187591
0

0101000
+150 8 -121 8 *
Wi

0101100
-120 2 +125 2 +149 2 -119 6 *
Fa
0  1e-07 4 2

0111000
+118 0 *
Ve
1.5e-07
-96.8921930639804 -120 37.5
0 0

0101101
*
Ed
 1.5e-07 1 1 0
1  16 0 -50 -37.5
2  33 10 2 -50 -37.5
2  34 5 6 -50 -37.5
0

0101000
+121 0 -116 0 *
Ed
 1.5e-07 1 1 0
1  17 0 -43.5377509370684 -33.3045276851437
2  35 5 6 -43.5377509370684 -33.3045276851437
2  36 6 0 -43.5377509370684 -33.3045276851437
0

0101000
+116 0 -148 0 *
Wi

0101100
-119 6 -115 0 -114 0 +147 0 *
Fa
0  1e-07 5 6

0111000
+113 0 *
Ve
1.50000014210855e-07
-86.6589698120558 -120 37.5
0 0

0101101
*
Ed
 1.5e-07 1 1 0
1  18 0 3.10780693601959 13.3410301879442
2  37 10 2 3.10780693601959 13.3410301879442
2  38 6 0 3.10780693601959 13.3410301879442
0

0101000
+116 0 -111 0 *
Ed
 1.5e-07 1 1 0
1  19 0 -45.7100442238351 -35.4768209719104
2  39 7 6 -45.7100442238351 -35.4768209719104
2  40 6 0 -45.7100442238351 -35.4768209719104
0

0101000
+111 0 -146 0 *
Wi

0101100
+114 0 -110 0 -109 0 +145 0 *
Fa
0  1e-07 6 0

0111000
+108 0 *
Ve
1.50000014210855e-07
-86.6589698120558 -120 25
0 0

0101101
*
Ed
 1.5e-07 1 1 0
1  20 0 -37.5 -25
2  41 10 2 -37.5 -25
2  42 7 6 -37.5 -25
0

0101000
+111 0 -106 0 *
Ed
 1.5e-07 1 1 0
1  21 0 -45.7100442238351 -35.4768209719104
2  43 7 6 -45.7100442238351 -35.4768209719104
2  44 8 0 -45.7100442238351 -35.4768209719104
0

0101000
+106 0 -144 0 *
Wi

0101100
+109 0 -105 0 -104 0 +143 0 *
Fa
0  1e-07 7 6

0111000
+103 0 *
Ve
1.5e-07
-96.8921930639804 -120 25
0 0

0101101
*
Ed
 1.5e-07 1 1 0
1  22 0 -43.5377509370684 -33.3045276851437
2  45 5 6 -43.5377509370684 -33.3045276851437
2  46 8 0 -43.5377509370684 -33.3045276851437
0

0101000
+101 0 -142 0 *
Ed
 1.5e-07 1 1 0
1  23 0 3.10780693601959 13.3410301879442
2  47 10 2 3.10780693601959 13.3410301879442
2  48 8 0 3.10780693601959 13.3410301879442
0

0101000
+101 0 -106 0 *
Wi

0101100
+100 0 -99 0 -104 0 +141 0 *
Fa
0  1e-07 8 0

0111000
+98 0 *
Ve
1.5e-07
-96.8921930639804 -120 12.5
0 0

0101101
*
Ed
 1.5e-07 1 1 0
1  16 0 -25 -12.5
2  33 10 2 -25 -12.5
2  34 5 6 -25 -12.5
0

0101000
+101 0 -96 0 *
Ed
 1.5e-07 1 1 0
1  24 0 -43.5377509370684 -33.3045276851437
2  49 5 6 -43.5377509370684 -33.3045276851437
2  50 9 0 -43.5377509370684 -33.3045276851437
0

0101000
+96 0 -140 0 *
Wi

0101100
+100 0 -95 0 -94 0 +139 0 *
Fa
0  1e-07 5 6

0111000
+93 0 *
Ve
1.50000014210855e-07
-86.6589698120558 -120 12.5
0 0

0101101
*
Ed
 1.5e-07 1 1 0
1  25 0 3.10780693601959 13.3410301879442
2  51 10 2 3.10780693601959 13.3410301879442
2  52 9 0 3.10780693601959 13.3410301879442
0

0101000
+96 0 -91 0 *
Ed
 1.5e-07 1 1 0
1  26 0 -45.7100442238351 -35.4768209719104
2  53 7 6 -45.7100442238351 -35.4768209719104
2  54 9 0 -45.7100442238351 -35.4768209719104
0

0101000
+91 0 -138 0 *
Wi

0101100
+94 0 -90 0 -89 0 +137 0 *
Fa
0  1e-07 9 0

0111000
+88 0 *
Ed
 1.5e-07 1 1 0
1  20 0 -12.5 0
2  41 10 2 -12.5 0
2  42 7 6 -12.5 0
0

0101000
+91 0 -133 0 *
Wi

0101100
+89 0 -86 0 +129 6 +136 0 *
Fa
0  1e-07 7 6

0111000
+85 0 *
Wi

0101100
-131 2 -124 2 +120 2 -115 0 -110 0 -105 0 +99 0 -95 0 -90 0 -86 0 
*
Fa
0  1e-07 10 2

0111000
+83 0 *
Sh

0101100
-134 0 -127 0 +122 2 +117 0 -112 0 -107 0 -102 0 +97 0 -92 0 -87 0 
-84 0 +82 0 *
So

0100000
+81 0 *
Co

0100000
+80 0 *
Ve
1e-07
0 0 50
0 0

0101101
*
Ve
1.50000007105427e-07
-99.0644863507472 -130 50
0 0

0101101
*
Ed
 1e-07 1 1 0
1  15 0 0 66.4104659356664
2  30 5 0 0 66.4104659356664
2  31 12 0 0 66.4104659356664
0

0101000
+78 0 -77 10 *
Ve
1.5e-07
-99.0644863507472 -130 37.5
0 0

0101101
*
Ed
 1.5e-07 1 1 0
1  27 0 -50 -37.5
2  55 1 12 -50 -37.5
2  56 5 4 -50 -37.5
0

0101000
+77 0 -75 0 *
Ve
1.5e-07
-96.8921930639804 -120 37.5
0 0

0101101
*
Ed
 1.5e-07 1 1 0
1  28 0 -43.5377509370684 -33.3045276851437
2  57 5 4 -43.5377509370684 -33.3045276851437
2  58 13 0 -43.5377509370684 -33.3045276851437
0

0101000
+73 0 -75 0 *
Ve
1.5e-07
-96.8921930639804 -120 25
0 0

0101101
*
Ed
 1.5e-07 1 1 0
1  29 0 -37.5 -25
2  59 10 12 -37.5 -25
2  60 5 4 -37.5 -25
0

0101000
+73 0 -71 0 *
Ve
1.5e-07
-99.0644863507472 -130 25
0 0

0101101
*
Ed
 1.5e-07 1 1 0
1  30 0 -43.5377509370684 -33.3045276851437
2  61 5 4 -43.5377509370684 -33.3045276851437
2  62 14 0 -43.5377509370684 -33.3045276851437
0

0101000
+71 0 -69 0 *
Ve
1.5e-07
-99.0644863507472 -130 12.5
0 0

0101101
*
Ed
 1.5e-07 1 1 0
1  27 0 -25 -12.5
2  55 1 12 -25 -12.5
2  56 5 4 -25 -12.5
0

0101000
+69 0 -67 0 *
Ve
1.5e-07
-96.8921930639804 -120 12.5
0 0

0101101
*
Ed
 1.5e-07 1 1 0
1  31 0 -43.5377509370684 -33.3045276851437
2  63 5 4 -43.5377509370684 -33.3045276851437
2  64 15 0 -43.5377509370684 -33.3045276851437
0

0101000
+65 0 -67 0 *
Ve
1.5e-07
-96.8921930639804 -120 0
0 0

0101101
*
Ed
 1.5e-07 1 1 0
1  29 0 -12.5 0
2  59 10 12 -12.5 0
2  60 5 4 -12.5 0
0

0101000
+65 0 -63 0 *
Ve
1e-07
0 0 0
0 0

0101101
*
Ed
 1e-07 1 1 0
1  32 0 0 76.643689187591
2  65 5 0 0 76.643689187591
2  66 11 0 0 76.643689187591
0

0101000
+61 0 -63 10 *
Ed
 1e-07 1 1 0
1  33 0 0 50
2  67 5 0 0 50
2  68 16 0 0 50
0

0101000
-78 0 +61 0 *
Wi

0101100
-76 4 -74 0 +72 0 -70 0 -68 0 -66 0 +64 0 -62 0 +60 4 -59 4 
*
Fa
0  1e-07 5 4

0111000
+58 0 *
Ve
1.50000007105427e-07
-88.8312630988225 -130 50
0 0

0101101
*
Ed
 1.00000014210855e-07 1 1 0
1  3 0 0.93551364925284 11.1687369011775
2  5 1 0 0.93551364925284 11.1687369011775
2  6 4 0 0.93551364925284 11.1687369011775
2  69 12 13 0.93551364925284 11.1687369011775
0

0101000
+77 14 -56 14 *
Ve
1e-07
10 0 50
0 0

0101101
*
Ed
 1e-07 1 1 0
1  34 0 0 68.5827592224331
2  70 7 0 0 68.5827592224331
2  71 12 0 0 68.5827592224331
0

0101000
+54 0 -56 10 *
Ed
 1e-07 1 1 0
1  35 0 0 10
2  72 16 0 0 10
2  73 12 0 0 10
0

0101000
-54 0 +78 0 *
Wi

0101100
-76 4 -55 12 +53 4 +52 4 *
Fa
0  1e-07 12 4

0111000
+51 0 *
Ve
1.50000014210855e-07
-88.8312630988225 -130 37.5
0 0

0101101
*
Ed
 1.5e-07 1 1 0
1  36 0 0.93551364925284 11.1687369011775
2  74 1 12 0.93551364925284 11.1687369011775
2  75 13 0 0.93551364925284 11.1687369011775
0

0101000
+75 0 -49 0 *
Ed
 1.5e-07 1 1 0
1  37 0 -50 -37.5
2  76 1 12 -50 -37.5
2  77 7 4 -50 -37.5
0

0101000
+56 0 -49 0 *
Wi

0101100
-48 0 +47 0 +55 12 -74 0 *
Fa
0  1e-07 1 12

0111000
+46 0 *
Ve
1.50000014210855e-07
-86.6589698120558 -120 37.5
0 0

0101101
*
Ed
 1.5e-07 1 1 0
1  38 0 3.10780693601959 13.3410301879442
2  78 10 12 3.10780693601959 13.3410301879442
2  79 13 0 3.10780693601959 13.3410301879442
0

0101000
+73 0 -44 0 *
Ed
 1.5e-07 1 1 0
1  39 0 -45.7100442238351 -35.4768209719104
2  80 7 4 -45.7100442238351 -35.4768209719104
2  81 13 0 -45.7100442238351 -35.4768209719104
0

0101000
+44 0 -49 0 *
Wi

0101100
+72 0 -43 0 -42 0 +48 0 *
Fa
0  1e-07 13 0

0111000
+41 0 *
Ve
1.50000014210855e-07
-86.6589698120558 -120 25
0 0

0101101
*
Ed
 1.5e-07 1 1 0
1  40 0 3.10780693601959 13.3410301879442
2  82 10 12 3.10780693601959 13.3410301879442
2  83 14 0 3.10780693601959 13.3410301879442
0

0101000
+71 0 -39 0 *
Ed
 1.5e-07 1 1 0
1  41 0 -37.5 -25
2  84 10 12 -37.5 -25
2  85 7 4 -37.5 -25
0

0101000
+44 0 -39 0 *
Wi

0101100
-38 0 +37 0 +43 0 -70 0 *
Fa
0  1e-07 10 12

0111000
+36 0 *
Ve
1.50000014210855e-07
-88.8312630988225 -130 25
0 0

0101101
*
Ed
 1.5e-07 1 1 0
1  42 0 -45.7100442238351 -35.4768209719104
2  86 7 4 -45.7100442238351 -35.4768209719104
2  87 14 0 -45.7100442238351 -35.4768209719104
0

0101000
+39 0 -34 0 *
Ed
 1.5e-07 1 1 0
1  43 0 0.93551364925284 11.1687369011775
2  88 1 12 0.93551364925284 11.1687369011775
2  89 14 0 0.93551364925284 11.1687369011775
0

0101000
+69 0 -34 0 *
Wi

0101100
+68 0 -38 0 -33 0 +32 0 *
Fa
0  1e-07 14 0

0111000
+31 0 *
Ve
1.50000014210855e-07
-88.8312630988225 -130 12.5
0 0

0101101
*
Ed
 1.5e-07 1 1 0
1  44 0 0.93551364925284 11.1687369011775
2  90 1 12 0.93551364925284 11.1687369011775
2  91 15 0 0.93551364925284 11.1687369011775
0

0101000
+67 0 -29 0 *
Ed
 1.5e-07 1 1 0
1  37 0 -25 -12.5
2  76 1 12 -25 -12.5
2  77 7 4 -25 -12.5
0

0101000
+34 0 -29 0 *
Wi

0101100
-28 0 +27 0 +32 0 -66 0 *
Fa
0  1e-07 1 12

0111000
+26 0 *
Ve
1.50000014210855e-07
-86.6589698120558 -120 12.5
0 0

0101101
*
Ed
 1.5e-07 1 1 0
1  45 0 3.10780693601959 13.3410301879442
2  92 10 12 3.10780693601959 13.3410301879442
2  93 15 0 3.10780693601959 13.3410301879442
0

0101000
+65 0 -24 0 *
Ed
 1.5e-07 1 1 0
1  46 0 -45.7100442238351 -35.4768209719104
2  94 7 4 -45.7100442238351 -35.4768209719104
2  95 15 0 -45.7100442238351 -35.4768209719104
0

0101000
+24 0 -29 0 *
Wi

0101100
+64 0 -23 0 -22 0 +28 0 *
Fa
0  1e-07 15 0

0111000
+21 0 *
Ve
1.5e-07
-86.6589698120558 -120 0
0 0

0101101
*
Ed
 1e-07 1 1 0
1  9 0 3.10780693601959 13.3410301879442
2  17 10 0 3.10780693601959 13.3410301879442
2  18 2 0 3.10780693601959 13.3410301879442
2  96 11 13 3.10780693601959 13.3410301879442
0

0101000
+63 14 -19 14 *
Ed
 1.5e-07 1 1 0
1  41 0 -12.5 0
2  84 10 12 -12.5 0
2  85 7 4 -12.5 0
0

0101000
+24 0 -19 0 *
Wi

0101100
-18 12 +17 0 +23 0 -62 0 *
Fa
0  1e-07 10 12

0111000
+16 0 *
Ve
1e-07
10 0 0
0 0

0101101
*
Ed
 1e-07 1 1 0
1  11 0 0 78.8159824743578
2  21 7 0 0 78.8159824743578
2  22 11 0 0 78.8159824743578
0

0101000
+14 0 -19 10 *
Ed
 1e-07 1 1 0
1  47 0 0 10
2  97 16 0 0 10
2  98 11 0 0 10
0

0101000
-14 0 +61 0 *
Wi

0101100
-60 4 -18 12 +13 4 +12 4 *
Fa
0  1e-07 11 4

0111000
+11 0 *
Ed
 1e-07 1 1 0
1  48 0 0 50
2  99 7 0 0 50
2  100 16 0 0 50
0

0101000
-54 0 +14 0 *
Wi

0101100
-12 0 -9 0 +52 0 +59 0 *
Fa
0  1e-07 16 0

0111000
+8 0 *
Wi

0101100
-53 4 -47 0 +42 0 -37 0 -33 0 -27 0 +22 0 -17 0 +13 4 -9 4 
*
Fa
0  1e-07 7 4

0111000
+6 0 *
Sh

0101100
-57 0 +50 0 +45 0 +40 0 +35 0 -30 0 +25 0 +20 0 +15 0 -10 0 
-7 4 +5 0 *
So

0100000
+4 0 *
Co

0100000
+3 0 *
Co

1100000
+79 1 +2 9 *

+1 0  