
CASCADE Topology V1, (c) Matra-Datavision
Locations 7
1
              1               0               0              -5 
              0               1               0              -5 
              0               0               1              -5 
1
              1               0               0               0 
              0               1               0               0 
              0               0               1               0 
1
              1               0               0               0 
              0               1               0               0 
              0               0               1               0 
2  3 -1 0
1
              1               0               0               0 
              0               1               0               0 
              0               0               1               0 
2  2 -1 0
2  5 -1 0
Curve2ds 66
1 0 0 1 0 
1 0 0 1 0 
8 -2 0
1 2 0 0 1 
8 -2 0
1 0 0 0 -1 
1 0 -2 1 0 
1 0 0 1 0 
1 0 -2 1 0 
1 0 -2 1 0 
1 0 -2 1 0 
1 0 0 0 -1 
1 0 0 0 1 
1 0 0 1 0 
1 0 10 1 0 
1 10 0 0 1 
1 0 0 1 0 
8 0 2
1 8 0 0 1 
8 0 2
1 0 0 1 0 
1 0 0 1 0 
1 0 2 1 0 
1 0 2 1 0 
1 0 2 1 0 
1 0 2 1 0 
8 0 2
1 6 0 0 1 
8 0 2
1 0 0 1 0 
8 0 2
1 4 0 0 1 
8 0 2
1 0 0 1 0 
8 0 2
1 2 0 0 1 
8 0 2
1 0 0 1 0 
1 0 0 0 1 
1 0 0 1 0 
8 0 2
1 2 0 0 1 
8 0 2
1 0 2 1 0 
8 -2 0
1 2 0 0 1 
8 -2 0
1 2 0 0 -1 
1 0 -2 1 0 
1 0 10 1 0 
1 10 0 0 1 
1 0 2 1 0 
8 0 2
1 8 0 0 1 
8 0 2
1 0 2 1 0 
8 -10 0
1 0 2 -1 0 
8 -10 0
1 0 -2 -1 0 
8 0 2
1 6 0 0 1 
8 0 2
1 0 2 1 0 
8 0 2
1 4 0 0 1 
8 0 2
1 0 2 1 0 
1 0 0 0 1 
1 0 2 1 0 
1 0 0 0 -1 
1 10 0 0 1 
1 10 0 0 -1 
1 10 0 0 1 
1 10 0 0 -1 
1 0 0 0 1 
8 -2 0
1 8 0 0 1 
8 -2 0
1 0 0 0 -1 
8 -2 0
1 8 0 0 1 
8 -2 0
1 2 0 0 -1 
8 -2 0
1 6 0 0 1 
8 -2 0
1 2 0 0 -1 
8 -2 0
1 6 0 0 1 
8 -2 0
1 0 0 0 -1 
8 -2 0
1 4 0 0 1 
8 -2 0
1 0 0 0 -1 
8 -2 0
1 4 0 0 1 
8 -2 0
1 2 0 0 -1 
Curves 30
1 0 0 0 0 0 1 
1 0 0 2 0 -1 0 
1 0 2 0 0 0 1 
1 0 0 0 -0 1 0 
1 10 0 0 0 0 1 
1 0 0 10 1 0 -0 
1 0 0 8 1 0 -0 
1 2 0 0 0 0 1 
1 0 0 6 1 0 -0 
1 0 0 4 1 0 -0 
1 0 0 2 1 0 -0 
1 0 0 0 1 0 -0 
1 0 2 2 1 0 -0 
1 2 0 2 0 -1 0 
1 10 2 0 0 0 1 
1 0 2 10 1 0 -0 
1 0 2 8 1 0 -0 
1 2 2 0 0 0 -1 
1 0 2 6 1 0 -0 
1 0 2 4 1 0 -0 
1 0 2 0 1 0 -0 
1 10 0 0 -0 1 0 
1 10 0 10 -0 1 0 
1 0 0 10 -0 1 0 
1 0 0 8 0 -1 0 
1 2 0 8 0 -1 0 
1 2 0 6 0 -1 0 
1 0 0 6 0 -1 0 
1 0 0 4 0 -1 0 
1 2 0 4 0 -1 0 
Polygon3D 0
PolygonOnTriangulations 0
Surfaces 13
1 0 0 0 1 0 -0 0 0 1 0 -1 0 
1 0 0 0 -0 1 0 0 0 1 1 0 -0 
1 0 0 2 0 0 1 1 0 -0 -0 1 0 
1 0 2 0 -0 1 0 0 0 1 1 0 -0 
1 0 0 0 1 0 -0 0 0 1 0 -1 0 
1 0 0 0 0 0 1 1 0 -0 -0 1 0 
1 10 0 0 1 0 -0 0 0 1 0 -1 0 
1 0 0 10 0 0 1 1 0 -0 -0 1 0 
1 0 0 8 0 0 1 1 0 -0 -0 1 0 
1 2 0 0 1 0 -0 0 0 1 0 -1 0 
1 0 0 0 -0 1 0 0 0 1 1 0 -0 
1 0 0 6 0 0 1 1 0 -0 -0 1 0 
1 0 0 4 0 0 1 1 0 -0 -0 1 0 
Triangulations 0

TShapes 91
Ve
1e-07
0 0 0
0 0

0101101
*
Ve
1.5e-07
0 0 2
0 0

0101101
*
Ed
 1e-07 1 1 0
1  1 0 0 2
2  1 1 0 0 2
2  2 2 0 0 2
0

0101000
+91 0 -90 0 *
Ve
1.5e-07
0 2 2
0 0

0101101
*
Ed
 1.5e-07 1 1 0
1  2 0 -2 0
2  3 1 0 -2 0
2  4 3 0 -2 0
0

0101000
+88 0 -90 0 *
Ve
1e-07
0 2 0
0 0

0101101
*
Ed
 1e-07 1 1 0
1  3 0 0 2
2  5 1 0 0 2
2  6 4 0 0 2
2  7 5 2 0 2
2  8 5 4 0 2
2  9 5 5 0 2
0

0101000
+86 0 -88 0 *
Ed
 1e-07 1 1 0
1  4 0 0 2
2  10 1 0 0 2
2  11 6 0 0 2
0

0101000
-86 0 +91 0 *
Wi

0101100
-89 0 +87 0 +85 0 +84 0 *
Fa
0  1e-07 1 0

0111000
+83 0 *
Ve
1e-07
10 0 10
0 0

0101101
*
Ve
1e-07
10 0 0
0 0

0101101
*
Ed
 1e-07 1 1 0
1  5 0 0 10
2  12 7 0 0 10
2  13 2 0 0 10
0

0101000
-81 0 +80 0 *
Ve
1e-07
0 0 10
0 0

0101101
*
Ed
 1e-07 1 1 0
1  6 0 0 10
2  14 2 0 0 10
2  15 8 0 0 10
0

0101000
-81 0 +78 0 *
Ve
1.5e-07
0 0 8
0 0

0101101
*
Ed
 1e-07 1 1 0
1  1 0 8 10
2  1 1 0 8 10
2  2 2 0 8 10
0

0101000
+76 0 -78 0 *
Ve
1.5e-07
2 0 8
0 0

0101101
*
Ed
 1.5e-07 1 1 0
1  7 0 0 2
2  16 2 0 0 2
2  17 9 0 0 2
0

0101000
+76 0 -74 0 *
Ve
1.5e-07
2 0 6
0 0

0101101
*
Ed
 1e-07 1 1 0
1  8 0 6 8
2  18 10 0 6 8
2  19 11 0 6 8
2  20 2 6 6 8
2  21 2 3 6 8
2  22 2 7 6 8
0

0101000
+72 7 -74 7 *
Ve
1.5e-07
0 0 6
0 0

0101101
*
Ed
 1.5e-07 1 1 0
1  9 0 0 2
2  23 2 0 0 2
2  24 12 0 0 2
0

0101000
+70 0 -72 0 *
Ve
1.5e-07
0 0 4
0 0

0101101
*
Ed
 1e-07 1 1 0
1  1 0 4 6
2  1 1 0 4 6
2  2 2 0 4 6
0

0101000
+68 0 -70 0 *
Ve
1.5e-07
2 0 4
0 0

0101101
*
Ed
 1.5e-07 1 1 0
1  10 0 0 2
2  25 2 0 0 2
2  26 13 0 0 2
0

0101000
+68 0 -66 0 *
Ve
1.5e-07
2 0 2
0 0

0101101
*
Ed
 1e-07 1 1 0
1  8 0 2 4
2  18 10 0 2 4
2  19 11 0 2 4
2  20 2 6 2 4
2  21 2 3 2 4
2  22 2 7 2 4
0

0101000
+64 7 -66 7 *
Ed
 1.5e-07 1 1 0
1  11 0 0 2
2  27 2 0 0 2
2  28 3 0 0 2
0

0101000
+90 0 -64 0 *
Ed
 1e-07 1 1 0
1  12 0 0 10
2  29 2 0 0 10
2  30 6 0 0 10
0

0101000
-80 0 +91 0 *
Wi

0101100
-79 0 +77 0 +75 0 -73 0 +71 5 +69 0 +67 0 -65 0 +63 5 +62 0 
+89 0 -61 0 *
Fa
0  1e-07 2 0

0111000
+60 0 *
Ve
1.5e-07
2 2 2
0 0

0101101
*
Ed
 1.5e-07 1 1 0
1  13 0 0 2
2  31 4 0 0 2
2  32 3 0 0 2
0

0101000
+88 0 -58 0 *
Ed
 1.5e-07 1 1 0
1  14 0 -2 0
2  33 10 5 -2 0
2  34 3 0 -2 0
0

0101000
+58 0 -64 0 *
Wi

0101100
-57 0 -56 0 +62 0 +87 0 *
Fa
0  1e-07 3 0

0111000
+55 0 *
Ve
1e-07
10 2 10
0 0

0101101
*
Ve
1e-07
10 2 0
0 0

0101101
*
Ed
 1e-07 1 1 0
1  15 0 0 10
2  35 7 0 0 10
2  36 4 0 0 10
0

0101000
-53 0 +52 0 *
Ve
1e-07
0 2 10
0 0

0101101
*
Ed
 1e-07 1 1 0
1  16 0 0 10
2  37 4 0 0 10
2  38 8 0 0 10
0

0101000
-53 0 +50 0 *
Ve
1.5e-07
0 2 8
0 0

0101101
*
Ed
 1e-07 1 1 0
1  3 0 8 10
2  5 1 0 8 10
2  6 4 0 8 10
2  7 5 2 8 10
2  8 5 4 8 10
2  9 5 5 8 10
0

0101000
+48 0 -50 0 *
Ve
1.5e-07
2 2 8
0 0

0101101
*
Ed
 1.5e-07 1 1 0
1  17 0 0 2
2  39 4 0 0 2
2  40 9 0 0 2
0

0101000
+48 0 -46 0 *
Ve
1.5e-07
2 2 6
0 0

0101101
*
Ed
 1.5e-07 1 1 0
1  18 0 -8 -6
2  41 4 0 -8 -6
2  42 10 5 -8 -6
0

0101000
+46 0 -44 0 *
Ve
1.5e-07
0 2 6
0 0

0101101
*
Ed
 1.5e-07 1 1 0
1  19 0 0 2
2  43 4 0 0 2
2  44 12 0 0 2
0

0101000
+42 0 -44 0 *
Ve
1.5e-07
0 2 4
0 0

0101101
*
Ed
 1e-07 1 1 0
1  3 0 4 6
2  5 1 0 4 6
2  6 4 0 4 6
2  7 5 2 4 6
2  8 5 4 4 6
2  9 5 5 4 6
0

0101000
+40 0 -42 0 *
Ve
1.5e-07
2 2 4
0 0

0101101
*
Ed
 1.5e-07 1 1 0
1  20 0 0 2
2  45 4 0 0 2
2  46 13 0 0 2
0

0101000
+40 0 -38 0 *
Ed
 1.5e-07 1 1 0
1  18 0 -4 -2
2  41 4 0 -4 -2
2  42 10 5 -4 -2
0

0101000
+38 0 -58 0 *
Ed
 1e-07 1 1 0
1  21 0 0 10
2  47 4 0 0 10
2  48 6 0 0 10
0

0101000
-52 0 +86 0 *
Wi

0101100
-51 0 +49 0 +47 0 -45 0 -43 0 +41 0 +39 0 -37 0 -36 0 +57 0 
+85 0 -35 0 *
Fa
0  1e-07 4 0

0111000
+34 0 *
Ed
 1e-07 1 1 0
1  22 0 0 2
2  49 7 0 0 2
2  50 6 0 0 2
0

0101000
-52 0 +80 0 *
Wi

0101100
-84 0 -35 0 +32 0 +61 0 *
Fa
0  1e-07 6 0

0111000
+31 0 *
Ed
 1e-07 1 1 0
1  23 0 0 2
2  51 7 0 0 2
2  52 8 0 0 2
0

0101000
-53 0 +81 0 *
Wi

0101100
-79 0 -29 0 +51 0 +32 0 *
Fa
0  1e-07 7 0

0111000
+28 0 *
Ed
 1e-07 1 1 0
1  24 0 0 2
2  53 1 0 0 2
2  54 8 0 0 2
0

0101000
-50 0 +78 0 *
Wi

0101100
-26 0 -49 0 +29 0 +77 0 *
Fa
0  1e-07 8 0

0111000
+25 0 *
Ed
 1.5e-07 1 1 0
1  25 0 -2 0
2  55 1 0 -2 0
2  56 9 0 -2 0
0

0101000
+48 0 -76 0 *
Wi

0101100
-75 0 -26 0 +47 0 -23 0 *
Fa
0  1e-07 1 0

0111000
+22 0 *
Ed
 1.5e-07 1 1 0
1  26 0 -2 0
2  57 10 5 -2 0
2  58 9 0 -2 0
0

0101000
+46 0 -74 0 *
Wi

0101100
-45 0 -20 0 +73 0 +23 0 *
Fa
0  1e-07 9 0

0111000
+19 0 *
Ed
 1.5e-07 1 1 0
1  27 0 -2 0
2  59 10 5 -2 0
2  60 12 0 -2 0
0

0101000
+44 0 -72 0 *
Wi

0101100
+20 0 -43 0 -17 0 -71 5 *
Fa
0  1e-07 10 5

0111000
+16 0 *
Ed
 1.5e-07 1 1 0
1  28 0 -2 0
2  61 1 0 -2 0
2  62 12 0 -2 0
0

0101000
+42 0 -70 0 *
Wi

0101100
-41 0 -17 0 +69 0 +14 0 *
Fa
0  1e-07 12 0

0111000
+13 0 *
Ed
 1.5e-07 1 1 0
1  29 0 -2 0
2  63 1 0 -2 0
2  64 13 0 -2 0
0

0101000
+40 0 -68 0 *
Wi

0101100
-67 0 +14 0 +39 0 -11 0 *
Fa
0  1e-07 1 0

0111000
+10 0 *
Ed
 1.5e-07 1 1 0
1  30 0 -2 0
2  65 10 5 -2 0
2  66 13 0 -2 0
0

0101000
+38 0 -66 0 *
Wi

0101100
-37 0 -8 0 +65 0 +11 0 *
Fa
0  1e-07 13 0

0111000
+7 0 *
Wi

0101100
+8 0 -36 0 -56 0 -63 5 *
Fa
0  1e-07 10 5

0111000
+5 0 *
Sh

0101100
-82 0 -59 0 +54 0 +33 0 -30 0 +27 0 +24 0 -21 0 -18 0 -15 0 
+12 0 -9 0 -6 0 -4 0 *
So

0100000
+3 0 *
Co

1100000
+2 0 *

+1 1  