
CASCADE Topology V1, (c) Matra-Datavision
Locations 6
1
              1               0               0             -10 
              0               1               0             -10 
              0               0               1               0 
1
              1               0               0              10 
              0               1               0              10 
              0               0               1               5 
2  2 -1 0
1
              1               0               0               0 
              0               1               0               0 
              0               0               1               1 
2  4 -1 2 -1 0
2  2 1 4 1 0
Curve2ds 77
1 0 0 0 1 
1 0 0 1 0 
1 0 5.8578643762690463 -0 -1 
1 5.8578643762690463 -1.4347629716474389e-15 -1 2.4492935982947064e-16 
1 0 0 1 0 
1 0 -0 1 -0 
1 0 5.8578643762690463 1 0 
1 5 0 0 1 
1 0 0 1 0 
1 5 5.8578643762690463 -0 -1 
1 5.8578643762690463 -1.4347629716474389e-15 -1 2.4492935982947064e-16 
1 0 0 1 0 
1 0 0 1 0 
1 0 5.8578643762690463 1 0 
1 0 0 0 1 
1 0 20 1 0 
1 0 5.8578643762690517 -0 -1 
1 5.8578643762690517 20 -1 2.4492935982947064e-16 
1 0 0 0 1 
1 0 -0 0 -1 
1 5.8578643762690463 0 2.4492935982947064e-16 1 
1 0 0 0 -1 
1 0 0 0 1 
1 5.8578643762690463 -1.4347629716474389e-15 2.4492935982947064e-16 1 
1 0 0 1 0 
1 0 20 1 0 
1 5 0 0 -1 
1 0 0 0 1 
1 5.8578643762690463 -1.4347629716474389e-15 2.4492935982947064e-16 1 
1 0 0 1 0 
2 9.9999999999999982 10 1 0 -0 1 7.0710678118654755
2 -4.142135623730951 10.000000000000002 -1 2.4492935982947064e-16 2.4492935982947064e-16 1 7.0710678118654755
2 0 0 1 0 -0 1 7.0710678118654755
1 0 -1 1 0 
2 0 0 1 0 -0 1 7.0710678118654755
2 10 10 1 0 -0 1 7.0710678118654755
2 -4.142135623730951 10.000000000000002 -1 2.4492935982947064e-16 2.4492935982947064e-16 1 7.0710678118654755
1 0 0 0 1 
1 5 -0 0 -1 
1 5.8578643762690463 0 2.4492935982947064e-16 1 
1 0 0 0 1 
1 0 0 1 0 
1 0 20 1 0 
1 5 0 0 1 
1 0 0 1 0 
1 0 0 1 0 
1 0 -20 1 -0 
1 0 5.8578643762690517 1 0 
1 5 0 0 1 
1 0 20 1 0 
1 5.8578643762690517 20 -1 2.4492935982947064e-16 
1 5 5.8578643762690517 -0 -1 
1 0 -20 1 0 
1 0 0 1 0 
1 0 5.8578643762690517 1 0 
1 0 0 0 -1 
1 20 0 0 1 
1 -4.3048332161133837e-16 20 1 0 
1 0 0 0 1 
1 20 0 0 1 
1 5 0 0 -1 
1 20 0 0 1 
1 0 -20 1 0 
1 0 20 1 0 
1 5.8578643762690463 0 2.4492935982947064e-16 1 
1 5.8578643762690463 -1.4347629716474389e-15 2.4492935982947064e-16 1 
1 -4.3048332161133837e-16 20 1 0 
1 5 0 0 1 
1 20 0 0 1 
1 0 0 0 -1 
1 6.2831853071795862 0 0 -1 
2 0 0 1 0 -0 1 7.0710678118654755
8 -1.0000005999999999 5.999999999062311e-07
1 3.1415926535897931 0 0 1 
8 -1.0000005999999999 5.999999999062311e-07
1 3.1415926535897931 0 0 1 
1 0 20.000000000000004 1 0 
2 -4.142135623730951 10.000000000000002 -1 2.4492935982947064e-16 2.4492935982947064e-16 1 7.0710678118654755
2 -4.142135623730951 10.000000000000002 -1 2.4492935982947064e-16 2.4492935982947064e-16 1 7.0710678118654755
Curves 30
1 0 0 0 1 0 -0 
1 5.8578643762690463 0 0 -0 0 1 
1 0 0 5 1 0 -0 
1 0 0 0 0 0 1 
1 0 20 0 1 0 -0 
1 5.8578643762690463 0 0 2.4492935982947064e-16 1 0 
1 0 0 0 -0 1 0 
1 20 0 0 0 0 1 
1 0 0 5 -0 1 0 
2 -14.142135623730951 1.7763568394002505e-15 0 0 -0 -1 -1 2.4492935982947064e-16 -0 2.4492935982947064e-16 1 -0 7.0710678118654755
2 0 0 0 0 -0 1 1 0 0 -0 1 0 7.0710678118654755
1 5.8578643762690463 0 5 2.4492935982947064e-16 1 0 
1 5.8578643762690463 0 0 -1 2.4492935982947064e-16 -0 
1 -14.142135623730955 4.898587196589413e-15 0 -0 0 1 
1 5.8578643762690463 0 5 -1 2.4492935982947064e-16 -0 
1 5.8578643762690517 20 0 -0 0 1 
1 0 20 5 1 0 -0 
1 0 20 0 0 0 1 
1 20 0 0 -0 1 0 
1 5.8578643762690517 20 0 -1 2.4492935982947064e-16 -0 
1 -14.142135623730955 4.898587196589413e-15 0 2.4492935982947064e-16 1 0 
1 20 0 5 -0 1 0 
1 20 20 0 0 0 1 
1 5.8578643762690517 20 5 -1 2.4492935982947064e-16 -0 
1 -14.142135623730955 4.898587196589413e-15 5 2.4492935982947064e-16 1 0 
1 -11.213203435596427 10.000000000000004 5 -0 0 1 
2 -14.142135623730951 1.7763568394002505e-15 0 0 -0 -1 -1 2.4492935982947064e-16 -0 2.4492935982947064e-16 1 -0 7.0710678118654755
1 2.9289321881345245 10 5 -0 -0 -1 
1 17.071067811865476 10 5 0 0 1 
1 -14.142135623730951 20.000000000000004 0 -0 0 1 
Polygon3D 0
PolygonOnTriangulations 0
Surfaces 17
1 0 0 0 -0 1 0 0 0 1 1 0 -0 
1 0 0 0 0 0 1 1 0 -0 -0 1 0 
1 5.8578643762690463 0 0 2.4492935982947064e-16 1 0 -0 0 1 -1 2.4492935982947064e-16 -0 
1 5.8578643762690463 0 0 -0 0 1 -1 2.4492935982947064e-16 -0 2.4492935982947064e-16 1 0 
1 5.8578643762690463 0 0 -1 2.4492935982947064e-16 -0 -0 0 1 -2.4492935982947064e-16 -1 -0 
1 0 0 5 0 0 1 1 0 -0 -0 1 0 
1 5.8578643762690463 0 5 -0 0 1 -1 2.4492935982947064e-16 -0 2.4492935982947064e-16 1 0 
1 0 0 0 1 0 -0 0 0 1 0 -1 0 
1 0 20 0 -0 1 0 0 0 1 1 0 -0 
1 5.8578643762690517 20 0 2.4492935982947064e-16 1 0 -0 0 1 -1 2.4492935982947064e-16 -0 
1 20 0 0 1 0 -0 0 0 1 0 -1 0 
2 -4.1421356237309519 10.000000000000002 5 -0 -0 -1 -1 2.4492935982947064e-16 -0 2.4492935982947064e-16 1 -0 7.0710678118654755
1 0 0 0 0 0 1 1 0 -0 -0 1 0 
2 10 10 5 -0 -0 -1 1 0 0 0 1 0 7.0710678118654755
1 0 0 0 0 0 1 1 0 -0 -0 1 0 
1 -14.142135623730951 1.7763568394002505e-15 0 -0 -0 1 -1 2.4492935982947064e-16 -0 2.4492935982947064e-16 1 -0 
1 -14.142135623730955 4.898587196589413e-15 0 -1 2.4492935982947064e-16 -0 -0 0 1 -2.4492935982947064e-16 -1 -0 
Triangulations 0

TShapes 115
Ve
1.00000001434763e-07
0 0 0
0 0

0101101
*
Ve
1.00000001371402e-07
5.85786437626905 0 0
0 0

0101101
*
Ed
 1.00000001371402e-07 1 1 0
1  1 0 0 5.85786437626905
2  1 1 0 0 5.85786437626905
2  2 2 0 0 5.85786437626905
2  3 3 0 0 5.85786437626905
2  4 4 0 0 5.85786437626905
0

0101000
+115 0 -114 0 *
Ve
1.00000001371402e-07
5.85786437626905 0 5
0 0

0101101
*
Ed
 1e-07 1 1 0
1  2 0 0 5
2  5 3 0 0 5
2  6 5 0 0 5
2  7 1 0 0 5
0

0101000
-112 0 +114 0 *
Ve
1.00000001434763e-07
0 0 5
0 0

0101101
*
Ed
 1.00000001371402e-07 1 1 0
1  3 0 0 5.85786437626905
2  8 1 0 0 5.85786437626905
2  9 6 0 0 5.85786437626905
2  10 3 0 0 5.85786437626905
2  11 7 0 0 5.85786437626905
0

0101000
+110 0 -112 0 *
Ed
 1.00000001434763e-07 1 1 0
1  4 0 0 5
2  12 8 0 0 5
2  13 1 0 0 5
2  14 3 0 0 5
0

0101000
-110 0 +115 0 *
Wi

0101100
-113 0 -111 0 +109 0 +108 0 *
Fa
0  1e-07 1 0

0111000
+107 0 *
Ve
1.00000000222045e-07
0 20 0
0 0

0101101
*
Ve
1.00000000222045e-07
5.85786437626905 20 0
0 0

0101101
*
Ed
 1.00000000222045e-07 1 1 0
1  5 0 0 5.85786437626905
2  15 9 0 0 5.85786437626905
2  16 2 0 0 5.85786437626905
2  17 10 0 0 5.85786437626905
2  18 4 0 0 5.85786437626905
0

0101000
+105 0 -104 0 *
Ed
 1e-07 1 1 0
1  6 0 0 20
2  19 4 0 0 20
2  20 5 0 0 20
2  21 2 0 0 20
0

0101000
-104 0 +114 0 *
Ed
 1e-07 1 1 0
1  7 0 0 20
2  22 8 0 0 20
2  23 2 0 0 20
2  24 4 0 0 20
0

0101000
-105 0 +115 0 *
Wi

0101100
-103 0 +102 0 +113 0 -101 0 *
Fa
0  1e-07 2 0

0111000
+100 0 *
Ve
1e-07
20 0 0
0 0

0101101
*
Ed
 1e-07 1 1 0
1  1 0 5.85786437626905 20
2  1 1 0 5.85786437626905 20
2  2 2 0 5.85786437626905 20
0

0101000
+114 0 -98 0 *
Ve
1e-07
20 0 5
0 0

0101101
*
Ed
 1e-07 1 1 0
1  8 0 0 5
2  25 11 0 0 5
2  26 1 0 0 5
0

0101000
-96 0 +98 0 *
Ed
 1e-07 1 1 0
1  3 0 5.85786437626905 20
2  8 1 0 5.85786437626905 20
2  9 6 0 5.85786437626905 20
0

0101000
+112 0 -96 0 *
Wi

0101100
-97 0 -95 0 +94 0 +111 0 *
Fa
0  1e-07 1 0

0111000
+93 0 *
Ve
1.00000047961635e-07
4.79616346638068e-14 4.26914382708673 5
0 0

0101101
*
Ed
 1e-07 1 1 0
1  9 0 0 4.26914382708673
2  27 8 0 0 4.26914382708673
2  28 6 0 0 4.26914382708673
2  29 7 0 0 4.26914382708673
0

0101000
+110 0 -91 0 *
Ve
2.68573359324384e-05
2.92893218813452 10 5
0 0

0101101
*
Ed
 1e-07 1 1 0
1  10 0 3.14159265358979 4.08653890945723
2  30 12 3 3.14159265358979 4.08653890945723
2  31 7 3 3.14159265358979 4.08653890945723
2  32 6 3 3.14159265358979 4.08653890945723
0

0101000
+89 3 -91 3 *
Ve
1.00000047961635e-07
5.857864376269 4.26914382708672 5
0 0

0101101
*
Ed
 1e-07 1 1 0
2  33 13 0 3.14159265358979 4.08653890945723
1  11 0 3.14159265358979 4.08653890945723
2  30 14 3 3.14159265358979 4.08653890945723
2  34 14 5 3.14159265358979 4.08653890945723
2  35 15 0 3.14159265358979 4.08653890945723
2  36 6 3 3.14159265358979 4.08653890945723
2  37 7 3 3.14159265358979 4.08653890945723
0

0101000
+89 3 -87 3 *
Ed
 1e-07 1 1 0
1  12 0 0 4.26914382708672
2  38 7 0 0 4.26914382708672
2  39 5 0 0 4.26914382708672
2  40 6 0 0 4.26914382708672
0

0101000
+112 0 -87 0 *
Wi

0101100
-90 0 +88 2 -86 2 +85 0 +109 0 *
Fa
0  1e-07 6 0

0111000
+84 0 *
Ve
1e-07
-14.142135623731 4.89858719658941e-15 0
0 0

0101101
*
Ed
 1e-07 1 1 0
1  13 0 5.85786437626905 20
2  41 3 0 5.85786437626905 20
2  42 4 0 5.85786437626905 20
0

0101000
+115 0 -82 0 *
Ve
1e-07
-14.142135623731 4.89858719658941e-15 5
0 0

0101101
*
Ed
 1e-07 1 1 0
1  14 0 0 5
2  43 3 0 0 5
0

0101000
-80 0 +82 0 *
Ed
 1e-07 1 1 0
1  15 0 5.85786437626905 20
2  44 3 0 5.85786437626905 20
2  45 7 0 5.85786437626905 20
0

0101000
+110 0 -80 0 *
Wi

0101100
-81 0 -79 0 +78 0 +108 0 *
Fa
0  1e-07 3 0

0111000
+77 0 *
Ve
1.00000000222045e-07
5.85786437626905 20 5
0 0

0101101
*
Ed
 1e-07 1 1 0
1  16 0 0 5
2  46 10 0 0 5
2  47 5 0 0 5
2  48 9 0 0 5
0

0101000
-75 0 +104 0 *
Ve
1.00000000222045e-07
0 20 5
0 0

0101101
*
Ed
 1.00000000222045e-07 1 1 0
1  17 0 0 5.85786437626905
2  49 9 0 0 5.85786437626905
2  50 6 0 0 5.85786437626905
2  51 7 0 0 5.85786437626905
2  52 10 0 0 5.85786437626905
0

0101000
+73 0 -75 0 *
Ed
 1e-07 1 1 0
1  18 0 0 5
2  53 8 0 0 5
2  54 9 0 0 5
2  55 10 0 0 5
0

0101000
-73 0 +105 0 *
Wi

0101100
-103 0 -74 0 +72 0 +71 0 *
Fa
0  1e-07 9 0

0111000
+70 0 *
Ve
1e-07
20 20 0
0 0

0101101
*
Ed
 1e-07 1 1 0
1  5 0 5.85786437626905 20
2  15 9 0 5.85786437626905 20
2  16 2 0 5.85786437626905 20
0

0101000
+104 0 -68 0 *
Ed
 1e-07 1 1 0
1  19 0 0 20
2  56 11 0 0 20
2  57 2 0 0 20
0

0101000
-68 0 +98 0 *
Wi

0101100
-67 0 +66 0 +97 0 -102 0 *
Fa
0  1e-07 2 0

0111000
+65 0 *
Ve
1e-07
-14.142135623731 20 0
0 0

0101101
*
Ed
 1e-07 1 1 0
1  20 0 5.85786437626905 20
2  58 4 0 5.85786437626905 20
2  59 10 0 5.85786437626905 20
0

0101000
+105 0 -63 0 *
Ed
 1e-07 1 1 0
1  21 0 0 20
2  60 4 0 0 20
0

0101000
-63 0 +82 0 *
Wi

0101100
-62 0 +61 0 +81 0 -101 0 *
Fa
0  1e-07 4 0

0111000
+60 0 *
Ve
1e-07
20 20 5
0 0

0101101
*
Ed
 1e-07 1 1 0
1  22 0 0 20
2  61 11 0 0 20
2  62 6 0 0 20
0

0101000
-58 0 +96 0 *
Ed
 1e-07 1 1 0
1  23 0 0 5
2  63 11 0 0 5
2  64 9 0 0 5
0

0101000
-58 0 +68 0 *
Wi

0101100
-95 0 -57 0 +56 0 +66 0 *
Fa
0  1e-07 11 0

0111000
+55 0 *
Ve
1e-07
7.07106781186548 0 0
0 0

0101101
*
Ed
 1e-07 1 1 0
2  33 13 0 4.08653890945723 6.28318530717959
1  11 0 4.08653890945723 6.28318530717959
2  30 14 3 4.08653890945723 6.28318530717959
2  34 14 5 4.08653890945723 6.28318530717959
2  35 15 0 4.08653890945723 6.28318530717959
2  36 6 3 4.08653890945723 6.28318530717959
0

0101000
+87 3 -53 0 *
Ve
1.00000052402527e-07
5.857864376269 15.7308561729133 5
0 0

0101101
*
Ed
 1e-07 1 1 0
2  33 13 0 0 2.19664639772235
1  11 0 0 2.19664639772235
2  30 14 3 0 2.19664639772235
2  34 14 5 0 2.19664639772235
2  35 15 0 0 2.19664639772235
2  36 6 3 0 2.19664639772235
0

0101000
+53 0 -51 3 *
Ed
 1e-07 1 1 0
1  12 0 15.7308561729133 20
2  38 7 0 15.7308561729133 20
2  39 5 0 15.7308561729133 20
2  65 6 0 15.7308561729133 20
0

0101000
+51 0 -75 0 *
Ed
 1e-07 1 1 0
1  17 0 5.85786437626905 20
2  49 9 0 5.85786437626905 20
2  50 6 0 5.85786437626905 20
0

0101000
+75 0 -58 0 *
Wi

0101100
-85 0 -52 2 -50 2 -49 0 -48 0 +57 0 +94 0 *
Fa
0  1e-07 6 0

0111000
+47 0 *
Ve
1e-07
-11.2132034355964 10 5
0 0

0101101
*
Ed
 1e-07 1 1 0
1  10 0 4.08653890945723 6.28318530717959
2  30 12 3 4.08653890945723 6.28318530717959
2  31 7 3 4.08653890945723 6.28318530717959
0

0101000
+91 3 -45 3 *
Ve
1.00000051958438e-07
5.19584375524573e-14 15.7308561729133 5
0 0

0101101
*
Ed
 1e-07 1 1 0
1  10 0 0 2.19664639772235
2  30 12 3 0 2.19664639772235
2  31 7 3 0 2.19664639772235
0

0101000
+45 3 -43 3 *
Ed
 1e-07 1 1 0
1  9 0 15.7308561729133 20
2  27 8 0 15.7308561729133 20
2  28 6 0 15.7308561729133 20
2  66 7 0 15.7308561729133 20
0

0101000
+43 0 -73 0 *
Ve
1e-07
-14.142135623731 20 5
0 0

0101101
*
Ed
 1e-07 1 1 0
1  24 0 5.85786437626905 20
2  67 7 0 5.85786437626905 20
2  68 10 0 5.85786437626905 20
0

0101000
+73 0 -40 0 *
Ed
 1e-07 1 1 0
1  25 0 0 20
2  69 7 0 0 20
0

0101000
-40 0 +80 0 *
Wi

0101100
-90 0 -44 2 -42 2 -41 0 -39 0 +38 0 +78 0 *
Fa
0  1e-07 7 0

0111000
+37 0 *
Ve
1e-07
-11.2132034355964 10 6
0 0

0101101
*
Ed
 1e-07 1 1 0
1  26 0 0 1
3  70 71CN 12 0 0 1
0

0101000
+45 0 -35 0 *
Ve
1.00000001776357e-07
2.92893218813452 10 6
0 0

0101101
*
Ed
 1e-07 1 1 0
1  27 0 3.14159265358979 6.28318530717959
2  34 12 5 3.14159265358979 6.28318530717959
2  72 16 0 3.14159265358979 6.28318530717959
0

0101000
+33 5 -35 5 *
Ed
 1e-07 1 1 0
1  28 0 -1 -0
2  73 14 0 -1 -0
2  74 12 0 -1 -0
0

0101000
+33 0 -89 0 *
Wi

0101100
-34 0 +32 6 -31 0 -88 2 -44 2 *
Fa
0  1e-07 12 0

0111000
+30 0 *
Ed
 1e-07 1 1 0
1  29 0 0 1
3  70 71CN 14 0 0 1
0

0101000
+53 2 -53 6 *
Ed
 1e-07 1 1 0
2  33 13 0 3.14159265358979 6.28318530717959
1  11 0 3.14159265358979 6.28318530717959
2  30 14 3 3.14159265358979 6.28318530717959
2  34 14 5 3.14159265358979 6.28318530717959
2  35 15 0 3.14159265358979 6.28318530717959
2  36 6 3 3.14159265358979 6.28318530717959
0

0101000
+33 5 -53 0 *
Wi

0101100
-28 0 +27 6 -31 0 -86 2 -52 2 *
Fa
0  1e-07 14 0

0111000
+26 0 *
Ed
 1e-07 1 1 0
1  30 0 0 5
2  75 10 0 0 5
0

0101000
-40 0 +63 0 *
Wi

0101100
-79 0 -38 0 +24 0 +61 0 *
Fa
0  1e-07 17 0

0111000
+23 0 *
Wi

0101100
-67 0 -56 0 +48 0 +74 0 *
Fa
0  1e-07 9 0

0111000
+21 0 *
Ed
 1e-07 1 1 0
2  33 13 0 2.19664639772235 3.14159265358979
1  11 0 2.19664639772235 3.14159265358979
2  30 14 3 2.19664639772235 3.14159265358979
2  34 14 5 2.19664639772235 3.14159265358979
2  35 15 0 2.19664639772235 3.14159265358979
2  36 6 3 2.19664639772235 3.14159265358979
2  76 7 3 2.19664639772235 3.14159265358979
0

0101000
+51 3 -89 3 *
Ed
 1e-07 1 1 0
1  10 0 2.19664639772235 3.14159265358979
2  30 12 3 2.19664639772235 3.14159265358979
2  31 7 3 2.19664639772235 3.14159265358979
2  77 6 3 2.19664639772235 3.14159265358979
0

0101000
+43 3 -89 3 *
Wi

0101100
-41 0 -72 0 +49 0 -19 2 +18 2 *
Fa
0  1e-07 6 0

0111000
+17 0 *
Wi

0101100
-62 0 -24 0 +39 0 +71 0 *
Fa
0  1e-07 10 0

0111000
+15 0 *
Ed
 1e-07 1 1 0
2  33 13 0 0 3.14159265358979
1  11 0 0 3.14159265358979
2  30 14 3 0 3.14159265358979
2  34 14 5 0 3.14159265358979
2  35 15 0 0 3.14159265358979
2  36 6 3 0 3.14159265358979
0

0101000
+53 0 -33 5 *
Wi

0101100
-50 2 -19 2 +31 0 +13 6 +28 0 *
Fa
0  1e-07 14 0

0111000
+12 0 *
Ed
 1e-07 1 1 0
1  27 0 0 3.14159265358979
2  34 12 5 0 3.14159265358979
2  72 16 0 0 3.14159265358979
0

0101000
+35 5 -33 5 *
Wi

0101100
-42 2 -18 2 +31 0 +10 6 +34 0 *
Fa
0  1e-07 12 0

0111000
+9 0 *
Wi

0101100
+10 6 +32 6 *
Fa
0  1e-07 16 6

0101000
+7 0 *
Wi

0101100
+13 6 +27 6 *
Fa
0  1e-07 15 6

0101000
+5 0 *
Sh

0101100
-106 0 -99 0 -92 0 +83 0 +76 0 +69 0 -64 0 +59 0 +54 0 +46 0 
-36 0 +29 0 -25 0 -22 0 +20 0 +16 0 -14 0 -11 0 +8 0 -6 0 
+4 0 *
So

0100000
+3 0 *
Co

1100000
+2 0 *

+1 1  