
CASCADE Topology V1, (c) Matra-Datavision
Locations 6
1
              1               0               0             -10 
              0               1               0             -10 
              0               0               1               0 
1
              1               0               0              10 
              0               1               0              10 
              0               0               1               5 
1
              1               0               0               0 
              0               1               0               0 
              0               0               1               1 
2  2 1 3 1 0
2  3 -1 2 -1 0
2  2 -1 0
Curve2ds 54
1 0 -14.142135623730955 0 1 
1 -14.142135623730955 4.898587196589413e-15 1 -1.4347629716474397e-16 
1 0 20 1 0 
1 0 -14.142135623730955 1 0 
1 0 -0 1 -0 
1 0 -14.142135623730955 1 0 
1 5 20 0 -1 
1 20 0 -1 1.4347629716474397e-16 
1 0 0 1 0 
1 0 20 1 0 
1 0 20 1 0 
1 -14.142135623730951 20.000000000000004 1 -1.0405657449064608e-16 
1 0 -14.142135623730951 0 1 
1 20 0 0 1 
1 -14.142135623730955 4.898587196589413e-15 2.4492935982947064e-16 1 
1 0 -0 0 -1 
1 -14.142135623730955 4.898587196589413e-15 2.4492935982947064e-16 1 
1 0 0 0 -1 
1 20 0 0 1 
1 20 0 0 1 
1 3.1415926535897931 0 1 0 
2 -4.142135623730951 10.000000000000002 1 -2.5121479338940401e-16 -2.5121479338940401e-16 -1 7.0710678118654755
1 0 0 1 0 
2 -4.142135623730951 10.000000000000002 -1 2.5121479338940401e-16 2.5121479338940401e-16 1 7.0710678118654755
1 3.1415926535897931 0 -1 -0 
2 10 10 -1 0 0 1 7.0710678118654755
1 6.2831853071795862 0 -1 -0 
2 10 10 1 0 0 -1 7.0710678118654755
1 5 0 0 -1 
1 20 0 0 1 
1 20 0 0 1 
1 20 20 -1 1.0405657449064608e-16 
1 5 20 0 -1 
1 20 0 0 1 
1 -14.142135623730955 4.898587196589413e-15 2.4492935982947064e-16 1 
1 5 -0 0 -1 
1 -14.142135623730955 4.898587196589413e-15 2.4492935982947064e-16 1 
1 0 20.000000000000004 1 0 
1 0 -14.142135623730951 1 0 
1 0 -20 1 -0 
1 0 -14.142135623730951 1 0 
1 0 -20 1 0 
1 0 20 1 0 
1 0 20 1 0 
1 0 0 0 -1 
1 6.2831853071795862 0 0 -1 
8 -1.0000005999999999 5.999999999062311e-07
1 3.1415926535897931 0 0 1 
8 -1.0000005999999999 5.999999999062311e-07
1 3.1415926535897931 0 0 1 
1 0 -1 1 0 
2 0 0 1 0 -0 1 7.0710678118654755
2 0 0 1 0 -0 1 7.0710678118654755
1 0 0 1 0 
2 0 0 1 0 -0 1 7.0710678118654755
2 10 10 1 0 -0 1 7.0710678118654755
Curves 21
8 0 34.142135623730951
1 -14.142135623730955 4.898587196589413e-15 0 1 -1.4347629716474397e-16 0 
1 -14.142135623730955 4.898587196589413e-15 0 -0 0 1 
8 0 34.142135623730951
1 20 0 5 -1 1.4347629716474397e-16 0 
1 20 0 0 0 0 1 
8 0 34.142135623730951
1 -14.142135623730951 20.000000000000004 0 1 -1.0405657449064608e-16 0 
1 -14.142135623730955 4.898587196589413e-15 0 2.4492935982947064e-16 1 0 
1 20 0 0 -0 1 0 
8 0 3.1415926535897931
2 -4.142135623730951 10.000000000000002 5 0 0 -1 1 -2.5121479338940401e-16 0 -2.5121479338940401e-16 -1 -0 7.0710678118654755
8 0 3.1415926535897931
2 -4.142135623730951 10.000000000000002 5 0 0 -1 -1 2.5121479338940401e-16 0 2.5121479338940401e-16 1 0 7.0710678118654755
8 0 3.1415926535897931
2 10 10 5 0 0 -1 -1 0 0 0 1 0 7.0710678118654755
8 0 3.1415926535897931
2 10 10 5 0 -0 -1 1 0 0 0 -1 0 7.0710678118654755
1 20 0 5 -0 1 0 
8 0 34.142135623730951
1 20 20 5 -1 1.0405657449064608e-16 0 
1 -14.142135623730955 4.898587196589413e-15 5 2.4492935982947064e-16 1 0 
1 -14.142135623730951 20.000000000000004 0 -0 0 1 
1 20 20 0 0 0 1 
1 -11.213203435596427 10.000000000000004 5 -0 0 1 
1 2.9289321881345245 10 5 -0 -0 -1 
2 -14.142135623730951 1.7763568394002505e-15 0 0 -0 -1 -1 2.4492935982947064e-16 -0 2.4492935982947064e-16 1 -0 7.0710678118654755
1 17.071067811865476 10 5 0 0 1 
2 0 0 0 0 -0 1 1 0 0 -0 1 0 7.0710678118654755
Polygon3D 0
PolygonOnTriangulations 0
Surfaces 19
1 0 0 0 -0 1 0 0 0 1 1 0 -0 
1 0 0 0 0 0 1 1 0 -0 -0 1 0 
1 5.8578643762690463 0 0 2.4492935982947064e-16 1 0 -0 0 1 -1 2.4492935982947064e-16 -0 
1 0 0 0 -0 1 0 0 0 1 1 0 -0 
1 -14.142135623730955 4.898587196589413e-15 0 -1 2.4492935982947064e-16 -0 -0 0 1 -2.4492935982947064e-16 -1 -0 
1 0 0 5 0 0 1 1 0 -0 -0 1 0 
1 20 0 0 1 0 -0 0 0 1 0 -1 0 
1 0 20 0 -0 1 0 0 0 1 1 0 -0 
1 5.8578643762690463 0 0 -0 0 1 -1 2.4492935982947064e-16 -0 2.4492935982947064e-16 1 0 
1 0 0 0 0 0 1 1 0 -0 -0 1 0 
2 -4.1421356237309519 10.000000000000002 5 -0 -0 -1 -1 2.4492935982947064e-16 -0 2.4492935982947064e-16 1 -0 7.0710678118654755
2 10 10 5 -0 -0 -1 1 0 0 0 1 0 7.0710678118654755
1 0 0 5 0 0 1 1 0 -0 -0 1 0 
1 5.8578643762690463 0 5 -0 0 1 -1 2.4492935982947064e-16 -0 2.4492935982947064e-16 1 0 
1 5.8578643762690517 20 0 2.4492935982947064e-16 1 0 -0 0 1 -1 2.4492935982947064e-16 -0 
1 0 20 0 -0 1 0 0 0 1 1 0 -0 
1 -14.142135623730951 1.7763568394002505e-15 0 -0 -0 1 -1 2.4492935982947064e-16 -0 2.4492935982947064e-16 1 -0 
1 0 0 0 0 0 1 1 0 -0 -0 1 0 
1 0 0 0 0 0 1 1 0 -0 -0 1 0 
Triangulations 0

TShapes 65
Ve
1e-07
-14.142135623731 4.89858719658941e-15 0
0 0

0101101
*
Ve
1e-07
20 0 0
0 0

0101101
*
Ed
 1e-07 1 1 0
1  1 0 0 34.142135623731
2  1 1 0 0 34.142135623731
2  2 2 0 0 34.142135623731
0

0101000
+65 0 -64 0 *
Ve
1e-07
-14.142135623731 4.89858719658941e-15 5
0 0

0101101
*
Ed
 1e-07 1 1 0
1  2 0 0 5
2  3 3 0 0 5
2  4 4 0 0 5
2  5 5 0 0 5
2  6 1 0 0 5
0

0101000
-62 0 +65 0 *
Ve
1e-07
20 0 5
0 0

0101101
*
Ed
 1e-07 1 1 0
1  3 0 0 34.142135623731
2  7 1 0 0 34.142135623731
2  8 6 0 0 34.142135623731
0

0101000
+60 0 -62 0 *
Ed
 1e-07 1 1 0
1  4 0 0 5
2  9 7 0 0 5
2  10 4 0 0 5
2  11 1 0 0 5
0

0101000
-60 0 +64 0 *
Wi

0101100
-63 0 +61 0 -59 0 -58 0 *
Fa
0  0 1 0

0111000
+57 0 *
Ve
1e-07
-14.142135623731 20 0
0 0

0101101
*
Ve
1e-07
20 20 0
0 0

0101101
*
Ed
 1e-07 1 1 0
1  5 0 0 34.142135623731
2  12 2 0 0 34.142135623731
2  13 8 0 0 34.142135623731
0

0101000
+55 0 -54 0 *
Ed
 1e-07 1 1 0
1  6 0 0 20
2  14 9 0 0 20
2  15 10 0 0 20
2  16 5 0 0 20
2  17 2 0 0 20
0

0101000
-55 0 +65 0 *
Ed
 1e-07 1 1 0
1  7 0 0 20
2  18 7 0 0 20
2  19 10 0 0 20
2  20 2 0 0 20
0

0101000
-54 0 +64 0 *
Wi

0101100
-53 0 -52 0 +63 0 +51 0 *
Fa
0  0 2 0

0111000
+50 0 *
Ve
2.68573359324384e-05
2.92893218813452 10 5
0 0

0101101
*
Ve
1e-07
-11.2132034355964 10 5
0 0

0101101
*
Ed
 1e-07 1 1 0
1  8 0 0 3.14159265358979
2  21 11 0 0 3.14159265358979
2  22 6 0 0 3.14159265358979
0

0101000
+48 0 -47 0 *
Ed
 1e-07 1 1 0
1  9 0 0 3.14159265358979
2  23 11 0 0 3.14159265358979
2  24 6 0 0 3.14159265358979
0

0101000
+47 0 -48 0 *
Wi

0101100
+46 0 +45 0 *
Ve
1e-07
7.07106781186548 0 0
0 0

0101101
*
Ed
 1e-07 1 1 0
1  10 0 0 3.14159265358979
2  25 12 0 0 3.14159265358979
2  26 6 0 0 3.14159265358979
0

0101000
+48 0 -43 2 *
Ed
 1e-07 1 1 0
1  11 0 0 3.14159265358979
2  27 12 0 0 3.14159265358979
2  28 6 0 0 3.14159265358979
0

0101000
+43 2 -48 0 *
Wi

0101100
+42 0 +41 0 *
Ve
1e-07
20 20 5
0 0

0101101
*
Ed
 1e-07 1 1 0
1  12 0 0 20
2  29 7 0 0 20
2  30 13 0 0 20
2  31 6 0 0 20
0

0101000
-39 0 +60 0 *
Ve
1e-07
-14.142135623731 20 5
0 0

0101101
*
Ed
 1e-07 1 1 0
1  13 0 0 34.142135623731
2  32 6 0 0 34.142135623731
2  33 8 0 0 34.142135623731
0

0101000
+39 0 -37 0 *
Ed
 1e-07 1 1 0
1  14 0 0 20
2  34 14 0 0 20
2  35 13 0 0 20
2  36 5 0 0 20
2  37 6 0 0 20
0

0101000
-37 0 +62 0 *
Wi

0101100
-59 0 +38 0 +36 0 -35 0 *
Fa
0  0 6 0

0111000
+44 0 +40 0 +34 0 *
Ed
 1e-07 1 1 0
1  15 0 0 5
2  38 15 0 0 5
2  39 16 0 0 5
2  40 5 0 0 5
2  41 8 0 0 5
0

0101000
-37 0 +55 0 *
Ed
 1e-07 1 1 0
1  16 0 0 5
2  42 7 0 0 5
2  43 16 0 0 5
2  44 8 0 0 5
0

0101000
-39 0 +54 0 *
Wi

0101100
-53 0 +32 0 -36 0 -31 0 *
Fa
0  0 8 0

0111000
+30 0 *
Wi

0101100
-58 0 -38 0 +31 0 +51 0 *
Fa
0  1e-07 7 0

0111000
+28 0 *
Ve
1e-07
-11.2132034355964 10 6
0 0

0101101
*
Ed
 1e-07 1 1 0
1  17 0 0 1
3  45 46CN 11 0 0 1
0

0101000
+47 0 -26 0 *
Ve
1.00000001776357e-07
2.92893218813452 10 6
0 0

0101101
*
Ed
 1e-07 1 1 0
1  18 0 -1 -0
2  47 12 0 -1 -0
2  48 11 0 -1 -0
0

0101000
+24 0 -48 0 *
Ed
 1e-07 1 1 0
1  19 0 3.14159265358979 6.28318530717959
2  49 11 5 3.14159265358979 6.28318530717959
2  50 17 0 3.14159265358979 6.28318530717959
0

0101000
+24 5 -26 5 *
Wi

0101100
-25 0 -46 0 -23 0 +22 4 *
Fa
0  1e-07 11 0

0111000
+21 0 *
Ed
 1e-07 1 1 0
1  20 0 0 1
3  45 46CN 12 0 0 1
0

0101000
+43 2 -43 4 *
Ed
 1e-07 1 1 0
2  51 18 0 3.14159265358979 6.28318530717959
1  21 0 3.14159265358979 6.28318530717959
2  52 12 6 3.14159265358979 6.28318530717959
2  49 12 5 3.14159265358979 6.28318530717959
2  53 19 0 3.14159265358979 6.28318530717959
2  54 13 6 3.14159265358979 6.28318530717959
0

0101000
+24 5 -43 0 *
Wi

0101100
-19 0 +41 0 -23 0 +18 4 *
Fa
0  1e-07 12 0

0111000
+17 0 *
Wi

0101100
-61 0 -35 0 +32 0 +52 0 *
Fa
0  1e-07 5 0

0111000
+15 0 *
Ed
 1e-07 1 1 0
2  51 18 0 0 3.14159265358979
1  21 0 0 3.14159265358979
2  52 12 6 0 3.14159265358979
2  49 12 5 0 3.14159265358979
2  53 19 0 0 3.14159265358979
2  54 13 6 0 3.14159265358979
0

0101000
+43 0 -24 5 *
Wi

0101100
+42 0 +19 0 +13 4 +23 0 *
Fa
0  1e-07 12 0

0111000
+12 0 *
Ed
 1e-07 1 1 0
1  19 0 0 3.14159265358979
2  49 11 5 0 3.14159265358979
2  50 17 0 0 3.14159265358979
0

0101000
+26 5 -24 5 *
Wi

0101100
-45 0 +25 0 +10 4 +23 0 *
Fa
0  1e-07 11 0

0111000
+9 0 *
Wi

0101100
+10 4 +22 4 *
Fa
0  1e-07 17 4

0101000
+7 0 *
Wi

0101100
+13 4 +18 4 *
Fa
0  1e-07 19 4

0101000
+5 0 *
Sh

0101100
-56 0 -49 0 +33 0 +29 0 +27 0 +20 0 -16 0 -14 0 -11 0 +8 0 
-6 0 +4 0 *
So

0100000
+3 0 *
Co

1100000
+2 0 *

+1 1  