999
DXF created by Macad3D
0
SECTION
2
ENTITIES
0
POLYLINE
8
0
66
1
10
0
20
0
30
0
70
0
0
VERTEX
8
0
10
0
20
0
30
0
0
VERTEX
8
0
10
0.09381103515625
20
0.173126220703125
30
0
0
VERTEX
8
0
10
0.18798828125
20
0.318603515625
30
0
0
VERTEX
8
0
10
0.28289794921875
20
0.438079833984375
30
0
0
VERTEX
8
0
10
0.37890625
20
0.533203125
30
0
0
VERTEX
8
0
10
0.47637939453125
20
0.605621337890625
30
0
0
VERTEX
8
0
10
0.57568359375
20
0.656982421875
30
0
0
VERTEX
8
0
10
0.78125
20
0.703125
30
0
0
VERTEX
8
0
10
0.99853515625
20
0.684814453125
30
0
0
VERTEX
8
0
10
1.23046875
20
0.615234375
30
0
0
VERTEX
8
0
10
1.47998046875
20
0.507568359375
30
0
0
VERTEX
8
0
10
1.75
20
0.375
30
0
0
VERTEX
8
0
10
2.04345703125
20
0.230712890625
30
0
0
VERTEX
8
0
10
2.36328125
20
0.087890625
30
0
0
VERTEX
8
0
10
2.71240234375
20
-0.040283203125
30
0
0
VERTEX
8
0
10
3.09375
20
-0.140625
30
0
0
VERTEX
8
0
10
3.51025390625
20
-0.199951171875
30
0
0
VERTEX
8
0
10
3.96484375
20
-0.205078125
30
0
0
VERTEX
8
0
10
4.20733642578125
20
-0.183197021484375
30
0
0
VERTEX
8
0
10
4.46044921875
20
-0.142822265625
30
0
0
VERTEX
8
0
10
4.72454833984375
20
-0.082305908203125
30
0
0
VERTEX
8
0
10
5
20
0
30
0
0
SEQEND
0
POLYLINE
8
0
66
1
10
0
20
0
30
0
70
0
0
VERTEX
8
0
10
5
20
0
30
0
0
VERTEX
8
0
10
5.36376953125
20
-0.02197265625
30
0
0
VERTEX
8
0
10
5.70703125
20
-0.08203125
30
0
0
VERTEX
8
0
10
6.03271484375
20
-0.17138671875
30
0
0
VERTEX
8
0
10
6.34375
20
-0.28125
30
0
0
VERTEX
8
0
10
6.93359375
20
-0.52734375
30
0
0
VERTEX
8
0
10
7.5
20
-0.75
30
0
0
VERTEX
8
0
10
7.78173828125
20
-0.83056640625
30
0
0
VERTEX
8
0
10
8.06640625
20
-0.87890625
30
0
0
VERTEX
8
0
10
8.35693359375
20
-0.88623046875
30
0
0
VERTEX
8
0
10
8.65625
20
-0.84375
30
0
0
VERTEX
8
0
10
8.96728515625
20
-0.74267578125
30
0
0
VERTEX
8
0
10
9.29296875
20
-0.57421875
30
0
0
VERTEX
8
0
10
9.46221923828125
20
-0.46197509765625
30
0
0
VERTEX
8
0
10
9.63623046875
20
-0.32958984375
30
0
0
VERTEX
8
0
10
9.81536865234375
20
-0.17596435546875
30
0
0
VERTEX
8
0
10
10
20
0
30
0
0
SEQEND
0
ENDSEC
0
EOF
