999
DXF created by Macad3D
0
SECTION
2
HEADER
9
$ACADVER
1
AC1015
9
$HANDSEED
5
FFFFFF
9
$ANGDIR
70
1
9
$MEASUREMENT
70
1
0
ENDSEC
0
SECTION
2
CLASSES
0
ENDSEC
0
SECTION
2
TABLES
0
TABLE
2
VPORT
5
1
100
AcDbSymbolTable
70
0
0
ENDTAB
0
TABLE
2
LTYPE
5
2
100
AcDbSymbolTable
70
3
0
LTYPE
5
3
100
AcDbSymbolTableRecord
100
AcDbLinetypeTableRecord
2
BYBLOCK
70
0
3

72
65
73
0
40
0
0
LTYPE
5
4
100
AcDbSymbolTableRecord
100
AcDbLinetypeTableRecord
2
BYLAYER
70
0
3

72
65
73
0
40
0
0
LTYPE
5
5
100
AcDbSymbolTableRecord
100
AcDbLinetypeTableRecord
2
CONTINUOUS
70
0
3
Solid line
72
65
73
0
40
0
0
ENDTAB
0
TABLE
2
LAYER
5
6
100
AcDbSymbolTable
70
1
0
LAYER
5
7
100
AcDbSymbolTableRecord
100
AcDbLayerTableRecord
2
0
70
0
6
CONTINUOUS
390
0
0
ENDTAB
0
TABLE
2
STYLE
5
8
100
AcDbSymbolTable
70
1
0
STYLE
5
9
100
AcDbSymbolTableRecord
100
AcDbTextStyleTableRecord
2
STANDARD
70
0
40
0
41
1
50
0
71
0
42
2.5
3
txt
4

0
ENDTAB
0
TABLE
2
VIEW
5
A
100
AcDbSymbolTable
70
0
0
ENDTAB
0
TABLE
2
UCS
5
B
100
AcDbSymbolTable
70
0
0
ENDTAB
0
TABLE
2
APPID
5
C
100
AcDbSymbolTable
70
1
0
APPID
5
D
100
AcDbSymbolTableRecord
100
AcDbRegAppTableRecord
2
ACAD
70
0
0
ENDTAB
0
TABLE
2
DIMSTYLE
5
E
100
AcDbSymbolTable
70
1
100
AcDbDimStyleTable
0
DIMSTYLE
105
F
100
AcDbSymbolTableRecord
100
AcDbDimStyleTableRecord
2
STANDARD
70
0
0
ENDTAB
0
TABLE
2
BLOCK_RECORD
5
10
100
AcDbSymbolTable
70
2
0
BLOCK_RECORD
5
11
100
AcDbSymbolTableRecord
100
AcDbBlockTableRecord
2
*MODEL_SPACE
0
BLOCK_RECORD
5
12
100
AcDbSymbolTableRecord
100
AcDbBlockTableRecord
2
*PAPER_SPACE
0
ENDTAB
0
ENDSEC
0
SECTION
2
BLOCKS
0
BLOCK
5
13
100
AcDbEntity
8
0
100
AcDbBlockBegin
2
*Model_Space
70
0
10
0
20
0
30
0
3
*Model_Space
1

0
ENDBLK
5
14
100
AcDbEntity
8
0
100
AcDbBlockEnd
0
BLOCK
5
15
100
AcDbEntity
8
0
100
AcDbBlockBegin
2
*Paper_Space
70
0
10
0
20
0
30
0
3
*Paper_Space
1

0
ENDBLK
5
16
100
AcDbEntity
8
0
100
AcDbBlockEnd
0
ENDSEC
0
SECTION
2
ENTITIES
0
LWPOLYLINE
5
17
100
AcDbEntity
8
0
100
AcDbPolyline
90
22
70
0
10
0
20
0
30
0
10
0.09381103515625
20
0.173126220703125
30
0
10
0.18798828125
20
0.318603515625
30
0
10
0.28289794921875
20
0.438079833984375
30
0
10
0.37890625
20
0.533203125
30
0
10
0.47637939453125
20
0.605621337890625
30
0
10
0.57568359375
20
0.656982421875
30
0
10
0.78125
20
0.703125
30
0
10
0.99853515625
20
0.684814453125
30
0
10
1.23046875
20
0.615234375
30
0
10
1.47998046875
20
0.507568359375
30
0
10
1.75
20
0.375
30
0
10
2.04345703125
20
0.230712890625
30
0
10
2.36328125
20
0.087890625
30
0
10
2.71240234375
20
-0.040283203125
30
0
10
3.09375
20
-0.140625
30
0
10
3.51025390625
20
-0.199951171875
30
0
10
3.96484375
20
-0.205078125
30
0
10
4.20733642578125
20
-0.183197021484375
30
0
10
4.46044921875
20
-0.142822265625
30
0
10
4.72454833984375
20
-0.082305908203125
30
0
10
5
20
0
30
0
0
LWPOLYLINE
5
18
100
AcDbEntity
8
0
100
AcDbPolyline
90
17
70
0
10
5
20
0
30
0
10
5.36376953125
20
-0.02197265625
30
0
10
5.70703125
20
-0.08203125
30
0
10
6.03271484375
20
-0.17138671875
30
0
10
6.34375
20
-0.28125
30
0
10
6.93359375
20
-0.52734375
30
0
10
7.5
20
-0.75
30
0
10
7.78173828125
20
-0.83056640625
30
0
10
8.06640625
20
-0.87890625
30
0
10
8.35693359375
20
-0.88623046875
30
0
10
8.65625
20
-0.84375
30
0
10
8.96728515625
20
-0.74267578125
30
0
10
9.29296875
20
-0.57421875
30
0
10
9.46221923828125
20
-0.46197509765625
30
0
10
9.63623046875
20
-0.32958984375
30
0
10
9.81536865234375
20
-0.17596435546875
30
0
10
10
20
0
30
0
0
ENDSEC
0
SECTION
2
OBJECTS
0
DICTIONARY
5
19
100
AcDbDictionary
281
1
3
ACAD_GROUP
350
1A
0
DICTIONARY
5
1A
100
AcDbDictionary
281
1
0
ENDSEC
0
EOF
