999
DXF created by Macad3D
0
SECTION
2
ENTITIES
0
LINE
8
0
10
0
20
0
30
0
11
5
21
5
31
0
0
POLYLINE
8
0
66
1
10
0
20
0
30
0
70
1
0
VERTEX
8
0
10
5.1213203435596
20
4.6213203435596
30
0
0
VERTEX
8
0
10
4.9724884370905
20
4.7497227754887
30
0
0
VERTEX
8
0
10
4.8046603887003
20
4.8564591472662
30
0
0
VERTEX
8
0
10
4.6194524742392
20
4.9405015292839
30
0
0
VERTEX
8
0
10
4.4186483471684
20
5.0010405474608
30
0
0
VERTEX
8
0
10
4.2041818610023
20
5.0374931779578
30
0
0
VERTEX
8
0
10
3.9781184452419
20
5.0495083620161
30
0
0
VERTEX
8
0
10
3.74263521416
20
5.0369703868453
30
0
0
VERTEX
8
0
10
3.5
20
5
30
0
0
VERTEX
8
0
10
3.2525495125122
20
4.9389532465157
30
0
0
VERTEX
8
0
10
3.0026668351613
20
4.85441804
30
0
0
VERTEX
8
0
10
2.7527584747299
20
4.7472085007033
30
0
0
VERTEX
8
0
10
2.5052311853429
20
4.6183571150957
30
0
0
VERTEX
8
0
10
2.2624687901092
20
4.4691047924579
30
0
0
VERTEX
8
0
10
2.0268092236023
20
4.3008889142466
30
0
0
VERTEX
8
0
10
1.5857864376269
20
3.9142135623731
30
0
0
VERTEX
8
0
10
1.1991110857534
20
3.4731907763977
30
0
0
VERTEX
8
0
10
1.0308952075421
20
3.2375312098908
30
0
0
VERTEX
8
0
10
0.88164288490433
20
2.9947688146571
30
0
0
VERTEX
8
0
10
0.75279149929671
20
2.7472415252701
30
0
0
VERTEX
8
0
10
0.64558195999999
20
2.4973331648387
30
0
0
VERTEX
8
0
10
0.56104675348429
20
2.2474504874878
30
0
0
VERTEX
8
0
10
0.5
20
2
30
0
0
VERTEX
8
0
10
0.46302961315473
20
1.75736478584
30
0
0
VERTEX
8
0
10
0.45049163798386
20
1.5218815547581
30
0
0
VERTEX
8
0
10
0.46250682204225
20
1.2958181389977
30
0
0
VERTEX
8
0
10
0.49895945253924
20
1.0813516528316
30
0
0
VERTEX
8
0
10
0.55949847071611
20
0.88054752576083
30
0
0
VERTEX
8
0
10
0.64354085273384
20
0.69533961129972
30
0
0
VERTEX
8
0
10
0.75027722451133
20
0.52751156290952
30
0
0
VERTEX
8
0
10
0.87867965644036
20
0.37867965644036
30
0
0
VERTEX
8
0
10
1.0275115629095
20
0.25027722451133
30
0
0
VERTEX
8
0
10
1.1953396112997
20
0.14354085273384
30
0
0
VERTEX
8
0
10
1.3805475257608
20
0.059498470716114
30
0
0
VERTEX
8
0
10
1.5813516528316
20
-0.0010405474607618
30
0
0
VERTEX
8
0
10
1.7958181389977
20
-0.037493177957754
30
0
0
VERTEX
8
0
10
2.0218815547581
20
-0.049508362016141
30
0
0
VERTEX
8
0
10
2.25736478584
20
-0.036970386845272
30
0
0
VERTEX
8
0
10
2.5
20
-4.4408920985006E-16
30
0
0
VERTEX
8
0
10
2.7474504874878
20
0.061046753484288
30
0
0
VERTEX
8
0
10
2.9973331648387
20
0.14558195999999
30
0
0
VERTEX
8
0
10
3.2472415252701
20
0.25279149929671
30
0
0
VERTEX
8
0
10
3.4947688146571
20
0.38164288490433
30
0
0
VERTEX
8
0
10
3.7375312098908
20
0.53089520754211
30
0
0
VERTEX
8
0
10
3.9731907763977
20
0.69911108575344
30
0
0
VERTEX
8
0
10
4.4142135623731
20
1.0857864376269
30
0
0
VERTEX
8
0
10
4.8008889142466
20
1.5268092236023
30
0
0
VERTEX
8
0
10
4.9691047924579
20
1.7624687901092
30
0
0
VERTEX
8
0
10
5.1183571150957
20
2.0052311853429
30
0
0
VERTEX
8
0
10
5.2472085007033
20
2.2527584747299
30
0
0
VERTEX
8
0
10
5.35441804
20
2.5026668351613
30
0
0
VERTEX
8
0
10
5.4389532465157
20
2.7525495125122
30
0
0
VERTEX
8
0
10
5.5
20
3
30
0
0
VERTEX
8
0
10
5.5369703868453
20
3.24263521416
30
0
0
VERTEX
8
0
10
5.5495083620161
20
3.4781184452419
30
0
0
VERTEX
8
0
10
5.5374931779578
20
3.7041818610023
30
0
0
VERTEX
8
0
10
5.5010405474608
20
3.9186483471684
30
0
0
VERTEX
8
0
10
5.4405015292839
20
4.1194524742392
30
0
0
VERTEX
8
0
10
5.3564591472662
20
4.3046603887003
30
0
0
VERTEX
8
0
10
5.2497227754887
20
4.4724884370905
30
0
0
SEQEND
0
ENDSEC
0
EOF
