999
DXF created by Macad3D
0
SECTION
2
ENTITIES
0
LINE
8
0
10
0
20
0
30
0
11
5
21
5
31
0
0
POLYLINE
8
0
66
1
10
0
20
0
30
0
70
1
0
VERTEX
8
0
10
0.878679656440357
20
0.378679656440358
30
0
0
VERTEX
8
0
10
1.02751156290952
20
0.250277224511335
30
0
0
VERTEX
8
0
10
1.19533961129972
20
0.143540852733836
30
0
0
VERTEX
8
0
10
1.38054752576083
20
0.0594984707161137
30
0
0
VERTEX
8
0
10
1.58135165283163
20
-0.00104054746076132
30
0
0
VERTEX
8
0
10
1.79581813899774
20
-0.0374931779577534
30
0
0
VERTEX
8
0
10
2.02188155475806
20
-0.0495083620161401
30
0
0
VERTEX
8
0
10
2.25736478584
20
-0.0369703868452724
30
0
0
VERTEX
8
0
10
2.5
20
0
30
0
0
VERTEX
8
0
10
2.7474504874878
20
0.0610467534842885
30
0
0
VERTEX
8
0
10
2.9973331648387
20
0.145581959999988
30
0
0
VERTEX
8
0
10
3.24724152527005
20
0.252791499296709
30
0
0
VERTEX
8
0
10
3.49476881465708
20
0.381642884904328
30
0
0
VERTEX
8
0
10
3.73753120989082
20
0.530895207542111
30
0
0
VERTEX
8
0
10
3.97319077639773
20
0.699111085753438
30
0
0
VERTEX
8
0
10
4.41421356237309
20
1.0857864376269
30
0
0
VERTEX
8
0
10
4.80088891424656
20
1.52680922360227
30
0
0
VERTEX
8
0
10
4.96910479245789
20
1.76246879010918
30
0
0
VERTEX
8
0
10
5.11835711509567
20
2.00523118534292
30
0
0
VERTEX
8
0
10
5.24720850070329
20
2.25275847472995
30
0
0
VERTEX
8
0
10
5.35441804000001
20
2.50266683516129
30
0
0
VERTEX
8
0
10
5.43895324651571
20
2.7525495125122
30
0
0
VERTEX
8
0
10
5.5
20
3
30
0
0
VERTEX
8
0
10
5.53697038684527
20
3.24263521416
30
0
0
VERTEX
8
0
10
5.54950836201614
20
3.47811844524194
30
0
0
VERTEX
8
0
10
5.53749317795775
20
3.70418186100226
30
0
0
VERTEX
8
0
10
5.50104054746076
20
3.91864834716837
30
0
0
VERTEX
8
0
10
5.44050152928389
20
4.11945247423917
30
0
0
VERTEX
8
0
10
5.35645914726616
20
4.30466038870028
30
0
0
VERTEX
8
0
10
5.24972277548867
20
4.47248843709048
30
0
0
VERTEX
8
0
10
5.12132034355964
20
4.62132034355964
30
0
0
VERTEX
8
0
10
4.97248843709048
20
4.74972277548867
30
0
0
VERTEX
8
0
10
4.80466038870028
20
4.85645914726616
30
0
0
VERTEX
8
0
10
4.61945247423917
20
4.94050152928389
30
0
0
VERTEX
8
0
10
4.41864834716837
20
5.00104054746076
30
0
0
VERTEX
8
0
10
4.20418186100226
20
5.03749317795775
30
0
0
VERTEX
8
0
10
3.97811844524194
20
5.04950836201614
30
0
0
VERTEX
8
0
10
3.74263521416
20
5.03697038684527
30
0
0
VERTEX
8
0
10
3.5
20
5
30
0
0
VERTEX
8
0
10
3.2525495125122
20
4.93895324651571
30
0
0
VERTEX
8
0
10
3.00266683516129
20
4.85441804000001
30
0
0
VERTEX
8
0
10
2.75275847472995
20
4.74720850070329
30
0
0
VERTEX
8
0
10
2.50523118534292
20
4.61835711509567
30
0
0
VERTEX
8
0
10
2.26246879010919
20
4.46910479245789
30
0
0
VERTEX
8
0
10
2.02680922360227
20
4.30088891424656
30
0
0
VERTEX
8
0
10
1.58578643762691
20
3.9142135623731
30
0
0
VERTEX
8
0
10
1.19911108575344
20
3.47319077639773
30
0
0
VERTEX
8
0
10
1.03089520754211
20
3.23753120989082
30
0
0
VERTEX
8
0
10
0.881642884904328
20
2.99476881465708
30
0
0
VERTEX
8
0
10
0.752791499296709
20
2.74724152527005
30
0
0
VERTEX
8
0
10
0.645581959999989
20
2.49733316483871
30
0
0
VERTEX
8
0
10
0.561046753484288
20
2.2474504874878
30
0
0
VERTEX
8
0
10
0.5
20
2
30
0
0
VERTEX
8
0
10
0.463029613154728
20
1.75736478584
30
0
0
VERTEX
8
0
10
0.45049163798386
20
1.52188155475806
30
0
0
VERTEX
8
0
10
0.462506822042247
20
1.29581813899774
30
0
0
VERTEX
8
0
10
0.498959452539238
20
1.08135165283163
30
0
0
VERTEX
8
0
10
0.559498470716113
20
0.88054752576083
30
0
0
VERTEX
8
0
10
0.643540852733835
20
0.695339611299723
30
0
0
VERTEX
8
0
10
0.750277224511335
20
0.527511562909518
30
0
0
VERTEX
8
0
10
0.878679656440357
20
0.378679656440358
30
0
0
SEQEND
0
ENDSEC
0
EOF
