999
DXF created by Macad3D
0
SECTION
2
ENTITIES
0
POLYLINE
8
0
66
1
10
0
20
0
30
0
70
0
0
VERTEX
8
0
10
5
20
0
30
0
0
VERTEX
8
0
10
4.88272176635923
20
0.186403734003515
30
0
0
VERTEX
8
0
10
4.72805079959679
20
0.351751204838717
30
0
0
VERTEX
8
0
10
4.53747666567437
20
0.494450025973343
30
0
0
VERTEX
8
0
10
4.31283469768006
20
0.613125929752753
30
0
0
VERTEX
8
0
10
4.05628832056742
20
0.706636002348706
30
0
0
VERTEX
8
0
10
3.77030821619058
20
0.774079690644295
30
0
0
VERTEX
8
0
10
3.4576485292873
20
0.814807475052765
30
0
0
VERTEX
8
0
10
3.12132034355964
20
0.828427124746191
30
0
0
VERTEX
8
0
10
2.76456268329185
20
0.814807475052765
30
0
0
VERTEX
8
0
10
2.39081131977586
20
0.774079690644295
30
0
0
VERTEX
8
0
10
2.00366568295564
20
0.706636002348706
30
0
0
VERTEX
8
0
10
1.60685419694907
20
0.613125929752753
30
0
0
VERTEX
8
0
10
1.20419837328564
20
0.494450025973343
30
0
0
VERTEX
8
0
10
0.799576007661283
20
0.351751204838718
30
0
0
VERTEX
8
0
10
0.396883834646046
20
0.186403734003515
30
0
0
VERTEX
8
0
10
0
20
4.44089209850063E-16
30
0
0
SEQEND
0
POLYLINE
8
0
66
1
10
0
20
0
30
0
70
0
0
VERTEX
8
0
10
5
20
0
30
0
0
VERTEX
8
0
10
5.11727823364077
20
-0.186403734003515
30
0
0
VERTEX
8
0
10
5.27194920040321
20
-0.351751204838717
30
0
0
VERTEX
8
0
10
5.46252333432563
20
-0.494450025973343
30
0
0
VERTEX
8
0
10
5.68716530231994
20
-0.613125929752753
30
0
0
VERTEX
8
0
10
5.94371167943258
20
-0.706636002348706
30
0
0
VERTEX
8
0
10
6.22969178380942
20
-0.774079690644295
30
0
0
VERTEX
8
0
10
6.5423514707127
20
-0.814807475052765
30
0
0
VERTEX
8
0
10
6.87867965644036
20
-0.828427124746191
30
0
0
VERTEX
8
0
10
7.23543731670815
20
-0.814807475052765
30
0
0
VERTEX
8
0
10
7.60918868022414
20
-0.774079690644295
30
0
0
VERTEX
8
0
10
7.99633431704436
20
-0.706636002348706
30
0
0
VERTEX
8
0
10
8.39314580305093
20
-0.613125929752753
30
0
0
VERTEX
8
0
10
8.79580162671436
20
-0.494450025973343
30
0
0
VERTEX
8
0
10
9.20042399233872
20
-0.351751204838718
30
0
0
VERTEX
8
0
10
9.60311616535395
20
-0.186403734003515
30
0
0
VERTEX
8
0
10
10
20
-4.44089209850063E-16
30
0
0
SEQEND
0
ENDSEC
0
EOF
