<?xml version="1.0" encoding="UTF-8" standalone="no"?>
<svg
   xmlns:dc="http://purl.org/dc/elements/1.1/"
   xmlns:cc="http://creativecommons.org/ns#"
   xmlns:rdf="http://www.w3.org/1999/02/22-rdf-syntax-ns#"
   xmlns:svg="http://www.w3.org/2000/svg"
   xmlns="http://www.w3.org/2000/svg"
   xmlns:sodipodi="http://sodipodi.sourceforge.net/DTD/sodipodi-0.dtd"
   xmlns:inkscape="http://www.inkscape.org/namespaces/inkscape"
   sodipodi:docname="Sketch-SegmentEllipticalArcCenter.svg"
   inkscape:version="1.0 (4035a4fb49, 2020-05-01)"
   id="svg8"
   version="1.1"
   viewBox="0 0 16.933333 16.933333"
   height="64"
   width="64">
  <defs
     id="defs2" />
  <sodipodi:namedview
     inkscape:object-paths="false"
     inkscape:snap-object-midpoints="true"
     inkscape:snap-bbox-midpoints="true"
     inkscape:bbox-nodes="false"
     inkscape:bbox-paths="false"
     inkscape:snap-bbox="false"
     inkscape:snap-global="true"
     inkscape:snap-nodes="true"
     inkscape:object-nodes="false"
     inkscape:snap-others="true"
     inkscape:snap-to-guides="false"
     inkscape:window-maximized="1"
     inkscape:window-y="14"
     inkscape:window-x="1912"
     inkscape:window-height="987"
     inkscape:window-width="1680"
     inkscape:pagecheckerboard="true"
     units="px"
     showgrid="false"
     inkscape:document-rotation="0"
     inkscape:current-layer="layer1"
     inkscape:document-units="px"
     inkscape:cy="38.913851"
     inkscape:cx="48.90407"
     inkscape:zoom="11.2"
     inkscape:pageshadow="2"
     inkscape:pageopacity="0.0"
     borderopacity="1.0"
     bordercolor="#666666"
     pagecolor="#ffffff"
     id="base">
    <inkscape:grid
       visible="false"
       dotted="false"
       snapvisiblegridlinesonly="false"
       spacingy="0.26458333"
       spacingx="0.26458333"
       id="grid835"
       type="xygrid" />
  </sodipodi:namedview>
  <metadata
     id="metadata5">
    <rdf:RDF>
      <cc:Work
         rdf:about="">
        <dc:format>image/svg+xml</dc:format>
        <dc:type
           rdf:resource="http://purl.org/dc/dcmitype/StillImage" />
        <dc:title />
      </cc:Work>
    </rdf:RDF>
  </metadata>
  <g
     id="layer1"
     inkscape:groupmode="layer"
     inkscape:label="Layer 1">
    <path
       id="path837"
       style="fill:none;stroke:#000000;stroke-width:1.05833331;stroke-miterlimit:4;stroke-dasharray:none;stroke-dashoffset:0"
       d="M 2.1377747,3.4834893 C 6.4466585,1.1313405 11.411596,1.2635477 14.053132,3.9224774 c 2.217422,2.2320228 2.506923,5.4405096 0.198027,9.6125496"
       sodipodi:nodetypes="csc" />
    <path
       sodipodi:nodetypes="ccc"
       id="path881"
       d="m 1.9925734,3.1510956 3.7758463,8.2546404 7.9332173,2.862865"
       style="fill:none;fill-rule:evenodd;stroke:#000000;stroke-width:0.264583;stroke-linecap:butt;stroke-linejoin:miter;stroke-miterlimit:4;stroke-dasharray:0.529166, 0.529166;stroke-dashoffset:0;stroke-opacity:1" />
    <path
       sodipodi:nodetypes="csssccsssccsssc"
       d="m 7.1484742,11.225892 c 1e-7,0.80369 -0.6515187,1.455209 -1.455208,1.455209 -0.8036893,0 -1.455208,-0.651519 -1.455208,-1.455209 0,-0.803689 0.6515188,-1.4552078 1.455208,-1.455208 0.8036893,2e-7 1.455208,0.651519 1.455208,1.455208 M 3.571875,3.4395833 c 0,0.8036895 -0.651519,1.4552085 -1.4552084,1.4552085 -0.8036894,0 -1.45520847,-0.651519 -1.45520847,-1.4552085 0,-0.8036895 0.65151907,-1.4552085 1.45520847,-1.4552085 0.8036894,0 1.4552084,0.651519 1.4552084,1.4552085 M 15.213542,14.287499 c 0,0.80369 -0.651519,1.455209 -1.455209,1.455209 -0.803689,0 -1.455208,-0.651519 -1.455208,-1.455209 0,-0.803689 0.651519,-1.455208 1.455208,-1.455208 0.803689,0 1.455209,0.651518 1.455209,1.455208"
       style="fill:#ffffff;fill-opacity:1;stroke:#000000;stroke-width:0.264583;stroke-opacity:1"
       id="ellipse883" />
  </g>
</svg>
