<?xml version="1.0" encoding="UTF-8" standalone="no"?>
<svg
   xmlns:dc="http://purl.org/dc/elements/1.1/"
   xmlns:cc="http://creativecommons.org/ns#"
   xmlns:rdf="http://www.w3.org/1999/02/22-rdf-syntax-ns#"
   xmlns:svg="http://www.w3.org/2000/svg"
   xmlns="http://www.w3.org/2000/svg"
   xmlns:sodipodi="http://sodipodi.sourceforge.net/DTD/sodipodi-0.dtd"
   xmlns:inkscape="http://www.inkscape.org/namespaces/inkscape"
   width="64"
   height="64"
   viewBox="0 0 16.933333 16.933333"
   version="1.1"
   id="svg8"
   inkscape:version="1.0 (4035a4fb49, 2020-05-01)"
   sodipodi:docname="Sketch-SegmentEllipticalArcCenter.svg">
  <defs
     id="defs2" />
  <sodipodi:namedview
     id="base"
     pagecolor="#ffffff"
     bordercolor="#666666"
     borderopacity="1.0"
     inkscape:pageopacity="0.0"
     inkscape:pageshadow="2"
     inkscape:zoom="11.2"
     inkscape:cx="42.767188"
     inkscape:cy="33.017851"
     inkscape:document-units="px"
     inkscape:current-layer="layer1"
     inkscape:document-rotation="0"
     showgrid="false"
     units="px"
     inkscape:pagecheckerboard="true"
     inkscape:window-width="1680"
     inkscape:window-height="987"
     inkscape:window-x="1912"
     inkscape:window-y="14"
     inkscape:window-maximized="1"
     inkscape:snap-to-guides="false"
     inkscape:snap-others="true"
     inkscape:object-nodes="false"
     inkscape:snap-nodes="true"
     inkscape:snap-global="true"
     inkscape:snap-bbox="false"
     inkscape:bbox-paths="false"
     inkscape:bbox-nodes="false"
     inkscape:snap-bbox-midpoints="true"
     inkscape:snap-object-midpoints="true"
     inkscape:object-paths="false">
    <inkscape:grid
       type="xygrid"
       id="grid835"
       spacingx="0.26458333"
       spacingy="0.26458333"
       snapvisiblegridlinesonly="false"
       dotted="false"
       visible="false" />
  </sodipodi:namedview>
  <metadata
     id="metadata5">
    <rdf:RDF>
      <cc:Work
         rdf:about="">
        <dc:format>image/svg+xml</dc:format>
        <dc:type
           rdf:resource="http://purl.org/dc/dcmitype/StillImage" />
        <dc:title />
      </cc:Work>
    </rdf:RDF>
  </metadata>
  <g
     inkscape:label="Layer 1"
     inkscape:groupmode="layer"
     id="layer1">
    <path
       sodipodi:nodetypes="csc"
       d="M 2.1377747,3.4834893 C 6.4466585,1.1313405 11.411596,1.2635477 14.053132,3.9224774 c 2.217422,2.2320228 2.506923,5.4405096 0.198027,9.6125496"
       style="fill:none;stroke:#000000;stroke-width:1.05833331;stroke-miterlimit:4;stroke-dasharray:none;stroke-dashoffset:0"
       id="path837" />
    <path
       style="fill:none;fill-rule:evenodd;stroke:#000000;stroke-width:0.264583;stroke-linecap:butt;stroke-linejoin:miter;stroke-miterlimit:4;stroke-dasharray:0.529166, 0.529166;stroke-dashoffset:0;stroke-opacity:1"
       d="M 13.540555,14.075193 1.7327148,3.1510956"
       id="path881"
       sodipodi:nodetypes="cc" />
    <path
       id="ellipse883"
       style="fill:#ffffff;fill-opacity:1;stroke:#000000;stroke-width:0.264583;stroke-opacity:1"
       d="M 16.007291,4.2333331 A 1.4552084,1.4552085 0 0 1 14.552083,5.6885417 1.4552084,1.4552085 0 0 1 13.096875,4.2333331 1.4552084,1.4552085 0 0 1 14.552083,2.7781246 1.4552084,1.4552085 0 0 1 16.007291,4.2333331 M 3.571875,3.4395833 A 1.4552084,1.4552085 0 0 1 2.1166666,4.8947918 1.4552084,1.4552085 0 0 1 0.66145813,3.4395833 1.4552084,1.4552085 0 0 1 2.1166666,1.9843748 1.4552084,1.4552085 0 0 1 3.571875,3.4395833 M 15.213542,14.287499 a 1.4552084,1.4552085 0 0 1 -1.455209,1.455209 1.4552084,1.4552085 0 0 1 -1.455208,-1.455209 1.4552084,1.4552085 0 0 1 1.455208,-1.455208 1.4552084,1.4552085 0 0 1 1.455209,1.455208" />
  </g>
</svg>
