<?xml version="1.0" encoding="UTF-8" standalone="no"?>
<svg
   xmlns:dc="http://purl.org/dc/elements/1.1/"
   xmlns:cc="http://creativecommons.org/ns#"
   xmlns:rdf="http://www.w3.org/1999/02/22-rdf-syntax-ns#"
   xmlns:svg="http://www.w3.org/2000/svg"
   xmlns="http://www.w3.org/2000/svg"
   xmlns:sodipodi="http://sodipodi.sourceforge.net/DTD/sodipodi-0.dtd"
   xmlns:inkscape="http://www.inkscape.org/namespaces/inkscape"
   sodipodi:docname="Sketch-SegmentArcRim.svg"
   inkscape:version="1.0 (4035a4fb49, 2020-05-01)"
   id="svg8"
   version="1.1"
   viewBox="0 0 16.933333 16.933333"
   height="64"
   width="64">
  <defs
     id="defs2" />
  <sodipodi:namedview
     inkscape:object-paths="false"
     inkscape:snap-object-midpoints="true"
     inkscape:snap-bbox-midpoints="true"
     inkscape:bbox-nodes="false"
     inkscape:bbox-paths="false"
     inkscape:snap-bbox="false"
     inkscape:snap-global="false"
     inkscape:snap-nodes="true"
     inkscape:object-nodes="false"
     inkscape:snap-others="true"
     inkscape:snap-to-guides="false"
     inkscape:window-maximized="1"
     inkscape:window-y="14"
     inkscape:window-x="1912"
     inkscape:window-height="987"
     inkscape:window-width="1680"
     inkscape:pagecheckerboard="true"
     units="px"
     showgrid="false"
     inkscape:document-rotation="0"
     inkscape:current-layer="layer1"
     inkscape:document-units="px"
     inkscape:cy="31.79111"
     inkscape:cx="18.573836"
     inkscape:zoom="11.2"
     inkscape:pageshadow="2"
     inkscape:pageopacity="0.0"
     borderopacity="1.0"
     bordercolor="#666666"
     pagecolor="#ffffff"
     id="base">
    <inkscape:grid
       visible="false"
       dotted="false"
       snapvisiblegridlinesonly="false"
       spacingy="0.26458333"
       spacingx="0.26458333"
       id="grid835"
       type="xygrid" />
  </sodipodi:namedview>
  <metadata
     id="metadata5">
    <rdf:RDF>
      <cc:Work
         rdf:about="">
        <dc:format>image/svg+xml</dc:format>
        <dc:type
           rdf:resource="http://purl.org/dc/dcmitype/StillImage" />
        <dc:title />
      </cc:Work>
    </rdf:RDF>
  </metadata>
  <g
     id="layer1"
     inkscape:groupmode="layer"
     inkscape:label="Layer 1">
    <path
       id="path879"
       style="fill:none;fill-opacity:1;stroke:#000000;stroke-width:1.05833331;stroke-miterlimit:4;stroke-dasharray:none;stroke-opacity:1"
       d="M 1.5876981,2.910421 C 3.8004709,2.3173632 8.4687347,2.1431988 11.566001,5.0145678 15.270468,8.4488517 14.239024,12.614119 14.022909,15.345556"
       sodipodi:nodetypes="csc" />
    <path
       sodipodi:nodetypes="cc"
       id="path881"
       d="M 13.660216,15.511512 1.9467714,3.5004004"
       style="fill:none;fill-rule:evenodd;stroke:#000000;stroke-width:0.264583;stroke-linecap:butt;stroke-linejoin:miter;stroke-miterlimit:4;stroke-dasharray:0.529166, 0.529166;stroke-dashoffset:0;stroke-opacity:1" />
    <path
       id="ellipse883"
       style="fill:#ffffff;fill-opacity:1;stroke:#000000;stroke-width:0.264583;stroke-opacity:1"
       d="m 13.243896,5.1877417 c 0,0.8036893 -0.651519,1.4552083 -1.455208,1.4552085 -0.80369,3e-7 -1.455209,-0.6515188 -1.455209,-1.4552085 0,-0.8036897 0.651519,-1.4552088 1.455209,-1.4552085 0.803689,2e-7 1.455208,0.6515192 1.455208,1.4552085 M 3.7236206,2.8820869 c 0,0.8036895 -0.651519,1.4552085 -1.4552084,1.4552085 -0.8036894,0 -1.45520845,-0.651519 -1.45520845,-1.4552085 0,-0.8036895 0.65151905,-1.4552085 1.45520845,-1.4552085 0.8036894,0 1.4552084,0.651519 1.4552084,1.4552085 M 15.365288,14.788337 c 0,0.80369 -0.65152,1.455208 -1.455209,1.455208 -0.803689,0 -1.455208,-0.651519 -1.455208,-1.455208 0,-0.80369 0.651519,-1.455209 1.455208,-1.455209 0.80369,0 1.455209,0.651519 1.455209,1.455209" />
  </g>
</svg>
