<?xml version="1.0" encoding="UTF-8" standalone="no"?>
<svg
   xmlns:dc="http://purl.org/dc/elements/1.1/"
   xmlns:cc="http://creativecommons.org/ns#"
   xmlns:rdf="http://www.w3.org/1999/02/22-rdf-syntax-ns#"
   xmlns:svg="http://www.w3.org/2000/svg"
   xmlns="http://www.w3.org/2000/svg"
   xmlns:sodipodi="http://sodipodi.sourceforge.net/DTD/sodipodi-0.dtd"
   xmlns:inkscape="http://www.inkscape.org/namespaces/inkscape"
   width="64"
   height="64"
   viewBox="0 0 16.933333 16.933333"
   version="1.1"
   id="svg8"
   inkscape:version="1.0 (4035a4fb49, 2020-05-01)"
   sodipodi:docname="Sketch-SegmentEllipseCenter.svg">
  <defs
     id="defs2" />
  <sodipodi:namedview
     id="base"
     pagecolor="#ffffff"
     bordercolor="#666666"
     borderopacity="1.0"
     inkscape:pageopacity="0.0"
     inkscape:pageshadow="2"
     inkscape:zoom="11.2"
     inkscape:cx="22.174148"
     inkscape:cy="33.017851"
     inkscape:document-units="px"
     inkscape:current-layer="layer1"
     inkscape:document-rotation="0"
     showgrid="false"
     units="px"
     inkscape:pagecheckerboard="true"
     inkscape:window-width="1680"
     inkscape:window-height="987"
     inkscape:window-x="1912"
     inkscape:window-y="14"
     inkscape:window-maximized="1"
     inkscape:snap-to-guides="false"
     inkscape:snap-others="true"
     inkscape:object-nodes="false"
     inkscape:snap-nodes="true"
     inkscape:snap-global="true"
     inkscape:snap-bbox="false"
     inkscape:bbox-paths="false"
     inkscape:bbox-nodes="false"
     inkscape:snap-bbox-midpoints="true"
     inkscape:snap-object-midpoints="true"
     inkscape:object-paths="false">
    <inkscape:grid
       type="xygrid"
       id="grid835"
       spacingx="0.26458333"
       spacingy="0.26458333"
       snapvisiblegridlinesonly="false"
       dotted="false"
       visible="false" />
  </sodipodi:namedview>
  <metadata
     id="metadata5">
    <rdf:RDF>
      <cc:Work
         rdf:about="">
        <dc:format>image/svg+xml</dc:format>
        <dc:type
           rdf:resource="http://purl.org/dc/dcmitype/StillImage" />
        <dc:title />
      </cc:Work>
    </rdf:RDF>
  </metadata>
  <g
     inkscape:label="Layer 1"
     inkscape:groupmode="layer"
     id="layer1">
    <ellipse
       transform="matrix(0.78646686,-0.61763248,0.61239987,0.79054817,0,0)"
       ry="5.3185353"
       rx="8.1862869"
       cy="11.756893"
       cx="1.7188162"
       id="path840"
       style="fill:none;stroke:#000000;stroke-width:1.05834496;stroke-miterlimit:4;stroke-dasharray:none;stroke-dashoffset:0" />
    <path
       style="fill:none;fill-rule:evenodd;stroke:#000000;stroke-width:0.264583;stroke-linecap:butt;stroke-linejoin:miter;stroke-miterlimit:4;stroke-dasharray:0.529166, 0.529166;stroke-dashoffset:0;stroke-opacity:1"
       d="M 8.4615001,8.2638096 14.678399,2.6313784"
       id="path881"
       sodipodi:nodetypes="cc" />
    <path
       sodipodi:nodetypes="cc"
       id="path842"
       d="M 8.4615001,8.2638096 14.064188,10.120032"
       style="fill:none;fill-rule:evenodd;stroke:#000000;stroke-width:0.264583;stroke-linecap:butt;stroke-linejoin:miter;stroke-miterlimit:4;stroke-dasharray:0.529166, 0.529166;stroke-dashoffset:0;stroke-opacity:1" />
    <path
       id="ellipse883"
       style="fill:#ffffff;fill-opacity:1;stroke:#000000;stroke-width:0.264583;stroke-opacity:1"
       d="M 10.00692,8.2327938 A 1.4552084,1.4552085 0 0 1 8.551712,9.6880023 1.4552084,1.4552085 0 0 1 7.0965036,8.2327938 1.4552084,1.4552085 0 0 1 8.551712,6.7775853 1.4552084,1.4552085 0 0 1 10.00692,8.2327938 m 5.471205,1.8213732 a 1.4552084,1.4552085 0 0 1 -1.455208,1.455208 1.4552084,1.4552085 0 0 1 -1.455209,-1.455208 1.4552084,1.4552085 0 0 1 1.455209,-1.4552087 1.4552084,1.4552085 0 0 1 1.455208,1.4552087 m 0.529166,-7.4083337 a 1.4552084,1.4552085 0 0 1 -1.455208,1.4552085 1.4552084,1.4552085 0 0 1 -1.455208,-1.4552085 1.4552084,1.4552085 0 0 1 1.455208,-1.4552086 1.4552084,1.4552085 0 0 1 1.455208,1.4552086" />
  </g>
</svg>
