<?xml version="1.0" encoding="UTF-8" standalone="no"?>
<svg
   xmlns:dc="http://purl.org/dc/elements/1.1/"
   xmlns:cc="http://creativecommons.org/ns#"
   xmlns:rdf="http://www.w3.org/1999/02/22-rdf-syntax-ns#"
   xmlns:svg="http://www.w3.org/2000/svg"
   xmlns="http://www.w3.org/2000/svg"
   xmlns:sodipodi="http://sodipodi.sourceforge.net/DTD/sodipodi-0.dtd"
   xmlns:inkscape="http://www.inkscape.org/namespaces/inkscape"
   sodipodi:docname="Sketch-SegmentPolyLine.svg"
   inkscape:version="1.0 (4035a4fb49, 2020-05-01)"
   id="svg8"
   version="1.1"
   viewBox="0 0 16.933333 16.933333"
   height="64"
   width="64">
  <defs
     id="defs2" />
  <sodipodi:namedview
     inkscape:snap-bbox-midpoints="true"
     inkscape:bbox-nodes="false"
     inkscape:bbox-paths="false"
     inkscape:snap-bbox="true"
     inkscape:snap-global="true"
     inkscape:snap-nodes="false"
     inkscape:object-nodes="false"
     inkscape:snap-others="false"
     inkscape:snap-to-guides="false"
     inkscape:window-maximized="1"
     inkscape:window-y="14"
     inkscape:window-x="1912"
     inkscape:window-height="987"
     inkscape:window-width="1680"
     inkscape:pagecheckerboard="true"
     units="px"
     showgrid="false"
     inkscape:document-rotation="0"
     inkscape:current-layer="layer1"
     inkscape:document-units="px"
     inkscape:cy="27.34408"
     inkscape:cx="40.432894"
     inkscape:zoom="11.2"
     inkscape:pageshadow="2"
     inkscape:pageopacity="0.0"
     borderopacity="1.0"
     bordercolor="#666666"
     pagecolor="#ffffff"
     id="base">
    <inkscape:grid
       visible="false"
       dotted="false"
       snapvisiblegridlinesonly="false"
       spacingy="0.26458333"
       spacingx="0.26458333"
       id="grid835"
       type="xygrid" />
  </sodipodi:namedview>
  <metadata
     id="metadata5">
    <rdf:RDF>
      <cc:Work
         rdf:about="">
        <dc:format>image/svg+xml</dc:format>
        <dc:type
           rdf:resource="http://purl.org/dc/dcmitype/StillImage" />
        <dc:title />
      </cc:Work>
    </rdf:RDF>
  </metadata>
  <g
     id="layer1"
     inkscape:groupmode="layer"
     inkscape:label="Layer 1">
    <path
       sodipodi:nodetypes="cccc"
       id="path845"
       d="M 2.1497396,14.646577 5.8113839,8.3863467 11.670015,10.748697 14.575707,2.4332218"
       style="fill:none;fill-rule:evenodd;stroke:#000000;stroke-width:1.05833331;stroke-linecap:butt;stroke-linejoin:miter;stroke-miterlimit:4;stroke-dasharray:none;stroke-opacity:1" />
    <path
       id="circle836-5"
       style="fill:#ffffff;fill-opacity:1;stroke:#000000;stroke-width:0.264583;stroke-miterlimit:4;stroke-dasharray:none;stroke-opacity:1"
       d="M 16.007292,2.3812499 A 1.4552085,1.4552085 0 0 1 14.552083,3.8364584 1.4552085,1.4552085 0 0 1 13.096874,2.3812499 1.4552085,1.4552085 0 0 1 14.552083,0.92604136 1.4552085,1.4552085 0 0 1 16.007292,2.3812499 m -2.910417,8.2020831 a 1.4552084,1.4552085 0 0 1 -1.455209,1.455209 1.4552084,1.4552085 0 0 1 -1.455208,-1.455209 1.4552084,1.4552085 0 0 1 1.455208,-1.4552085 1.4552084,1.4552085 0 0 1 1.455209,1.4552085 M 7.2760416,8.4666662 A 1.4552084,1.4552085 0 0 1 5.8208332,9.9218748 1.4552084,1.4552085 0 0 1 4.3656248,8.4666662 1.4552084,1.4552085 0 0 1 5.8208332,7.0114577 1.4552084,1.4552085 0 0 1 7.2760416,8.4666662 M 3.5718751,14.552083 A 1.4552085,1.4552085 0 0 1 2.1166666,16.007292 1.4552085,1.4552085 0 0 1 0.66145802,14.552083 1.4552085,1.4552085 0 0 1 2.1166666,13.096874 1.4552085,1.4552085 0 0 1 3.5718751,14.552083" />
  </g>
</svg>
