<?xml version="1.0" encoding="UTF-8" standalone="no"?>
<svg
   xmlns:dc="http://purl.org/dc/elements/1.1/"
   xmlns:cc="http://creativecommons.org/ns#"
   xmlns:rdf="http://www.w3.org/1999/02/22-rdf-syntax-ns#"
   xmlns:svg="http://www.w3.org/2000/svg"
   xmlns="http://www.w3.org/2000/svg"
   xmlns:sodipodi="http://sodipodi.sourceforge.net/DTD/sodipodi-0.dtd"
   xmlns:inkscape="http://www.inkscape.org/namespaces/inkscape"
   sodipodi:docname="Sketch-SegmentArcCenter.svg"
   inkscape:version="1.0 (4035a4fb49, 2020-05-01)"
   id="svg8"
   version="1.1"
   viewBox="0 0 16.933333 16.933333"
   height="64"
   width="64">
  <defs
     id="defs2" />
  <sodipodi:namedview
     inkscape:object-paths="false"
     inkscape:snap-object-midpoints="true"
     inkscape:snap-bbox-midpoints="true"
     inkscape:bbox-nodes="false"
     inkscape:bbox-paths="false"
     inkscape:snap-bbox="false"
     inkscape:snap-global="true"
     inkscape:snap-nodes="true"
     inkscape:object-nodes="false"
     inkscape:snap-others="true"
     inkscape:snap-to-guides="false"
     inkscape:window-maximized="1"
     inkscape:window-y="-8"
     inkscape:window-x="-8"
     inkscape:window-height="1017"
     inkscape:window-width="1920"
     inkscape:pagecheckerboard="true"
     units="px"
     showgrid="false"
     inkscape:document-rotation="0"
     inkscape:current-layer="layer1"
     inkscape:document-units="px"
     inkscape:cy="31.79111"
     inkscape:cx="18.573836"
     inkscape:zoom="11.2"
     inkscape:pageshadow="2"
     inkscape:pageopacity="0.0"
     borderopacity="1.0"
     bordercolor="#666666"
     pagecolor="#ffffff"
     id="base">
    <inkscape:grid
       visible="false"
       dotted="false"
       snapvisiblegridlinesonly="false"
       spacingy="0.26458333"
       spacingx="0.26458333"
       id="grid835"
       type="xygrid" />
  </sodipodi:namedview>
  <metadata
     id="metadata5">
    <rdf:RDF>
      <cc:Work
         rdf:about="">
        <dc:format>image/svg+xml</dc:format>
        <dc:type
           rdf:resource="http://purl.org/dc/dcmitype/StillImage" />
        <dc:title />
      </cc:Work>
    </rdf:RDF>
  </metadata>
  <g
     id="layer1"
     inkscape:groupmode="layer"
     inkscape:label="Layer 1">
    <path
       d="m 1.5876981,2.910421 a 12.425911,12.421948 0 0 1 8.7971269,3.639675 12.425911,12.421948 0 0 1 3.638084,8.79546"
       sodipodi:arc-type="arc"
       sodipodi:open="true"
       sodipodi:end="0.0010618054"
       sodipodi:start="4.71164"
       sodipodi:ry="12.421948"
       sodipodi:rx="12.425911"
       sodipodi:cy="15.332366"
       sodipodi:cx="1.5970049"
       sodipodi:type="arc"
       id="path879"
       style="fill:none;fill-opacity:1;stroke:#000000;stroke-width:1.05833331;stroke-miterlimit:4;stroke-dasharray:none;stroke-opacity:1" />
    <path
       id="path885"
       style="fill:none;fill-rule:evenodd;stroke:#000000;stroke-width:0.264583;stroke-linecap:butt;stroke-linejoin:miter;stroke-miterlimit:4;stroke-dasharray:0.529166, 0.529166;stroke-dashoffset:0;stroke-opacity:1"
       d="m 2.0846958,14.873677 11.8155722,0.01326 M 2.0846958,14.873677 2.112136,2.8861891" />
    <path
       id="ellipse883"
       style="fill:#ffffff;fill-opacity:1;stroke:#000000;stroke-width:0.264583;stroke-opacity:1"
       d="M 3.571875,14.816667 A 1.4552084,1.4552085 0 0 1 2.1166666,16.271875 1.4552084,1.4552085 0 0 1 0.66145813,14.816667 1.4552084,1.4552085 0 0 1 2.1166666,13.361458 1.4552084,1.4552085 0 0 1 3.571875,14.816667 m 0,-11.9062504 A 1.4552084,1.4552085 0 0 1 2.1166666,4.3656251 1.4552084,1.4552085 0 0 1 0.66145813,2.9104166 1.4552084,1.4552085 0 0 1 2.1166666,1.4552081 1.4552084,1.4552085 0 0 1 3.571875,2.9104166 M 15.213542,14.816667 a 1.4552084,1.4552085 0 0 1 -1.455209,1.455208 1.4552084,1.4552085 0 0 1 -1.455208,-1.455208 1.4552084,1.4552085 0 0 1 1.455208,-1.455209 1.4552084,1.4552085 0 0 1 1.455209,1.455209" />
  </g>
</svg>
