<?xml version="1.0" encoding="utf-8"?>
<!DOCTYPE svg PUBLIC "-//W3C//DTD SVG 1.1//EN" "http://www.w3.org/Graphics/SVG/1.1/DTD/svg11.dtd">
<svg width="97.02949mm" height="51.1697mm" viewBox="0, 0, 366.7256, 193.3973" version="1.1" xmlns:xlink="http://www.w3.org/1999/xlink" xmlns:xml="http://www.w3.org/XML/1998/namespace" xmlns:sodipodi="http://sodipodi.sourceforge.net/DTD/sodipodi-0.dtd" xmlns:inkscape="http://www.inkscape.org/namespaces/inkscape" xmlns="http://www.w3.org/2000/svg">
  <sodipodi:namedview inkscape:document-units="mm" />
  <g inkscape:groupmode="layer" inkscape:label="Contours" id="Contours" transform="translate(183.3628,97.4638)">
    <g inkscape:groupmode="layer" inkscape:label="Layer0" id="Layer0" stroke-width="0.3779528" style="stroke:black;fill:none;">
      <path d="M-145.5675,-59.66852 L-145.4477,-56.42334 C-139.5961,-48.13202 -133.428,-40.06243 -126.9038,-32.28941 C-120.3797,-24.51638 -113.4989,-17.04038 -106.2318,-9.956978 C-96.41003,-0.3835363 -85.87069,8.47482 -74.63014,16.33827 C-63.38959,24.20172 -51.44248,31.06242 -38.94619,36.72149 C-30.15103,40.70446 -21.08742,44.0946 -11.84489,46.88727 C-2.602368,49.67994 6.818793,51.87606 16.32988,53.5347 C25.12765,55.06894 34.00306,56.1452 42.9059,56.84731 C57.4112,57.99125 71.9814,58.13821 86.52676,57.76452 C89.81468,57.7522 93.1027,57.58252 96.36915,57.21095 C99.6356,56.83938 102.8804,56.26546 106.0619,55.43788 C108.7144,54.74792 111.322,53.88096 113.8456,52.81231 C116.1059,51.85515 118.2986,50.73548 120.3886,49.44816 C122.4786,48.16085 124.4655,46.70541 126.3178,45.09491 C129.2025,42.58673 131.7548,39.70065 133.9285,36.556 C134.9944,35.014 135.971,33.41062 136.8616,31.76104 C138.5123,28.70358 139.8667,25.48967 140.9717,22.19505 C142.7289,16.9561 143.8612,11.52428 144.5709,6.045019 C145.2806,0.5657569 145.5675,-4.960974 145.5675,-10.4881 L145.5007,-53.75225 L134.3445,-53.75225 L134.3445,-59.62374 L105.8087,-59.62831 L105.8087,-53.75225 L94.48819,-53.75225 L94.48819,-59.63012 L66.14173,-59.63465 L66.14173,-53.75225 L54.82124,-53.75225 L54.82124,-59.63646 L26.43861,-59.641 L26.43861,-53.75225 L15.11811,-53.75225 L15.11811,-59.64281 L-13.22835,-59.64735 L-13.22835,-53.75225 L-24.54884,-53.75225 L-24.54884,-59.64916 L-52.8943,-59.65369 L-52.8943,-53.75225 L-64.2148,-53.75225 L-64.2148,-59.65551 L-92.59843,-59.66005 L-92.59843,-53.75225 L-103.9189,-53.75225 L-103.9189,-59.66186 L-145.5675,-59.66852 Z" />
    </g>
  </g>
</svg>