<?xml version="1.0" encoding="utf-8"?>
<!DOCTYPE svg PUBLIC "-//W3C//DTD SVG 1.1//EN" "http://www.w3.org/Graphics/SVG/1.1/DTD/svg11.dtd">
<svg width="220mm" height="130mm" viewBox="0, 0, 831.496, 491.3386" version="1.1" xmlns:xlink="http://www.w3.org/1999/xlink" xmlns:xml="http://www.w3.org/XML/1998/namespace" xmlns:sodipodi="http://sodipodi.sourceforge.net/DTD/sodipodi-0.dtd" xmlns:inkscape="http://www.inkscape.org/namespaces/inkscape" xmlns="http://www.w3.org/2000/svg">
  <sodipodi:namedview inkscape:document-units="mm" />
  <g inkscape:groupmode="layer" inkscape:label="Contours" id="Contours" transform="translate(226.7717,245.6693)">
    <g inkscape:groupmode="layer" inkscape:label="Layer0" id="Layer0" style="stroke:black;fill:black;">
      <path d="M188.9764,-207.874 L-188.9764,-207.874 L-188.9764,207.874 L188.9764,207.874 L188.9764,-207.874 Z M-112.4667,95.86685 C-115.0347,95.77541 -117.5973,95.51914 -120.1229,95.04993 C-122.6485,94.58073 -125.1371,93.89861 -127.5211,92.94241 C-130.0996,91.90822 -132.5586,90.55029 -134.7165,88.80214 C-136.3851,87.45029 -137.8704,85.86226 -139.0332,84.05769 C-139.6369,83.12085 -140.1527,82.12688 -140.56,81.08968 C-140.8069,80.46082 -141.0138,79.81625 -141.177,79.16073 C-141.5419,77.69537 -141.6852,76.17424 -141.5891,74.66733 C-141.4965,73.21525 -141.1819,71.77819 -140.6689,70.41647 C-140.4367,69.80012 -140.1643,69.19894 -139.8558,68.61694 C-139.3602,67.68201 -138.7715,66.79694 -138.1091,65.97155 C-136.8593,64.4144 -135.35,63.07296 -133.6978,61.9506 C-131.0911,60.17988 -128.1415,58.94939 -125.0984,58.12619 C-121.2909,57.09623 -117.3314,56.69291 -113.3858,56.69291 L-75.131,54.85469 C-73.25269,53.04574 -71.33849,51.27492 -69.37269,49.56264 C-67.40688,47.85038 -65.39056,46.19531 -63.29637,44.64413 C-61.87433,43.59082 -60.41826,42.58661 -58.91029,41.66366 C-57.40233,40.74071 -55.84393,39.89638 -54.21366,39.21556 C-52.96691,38.69491 -51.67654,38.2687 -50.34761,38.0351 C-49.5693,37.89828 -48.77783,37.82941 -47.98912,37.86183 C-47.60941,37.87744 -47.23065,37.91668 -46.85665,37.98298 C-46.16918,38.10484 -45.49772,38.32035 -44.87364,38.63268 C-44.31376,38.91287 -43.79306,39.27008 -43.32442,39.68558 C-43.09872,39.88569 -42.88482,40.09911 -42.68275,40.32323 C-42.28712,40.76204 -41.93713,41.2414 -41.62701,41.74489 C-41.08873,42.61878 -40.66959,43.56184 -40.32924,44.53102 C-39.9889,45.5002 -39.72768,46.49563 -39.51866,47.50265 C-39.12799,49.38486 -38.91765,51.30129 -38.80239,53.22146 C-38.68712,55.14164 -38.67026,57.06591 -38.71439,58.99069 A31.7634,31.7634 0 0 1 -48.86526,83.41821 A33.70424,33.70424 0 1 1 -112.4667,95.86685 Z M-151.1811,18.89764 L-151.1811,-18.89764 L-75.59055,-18.89764 L-75.59055,18.89764 L-151.1811,18.89764 Z M-59.93523,-94.48819 A53.45059,53.45059 45 0 1 -113.3858,-41.0376 A53.45059,53.45059 45 0 1 -166.8364,-94.48819 A53.45059,53.45059 45 0 1 -113.3858,-147.9388 A53.45059,53.45059 45 0 1 -59.93523,-94.48819 Z M75.59055,-18.89764 L151.1811,-18.89764 L151.1811,18.89764 L75.59055,18.89764 L75.59055,-18.89764 Z M37.79528,-170.0787 C39.426,-170.0787 41.05573,-169.8643 42.63498,-169.4565 C44.21424,-169.0486 45.7434,-168.4491 47.19458,-167.7039 C49.21508,-166.6664 51.0868,-165.3493 52.80559,-163.8618 C55.65237,-161.3979 58.08516,-158.4793 60.20246,-155.3619 C62.38232,-152.1523 64.23041,-148.7229 65.82961,-145.1857 C67.38574,-141.7437 68.70506,-138.196 69.8335,-134.5898 C71.85734,-128.1222 73.27198,-121.4716 74.2063,-114.7584 C75.14063,-108.0451 75.59055,-101.2683 75.59055,-94.48819 C75.59055,-87.12749 75.06123,-79.76497 73.95447,-72.4886 C72.897,-65.53625 71.31683,-58.6563 69.05502,-52 C67.82191,-48.37109 66.38422,-44.8099 64.68797,-41.37449 C62.96881,-37.8927 60.98512,-34.53532 58.64488,-31.43974 C57.35713,-29.73634 55.96107,-28.11453 54.43764,-26.62024 C52.9142,-25.12595 51.26309,-23.75949 49.47466,-22.5973 C47.4749,-21.29778 45.29898,-20.25746 43.0031,-19.61866 C41.30929,-19.14739 39.55299,-18.89764 37.79528,-18.89764 C35.71051,-18.89764 33.62895,-19.25113 31.64836,-19.90405 C30.01092,-20.44386 28.44231,-21.18357 26.96221,-22.0692 C25.48211,-22.95482 24.08988,-23.98524 22.78496,-25.11461 C19.93818,-27.57844 17.50539,-30.49707 15.38809,-33.61452 C13.20823,-36.82408 11.36014,-40.25344 9.760941,-43.7907 C8.204808,-47.23269 6.885486,-50.78043 5.757054,-54.38655 C3.733211,-60.85416 2.318572,-67.50477 1.384249,-74.21801 C0.4499265,-80.93126 3.94645E-13,-87.70808 3.671604E-16,-94.48819 C-4.288695E-13,-101.8489 0.5293287,-109.2114 1.63608,-116.4878 C2.693548,-123.4401 4.273728,-130.3201 6.535537,-136.9764 C7.768639,-140.6053 9.206336,-144.1665 10.90259,-147.6019 C12.62175,-151.0837 14.60544,-154.4411 16.94567,-157.5366 C18.23342,-159.24 19.62947,-160.8618 21.15291,-162.3561 C22.67635,-163.8504 24.32746,-165.2169 26.11589,-166.3791 C27.85188,-167.5072 29.72303,-168.4422 31.6909,-169.0863 C33.65878,-169.7304 35.72479,-170.0787 37.79528,-170.0787 Z" />
      <path d="M302.3622,-147.9388 A53.45059,53.45059 45 0 0 248.9116,-94.48819 A53.45059,53.45059 45 0 0 302.3622,-41.0376 A53.45059,53.45059 45 0 0 355.8128,-94.48819 A53.45059,53.45059 45 0 0 302.3622,-147.9388 Z" />
      <path d="M453.5433,-170.0787 C451.4728,-170.0787 449.4068,-169.7304 447.4389,-169.0863 C445.4711,-168.4422 443.5999,-167.5072 441.8639,-166.3791 C440.0755,-165.2169 438.4244,-163.8504 436.9009,-162.3561 C435.3775,-160.8618 433.9814,-159.24 432.6937,-157.5366 C430.3535,-154.4411 428.3698,-151.0837 426.6506,-147.6019 C424.9544,-144.1665 423.5167,-140.6053 422.2836,-136.9764 C420.0218,-130.3201 418.4416,-123.4401 417.3841,-116.4878 C416.2774,-109.2114 415.748,-101.8489 415.748,-94.48819 C415.748,-87.70808 416.198,-80.93126 417.1323,-74.21801 C418.0666,-67.50477 419.4812,-60.85416 421.5051,-54.38655 C422.6335,-50.78043 423.9529,-47.23269 425.509,-43.7907 C427.1082,-40.25344 428.9563,-36.82408 431.1361,-33.61452 C433.2534,-30.49707 435.6862,-27.57844 438.533,-25.11461 C439.8379,-23.98524 441.2301,-22.95482 442.7102,-22.0692 C444.1903,-21.18357 445.7589,-20.44386 447.3964,-19.90405 C449.377,-19.25113 451.4585,-18.89764 453.5433,-18.89764 C455.301,-18.89764 457.0573,-19.14739 458.7511,-19.61866 C461.047,-20.25746 463.2229,-21.29778 465.2227,-22.5973 C467.0111,-23.75949 468.6622,-25.12595 470.1857,-26.62024 C471.7091,-28.11453 473.1052,-29.73634 474.3929,-31.43974 C476.7332,-34.53532 478.7168,-37.8927 480.436,-41.37449 C482.1322,-44.8099 483.5699,-48.37109 484.803,-52 C487.0648,-58.6563 488.645,-65.53625 489.7025,-72.4886 C490.8093,-79.76497 491.3386,-87.12749 491.3386,-94.48819 C491.3386,-101.2683 490.8886,-108.0451 489.9543,-114.7584 C489.02,-121.4716 487.6054,-128.1222 485.5815,-134.5898 C484.4531,-138.196 483.1338,-141.7437 481.5776,-145.1857 C479.9785,-148.7229 478.1303,-152.1523 475.9505,-155.3619 C473.8332,-158.4793 471.4004,-161.3979 468.5536,-163.8618 C466.8348,-165.3493 464.9631,-166.6664 462.9426,-167.7039 C461.4914,-168.4491 459.9623,-169.0486 458.383,-169.4565 C456.8038,-169.8643 455.174,-170.0787 453.5433,-170.0787 Z" />
      <path d="M340.1575,-18.89764 L264.5669,-18.89764 L264.5669,18.89764 L340.1575,18.89764 L340.1575,-18.89764 Z" />
      <path d="M566.9291,-18.89764 L491.3386,-18.89764 L491.3386,18.89764 L566.9291,18.89764 L566.9291,-18.89764 Z" />
      <path d="M264.5669,56.69291 C262.2133,56.69291 259.8593,56.83839 257.5301,57.17183 C255.201,57.50526 252.8966,58.02662 250.6714,58.7905 C248.2036,59.63762 245.8303,60.7856 243.7095,62.30359 C242.0397,63.4988 240.5292,64.92622 239.3074,66.57578 C238.6649,67.44324 238.1032,68.37102 237.6428,69.34715 C237.3587,69.9495 237.1131,70.57009 236.9103,71.20438 C236.4577,72.61979 236.2205,74.10467 236.2205,75.59055 C236.2205,77.07643 236.4577,78.56131 236.9103,79.97673 C237.1131,80.61102 237.3587,81.23161 237.6428,81.83396 C238.1032,82.81008 238.6649,83.73787 239.3074,84.60532 C240.5292,86.25488 242.0397,87.6823 243.7095,88.87751 C245.8303,90.39551 248.2036,91.54348 250.6714,92.3906 C252.8966,93.15448 255.201,93.67584 257.5301,94.00928 C259.8593,94.3427 262.2133,94.48819 264.5669,94.48819 A34.10675,34.10675 0 1 0 329.0875,83.41821 A37.79528,37.79528 0 0 0 340.1575,56.69291 C340.1575,54.94267 340.0988,53.19432 339.9452,51.4525 C339.7917,49.71069 339.5463,47.975 339.1285,46.27842 C338.9186,45.42615 338.6645,44.58512 338.3464,43.7681 C338.0283,42.95107 337.6462,42.15801 337.1731,41.42067 C336.8816,40.96621 336.5553,40.53372 336.1899,40.13677 C335.9896,39.91914 335.7776,39.71229 335.554,39.51881 C335.1147,39.13865 334.6297,38.81091 334.1102,38.55118 C333.4862,38.23915 332.8135,38.02671 332.1252,37.91025 C331.7685,37.84989 331.4075,37.81466 331.0457,37.8014 C330.269,37.77292 329.49,37.84505 328.7244,37.98425 C327.3975,38.2255 326.1111,38.66235 324.8694,39.1934 C323.2709,39.87704 321.7437,40.71931 320.266,41.63779 C318.7883,42.55626 317.3617,43.55353 315.9685,44.59843 C313.54,46.41979 311.218,48.38068 308.96,50.41131 C306.7021,52.44194 304.5103,54.5448 302.3622,56.69291 L264.5669,56.69291 Z" />
    </g>
  </g>
</svg>