<?xml version="1.0" encoding="utf-8"?>
<!DOCTYPE svg PUBLIC "-//W3C//DTD SVG 1.1//EN" "http://www.w3.org/Graphics/SVG/1.1/DTD/svg11.dtd">
<svg width="38mm" height="31.02mm" viewBox="0, 0, 143.622, 117.2409" version="1.1" xmlns:xlink="http://www.w3.org/1999/xlink" xmlns:xml="http://www.w3.org/XML/1998/namespace" xmlns:sodipodi="http://sodipodi.sourceforge.net/DTD/sodipodi-0.dtd" xmlns:inkscape="http://www.inkscape.org/namespaces/inkscape" xmlns="http://www.w3.org/2000/svg">
  <sodipodi:namedview inkscape:document-units="mm" />
  <g inkscape:groupmode="layer" inkscape:label="Contours" id="Contours" transform="translate(71.81102,48.18898)">
    <g inkscape:groupmode="layer" inkscape:label="Layer0" id="Layer0" stroke-width="0.3779528" style="stroke:black;fill:none;">
      <path d="M31.1811,-8.503937 L31.1811,8.503937 L13.22835,8.503937 L13.22835,-8.503937 L31.1811,-8.503937 Z" />
      <path d="M29.38583,6.614173 L29.38583,-6.614173 L15.02362,-6.614173 L15.02362,6.614173 L29.38583,6.614173 Z" />
      <path d="M15.02362,6.614173 L29.38583,6.614173 L29.38583,-6.614173 L15.02362,-6.614173 L15.02362,6.614173 Z" />
      <path d="M31.1811,12.35906 L31.1811,29.36693 L13.22835,29.36693 L13.22835,12.35906 L31.1811,12.35906 Z" />
      <path d="M29.38583,27.47717 L29.38583,14.24882 L15.02362,14.24882 L15.02362,27.47717 L29.38583,27.47717 Z" />
      <path d="M29.38583,27.47717 L29.38583,14.24882 L15.02362,14.24882 L15.02362,27.47717 L29.38583,27.47717 Z" />
      <path d="M-34.01575,10.3937 L34.01575,10.3937 L34.01575,-10.3937 L-34.01575,-10.3937 L-34.01575,10.3937 Z" />
      <path d="M-32.12598,0.9448819 L-24.56693,0.9448819 L-24.56693,8.503937 L-31.1811,8.503937 A0.9448819,0.9448819 0 0 1 -32.12598,7.559055 L-32.12598,0.9448819 Z" />
      <path d="M-11.33858,8.503937 L-22.67717,8.503937 L-22.67717,1.133858 L-11.33858,8.503937 Z" />
      <path d="M1.889764,1.133858 L1.889764,8.503937 L-9.448819,8.503937 L1.889764,1.133858 Z" />
      <path d="M-24.56693,-8.503937 L-24.56693,-0.9448819 L-32.12598,-0.9448819 L-32.12598,-7.559055 A0.9448819,0.9448819 0 0 1 -31.1811,-8.503937 L-24.56693,-8.503937 Z" />
      <path d="M-10.3937,7.559055 L-21.73228,-3.356895E-15 L-10.3937,-7.559055 L0.9448819,-4.196119E-15 L-10.3937,7.559055 Z" />
      <path d="M-22.67717,-1.133858 L-22.67717,-8.503937 L-11.33858,-8.503937 L-22.67717,-1.133858 Z" />
      <path d="M1.889764,-1.133858 L-9.448819,-8.503937 L1.889764,-8.503937 L1.889764,-1.133858 Z" />
      <path d="M11.33858,7.559055 A0.9448819,0.9448819 0 0 1 10.3937,8.503937 L3.779528,8.503937 L3.779528,0.9448819 L11.33858,0.9448819 L11.33858,7.559055 Z" />
      <path d="M3.779528,-8.503937 L10.3937,-8.503937 A0.9448819,0.9448819 0 0 1 11.33858,-7.559055 L11.33858,-0.9448819 L3.779528,-0.9448819 L3.779528,-8.503937 Z" />
      <path d="M13.22835,-8.503937 L31.1811,-8.503937 L31.1811,8.503937 L13.22835,8.503937 L13.22835,-8.503937 Z" />
      <path d="M34.01575,31.25669 L34.01575,10.46929 L-34.01575,10.46929 L-34.01575,31.25669 L34.01575,31.25669 Z" />
      <path d="M-32.12598,21.80787 L-24.56693,21.80787 L-24.56693,29.36693 L-31.1811,29.36693 A0.9448819,0.9448819 0 0 1 -32.12598,28.42205 L-32.12598,21.80787 Z" />
      <path d="M-11.33858,29.36693 L-22.67717,29.36693 L-22.67717,21.99685 L-11.33858,29.36693 Z" />
      <path d="M-10.3937,28.42205 L-21.73228,20.86299 L-10.3937,13.30394 L0.9448819,20.86299 L-10.3937,28.42205 Z" />
      <path d="M1.889764,29.36693 L-9.448819,29.36693 L1.889764,21.99685 L1.889764,29.36693 Z" />
      <path d="M-24.56693,12.35906 L-24.56693,19.91811 L-32.12598,19.91811 L-32.12598,13.30394 A0.9448819,0.9448819 0 0 1 -31.1811,12.35906 L-24.56693,12.35906 Z" />
      <path d="M-22.67717,19.72913 L-22.67717,12.35906 L-11.33858,12.35906 L-22.67717,19.72913 Z" />
      <path d="M-9.448819,12.35906 L1.889764,12.35906 L1.889764,19.72913 L-9.448819,12.35906 Z" />
      <path d="M11.33858,21.80787 L11.33858,28.42205 A0.9448819,0.9448819 0 0 1 10.3937,29.36693 L3.779528,29.36693 L3.779528,21.80787 L11.33858,21.80787 Z" />
      <path d="M31.1811,12.35906 L31.1811,29.36693 L13.22835,29.36693 L13.22835,12.35906 L31.1811,12.35906 Z" />
      <path d="M3.779528,12.35906 L10.3937,12.35906 A0.9448819,0.9448819 0 0 1 11.33858,13.30394 L11.33858,19.91811 L3.779528,19.91811 L3.779528,12.35906 Z" />
    </g>
  </g>
</svg>