<?xml version="1.0" encoding="utf-8"?>
<!DOCTYPE svg PUBLIC "-//W3C//DTD SVG 1.1//EN" "http://www.w3.org/Graphics/SVG/1.1/DTD/svg11.dtd">
<svg width="58mm" height="130mm" viewBox="0, 0, 219.2126, 491.3386" version="1.1" xmlns:xlink="http://www.w3.org/1999/xlink" xmlns:xml="http://www.w3.org/XML/1998/namespace" xmlns:sodipodi="http://sodipodi.sourceforge.net/DTD/sodipodi-0.dtd" xmlns:inkscape="http://www.inkscape.org/namespaces/inkscape" xmlns="http://www.w3.org/2000/svg">
  <sodipodi:namedview inkscape:document-units="mm" />
  <g inkscape:groupmode="layer" inkscape:label="Contours" id="Contours" transform="translate(109.6063,245.6693)">
    <g inkscape:groupmode="layer" inkscape:label="Layer0" id="Layer0" stroke-width="0.3779528" style="stroke:black;fill:none;">
      <path d="M71.81102,207.874 L71.81102,-207.874 L-71.81102,-207.874 L-71.81102,207.874 L71.81102,207.874 Z" />
      <path d="M-7.559055,151.1811 L-30.23622,151.1811 A15.11811,15.11811 0 1 1 -30.23622,120.9449 L-7.559055,120.9449 A15.11811,15.11811 0 1 1 -7.559055,151.1811 Z" />
      <circle cx="-28.34646" cy="-17.95275" r="30.23622" />
      <path d="M-30.23622,-75.59055 L-51.02362,-75.59055 A7.559055,7.559055 0 0 1 -58.58268,-83.1496 L-58.58268,-124.7244 A7.559055,7.559055 0 0 1 -51.02362,-132.2835 L-30.23622,-132.2835 A7.559055,7.559055 0 0 1 -22.67717,-124.7244 L-22.67717,-83.1496 A7.559055,7.559055 0 0 1 -30.23622,-75.59055 Z" />
    </g>
    <g inkscape:groupmode="layer" inkscape:label="Layer1" id="Layer1" stroke-width="0.3779528" style="stroke:black;fill:none;">
      <path d="M71.81102,200.315 L71.81102,-200.315 L-71.81102,-200.315 L-71.81102,200.315 L71.81102,200.315 Z" />
      <path d="M-7.559055,151.1811 L-30.23622,151.1811 A15.11811,15.11811 0 1 1 -30.23622,120.9449 L-7.559055,120.9449 A15.11811,15.11811 0 1 1 -7.559055,151.1811 Z" />
      <circle cx="-28.34646" cy="-17.95275" r="18.89764" />
      <path d="M-43.46457,-86.92913 A3.779528,3.779528 0 0 1 -47.24409,-90.70866 L-47.24409,-117.1654 A3.779528,3.779528 0 0 1 -43.46457,-120.9449 L-36.68828,-120.9449 A3.779528,3.779528 0 0 1 -32.90875,-117.1654 L-32.90875,-90.70866 A3.779528,3.779528 0 0 1 -36.68828,-86.92913 L-43.46457,-86.92913 Z" />
    </g>
  </g>
</svg>