<?xml version="1.0" encoding="utf-8"?>
<!DOCTYPE svg PUBLIC "-//W3C//DTD SVG 1.1//EN" "http://www.w3.org/Graphics/SVG/1.1/DTD/svg11.dtd">
<svg width="126.1334mm" height="104.1114mm" viewBox="0, 0, 476.7248, 393.492" version="1.1" xmlns:xlink="http://www.w3.org/1999/xlink" xmlns:xml="http://www.w3.org/XML/1998/namespace" xmlns:sodipodi="http://sodipodi.sourceforge.net/DTD/sodipodi-0.dtd" xmlns:inkscape="http://www.inkscape.org/namespaces/inkscape" xmlns="http://www.w3.org/2000/svg">
  <sodipodi:namedview inkscape:document-units="mm" />
  <g inkscape:groupmode="layer" inkscape:label="Contours" id="Contours" transform="translate(360.5044,135.846)">
    <g inkscape:groupmode="layer" inkscape:label="Layer0" id="Layer0" stroke-width="0.3779528" style="stroke:black;fill:none;">
      <path d="M-162.918,-75.59055 L-238.5085,-75.59055 L-238.5085,-77.17389 L-238.5085,-96.07153 L-276.3038,-96.07153 L-276.3038,-77.17389 L-276.3038,-75.59055 L-280.7549,-75.59055 L-314.7707,-75.59055 L-316.8501,-75.59055 L-318.9296,-75.59055 L-322.7091,-75.59055 L-322.7091,75.59055 L-318.9296,75.59055 L-316.8501,75.59055 L-314.7707,75.59055 L-280.7549,75.59055 L-276.3038,75.59055 L-276.3038,80.04167 L-276.3038,136.7346 L-276.3038,157.5136 L-276.3038,199.0717 L-276.3038,219.8507 L-125.1227,219.8507 L-125.1227,199.0717 L-125.1227,157.5136 L-125.1227,136.7346 L-125.1227,80.04167 L-125.1227,75.59055 L-120.6716,75.59055 L-82.87632,75.59055 L-78.42519,75.59055 L78.42519,75.59055 L78.42519,-75.59055 L-78.42519,-75.59055 L-82.87632,-75.59055 L-120.6716,-75.59055 L-125.1227,-75.59055 L-125.1227,-79.15305 L-125.1227,-98.05069 L-162.918,-98.05069 L-162.918,-79.15305 L-162.918,-75.59055 Z" />
      <path d="M-177.5538,-14.36829 A27.25456,27.25456 0 0 1 -173.4587,0 A27.25456,27.25456 0 0 1 -177.1383,13.67592 L-177.0604,18.92933 L-181.1637,18.99012 A27.25456,27.25456 0 0 1 -219.6917,19.56091 L-222.4519,19.6018 L-222.4997,16.37571 A27.25456,27.25456 0 0 1 -222.9752,-15.72313 L-223.1873,-30.03643 L-177.7958,-30.70891 L-177.5538,-14.36829 Z" />
      <path d="M19.63936,-30.03643 L18.90396,19.6018 L-26.48747,18.92933 L-25.75208,-30.70891 L19.63936,-30.03643 Z" />
    </g>
    <g inkscape:groupmode="layer" inkscape:label="Layer1" id="Layer1" stroke-width="0.3779528" style="stroke:black;fill:none;">
      <path d="M-162.918,-75.59055 L-238.5085,-75.59055 L-276.3038,-75.59055 L-280.7549,-75.59055 L-314.7707,-75.59055 L-316.8501,-75.59055 L-318.9296,-75.59055 L-322.7091,-75.59055 L-322.7091,75.59055 L-318.9296,75.59055 L-316.8501,75.59055 L-314.7707,75.59055 L-280.7549,75.59055 L-276.3038,75.59055 L-276.3038,80.04167 L-276.3038,136.7346 L-276.3038,157.5136 L-276.3038,199.0717 L-276.3038,219.8507 L-125.1227,219.8507 L-125.1227,199.0717 L-125.1227,157.5136 L-125.1227,136.7346 L-125.1227,80.04167 L-125.1227,75.59055 L-120.6716,75.59055 L-82.87632,75.59055 L-78.42519,75.59055 L78.42519,75.59055 L78.42519,-75.59055 L-78.42519,-75.59055 L-82.87632,-75.59055 L-120.6716,-75.59055 L-125.1227,-75.59055 L-162.918,-75.59055 Z" />
      <path d="M-257.4062,56.69291 L-257.4062,37.79528 L-238.5085,37.79528 L-238.5085,56.69291 L-257.4062,56.69291 Z" />
      <path d="M-144.0204,37.79528 A15.14433,15.14433 0 0 1 -162.918,56.69291 L-162.918,37.79528 L-144.0204,37.79528 Z" />
      <path d="M-177.5538,-14.36829 A27.25456,27.25456 0 0 1 -173.4587,0 A27.25456,27.25456 0 0 1 -177.1383,13.67592 L-177.0604,18.92933 L-181.1637,18.99012 A27.25456,27.25456 0 0 1 -219.6917,19.56091 L-222.4519,19.6018 L-222.4997,16.37571 A27.25456,27.25456 0 0 1 -222.9752,-15.72313 L-223.1873,-30.03643 L-177.7958,-30.70891 L-177.5538,-14.36829 Z" />
      <circle cx="-246.0676" cy="-45.35433" r="11.33858" />
      <circle cx="-155.3589" cy="-45.35433" r="10.69012" />
      <path d="M19.63936,-30.03643 L18.90396,19.6018 L-26.48747,18.92933 L-25.75208,-30.70891 L19.63936,-30.03643 Z" />
      <path d="M-276.3038,-77.17389 L-238.5085,-77.17389 L-238.5085,-96.07153 L-276.3038,-96.07153 L-276.3038,-77.17389 Z" />
      <path d="M-162.918,-79.15305 L-125.1227,-79.15305 L-125.1227,-98.05069 L-162.918,-98.05069 L-162.918,-79.15305 Z" />
    </g>
  </g>
</svg>