
CASCADE Topology V1, (c) Matra-Datavision
Locations 3
1
0.977209209045565 0.212278500457631               0 -113.162000474263 
-0.212278500457631 0.977209209045565              -0 -194.89691888934 
             -0               0               1               0 
1
0.977209209045565 -0.212278500457631               0 -0.914192553238209 
0.212278500457631 0.977209209045565               0 66.2118765010454 
              0               0               1               0 
2  2 -1 0
Curve2ds 62
1 50 0 0 -1 
1 0 0 0 1 
8 -5 55
1 0 -76.643689187591264 1 0 
8 -5 55
1 0 3.1078069360200997 1 0 
8 -44.561073262261019 -32.2812053599514
1 40 -33.105938250522712 0 1 
8 -44.561073262261019 -32.2812053599514
1 -6.1343215461986391 -32.545491156835574 -0.21227850045763116 -0.97720920904556541 
8 -5 55
1 0 -66.410465935666579 1 0 
8 -5 55
1 0 0.93551364925336367 1 0 
8 -44.561073262261019 -32.2812053599514
1 30 -33.105938250522712 0 1 
8 -44.561073262261019 -32.2812053599514
1 -6.1343215461986391 -32.545491156835574 -0.21227850045763116 -0.97720920904556541 
8 -44.561073262261019 -32.2812053599514
1 20 -33.105938250522712 0 1 
8 -44.561073262261019 -32.2812053599514
1 -6.1343215461986391 -32.545491156835574 -0.21227850045763116 -0.97720920904556541 
8 -44.561073262261019 -32.2812053599514
1 10 -33.105938250522712 0 1 
8 -44.561073262261019 -32.2812053599514
1 -6.1343215461986391 -32.545491156835574 -0.21227850045763116 -0.97720920904556541 
1 0 0 0 -1 
1 0 0 0 1 
1 0 0 1 0 
1 0 0 1 0 
1 50 0 0 1 
1 0 10 1 0 
1 -3.0369775578145206 75.983968591501082 0.97720920904556541 0.21227850045763116 
1 50 0 0 -1 
1 10 0 0 1 
1 50 0 0 1 
1 0 0 1 0 
8 2.0844846108276305 14.364352513137241
1 40 -1.3019041965097494e-15 0 1 
8 2.0844846108276305 14.364352513137241
1 -4.4408920985006262e-16 10.000000000000004 1 0 
8 -5 55
1 0 -78.815982474357995 1 0 
8 -5 55
1 0 13.341030187944773 1 0 
8 -46.73336654902775 -34.453498646718131
1 40 -33.105938250522712 0 1 
8 -46.73336654902775 -34.453498646718131
1 3.6377705442570152 -34.668276161411882 -0.21227850045763116 -0.97720920904556541 
8 -0.087808675939103797 12.192059226370505
1 40 0 0 1 
8 -0.087808675939103797 12.192059226370505
1 0 0 1 0 
8 -0.087808675939103797 12.192059226370505
1 30 0 0 1 
8 -0.087808675939103797 12.192059226370505
1 0 0 1 0 
8 -5 55
1 0 -68.58275922243331 1 0 
8 -5 55
1 0 11.168736901178038 1 0 
8 2.0844846108276305 14.364352513137241
1 30 -1.3019041965097494e-15 0 1 
8 2.0844846108276305 14.364352513137241
1 -4.4408920985006262e-16 10.000000000000004 1 0 
8 -46.73336654902775 -34.453498646718131
1 30 -33.105938250522712 0 1 
8 -46.73336654902775 -34.453498646718131
1 3.6377705442570152 -34.668276161411882 -0.21227850045763116 -0.97720920904556541 
8 2.0844846108276305 14.364352513137241
1 20 -1.3019041965097494e-15 0 1 
8 2.0844846108276305 14.364352513137241
1 -4.4408920985006262e-16 10.000000000000004 1 0 
8 -46.73336654902775 -34.453498646718131
1 20 -33.105938250522712 0 1 
8 -46.73336654902775 -34.453498646718131
1 3.6377705442570152 -34.668276161411882 -0.21227850045763116 -0.97720920904556541 
8 -0.087808675939103797 12.192059226370505
1 20 0 0 1 
8 -0.087808675939103797 12.192059226370505
1 0 0 1 0 
8 -0.087808675939103797 12.192059226370505
1 10 0 0 1 
8 -0.087808675939103797 12.192059226370505
1 0 0 1 0 
8 2.0844846108276305 14.364352513137241
1 10 -1.3019041965097494e-15 0 1 
8 2.0844846108276305 14.364352513137241
1 -4.4408920985006262e-16 10.000000000000004 1 0 
8 -46.73336654902775 -34.453498646718131
1 10 -33.105938250522712 0 1 
8 -46.73336654902775 -34.453498646718131
1 3.6377705442570152 -34.668276161411882 -0.21227850045763116 -0.97720920904556541 
1 0 0 0 1 
1 0 10 1 0 
1 -3.0369775578145206 75.983968591501082 0.97720920904556541 0.21227850045763116 
1 0 0 0 -1 
1 10 0 0 1 
1 0 0 0 1 
1 0 0 1 0 
1 0 0 1 0 
1 0 10 1 0 
Curves 30
1 0 0 50 -0 1 0 
1 2.2204460492503131e-16 76.643689187591264 0 0 0 1 
1 0 33.105938250522712 40 0 -1 0 
1 5.5511151231257827e-17 66.410465935666579 0 0 0 1 
1 0 33.105938250522712 30 0 -1 0 
1 0 33.105938250522712 20 0 -1 0 
1 0 33.105938250522712 10 0 -1 0 
1 0 0 0 -0 1 0 
1 0 0 0 0 0 1 
1 0 10 50 1 0 -0 
1 10 0 50 -0 1 0 
1 0 0 50 1 0 -0 
1 -3.0369775578145219 75.983968591501082 40 0.97720920904556541 0.21227850045763116 -0 
1 10 78.815982474357995 0 0 0 1 
1 10 33.105938250522712 40 0 -1 0 
1 -0.91419255323820892 66.211876501045424 40 0.97720920904556541 0.21227850045763116 -0 
1 -0.91419255323820892 66.211876501045424 30 0.97720920904556541 0.21227850045763116 -0 
1 10 68.58275922243331 0 0 0 1 
1 -3.0369775578145219 75.983968591501082 30 0.97720920904556541 0.21227850045763116 -0 
1 10 33.105938250522712 30 0 -1 0 
1 -3.0369775578145219 75.983968591501082 20 0.97720920904556541 0.21227850045763116 -0 
1 10 33.105938250522712 20 0 -1 0 
1 -0.91419255323820892 66.211876501045424 20 0.97720920904556541 0.21227850045763116 -0 
1 -0.91419255323820892 66.211876501045424 10 0.97720920904556541 0.21227850045763116 -0 
1 -3.0369775578145219 75.983968591501082 10 0.97720920904556541 0.21227850045763116 -0 
1 10 33.105938250522712 10 0 -1 0 
1 0 10 0 1 0 -0 
1 10 0 0 -0 1 0 
1 0 0 0 1 0 -0 
1 10 0 0 0 0 1 
Polygon3D 0
PolygonOnTriangulations 72
2 1 2 
p 0.308078816775666 1 0 76.6436891875912 
2 1 2 
p 0.308078816775666 1 0 76.6436891875912 
2 3 2 
p 0.308078816775666 1 40 50 
2 1 4 
p 0.308078816775666 1 40 50 
2 3 4 
p 0.308078816775666 1 -43.5377509370686 -33.3045276851439 
2 1 3 
p 0.308078816775666 1 -43.5377509370686 -33.3045276851439 
2 5 4 
p 0.308078816775666 1 30 40 
2 1 3 
p 0.308078816775666 1 30 40 
2 6 5 
p 0.308078816775666 1 -43.5377509370686 -33.3045276851439 
2 1 3 
p 0.308078816775666 1 -43.5377509370686 -33.3045276851439 
2 7 6 
p 0.308078816775666 1 20 30 
2 1 4 
p 0.308078816775666 1 20 30 
2 7 8 
p 0.308078816775666 1 -43.5377509370686 -33.3045276851439 
2 1 3 
p 0.308078816775666 1 -43.5377509370686 -33.3045276851439 
2 9 8 
p 0.308078816775666 1 10 20 
2 1 3 
p 0.308078816775666 1 10 20 
2 10 9 
p 0.308078816775666 1 -43.5377509370686 -33.3045276851439 
2 1 3 
p 0.308078816775666 1 -43.5377509370686 -33.3045276851439 
2 11 10 
p 0.308078816775666 1 0 10 
2 1 4 
p 0.308078816775666 1 0 10 
2 12 11 
p 0.308078816775666 1 0 76.6436891875912 
2 1 2 
p 0.308078816775666 1 0 76.6436891875912 
2 12 1 
p 0.308078816775666 1 0 50 
2 1 4 
p 0.308078816775666 1 0 50 
2 2 3 
p 0.308078816775666 1 3.1078069360201 13.3410301879448 
2 4 3 
p 0.308078816775666 1 3.1078069360201 13.3410301879448 
2 4 3 
p 0.308078816775666 1 0 78.815982474358 
2 1 2 
p 0.308078816775666 1 0 78.815982474358 
2 1 4 
p 0.308078816775666 1 0 10 
2 4 3 
p 0.308078816775666 1 0 10 
2 1 2 
p 0.308078816775666 1 3.1078069360201 13.3410301879448 
2 1 2 
p 0.308078816775666 1 3.1078069360201 13.3410301879448 
2 2 3 
p 0.308078816775666 1 40 50 
2 3 2 
p 0.308078816775666 1 40 50 
2 2 4 
p 0.308078816775666 1 -45.7100442238353 -35.4768209719106 
2 3 4 
p 0.308078816775666 1 -45.7100442238353 -35.4768209719106 
2 3 4 
p 0.308078816775666 1 0.935513649253364 11.168736901178 
2 3 4 
p 0.308078816775666 1 0.935513649253364 11.168736901178 
2 1 2 
p 0.308078816775666 1 0.935513649253364 11.168736901178 
2 3 4 
p 0.308078816775666 1 0.935513649253364 11.168736901178 
2 2 4 
p 0.308078816775666 1 30 40 
2 5 4 
p 0.308078816775666 1 30 40 
2 1 2 
p 0.308078816775666 1 3.1078069360201 13.3410301879448 
2 4 3 
p 0.308078816775666 1 3.1078069360201 13.3410301879448 
2 2 4 
p 0.308078816775666 1 -45.7100442238353 -35.4768209719106 
2 6 5 
p 0.308078816775666 1 -45.7100442238353 -35.4768209719106 
2 1 2 
p 0.308078816775666 1 3.1078069360201 13.3410301879448 
2 1 2 
p 0.308078816775666 1 3.1078069360201 13.3410301879448 
2 2 3 
p 0.308078816775666 1 20 30 
2 7 6 
p 0.308078816775666 1 20 30 
2 2 4 
p 0.308078816775666 1 -45.7100442238353 -35.4768209719106 
2 7 8 
p 0.308078816775666 1 -45.7100442238353 -35.4768209719106 
2 3 4 
p 0.308078816775666 1 0.935513649253364 11.168736901178 
2 3 4 
p 0.308078816775666 1 0.935513649253364 11.168736901178 
2 1 2 
p 0.308078816775666 1 0.935513649253364 11.168736901178 
2 3 4 
p 0.308078816775666 1 0.935513649253364 11.168736901178 
2 2 4 
p 0.308078816775666 1 10 20 
2 9 8 
p 0.308078816775666 1 10 20 
2 1 2 
p 0.308078816775666 1 3.1078069360201 13.3410301879448 
2 4 3 
p 0.308078816775666 1 3.1078069360201 13.3410301879448 
2 2 4 
p 0.308078816775666 1 -45.7100442238353 -35.4768209719106 
2 10 9 
p 0.308078816775666 1 -45.7100442238353 -35.4768209719106 
2 1 2 
p 0.308078816775666 1 3.1078069360201 13.3410301879448 
2 2 3 
p 0.308078816775666 1 3.1078069360201 13.3410301879448 
2 2 3 
p 0.308078816775666 1 0 10 
2 11 10 
p 0.308078816775666 1 0 10 
2 4 3 
p 0.308078816775666 1 0 78.815982474358 
2 12 11 
p 0.308078816775666 1 0 78.815982474358 
2 1 4 
p 0.308078816775666 1 0 10 
2 1 2 
p 0.308078816775666 1 0 10 
2 2 3 
p 0.308078816775666 1 0 50 
2 12 1 
p 0.308078816775666 1 0 50 
Surfaces 13
1 0 0 0 1 0 -0 0 0 1 0 -1 0 
1 0 0 50 0 0 1 1 0 -0 -0 1 0 
1 0 10 0 -0 1 0 0 0 1 1 0 -0 
1 -0.91419255323820892 66.211876501045424 40 0 0 1 0.97720920904556541 0.21227850045763116 -0 -0.21227850045763116 0.97720920904556541 0 
1 0 0 0 -0 1 0 0 0 1 1 0 -0 
1 -0.91419255323820892 66.211876501045424 30 0 0 1 0.97720920904556541 0.21227850045763116 -0 -0.21227850045763116 0.97720920904556541 0 
1 -0.91419255323820892 66.211876501045424 20 0 0 1 0.97720920904556541 0.21227850045763116 -0 -0.21227850045763116 0.97720920904556541 0 
1 -0.91419255323820892 66.211876501045424 10 0 0 1 0.97720920904556541 0.21227850045763116 -0 -0.21227850045763116 0.97720920904556541 0 
1 0 0 0 0 0 1 1 0 -0 -0 1 0 
1 0 0 0 -0 1 0 0 0 1 1 0 -0 
1 0 0 50 0 0 1 1 0 -0 -0 1 0 
1 10 0 0 1 0 -0 0 0 1 0 -1 0 
1 0 0 0 0 0 1 1 0 -0 -0 1 0 
Triangulations 14
12 10 1 9.32587340685131e-15
0 0 50 -1.4210854715202e-14 76.6436891875913 50 -1.4210854715202e-14 76.6436891875913 40 0 66.4104659356666 40 0 66.4104659356666 30 -1.4210854715202e-14 76.6436891875913 30 -1.4210854715202e-14 76.6436891875913 20 0 66.4104659356666 20 0 66.4104659356666 10 -1.4210854715202e-14 76.6436891875913 10 -1.4210854715202e-14 76.6436891875913 0 0 0 0 50 0 50 -76.6436891875912 40 -76.6436891875913 40 -66.4104659356666 30 -66.4104659356666 30 -76.6436891875913 20 -76.6436891875913 20 -66.4104659356666 10 -66.4104659356666 10 -76.6436891875913 0 -76.6436891875913 0 0 9 11 10 5 7 6 5 8 7 4 3 2 12 9 8 12 11 9 1 5 4 1 8 5 1 12 8 1 4 2 
4 2 1 4.44089209850063e-16
0 0 50 -1.4210854715202e-14 76.6436891875913 50 9.99999999999999 78.815982474358 50 10 0 50 0 0 0 76.6436891875912 10 78.815982474358 10 0 2 1 4 3 2 4 
4 2 1 2.368475785867e-14
-1.4210854715202e-14 76.6436891875913 40 10 78.815982474358 40 9.99999999999999 78.815982474358 50 -1.4210854715202e-14 76.6436891875913 50 40 3.1078069360201 40 13.3410301879448 50 13.3410301879448 50 3.1078069360201 3 2 1 3 1 4 
4 2 1 4.44089209850063e-16
-1.4210854715202e-14 76.6436891875913 40 10 78.815982474358 40 0 66.4104659356666 40 10 68.5827592224333 40 3.1078069360201 10 13.3410301879448 10 0.935513649253363 0 11.168736901178 0 1 3 4 2 1 4 
4 2 1 5.32907051820075e-15
0 66.4104659356666 30 10 68.5827592224333 30 0 66.4104659356666 40 10 68.5827592224333 40 30 0.935513649253364 30 11.168736901178 40 0.935513649253364 40 11.168736901178 4 2 1 4 1 3 
4 2 1 4.44089209850063e-16
-1.4210854715202e-14 76.6436891875913 30 10 78.815982474358 30 0 66.4104659356666 30 10 68.5827592224333 30 3.1078069360201 10 13.3410301879448 10 0.935513649253363 0 11.168736901178 0 1 3 4 2 1 4 
4 2 1 2.89169943032514e-14
-1.4210854715202e-14 76.6436891875913 20 10 78.815982474358 20 10 78.815982474358 30 -1.4210854715202e-14 76.6436891875913 30 20 3.1078069360201 20 13.3410301879448 30 13.3410301879448 30 3.1078069360201 3 2 1 3 1 4 
4 2 1 4.44089209850063e-16
-1.4210854715202e-14 76.6436891875913 20 10 78.815982474358 20 0 66.4104659356666 20 10 68.5827592224333 20 3.1078069360201 10 13.3410301879448 10 0.935513649253363 0 11.168736901178 0 1 3 4 2 1 4 
4 2 1 5.32907051820075e-15
0 66.4104659356666 10 10 68.5827592224333 10 0 66.4104659356666 20 10 68.5827592224333 20 10 0.935513649253364 10 11.168736901178 20 0.935513649253364 20 11.168736901178 4 2 1 4 1 3 
4 2 1 4.44089209850063e-16
-1.4210854715202e-14 76.6436891875913 10 10 78.815982474358 10 0 66.4104659356666 10 10 68.5827592224333 10 3.1078069360201 10 13.3410301879448 10 0.935513649253363 0 11.168736901178 0 1 3 4 2 1 4 
4 2 1 2.368475785867e-14
-1.4210854715202e-14 76.6436891875913 0 9.99999999999999 78.815982474358 0 10 78.815982474358 10 -1.4210854715202e-14 76.6436891875913 10 0 3.1078069360201 0 13.3410301879448 10 13.3410301879448 10 3.1078069360201 2 1 4 3 2 4 
4 2 1 4.44089209850063e-16
0 0 0 -1.4210854715202e-14 76.6436891875913 0 9.99999999999999 78.815982474358 0 10 0 0 0 0 0 76.6436891875912 10 78.815982474358 10 0 2 1 4 3 2 4 
4 2 1 8.43769498715119e-15
0 0 0 10 0 0 10 0 50 0 0 50 0 0 0 10 50 10 50 0 3 2 1 3 1 4 
12 10 1 1.81425525410144e-14
10 0 50 9.99999999999999 78.815982474358 50 10 78.815982474358 40 10 68.5827592224333 40 10 68.5827592224333 30 10 78.815982474358 30 10 78.815982474358 20 10 68.5827592224333 20 10 68.5827592224333 10 10 78.815982474358 10 9.99999999999999 78.815982474358 0 10 0 0 50 0 50 -78.815982474358 40 -78.815982474358 40 -68.5827592224333 30 -68.5827592224333 30 -78.815982474358 20 -78.815982474358 20 -68.5827592224333 10 -68.5827592224333 10 -78.815982474358 0 -78.815982474358 0 0 9 11 10 5 7 6 5 8 7 4 3 2 12 9 8 12 11 9 1 5 4 1 8 5 1 12 8 1 4 2 

TShapes 92
Ve
1e-07
0 0 50
0 0

0101101
*
Ve
2.39013110850356e-07
2.22044604925031e-16 76.6436891875912 50
0 0

0101101
*
Ed
 1e-07 1 1 0
1  1 0 0 76.6436891875912
2  1 1 0 0 76.6436891875912
2  2 2 0 0 76.6436891875912
6  1 1 0
6  2 2 0
0

0101000
+92 0 -91 0 *
Ve
2.12133034355964e-07
2.22044604925031e-16 76.6436891875913 40
0 0

0101101
*
Ed
 1.5e-07 1 1 0
1  2 0 40 50
2  3 1 0 40 50
2  4 3 2 40 50
6  3 1 0
6  4 3 0
0

0101000
+89 0 -91 0 *
Ve
2.39013110850356e-07
5.55111512312578e-17 66.4104659356666 40
0 0

0101101
*
Ed
 1.5e-07 1 1 0
1  3 0 -43.5377509370686 -33.3045276851439
2  5 1 0 -43.5377509370686 -33.3045276851439
2  6 4 0 -43.5377509370686 -33.3045276851439
6  5 1 0
6  6 4 0
0

0101000
+89 0 -87 0 *
Ve
2.39013110850356e-07
5.55111512312578e-17 66.4104659356666 30
0 0

0101101
*
Ed
 1.5e-07 1 1 0
1  4 0 30 40
2  7 1 0 30 40
2  8 5 2 30 40
6  7 1 0
6  8 5 0
0

0101000
+85 0 -87 0 *
Ve
2.12133034355964e-07
2.22044604925031e-16 76.6436891875913 30
0 0

0101101
*
Ed
 1.5e-07 1 1 0
1  5 0 -43.5377509370686 -33.3045276851439
2  9 1 0 -43.5377509370686 -33.3045276851439
2  10 6 0 -43.5377509370686 -33.3045276851439
6  9 1 0
6  10 6 0
0

0101000
+83 0 -85 0 *
Ve
2.12133034355964e-07
2.22044604925031e-16 76.6436891875913 20
0 0

0101101
*
Ed
 1.5e-07 1 1 0
1  2 0 20 30
2  3 1 0 20 30
2  4 3 2 20 30
6  11 1 0
6  12 7 0
0

0101000
+81 0 -83 0 *
Ve
2.39013110850356e-07
5.55111512312578e-17 66.4104659356666 20
0 0

0101101
*
Ed
 1.5e-07 1 1 0
1  6 0 -43.5377509370686 -33.3045276851439
2  11 1 0 -43.5377509370686 -33.3045276851439
2  12 7 0 -43.5377509370686 -33.3045276851439
6  13 1 0
6  14 8 0
0

0101000
+81 0 -79 0 *
Ve
2.39013110850356e-07
5.55111512312578e-17 66.4104659356666 10
0 0

0101101
*
Ed
 1.5e-07 1 1 0
1  4 0 10 20
2  7 1 0 10 20
2  8 5 2 10 20
6  15 1 0
6  16 9 0
0

0101000
+77 0 -79 0 *
Ve
2.12133034355964e-07
2.22044604925031e-16 76.6436891875913 10
0 0

0101101
*
Ed
 1.5e-07 1 1 0
1  7 0 -43.5377509370686 -33.3045276851439
2  13 1 0 -43.5377509370686 -33.3045276851439
2  14 8 0 -43.5377509370686 -33.3045276851439
6  17 1 0
6  18 10 0
0

0101000
+75 0 -77 0 *
Ve
2.39013110850356e-07
2.22044604925031e-16 76.6436891875912 0
0 0

0101101
*
Ed
 1.5e-07 1 1 0
1  2 0 0 10
2  3 1 0 0 10
2  4 3 2 0 10
6  19 1 0
6  20 11 0
0

0101000
+73 0 -75 0 *
Ve
1e-07
0 0 0
0 0

0101101
*
Ed
 1e-07 1 1 0
1  8 0 0 76.6436891875912
2  15 1 0 0 76.6436891875912
2  16 9 0 0 76.6436891875912
6  21 1 0
6  22 12 0
0

0101000
+71 0 -73 0 *
Ed
 1e-07 1 1 0
1  9 0 0 50
2  17 1 0 0 50
2  18 10 0 0 50
6  23 1 0
6  24 13 0
0

0101000
-92 0 +71 0 *
Wi

0101100
-90 0 +88 0 -86 0 +84 0 +82 0 +80 0 -78 0 +76 0 +74 0 +72 0 
+70 0 -69 0 *
Fa
0  1e-07 1 0
2  1
0111000
+68 0 *
Ve
2.39013110850356e-07
10 78.815982474358 50
0 0

0101101
*
Ed
 1e-07 1 1 0
1  10 0 3.1078069360201 13.3410301879448
2  19 3 0 3.1078069360201 13.3410301879448
2  20 11 0 3.1078069360201 13.3410301879448
2  21 2 3 3.1078069360201 13.3410301879448
6  25 2 3
6  26 3 3
0

0101000
+91 3 -66 3 *
Ve
1e-07
10 0 50
0 0

0101101
*
Ed
 1e-07 1 1 0
1  11 0 0 78.815982474358
2  22 12 0 0 78.815982474358
2  23 2 0 0 78.815982474358
6  27 2 0
6  28 14 0
0

0101000
+64 0 -66 0 *
Ed
 1e-07 1 1 0
1  12 0 0 10
2  24 10 0 0 10
2  25 2 0 0 10
6  29 2 0
6  30 13 0
0

0101000
-64 0 +92 0 *
Wi

0101100
-90 0 -65 2 +63 0 +62 0 *
Fa
0  1e-07 2 0
2  2
0101000
+61 0 *
Ve
2.12133034355964e-07
10 78.815982474358 40
0 0

0101101
*
Ed
 1.5e-07 1 1 0
1  13 0 3.1078069360201 13.3410301879448
2  26 3 2 3.1078069360201 13.3410301879448
2  27 4 0 3.1078069360201 13.3410301879448
6  31 3 0
6  32 4 0
0

0101000
+89 0 -59 0 *
Ed
 1.5e-07 1 1 0
1  14 0 40 50
2  28 12 0 40 50
2  29 3 2 40 50
6  33 3 0
6  34 14 0
0

0101000
+59 0 -66 0 *
Wi

0101100
-58 0 -57 0 +65 2 +88 0 *
Fa
0  1e-07 3 2
2  3
0101000
+56 0 *
Ve
2.39013110850356e-07
10 68.5827592224333 40
0 0

0101101
*
Ed
 1.5e-07 1 1 0
1  15 0 -45.7100442238353 -35.4768209719106
2  30 12 0 -45.7100442238353 -35.4768209719106
2  31 4 0 -45.7100442238353 -35.4768209719106
6  35 4 0
6  36 14 0
0

0101000
+59 0 -54 0 *
Ed
 1.5e-07 1 1 0
1  16 0 0.935513649253364 11.168736901178
2  32 5 2 0.935513649253364 11.168736901178
2  33 4 0 0.935513649253364 11.168736901178
6  37 4 0
6  38 5 0
0

0101000
+87 0 -54 0 *
Wi

0101100
-58 0 +86 0 -53 0 +52 0 *
Fa
0  1e-07 4 0
2  4
0101000
+51 0 *
Ve
2.39013110850356e-07
10 68.5827592224333 30
0 0

0101101
*
Ed
 1.5e-07 1 1 0
1  17 0 0.935513649253364 11.168736901178
2  34 5 2 0.935513649253364 11.168736901178
2  35 6 0 0.935513649253364 11.168736901178
6  39 5 0
6  40 6 0
0

0101000
+85 0 -49 0 *
Ed
 1.5e-07 1 1 0
1  18 0 30 40
2  36 12 0 30 40
2  37 5 2 30 40
6  41 5 0
6  42 14 0
0

0101000
+49 0 -54 0 *
Wi

0101100
-48 0 +84 0 -47 0 +52 0 *
Fa
0  1e-07 5 2
2  5
0101000
+46 0 *
Ve
2.12133034355964e-07
10 78.815982474358 30
0 0

0101101
*
Ed
 1.5e-07 1 1 0
1  19 0 3.1078069360201 13.3410301879448
2  38 3 2 3.1078069360201 13.3410301879448
2  39 6 0 3.1078069360201 13.3410301879448
6  43 6 0
6  44 7 0
0

0101000
+83 0 -44 0 *
Ed
 1.5e-07 1 1 0
1  20 0 -45.7100442238353 -35.4768209719106
2  40 12 0 -45.7100442238353 -35.4768209719106
2  41 6 0 -45.7100442238353 -35.4768209719106
6  45 6 0
6  46 14 0
0

0101000
+44 0 -49 0 *
Wi

0101100
-43 0 +82 0 -42 0 +48 0 *
Fa
0  1e-07 6 0
2  6
0101000
+41 0 *
Ve
2.12133034355964e-07
10 78.815982474358 20
0 0

0101101
*
Ed
 1.5e-07 1 1 0
1  21 0 3.1078069360201 13.3410301879448
2  42 3 2 3.1078069360201 13.3410301879448
2  43 7 0 3.1078069360201 13.3410301879448
6  47 7 0
6  48 8 0
0

0101000
+81 0 -39 0 *
Ed
 1.5e-07 1 1 0
1  14 0 20 30
2  28 12 0 20 30
2  29 3 2 20 30
6  49 7 0
6  50 14 0
0

0101000
+39 0 -44 0 *
Wi

0101100
-38 0 -37 0 +43 0 +80 0 *
Fa
0  1e-07 3 2
2  7
0101000
+36 0 *
Ve
2.39013110850356e-07
10 68.5827592224333 20
0 0

0101101
*
Ed
 1.5e-07 1 1 0
1  22 0 -45.7100442238353 -35.4768209719106
2  44 12 0 -45.7100442238353 -35.4768209719106
2  45 7 0 -45.7100442238353 -35.4768209719106
6  51 8 0
6  52 14 0
0

0101000
+39 0 -34 0 *
Ed
 1.5e-07 1 1 0
1  23 0 0.935513649253364 11.168736901178
2  46 5 2 0.935513649253364 11.168736901178
2  47 7 0 0.935513649253364 11.168736901178
6  53 8 0
6  54 9 0
0

0101000
+79 0 -34 0 *
Wi

0101100
-38 0 +78 0 -33 0 +32 0 *
Fa
0  1e-07 7 0
2  8
0101000
+31 0 *
Ve
2.39013110850356e-07
10 68.5827592224333 10
0 0

0101101
*
Ed
 1.5e-07 1 1 0
1  24 0 0.935513649253364 11.168736901178
2  48 5 2 0.935513649253364 11.168736901178
2  49 8 0 0.935513649253364 11.168736901178
6  55 9 0
6  56 10 0
0

0101000
+77 0 -29 0 *
Ed
 1.5e-07 1 1 0
1  18 0 10 20
2  36 12 0 10 20
2  37 5 2 10 20
6  57 9 0
6  58 14 0
0

0101000
+29 0 -34 0 *
Wi

0101100
-28 0 +76 0 -27 0 +32 0 *
Fa
0  1e-07 5 2
2  9
0101000
+26 0 *
Ve
2.12133034355964e-07
10 78.815982474358 10
0 0

0101101
*
Ed
 1.5e-07 1 1 0
1  25 0 3.1078069360201 13.3410301879448
2  50 3 2 3.1078069360201 13.3410301879448
2  51 8 0 3.1078069360201 13.3410301879448
6  59 10 0
6  60 11 0
0

0101000
+75 0 -24 0 *
Ed
 1.5e-07 1 1 0
1  26 0 -45.7100442238353 -35.4768209719106
2  52 12 0 -45.7100442238353 -35.4768209719106
2  53 8 0 -45.7100442238353 -35.4768209719106
6  61 10 0
6  62 14 0
0

0101000
+24 0 -29 0 *
Wi

0101100
-23 0 +74 0 -22 0 +28 0 *
Fa
0  1e-07 8 0
2  10
0101000
+21 0 *
Ve
2.39013110850356e-07
10 78.815982474358 0
0 0

0101101
*
Ed
 1e-07 1 1 0
1  27 0 3.1078069360201 13.3410301879448
2  54 3 0 3.1078069360201 13.3410301879448
2  55 13 0 3.1078069360201 13.3410301879448
2  56 9 3 3.1078069360201 13.3410301879448
6  63 11 3
6  64 12 3
0

0101000
+73 3 -19 3 *
Ed
 1.5e-07 1 1 0
1  14 0 0 10
2  28 12 0 0 10
2  29 3 2 0 10
6  65 11 0
6  66 14 0
0

0101000
+19 0 -24 0 *
Wi

0101100
-18 2 -17 0 +23 0 +72 0 *
Fa
0  1e-07 3 2
2  11
0101000
+16 0 *
Ve
1e-07
10 0 0
0 0

0101101
*
Ed
 1e-07 1 1 0
1  28 0 0 78.815982474358
2  57 12 0 0 78.815982474358
2  58 9 0 0 78.815982474358
6  67 12 0
6  68 14 0
0

0101000
+14 0 -19 0 *
Ed
 1e-07 1 1 0
1  29 0 0 10
2  59 10 0 0 10
2  60 9 0 0 10
6  69 12 0
6  70 13 0
0

0101000
-14 0 +71 0 *
Wi

0101100
-70 0 -18 2 +13 0 +12 0 *
Fa
0  1e-07 9 0
2  12
0101000
+11 0 *
Ed
 1e-07 1 1 0
1  30 0 0 50
2  61 12 0 0 50
2  62 10 0 0 50
6  71 13 0
6  72 14 0
0

0101000
-64 0 +14 0 *
Wi

0101100
-12 0 -9 0 +62 0 +69 0 *
Fa
0  1e-07 10 0
2  13
0101000
+8 0 *
Wi

0101100
-63 0 +57 0 -53 0 +47 0 +42 0 +37 0 -33 0 +27 0 +22 0 +17 0 
+13 0 -9 0 *
Fa
0  1e-07 12 0
2  14
0111000
+6 0 *
Sh

0101100
-67 0 +60 0 +55 0 -50 0 +45 0 +40 0 +35 0 -30 0 +25 0 +20 0 
+15 0 -10 0 -7 0 +5 0 *
So

0100000
+4 0 *
Co

0100000
+3 0 *
Co

1100000
+2 1 *

+1 0  