
CASCADE Topology V1, (c) Matra-Datavision
Locations 1
1
              1               0               0               0 
              0               1               0               0 
              0               0               1               0 
Curve2ds 30
8 -14.000000000000007 33.999999999999993
1 -16.817490457910072 14.736757265358767 0.92582009977255153 0.3779644730092272 
8 -33.999999999999993 14.000000000000007
1 22.29604672554332 -1.6989115375409733 0.37796447300922725 -0.92582009977255153 
8 -14.000000000000007 33.999999999999993
1 -1.6989115375409698 -22.296046725543324 0.92582009977255153 0.3779644730092272 
8 -33.999999999999993 14.000000000000007
1 -14.736757265358769 -16.817490457910072 0.37796447300922725 -0.92582009977255153 
1 0 0 0 -1 
1 6.2831853071795862 0 0 -1 
1 0 0 1 0 
2 1.6228209304533386e-14 1.7555535511840116e-15 0.92582009977255153 0.3779644730092272 -0.3779644730092272 0.92582009977255153 7.2111025509279827
1 0 -1.0000000000000004 1 0 
1 4.1215073060972491 0 0 -1 
8 1.9999999999999991 7.9999999999999991
1 12.092934545294732 -3.164006018201869 0.37796447300922725 -0.92582009977255153 
1 6.2831853071795862 0 0 -1 
1 0 0 1 0 
2 14.558927729396528 -6.117721165523788 0.77565916075861785 0.63115201523185915 -0.63115201523185915 0.77565916075861785 4.00693842672377
1 0 -1.0000000000000004 1 0 
8 -10.5 -4.5
1 8.4087452289550395 -7.368378632679379 -0.92582009977255153 -0.3779644730092272 
1 0 0 0 -1 
1 6.2831853071795862 0 0 -1 
1 0 0 1 0 
2 -15.645414873381348 6.5742675211598947 0.92582009977255153 0.3779644730092272 -0.3779644730092272 0.92582009977255153 3.0000000000000018
1 0 -1.0000000000000004 1 0 
8 1.9999999999999991 7.9999999999999991
1 -11.052567949019071 -12.613117843432553 0.37796447300922725 -0.92582009977255153 
8 -10.5 -4.5
1 1.0403665962756548 -15.777123861634422 0.92582009977255153 0.3779644730092272 
8 -10.5 -4.4999999999999991
1 -7.3683786326793772 -8.408745228955036 -0.37796447300922725 0.92582009977255153 
8 2.0000000000000142 8.0000000000000142
1 -3.1640060182018641 -12.092934545294725 -0.92582009977255153 -0.3779644730092272 
1 0 0 0 -1 
1 6.2831853071795853 0 0 -1 
1 0 0 1 0 
2 6.5742675211599026 15.645414873381359 0.92582009977255153 0.3779644730092272 -0.3779644730092272 0.92582009977255153 2.8284271247461921
1 0 -1.0000000000000004 1 0 
Curves 42
1 -22.247448713915905 10.249440263823304 14.142135623730962 0.61237243569579458 0.35355339059327362 0.70710678118654757 
1 2.2474487139158943 24.391575887554264 -14.142135623730958 0.61237243569579458 0.35355339059327362 0.70710678118654757 
1 -16.123724356957954 13.784974169756044 7.0710678118654826 0.61237243569579458 0.35355339059327379 -0.70710678118654746 
1 -15.511351921262159 14.138527560349317 7.7781745930520305 0.61237243569579458 0.35355339059327379 -0.70710678118654746 
1 22.247448713915905 -10.249440263823308 -14.142135623730962 0.61237243569579458 0.35355339059327362 0.70710678118654757 
1 17.247448713915905 -1.589186225978914 -14.142135623730962 0.49999999999999994 -0.86602540378443871 -1.1102230246251565e-16 
1 17.859821149611701 -1.2356328353856403 -13.435028842544414 0.49999999999999994 -0.86602540378443871 -1.1102230246251565e-16 
1 -2.2474487139158938 -24.391575887554268 14.142135623730958 0.61237243569579458 0.35355339059327362 0.70710678118654757 
1 3.8762756430420575 -20.85604198162153 7.0710678118654773 0.61237243569579458 0.35355339059327379 -0.70710678118654746 
1 4.4886480787378522 -20.502488591028257 7.7781745930520252 0.61237243569579458 0.35355339059327379 -0.70710678118654746 
1 -7.2474487139158965 -15.731321849709873 14.142135623730958 0.49999999999999994 -0.86602540378443871 -1.1102230246251565e-16 
1 -6.6350762782201018 -15.3777684591166 14.849242404917506 0.49999999999999994 -0.86602540378443871 -1.1102230246251565e-16 
1 4.4158804331639177 2.5495097567963767 -5.0990195135928049 0.61237243569579458 0.35355339059327362 0.70710678118654757 
2 1.149080830487037e-14 1.4155343563970746e-15 -1.1546319456101628e-14 0.61237243569579447 0.35355339059327362 0.70710678118654757 0.61237243569579458 0.35355339059327379 -0.70710678118654746 -0.49999999999999994 0.86602540378443871 1.1102230246251565e-16 7.2111025509279827
2 0.61237243569580624 0.35355339059327517 0.70710678118653636 0.61237243569579447 0.35355339059327362 0.70710678118654757 0.61237243569579458 0.35355339059327379 -0.70710678118654746 -0.49999999999999994 0.86602540378443871 1.1102230246251565e-16 7.2111025509279827
1 11.123724356957947 -5.1247201319116495 -7.0710678118654871 0.61237243569579458 0.35355339059327362 0.70710678118654757 
1 13.623724356957947 -9.4548471508338547 -7.0710678118654871 0.61237243569579458 0.35355339059327362 0.70710678118654757 
1 9.8737243569579558 -2.9596566224505572 -7.0710678118654835 0.49999999999999994 -0.86602540378443871 -1.1102230246251565e-16 
1 10.48609679265375 -2.6061032318572832 -6.3639610306789356 0.49999999999999994 -0.86602540378443871 -1.1102230246251565e-16 
1 14.185586535436922 -3.3569531789452811 -10.606601717798224 0.61237243569579458 0.35355339059327362 0.70710678118654757 
2 12.42149219860303 -5.7226041473013449 -7.8960257232497897 0.61237243569579458 0.35355339059327356 0.70710678118654757 0.44025990643341922 0.59038864999238627 -0.67647058823529405 -0.65663628805240193 0.72556270711783966 0.20588235294117677 4.00693842672377
2 13.033864634298824 -5.369050756708071 -7.1889189420632418 0.61237243569579458 0.35355339059327356 0.70710678118654757 0.44025990643341922 0.59038864999238627 -0.67647058823529405 -0.65663628805240193 0.72556270711783966 0.20588235294117677 4.00693842672377
1 8.0618621784789788 -6.8924870848780184 -3.535533905932744 -0.61237243569579458 -0.35355339059327379 0.70710678118654746 
1 8.6742346141747735 -6.5389336942847445 -2.8284271247461961 -0.61237243569579458 -0.35355339059327379 0.70710678118654746 
1 -11.511351921262158 7.2103243300737976 6.3639610306789391 0.61237243569579458 0.35355339059327362 0.70710678118654757 
2 -13.34846922834954 6.1496641582939819 8.4852813742385713 0.61237243569579447 0.35355339059327362 0.70710678118654757 0.61237243569579458 0.35355339059327379 -0.70710678118654746 -0.49999999999999994 0.86602540378443871 1.1102230246251565e-16 3.0000000000000018
2 -12.736096792653745 6.5032175488872559 9.1923881554251192 0.61237243569579447 0.35355339059327362 0.70710678118654757 0.61237243569579458 0.35355339059327379 -0.70710678118654746 -0.49999999999999994 0.86602540378443871 1.1102230246251565e-16 3.0000000000000018
1 -4.1855865354369284 -13.963554896743501 10.606601717798217 0.61237243569579458 0.35355339059327362 0.70710678118654757 
1 -1.6855865354369284 -18.293681915665701 10.606601717798217 0.61237243569579458 0.35355339059327362 0.70710678118654757 
1 -5.4355865354369186 -11.798491387282404 10.606601717798217 0.49999999999999994 -0.86602540378443871 -1.1102230246251565e-16 
1 -4.8232140997411239 -11.444937996689131 11.313708498984765 0.49999999999999994 -0.86602540378443871 -1.1102230246251565e-16 
1 1.3762756430420469 -16.525914962699332 7.0710678118654782 0.61237243569579458 0.35355339059327362 0.70710678118654757 
1 4.4381378215210328 -14.758148009732961 3.5355339059327382 0.61237243569579458 0.35355339059327379 -0.70710678118654746 
1 5.0505102572168274 -14.404594619139688 4.2426406871192857 0.61237243569579458 0.35355339059327379 -0.70710678118654746 
1 -1.1237243569579531 -12.195787943777132 7.0710678118654782 0.61237243569579458 0.35355339059327362 0.70710678118654757 
1 -3.6237243569579425 -7.865660924854935 7.0710678118654764 -0.49999999999999994 0.86602540378443871 1.1102230246251565e-16 
1 -3.0113519212621478 -7.512107534261661 7.7781745930520243 -0.49999999999999994 0.86602540378443871 1.1102230246251565e-16 
1 0.40720673228154197 -11.311904467293944 5.3033008588991075 -0.61237243569579458 -0.35355339059327379 0.70710678118654746 
1 1.0195791679773367 -10.958351076700671 6.0104076400856554 -0.61237243569579458 -0.35355339059327379 0.70710678118654746 
1 3.0805200359184228 15.634945532532564 -10.485281374238578 0.61237243569579458 0.35355339059327362 0.70710678118654757 
2 1.3484692283495407 14.634945532532564 -8.4852813742385784 0.61237243569579447 0.35355339059327362 0.70710678118654757 0.61237243569579458 0.35355339059327379 -0.70710678118654746 -0.49999999999999994 0.86602540378443871 1.1102230246251565e-16 2.8284271247461921
2 1.9608416640453354 14.988498923125837 -7.7781745930520305 0.61237243569579447 0.35355339059327362 0.70710678118654757 0.61237243569579458 0.35355339059327379 -0.70710678118654746 -0.49999999999999994 0.86602540378443871 1.1102230246251565e-16 2.8284271247461921
Polygon3D 0
PolygonOnTriangulations 0
Surfaces 16
1 -22.247448713915905 10.249440263823303 14.142135623730962 -0.49999999999999994 0.86602540378443871 1.1102230246251565e-16 0.61237243569579469 0.35355339059327384 -0.70710678118654746 -0.61237243569579447 -0.35355339059327362 -0.70710678118654768 
1 1.6653345369377348e-16 8.3266726846886741e-17 1.6653345369377348e-16 0.61237243569579458 0.35355339059327362 0.70710678118654757 0.75592894601845451 0 -0.6546536707079772 -0.2314550249431378 0.93541434669348544 -0.26726124191242429 
1 0.61237243569579491 0.35355339059327384 0.70710678118654813 0.61237243569579458 0.35355339059327362 0.70710678118654757 0.75592894601845451 0 -0.6546536707079772 -0.2314550249431378 0.93541434669348544 -0.26726124191242429 
1 2.2474487139158938 24.391575887554268 -14.142135623730958 0.61237243569579458 0.35355339059327379 -0.70710678118654746 0.5 -0.86602540378443871 -5.5511151231257839e-17 -0.61237243569579447 -0.35355339059327368 -0.70710678118654757 
1 -2.247448713915893 -24.391575887554271 14.142135623730958 -0.49999999999999994 0.86602540378443871 1.1102230246251565e-16 0.61237243569579469 0.35355339059327384 -0.70710678118654746 -0.61237243569579447 -0.35355339059327362 -0.70710678118654768 
1 -22.247448713915905 10.249440263823308 14.142135623730962 0.61237243569579458 0.35355339059327379 -0.70710678118654746 0.5 -0.86602540378443871 -5.5511151231257839e-17 -0.61237243569579447 -0.35355339059327368 -0.70710678118654757 
2 1.149080830487037e-14 1.4155343563970746e-15 -1.1546319456101628e-14 -0.61237243569579447 -0.35355339059327362 -0.70710678118654757 0.61237243569579458 0.35355339059327379 -0.70710678118654746 -0.49999999999999994 0.86602540378443871 1.1102230246251565e-16 7.2111025509279827
1 11.123724356957952 -5.1247201319116478 -7.0710678118654835 0.61237243569579458 0.35355339059327379 -0.70710678118654746 0.5 -0.86602540378443871 -5.5511151231257839e-17 -0.61237243569579447 -0.35355339059327368 -0.70710678118654757 
2 12.42149219860303 -5.7226041473013449 -7.8960257232497897 -0.61237243569579458 -0.35355339059327356 -0.70710678118654757 0.44025990643341922 0.59038864999238627 -0.67647058823529405 -0.65663628805240193 0.72556270711783966 0.20588235294117677 4.00693842672377
1 14.185586535436926 -3.3569531789452793 -10.60660171779822 0.49999999999999994 -0.86602540378443871 -1.1102230246251565e-16 -0.61237243569579469 -0.35355339059327384 0.70710678118654746 -0.61237243569579447 -0.35355339059327362 -0.70710678118654768 
2 -13.34846922834954 6.1496641582939819 8.4852813742385713 -0.61237243569579447 -0.35355339059327362 -0.70710678118654757 0.61237243569579458 0.35355339059327379 -0.70710678118654746 -0.49999999999999994 0.86602540378443871 1.1102230246251565e-16 3.0000000000000018
1 -4.1855865354369213 -13.963554896743496 10.606601717798217 0.61237243569579458 0.35355339059327379 -0.70710678118654746 0.5 -0.86602540378443871 -5.5511151231257839e-17 -0.61237243569579447 -0.35355339059327368 -0.70710678118654757 
1 -1.6855865354369195 -18.293681915665704 10.60660171779822 -0.49999999999999994 0.86602540378443871 1.1102230246251565e-16 0.61237243569579469 0.35355339059327384 -0.70710678118654746 -0.61237243569579447 -0.35355339059327362 -0.70710678118654768 
1 1.3762756430420584 -16.525914962699325 7.0710678118654755 -0.61237243569579458 -0.35355339059327379 0.70710678118654746 -0.5 0.86602540378443871 5.5511151231257839e-17 -0.61237243569579447 -0.35355339059327368 -0.70710678118654757 
1 -1.1237243569579494 -12.195787943777132 7.0710678118654817 0.49999999999999994 -0.86602540378443871 -1.1102230246251565e-16 -0.61237243569579469 -0.35355339059327384 0.70710678118654746 -0.61237243569579447 -0.35355339059327362 -0.70710678118654768 
2 1.3484692283495407 14.634945532532564 -8.4852813742385784 -0.61237243569579447 -0.35355339059327362 -0.70710678118654757 0.61237243569579458 0.35355339059327379 -0.70710678118654746 -0.49999999999999994 0.86602540378443871 1.1102230246251565e-16 2.8284271247461921
Triangulations 0

TShapes 116
Ve
1.50000003552714e-07
-22.2474487139159 10.2494402638233 14.142135623731
0 0

0101101
*
Ve
1.50000003552714e-07
-21.6350762782201 10.6029936544166 14.8492424049175
0 0

0101101
*
Ed
 1.50000003552714e-07 1 1 0
1  1 0 0 1
0

0101000
+116 0 -115 0 *
Ve
1.5000000563486e-07
2.24744871391589 24.3915758875543 -14.142135623731
0 0

0101101
*
Ve
1.5000000563486e-07
2.85982114961169 24.7451292781475 -13.4350288425444
0 0

0101101
*
Ed
 1.5000000563486e-07 1 1 0
1  2 0 0 1
0

0101000
+113 0 -112 0 *
Ed
 1.5e-07 1 1 0
1  3 0 -10 30
2  1 2 0 -10 30
0

0101000
+116 0 -113 0 *
Ed
 1.5e-07 1 1 0
1  4 0 -10 30
2  1 3 0 -10 30
0

0101000
+115 0 -112 0 *
Wi

0101100
+114 0 -111 0 -110 0 +109 0 *
Fa
0  1.5e-07 1 0

0101000
+108 0 *
Ve
1.50000005024296e-07
22.2474487139159 -10.2494402638233 -14.142135623731
0 0

0101101
*
Ve
1.50000005024296e-07
22.8598211496117 -9.89588687323003 -13.4350288425444
0 0

0101101
*
Ed
 1.50000005024296e-07 1 1 0
1  5 0 0 1
0

0101000
+106 0 -105 0 *
Ed
 1.5e-07 1 1 0
1  6 0 -30 10
2  2 2 0 -30 10
0

0101000
+113 0 -106 0 *
Ed
 1.5e-07 1 1 0
1  7 0 -30 10
2  2 3 0 -30 10
0

0101000
+112 0 -105 0 *
Wi

0101100
+111 0 -104 0 -103 0 +102 0 *
Fa
0  1.5e-07 4 0

0101000
+101 0 *
Ve
1.50000003662053e-07
-2.24744871391589 -24.3915758875543 14.142135623731
0 0

0101101
*
Ve
1.50000003662053e-07
-1.6350762782201 -24.038022496961 14.8492424049175
0 0

0101101
*
Ed
 1.50000003662053e-07 1 1 0
1  8 0 0 1
0

0101000
+99 0 -98 0 *
Ed
 1.5e-07 1 1 0
1  9 0 -10 30
2  3 2 0 -10 30
0

0101000
+99 0 -106 0 *
Ed
 1.5e-07 1 1 0
1  10 0 -10 30
2  3 3 0 -10 30
0

0101000
+98 0 -105 0 *
Wi

0101100
+97 0 -104 0 -96 0 +95 0 *
Fa
0  1.5e-07 5 0

0101000
+94 0 *
Ed
 1.5e-07 1 1 0
1  11 0 -30 10
2  4 2 0 -30 10
0

0101000
+116 0 -99 0 *
Ed
 1.5e-07 1 1 0
1  12 0 -30 10
2  4 3 0 -30 10
0

0101000
+115 0 -98 0 *
Wi

0101100
+114 0 -97 0 -92 0 +91 0 *
Fa
0  1.5e-07 6 0

0101000
+90 0 *
Ve
1.00000028352236e-07
4.41588043316392 2.54950975679638 -5.0990195135928
0 0

0101101
*
Ve
1.00000028352236e-07
5.02825286885971 2.90306314738965 -4.39191273240626
0 0

0101101
*
Ed
 1.00000028352236e-07 1 1 0
1  13 0 0 1
3  5 6CN 7 0 0 1
0

0101000
+88 0 -87 0 *
Ed
 1e-07 1 1 0
1  14 0 0 6.28318530717959
2  7 7 0 0 6.28318530717959
2  8 2 0 0 6.28318530717959
0

0101000
+88 0 -88 0 *
Ed
 1e-07 1 1 0
1  15 0 0 6.28318530717959
2  9 7 0 0 6.28318530717959
2  8 3 0 0 6.28318530717959
0

0101000
+87 0 -87 0 *
Wi

0101100
+86 0 -86 0 -85 0 +84 0 *
Fa
0  1e-07 7 0

0101000
+83 0 *
Ve
2.12133034355964e-07
11.1237243569579 -5.12472013191165 -7.07106781186549
0 0

0101101
*
Ve
2.12133034355964e-07
11.7360967926537 -4.77116674131838 -6.36396103067894
0 0

0101101
*
Ed
 2.12133034355964e-07 1 1 0
1  16 0 0 1
0

0101000
+81 0 -80 0 *
Ve
2.12133034355964e-07
13.6237243569579 -9.45484715083385 -7.07106781186549
0 0

0101101
*
Ve
2.12133034355964e-07
14.2360967926537 -9.10129376024058 -6.36396103067894
0 0

0101101
*
Ed
 2.12133034355964e-07 1 1 0
1  17 0 0 1
2  10 9 0 0 1
0

0101000
+78 0 -77 0 *
Ed
 1.5e-07 1 1 0
1  18 0 2.49999999999999 7.5
2  11 2 0 2.49999999999999 7.5
0

0101000
+81 0 -78 0 *
Ed
 1.5e-07 1 1 0
1  19 0 2.49999999999999 7.5
2  11 3 0 2.49999999999999 7.5
0

0101000
+80 0 -77 0 *
Wi

0101100
+79 0 -76 0 -75 0 +74 0 *
Fa
0  1.5e-07 8 0

0101000
+73 0 *
Ve
2.12133034355964e-07
14.1855865354369 -3.35695317894528 -10.6066017177982
0 0

0101101
*
Ve
2.12133034355964e-07
14.7979589711327 -3.00339978835201 -9.89949493661168
0 0

0101101
*
Ed
 2.12133034355964e-07 1 1 0
1  20 0 0 1
2  12 9 0 0 1
0

0101000
+71 0 -70 0 *
Ed
 1e-07 1 1 0
1  21 0 4.12150730609725 6.28318530717959
2  13 9 0 4.12150730609725 6.28318530717959
2  14 2 0 4.12150730609725 6.28318530717959
0

0101000
+78 0 -71 0 *
Ed
 1e-07 1 1 0
1  22 0 4.12150730609725 6.28318530717959
2  15 9 0 4.12150730609725 6.28318530717959
2  14 3 0 4.12150730609725 6.28318530717959
0

0101000
+77 0 -70 0 *
Wi

0101100
+76 0 -69 0 -68 0 +67 0 *
Fa
0  1e-07 9 0

0101000
+66 0 *
Ed
 1.5e-07 1 1 0
1  23 0 -10 -5
2  16 2 0 -10 -5
0

0101000
+71 0 -81 0 *
Ed
 1.5e-07 1 1 0
1  24 0 -10 -5
2  16 3 0 -10 -5
0

0101000
+70 0 -80 0 *
Wi

0101100
+69 0 -79 0 -64 0 +63 0 *
Fa
0  1.5e-07 10 0

0101000
+62 0 *
Ve
1.50001e-07
-11.5113519212622 7.2103243300738 6.36396103067894
0 0

0101101
*
Ve
1.50001e-07
-10.8989794855664 7.56387772066707 7.07106781186549
0 0

0101101
*
Ed
 1.50001e-07 1 1 0
1  25 0 0 1
3  17 18CN 11 0 0 1
0

0101000
+60 0 -59 0 *
Ed
 1e-07 1 1 0
1  26 0 0 6.28318530717959
2  19 11 0 0 6.28318530717959
2  20 2 0 0 6.28318530717959
0

0101000
+60 0 -60 0 *
Ed
 1e-07 1 1 0
1  27 0 0 6.28318530717959
2  21 11 0 0 6.28318530717959
2  20 3 0 0 6.28318530717959
0

0101000
+59 0 -59 0 *
Wi

0101100
+58 0 -58 0 -57 0 +56 0 *
Fa
0  1e-07 11 0

0101000
+55 0 *
Ve
2.12133034355964e-07
-4.18558653543693 -13.9635548967435 10.6066017177982
0 0

0101101
*
Ve
2.12133034355964e-07
-3.57321409974113 -13.6100015061502 11.3137084989848
0 0

0101101
*
Ed
 2.12133034355964e-07 1 1 0
1  28 0 0 1
0

0101000
+53 0 -52 0 *
Ve
2.12133034355964e-07
-1.68558653543693 -18.2936819156657 10.6066017177982
0 0

0101101
*
Ve
2.12133034355964e-07
-1.07321409974113 -17.9401285250724 11.3137084989848
0 0

0101101
*
Ed
 2.12133034355964e-07 1 1 0
1  29 0 0 1
0

0101000
+50 0 -49 0 *
Ed
 1.5e-07 1 1 0
1  30 0 2.5 7.5
2  22 2 0 2.5 7.5
0

0101000
+53 0 -50 0 *
Ed
 1.5e-07 1 1 0
1  31 0 2.5 7.5
2  22 3 0 2.5 7.5
0

0101000
+52 0 -49 0 *
Wi

0101100
+51 0 -48 0 -47 0 +46 0 *
Fa
0  1.5e-07 12 0

0101000
+45 0 *
Ve
2.12133034355964e-07
1.37627564304205 -16.5259149626993 7.07106781186548
0 0

0101101
*
Ve
2.12133034355964e-07
1.98864807873784 -16.1723615721061 7.77817459305203
0 0

0101101
*
Ed
 2.12133034355964e-07 1 1 0
1  32 0 0 1
0

0101000
+43 0 -42 0 *
Ed
 1.5e-07 1 1 0
1  33 0 -10 -5.00000000000001
2  23 2 0 -10 -5.00000000000001
0

0101000
+50 0 -43 0 *
Ed
 1.5e-07 1 1 0
1  34 0 -10 -5.00000000000001
2  23 3 0 -10 -5.00000000000001
0

0101000
+49 0 -42 0 *
Wi

0101100
+48 0 -41 0 -40 0 +39 0 *
Fa
0  1.5e-07 13 0

0101000
+38 0 *
Ve
2.12133034355964e-07
-1.12372435695795 -12.1957879437771 7.07106781186548
0 0

0101101
*
Ve
2.12133034355964e-07
-0.511351921262158 -11.8422345531839 7.77817459305203
0 0

0101101
*
Ed
 2.12133034355964e-07 1 1 0
1  35 0 0 1
0

0101000
+36 0 -35 0 *
Ed
 1.5e-07 1 1 0
1  36 0 -10 -5
2  24 2 0 -10 -5
0

0101000
+43 0 -36 0 *
Ed
 1.5e-07 1 1 0
1  37 0 -10 -5
2  24 3 0 -10 -5
0

0101000
+42 0 -35 0 *
Wi

0101100
+41 0 -34 0 -33 0 +32 0 *
Fa
0  1.5e-07 14 0

0101000
+31 0 *
Ed
 1.5e-07 1 1 0
1  38 0 2.50000000000001 7.50000000000001
2  25 2 0 2.50000000000001 7.50000000000001
0

0101000
+36 0 -53 0 *
Ed
 1.5e-07 1 1 0
1  39 0 2.50000000000001 7.50000000000001
2  25 3 0 2.50000000000001 7.50000000000001
0

0101000
+35 0 -52 0 *
Wi

0101100
+34 0 -51 0 -29 0 +28 0 *
Fa
0  1.5e-07 15 0

0101000
+27 0 *
Ve
1.50001e-07
3.08052003591842 15.6349455325326 -10.4852813742386
0 0

0101101
*
Ve
1.50001e-07
3.69289247161422 15.9884989231258 -9.77817459305203
0 0

0101101
*
Ed
 1.50001e-07 1 1 0
1  40 0 0 1
3  26 27CN 16 0 0 1
0

0101000
+25 0 -24 0 *
Ed
 1e-07 1 1 0
1  41 0 0 6.28318530717959
2  28 16 0 0 6.28318530717959
2  29 2 0 0 6.28318530717959
0

0101000
+25 0 -25 0 *
Ed
 1e-07 1 1 0
1  42 0 0 6.28318530717959
2  30 16 0 0 6.28318530717959
2  29 3 0 0 6.28318530717959
0

0101000
+24 0 -24 0 *
Wi

0101100
+23 0 -23 0 -22 0 +21 0 *
Fa
0  1e-07 16 0

0101000
+20 0 *
Wi

0101100
-110 0 -103 0 +96 0 +92 0 *
Wi

0101100
-85 0 *
Wi

0101100
-75 0 -68 0 -64 0 *
Wi

0101100
-57 0 *
Wi

0101100
-47 0 -40 0 -33 0 -29 0 *
Wi

0101100
-22 0 *
Fa
0  1e-07 2 0

0101000
+18 0 +17 0 +16 0 +15 0 +14 0 +13 0 *
Wi

0101100
-109 0 -102 0 +95 0 +91 0 *
Wi

0101100
-84 0 *
Wi

0101100
-74 0 -67 0 -63 0 *
Wi

0101100
-56 0 *
Wi

0101100
-46 0 -39 0 -32 0 -28 0 *
Wi

0101100
-21 0 *
Fa
0  1e-07 3 0

0101000
+11 0 +10 0 +9 0 +8 0 +7 0 +6 0 *
Sh

0101100
-107 0 -100 0 +93 0 +89 0 -82 0 -72 0 -65 0 -61 0 -54 0 -44 0 
-37 0 -30 0 -26 0 -19 0 +12 0 -5 0 *
So

0100000
-4 0 *
Co

0100000
+3 0 *
Co

1100000
+2 0 *

+1 1  