
CASCADE Topology V1, (c) Matra-Datavision
Locations 1
1
              1               0               0               0 
              0               1               0               0 
              0               0               1               0 
Curve2ds 36
1 0 0 1 0 
8 0 0.96796539297215167
1 6.2831853071795862 0 0 1 
1 0 0 0 1 
1 0 0.96796539297215167 1 0 
8 0 6.2831853071795862
1 5.7021244386728078 6.2831853071795862 -0 -1 
8 5.7021244386728078 6.8642461756863646
1 0 0 1 0 
1 0 6.2831853071795862 1 0 
1 6.8642461756863646 0 0 1 
8 0 6.2831853071795862
1 6.2831853071795862 0.032834287283592778 -1 -0 
8 0.032834287283592778 0.46451128151501525
1 6.2831853071795862 0 0 1 
1 0 0 0 1 
1 0 0.46451128151501525 1 0 
8 0 6.2831853071795862
1 6.140407971794783 6.2831853071795862 -0 -1 
8 6.140407971794783 6.4259626425643894
1 0 0 1 0 
1 0 6.2831853071795862 1 0 
1 6.4259626425643894 0 0 1 
8 0 6.2831853071795862
1 6.2831853071795862 0.0071877750878149632 -1 -0 
8 0.0071877750878149632 0.1088108132843882
1 6.2831853071795862 0 0 1 
1 0 0 0 1 
1 0 0.1088108132843882 1 0 
8 0 6.2831853071795862
1 6.0551208303353334 6.2831853071795862 -0 -1 
8 6.0551208303353334 6.511249784023839
1 0 0 1 0 
1 0 6.2831853071795862 1 0 
1 6.511249784023839 0 0 1 
8 0 6.2831853071795862
1 6.2831853071795862 0.011605132503534833 -1 -0 
8 0.011605132503534833 0.46092508857362896
1 6.2831853071795862 0 0 1 
1 0 0 0 1 
1 0 0.46092508857362896 1 0 
8 0 6.2831853071795862
1 5.699276507110608 6.2831853071795862 -0 -1 
8 5.699276507110608 6.8670941072485645
1 0 0 1 0 
1 0 6.2831853071795862 1 0 
1 6.8670941072485645 0 0 1 
8 0 6.2831853071795862
1 6.2831853071795862 0.033038472835510098 -1 -0 
8 0.033038472835510098 1.000449898795537
1 6.2831853071795862 0 0 1 
1 0 0 0 1 
1 0 1.000449898795537 1 0 
Curves 19
2 -2 -0.54000000000000004 0 -0.99920095872178949 0.039968038348871637 0 -0.039968038348871637 -0.99920095872178949 0 0 0 1 0.025000000000000001
1 -2.0009992009587219 -0.56498002396804481 0 -0.99920095872178949 0.039968038348871637 0 
2 -2.9671919486672875 -0.50131232205330845 0 -0.99920095872178949 0.039968038348871637 0 -0.039968038348871637 -0.99920095872178949 0 0 0 1 0.025000000000000001
2 -2.9651935467498438 -0.45135227411721907 6.1232339957367679e-18 -0 0 -1 -0.58188091836140854 -0.81327399862954175 0 -0.81327399862954175 0.58188091836140854 0 0.074999999999999983
2 -3.0118334534701234 -0.46937223807732731 0 0.36039927920216452 -0.932798134405596 -0 -0.932798134405596 -0.36039927920216452 0 -0 0 -1 0.025000000000000008
1 -3.02331995336014 -0.50900998198005409 0 -0.36039927920216241 0.93279813440559689 0 
2 -3.1674095310392842 -0.066704743192440741 0 -0.36039927920216241 0.93279813440559689 0 -0.93279813440559689 -0.36039927920216241 0 0 0 1 0.025000000000000008
2 -3.1207696243190042 -0.048684779232332706 6.1232339957367679e-18 -0 0 -1 -0.9745887576461032 -0.22400168184597455 0 -0.22400168184597455 0.9745887576461032 0 0.075000000000000178
2 -3.1705969122312485 -0.052837053225019755 0 0.083045479853740639 -0.99654575824487956 -0 -0.99654575824487956 -0.083045479853740639 0 -0 0 -1 0.025000000000000008
1 -3.1949136439561219 -0.062076136996343546 0 -0.083045479853741888 0.99654575824487956 0 
2 -3.1790362462024779 0.048434954429732655 0 -0.083045479853741888 0.99654575824487956 0 -0.99654575824487956 -0.083045479853741888 0 0 0 1 0.025000000000000008
2 -3.129208958290234 0.05258722842241971 6.1232339957367679e-18 0 0 -1 -0.9895169934804553 0.14441647971544197 0 0.14441647971544197 0.9895169934804553 0 0.075000000000000094
2 -3.175771097275522 0.07080719585144539 0 -0.36439934858051298 -0.93124277970575309 -0 -0.93124277970575309 0.36439934858051298 0 0 0 -1 0.025000000000000008
1 -3.2032810694926441 0.06910998371451281 0 0.36439934858051259 0.9312427797057532 0 
2 -3.0120391979793548 0.48923316071942674 0 0.36439934858051259 0.9312427797057532 0 -0.9312427797057532 0.36439934858051259 0 0 -0 1 0.025000000000000008
2 -2.9654770589940669 0.47101319329040114 6.1232339957367679e-18 0 0 -1 -0.57605956316002849 0.81740771937380008 0 0.81740771937380008 0.57605956316002849 0 0.075000000000000094
2 -2.9669763844493509 0.52099070846651951 0 -0.99955030352236651 -0.029986509105678516 -0 -0.029986509105678516 0.99955030352236651 0 0 0 -1 0.025000000000000008
1 -3.000749662727642 0.5449887575880592 0 0.99955030352236673 0.029986509105671015 0 
2 -1.9999999999999998 0.55000000000000004 0 0.99955030352236673 0.029986509105671015 0 -0.029986509105671015 0.99955030352236673 0 0 -0 1 0.025000000000000001
Polygon3D 0
PolygonOnTriangulations 0
Surfaces 11
1 -2 -0.54000000000000004 0 -0.99920095872178949 0.039968038348871616 0 -0.039968038348871616 -0.99920095872178949 0 0 0 1 
10 0 6.2831853071795862 0 0.96796539297215167
2 -2 -0.54000000000000004 0 -0.99920095872178949 0.039968038348871637 0 -0.039968038348871637 -0.99920095872178949 0 0 0 1 0.025000000000000001
10 5.7021244386728078 6.8642461756863646 0 6.2831853071795862
5 -2.9651935467498438 -0.45135227411721907 0 -0 0 -1 -0.58188091836140854 -0.81327399862954175 0 -0.81327399862954175 0.58188091836140854 0 0.049999999999999968 0.025000000000000008
10 0 6.2831853071795862 0.032834287283592778 0.46451128151501525
2 -3 -0.5 0 -0.36039927920216241 0.93279813440559689 0 -0.93279813440559689 -0.36039927920216241 0 0 0 1 0.025000000000000008
10 6.140407971794783 6.4259626425643894 0 6.2831853071795862
5 -3.1207696243190042 -0.048684779232332706 0 -0 0 -1 -0.9745887576461032 -0.22400168184597455 0 -0.22400168184597455 0.9745887576461032 0 0.050000000000000169 0.025000000000000008
10 0 6.2831853071795862 0.0071877750878149632 0.1088108132843882
2 -3.1699999999999999 -0.059999999999999998 0 -0.083045479853741888 0.99654575824487956 0 -0.99654575824487956 -0.083045479853741888 0 0 0 1 0.025000000000000008
10 6.0551208303353334 6.511249784023839 0 6.2831853071795862
5 -3.129208958290234 0.05258722842241971 0 0 0 -1 -0.9895169934804553 0.14441647971544197 0 0.14441647971544197 0.9895169934804553 0 0.050000000000000093 0.025000000000000008
10 0 6.2831853071795862 0.011605132503534833 0.46092508857362896
2 -3.1800000000000002 0.059999999999999998 0 0.36439934858051259 0.9312427797057532 0 -0.9312427797057532 0.36439934858051259 0 0 -0 1 0.025000000000000008
10 5.699276507110608 6.8670941072485645 0 6.2831853071795862
5 -2.9654770589940669 0.47101319329040114 0 0 0 -1 -0.57605956316002849 0.81740771937380008 0 0.81740771937380008 0.57605956316002849 0 0.050000000000000093 0.025000000000000008
10 0 6.2831853071795862 0.033038472835510098 1.000449898795537
2 -3 0.52000000000000002 0 0.99955030352236673 0.029986509105671015 0 -0.029986509105671015 0.99955030352236673 0 0 -0 1 0.025000000000000001
1 -2 0.55000000000000004 0 0.99955030352236673 0.029986509105671036 0 -0.029986509105671036 0.99955030352236673 0 0 0 1 
Triangulations 0

TShapes 53
Ve
1.00005e-07
-2.00099920095872 -0.564980023968045 -6.12323399573677e-18
0 0

0101101
*
Ed
 1.00005e-07 1 1 0
1  1 0 0 6.28318530717959
2  1 2 0 0 6.28318530717959
0

0101000
+53 0 -53 0 *
Wi

0101100
+52 0 *
Fa
0  1e-07 1 0

0101000
+51 0 *
Ve
1.00000000055847e-07
-2.96819114962601 -0.526292346021353 0
0 0

0101101
*
Ed
 1e-07 1 1 0
1  2 0 0 0.967965392972152
3  2 3G1 2 0 0 0.967965392972152
0

0101000
+53 0 -49 0 *
Ed
 1e-07 1 1 0
1  3 0 0 6.28318530717959
2  4 2 0 0 6.28318530717959
2  5 3 0 0 6.28318530717959
4 G1 3 0 2 0
0

0101100
+49 0 -49 0 *
Wi

0101100
+48 0 +52 0 -48 0 -47 0 *
Fa
0  1e-07 2 0

0101000
+46 0 *
Ve
1.00000000086042e-07
-3.03515340683026 -0.478382220057381 0
0 0

0101101
*
Ed
 1e-07 1 1 0
1  4 0 5.70212443867281 6.86424617568636
3  6 7G1 3 0 5.70212443867281 6.86424617568636
0

0101000
+49 0 -44 0 *
Ed
 1e-07 1 1 0
1  5 0 0 6.28318530717959
2  8 3 0 0 6.28318530717959
2  9 4 0 0 6.28318530717959
4 G1 4 0 3 0
0

0101100
+44 0 -44 0 *
Wi

0101100
+43 0 +47 0 -43 0 +42 0 *
Fa
0  1e-07 3 0

0101000
+41 0 *
Ve
1.00000000028355e-07
-3.19072948439942 -0.0757147251724948 0
0 0

0101101
*
Ed
 1e-07 1 1 0
1  6 0 0.0328342872835928 0.464511281515015
3  10 11G1 4 0 0.0328342872835928 0.464511281515015
0

0101000
+44 0 -39 0 *
Ed
 1e-07 1 1 0
1  7 0 0 6.28318530717959
2  12 4 0 0 6.28318530717959
2  13 5 0 0 6.28318530717959
4 G1 5 0 4 0
0

0101100
+39 0 -39 0 *
Wi

0101100
+38 0 -42 0 -38 0 -37 0 *
Fa
0  1e-07 4 0

0101000
+36 0 *
Ve
1.00000000254657e-07
-3.19551055618737 -0.0549131902213633 0
0 0

0101101
*
Ed
 1e-07 1 1 0
1  8 0 6.14040797179478 6.42596264256439
3  14 15G1 5 0 6.14040797179478 6.42596264256439
0

0101000
+39 0 -34 0 *
Ed
 1e-07 1 1 0
1  9 0 0 6.28318530717959
2  16 5 0 0 6.28318530717959
2  17 6 0 0 6.28318530717959
4 G1 6 0 5 0
0

0101100
+34 0 -34 0 *
Wi

0101100
+33 0 +37 0 -33 0 +32 0 *
Fa
0  1e-07 5 0

0101000
+31 0 *
Ve
1.00000000021099e-07
-3.2039498901586 0.0463588174333891 0
0 0

0101101
*
Ed
 1e-07 1 1 0
1  10 0 0.00718777508781496 0.108810813284388
3  18 19G1 6 0 0.00718777508781496 0.108810813284388
0

0101000
+34 0 -29 0 *
Ed
 1e-07 1 1 0
1  11 0 0 6.28318530717959
2  20 6 0 0 6.28318530717959
2  21 7 0 0 6.28318530717959
4 G1 7 0 6 0
0

0101100
+29 0 -29 0 *
Wi

0101100
+28 0 -32 0 -28 0 -27 0 *
Fa
0  1e-07 6 0

0101000
+26 0 *
Ve
1.00000000020123e-07
-3.19905216676817 0.0799171795659582 0
0 0

0101101
*
Ed
 1e-07 1 1 0
1  12 0 6.05512083033533 6.51124978402384
3  22 23G1 7 0 6.05512083033533 6.51124978402384
0

0101000
+29 0 -24 0 *
Ed
 1e-07 1 1 0
1  13 0 0 6.28318530717959
2  24 7 0 0 6.28318530717959
2  25 8 0 0 6.28318530717959
4 G1 8 0 7 0
0

0101100
+24 0 -24 0 *
Wi

0101100
+23 0 +27 0 -23 0 +22 0 *
Fa
0  1e-07 7 0

0101000
+21 0 *
Ve
1.00000000246497e-07
-3.035320267472 0.49834314443394 0
0 0

0101101
*
Ed
 1e-07 1 1 0
1  14 0 0.0116051325035348 0.460925088573629
3  26 27G1 8 0 0.0116051325035348 0.460925088573629
0

0101000
+24 0 -19 0 *
Ed
 1e-07 1 1 0
1  15 0 0 6.28318530717959
2  28 8 0 0 6.28318530717959
2  29 9 0 0 6.28318530717959
4 G1 9 0 8 0
0

0101100
+19 0 -19 0 *
Wi

0101100
+18 0 -22 0 -18 0 -17 0 *
Fa
0  1e-07 8 0

0101000
+16 0 *
Ve
1.00000000188738e-07
-2.96772604717699 0.545979466054579 0
0 0

0101101
*
Ed
 1e-07 1 1 0
1  16 0 5.69927650711061 6.86709410724856
3  30 31G1 9 0 5.69927650711061 6.86709410724856
0

0101000
+19 0 -14 0 *
Ed
 1e-07 1 1 0
1  17 0 0 6.28318530717959
2  32 9 0 0 6.28318530717959
2  33 10 0 0 6.28318530717959
4 G1 10 0 9 0
0

0101100
+14 0 -14 0 *
Wi

0101100
+13 0 +17 0 -13 0 +12 0 *
Fa
0  1e-07 9 0

0101000
+11 0 *
Ve
1.00005e-07
-2.00074966272764 0.574988757588059 -6.12323399573677e-18
0 0

0101101
*
Ed
 1e-07 1 1 0
1  18 0 0.0330384728355101 1.00044989879554
3  34 35G1 10 0 0.0330384728355101 1.00044989879554
0

0101000
+14 0 -9 0 *
Ed
 1.00005e-07 1 1 0
1  19 0 0 6.28318530717959
2  36 10 0 0 6.28318530717959
0

0101000
+9 0 -9 0 *
Wi

0101100
+8 0 -12 0 -8 0 -7 0 *
Fa
0  1e-07 10 0

0101000
+6 0 *
Wi

0101100
+7 0 *
Fa
0  1e-07 11 0

0101000
+4 0 *
Sh

0101100
-50 0 +45 0 +40 0 +35 0 +30 0 +25 0 +20 0 +15 0 +10 0 +5 0 
+3 0 *
So

1100000
+2 0 *

+1 1  