
CASCADE Topology V1, (c) Matra-Datavision
Locations 1
1
              1               0               0               0 
              0               1               0               0 
              0               0               1               0 
Curve2ds 28
1 0 0 0 1 
8 0 1.4979175069996606
1 0 0 1 0 
1 0 6.2831853071795862 1 0 
1 1.4979175069996606 0 0 1 
7 0 0  8 30 5  6.2831853071795853 0  6.0839537415641809 0  5.8866913555892992 0  5.690509471254936 0  5.494802403832904 0  5.2991963245470899 0  5.1034981232503434 0  4.9076442711049788 0  4.5156550954154566 0  4.3195185420536601 0  4.1249310243380952 0  3.925038404170563 0  3.7317475949048196 0  3.534022432062129 0  3.3379405041814616 0  2.9452448029981055 0  2.7491628751175941 0  2.5514377122744913 0  2.3581469030093722 0  2.1582542828411877 0  1.9636667651260811 0  1.7675302117640987 0  1.3755410360746161 0  1.179687183929232 0  0.98398898263251433 0  0.78838290334665051 0  0.59267583592469153 0  0.39649395159025741 0  0.19923156561541505 0  0 0 
 0 9 1.5707963267948966 7 3.1415926535897931 7 4.7123889803846897 7 6.2831853071795862 9
8 0 1
1 6.2831853071795862 0 0 1 
1 0 0 0 1 
1 0 1 1 0 
8 0 6.2831853071795862
1 0 0.0078674075878488806 1 0 
8 0.0078674075878488806 0.97172884655307112
1 6.2831853071795862 0 0 1 
1 0 0 0 1 
1 0 0.97172884655307112 1 0 
8 0 6.2831853071795862
1 0 0 1 0 
8 0 1
1 6.2831853071795862 0 0 1 
1 0 0 0 1 
1 0 1 1 0 
7 0 0  9 10 2  0 0.61803398874989668  0.68803273457491632 0.61803398874988935  1.3993395186590603 0.61803398874992777  2.1024767896752108 0.61803398874982884  2.7777496464820612 0.61803398874998816  3.5054356606976365 0.61803398874980897  4.1807085175041534 0.61803398874995841  4.8838457885206692 0.61803398874986626  5.5951525726046389 0.61803398874990545  6.2831853071795862 0.61803398874989668 
 0 10 6.2831853071795862 10
8 0.61803398874989668 9.5857864376269042
1 6.2831853071795862 0 0 1 
1 0 0 0 1 
1 0 9.5857864376269042 1 0 
8 0 6.2831853071795862
1 5.8904862254808616 9.4247779607693793 -0 -1 
8 5.8904862254808616 6.6758843888783108
1 0 3.141592653589794 1 0 
1 0 9.4247779607693793 1 0 
1 6.6758843888783108 0 0 1 
8 3.141592653589794 9.4247779607693793
1 9.4247779607693793 0.41421356237309637 -1 -0 
8 0.41421356237309637 7.0710678118654746
1 6.2831853071795862 0 0 1 
1 0 0 0 1 
1 0 7.0710678118654746 1 0 
Curves 15
2 0 0 0 -0.72413793103448276 -0.68965517241379304 -0 -0.68965517241379304 0.72413793103448276 0 0 0 -1 0.5
2 5 -5.2500000000000009 1.2246467991473532e-16 0 0 -1 -0.68965517241379304 0.72413793103448276 0 0.72413793103448276 0.68965517241379304 0 7.7500000000000009
2 9.8719923331029129 0.11900276645360464 0 -0.74055210571773855 0.67199894249695336 0 0.67199894249695336 0.74055210571773855 0 0 0 -1 0.5
7 1 0  7 18 4  10.207991804351391 0.48927881931247108 -3.3476764341738741e-17  1.6690784610682365 10.235699435156151 0.46413609342439716 -3.2946896673884345e-17  1.6690784610682405 10.260779864690896 0.44120487622742605 -3.5416668747938928e-17  1.6690784610682166 10.284808359291842 0.41869377821045523 -2.9455951855504101e-17  1.669078461068271 10.30904164426361 0.39547410516366666 -3.9118088778827911e-17  1.6690784610682092 10.337194806455749 0.36672147428056168 -2.8019127362839343e-17  1.6690784610682456 10.393406301552071 0.30043918047826029 -4.5292813334889951e-17  1.6690784610682294 10.441035114717369 0.22891925005462171 -1.5302303334335962e-17  1.6690784610682421 10.460405659515615 0.19474022816434927 -1.0071830559258094e-16  1.6690784610682299 10.47519254171479 0.16674986740298273 8.7604711288555674e-17  1.6690784610682403 10.489230932147546 0.13971647350501049 -1.7909641856833452e-16  1.6690784610682361 10.504039817567433 0.11054802918548721 1.0610788448022931e-16  1.6690784610682381 10.520420296299299 0.078284083029497437 -1.3326096598083023e-16  1.6690784610682341 10.521218537086943 0.076711883824317068 -1.0844088037638867e-16  1.669078461068253 10.522020799885979 0.07513188651486824 -1.3331551708541443e-16  1.6690784610682183 10.522827244576387 0.073543836886938219 -1.1703602408522723e-16  1.6690784610682468 10.523638029053851 0.071947483974674584 -1.2397171937989908e-16  1.6690784610682337 10.524453309277783 0.070342580094083493 -1.2246467991473532e-16  1.6690784610682365
 0 8 0.487574823940845 5 0.97514964788169001 5 1 8
7 1 1  6 6 2  10.524453309277783 0.070342580094083493 -1.2246467991473532e-16  1.6690784610682365 10.524453309277785 0.070342580094083035 0.83077153778552904  1.0367296232096121 9.6085783919133245 -0.39491563054147327 0.95005619162280186  1.0383466998475064 8.8531748423063021 -0.77865548096697879 1.8975531966727441e-15  0.85353433019614966 9.6085783919133227 -0.39491563054147338 -0.9500561916228033  1.0383466998475068 10.524453309277785 0.070342580094083076 -0.83077153778552892  1.0367296232096115
 0 6 6.2831853071795862 6
7 1 0  10 19 3  10.524453309277783 0.070342580094084006 -1.2246467991473532e-16  1.6690784610682365 10.99742960312475 -0.86072561846751539 -1.2246467991473705e-16  1.669078461068223 11.468082525678746 -1.685912720926942 -1.2246467991472879e-16  1.669078461068273 11.935545024614344 -2.4044450916701439 -1.2246467991474964e-16  1.669078461068175 12.398630663950421 -3.0173859795671305 -1.2246467991471341e-16  1.6690784610683176 12.855705709273645 -3.5180928070332804 -1.2246467991476e-16  1.6690784610681442 13.301548857943384 -3.918598909501787 -1.2246467991471491e-16  1.6690784610683271 13.739058672019567 -4.2013555921559007 -1.2246467991474688e-16  1.669078461068169 14.144281445654245 -4.3841138906684005 -1.2246467991473189e-16  1.669078461068267 14.920884980208546 -4.5810687451022618 -1.224646799147384e-16  1.6690784610681957 15.687420790205133 -4.4470855366911106 -1.2246467991473263e-16  1.6690784610682872 16.082345379621557 -4.2992501396540668 -1.2246467991474375e-16  1.6690784610680338 16.510869980415237 -4.060369157851893 -1.2246467991471942e-16  1.6690784610686165 16.955170395352969 -3.6991419356040982 -1.2246467991475608e-16  1.6690784610677674 17.406795613233989 -3.2404730307435843 -1.2246467991471622e-16  1.6690784610686478 17.868452038920381 -2.6683235189586934 -1.224646799147476e-16  1.6690784610679796 18.334059548545103 -1.9906077838579521 -1.2246467991472992e-16  1.6690784610683469 18.803461973529579 -1.2059907059034147 -1.224646799147368e-16  1.6690784610682086 19.27549570362622 -0.31530299777279192 -1.2246467991473532e-16  1.6690784610682365
 0.0078674075878488806 11 0.48979812707046 8 0.97172884655307112 11
7 1 1  6 6 2  19.27549570362622 -0.31530299777279192 -1.2246467991473532e-16  1.6690784610682365 19.27549570362622 -0.31530299777279236 0.83077153778552904  1.0367296232096121 20.183180223194359 -0.79634445103593343 0.95005619162280197  1.0383466998475064 20.931828422861411 -1.1931021462338405 1.8975531966727441e-15  0.85353433019614966 20.183180223194359 -0.79634445103593343 -0.95005619162280341  1.0383466998475068 19.27549570362622 -0.31530299777279236 -0.83077153778552892  1.0367296232096115
 0 6 6.2831853071795862 6
7 1 0  8 15 3  19.27549570362622 -0.3153029977727913 -6.1232339957367673e-17  1.6690784610682365 19.325834955928215 -0.22031708807372949 -6.1232339957367747e-17  1.6690784610682361 19.375218017018593 -0.13164045906653588 -6.1232339957367562e-17  1.6690784610682352 19.425621105380653 -0.047426647241026382 -6.1232339957367882e-17  1.6690784610682392 19.480459575670615 0.033709451643337829 -6.1232339957367414e-17  1.6690784610682334 19.540559170057666 0.11455389917724756 -6.1232339957367882e-17  1.6690784610682381 19.615851688294541 0.19509564192909751 -6.1232339957367586e-17  1.669078461068235 19.792243851850486 0.33796269968435072 -6.1232339957367759e-17  1.6690784610682423 20.000381305404655 0.43202824973403658 -6.1232339957367549e-17  1.6690784610682265 20.107679470000129 0.46343500506718754 -6.1232339957367907e-17  1.6690784610682696 20.208762378671679 0.48016259529639332 -6.12323399573675e-17  1.6690784610681866 20.307258368646185 0.49175171990666783 -6.1232339957367685e-17  1.6690784610682814 20.406536283871173 0.49754598437656111 -6.1232339957367734e-17  1.6690784610682106 20.509249525602282 0.49999999999999928 -6.1232339957367636e-17  1.6690784610682443 20.618033988749897 0.49999999999999994 -6.123233995736766e-17  1.6690784610682365
 0 9 0.5 6 1 9
7 1 1  6 6 2  20.618033988749897 0.49999999999999994 -6.123233995736766e-17  1.6690784610682365 20.618033988749897 0.49999999999999872 0.83077153778552915  1.0367296232096121 20.618033988749897 -0.52727409527407021 0.95005619162280186  1.0383466998475064 20.618033988749897 -1.3745584605042307 1.7292183347830021e-15  0.85353433019614966 20.618033988749897 -0.52727409527407021 -0.95005619162280353  1.0383466998475068 20.618033988749897 0.49999999999999922 -0.83077153778552881  1.0367296232096115
 0 6 6.2831853071795862 6
1 20 0.5 0 1 0 0 
2 29.585786437626904 0 0 1 0 0 -0 1 0 0 -0 1 0.5
2 29.585786437626904 0.99999999999999989 1.8369701987210297e-16 -0 0 1 0.38268343236509128 -0.92387953251128618 0 0.92387953251128618 0.38268343236509128 0 0.50000000000000044
2 30.292893218813454 0.29289321881345332 0 -0.70710678118654624 -0.70710678118654879 0 0.70710678118654879 -0.70710678118654624 0 0 0 1 0.5
1 29.646446609406727 0.3535533905932734 0 0.7071067811865468 0.70710678118654824 0 
2 34.999999999999993 5.0000000000000044 0 0.7071067811865468 0.70710678118654824 0 -0.70710678118654824 0.7071067811865468 0 0 -0 1 0.5
Polygon3D 0
PolygonOnTriangulations 0
Surfaces 9
1 0 0 0 0.72413793103448276 0.68965517241379304 0 -0.68965517241379304 0.72413793103448276 0 0 0 1 
10 0 1.4979175069996606 0 6.2831853071795862
5 5 -5.2500000000000009 0 0 0 -1 -0.68965517241379304 0.72413793103448276 0 0.72413793103448276 0.68965517241379304 0 7.2500000000000009 0.5
9 1 1 1 0 6 7 6 18 2 4 10.207991804351391 0.48927881931247108 -3.3476764341738741e-17  1.6690784610682365 10.235699435156151 0.4641360934243971 -3.2946896673884345e-17  1.6690784610682405 10.260779864690896 0.44120487622742605 -3.5416668747938928e-17  1.6690784610682166 10.284808359291842 0.41869377821045523 -2.9455951855504101e-17  1.669078461068271 10.30904164426361 0.39547410516366666 -3.9118088778827911e-17  1.6690784610682092 10.337194806455749 0.36672147428056168 -2.8019127362839343e-17  1.6690784610682456 10.393406301552071 0.30043918047826029 -4.5292813334889951e-17  1.6690784610682294 10.441035114717369 0.22891925005462174 -1.5302303334335962e-17  1.6690784610682421 10.460405659515617 0.19474022816434927 -1.0071830559258094e-16  1.6690784610682299 10.47519254171479 0.16674986740298273 8.7604711288555674e-17  1.6690784610682403 10.489230932147546 0.13971647350501049 -1.7909641856833452e-16  1.6690784610682361 10.504039817567433 0.11054802918548723 1.0610788448022931e-16  1.6690784610682381 10.520420296299299 0.078284083029497437 -1.3326096598083023e-16  1.6690784610682341 10.521218537086943 0.076711883824317068 -1.0844088037638867e-16  1.669078461068253 10.522020799885979 0.07513188651486824 -1.3331551708541443e-16  1.6690784610682183 10.522827244576387 0.073543836886938219 -1.1703602408522723e-16  1.6690784610682468 10.523638029053851 0.071947483974674584 -1.2397171937989908e-16  1.6690784610682337 10.524453309277785 0.070342580094083493 -1.2246467991473532e-16  1.6690784610682365 
10.207991804351389 0.48927881931247019 0.83077153778552915  1.0367296232096121 10.23569943515615 0.46413609342439721 0.83077153778552881  1.0367296232096144 10.260779864690896 0.44120487622742199 0.83077153778552859  1.0367296232096006 10.284808359291848 0.418693778210459 0.83077153778553137  1.0367296232096324 10.309041644263605 0.39547410516366155 0.83077153778552637  1.0367296232095959 10.337194806455747 0.36672147428056229 0.83077153778552992  1.0367296232096184 10.393406301552073 0.30043918047825879 0.83077153778552915  1.0367296232096075 10.441035114717369 0.22891925005462155 0.83077153778552892  1.0367296232096153 10.460405659515615 0.19474022816434805 0.83077153778553037  1.0367296232096106 10.475192541714787 0.16674986740298234 0.83077153778552659  1.0367296232096117 10.489230932147546 0.13971647350500996 0.8307715377855307  1.0367296232096126 10.504039817567433 0.11054802918548652 0.8307715377855287  1.0367296232096137 10.520420296299299 0.078284083029497006 0.83077153778552848  1.0367296232096104 10.521218537086945 0.076711883824316623 0.83077153778553059  1.0367296232096221 10.522020799885976 0.075131886514867588 0.8307715377855267  1.0367296232096017 10.522827244576391 0.073543836886938108 0.8307715377855317  1.0367296232096161 10.523638029053851 0.071947483974673918 0.83077153778552715  1.0367296232096126 10.524453309277785 0.070342580094083035 0.83077153778552904  1.0367296232096121 
9.5176646986726983 -0.27147117509202423 0.95005619162280175  1.0383466998475064 9.5431460734742455 -0.294593730261066 0.95005619162280375  1.0383466998475075 9.5626018077159873 -0.31240707276373975 0.95005619162279786  1.0383466998474968 9.5757494871242717 -0.32476941584505054 0.95005619162280897  1.038346699847523 9.5826426142939045 -0.33223781688077675 0.95005619162279409  1.0383466998474944 9.5807422311008104 -0.331472051524341 0.95005619162280497  1.0383466998475106 9.5704794048846633 -0.31938056574931145 0.95005619162280008  1.0383466998475033 9.5616584265642803 -0.30614671538222177 0.95005619162280341  1.0383466998475084 9.5614107328475484 -0.30403953483766966 0.95005619162279642  1.0383466998475086 9.566852041261237 -0.3130484792209095 0.95005619162281119  1.0383466998474986 9.5753167593341821 -0.32940379462319092 0.95005619162279387  1.0383466998475139 9.5879519112396476 -0.35429072664905592 0.95005619162280563  1.0383466998475039 9.6044431792095839 -0.38677288974913443 0.95005619162280031  1.0383466998475055 9.605252011184449 -0.38836594996633023 0.95005619162280652  1.0383466998475128 9.6060699334576913 -0.38997678918138395 0.95005619162279686  1.0383466998474999 9.6068969599726444 -0.39160537065077866 0.95005619162280341  1.0383466998475102 9.6077331067652665 -0.3932516610565075 0.95005619162280208  1.0383466998475053 9.6085783919133245 -0.39491563054147327 0.95005619162280186  1.0383466998475064 
8.948290501243827 -0.89892939590493526 1.652915012205747e-15  0.85353433019614966 8.9719356846012399 -0.92038573650358413 1.6514583440341514e-15  0.85353433019615021 8.9867522320837061 -0.933977912297557 1.6582480362339757e-15  0.85353433019614322 8.9909255349004624 -0.93796967402857168 1.6418613285636304e-15  0.85353433019616176 8.9835166908007391 -0.93244659930447149 1.6684236726726546e-15  0.85353433019613922 8.9568284742126512 -0.90733438567731517 1.6379113300383296e-15  0.85353433019615388 8.891738359547924 -0.83060106926978783 1.6853987124322859e-15  0.85353433019614611 8.836358214626971 -0.74746323350240484 1.6029512939200878e-15  0.85353433019615277 8.8199296137467353 -0.71542759263940026 1.8377698710531233e-15  0.85353433019614533 8.8176627957811498 -0.70878087374725018 1.3200478787298344e-15  0.85353433019615299 8.8215304102484069 -0.71632902755391503 2.0532404676714811e-15  0.85353433019614844 8.8323726906803337 -0.73768461537216801 1.2691804922162508e-15  0.85353433019615044 8.8489553363942175 -0.77034676140553782 1.9272334493810926e-15  0.8535343301961491 8.8497729038637054 -0.77195702755579443 1.8590001320650399e-15  0.85353433019615466 8.8506037418989045 -0.77359330483508482 1.9273834167457744e-15  0.85353433019614433 8.8514477440761574 -0.77525531652112101 1.8826291870735029e-15  0.85353433019615199 8.8523048094271299 -0.77694279482173845 1.9016962243670567e-15  0.85353433019614944 8.8531748423063021 -0.77865548096697879 1.8975531966727441e-15  0.85353433019614966 
9.5176646986726983 -0.27147117509202418 -0.95005619162280353  1.0383466998475068 9.5431460734742437 -0.29459373026106539 -0.95005619162280419  1.0383466998475082 9.5626018077159927 -0.31240707276374086 -0.95005619162280164  1.0383466998474975 9.5757494871242663 -0.32476941584504909 -0.95005619162280808  1.0383466998475235 9.5826426142939098 -0.33223781688077747 -0.95005619162279786  1.0383466998474944 9.5807422311008086 -0.33147205152434106 -0.95005619162280597  1.0383466998475113 9.5704794048846633 -0.31938056574931162 -0.95005619162280242  1.0383466998475028 9.5616584265642803 -0.30614671538222099 -0.95005619162280408  1.0383466998475102 9.5614107328475466 -0.30403953483767232 -0.95005619162280186  1.0383466998475044 9.5668520412612423 -0.31304847922090556 -0.95005619162280652  1.0383466998475062 9.5753167593341768 -0.32940379462319425 -0.95005619162280019  1.0383466998475086 9.5879519112396512 -0.35429072664905453 -0.95005619162280597  1.0383466998475066 9.6044431792095821 -0.38677288974913426 -0.95005619162280164  1.0383466998475059 9.6052520111844473 -0.38836594996633134 -0.95005619162280797  1.0383466998475139 9.6060699334576896 -0.38997678918138301 -0.95005619162279764  1.0383466998474997 9.6068969599726426 -0.39160537065077966 -0.95005619162280619  1.0383466998475104 9.6077331067652647 -0.39325166105650727 -0.95005619162280297  1.0383466998475059 9.6085783919133227 -0.39491563054147338 -0.9500561916228033  1.0383466998475068 
10.207991804351391 0.48927881931247069 -0.83077153778552881  1.0367296232096115 10.235699435156153 0.46413609342439893 -0.83077153778553059  1.0367296232096117 10.260779864690893 0.44120487622741889 -0.83077153778552248  1.0367296232096057 10.28480835929185 0.41869377821046472 -0.83077153778553881  1.0367296232096235 10.309041644263603 0.39547410516365727 -0.83077153778551993  1.0367296232096015 10.337194806455749 0.36672147428056456 -0.83077153778553259  1.036729623209615 10.393406301552071 0.30043918047825785 -0.83077153778552582  1.0367296232096086 10.441035114717369 0.22891925005462249 -0.83077153778553148  1.0367296232096137 10.460405659515619 0.19474022816434747 -0.83077153778552448  1.0367296232096099 10.475192541714785 0.16674986740298317 -0.83077153778553148  1.0367296232096119 10.489230932147544 0.13971647350500987 -0.83077153778552826  1.036729623209611 10.504039817567435 0.11054802918548728 -0.8307715377855287  1.0367296232096126 10.520420296299299 0.078284083029496909 -0.83077153778552848  1.0367296232096104 10.521218537086948 0.076711883824317179 -0.83077153778553015  1.0367296232096179 10.52202079988597 0.075131886514867005 -0.83077153778552659  1.0367296232096062 10.522827244576392 0.073543836886938552 -0.8307715377855307  1.0367296232096124 10.523638029053849 0.071947483974673807 -0.8307715377855277  1.0367296232096126 10.524453309277785 0.070342580094083076 -0.83077153778552892  1.0367296232096115 

0 6
6.2831853071795862 6

0 8
0.487574823940845 5
0.97514964788169001 5
1 8

9 1 1 1 0 6 10 6 19 2 3 10.524453309277785 0.070342580094084006 -1.2246467991473532e-16  1.6690784610682365 10.997429603124752 -0.86072561846751539 -1.2246467991473705e-16  1.669078461068223 11.468082525678746 -1.685912720926942 -1.2246467991472879e-16  1.669078461068273 11.935545024614344 -2.4044450916701439 -1.2246467991474964e-16  1.669078461068175 12.398630663950421 -3.0173859795671305 -1.2246467991471341e-16  1.6690784610683176 12.855705709273645 -3.51809280703328 -1.2246467991476e-16  1.6690784610681442 13.301548857943384 -3.9185989095017875 -1.2246467991471491e-16  1.6690784610683271 13.739058672019567 -4.2013555921559007 -1.2246467991474688e-16  1.669078461068169 14.144281445654245 -4.3841138906684005 -1.2246467991473189e-16  1.669078461068267 14.920884980208548 -4.5810687451022618 -1.224646799147384e-16  1.6690784610681957 15.687420790205133 -4.4470855366911106 -1.2246467991473263e-16  1.6690784610682872 16.082345379621557 -4.2992501396540668 -1.2246467991474375e-16  1.6690784610680338 16.510869980415237 -4.060369157851893 -1.2246467991471942e-16  1.6690784610686165 16.955170395352969 -3.6991419356040982 -1.2246467991475608e-16  1.6690784610677674 17.406795613233989 -3.2404730307435843 -1.2246467991471622e-16  1.6690784610686478 17.868452038920381 -2.6683235189586934 -1.224646799147476e-16  1.6690784610679796 18.334059548545103 -1.9906077838579521 -1.2246467991472992e-16  1.6690784610683469 18.803461973529579 -1.2059907059034147 -1.224646799147368e-16  1.6690784610682086 19.27549570362622 -0.31530299777279192 -1.2246467991473532e-16  1.6690784610682365 
10.524453309277785 0.070342580094083562 0.83077153778552904  1.0367296232096121 10.997429603124791 -0.86072561846753537 0.83077153778552237  1.0367296232096128 11.468082525678588 -1.6859127209268929 0.83077153778555779  1.0367296232095982 11.935545024614679 -2.4044450916702051 0.83077153778546031  1.0367296232096588 12.398630663949906 -3.0173859795671136 0.83077153778563628  1.0367296232095238 12.855705709274206 -3.5180928070332178 0.83077153778541435  1.0367296232097196 13.301548857942956 -3.9185989095018989 0.83077153778561197  1.0367296232095284 13.739058672019778 -4.2013555921558146 0.83077153778549095  1.0367296232096503 14.144281445654189 -4.3841138906684396 0.83077153778553681  1.036729623209605 14.920884980208585 -4.5810687451022121 0.83077153778552459  1.036729623209615 15.687420790205122 -4.4470855366911621 0.83077153778552992  1.0367296232096135 16.082345379621565 -4.299250139653906 0.83077153778553314  1.0367296232095944 16.510869980415325 -4.0603691578521639 0.83077153778552204  1.0367296232096355 16.955170395352685 -3.6991419356038229 0.83077153778552759  1.0367296232096097 17.406795613234447 -3.240473030743753 0.83077153778554258  1.0367296232095851 17.868452038919937 -2.668323518958664 0.83077153778551138  1.0367296232096499 18.334059548545369 -1.9906077838579144 0.83077153778554036  1.0367296232095875 18.803461973529497 -1.205990705903444 0.83077153778552582  1.0367296232096193 19.27549570362622 -0.31530299777279236 0.83077153778552904  1.0367296232096121 
9.6085783919133263 -0.39491563054147338 0.95005619162280197  1.0383466998475064 10.099951984747367 -1.3621994708786769 0.9500561916228063  1.0383466998474984 10.593775684574574 -2.2290584082942271 0.95005619162278343  1.038346699847527 11.090963839855117 -2.9963082788247712 0.95005619162284727  1.038346699847472 11.592767604507641 -3.6628278352988772 0.95005619162272903  1.0383466998475466 12.100909830199045 -4.2356219958881196 0.95005619162288013  1.038346699847474 12.620896632184467 -4.702001028486368 0.9500561916227469  1.0383466998475248 13.149671337085348 -5.0804708774577811 0.95005619162282429  1.0383466998474975 13.712494282062856 -5.3523122202543334 0.95005619162280019  1.0383466998475106 14.873828205290298 -5.649588144033201 0.95005619162279875  1.0383466998474988 16.045779029233284 -5.4475277182505772 0.95005619162280996  1.0383466998475177 16.619461905743695 -5.21966955957729 0.95005619162276089  1.0383466998474542 17.157711951053923 -4.8757417363457307 0.95005619162288824  1.0383466998476001 17.679325640104466 -4.4487522983669736 0.95005619162268862  1.0383466998473987 18.19321497146387 -3.9124381892421956 0.95005619162290478  1.0383466998475961 18.696525910784928 -3.2837132275816527 0.95005619162273935  1.0383466998474495 19.195670241686322 -2.5542313144729301 0.95005619162282628  1.0383466998475328 19.690812651462995 -1.7254003978078625 0.95005619162279709  1.0383466998474988 20.183180223194359 -0.79634445103593343 0.95005619162280197  1.0383466998475064 
8.8531748423063021 -0.77865548096697879 1.8975531966727441e-15  0.85353433019614966 9.3597223248218615 -1.7758095839677102 1.8975531966727232e-15  0.85353433019615521 9.8726570266722398 -2.6770389921184963 1.8975531966728273e-15  0.85353433019612068 10.39436257607845 -3.4844705201764024 1.8975531966725568e-15  0.85353433019622016 10.928100624268289 -4.1951811726822887 1.8975531966730285e-15  0.85353433019603897 11.478362498166856 -4.8274321720716262 1.8975531966724459e-15  0.85353433019626757 12.059502169208484 -5.3481424722913786 1.8975531966729579e-15  0.85353433019606495 12.663551151390568 -5.8055554872010138 1.8975531966726467e-15  0.85353433019618707 13.356360982779634 -6.1508715442692523 1.8975531966727619e-15  0.85353433019614489 14.835016295353375 -6.5308911816784896 1.8975531966727394e-15  0.853534330196146 16.341348959864959 -6.2726814164229161 1.8975531966727358e-15  0.85353433019616187 17.062469703744291 -5.9788213648676241 1.8975531966727871e-15  0.85353433019609037 17.691220087798769 -5.5482520632129795 1.8975531966726688e-15  0.85353433019625591 18.27660091425124 -5.0670226736305741 1.897553196672821e-15  0.8535343301960272 18.841845000982321 -4.4666676547708661 1.8975531966726916e-15  0.8535343301962518 19.379512124605661 -3.7912798848530693 1.8975531966727693e-15  0.85353433019608671 19.906317256511045 -3.0191017979815267 1.8975531966727358e-15  0.85353433019617664 20.422689722391052 -2.1538037938676364 1.8975531966727457e-15  0.853534330196143 20.931828422861411 -1.1931021462338405 1.8975531966727441e-15  0.85353433019614966 
9.6085783919133227 -0.39491563054147338 -0.95005619162280341  1.0383466998475068 10.099951984747353 -1.362199470878668 -0.95005619162281008  1.0383466998474991 10.593775684574609 -2.2290584082942608 -0.95005619162277954  1.0383466998475261 11.090963839855098 -2.9963082788247015 -0.95005619162285437  1.0383466998474755 11.592767604507619 -3.6628278352989696 -0.95005619162272736  1.0383466998475464 12.100909830199079 -4.2356219958880477 -0.95005619162288357  1.0383466998474655 12.620896632184451 -4.7020010284863938 -0.95005619162274602  1.0383466998475421 13.149671337085355 -5.0804708774577865 -0.95005619162282795  1.0383466998474833 13.712494282062849 -5.3523122202543236 -0.95005619162279964  1.0383466998475175 14.873828205290318 -5.6495881440332187 -0.9500561916228053  1.0383466998474902 16.045779029233248 -5.4475277182505621 -0.95005619162280364  1.0383466998475293 16.619461905743865 -5.2196695595773352 -0.95005619162279664  1.0383466998474125 17.157711951053528 -4.8757417363456454 -0.95005619162282007  1.0383466998476809 17.679325640105027 -4.4487522983670837 -0.95005619162277644  1.0383466998472961 18.193214971463341 -3.912438189242109 -0.95005619162283705  1.0383466998476893 18.696525910785262 -3.2837132275816918 -0.95005619162277422  1.0383466998473916 19.195670241686191 -2.5542313144729234 -0.95005619162281851  1.0383466998475579 19.690812651463027 -1.7254003978078607 -0.95005619162279986  1.0383466998474933 20.183180223194359 -0.79634445103593343 -0.95005619162280341  1.0383466998475068 
10.524453309277785 0.070342580094083562 -0.83077153778552892  1.0367296232096115 10.997429603124759 -0.86072561846753493 -0.83077153778553714  1.0367296232096077 11.468082525678712 -1.685912720926886 -0.83077153778549628  1.0367296232096175 11.935545024614402 -2.4044450916702313 -0.83077153778560342  1.0367296232096053 12.398630663950309 -3.0173859795670448 -0.83077153778541413  1.0367296232096155 12.855705709273799 -3.5180928070333315 -0.83077153778565682  1.0367296232096059 13.30154885794324 -3.9185989095017772 -0.83077153778542534  1.0367296232096246 13.739058672019654 -4.2013555921558927 -0.83077153778558466  1.0367296232095953 14.144281445654213 -4.3841138906684121 -0.83077153778551394  1.0367296232096206 14.920884980208578 -4.5810687451022396 -0.8307715377855418  1.0367296232095986 15.68742079020511 -4.4470855366911426 -0.83077153778551815  1.0367296232096281 16.082345379621639 -4.2992501396539335 -0.8307715377855599  1.0367296232095424 16.510869980415134 -4.0603691578521532 -0.83077153778548085  1.0367296232097269 16.95517039535299 -3.6991419356037958 -0.83077153778557822  1.0367296232094945 17.406795613234117 -3.2404730307438134 -0.83077153778549695  1.0367296232096856 17.868452038920172 -2.6683235189585939 -0.83077153778554003  1.0367296232095851 18.334059548545262 -1.9906077838579654 -0.83077153778552826  1.036729623209615 18.803461973529526 -1.2059907059034254 -0.83077153778552826  1.0367296232096119 19.27549570362622 -0.31530299777279236 -0.83077153778552892  1.0367296232096115 

0 6
6.2831853071795862 6

0.0078674075878488806 11
0.48979812707046 8
0.97172884655307112 11

9 1 1 1 0 6 8 6 15 2 3 19.27549570362622 -0.3153029977727913 -6.1232339957367673e-17  1.6690784610682365 19.325834955928215 -0.22031708807372949 -6.1232339957367747e-17  1.6690784610682361 19.375218017018593 -0.13164045906653588 -6.1232339957367562e-17  1.6690784610682352 19.425621105380653 -0.047426647241026382 -6.1232339957367882e-17  1.6690784610682392 19.480459575670615 0.033709451643337829 -6.1232339957367414e-17  1.6690784610682334 19.540559170057666 0.11455389917724756 -6.1232339957367882e-17  1.6690784610682381 19.615851688294541 0.19509564192909751 -6.1232339957367586e-17  1.669078461068235 19.792243851850486 0.33796269968435072 -6.1232339957367759e-17  1.6690784610682423 20.000381305404659 0.43202824973403658 -6.1232339957367549e-17  1.6690784610682265 20.107679470000129 0.46343500506718754 -6.1232339957367907e-17  1.6690784610682696 20.208762378671683 0.48016259529639332 -6.12323399573675e-17  1.6690784610681866 20.307258368646185 0.49175171990666783 -6.1232339957367685e-17  1.6690784610682814 20.406536283871169 0.49754598437656111 -6.1232339957367734e-17  1.6690784610682106 20.509249525602282 0.49999999999999928 -6.1232339957367636e-17  1.6690784610682443 20.618033988749897 0.49999999999999994 -6.123233995736766e-17  1.6690784610682365 
19.27549570362622 -0.31530299777279203 0.83077153778552915  1.0367296232096121 19.325834955928219 -0.22031708807372971 0.83077153778552659  1.036729623209615 19.375218017018582 -0.13164045906653826 0.83077153778553947  1.0367296232096006 19.425621105380674 -0.047426647241023689 0.83077153778550694  1.0367296232096346 19.480459575670594 0.033709451643334692 0.83077153778555879  1.0367296232095851 19.540559170057676 0.11455389917724706 0.83077153778550628  1.0367296232096319 19.615851688294537 0.1950956419290964 0.83077153778553658  1.0367296232096059 19.792243851850486 0.33796269968435338 0.8307715377855267  1.0367296232096144 20.000381305404662 0.43202824973402648 0.83077153778552659  1.0367296232096139 20.107679470000136 0.4634350050672193 0.83077153778554136  1.0367296232096015 20.208762378671672 0.48016259529634336 0.83077153778551094  1.0367296232096292 20.307258368646192 0.49175171990670857 0.83077153778554369  1.0367296232095984 20.406536283871166 0.49754598437653769 0.83077153778552171  1.0367296232096186 20.509249525602286 0.50000000000000355 0.83077153778553081  1.0367296232096108 20.618033988749897 0.49999999999999872 0.83077153778552915  1.0367296232096121 
20.183180223194359 -0.7963444510359341 0.95005619162280208  1.0383466998475064 20.225259596260599 -0.71694423455507872 0.95005619162280475  1.038346699847507 20.261695498136721 -0.65195859513852761 0.95005619162279575  1.0383466998475022 20.292798992397891 -0.60196108884053978 0.95005619162281008  1.0383466998475142 20.317363504172238 -0.56703874613245042 0.95005619162279531  1.0383466998474984 20.336913329750264 -0.54875597452414504 0.95005619162280519  1.0383466998475106 20.343369988874713 -0.5457274889400634 0.95005619162280064  1.0383466998475059 20.339715618160408 -0.54886016506175195 0.95005619162280319  1.0383466998475073 20.333458974532753 -0.5518342811598167 0.95005619162280075  1.0383466998475048 20.337038802415133 -0.54829556512404909 0.95005619162280064  1.0383466998475128 20.359681745890825 -0.53935595009639248 0.95005619162280841  1.0383466998474939 20.399956629703421 -0.53370293475606423 0.95005619162279209  1.0383466998475206 20.456705926764712 -0.52927069074888466 0.95005619162280908  1.0383466998474971 20.52952657878264 -0.52727409527406843 0.95005619162279964  1.038346699847509 20.618033988749897 -0.52727409527407021 0.95005619162280186  1.0383466998475064 
20.931828422861411 -1.1931021462338418 1.7292183347830021e-15  0.85353433019614966 20.96709513846131 -1.1265568379472235 1.7292183347830059e-15  0.85353433019614666 20.992852365943858 -1.0811112659472482 1.7292183347829941e-15  0.85353433019615843 21.008037767446567 -1.0593349917847035 1.7292183347830132e-15  0.85353433019613456 21.007632651502284 -1.062529246435385 1.7292183347829986e-15  0.8535343301961632 20.993737474151132 -1.0958466564322249 1.7292183347829984e-15  0.85353433019614333 20.943419074446112 -1.1567502520701238 1.7292183347830059e-15  0.85353433019614999 20.791264304273803 -1.2803019014831578 1.7292183347829972e-15  0.85353433019615177 20.608177769407302 -1.3633132659771412 1.7292183347830085e-15  0.85353433019614533 20.526211854932374 -1.382759801973831 1.7292183347829842e-15  0.85353433019616187 20.48415837860593 -1.3802436231599735 1.7292183347830227e-15  0.85353433019613556 20.476413134972219 -1.3794866453989549 1.7292183347829893e-15  0.85353433019615899 20.498085295940324 -1.3761777808758822 1.7292183347830071e-15  0.85353433019614577 20.546250869029706 -1.3745584605042287 1.7292183347830017e-15  0.85353433019615033 20.618033988749897 -1.3745584605042307 1.7292183347830021e-15  0.85353433019614966 
20.183180223194359 -0.7963444510359341 -0.95005619162280375  1.0383466998475068 20.225259596260599 -0.71694423455507872 -0.95005619162280142  1.0383466998475097 20.261695498136721 -0.65195859513852694 -0.95005619162281241  1.0383466998474968 20.292798992397888 -0.60196108884054134 -0.95005619162278632  1.0383466998475246 20.317363504172242 -0.56703874613244976 -0.9500561916228234  1.0383466998474875 20.336913329750264 -0.54875597452414482 -0.95005619162279087  1.038346699847519 20.343369988874713 -0.54572748894006362 -0.95005619162280663  1.0383466998475039 20.339715618160408 -0.54886016506175295 -0.9500561916228033  1.0383466998475082 20.333458974532753 -0.55183428115981437 -0.95005619162280042  1.0383466998475075 20.337038802415133 -0.54829556512405775 -0.95005619162281552  1.0383466998475011 20.359681745890818 -0.53935595009637849 -0.95005619162278587  1.0383466998475157 20.399956629703428 -0.53370293475607788 -0.95005619162281807  1.0383466998475004 20.456705926764705 -0.52927069074887667 -0.9500561916227962  1.0383466998475095 20.529526578782644 -0.5272740952740711 -0.95005619162280619  1.0383466998475059 20.618033988749897 -0.52727409527407021 -0.95005619162280353  1.0383466998475068 
19.27549570362622 -0.3153029977727918 -0.83077153778552881  1.0367296232096115 19.325834955928219 -0.22031708807373046 -0.83077153778552804  1.0367296232096153 19.375218017018586 -0.13164045906653393 -0.83077153778553103  1.0367296232095982 19.425621105380667 -0.0474266472410316 -0.83077153778552626  1.0367296232096352 19.480459575670604 0.033709451643344157 -0.83077153778553092  1.0367296232095848 19.540559170057669 0.11455389917724107 -0.83077153778552693  1.0367296232096299 19.615851688294537 0.19509564192909895 -0.83077153778552959  1.0367296232096059 19.792243851850486 0.33796269968435072 -0.8307715377855297  1.0367296232096139 20.000381305404662 0.43202824973403048 -0.83077153778552593  1.0367296232096126 20.107679470000136 0.46343500506720609 -0.83077153778554025  1.0367296232096026 20.208762378671672 0.48016259529636268 -0.83077153778551105  1.036729623209627 20.307258368646195 0.49175171990669359 -0.83077153778554436  1.0367296232095984 20.406536283871162 0.49754598437654612 -0.83077153778552137  1.036729623209617 20.509249525602286 0.500000000000002 -0.83077153778553037  1.0367296232096106 20.618033988749897 0.49999999999999928 -0.83077153778552881  1.0367296232096115 

0 6
6.2831853071795862 6

0 9
0.5 6
1 9

10 0 6.2831853071795862 0.61803398874989668 9.5857864376269042
2 20 0 0 1 0 0 -0 1 0 0 -0 1 0.5
10 5.8904862254808616 6.6758843888783108 3.141592653589794 9.4247779607693793
5 29.585786437626904 0.99999999999999989 0 -0 0 1 0.38268343236509128 -0.92387953251128618 0 0.92387953251128618 0.38268343236509128 0 1.0000000000000004 0.5
10 0 6.2831853071795862 0.41421356237309637 7.0710678118654746
2 30 0 0 0.7071067811865468 0.70710678118654824 0 -0.70710678118654824 0.7071067811865468 0 0 -0 1 0.5
1 35 5 0 0.70710678118654757 0.70710678118654757 0 -0.70710678118654757 0.70710678118654757 0 0 0 1 
Triangulations 0

TShapes 43
Ve
1.00005e-07
-0.344827586206897 0.362068965517241 0
0 0

0101101
*
Ed
 1.00005e-07 1 1 0
1  1 0 0 6.28318530717959
2  1 2 0 0 6.28318530717959
0

0101000
-43 0 +43 0 *
Wi

0101100
-42 0 *
Fa
0  1e-07 1 0

0101000
+41 0 *
Ve
1.00000000981013e-07
10.2079918043514 0.489278819312472 1.38777878078145e-17
0 0

0101101
*
Ed
 1e-07 1 1 0
1  2 0 0 1.49791750699966
3  2 3G1 2 0 0 1.49791750699966
0

0101000
+43 0 -39 0 *
Ed
 9.61569057807231e-05 1 1 0
1  3 0 0 6.28318530717959
2  4 2 0 0 6.28318530717959
2  5 3 0 0 6.28318530717959
4 G1 3 0 2 0
0

0101000
+39 0 -39 0 *
Wi

0101100
+38 0 -42 0 -38 0 +37 0 *
Fa
0  1e-07 2 0

0101000
+36 0 *
Ve
2.63981368233531e-05
10.5244533092778 0.0703425800940835 -6.12323399573677e-17
0 0

0101101
*
Ed
 1e-07 1 1 0
1  4 0 0 1
3  6 7G1 3 0 0 1
0

0101000
+39 0 -34 0 *
Ed
 1e-07 1 1 0
1  5 0 0 6.28318530717959
2  8 3 0 0 6.28318530717959
2  9 4 0 0 6.28318530717959
4 G1 4 0 3 0
0

0101000
+34 0 -34 0 *
Wi

0101100
+33 0 -37 0 -33 0 -32 0 *
Fa
0  1e-07 3 0

0101000
+31 0 *
Ve
3.16790282421195e-05
19.2754957036262 -0.315302997772792 -3.06161699786838e-17
0 0

0101101
*
Ed
 1e-07 1 1 0
1  6 0 0.00786740758784888 0.971728846553071
3  10 11G1 4 0 0.00786740758784888 0.971728846553071
0

0101000
+34 0 -29 0 *
Ed
 1e-07 1 1 0
1  7 0 0 6.28318530717959
2  12 4 0 0 6.28318530717959
2  13 5 0 0 6.28318530717959
4 G1 5 0 4 0
0

0101000
+29 0 -29 0 *
Wi

0101100
+28 0 +32 0 -28 0 -27 0 *
Fa
0  1e-07 4 0

0101000
+26 0 *
Ve
2.3510335806747e-05
20.6180339887499 0.5 0
0 0

0101101
*
Ed
 1e-07 1 1 0
1  8 0 0 1
3  14 15G1 5 0 0 1
0

0101000
+29 0 -24 0 *
Ed
 3.63674654903049e-05 1 1 0
1  9 0 0 6.28318530717959
2  16 5 0 0 6.28318530717959
2  17 6 0 0 6.28318530717959
4 G1 6 0 5 0
0

0101000
+24 0 -24 0 *
Wi

0101100
+23 0 +27 0 -23 0 -22 0 *
Fa
0  1e-07 5 0

0101000
+21 0 *
Ve
1.00000000684599e-07
29.5857864376269 0.5 0
0 0

0101101
*
Ed
 1e-07 1 1 0
1  10 0 0.618033988749897 9.5857864376269
3  18 19G1 6 0 0.618033988749897 9.5857864376269
0

0101000
+24 0 -19 0 *
Ed
 1e-07 1 1 0
1  11 0 0 6.28318530717959
2  20 6 0 0 6.28318530717959
2  21 7 0 0 6.28318530717959
4 G1 7 0 6 0
0

0101000
+19 0 -19 0 *
Wi

0101100
+18 0 +22 0 -18 0 -17 0 *
Fa
0  1e-07 6 0

0101000
+16 0 *
Ve
1.00000000888178e-07
29.9393398282202 0.646446609406727 0
0 0

0101101
*
Ed
 1e-07 1 1 0
1  12 0 5.89048622548086 6.67588438887831
3  22 23G1 7 0 5.89048622548086 6.67588438887831
0

0101000
+19 0 -14 0 *
Ed
 1e-07 1 1 0
1  13 0 3.14159265358979 9.42477796076938
2  24 7 0 3.14159265358979 9.42477796076938
2  25 8 0 3.14159265358979 9.42477796076938
4 G1 8 0 7 0
0

0101000
+14 0 -14 0 *
Wi

0101100
+13 0 +17 0 -13 0 +12 0 *
Fa
0  1e-07 7 0

0101000
+11 0 *
Ve
1.00005e-07
34.6464466094067 5.35355339059328 -1.22464679914735e-16
0 0

0101101
*
Ed
 1e-07 1 1 0
1  14 0 0.414213562373096 7.07106781186547
3  26 27G1 8 0 0.414213562373096 7.07106781186547
0

0101000
+14 0 -9 0 *
Ed
 1.00005e-07 1 1 0
1  15 0 0 6.28318530717959
2  28 8 0 0 6.28318530717959
0

0101000
+9 0 -9 0 *
Wi

0101100
+8 0 -12 0 -8 0 -7 0 *
Fa
0  1e-07 8 0

0101000
+6 0 *
Wi

0101100
+7 0 *
Fa
0  1e-07 9 0

0101000
+4 0 *
Sh

0101100
-40 0 +35 0 +30 0 +25 0 +20 0 +15 0 +10 0 +5 0 +3 0 *
So

1100000
+2 0 *

+1 1  