
CASCADE Topology V1, (c) Matra-Datavision
Locations 1
1
              1               0               0               0 
              0               1               0               0 
              0               0               1               0 
Curve2ds 28
1 0 -11.180339887498949 1 0 
1 6.2831853071795862 0 0 1 
8 -11.180339887498949 -3.0000000000000004
1 0 0 0 1 
1 0 -3.0000000000000004 1 0 
8 0 6.2831853071795862
1 5.0341395347813318 7.8539816339744828 -0 -1 
1 0 1.5707963267948966 1 0 
8 5.0341395347813318 7.5322310795778407
1 0 7.8539816339744828 1 0 
1 7.5322310795778407 0 0 1 
8 1.5707963267948966 7.8539816339744828
1 7.8539816339744828 -8.1803398874989508 -1 -0 
1 6.2831853071795862 0 0 1 
8 -8.1803398874989508 -0.16227766016837852
1 0 0 0 1 
1 0 -0.16227766016837852 1 0 
8 0 6.2831853071795862
1 6.1223100299812652 7.8539816339744828 -0 -1 
1 0 1.5707963267948966 1 0 
8 6.1223100299812652 6.4440605843779073
1 0 7.8539816339744828 1 0 
1 6.4440605843779073 0 0 1 
8 1.5707963267948966 7.8539816339744828
1 7.8539816339744828 -6.9087901516970955 -1 -0 
1 6.2831853071795862 0 0 1 
8 -6.9087901516970955 -0.41421356237309509
1 0 0 0 1 
1 0 -0.41421356237309509 1 0 
8 0 6.2831853071795862
1 5.8904862254808616 10.995574287564276 -0 -1 
1 0 4.7123889803846897 1 0 
8 5.8904862254808616 6.6758843888783108
1 0 10.995574287564276 1 0 
1 6.6758843888783108 0 0 1 
8 4.7123889803846897 10.995574287564276
1 10.995574287564276 -9.5857864376269042 -1 -0 
1 6.2831853071795862 0 0 1 
8 -9.5857864376269042 -0
1 0 0 0 1 
1 0 -0 1 0 
Curves 15
2 20.000000000000014 -8.8817841970012523e-15 0 0.44721359549995654 0.89442719099991663 0 0 -0 1 0.89442719099991663 -0.44721359549995654 -0 0.5
1 25 10 0.5 0.44721359549995654 0.89442719099991663 0 
2 23.65835921350013 7.3167184270002501 0 0.44721359549995654 0.89442719099991663 0 0 -0 1 0.89442719099991663 -0.44721359549995654 -0 0.5
2 22.76393202250021 7.7639320225002102 0.49999999999999994 0 -0 1 0.70710678118654668 0.70710678118654846 0 -0.70710678118654846 0.70710678118654668 0 0.99999999999999922
2 22.31671842700025 8.6583592135001251 0 0.89442719099991552 0.44721359549995893 0 -0.44721359549995893 0.89442719099991552 0 0 -0 1 0.49999999999999994
1 15 5 0.49999999999999994 -0.89442719099991597 -0.44721359549995798 0 
2 15.145145551746442 5.0725727758732209 0 -0.89442719099991597 -0.44721359549995798 0 0 0 1 -0.44721359549995798 0.89442719099991597 0 0.49999999999999994
2 15.5923591472464 4.1781455848733051 0.49999999999999989 0 0 1 -0.58471028466376429 0.81124218517556146 0 -0.81124218517556146 -0.58471028466376429 0 0.99999999999999967
2 14.885252366059854 4.885252366059853 0 0.70710678118654835 0.7071067811865468 -0 -0.7071067811865468 0.70710678118654835 0 0 0 1 0.49999999999999989
1 10 -8.6595605623549366e-17 0.5 -0.70710678118654779 -0.70710678118654746 0 
2 10.292893218813452 0.29289321881345248 0 -0.70710678118654779 -0.70710678118654746 0 0 0 1 -0.70710678118654746 0.70710678118654779 0 0.5
2 9.5857864376269042 0.99999999999999989 0.5 0 -0 -1 0.38268343236508973 -0.92387953251128685 0 -0.92387953251128685 -0.38268343236508973 0 0.99999999999999956
2 9.5857864376269042 2.2204460492503131e-16 0 1 -2.2204460492503126e-16 0 -2.2204460492503126e-16 -1 0 0 -0 -1 0.5
1 0 -1.2246467991473532e-16 0.5 -1 0 0 
2 0 0 0 -1 0 0 0 0 1 0 1 -0 0.5
Polygon3D 0
PolygonOnTriangulations 0
Surfaces 9
1 20 -1.7763568394002505e-15 0 -0.44721359549995848 -0.89442719099991574 0 0 0 1 -0.89442719099991574 0.44721359549995848 0 
10 0 6.2831853071795862 -11.180339887498949 -3.0000000000000004
2 25 10 0 0.44721359549995654 0.89442719099991663 0 0 -0 1 0.89442719099991663 -0.44721359549995654 -0 0.5
10 5.0341395347813318 7.5322310795778407 1.5707963267948966 7.8539816339744828
5 22.76393202250021 7.7639320225002102 0 0 -0 1 0.70710678118654668 0.70710678118654846 0 -0.70710678118654846 0.70710678118654668 0 0.99999999999999922 0.49999999999999994
10 0 6.2831853071795862 -8.1803398874989508 -0.16227766016837852
2 15 5 0 -0.89442719099991597 -0.44721359549995798 0 0 0 1 -0.44721359549995798 0.89442719099991597 0 0.49999999999999994
10 6.1223100299812652 6.4440605843779073 1.5707963267948966 7.8539816339744828
5 15.5923591472464 4.1781455848733051 0 0 0 1 -0.58471028466376429 0.81124218517556146 0 -0.81124218517556146 -0.58471028466376429 0 0.99999999999999967 0.49999999999999989
10 0 6.2831853071795862 -6.9087901516970955 -0.41421356237309509
2 10 0 0 -0.70710678118654779 -0.70710678118654746 0 0 0 1 -0.70710678118654746 0.70710678118654779 0 0.5
10 5.8904862254808616 6.6758843888783108 4.7123889803846897 10.995574287564276
5 9.5857864376269042 0.99999999999999989 0 0 -0 -1 0.38268343236508973 -0.92387953251128685 0 -0.92387953251128685 -0.38268343236508973 0 0.99999999999999967 0.5
10 0 6.2831853071795862 -9.5857864376269042 -0
2 0 0 0 -1 0 0 0 0 1 0 1 -0 0.5
1 0 0 0 1 0 0 0 0 1 0 -1 0 
Triangulations 0

TShapes 43
Ve
1.00005e-07
20 -8.88178419700125e-15 0.5
0 0

0101101
*
Ed
 1.00005e-07 1 1 0
1  1 0 0 6.28318530717959
2  1 2 0 0 6.28318530717959
0

0101000
-43 0 +43 0 *
Wi

0101100
-42 0 *
Fa
0  1e-07 1 0

0101000
+41 0 *
Ve
1.00000008627902e-07
23.6583592135001 7.31671842700025 0.5
0 0

0101101
*
Ed
 1e-07 1 1 0
1  2 0 -11.1803398874989 -3
3  2 3G1 2 0 -11.1803398874989 -3
0

0101000
+43 0 -39 0 *
Ed
 1e-07 1 1 0
1  3 0 0 6.28318530717959
2  4 2 0 0 6.28318530717959
2  5 3 0 0 6.28318530717959
4 G1 3 0 2 0
0

0101000
+39 0 -39 0 *
Wi

0101100
+38 0 +42 0 -38 0 -37 0 *
Fa
0  1e-07 2 0

0101000
+36 0 *
Ve
1.00000000804912e-07
22.3167184270003 8.65835921350013 0.5
0 0

0101101
*
Ed
 1e-07 1 1 0
1  4 0 5.03413953478133 7.53223107957784
3  6 7G1 3 0 5.03413953478133 7.53223107957784
0

0101000
+39 0 -34 0 *
Ed
 1e-07 1 1 0
1  5 0 1.5707963267949 7.85398163397448
2  8 3 0 1.5707963267949 7.85398163397448
2  9 4 0 1.5707963267949 7.85398163397448
4 G1 4 0 3 0
0

0101000
+34 0 -34 0 *
Wi

0101100
+33 0 +37 0 -33 0 +32 0 *
Fa
0  1e-07 3 0

0101000
+31 0 *
Ve
1.00000002225459e-07
15.1451455517464 5.07257277587322 0.5
0 0

0101101
*
Ed
 1e-07 1 1 0
1  6 0 -8.18033988749895 -0.162277660168379
3  10 11G1 4 0 -8.18033988749895 -0.162277660168379
0

0101000
+34 0 -29 0 *
Ed
 1e-07 1 1 0
1  7 0 0 6.28318530717959
2  12 4 0 0 6.28318530717959
2  13 5 0 0 6.28318530717959
4 G1 5 0 4 0
0

0101000
+29 0 -29 0 *
Wi

0101100
+28 0 -32 0 -28 0 -27 0 *
Fa
0  1e-07 4 0

0101000
+26 0 *
Ve
1.000000002498e-07
14.8852523660599 4.88525236605985 0.5
0 0

0101101
*
Ed
 1e-07 1 1 0
1  8 0 6.12231002998127 6.44406058437791
3  14 15G1 5 0 6.12231002998127 6.44406058437791
0

0101000
+29 0 -24 0 *
Ed
 1e-07 1 1 0
1  9 0 1.5707963267949 7.85398163397448
2  16 5 0 1.5707963267949 7.85398163397448
2  17 6 0 1.5707963267949 7.85398163397448
4 G1 6 0 5 0
0

0101000
+24 0 -24 0 *
Wi

0101100
+23 0 +27 0 -23 0 +22 0 *
Fa
0  1e-07 5 0

0101000
+21 0 *
Ve
1.00000001830664e-07
10.2928932188135 0.292893218813453 0.5
0 0

0101101
*
Ed
 1e-07 1 1 0
1  10 0 -6.9087901516971 -0.414213562373095
3  18 19G1 6 0 -6.9087901516971 -0.414213562373095
0

0101000
+24 0 -19 0 *
Ed
 1e-07 1 1 0
1  11 0 0 6.28318530717959
2  20 6 0 0 6.28318530717959
2  21 7 0 0 6.28318530717959
4 G1 7 0 6 0
0

0101000
+19 0 -19 0 *
Wi

0101100
+18 0 -22 0 -18 0 -17 0 *
Fa
0  1e-07 6 0

0101000
+16 0 *
Ve
1.00000000166533e-07
9.5857864376269 -5.55111512312578e-17 0.5
0 0

0101101
*
Ed
 1e-07 1 1 0
1  12 0 5.89048622548086 6.67588438887831
3  22 23G1 7 0 5.89048622548086 6.67588438887831
0

0101000
+19 0 -14 0 *
Ed
 1e-07 1 1 0
1  13 0 4.71238898038469 10.9955742875643
2  24 7 0 4.71238898038469 10.9955742875643
2  25 8 0 4.71238898038469 10.9955742875643
4 G1 8 0 7 0
0

0101000
+14 0 -14 0 *
Wi

0101100
+13 0 +17 0 -13 0 +12 0 *
Fa
0  1e-07 7 0

0101000
+11 0 *
Ve
1.00005e-07
0 0 0.5
0 0

0101101
*
Ed
 1e-07 1 1 0
1  14 0 -9.5857864376269 -0
3  26 27G1 8 0 -9.5857864376269 -0
0

0101000
+14 0 -9 0 *
Ed
 1.00005e-07 1 1 0
1  15 0 0 6.28318530717959
2  28 8 0 0 6.28318530717959
0

0101000
-9 0 +9 0 *
Wi

0101100
+8 0 -12 0 -8 0 -7 0 *
Fa
0  1e-07 8 0

0101000
+6 0 *
Wi

0101100
-7 0 *
Fa
0  1e-07 9 0

0101000
+4 0 *
Sh

0101100
-40 0 -35 0 -30 0 -25 0 -20 0 -15 0 -10 0 -5 0 +3 0 *
So

1100000
-2 0 *

+1 1  