
CASCADE Topology V1, (c) Matra-Datavision
Locations 1
1
              1               0               0               0 
              0               1               0               0 
              0               0               1               0 
Curve2ds 112
1 0 0 1 0 
1 0 0 1 0 
1 0 0 1 0 
1 0 0 1 0 
1 -0.5 0 0 1 
1 0.25 0 0 1 
1 0.5 0 0 1 
1 -0.25 0 0 1 
1 0 9.5857864376269042 1 0 
1 -0.38268343236508967 0.076120467488713053 0.3826834323650895 0.92387953251128696 
8 5.8904862254808616 6.6758843888783108
1 0 -0.25 1 0 
2 -2.2204460492503131e-16 0.99999999999999989 8.3266726846886721e-16 -1 1 8.3266726846886721e-16 1.5000000000000002
8 5.8904862254808616 6.6758843888783108
1 0 -0.25 1 0 
2 -2.2204460492503131e-16 0.99999999999999989 -1.3877787807814457e-15 -1 1 -1.3877787807814457e-15 0.4999999999999995
1 0.38268343236509011 0.07612046748871279 -0.38268343236509073 0.92387953251128629 
1 -3.8857805861880479e-16 0.41421356237309453 1 1.1102230246251565e-16 
1 -0.50000000000000056 4.9960036108132044e-16 0 1 
1 0.25 0 0 1 
1 0.50000000000000056 -4.9960036108132044e-16 0 1 
1 -0.25 0 0 1 
1 0 6.9087901516970973 1 0 
1 -0.16018224300696854 -0.012912542362496809 -0.16018224300696882 0.9870874576374965 
8 6.1223100299812652 6.4440605843779073
1 0 0.25 1 0 
2 -2.7755575615628914e-16 -0.99999999999999956 7.7715611723760958e-16 1 1 -7.7715611723760958e-16 0.50000000000000022
8 6.1223100299812652 6.4440605843779073
1 0 0.25 1 0 
2 -2.7755575615628914e-16 -0.99999999999999956 1.6653345369377348e-16 1 1 -1.6653345369377348e-16 1.4999999999999991
1 0.16018224300696826 -0.012912542362505483 0.16018224300696549 0.98708745763749706 
1 -2.55351295663786e-15 0.1622776601683813 1 -5.5511151231257827e-17 
1 -0.5 6.9388939039072284e-16 0 1 
1 0.25 0 0 1 
1 0.5 -6.9388939039072284e-16 0 1 
1 -0.25 0 0 1 
1 -4.4408920985006262e-16 8.1803398874989508 1 0 
1 -0.94868329805052076 -0.68377223398315579 -0.94868329805051366 0.31622776601683844 
8 5.0341395347813318 7.5322310795778407
1 0 0.25 1 0 
2 -3.3306690738754696e-16 -0.99999999999999933 1.6098233857064766e-15 1 1 -1.6098233857064766e-15 0.499999999999999
8 5.0341395347813318 7.5322310795778407
1 0 0.25 1 0 
2 -3.3306690738754696e-16 -0.99999999999999933 -1.1102230246251565e-16 1 1 1.1102230246251565e-16 1.4999999999999996
1 0.94868329805051355 -0.68377223398316134 0.94868329805051388 0.3162277660168375 
1 -3.1086244689504383e-15 2.9999999999999991 1 -1.1102230246251563e-16 
1 -0.49999999999999845 -4.9960036108132044e-16 0 1 
1 0.24999999999999997 0 -0 1 
1 0.49999999999999845 4.9960036108132044e-16 0 1 
1 -0.24999999999999997 -0 0 1 
1 8.8817841970012523e-16 11.180339887498951 1 0 
1 0.25 0 0 1 
1 -0.5 0 0 1 
8 -0.25 0.25
1 5.8904862254808616 0 0 1 
1 0 9.5857864376269042 1 0 
1 0 0.25 1 0 
2 -2.2204460492503131e-16 -0.99999999999999989 -1.3877787807814457e-15 1 1 1.3877787807814457e-15 0.4999999999999995
1 6.6758843888783108 0 0 1 
1 0 0.4142135623730947 1 0 
1 0.25 0 0 1 
1 -0.50000000000000056 -4.9960036108132044e-16 1.1657341758564142e-15 1 
8 -0.25 0.25
1 6.1223100299812652 0 -0 -1 
1 0 6.9087901516970973 1 0 
1 0 -0.25 1 0 
2 -2.7755575615628914e-16 0.99999999999999956 1.6653345369377348e-16 -1 1 1.6653345369377348e-16 1.4999999999999991
1 6.4440605843779073 0 0 1 
1 0 0.16227766016838049 -1 0 
1 0.25 0 0 1 
1 -0.5 -6.9388939039072284e-16 9.9920072216264069e-16 1 
8 -0.25 0.25
1 5.0341395347813318 0 -0 -1 
1 0 8.1803398874989508 1 0 
1 0 -0.25 1 0 
2 -3.3306690738754696e-16 0.99999999999999933 -1.1102230246251565e-16 -1 1 -1.1102230246251565e-16 1.4999999999999996
1 7.5322310795778407 0 0 1 
1 0 2.9999999999999987 -1 -0 
1 0.25 0 0 1 
1 -0.49999999999999845 4.9960036108132044e-16 -5.5511151231257817e-16 1 
1 0 11.180339887498949 1 0 
1 0.5 0 0 1 
1 -0.25 0 0 1 
1 0 9.5857864376269042 1 0 
1 -0.38268343236508967 -0.076120467488713053 -0.3826834323650895 0.92387953251128696 
8 5.8904862254808616 6.6758843888783108
1 0 0.25 1 0 
2 -2.2204460492503131e-16 -0.99999999999999989 8.3266726846886721e-16 1 1 -8.3266726846886721e-16 1.5000000000000002
1 0.38268343236509011 -0.07612046748871279 0.38268343236509073 0.92387953251128629 
1 3.8857805861880479e-16 0.41421356237309453 1 -1.1102230246251565e-16 
1 0.50000000000000056 4.9960036108132044e-16 0 1 
1 -0.25 0 0 1 
1 0 6.9087901516970973 1 0 
1 -0.16018224300696854 0.012912542362496809 0.16018224300696882 0.9870874576374965 
8 6.1223100299812652 6.4440605843779073
1 0 -0.25 1 0 
2 -2.7755575615628914e-16 0.99999999999999956 7.7715611723760958e-16 -1 1 7.7715611723760958e-16 0.50000000000000022
1 0.16018224300696826 0.012912542362505483 -0.16018224300696549 0.98708745763749706 
1 2.55351295663786e-15 0.1622776601683813 1 5.5511151231257827e-17 
1 0.5 6.9388939039072284e-16 0 1 
1 -0.25 0 0 1 
1 4.4408920985006262e-16 8.1803398874989508 1 0 
1 -0.94868329805052076 0.68377223398315579 0.94868329805051366 0.31622776601683844 
8 5.0341395347813318 7.5322310795778407
1 0 -0.25 1 0 
2 -3.3306690738754696e-16 0.99999999999999933 1.6098233857064766e-15 -1 1 1.6098233857064766e-15 0.499999999999999
1 0.94868329805051355 0.68377223398316134 -0.94868329805051388 0.3162277660168375 
1 3.1086244689504383e-15 2.9999999999999991 1 1.1102230246251563e-16 
1 0.49999999999999845 -4.9960036108132044e-16 0 1 
1 -0.24999999999999997 -0 -0 1 
1 -8.8817841970012523e-16 11.180339887498951 1 0 
8 -0.25 0.25
1 5.8904862254808616 0 -0 -1 
1 0 9.5857864376269042 1 0 
1 6.6758843888783108 0 0 1 
1 0 0.41421356237309476 -1 0 
8 -0.25 0.25
1 6.1223100299812652 0 0 1 
1 0 6.9087901516970973 1 0 
1 6.4440605843779073 0 0 1 
1 0 0.16227766016837852 1 0 
8 -0.25 0.25
1 5.0341395347813318 0 0 1 
1 0 8.1803398874989508 1 0 
1 7.5322310795778407 0 0 1 
1 -0 3 1 0 
1 -0 11.180339887498949 1 0 
Curves 60
1 0 0 -0.25 0 1 0 
1 0 0 0.25 0 -1 0 
1 0 0.5 0 0 0 1 
1 0 -0.5 0 0 0 -1 
1 0 -0.5 -0.25 1 -0 0 
1 0 0.5 -0.25 1 -0 0 
1 9.5857864376269042 0 -0.25 0 1 0 
2 9.5857864376269042 0.99999999999999989 -0.25 -0 0 1 0.38268343236509028 -0.92387953251128663 0 0.92387953251128663 0.38268343236509028 0 1.5
2 9.5857864376269042 0.99999999999999989 -0.25 -0 0 1 0.38268343236508823 -0.9238795325112874 0 0.9238795325112874 0.38268343236508823 0 0.4999999999999995
1 10.292893218813452 0.29289321881345209 -0.25 -0.70710678118654813 0.70710678118654702 0 
1 10.353553390593275 -0.35355339059327345 -0.25 0.70710678118654691 0.70710678118654824 0 
1 9.6464466094067252 0.35355339059327345 -0.25 0.70710678118654691 0.70710678118654824 0 
1 14.885252366059849 4.8852523660598575 -0.25 -0.70710678118654824 0.70710678118654691 0 
2 15.5923591472464 4.1781455848733051 -0.25 0 0 -1 -0.58471028466376374 0.81124218517556168 0 0.81124218517556168 0.58471028466376374 0 0.50000000000000022
2 15.5923591472464 4.1781455848733051 -0.25 0 0 -1 -0.58471028466376429 0.81124218517556135 0 0.81124218517556135 0.58471028466376429 0 1.4999999999999991
1 15.145145551746445 5.07257277587322 -0.25 -0.44721359549995893 0.89442719099991541 0 
1 15.22360679774998 4.5527864045000426 -0.25 0.89442719099991541 0.44721359549995887 0 
1 14.77639320225002 5.4472135954999574 -0.25 0.89442719099991541 0.44721359549995887 0 
1 22.31671842700025 8.6583592135001339 -0.25 -0.44721359549995887 0.89442719099991541 0 
2 22.76393202250021 7.7639320225002102 -0.24999999999999997 0 0 -1 0.70710678118654757 0.70710678118654757 0 0.70710678118654757 -0.70710678118654757 0 0.499999999999999
2 22.76393202250021 7.7639320225002102 -0.24999999999999997 0 0 -1 0.70710678118654635 0.70710678118654868 0 0.70710678118654868 -0.70710678118654635 0 1.4999999999999996
1 23.658359213500127 7.3167184270002537 -0.24999999999999997 0.89442719099991652 -0.44721359549995698 0 
1 24.552786404500043 10.223606797749978 -0.24999999999999997 -0.44721359549995704 -0.89442719099991641 0 
1 25.447213595499957 9.7763932022500217 -0.24999999999999997 -0.44721359549995704 -0.89442719099991641 0 
1 20.000000000000011 -7.1054273576010019e-15 -0.24999999999999997 0.89442719099991641 -0.44721359549995704 0 
1 0 0.5 0.25 1 -0 0 
1 9.5857864376269042 0.5 0 0 0 1 
2 9.5857864376269042 0.99999999999999989 0.25 -0 0 1 0.38268343236508823 -0.9238795325112874 0 0.9238795325112874 0.38268343236508823 0 0.4999999999999995
1 9.9393398282201773 0.64644660940672594 0 -0 0 1 
1 9.6464466094067252 0.35355339059327345 0.25 0.70710678118654779 0.70710678118654746 -0 
1 14.531698975466579 5.2388057566531252 0 0 0 1 
2 15.5923591472464 4.1781455848733051 0.25 0 0 -1 -0.58471028466376429 0.81124218517556135 0 0.81124218517556135 0.58471028466376429 0 1.4999999999999991
1 14.921538753996463 5.5197863713731783 0 0 0 -1 
1 14.77639320225002 5.4472135954999574 0.25 0.89442719099991597 0.44721359549995798 -0 
1 22.093111629250274 9.1055728090000851 0 0 0 1 
2 22.76393202250021 7.7639320225002102 0.25 0 0 -1 0.70710678118654635 0.70710678118654868 0 0.70710678118654868 -0.70710678118654635 0 1.4999999999999996
1 24.105572809000083 7.0931116292502763 0 0 0 -1 
1 25.447213595499957 9.7763932022500217 0.25 -0.44721359549995654 -0.89442719099991663 0 
1 20.447213595499971 -0.22360679774998715 0 0 0 1 
1 0 -0.5 0.25 1 0 0 
1 9.5857864376269042 0 0.25 0 -1 0 
2 9.5857864376269042 0.99999999999999989 0.25 -0 0 1 0.38268343236509028 -0.92387953251128663 0 0.92387953251128663 0.38268343236509028 0 1.5
1 10.292893218813452 0.29289321881345209 0.25 0.70710678118654813 -0.70710678118654702 0 
1 10.353553390593275 -0.35355339059327345 0.25 0.70710678118654691 0.70710678118654824 0 
1 14.885252366059849 4.8852523660598575 0.25 0.70710678118654824 -0.70710678118654691 0 
2 15.5923591472464 4.1781455848733051 0.25 0 0 -1 -0.58471028466376374 0.81124218517556168 0 0.81124218517556168 0.58471028466376374 0 0.50000000000000022
1 15.145145551746445 5.07257277587322 0.25 0.44721359549995893 -0.89442719099991541 0 
1 15.22360679774998 4.5527864045000426 0.25 0.89442719099991541 0.44721359549995887 0 
1 22.31671842700025 8.6583592135001339 0.25 0.44721359549995887 -0.89442719099991541 0 
2 22.76393202250021 7.7639320225002102 0.24999999999999997 0 0 -1 0.70710678118654757 0.70710678118654757 0 0.70710678118654757 -0.70710678118654757 0 0.499999999999999
1 23.658359213500127 7.3167184270002537 0.24999999999999997 -0.89442719099991652 0.44721359549995698 0 
1 24.552786404500043 10.223606797749978 0.24999999999999997 -0.44721359549995704 -0.89442719099991641 0 
1 20.000000000000011 -7.1054273576010019e-15 0.24999999999999997 -0.89442719099991641 0.44721359549995704 0 
1 9.5857864376269042 -0.5 0 0 0 -1 
1 10.646446609406727 -0.060660171779820637 0 -0 0 1 
1 15.238805756653129 4.5316989754665791 0 -0 0 -1 
1 15.368752349496422 4.6253591803732634 0 0 0 -1 
1 22.540325224750234 8.2111456180001703 0 -0 0 -1 
1 23.211145618000167 7.5403252247502319 0 0 0 -1 
1 19.552786404500058 0.22360679774996939 0 0 0 -1 
Polygon3D 0
PolygonOnTriangulations 0
Surfaces 30
1 0 0 0 1 0 0 0 0 1 0 -1 0 
1 0 0 -0.25 0 0 -1 0 1 0 1 -0 0 
1 0 0 0.25 -0 0 1 0 -1 0 1 0 0 
1 0 0.5 0 0 1 -0 0 0 1 1 -0 0 
1 0 -0.5 0 0 -1 0 0 0 -1 1 0 0 
1 9.9684698699919938 0.076120467488713262 -0.25 -0 0 1 0.92387953251128696 0.3826834323650895 0 -0.3826834323650895 0.92387953251128696 -0 
10 5.8904862254808616 6.6758843888783108 -0.25 0.25
2 9.5857864376269042 0.99999999999999989 0 -0 0 1 0.38268343236509028 -0.92387953251128663 0 0.92387953251128663 0.38268343236509028 0 1.5
10 5.8904862254808616 6.6758843888783108 -0.25 0.25
2 9.5857864376269042 0.99999999999999989 0 -0 0 1 0.38268343236508823 -0.9238795325112874 0 0.9238795325112874 0.38268343236508823 0 0.4999999999999995
1 10 0 -0.25 0 0 -1 -0.70710678118654824 0.70710678118654691 0 0.70710678118654691 0.70710678118654824 0 
1 10.353553390593275 -0.35355339059327345 0 0.70710678118654746 -0.70710678118654779 -0 -0 0 -1 0.70710678118654779 0.70710678118654746 0 
1 9.6464466094067252 0.35355339059327345 0 -0.70710678118654746 0.70710678118654779 0 0 0 1 0.70710678118654779 0.70710678118654746 -0 
1 15.007648862582636 4.9893877700488662 -0.25 -0 -0 1 0.81124218517556124 0.5847102846637644 0 -0.5847102846637644 0.81124218517556124 0 
10 6.1223100299812652 6.4440605843779073 -0.25 0.25
2 15.5923591472464 4.1781455848733051 0 0 0 -1 -0.58471028466376374 0.81124218517556168 0 0.81124218517556168 0.58471028466376374 0 0.50000000000000022
10 6.1223100299812652 6.4440605843779073 -0.25 0.25
2 15.5923591472464 4.1781455848733051 0 0 0 -1 -0.58471028466376429 0.81124218517556135 0 0.81124218517556135 0.58471028466376429 0 1.4999999999999991
1 15 5 -0.25 0 0 -1 -0.44721359549995887 0.89442719099991541 0 0.89442719099991541 0.44721359549995887 0 
1 15.22360679774998 4.5527864045000426 0 0.44721359549995798 -0.89442719099991597 -0 -0 0 -1 0.89442719099991597 0.44721359549995798 0 
1 14.77639320225002 5.4472135954999574 0 -0.44721359549995798 0.89442719099991597 0 0 0 1 0.89442719099991597 0.44721359549995798 -0 
1 23.471038803686756 8.4710388036867581 -0.24999999999999997 -0 -0 1 0.70710678118654868 -0.70710678118654646 0 0.70710678118654646 0.70710678118654868 0 
10 5.0341395347813318 7.5322310795778407 -0.25 0.25
2 22.76393202250021 7.7639320225002102 0 0 0 -1 0.70710678118654757 0.70710678118654757 0 0.70710678118654757 -0.70710678118654757 0 0.499999999999999
10 5.0341395347813318 7.5322310795778407 -0.25 0.25
2 22.76393202250021 7.7639320225002102 0 0 0 -1 0.70710678118654635 0.70710678118654868 0 0.70710678118654868 -0.70710678118654635 0 1.4999999999999996
1 25 10 -0.24999999999999997 0 -0 -1 0.89442719099991641 -0.44721359549995704 0 -0.44721359549995704 -0.89442719099991641 0 
1 24.552786404500043 10.223606797749978 0 -0.89442719099991663 0.44721359549995654 0 0 0 -1 -0.44721359549995654 -0.89442719099991663 -0 
1 25.447213595499957 9.7763932022500217 0 0.89442719099991663 -0.44721359549995654 0 0 0 1 -0.44721359549995654 -0.89442719099991663 0 
1 9.9684698699919938 0.076120467488713262 0.25 0 -0 -1 0.92387953251128696 0.3826834323650895 0 0.3826834323650895 -0.92387953251128696 0 
1 10 0 0.25 -0 0 1 0.70710678118654824 -0.70710678118654691 0 0.70710678118654691 0.70710678118654824 0 
1 15.007648862582636 4.9893877700488662 0.25 0 0 -1 0.81124218517556124 0.5847102846637644 0 0.5847102846637644 -0.81124218517556124 0 
1 15 5 0.25 -0 0 1 0.44721359549995887 -0.89442719099991541 0 0.89442719099991541 0.44721359549995887 0 
1 23.471038803686756 8.4710388036867581 0.24999999999999997 0 0 -1 0.70710678118654868 -0.70710678118654646 0 -0.70710678118654646 -0.70710678118654868 -0 
1 25 10 0.24999999999999997 0 0 1 -0.89442719099991641 0.44721359549995704 0 -0.44721359549995704 -0.89442719099991641 0 
1 20 -1.7763568394002505e-15 0 -0.44721359549995704 -0.89442719099991641 0 0 0 1 -0.89442719099991641 0.44721359549995704 0 
Triangulations 0

TShapes 154
Ve
1.01e-07
0 -0.5 -0.25
0 0

0101101
*
Ve
1.01e-07
0 0.5 -0.25
0 0

0101101
*
Ed
 1.00005e-07 1 1 0
1  1 0 -0.5 0.5
2  1 2 0 -0.5 0.5
0

0101000
+154 0 -153 0 *
Ve
1.01e-07
0 0.5 0.25
0 0

0101101
*
Ve
1.01e-07
0 -0.5 0.25
0 0

0101101
*
Ed
 1.00005e-07 1 1 0
1  2 0 -0.5 0.5
2  2 3 0 -0.5 0.5
0

0101000
+151 0 -150 0 *
Ed
 1.00005e-07 1 1 0
1  3 0 -0.25 0.25
2  3 4 0 -0.25 0.25
0

0101000
-151 0 +153 0 *
Ed
 1.00005e-07 1 1 0
1  4 0 -0.25 0.25
2  4 5 0 -0.25 0.25
0

0101000
-154 0 +150 0 *
Wi

0101100
+152 0 +149 0 +148 0 +147 0 *
Fa
0  1e-07 1 0

0101000
+146 0 *
Ve
1.01e-07
9.5857864376269 -0.5 -0.25
0 0

0101101
*
Ed
 1e-07 1 1 0
1  5 0 0 9.5857864376269
2  5 2 0 0 9.5857864376269
2  6 5 0 0 9.5857864376269
0

0101000
+154 0 -144 0 *
Ve
1.01e-07
9.5857864376269 0.5 -0.25
0 0

0101101
*
Ed
 1e-07 1 1 0
1  6 0 0 9.5857864376269
2  7 2 0 0 9.5857864376269
2  8 4 0 0 9.5857864376269
0

0101000
+153 0 -142 0 *
Ed
 1e-07 1 1 0
1  7 0 -0.5 0.5
2  9 2 0 -0.5 0.5
2  10 6 0 -0.5 0.5
4 C1 6 0 2 0
0

0101000
+144 0 -142 0 *
Wi

0101100
-143 0 +152 0 +141 0 -140 0 *
Fa
0  1e-07 2 0

0101000
+139 0 *
Ve
1.01e-07
10.6464466094067 -0.0606601717798207 -0.25
0 0

0101101
*
Ed
 1e-07 1 1 0
1  8 0 5.89048622548086 6.67588438887831
2  11 7 0 5.89048622548086 6.67588438887831
2  12 6 0 5.89048622548086 6.67588438887831
0

0101000
+144 0 -137 0 *
Ve
1.01e-07
9.93933982822018 0.646446609406726 -0.25
0 0

0101101
*
Ed
 1e-07 1 1 0
1  9 0 5.89048622548086 6.67588438887831
2  13 8 0 5.89048622548086 6.67588438887831
2  14 6 0 5.89048622548086 6.67588438887831
0

0101000
+142 0 -135 0 *
Ed
 1e-07 1 1 0
1  10 0 -0.5 0.5
2  15 6 0 -0.5 0.5
2  16 9 0 -0.5 0.5
4 C1 9 0 6 0
0

0101000
+137 0 -135 0 *
Wi

0101100
+136 0 -140 0 -134 0 +133 0 *
Fa
0  1e-07 6 0

0101000
+132 0 *
Ve
1.01e-07
15.2388057566531 4.53169897546658 -0.25
0 0

0101101
*
Ed
 1e-07 1 1 0
1  11 0 0.414213562373095 6.9087901516971
2  17 9 0 0.414213562373095 6.9087901516971
2  18 10 0 0.414213562373095 6.9087901516971
0

0101000
+137 0 -130 0 *
Ve
1.01e-07
14.5316989754666 5.23880575665313 -0.25
0 0

0101101
*
Ed
 1e-07 1 1 0
1  12 0 0.414213562373095 6.9087901516971
2  19 9 0 0.414213562373095 6.9087901516971
2  20 11 0 0.414213562373095 6.9087901516971
0

0101000
+135 0 -128 0 *
Ed
 1e-07 1 1 0
1  13 0 -0.5 0.5
2  21 9 0 -0.5 0.5
2  22 12 0 -0.5 0.5
4 C1 12 0 9 0
0

0101000
+130 0 -128 0 *
Wi

0101100
-129 0 +133 0 +127 0 -126 0 *
Fa
0  1e-07 9 0

0101000
+125 0 *
Ve
1.01e-07
15.3687523494964 4.62535918037326 -0.25
0 0

0101101
*
Ed
 1e-07 1 1 0
1  14 0 6.12231002998127 6.44406058437791
2  23 13 0 6.12231002998127 6.44406058437791
2  24 12 0 6.12231002998127 6.44406058437791
0

0101000
+130 0 -123 0 *
Ve
1.01e-07
14.9215387539965 5.51978637137318 -0.25
0 0

0101101
*
Ed
 1e-07 1 1 0
1  15 0 6.12231002998127 6.44406058437791
2  25 14 0 6.12231002998127 6.44406058437791
2  26 12 0 6.12231002998127 6.44406058437791
0

0101000
+128 0 -121 0 *
Ed
 1e-07 1 1 0
1  16 0 -0.5 0.5
2  27 12 0 -0.5 0.5
2  28 15 0 -0.5 0.5
4 C1 15 0 12 0
0

0101000
+123 0 -121 0 *
Wi

0101100
+122 0 -126 0 -120 0 +119 0 *
Fa
0  1e-07 12 0

0101000
+118 0 *
Ve
1.01e-07
22.5403252247502 8.21114561800017 -0.25
0 0

0101101
*
Ed
 1e-07 1 1 0
1  17 0 0.162277660168379 8.18033988749895
2  29 15 0 0.162277660168379 8.18033988749895
2  30 16 0 0.162277660168379 8.18033988749895
0

0101000
+123 0 -116 0 *
Ve
1.01e-07
22.0931116292503 9.10557280900009 -0.25
0 0

0101101
*
Ed
 1e-07 1 1 0
1  18 0 0.162277660168379 8.18033988749895
2  31 15 0 0.162277660168379 8.18033988749895
2  32 17 0 0.162277660168379 8.18033988749895
0

0101000
+121 0 -114 0 *
Ed
 1e-07 1 1 0
1  19 0 -0.5 0.5
2  33 15 0 -0.5 0.5
2  34 18 0 -0.5 0.5
4 C1 18 0 15 0
0

0101000
+116 0 -114 0 *
Wi

0101100
-115 0 +119 0 +113 0 -112 0 *
Fa
0  1e-07 15 0

0101000
+111 0 *
Ve
1.01e-07
23.2111456180002 7.54032522475023 -0.25
0 0

0101101
*
Ed
 1e-07 1 1 0
1  20 0 5.03413953478133 7.53223107957784
2  35 19 0 5.03413953478133 7.53223107957784
2  36 18 0 5.03413953478133 7.53223107957784
0

0101000
+116 0 -109 0 *
Ve
1.01e-07
24.1055728090001 7.09311162925027 -0.25
0 0

0101101
*
Ed
 1e-07 1 1 0
1  21 0 5.03413953478133 7.53223107957784
2  37 20 0 5.03413953478133 7.53223107957784
2  38 18 0 5.03413953478133 7.53223107957784
0

0101000
+114 0 -107 0 *
Ed
 1e-07 1 1 0
1  22 0 -0.5 0.5
2  39 18 0 -0.5 0.5
2  40 21 0 -0.5 0.5
4 C1 21 0 18 0
0

0101000
+109 0 -107 0 *
Wi

0101100
+108 0 -112 0 -106 0 +105 0 *
Fa
0  1e-07 18 0

0101000
+104 0 *
Ve
1.01e-07
19.5527864045001 0.223606797749969 -0.25
0 0

0101101
*
Ed
 1e-07 1 1 0
1  23 0 3 11.1803398874989
2  41 21 0 3 11.1803398874989
2  42 22 0 3 11.1803398874989
0

0101000
+109 0 -102 0 *
Ve
1.01e-07
20.4472135955 -0.223606797749987 -0.25
0 0

0101101
*
Ed
 1e-07 1 1 0
1  24 0 3 11.1803398874989
2  43 21 0 3 11.1803398874989
2  44 23 0 3 11.1803398874989
0

0101000
+107 0 -100 0 *
Ed
 1.00005e-07 1 1 0
1  25 0 -0.5 0.5
2  45 21 0 -0.5 0.5
0

0101000
+102 0 -100 0 *
Wi

0101100
-101 0 +105 0 +99 0 -98 0 *
Fa
0  1e-07 21 0

0101000
+97 0 *
Ve
1.01e-07
9.5857864376269 0.5 0.25
0 0

0101101
*
Ed
 1e-07 1 1 0
1  26 0 0 9.5857864376269
2  46 4 0 0 9.5857864376269
2  47 3 0 0 9.5857864376269
0

0101000
+151 0 -95 0 *
Ed
 1e-07 1 1 0
1  27 0 -0.25 0.25
2  48 8 0 -0.25 0.25
2  49 4 0 -0.25 0.25
4 G1 8 0 4 0
0

0101000
+142 0 -95 0 *
Wi

0101100
-141 0 +148 0 +94 0 -93 0 *
Fa
0  1e-07 4 0

0101000
+92 0 *
Ve
1.01e-07
9.93933982822018 0.646446609406726 0.25
0 0

0101101
*
Ed
 1e-07 1 1 0
1  28 0 5.89048622548086 6.67588438887831
2  50 8 0 5.89048622548086 6.67588438887831
2  51 24 0 5.89048622548086 6.67588438887831
0

0101000
+95 0 -90 0 *
Ed
 1e-07 1 1 0
1  29 0 -0.25 0.25
2  52 8 0 -0.25 0.25
2  53 11 0 -0.25 0.25
4 G1 11 0 8 0
0

0101000
+135 0 -90 0 *
Wi

0101100
+134 0 -93 0 -89 0 +88 0 *
Fa
0  1e-07 8 0

0101000
+87 0 *
Ve
1.01e-07
14.5316989754666 5.23880575665313 0.25
0 0

0101101
*
Ed
 1e-07 1 1 0
1  30 0 0.414213562373095 6.9087901516971
2  54 11 0 0.414213562373095 6.9087901516971
2  55 25 0 0.414213562373095 6.9087901516971
0

0101000
+90 0 -85 0 *
Ed
 1e-07 1 1 0
1  31 0 -0.25 0.25
2  56 14 0 -0.25 0.25
2  57 11 0 -0.25 0.25
4 G1 14 0 11 0
0

0101000
+128 0 -85 0 *
Wi

0101100
-127 0 +88 0 +84 0 -83 0 *
Fa
0  1e-07 11 0

0101000
+82 0 *
Ve
1.01e-07
14.9215387539965 5.51978637137318 0.25
0 0

0101101
*
Ed
 1e-07 1 1 0
1  32 0 6.12231002998127 6.44406058437791
2  58 14 0 6.12231002998127 6.44406058437791
2  59 26 0 6.12231002998127 6.44406058437791
0

0101000
+85 0 -80 0 *
Ed
 1e-07 1 1 0
1  33 0 -0.25 0.25
2  60 14 0 -0.25 0.25
2  61 17 0 -0.25 0.25
4 G1 17 0 14 0
0

0101000
+80 0 -121 0 *
Wi

0101100
-120 0 +83 0 +79 0 +78 0 *
Fa
0  1e-07 14 0

0101000
+77 0 *
Ve
1.01e-07
22.0931116292503 9.10557280900009 0.25
0 0

0101101
*
Ed
 1e-07 1 1 0
1  34 0 0.162277660168379 8.18033988749895
2  62 17 0 0.162277660168379 8.18033988749895
2  63 27 0 0.162277660168379 8.18033988749895
0

0101000
+80 0 -75 0 *
Ed
 1e-07 1 1 0
1  35 0 -0.25 0.25
2  64 20 0 -0.25 0.25
2  65 17 0 -0.25 0.25
4 G1 20 0 17 0
0

0101000
+114 0 -75 0 *
Wi

0101100
-113 0 -78 0 +74 0 -73 0 *
Fa
0  1e-07 17 0

0101000
+72 0 *
Ve
1.01e-07
24.1055728090001 7.09311162925027 0.25
0 0

0101101
*
Ed
 1e-07 1 1 0
1  36 0 5.03413953478133 7.53223107957784
2  66 20 0 5.03413953478133 7.53223107957784
2  67 28 0 5.03413953478133 7.53223107957784
0

0101000
+75 0 -70 0 *
Ed
 1e-07 1 1 0
1  37 0 -0.25 0.25
2  68 20 0 -0.25 0.25
2  69 23 0 -0.25 0.25
4 G1 23 0 20 0
0

0101000
+70 0 -107 0 *
Wi

0101100
-106 0 +73 0 +69 0 +68 0 *
Fa
0  1e-07 20 0

0101000
+67 0 *
Ve
1.01e-07
20.4472135955 -0.223606797749985 0.25
0 0

0101101
*
Ed
 1e-07 1 1 0
1  38 0 3 11.1803398874989
2  70 23 0 3 11.1803398874989
2  71 29 0 3 11.1803398874989
0

0101000
+70 0 -65 0 *
Ed
 1.00005e-07 1 1 0
1  39 0 -0.25 0.25
2  72 23 0 -0.25 0.25
0

0101000
-65 0 +100 0 *
Wi

0101100
-99 0 -68 0 +64 0 -63 0 *
Fa
0  1e-07 23 0

0101000
+62 0 *
Ve
1.01e-07
9.5857864376269 -0.5 0.25
0 0

0101101
*
Ed
 1e-07 1 1 0
1  40 0 0 9.5857864376269
2  73 3 0 0 9.5857864376269
2  74 5 0 0 9.5857864376269
0

0101000
+150 0 -60 0 *
Ed
 1e-07 1 1 0
1  41 0 -0.5 0.5
2  75 3 0 -0.5 0.5
2  76 24 0 -0.5 0.5
4 C1 24 0 3 0
0

0101000
+95 0 -60 0 *
Wi

0101100
-94 0 +149 0 +59 0 -58 0 *
Fa
0  1e-07 3 0

0101000
+57 0 *
Ve
1.01e-07
10.6464466094067 -0.0606601717798207 0.25
0 0

0101101
*
Ed
 1e-07 1 1 0
1  42 0 5.89048622548086 6.67588438887831
2  77 7 0 5.89048622548086 6.67588438887831
2  78 24 0 5.89048622548086 6.67588438887831
0

0101000
+60 0 -55 0 *
Ed
 1e-07 1 1 0
1  43 0 -0.5 0.5
2  79 24 0 -0.5 0.5
2  80 25 0 -0.5 0.5
4 C1 25 0 24 0
0

0101000
+90 0 -55 0 *
Wi

0101100
+89 0 -58 0 -54 0 +53 0 *
Fa
0  1e-07 24 0

0101000
+52 0 *
Ve
1.01e-07
15.2388057566531 4.53169897546658 0.25
0 0

0101101
*
Ed
 1e-07 1 1 0
1  44 0 0.414213562373095 6.9087901516971
2  81 25 0 0.414213562373095 6.9087901516971
2  82 10 0 0.414213562373095 6.9087901516971
0

0101000
+55 0 -50 0 *
Ed
 1e-07 1 1 0
1  45 0 -0.5 0.5
2  83 25 0 -0.5 0.5
2  84 26 0 -0.5 0.5
4 C1 26 0 25 0
0

0101000
+85 0 -50 0 *
Wi

0101100
-84 0 +53 0 +49 0 -48 0 *
Fa
0  1e-07 25 0

0101000
+47 0 *
Ve
1.01e-07
15.3687523494964 4.62535918037326 0.25
0 0

0101101
*
Ed
 1e-07 1 1 0
1  46 0 6.12231002998127 6.44406058437791
2  85 13 0 6.12231002998127 6.44406058437791
2  86 26 0 6.12231002998127 6.44406058437791
0

0101000
+50 0 -45 0 *
Ed
 1e-07 1 1 0
1  47 0 -0.5 0.5
2  87 26 0 -0.5 0.5
2  88 27 0 -0.5 0.5
4 C1 27 0 26 0
0

0101000
+80 0 -45 0 *
Wi

0101100
+79 0 -48 0 -44 0 +43 0 *
Fa
0  1e-07 26 0

0101000
+42 0 *
Ve
1.01e-07
22.5403252247502 8.21114561800017 0.25
0 0

0101101
*
Ed
 1e-07 1 1 0
1  48 0 0.162277660168379 8.18033988749895
2  89 27 0 0.162277660168379 8.18033988749895
2  90 16 0 0.162277660168379 8.18033988749895
0

0101000
+45 0 -40 0 *
Ed
 1e-07 1 1 0
1  49 0 -0.5 0.5
2  91 27 0 -0.5 0.5
2  92 28 0 -0.5 0.5
4 C1 28 0 27 0
0

0101000
+75 0 -40 0 *
Wi

0101100
-74 0 +43 0 +39 0 -38 0 *
Fa
0  1e-07 27 0

0101000
+37 0 *
Ve
1.01e-07
23.2111456180002 7.54032522475023 0.25
0 0

0101101
*
Ed
 1e-07 1 1 0
1  50 0 5.03413953478133 7.53223107957784
2  93 19 0 5.03413953478133 7.53223107957784
2  94 28 0 5.03413953478133 7.53223107957784
0

0101000
+40 0 -35 0 *
Ed
 1e-07 1 1 0
1  51 0 -0.5 0.5
2  95 28 0 -0.5 0.5
2  96 29 0 -0.5 0.5
4 C1 29 0 28 0
0

0101000
+70 0 -35 0 *
Wi

0101100
+69 0 -38 0 -34 0 +33 0 *
Fa
0  1e-07 28 0

0101000
+32 0 *
Ve
1.01e-07
19.5527864045001 0.223606797749969 0.25
0 0

0101101
*
Ed
 1e-07 1 1 0
1  52 0 3 11.1803398874989
2  97 29 0 3 11.1803398874989
2  98 22 0 3 11.1803398874989
0

0101000
+35 0 -30 0 *
Ed
 1.00005e-07 1 1 0
1  53 0 -0.5 0.5
2  99 29 0 -0.5 0.5
0

0101000
+65 0 -30 0 *
Wi

0101100
-64 0 +33 0 +29 0 -28 0 *
Fa
0  1e-07 29 0

0101000
+27 0 *
Ed
 1e-07 1 1 0
1  54 0 -0.25 0.25
2  100 7 0 -0.25 0.25
2  101 5 0 -0.25 0.25
4 G1 7 0 5 0
0

0101000
+60 0 -144 0 *
Wi

0101100
-59 0 +147 0 +143 0 -25 0 *
Fa
0  1e-07 5 0

0101000
+24 0 *
Ed
 1e-07 1 1 0
1  55 0 -0.25 0.25
2  102 7 0 -0.25 0.25
2  103 10 0 -0.25 0.25
4 G1 10 0 7 0
0

0101000
+137 0 -55 0 *
Wi

0101100
-54 0 +25 0 +136 0 +22 0 *
Fa
0  1e-07 7 0

0101000
+21 0 *
Ed
 1e-07 1 1 0
1  56 0 -0.25 0.25
2  104 13 0 -0.25 0.25
2  105 10 0 -0.25 0.25
4 G1 13 0 10 0
0

0101000
+50 0 -130 0 *
Wi

0101100
-49 0 -22 0 +129 0 -19 0 *
Fa
0  1e-07 10 0

0101000
+18 0 *
Ed
 1e-07 1 1 0
1  57 0 -0.25 0.25
2  106 13 0 -0.25 0.25
2  107 16 0 -0.25 0.25
4 G1 16 0 13 0
0

0101000
+45 0 -123 0 *
Wi

0101100
+44 0 -19 0 -122 0 +16 0 *
Fa
0  1e-07 13 0

0101000
+15 0 *
Ed
 1e-07 1 1 0
1  58 0 -0.25 0.25
2  108 19 0 -0.25 0.25
2  109 16 0 -0.25 0.25
4 G1 19 0 16 0
0

0101000
+40 0 -116 0 *
Wi

0101100
-39 0 +16 0 +115 0 -13 0 *
Fa
0  1e-07 16 0

0101000
+12 0 *
Ed
 1e-07 1 1 0
1  59 0 -0.25 0.25
2  110 19 0 -0.25 0.25
2  111 22 0 -0.25 0.25
4 G1 22 0 19 0
0

0101000
+35 0 -109 0 *
Wi

0101100
+34 0 -13 0 -108 0 +10 0 *
Fa
0  1e-07 19 0

0101000
+9 0 *
Ed
 1.00005e-07 1 1 0
1  60 0 -0.25 0.25
2  112 22 0 -0.25 0.25
0

0101000
-102 0 +30 0 *
Wi

0101100
-29 0 +10 0 +101 0 -7 0 *
Fa
0  1e-07 22 0

0101000
+6 0 *
Wi

0101100
+98 0 +28 0 +63 0 +7 0 *
Fa
0  1e-07 30 0

0101000
+4 0 *
Sh

0101100
-145 0 +138 0 -131 0 +124 0 -117 0 +110 0 -103 0 +96 0 +91 0 -86 0 
+81 0 +76 0 +71 0 +66 0 +61 0 +56 0 -51 0 +46 0 -41 0 +36 0 
-31 0 +26 0 +23 0 +20 0 +17 0 -14 0 +11 0 -8 0 +5 0 +3 0 
*
So

1100000
+2 0 *

+1 1  