
CASCADE Topology V1, (c) Matra-Datavision
Locations 1
1
              1               0               0               0 
              0               1               0               0 
              0               0               1               0 
Curve2ds 28
1 0 0 1 0 
8 0 9.3786796564403581
1 6.2831853071795862 0 0 1 
1 0 0 0 1 
1 0 9.3786796564403581 1 0 
8 0 6.2831853071795862
1 5.8904862254808616 0 0 1 
1 0 0 1 0 
8 5.8904862254808616 6.6758843888783108
1 0 6.2831853071795862 1 0 
1 6.6758843888783108 0 0 1 
8 0 6.2831853071795862
1 0 0.62132034355964261 1 0 
8 0.62132034355964261 6.8276513216129064
1 6.2831853071795862 0 0 1 
1 0 0 0 1 
1 0 6.8276513216129064 1 0 
8 0 6.2831853071795862
1 6.1223100299812652 0 0 1 
1 0 0 1 0 
8 6.1223100299812652 6.4440605843779073
1 0 6.2831853071795862 1 0 
1 6.4440605843779073 0 0 1 
8 0 6.2831853071795862
1 0 0.24341649025256978 1 0 
8 0.24341649025256978 6.6803398874989472
1 6.2831853071795862 0 0 1 
1 0 0 0 1 
1 0 6.6803398874989472 1 0 
8 0 6.2831853071795862
1 5.0341395347813318 0 0 1 
1 0 0 1 0 
8 5.0341395347813318 7.5322310795778407
1 0 6.2831853071795862 1 0 
1 7.5322310795778407 0 0 1 
8 0 6.2831853071795862
1 0 4.5000000000000018 1 0 
8 4.5000000000000018 11.180339887498949
1 6.2831853071795862 0 0 1 
1 0 0 0 1 
1 0 11.180339887498949 1 0 
Curves 15
3 0 0 0 1 0 -0 0 0 1 0 -1 0 0.75 0.5
1 0 0 0.75 1 0 0 
3 9.3786796564403581 0 0 1 0 -0 0 0 1 0 -1 0 0.75 0.5
2 9.3786796564403581 1.4999999999999998 0.75 -0 0 1 0.38268343236508912 -0.92387953251128707 0 0.92387953251128707 0.38268343236508912 0 1.4999999999999998
3 10.439339828220179 0.43933982822017814 0 0.70710678118654702 0.70710678118654802 -0 0 0 1 0.70710678118654802 -0.70710678118654702 0 0.75 0.5
1 10 0 0.74999999999999989 0.70710678118654779 0.70710678118654746 0 
3 14.827878549089782 4.8278785490897791 0 0.70710678118654702 0.70710678118654813 -0 0 0 1 0.70710678118654813 -0.70710678118654702 0 0.74999999999999989 0.49999999999999994
2 15.888538720869601 3.7672183773099581 0.74999999999999989 0 0 -1 -0.58471028466376518 0.81124218517556079 0 0.81124218517556079 0.58471028466376518 0 1.5000000000000002
3 15.217718327619664 5.1088591638098322 0 0.89442719099991563 0.44721359549995865 -0 0 0 1 0.44721359549995865 -0.89442719099991563 0 0.74999999999999989 0.49999999999999994
1 15 5 0.75 0.89442719099991597 0.44721359549995798 0 
3 20.975077640500377 7.9875388202501885 0 0.89442719099991552 0.44721359549995859 -0 0 0 1 0.44721359549995859 -0.89442719099991552 0 0.75 0.5
2 21.645898033750314 6.6458980337503153 0.75000000000000022 0 0 -1 0.70710678118654813 0.70710678118654691 0 0.70710678118654691 -0.70710678118654813 0 1.5000000000000009
3 22.987538820250187 5.9750776405003805 0 -0.44721359549995732 -0.8944271909999163 0 0 0 1 -0.8944271909999163 0.44721359549995732 0 0.75000000000000022 0.50000000000000011
1 25 10 0.75 -0.44721359549995654 -0.89442719099991663 0 
3 20.000000000000014 -8.8817841970012523e-15 0 -0.44721359549995732 -0.8944271909999163 0 0 0 1 -0.8944271909999163 0.44721359549995732 0 0.75 0.5
Polygon3D 0
PolygonOnTriangulations 0
Surfaces 9
1 0 0 0 1 0 0 0 0 1 0 -1 0 
10 0 6.2831853071795862 0 9.3786796564403581
6 1 0 0 
3 0 0 0 1 0 -0 0 0 1 0 -1 0 0.75 0.5
10 5.8904862254808616 6.6758843888783108 0 6.2831853071795862
7 9.3786796564403581 1.4999999999999998 0 -0 0 1 
3 9.9527048049879916 0.11418070123306956 0 0.92387953251128663 0.38268343236509034 -0 0 0 1 0.38268343236509034 -0.92387953251128663 0 0.75 0.5
10 0 6.2831853071795862 0.62132034355964261 6.8276513216129064
6 0.70710678118654779 0.70710678118654746 0 
3 10 0 0 0.70710678118654702 0.70710678118654813 -0 0 0 1 0.70710678118654813 -0.70710678118654702 0 0.74999999999999989 0.49999999999999994
10 6.1223100299812652 6.4440605843779073 0 6.2831853071795862
7 15.888538720869601 3.7672183773099581 0 0 0 -1 
3 15.011473293873953 4.9840816550732994 0 0.81124218517556068 0.5847102846637654 -0 0 0 1 0.5847102846637654 -0.81124218517556068 0 0.74999999999999989 0.49999999999999994
10 0 6.2831853071795862 0.24341649025256978 6.6803398874989472
6 0.89442719099991597 0.44721359549995798 0 
3 15 5 0 0.89442719099991552 0.44721359549995859 -0 0 0 1 0.44721359549995859 -0.89442719099991552 0 0.75 0.5
10 5.0341395347813318 7.5322310795778407 0 6.2831853071795862
7 21.645898033750314 6.6458980337503153 0 0 0 -1 
3 22.706558205530136 7.7065582055301363 0 0.70710678118654791 -0.70710678118654724 -0 0 -0 1 -0.70710678118654724 -0.70710678118654791 0 0.75000000000000022 0.50000000000000011
10 0 6.2831853071795862 4.5000000000000018 11.180339887498949
6 -0.44721359549995654 -0.89442719099991663 0 
3 25 10 0 -0.44721359549995732 -0.8944271909999163 0 0 0 1 -0.8944271909999163 0.44721359549995732 0 0.75 0.5
1 20 -1.7763568394002505e-15 0 -0.44721359549995732 -0.8944271909999163 0 0 0 1 -0.8944271909999163 0.44721359549995732 0 
Triangulations 0

TShapes 43
Ve
1.00005e-07
0 1.22464679914735e-16 0.75
0 0

0101101
*
Ed
 1.00005e-07 1 1 0
1  1 0 0 6.28318530717959
2  1 2 0 0 6.28318530717959
0

0101000
+43 0 -43 0 *
Wi

0101100
+42 0 *
Fa
0  1e-07 1 0

0101000
+41 0 *
Ve
1.0000000089509e-07
9.37867965644036 -1.11022302462516e-16 0.75
0 0

0101101
*
Ed
 1e-07 1 1 0
1  2 0 0 9.37867965644036
3  2 3G1 2 0 0 9.37867965644036
0

0101000
+43 0 -39 0 *
Ed
 1e-07 1 1 0
1  3 0 0 6.28318530717959
2  4 2 0 0 6.28318530717959
2  5 3 0 0 6.28318530717959
4 G1 3 0 2 0
0

0101000
+39 0 -39 0 *
Wi

0101100
+38 0 +42 0 -38 0 -37 0 *
Fa
0  1e-07 2 0

0101000
+36 0 *
Ve
1.00000000194289e-07
10.4393398282202 0.439339828220179 0.75
0 0

0101101
*
Ed
 1e-07 1 1 0
1  4 0 5.89048622548086 6.67588438887831
3  6 7G1 3 0 5.89048622548086 6.67588438887831
0

0101000
+39 0 -34 0 *
Ed
 1e-07 1 1 0
1  5 0 0 6.28318530717959
2  8 3 0 0 6.28318530717959
2  9 4 0 0 6.28318530717959
4 G1 4 0 3 0
0

0101000
+34 0 -34 0 *
Wi

0101100
+33 0 -37 0 -33 0 +32 0 *
Fa
0  1e-07 3 0

0101000
+31 0 *
Ve
1.00000000993014e-07
14.8278785490898 4.82787854908978 0.75
0 0

0101101
*
Ed
 1e-07 1 1 0
1  6 0 0.621320343559643 6.82765132161291
3  10 11G1 4 0 0.621320343559643 6.82765132161291
0

0101000
+34 0 -29 0 *
Ed
 1e-07 1 1 0
1  7 0 0 6.28318530717959
2  12 4 0 0 6.28318530717959
2  13 5 0 0 6.28318530717959
4 G1 5 0 4 0
0

0101000
+29 0 -29 0 *
Wi

0101100
+28 0 +32 0 -28 0 -27 0 *
Fa
0  1e-07 4 0

0101000
+26 0 *
Ve
1.00000000888178e-07
15.2177183276197 5.10885916380983 0.75
0 0

0101101
*
Ed
 1e-07 1 1 0
1  8 0 6.12231002998127 6.44406058437791
3  14 15G1 5 0 6.12231002998127 6.44406058437791
0

0101000
+29 0 -24 0 *
Ed
 1e-07 1 1 0
1  9 0 0 6.28318530717959
2  16 5 0 0 6.28318530717959
2  17 6 0 0 6.28318530717959
4 G1 6 0 5 0
0

0101000
+24 0 -24 0 *
Wi

0101100
+23 0 -27 0 -23 0 +22 0 *
Fa
0  1e-07 5 0

0101000
+21 0 *
Ve
1.00000000444089e-07
20.9750776405004 7.98753882025019 0.75
0 0

0101101
*
Ed
 1e-07 1 1 0
1  10 0 0.24341649025257 6.68033988749895
3  18 19G1 6 0 0.24341649025257 6.68033988749895
0

0101000
+24 0 -19 0 *
Ed
 1e-07 1 1 0
1  11 0 0 6.28318530717959
2  20 6 0 0 6.28318530717959
2  21 7 0 0 6.28318530717959
4 G1 7 0 6 0
0

0101000
+19 0 -19 0 *
Wi

0101100
+18 0 +22 0 -18 0 -17 0 *
Fa
0  1e-07 6 0

0101000
+16 0 *
Ve
1.00000000888178e-07
22.9875388202502 5.97507764050038 0.75
0 0

0101101
*
Ed
 1e-07 1 1 0
1  12 0 5.03413953478133 7.53223107957784
3  22 23G1 7 0 5.03413953478133 7.53223107957784
0

0101000
+19 0 -14 0 *
Ed
 1e-07 1 1 0
1  13 0 0 6.28318530717959
2  24 7 0 0 6.28318530717959
2  25 8 0 0 6.28318530717959
4 G1 8 0 7 0
0

0101000
+14 0 -14 0 *
Wi

0101100
+13 0 -17 0 -13 0 +12 0 *
Fa
0  1e-07 7 0

0101000
+11 0 *
Ve
1.00005e-07
20 -8.88178419700125e-15 0.75
0 0

0101101
*
Ed
 1e-07 1 1 0
1  14 0 4.5 11.1803398874989
3  26 27G1 8 0 4.5 11.1803398874989
0

0101000
+14 0 -9 0 *
Ed
 1.00005e-07 1 1 0
1  15 0 0 6.28318530717959
2  28 8 0 0 6.28318530717959
0

0101000
+9 0 -9 0 *
Wi

0101100
+8 0 +12 0 -8 0 -7 0 *
Fa
0  1e-07 8 0

0101000
+6 0 *
Wi

0101100
+7 0 *
Fa
0  1e-07 9 0

0101000
+4 0 *
Sh

0101100
-40 0 +35 0 -30 0 +25 0 -20 0 +15 0 -10 0 +5 0 +3 0 *
So

1100000
+2 0 *

+1 1  