
CASCADE Topology V1, (c) Matra-Datavision
Locations 1
1
              1               0               0               0 
              0               1               0               0 
              0               0               1               0 
Curve2ds 112
1 0 0 1 0 
1 0 0 1 0 
1 0 0 1 0 
1 0 0 1 0 
1 -0.5 0 0 1 
1 0.75 0 0 1 
1 0.5 0 0 1 
1 -0.75 0 0 1 
1 0 9.3786796564403581 1 0 
1 -0.57402514854763353 0.11418070123306938 0.38268343236508889 0.92387953251128718 
8 5.8904862254808616 6.6758843888783108
1 0 -0.75 1 0 
2 -2.2204460492503131e-16 1.5 8.3266726846886721e-16 -1 1 8.3266726846886721e-16 1.9999999999999998
8 5.8904862254808616 6.6758843888783108
1 0 -0.75 1 0 
2 -2.2204460492503131e-16 1.5 -8.8817841970012523e-16 -1 1 -8.8817841970012523e-16 0.99999999999999944
1 0.57402514854763531 0.11418070123307006 -0.38268343236509139 0.92387953251128607 
1 -1.1102230246251565e-15 0.62132034355964239 1 1.1102230246251565e-16 
1 -0.50000000000000067 5.5511151231257827e-16 0 1 
1 0.74999999999999989 0 0 1 
1 0.50000000000000067 -5.5511151231257827e-16 0 1 
1 -0.74999999999999989 0 0 1 
1 -4.4408920985006262e-16 6.8276513216129082 1 0 
1 -0.24027336451045028 -0.019368813543748989 -0.1601822430069676 0.98708745763749672 
8 6.1223100299812652 6.4440605843779073
1 0 0.75 1 0 
2 1.1102230246251565e-16 -1.4999999999999996 0 1 1 -0 1.0000000000000007
8 6.1223100299812652 6.4440605843779073
1 0 0.75 1 0 
2 1.1102230246251565e-16 -1.4999999999999996 4.9960036108132044e-16 1 1 -4.9960036108132044e-16 1.9999999999999996
1 0.240273364510452 -0.019368813543754429 0.16018224300696687 0.98708745763749683 
1 -1.8041124150158794e-16 0.24341649025256976 1 0 
1 -0.5 8.0491169285323849e-16 0 1 
1 0.75 0 0 1 
1 0.5 -8.0491169285323849e-16 0 1 
1 -0.75 0 0 1 
1 4.4408920985006262e-16 6.6803398874989455 1 0 
1 -1.4230249470757739 -1.0256583509747419 -0.94868329805051432 0.31622776601683661 
8 5.0341395347813318 7.5322310795778407
1 0 0.75 1 0 
2 2.2204460492503131e-15 -1.4999999999999982 1.221245327087672e-15 1 1 -1.221245327087672e-15 1.0000000000000011
8 5.0341395347813318 7.5322310795778407
1 0 0.75 1 0 
2 2.2204460492503131e-15 -1.4999999999999982 0 1 1 -0 1.9999999999999998
1 1.4230249470757708 -1.0256583509747397 0.94868329805051332 0.31622776601683927 
1 -6.4392935428259079e-15 4.5 1 0 
1 -0.49999999999999845 -3.6082248300317588e-16 0 1 
1 0.75 0 -0 1 
1 0.49999999999999845 3.6082248300317588e-16 0 1 
1 -0.75 -0 0 1 
1 0 11.180339887498953 1 0 
1 0.75 0 0 1 
1 -0.5 0 0 1 
8 -0.75 0.75
1 5.8904862254808616 0 0 1 
1 0 9.3786796564403581 1 0 
1 0 0.75 1 0 
2 -2.2204460492503131e-16 -1.5 -8.8817841970012523e-16 1 1 8.8817841970012523e-16 0.99999999999999944
1 6.6758843888783108 0 0 1 
1 0 0.62132034355964261 1 0 
1 0.75 0 0 1 
1 -0.50000000000000067 -6.106226635438361e-16 1.0547118733938985e-15 1 
8 -0.75 0.75
1 6.1223100299812652 0 -0 -1 
1 0 6.8276513216129064 1 0 
1 0 -0.75 1 0 
2 1.1102230246251565e-16 1.4999999999999996 4.9960036108132044e-16 -1 1 4.9960036108132044e-16 1.9999999999999996
1 6.4440605843779073 0 0 1 
1 0 0.24341649025256978 -1 0 
1 0.75 0 0 1 
1 -0.5 -8.0491169285323849e-16 7.7715611723760958e-16 1 
8 -0.75 0.75
1 5.0341395347813318 0 -0 -1 
1 0 6.6803398874989472 1 0 
1 0 -0.75 1 0 
2 2.2204460492503131e-15 1.4999999999999982 -5.5511151231257827e-16 -1 1 -5.5511151231257827e-16 2.0000000000000009
1 7.5322310795778407 0 0 1 
1 0 4.4999999999999991 -1 -0 
1 0.75 0 0 1 
1 -0.49999999999999845 3.6082248300317588e-16 -8.8817841970012504e-16 1 
1 0 11.180339887498949 1 0 
1 0.5 0 0 1 
1 -0.75 0 0 1 
1 0 9.3786796564403581 1 0 
1 -0.57402514854763353 -0.11418070123306938 -0.38268343236508889 0.92387953251128718 
8 5.8904862254808616 6.6758843888783108
1 0 0.75 1 0 
2 -2.2204460492503131e-16 -1.5 8.3266726846886721e-16 1 1 -8.3266726846886721e-16 1.9999999999999998
1 0.57402514854763531 -0.11418070123307006 0.38268343236509139 0.92387953251128607 
1 1.1102230246251565e-15 0.62132034355964239 1 -1.1102230246251565e-16 
1 0.50000000000000067 5.5511151231257827e-16 0 1 
1 -0.74999999999999989 0 0 1 
1 4.4408920985006262e-16 6.8276513216129082 1 0 
1 -0.24027336451045028 0.019368813543748989 0.1601822430069676 0.98708745763749672 
8 6.1223100299812652 6.4440605843779073
1 0 -0.75 1 0 
2 1.1102230246251565e-16 1.4999999999999996 0 -1 1 0 1.0000000000000007
1 0.240273364510452 0.019368813543754429 -0.16018224300696687 0.98708745763749683 
1 1.8041124150158794e-16 0.24341649025256976 1 0 
1 0.5 8.0491169285323849e-16 0 1 
1 -0.75 0 0 1 
1 -4.4408920985006262e-16 6.6803398874989455 1 0 
1 -1.4230249470757739 1.0256583509747419 0.94868329805051432 0.31622776601683661 
8 5.0341395347813318 7.5322310795778407
1 0 -0.75 1 0 
2 2.2204460492503131e-15 1.4999999999999982 1.221245327087672e-15 -1 1 1.221245327087672e-15 1.0000000000000011
1 1.4230249470757708 1.0256583509747397 -0.94868329805051332 0.31622776601683927 
1 6.4392935428259079e-15 4.5 1 0 
1 0.49999999999999845 -3.6082248300317588e-16 0 1 
1 -0.75 -0 -0 1 
1 0 11.180339887498953 1 0 
8 -0.75 0.75
1 5.8904862254808616 0 -0 -1 
1 0 9.3786796564403581 1 0 
1 6.6758843888783108 0 0 1 
1 0 0.62132034355964283 -1 0 
8 -0.75 0.75
1 6.1223100299812652 0 0 1 
1 0 6.8276513216129064 1 0 
1 6.4440605843779073 0 0 1 
1 0 0.24341649025256779 1 0 
8 -0.75 0.75
1 5.0341395347813318 0 0 1 
1 0 6.6803398874989472 1 0 
1 7.5322310795778407 0 0 1 
1 -0 4.5000000000000027 1 0 
1 -0 11.180339887498949 1 0 
Curves 60
1 0 0 -0.75 0 1 0 
1 0 0 0.75 0 -1 0 
1 0 0.5 0 0 0 1 
1 0 -0.5 0 0 0 -1 
1 0 -0.5 -0.75 1 -0 0 
1 0 0.5 -0.75 1 -0 0 
1 9.3786796564403581 0 -0.75 0 1 0 
2 9.3786796564403581 1.4999999999999998 -0.75 -0 0 1 0.38268343236508967 -0.92387953251128685 0 0.92387953251128685 0.38268343236508967 0 1.9999999999999998
2 9.3786796564403581 1.4999999999999998 -0.75 -0 0 1 0.38268343236508806 -0.92387953251128752 0 0.92387953251128752 0.38268343236508806 0 0.99999999999999944
1 10.439339828220179 0.43933982822017814 -0.75 -0.70710678118654802 0.70710678118654702 0 
1 10.353553390593275 -0.35355339059327351 -0.74999999999999989 0.70710678118654702 0.70710678118654813 0 
1 9.6464466094067252 0.35355339059327351 -0.74999999999999989 0.70710678118654702 0.70710678118654813 0 
1 14.827878549089776 4.8278785490897835 -0.74999999999999989 -0.70710678118654813 0.70710678118654702 0 
2 15.888538720869601 3.7672183773099581 -0.74999999999999989 0 0 -1 -0.58471028466376529 0.81124218517556057 0 0.81124218517556057 0.58471028466376529 0 1.0000000000000007
2 15.888538720869601 3.7672183773099581 -0.74999999999999989 0 0 -1 -0.58471028466376496 0.8112421851755609 0 0.8112421851755609 0.58471028466376496 0 1.9999999999999996
1 15.217718327619664 5.1088591638098322 -0.74999999999999989 -0.44721359549995865 0.89442719099991563 0 
1 15.22360679774998 4.5527864045000426 -0.75 0.89442719099991552 0.44721359549995859 0 
1 14.77639320225002 5.4472135954999574 -0.75 0.89442719099991552 0.44721359549995859 0 
1 20.975077640500373 7.9875388202501929 -0.75 -0.44721359549995859 0.89442719099991552 0 
2 21.645898033750314 6.6458980337503153 -0.75000000000000022 0 0 -1 0.70710678118654891 0.70710678118654624 0 0.70710678118654624 -0.70710678118654891 0 1.0000000000000011
2 21.645898033750314 6.6458980337503153 -0.75000000000000022 0 0 -1 0.70710678118654802 0.70710678118654713 0 0.70710678118654713 -0.70710678118654802 0 1.9999999999999998
1 22.987538820250187 5.9750776405003805 -0.75000000000000022 0.8944271909999163 -0.44721359549995732 0 
1 24.552786404500043 10.223606797749978 -0.75 -0.44721359549995732 -0.8944271909999163 0 
1 25.447213595499957 9.7763932022500217 -0.75 -0.44721359549995732 -0.8944271909999163 0 
1 20.000000000000007 -5.3290705182007514e-15 -0.75 0.8944271909999163 -0.44721359549995732 0 
1 0 0.5 0.75 1 -0 0 
1 9.3786796564403581 0.5 0 0 0 1 
2 9.3786796564403581 1.4999999999999998 0.75 -0 0 1 0.38268343236508806 -0.92387953251128752 0 0.92387953251128752 0.38268343236508806 0 0.99999999999999944
1 10.085786437626904 0.79289321881345143 0 -0 0 1 
1 9.6464466094067252 0.35355339059327345 0.75 0.70710678118654779 0.70710678118654746 -0 
1 14.474325158496505 5.1814319396830522 0 0 0 1 
2 15.888538720869601 3.7672183773099581 0.75 0 0 -1 -0.58471028466376496 0.8112421851755609 0 0.8112421851755609 0.58471028466376496 0 1.9999999999999996
1 14.994111529869684 5.5560727593097896 0 0 0 -1 
1 14.77639320225002 5.4472135954999574 0.75 0.89442719099991597 0.44721359549995798 -0 
1 20.751470842750397 8.4347524157501468 0 0 0 1 
2 21.645898033750314 6.6458980337503153 0.75 0 0 -1 0.70710678118654757 0.70710678118654757 0 0.70710678118654757 -0.70710678118654757 0 2.0000000000000009
1 23.434752415750147 5.7514708427503995 0 0 0 -1 
1 25.447213595499957 9.7763932022500217 0.75 -0.44721359549995654 -0.89442719099991663 0 
1 20.447213595499971 -0.22360679774998715 0 0 0 1 
1 0 -0.5 0.75 1 0 0 
1 9.3786796564403581 0 0.75 0 -1 0 
2 9.3786796564403581 1.4999999999999998 0.75 -0 0 1 0.38268343236508967 -0.92387953251128685 0 0.92387953251128685 0.38268343236508967 0 1.9999999999999998
1 10.439339828220179 0.43933982822017814 0.75 0.70710678118654802 -0.70710678118654702 0 
1 10.353553390593275 -0.35355339059327351 0.74999999999999989 0.70710678118654702 0.70710678118654813 0 
1 14.827878549089776 4.8278785490897835 0.74999999999999989 0.70710678118654813 -0.70710678118654702 0 
2 15.888538720869601 3.7672183773099581 0.74999999999999989 0 0 -1 -0.58471028466376529 0.81124218517556057 0 0.81124218517556057 0.58471028466376529 0 1.0000000000000007
1 15.217718327619664 5.1088591638098322 0.74999999999999989 0.44721359549995865 -0.89442719099991563 0 
1 15.22360679774998 4.5527864045000426 0.75 0.89442719099991552 0.44721359549995859 0 
1 20.975077640500373 7.9875388202501929 0.75 0.44721359549995859 -0.89442719099991552 0 
2 21.645898033750314 6.6458980337503153 0.75000000000000022 0 0 -1 0.70710678118654891 0.70710678118654624 0 0.70710678118654624 -0.70710678118654891 0 1.0000000000000011
1 22.987538820250187 5.9750776405003805 0.75000000000000022 -0.8944271909999163 0.44721359549995732 0 
1 24.552786404500043 10.223606797749978 0.75 -0.44721359549995732 -0.8944271909999163 0 
1 20.000000000000007 -5.3290705182007514e-15 0.75 -0.8944271909999163 0.44721359549995732 0 
1 9.3786796564403581 -0.5 0 0 0 -1 
1 10.792893218813454 0.085786437626904855 0 -0 0 1 
1 15.181431939683055 4.474325158496506 0 -0 0 -1 
1 15.441325125369643 4.6616455683098739 0 0 0 -1 
1 21.198684438250357 7.5403252247502319 0 -0 0 -1 
1 22.54032522475023 6.1986844382503552 0 0 0 -1 
1 19.552786404500058 0.22360679774996939 0 0 0 -1 
Polygon3D 0
PolygonOnTriangulations 0
Surfaces 30
1 0 0 0 1 0 0 0 0 1 0 -1 0 
1 0 0 -0.75 0 0 -1 0 1 0 1 -0 0 
1 0 0 0.75 -0 0 1 0 -1 0 1 0 0 
1 0 0.5 0 0 1 -0 0 0 1 1 -0 0 
1 0 -0.5 0 0 -1 0 0 0 -1 1 0 0 
1 9.9527048049879916 0.11418070123306934 -0.75 -0 0 1 0.92387953251128718 0.38268343236508889 0 -0.38268343236508889 0.92387953251128718 -0 
10 5.8904862254808616 6.6758843888783108 -0.75 0.75
2 9.3786796564403581 1.4999999999999998 0 -0 0 1 0.38268343236508967 -0.92387953251128685 0 0.92387953251128685 0.38268343236508967 0 1.9999999999999998
10 5.8904862254808616 6.6758843888783108 -0.75 0.75
2 9.3786796564403581 1.4999999999999998 0 -0 0 1 0.38268343236508806 -0.92387953251128752 0 0.92387953251128752 0.38268343236508806 0 0.99999999999999944
1 10 0 -0.74999999999999989 0 0 -1 -0.70710678118654813 0.70710678118654702 0 0.70710678118654702 0.70710678118654813 0 
1 10.353553390593275 -0.35355339059327345 0 0.70710678118654746 -0.70710678118654779 -0 -0 0 -1 0.70710678118654779 0.70710678118654746 0 
1 9.6464466094067252 0.35355339059327345 0 -0.70710678118654746 0.70710678118654779 0 0 0 1 0.70710678118654779 0.70710678118654746 -0 
1 15.011473293873953 4.9840816550732985 -0.74999999999999989 -0 -0 1 0.81124218517556057 0.58471028466376529 0 -0.58471028466376529 0.81124218517556057 0 
10 6.1223100299812652 6.4440605843779073 -0.75 0.75
2 15.888538720869601 3.7672183773099581 0 0 0 -1 -0.58471028466376529 0.81124218517556057 0 0.81124218517556057 0.58471028466376529 0 1.0000000000000007
10 6.1223100299812652 6.4440605843779073 -0.75 0.75
2 15.888538720869601 3.7672183773099581 0 0 0 -1 -0.58471028466376496 0.8112421851755609 0 0.8112421851755609 0.58471028466376496 0 1.9999999999999996
1 15 5 -0.75 0 0 -1 -0.44721359549995859 0.89442719099991552 0 0.89442719099991552 0.44721359549995859 0 
1 15.22360679774998 4.5527864045000426 0 0.44721359549995798 -0.89442719099991597 -0 -0 0 -1 0.89442719099991597 0.44721359549995798 0 
1 14.77639320225002 5.4472135954999574 0 -0.44721359549995798 0.89442719099991597 0 0 0 1 0.89442719099991597 0.44721359549995798 -0 
1 22.706558205530133 7.7065582055301363 -0.75000000000000022 -0 -0 1 0.70710678118654713 -0.70710678118654802 0 0.70710678118654802 0.70710678118654713 0 
10 5.0341395347813318 7.5322310795778407 -0.75 0.75
2 21.645898033750314 6.6458980337503153 0 0 0 -1 0.70710678118654891 0.70710678118654624 0 0.70710678118654624 -0.70710678118654891 0 1.0000000000000011
10 5.0341395347813318 7.5322310795778407 -0.75 0.75
2 21.645898033750314 6.6458980337503153 0 0 0 -1 0.70710678118654757 0.70710678118654757 0 0.70710678118654757 -0.70710678118654757 0 2.0000000000000009
1 25 10 -0.75 0 -0 -1 0.8944271909999163 -0.44721359549995732 0 -0.44721359549995732 -0.8944271909999163 0 
1 24.552786404500043 10.223606797749978 0 -0.89442719099991663 0.44721359549995654 0 0 0 -1 -0.44721359549995654 -0.89442719099991663 -0 
1 25.447213595499957 9.7763932022500217 0 0.89442719099991663 -0.44721359549995654 0 0 0 1 -0.44721359549995654 -0.89442719099991663 0 
1 9.9527048049879916 0.11418070123306934 0.75 0 -0 -1 0.92387953251128718 0.38268343236508889 0 0.38268343236508889 -0.92387953251128718 0 
1 10 0 0.74999999999999989 -0 0 1 0.70710678118654813 -0.70710678118654702 0 0.70710678118654702 0.70710678118654813 0 
1 15.011473293873953 4.9840816550732985 0.74999999999999989 0 0 -1 0.81124218517556057 0.58471028466376529 0 0.58471028466376529 -0.81124218517556057 0 
1 15 5 0.75 -0 0 1 0.44721359549995859 -0.89442719099991552 0 0.89442719099991552 0.44721359549995859 0 
1 22.706558205530133 7.7065582055301363 0.75000000000000022 0 0 -1 0.70710678118654713 -0.70710678118654802 0 -0.70710678118654802 -0.70710678118654713 -0 
1 25 10 0.75 0 0 1 -0.8944271909999163 0.44721359549995732 0 -0.44721359549995732 -0.8944271909999163 0 
1 20 -1.7763568394002505e-15 0 -0.44721359549995732 -0.8944271909999163 0 0 0 1 -0.8944271909999163 0.44721359549995732 0 
Triangulations 0

TShapes 154
Ve
1.01e-07
0 -0.5 -0.75
0 0

0101101
*
Ve
1.01e-07
0 0.5 -0.75
0 0

0101101
*
Ed
 1.00005e-07 1 1 0
1  1 0 -0.5 0.5
2  1 2 0 -0.5 0.5
0

0101000
+154 0 -153 0 *
Ve
1.01e-07
0 0.5 0.75
0 0

0101101
*
Ve
1.01e-07
0 -0.5 0.75
0 0

0101101
*
Ed
 1.00005e-07 1 1 0
1  2 0 -0.5 0.5
2  2 3 0 -0.5 0.5
0

0101000
+151 0 -150 0 *
Ed
 1.00005e-07 1 1 0
1  3 0 -0.75 0.75
2  3 4 0 -0.75 0.75
0

0101000
-151 0 +153 0 *
Ed
 1.00005e-07 1 1 0
1  4 0 -0.75 0.75
2  4 5 0 -0.75 0.75
0

0101000
-154 0 +150 0 *
Wi

0101100
+152 0 +149 0 +148 0 +147 0 *
Fa
0  1e-07 1 0

0101000
+146 0 *
Ve
1.01e-07
9.37867965644036 -0.5 -0.75
0 0

0101101
*
Ed
 1e-07 1 1 0
1  5 0 0 9.37867965644036
2  5 2 0 0 9.37867965644036
2  6 5 0 0 9.37867965644036
0

0101000
+154 0 -144 0 *
Ve
1.01e-07
9.37867965644036 0.5 -0.75
0 0

0101101
*
Ed
 1e-07 1 1 0
1  6 0 0 9.37867965644036
2  7 2 0 0 9.37867965644036
2  8 4 0 0 9.37867965644036
0

0101000
+153 0 -142 0 *
Ed
 1e-07 1 1 0
1  7 0 -0.5 0.5
2  9 2 0 -0.5 0.5
2  10 6 0 -0.5 0.5
4 C1 6 0 2 0
0

0101000
+144 0 -142 0 *
Wi

0101100
-143 0 +152 0 +141 0 -140 0 *
Fa
0  1e-07 2 0

0101000
+139 0 *
Ve
1.01e-07
10.7928932188135 0.0857864376269051 -0.75
0 0

0101101
*
Ed
 1e-07 1 1 0
1  8 0 5.89048622548086 6.67588438887831
2  11 7 0 5.89048622548086 6.67588438887831
2  12 6 0 5.89048622548086 6.67588438887831
0

0101000
+144 0 -137 0 *
Ve
1.01e-07
10.0857864376269 0.792893218813452 -0.75
0 0

0101101
*
Ed
 1e-07 1 1 0
1  9 0 5.89048622548086 6.67588438887831
2  13 8 0 5.89048622548086 6.67588438887831
2  14 6 0 5.89048622548086 6.67588438887831
0

0101000
+142 0 -135 0 *
Ed
 1e-07 1 1 0
1  10 0 -0.5 0.5
2  15 6 0 -0.5 0.5
2  16 9 0 -0.5 0.5
4 C1 9 0 6 0
0

0101000
+137 0 -135 0 *
Wi

0101100
+136 0 -140 0 -134 0 +133 0 *
Fa
0  1e-07 6 0

0101000
+132 0 *
Ve
1.01e-07
15.1814319396831 4.47432515849651 -0.75
0 0

0101101
*
Ed
 1e-07 1 1 0
1  11 0 0.621320343559643 6.82765132161291
2  17 9 0 0.621320343559643 6.82765132161291
2  18 10 0 0.621320343559643 6.82765132161291
0

0101000
+137 0 -130 0 *
Ve
1.01e-07
14.4743251584965 5.18143193968305 -0.75
0 0

0101101
*
Ed
 1e-07 1 1 0
1  12 0 0.621320343559643 6.82765132161291
2  19 9 0 0.621320343559643 6.82765132161291
2  20 11 0 0.621320343559643 6.82765132161291
0

0101000
+135 0 -128 0 *
Ed
 1e-07 1 1 0
1  13 0 -0.5 0.5
2  21 9 0 -0.5 0.5
2  22 12 0 -0.5 0.5
4 C1 12 0 9 0
0

0101000
+130 0 -128 0 *
Wi

0101100
-129 0 +133 0 +127 0 -126 0 *
Fa
0  1e-07 9 0

0101000
+125 0 *
Ve
1.01e-07
15.4413251253696 4.66164556830987 -0.75
0 0

0101101
*
Ed
 1e-07 1 1 0
1  14 0 6.12231002998127 6.44406058437791
2  23 13 0 6.12231002998127 6.44406058437791
2  24 12 0 6.12231002998127 6.44406058437791
0

0101000
+130 0 -123 0 *
Ve
1.01e-07
14.9941115298697 5.55607275930979 -0.75
0 0

0101101
*
Ed
 1e-07 1 1 0
1  15 0 6.12231002998127 6.44406058437791
2  25 14 0 6.12231002998127 6.44406058437791
2  26 12 0 6.12231002998127 6.44406058437791
0

0101000
+128 0 -121 0 *
Ed
 1e-07 1 1 0
1  16 0 -0.5 0.5
2  27 12 0 -0.5 0.5
2  28 15 0 -0.5 0.5
4 C1 15 0 12 0
0

0101000
+123 0 -121 0 *
Wi

0101100
+122 0 -126 0 -120 0 +119 0 *
Fa
0  1e-07 12 0

0101000
+118 0 *
Ve
1.01e-07
21.1986844382504 7.54032522475023 -0.75
0 0

0101101
*
Ed
 1e-07 1 1 0
1  17 0 0.24341649025257 6.68033988749895
2  29 15 0 0.24341649025257 6.68033988749895
2  30 16 0 0.24341649025257 6.68033988749895
0

0101000
+123 0 -116 0 *
Ve
1.01e-07
20.7514708427504 8.43475241575015 -0.75
0 0

0101101
*
Ed
 1e-07 1 1 0
1  18 0 0.24341649025257 6.68033988749895
2  31 15 0 0.24341649025257 6.68033988749895
2  32 17 0 0.24341649025257 6.68033988749895
0

0101000
+121 0 -114 0 *
Ed
 1e-07 1 1 0
1  19 0 -0.5 0.5
2  33 15 0 -0.5 0.5
2  34 18 0 -0.5 0.5
4 C1 18 0 15 0
0

0101000
+116 0 -114 0 *
Wi

0101100
-115 0 +119 0 +113 0 -112 0 *
Fa
0  1e-07 15 0

0101000
+111 0 *
Ve
1.01e-07
22.5403252247502 6.19868443825036 -0.75
0 0

0101101
*
Ed
 1e-07 1 1 0
1  20 0 5.03413953478133 7.53223107957784
2  35 19 0 5.03413953478133 7.53223107957784
2  36 18 0 5.03413953478133 7.53223107957784
0

0101000
+116 0 -109 0 *
Ve
1.01e-07
23.4347524157501 5.7514708427504 -0.75
0 0

0101101
*
Ed
 1e-07 1 1 0
1  21 0 5.03413953478133 7.53223107957784
2  37 20 0 5.03413953478133 7.53223107957784
2  38 18 0 5.03413953478133 7.53223107957784
0

0101000
+114 0 -107 0 *
Ed
 1e-07 1 1 0
1  22 0 -0.5 0.5
2  39 18 0 -0.5 0.5
2  40 21 0 -0.5 0.5
4 C1 21 0 18 0
0

0101000
+109 0 -107 0 *
Wi

0101100
+108 0 -112 0 -106 0 +105 0 *
Fa
0  1e-07 18 0

0101000
+104 0 *
Ve
1.01e-07
19.5527864045001 0.223606797749969 -0.75
0 0

0101101
*
Ed
 1e-07 1 1 0
1  23 0 4.5 11.1803398874989
2  41 21 0 4.5 11.1803398874989
2  42 22 0 4.5 11.1803398874989
0

0101000
+109 0 -102 0 *
Ve
1.01e-07
20.4472135955 -0.223606797749987 -0.75
0 0

0101101
*
Ed
 1e-07 1 1 0
1  24 0 4.5 11.1803398874989
2  43 21 0 4.5 11.1803398874989
2  44 23 0 4.5 11.1803398874989
0

0101000
+107 0 -100 0 *
Ed
 1.00005e-07 1 1 0
1  25 0 -0.5 0.5
2  45 21 0 -0.5 0.5
0

0101000
+102 0 -100 0 *
Wi

0101100
-101 0 +105 0 +99 0 -98 0 *
Fa
0  1e-07 21 0

0101000
+97 0 *
Ve
1.01e-07
9.37867965644036 0.5 0.75
0 0

0101101
*
Ed
 1e-07 1 1 0
1  26 0 0 9.37867965644036
2  46 4 0 0 9.37867965644036
2  47 3 0 0 9.37867965644036
0

0101000
+151 0 -95 0 *
Ed
 1e-07 1 1 0
1  27 0 -0.75 0.75
2  48 8 0 -0.75 0.75
2  49 4 0 -0.75 0.75
4 C1 8 0 4 0
0

0101000
+142 0 -95 0 *
Wi

0101100
-141 0 +148 0 +94 0 -93 0 *
Fa
0  1e-07 4 0

0101000
+92 0 *
Ve
1.01e-07
10.0857864376269 0.792893218813452 0.75
0 0

0101101
*
Ed
 1e-07 1 1 0
1  28 0 5.89048622548086 6.67588438887831
2  50 8 0 5.89048622548086 6.67588438887831
2  51 24 0 5.89048622548086 6.67588438887831
0

0101000
+95 0 -90 0 *
Ed
 1e-07 1 1 0
1  29 0 -0.75 0.75
2  52 8 0 -0.75 0.75
2  53 11 0 -0.75 0.75
4 C1 11 0 8 0
0

0101000
+135 0 -90 0 *
Wi

0101100
+134 0 -93 0 -89 0 +88 0 *
Fa
0  1e-07 8 0

0101000
+87 0 *
Ve
1.01e-07
14.4743251584965 5.18143193968305 0.75
0 0

0101101
*
Ed
 1e-07 1 1 0
1  30 0 0.621320343559643 6.82765132161291
2  54 11 0 0.621320343559643 6.82765132161291
2  55 25 0 0.621320343559643 6.82765132161291
0

0101000
+90 0 -85 0 *
Ed
 1e-07 1 1 0
1  31 0 -0.75 0.75
2  56 14 0 -0.75 0.75
2  57 11 0 -0.75 0.75
4 G1 14 0 11 0
0

0101000
+128 0 -85 0 *
Wi

0101100
-127 0 +88 0 +84 0 -83 0 *
Fa
0  1e-07 11 0

0101000
+82 0 *
Ve
1.01e-07
14.9941115298697 5.55607275930979 0.75
0 0

0101101
*
Ed
 1e-07 1 1 0
1  32 0 6.12231002998127 6.44406058437791
2  58 14 0 6.12231002998127 6.44406058437791
2  59 26 0 6.12231002998127 6.44406058437791
0

0101000
+85 0 -80 0 *
Ed
 1e-07 1 1 0
1  33 0 -0.75 0.75
2  60 14 0 -0.75 0.75
2  61 17 0 -0.75 0.75
4 G1 17 0 14 0
0

0101000
+80 0 -121 0 *
Wi

0101100
-120 0 +83 0 +79 0 +78 0 *
Fa
0  1e-07 14 0

0101000
+77 0 *
Ve
1.01e-07
20.7514708427504 8.43475241575015 0.75
0 0

0101101
*
Ed
 1e-07 1 1 0
1  34 0 0.24341649025257 6.68033988749895
2  62 17 0 0.24341649025257 6.68033988749895
2  63 27 0 0.24341649025257 6.68033988749895
0

0101000
+80 0 -75 0 *
Ed
 1e-07 1 1 0
1  35 0 -0.75 0.75
2  64 20 0 -0.75 0.75
2  65 17 0 -0.75 0.75
4 G1 20 0 17 0
0

0101000
+114 0 -75 0 *
Wi

0101100
-113 0 -78 0 +74 0 -73 0 *
Fa
0  1e-07 17 0

0101000
+72 0 *
Ve
1.01e-07
23.4347524157501 5.7514708427504 0.75
0 0

0101101
*
Ed
 1e-07 1 1 0
1  36 0 5.03413953478133 7.53223107957784
2  66 20 0 5.03413953478133 7.53223107957784
2  67 28 0 5.03413953478133 7.53223107957784
0

0101000
+75 0 -70 0 *
Ed
 1e-07 1 1 0
1  37 0 -0.75 0.75
2  68 20 0 -0.75 0.75
2  69 23 0 -0.75 0.75
4 G1 23 0 20 0
0

0101000
+70 0 -107 0 *
Wi

0101100
-106 0 +73 0 +69 0 +68 0 *
Fa
0  1e-07 20 0

0101000
+67 0 *
Ve
1.01e-07
20.4472135955 -0.223606797749984 0.75
0 0

0101101
*
Ed
 1e-07 1 1 0
1  38 0 4.5 11.1803398874989
2  70 23 0 4.5 11.1803398874989
2  71 29 0 4.5 11.1803398874989
0

0101000
+70 0 -65 0 *
Ed
 1.00005e-07 1 1 0
1  39 0 -0.75 0.75
2  72 23 0 -0.75 0.75
0

0101000
-65 0 +100 0 *
Wi

0101100
-99 0 -68 0 +64 0 -63 0 *
Fa
0  1e-07 23 0

0101000
+62 0 *
Ve
1.01e-07
9.37867965644036 -0.5 0.75
0 0

0101101
*
Ed
 1e-07 1 1 0
1  40 0 0 9.37867965644036
2  73 3 0 0 9.37867965644036
2  74 5 0 0 9.37867965644036
0

0101000
+150 0 -60 0 *
Ed
 1e-07 1 1 0
1  41 0 -0.5 0.5
2  75 3 0 -0.5 0.5
2  76 24 0 -0.5 0.5
4 C1 24 0 3 0
0

0101000
+95 0 -60 0 *
Wi

0101100
-94 0 +149 0 +59 0 -58 0 *
Fa
0  1e-07 3 0

0101000
+57 0 *
Ve
1.01e-07
10.7928932188135 0.0857864376269051 0.75
0 0

0101101
*
Ed
 1e-07 1 1 0
1  42 0 5.89048622548086 6.67588438887831
2  77 7 0 5.89048622548086 6.67588438887831
2  78 24 0 5.89048622548086 6.67588438887831
0

0101000
+60 0 -55 0 *
Ed
 1e-07 1 1 0
1  43 0 -0.5 0.5
2  79 24 0 -0.5 0.5
2  80 25 0 -0.5 0.5
4 C1 25 0 24 0
0

0101000
+90 0 -55 0 *
Wi

0101100
+89 0 -58 0 -54 0 +53 0 *
Fa
0  1e-07 24 0

0101000
+52 0 *
Ve
1.01e-07
15.1814319396831 4.47432515849651 0.75
0 0

0101101
*
Ed
 1e-07 1 1 0
1  44 0 0.621320343559643 6.82765132161291
2  81 25 0 0.621320343559643 6.82765132161291
2  82 10 0 0.621320343559643 6.82765132161291
0

0101000
+55 0 -50 0 *
Ed
 1e-07 1 1 0
1  45 0 -0.5 0.5
2  83 25 0 -0.5 0.5
2  84 26 0 -0.5 0.5
4 C1 26 0 25 0
0

0101000
+85 0 -50 0 *
Wi

0101100
-84 0 +53 0 +49 0 -48 0 *
Fa
0  1e-07 25 0

0101000
+47 0 *
Ve
1.01e-07
15.4413251253696 4.66164556830987 0.75
0 0

0101101
*
Ed
 1e-07 1 1 0
1  46 0 6.12231002998127 6.44406058437791
2  85 13 0 6.12231002998127 6.44406058437791
2  86 26 0 6.12231002998127 6.44406058437791
0

0101000
+50 0 -45 0 *
Ed
 1e-07 1 1 0
1  47 0 -0.5 0.5
2  87 26 0 -0.5 0.5
2  88 27 0 -0.5 0.5
4 C1 27 0 26 0
0

0101000
+80 0 -45 0 *
Wi

0101100
+79 0 -48 0 -44 0 +43 0 *
Fa
0  1e-07 26 0

0101000
+42 0 *
Ve
1.01e-07
21.1986844382504 7.54032522475023 0.75
0 0

0101101
*
Ed
 1e-07 1 1 0
1  48 0 0.24341649025257 6.68033988749895
2  89 27 0 0.24341649025257 6.68033988749895
2  90 16 0 0.24341649025257 6.68033988749895
0

0101000
+45 0 -40 0 *
Ed
 1e-07 1 1 0
1  49 0 -0.5 0.5
2  91 27 0 -0.5 0.5
2  92 28 0 -0.5 0.5
4 C1 28 0 27 0
0

0101000
+75 0 -40 0 *
Wi

0101100
-74 0 +43 0 +39 0 -38 0 *
Fa
0  1e-07 27 0

0101000
+37 0 *
Ve
1.01e-07
22.5403252247502 6.19868443825036 0.75
0 0

0101101
*
Ed
 1e-07 1 1 0
1  50 0 5.03413953478133 7.53223107957784
2  93 19 0 5.03413953478133 7.53223107957784
2  94 28 0 5.03413953478133 7.53223107957784
0

0101000
+40 0 -35 0 *
Ed
 1e-07 1 1 0
1  51 0 -0.5 0.5
2  95 28 0 -0.5 0.5
2  96 29 0 -0.5 0.5
4 C1 29 0 28 0
0

0101000
+70 0 -35 0 *
Wi

0101100
+69 0 -38 0 -34 0 +33 0 *
Fa
0  1e-07 28 0

0101000
+32 0 *
Ve
1.01e-07
19.5527864045001 0.223606797749969 0.75
0 0

0101101
*
Ed
 1e-07 1 1 0
1  52 0 4.5 11.1803398874989
2  97 29 0 4.5 11.1803398874989
2  98 22 0 4.5 11.1803398874989
0

0101000
+35 0 -30 0 *
Ed
 1.00005e-07 1 1 0
1  53 0 -0.5 0.5
2  99 29 0 -0.5 0.5
0

0101000
+65 0 -30 0 *
Wi

0101100
-64 0 +33 0 +29 0 -28 0 *
Fa
0  1e-07 29 0

0101000
+27 0 *
Ed
 1e-07 1 1 0
1  54 0 -0.75 0.75
2  100 7 0 -0.75 0.75
2  101 5 0 -0.75 0.75
4 G1 7 0 5 0
0

0101000
+60 0 -144 0 *
Wi

0101100
-59 0 +147 0 +143 0 -25 0 *
Fa
0  1e-07 5 0

0101000
+24 0 *
Ed
 1e-07 1 1 0
1  55 0 -0.75 0.75
2  102 7 0 -0.75 0.75
2  103 10 0 -0.75 0.75
4 G1 10 0 7 0
0

0101000
+137 0 -55 0 *
Wi

0101100
-54 0 +25 0 +136 0 +22 0 *
Fa
0  1e-07 7 0

0101000
+21 0 *
Ed
 1e-07 1 1 0
1  56 0 -0.75 0.75
2  104 13 0 -0.75 0.75
2  105 10 0 -0.75 0.75
4 C1 13 0 10 0
0

0101000
+50 0 -130 0 *
Wi

0101100
-49 0 -22 0 +129 0 -19 0 *
Fa
0  1e-07 10 0

0101000
+18 0 *
Ed
 1e-07 1 1 0
1  57 0 -0.75 0.75
2  106 13 0 -0.75 0.75
2  107 16 0 -0.75 0.75
4 C1 16 0 13 0
0

0101000
+45 0 -123 0 *
Wi

0101100
+44 0 -19 0 -122 0 +16 0 *
Fa
0  1e-07 13 0

0101000
+15 0 *
Ed
 1e-07 1 1 0
1  58 0 -0.75 0.75
2  108 19 0 -0.75 0.75
2  109 16 0 -0.75 0.75
4 C1 19 0 16 0
0

0101000
+40 0 -116 0 *
Wi

0101100
-39 0 +16 0 +115 0 -13 0 *
Fa
0  1e-07 16 0

0101000
+12 0 *
Ed
 1e-07 1 1 0
1  59 0 -0.75 0.75
2  110 19 0 -0.75 0.75
2  111 22 0 -0.75 0.75
4 C1 22 0 19 0
0

0101000
+35 0 -109 0 *
Wi

0101100
+34 0 -13 0 -108 0 +10 0 *
Fa
0  1e-07 19 0

0101000
+9 0 *
Ed
 1.00005e-07 1 1 0
1  60 0 -0.75 0.75
2  112 22 0 -0.75 0.75
0

0101000
-102 0 +30 0 *
Wi

0101100
-29 0 +10 0 +101 0 -7 0 *
Fa
0  1e-07 22 0

0101000
+6 0 *
Wi

0101100
+98 0 +28 0 +63 0 +7 0 *
Fa
0  1e-07 30 0

0101000
+4 0 *
Sh

0101100
-145 0 +138 0 -131 0 +124 0 -117 0 +110 0 -103 0 +96 0 +91 0 -86 0 
+81 0 +76 0 +71 0 +66 0 +61 0 +56 0 -51 0 +46 0 -41 0 +36 0 
-31 0 +26 0 +23 0 +20 0 +17 0 -14 0 +11 0 -8 0 +5 0 +3 0 
*
So

1100000
+2 0 *

+1 1  