
CASCADE Topology V1, (c) Matra-Datavision
Locations 1
1
              1               0               0               0 
              0               1               0               0 
              0               0               1               0 
Curve2ds 84
1 0 0 1 0 
1 0 0 1 0 
1 0 0 1 0 
1 -1 0 0 1 
1 0 0 0 1 
1 0 0 0 1 
1 -1.1180339887498949 0 0 1 
8 -1 -0
1 5.8904862254808616 0 0 1 
1 0 9.5857864376269042 1 0 
1 0 -1 1 0 
8 5.8904862254808616 6.6758843888783108
1 0 0 1 0 
1 0 -0 1 0 
8 5.8904862254808616 6.6758843888783108
1 0 1.1180339887498949 1 0 
1 6.6758843888783108 0 0 1 
1 0 0.4142135623730947 1 0 
1 -1 0 0 1 
1 0 0 -9.8809849191638916e-16 1 
1 0 0 0 1 
1 -1.118033988749896 -1.1518563880485997e-15 9.8809849191638916e-16 1 
8 -1 -0
1 6.1223100299812652 0 -0 -1 
1 0 6.9087901516970973 1 0 
1 0 1 1 0 
8 6.1223100299812652 6.4440605843779073
1 0 -0 1 0 
1 0 0 1 0 
8 6.1223100299812652 6.4440605843779073
1 0 -1.1180339887498949 1 0 
1 6.4440605843779073 0 0 1 
1 0 0.16227766016838049 -1 0 
1 -1 0 0 1 
1 0 0 -9.4368957093138306e-16 1 
1 0 0 0 1 
1 -1.1180339887498949 -1.27675647831893e-15 9.4368957093138306e-16 1 
8 -1 -0
1 5.0341395347813318 0 -0 -1 
1 0 8.1803398874989508 1 0 
1 0 1 1 0 
8 5.0341395347813318 7.5322310795778407
1 0 -0 1 0 
1 0 0 1 0 
8 5.0341395347813318 7.5322310795778407
1 0 -1.1180339887498949 1 0 
1 7.5322310795778407 0 0 1 
1 0 2.9999999999999987 -1 -0 
1 -1 -0 0 1 
1 0 0 4.4408920985006262e-16 1 
1 0 0 0 1 
1 -1.1180339887498916 1.0547118733938991e-15 -4.4408920985006262e-16 1 
1 0 11.180339887498949 1 0 
1 0 0 0 1 
1 -1.1180339887498949 0 0 1 
8 -1.1180339887498949 -0
1 5.8904862254808616 0 -0 -1 
1 0 9.5857864376269042 1 0 
1 0 0 1 0 
8 5.8904862254808616 6.6758843888783108
1 0 1.1180339887498949 1 0 
1 6.6758843888783108 0 0 1 
1 -1.9428902930940242e-16 0.41421356237309492 -1 3.2203770548853384e-16 
1 0 0 -5.3305310851455222e-17 1 
1 -1.118033988749896 1.1518563880485997e-15 -3.0865660651524121e-16 1 
8 -1.1180339887498949 -0
1 6.1223100299812652 0 0 1 
1 5.077883500736031e-16 6.9087901516970955 1 -4.4481949332244704e-17 
1 0 -0 1 0 
8 6.1223100299812652 6.4440605843779073
1 0 -1.1180339887498949 1 0 
1 6.4440605843779073 0 0 1 
1 1.5265566588595902e-16 0.16227766016837852 1 -2.0304707228912903e-15 
1 0 0 -1.7516085959453211e-17 1 
1 -1.1180339887498949 1.27675647831893e-15 -3.394807631007487e-16 1 
8 -1.1180339887498949 -0
1 5.0341395347813318 0 0 1 
1 1.3626114269360445e-15 8.1803398874989526 1 -3.2069278566008354e-17 
1 0 -0 1 0 
8 5.0341395347813318 7.5322310795778407
1 0 -1.1180339887498949 1 0 
1 7.5322310795778407 0 0 1 
1 6.7501559897209515e-15 3.0000000000000009 1 -7.333659023389763e-16 
1 0 -0 -3.5650878005279646e-17 1 
1 -1.1180339887498916 -1.0547118733938991e-15 2.4190487815100949e-16 1 
1 2.2204460492503111e-16 11.180339887498949 1 -1.1720936332624758e-17 
8 -1.1180339887498949 -0
1 5.8904862254808616 0 -0 -1 
1 0 9.5857864376269042 1 0 
1 6.6758843888783108 0 0 1 
1 -8.9127195013199103e-17 0.4142135623730947 -1 -2.2649279985825576e-15 
8 -1.1180339887498949 -0
1 6.1223100299812652 0 0 1 
1 -5.3508976277661391e-16 6.9087901516970955 1 4.4481949332244704e-17 
1 6.4440605843779073 0 0 1 
1 -1.0093748932793326e-15 0.16227766016838011 1 1.419848059347454e-15 
8 -1.1180339887498949 -0
1 5.0341395347813318 0 0 1 
1 -1.3736174994117938e-15 8.1803398874989526 1 3.2069278566008354e-17 
1 7.5322310795778407 0 0 1 
1 -4.0023367641194562e-15 2.9999999999999978 1 -7.6543518090498483e-16 
1 -2.2896194926114767e-16 11.180339887498949 1 1.1720936332624758e-17 
Curves 45
1 0 0.5 0.5 0 0 1 
1 0 -0.5 0 0 -0.89442719099991597 -0.44721359549995798 
1 0 0.5 -0.5 0 0.89442719099991597 -0.44721359549995798 
1 0 0.5 -0.5 1 -0 0 
1 0 0.5 0.5 1 -0 0 
1 9.5857864376269042 0.5 0.5 0 0 1 
2 9.5857864376269042 0.99999999999999989 -0.5 -0 0 1 0.38268343236508823 -0.9238795325112874 0 0.9238795325112874 0.38268343236508823 0 0.4999999999999995
2 9.5857864376269042 0.99999999999999989 0.5 -0 0 1 0.38268343236508823 -0.9238795325112874 0 0.9238795325112874 0.38268343236508823 0 0.4999999999999995
1 9.9393398282201773 0.64644660940672594 0.5 -0 0 1 
1 9.6464466094067252 0.35355339059327345 -0.5 0.70710678118654779 0.70710678118654746 -0 
1 9.6464466094067252 0.35355339059327345 0.5 0.70710678118654779 0.70710678118654746 -0 
1 14.531698975466579 5.2388057566531252 0.5 0 0 1 
2 15.5923591472464 4.1781455848733051 -0.5 0 0 -1 -0.58471028466376429 0.81124218517556135 0 0.81124218517556135 0.58471028466376429 0 1.4999999999999991
2 15.5923591472464 4.1781455848733051 0.5 0 0 -1 -0.58471028466376429 0.81124218517556135 0 0.81124218517556135 0.58471028466376429 0 1.4999999999999991
1 14.921538753996463 5.5197863713731783 0.5 0 0 -1 
1 14.77639320225002 5.4472135954999574 -0.5 0.89442719099991597 0.44721359549995798 -0 
1 14.77639320225002 5.4472135954999574 0.5 0.89442719099991597 0.44721359549995798 -0 
1 22.093111629250274 9.1055728090000851 0.5 0 0 1 
2 22.76393202250021 7.7639320225002102 -0.5 0 0 -1 0.70710678118654635 0.70710678118654868 0 0.70710678118654868 -0.70710678118654635 0 1.4999999999999996
2 22.76393202250021 7.7639320225002102 0.49999999999999994 0 0 -1 0.70710678118654635 0.70710678118654868 0 0.70710678118654868 -0.70710678118654635 0 1.4999999999999996
1 24.105572809000083 7.0931116292502763 0.49999999999999994 0 0 -1 
1 25.447213595499957 9.7763932022500217 -0.5 -0.44721359549995654 -0.89442719099991663 0 
1 25.447213595499957 9.7763932022500217 0.49999999999999994 -0.44721359549995654 -0.89442719099991663 0 
1 20.447213595499971 -0.22360679774998715 0.49999999999999994 0 0 1 
1 0 -0.5 0 1 0 0 
1 9.5857864376269042 -0.5 0 0 -0.89442719099991597 -0.44721359549995798 
2 9.5857864376269042 0.99999999999999989 0 -0 0 1 0.38268343236509028 -0.92387953251128663 0 0.92387953251128663 0.38268343236509028 0 1.5
1 10.646446609406727 -0.060660171779820637 0 -0.63245553203367633 0.63245553203367555 0.44721359549995804 
1 10.353553390593275 -0.35355339059327345 0 0.70710678118654702 0.70710678118654802 4.7184478546569143e-16 
1 15.238805756653125 4.5316989754665826 3.2598766069549979e-15 0.63245553203367644 -0.63245553203367533 -0.44721359549995798 
2 15.5923591472464 4.1781455848733051 0 0 0 -1 -0.58471028466376374 0.81124218517556168 0 0.81124218517556168 0.58471028466376374 0 0.50000000000000022
1 15.368752349496422 4.6253591803732634 0 0.39999999999999902 -0.80000000000000049 -0.44721359549995804 
1 15.22360679774998 4.5527864045000426 0 0.89442719099991552 0.4472135954999587 4.4408920985006262e-16 
1 22.540325224750234 8.2111456180001756 3.6328006769443592e-15 0.40000000000000085 -0.7999999999999996 -0.44721359549995793 
2 22.76393202250021 7.7639320225002102 0 0 0 -1 0.70710678118654757 0.70710678118654757 0 0.70710678118654757 -0.70710678118654757 0 0.499999999999999
1 23.211145618000167 7.5403252247502319 0 -0.80000000000000004 0.3999999999999998 -0.44721359549995793 
1 24.552786404500043 10.223606797749978 0 -0.44721359549995687 -0.89442719099991641 -2.2204460492503126e-16 
1 19.552786404500054 0.22360679774997116 -2.4825341532472727e-15 -0.80000000000000049 0.39999999999999919 -0.44721359549995793 
1 9.5857864376269042 0.5 -0.5 0 0.89442719099991597 -0.44721359549995798 
1 9.9393398282201773 0.64644660940672594 -0.5 0.63245553203367488 -0.63245553203367688 0.44721359549995804 
1 14.531698975466576 5.2388057566531288 -0.50000000000000322 -0.63245553203367644 0.63245553203367533 -0.44721359549995798 
1 14.921538753996463 5.5197863713731783 -0.5 -0.39999999999999958 0.80000000000000016 -0.44721359549995804 
1 22.093111629250274 9.1055728090000905 -0.50000000000000366 -0.40000000000000085 0.7999999999999996 -0.44721359549995793 
1 24.105572809000083 7.0931116292502763 -0.49999999999999994 0.80000000000000082 -0.39999999999999847 -0.44721359549995804 
1 20.447213595499967 -0.22360679774998538 -0.49999999999999745 0.80000000000000049 -0.39999999999999919 -0.44721359549995793 
Polygon3D 0
PolygonOnTriangulations 0
Surfaces 23
1 0 0 0 1 0 0 0 0 1 0 -1 0 
1 0 0.5 0.5 0 1 -0 0 0 1 1 -0 0 
1 0 -0.5 0 0 -0.44721359549995798 0.89442719099991597 0 -0.89442719099991597 -0.44721359549995798 1 0 0 
1 0 0.5 -0.5 0 -0.44721359549995798 -0.89442719099991597 0 0.89442719099991597 -0.44721359549995798 1 0 0 
10 5.8904862254808616 6.6758843888783108 -1 -0
2 9.5857864376269042 0.99999999999999989 0.5 -0 0 1 0.38268343236508823 -0.9238795325112874 0 0.9238795325112874 0.38268343236508823 0 0.4999999999999995
10 5.8904862254808616 6.6758843888783108 0 1.1180339887498949
3 9.5857864376269042 0.99999999999999989 -0.5 -0 0 1 0.38268343236508823 -0.9238795325112874 0 0.9238795325112874 0.38268343236508823 0 0.4999999999999995
1.1071487177940904
10 5.8904862254808616 6.6758843888783108 0 1.1180339887498949
3 9.5857864376269042 0.99999999999999989 0 -0 0 1 0.38268343236509028 -0.92387953251128663 0 0.92387953251128663 0.38268343236509028 0 1.5
-1.1071487177940904
1 9.6464466094067252 0.35355339059327345 0.5 -0.70710678118654746 0.70710678118654779 0 0 0 1 0.70710678118654779 0.70710678118654746 -0 
1 9.6464466094067252 0.35355339059327345 -0.5 0.31622776601683789 -0.31622776601683805 -0.89442719099991586 -0.63245553203367644 0.63245553203367533 -0.44721359549995798 0.70710678118654702 0.70710678118654802 -4.7184478546569143e-16 
1 10.353553390593275 -0.35355339059327345 0 0.31622776601683789 -0.31622776601683805 0.89442719099991586 0.63245553203367644 -0.63245553203367533 -0.44721359549995798 0.70710678118654702 0.70710678118654802 4.7184478546569143e-16 
10 6.1223100299812652 6.4440605843779073 0 1
2 15.5923591472464 4.1781455848733051 0.5 0 0 -1 -0.58471028466376429 0.81124218517556135 0 0.81124218517556135 0.58471028466376429 0 1.4999999999999991
10 6.1223100299812652 6.4440605843779073 -1.1180339887498949 -0
3 15.5923591472464 4.1781455848733051 -0.5 0 0 -1 -0.58471028466376429 0.81124218517556135 0 0.81124218517556135 0.58471028466376429 0 1.4999999999999991
1.1071487177940904
10 6.1223100299812652 6.4440605843779073 -1.1180339887498949 -0
3 15.5923591472464 4.1781455848733051 0 0 0 -1 -0.58471028466376374 0.81124218517556168 0 0.81124218517556168 0.58471028466376374 0 0.50000000000000022
-1.1071487177940904
1 14.77639320225002 5.4472135954999574 0.5 -0.44721359549995798 0.89442719099991597 0 0 0 1 0.89442719099991597 0.44721359549995798 -0 
1 14.77639320225002 5.4472135954999574 -0.5 0.20000000000000001 -0.40000000000000002 -0.89442719099991597 -0.40000000000000085 0.7999999999999996 -0.44721359549995793 0.89442719099991552 0.4472135954999587 -4.4408920985006262e-16 
1 15.22360679774998 4.5527864045000426 0 0.20000000000000001 -0.40000000000000002 0.89442719099991597 0.40000000000000085 -0.7999999999999996 -0.44721359549995793 0.89442719099991552 0.4472135954999587 4.4408920985006262e-16 
10 5.0341395347813318 7.5322310795778407 0 1
2 22.76393202250021 7.7639320225002102 0.49999999999999994 0 0 -1 0.70710678118654635 0.70710678118654868 0 0.70710678118654868 -0.70710678118654635 0 1.4999999999999996
10 5.0341395347813318 7.5322310795778407 -1.1180339887498949 -0
3 22.76393202250021 7.7639320225002102 -0.49999999999999994 0 0 -1 0.70710678118654635 0.70710678118654868 0 0.70710678118654868 -0.70710678118654635 0 1.4999999999999996
1.1071487177940904
10 5.0341395347813318 7.5322310795778407 -1.1180339887498949 -0
3 22.76393202250021 7.7639320225002102 0 0 0 -1 0.70710678118654757 0.70710678118654757 0 0.70710678118654757 -0.70710678118654757 0 0.499999999999999
-1.1071487177940904
1 25.447213595499957 9.7763932022500217 0.49999999999999994 0.89442719099991663 -0.44721359549995654 0 0 0 1 -0.44721359549995654 -0.89442719099991663 0 
1 25.447213595499957 9.7763932022500217 -0.49999999999999994 -0.4000000000000003 0.19999999999999937 -0.89442719099991597 0.80000000000000049 -0.39999999999999919 -0.44721359549995793 -0.44721359549995687 -0.89442719099991641 2.2204460492503126e-16 
1 24.552786404500043 10.223606797749978 0 -0.4000000000000003 0.19999999999999937 0.89442719099991597 -0.80000000000000049 0.39999999999999919 -0.44721359549995793 -0.44721359549995687 -0.89442719099991641 -2.2204460492503126e-16 
1 20 -1.7763568394002505e-15 0 -0.44721359549995704 -0.89442719099991641 0 0 0 1 -0.89442719099991641 0.44721359549995704 0 
Triangulations 0

TShapes 117
Ve
1.01e-07
0 0.5 0.5
0 0

0101101
*
Ve
1.01e-07
0 0.5 -0.5
0 0

0101101
*
Ed
 1.00005e-07 1 1 0
1  1 0 -1 -0
2  1 2 0 -1 -0
0

0101000
-117 0 +116 0 *
Ve
1.01e-07
0 -0.5 1.11022302462516e-16
0 0

0101101
*
Ed
 1.00005e-07 1 1 0
1  2 0 -1.11803398874989 -0
2  2 3 0 -1.11803398874989 -0
0

0101000
-114 0 +117 0 *
Ed
 1.00005e-07 1 1 0
1  3 0 -1.11803398874989 -0
2  3 4 0 -1.11803398874989 -0
0

0101000
-116 0 +114 0 *
Wi

0101100
+115 0 +113 0 +112 0 *
Fa
0  1e-07 1 0

0101000
+111 0 *
Ve
1.01e-07
9.5857864376269 0.5 -0.5
0 0

0101101
*
Ed
 1e-07 1 1 0
1  4 0 0 9.5857864376269
2  4 2 0 0 9.5857864376269
2  5 4 0 0 9.5857864376269
0

0101000
+116 0 -109 0 *
Ve
1.01e-07
9.5857864376269 0.5 0.5
0 0

0101101
*
Ed
 1e-07 1 1 0
1  5 0 0 9.5857864376269
2  6 2 0 0 9.5857864376269
2  7 3 0 0 9.5857864376269
0

0101000
+117 0 -107 0 *
Ed
 1e-07 1 1 0
1  6 0 -1 -0
2  8 5 0 -1 -0
2  9 2 0 -1 -0
4 G1 5 0 2 0
0

0101000
+109 0 -107 0 *
Wi

0101100
-108 0 +115 0 +106 0 -105 0 *
Fa
0  1e-07 2 0

0101000
+104 0 *
Ve
1.01e-07
9.93933982822018 0.646446609406726 -0.5
0 0

0101101
*
Ed
 1e-07 1 1 0
1  7 0 5.89048622548086 6.67588438887831
2  10 5 0 5.89048622548086 6.67588438887831
2  11 6 0 5.89048622548086 6.67588438887831
0

0101000
+109 0 -102 0 *
Ve
1.01e-07
9.93933982822018 0.646446609406726 0.5
0 0

0101101
*
Ed
 1e-07 1 1 0
1  8 0 5.89048622548086 6.67588438887831
2  12 5 0 5.89048622548086 6.67588438887831
2  13 7 0 5.89048622548086 6.67588438887831
0

0101000
+107 0 -100 0 *
Ed
 1e-07 1 1 0
1  9 0 -1 -0
2  14 5 0 -1 -0
2  15 8 0 -1 -0
4 G1 8 0 5 0
0

0101000
+102 0 -100 0 *
Wi

0101100
+101 0 -105 0 -99 0 +98 0 *
Fa
0  1e-07 5 0

0101000
+97 0 *
Ve
1.01e-07
14.5316989754666 5.23880575665313 -0.5
0 0

0101101
*
Ed
 1e-07 1 1 0
1  10 0 0.414213562373095 6.9087901516971
2  16 8 0 0.414213562373095 6.9087901516971
2  17 9 0 0.414213562373095 6.9087901516971
0

0101000
+102 0 -95 0 *
Ve
1.01e-07
14.5316989754666 5.23880575665313 0.5
0 0

0101101
*
Ed
 1e-07 1 1 0
1  11 0 0.414213562373095 6.9087901516971
2  18 8 0 0.414213562373095 6.9087901516971
2  19 10 0 0.414213562373095 6.9087901516971
0

0101000
+100 0 -93 0 *
Ed
 1e-07 1 1 0
1  12 0 -1 -0
2  20 11 0 -1 -0
2  21 8 0 -1 -0
4 G1 11 0 8 0
0

0101000
+95 0 -93 0 *
Wi

0101100
-94 0 +98 0 +92 0 -91 0 *
Fa
0  1e-07 8 0

0101000
+90 0 *
Ve
1.01e-07
14.9215387539965 5.51978637137318 -0.5
0 0

0101101
*
Ed
 1e-07 1 1 0
1  13 0 6.12231002998127 6.44406058437791
2  22 11 0 6.12231002998127 6.44406058437791
2  23 12 0 6.12231002998127 6.44406058437791
0

0101000
+95 0 -88 0 *
Ve
1.01e-07
14.9215387539965 5.51978637137318 0.5
0 0

0101101
*
Ed
 1e-07 1 1 0
1  14 0 6.12231002998127 6.44406058437791
2  24 11 0 6.12231002998127 6.44406058437791
2  25 13 0 6.12231002998127 6.44406058437791
0

0101000
+93 0 -86 0 *
Ed
 1e-07 1 1 0
1  15 0 0 1
2  26 11 0 0 1
2  27 14 0 0 1
4 G1 14 0 11 0
0

0101000
+86 0 -88 0 *
Wi

0101100
-87 0 +91 0 +85 0 +84 0 *
Fa
0  1e-07 11 0

0101000
+83 0 *
Ve
1.01e-07
22.0931116292503 9.10557280900009 -0.5
0 0

0101101
*
Ed
 1e-07 1 1 0
1  16 0 0.162277660168379 8.18033988749895
2  28 14 0 0.162277660168379 8.18033988749895
2  29 15 0 0.162277660168379 8.18033988749895
0

0101000
+88 0 -81 0 *
Ve
1.01e-07
22.0931116292503 9.10557280900009 0.5
0 0

0101101
*
Ed
 1e-07 1 1 0
1  17 0 0.162277660168379 8.18033988749895
2  30 14 0 0.162277660168379 8.18033988749895
2  31 16 0 0.162277660168379 8.18033988749895
0

0101000
+86 0 -79 0 *
Ed
 1e-07 1 1 0
1  18 0 -1 -0
2  32 17 0 -1 -0
2  33 14 0 -1 -0
4 G1 17 0 14 0
0

0101000
+81 0 -79 0 *
Wi

0101100
-80 0 -84 0 +78 0 -77 0 *
Fa
0  1e-07 14 0

0101000
+76 0 *
Ve
1.01e-07
24.1055728090001 7.09311162925027 -0.5
0 0

0101101
*
Ed
 1e-07 1 1 0
1  19 0 5.03413953478133 7.53223107957784
2  34 17 0 5.03413953478133 7.53223107957784
2  35 18 0 5.03413953478133 7.53223107957784
0

0101000
+81 0 -74 0 *
Ve
1.01e-07
24.1055728090001 7.09311162925027 0.5
0 0

0101101
*
Ed
 1e-07 1 1 0
1  20 0 5.03413953478133 7.53223107957784
2  36 17 0 5.03413953478133 7.53223107957784
2  37 19 0 5.03413953478133 7.53223107957784
0

0101000
+79 0 -72 0 *
Ed
 1e-07 1 1 0
1  21 0 0 1
2  38 17 0 0 1
2  39 20 0 0 1
4 G1 20 0 17 0
0

0101000
+72 0 -74 0 *
Wi

0101100
-73 0 +77 0 +71 0 +70 0 *
Fa
0  1e-07 17 0

0101000
+69 0 *
Ve
1.01e-07
20.4472135955 -0.223606797749985 -0.499999999999997
0 0

0101101
*
Ed
 1e-07 1 1 0
1  22 0 3 11.1803398874989
2  40 20 0 3 11.1803398874989
2  41 21 0 3 11.1803398874989
0

0101000
+74 0 -67 0 *
Ve
1.01e-07
20.4472135955 -0.223606797749985 0.499999999999998
0 0

0101101
*
Ed
 1e-07 1 1 0
1  23 0 3 11.1803398874989
2  42 20 0 3 11.1803398874989
2  43 22 0 3 11.1803398874989
0

0101000
+72 0 -65 0 *
Ed
 1.00005e-07 1 1 0
1  24 0 -1 -0
2  44 20 0 -1 -0
0

0101000
-65 0 +67 0 *
Wi

0101100
-66 0 -70 0 +64 0 -63 0 *
Fa
0  1e-07 20 0

0101000
+62 0 *
Ve
1.01e-07
9.5857864376269 -0.5 0
0 0

0101101
*
Ed
 1e-07 1 1 0
1  25 0 0 9.5857864376269
2  45 3 0 0 9.5857864376269
2  46 4 0 0 9.5857864376269
0

0101000
+114 0 -60 0 *
Ed
 1e-07 1 1 0
1  26 0 -1.11803398874989 -0
2  47 7 0 -1.11803398874989 -0
2  48 3 0 -1.11803398874989 -0
4 G1 7 0 3 0
0

0101000
+107 0 -60 0 *
Wi

0101100
-106 0 +113 0 +59 0 -58 0 *
Fa
0  1e-07 3 0

0101000
+57 0 *
Ve
1.01e-07
10.6464466094067 -0.0606601717798207 0
0 0

0101101
*
Ed
 1e-07 1 1 0
1  27 0 5.89048622548086 6.67588438887831
2  49 7 0 5.89048622548086 6.67588438887831
2  50 6 0 5.89048622548086 6.67588438887831
0

0101000
+60 0 -55 0 *
Ed
 1e-07 1 1 0
1  28 0 0 1.11803398874989
2  51 7 0 0 1.11803398874989
2  52 10 0 0 1.11803398874989
4 G1 10 0 7 0
0

0101000
+55 0 -100 0 *
Wi

0101100
-99 0 +58 0 +54 0 +53 0 *
Fa
0  1e-07 7 0

0101000
+52 0 *
Ve
1.01e-07
15.2388057566531 4.53169897546658 0
0 0

0101101
*
Ed
 1e-07 1 1 0
1  29 0 0.414213562373095 6.9087901516971
2  53 10 0 0.414213562373095 6.9087901516971
2  54 9 0 0.414213562373095 6.9087901516971
0

0101000
+55 0 -50 0 *
Ed
 1e-07 1 1 0
1  30 0 -1.11803398874989 -0
2  55 13 0 -1.11803398874989 -0
2  56 10 0 -1.11803398874989 -0
4 G1 13 0 10 0
0

0101000
+93 0 -50 0 *
Wi

0101100
-92 0 -53 0 +49 0 -48 0 *
Fa
0  1e-07 10 0

0101000
+47 0 *
Ve
1.01e-07
15.3687523494964 4.62535918037326 0
0 0

0101101
*
Ed
 1e-07 1 1 0
1  31 0 6.12231002998127 6.44406058437791
2  57 13 0 6.12231002998127 6.44406058437791
2  58 12 0 6.12231002998127 6.44406058437791
0

0101000
+50 0 -45 0 *
Ed
 1e-07 1 1 0
1  32 0 -1.11803398874989 -0
2  59 13 0 -1.11803398874989 -0
2  60 16 0 -1.11803398874989 -0
4 G1 16 0 13 0
0

0101000
+86 0 -45 0 *
Wi

0101100
+85 0 -48 0 -44 0 +43 0 *
Fa
0  1e-07 13 0

0101000
+42 0 *
Ve
1.01e-07
22.5403252247502 8.21114561800017 0
0 0

0101101
*
Ed
 1e-07 1 1 0
1  33 0 0.162277660168379 8.18033988749895
2  61 16 0 0.162277660168379 8.18033988749895
2  62 15 0 0.162277660168379 8.18033988749895
0

0101000
+45 0 -40 0 *
Ed
 1e-07 1 1 0
1  34 0 -1.11803398874989 -0
2  63 19 0 -1.11803398874989 -0
2  64 16 0 -1.11803398874989 -0
4 G1 19 0 16 0
0

0101000
+79 0 -40 0 *
Wi

0101100
-78 0 +43 0 +39 0 -38 0 *
Fa
0  1e-07 16 0

0101000
+37 0 *
Ve
1.01e-07
23.2111456180002 7.54032522475023 0
0 0

0101101
*
Ed
 1e-07 1 1 0
1  35 0 5.03413953478133 7.53223107957784
2  65 19 0 5.03413953478133 7.53223107957784
2  66 18 0 5.03413953478133 7.53223107957784
0

0101000
+40 0 -35 0 *
Ed
 1e-07 1 1 0
1  36 0 -1.11803398874989 -0
2  67 19 0 -1.11803398874989 -0
2  68 22 0 -1.11803398874989 -0
4 G1 22 0 19 0
0

0101000
+72 0 -35 0 *
Wi

0101100
+71 0 -38 0 -34 0 +33 0 *
Fa
0  1e-07 19 0

0101000
+32 0 *
Ve
1.01e-07
19.5527864045001 0.223606797749971 2.4980018054066e-15
0 0

0101101
*
Ed
 1e-07 1 1 0
1  37 0 3 11.1803398874989
2  69 22 0 3 11.1803398874989
2  70 21 0 3 11.1803398874989
0

0101000
+35 0 -30 0 *
Ed
 1.00005e-07 1 1 0
1  38 0 -1.11803398874989 -0
2  71 22 0 -1.11803398874989 -0
0

0101000
-30 0 +65 0 *
Wi

0101100
-64 0 +33 0 +29 0 -28 0 *
Fa
0  1e-07 22 0

0101000
+27 0 *
Ed
 1e-07 1 1 0
1  39 0 -1.11803398874989 -0
2  72 6 0 -1.11803398874989 -0
2  73 4 0 -1.11803398874989 -0
4 G1 6 0 4 0
0

0101000
+60 0 -109 0 *
Wi

0101100
-59 0 +112 0 +108 0 -25 0 *
Fa
0  1e-07 4 0

0101000
+24 0 *
Ed
 1e-07 1 1 0
1  40 0 0 1.11803398874989
2  74 6 0 0 1.11803398874989
2  75 9 0 0 1.11803398874989
4 G1 9 0 6 0
0

0101000
+102 0 -55 0 *
Wi

0101100
-54 0 +25 0 +101 0 +22 0 *
Fa
0  1e-07 6 0

0101000
+21 0 *
Ed
 1e-07 1 1 0
1  41 0 -1.11803398874989 -0
2  76 12 0 -1.11803398874989 -0
2  77 9 0 -1.11803398874989 -0
4 G1 12 0 9 0
0

0101000
+50 0 -95 0 *
Wi

0101100
-49 0 -22 0 +94 0 -19 0 *
Fa
0  1e-07 9 0

0101000
+18 0 *
Ed
 1e-07 1 1 0
1  42 0 -1.11803398874989 -0
2  78 12 0 -1.11803398874989 -0
2  79 15 0 -1.11803398874989 -0
4 G1 15 0 12 0
0

0101000
+45 0 -88 0 *
Wi

0101100
+44 0 -19 0 -87 0 +16 0 *
Fa
0  1e-07 12 0

0101000
+15 0 *
Ed
 1e-07 1 1 0
1  43 0 -1.11803398874989 -0
2  80 18 0 -1.11803398874989 -0
2  81 15 0 -1.11803398874989 -0
4 G1 18 0 15 0
0

0101000
+40 0 -81 0 *
Wi

0101100
-39 0 +16 0 +80 0 -13 0 *
Fa
0  1e-07 15 0

0101000
+12 0 *
Ed
 1e-07 1 1 0
1  44 0 -1.11803398874989 -0
2  82 18 0 -1.11803398874989 -0
2  83 21 0 -1.11803398874989 -0
4 G1 21 0 18 0
0

0101000
+35 0 -74 0 *
Wi

0101100
+34 0 -13 0 -73 0 +10 0 *
Fa
0  1e-07 18 0

0101000
+9 0 *
Ed
 1.00005e-07 1 1 0
1  45 0 -1.11803398874989 -0
2  84 21 0 -1.11803398874989 -0
0

0101000
-67 0 +30 0 *
Wi

0101100
-29 0 +10 0 +66 0 -7 0 *
Fa
0  1e-07 21 0

0101000
+6 0 *
Wi

0101100
+63 0 +28 0 +7 0 *
Fa
0  1e-07 23 0

0101000
+4 0 *
Sh

0101100
-110 0 +103 0 -96 0 +89 0 +82 0 +75 0 +68 0 +61 0 +56 0 +51 0 
+46 0 -41 0 +36 0 -31 0 +26 0 +23 0 +20 0 +17 0 -14 0 +11 0 
-8 0 +5 0 +3 0 *
So

1100000
+2 0 *

+1 1  