
CASCADE Topology V1, (c) Matra-Datavision
Locations 1
1
              1               0               0               0 
              0               1               0               0 
              0               0               1               0 
Curve2ds 56
1 0 0 1 0 
1 0 0 1 0 
8 0 9.5857864376269042
1 6.2831853071795862 0 0 1 
1 0 0 0 1 
1 0 9.5857864376269042 1 0 
8 0 6.2831853071795862
1 5.8904862254808616 0 0 1 
1 0 0 1 0 
8 5.8904862254808616 6.6758843888783108
1 0 6.2831853071795862 1 0 
1 6.6758843888783108 0 0 1 
8 0 6.2831853071795862
1 0 0.41421356237309509 1 0 
8 0.41421356237309509 6.9087901516970955
1 6.2831853071795862 0 0 1 
1 0 0 0 1 
1 0 6.9087901516970955 1 0 
8 0 6.2831853071795862
1 6.1223100299812652 0 0 1 
1 0 0 1 0 
8 6.1223100299812652 6.4440605843779073
1 0 6.2831853071795862 1 0 
1 6.4440605843779073 0 0 1 
8 0 6.2831853071795862
1 0 0.16227766016837852 1 0 
8 0.16227766016837852 8.1803398874989508
1 6.2831853071795862 0 0 1 
1 0 0 0 1 
1 0 8.1803398874989508 1 0 
8 0 6.2831853071795862
1 5.0341395347813318 0 0 1 
1 0 0 1 0 
8 5.0341395347813318 7.5322310795778407
1 0 6.2831853071795862 1 0 
1 7.5322310795778407 0 0 1 
8 0 6.2831853071795862
1 0 3.0000000000000004 1 0 
8 3.0000000000000004 11.180339887498949
1 6.2831853071795862 0 0 1 
1 0 0 0 1 
1 0 11.180339887498949 1 0 
8 0 9.5857864376269042
1 6.2831853071795862 0 0 1 
1 0 0 0 1 
1 0 9.5857864376269042 1 0 
8 0 6.2831853071795862
1 5.8904862254808616 0 0 1 
1 0 0 1 0 
8 5.8904862254808616 6.6758843888783108
1 0 6.2831853071795862 1 0 
1 6.6758843888783108 0 0 1 
8 0 6.2831853071795862
1 0 0.41421356237309509 1 0 
8 0.41421356237309509 6.9087901516970955
1 6.2831853071795862 0 0 1 
1 0 0 0 1 
1 0 6.9087901516970955 1 0 
8 0 6.2831853071795862
1 6.1223100299812652 0 0 1 
1 0 0 1 0 
8 6.1223100299812652 6.4440605843779073
1 0 6.2831853071795862 1 0 
1 6.4440605843779073 0 0 1 
8 0 6.2831853071795862
1 0 0.16227766016837852 1 0 
8 0.16227766016837852 8.1803398874989508
1 6.2831853071795862 0 0 1 
1 0 0 0 1 
1 0 8.1803398874989508 1 0 
8 0 6.2831853071795862
1 5.0341395347813318 0 0 1 
1 0 0 1 0 
8 5.0341395347813318 7.5322310795778407
1 0 6.2831853071795862 1 0 
1 7.5322310795778407 0 0 1 
8 0 6.2831853071795862
1 0 3.0000000000000004 1 0 
8 3.0000000000000004 11.180339887498949
1 6.2831853071795862 0 0 1 
1 0 0 0 1 
1 0 11.180339887498949 1 0 
Curves 30
3 0 0 0 1 0 0 0 -1 1.1102230246251565e-16 0 -1.1102230246251565e-16 -1 0.5 0.25
3 0 0 0 -1 -0 0 0 -1 1.1102230246251565e-16 -0 1.1102230246251565e-16 1 0.40000000000000002 0.14999999999999999
1 0 -0.5 5.5511151231257827e-17 1 0 0 
3 9.5857864376269042 0 0 1 0 0 0 -1 1.1102230246251565e-16 0 -1.1102230246251565e-16 -1 0.5 0.25
2 9.5857864376269042 0.99999999999999989 5.5511151231257827e-17 -0 0 1 0.38268343236509028 -0.92387953251128663 0 0.92387953251128663 0.38268343236509028 0 1.5
3 10.292893218813452 0.29289321881345209 0 0.70710678118654702 0.70710678118654813 0 0.70710678118654813 -0.70710678118654702 1.1102230246251565e-16 7.850462293418882e-17 -7.8504622934188697e-17 -1 0.5 0.25
1 10.353553390593275 -0.35355339059327345 5.5511151231257827e-17 0.70710678118654779 0.70710678118654746 0 
3 14.885252366059856 4.8852523660598521 0 0.70710678118654691 0.70710678118654824 0 0.70710678118654824 -0.70710678118654691 1.1102230246251565e-16 7.8504622934188832e-17 -7.8504622934188684e-17 -1 0.5 0.25
2 15.5923591472464 4.1781455848733051 5.5511151231257827e-17 0 0 -1 -0.58471028466376374 0.81124218517556168 0 0.81124218517556168 0.58471028466376374 0 0.50000000000000022
3 15.145145551746445 5.07257277587322 0 0.89442719099991541 0.44721359549995893 0 0.44721359549995893 -0.89442719099991541 1.1102230246251565e-16 4.965068306494557e-17 -9.9301366129890868e-17 -1 0.5 0.25
1 15.22360679774998 4.5527864045000426 5.5511151231257827e-17 0.89442719099991597 0.44721359549995798 0 
3 22.316718427000254 8.6583592135001268 0 0.89442719099991541 0.44721359549995887 0 0.44721359549995887 -0.89442719099991541 1.1102230246251565e-16 4.9650683064945563e-17 -9.9301366129890868e-17 -1 0.5 0.25
2 22.76393202250021 7.7639320225002102 5.5511151231257821e-17 0 0 -1 0.70710678118654757 0.70710678118654757 0 0.70710678118654757 -0.70710678118654757 0 0.499999999999999
3 23.658359213500127 7.3167184270002537 0 -0.44721359549995698 -0.89442719099991652 0 -0.89442719099991652 0.44721359549995698 1.1102230246251565e-16 -9.9301366129890991e-17 4.9650683064945354e-17 -1 0.49999999999999994 0.24999999999999997
1 24.552786404500043 10.223606797749978 5.5511151231257821e-17 -0.44721359549995654 -0.89442719099991663 0 
3 20.000000000000014 -8.8817841970012523e-15 0 -0.44721359549995704 -0.89442719099991641 0 -0.89442719099991641 0.44721359549995704 1.1102230246251565e-16 -9.9301366129890979e-17 4.965068306494536e-17 -1 0.49999999999999994 0.24999999999999997
1 0 -0.40000000000000002 4.4408920985006264e-17 1 0 0 
3 9.5857864376269042 0 0 -1 -0 0 0 -1 1.1102230246251565e-16 -0 1.1102230246251565e-16 1 0.40000000000000002 0.14999999999999999
2 9.5857864376269042 0.99999999999999989 4.4408920985006264e-17 -0 0 1 0.38268343236508978 -0.92387953251128685 0 0.92387953251128685 0.38268343236508978 0 1.3999999999999995
3 10.292893218813452 0.29289321881345209 0 -0.70710678118654702 -0.70710678118654813 0 0.70710678118654813 -0.70710678118654702 1.1102230246251565e-16 -7.850462293418882e-17 7.8504622934188697e-17 1 0.40000000000000002 0.14999999999999999
1 10.282842712474618 -0.28284271247461878 4.4408920985006264e-17 0.70710678118654779 0.70710678118654746 0 
3 14.885252366059856 4.8852523660598521 0 -0.70710678118654691 -0.70710678118654824 0 0.70710678118654824 -0.70710678118654691 1.1102230246251565e-16 -7.8504622934188832e-17 7.8504622934188684e-17 1 0.40000000000000002 0.14999999999999999
2 15.5923591472464 4.1781455848733051 4.4408920985006264e-17 0 0 -1 -0.5847102846637624 0.81124218517556279 0 0.81124218517556279 0.5847102846637624 0 0.5999999999999992
3 15.145145551746445 5.07257277587322 0 -0.89442719099991541 -0.44721359549995893 0 0.44721359549995893 -0.89442719099991541 1.1102230246251565e-16 -4.965068306494557e-17 9.9301366129890868e-17 1 0.40000000000000002 0.14999999999999999
1 15.178885438199984 4.6422291236000337 4.4408920985006264e-17 0.89442719099991597 0.44721359549995798 0 
3 22.316718427000254 8.6583592135001268 0 -0.89442719099991541 -0.44721359549995887 0 0.44721359549995887 -0.89442719099991541 1.1102230246251565e-16 -4.9650683064945563e-17 9.9301366129890868e-17 1 0.40000000000000002 0.14999999999999999
2 22.76393202250021 7.7639320225002102 4.4408920985006258e-17 0 0 -1 0.70710678118654602 0.70710678118654902 0 0.70710678118654902 -0.70710678118654602 0 0.60000000000000009
3 23.658359213500127 7.3167184270002537 0 0.44721359549995698 0.89442719099991652 0 -0.89442719099991652 0.44721359549995698 1.1102230246251565e-16 9.9301366129890991e-17 -4.9650683064945354e-17 1 0.39999999999999997 0.14999999999999997
1 24.642229123600032 10.178885438199982 4.4408920985006258e-17 -0.44721359549995654 -0.89442719099991663 0 
3 20.000000000000014 -8.8817841970012523e-15 0 0.44721359549995704 0.89442719099991641 0 -0.89442719099991641 0.44721359549995704 1.1102230246251565e-16 9.9301366129890979e-17 -4.965068306494536e-17 1 0.39999999999999997 0.14999999999999997
Polygon3D 0
PolygonOnTriangulations 0
Surfaces 16
1 0 0 0 1 0 0 0 0 1 0 -1 0 
10 0 6.2831853071795862 0 9.5857864376269042
6 1 0 0 
3 0 0 0 1 0 0 0 -1 1.1102230246251565e-16 0 -1.1102230246251565e-16 -1 0.5 0.25
10 0 6.2831853071795862 0 9.5857864376269042
6 1 0 0 
3 0 0 0 -1 -0 0 0 -1 1.1102230246251565e-16 -0 1.1102230246251565e-16 1 0.40000000000000002 0.14999999999999999
10 5.8904862254808616 6.6758843888783108 0 6.2831853071795862
7 9.5857864376269042 0.99999999999999989 0 -0 0 1 
3 9.9684698699919938 0.076120467488713373 0 0.92387953251128652 0.38268343236509039 0 0.38268343236509039 -0.92387953251128652 1.1102230246251565e-16 4.2486395775430718e-17 -1.0257123289739562e-16 -1 0.5 0.25
10 0 6.2831853071795862 0.41421356237309509 6.9087901516970955
6 0.70710678118654779 0.70710678118654746 0 
3 10 0 0 0.70710678118654691 0.70710678118654824 0 0.70710678118654824 -0.70710678118654691 1.1102230246251565e-16 7.8504622934188832e-17 -7.8504622934188684e-17 -1 0.5 0.25
10 6.1223100299812652 6.4440605843779073 0 6.2831853071795862
7 15.5923591472464 4.1781455848733051 0 0 0 -1 
3 15.007648862582636 4.9893877700488662 0 0.81124218517556046 0.58471028466376562 0 0.58471028466376562 -0.81124218517556046 1.1102230246251565e-16 6.4915882076884215e-17 -9.0065975252913206e-17 -1 0.5 0.25
10 0 6.2831853071795862 0.16227766016837852 8.1803398874989508
6 0.89442719099991597 0.44721359549995798 0 
3 15 5 0 0.89442719099991541 0.44721359549995887 0 0.44721359549995887 -0.89442719099991541 1.1102230246251565e-16 4.9650683064945563e-17 -9.9301366129890868e-17 -1 0.5 0.25
10 5.0341395347813318 7.5322310795778407 0 6.2831853071795862
7 22.76393202250021 7.7639320225002102 0 0 0 -1 
3 23.471038803686756 8.4710388036867581 0 0.70710678118654813 -0.70710678118654702 0 -0.70710678118654702 -0.70710678118654813 1.1102230246251565e-16 -7.8504622934188697e-17 -7.850462293418882e-17 -1 0.49999999999999994 0.24999999999999997
10 0 6.2831853071795862 3.0000000000000004 11.180339887498949
6 -0.44721359549995654 -0.89442719099991663 0 
3 25 10 0 -0.44721359549995704 -0.89442719099991641 0 -0.89442719099991641 0.44721359549995704 1.1102230246251565e-16 -9.9301366129890979e-17 4.965068306494536e-17 -1 0.49999999999999994 0.24999999999999997
10 5.8904862254808616 6.6758843888783108 0 6.2831853071795862
7 9.5857864376269042 0.99999999999999989 0 -0 0 1 
3 9.9684698699919938 0.076120467488713373 0 -0.92387953251128652 -0.38268343236509039 0 0.38268343236509039 -0.92387953251128652 1.1102230246251565e-16 -4.2486395775430718e-17 1.0257123289739562e-16 1 0.40000000000000002 0.14999999999999999
10 0 6.2831853071795862 0.41421356237309509 6.9087901516970955
6 0.70710678118654779 0.70710678118654746 0 
3 10 0 0 -0.70710678118654691 -0.70710678118654824 0 0.70710678118654824 -0.70710678118654691 1.1102230246251565e-16 -7.8504622934188832e-17 7.8504622934188684e-17 1 0.40000000000000002 0.14999999999999999
10 6.1223100299812652 6.4440605843779073 0 6.2831853071795862
7 15.5923591472464 4.1781455848733051 0 0 0 -1 
3 15.007648862582636 4.9893877700488662 0 -0.81124218517556046 -0.58471028466376562 0 0.58471028466376562 -0.81124218517556046 1.1102230246251565e-16 -6.4915882076884215e-17 9.0065975252913206e-17 1 0.40000000000000002 0.14999999999999999
10 0 6.2831853071795862 0.16227766016837852 8.1803398874989508
6 0.89442719099991597 0.44721359549995798 0 
3 15 5 0 -0.89442719099991541 -0.44721359549995887 0 0.44721359549995887 -0.89442719099991541 1.1102230246251565e-16 -4.9650683064945563e-17 9.9301366129890868e-17 1 0.40000000000000002 0.14999999999999999
10 5.0341395347813318 7.5322310795778407 0 6.2831853071795862
7 22.76393202250021 7.7639320225002102 0 0 0 -1 
3 23.471038803686756 8.4710388036867581 0 -0.70710678118654813 0.70710678118654702 0 -0.70710678118654702 -0.70710678118654813 1.1102230246251565e-16 7.8504622934188697e-17 7.850462293418882e-17 1 0.39999999999999997 0.14999999999999997
10 0 6.2831853071795862 3.0000000000000004 11.180339887498949
6 -0.44721359549995654 -0.89442719099991663 0 
3 25 10 0 0.44721359549995704 0.89442719099991641 0 -0.89442719099991641 0.44721359549995704 1.1102230246251565e-16 9.9301366129890979e-17 -4.965068306494536e-17 1 0.39999999999999997 0.14999999999999997
1 20 -1.7763568394002505e-15 0 -0.44721359549995704 -0.89442719099991641 0 0 0 1 -0.89442719099991641 0.44721359549995704 0 
Triangulations 0

TShapes 82
Ve
1e-07
0 -0.5 1.16743491188625e-16
0 0

0101101
*
Ed
 1e-07 1 1 0
1  1 0 0 6.28318530717959
2  1 2 0 0 6.28318530717959
0

0101000
+82 0 -82 0 *
Wi

0101100
+81 0 *
Ve
1.00005e-07
0 -0.4 7.66951701058567e-18
0 0

0101101
*
Ed
 1.00005e-07 1 1 0
1  2 0 0 6.28318530717959
2  2 3 0 0 6.28318530717959
0

0101000
-79 0 +79 0 *
Wi

0101100
+78 0 *
Fa
0  1e-07 1 0

0101000
+80 0 +77 0 *
Ve
1.00000000055511e-07
9.5857864376269 -0.5 5.55111512312578e-17
0 0

0101101
*
Ed
 1e-07 1 1 0
1  3 0 0 9.5857864376269
3  3 4G1 2 0 0 9.5857864376269
0

0101000
+82 0 -75 0 *
Ed
 1e-07 1 1 0
1  4 0 0 6.28318530717959
2  5 2 0 0 6.28318530717959
2  6 4 0 0 6.28318530717959
4 G1 4 0 2 0
0

0101000
+75 0 -75 0 *
Wi

0101100
+74 0 +81 0 -74 0 -73 0 *
Fa
0  1e-07 2 0

0101000
+72 0 *
Ve
1.00000000222045e-07
10.6464466094067 -0.0606601717798207 5.55111512312578e-17
0 0

0101101
*
Ed
 1e-07 1 1 0
1  5 0 5.89048622548086 6.67588438887831
3  7 8G1 4 0 5.89048622548086 6.67588438887831
0

0101000
+75 0 -70 0 *
Ed
 1e-07 1 1 0
1  6 0 0 6.28318530717959
2  9 4 0 0 6.28318530717959
2  10 5 0 0 6.28318530717959
4 G1 5 0 4 0
0

0101000
+70 0 -70 0 *
Wi

0101100
+69 0 -73 0 -69 0 +68 0 *
Fa
0  1e-07 4 0

0101000
+67 0 *
Ve
1e-07
15.2388057566531 4.53169897546658 5.55111512312578e-17
0 0

0101101
*
Ed
 1e-07 1 1 0
1  7 0 0.414213562373095 6.9087901516971
3  11 12G1 5 0 0.414213562373095 6.9087901516971
0

0101000
+70 0 -65 0 *
Ed
 1e-07 1 1 0
1  8 0 0 6.28318530717959
2  13 5 0 0 6.28318530717959
2  14 6 0 0 6.28318530717959
4 G1 6 0 5 0
0

0101000
+65 0 -65 0 *
Wi

0101100
+64 0 +68 0 -64 0 -63 0 *
Fa
0  1e-07 5 0

0101000
+62 0 *
Ve
1e-07
15.3687523494964 4.62535918037326 5.55111512312578e-17
0 0

0101101
*
Ed
 1e-07 1 1 0
1  9 0 6.12231002998127 6.44406058437791
3  15 16G1 6 0 6.12231002998127 6.44406058437791
0

0101000
+65 0 -60 0 *
Ed
 1e-07 1 1 0
1  10 0 0 6.28318530717959
2  17 6 0 0 6.28318530717959
2  18 7 0 0 6.28318530717959
4 G1 7 0 6 0
0

0101000
+60 0 -60 0 *
Wi

0101100
+59 0 -63 0 -59 0 +58 0 *
Fa
0  1e-07 6 0

0101000
+57 0 *
Ve
1e-07
22.5403252247502 8.21114561800017 5.55111512312578e-17
0 0

0101101
*
Ed
 1e-07 1 1 0
1  11 0 0.162277660168379 8.18033988749895
3  19 20G1 7 0 0.162277660168379 8.18033988749895
0

0101000
+60 0 -55 0 *
Ed
 1e-07 1 1 0
1  12 0 0 6.28318530717959
2  21 7 0 0 6.28318530717959
2  22 8 0 0 6.28318530717959
4 G1 8 0 7 0
0

0101000
+55 0 -55 0 *
Wi

0101100
+54 0 +58 0 -54 0 -53 0 *
Fa
0  1e-07 7 0

0101000
+52 0 *
Ve
1.00000000444089e-07
23.2111456180002 7.54032522475023 5.55111512312578e-17
0 0

0101101
*
Ed
 1e-07 1 1 0
1  13 0 5.03413953478133 7.53223107957784
3  23 24G1 8 0 5.03413953478133 7.53223107957784
0

0101000
+55 0 -50 0 *
Ed
 1e-07 1 1 0
1  14 0 0 6.28318530717959
2  25 8 0 0 6.28318530717959
2  26 9 0 0 6.28318530717959
4 G1 9 0 8 0
0

0101000
+50 0 -50 0 *
Wi

0101100
+49 0 -53 0 -49 0 +48 0 *
Fa
0  1e-07 8 0

0101000
+47 0 *
Ve
1.00000000027756e-07
19.5527864045001 0.223606797749969 1.16743491188625e-16
0 0

0101101
*
Ed
 1e-07 1 1 0
1  15 0 3 11.1803398874989
3  27 28G1 9 0 3 11.1803398874989
0

0101000
+50 0 -45 0 *
Ed
 1e-07 1 1 0
1  16 0 0 6.28318530717959
2  29 9 0 0 6.28318530717959
0

0101000
+45 0 -45 0 *
Wi

0101100
+44 0 +48 0 -44 0 -43 0 *
Fa
0  1e-07 9 0

0101000
+42 0 *
Ve
1.00000000055511e-07
9.5857864376269 -0.4 4.44089209850063e-17
0 0

0101101
*
Ed
 1e-07 1 1 0
1  17 0 0 9.5857864376269
3  30 31G1 3 0 0 9.5857864376269
0

0101000
+79 0 -40 0 *
Ed
 1e-07 1 1 0
1  18 0 0 6.28318530717959
2  32 3 0 0 6.28318530717959
2  33 10 0 0 6.28318530717959
4 G1 10 0 3 0
0

0101000
+40 0 -40 0 *
Wi

0101100
+39 0 +78 0 -39 0 -38 0 *
Fa
0  1e-07 3 0

0101000
+37 0 *
Ve
1.00000000222045e-07
10.5757359312881 0.010050506338834 4.44089209850063e-17
0 0

0101101
*
Ed
 1e-07 1 1 0
1  19 0 5.89048622548086 6.67588438887831
3  34 35G1 10 0 5.89048622548086 6.67588438887831
0

0101000
+40 0 -35 0 *
Ed
 1e-07 1 1 0
1  20 0 0 6.28318530717959
2  36 10 0 0 6.28318530717959
2  37 11 0 0 6.28318530717959
4 G1 11 0 10 0
0

0101000
+35 0 -35 0 *
Wi

0101100
+34 0 -38 0 -34 0 +33 0 *
Fa
0  1e-07 10 0

0101000
+32 0 *
Ve
1e-07
15.1680950785345 4.60240965358523 4.44089209850063e-17
0 0

0101101
*
Ed
 1e-07 1 1 0
1  21 0 0.414213562373095 6.9087901516971
3  38 39G1 11 0 0.414213562373095 6.9087901516971
0

0101000
+35 0 -30 0 *
Ed
 1e-07 1 1 0
1  22 0 0 6.28318530717959
2  40 11 0 0 6.28318530717959
2  41 12 0 0 6.28318530717959
4 G1 12 0 11 0
0

0101000
+30 0 -30 0 *
Wi

0101100
+29 0 +33 0 -29 0 -28 0 *
Fa
0  1e-07 11 0

0101000
+27 0 *
Ve
1e-07
15.3240309899464 4.71480189947325 4.44089209850063e-17
0 0

0101101
*
Ed
 1e-07 1 1 0
1  23 0 6.12231002998127 6.44406058437791
3  42 43G1 12 0 6.12231002998127 6.44406058437791
0

0101000
+30 0 -25 0 *
Ed
 1e-07 1 1 0
1  24 0 0 6.28318530717959
2  44 12 0 0 6.28318530717959
2  45 13 0 0 6.28318530717959
4 G1 13 0 12 0
0

0101000
+25 0 -25 0 *
Wi

0101100
+24 0 -28 0 -24 0 +23 0 *
Fa
0  1e-07 12 0

0101000
+22 0 *
Ve
1e-07
22.4956038652002 8.30058833710016 4.44089209850063e-17
0 0

0101101
*
Ed
 1e-07 1 1 0
1  25 0 0.162277660168379 8.18033988749895
3  46 47G1 13 0 0.162277660168379 8.18033988749895
0

0101000
+25 0 -20 0 *
Ed
 1e-07 1 1 0
1  26 0 0 6.28318530717959
2  48 13 0 0 6.28318530717959
2  49 14 0 0 6.28318530717959
4 G1 14 0 13 0
0

0101000
+20 0 -20 0 *
Wi

0101100
+19 0 +23 0 -19 0 -18 0 *
Fa
0  1e-07 13 0

0101000
+17 0 *
Ve
1.00000000444089e-07
23.3005883371002 7.49560386520024 4.44089209850063e-17
0 0

0101101
*
Ed
 1e-07 1 1 0
1  27 0 5.03413953478133 7.53223107957784
3  50 51G1 14 0 5.03413953478133 7.53223107957784
0

0101000
+20 0 -15 0 *
Ed
 1e-07 1 1 0
1  28 0 0 6.28318530717959
2  52 14 0 0 6.28318530717959
2  53 15 0 0 6.28318530717959
4 G1 15 0 14 0
0

0101000
+15 0 -15 0 *
Wi

0101100
+14 0 -18 0 -14 0 +13 0 *
Fa
0  1e-07 14 0

0101000
+12 0 *
Ve
1.00005e-07
19.6422291236 0.178885438199973 7.66951701058567e-18
0 0

0101101
*
Ed
 1e-07 1 1 0
1  29 0 3 11.1803398874989
3  54 55G1 15 0 3 11.1803398874989
0

0101000
+15 0 -10 0 *
Ed
 1.00005e-07 1 1 0
1  30 0 0 6.28318530717959
2  56 15 0 0 6.28318530717959
0

0101000
-10 0 +10 0 *
Wi

0101100
+9 0 +13 0 -9 0 -8 0 *
Fa
0  1e-07 15 0

0101000
+7 0 *
Wi

0101100
+43 0 *
Wi

0101100
+8 0 *
Fa
0  1e-07 16 0

0101000
+5 0 +4 0 *
Sh

0101100
-76 0 +71 0 -66 0 +61 0 -56 0 +51 0 -46 0 +41 0 +36 0 -31 0 
+26 0 -21 0 +16 0 -11 0 +6 0 +3 0 *
So

1100000
+2 0 *

+1 1  