
CASCADE Topology V1, (c) Matra-Datavision
Locations 1
1
              1               0               0               0 
              0               1               0               0 
              0               0               1               0 
Curve2ds 28
1 0 0 1 0 
8 0 9.1715728752538102
1 6.2831853071795862 0 0 1 
1 0 0 0 1 
1 0 9.1715728752538102 1 0 
8 0 6.2831853071795862
1 5.8904862254808616 0 0 1 
1 0 0 1 0 
8 5.8904862254808616 6.6758843888783108
1 0 6.2831853071795862 1 0 
1 6.6758843888783108 0 0 1 
8 0 6.2831853071795862
1 0 0.82842712474618918 1 0 
8 0.82842712474618918 6.7465124915287156
1 6.2831853071795862 0 0 1 
1 0 0 0 1 
1 0 6.7465124915287156 1 0 
8 0 6.2831853071795862
1 6.1223100299812652 0 0 1 
1 0 0 1 0 
8 6.1223100299812652 6.4440605843779073
1 0 6.2831853071795862 1 0 
1 6.4440605843779073 0 0 1 
8 0 6.2831853071795862
1 0 0.32455532033675782 1 0 
8 0.32455532033675782 5.1803398874989481
1 6.2831853071795862 0 0 1 
1 0 0 0 1 
1 0 5.1803398874989481 1 0 
8 0 6.2831853071795862
1 5.0341395347813318 0 0 1 
1 0 0 1 0 
8 5.0341395347813318 7.5322310795778407
1 0 6.2831853071795862 1 0 
1 7.5322310795778407 0 0 1 
8 0 6.2831853071795862
1 0 6 1 0 
8 6 11.180339887498949
1 6.2831853071795862 0 0 1 
1 0 0 0 1 
1 0 11.180339887498949 1 0 
Curves 15
3 0 0 0 1 0 0 0 -0.93969262078590843 -0.34202014332566866 0 0.34202014332566866 -0.93969262078590843 1 0.5
1 0 -0.93969262078590843 -0.34202014332566866 1 0 0 
3 9.1715728752538102 0 0 1 0 0 0 -0.93969262078590843 -0.34202014332566866 0 0.34202014332566866 -0.93969262078590843 1 0.5
2 9.1715728752538102 1.9999999999999998 -0.34202014332566866 -0 0 1 0.38268343236509011 -0.92387953251128663 0 0.92387953251128663 0.38268343236509011 0 2.9396926207859084
3 10.585786437626904 0.58578643762690508 0 0.70710678118654702 0.70710678118654813 -2.7755575615628914e-17 0.66446302438867533 -0.66446302438867422 -0.34202014332566866 -0.24184476264797544 0.24184476264797503 -0.93969262078590843 1 0.5
1 10.664463024388676 -0.66446302438867411 -0.3420201433256686 0.70710678118654779 0.70710678118654746 0 
3 14.770504732119708 4.7705047321197043 0 0.70710678118654702 0.70710678118654813 0 0.66446302438867533 -0.66446302438867422 -0.34202014332566866 -0.24184476264797541 0.24184476264797503 -0.93969262078590843 0.99999999999999989 0.49999999999999994
2 16.1847182944928 3.3562911697466111 -0.3420201433256686 0 0 -1 -0.58471028466376396 0.81124218517556168 0 0.81124218517556168 0.58471028466376396 0 1.0603073792140918
3 15.290291103492885 5.1451455517464435 0 0.89442719099991552 0.44721359549995876 -2.7755575615628914e-17 0.42024331560644534 -0.84048663121288891 -0.34202014332566871 -0.1529560580300835 0.30591211606016627 -0.93969262078590843 0.99999999999999989 0.49999999999999994
1 15.420243315606445 4.1595133687871115 -0.3420201433256686 0.89442719099991597 0.44721359549995798 0 
3 19.633436854000504 7.3167184270002519 0 0.89442719099991552 0.44721359549995876 2.7755575615628914e-17 0.4202433156064454 -0.84048663121288891 -0.34202014332566866 -0.1529560580300835 0.30591211606016633 -0.93969262078590843 0.99999999999999978 0.49999999999999989
2 20.52786404500042 5.5278640450004204 -0.34202014332566855 0 0 -1 0.70710678118654846 0.70710678118654668 0 0.70710678118654668 -0.70710678118654846 0 1.0603073792140927
3 22.316718427000254 4.6334368540005038 0 -0.44721359549995721 -0.89442719099991641 -2.7755575615628914e-17 -0.84048663121288969 0.4202433156064439 -0.34202014332566866 0.30591211606016666 -0.15295605803008294 -0.93969262078590843 0.99999999999999967 0.49999999999999983
1 24.15951336878711 10.420243315606443 -0.34202014332566855 -0.44721359549995654 -0.89442719099991663 0 
3 20.000000000000014 -8.8817841970012523e-15 0 -0.44721359549995721 -0.8944271909999163 0 -0.84048663121288958 0.42024331560644396 -0.34202014332566866 0.30591211606016655 -0.15295605803008297 -0.93969262078590843 0.99999999999999967 0.49999999999999983
Polygon3D 0
PolygonOnTriangulations 0
Surfaces 9
1 0 0 0 1 0 0 0 0 1 0 -1 0 
10 0 6.2831853071795862 0 9.1715728752538102
6 1 0 0 
3 0 0 0 1 0 0 0 -0.93969262078590843 -0.34202014332566866 0 0.34202014332566866 -0.93969262078590843 1 0.5
10 5.8904862254808616 6.6758843888783108 0 6.2831853071795862
7 9.1715728752538102 1.9999999999999998 0 -0 0 1 
3 9.9369397399839894 0.15224093497742608 0 0.92387953251128652 0.3826834323650905 0 0.35960479749049878 -0.86816277919599072 -0.34202014332566866 -0.13088544238586705 0.31598541012516196 -0.93969262078590843 1 0.5
10 0 6.2831853071795862 0.82842712474618918 6.7465124915287156
6 0.70710678118654779 0.70710678118654746 0 
3 10 0 0 0.70710678118654702 0.70710678118654813 0 0.66446302438867533 -0.66446302438867422 -0.34202014332566866 -0.24184476264797541 0.24184476264797503 -0.93969262078590843 0.99999999999999989 0.49999999999999994
10 6.1223100299812652 6.4440605843779073 0 6.2831853071795862
7 16.1847182944928 3.3562911697466111 0 0 0 -1 
3 15.01529772516527 4.9787755400977334 0 0.81124218517556057 0.5847102846637654 0 0.54944793979616824 -0.76231829507970972 -0.34202014332566866 -0.19998269536469357 0.27746116844557384 -0.93969262078590843 0.99999999999999989 0.49999999999999994
10 0 6.2831853071795862 0.32455532033675782 5.1803398874989481
6 0.89442719099991597 0.44721359549995798 0 
3 15 5 0 0.89442719099991552 0.44721359549995876 2.7755575615628914e-17 0.4202433156064454 -0.84048663121288891 -0.34202014332566866 -0.1529560580300835 0.30591211606016633 -0.93969262078590843 0.99999999999999978 0.49999999999999989
10 5.0341395347813318 7.5322310795778407 0 6.2831853071795862
7 20.52786404500042 5.5278640450004204 0 0 0 -1 
3 21.942077607373516 6.9420776073735153 0 0.70710678118654802 -0.70710678118654713 2.7755575615628914e-17 -0.66446302438867433 -0.66446302438867522 -0.34202014332566866 0.24184476264797508 0.24184476264797539 -0.93969262078590843 0.99999999999999967 0.49999999999999983
10 0 6.2831853071795862 6 11.180339887498949
6 -0.44721359549995654 -0.89442719099991663 0 
3 25 10 0 -0.44721359549995721 -0.8944271909999163 0 -0.84048663121288958 0.42024331560644396 -0.34202014332566866 0.30591211606016655 -0.15295605803008297 -0.93969262078590843 0.99999999999999967 0.49999999999999983
1 20 -1.7763568394002505e-15 0 -0.44721359549995721 -0.89442719099991619 0 0 0 1 -0.89442719099991619 0.44721359549995721 0 
Triangulations 0

TShapes 43
Ve
1.00005e-07
0 -0.939692620785908 -0.342020143325669
0 0

0101101
*
Ed
 1.00005e-07 1 1 0
1  1 0 0 6.28318530717959
2  1 2 0 0 6.28318530717959
0

0101000
+43 0 -43 0 *
Wi

0101100
+42 0 *
Fa
0  1e-07 1 0

0101000
+41 0 *
Ve
1.0000000089509e-07
9.17157287525381 -0.939692620785909 -0.342020143325669
0 0

0101101
*
Ed
 1e-07 1 1 0
1  2 0 0 9.17157287525381
3  2 3G1 2 0 0 9.17157287525381
0

0101000
+43 0 -39 0 *
Ed
 1e-07 1 1 0
1  3 0 0 6.28318530717959
2  4 2 0 0 6.28318530717959
2  5 3 0 0 6.28318530717959
4 G1 3 0 2 0
0

0101000
+39 0 -39 0 *
Wi

0101100
+38 0 +42 0 -38 0 -37 0 *
Fa
0  1e-07 2 0

0101000
+36 0 *
Ve
1.00000000903656e-07
11.2502494620156 -0.0786765867617696 -0.342020143325669
0 0

0101101
*
Ed
 1e-07 1 1 0
1  4 0 5.89048622548086 6.67588438887831
3  6 7G1 3 0 5.89048622548086 6.67588438887831
0

0101000
+39 0 -34 0 *
Ed
 1e-07 1 1 0
1  5 0 0 6.28318530717959
2  8 3 0 0 6.28318530717959
2  9 4 0 0 6.28318530717959
4 G1 4 0 3 0
0

0101000
+34 0 -34 0 *
Wi

0101100
+33 0 -37 0 -33 0 +32 0 *
Fa
0  1e-07 3 0

0101000
+31 0 *
Ve
1.00000000444089e-07
15.4349677565084 4.10604170773103 -0.342020143325669
0 0

0101101
*
Ed
 1e-07 1 1 0
1  6 0 0.828427124746189 6.74651249152872
3  10 11G1 4 0 0.828427124746189 6.74651249152872
0

0101000
+34 0 -29 0 *
Ed
 1e-07 1 1 0
1  7 0 0 6.28318530717959
2  12 4 0 0 6.28318530717959
2  13 5 0 0 6.28318530717959
4 G1 5 0 4 0
0

0101000
+29 0 -29 0 *
Wi

0101100
+28 0 +32 0 -28 0 -27 0 *
Fa
0  1e-07 4 0

0101000
+26 0 *
Ve
1.00000000444089e-07
15.7105344190993 4.30465892053355 -0.342020143325669
0 0

0101101
*
Ed
 1e-07 1 1 0
1  8 0 6.12231002998127 6.44406058437791
3  14 15G1 5 0 6.12231002998127 6.44406058437791
0

0101000
+29 0 -24 0 *
Ed
 1e-07 1 1 0
1  9 0 0 6.28318530717959
2  16 5 0 0 6.28318530717959
2  17 6 0 0 6.28318530717959
4 G1 6 0 5 0
0

0101000
+24 0 -24 0 *
Wi

0101100
+23 0 -27 0 -23 0 +22 0 *
Fa
0  1e-07 5 0

0101000
+21 0 *
Ve
1e-07
20.0536801696069 6.47623179578736 -0.342020143325669
0 0

0101101
*
Ed
 1e-07 1 1 0
1  10 0 0.324555320336758 5.18033988749895
3  18 19G1 6 0 0.324555320336758 5.18033988749895
0

0101000
+24 0 -19 0 *
Ed
 1e-07 1 1 0
1  11 0 0 6.28318530717959
2  20 6 0 0 6.28318530717959
2  21 7 0 0 6.28318530717959
4 G1 7 0 6 0
0

0101000
+19 0 -19 0 *
Wi

0101100
+18 0 +22 0 -18 0 -17 0 *
Fa
0  1e-07 6 0

0101000
+16 0 *
Ve
1.00000000444089e-07
21.4762317957874 5.05368016960695 -0.342020143325669
0 0

0101101
*
Ed
 1e-07 1 1 0
1  12 0 5.03413953478133 7.53223107957784
3  22 23G1 7 0 5.03413953478133 7.53223107957784
0

0101000
+19 0 -14 0 *
Ed
 1e-07 1 1 0
1  13 0 0 6.28318530717959
2  24 7 0 0 6.28318530717959
2  25 8 0 0 6.28318530717959
4 G1 8 0 7 0
0

0101000
+14 0 -14 0 *
Wi

0101100
+13 0 -17 0 -13 0 +12 0 *
Fa
0  1e-07 7 0

0101000
+11 0 *
Ve
1.00005e-07
19.1595133687871 0.420243315606434 -0.342020143325668
0 0

0101101
*
Ed
 1e-07 1 1 0
1  14 0 6 11.1803398874989
3  26 27G1 8 0 6 11.1803398874989
0

0101000
+14 0 -9 0 *
Ed
 1.00005e-07 1 1 0
1  15 0 0 6.28318530717959
2  28 8 0 0 6.28318530717959
0

0101000
+9 0 -9 0 *
Wi

0101100
+8 0 +12 0 -8 0 -7 0 *
Fa
0  1e-07 8 0

0101000
+6 0 *
Wi

0101100
+7 0 *
Fa
0  1e-07 9 0

0101000
+4 0 *
Sh

0101100
-40 0 +35 0 -30 0 +25 0 -20 0 +15 0 -10 0 +5 0 +3 0 *
So

1100000
+2 0 *

+1 1  