
CASCADE Topology V1, (c) Matra-Datavision
Locations 1
1
              1               0               0               0 
              0               1               0               0 
              0               0               1               0 
Curve2ds 56
1 0 0 1 0 
1 0 0 1 0 
8 0 9.3786796564403581
1 6.2831853071795862 0 0 1 
1 0 0 0 1 
1 0 9.3786796564403581 1 0 
8 0 6.2831853071795862
1 5.8904862254808616 0 0 1 
1 0 0 1 0 
8 5.8904862254808616 6.6758843888783108
1 0 6.2831853071795862 1 0 
1 6.6758843888783108 0 0 1 
8 0 6.2831853071795862
1 0 0.62132034355964261 1 0 
8 0.62132034355964261 6.8276513216129064
1 6.2831853071795862 0 0 1 
1 0 0 0 1 
1 0 6.8276513216129064 1 0 
8 0 6.2831853071795862
1 6.1223100299812652 0 0 1 
1 0 0 1 0 
8 6.1223100299812652 6.4440605843779073
1 0 6.2831853071795862 1 0 
1 6.4440605843779073 0 0 1 
8 0 6.2831853071795862
1 0 0.24341649025256978 1 0 
8 0.24341649025256978 6.6803398874989472
1 6.2831853071795862 0 0 1 
1 0 0 0 1 
1 0 6.6803398874989472 1 0 
8 0 6.2831853071795862
1 5.0341395347813318 0 0 1 
1 0 0 1 0 
8 5.0341395347813318 7.5322310795778407
1 0 6.2831853071795862 1 0 
1 7.5322310795778407 0 0 1 
8 0 6.2831853071795862
1 0 4.5000000000000018 1 0 
8 4.5000000000000018 11.180339887498949
1 6.2831853071795862 0 0 1 
1 0 0 0 1 
1 0 11.180339887498949 1 0 
8 0 9.3786796564403581
1 6.2831853071795862 0 0 1 
1 0 0 0 1 
1 0 9.3786796564403581 1 0 
8 0 6.2831853071795862
1 5.8904862254808616 0 0 1 
1 0 0 1 0 
8 5.8904862254808616 6.6758843888783108
1 0 6.2831853071795862 1 0 
1 6.6758843888783108 0 0 1 
8 0 6.2831853071795862
1 0 0.62132034355964261 1 0 
8 0.62132034355964261 6.8276513216129064
1 6.2831853071795862 0 0 1 
1 0 0 0 1 
1 0 6.8276513216129064 1 0 
8 0 6.2831853071795862
1 6.1223100299812652 0 0 1 
1 0 0 1 0 
8 6.1223100299812652 6.4440605843779073
1 0 6.2831853071795862 1 0 
1 6.4440605843779073 0 0 1 
8 0 6.2831853071795862
1 0 0.24341649025256978 1 0 
8 0.24341649025256978 6.6803398874989472
1 6.2831853071795862 0 0 1 
1 0 0 0 1 
1 0 6.6803398874989472 1 0 
8 0 6.2831853071795862
1 5.0341395347813318 0 0 1 
1 0 0 1 0 
8 5.0341395347813318 7.5322310795778407
1 0 6.2831853071795862 1 0 
1 7.5322310795778407 0 0 1 
8 0 6.2831853071795862
1 0 4.5000000000000018 1 0 
8 4.5000000000000018 11.180339887498949
1 6.2831853071795862 0 0 1 
1 0 0 0 1 
1 0 11.180339887498949 1 0 
Curves 30
3 0 0 0 1 0 -0 0 0 1 0 -1 0 0.75 0.5
3 0 0 0 -1 0 0 0 0 1 0 1 0 0.55000000000000004 0.29999999999999999
1 0 0 0.75 1 0 0 
3 9.3786796564403581 0 0 1 0 -0 0 0 1 0 -1 0 0.75 0.5
2 9.3786796564403581 1.4999999999999998 0.75 -0 0 1 0.38268343236508912 -0.92387953251128707 0 0.92387953251128707 0.38268343236508912 0 1.4999999999999998
3 10.439339828220179 0.43933982822017814 0 0.70710678118654702 0.70710678118654802 -0 0 0 1 0.70710678118654802 -0.70710678118654702 0 0.75 0.5
1 10 0 0.74999999999999989 0.70710678118654779 0.70710678118654746 0 
3 14.827878549089782 4.8278785490897791 0 0.70710678118654702 0.70710678118654813 -0 0 0 1 0.70710678118654813 -0.70710678118654702 0 0.74999999999999989 0.49999999999999994
2 15.888538720869601 3.7672183773099581 0.74999999999999989 0 0 -1 -0.58471028466376518 0.81124218517556079 0 0.81124218517556079 0.58471028466376518 0 1.5000000000000002
3 15.217718327619664 5.1088591638098322 0 0.89442719099991563 0.44721359549995865 -0 0 0 1 0.44721359549995865 -0.89442719099991563 0 0.74999999999999989 0.49999999999999994
1 15 5 0.75 0.89442719099991597 0.44721359549995798 0 
3 20.975077640500377 7.9875388202501885 0 0.89442719099991552 0.44721359549995859 -0 0 0 1 0.44721359549995859 -0.89442719099991552 0 0.75 0.5
2 21.645898033750314 6.6458980337503153 0.75000000000000022 0 0 -1 0.70710678118654813 0.70710678118654691 0 0.70710678118654691 -0.70710678118654813 0 1.5000000000000009
3 22.987538820250187 5.9750776405003805 0 -0.44721359549995732 -0.8944271909999163 0 0 0 1 -0.8944271909999163 0.44721359549995732 0 0.75000000000000022 0.50000000000000011
1 25 10 0.75 -0.44721359549995654 -0.89442719099991663 0 
3 20.000000000000014 -8.8817841970012523e-15 0 -0.44721359549995732 -0.8944271909999163 0 0 0 1 -0.8944271909999163 0.44721359549995732 0 0.75 0.5
1 0 0 0.55000000000000004 1 0 0 
3 9.3786796564403581 0 0 -1 0 0 0 0 1 0 1 0 0.55000000000000004 0.29999999999999999
2 9.3786796564403581 1.4999999999999998 0.55000000000000004 -0 0 1 0.38268343236508912 -0.92387953251128707 0 0.92387953251128707 0.38268343236508912 0 1.4999999999999998
3 10.439339828220179 0.43933982822017814 0 -0.70710678118654702 -0.70710678118654802 0 0 0 1 -0.70710678118654802 0.70710678118654702 0 0.55000000000000004 0.29999999999999999
1 10 0 0.54999999999999993 0.70710678118654779 0.70710678118654746 0 
3 14.827878549089782 4.8278785490897791 0 -0.70710678118654702 -0.70710678118654813 0 0 0 1 -0.70710678118654813 0.70710678118654702 0 0.54999999999999993 0.29999999999999993
2 15.888538720869601 3.7672183773099581 0.54999999999999993 0 0 -1 -0.58471028466376518 0.81124218517556079 0 0.81124218517556079 0.58471028466376518 0 1.5000000000000002
3 15.217718327619664 5.1088591638098322 0 -0.89442719099991563 -0.44721359549995865 0 0 0 1 -0.44721359549995865 0.89442719099991563 0 0.54999999999999993 0.29999999999999993
1 15 5 0.55000000000000004 0.89442719099991597 0.44721359549995798 0 
3 20.975077640500377 7.9875388202501885 0 -0.89442719099991552 -0.44721359549995859 0 0 0 1 -0.44721359549995859 0.89442719099991552 0 0.55000000000000004 0.29999999999999999
2 21.645898033750314 6.6458980337503153 0.55000000000000016 0 0 -1 0.70710678118654813 0.70710678118654691 0 0.70710678118654691 -0.70710678118654813 0 1.5000000000000009
3 22.987538820250187 5.9750776405003805 0 0.44721359549995732 0.8944271909999163 -0 0 0 1 0.8944271909999163 -0.44721359549995732 0 0.55000000000000016 0.30000000000000004
1 25 10 0.55000000000000004 -0.44721359549995654 -0.89442719099991663 0 
3 20.000000000000014 -8.8817841970012523e-15 0 0.44721359549995732 0.8944271909999163 -0 0 0 1 0.8944271909999163 -0.44721359549995732 0 0.55000000000000004 0.29999999999999999
Polygon3D 0
PolygonOnTriangulations 0
Surfaces 16
1 0 0 0 1 0 0 0 0 1 0 -1 0 
10 0 6.2831853071795862 0 9.3786796564403581
6 1 0 0 
3 0 0 0 1 0 -0 0 0 1 0 -1 0 0.75 0.5
10 0 6.2831853071795862 0 9.3786796564403581
6 1 0 0 
3 0 0 0 -1 0 0 0 0 1 0 1 0 0.55000000000000004 0.29999999999999999
10 5.8904862254808616 6.6758843888783108 0 6.2831853071795862
7 9.3786796564403581 1.4999999999999998 0 -0 0 1 
3 9.9527048049879916 0.11418070123306956 0 0.92387953251128663 0.38268343236509034 -0 0 0 1 0.38268343236509034 -0.92387953251128663 0 0.75 0.5
10 0 6.2831853071795862 0.62132034355964261 6.8276513216129064
6 0.70710678118654779 0.70710678118654746 0 
3 10 0 0 0.70710678118654702 0.70710678118654813 -0 0 0 1 0.70710678118654813 -0.70710678118654702 0 0.74999999999999989 0.49999999999999994
10 6.1223100299812652 6.4440605843779073 0 6.2831853071795862
7 15.888538720869601 3.7672183773099581 0 0 0 -1 
3 15.011473293873953 4.9840816550732994 0 0.81124218517556068 0.5847102846637654 -0 0 0 1 0.5847102846637654 -0.81124218517556068 0 0.74999999999999989 0.49999999999999994
10 0 6.2831853071795862 0.24341649025256978 6.6803398874989472
6 0.89442719099991597 0.44721359549995798 0 
3 15 5 0 0.89442719099991552 0.44721359549995859 -0 0 0 1 0.44721359549995859 -0.89442719099991552 0 0.75 0.5
10 5.0341395347813318 7.5322310795778407 0 6.2831853071795862
7 21.645898033750314 6.6458980337503153 0 0 0 -1 
3 22.706558205530136 7.7065582055301363 0 0.70710678118654791 -0.70710678118654724 -0 0 -0 1 -0.70710678118654724 -0.70710678118654791 0 0.75000000000000022 0.50000000000000011
10 0 6.2831853071795862 4.5000000000000018 11.180339887498949
6 -0.44721359549995654 -0.89442719099991663 0 
3 25 10 0 -0.44721359549995732 -0.8944271909999163 0 0 0 1 -0.8944271909999163 0.44721359549995732 0 0.75 0.5
10 5.8904862254808616 6.6758843888783108 0 6.2831853071795862
7 9.3786796564403581 1.4999999999999998 0 -0 0 1 
3 9.9527048049879916 0.11418070123306956 0 -0.92387953251128663 -0.38268343236509034 0 0 0 1 -0.38268343236509034 0.92387953251128663 0 0.55000000000000004 0.29999999999999999
10 0 6.2831853071795862 0.62132034355964261 6.8276513216129064
6 0.70710678118654779 0.70710678118654746 0 
3 10 0 0 -0.70710678118654702 -0.70710678118654813 0 0 0 1 -0.70710678118654813 0.70710678118654702 0 0.54999999999999993 0.29999999999999993
10 6.1223100299812652 6.4440605843779073 0 6.2831853071795862
7 15.888538720869601 3.7672183773099581 0 0 0 -1 
3 15.011473293873953 4.9840816550732994 0 -0.81124218517556068 -0.5847102846637654 0 0 0 1 -0.5847102846637654 0.81124218517556068 0 0.54999999999999993 0.29999999999999993
10 0 6.2831853071795862 0.24341649025256978 6.6803398874989472
6 0.89442719099991597 0.44721359549995798 0 
3 15 5 0 -0.89442719099991552 -0.44721359549995859 0 0 0 1 -0.44721359549995859 0.89442719099991552 0 0.55000000000000004 0.29999999999999999
10 5.0341395347813318 7.5322310795778407 0 6.2831853071795862
7 21.645898033750314 6.6458980337503153 0 0 0 -1 
3 22.706558205530136 7.7065582055301363 0 -0.70710678118654791 0.70710678118654724 0 0 -0 1 0.70710678118654724 0.70710678118654791 0 0.55000000000000016 0.30000000000000004
10 0 6.2831853071795862 4.5000000000000018 11.180339887498949
6 -0.44721359549995654 -0.89442719099991663 0 
3 25 10 0 0.44721359549995732 0.8944271909999163 -0 0 0 1 0.8944271909999163 -0.44721359549995732 0 0.55000000000000004 0.29999999999999999
1 20 -1.7763568394002505e-15 0 -0.44721359549995732 -0.8944271909999163 0 0 0 1 -0.8944271909999163 0.44721359549995732 0 
Triangulations 0

TShapes 82
Ve
1e-07
0 1.22464679914735e-16 0.75
0 0

0101101
*
Ed
 1e-07 1 1 0
1  1 0 0 6.28318530717959
2  1 2 0 0 6.28318530717959
0

0101000
+82 0 -82 0 *
Wi

0101100
+81 0 *
Ve
1.00005e-07
0 -7.34788079488412e-17 0.55
0 0

0101101
*
Ed
 1.00005e-07 1 1 0
1  2 0 0 6.28318530717959
2  2 3 0 0 6.28318530717959
0

0101000
-79 0 +79 0 *
Wi

0101100
+78 0 *
Fa
0  1e-07 1 0

0101000
+80 0 +77 0 *
Ve
1.0000000089509e-07
9.37867965644036 -1.11022302462516e-16 0.75
0 0

0101101
*
Ed
 1e-07 1 1 0
1  3 0 0 9.37867965644036
3  3 4G1 2 0 0 9.37867965644036
0

0101000
+82 0 -75 0 *
Ed
 1e-07 1 1 0
1  4 0 0 6.28318530717959
2  5 2 0 0 6.28318530717959
2  6 4 0 0 6.28318530717959
4 G1 4 0 2 0
0

0101100
+75 0 -75 0 *
Wi

0101100
+74 0 +81 0 -74 0 -73 0 *
Fa
0  1e-07 2 0

0101000
+72 0 *
Ve
1.00000000194289e-07
10.4393398282202 0.439339828220179 0.75
0 0

0101101
*
Ed
 1e-07 1 1 0
1  5 0 5.89048622548086 6.67588438887831
3  7 8G1 4 0 5.89048622548086 6.67588438887831
0

0101000
+75 0 -70 0 *
Ed
 1e-07 1 1 0
1  6 0 0 6.28318530717959
2  9 4 0 0 6.28318530717959
2  10 5 0 0 6.28318530717959
4 G1 5 0 4 0
0

0101100
+70 0 -70 0 *
Wi

0101100
+69 0 -73 0 -69 0 +68 0 *
Fa
0  1e-07 4 0

0101000
+67 0 *
Ve
1.00000000993014e-07
14.8278785490898 4.82787854908978 0.75
0 0

0101101
*
Ed
 1e-07 1 1 0
1  7 0 0.621320343559643 6.82765132161291
3  11 12G1 5 0 0.621320343559643 6.82765132161291
0

0101000
+70 0 -65 0 *
Ed
 1e-07 1 1 0
1  8 0 0 6.28318530717959
2  13 5 0 0 6.28318530717959
2  14 6 0 0 6.28318530717959
4 G1 6 0 5 0
0

0101100
+65 0 -65 0 *
Wi

0101100
+64 0 +68 0 -64 0 -63 0 *
Fa
0  1e-07 5 0

0101000
+62 0 *
Ve
1.00000000888178e-07
15.2177183276197 5.10885916380983 0.75
0 0

0101101
*
Ed
 1e-07 1 1 0
1  9 0 6.12231002998127 6.44406058437791
3  15 16G1 6 0 6.12231002998127 6.44406058437791
0

0101000
+65 0 -60 0 *
Ed
 1e-07 1 1 0
1  10 0 0 6.28318530717959
2  17 6 0 0 6.28318530717959
2  18 7 0 0 6.28318530717959
4 G1 7 0 6 0
0

0101100
+60 0 -60 0 *
Wi

0101100
+59 0 -63 0 -59 0 +58 0 *
Fa
0  1e-07 6 0

0101000
+57 0 *
Ve
1.00000000444089e-07
20.9750776405004 7.98753882025019 0.75
0 0

0101101
*
Ed
 1e-07 1 1 0
1  11 0 0.24341649025257 6.68033988749895
3  19 20G1 7 0 0.24341649025257 6.68033988749895
0

0101000
+60 0 -55 0 *
Ed
 1e-07 1 1 0
1  12 0 0 6.28318530717959
2  21 7 0 0 6.28318530717959
2  22 8 0 0 6.28318530717959
4 G1 8 0 7 0
0

0101100
+55 0 -55 0 *
Wi

0101100
+54 0 +58 0 -54 0 -53 0 *
Fa
0  1e-07 7 0

0101000
+52 0 *
Ve
1.00000000888178e-07
22.9875388202502 5.97507764050038 0.75
0 0

0101101
*
Ed
 1e-07 1 1 0
1  13 0 5.03413953478133 7.53223107957784
3  23 24G1 8 0 5.03413953478133 7.53223107957784
0

0101000
+55 0 -50 0 *
Ed
 1e-07 1 1 0
1  14 0 0 6.28318530717959
2  25 8 0 0 6.28318530717959
2  26 9 0 0 6.28318530717959
4 G1 9 0 8 0
0

0101100
+50 0 -50 0 *
Wi

0101100
+49 0 -53 0 -49 0 +48 0 *
Fa
0  1e-07 8 0

0101000
+47 0 *
Ve
1e-07
20 -8.88178419700125e-15 0.75
0 0

0101101
*
Ed
 1e-07 1 1 0
1  15 0 4.5 11.1803398874989
3  27 28G1 9 0 4.5 11.1803398874989
0

0101000
+50 0 -45 0 *
Ed
 1e-07 1 1 0
1  16 0 0 6.28318530717959
2  29 9 0 0 6.28318530717959
0

0101000
+45 0 -45 0 *
Wi

0101100
+44 0 +48 0 -44 0 -43 0 *
Fa
0  1e-07 9 0

0101000
+42 0 *
Ve
1.0000000089509e-07
9.37867965644036 -1.11022302462516e-16 0.55
0 0

0101101
*
Ed
 1e-07 1 1 0
1  17 0 0 9.37867965644036
3  30 31G1 3 0 0 9.37867965644036
0

0101000
+79 0 -40 0 *
Ed
 1e-07 1 1 0
1  18 0 0 6.28318530717959
2  32 3 0 0 6.28318530717959
2  33 10 0 0 6.28318530717959
4 G1 10 0 3 0
0

0101100
+40 0 -40 0 *
Wi

0101100
+39 0 +78 0 -39 0 -38 0 *
Fa
0  1e-07 3 0

0101000
+37 0 *
Ve
1.00000000194289e-07
10.4393398282202 0.439339828220179 0.55
0 0

0101101
*
Ed
 1e-07 1 1 0
1  19 0 5.89048622548086 6.67588438887831
3  34 35G1 10 0 5.89048622548086 6.67588438887831
0

0101000
+40 0 -35 0 *
Ed
 1e-07 1 1 0
1  20 0 0 6.28318530717959
2  36 10 0 0 6.28318530717959
2  37 11 0 0 6.28318530717959
4 G1 11 0 10 0
0

0101100
+35 0 -35 0 *
Wi

0101100
+34 0 -38 0 -34 0 +33 0 *
Fa
0  1e-07 10 0

0101000
+32 0 *
Ve
1.00000000993014e-07
14.8278785490898 4.82787854908978 0.55
0 0

0101101
*
Ed
 1e-07 1 1 0
1  21 0 0.621320343559643 6.82765132161291
3  38 39G1 11 0 0.621320343559643 6.82765132161291
0

0101000
+35 0 -30 0 *
Ed
 1e-07 1 1 0
1  22 0 0 6.28318530717959
2  40 11 0 0 6.28318530717959
2  41 12 0 0 6.28318530717959
4 G1 12 0 11 0
0

0101100
+30 0 -30 0 *
Wi

0101100
+29 0 +33 0 -29 0 -28 0 *
Fa
0  1e-07 11 0

0101000
+27 0 *
Ve
1.00000000888178e-07
15.2177183276197 5.10885916380983 0.55
0 0

0101101
*
Ed
 1e-07 1 1 0
1  23 0 6.12231002998127 6.44406058437791
3  42 43G1 12 0 6.12231002998127 6.44406058437791
0

0101000
+30 0 -25 0 *
Ed
 1e-07 1 1 0
1  24 0 0 6.28318530717959
2  44 12 0 0 6.28318530717959
2  45 13 0 0 6.28318530717959
4 G1 13 0 12 0
0

0101100
+25 0 -25 0 *
Wi

0101100
+24 0 -28 0 -24 0 +23 0 *
Fa
0  1e-07 12 0

0101000
+22 0 *
Ve
1.00000000444089e-07
20.9750776405004 7.98753882025019 0.55
0 0

0101101
*
Ed
 1e-07 1 1 0
1  25 0 0.24341649025257 6.68033988749895
3  46 47G1 13 0 0.24341649025257 6.68033988749895
0

0101000
+25 0 -20 0 *
Ed
 1e-07 1 1 0
1  26 0 0 6.28318530717959
2  48 13 0 0 6.28318530717959
2  49 14 0 0 6.28318530717959
4 G1 14 0 13 0
0

0101100
+20 0 -20 0 *
Wi

0101100
+19 0 +23 0 -19 0 -18 0 *
Fa
0  1e-07 13 0

0101000
+17 0 *
Ve
1.00000000888178e-07
22.9875388202502 5.97507764050038 0.55
0 0

0101101
*
Ed
 1e-07 1 1 0
1  27 0 5.03413953478133 7.53223107957784
3  50 51G1 14 0 5.03413953478133 7.53223107957784
0

0101000
+20 0 -15 0 *
Ed
 1e-07 1 1 0
1  28 0 0 6.28318530717959
2  52 14 0 0 6.28318530717959
2  53 15 0 0 6.28318530717959
4 G1 15 0 14 0
0

0101100
+15 0 -15 0 *
Wi

0101100
+14 0 -18 0 -14 0 +13 0 *
Fa
0  1e-07 14 0

0101000
+12 0 *
Ve
1.00005e-07
20 -8.88178419700125e-15 0.55
0 0

0101101
*
Ed
 1e-07 1 1 0
1  29 0 4.5 11.1803398874989
3  54 55G1 15 0 4.5 11.1803398874989
0

0101000
+15 0 -10 0 *
Ed
 1.00005e-07 1 1 0
1  30 0 0 6.28318530717959
2  56 15 0 0 6.28318530717959
0

0101000
-10 0 +10 0 *
Wi

0101100
+9 0 +13 0 -9 0 -8 0 *
Fa
0  1e-07 15 0

0101000
+7 0 *
Wi

0101100
+43 0 *
Wi

0101100
+8 0 *
Fa
0  1e-07 16 0

0101000
+5 0 +4 0 *
Sh

0101100
-76 0 +71 0 -66 0 +61 0 -56 0 +51 0 -46 0 +41 0 +36 0 -31 0 
+26 0 -21 0 +16 0 -11 0 +6 0 +3 0 *
So

1100000
+2 0 *

+1 1  