
CASCADE Topology V1, (c) Matra-Datavision
Locations 1
1
              1               0               0               0 
              0               1               0               0 
              0               0               1               0 
Curve2ds 56
1 0 0 1 0 
1 0 0 1 0 
8 0 9.7928932188134521
1 6.2831853071795862 0 0 1 
1 0 0 0 1 
1 0 9.7928932188134521 1 0 
8 0 6.2831853071795862
1 5.8904862254808616 7.8539816339744828 -0 -1 
8 5.8904862254808616 6.6758843888783108
1 0 1.5707963267948966 1 0 
1 0 7.8539816339744828 1 0 
1 6.6758843888783108 0 0 1 
8 1.5707963267948966 7.8539816339744828
1 7.8539816339744828 0.20710678118654818 -1 -0 
8 0.20710678118654818 6.9899289817812855
1 6.2831853071795862 0 0 1 
1 0 0 0 1 
1 0 6.9899289817812855 1 0 
8 0 6.2831853071795862
1 6.1223100299812652 10.995574287564276 -0 -1 
8 6.1223100299812652 6.4440605843779073
1 0 4.7123889803846897 1 0 
1 0 10.995574287564276 1 0 
1 6.4440605843779073 0 0 1 
8 4.7123889803846897 10.995574287564276
1 10.995574287564276 0.081138830084189262 -1 -0 
8 0.081138830084189262 9.680339887498949
1 6.2831853071795862 0 0 1 
1 0 0 0 1 
1 0 9.680339887498949 1 0 
8 0 6.2831853071795862
1 5.0341395347813318 10.995574287564276 -0 -1 
8 5.0341395347813318 7.5322310795778407
1 0 4.7123889803846897 1 0 
1 0 10.995574287564276 1 0 
1 7.5322310795778407 0 0 1 
8 4.7123889803846897 10.995574287564276
1 10.995574287564276 1.4999999999999993 -1 -0 
8 1.4999999999999993 11.180339887498949
1 6.2831853071795862 0 0 1 
1 0 0 0 1 
1 0 11.180339887498949 1 0 
1 6.2831853071795862 0 0 1 
8 0 9.7928932188134521
1 0 0 0 1 
1 0 9.7928932188134521 1 0 
8 0 6.2831853071795862
1 5.8904862254808616 7.8539816339744828 -0 -1 
1 0 1.5707963267948966 1 0 
8 5.8904862254808616 6.6758843888783108
1 0 7.8539816339744828 1 0 
1 6.6758843888783108 0 0 1 
8 1.5707963267948966 7.8539816339744828
1 7.8539816339744828 0.20710678118654818 -1 -0 
1 6.2831853071795862 0 0 1 
8 0.20710678118654818 6.9899289817812855
1 0 0 0 1 
1 0 6.9899289817812855 1 0 
8 0 6.2831853071795862
1 6.1223100299812652 10.995574287564276 -0 -1 
1 0 4.7123889803846897 1 0 
8 6.1223100299812652 6.4440605843779073
1 0 10.995574287564276 1 0 
1 6.4440605843779073 0 0 1 
8 4.7123889803846897 10.995574287564276
1 10.995574287564276 0.081138830084189262 -1 -0 
1 6.2831853071795862 0 0 1 
8 0.081138830084189262 9.680339887498949
1 0 0 0 1 
1 0 9.680339887498949 1 0 
8 0 6.2831853071795862
1 5.0341395347813318 10.995574287564276 -0 -1 
1 0 4.7123889803846897 1 0 
8 5.0341395347813318 7.5322310795778407
1 0 10.995574287564276 1 0 
1 7.5322310795778407 0 0 1 
8 4.7123889803846897 10.995574287564276
1 10.995574287564276 1.4999999999999993 -1 -0 
1 6.2831853071795862 0 0 1 
8 1.4999999999999993 11.180339887498949
1 0 0 0 1 
1 0 11.180339887498949 1 0 
Curves 30
2 0 0 0 1 0 0 0 0 1 0 -1 0 0.25
2 0 0 0 1 0 0 0 0 1 0 -1 0 0.14999999999999999
1 0 0 0.25 1 0 0 
2 9.7928932188134521 0 0 1 0 0 0 0 1 0 -1 0 0.25
2 9.7928932188134521 0.49999999999999994 0.25 -0 0 1 0.38268343236509128 -0.92387953251128618 0 0.92387953251128618 0.38268343236509128 0 0.50000000000000033
2 10.146446609406727 0.14644660940672666 0 -0.70710678118654624 -0.70710678118654879 0 0.70710678118654879 -0.70710678118654624 0 0 0 1 0.25
1 10 0 0.25 0.70710678118654779 0.70710678118654746 0 
2 14.94262618302993 4.9426261830299261 0 0.70710678118654779 0.70710678118654746 0 0 -0 1 0.70710678118654746 -0.70710678118654779 -0 0.25
2 15.296179573623201 4.589072792436653 0.25000000000000006 0 0 -1 -0.58471028466376695 0.81124218517555957 0 0.81124218517555957 0.58471028466376695 0 0.50000000000000033
2 15.072572775873221 5.0362863879366104 0 -0.89442719099991475 -0.44721359549996031 -0 -0.44721359549996031 0.89442719099991475 0 0 0 -1 0.25000000000000006
1 15 5 0.25 0.89442719099991597 0.44721359549995798 0 
2 23.658359213500127 9.3291796067500634 0 0.89442719099991597 0.44721359549995798 0 0 -0 1 0.44721359549995798 -0.89442719099991597 -0 0.25
2 23.881966011250107 8.8819660112501051 0.25 0 0 -1 0.7071067811865458 0.70710678118654935 0 0.70710678118654935 -0.7071067811865458 0 0.50000000000000011
2 24.329179606750067 8.6583592135001268 0 0.44721359549995554 0.89442719099991719 0 0.89442719099991719 -0.44721359549995554 0 0 0 -1 0.25
1 25 10 0.25 -0.44721359549995654 -0.89442719099991663 0 
2 20.000000000000014 -8.8817841970012523e-15 0 -0.44721359549995654 -0.89442719099991663 0 0 0 1 -0.89442719099991663 0.44721359549995654 0 0.25
1 0 3.6739403974420595e-17 0.14999999999999999 1 0 0 
2 9.7928932188134521 0 0 1 0 0 0 0 1 0 -1 0 0.14999999999999999
2 9.7928932188134521 0.49999999999999994 0.14999999999999999 -0 0 1 0.38268343236509128 -0.92387953251128618 0 0.92387953251128618 0.38268343236509128 0 0.50000000000000022
2 10.146446609406727 0.14644660940672666 0 -0.70710678118654624 -0.70710678118654879 0 0.70710678118654879 -0.70710678118654624 0 0 0 1 0.14999999999999999
1 10 2.5978681687064809e-17 0.14999999999999999 0.70710678118654779 0.70710678118654746 0 
2 14.94262618302993 4.9426261830299261 0 0.70710678118654779 0.70710678118654746 0 0 -0 1 0.70710678118654746 -0.70710678118654779 -0 0.14999999999999999
2 15.296179573623201 4.589072792436653 0.15000000000000002 0 0 -1 -0.58471028466376695 0.81124218517555957 0 0.81124218517555957 0.58471028466376695 0 0.50000000000000044
2 15.072572775873221 5.0362863879366104 0 -0.89442719099991475 -0.44721359549996031 -0 -0.44721359549996031 0.89442719099991475 0 0 0 -1 0.15000000000000002
1 15 5 0.14999999999999999 0.89442719099991597 0.44721359549995798 0 
2 23.658359213500127 9.3291796067500634 0 0.89442719099991597 0.44721359549995798 0 0 -0 1 0.44721359549995798 -0.89442719099991597 -0 0.14999999999999999
2 23.881966011250107 8.8819660112501051 0.14999999999999999 0 0 -1 0.7071067811865458 0.70710678118654935 0 0.70710678118654935 -0.7071067811865458 0 0.50000000000000022
2 24.329179606750067 8.6583592135001268 0 0.44721359549995554 0.89442719099991719 0 0.89442719099991719 -0.44721359549995554 0 0 0 -1 0.14999999999999999
1 25 10 0.14999999999999999 -0.44721359549995654 -0.89442719099991663 0 
2 20.000000000000014 -8.8817841970012523e-15 0 -0.44721359549995654 -0.89442719099991663 0 0 0 1 -0.89442719099991663 0.44721359549995654 0 0.14999999999999999
Polygon3D 0
PolygonOnTriangulations 0
Surfaces 16
1 0 0 0 1 0 0 0 0 1 0 -1 0 
10 0 6.2831853071795862 0 9.7928932188134521
2 0 0 0 1 0 0 0 0 1 0 -1 0 0.25
10 0 6.2831853071795862 0 9.7928932188134521
2 0 0 0 1 0 0 0 0 1 0 -1 0 0.14999999999999999
10 5.8904862254808616 6.6758843888783108 1.5707963267948966 7.8539816339744828
5 9.7928932188134521 0.49999999999999994 0 -0 0 1 0.38268343236509128 -0.92387953251128618 0 0.92387953251128618 0.38268343236509128 0 0.50000000000000022 0.25
10 0 6.2831853071795862 0.20710678118654818 6.9899289817812855
2 10 0 0 0.70710678118654779 0.70710678118654746 0 0 -0 1 0.70710678118654746 -0.70710678118654779 -0 0.25
10 6.1223100299812652 6.4440605843779073 4.7123889803846897 10.995574287564276
5 15.296179573623201 4.589072792436653 0 0 0 -1 -0.58471028466376695 0.81124218517555957 0 0.81124218517555957 0.58471028466376695 0 0.50000000000000044 0.25000000000000006
10 0 6.2831853071795862 0.081138830084189262 9.680339887498949
2 15 5 0 0.89442719099991597 0.44721359549995798 0 0 -0 1 0.44721359549995798 -0.89442719099991597 -0 0.25
10 5.0341395347813318 7.5322310795778407 4.7123889803846897 10.995574287564276
5 23.881966011250107 8.8819660112501051 0 0 0 -1 0.7071067811865458 0.70710678118654935 0 0.70710678118654935 -0.7071067811865458 0 0.50000000000000022 0.25
10 0 6.2831853071795862 1.4999999999999993 11.180339887498949
2 25 10 0 -0.44721359549995654 -0.89442719099991663 0 0 0 1 -0.89442719099991663 0.44721359549995654 0 0.25
10 5.8904862254808616 6.6758843888783108 1.5707963267948966 7.8539816339744828
5 9.7928932188134521 0.49999999999999994 0 -0 0 1 0.38268343236509128 -0.92387953251128618 0 0.92387953251128618 0.38268343236509128 0 0.50000000000000022 0.14999999999999999
10 0 6.2831853071795862 0.20710678118654818 6.9899289817812855
2 10 0 0 0.70710678118654779 0.70710678118654746 0 0 -0 1 0.70710678118654746 -0.70710678118654779 -0 0.14999999999999999
10 6.1223100299812652 6.4440605843779073 4.7123889803846897 10.995574287564276
5 15.296179573623201 4.589072792436653 0 0 0 -1 -0.58471028466376695 0.81124218517555957 0 0.81124218517555957 0.58471028466376695 0 0.50000000000000044 0.15000000000000002
10 0 6.2831853071795862 0.081138830084189262 9.680339887498949
2 15 5 0 0.89442719099991597 0.44721359549995798 0 0 -0 1 0.44721359549995798 -0.89442719099991597 -0 0.14999999999999999
10 5.0341395347813318 7.5322310795778407 4.7123889803846897 10.995574287564276
5 23.881966011250107 8.8819660112501051 0 0 0 -1 0.7071067811865458 0.70710678118654935 0 0.70710678118654935 -0.7071067811865458 0 0.50000000000000022 0.14999999999999999
10 0 6.2831853071795862 1.4999999999999993 11.180339887498949
2 25 10 0 -0.44721359549995654 -0.89442719099991663 0 0 0 1 -0.89442719099991663 0.44721359549995654 0 0.14999999999999999
1 20 -1.7763568394002505e-15 0 -0.44721359549995715 -0.89442719099991641 0 0 0 1 -0.89442719099991641 0.44721359549995715 0 
Triangulations 0

TShapes 82
Ve
1e-07
0 6.12323399573677e-17 0.25
0 0

0101101
*
Ed
 1e-07 1 1 0
1  1 0 0 6.28318530717959
2  1 2 0 0 6.28318530717959
0

0101000
+82 0 -82 0 *
Wi

0101100
+81 0 *
Ve
1.00005e-07
0 0 0.15
0 0

0101101
*
Ed
 1.00005e-07 1 1 0
1  2 0 0 6.28318530717959
2  2 3 0 0 6.28318530717959
0

0101000
+79 0 -79 0 *
Wi

0101100
-78 0 *
Fa
0  1e-07 1 0

0101000
+80 0 +77 0 *
Ve
1.00000000027756e-07
9.79289321881345 -2.77555756156289e-17 0.25
0 0

0101101
*
Ed
 1e-07 1 1 0
1  3 0 0 9.79289321881345
3  3 4G1 2 0 0 9.79289321881345
0

0101000
+82 0 -75 0 *
Ed
 1e-07 1 1 0
1  4 0 0 6.28318530717959
2  5 2 0 0 6.28318530717959
2  6 4 0 0 6.28318530717959
4 G1 4 0 2 0
0

0101100
+75 0 -75 0 *
Wi

0101100
+74 0 +81 0 -74 0 -73 0 *
Fa
0  1e-07 2 0

0101000
+72 0 *
Ve
1.00000000346945e-07
10.1464466094067 0.146446609406727 0.25
0 0

0101101
*
Ed
 1e-07 1 1 0
1  5 0 5.89048622548086 6.67588438887831
3  7 8G1 4 0 5.89048622548086 6.67588438887831
0

0101000
+75 0 -70 0 *
Ed
 1e-07 1 1 0
1  6 0 1.5707963267949 7.85398163397448
2  9 4 0 1.5707963267949 7.85398163397448
2  10 5 0 1.5707963267949 7.85398163397448
4 G1 5 0 4 0
0

0101100
+70 0 -70 0 *
Wi

0101100
+69 0 +73 0 -69 0 +68 0 *
Fa
0  1e-07 4 0

0101000
+67 0 *
Ve
1.00000002420831e-07
14.9426261830299 4.94262618302993 0.25
0 0

0101101
*
Ed
 1e-07 1 1 0
1  7 0 0.207106781186548 6.98992898178129
3  11 12G1 5 0 0.207106781186548 6.98992898178129
0

0101000
+70 0 -65 0 *
Ed
 1e-07 1 1 0
1  8 0 0 6.28318530717959
2  13 5 0 0 6.28318530717959
2  14 6 0 0 6.28318530717959
4 G1 6 0 5 0
0

0101100
+65 0 -65 0 *
Wi

0101100
+64 0 -68 0 -64 0 -63 0 *
Fa
0  1e-07 5 0

0101000
+62 0 *
Ve
1.00000000430211e-07
15.0725727758732 5.03628638793661 0.25
0 0

0101101
*
Ed
 1e-07 1 1 0
1  9 0 6.12231002998127 6.44406058437791
3  15 16G1 6 0 6.12231002998127 6.44406058437791
0

0101000
+65 0 -60 0 *
Ed
 1e-07 1 1 0
1  10 0 4.71238898038469 10.9955742875643
2  17 6 0 4.71238898038469 10.9955742875643
2  18 7 0 4.71238898038469 10.9955742875643
4 G1 7 0 6 0
0

0101100
+60 0 -60 0 *
Wi

0101100
+59 0 +63 0 -59 0 +58 0 *
Fa
0  1e-07 6 0

0101000
+57 0 *
Ve
1.00000002264666e-07
23.6583592135001 9.32917960675006 0.25
0 0

0101101
*
Ed
 1e-07 1 1 0
1  11 0 0.0811388300841893 9.68033988749895
3  19 20G1 7 0 0.0811388300841893 9.68033988749895
0

0101000
+60 0 -55 0 *
Ed
 1e-07 1 1 0
1  12 0 0 6.28318530717959
2  21 7 0 0 6.28318530717959
2  22 8 0 0 6.28318530717959
4 G1 8 0 7 0
0

0101100
+55 0 -55 0 *
Wi

0101100
+54 0 -58 0 -54 0 -53 0 *
Fa
0  1e-07 7 0

0101000
+52 0 *
Ve
1.00000000471845e-07
24.3291796067501 8.65835921350013 0.25
0 0

0101101
*
Ed
 1e-07 1 1 0
1  13 0 5.03413953478133 7.53223107957784
3  23 24G1 8 0 5.03413953478133 7.53223107957784
0

0101000
+55 0 -50 0 *
Ed
 1e-07 1 1 0
1  14 0 4.71238898038469 10.9955742875643
2  25 8 0 4.71238898038469 10.9955742875643
2  26 9 0 4.71238898038469 10.9955742875643
4 G1 9 0 8 0
0

0101100
+50 0 -50 0 *
Wi

0101100
+49 0 +53 0 -49 0 +48 0 *
Fa
0  1e-07 8 0

0101000
+47 0 *
Ve
1.000000016121e-07
20 -8.88178419700125e-15 0.25
0 0

0101101
*
Ed
 1e-07 1 1 0
1  15 0 1.5 11.1803398874989
3  27 28G1 9 0 1.5 11.1803398874989
0

0101000
+50 0 -45 0 *
Ed
 1e-07 1 1 0
1  16 0 0 6.28318530717959
2  29 9 0 0 6.28318530717959
0

0101000
+45 0 -45 0 *
Wi

0101100
+44 0 -48 0 -44 0 -43 0 *
Fa
0  1e-07 9 0

0101000
+42 0 *
Ve
1.00000000027756e-07
9.79289321881345 -2.77555756156289e-17 0.15
0 0

0101101
*
Ed
 1e-07 1 1 0
1  17 0 0 9.79289321881345
3  30 31G1 3 0 0 9.79289321881345
0

0101000
+79 0 -40 0 *
Ed
 1e-07 1 1 0
1  18 0 0 6.28318530717959
2  32 3 0 0 6.28318530717959
2  33 10 0 0 6.28318530717959
4 G1 10 0 3 0
0

0101100
+40 0 -40 0 *
Wi

0101100
+39 0 +78 0 -39 0 -38 0 *
Fa
0  1e-07 3 0

0101000
+37 0 *
Ve
1.00000000252576e-07
10.1464466094067 0.146446609406727 0.15
0 0

0101101
*
Ed
 1e-07 1 1 0
1  19 0 5.89048622548086 6.67588438887831
3  34 35G1 10 0 5.89048622548086 6.67588438887831
0

0101000
+40 0 -35 0 *
Ed
 1e-07 1 1 0
1  20 0 1.5707963267949 7.85398163397448
2  36 10 0 1.5707963267949 7.85398163397448
2  37 11 0 1.5707963267949 7.85398163397448
4 G1 11 0 10 0
0

0101100
+35 0 -35 0 *
Wi

0101100
+34 0 +38 0 -34 0 +33 0 *
Fa
0  1e-07 10 0

0101000
+32 0 *
Ve
1.00000001630134e-07
14.9426261830299 4.94262618302993 0.15
0 0

0101101
*
Ed
 1e-07 1 1 0
1  21 0 0.207106781186548 6.98992898178129
3  38 39G1 11 0 0.207106781186548 6.98992898178129
0

0101000
+35 0 -30 0 *
Ed
 1e-07 1 1 0
1  22 0 0 6.28318530717959
2  40 11 0 0 6.28318530717959
2  41 12 0 0 6.28318530717959
4 G1 12 0 11 0
0

0101100
+30 0 -30 0 *
Wi

0101100
+29 0 -33 0 -29 0 -28 0 *
Fa
0  1e-07 11 0

0101000
+27 0 *
Ve
1.00000000258127e-07
15.0725727758732 5.03628638793661 0.15
0 0

0101101
*
Ed
 1e-07 1 1 0
1  23 0 6.12231002998127 6.44406058437791
3  42 43G1 12 0 6.12231002998127 6.44406058437791
0

0101000
+30 0 -25 0 *
Ed
 1e-07 1 1 0
1  24 0 4.71238898038469 10.9955742875643
2  44 12 0 4.71238898038469 10.9955742875643
2  45 13 0 4.71238898038469 10.9955742875643
4 G1 13 0 12 0
0

0101100
+25 0 -25 0 *
Wi

0101100
+24 0 +28 0 -24 0 +23 0 *
Fa
0  1e-07 12 0

0101000
+22 0 *
Ve
1.000000013588e-07
23.6583592135001 9.32917960675006 0.15
0 0

0101101
*
Ed
 1e-07 1 1 0
1  25 0 0.0811388300841893 9.68033988749895
3  46 47G1 13 0 0.0811388300841893 9.68033988749895
0

0101000
+25 0 -20 0 *
Ed
 1e-07 1 1 0
1  26 0 0 6.28318530717959
2  48 13 0 0 6.28318530717959
2  49 14 0 0 6.28318530717959
4 G1 14 0 13 0
0

0101100
+20 0 -20 0 *
Wi

0101100
+19 0 -23 0 -19 0 -18 0 *
Fa
0  1e-07 13 0

0101000
+17 0 *
Ve
1.00000000283107e-07
24.3291796067501 8.65835921350013 0.15
0 0

0101101
*
Ed
 1e-07 1 1 0
1  27 0 5.03413953478133 7.53223107957784
3  50 51G1 14 0 5.03413953478133 7.53223107957784
0

0101000
+20 0 -15 0 *
Ed
 1e-07 1 1 0
1  28 0 4.71238898038469 10.9955742875643
2  52 14 0 4.71238898038469 10.9955742875643
2  53 15 0 4.71238898038469 10.9955742875643
4 G1 15 0 14 0
0

0101100
+15 0 -15 0 *
Wi

0101100
+14 0 +18 0 -14 0 +13 0 *
Fa
0  1e-07 14 0

0101000
+12 0 *
Ve
1.00005e-07
20 -8.88178419700125e-15 0.15
0 0

0101101
*
Ed
 1e-07 1 1 0
1  29 0 1.5 11.1803398874989
3  54 55G1 15 0 1.5 11.1803398874989
0

0101000
+15 0 -10 0 *
Ed
 1.00005e-07 1 1 0
1  30 0 0 6.28318530717959
2  56 15 0 0 6.28318530717959
0

0101000
+10 0 -10 0 *
Wi

0101100
+9 0 -13 0 -9 0 -8 0 *
Fa
0  1e-07 15 0

0101000
+7 0 *
Wi

0101100
+43 0 *
Wi

0101100
-8 0 *
Fa
0  1e-07 16 0

0101000
+5 0 +4 0 *
Sh

0101100
-76 0 +71 0 +66 0 +61 0 +56 0 +51 0 +46 0 +41 0 -36 0 -31 0 
-26 0 -21 0 -16 0 -11 0 -6 0 +3 0 *
So

1100000
+2 0 *

+1 1  