
CASCADE Topology V1, (c) Matra-Datavision
Locations 1
1
              1               0               0               0 
              0               1               0               0 
              0               0               1               0 
Curve2ds 224
1 0 0 1 0 
1 0 0 1 0 
1 0 0 1 0 
1 0 0 1 0 
1 0 0 1 0 
1 0 0 1 0 
1 0 0 1 0 
1 0 0 1 0 
1 -0.5 0 0 1 
1 0.75 0 0 1 
1 0.5 0 0 1 
1 -0.75 0 0 1 
1 0 9.3786796564403581 1 0 
1 -0.57402514854763353 0.11418070123306938 0.38268343236508889 0.92387953251128718 
8 5.8904862254808616 6.6758843888783108
1 0 -0.75 1 0 
2 -2.2204460492503131e-16 1.5 8.3266726846886721e-16 -1 1 8.3266726846886721e-16 1.9999999999999998
8 5.8904862254808616 6.6758843888783108
1 0 -0.75 1 0 
2 -2.2204460492503131e-16 1.5 -8.8817841970012523e-16 -1 1 -8.8817841970012523e-16 0.99999999999999944
1 0.57402514854763531 0.11418070123307006 -0.38268343236509139 0.92387953251128607 
1 -1.1102230246251565e-15 0.62132034355964239 1 1.1102230246251565e-16 
1 -0.50000000000000067 5.5511151231257827e-16 0 1 
1 0.74999999999999989 0 0 1 
1 0.50000000000000067 -5.5511151231257827e-16 0 1 
1 -0.74999999999999989 0 0 1 
1 -4.4408920985006262e-16 6.8276513216129082 1 0 
1 -0.24027336451045028 -0.019368813543748989 -0.1601822430069676 0.98708745763749672 
8 6.1223100299812652 6.4440605843779073
1 0 0.75 1 0 
2 1.1102230246251565e-16 -1.4999999999999996 0 1 1 -0 1.0000000000000007
8 6.1223100299812652 6.4440605843779073
1 0 0.75 1 0 
2 1.1102230246251565e-16 -1.4999999999999996 4.9960036108132044e-16 1 1 -4.9960036108132044e-16 1.9999999999999996
1 0.240273364510452 -0.019368813543754429 0.16018224300696687 0.98708745763749683 
1 -1.8041124150158794e-16 0.24341649025256976 1 0 
1 -0.5 8.0491169285323849e-16 0 1 
1 0.75 0 0 1 
1 0.5 -8.0491169285323849e-16 0 1 
1 -0.75 0 0 1 
1 4.4408920985006262e-16 6.6803398874989455 1 0 
1 -1.4230249470757739 -1.0256583509747419 -0.94868329805051432 0.31622776601683661 
8 5.0341395347813318 7.5322310795778407
1 0 0.75 1 0 
2 2.2204460492503131e-15 -1.4999999999999982 1.221245327087672e-15 1 1 -1.221245327087672e-15 1.0000000000000011
8 5.0341395347813318 7.5322310795778407
1 0 0.75 1 0 
2 2.2204460492503131e-15 -1.4999999999999982 0 1 1 -0 1.9999999999999998
1 1.4230249470757708 -1.0256583509747397 0.94868329805051332 0.31622776601683927 
1 -6.4392935428259079e-15 4.5 1 0 
1 -0.49999999999999845 -3.6082248300317588e-16 0 1 
1 0.75 0 -0 1 
1 0.49999999999999845 3.6082248300317588e-16 0 1 
1 -0.75 -0 0 1 
1 0 11.180339887498953 1 0 
1 0.75 0 0 1 
1 -0.5 0 0 1 
8 -0.75 0.75
1 5.8904862254808616 0 0 1 
1 0 9.3786796564403581 1 0 
1 0 0.75 1 0 
2 -2.2204460492503131e-16 -1.5 -8.8817841970012523e-16 1 1 8.8817841970012523e-16 0.99999999999999944
1 6.6758843888783108 0 0 1 
1 0 0.62132034355964261 1 0 
1 0.75 0 0 1 
1 -0.50000000000000067 -6.106226635438361e-16 1.0547118733938985e-15 1 
8 -0.75 0.75
1 6.1223100299812652 0 -0 -1 
1 0 6.8276513216129064 1 0 
1 0 -0.75 1 0 
2 1.1102230246251565e-16 1.4999999999999996 4.9960036108132044e-16 -1 1 4.9960036108132044e-16 1.9999999999999996
1 6.4440605843779073 0 0 1 
1 0 0.24341649025256978 -1 0 
1 0.75 0 0 1 
1 -0.5 -8.0491169285323849e-16 7.7715611723760958e-16 1 
8 -0.75 0.75
1 5.0341395347813318 0 -0 -1 
1 0 6.6803398874989472 1 0 
1 0 -0.75 1 0 
2 2.2204460492503131e-15 1.4999999999999982 -5.5511151231257827e-16 -1 1 -5.5511151231257827e-16 2.0000000000000009
1 7.5322310795778407 0 0 1 
1 0 4.4999999999999991 -1 -0 
1 0.75 0 0 1 
1 -0.49999999999999845 3.6082248300317588e-16 -8.8817841970012504e-16 1 
1 0 11.180339887498949 1 0 
1 0.5 0 0 1 
1 -0.75 0 0 1 
1 0 9.3786796564403581 1 0 
1 -0.57402514854763353 -0.11418070123306938 -0.38268343236508889 0.92387953251128718 
8 5.8904862254808616 6.6758843888783108
1 0 0.75 1 0 
2 -2.2204460492503131e-16 -1.5 8.3266726846886721e-16 1 1 -8.3266726846886721e-16 1.9999999999999998
1 0.57402514854763531 -0.11418070123307006 0.38268343236509139 0.92387953251128607 
1 1.1102230246251565e-15 0.62132034355964239 1 -1.1102230246251565e-16 
1 0.50000000000000067 5.5511151231257827e-16 0 1 
1 -0.74999999999999989 0 0 1 
1 4.4408920985006262e-16 6.8276513216129082 1 0 
1 -0.24027336451045028 0.019368813543748989 0.1601822430069676 0.98708745763749672 
8 6.1223100299812652 6.4440605843779073
1 0 -0.75 1 0 
2 1.1102230246251565e-16 1.4999999999999996 0 -1 1 0 1.0000000000000007
1 0.240273364510452 0.019368813543754429 -0.16018224300696687 0.98708745763749683 
1 1.8041124150158794e-16 0.24341649025256976 1 0 
1 0.5 8.0491169285323849e-16 0 1 
1 -0.75 0 0 1 
1 -4.4408920985006262e-16 6.6803398874989455 1 0 
1 -1.4230249470757739 1.0256583509747419 0.94868329805051432 0.31622776601683661 
8 5.0341395347813318 7.5322310795778407
1 0 -0.75 1 0 
2 2.2204460492503131e-15 1.4999999999999982 1.221245327087672e-15 -1 1 1.221245327087672e-15 1.0000000000000011
1 1.4230249470757708 1.0256583509747397 -0.94868329805051332 0.31622776601683927 
1 6.4392935428259079e-15 4.5 1 0 
1 0.49999999999999845 -3.6082248300317588e-16 0 1 
1 -0.75 -0 -0 1 
1 0 11.180339887498953 1 0 
8 -0.75 0.75
1 5.8904862254808616 0 -0 -1 
1 0 9.3786796564403581 1 0 
1 6.6758843888783108 0 0 1 
1 0 0.62132034355964283 -1 0 
8 -0.75 0.75
1 6.1223100299812652 0 0 1 
1 0 6.8276513216129064 1 0 
1 6.4440605843779073 0 0 1 
1 0 0.24341649025256779 1 0 
8 -0.75 0.75
1 5.0341395347813318 0 0 1 
1 0 6.6803398874989472 1 0 
1 7.5322310795778407 0 0 1 
1 -0 4.5000000000000027 1 0 
1 -0 11.180339887498949 1 0 
1 -0.55000000000000004 0 0 1 
1 0.29999999999999999 0 0 1 
1 0.55000000000000004 0 0 1 
1 -0.29999999999999999 0 0 1 
8 -0.55000000000000004 0.55000000000000004
1 5.8904862254808616 0 0 1 
1 0 9.3786796564403581 1 0 
1 0 -0.55000000000000004 1 0 
2 -2.2204460492503131e-16 -1.5 8.3266726846886721e-16 1 1 -8.3266726846886721e-16 1.7999999999999998
1 0 0.55000000000000004 1 0 
2 -2.2204460492503131e-16 1.5 8.3266726846886721e-16 -1 1 8.3266726846886721e-16 1.7999999999999998
1 6.6758843888783108 0 0 1 
1 0 0.6213203435596435 1 0 
1 -0.55000000000000004 0 0 1 
1 0.2999999999999996 -3.8857805861880479e-16 1.0547118733938985e-15 1 
1 0.55000000000000004 0 0 1 
1 -0.2999999999999996 -3.8857805861880479e-16 -1.0547118733938985e-15 1 
8 -0.55000000000000004 0.55000000000000004
1 6.1223100299812652 0 -0 -1 
1 0 6.8276513216129091 1 0 
1 0 0.55000000000000004 1 0 
2 1.1102230246251565e-16 1.4999999999999996 7.7715611723760958e-16 -1 1 7.7715611723760958e-16 1.1999999999999997
1 0 -0.55000000000000004 1 0 
2 1.1102230246251565e-16 -1.4999999999999996 7.7715611723760958e-16 1 1 -7.7715611723760958e-16 1.1999999999999997
1 6.4440605843779073 0 0 1 
1 0 0.24341649025256978 -1 0 
1 -0.55000000000000004 0 0 1 
1 0.29999999999999982 5.8286708792820718e-16 7.7715611723760958e-16 1 
1 0.55000000000000004 0 0 1 
1 -0.29999999999999982 5.8286708792820718e-16 -7.7715611723760958e-16 1 
8 -0.55000000000000004 0.55000000000000004
1 5.0341395347813318 0 -0 -1 
1 0 6.6803398874989472 1 0 
1 0 0.55000000000000004 1 0 
2 2.2204460492503131e-15 1.4999999999999982 9.4368957093138286e-16 -1 1 9.4368957093138286e-16 1.2000000000000006
1 0 -0.55000000000000004 1 0 
2 2.2204460492503131e-15 -1.4999999999999982 9.4368957093138286e-16 1 1 -9.4368957093138286e-16 1.2000000000000006
1 7.5322310795778407 0 0 1 
1 0 4.5000000000000027 -1 -0 
1 -0.55000000000000004 -0 0 1 
1 0.30000000000000149 -2.2204460492503131e-16 -8.8817841970012504e-16 1 
1 0.55000000000000004 0 0 1 
1 -0.30000000000000149 -2.2204460492503131e-16 8.8817841970012504e-16 1 
1 0 11.180339887498949 1 0 
1 0.29999999999999999 0 0 1 
1 -0.55000000000000004 0 0 1 
1 0 9.3786796564403581 1 0 
1 -0.57402514854763353 0.11418070123306938 0.38268343236508889 0.92387953251128718 
8 5.8904862254808616 6.6758843888783108
1 0 0.55000000000000004 1 0 
2 -2.2204460492503131e-16 1.5 -5.5511151231257827e-16 -1 1 -5.5511151231257827e-16 1.1999999999999995
1 0.57402514854763531 0.11418070123307006 -0.38268343236509139 0.92387953251128607 
1 -1.1102230246251565e-15 0.62132034355964239 1 1.1102230246251565e-16 
1 0.2999999999999996 4.163336342344337e-16 0 1 
1 -0.54999999999999993 0 0 1 
1 -4.4408920985006262e-16 6.8276513216129082 1 0 
1 -0.24027336451045028 -0.019368813543748989 -0.1601822430069676 0.98708745763749672 
8 6.1223100299812652 6.4440605843779073
1 0 -0.55000000000000004 1 0 
2 1.1102230246251565e-16 -1.4999999999999996 -2.2204460492503131e-16 1 1 2.2204460492503131e-16 1.8000000000000005
1 0.240273364510452 -0.019368813543754429 0.16018224300696687 0.98708745763749683 
1 -1.8041124150158794e-16 0.24341649025256976 1 0 
1 0.29999999999999982 -5.8286708792820718e-16 0 1 
1 -0.55000000000000004 0 0 1 
1 4.4408920985006262e-16 6.6803398874989455 1 0 
1 -1.4230249470757739 -1.0256583509747419 -0.94868329805051432 0.31622776601683661 
8 5.0341395347813318 7.5322310795778407
1 0 -0.55000000000000004 1 0 
2 2.2204460492503131e-15 -1.4999999999999982 -3.3306690738754691e-16 1 1 3.3306690738754691e-16 1.8000000000000007
1 1.4230249470757708 -1.0256583509747397 0.94868329805051332 0.31622776601683927 
1 -6.4392935428259079e-15 4.5 1 0 
1 0.30000000000000149 2.2204460492503131e-16 0 1 
1 -0.55000000000000004 -0 -0 1 
1 0 11.180339887498953 1 0 
1 0.55000000000000004 0 0 1 
1 -0.29999999999999999 0 0 1 
8 -0.55000000000000004 0.55000000000000004
1 5.8904862254808616 0 -0 -1 
1 0 9.3786796564403581 1 0 
1 0 -0.55000000000000004 1 0 
2 -2.2204460492503131e-16 -1.5 -5.5511151231257827e-16 1 1 5.5511151231257827e-16 1.1999999999999995
1 6.6758843888783108 0 0 1 
1 0 0.62132034355964061 -1 0 
1 0.55000000000000004 0 0 1 
1 -0.2999999999999996 3.8857805861880479e-16 1.0547118733938985e-15 1 
8 -0.55000000000000004 0.55000000000000004
1 6.1223100299812652 0 0 1 
1 0 6.8276513216129091 1 0 
1 0 0.55000000000000004 1 0 
2 1.1102230246251565e-16 1.4999999999999996 -2.2204460492503131e-16 -1 1 -2.2204460492503131e-16 1.8000000000000005
1 6.4440605843779073 0 0 1 
1 0 0.24341649025256779 1 0 
1 0.55000000000000004 0 0 1 
1 -0.29999999999999982 -5.8286708792820718e-16 7.7715611723760958e-16 1 
8 -0.55000000000000004 0.55000000000000004
1 5.0341395347813318 0 0 1 
1 0 6.6803398874989472 1 0 
1 0 0.55000000000000004 1 0 
2 2.2204460492503131e-15 1.4999999999999982 -3.3306690738754691e-16 -1 1 -3.3306690738754691e-16 1.8000000000000007
1 7.5322310795778407 0 0 1 
1 -0 4.5000000000000018 1 0 
1 0.55000000000000004 0 0 1 
1 -0.30000000000000149 2.2204460492503131e-16 -8.8817841970012504e-16 1 
1 -0 11.180339887498949 1 0 
1 0 9.3786796564403581 1 0 
1 -0.57402514854763353 -0.11418070123306938 -0.38268343236508889 0.92387953251128718 
1 0.57402514854763531 -0.11418070123307006 0.38268343236509139 0.92387953251128607 
1 1.1102230246251565e-15 0.62132034355964239 1 -1.1102230246251565e-16 
1 4.4408920985006262e-16 6.8276513216129082 1 0 
1 -0.24027336451045028 0.019368813543748989 0.1601822430069676 0.98708745763749672 
1 0.240273364510452 0.019368813543754429 -0.16018224300696687 0.98708745763749683 
1 1.8041124150158794e-16 0.24341649025256976 1 0 
1 -4.4408920985006262e-16 6.6803398874989455 1 0 
1 -1.4230249470757739 1.0256583509747419 0.94868329805051432 0.31622776601683661 
1 1.4230249470757708 1.0256583509747397 -0.94868329805051332 0.31622776601683927 
1 6.4392935428259079e-15 4.5 1 0 
1 0 11.180339887498953 1 0 
Curves 120
1 0 0 -0.75 0 1 0 
1 0 0 0.75 0 -1 0 
1 0 0.5 0 0 0 1 
1 0 -0.5 0 0 0 -1 
1 0 -0.29999999999999999 0 0 -0 1 
1 0 0.29999999999999999 0 0 0 -1 
1 0 0 0.55000000000000004 0 1 0 
1 0 0 -0.55000000000000004 0 -1 0 
1 0 -0.5 -0.75 1 -0 0 
1 0 0.5 -0.75 1 -0 0 
1 9.3786796564403581 0 -0.75 0 1 0 
2 9.3786796564403581 1.4999999999999998 -0.75 -0 0 1 0.38268343236508967 -0.92387953251128685 0 0.92387953251128685 0.38268343236508967 0 1.9999999999999998
2 9.3786796564403581 1.4999999999999998 -0.75 -0 0 1 0.38268343236508806 -0.92387953251128752 0 0.92387953251128752 0.38268343236508806 0 0.99999999999999944
1 10.439339828220179 0.43933982822017814 -0.75 -0.70710678118654802 0.70710678118654702 0 
1 10.353553390593275 -0.35355339059327351 -0.74999999999999989 0.70710678118654702 0.70710678118654813 0 
1 9.6464466094067252 0.35355339059327351 -0.74999999999999989 0.70710678118654702 0.70710678118654813 0 
1 14.827878549089776 4.8278785490897835 -0.74999999999999989 -0.70710678118654813 0.70710678118654702 0 
2 15.888538720869601 3.7672183773099581 -0.74999999999999989 0 0 -1 -0.58471028466376529 0.81124218517556057 0 0.81124218517556057 0.58471028466376529 0 1.0000000000000007
2 15.888538720869601 3.7672183773099581 -0.74999999999999989 0 0 -1 -0.58471028466376496 0.8112421851755609 0 0.8112421851755609 0.58471028466376496 0 1.9999999999999996
1 15.217718327619664 5.1088591638098322 -0.74999999999999989 -0.44721359549995865 0.89442719099991563 0 
1 15.22360679774998 4.5527864045000426 -0.75 0.89442719099991552 0.44721359549995859 0 
1 14.77639320225002 5.4472135954999574 -0.75 0.89442719099991552 0.44721359549995859 0 
1 20.975077640500373 7.9875388202501929 -0.75 -0.44721359549995859 0.89442719099991552 0 
2 21.645898033750314 6.6458980337503153 -0.75000000000000022 0 0 -1 0.70710678118654891 0.70710678118654624 0 0.70710678118654624 -0.70710678118654891 0 1.0000000000000011
2 21.645898033750314 6.6458980337503153 -0.75000000000000022 0 0 -1 0.70710678118654802 0.70710678118654713 0 0.70710678118654713 -0.70710678118654802 0 1.9999999999999998
1 22.987538820250187 5.9750776405003805 -0.75000000000000022 0.8944271909999163 -0.44721359549995732 0 
1 24.552786404500043 10.223606797749978 -0.75 -0.44721359549995732 -0.8944271909999163 0 
1 25.447213595499957 9.7763932022500217 -0.75 -0.44721359549995732 -0.8944271909999163 0 
1 20.000000000000007 -5.3290705182007514e-15 -0.75 0.8944271909999163 -0.44721359549995732 0 
1 0 0.5 0.75 1 -0 0 
1 9.3786796564403581 0.5 0 0 0 1 
2 9.3786796564403581 1.4999999999999998 0.75 -0 0 1 0.38268343236508806 -0.92387953251128752 0 0.92387953251128752 0.38268343236508806 0 0.99999999999999944
1 10.085786437626904 0.79289321881345143 0 -0 0 1 
1 9.6464466094067252 0.35355339059327345 0.75 0.70710678118654779 0.70710678118654746 -0 
1 14.474325158496505 5.1814319396830522 0 0 0 1 
2 15.888538720869601 3.7672183773099581 0.75 0 0 -1 -0.58471028466376496 0.8112421851755609 0 0.8112421851755609 0.58471028466376496 0 1.9999999999999996
1 14.994111529869684 5.5560727593097896 0 0 0 -1 
1 14.77639320225002 5.4472135954999574 0.75 0.89442719099991597 0.44721359549995798 -0 
1 20.751470842750397 8.4347524157501468 0 0 0 1 
2 21.645898033750314 6.6458980337503153 0.75 0 0 -1 0.70710678118654757 0.70710678118654757 0 0.70710678118654757 -0.70710678118654757 0 2.0000000000000009
1 23.434752415750147 5.7514708427503995 0 0 0 -1 
1 25.447213595499957 9.7763932022500217 0.75 -0.44721359549995654 -0.89442719099991663 0 
1 20.447213595499971 -0.22360679774998715 0 0 0 1 
1 0 -0.5 0.75 1 0 0 
1 9.3786796564403581 0 0.75 0 -1 0 
2 9.3786796564403581 1.4999999999999998 0.75 -0 0 1 0.38268343236508967 -0.92387953251128685 0 0.92387953251128685 0.38268343236508967 0 1.9999999999999998
1 10.439339828220179 0.43933982822017814 0.75 0.70710678118654802 -0.70710678118654702 0 
1 10.353553390593275 -0.35355339059327351 0.74999999999999989 0.70710678118654702 0.70710678118654813 0 
1 14.827878549089776 4.8278785490897835 0.74999999999999989 0.70710678118654813 -0.70710678118654702 0 
2 15.888538720869601 3.7672183773099581 0.74999999999999989 0 0 -1 -0.58471028466376529 0.81124218517556057 0 0.81124218517556057 0.58471028466376529 0 1.0000000000000007
1 15.217718327619664 5.1088591638098322 0.74999999999999989 0.44721359549995865 -0.89442719099991563 0 
1 15.22360679774998 4.5527864045000426 0.75 0.89442719099991552 0.44721359549995859 0 
1 20.975077640500373 7.9875388202501929 0.75 0.44721359549995859 -0.89442719099991552 0 
2 21.645898033750314 6.6458980337503153 0.75000000000000022 0 0 -1 0.70710678118654891 0.70710678118654624 0 0.70710678118654624 -0.70710678118654891 0 1.0000000000000011
1 22.987538820250187 5.9750776405003805 0.75000000000000022 -0.8944271909999163 0.44721359549995732 0 
1 24.552786404500043 10.223606797749978 0.75 -0.44721359549995732 -0.8944271909999163 0 
1 20.000000000000007 -5.3290705182007514e-15 0.75 -0.8944271909999163 0.44721359549995732 0 
1 9.3786796564403581 -0.5 0 0 0 -1 
1 10.792893218813454 0.085786437626904855 0 -0 0 1 
1 15.181431939683055 4.474325158496506 0 -0 0 -1 
1 15.441325125369643 4.6616455683098739 0 0 0 -1 
1 21.198684438250357 7.5403252247502319 0 -0 0 -1 
1 22.54032522475023 6.1986844382503552 0 0 0 -1 
1 19.552786404500058 0.22360679774996939 0 0 0 -1 
1 0 -0.29999999999999999 -0.55000000000000004 1 0 -0 
1 0 -0.29999999999999999 0.55000000000000004 1 0 -0 
1 9.3786796564403581 -0.29999999999999999 0 0 -0 1 
2 9.3786796564403581 1.4999999999999998 -0.55000000000000004 -0 0 1 0.38268343236508967 -0.92387953251128685 0 0.92387953251128685 0.38268343236508967 0 1.7999999999999998
2 9.3786796564403581 1.4999999999999998 0.55000000000000004 -0 0 1 0.38268343236508967 -0.92387953251128685 0 0.92387953251128685 0.38268343236508967 0 1.7999999999999998
1 10.651471862576145 0.2272077938642143 0 -0 0 1 
1 10.212132034355964 -0.21213203435596406 -0.55000000000000004 0.70710678118654779 0.70710678118654746 -0 
1 10.212132034355964 -0.21213203435596406 0.55000000000000004 0.70710678118654779 0.70710678118654746 -0 
1 15.040010583445746 4.6157465147338153 0 0 0 1 
2 15.888538720869601 3.7672183773099581 -0.55000000000000004 0 0 -1 -0.58471028466376473 0.81124218517556113 0 0.81124218517556113 0.58471028466376473 0 1.1999999999999997
2 15.888538720869601 3.7672183773099581 0.55000000000000004 0 0 -1 -0.58471028466376473 0.81124218517556113 0 0.81124218517556113 0.58471028466376473 0 1.1999999999999997
1 15.351882406269652 4.840531006509857 0 0 0 -1 
1 15.134164078649988 4.7316718427000257 -0.55000000000000004 0.89442719099991597 0.44721359549995798 -0 
1 15.134164078649988 4.7316718427000257 0.55000000000000004 0.89442719099991597 0.44721359549995798 -0 
1 21.109241719150365 7.7192106629502142 0 0 0 1 
2 21.645898033750314 6.6458980337503153 -0.55000000000000004 0 0 -1 0.70710678118654868 0.70710678118654646 0 0.70710678118654646 -0.70710678118654868 0 1.2000000000000006
2 21.645898033750314 6.6458980337503153 0.55000000000000004 0 0 -1 0.70710678118654868 0.70710678118654646 0 0.70710678118654646 -0.70710678118654868 0 1.2000000000000006
1 22.719210662950214 6.1092417191503641 0 0 0 -1 
1 24.731671842700024 10.134164078649988 -0.55000000000000004 -0.44721359549995654 -0.89442719099991663 0 
1 24.731671842700024 10.134164078649988 0.55000000000000004 -0.44721359549995654 -0.89442719099991663 0 
1 19.731671842700038 0.13416407864997915 0 0 0 1 
1 0 0.29999999999999999 0.55000000000000004 1 -0 0 
1 9.3786796564403581 0 0.55000000000000004 0 1 0 
2 9.3786796564403581 1.4999999999999998 0.55000000000000004 -0 0 1 0.38268343236508834 -0.9238795325112874 0 0.9238795325112874 0.38268343236508834 0 1.1999999999999995
1 10.439339828220179 0.43933982822017814 0.55000000000000004 -0.70710678118654802 0.70710678118654702 0 
1 9.7878679656440362 0.21213203435596409 0.54999999999999993 0.70710678118654702 0.70710678118654813 0 
1 14.827878549089776 4.8278785490897835 0.54999999999999993 -0.70710678118654813 0.70710678118654702 0 
2 15.888538720869601 3.7672183773099581 0.54999999999999993 0 0 -1 -0.58471028466376551 0.81124218517556057 0 0.81124218517556057 0.58471028466376551 0 1.8000000000000005
1 15.217718327619664 5.1088591638098322 0.54999999999999993 -0.44721359549995865 0.89442719099991563 0 
1 14.865835921350012 5.2683281572999743 0.55000000000000004 0.89442719099991552 0.44721359549995859 0 
1 20.975077640500373 7.9875388202501929 0.55000000000000004 -0.44721359549995859 0.89442719099991552 0 
2 21.645898033750314 6.6458980337503153 0.55000000000000016 0 0 -1 0.70710678118654779 0.70710678118654735 0 0.70710678118654735 -0.70710678118654779 0 1.8000000000000007
1 22.987538820250187 5.9750776405003805 0.55000000000000016 0.8944271909999163 -0.44721359549995732 0 
1 25.268328157299976 9.865835921350012 0.55000000000000004 -0.44721359549995732 -0.8944271909999163 0 
1 20.000000000000007 -5.3290705182007514e-15 0.55000000000000004 0.8944271909999163 -0.44721359549995732 -0 
1 0 0.29999999999999999 -0.55000000000000004 1 0 0 
1 9.3786796564403581 0.29999999999999999 0 0 0 -1 
2 9.3786796564403581 1.4999999999999998 -0.55000000000000004 -0 0 1 0.38268343236508834 -0.9238795325112874 0 0.9238795325112874 0.38268343236508834 0 1.1999999999999995
1 10.227207793864213 0.65147186257614176 0 -0 0 1 
1 9.7878679656440362 0.21213203435596406 -0.55000000000000004 0.70710678118654779 0.70710678118654746 0 
1 14.615746514733818 5.0400105834457429 0 0 0 -1 
2 15.888538720869601 3.7672183773099581 -0.55000000000000004 0 0 -1 -0.58471028466376551 0.81124218517556057 0 0.81124218517556057 0.58471028466376551 0 1.8000000000000005
1 15.083554248969675 5.3771873211098065 0 0 0 -1 
1 14.865835921350012 5.2683281572999743 -0.55000000000000004 0.89442719099991597 0.44721359549995798 0 
1 20.840913561850389 8.2558669775501627 0 0 0 -1 
2 21.645898033750314 6.6458980337503153 -0.55000000000000004 0 0 -1 0.70710678118654779 0.70710678118654735 0 0.70710678118654735 -0.70710678118654779 0 1.8000000000000007
1 23.255866977550163 5.8409135618503907 0 0 0 -1 
1 25.268328157299976 9.865835921350012 -0.55000000000000004 -0.44721359549995654 -0.89442719099991663 -0 
1 20.26832815729999 -0.13416407864999691 0 0 0 -1 
1 9.3786796564403581 0 -0.55000000000000004 0 -1 0 
1 10.439339828220179 0.43933982822017814 -0.55000000000000004 0.70710678118654802 -0.70710678118654702 0 
1 14.827878549089776 4.8278785490897835 -0.54999999999999993 0.70710678118654813 -0.70710678118654702 0 
1 15.217718327619664 5.1088591638098322 -0.54999999999999993 0.44721359549995865 -0.89442719099991563 0 
1 20.975077640500373 7.9875388202501929 -0.55000000000000004 0.44721359549995859 -0.89442719099991552 0 
1 22.987538820250187 5.9750776405003805 -0.55000000000000016 -0.8944271909999163 0.44721359549995732 0 
1 20.000000000000007 -5.3290705182007514e-15 -0.55000000000000004 -0.8944271909999163 0.44721359549995732 0 
Polygon3D 0
PolygonOnTriangulations 0
Surfaces 58
1 0 0 0 1 0 0 0 0 1 0 -1 0 
1 0 0 -0.75 0 0 -1 0 1 0 1 -0 0 
1 0 0 0.75 -0 0 1 0 -1 0 1 0 0 
1 0 0.5 0 0 1 -0 0 0 1 1 -0 0 
1 0 -0.5 0 0 -1 0 0 0 -1 1 0 0 
1 0 -0.29999999999999999 0 0 1 0 0 -0 1 1 0 -0 
1 0 0.29999999999999999 0 0 -1 0 0 0 -1 1 0 0 
1 0 0 0.55000000000000004 0 -0 -1 0 1 0 1 -0 0 
1 0 0 -0.55000000000000004 -0 0 1 0 -1 0 1 0 0 
1 9.9527048049879916 0.11418070123306934 -0.75 -0 0 1 0.92387953251128718 0.38268343236508889 0 -0.38268343236508889 0.92387953251128718 -0 
10 5.8904862254808616 6.6758843888783108 -0.75 0.75
2 9.3786796564403581 1.4999999999999998 0 -0 0 1 0.38268343236508967 -0.92387953251128685 0 0.92387953251128685 0.38268343236508967 0 1.9999999999999998
10 5.8904862254808616 6.6758843888783108 -0.75 0.75
2 9.3786796564403581 1.4999999999999998 0 -0 0 1 0.38268343236508806 -0.92387953251128752 0 0.92387953251128752 0.38268343236508806 0 0.99999999999999944
1 10 0 -0.74999999999999989 0 0 -1 -0.70710678118654813 0.70710678118654702 0 0.70710678118654702 0.70710678118654813 0 
1 10.353553390593275 -0.35355339059327345 0 0.70710678118654746 -0.70710678118654779 -0 -0 0 -1 0.70710678118654779 0.70710678118654746 0 
1 9.6464466094067252 0.35355339059327345 0 -0.70710678118654746 0.70710678118654779 0 0 0 1 0.70710678118654779 0.70710678118654746 -0 
1 15.011473293873953 4.9840816550732985 -0.74999999999999989 -0 -0 1 0.81124218517556057 0.58471028466376529 0 -0.58471028466376529 0.81124218517556057 0 
10 6.1223100299812652 6.4440605843779073 -0.75 0.75
2 15.888538720869601 3.7672183773099581 0 0 0 -1 -0.58471028466376529 0.81124218517556057 0 0.81124218517556057 0.58471028466376529 0 1.0000000000000007
10 6.1223100299812652 6.4440605843779073 -0.75 0.75
2 15.888538720869601 3.7672183773099581 0 0 0 -1 -0.58471028466376496 0.8112421851755609 0 0.8112421851755609 0.58471028466376496 0 1.9999999999999996
1 15 5 -0.75 0 0 -1 -0.44721359549995859 0.89442719099991552 0 0.89442719099991552 0.44721359549995859 0 
1 15.22360679774998 4.5527864045000426 0 0.44721359549995798 -0.89442719099991597 -0 -0 0 -1 0.89442719099991597 0.44721359549995798 0 
1 14.77639320225002 5.4472135954999574 0 -0.44721359549995798 0.89442719099991597 0 0 0 1 0.89442719099991597 0.44721359549995798 -0 
1 22.706558205530133 7.7065582055301363 -0.75000000000000022 -0 -0 1 0.70710678118654713 -0.70710678118654802 0 0.70710678118654802 0.70710678118654713 0 
10 5.0341395347813318 7.5322310795778407 -0.75 0.75
2 21.645898033750314 6.6458980337503153 0 0 0 -1 0.70710678118654891 0.70710678118654624 0 0.70710678118654624 -0.70710678118654891 0 1.0000000000000011
10 5.0341395347813318 7.5322310795778407 -0.75 0.75
2 21.645898033750314 6.6458980337503153 0 0 0 -1 0.70710678118654757 0.70710678118654757 0 0.70710678118654757 -0.70710678118654757 0 2.0000000000000009
1 25 10 -0.75 0 -0 -1 0.8944271909999163 -0.44721359549995732 0 -0.44721359549995732 -0.8944271909999163 0 
1 24.552786404500043 10.223606797749978 0 -0.89442719099991663 0.44721359549995654 0 0 0 -1 -0.44721359549995654 -0.89442719099991663 -0 
1 25.447213595499957 9.7763932022500217 0 0.89442719099991663 -0.44721359549995654 0 0 0 1 -0.44721359549995654 -0.89442719099991663 0 
1 9.9527048049879916 0.11418070123306934 0.75 0 -0 -1 0.92387953251128718 0.38268343236508889 0 0.38268343236508889 -0.92387953251128718 0 
1 10 0 0.74999999999999989 -0 0 1 0.70710678118654813 -0.70710678118654702 0 0.70710678118654702 0.70710678118654813 0 
1 15.011473293873953 4.9840816550732985 0.74999999999999989 0 0 -1 0.81124218517556057 0.58471028466376529 0 0.58471028466376529 -0.81124218517556057 0 
1 15 5 0.75 -0 0 1 0.44721359549995859 -0.89442719099991552 0 0.89442719099991552 0.44721359549995859 0 
1 22.706558205530133 7.7065582055301363 0.75000000000000022 0 0 -1 0.70710678118654713 -0.70710678118654802 0 -0.70710678118654802 -0.70710678118654713 -0 
1 25 10 0.75 0 0 1 -0.8944271909999163 0.44721359549995732 0 -0.44721359549995732 -0.8944271909999163 0 
10 5.8904862254808616 6.6758843888783108 -0.55000000000000004 0.55000000000000004
2 9.3786796564403581 1.4999999999999998 0 -0 0 1 0.38268343236508967 -0.92387953251128685 0 0.92387953251128685 0.38268343236508967 0 1.7999999999999998
1 9.9527048049879916 0.11418070123306934 -0.55000000000000004 0 -0 -1 0.92387953251128718 0.38268343236508889 0 0.38268343236508889 -0.92387953251128718 0 
1 9.9527048049879916 0.11418070123306934 0.55000000000000004 -0 0 1 0.92387953251128718 0.38268343236508889 0 -0.38268343236508889 0.92387953251128718 -0 
1 10.212132034355964 -0.21213203435596406 0 -0.70710678118654746 0.70710678118654779 0 0 0 1 0.70710678118654779 0.70710678118654746 -0 
1 10 0 -0.54999999999999993 -0 0 1 0.70710678118654813 -0.70710678118654702 0 0.70710678118654702 0.70710678118654813 0 
1 10 0 0.54999999999999993 0 0 -1 -0.70710678118654813 0.70710678118654702 0 0.70710678118654702 0.70710678118654813 0 
10 6.1223100299812652 6.4440605843779073 -0.55000000000000004 0.55000000000000004
2 15.888538720869601 3.7672183773099581 0 0 0 -1 -0.58471028466376473 0.81124218517556113 0 0.81124218517556113 0.58471028466376473 0 1.1999999999999997
1 15.011473293873953 4.9840816550732985 -0.54999999999999993 0 0 -1 0.81124218517556057 0.58471028466376529 0 0.58471028466376529 -0.81124218517556057 0 
1 15.011473293873953 4.9840816550732985 0.54999999999999993 -0 -0 1 0.81124218517556057 0.58471028466376529 0 -0.58471028466376529 0.81124218517556057 0 
1 15.134164078649988 4.7316718427000257 0 -0.44721359549995798 0.89442719099991597 0 0 0 1 0.89442719099991597 0.44721359549995798 -0 
1 15 5 -0.55000000000000004 -0 0 1 0.44721359549995859 -0.89442719099991552 0 0.89442719099991552 0.44721359549995859 0 
1 15 5 0.55000000000000004 0 0 -1 -0.44721359549995859 0.89442719099991552 0 0.89442719099991552 0.44721359549995859 0 
10 5.0341395347813318 7.5322310795778407 -0.55000000000000004 0.55000000000000004
2 21.645898033750314 6.6458980337503153 0 0 0 -1 0.70710678118654868 0.70710678118654646 0 0.70710678118654646 -0.70710678118654868 0 1.2000000000000006
1 22.706558205530133 7.7065582055301363 -0.55000000000000016 0 0 -1 0.70710678118654713 -0.70710678118654802 0 -0.70710678118654802 -0.70710678118654713 -0 
1 22.706558205530133 7.7065582055301363 0.55000000000000016 -0 -0 1 0.70710678118654713 -0.70710678118654802 0 0.70710678118654802 0.70710678118654713 0 
1 24.731671842700024 10.134164078649988 0 0.89442719099991663 -0.44721359549995654 0 0 0 1 -0.44721359549995654 -0.89442719099991663 0 
1 25 10 -0.55000000000000004 0 0 1 -0.8944271909999163 0.44721359549995732 0 -0.44721359549995732 -0.8944271909999163 0 
1 25 10 0.55000000000000004 -0 0 -1 0.8944271909999163 -0.44721359549995732 -0 -0.44721359549995732 -0.8944271909999163 0 
10 5.8904862254808616 6.6758843888783108 -0.55000000000000004 0.55000000000000004
2 9.3786796564403581 1.4999999999999998 0 -0 0 1 0.38268343236508834 -0.9238795325112874 0 0.9238795325112874 0.38268343236508834 0 1.1999999999999995
1 9.7878679656440362 0.21213203435596406 0 0.70710678118654746 -0.70710678118654779 0 0 0 -1 0.70710678118654779 0.70710678118654746 0 
10 6.1223100299812652 6.4440605843779073 -0.55000000000000004 0.55000000000000004
2 15.888538720869601 3.7672183773099581 0 0 0 -1 -0.58471028466376551 0.81124218517556057 0 0.81124218517556057 0.58471028466376551 0 1.8000000000000005
1 14.865835921350012 5.2683281572999743 0 0.44721359549995798 -0.89442719099991597 0 0 0 -1 0.89442719099991597 0.44721359549995798 0 
10 5.0341395347813318 7.5322310795778407 -0.55000000000000004 0.55000000000000004
2 21.645898033750314 6.6458980337503153 0 0 0 -1 0.70710678118654779 0.70710678118654735 0 0.70710678118654735 -0.70710678118654779 0 1.8000000000000007
1 25.268328157299976 9.865835921350012 0 -0.89442719099991663 0.44721359549995654 0 0 0 -1 -0.44721359549995654 -0.89442719099991663 -0 
1 20 -1.7763568394002505e-15 0 -0.44721359549995732 -0.8944271909999163 0 0 0 1 -0.8944271909999163 0.44721359549995732 0 
Triangulations 0

TShapes 304
Ve
1.01e-07
0 -0.5 -0.75
0 0

0101101
*
Ve
1.01e-07
0 0.5 -0.75
0 0

0101101
*
Ed
 1e-07 1 1 0
1  1 0 -0.5 0.5
2  1 2 0 -0.5 0.5
0

0101000
+304 0 -303 0 *
Ve
1.01e-07
0 0.5 0.75
0 0

0101101
*
Ve
1.01e-07
0 -0.5 0.75
0 0

0101101
*
Ed
 1e-07 1 1 0
1  2 0 -0.5 0.5
2  2 3 0 -0.5 0.5
0

0101000
+301 0 -300 0 *
Ed
 1e-07 1 1 0
1  3 0 -0.75 0.75
2  3 4 0 -0.75 0.75
0

0101000
-301 0 +303 0 *
Ed
 1e-07 1 1 0
1  4 0 -0.75 0.75
2  4 5 0 -0.75 0.75
0

0101000
-304 0 +300 0 *
Wi

0101100
+302 0 +299 0 +298 0 +297 0 *
Ve
1.01e-07
0 -0.3 -0.55
0 0

0101101
*
Ve
1.01e-07
0 -0.3 0.55
0 0

0101101
*
Ed
 1.00005e-07 1 1 0
1  5 0 -0.55 0.55
2  5 6 0 -0.55 0.55
0

0101000
+295 0 -294 0 *
Ve
1.01e-07
0 0.3 0.55
0 0

0101101
*
Ve
1.01e-07
0 0.3 -0.55
0 0

0101101
*
Ed
 1.00005e-07 1 1 0
1  6 0 -0.55 0.55
2  6 7 0 -0.55 0.55
0

0101000
+292 0 -291 0 *
Ed
 1.00005e-07 1 1 0
1  7 0 -0.3 0.3
2  7 8 0 -0.3 0.3
0

0101000
-292 0 +294 0 *
Ed
 1.00005e-07 1 1 0
1  8 0 -0.3 0.3
2  8 9 0 -0.3 0.3
0

0101000
-295 0 +291 0 *
Wi

0101100
+293 0 +290 0 +289 0 +288 0 *
Fa
0  1e-07 1 0

0101000
+296 0 +287 0 *
Ve
1.01e-07
9.37867965644036 -0.5 -0.75
0 0

0101101
*
Ed
 1e-07 1 1 0
1  9 0 0 9.37867965644036
2  9 2 0 0 9.37867965644036
2  10 5 0 0 9.37867965644036
0

0101000
+304 0 -285 0 *
Ve
1.01e-07
9.37867965644036 0.5 -0.75
0 0

0101101
*
Ed
 1e-07 1 1 0
1  10 0 0 9.37867965644036
2  11 2 0 0 9.37867965644036
2  12 4 0 0 9.37867965644036
0

0101000
+303 0 -283 0 *
Ed
 1e-07 1 1 0
1  11 0 -0.5 0.5
2  13 2 0 -0.5 0.5
2  14 10 0 -0.5 0.5
4 C1 10 0 2 0
0

0101000
+285 0 -283 0 *
Wi

0101100
-284 0 +302 0 +282 0 -281 0 *
Fa
0  1e-07 2 0

0101000
+280 0 *
Ve
1.01e-07
10.7928932188135 0.0857864376269051 -0.75
0 0

0101101
*
Ed
 1e-07 1 1 0
1  12 0 5.89048622548086 6.67588438887831
2  15 11 0 5.89048622548086 6.67588438887831
2  16 10 0 5.89048622548086 6.67588438887831
0

0101000
+285 0 -278 0 *
Ve
1.01e-07
10.0857864376269 0.792893218813452 -0.75
0 0

0101101
*
Ed
 1e-07 1 1 0
1  13 0 5.89048622548086 6.67588438887831
2  17 12 0 5.89048622548086 6.67588438887831
2  18 10 0 5.89048622548086 6.67588438887831
0

0101000
+283 0 -276 0 *
Ed
 1e-07 1 1 0
1  14 0 -0.5 0.5
2  19 10 0 -0.5 0.5
2  20 13 0 -0.5 0.5
4 C1 13 0 10 0
0

0101000
+278 0 -276 0 *
Wi

0101100
+277 0 -281 0 -275 0 +274 0 *
Fa
0  1e-07 10 0

0101000
+273 0 *
Ve
1.01e-07
15.1814319396831 4.47432515849651 -0.75
0 0

0101101
*
Ed
 1e-07 1 1 0
1  15 0 0.621320343559643 6.82765132161291
2  21 13 0 0.621320343559643 6.82765132161291
2  22 14 0 0.621320343559643 6.82765132161291
0

0101000
+278 0 -271 0 *
Ve
1.01e-07
14.4743251584965 5.18143193968305 -0.75
0 0

0101101
*
Ed
 1e-07 1 1 0
1  16 0 0.621320343559643 6.82765132161291
2  23 13 0 0.621320343559643 6.82765132161291
2  24 15 0 0.621320343559643 6.82765132161291
0

0101000
+276 0 -269 0 *
Ed
 1e-07 1 1 0
1  17 0 -0.5 0.5
2  25 13 0 -0.5 0.5
2  26 16 0 -0.5 0.5
4 C1 16 0 13 0
0

0101000
+271 0 -269 0 *
Wi

0101100
-270 0 +274 0 +268 0 -267 0 *
Fa
0  1e-07 13 0

0101000
+266 0 *
Ve
1.01e-07
15.4413251253696 4.66164556830987 -0.75
0 0

0101101
*
Ed
 1e-07 1 1 0
1  18 0 6.12231002998127 6.44406058437791
2  27 17 0 6.12231002998127 6.44406058437791
2  28 16 0 6.12231002998127 6.44406058437791
0

0101000
+271 0 -264 0 *
Ve
1.01e-07
14.9941115298697 5.55607275930979 -0.75
0 0

0101101
*
Ed
 1e-07 1 1 0
1  19 0 6.12231002998127 6.44406058437791
2  29 18 0 6.12231002998127 6.44406058437791
2  30 16 0 6.12231002998127 6.44406058437791
0

0101000
+269 0 -262 0 *
Ed
 1e-07 1 1 0
1  20 0 -0.5 0.5
2  31 16 0 -0.5 0.5
2  32 19 0 -0.5 0.5
4 C1 19 0 16 0
0

0101000
+264 0 -262 0 *
Wi

0101100
+263 0 -267 0 -261 0 +260 0 *
Fa
0  1e-07 16 0

0101000
+259 0 *
Ve
1.01e-07
21.1986844382504 7.54032522475023 -0.75
0 0

0101101
*
Ed
 1e-07 1 1 0
1  21 0 0.24341649025257 6.68033988749895
2  33 19 0 0.24341649025257 6.68033988749895
2  34 20 0 0.24341649025257 6.68033988749895
0

0101000
+264 0 -257 0 *
Ve
1.01e-07
20.7514708427504 8.43475241575015 -0.75
0 0

0101101
*
Ed
 1e-07 1 1 0
1  22 0 0.24341649025257 6.68033988749895
2  35 19 0 0.24341649025257 6.68033988749895
2  36 21 0 0.24341649025257 6.68033988749895
0

0101000
+262 0 -255 0 *
Ed
 1e-07 1 1 0
1  23 0 -0.5 0.5
2  37 19 0 -0.5 0.5
2  38 22 0 -0.5 0.5
4 C1 22 0 19 0
0

0101000
+257 0 -255 0 *
Wi

0101100
-256 0 +260 0 +254 0 -253 0 *
Fa
0  1e-07 19 0

0101000
+252 0 *
Ve
1.01e-07
22.5403252247502 6.19868443825036 -0.75
0 0

0101101
*
Ed
 1e-07 1 1 0
1  24 0 5.03413953478133 7.53223107957784
2  39 23 0 5.03413953478133 7.53223107957784
2  40 22 0 5.03413953478133 7.53223107957784
0

0101000
+257 0 -250 0 *
Ve
1.01e-07
23.4347524157501 5.7514708427504 -0.75
0 0

0101101
*
Ed
 1e-07 1 1 0
1  25 0 5.03413953478133 7.53223107957784
2  41 24 0 5.03413953478133 7.53223107957784
2  42 22 0 5.03413953478133 7.53223107957784
0

0101000
+255 0 -248 0 *
Ed
 1e-07 1 1 0
1  26 0 -0.5 0.5
2  43 22 0 -0.5 0.5
2  44 25 0 -0.5 0.5
4 C1 25 0 22 0
0

0101000
+250 0 -248 0 *
Wi

0101100
+249 0 -253 0 -247 0 +246 0 *
Fa
0  1e-07 22 0

0101000
+245 0 *
Ve
1.01e-07
19.5527864045001 0.223606797749969 -0.75
0 0

0101101
*
Ed
 1e-07 1 1 0
1  27 0 4.5 11.1803398874989
2  45 25 0 4.5 11.1803398874989
2  46 26 0 4.5 11.1803398874989
0

0101000
+250 0 -243 0 *
Ve
1.01e-07
20.4472135955 -0.223606797749987 -0.75
0 0

0101101
*
Ed
 1e-07 1 1 0
1  28 0 4.5 11.1803398874989
2  47 25 0 4.5 11.1803398874989
2  48 27 0 4.5 11.1803398874989
0

0101000
+248 0 -241 0 *
Ed
 1e-07 1 1 0
1  29 0 -0.5 0.5
2  49 25 0 -0.5 0.5
0

0101000
+243 0 -241 0 *
Wi

0101100
-242 0 +246 0 +240 0 -239 0 *
Fa
0  1e-07 25 0

0101000
+238 0 *
Ve
1.01e-07
9.37867965644036 0.5 0.75
0 0

0101101
*
Ed
 1e-07 1 1 0
1  30 0 0 9.37867965644036
2  50 4 0 0 9.37867965644036
2  51 3 0 0 9.37867965644036
0

0101000
+301 0 -236 0 *
Ed
 1e-07 1 1 0
1  31 0 -0.75 0.75
2  52 12 0 -0.75 0.75
2  53 4 0 -0.75 0.75
4 C1 12 0 4 0
0

0101000
+283 0 -236 0 *
Wi

0101100
-282 0 +298 0 +235 0 -234 0 *
Fa
0  1e-07 4 0

0101000
+233 0 *
Ve
1.01e-07
10.0857864376269 0.792893218813452 0.75
0 0

0101101
*
Ed
 1e-07 1 1 0
1  32 0 5.89048622548086 6.67588438887831
2  54 12 0 5.89048622548086 6.67588438887831
2  55 28 0 5.89048622548086 6.67588438887831
0

0101000
+236 0 -231 0 *
Ed
 1e-07 1 1 0
1  33 0 -0.75 0.75
2  56 12 0 -0.75 0.75
2  57 15 0 -0.75 0.75
4 C1 15 0 12 0
0

0101000
+276 0 -231 0 *
Wi

0101100
+275 0 -234 0 -230 0 +229 0 *
Fa
0  1e-07 12 0

0101000
+228 0 *
Ve
1.01e-07
14.4743251584965 5.18143193968305 0.75
0 0

0101101
*
Ed
 1e-07 1 1 0
1  34 0 0.621320343559643 6.82765132161291
2  58 15 0 0.621320343559643 6.82765132161291
2  59 29 0 0.621320343559643 6.82765132161291
0

0101000
+231 0 -226 0 *
Ed
 1e-07 1 1 0
1  35 0 -0.75 0.75
2  60 18 0 -0.75 0.75
2  61 15 0 -0.75 0.75
4 G1 18 0 15 0
0

0101000
+269 0 -226 0 *
Wi

0101100
-268 0 +229 0 +225 0 -224 0 *
Fa
0  1e-07 15 0

0101000
+223 0 *
Ve
1.01e-07
14.9941115298697 5.55607275930979 0.75
0 0

0101101
*
Ed
 1e-07 1 1 0
1  36 0 6.12231002998127 6.44406058437791
2  62 18 0 6.12231002998127 6.44406058437791
2  63 30 0 6.12231002998127 6.44406058437791
0

0101000
+226 0 -221 0 *
Ed
 1e-07 1 1 0
1  37 0 -0.75 0.75
2  64 18 0 -0.75 0.75
2  65 21 0 -0.75 0.75
4 G1 21 0 18 0
0

0101000
+221 0 -262 0 *
Wi

0101100
-261 0 +224 0 +220 0 +219 0 *
Fa
0  1e-07 18 0

0101000
+218 0 *
Ve
1.01e-07
20.7514708427504 8.43475241575015 0.75
0 0

0101101
*
Ed
 1e-07 1 1 0
1  38 0 0.24341649025257 6.68033988749895
2  66 21 0 0.24341649025257 6.68033988749895
2  67 31 0 0.24341649025257 6.68033988749895
0

0101000
+221 0 -216 0 *
Ed
 1e-07 1 1 0
1  39 0 -0.75 0.75
2  68 24 0 -0.75 0.75
2  69 21 0 -0.75 0.75
4 G1 24 0 21 0
0

0101000
+255 0 -216 0 *
Wi

0101100
-254 0 -219 0 +215 0 -214 0 *
Fa
0  1e-07 21 0

0101000
+213 0 *
Ve
1.01e-07
23.4347524157501 5.7514708427504 0.75
0 0

0101101
*
Ed
 1e-07 1 1 0
1  40 0 5.03413953478133 7.53223107957784
2  70 24 0 5.03413953478133 7.53223107957784
2  71 32 0 5.03413953478133 7.53223107957784
0

0101000
+216 0 -211 0 *
Ed
 1e-07 1 1 0
1  41 0 -0.75 0.75
2  72 24 0 -0.75 0.75
2  73 27 0 -0.75 0.75
4 G1 27 0 24 0
0

0101000
+211 0 -248 0 *
Wi

0101100
-247 0 +214 0 +210 0 +209 0 *
Fa
0  1e-07 24 0

0101000
+208 0 *
Ve
1.01e-07
20.4472135955 -0.223606797749984 0.75
0 0

0101101
*
Ed
 1e-07 1 1 0
1  42 0 4.5 11.1803398874989
2  74 27 0 4.5 11.1803398874989
2  75 33 0 4.5 11.1803398874989
0

0101000
+211 0 -206 0 *
Ed
 1e-07 1 1 0
1  43 0 -0.75 0.75
2  76 27 0 -0.75 0.75
0

0101000
-206 0 +241 0 *
Wi

0101100
-240 0 -209 0 +205 0 -204 0 *
Fa
0  1e-07 27 0

0101000
+203 0 *
Ve
1.01e-07
9.37867965644036 -0.5 0.75
0 0

0101101
*
Ed
 1e-07 1 1 0
1  44 0 0 9.37867965644036
2  77 3 0 0 9.37867965644036
2  78 5 0 0 9.37867965644036
0

0101000
+300 0 -201 0 *
Ed
 1e-07 1 1 0
1  45 0 -0.5 0.5
2  79 3 0 -0.5 0.5
2  80 28 0 -0.5 0.5
4 C1 28 0 3 0
0

0101000
+236 0 -201 0 *
Wi

0101100
-235 0 +299 0 +200 0 -199 0 *
Fa
0  1e-07 3 0

0101000
+198 0 *
Ve
1.01e-07
10.7928932188135 0.0857864376269051 0.75
0 0

0101101
*
Ed
 1e-07 1 1 0
1  46 0 5.89048622548086 6.67588438887831
2  81 11 0 5.89048622548086 6.67588438887831
2  82 28 0 5.89048622548086 6.67588438887831
0

0101000
+201 0 -196 0 *
Ed
 1e-07 1 1 0
1  47 0 -0.5 0.5
2  83 28 0 -0.5 0.5
2  84 29 0 -0.5 0.5
4 C1 29 0 28 0
0

0101000
+231 0 -196 0 *
Wi

0101100
+230 0 -199 0 -195 0 +194 0 *
Fa
0  1e-07 28 0

0101000
+193 0 *
Ve
1.01e-07
15.1814319396831 4.47432515849651 0.75
0 0

0101101
*
Ed
 1e-07 1 1 0
1  48 0 0.621320343559643 6.82765132161291
2  85 29 0 0.621320343559643 6.82765132161291
2  86 14 0 0.621320343559643 6.82765132161291
0

0101000
+196 0 -191 0 *
Ed
 1e-07 1 1 0
1  49 0 -0.5 0.5
2  87 29 0 -0.5 0.5
2  88 30 0 -0.5 0.5
4 C1 30 0 29 0
0

0101000
+226 0 -191 0 *
Wi

0101100
-225 0 +194 0 +190 0 -189 0 *
Fa
0  1e-07 29 0

0101000
+188 0 *
Ve
1.01e-07
15.4413251253696 4.66164556830987 0.75
0 0

0101101
*
Ed
 1e-07 1 1 0
1  50 0 6.12231002998127 6.44406058437791
2  89 17 0 6.12231002998127 6.44406058437791
2  90 30 0 6.12231002998127 6.44406058437791
0

0101000
+191 0 -186 0 *
Ed
 1e-07 1 1 0
1  51 0 -0.5 0.5
2  91 30 0 -0.5 0.5
2  92 31 0 -0.5 0.5
4 C1 31 0 30 0
0

0101000
+221 0 -186 0 *
Wi

0101100
+220 0 -189 0 -185 0 +184 0 *
Fa
0  1e-07 30 0

0101000
+183 0 *
Ve
1.01e-07
21.1986844382504 7.54032522475023 0.75
0 0

0101101
*
Ed
 1e-07 1 1 0
1  52 0 0.24341649025257 6.68033988749895
2  93 31 0 0.24341649025257 6.68033988749895
2  94 20 0 0.24341649025257 6.68033988749895
0

0101000
+186 0 -181 0 *
Ed
 1e-07 1 1 0
1  53 0 -0.5 0.5
2  95 31 0 -0.5 0.5
2  96 32 0 -0.5 0.5
4 C1 32 0 31 0
0

0101000
+216 0 -181 0 *
Wi

0101100
-215 0 +184 0 +180 0 -179 0 *
Fa
0  1e-07 31 0

0101000
+178 0 *
Ve
1.01e-07
22.5403252247502 6.19868443825036 0.75
0 0

0101101
*
Ed
 1e-07 1 1 0
1  54 0 5.03413953478133 7.53223107957784
2  97 23 0 5.03413953478133 7.53223107957784
2  98 32 0 5.03413953478133 7.53223107957784
0

0101000
+181 0 -176 0 *
Ed
 1e-07 1 1 0
1  55 0 -0.5 0.5
2  99 32 0 -0.5 0.5
2  100 33 0 -0.5 0.5
4 C1 33 0 32 0
0

0101000
+211 0 -176 0 *
Wi

0101100
+210 0 -179 0 -175 0 +174 0 *
Fa
0  1e-07 32 0

0101000
+173 0 *
Ve
1.01e-07
19.5527864045001 0.223606797749969 0.75
0 0

0101101
*
Ed
 1e-07 1 1 0
1  56 0 4.5 11.1803398874989
2  101 33 0 4.5 11.1803398874989
2  102 26 0 4.5 11.1803398874989
0

0101000
+176 0 -171 0 *
Ed
 1e-07 1 1 0
1  57 0 -0.5 0.5
2  103 33 0 -0.5 0.5
0

0101000
+206 0 -171 0 *
Wi

0101100
-205 0 +174 0 +170 0 -169 0 *
Fa
0  1e-07 33 0

0101000
+168 0 *
Ed
 1e-07 1 1 0
1  58 0 -0.75 0.75
2  104 11 0 -0.75 0.75
2  105 5 0 -0.75 0.75
4 G1 11 0 5 0
0

0101000
+201 0 -285 0 *
Wi

0101100
-200 0 +297 0 +284 0 -166 0 *
Fa
0  1e-07 5 0

0101000
+165 0 *
Ed
 1e-07 1 1 0
1  59 0 -0.75 0.75
2  106 11 0 -0.75 0.75
2  107 14 0 -0.75 0.75
4 G1 14 0 11 0
0

0101000
+278 0 -196 0 *
Wi

0101100
-195 0 +166 0 +277 0 +163 0 *
Fa
0  1e-07 11 0

0101000
+162 0 *
Ed
 1e-07 1 1 0
1  60 0 -0.75 0.75
2  108 17 0 -0.75 0.75
2  109 14 0 -0.75 0.75
4 C1 17 0 14 0
0

0101000
+191 0 -271 0 *
Wi

0101100
-190 0 -163 0 +270 0 -160 0 *
Fa
0  1e-07 14 0

0101000
+159 0 *
Ed
 1e-07 1 1 0
1  61 0 -0.75 0.75
2  110 17 0 -0.75 0.75
2  111 20 0 -0.75 0.75
4 C1 20 0 17 0
0

0101000
+186 0 -264 0 *
Wi

0101100
+185 0 -160 0 -263 0 +157 0 *
Fa
0  1e-07 17 0

0101000
+156 0 *
Ed
 1e-07 1 1 0
1  62 0 -0.75 0.75
2  112 23 0 -0.75 0.75
2  113 20 0 -0.75 0.75
4 C1 23 0 20 0
0

0101000
+181 0 -257 0 *
Wi

0101100
-180 0 +157 0 +256 0 -154 0 *
Fa
0  1e-07 20 0

0101000
+153 0 *
Ed
 1e-07 1 1 0
1  63 0 -0.75 0.75
2  114 23 0 -0.75 0.75
2  115 26 0 -0.75 0.75
4 C1 26 0 23 0
0

0101000
+176 0 -250 0 *
Wi

0101100
+175 0 -154 0 -249 0 +151 0 *
Fa
0  1e-07 23 0

0101000
+150 0 *
Ed
 1e-07 1 1 0
1  64 0 -0.75 0.75
2  116 26 0 -0.75 0.75
0

0101000
-243 0 +171 0 *
Wi

0101100
-170 0 +151 0 +242 0 -148 0 *
Fa
0  1e-07 26 0

0101000
+147 0 *
Ve
1.01e-07
9.37867965644036 -0.3 -0.55
0 0

0101101
*
Ed
 1e-07 1 1 0
1  65 0 0 9.37867965644036
2  117 6 0 0 9.37867965644036
2  118 9 0 0 9.37867965644036
0

0101000
+295 0 -145 0 *
Ve
1.01e-07
9.37867965644036 -0.3 0.55
0 0

0101101
*
Ed
 1e-07 1 1 0
1  66 0 0 9.37867965644036
2  119 6 0 0 9.37867965644036
2  120 8 0 0 9.37867965644036
0

0101000
+294 0 -143 0 *
Ed
 1e-07 1 1 0
1  67 0 -0.55 0.55
2  121 34 0 -0.55 0.55
2  122 6 0 -0.55 0.55
4 G1 34 0 6 0
0

0101000
+145 0 -143 0 *
Wi

0101100
-144 0 +293 0 +142 0 -141 0 *
Fa
0  1e-07 6 0

0101000
+140 0 *
Ve
1.01e-07
10.6514718625761 0.227207793864214 -0.55
0 0

0101101
*
Ed
 1e-07 1 1 0
1  68 0 5.89048622548086 6.67588438887831
2  123 34 0 5.89048622548086 6.67588438887831
2  124 35 0 5.89048622548086 6.67588438887831
0

0101000
+145 0 -138 0 *
Ve
1.01e-07
10.6514718625761 0.227207793864214 0.55
0 0

0101101
*
Ed
 1e-07 1 1 0
1  69 0 5.89048622548086 6.67588438887831
2  125 34 0 5.89048622548086 6.67588438887831
2  126 36 0 5.89048622548086 6.67588438887831
0

0101000
+143 0 -136 0 *
Ed
 1e-07 1 1 0
1  70 0 -0.55 0.55
2  127 34 0 -0.55 0.55
2  128 37 0 -0.55 0.55
4 G1 37 0 34 0
0

0101000
+138 0 -136 0 *
Wi

0101100
+137 0 -141 0 -135 0 +134 0 *
Fa
0  1e-07 34 0

0101000
+133 0 *
Ve
1.01e-07
15.0400105834457 4.61574651473382 -0.55
0 0

0101101
*
Ed
 1e-07 1 1 0
1  71 0 0.621320343559643 6.82765132161291
2  129 37 0 0.621320343559643 6.82765132161291
2  130 38 0 0.621320343559643 6.82765132161291
0

0101000
+138 0 -131 0 *
Ve
1.01e-07
15.0400105834457 4.61574651473382 0.55
0 0

0101101
*
Ed
 1e-07 1 1 0
1  72 0 0.621320343559643 6.82765132161291
2  131 37 0 0.621320343559643 6.82765132161291
2  132 39 0 0.621320343559643 6.82765132161291
0

0101000
+136 0 -129 0 *
Ed
 1e-07 1 1 0
1  73 0 -0.55 0.55
2  133 40 0 -0.55 0.55
2  134 37 0 -0.55 0.55
4 G1 40 0 37 0
0

0101000
+131 0 -129 0 *
Wi

0101100
-130 0 +134 0 +128 0 -127 0 *
Fa
0  1e-07 37 0

0101000
+126 0 *
Ve
1.01e-07
15.3518824062697 4.84053100650986 -0.55
0 0

0101101
*
Ed
 1e-07 1 1 0
1  74 0 6.12231002998127 6.44406058437791
2  135 40 0 6.12231002998127 6.44406058437791
2  136 41 0 6.12231002998127 6.44406058437791
0

0101000
+131 0 -124 0 *
Ve
1.01e-07
15.3518824062697 4.84053100650986 0.55
0 0

0101101
*
Ed
 1e-07 1 1 0
1  75 0 6.12231002998127 6.44406058437791
2  137 40 0 6.12231002998127 6.44406058437791
2  138 42 0 6.12231002998127 6.44406058437791
0

0101000
+129 0 -122 0 *
Ed
 1e-07 1 1 0
1  76 0 -0.55 0.55
2  139 40 0 -0.55 0.55
2  140 43 0 -0.55 0.55
4 G1 43 0 40 0
0

0101000
+122 0 -124 0 *
Wi

0101100
-123 0 +127 0 +121 0 +120 0 *
Fa
0  1e-07 40 0

0101000
+119 0 *
Ve
1.01e-07
21.1092417191504 7.71921066295021 -0.55
0 0

0101101
*
Ed
 1e-07 1 1 0
1  77 0 0.24341649025257 6.68033988749895
2  141 43 0 0.24341649025257 6.68033988749895
2  142 44 0 0.24341649025257 6.68033988749895
0

0101000
+124 0 -117 0 *
Ve
1.01e-07
21.1092417191504 7.71921066295021 0.55
0 0

0101101
*
Ed
 1e-07 1 1 0
1  78 0 0.24341649025257 6.68033988749895
2  143 43 0 0.24341649025257 6.68033988749895
2  144 45 0 0.24341649025257 6.68033988749895
0

0101000
+122 0 -115 0 *
Ed
 1e-07 1 1 0
1  79 0 -0.55 0.55
2  145 46 0 -0.55 0.55
2  146 43 0 -0.55 0.55
4 G1 46 0 43 0
0

0101000
+117 0 -115 0 *
Wi

0101100
-116 0 -120 0 +114 0 -113 0 *
Fa
0  1e-07 43 0

0101000
+112 0 *
Ve
1.01e-07
22.7192106629502 6.10924171915036 -0.55
0 0

0101101
*
Ed
 1e-07 1 1 0
1  80 0 5.03413953478133 7.53223107957784
2  147 46 0 5.03413953478133 7.53223107957784
2  148 47 0 5.03413953478133 7.53223107957784
0

0101000
+117 0 -110 0 *
Ve
1.01e-07
22.7192106629502 6.10924171915036 0.55
0 0

0101101
*
Ed
 1e-07 1 1 0
1  81 0 5.03413953478133 7.53223107957784
2  149 46 0 5.03413953478133 7.53223107957784
2  150 48 0 5.03413953478133 7.53223107957784
0

0101000
+115 0 -108 0 *
Ed
 1e-07 1 1 0
1  82 0 -0.55 0.55
2  151 46 0 -0.55 0.55
2  152 49 0 -0.55 0.55
4 G1 49 0 46 0
0

0101000
+108 0 -110 0 *
Wi

0101100
-109 0 +113 0 +107 0 +106 0 *
Fa
0  1e-07 46 0

0101000
+105 0 *
Ve
1.01e-07
19.7316718427 0.134164078649983 -0.55
0 0

0101101
*
Ed
 1e-07 1 1 0
1  83 0 4.5 11.1803398874989
2  153 49 0 4.5 11.1803398874989
2  154 50 0 4.5 11.1803398874989
0

0101000
+110 0 -103 0 *
Ve
1.01e-07
19.7316718427 0.134164078649983 0.55
0 0

0101101
*
Ed
 1e-07 1 1 0
1  84 0 4.5 11.1803398874989
2  155 49 0 4.5 11.1803398874989
2  156 51 0 4.5 11.1803398874989
0

0101000
+108 0 -101 0 *
Ed
 1.00005e-07 1 1 0
1  85 0 -0.55 0.55
2  157 49 0 -0.55 0.55
0

0101000
+103 0 -101 0 *
Wi

0101100
-102 0 -106 0 +100 0 -99 0 *
Fa
0  1e-07 49 0

0101000
+98 0 *
Ve
1.01e-07
9.37867965644036 0.3 0.55
0 0

0101101
*
Ed
 1e-07 1 1 0
1  86 0 0 9.37867965644036
2  158 8 0 0 9.37867965644036
2  159 7 0 0 9.37867965644036
0

0101000
+292 0 -96 0 *
Ed
 1e-07 1 1 0
1  87 0 -0.3 0.3
2  160 8 0 -0.3 0.3
2  161 36 0 -0.3 0.3
4 C1 36 0 8 0
0

0101000
+143 0 -96 0 *
Wi

0101100
-142 0 +289 0 +95 0 -94 0 *
Fa
0  1e-07 8 0

0101000
+93 0 *
Ve
1.01e-07
10.2272077938642 0.651471862576143 0.55
0 0

0101101
*
Ed
 1e-07 1 1 0
1  88 0 5.89048622548086 6.67588438887831
2  162 52 0 5.89048622548086 6.67588438887831
2  163 36 0 5.89048622548086 6.67588438887831
0

0101000
+96 0 -91 0 *
Ed
 1e-07 1 1 0
1  89 0 -0.3 0.3
2  164 36 0 -0.3 0.3
2  165 39 0 -0.3 0.3
4 C1 39 0 36 0
0

0101000
+136 0 -91 0 *
Wi

0101100
+135 0 -94 0 -90 0 +89 0 *
Fa
0  1e-07 36 0

0101000
+88 0 *
Ve
1.01e-07
14.6157465147338 5.04001058344574 0.55
0 0

0101101
*
Ed
 1e-07 1 1 0
1  90 0 0.621320343559643 6.82765132161291
2  166 39 0 0.621320343559643 6.82765132161291
2  167 53 0 0.621320343559643 6.82765132161291
0

0101000
+91 0 -86 0 *
Ed
 1e-07 1 1 0
1  91 0 -0.3 0.3
2  168 39 0 -0.3 0.3
2  169 42 0 -0.3 0.3
4 C1 42 0 39 0
0

0101000
+129 0 -86 0 *
Wi

0101100
-128 0 +89 0 +85 0 -84 0 *
Fa
0  1e-07 39 0

0101000
+83 0 *
Ve
1.01e-07
15.0835542489697 5.37718732110981 0.55
0 0

0101101
*
Ed
 1e-07 1 1 0
1  92 0 6.12231002998127 6.44406058437791
2  170 54 0 6.12231002998127 6.44406058437791
2  171 42 0 6.12231002998127 6.44406058437791
0

0101000
+86 0 -81 0 *
Ed
 1e-07 1 1 0
1  93 0 -0.3 0.3
2  172 42 0 -0.3 0.3
2  173 45 0 -0.3 0.3
4 C1 45 0 42 0
0

0101000
+122 0 -81 0 *
Wi

0101100
+121 0 -84 0 -80 0 +79 0 *
Fa
0  1e-07 42 0

0101000
+78 0 *
Ve
1.01e-07
20.8409135618504 8.25586697755016 0.55
0 0

0101101
*
Ed
 1e-07 1 1 0
1  94 0 0.24341649025257 6.68033988749895
2  174 45 0 0.24341649025257 6.68033988749895
2  175 55 0 0.24341649025257 6.68033988749895
0

0101000
+81 0 -76 0 *
Ed
 1e-07 1 1 0
1  95 0 -0.3 0.3
2  176 45 0 -0.3 0.3
2  177 48 0 -0.3 0.3
4 C1 48 0 45 0
0

0101000
+115 0 -76 0 *
Wi

0101100
-114 0 +79 0 +75 0 -74 0 *
Fa
0  1e-07 45 0

0101000
+73 0 *
Ve
1.01e-07
23.2558669775502 5.84091356185039 0.55
0 0

0101101
*
Ed
 1e-07 1 1 0
1  96 0 5.03413953478133 7.53223107957784
2  178 56 0 5.03413953478133 7.53223107957784
2  179 48 0 5.03413953478133 7.53223107957784
0

0101000
+76 0 -71 0 *
Ed
 1e-07 1 1 0
1  97 0 -0.3 0.3
2  180 48 0 -0.3 0.3
2  181 51 0 -0.3 0.3
4 C1 51 0 48 0
0

0101000
+108 0 -71 0 *
Wi

0101100
+107 0 -74 0 -70 0 +69 0 *
Fa
0  1e-07 48 0

0101000
+68 0 *
Ve
1.01e-07
20.2683281573 -0.134164078649997 0.55
0 0

0101101
*
Ed
 1e-07 1 1 0
1  98 0 4.5 11.1803398874989
2  182 51 0 4.5 11.1803398874989
2  183 57 0 4.5 11.1803398874989
0

0101000
+71 0 -66 0 *
Ed
 1.00005e-07 1 1 0
1  99 0 -0.3 0.3
2  184 51 0 -0.3 0.3
0

0101000
-66 0 +101 0 *
Wi

0101100
-100 0 +69 0 +65 0 -64 0 *
Fa
0  1e-07 51 0

0101000
+63 0 *
Ve
1.01e-07
9.37867965644036 0.3 -0.55
0 0

0101101
*
Ed
 1e-07 1 1 0
1  100 0 0 9.37867965644036
2  185 7 0 0 9.37867965644036
2  186 9 0 0 9.37867965644036
0

0101000
+291 0 -61 0 *
Ed
 1e-07 1 1 0
1  101 0 -0.55 0.55
2  187 52 0 -0.55 0.55
2  188 7 0 -0.55 0.55
4 G1 52 0 7 0
0

0101000
+96 0 -61 0 *
Wi

0101100
-95 0 +290 0 +60 0 -59 0 *
Fa
0  1e-07 7 0

0101000
+58 0 *
Ve
1.01e-07
10.2272077938642 0.651471862576143 -0.55
0 0

0101101
*
Ed
 1e-07 1 1 0
1  102 0 5.89048622548086 6.67588438887831
2  189 52 0 5.89048622548086 6.67588438887831
2  190 35 0 5.89048622548086 6.67588438887831
0

0101000
+61 0 -56 0 *
Ed
 1e-07 1 1 0
1  103 0 -0.55 0.55
2  191 52 0 -0.55 0.55
2  192 53 0 -0.55 0.55
4 G1 53 0 52 0
0

0101000
+56 0 -91 0 *
Wi

0101100
-90 0 +59 0 +55 0 +54 0 *
Fa
0  1e-07 52 0

0101000
+53 0 *
Ve
1.01e-07
14.6157465147338 5.04001058344574 -0.55
0 0

0101101
*
Ed
 1e-07 1 1 0
1  104 0 0.621320343559643 6.82765132161291
2  193 53 0 0.621320343559643 6.82765132161291
2  194 38 0 0.621320343559643 6.82765132161291
0

0101000
+56 0 -51 0 *
Ed
 1e-07 1 1 0
1  105 0 -0.55 0.55
2  195 54 0 -0.55 0.55
2  196 53 0 -0.55 0.55
4 G1 54 0 53 0
0

0101000
+86 0 -51 0 *
Wi

0101100
-85 0 -54 0 +50 0 -49 0 *
Fa
0  1e-07 53 0

0101000
+48 0 *
Ve
1.01e-07
15.0835542489697 5.37718732110981 -0.55
0 0

0101101
*
Ed
 1e-07 1 1 0
1  106 0 6.12231002998127 6.44406058437791
2  197 54 0 6.12231002998127 6.44406058437791
2  198 41 0 6.12231002998127 6.44406058437791
0

0101000
+51 0 -46 0 *
Ed
 1e-07 1 1 0
1  107 0 -0.55 0.55
2  199 54 0 -0.55 0.55
2  200 55 0 -0.55 0.55
4 G1 55 0 54 0
0

0101000
+81 0 -46 0 *
Wi

0101100
+80 0 -49 0 -45 0 +44 0 *
Fa
0  1e-07 54 0

0101000
+43 0 *
Ve
1.01e-07
20.8409135618504 8.25586697755016 -0.55
0 0

0101101
*
Ed
 1e-07 1 1 0
1  108 0 0.24341649025257 6.68033988749895
2  201 55 0 0.24341649025257 6.68033988749895
2  202 44 0 0.24341649025257 6.68033988749895
0

0101000
+46 0 -41 0 *
Ed
 1e-07 1 1 0
1  109 0 -0.55 0.55
2  203 56 0 -0.55 0.55
2  204 55 0 -0.55 0.55
4 G1 56 0 55 0
0

0101000
+76 0 -41 0 *
Wi

0101100
-75 0 +44 0 +40 0 -39 0 *
Fa
0  1e-07 55 0

0101000
+38 0 *
Ve
1.01e-07
23.2558669775502 5.84091356185039 -0.55
0 0

0101101
*
Ed
 1e-07 1 1 0
1  110 0 5.03413953478133 7.53223107957784
2  205 56 0 5.03413953478133 7.53223107957784
2  206 47 0 5.03413953478133 7.53223107957784
0

0101000
+41 0 -36 0 *
Ed
 1e-07 1 1 0
1  111 0 -0.55 0.55
2  207 56 0 -0.55 0.55
2  208 57 0 -0.55 0.55
4 G1 57 0 56 0
0

0101000
+71 0 -36 0 *
Wi

0101100
+70 0 -39 0 -35 0 +34 0 *
Fa
0  1e-07 56 0

0101000
+33 0 *
Ve
1.01e-07
20.2683281573 -0.134164078649993 -0.55
0 0

0101101
*
Ed
 1e-07 1 1 0
1  112 0 4.5 11.1803398874989
2  209 57 0 4.5 11.1803398874989
2  210 50 0 4.5 11.1803398874989
0

0101000
+36 0 -31 0 *
Ed
 1.00005e-07 1 1 0
1  113 0 -0.55 0.55
2  211 57 0 -0.55 0.55
0

0101000
+66 0 -31 0 *
Wi

0101100
-65 0 +34 0 +30 0 -29 0 *
Fa
0  1e-07 57 0

0101000
+28 0 *
Ed
 1e-07 1 1 0
1  114 0 -0.3 0.3
2  212 9 0 -0.3 0.3
2  213 35 0 -0.3 0.3
4 C1 35 0 9 0
0

0101000
+61 0 -145 0 *
Wi

0101100
-60 0 +288 0 +144 0 -26 0 *
Fa
0  1e-07 9 0

0101000
+25 0 *
Ed
 1e-07 1 1 0
1  115 0 -0.3 0.3
2  214 35 0 -0.3 0.3
2  215 38 0 -0.3 0.3
4 C1 38 0 35 0
0

0101000
+56 0 -138 0 *
Wi

0101100
+55 0 -26 0 -137 0 +23 0 *
Fa
0  1e-07 35 0

0101000
+22 0 *
Ed
 1e-07 1 1 0
1  116 0 -0.3 0.3
2  216 38 0 -0.3 0.3
2  217 41 0 -0.3 0.3
4 C1 41 0 38 0
0

0101000
+51 0 -131 0 *
Wi

0101100
-50 0 +23 0 +130 0 -20 0 *
Fa
0  1e-07 38 0

0101000
+19 0 *
Ed
 1e-07 1 1 0
1  117 0 -0.3 0.3
2  218 41 0 -0.3 0.3
2  219 44 0 -0.3 0.3
4 C1 44 0 41 0
0

0101000
+46 0 -124 0 *
Wi

0101100
+45 0 -20 0 -123 0 +17 0 *
Fa
0  1e-07 41 0

0101000
+16 0 *
Ed
 1e-07 1 1 0
1  118 0 -0.3 0.3
2  220 44 0 -0.3 0.3
2  221 47 0 -0.3 0.3
4 C1 47 0 44 0
0

0101000
+41 0 -117 0 *
Wi

0101100
-40 0 +17 0 +116 0 -14 0 *
Fa
0  1e-07 44 0

0101000
+13 0 *
Ed
 1e-07 1 1 0
1  119 0 -0.3 0.3
2  222 47 0 -0.3 0.3
2  223 50 0 -0.3 0.3
4 C1 50 0 47 0
0

0101000
+36 0 -110 0 *
Wi

0101100
+35 0 -14 0 -109 0 +11 0 *
Fa
0  1e-07 47 0

0101000
+10 0 *
Ed
 1.00005e-07 1 1 0
1  120 0 -0.3 0.3
2  224 50 0 -0.3 0.3
0

0101000
-103 0 +31 0 *
Wi

0101100
-30 0 +11 0 +102 0 -8 0 *
Fa
0  1e-07 50 0

0101000
+7 0 *
Wi

0101100
+239 0 +169 0 +204 0 +148 0 *
Wi

0101100
+99 0 +29 0 +64 0 +8 0 *
Fa
0  1e-07 58 0

0101000
+5 0 +4 0 *
Sh

0101100
-286 0 +279 0 -272 0 +265 0 -258 0 +251 0 -244 0 +237 0 +232 0 -227 0 
+222 0 +217 0 +212 0 +207 0 +202 0 +197 0 -192 0 +187 0 -182 0 +177 0 
-172 0 +167 0 +164 0 +161 0 +158 0 -155 0 +152 0 -149 0 +146 0 +139 0 
-132 0 +125 0 +118 0 +111 0 +104 0 +97 0 +92 0 -87 0 +82 0 -77 0 
+72 0 -67 0 +62 0 +57 0 +52 0 +47 0 -42 0 +37 0 -32 0 +27 0 
+24 0 -21 0 +18 0 -15 0 +12 0 -9 0 +6 0 +3 0 *
So

1100000
+2 0 *

+1 1  