
CASCADE Topology V1, (c) Matra-Datavision
Locations 1
1
              1               0               0               0 
              0               1               0               0 
              0               0               1               0 
Curve2ds 112
1 0 0 1 0 
1 0 0 1 0 
1 0 0 1 0 
1 0 0 1 0 
1 -0.5 0 0 1 
1 0.75 0 0 1 
1 0.5 0 0 1 
1 -0.75 0 0 1 
8 -0.5 0.5
1 5.8904862254808616 0 0 1 
1 0 9.3786796564403581 1 0 
1 0 -0.5 1 0 
8 5.8904862254808616 6.6758843888783108
1 0 -0.75 1 0 
1 0 0.5 1 0 
8 5.8904862254808616 6.6758843888783108
1 0 -0.75 1 0 
1 6.6758843888783108 0 0 1 
1 -1.1861667522263072e-15 0.62132034355964239 1 1.7237389771082026e-15 
1 -0.4999999999999995 -5.0104700555092554e-16 -1.1059384153317788e-16 1 
1 0.75000000000000022 -9.0324321391573935e-16 -3.6957713117000364e-16 1 
1 0.4999999999999995 5.0104700555092554e-16 -1.1059384153317788e-16 1 
1 -0.75000000000000022 -8.7548763830011044e-16 3.6957713117000364e-16 1 
8 -0.5 0.5
1 6.1223100299812652 0 -0 -1 
1 -6.1080221733925636e-16 6.8276513216129064 1 -1.0812901352330529e-16 
1 0 0.5 1 0 
8 6.1223100299812652 6.4440605843779073
1 0 0.75 1 0 
1 0 -0.5 1 0 
8 6.1223100299812652 6.4440605843779073
1 0 0.75 1 0 
1 6.4440605843779073 0 0 1 
1 6.7268860333717237e-16 0.2434164902525682 -1 -2.4247718129492416e-16 
1 -0.49999999999999983 7.3050438661940314e-17 1.5815867679070469e-17 1 
1 0.74999999999999989 5.8670167959227886e-16 -2.278810370362498e-16 1 
1 0.49999999999999983 -7.3050438661940314e-17 1.5815867679070469e-17 1 
1 -0.74999999999999989 5.8670167959227886e-16 2.278810370362498e-16 1 
8 -0.5 0.5
1 5.0341395347813318 0 -0 -1 
1 1.5716719681104815e-15 6.680339887498949 1 2.0432576369892875e-17 
1 0 0.5 1 0 
8 5.0341395347813318 7.5322310795778407
1 0 0.75 1 0 
1 0 -0.5 1 0 
8 5.0341395347813318 7.5322310795778407
1 0 0.75 1 0 
1 7.5322310795778407 0 0 1 
1 -2.3459347964088809e-15 4.5000000000000027 -1 -1.5243866921551825e-15 
1 -0.50000000000000056 -4.0137086307441528e-16 2.9664347431806079e-17 1 
1 0.74999999999999967 2.1252651887502029e-16 2.8858197730777105e-16 1 
1 0.50000000000000056 4.0137086307441528e-16 2.9664347431806079e-17 1 
1 -0.74999999999999967 2.1252651887502029e-16 -2.8858197730777105e-16 1 
1 2.8692201303901447e-15 11.180339887498951 1 2.5585608911221108e-17 
1 0.75 0 0 1 
1 -0.5 0 0 1 
8 -0.75 0.75
1 5.8904862254808616 0 0 1 
1 0 9.3786796564403581 1 0 
1 0 0.75 1 0 
8 5.8904862254808616 6.6758843888783108
1 0 0.5 1 0 
1 6.6758843888783108 0 0 1 
1 3.8188259452297629e-16 0.62132034355964272 1 -4.7951396879383488e-16 
1 0.75000000000000044 8.7548763830011044e-16 1.1101641917984462e-17 1 
1 -0.4999999999999995 5.0104700555092554e-16 1.1146281473843454e-15 1 
8 -0.75 0.75
1 6.1223100299812652 0 -0 -1 
1 3.4256295864994428e-16 6.8276513216129082 1 -7.6691833281434012e-18 
1 0 -0.75 1 0 
8 6.1223100299812652 6.4440605843779073
1 0 -0.5 1 0 
1 6.4440605843779073 0 0 1 
1 3.6368335543493268e-17 0.24341649025256978 -1 2.086536767333743e-16 
1 0.75000000000000022 -5.8670167959227896e-16 2.1168915484834604e-18 1 
1 -0.49999999999999895 -4.6162849728074523e-16 6.1058592203238788e-16 1 
8 -0.75 0.75
1 5.0341395347813318 0 -0 -1 
1 4.3949418612916071e-16 6.6803398874989499 1 -1.4364647423971905e-17 
1 0 -0.75 1 0 
8 5.0341395347813318 7.5322310795778407
1 0 -0.5 1 0 
1 7.5322310795778407 0 0 1 
1 1.8504010874254125e-15 4.5000000000000018 -1 4.0364285283441891e-16 
1 0.74999999999999967 -2.1252651887502029e-16 -6.841738018404884e-18 1 
1 -0.50000000000000056 4.0137086307441528e-16 -6.1169638810004707e-16 1 
1 -5.6364299933196899e-17 11.180339887498951 1 -1.5064794215614122e-17 
1 0.5 0 0 1 
1 -0.75 0 0 1 
8 -0.5 0.5
1 5.8904862254808616 0 -0 -1 
1 0 9.3786796564403581 1 0 
1 0 -0.5 1 0 
8 5.8904862254808616 6.6758843888783108
1 0 0.75 1 0 
1 6.6758843888783108 0 0 1 
1 -1.3145487883240851e-16 0.62132034355964105 -1 8.9107170863933543e-16 
1 0.4999999999999995 -5.0104700555092554e-16 1.1059384153317788e-16 1 
1 -0.75000000000000022 8.7548763830011044e-16 -3.6957713117000364e-16 1 
8 -0.5 0.5
1 6.1223100299812652 0 0 1 
1 6.1080221733925636e-16 6.8276513216129064 1 1.0812901352330529e-16 
1 0 0.5 1 0 
8 6.1223100299812652 6.4440605843779073
1 0 -0.75 1 0 
1 6.4440605843779073 0 0 1 
1 9.7799993510909032e-16 0.2434164902525694 1 -3.5349948375743987e-16 
1 0.49999999999999983 7.3050438661940314e-17 -1.5815867679070469e-17 1 
1 -0.74999999999999989 -5.8670167959227886e-16 -2.278810370362498e-16 1 
8 -0.5 0.5
1 5.0341395347813318 0 0 1 
1 9.1457712774385908e-16 6.6803398874989508 1 -2.0432576369892875e-17 
1 0 0.5 1 0 
8 5.0341395347813318 7.5322310795778407
1 0 -0.75 1 0 
1 7.5322310795778407 0 0 1 
1 6.354310840816286e-15 4.5000000000000027 1 -1.0247863310738621e-15 
1 0.50000000000000056 -4.0137086307441528e-16 -2.9664347431806079e-17 1 
1 -0.74999999999999967 -2.1252651887502029e-16 2.8858197730777105e-16 1 
1 -2.8692201303901447e-15 11.180339887498951 1 -2.5585608911221108e-17 
8 -0.75 0.75
1 5.8904862254808616 0 -0 -1 
1 0 9.3786796564403581 1 0 
1 6.6758843888783108 0 0 1 
1 -5.2951666233706392e-16 0.6213203435596425 -1 -4.240028175625771e-16 
8 -0.75 0.75
1 6.1223100299812652 0 0 1 
1 -3.4256295864994428e-16 6.8276513216129082 1 7.6691833281434012e-18 
1 6.4440605843779073 0 0 1 
1 -8.8531754726836843e-17 0.24341649025256781 1 -6.8902079422914835e-17 
8 -0.75 0.75
1 5.0341395347813318 0 0 1 
1 -4.3949418612916071e-16 6.6803398874989499 1 1.4364647423971905e-17 
1 7.5322310795778407 0 0 1 
1 -1.3675393865836634e-15 4.5000000000000036 1 8.1997648706885261e-16 
1 5.6364299933196899e-17 11.180339887498951 1 1.5064794215614122e-17 
Curves 60
1 0 0.25651510749425155 -0.70476946558943132 0 0.93969262078590843 0.34202014332566871 
1 0 -0.25651510749425155 0.70476946558943132 0 -0.93969262078590843 -0.34202014332566871 
1 0 0.46984631039295421 0.17101007166283436 0 -0.34202014332566871 0.93969262078590843 
1 0 -0.46984631039295421 -0.17101007166283436 0 0.34202014332566871 -0.93969262078590843 
1 0 -0.21333120289870267 -0.87577953725226565 1 -0 0 
1 0 0.72636141788720576 -0.53375939392659699 1 -0 0 
1 9.3786796564403581 0.25651510749425155 -0.70476946558943132 0 0.93969262078590843 0.34202014332566871 
2 9.3786796564403581 1.4999999999999998 -0.87577953725226565 -0 0 1 0.38268343236508862 -0.92387953251128729 0 0.92387953251128729 0.38268343236508862 0 1.713331202898702
2 9.3786796564403581 1.4999999999999998 -0.53375939392659699 -0 0 1 0.38268343236508862 -0.92387953251128729 0 0.92387953251128729 0.38268343236508862 0 0.77363858211279357
1 10.257956256234197 0.62072340020615935 -0.70476946558943132 -0.66446302438867411 0.66446302438867555 0.3420201433256686 
1 10.150847940208354 -0.15084794020835582 -0.87577953725226554 0.70710678118654713 0.70710678118654802 3.3306690738754696e-16 
1 9.4863849158196807 0.51361508418031843 -0.53375939392659688 0.70710678118654713 0.70710678118654802 3.3306690738754696e-16 
1 14.646494977103794 5.0092621210757642 -0.70476946558942899 -0.66446302438867533 0.66446302438867422 0.34202014332566866 
2 15.888538720869601 3.7672183773099581 -0.87577953725226565 0 0 -1 -0.58471028466376518 0.81124218517556079 0 0.81124218517556079 0.58471028466376518 0 1.2866687971012976
2 15.888538720869601 3.7672183773099581 -0.53375939392659677 0 0 -1 -0.58471028466376518 0.81124218517556079 0 0.81124218517556079 0.58471028466376518 0 2.226361417887206
1 15.1030012840971 5.3382932508549565 -0.70476946558943121 0.42024331560644501 -0.84048663121288902 -0.34202014332566888 
1 15.09540461428066 4.8091907714386801 -0.87577953725226565 0.89442719099991574 0.44721359549995854 2.2204460492503131e-16 
1 14.675161298674215 5.6496774026515686 -0.53375939392659699 0.89442719099991574 0.44721359549995854 2.2204460492503131e-16 
1 20.860360596977813 8.2169729072953182 -0.70476946558942988 -0.42024331560644523 0.84048663121288902 0.34202014332566877 
2 21.645898033750314 6.6458980337503153 -0.87577953725226587 0 0 -1 0.70710678118654824 0.7071067811865468 0 0.7071067811865468 -0.70710678118654824 0 1.2866687971012989
2 21.645898033750314 6.6458980337503153 -0.53375939392659699 0 0 -1 0.70710678118654824 0.7071067811865468 0 0.7071067811865468 -0.70710678118654824 0 2.2263614178872073
1 23.216972907295315 5.8603605969778139 -0.70476946558943143 -0.8404866312128888 0.42024331560644523 -0.34202014332566882 
1 24.809190771438679 10.09540461428066 -0.87577953725226565 -0.44721359549995715 -0.89442719099991641 -2.4980018054066022e-16 
1 25.649677402651569 9.6751612986742153 -0.53375939392659699 -0.44721359549995715 -0.89442719099991641 -2.4980018054066022e-16 
1 20.229434087045135 -0.11471704352256928 -0.7047694655894341 0.84048663121288958 -0.4202433156064439 0.34202014332566871 
1 0 0.21333120289870267 0.87577953725226565 1 0 0 
1 9.3786796564403581 0.46984631039295421 0.17101007166283436 0 -0.34202014332566871 0.93969262078590843 
2 9.3786796564403581 1.4999999999999998 0.87577953725226554 -0 0 1 0.382683432365089 -0.92387953251128718 0 0.92387953251128718 0.382683432365089 0 1.2866687971012971
1 10.107108316025842 0.77157134041451547 0.17101007166283436 0.24184476264797519 -0.2418447626479755 0.93969262078590843 
1 9.8491520597916455 0.15084794020835574 0.87577953725226565 0.70710678118654768 0.70710678118654746 -3.3306690738754696e-16 
1 14.495647036895445 5.160110061284116 0.17101007166283205 0.24184476264797544 -0.24184476264797508 0.93969262078590843 
2 15.888538720869601 3.7672183773099581 0.87577953725226554 0 0 -1 -0.58471028466376485 0.8112421851755609 0 0.8112421851755609 0.58471028466376485 0 1.7133312028987027
1 15.007596669816442 5.5291024794162764 0.17101007166283433 -0.15295605803008333 0.30591211606016655 -0.93969262078590843 
1 14.90459538571934 5.190809228561319 0.87577953725226565 0.89442719099991597 0.44721359549995809 -2.2204460492503131e-16 
1 20.764955982697156 8.4077821358566336 0.17101007166283289 0.15295605803008347 -0.30591211606016638 0.93969262078590843 
2 21.645898033750314 6.6458980337503153 0.87577953725226565 0 0 -1 0.70710678118654802 0.70710678118654713 0 0.70710678118654713 -0.70710678118654802 0 1.7133312028987029
1 23.407782135856632 5.7649559826971553 0.17101007166283438 0.30591211606016661 -0.15295605803008347 -0.93969262078590843 
1 25.190809228561321 9.9045953857193396 0.87577953725226565 -0.44721359549995665 -0.89442719099991663 2.4980018054066022e-16 
1 20.420243315606459 -0.21012165780323144 0.17101007166283716 -0.30591211606016672 0.15295605803008305 0.93969262078590843 
1 0 -0.72636141788720576 0.53375939392659699 1 0 0 
1 9.3786796564403581 -0.25651510749425155 0.70476946558943132 0 -0.93969262078590843 -0.34202014332566871 
2 9.3786796564403581 1.4999999999999998 0.53375939392659688 -0 0 1 0.3826834323650895 -0.92387953251128696 0 0.92387953251128696 0.3826834323650895 0 2.2263614178872055
1 10.62072340020616 0.25795625623419682 0.70476946558943132 -0.66446302438867466 0.66446302438867488 0.34202014332566882 
1 10.513615084180319 -0.51361508418031843 0.53375939392659688 0.70710678118654713 0.70710678118654802 3.3306690738754696e-16 
1 15.009262121075759 4.6464949771038011 0.70476946558943343 0.66446302438867533 -0.66446302438867422 -0.34202014332566866 
2 15.888538720869601 3.7672183773099581 0.53375939392659677 0 0 -1 -0.58471028466376507 0.8112421851755609 0 0.8112421851755609 0.58471028466376507 0 0.77363858211279424
1 15.332435371142227 4.8794250767647069 0.70476946558943121 0.42024331560644484 -0.84048663121288902 -0.34202014332566882 
1 15.324838701325785 4.3503225973484314 0.53375939392659699 0.89442719099991574 0.44721359549995854 2.2204460492503131e-16 
1 21.089794684022941 7.7581047332050685 0.70476946558943276 0.42024331560644523 -0.84048663121288902 -0.34202014332566877 
2 21.645898033750314 6.6458980337503153 0.53375939392659699 0 0 -1 0.70710678118654791 0.70710678118654724 0 0.70710678118654724 -0.70710678118654791 0 0.77363858211279424
1 22.758104733205062 6.0897946840229409 0.70476946558943143 -0.84048663121288913 0.42024331560644479 -0.34202014332566882 
1 24.350322597348431 10.324838701325785 0.53375939392659699 -0.44721359549995715 -0.89442719099991641 -2.4980018054066022e-16 
1 19.770565912954886 0.11471704352255507 0.70476946558942855 -0.84048663121288958 0.4202433156064439 -0.34202014332566871 
1 9.3786796564403581 -0.46984631039295421 -0.17101007166283436 0 0.34202014332566871 -0.93969262078590843 
1 10.771571340414516 0.10710831602584081 -0.17101007166283436 0.24184476264797519 -0.24184476264797541 0.93969262078590843 
1 15.160110061284119 4.4956470368954422 -0.1710100716628366 -0.24184476264797544 0.24184476264797508 -0.93969262078590843 
1 15.427839985422885 4.6886158482033871 -0.17101007166283433 -0.15295605803008358 0.30591211606016644 -0.93969262078590843 
1 21.185199298303601 7.5672955046437451 -0.17101007166283583 -0.15295605803008347 0.30591211606016638 -0.93969262078590843 
1 22.567295504643742 6.1851992983035986 -0.17101007166283438 0.30591211606016638 -0.1529560580300838 -0.93969262078590843 
1 19.579756684393569 0.21012165780321368 -0.17101007166283155 0.30591211606016672 -0.15295605803008305 -0.93969262078590843 
Polygon3D 0
PolygonOnTriangulations 0
Surfaces 30
1 0 0 0 1 0 0 0 0 1 0 -1 0 
1 0 0.25651510749425155 -0.70476946558943132 0 0.34202014332566871 -0.93969262078590843 0 0.93969262078590843 0.34202014332566871 1 -0 0 
1 0 -0.25651510749425155 0.70476946558943132 0 -0.34202014332566871 0.93969262078590843 0 -0.93969262078590843 -0.34202014332566871 1 0 0 
1 0 0.46984631039295421 0.17101007166283436 -0 0.93969262078590843 0.34202014332566871 0 -0.34202014332566871 0.93969262078590843 1 0 0 
1 0 -0.46984631039295421 -0.17101007166283436 0 -0.93969262078590843 -0.34202014332566871 0 0.34202014332566871 -0.93969262078590843 1 0 0 
10 5.8904862254808616 6.6758843888783108 -0.5 0.5
3 9.3786796564403581 1.4999999999999998 -0.70476946558943132 -0 0 1 0.38268343236508862 -0.92387953251128729 0 0.92387953251128729 0.38268343236508862 0 1.2434848925057478
-1.2217304763960308
10 5.8904862254808616 6.6758843888783108 -0.75 0.75
3 9.3786796564403581 1.4999999999999998 -0.17101007166283436 -0 0 1 0.38268343236508917 -0.92387953251128696 0 0.92387953251128696 0.38268343236508917 0 1.9698463103929538
0.34906585039886595
10 5.8904862254808616 6.6758843888783108 -0.75 0.75
3 9.3786796564403581 1.4999999999999998 0.17101007166283436 -0 0 1 0.382683432365089 -0.92387953251128718 0 0.92387953251128718 0.382683432365089 0 1.0301536896070456
0.34906585039886595
1 9.8186164280140176 0.18138357198598129 -0.70476946558943121 -0.24184476264797516 0.24184476264797528 -0.93969262078590843 -0.66446302438867533 0.66446302438867422 0.34202014332566866 0.70710678118654713 0.70710678118654802 3.3306690738754696e-16 
1 10.332231512194337 -0.33223151219433705 -0.17101007166283433 0.66446302438867455 -0.66446302438867488 -0.34202014332566871 -0.24184476264797544 0.24184476264797508 -0.93969262078590843 0.70710678118654768 0.70710678118654746 -3.3306690738754696e-16 
1 9.6677684878056631 0.33223151219433705 0.17101007166283433 -0.66446302438867455 0.66446302438867488 0.34202014332566871 0.24184476264797544 -0.24184476264797508 0.93969262078590843 0.70710678118654768 0.70710678118654746 -3.3306690738754696e-16 
10 6.1223100299812652 6.4440605843779073 -0.5 0.5
3 15.888538720869601 3.7672183773099581 -0.70476946558943121 0 0 -1 -0.58471028466376518 0.81124218517556079 0 0.81124218517556079 0.58471028466376518 0 1.7565151074942518
-1.2217304763960306
10 6.1223100299812652 6.4440605843779073 -0.75 0.75
3 15.888538720869601 3.7672183773099581 -0.17101007166283433 0 0 -1 -0.58471028466376551 0.81124218517556046 0 0.81124218517556046 0.58471028466376551 0 1.030153689607046
0.34906585039886595
10 6.1223100299812652 6.4440605843779073 -0.75 0.75
3 15.888538720869601 3.7672183773099581 0.17101007166283433 0 0 -1 -0.58471028466376485 0.8112421851755609 0 0.8112421851755609 0.58471028466376485 0 1.9698463103929542
0.34906585039886595
1 14.885282956477438 5.2294340870451244 -0.70476946558943132 -0.15295605803008328 0.30591211606016655 -0.93969262078590843 -0.42024331560644523 0.84048663121288902 0.34202014332566877 0.89442719099991574 0.44721359549995854 2.2204460492503131e-16 
1 15.210121657803223 4.5797566843935558 -0.17101007166283436 0.42024331560644462 -0.84048663121288925 -0.34202014332566871 -0.15295605803008347 0.30591211606016638 -0.93969262078590843 0.89442719099991597 0.44721359549995809 -2.2204460492503131e-16 
1 14.789878342196777 5.4202433156064442 0.17101007166283436 -0.42024331560644462 0.84048663121288925 0.34202014332566871 0.15295605803008347 -0.30591211606016638 0.93969262078590843 0.89442719099991597 0.44721359549995809 -2.2204460492503131e-16 
10 5.0341395347813318 7.5322310795778407 -0.5 0.5
3 21.645898033750314 6.6458980337503153 -0.70476946558943143 0 0 -1 0.70710678118654824 0.7071067811865468 0 0.7071067811865468 -0.70710678118654824 0 1.7565151074942531
-1.2217304763960306
10 5.0341395347813318 7.5322310795778407 -0.75 0.75
3 21.645898033750314 6.6458980337503153 -0.17101007166283438 0 0 -1 0.70710678118654879 0.70710678118654624 0 0.70710678118654624 -0.70710678118654879 0 1.0301536896070467
0.34906585039886595
10 5.0341395347813318 7.5322310795778407 -0.75 0.75
3 21.645898033750314 6.6458980337503153 0.17101007166283438 0 0 -1 0.70710678118654802 0.70710678118654713 0 0.70710678118654713 -0.70710678118654802 0 1.9698463103929544
0.34906585039886595
1 25.229434087045124 9.8852829564774378 -0.70476946558943132 0.30591211606016677 -0.15295605803008278 -0.93969262078590854 0.84048663121288958 -0.4202433156064439 0.34202014332566871 -0.44721359549995715 -0.89442719099991641 -2.4980018054066022e-16 
1 24.579756684393555 10.210121657803223 -0.17101007166283436 -0.84048663121288991 0.42024331560644329 -0.34202014332566877 0.30591211606016672 -0.15295605803008305 -0.93969262078590843 -0.44721359549995665 -0.89442719099991663 2.4980018054066022e-16 
1 25.420243315606445 9.7898783421967774 0.17101007166283436 0.84048663121288991 -0.42024331560644329 0.34202014332566877 -0.30591211606016672 0.15295605803008305 0.93969262078590843 -0.44721359549995665 -0.89442719099991663 2.4980018054066022e-16 
10 5.8904862254808616 6.6758843888783108 -0.5 0.5
3 9.3786796564403581 1.4999999999999998 0.70476946558943132 -0 0 1 0.3826834323650895 -0.92387953251128696 0 0.92387953251128696 0.3826834323650895 0 1.7565151074942513
-1.2217304763960306
1 10.181383571985982 -0.18138357198598129 0.70476946558943121 0.24184476264797516 -0.24184476264797528 0.93969262078590843 0.66446302438867533 -0.66446302438867422 -0.34202014332566866 0.70710678118654713 0.70710678118654802 3.3306690738754696e-16 
10 6.1223100299812652 6.4440605843779073 -0.5 0.5
3 15.888538720869601 3.7672183773099581 0.70476946558943121 0 0 -1 -0.58471028466376507 0.8112421851755609 0 0.8112421851755609 0.58471028466376507 0 1.2434848925057485
-1.2217304763960306
1 15.114717043522562 4.7705659129548756 0.70476946558943132 0.15295605803008328 -0.30591211606016655 0.93969262078590843 0.42024331560644523 -0.84048663121288902 -0.34202014332566877 0.89442719099991574 0.44721359549995854 2.2204460492503131e-16 
10 5.0341395347813318 7.5322310795778407 -0.5 0.5
3 21.645898033750314 6.6458980337503153 0.70476946558943143 0 0 -1 0.70710678118654791 0.70710678118654724 0 0.70710678118654724 -0.70710678118654791 0 1.2434848925057485
-1.2217304763960306
1 24.770565912954876 10.114717043522562 0.70476946558943132 -0.30591211606016677 0.15295605803008278 0.93969262078590854 -0.84048663121288958 0.4202433156064439 -0.34202014332566871 -0.44721359549995715 -0.89442719099991641 -2.4980018054066022e-16 
1 20 -1.7763568394002505e-15 0 -0.44721359549995732 -0.8944271909999163 0 0 0 1 -0.8944271909999163 0.44721359549995732 0 
Triangulations 0

TShapes 154
Ve
1.01e-07
0 -0.213331202898703 -0.875779537252266
0 0

0101101
*
Ve
1.01e-07
0 0.726361417887206 -0.533759393926597
0 0

0101101
*
Ed
 1.00005e-07 1 1 0
1  1 0 -0.5 0.5
2  1 2 0 -0.5 0.5
0

0101000
+154 0 -153 0 *
Ve
1.01e-07
0 0.213331202898703 0.875779537252266
0 0

0101101
*
Ve
1.01e-07
0 -0.726361417887206 0.533759393926597
0 0

0101101
*
Ed
 1.00005e-07 1 1 0
1  2 0 -0.5 0.5
2  2 3 0 -0.5 0.5
0

0101000
+151 0 -150 0 *
Ed
 1.00005e-07 1 1 0
1  3 0 -0.75 0.75
2  3 4 0 -0.75 0.75
0

0101000
-151 0 +153 0 *
Ed
 1.00005e-07 1 1 0
1  4 0 -0.75 0.75
2  4 5 0 -0.75 0.75
0

0101000
-154 0 +150 0 *
Wi

0101100
+152 0 +149 0 +148 0 +147 0 *
Fa
0  1e-07 1 0

0101000
+146 0 *
Ve
1.01e-07
9.37867965644036 -0.213331202898703 -0.875779537252266
0 0

0101101
*
Ed
 1e-07 1 1 0
1  5 0 0 9.37867965644036
2  5 2 0 0 9.37867965644036
2  6 5 0 0 9.37867965644036
0

0101000
+154 0 -144 0 *
Ve
1.01e-07
9.37867965644036 0.726361417887206 -0.533759393926597
0 0

0101101
*
Ed
 1e-07 1 1 0
1  6 0 0 9.37867965644036
2  7 2 0 0 9.37867965644036
2  8 4 0 0 9.37867965644036
0

0101000
+153 0 -142 0 *
Ed
 1e-07 1 1 0
1  7 0 -0.5 0.5
2  9 6 0 -0.5 0.5
2  10 2 0 -0.5 0.5
4 G1 6 0 2 0
0

0101000
+144 0 -142 0 *
Wi

0101100
-143 0 +152 0 +141 0 -140 0 *
Fa
0  1e-07 2 0

0101000
+139 0 *
Ve
1.01e-07
10.5901877684285 0.288491888011823 -0.875779537252266
0 0

0101101
*
Ed
 1e-07 1 1 0
1  8 0 5.89048622548086 6.67588438887831
2  11 6 0 5.89048622548086 6.67588438887831
2  12 7 0 5.89048622548086 6.67588438887831
0

0101000
+144 0 -137 0 *
Ve
1.01e-07
9.92572474403986 0.952954912400497 -0.533759393926597
0 0

0101101
*
Ed
 1e-07 1 1 0
1  9 0 5.89048622548086 6.67588438887831
2  13 6 0 5.89048622548086 6.67588438887831
2  14 8 0 5.89048622548086 6.67588438887831
0

0101000
+142 0 -135 0 *
Ed
 1e-07 1 1 0
1  10 0 -0.5 0.5
2  15 6 0 -0.5 0.5
2  16 9 0 -0.5 0.5
4 G1 9 0 6 0
0

0101000
+137 0 -135 0 *
Wi

0101100
+136 0 -140 0 -134 0 +133 0 *
Fa
0  1e-07 6 0

0101000
+132 0 *
Ve
1.01e-07
14.9787264892981 4.67703060888142 -0.875779537252266
0 0

0101101
*
Ed
 1e-07 1 1 0
1  11 0 0.621320343559643 6.82765132161291
2  17 9 0 0.621320343559643 6.82765132161291
2  18 10 0 0.621320343559643 6.82765132161291
0

0101000
+137 0 -130 0 *
Ve
1.01e-07
14.3142634649095 5.3414936332701 -0.533759393926597
0 0

0101101
*
Ed
 1e-07 1 1 0
1  12 0 0.621320343559643 6.82765132161291
2  19 9 0 0.621320343559643 6.82765132161291
2  20 11 0 0.621320343559643 6.82765132161291
0

0101000
+135 0 -128 0 *
Ed
 1e-07 1 1 0
1  13 0 -0.5 0.5
2  21 12 0 -0.5 0.5
2  22 9 0 -0.5 0.5
4 G1 12 0 9 0
0

0101000
+130 0 -128 0 *
Wi

0101100
-129 0 +133 0 +127 0 -126 0 *
Fa
0  1e-07 9 0

0101000
+125 0 *
Ve
1.01e-07
15.3131229419003 4.91804993524851 -0.875779537252266
0 0

0101101
*
Ed
 1e-07 1 1 0
1  14 0 6.12231002998127 6.44406058437791
2  23 12 0 6.12231002998127 6.44406058437791
2  24 13 0 6.12231002998127 6.44406058437791
0

0101000
+130 0 -123 0 *
Ve
1.01e-07
14.8928796262939 5.7585365664614 -0.533759393926597
0 0

0101101
*
Ed
 1e-07 1 1 0
1  15 0 6.12231002998127 6.44406058437791
2  25 12 0 6.12231002998127 6.44406058437791
2  26 14 0 6.12231002998127 6.44406058437791
0

0101000
+128 0 -121 0 *
Ed
 1e-07 1 1 0
1  16 0 -0.5 0.5
2  27 12 0 -0.5 0.5
2  28 15 0 -0.5 0.5
4 G1 15 0 12 0
0

0101000
+121 0 -123 0 *
Wi

0101100
-122 0 +126 0 +120 0 +119 0 *
Fa
0  1e-07 12 0

0101000
+118 0 *
Ve
1.01e-07
21.070482254781 7.79672959168887 -0.875779537252266
0 0

0101101
*
Ed
 1e-07 1 1 0
1  17 0 0.24341649025257 6.68033988749895
2  29 15 0 0.24341649025257 6.68033988749895
2  30 16 0 0.24341649025257 6.68033988749895
0

0101000
+123 0 -116 0 *
Ve
1.01e-07
20.6502389391746 8.63721622290176 -0.533759393926597
0 0

0101101
*
Ed
 1e-07 1 1 0
1  18 0 0.24341649025257 6.68033988749895
2  31 15 0 0.24341649025257 6.68033988749895
2  32 17 0 0.24341649025257 6.68033988749895
0

0101000
+121 0 -114 0 *
Ed
 1e-07 1 1 0
1  19 0 -0.5 0.5
2  33 18 0 -0.5 0.5
2  34 15 0 -0.5 0.5
4 G1 18 0 15 0
0

0101000
+116 0 -114 0 *
Wi

0101100
-115 0 -119 0 +113 0 -112 0 *
Fa
0  1e-07 15 0

0101000
+111 0 *
Ve
1.01e-07
22.7967295916889 6.07048225478104 -0.875779537252266
0 0

0101101
*
Ed
 1e-07 1 1 0
1  20 0 5.03413953478133 7.53223107957784
2  35 18 0 5.03413953478133 7.53223107957784
2  36 19 0 5.03413953478133 7.53223107957784
0

0101000
+116 0 -109 0 *
Ve
1.01e-07
23.6372162229018 5.65023893917459 -0.533759393926597
0 0

0101101
*
Ed
 1e-07 1 1 0
1  21 0 5.03413953478133 7.53223107957784
2  37 18 0 5.03413953478133 7.53223107957784
2  38 20 0 5.03413953478133 7.53223107957784
0

0101000
+114 0 -107 0 *
Ed
 1e-07 1 1 0
1  22 0 -0.5 0.5
2  39 18 0 -0.5 0.5
2  40 21 0 -0.5 0.5
4 G1 21 0 18 0
0

0101000
+107 0 -109 0 *
Wi

0101100
-108 0 +112 0 +106 0 +105 0 *
Fa
0  1e-07 18 0

0101000
+104 0 *
Ve
1.01e-07
19.8091907714387 0.0954046142806515 -0.875779537252263
0 0

0101101
*
Ed
 1e-07 1 1 0
1  23 0 4.5 11.1803398874989
2  41 21 0 4.5 11.1803398874989
2  42 22 0 4.5 11.1803398874989
0

0101000
+109 0 -102 0 *
Ve
1.01e-07
20.6496774026516 -0.324838701325794 -0.533759393926594
0 0

0101101
*
Ed
 1e-07 1 1 0
1  24 0 4.5 11.1803398874989
2  43 21 0 4.5 11.1803398874989
2  44 23 0 4.5 11.1803398874989
0

0101000
+107 0 -100 0 *
Ed
 1.00005e-07 1 1 0
1  25 0 -0.5 0.5
2  45 21 0 -0.5 0.5
0

0101000
+102 0 -100 0 *
Wi

0101100
-101 0 -105 0 +99 0 -98 0 *
Fa
0  1e-07 21 0

0101000
+97 0 *
Ve
1.01e-07
9.37867965644036 0.213331202898703 0.875779537252266
0 0

0101101
*
Ed
 1e-07 1 1 0
1  26 0 0 9.37867965644036
2  46 4 0 0 9.37867965644036
2  47 3 0 0 9.37867965644036
0

0101000
+151 0 -95 0 *
Ed
 1e-07 1 1 0
1  27 0 -0.75 0.75
2  48 8 0 -0.75 0.75
2  49 4 0 -0.75 0.75
4 G1 8 0 4 0
0

0101000
+142 0 -95 0 *
Wi

0101100
-141 0 +148 0 +94 0 -93 0 *
Fa
0  1e-07 4 0

0101000
+92 0 *
Ve
1.01e-07
10.2884918880118 0.590187768428534 0.875779537252266
0 0

0101101
*
Ed
 1e-07 1 1 0
1  28 0 5.89048622548086 6.67588438887831
2  50 8 0 5.89048622548086 6.67588438887831
2  51 24 0 5.89048622548086 6.67588438887831
0

0101000
+95 0 -90 0 *
Ed
 1e-07 1 1 0
1  29 0 -0.75 0.75
2  52 8 0 -0.75 0.75
2  53 11 0 -0.75 0.75
4 G1 11 0 8 0
0

0101000
+135 0 -90 0 *
Wi

0101100
+134 0 -93 0 -89 0 +88 0 *
Fa
0  1e-07 8 0

0101000
+87 0 *
Ve
1.01e-07
14.6770306088814 4.97872648929814 0.875779537252266
0 0

0101101
*
Ed
 1e-07 1 1 0
1  30 0 0.621320343559643 6.82765132161291
2  54 11 0 0.621320343559643 6.82765132161291
2  55 25 0 0.621320343559643 6.82765132161291
0

0101000
+90 0 -85 0 *
Ed
 1e-07 1 1 0
1  31 0 -0.75 0.75
2  56 14 0 -0.75 0.75
2  57 11 0 -0.75 0.75
4 G1 14 0 11 0
0

0101000
+128 0 -85 0 *
Wi

0101100
-127 0 +88 0 +84 0 -83 0 *
Fa
0  1e-07 11 0

0101000
+82 0 *
Ve
1.01e-07
15.122313713339 5.29966839237115 0.875779537252266
0 0

0101101
*
Ed
 1e-07 1 1 0
1  32 0 6.12231002998127 6.44406058437791
2  58 14 0 6.12231002998127 6.44406058437791
2  59 26 0 6.12231002998127 6.44406058437791
0

0101000
+85 0 -80 0 *
Ed
 1e-07 1 1 0
1  33 0 -0.75 0.75
2  60 14 0 -0.75 0.75
2  61 17 0 -0.75 0.75
4 G1 17 0 14 0
0

0101000
+80 0 -121 0 *
Wi

0101100
-120 0 +83 0 +79 0 +78 0 *
Fa
0  1e-07 14 0

0101000
+77 0 *
Ve
1.01e-07
20.8796730262197 8.17834804881151 0.875779537252266
0 0

0101101
*
Ed
 1e-07 1 1 0
1  34 0 0.24341649025257 6.68033988749895
2  62 17 0 0.24341649025257 6.68033988749895
2  63 27 0 0.24341649025257 6.68033988749895
0

0101000
+80 0 -75 0 *
Ed
 1e-07 1 1 0
1  35 0 -0.75 0.75
2  64 20 0 -0.75 0.75
2  65 17 0 -0.75 0.75
4 G1 20 0 17 0
0

0101000
+114 0 -75 0 *
Wi

0101100
-113 0 -78 0 +74 0 -73 0 *
Fa
0  1e-07 17 0

0101000
+72 0 *
Ve
1.01e-07
23.1783480488115 5.87967302621972 0.875779537252266
0 0

0101101
*
Ed
 1e-07 1 1 0
1  36 0 5.03413953478133 7.53223107957784
2  66 20 0 5.03413953478133 7.53223107957784
2  67 28 0 5.03413953478133 7.53223107957784
0

0101000
+75 0 -70 0 *
Ed
 1e-07 1 1 0
1  37 0 -0.75 0.75
2  68 20 0 -0.75 0.75
2  69 23 0 -0.75 0.75
4 G1 23 0 20 0
0

0101000
+70 0 -107 0 *
Wi

0101100
-106 0 +73 0 +69 0 +68 0 *
Fa
0  1e-07 20 0

0101000
+67 0 *
Ve
1.01e-07
20.1908092285613 -0.0954046142806675 0.875779537252263
0 0

0101101
*
Ed
 1e-07 1 1 0
1  38 0 4.5 11.1803398874989
2  70 23 0 4.5 11.1803398874989
2  71 29 0 4.5 11.1803398874989
0

0101000
+70 0 -65 0 *
Ed
 1.00005e-07 1 1 0
1  39 0 -0.75 0.75
2  72 23 0 -0.75 0.75
0

0101000
-65 0 +100 0 *
Wi

0101100
-99 0 -68 0 +64 0 -63 0 *
Fa
0  1e-07 23 0

0101000
+62 0 *
Ve
1.01e-07
9.37867965644036 -0.726361417887206 0.533759393926597
0 0

0101101
*
Ed
 1e-07 1 1 0
1  40 0 0 9.37867965644036
2  73 3 0 0 9.37867965644036
2  74 5 0 0 9.37867965644036
0

0101000
+150 0 -60 0 *
Ed
 1e-07 1 1 0
1  41 0 -0.5 0.5
2  75 24 0 -0.5 0.5
2  76 3 0 -0.5 0.5
4 G1 24 0 3 0
0

0101000
+95 0 -60 0 *
Wi

0101100
-94 0 +149 0 +59 0 -58 0 *
Fa
0  1e-07 3 0

0101000
+57 0 *
Ve
1.01e-07
10.9529549124005 -0.0742752559601398 0.533759393926597
0 0

0101101
*
Ed
 1e-07 1 1 0
1  42 0 5.89048622548086 6.67588438887831
2  77 24 0 5.89048622548086 6.67588438887831
2  78 7 0 5.89048622548086 6.67588438887831
0

0101000
+60 0 -55 0 *
Ed
 1e-07 1 1 0
1  43 0 -0.5 0.5
2  79 24 0 -0.5 0.5
2  80 25 0 -0.5 0.5
4 G1 25 0 24 0
0

0101000
+55 0 -90 0 *
Wi

0101100
-89 0 +58 0 +54 0 +53 0 *
Fa
0  1e-07 24 0

0101000
+52 0 *
Ve
1.01e-07
15.3414936332701 4.31426346490946 0.533759393926597
0 0

0101101
*
Ed
 1e-07 1 1 0
1  44 0 0.621320343559643 6.82765132161291
2  81 25 0 0.621320343559643 6.82765132161291
2  82 10 0 0.621320343559643 6.82765132161291
0

0101000
+55 0 -50 0 *
Ed
 1e-07 1 1 0
1  45 0 -0.5 0.5
2  83 26 0 -0.5 0.5
2  84 25 0 -0.5 0.5
4 G1 26 0 25 0
0

0101000
+85 0 -50 0 *
Wi

0101100
-84 0 -53 0 +49 0 -48 0 *
Fa
0  1e-07 25 0

0101000
+47 0 *
Ve
1.01e-07
15.5425570289454 4.45918176115826 0.533759393926597
0 0

0101101
*
Ed
 1e-07 1 1 0
1  46 0 6.12231002998127 6.44406058437791
2  85 26 0 6.12231002998127 6.44406058437791
2  86 13 0 6.12231002998127 6.44406058437791
0

0101000
+50 0 -45 0 *
Ed
 1e-07 1 1 0
1  47 0 -0.5 0.5
2  87 26 0 -0.5 0.5
2  88 27 0 -0.5 0.5
4 G1 27 0 26 0
0

0101000
+80 0 -45 0 *
Wi

0101100
+79 0 -48 0 -44 0 +43 0 *
Fa
0  1e-07 26 0

0101000
+42 0 *
Ve
1.01e-07
21.2999163418262 7.33786141759862 0.533759393926597
0 0

0101101
*
Ed
 1e-07 1 1 0
1  48 0 0.24341649025257 6.68033988749895
2  89 27 0 0.24341649025257 6.68033988749895
2  90 16 0 0.24341649025257 6.68033988749895
0

0101000
+45 0 -40 0 *
Ed
 1e-07 1 1 0
1  49 0 -0.5 0.5
2  91 28 0 -0.5 0.5
2  92 27 0 -0.5 0.5
4 G1 28 0 27 0
0

0101000
+75 0 -40 0 *
Wi

0101100
-74 0 +43 0 +39 0 -38 0 *
Fa
0  1e-07 27 0

0101000
+37 0 *
Ve
1.01e-07
22.3378614175986 6.29991634182616 0.533759393926597
0 0

0101101
*
Ed
 1e-07 1 1 0
1  50 0 5.03413953478133 7.53223107957784
2  93 28 0 5.03413953478133 7.53223107957784
2  94 19 0 5.03413953478133 7.53223107957784
0

0101000
+40 0 -35 0 *
Ed
 1e-07 1 1 0
1  51 0 -0.5 0.5
2  95 28 0 -0.5 0.5
2  96 29 0 -0.5 0.5
4 G1 29 0 28 0
0

0101000
+70 0 -35 0 *
Wi

0101100
+69 0 -38 0 -34 0 +33 0 *
Fa
0  1e-07 28 0

0101000
+32 0 *
Ve
1.01e-07
19.3503225973484 0.324838701325776 0.5337593939266
0 0

0101101
*
Ed
 1e-07 1 1 0
1  52 0 4.5 11.1803398874989
2  97 29 0 4.5 11.1803398874989
2  98 22 0 4.5 11.1803398874989
0

0101000
+35 0 -30 0 *
Ed
 1.00005e-07 1 1 0
1  53 0 -0.5 0.5
2  99 29 0 -0.5 0.5
0

0101000
+65 0 -30 0 *
Wi

0101100
-64 0 +33 0 +29 0 -28 0 *
Fa
0  1e-07 29 0

0101000
+27 0 *
Ed
 1e-07 1 1 0
1  54 0 -0.75 0.75
2  100 7 0 -0.75 0.75
2  101 5 0 -0.75 0.75
4 G1 7 0 5 0
0

0101000
+60 0 -144 0 *
Wi

0101100
-59 0 +147 0 +143 0 -25 0 *
Fa
0  1e-07 5 0

0101000
+24 0 *
Ed
 1e-07 1 1 0
1  55 0 -0.75 0.75
2  102 7 0 -0.75 0.75
2  103 10 0 -0.75 0.75
4 G1 10 0 7 0
0

0101000
+137 0 -55 0 *
Wi

0101100
-54 0 +25 0 +136 0 +22 0 *
Fa
0  1e-07 7 0

0101000
+21 0 *
Ed
 1e-07 1 1 0
1  56 0 -0.75 0.75
2  104 13 0 -0.75 0.75
2  105 10 0 -0.75 0.75
4 G1 13 0 10 0
0

0101000
+50 0 -130 0 *
Wi

0101100
-49 0 -22 0 +129 0 -19 0 *
Fa
0  1e-07 10 0

0101000
+18 0 *
Ed
 1e-07 1 1 0
1  57 0 -0.75 0.75
2  106 13 0 -0.75 0.75
2  107 16 0 -0.75 0.75
4 G1 16 0 13 0
0

0101000
+45 0 -123 0 *
Wi

0101100
+44 0 -19 0 -122 0 +16 0 *
Fa
0  1e-07 13 0

0101000
+15 0 *
Ed
 1e-07 1 1 0
1  58 0 -0.75 0.75
2  108 19 0 -0.75 0.75
2  109 16 0 -0.75 0.75
4 G1 19 0 16 0
0

0101000
+40 0 -116 0 *
Wi

0101100
-39 0 +16 0 +115 0 -13 0 *
Fa
0  1e-07 16 0

0101000
+12 0 *
Ed
 1e-07 1 1 0
1  59 0 -0.75 0.75
2  110 19 0 -0.75 0.75
2  111 22 0 -0.75 0.75
4 G1 22 0 19 0
0

0101000
+35 0 -109 0 *
Wi

0101100
+34 0 -13 0 -108 0 +10 0 *
Fa
0  1e-07 19 0

0101000
+9 0 *
Ed
 1.00005e-07 1 1 0
1  60 0 -0.75 0.75
2  112 22 0 -0.75 0.75
0

0101000
-102 0 +30 0 *
Wi

0101100
-29 0 +10 0 +101 0 -7 0 *
Fa
0  1e-07 22 0

0101000
+6 0 *
Wi

0101100
+98 0 +28 0 +63 0 +7 0 *
Fa
0  1e-07 30 0

0101000
+4 0 *
Sh

0101100
-145 0 +138 0 -131 0 +124 0 +117 0 +110 0 +103 0 +96 0 +91 0 -86 0 
+81 0 +76 0 +71 0 +66 0 +61 0 +56 0 +51 0 +46 0 -41 0 +36 0 
-31 0 +26 0 +23 0 +20 0 +17 0 -14 0 +11 0 -8 0 +5 0 +3 0 
*
So

1100000
+2 0 *

+1 1  