
CASCADE Topology V1, (c) Matra-Datavision
Locations 1
1
              1               0               0               0 
              0               1               0               0 
              0               0               1               0 
Curve2ds 112
1 0 0 1 0 
1 0 0 1 0 
1 0 0 1 0 
1 0 0 1 0 
1 -0.25 0 0 1 
1 0.25 0 0 1 
1 0.25 0 0 1 
1 -0.25 0 0 1 
1 0 9.7928932188134521 1 0 
1 -0.19134171618254558 0.038060233744357186 0.38268343236509106 0.92387953251128629 
8 5.8904862254808616 6.6758843888783108
1 0 0.25 1 0 
2 -8.3266726846886741e-17 0.50000000000000022 2.2204460492503126e-16 -1 1 2.2204460492503126e-16 0.75000000000000033
8 5.8904862254808616 6.6758843888783108
1 0 -0.25 1 0 
2 -8.3266726846886741e-17 0.50000000000000022 2.2204460492503126e-16 -1 1 2.2204460492503126e-16 0.25000000000000017
1 0.19134171618254692 0.038060233744355812 -0.38268343236508917 0.92387953251128696 
1 -1.762479051592436e-15 0.20710678118654946 1 1.1102230246251565e-16 
1 -0.24999999999999967 -3.8857805861880479e-16 0 1 
1 0.25 0 0 1 
1 0.24999999999999967 3.8857805861880479e-16 0 1 
1 -0.25 0 0 1 
1 -4.4408920985006262e-16 6.9899289817812864 1 0 
1 -0.080091121503483451 -0.0064562711812454557 -0.16018224300696549 0.98708745763749706 
8 6.1223100299812652 6.4440605843779073
1 0 0.25 1 0 
2 -1.1102230246251565e-16 -0.50000000000000056 -3.7192471324942736e-15 1 1 3.7192471324942736e-15 0.25000000000000039
8 6.1223100299812652 6.4440605843779073
1 0 -0.25 1 0 
2 -1.1102230246251565e-16 -0.50000000000000056 1.609823385706477e-15 1 1 -1.609823385706477e-15 0.75000000000000056
1 0.080091121503483118 -0.0064562711812528595 0.16018224300696893 0.9870874576374965 
1 -8.7430063189231078e-16 0.081138830084188859 1 -5.5511151231257827e-17 
1 -0.25000000000000044 1.5265566588595902e-16 0 1 
1 0.25 0 0 1 
1 0.25000000000000044 -1.5265566588595902e-16 0 1 
1 -0.25 0 0 1 
1 -1.3322676295501878e-15 9.680339887498949 1 0 
1 -0.47434164902526521 -0.34188611699157795 -0.94868329805051332 0.31622776601683977 
8 5.0341395347813318 7.5322310795778407
1 0 0.25 1 0 
2 -1.6653345369377348e-16 -0.50000000000000033 -7.2164496600635159e-15 1 1 7.2164496600635159e-15 0.2499999999999995
8 5.0341395347813318 7.5322310795778407
1 0 -0.25 1 0 
2 -1.6653345369377348e-16 -0.50000000000000033 2.7755575615628914e-15 1 1 -2.7755575615628914e-15 0.750000000000001
1 0.47434164902525577 -0.34188611699157812 0.94868329805051443 0.31622776601683622 
1 2.2204460492503131e-16 1.4999999999999947 1 0 
1 -0.25000000000000122 -2.3592239273284576e-16 0 1 
1 0.25 0 -0 1 
1 0.25000000000000122 2.3592239273284576e-16 0 1 
1 -0.25 -0 0 1 
1 -1.7763568394002505e-15 11.180339887498953 1 0 
1 0.25 0 0 1 
1 -0.25 0 0 1 
8 -0.25 0.25
1 5.8904862254808616 0 0 1 
1 0 9.7928932188134521 1 0 
1 0 0.25 1 0 
2 -8.3266726846886741e-17 -0.50000000000000022 2.2204460492503126e-16 1 1 -2.2204460492503126e-16 0.25000000000000017
1 6.6758843888783108 0 0 1 
1 0 0.20710678118654646 1 0 
1 0.25 0 0 1 
1 -0.24999999999999967 3.8857805861880479e-16 1.1657341758564142e-15 1 
8 -0.25 0.25
1 6.1223100299812652 0 0 1 
1 0 6.9899289817812873 1 0 
1 0 0.25 1 0 
2 -1.1102230246251565e-16 0.50000000000000056 1.609823385706477e-15 -1 1 1.609823385706477e-15 0.75000000000000056
1 6.4440605843779073 0 0 1 
1 0 0.081138830084189262 1 0 
1 0.25 0 0 1 
1 -0.25000000000000044 -1.5265566588595902e-16 9.4368957093138306e-16 1 
8 -0.25 0.25
1 5.0341395347813318 0 0 1 
1 0 9.6803398874989508 1 0 
1 0 0.25 1 0 
2 -1.6653345369377348e-16 0.50000000000000033 2.7755575615628914e-15 -1 1 2.7755575615628914e-15 0.750000000000001
1 7.5322310795778407 0 0 1 
1 0 1.4999999999999993 1 0 
1 0.25 0 0 1 
1 -0.25000000000000122 2.3592239273284576e-16 -6.6613381477509383e-16 1 
1 0 11.180339887498949 1 0 
1 0.25 0 0 1 
1 -0.25 0 0 1 
1 0 9.7928932188134521 1 0 
1 -0.19134171618254558 -0.038060233744357186 -0.38268343236509106 0.92387953251128629 
8 5.8904862254808616 6.6758843888783108
1 0 -0.25 1 0 
2 -8.3266726846886741e-17 -0.50000000000000022 2.2204460492503126e-16 1 1 -2.2204460492503126e-16 0.75000000000000033
1 0.19134171618254692 -0.038060233744355812 0.38268343236508917 0.92387953251128696 
1 1.762479051592436e-15 0.20710678118654946 1 -1.1102230246251565e-16 
1 0.24999999999999967 -3.8857805861880479e-16 0 1 
1 -0.25 0 0 1 
1 4.4408920985006262e-16 6.9899289817812864 1 0 
1 -0.080091121503483451 0.0064562711812454557 0.16018224300696549 0.98708745763749706 
8 6.1223100299812652 6.4440605843779073
1 0 -0.25 1 0 
2 -1.1102230246251565e-16 0.50000000000000056 -3.7192471324942736e-15 -1 1 -3.7192471324942736e-15 0.25000000000000039
1 0.080091121503483118 0.0064562711812528595 -0.16018224300696893 0.9870874576374965 
1 8.7430063189231078e-16 0.081138830084188859 1 5.5511151231257827e-17 
1 0.25000000000000044 1.5265566588595902e-16 0 1 
1 -0.25 0 0 1 
1 1.3322676295501878e-15 9.680339887498949 1 0 
1 -0.47434164902526521 0.34188611699157795 0.94868329805051332 0.31622776601683977 
8 5.0341395347813318 7.5322310795778407
1 0 -0.25 1 0 
2 -1.6653345369377348e-16 0.50000000000000033 -7.2164496600635159e-15 -1 1 -7.2164496600635159e-15 0.2499999999999995
1 0.47434164902525577 0.34188611699157812 -0.94868329805051443 0.31622776601683622 
1 -2.2204460492503131e-16 1.4999999999999947 1 0 
1 0.25000000000000122 -2.3592239273284576e-16 0 1 
1 -0.25 -0 -0 1 
1 1.7763568394002505e-15 11.180339887498953 1 0 
8 -0.25 0.25
1 5.8904862254808616 0 0 1 
1 0 9.7928932188134521 1 0 
1 6.6758843888783108 0 0 1 
1 0 0.20710678118654846 1 0 
8 -0.25 0.25
1 6.1223100299812652 0 0 1 
1 0 6.9899289817812873 1 0 
1 6.4440605843779073 0 0 1 
1 0 0.081138830084187277 1 0 
8 -0.25 0.25
1 5.0341395347813318 0 0 1 
1 0 9.680339887498949 1 0 
1 7.5322310795778407 0 0 1 
1 -0 1.4999999999999962 1 0 
1 -0 11.180339887498949 1 0 
Curves 60
1 0 0 -0.25 0 1 0 
1 0 0 0.25 0 -1 0 
1 0 0.25 0 0 -0 1 
1 0 -0.25 0 0 0 -1 
1 0 -0.25 -0.25 1 -0 0 
1 0 0.25 -0.25 1 -0 0 
1 9.7928932188134521 0 -0.25 0 1 0 
2 9.7928932188134521 0.49999999999999994 -0.25 -0 0 1 0.38268343236509128 -0.92387953251128618 0 0.92387953251128618 0.38268343236509128 0 0.75000000000000033
2 9.7928932188134521 0.49999999999999994 -0.25 -0 0 1 0.38268343236509128 -0.92387953251128618 0 0.92387953251128618 0.38268343236509128 0 0.25000000000000011
1 10.146446609406729 0.14644660940672649 -0.25 -0.70710678118654813 0.70710678118654702 0 
1 10.176776695296637 -0.17677669529663673 -0.25 0.70710678118654691 0.70710678118654824 0 
1 9.8232233047033635 0.17677669529663673 -0.25 0.70710678118654691 0.70710678118654824 0 
1 14.942626183029923 4.9426261830299314 -0.25 -0.70710678118654824 0.70710678118654691 0 
2 15.296179573623201 4.589072792436653 -0.25000000000000006 0 0 -1 -0.58471028466377017 0.81124218517555724 0 0.81124218517555724 0.58471028466377017 0 0.25000000000000039
2 15.296179573623201 4.589072792436653 -0.25000000000000006 0 0 -1 -0.58471028466376584 0.81124218517556024 0 0.81124218517556024 0.58471028466376584 0 0.75000000000000056
1 15.072572775873221 5.0362863879366095 -0.25000000000000006 -0.44721359549995882 0.89442719099991541 0 
1 15.11180339887499 4.7763932022500208 -0.25 0.89442719099991552 0.44721359549995882 0 
1 14.88819660112501 5.2236067977499792 -0.25 0.89442719099991552 0.44721359549995882 0 
1 23.658359213500123 9.3291796067500705 -0.25 -0.44721359549995882 0.89442719099991552 0 
2 23.881966011250107 8.8819660112501051 -0.25 0 0 -1 0.70710678118654047 0.70710678118655468 0 0.70710678118655468 -0.70710678118654047 0 0.2499999999999995
2 23.881966011250107 8.8819660112501051 -0.25 0 0 -1 0.70710678118654757 0.70710678118654757 0 0.70710678118654757 -0.70710678118654757 0 0.750000000000001
1 24.329179606750067 8.6583592135001304 -0.25 0.89442719099991641 -0.44721359549995715 0 
1 24.77639320225002 10.11180339887499 -0.25 -0.44721359549995715 -0.89442719099991641 0 
1 25.22360679774998 9.88819660112501 -0.25 -0.44721359549995715 -0.89442719099991641 0 
1 20.000000000000007 -7.1054273576010019e-15 -0.25 0.89442719099991641 -0.44721359549995715 0 
1 0 0.25 0.25 1 0 -0 
1 9.7928932188134521 0.25 0 0 -0 1 
2 9.7928932188134521 0.49999999999999994 0.25 -0 0 1 0.38268343236509128 -0.92387953251128618 0 0.92387953251128618 0.38268343236509128 0 0.25000000000000011
1 9.9696699141100886 0.32322330470336325 0 -0 0 1 
1 9.8232233047033635 0.17677669529663673 0.25 0.70710678118654779 0.70710678118654746 -0 
1 14.765849487733291 5.1194028783265626 0 0 0 1 
2 15.296179573623201 4.589072792436653 0.25 0 0 -1 -0.58471028466376584 0.81124218517556024 0 0.81124218517556024 0.58471028466376584 0 0.75000000000000056
1 14.960769376998231 5.2598931856865896 0 -0 -0 1 
1 14.88819660112501 5.2236067977499792 0.25 0.89442719099991597 0.44721359549995798 -0 
1 23.546555814625137 9.5527864045000435 0 0 0 1 
2 23.881966011250107 8.8819660112501051 0.25 0 0 -1 0.70710678118654757 0.70710678118654757 0 0.70710678118654757 -0.70710678118654757 0 0.750000000000001
1 24.552786404500043 8.5465558146251368 0 -0 -0 1 
1 25.22360679774998 9.88819660112501 0.25 -0.44721359549995654 -0.89442719099991663 0 
1 20.223606797749994 -0.1118033988749989 0 0 0 1 
1 0 -0.25 0.25 1 0 0 
1 9.7928932188134521 0 0.25 0 -1 0 
2 9.7928932188134521 0.49999999999999994 0.25 -0 0 1 0.38268343236509128 -0.92387953251128618 0 0.92387953251128618 0.38268343236509128 0 0.75000000000000033
1 10.146446609406729 0.14644660940672649 0.25 0.70710678118654813 -0.70710678118654702 0 
1 10.176776695296637 -0.17677669529663673 0.25 0.70710678118654691 0.70710678118654824 0 
1 14.942626183029923 4.9426261830299314 0.25 0.70710678118654824 -0.70710678118654691 0 
2 15.296179573623201 4.589072792436653 0.25000000000000006 0 0 -1 -0.58471028466377017 0.81124218517555724 0 0.81124218517555724 0.58471028466377017 0 0.25000000000000039
1 15.072572775873221 5.0362863879366095 0.25000000000000006 0.44721359549995882 -0.89442719099991541 0 
1 15.11180339887499 4.7763932022500208 0.25 0.89442719099991552 0.44721359549995882 0 
1 23.658359213500123 9.3291796067500705 0.25 0.44721359549995882 -0.89442719099991552 0 
2 23.881966011250107 8.8819660112501051 0.25 0 0 -1 0.70710678118654047 0.70710678118655468 0 0.70710678118655468 -0.70710678118654047 0 0.2499999999999995
1 24.329179606750067 8.6583592135001304 0.25 -0.89442719099991641 0.44721359549995715 0 
1 24.77639320225002 10.11180339887499 0.25 -0.44721359549995715 -0.89442719099991641 0 
1 20.000000000000007 -7.1054273576010019e-15 0.25 -0.89442719099991641 0.44721359549995715 0 
1 9.7928932188134521 -0.25 0 0 0 -1 
1 10.323223304703363 -0.030330085889909986 0 0 -0 -1 
1 15.119402878326564 4.7658494877332895 0 -0 0 -1 
1 15.184376174748209 4.8126795901866313 0 0 0 -1 
1 23.770162612375117 9.1055728090000834 0 -0 0 -1 
1 24.105572809000087 8.7701626123751186 0 0 0 -1 
1 19.776393202250034 0.11180339887498114 0 0 0 -1 
Polygon3D 0
PolygonOnTriangulations 0
Surfaces 30
1 0 0 0 1 0 0 0 0 1 0 -1 0 
1 0 0 -0.25 0 0 -1 0 1 0 1 -0 0 
1 0 0 0.25 -0 0 1 0 -1 0 1 0 0 
1 0 0.25 0 0 1 0 0 -0 1 1 0 -0 
1 0 -0.25 0 0 -1 0 0 0 -1 1 0 0 
1 9.9842349349959978 0.038060233744356631 -0.25 -0 0 1 0.92387953251128629 0.38268343236509106 0 -0.38268343236509106 0.92387953251128629 -0 
10 5.8904862254808616 6.6758843888783108 -0.25 0.25
2 9.7928932188134521 0.49999999999999994 0 0 -0 -1 0.38268343236509128 -0.92387953251128618 0 0.92387953251128618 0.38268343236509128 0 0.75000000000000033
10 5.8904862254808616 6.6758843888783108 -0.25 0.25
2 9.7928932188134521 0.49999999999999994 0 -0 0 1 0.38268343236509128 -0.92387953251128618 0 0.92387953251128618 0.38268343236509128 0 0.25000000000000011
1 10 0 -0.25 0 0 -1 -0.70710678118654824 0.70710678118654691 0 0.70710678118654691 0.70710678118654824 0 
1 10.176776695296637 -0.17677669529663673 0 0.70710678118654746 -0.70710678118654779 -0 -0 0 -1 0.70710678118654779 0.70710678118654746 0 
1 9.8232233047033635 0.17677669529663673 0 -0.70710678118654746 0.70710678118654779 0 0 0 1 0.70710678118654779 0.70710678118654746 -0 
1 15.003824431291317 4.9946938850244331 -0.25000000000000006 -0 -0 1 0.81124218517555924 0.58471028466376707 0 -0.58471028466376718 0.81124218517555935 0 
10 6.1223100299812652 6.4440605843779073 -0.25 0.25
2 15.296179573623201 4.589072792436653 0 0 0 -1 -0.58471028466377017 0.81124218517555724 0 0.81124218517555724 0.58471028466377017 0 0.25000000000000039
10 6.1223100299812652 6.4440605843779073 -0.25 0.25
2 15.296179573623201 4.589072792436653 0 -0 -0 1 -0.58471028466376584 0.81124218517556024 0 0.81124218517556024 0.58471028466376584 0 0.75000000000000056
1 15 5 -0.25 0 0 -1 -0.44721359549995882 0.89442719099991552 0 0.89442719099991552 0.44721359549995882 0 
1 15.11180339887499 4.7763932022500208 0 0.44721359549995798 -0.89442719099991597 -0 -0 0 -1 0.89442719099991597 0.44721359549995798 0 
1 14.88819660112501 5.2236067977499792 0 -0.44721359549995798 0.89442719099991597 0 0 0 1 0.89442719099991597 0.44721359549995798 -0 
1 24.23551940184338 9.2355194018433799 -0.25 -0 -0 1 0.70710678118654957 -0.70710678118654557 0 0.70710678118654557 0.70710678118654957 0 
10 5.0341395347813318 7.5322310795778407 -0.25 0.25
2 23.881966011250107 8.8819660112501051 0 0 0 -1 0.70710678118654047 0.70710678118655468 0 0.70710678118655468 -0.70710678118654047 0 0.2499999999999995
10 5.0341395347813318 7.5322310795778407 -0.25 0.25
2 23.881966011250107 8.8819660112501051 0 -0 -0 1 0.70710678118654757 0.70710678118654757 0 0.70710678118654757 -0.70710678118654757 0 0.750000000000001
1 25 10 -0.25 0 -0 -1 0.89442719099991641 -0.44721359549995715 0 -0.44721359549995715 -0.89442719099991641 0 
1 24.77639320225002 10.11180339887499 0 -0.89442719099991663 0.44721359549995654 0 0 0 -1 -0.44721359549995654 -0.89442719099991663 -0 
1 25.22360679774998 9.88819660112501 0 0.89442719099991663 -0.44721359549995654 0 0 0 1 -0.44721359549995654 -0.89442719099991663 0 
1 9.9842349349959978 0.038060233744356631 0.25 0 -0 -1 0.92387953251128629 0.38268343236509106 0 0.38268343236509106 -0.92387953251128629 0 
1 10 0 0.25 -0 0 1 0.70710678118654824 -0.70710678118654691 0 0.70710678118654691 0.70710678118654824 0 
1 15.003824431291317 4.9946938850244331 0.25000000000000006 0 0 -1 0.81124218517555924 0.58471028466376707 0 0.58471028466376718 -0.81124218517555935 0 
1 15 5 0.25 -0 0 1 0.44721359549995882 -0.89442719099991552 0 0.89442719099991552 0.44721359549995882 0 
1 24.23551940184338 9.2355194018433799 0.25 0 0 -1 0.70710678118654957 -0.70710678118654557 0 -0.70710678118654557 -0.70710678118654957 -0 
1 25 10 0.25 0 0 1 -0.89442719099991641 0.44721359549995715 0 -0.44721359549995715 -0.89442719099991641 0 
1 20 -1.7763568394002505e-15 0 -0.44721359549995715 -0.89442719099991641 0 0 0 1 -0.89442719099991641 0.44721359549995715 0 
Triangulations 0

TShapes 154
Ve
1.01e-07
0 -0.25 -0.25
0 0

0101101
*
Ve
1.01e-07
0 0.25 -0.25
0 0

0101101
*
Ed
 1.00005e-07 1 1 0
1  1 0 -0.25 0.25
2  1 2 0 -0.25 0.25
0

0101000
+154 0 -153 0 *
Ve
1.01e-07
0 0.25 0.25
0 0

0101101
*
Ve
1.01e-07
0 -0.25 0.25
0 0

0101101
*
Ed
 1.00005e-07 1 1 0
1  2 0 -0.25 0.25
2  2 3 0 -0.25 0.25
0

0101000
+151 0 -150 0 *
Ed
 1.00005e-07 1 1 0
1  3 0 -0.25 0.25
2  3 4 0 -0.25 0.25
0

0101000
-151 0 +153 0 *
Ed
 1.00005e-07 1 1 0
1  4 0 -0.25 0.25
2  4 5 0 -0.25 0.25
0

0101000
-154 0 +150 0 *
Wi

0101100
+152 0 +149 0 +148 0 +147 0 *
Fa
0  1e-07 1 0

0101000
+146 0 *
Ve
1.01e-07
9.79289321881345 -0.25 -0.25
0 0

0101101
*
Ed
 1e-07 1 1 0
1  5 0 0 9.79289321881345
2  5 2 0 0 9.79289321881345
2  6 5 0 0 9.79289321881345
0

0101000
+154 0 -144 0 *
Ve
1.01e-07
9.79289321881345 0.25 -0.25
0 0

0101101
*
Ed
 1e-07 1 1 0
1  6 0 0 9.79289321881345
2  7 2 0 0 9.79289321881345
2  8 4 0 0 9.79289321881345
0

0101000
+153 0 -142 0 *
Ed
 1e-07 1 1 0
1  7 0 -0.25 0.25
2  9 2 0 -0.25 0.25
2  10 6 0 -0.25 0.25
4 C1 6 0 2 0
0

0101000
+144 0 -142 0 *
Wi

0101100
-143 0 +152 0 +141 0 -140 0 *
Fa
0  1e-07 2 0

0101000
+139 0 *
Ve
1.01e-07
10.3232233047034 -0.0303300858899101 -0.25
0 0

0101101
*
Ed
 1e-07 1 1 0
1  8 0 5.89048622548086 6.67588438887831
2  11 7 0 5.89048622548086 6.67588438887831
2  12 6 0 5.89048622548086 6.67588438887831
0

0101000
+144 0 -137 0 *
Ve
1.01e-07
9.96966991411009 0.323223304703363 -0.25
0 0

0101101
*
Ed
 1e-07 1 1 0
1  9 0 5.89048622548086 6.67588438887831
2  13 8 0 5.89048622548086 6.67588438887831
2  14 6 0 5.89048622548086 6.67588438887831
0

0101000
+142 0 -135 0 *
Ed
 1e-07 1 1 0
1  10 0 -0.25 0.25
2  15 6 0 -0.25 0.25
2  16 9 0 -0.25 0.25
4 C1 9 0 6 0
0

0101000
+137 0 -135 0 *
Wi

0101100
+136 0 -140 0 -134 0 +133 0 *
Fa
0  1e-07 6 0

0101000
+132 0 *
Ve
1.01e-07
15.1194028783266 4.76584948773329 -0.25
0 0

0101101
*
Ed
 1e-07 1 1 0
1  11 0 0.207106781186548 6.98992898178129
2  17 9 0 0.207106781186548 6.98992898178129
2  18 10 0 0.207106781186548 6.98992898178129
0

0101000
+137 0 -130 0 *
Ve
1.01e-07
14.7658494877333 5.11940287832656 -0.25
0 0

0101101
*
Ed
 1e-07 1 1 0
1  12 0 0.207106781186548 6.98992898178129
2  19 9 0 0.207106781186548 6.98992898178129
2  20 11 0 0.207106781186548 6.98992898178129
0

0101000
+135 0 -128 0 *
Ed
 1e-07 1 1 0
1  13 0 -0.25 0.25
2  21 9 0 -0.25 0.25
2  22 12 0 -0.25 0.25
4 C1 12 0 9 0
0

0101000
+130 0 -128 0 *
Wi

0101100
-129 0 +133 0 +127 0 -126 0 *
Fa
0  1e-07 9 0

0101000
+125 0 *
Ve
1.01e-07
15.1843761747482 4.81267959018663 -0.25
0 0

0101101
*
Ed
 1e-07 1 1 0
1  14 0 6.12231002998127 6.44406058437791
2  23 13 0 6.12231002998127 6.44406058437791
2  24 12 0 6.12231002998127 6.44406058437791
0

0101000
+130 0 -123 0 *
Ve
1.01e-07
14.9607693769982 5.25989318568659 -0.25
0 0

0101101
*
Ed
 1e-07 1 1 0
1  15 0 6.12231002998127 6.44406058437791
2  25 14 0 6.12231002998127 6.44406058437791
2  26 12 0 6.12231002998127 6.44406058437791
0

0101000
+128 0 -121 0 *
Ed
 1e-07 1 1 0
1  16 0 -0.25 0.25
2  27 12 0 -0.25 0.25
2  28 15 0 -0.25 0.25
4 C1 15 0 12 0
0

0101000
+123 0 -121 0 *
Wi

0101100
+122 0 -126 0 -120 0 +119 0 *
Fa
0  1e-07 12 0

0101000
+118 0 *
Ve
1.01e-07
23.7701626123751 9.10557280900009 -0.25
0 0

0101101
*
Ed
 1e-07 1 1 0
1  17 0 0.0811388300841893 9.68033988749895
2  29 15 0 0.0811388300841893 9.68033988749895
2  30 16 0 0.0811388300841893 9.68033988749895
0

0101000
+123 0 -116 0 *
Ve
1.01e-07
23.5465558146251 9.55278640450004 -0.25
0 0

0101101
*
Ed
 1e-07 1 1 0
1  18 0 0.0811388300841893 9.68033988749895
2  31 15 0 0.0811388300841893 9.68033988749895
2  32 17 0 0.0811388300841893 9.68033988749895
0

0101000
+121 0 -114 0 *
Ed
 1e-07 1 1 0
1  19 0 -0.25 0.25
2  33 15 0 -0.25 0.25
2  34 18 0 -0.25 0.25
4 C1 18 0 15 0
0

0101000
+116 0 -114 0 *
Wi

0101100
-115 0 +119 0 +113 0 -112 0 *
Fa
0  1e-07 15 0

0101000
+111 0 *
Ve
1.01e-07
24.1055728090001 8.77016261237512 -0.25
0 0

0101101
*
Ed
 1e-07 1 1 0
1  20 0 5.03413953478133 7.53223107957784
2  35 19 0 5.03413953478133 7.53223107957784
2  36 18 0 5.03413953478133 7.53223107957784
0

0101000
+116 0 -109 0 *
Ve
1.01e-07
24.5527864045 8.54655581462514 -0.25
0 0

0101101
*
Ed
 1e-07 1 1 0
1  21 0 5.03413953478133 7.53223107957784
2  37 20 0 5.03413953478133 7.53223107957784
2  38 18 0 5.03413953478133 7.53223107957784
0

0101000
+114 0 -107 0 *
Ed
 1e-07 1 1 0
1  22 0 -0.25 0.25
2  39 18 0 -0.25 0.25
2  40 21 0 -0.25 0.25
4 C1 21 0 18 0
0

0101000
+109 0 -107 0 *
Wi

0101100
+108 0 -112 0 -106 0 +105 0 *
Fa
0  1e-07 18 0

0101000
+104 0 *
Ve
1.01e-07
19.77639320225 0.111803398874981 -0.25
0 0

0101101
*
Ed
 1e-07 1 1 0
1  23 0 1.5 11.1803398874989
2  41 21 0 1.5 11.1803398874989
2  42 22 0 1.5 11.1803398874989
0

0101000
+109 0 -102 0 *
Ve
1.01e-07
20.22360679775 -0.111803398874999 -0.25
0 0

0101101
*
Ed
 1e-07 1 1 0
1  24 0 1.5 11.1803398874989
2  43 21 0 1.5 11.1803398874989
2  44 23 0 1.5 11.1803398874989
0

0101000
+107 0 -100 0 *
Ed
 1.00005e-07 1 1 0
1  25 0 -0.25 0.25
2  45 21 0 -0.25 0.25
0

0101000
+102 0 -100 0 *
Wi

0101100
-101 0 +105 0 +99 0 -98 0 *
Fa
0  1e-07 21 0

0101000
+97 0 *
Ve
1.01e-07
9.79289321881345 0.25 0.25
0 0

0101101
*
Ed
 1e-07 1 1 0
1  26 0 0 9.79289321881345
2  46 4 0 0 9.79289321881345
2  47 3 0 0 9.79289321881345
0

0101000
+151 0 -95 0 *
Ed
 1e-07 1 1 0
1  27 0 -0.25 0.25
2  48 8 0 -0.25 0.25
2  49 4 0 -0.25 0.25
4 G1 8 0 4 0
0

0101000
+142 0 -95 0 *
Wi

0101100
-141 0 +148 0 +94 0 -93 0 *
Fa
0  1e-07 4 0

0101000
+92 0 *
Ve
1.01e-07
9.96966991411009 0.323223304703363 0.25
0 0

0101101
*
Ed
 1e-07 1 1 0
1  28 0 5.89048622548086 6.67588438887831
2  50 8 0 5.89048622548086 6.67588438887831
2  51 24 0 5.89048622548086 6.67588438887831
0

0101000
+95 0 -90 0 *
Ed
 1e-07 1 1 0
1  29 0 -0.25 0.25
2  52 8 0 -0.25 0.25
2  53 11 0 -0.25 0.25
4 G1 11 0 8 0
0

0101000
+135 0 -90 0 *
Wi

0101100
+134 0 -93 0 -89 0 +88 0 *
Fa
0  1e-07 8 0

0101000
+87 0 *
Ve
1.01e-07
14.7658494877333 5.11940287832656 0.25
0 0

0101101
*
Ed
 1e-07 1 1 0
1  30 0 0.207106781186548 6.98992898178129
2  54 11 0 0.207106781186548 6.98992898178129
2  55 25 0 0.207106781186548 6.98992898178129
0

0101000
+90 0 -85 0 *
Ed
 1e-07 1 1 0
1  31 0 -0.25 0.25
2  56 14 0 -0.25 0.25
2  57 11 0 -0.25 0.25
4 G1 14 0 11 0
0

0101000
+128 0 -85 0 *
Wi

0101100
-127 0 +88 0 +84 0 -83 0 *
Fa
0  1e-07 11 0

0101000
+82 0 *
Ve
1.01e-07
14.9607693769982 5.25989318568659 0.25
0 0

0101101
*
Ed
 1e-07 1 1 0
1  32 0 6.12231002998127 6.44406058437791
2  58 14 0 6.12231002998127 6.44406058437791
2  59 26 0 6.12231002998127 6.44406058437791
0

0101000
+85 0 -80 0 *
Ed
 1e-07 1 1 0
1  33 0 -0.25 0.25
2  60 14 0 -0.25 0.25
2  61 17 0 -0.25 0.25
4 G1 17 0 14 0
0

0101000
+121 0 -80 0 *
Wi

0101100
+120 0 -83 0 -79 0 +78 0 *
Fa
0  1e-07 14 0

0101000
+77 0 *
Ve
1.01e-07
23.5465558146251 9.55278640450004 0.25
0 0

0101101
*
Ed
 1e-07 1 1 0
1  34 0 0.0811388300841893 9.68033988749895
2  62 17 0 0.0811388300841893 9.68033988749895
2  63 27 0 0.0811388300841893 9.68033988749895
0

0101000
+80 0 -75 0 *
Ed
 1e-07 1 1 0
1  35 0 -0.25 0.25
2  64 20 0 -0.25 0.25
2  65 17 0 -0.25 0.25
4 G1 20 0 17 0
0

0101000
+114 0 -75 0 *
Wi

0101100
-113 0 +78 0 +74 0 -73 0 *
Fa
0  1e-07 17 0

0101000
+72 0 *
Ve
1.01e-07
24.5527864045 8.54655581462514 0.25
0 0

0101101
*
Ed
 1e-07 1 1 0
1  36 0 5.03413953478133 7.53223107957784
2  66 20 0 5.03413953478133 7.53223107957784
2  67 28 0 5.03413953478133 7.53223107957784
0

0101000
+75 0 -70 0 *
Ed
 1e-07 1 1 0
1  37 0 -0.25 0.25
2  68 20 0 -0.25 0.25
2  69 23 0 -0.25 0.25
4 G1 23 0 20 0
0

0101000
+107 0 -70 0 *
Wi

0101100
+106 0 -73 0 -69 0 +68 0 *
Fa
0  1e-07 20 0

0101000
+67 0 *
Ve
1.01e-07
20.22360679775 -0.111803398874997 0.25
0 0

0101101
*
Ed
 1e-07 1 1 0
1  38 0 1.5 11.1803398874989
2  70 23 0 1.5 11.1803398874989
2  71 29 0 1.5 11.1803398874989
0

0101000
+70 0 -65 0 *
Ed
 1.00005e-07 1 1 0
1  39 0 -0.25 0.25
2  72 23 0 -0.25 0.25
0

0101000
-65 0 +100 0 *
Wi

0101100
-99 0 +68 0 +64 0 -63 0 *
Fa
0  1e-07 23 0

0101000
+62 0 *
Ve
1.01e-07
9.79289321881345 -0.25 0.25
0 0

0101101
*
Ed
 1e-07 1 1 0
1  40 0 0 9.79289321881345
2  73 3 0 0 9.79289321881345
2  74 5 0 0 9.79289321881345
0

0101000
+150 0 -60 0 *
Ed
 1e-07 1 1 0
1  41 0 -0.25 0.25
2  75 3 0 -0.25 0.25
2  76 24 0 -0.25 0.25
4 C1 24 0 3 0
0

0101000
+95 0 -60 0 *
Wi

0101100
-94 0 +149 0 +59 0 -58 0 *
Fa
0  1e-07 3 0

0101000
+57 0 *
Ve
1.01e-07
10.3232233047034 -0.0303300858899101 0.25
0 0

0101101
*
Ed
 1e-07 1 1 0
1  42 0 5.89048622548086 6.67588438887831
2  77 7 0 5.89048622548086 6.67588438887831
2  78 24 0 5.89048622548086 6.67588438887831
0

0101000
+60 0 -55 0 *
Ed
 1e-07 1 1 0
1  43 0 -0.25 0.25
2  79 24 0 -0.25 0.25
2  80 25 0 -0.25 0.25
4 C1 25 0 24 0
0

0101000
+90 0 -55 0 *
Wi

0101100
+89 0 -58 0 -54 0 +53 0 *
Fa
0  1e-07 24 0

0101000
+52 0 *
Ve
1.01e-07
15.1194028783266 4.76584948773329 0.25
0 0

0101101
*
Ed
 1e-07 1 1 0
1  44 0 0.207106781186548 6.98992898178129
2  81 25 0 0.207106781186548 6.98992898178129
2  82 10 0 0.207106781186548 6.98992898178129
0

0101000
+55 0 -50 0 *
Ed
 1e-07 1 1 0
1  45 0 -0.25 0.25
2  83 25 0 -0.25 0.25
2  84 26 0 -0.25 0.25
4 C1 26 0 25 0
0

0101000
+85 0 -50 0 *
Wi

0101100
-84 0 +53 0 +49 0 -48 0 *
Fa
0  1e-07 25 0

0101000
+47 0 *
Ve
1.01e-07
15.1843761747482 4.81267959018663 0.25
0 0

0101101
*
Ed
 1e-07 1 1 0
1  46 0 6.12231002998127 6.44406058437791
2  85 13 0 6.12231002998127 6.44406058437791
2  86 26 0 6.12231002998127 6.44406058437791
0

0101000
+50 0 -45 0 *
Ed
 1e-07 1 1 0
1  47 0 -0.25 0.25
2  87 26 0 -0.25 0.25
2  88 27 0 -0.25 0.25
4 C1 27 0 26 0
0

0101000
+80 0 -45 0 *
Wi

0101100
+79 0 -48 0 -44 0 +43 0 *
Fa
0  1e-07 26 0

0101000
+42 0 *
Ve
1.01e-07
23.7701626123751 9.10557280900009 0.25
0 0

0101101
*
Ed
 1e-07 1 1 0
1  48 0 0.0811388300841893 9.68033988749895
2  89 27 0 0.0811388300841893 9.68033988749895
2  90 16 0 0.0811388300841893 9.68033988749895
0

0101000
+45 0 -40 0 *
Ed
 1e-07 1 1 0
1  49 0 -0.25 0.25
2  91 27 0 -0.25 0.25
2  92 28 0 -0.25 0.25
4 C1 28 0 27 0
0

0101000
+75 0 -40 0 *
Wi

0101100
-74 0 +43 0 +39 0 -38 0 *
Fa
0  1e-07 27 0

0101000
+37 0 *
Ve
1.01e-07
24.1055728090001 8.77016261237512 0.25
0 0

0101101
*
Ed
 1e-07 1 1 0
1  50 0 5.03413953478133 7.53223107957784
2  93 19 0 5.03413953478133 7.53223107957784
2  94 28 0 5.03413953478133 7.53223107957784
0

0101000
+40 0 -35 0 *
Ed
 1e-07 1 1 0
1  51 0 -0.25 0.25
2  95 28 0 -0.25 0.25
2  96 29 0 -0.25 0.25
4 C1 29 0 28 0
0

0101000
+70 0 -35 0 *
Wi

0101100
+69 0 -38 0 -34 0 +33 0 *
Fa
0  1e-07 28 0

0101000
+32 0 *
Ve
1.01e-07
19.77639320225 0.111803398874981 0.25
0 0

0101101
*
Ed
 1e-07 1 1 0
1  52 0 1.5 11.1803398874989
2  97 29 0 1.5 11.1803398874989
2  98 22 0 1.5 11.1803398874989
0

0101000
+35 0 -30 0 *
Ed
 1.00005e-07 1 1 0
1  53 0 -0.25 0.25
2  99 29 0 -0.25 0.25
0

0101000
+65 0 -30 0 *
Wi

0101100
-64 0 +33 0 +29 0 -28 0 *
Fa
0  1e-07 29 0

0101000
+27 0 *
Ed
 1e-07 1 1 0
1  54 0 -0.25 0.25
2  100 7 0 -0.25 0.25
2  101 5 0 -0.25 0.25
4 G1 7 0 5 0
0

0101000
+60 0 -144 0 *
Wi

0101100
-59 0 +147 0 +143 0 -25 0 *
Fa
0  1e-07 5 0

0101000
+24 0 *
Ed
 1e-07 1 1 0
1  55 0 -0.25 0.25
2  102 7 0 -0.25 0.25
2  103 10 0 -0.25 0.25
4 G1 10 0 7 0
0

0101000
+55 0 -137 0 *
Wi

0101100
+54 0 -25 0 -136 0 +22 0 *
Fa
0  1e-07 7 0

0101000
+21 0 *
Ed
 1e-07 1 1 0
1  56 0 -0.25 0.25
2  104 13 0 -0.25 0.25
2  105 10 0 -0.25 0.25
4 G1 13 0 10 0
0

0101000
+50 0 -130 0 *
Wi

0101100
-49 0 +22 0 +129 0 -19 0 *
Fa
0  1e-07 10 0

0101000
+18 0 *
Ed
 1e-07 1 1 0
1  57 0 -0.25 0.25
2  106 13 0 -0.25 0.25
2  107 16 0 -0.25 0.25
4 G1 16 0 13 0
0

0101000
+45 0 -123 0 *
Wi

0101100
+44 0 -19 0 -122 0 +16 0 *
Fa
0  1e-07 13 0

0101000
+15 0 *
Ed
 1e-07 1 1 0
1  58 0 -0.25 0.25
2  108 19 0 -0.25 0.25
2  109 16 0 -0.25 0.25
4 G1 19 0 16 0
0

0101000
+40 0 -116 0 *
Wi

0101100
-39 0 +16 0 +115 0 -13 0 *
Fa
0  1e-07 16 0

0101000
+12 0 *
Ed
 1e-07 1 1 0
1  59 0 -0.25 0.25
2  110 19 0 -0.25 0.25
2  111 22 0 -0.25 0.25
4 G1 22 0 19 0
0

0101000
+35 0 -109 0 *
Wi

0101100
+34 0 -13 0 -108 0 +10 0 *
Fa
0  1e-07 19 0

0101000
+9 0 *
Ed
 1.00005e-07 1 1 0
1  60 0 -0.25 0.25
2  112 22 0 -0.25 0.25
0

0101000
-102 0 +30 0 *
Wi

0101100
-29 0 +10 0 +101 0 -7 0 *
Fa
0  1e-07 22 0

0101000
+6 0 *
Wi

0101100
+98 0 +28 0 +63 0 +7 0 *
Fa
0  1e-07 30 0

0101000
+4 0 *
Sh

0101100
-145 0 +138 0 -131 0 +124 0 -117 0 +110 0 -103 0 +96 0 +91 0 -86 0 
+81 0 -76 0 +71 0 -66 0 +61 0 +56 0 -51 0 +46 0 -41 0 +36 0 
-31 0 +26 0 +23 0 -20 0 +17 0 -14 0 +11 0 -8 0 +5 0 +3 0 
*
So

1100000
+2 0 *

+1 1  