
CASCADE Topology V1, (c) Matra-Datavision
Locations 1
1
              1               0               0               0 
              0               1               0               0 
              0               0               1               0 
Curve2ds 144
1 0 0 1 0 
1 0 0 1 0 
1 0 0 1 0 
1 0 0 1 0 
1 -1.5 0 0 1 
1 1.5000000000000087 4.1411318818518339e-14 4.2188474935755949e-15 1 
1 1.5 0 0 1 
1 -1.5000000000000087 4.1411318818518339e-14 -4.2188474935755949e-15 1 
8 -1.5 1.5
1 5.5175694636043433 0 -0 -1 
1 0 52.695179243518027 1 0 
1 0 1.5 1 0 
2 -6.6613381477509392e-16 -3.0000000000000067 1.3822276656583196e-14 1 1 -1.3822276656583196e-14 4.5000000000000071
1 0 -1.5 1 0 
2 -6.6613381477509392e-16 3.0000000000000067 1.3822276656583196e-14 -1 1 1.3822276656583196e-14 4.5000000000000071
1 7.0488011507548292 0 0 1 
1 0 2.8835936828429753 -1 0 
1 -1.5 0 0 1 
1 1.5000000000000111 2.6340041259231839e-14 1.0269562977782698e-15 1 
1 1.5 0 0 1 
1 -1.5000000000000111 2.6340041259231839e-14 -1.0269562977782698e-15 1 
8 -1.5 1.5
1 5.9409648451678079 0 0 1 
1 0 56.246208061791663 1 0 
1 0 -1.5 1 0 
2 -6.6613381477509392e-16 2.999999999999996 -7.8825834748386114e-15 -1 1 -7.8825834748386114e-15 1.4999999999999878
1 0 1.5 1 0 
2 -6.6613381477509392e-16 -2.999999999999996 -7.8825834748386114e-15 1 1 7.8825834748386114e-15 1.4999999999999878
1 6.6254057691913646 0 0 1 
1 0 1.0687114618367546 1 0 
1 -1.5 0 0 1 
1 1.5000000000000107 2.2648549702353193e-14 -1.9984014443252818e-15 1 
1 1.5 0 0 1 
1 -1.5000000000000107 2.2648549702353193e-14 1.9984014443252818e-15 1 
8 -1.5 1.5
1 5.4050727200733446 0 0 1 
1 0 62.119237319713903 1 0 
1 0 -1.5 1 0 
2 -6.6613381477509392e-16 2.9999999999999698 -5.5372373353179667e-15 -1 1 -5.5372373353179667e-15 1.4999999999999716
1 0 1.5 1 0 
2 -6.6613381477509392e-16 -2.9999999999999698 -5.5372373353179667e-15 1 1 5.5372373353179667e-15 1.4999999999999716
1 7.1612978942858279 0 0 1 
1 0 3.6150763984652707 1 0 
1 -1.5 0 0 1 
1 1.5000000000000013 3.7747582837255322e-14 4.8849813083506888e-15 1 
1 1.5 0 0 1 
1 -1.5000000000000013 3.7747582837255322e-14 -4.8849813083506888e-15 1 
8 -1.5 1.5
1 5.9440383392452123 0 0 1 
1 0 68.252561618004421 1 0 
1 0 -1.5 1 0 
2 -8.8817841970012523e-16 2.9999999999999929 -1.3045120539345589e-14 -1 1 -1.3045120539345589e-14 1.4999999999999885
1 0 1.5 1 0 
2 -8.8817841970012523e-16 -2.9999999999999929 -1.3045120539345589e-14 1 1 1.3045120539345589e-14 1.4999999999999885
1 6.6223322751139602 0 0 1 
1 0 1.0583321866493955 1 0 
1 -1.5 0 0 1 
1 1.5000000000000087 3.141931159689193e-14 7.7715611723760938e-16 1 
1 1.5 0 0 1 
1 -1.5000000000000087 3.141931159689193e-14 -7.7715611723760938e-16 1 
1 0 39.319206502675009 1 0 
1 1.5000000000000044 -1.329492071988625e-14 0 1 
1 -1.5 -2.9148492351198421e-14 0 1 
1 1.7763568394002505e-15 52.695179243518034 1 0 
1 -2.0789433776955342 0.83713282138363898 0.69298112589848848 0.72095572620547466 
8 5.5175694636043433 7.0488011507548292
1 0 -1.5 1 0 
2 -6.6613381477509392e-16 3.0000000000000067 -2.7144952952085077e-14 -1 1 -2.7144952952085077e-14 1.5000000000000082
1 2.0789433776955248 0.83713282138364908 -0.69298112589852745 0.72095572620543713 
1 1.5543122344752192e-14 2.8835936828429909 1 4.163336342344337e-17 
1 1.4999999999999938 4.163336342344337e-16 0 1 
1 -1.5 0 0 1 
1 -8.8817841970012523e-16 56.24620806179167 1 0 
1 -1.0067388576636358 -0.17396446015443812 -0.33557961922118928 0.94201184661519077 
8 5.9409648451678079 6.6254057691913646
1 0 1.5 1 0 
2 -6.6613381477509392e-16 -2.999999999999996 9.8254737679326338e-15 1 1 -9.8254737679326338e-15 4.4999999999999964
1 1.0067388576636669 -0.17396446015445349 0.33557961922124357 0.94201184661517134 
1 1.0602629885170245e-14 1.0687114618367664 1 0 
1 1.4999999999999944 4.7739590058881731e-15 0 1 
1 -1.5000000000000004 0 0 1 
1 -7.1054273576010019e-15 62.119237319713903 1 0 
1 -2.3086048185492465 -1.0841858671124966 -0.76953493951638985 0.63860471096250648 
8 5.4050727200733446 7.1612978942858279
1 0 1.5 1 0 
2 -6.6613381477509392e-16 -2.9999999999999698 8.4376949871511881e-15 1 1 -8.4376949871511881e-15 4.4999999999999645
1 2.3086048185491901 -1.0841858671125186 0.76953493951642571 0.63860471096246318 
1 -1.7097434579227411e-14 3.6150763984652707 1 -1.1657341758564142e-15 
1 1.5000000000000004 2.4424906541753444e-15 0 1 
1 -1.5 -1.0251530412559591e-14 0 1 
1 7.1054273576010019e-15 68.252561618004421 1 0 
1 -0.99804831283623252 -0.17088360698172261 -0.33268277094538451 0.94303879767276866 
8 5.9440383392452123 6.6223322751139602
1 0 1.5 1 0 
2 -8.8817841970012523e-16 -2.9999999999999929 1.1046719095020308e-14 1 1 -1.1046719095020308e-14 4.4999999999999902
1 0.99804831283622741 -0.17088360698172117 0.3326827709454398 0.94303879767274901 
1 -3.3029134982598407e-15 1.0583321866493951 1 -1.3877787807814454e-16 
1 1.5000000000000016 -3.6637359812630166e-15 0 1 
1 -1.4999999999999998 0 0 1 
1 1.7763568394002505e-15 39.319206502675002 1 0 
1 1.5 0 0 1 
1 -1.5000000000000075 1.5876189252139739e-14 4.2188474935755949e-15 1 
8 -1.5 1.5
1 5.5175694636043433 0 0 1 
1 0 52.695179243518027 1 0 
1 0 1.5 1 0 
2 -6.6613381477509392e-16 -3.0000000000000067 -2.9198865547641617e-14 1 1 2.9198865547641617e-14 1.4999999999999927
1 7.0488011507548292 0 0 1 
1 0 2.8835936828429753 1 0 
1 1.5 0 0 1 
1 -1.500000000000008 1.915134717478395e-15 1.0269562977782698e-15 1 
8 -1.5 1.5
1 5.9409648451678079 0 -0 -1 
1 0 56.246208061791663 1 0 
1 0 -1.5 1 0 
2 -6.6613381477509392e-16 2.999999999999996 9.8254737679326338e-15 -1 1 9.8254737679326338e-15 4.4999999999999964
1 6.6254057691913646 0 0 1 
1 0 1.0687114618367546 -1 0 
1 1.5 0 0 1 
1 -1.5000000000000064 -2.9976021664879227e-15 -1.9984014443252818e-15 1 
8 -1.5 1.5
1 5.4050727200733446 0 -0 -1 
1 0 62.119237319713918 1 0 
1 0 -1.5 1 0 
2 -6.6613381477509392e-16 2.9999999999999698 9.1454621653497254e-15 -1 1 9.1454621653497254e-15 4.4999999999999929
1 7.1612978942858279 0 0 1 
1 0 3.6150763984652707 -1 0 
1 1.5 0 0 1 
1 -1.5000000000000102 1.2656542480726785e-14 4.8849813083506888e-15 1 
8 -1.5 1.5
1 5.9440383392452123 0 -0 -1 
1 0 68.252561618004421 1 0 
1 0 -1.5 1 0 
2 -8.8817841970012523e-16 2.9999999999999929 8.9372953482325102e-15 -1 1 8.9372953482325102e-15 4.5000000000000036
1 6.6223322751139602 0 0 1 
1 0 1.0583321866493955 -1 0 
1 1.5 0 0 1 
1 -1.5000000000000087 -2.7478019859472624e-15 7.7715611723760938e-16 1 
1 0 39.319206502675009 1 0 
1 -1.7763568394002505e-15 52.695179243518034 1 0 
1 -2.0789433776955342 -0.83713282138363898 -0.69298112589848848 0.72095572620547466 
1 2.0789433776955248 -0.83713282138364908 0.69298112589852745 0.72095572620543713 
1 -1.5543122344752192e-14 2.8835936828429909 1 -4.163336342344337e-17 
1 8.8817841970012523e-16 56.24620806179167 1 0 
1 -1.0067388576636358 0.17396446015443812 0.33557961922118928 0.94201184661519077 
1 1.0067388576636669 0.17396446015445349 -0.33557961922124357 0.94201184661517134 
1 -1.0602629885170245e-14 1.0687114618367664 1 0 
1 7.1054273576010019e-15 62.119237319713903 1 0 
1 -2.3086048185492465 1.0841858671124966 0.76953493951638985 0.63860471096250648 
1 2.3086048185491901 1.0841858671125186 -0.76953493951642571 0.63860471096246318 
1 1.7097434579227411e-14 3.6150763984652707 1 1.1657341758564142e-15 
1 -7.1054273576010019e-15 68.252561618004421 1 0 
1 -0.99804831283623252 0.17088360698172261 0.33268277094538451 0.94303879767276866 
1 0.99804831283622741 0.17088360698172117 -0.3326827709454398 0.94303879767274901 
1 3.3029134982598407e-15 1.0583321866493951 1 1.3877787807814454e-16 
1 -1.7763568394002505e-15 39.319206502675002 1 0 
Curves 76
1 38.515620341073209 -164.78409023142888 0 0 0 1 
1 41.484379658926755 -165.21590976857124 0 0 0 -1 
1 39.999999999999979 -165.00000000000009 1.5 0.9895864392845114 -0.14393984571411075 0 
1 39.999999999999979 -165.00000000000009 -1.5 -0.9895864392845114 0.14393984571411075 0 
1 38.515620341073209 -164.78409023142888 -1.5 0.14393984571410659 0.98958643928451206 -0 
1 38.515620341073209 -164.78409023142888 1.5 0.14393984571410659 0.98958643928451206 -0 
1 46.100556311262388 -112.63765543637675 0 0 0 1 
2 50.553695288042931 -113.28538474209023 -1.5 0 0 -1 -0.61370041363282468 0.78953898086598617 0 0.78953898086598617 0.61370041363282468 0 4.5000000000000071
2 50.553695288042931 -113.28538474209023 1.5 0 0 -1 -0.61370041363282468 0.78953898086598617 0 0.78953898086598617 0.61370041363282468 0 4.5000000000000071
1 51.024776818374065 -108.81011020394389 0 0 0 -1 
1 48.157027176777007 -108.50824182061787 -1.5 0.99450545292140613 -0.104684784518042 -0 
1 48.157027176777007 -108.50824182061787 1.5 0.99450545292140613 -0.104684784518042 -0 
1 104.09418780038077 -114.39636399152349 0 0 -0 1 
2 104.25121497715787 -112.90460581214144 -1.5 -0 0 1 0.2351214540283991 -0.97196599830218933 0 0.97196599830218933 0.2351214540283991 0 1.4999999999999878
2 104.25121497715787 -112.90460581214144 1.5 -0 0 1 0.2351214540283991 -0.97196599830218933 0 0.97196599830218933 0.2351214540283991 0 1.4999999999999878
1 105.0727037391994 -114.15965808748277 0 -0 0 1 
1 104.17851123795836 -114.74494772465872 -1.5 0.83670151689420535 0.54765917469438585 -0 
1 104.17851123795836 -114.74494772465872 1.5 0.83670151689420535 0.54765917469438585 -0 
1 156.15377133167411 -80.724777481499501 0 0 0 1 
2 155.3322825696325 -79.469725206158046 -1.5 -0 0 1 0.99360878015812659 -0.11287866048407813 0 0.11287866048407813 0.99360878015812659 0 1.4999999999999716
2 155.3322825696325 -79.469725206158046 1.5 -0 0 1 0.99360878015812659 -0.11287866048407813 0 0.11287866048407813 0.99360878015812659 0 1.4999999999999716
1 156.41436355117895 -78.43092746387353 0 -0 0 1 
1 158.9179190184536 -81.038797742284615 -1.5 -0.69253182818971704 0.72138732103094816 0 
1 158.9179190184536 -81.038797742284615 1.5 -0.69253182818971704 0.72138732103094816 0 
1 111.65084774250569 -31.802265163172692 0 0 0 1 
2 110.56876676095948 -32.841062905456987 -1.5 0 -0 1 0.44990282431139283 0.89307751549159053 0 -0.89307751549159053 0.44990282431139283 0 1.4999999999999885
2 110.56876676095948 -32.841062905456987 1.5 0 -0 1 0.44990282431139283 0.89307751549159053 0 -0.89307751549159053 0.44990282431139283 0 1.4999999999999885
1 110.75951323493759 -31.353240408428231 0 0 -0 1 
1 111.809253526022 -31.487822497028798 -1.5 -0.99188166468585071 0.12716431598536485 0 
1 111.809253526022 -31.487822497028798 1.5 -0.99188166468585071 0.12716431598536485 0 
1 72.80925352602199 -26.487822497028823 0 0 0 1 
1 41.484379658926748 -165.21590976857127 1.5 0.14393984571411075 0.9895864392845114 0 
1 47.584935970189377 -112.85356520494798 1.5 0.9895864392845114 -0.14393984571411075 0 
2 50.553695288042931 -113.28538474209023 1.5 0 0 -1 -0.61370041363285699 0.78953898086596097 0 0.78953898086596097 0.61370041363285699 0 1.5000000000000082
1 50.867749641596987 -110.30186838332601 1.5 -0.10468478451804299 -0.99450545292140602 0 
1 47.842972823222851 -111.49175817938209 1.5 0.99450545292140602 -0.10468478451804303 0 
1 103.93716062360367 -115.88812217090566 1.5 -0.10468478451804303 -0.99450545292140602 0 
2 104.25121497715787 -112.90460581214144 1.5 -0 0 1 0.2351214540284163 -0.97196599830218522 0 0.97196599830218522 0.2351214540284163 0 4.4999999999999964
1 105.89419250124098 -115.4147103628241 1.5 0.54765917469438752 -0.83670151689420424 0 
1 105.82148876204151 -117.25505227534134 1.5000000000000004 0.83670151689420424 0.54765917469438752 0 
1 156.9752600937156 -81.979829756840729 1.5000000000000004 0.54765917469438752 -0.83670151689420424 0 
2 155.3322825696325 -79.469725206158046 1.5000000000000007 -0 0 1 0.99360878015812815 -0.11287866048406424 0 0.11287866048406424 0.99360878015812815 0 4.4999999999999645
1 157.49644453272541 -77.392129721589001 1.5000000000000007 0.72138732103095238 0.69253182818971271 0 
1 161.08208098154648 -78.961202257715499 1.5 -0.69253182818971359 0.7213873210309516 0 
1 112.73292872405239 -30.763467420887913 1.5 0.7213873210309516 0.69253182818971359 0 
2 110.56876676095948 -32.841062905456987 1.5 0 -0 1 0.44990282431137135 0.8930775154916013 0 -0.8930775154916013 0.44990282431137135 0 4.4999999999999902
1 110.95025970891567 -29.865417911399454 1.5 0.12716431598536576 0.99188166468585071 0 
1 112.19074647397814 -28.512177502971241 1.4999999999999998 -0.99188166468585071 0.12716431598536562 0 
1 73.000000000000085 -25.000000000000011 1.4999999999999998 0.12716431598536562 0.99188166468585071 0 
1 41.484379658926755 -165.21590976857124 -1.5 0.14393984571410659 0.98958643928451206 0 
1 49.069315629115934 -113.06947497351911 0 0 0 -1 
2 50.553695288042931 -113.28538474209023 -1.5 0 0 -1 -0.61370041363285865 0.78953898086595975 0 0.78953898086595975 0.61370041363285865 0 1.4999999999999927
1 50.710722464819909 -111.79362656270811 0 0 0 -1 
1 47.842972823222851 -111.4917581793821 -1.5 0.99450545292140613 -0.104684784518042 0 
1 103.78013344682661 -117.37988035028772 0 0 0 -1 
2 104.25121497715787 -112.90460581214144 -1.5 -0 0 1 0.2351214540284163 -0.97196599830218522 0 0.97196599830218522 0.2351214540284163 0 4.4999999999999964
1 106.71568126328255 -116.66976263816541 0 -0 0 1 
1 105.82148876204151 -117.25505227534136 -1.5 0.83670151689420535 0.54765917469438585 0 
1 157.79674885575727 -83.234882032182156 0 0 0 -1 
2 155.3322825696325 -79.469725206158046 -1.5 -0 0 1 0.99360878015812826 -0.11287866048406354 0 0.11287866048406354 0.99360878015812826 0 4.4999999999999929
1 158.57852551427183 -76.3533319793044 0 -0 0 1 
1 161.08208098154648 -78.961202257715485 -1.5 -0.69253182818971704 0.72138732103094816 0 
1 113.81500970559857 -29.724669678603561 0 0 0 -1 
2 110.56876676095948 -32.841062905456987 -1.5 0 -0 1 0.44990282431137329 0.89307751549160042 0 -0.89307751549160042 0.44990282431137329 0 4.5000000000000036
1 111.14100618289372 -28.377595414370667 0 0 -0 1 
1 112.19074647397814 -28.512177502971234 -1.5 -0.99188166468585071 0.12716431598536485 0 
1 73.190746473978123 -23.512177502971259 0 0 0 -1 
1 47.584935970189377 -112.85356520494798 -1.5 -0.9895864392845114 0.14393984571411075 0 
1 50.867749641596987 -110.30186838332601 -1.5 0.10468478451804299 0.99450545292140602 0 
1 103.93716062360367 -115.88812217090566 -1.5 0.10468478451804303 0.99450545292140602 0 
1 105.89419250124098 -115.4147103628241 -1.5 -0.54765917469438752 0.83670151689420424 0 
1 156.9752600937156 -81.979829756840729 -1.5000000000000004 -0.54765917469438752 0.83670151689420424 0 
1 157.49644453272541 -77.392129721589001 -1.5000000000000007 -0.72138732103095238 -0.69253182818971271 0 
1 112.73292872405239 -30.763467420887913 -1.5 -0.7213873210309516 -0.69253182818971359 0 
1 110.95025970891567 -29.865417911399454 -1.5 -0.12716431598536576 -0.99188166468585071 0 
1 73.000000000000085 -25.000000000000011 -1.4999999999999998 -0.12716431598536562 -0.99188166468585071 0 
Polygon3D 0
PolygonOnTriangulations 0
Surfaces 38
1 39.999999999999979 -165.00000000000009 0 0.14393984571411075 0.9895864392845114 0 0.9895864392845114 -0.14393984571411075 0 0 0 -1 
1 38.515620341073209 -164.78409023142888 0 -0.98958643928451206 0.14393984571410659 0 0 0 1 0.14393984571410659 0.98958643928451206 -0 
1 41.484379658926755 -165.21590976857124 0 0.98958643928451206 -0.14393984571410659 0 0 0 -1 0.14393984571410659 0.98958643928451206 0 
1 39.999999999999979 -165.00000000000009 1.5 -0 0 1 0.9895864392845114 -0.14393984571411075 0 0.14393984571411075 0.9895864392845114 0 
1 39.999999999999979 -165.00000000000009 -1.5 0 0 -1 -0.9895864392845114 0.14393984571411075 0 0.14393984571411075 0.9895864392845114 0 
10 5.5175694636043433 7.0488011507548292 -1.5 1.5
2 50.553695288042931 -113.28538474209023 0 0 0 -1 -0.61370041363282468 0.78953898086598617 0 0.78953898086598617 0.61370041363282468 0 4.5000000000000071
1 48.712594047144421 -110.91676779949229 -1.5 -0 -0 1 0.78953898086597762 0.61370041363283556 0 -0.61370041363283556 0.78953898086597762 0 
1 48.712594047144421 -110.91676779949229 1.5 0 0 -1 0.78953898086597762 0.61370041363283556 0 0.61370041363283556 -0.78953898086597762 0 
1 48.157027176777007 -108.50824182061787 0 0.104684784518042 0.99450545292140613 0 0 -0 1 0.99450545292140613 -0.104684784518042 -0 
1 47.999999999999915 -109.99999999999999 -1.5 0 0 -1 0.10468478451804303 0.99450545292140602 0 0.99450545292140602 -0.10468478451804303 0 
1 47.999999999999915 -109.99999999999999 1.5 0 0 1 -0.10468478451804303 -0.99450545292140602 0 0.99450545292140602 -0.10468478451804303 0 
10 5.9409648451678079 6.6254057691913646 -1.5 1.5
2 104.25121497715787 -112.90460581214144 0 -0 0 1 0.2351214540283991 -0.97196599830218933 0 0.97196599830218933 0.2351214540283991 0 1.4999999999999878
1 104.95657933924309 -115.820503807048 -1.5 -0 0 1 0.97196599830218744 0.23512145402840676 0 -0.23512145402840676 0.97196599830218744 -0 
1 104.95657933924309 -115.820503807048 1.5 0 -0 -1 0.97196599830218744 0.23512145402840676 0 0.23512145402840676 -0.97196599830218744 0 
1 104.17851123795836 -114.74494772465872 0 -0.54765917469438585 0.83670151689420535 0 0 0 1 0.83670151689420535 0.54765917469438585 -0 
1 104.99999999999993 -116.00000000000004 -1.5000000000000004 0 0 -1 -0.54765917469438752 0.83670151689420424 0 0.83670151689420424 0.54765917469438752 0 
1 104.99999999999993 -116.00000000000004 1.5000000000000004 -0 0 1 0.54765917469438752 -0.83670151689420424 0 0.83670151689420424 0.54765917469438752 0 
10 5.4050727200733446 7.1612978942858279 -1.5 1.5
2 155.3322825696325 -79.469725206158046 0 -0 0 1 0.99360878015812659 -0.11287866048407813 0 0.11287866048407813 0.99360878015812659 0 1.4999999999999716
1 158.31310891010685 -79.808361187610259 -1.5000000000000007 -0 0 1 0.11287866048407263 0.99360878015812726 0 -0.99360878015812726 0.11287866048407263 -0 
1 158.31310891010685 -79.808361187610259 1.5000000000000007 0 -0 -1 0.11287866048407263 0.99360878015812726 0 0.99360878015812726 -0.11287866048407263 0 
1 158.9179190184536 -81.038797742284615 0 -0.72138732103094816 -0.69253182818971704 0 0 0 1 -0.69253182818971704 0.72138732103094816 0 
1 160.00000000000006 -80.000000000000071 -1.5 -0 0 -1 -0.7213873210309516 -0.69253182818971359 0 -0.69253182818971359 0.7213873210309516 0 
1 160.00000000000006 -80.000000000000071 1.5 0 -0 1 0.7213873210309516 0.69253182818971359 0 -0.69253182818971359 0.7213873210309516 0 
10 5.9440383392452123 6.6223322751139602 -1.5 1.5
2 110.56876676095948 -32.841062905456987 0 0 -0 1 0.44990282431139283 0.89307751549159053 0 -0.89307751549159053 0.44990282431139283 0 1.4999999999999885
1 111.91847523389362 -30.161830358982204 -1.5 0 -0 1 -0.89307751549159631 0.44990282431138118 0 -0.44990282431138118 -0.89307751549159631 0 
1 111.91847523389362 -30.161830358982204 1.5 -0 0 -1 -0.89307751549159631 0.44990282431138118 0 0.44990282431138118 0.89307751549159631 0 
1 111.809253526022 -31.487822497028798 0 -0.12716431598536485 -0.99188166468585071 0 0 0 1 -0.99188166468585071 0.12716431598536485 0 
1 112.00000000000009 -30.000000000000018 -1.4999999999999998 -0 0 -1 -0.12716431598536562 -0.99188166468585071 0 -0.99188166468585071 0.12716431598536562 0 
1 112.00000000000009 -30.000000000000018 1.4999999999999998 0 -0 1 0.12716431598536562 0.99188166468585071 0 -0.99188166468585071 0.12716431598536562 0 
10 5.5175694636043433 7.0488011507548292 -1.5 1.5
2 50.553695288042931 -113.28538474209023 0 0 0 -1 -0.61370041363285865 0.78953898086595975 0 0.78953898086595975 0.61370041363285865 0 1.4999999999999927
1 47.842972823222851 -111.4917581793821 0 -0.104684784518042 -0.99450545292140613 -0 0 0 -1 0.99450545292140613 -0.104684784518042 0 
10 5.9409648451678079 6.6254057691913646 -1.5 1.5
2 104.25121497715787 -112.90460581214144 0 -0 0 1 0.2351214540284163 -0.97196599830218522 0 0.97196599830218522 0.2351214540284163 0 4.4999999999999964
1 105.82148876204151 -117.25505227534136 0 0.54765917469438585 -0.83670151689420535 0 0 0 -1 0.83670151689420535 0.54765917469438585 0 
10 5.4050727200733446 7.1612978942858279 -1.5 1.5
2 155.3322825696325 -79.469725206158046 0 -0 0 1 0.99360878015812826 -0.11287866048406354 0 0.11287866048406354 0.99360878015812826 0 4.4999999999999929
1 161.08208098154648 -78.961202257715485 0 0.72138732103094816 0.69253182818971704 0 0 0 -1 -0.69253182818971704 0.72138732103094816 0 
10 5.9440383392452123 6.6223322751139602 -1.5 1.5
2 110.56876676095948 -32.841062905456987 0 0 -0 1 0.44990282431137324 0.8930775154916003 0 -0.89307751549160042 0.44990282431137329 0 4.5000000000000036
1 112.19074647397814 -28.512177502971234 0 0.12716431598536485 0.99188166468585071 0 0 0 -1 -0.99188166468585071 0.12716431598536485 0 
1 73.000000000000085 -25.000000000000007 0 -0.99188166468585071 0.12716431598536559 0 0.12716431598536559 0.99188166468585071 0 -0 0 -1 
Triangulations 0

TShapes 194
Ve
1.01e-07
38.5156203410732 -164.784090231429 -1.5
0 0

0101101
*
Ve
1.01e-07
38.5156203410732 -164.784090231429 1.5
0 0

0101101
*
Ed
 1.00005e-07 1 1 0
1  1 0 -1.5 1.5
2  1 2 0 -1.5 1.5
0

0101000
+194 0 -193 0 *
Ve
1.01e-07
41.4843796589268 -165.215909768571 1.5
0 0

0101101
*
Ve
1.01e-07
41.4843796589267 -165.215909768571 -1.5
0 0

0101101
*
Ed
 1.00005e-07 1 1 0
1  2 0 -1.5 1.5
2  2 3 0 -1.5 1.5
0

0101000
+191 0 -190 0 *
Ed
 1.00005e-07 1 1 0
1  3 0 -1.5 1.5
2  3 4 0 -1.5 1.5
0

0101000
-191 0 +193 0 *
Ed
 1.00005e-07 1 1 0
1  4 0 -1.5 1.5
2  4 5 0 -1.5 1.5
0

0101000
-194 0 +190 0 *
Wi

0101100
+192 0 +189 0 +188 0 +187 0 *
Fa
0  1e-07 1 0

0101000
+186 0 *
Ve
1.01e-07
46.1005563112626 -112.637655436377 -1.5
0 0

0101101
*
Ed
 1e-07 1 1 0
1  5 0 0 52.695179243518
2  5 2 0 0 52.695179243518
2  6 5 0 0 52.695179243518
0

0101000
+194 0 -184 0 *
Ve
1.01e-07
46.1005563112626 -112.637655436377 1.5
0 0

0101101
*
Ed
 1e-07 1 1 0
1  6 0 0 52.695179243518
2  7 2 0 0 52.695179243518
2  8 4 0 0 52.695179243518
0

0101000
+193 0 -182 0 *
Ed
 1e-07 1 1 0
1  7 0 -1.5 1.5
2  9 6 0 -1.5 1.5
2  10 2 0 -1.5 1.5
4 G1 6 0 2 0
0

0101000
+184 0 -182 0 *
Wi

0101100
-183 0 +192 0 +181 0 -180 0 *
Fa
0  1e-07 2 0

0101000
+179 0 *
Ve
1.01e-07
51.0247768183741 -108.810110203944 -1.5
0 0

0101101
*
Ed
 1e-07 1 1 0
1  8 0 5.51756946360434 7.04880115075483
2  11 6 0 5.51756946360434 7.04880115075483
2  12 7 0 5.51756946360434 7.04880115075483
0

0101000
+184 0 -177 0 *
Ve
1.01e-07
51.0247768183741 -108.810110203944 1.5
0 0

0101101
*
Ed
 1e-07 1 1 0
1  9 0 5.51756946360434 7.04880115075483
2  13 6 0 5.51756946360434 7.04880115075483
2  14 8 0 5.51756946360434 7.04880115075483
0

0101000
+182 0 -175 0 *
Ed
 1e-07 1 1 0
1  10 0 -1.5 1.5
2  15 6 0 -1.5 1.5
2  16 9 0 -1.5 1.5
4 G1 9 0 6 0
0

0101000
+175 0 -177 0 *
Wi

0101100
-176 0 +180 0 +174 0 +173 0 *
Fa
0  1e-07 6 0

0101000
+172 0 *
Ve
1.01e-07
104.094187800381 -114.396363991524 -1.5
0 0

0101101
*
Ed
 1e-07 1 1 0
1  11 0 2.88359368284298 56.2462080617917
2  17 9 0 2.88359368284298 56.2462080617917
2  18 10 0 2.88359368284298 56.2462080617917
0

0101000
+177 0 -170 0 *
Ve
1.01e-07
104.094187800381 -114.396363991524 1.5
0 0

0101101
*
Ed
 1e-07 1 1 0
1  12 0 2.88359368284298 56.2462080617917
2  19 9 0 2.88359368284298 56.2462080617917
2  20 11 0 2.88359368284298 56.2462080617917
0

0101000
+175 0 -168 0 *
Ed
 1e-07 1 1 0
1  13 0 -1.5 1.5
2  21 12 0 -1.5 1.5
2  22 9 0 -1.5 1.5
4 G1 12 0 9 0
0

0101000
+170 0 -168 0 *
Wi

0101100
-169 0 -173 0 +167 0 -166 0 *
Fa
0  1e-07 9 0

0101000
+165 0 *
Ve
1.01e-07
105.072703739199 -114.159658087483 -1.5
0 0

0101101
*
Ed
 1e-07 1 1 0
1  14 0 5.94096484516781 6.62540576919136
2  23 12 0 5.94096484516781 6.62540576919136
2  24 13 0 5.94096484516781 6.62540576919136
0

0101000
+170 0 -163 0 *
Ve
1.01e-07
105.072703739199 -114.159658087483 1.5
0 0

0101101
*
Ed
 1e-07 1 1 0
1  15 0 5.94096484516781 6.62540576919136
2  25 12 0 5.94096484516781 6.62540576919136
2  26 14 0 5.94096484516781 6.62540576919136
0

0101000
+168 0 -161 0 *
Ed
 1e-07 1 1 0
1  16 0 -1.5 1.5
2  27 12 0 -1.5 1.5
2  28 15 0 -1.5 1.5
4 G1 15 0 12 0
0

0101000
+163 0 -161 0 *
Wi

0101100
+162 0 -166 0 -160 0 +159 0 *
Fa
0  1e-07 12 0

0101000
+158 0 *
Ve
1.01e-07
156.153771331674 -80.7247774814994 -1.5
0 0

0101101
*
Ed
 1e-07 1 1 0
1  17 0 1.06871146183675 62.1192373197139
2  29 15 0 1.06871146183675 62.1192373197139
2  30 16 0 1.06871146183675 62.1192373197139
0

0101000
+163 0 -156 0 *
Ve
1.01e-07
156.153771331674 -80.7247774814994 1.5
0 0

0101101
*
Ed
 1e-07 1 1 0
1  18 0 1.06871146183675 62.1192373197139
2  31 15 0 1.06871146183675 62.1192373197139
2  32 17 0 1.06871146183675 62.1192373197139
0

0101000
+161 0 -154 0 *
Ed
 1e-07 1 1 0
1  19 0 -1.5 1.5
2  33 18 0 -1.5 1.5
2  34 15 0 -1.5 1.5
4 G1 18 0 15 0
0

0101000
+156 0 -154 0 *
Wi

0101100
-155 0 +159 0 +153 0 -152 0 *
Fa
0  1e-07 15 0

0101000
+151 0 *
Ve
1.01e-07
156.414363551179 -78.4309274638735 -1.5
0 0

0101101
*
Ed
 1e-07 1 1 0
1  20 0 5.40507272007334 7.16129789428583
2  35 18 0 5.40507272007334 7.16129789428583
2  36 19 0 5.40507272007334 7.16129789428583
0

0101000
+156 0 -149 0 *
Ve
1.01e-07
156.414363551179 -78.4309274638735 1.5
0 0

0101101
*
Ed
 1e-07 1 1 0
1  21 0 5.40507272007334 7.16129789428583
2  37 18 0 5.40507272007334 7.16129789428583
2  38 20 0 5.40507272007334 7.16129789428583
0

0101000
+154 0 -147 0 *
Ed
 1e-07 1 1 0
1  22 0 -1.5 1.5
2  39 18 0 -1.5 1.5
2  40 21 0 -1.5 1.5
4 G1 21 0 18 0
0

0101000
+149 0 -147 0 *
Wi

0101100
+148 0 -152 0 -146 0 +145 0 *
Fa
0  1e-07 18 0

0101000
+144 0 *
Ve
1.01e-07
111.650847742506 -31.8022651631725 -1.5
0 0

0101101
*
Ed
 1e-07 1 1 0
1  23 0 3.61507639846529 68.2525616180044
2  41 21 0 3.61507639846529 68.2525616180044
2  42 22 0 3.61507639846529 68.2525616180044
0

0101000
+149 0 -142 0 *
Ve
1.01e-07
111.650847742506 -31.8022651631725 1.5
0 0

0101101
*
Ed
 1e-07 1 1 0
1  24 0 3.61507639846529 68.2525616180044
2  43 21 0 3.61507639846529 68.2525616180044
2  44 23 0 3.61507639846529 68.2525616180044
0

0101000
+147 0 -140 0 *
Ed
 1e-07 1 1 0
1  25 0 -1.5 1.5
2  45 24 0 -1.5 1.5
2  46 21 0 -1.5 1.5
4 G1 24 0 21 0
0

0101000
+142 0 -140 0 *
Wi

0101100
-141 0 +145 0 +139 0 -138 0 *
Fa
0  1e-07 21 0

0101000
+137 0 *
Ve
1.01e-07
110.759513234938 -31.3532404084282 -1.5
0 0

0101101
*
Ed
 1e-07 1 1 0
1  26 0 5.94403833924521 6.62233227511396
2  47 24 0 5.94403833924521 6.62233227511396
2  48 25 0 5.94403833924521 6.62233227511396
0

0101000
+142 0 -135 0 *
Ve
1.01e-07
110.759513234938 -31.3532404084282 1.5
0 0

0101101
*
Ed
 1e-07 1 1 0
1  27 0 5.94403833924521 6.62233227511396
2  49 24 0 5.94403833924521 6.62233227511396
2  50 26 0 5.94403833924521 6.62233227511396
0

0101000
+140 0 -133 0 *
Ed
 1e-07 1 1 0
1  28 0 -1.5 1.5
2  51 24 0 -1.5 1.5
2  52 27 0 -1.5 1.5
4 G1 27 0 24 0
0

0101000
+135 0 -133 0 *
Wi

0101100
+134 0 -138 0 -132 0 +131 0 *
Fa
0  1e-07 24 0

0101000
+130 0 *
Ve
1.01e-07
72.809253526022 -26.4878224970288 -1.5
0 0

0101101
*
Ed
 1e-07 1 1 0
1  29 0 1.05833218664941 39.319206502675
2  53 27 0 1.05833218664941 39.319206502675
2  54 28 0 1.05833218664941 39.319206502675
0

0101000
+135 0 -128 0 *
Ve
1.01e-07
72.809253526022 -26.4878224970288 1.5
0 0

0101101
*
Ed
 1e-07 1 1 0
1  30 0 1.05833218664941 39.319206502675
2  55 27 0 1.05833218664941 39.319206502675
2  56 29 0 1.05833218664941 39.319206502675
0

0101000
+133 0 -126 0 *
Ed
 1.00005e-07 1 1 0
1  31 0 -1.5 1.5
2  57 27 0 -1.5 1.5
0

0101000
+128 0 -126 0 *
Wi

0101100
-127 0 +131 0 +125 0 -124 0 *
Fa
0  1e-07 27 0

0101000
+123 0 *
Ve
1.01e-07
49.0693156291162 -113.069474973519 1.5
0 0

0101101
*
Ed
 1e-07 1 1 0
1  32 0 0 52.695179243518
2  58 4 0 0 52.695179243518
2  59 3 0 0 52.695179243518
0

0101000
+191 0 -121 0 *
Ed
 1e-07 1 1 0
1  33 0 -1.5 1.5
2  60 4 0 -1.5 1.5
2  61 8 0 -1.5 1.5
4 C1 8 0 4 0
0

0101000
+182 0 -121 0 *
Wi

0101100
-181 0 +188 0 +120 0 -119 0 *
Fa
0  1e-07 4 0

0101000
+118 0 *
Ve
1.01e-07
50.7107224648199 -111.793626562708 1.5
0 0

0101101
*
Ed
 1e-07 1 1 0
1  34 0 5.51756946360434 7.04880115075483
2  62 30 0 5.51756946360434 7.04880115075483
2  63 8 0 5.51756946360434 7.04880115075483
0

0101000
+121 0 -116 0 *
Ed
 1e-07 1 1 0
1  35 0 -1.5 1.5
2  64 8 0 -1.5 1.5
2  65 11 0 -1.5 1.5
4 C1 11 0 8 0
0

0101000
+175 0 -116 0 *
Wi

0101100
+174 0 -119 0 -115 0 +114 0 *
Fa
0  1e-07 8 0

0101000
+113 0 *
Ve
1.01e-07
103.780133446827 -117.379880350288 1.5
0 0

0101101
*
Ed
 1e-07 1 1 0
1  36 0 2.88359368284298 56.2462080617917
2  66 11 0 2.88359368284298 56.2462080617917
2  67 31 0 2.88359368284298 56.2462080617917
0

0101000
+116 0 -111 0 *
Ed
 1e-07 1 1 0
1  37 0 -1.5 1.5
2  68 11 0 -1.5 1.5
2  69 14 0 -1.5 1.5
4 C1 14 0 11 0
0

0101000
+168 0 -111 0 *
Wi

0101100
-167 0 +114 0 +110 0 -109 0 *
Fa
0  1e-07 11 0

0101000
+108 0 *
Ve
1.01e-07
106.715681263283 -116.669762638165 1.5
0 0

0101101
*
Ed
 1e-07 1 1 0
1  38 0 5.94096484516781 6.62540576919136
2  70 32 0 5.94096484516781 6.62540576919136
2  71 14 0 5.94096484516781 6.62540576919136
0

0101000
+111 0 -106 0 *
Ed
 1e-07 1 1 0
1  39 0 -1.5 1.5
2  72 14 0 -1.5 1.5
2  73 17 0 -1.5 1.5
4 C1 17 0 14 0
0

0101000
+161 0 -106 0 *
Wi

0101100
+160 0 -109 0 -105 0 +104 0 *
Fa
0  1e-07 14 0

0101000
+103 0 *
Ve
1.01e-07
157.796748855757 -83.234882032182 1.5
0 0

0101101
*
Ed
 1e-07 1 1 0
1  40 0 1.06871146183675 62.1192373197139
2  74 17 0 1.06871146183675 62.1192373197139
2  75 33 0 1.06871146183675 62.1192373197139
0

0101000
+106 0 -101 0 *
Ed
 1e-07 1 1 0
1  41 0 -1.5 1.5
2  76 17 0 -1.5 1.5
2  77 20 0 -1.5 1.5
4 C1 20 0 17 0
0

0101000
+154 0 -101 0 *
Wi

0101100
-153 0 +104 0 +100 0 -99 0 *
Fa
0  1e-07 17 0

0101000
+98 0 *
Ve
1.01e-07
158.578525514272 -76.3533319793044 1.5
0 0

0101101
*
Ed
 1e-07 1 1 0
1  42 0 5.40507272007334 7.16129789428583
2  78 34 0 5.40507272007334 7.16129789428583
2  79 20 0 5.40507272007334 7.16129789428583
0

0101000
+101 0 -96 0 *
Ed
 1e-07 1 1 0
1  43 0 -1.5 1.5
2  80 20 0 -1.5 1.5
2  81 23 0 -1.5 1.5
4 C1 23 0 20 0
0

0101000
+147 0 -96 0 *
Wi

0101100
+146 0 -99 0 -95 0 +94 0 *
Fa
0  1e-07 20 0

0101000
+93 0 *
Ve
1.01e-07
113.815009705599 -29.7246696786033 1.5
0 0

0101101
*
Ed
 1e-07 1 1 0
1  44 0 3.61507639846529 68.2525616180044
2  82 23 0 3.61507639846529 68.2525616180044
2  83 35 0 3.61507639846529 68.2525616180044
0

0101000
+96 0 -91 0 *
Ed
 1e-07 1 1 0
1  45 0 -1.5 1.5
2  84 23 0 -1.5 1.5
2  85 26 0 -1.5 1.5
4 C1 26 0 23 0
0

0101000
+140 0 -91 0 *
Wi

0101100
-139 0 +94 0 +90 0 -89 0 *
Fa
0  1e-07 23 0

0101000
+88 0 *
Ve
1.01e-07
111.141006182894 -28.3775954143707 1.5
0 0

0101101
*
Ed
 1e-07 1 1 0
1  46 0 5.94403833924521 6.62233227511396
2  86 36 0 5.94403833924521 6.62233227511396
2  87 26 0 5.94403833924521 6.62233227511396
0

0101000
+91 0 -86 0 *
Ed
 1e-07 1 1 0
1  47 0 -1.5 1.5
2  88 26 0 -1.5 1.5
2  89 29 0 -1.5 1.5
4 C1 29 0 26 0
0

0101000
+133 0 -86 0 *
Wi

0101100
+132 0 -89 0 -85 0 +84 0 *
Fa
0  1e-07 26 0

0101000
+83 0 *
Ve
1.01e-07
73.1907464739781 -23.5121775029713 1.5
0 0

0101101
*
Ed
 1e-07 1 1 0
1  48 0 1.05833218664941 39.319206502675
2  90 29 0 1.05833218664941 39.319206502675
2  91 37 0 1.05833218664941 39.319206502675
0

0101000
+86 0 -81 0 *
Ed
 1.00005e-07 1 1 0
1  49 0 -1.5 1.5
2  92 29 0 -1.5 1.5
0

0101000
-81 0 +126 0 *
Wi

0101100
-125 0 +84 0 +80 0 -79 0 *
Fa
0  1e-07 29 0

0101000
+78 0 *
Ve
1.01e-07
49.0693156291162 -113.069474973519 -1.5
0 0

0101101
*
Ed
 1e-07 1 1 0
1  50 0 0 52.695179243518
2  93 3 0 0 52.695179243518
2  94 5 0 0 52.695179243518
0

0101000
+190 0 -76 0 *
Ed
 1e-07 1 1 0
1  51 0 -1.5 1.5
2  95 30 0 -1.5 1.5
2  96 3 0 -1.5 1.5
4 G1 30 0 3 0
0

0101000
+121 0 -76 0 *
Wi

0101100
-120 0 +189 0 +75 0 -74 0 *
Fa
0  1e-07 3 0

0101000
+73 0 *
Ve
1.01e-07
50.7107224648199 -111.793626562708 -1.5
0 0

0101101
*
Ed
 1e-07 1 1 0
1  52 0 5.51756946360434 7.04880115075483
2  97 30 0 5.51756946360434 7.04880115075483
2  98 7 0 5.51756946360434 7.04880115075483
0

0101000
+76 0 -71 0 *
Ed
 1e-07 1 1 0
1  53 0 -1.5 1.5
2  99 30 0 -1.5 1.5
2  100 31 0 -1.5 1.5
4 G1 31 0 30 0
0

0101000
+116 0 -71 0 *
Wi

0101100
+115 0 -74 0 -70 0 +69 0 *
Fa
0  1e-07 30 0

0101000
+68 0 *
Ve
1.01e-07
103.780133446827 -117.379880350288 -1.5
0 0

0101101
*
Ed
 1e-07 1 1 0
1  54 0 2.88359368284298 56.2462080617917
2  101 31 0 2.88359368284298 56.2462080617917
2  102 10 0 2.88359368284298 56.2462080617917
0

0101000
+71 0 -66 0 *
Ed
 1e-07 1 1 0
1  55 0 -1.5 1.5
2  103 32 0 -1.5 1.5
2  104 31 0 -1.5 1.5
4 G1 32 0 31 0
0

0101000
+111 0 -66 0 *
Wi

0101100
-110 0 +69 0 +65 0 -64 0 *
Fa
0  1e-07 31 0

0101000
+63 0 *
Ve
1.01e-07
106.715681263283 -116.669762638165 -1.5
0 0

0101101
*
Ed
 1e-07 1 1 0
1  56 0 5.94096484516781 6.62540576919136
2  105 32 0 5.94096484516781 6.62540576919136
2  106 13 0 5.94096484516781 6.62540576919136
0

0101000
+66 0 -61 0 *
Ed
 1e-07 1 1 0
1  57 0 -1.5 1.5
2  107 32 0 -1.5 1.5
2  108 33 0 -1.5 1.5
4 G1 33 0 32 0
0

0101000
+61 0 -106 0 *
Wi

0101100
-105 0 +64 0 +60 0 +59 0 *
Fa
0  1e-07 32 0

0101000
+58 0 *
Ve
1.01e-07
157.796748855757 -83.234882032182 -1.5
0 0

0101101
*
Ed
 1e-07 1 1 0
1  58 0 1.06871146183675 62.1192373197139
2  109 33 0 1.06871146183675 62.1192373197139
2  110 16 0 1.06871146183675 62.1192373197139
0

0101000
+61 0 -56 0 *
Ed
 1e-07 1 1 0
1  59 0 -1.5 1.5
2  111 34 0 -1.5 1.5
2  112 33 0 -1.5 1.5
4 G1 34 0 33 0
0

0101000
+101 0 -56 0 *
Wi

0101100
-100 0 -59 0 +55 0 -54 0 *
Fa
0  1e-07 33 0

0101000
+53 0 *
Ve
1.01e-07
158.578525514272 -76.3533319793044 -1.5
0 0

0101101
*
Ed
 1e-07 1 1 0
1  60 0 5.40507272007334 7.16129789428583
2  113 34 0 5.40507272007334 7.16129789428583
2  114 19 0 5.40507272007334 7.16129789428583
0

0101000
+56 0 -51 0 *
Ed
 1e-07 1 1 0
1  61 0 -1.5 1.5
2  115 34 0 -1.5 1.5
2  116 35 0 -1.5 1.5
4 G1 35 0 34 0
0

0101000
+51 0 -96 0 *
Wi

0101100
-95 0 +54 0 +50 0 +49 0 *
Fa
0  1e-07 34 0

0101000
+48 0 *
Ve
1.01e-07
113.815009705599 -29.7246696786033 -1.5
0 0

0101101
*
Ed
 1e-07 1 1 0
1  62 0 3.61507639846529 68.2525616180044
2  117 35 0 3.61507639846529 68.2525616180044
2  118 22 0 3.61507639846529 68.2525616180044
0

0101000
+51 0 -46 0 *
Ed
 1e-07 1 1 0
1  63 0 -1.5 1.5
2  119 36 0 -1.5 1.5
2  120 35 0 -1.5 1.5
4 G1 36 0 35 0
0

0101000
+91 0 -46 0 *
Wi

0101100
-90 0 -49 0 +45 0 -44 0 *
Fa
0  1e-07 35 0

0101000
+43 0 *
Ve
1.01e-07
111.141006182894 -28.3775954143707 -1.5
0 0

0101101
*
Ed
 1e-07 1 1 0
1  64 0 5.94403833924521 6.62233227511396
2  121 36 0 5.94403833924521 6.62233227511396
2  122 25 0 5.94403833924521 6.62233227511396
0

0101000
+46 0 -41 0 *
Ed
 1e-07 1 1 0
1  65 0 -1.5 1.5
2  123 36 0 -1.5 1.5
2  124 37 0 -1.5 1.5
4 G1 37 0 36 0
0

0101000
+41 0 -86 0 *
Wi

0101100
-85 0 +44 0 +40 0 +39 0 *
Fa
0  1e-07 36 0

0101000
+38 0 *
Ve
1.01e-07
73.1907464739781 -23.5121775029712 -1.5
0 0

0101101
*
Ed
 1e-07 1 1 0
1  66 0 1.05833218664941 39.319206502675
2  125 37 0 1.05833218664941 39.319206502675
2  126 28 0 1.05833218664941 39.319206502675
0

0101000
+41 0 -36 0 *
Ed
 1.00005e-07 1 1 0
1  67 0 -1.5 1.5
2  127 37 0 -1.5 1.5
0

0101000
+81 0 -36 0 *
Wi

0101100
-80 0 -39 0 +35 0 -34 0 *
Fa
0  1e-07 37 0

0101000
+33 0 *
Ed
 1e-07 1 1 0
1  68 0 -1.5 1.5
2  128 5 0 -1.5 1.5
2  129 7 0 -1.5 1.5
4 C1 7 0 5 0
0

0101000
+76 0 -184 0 *
Wi

0101100
-75 0 +187 0 +183 0 -31 0 *
Fa
0  1e-07 5 0

0101000
+30 0 *
Ed
 1e-07 1 1 0
1  69 0 -1.5 1.5
2  130 7 0 -1.5 1.5
2  131 10 0 -1.5 1.5
4 C1 10 0 7 0
0

0101000
+71 0 -177 0 *
Wi

0101100
+70 0 -31 0 -176 0 +28 0 *
Fa
0  1e-07 7 0

0101000
+27 0 *
Ed
 1e-07 1 1 0
1  70 0 -1.5 1.5
2  132 10 0 -1.5 1.5
2  133 13 0 -1.5 1.5
4 C1 13 0 10 0
0

0101000
+66 0 -170 0 *
Wi

0101100
-65 0 +28 0 +169 0 -25 0 *
Fa
0  1e-07 10 0

0101000
+24 0 *
Ed
 1e-07 1 1 0
1  71 0 -1.5 1.5
2  134 13 0 -1.5 1.5
2  135 16 0 -1.5 1.5
4 C1 16 0 13 0
0

0101000
+61 0 -163 0 *
Wi

0101100
+60 0 -25 0 -162 0 +22 0 *
Fa
0  1e-07 13 0

0101000
+21 0 *
Ed
 1e-07 1 1 0
1  72 0 -1.5 1.5
2  136 16 0 -1.5 1.5
2  137 19 0 -1.5 1.5
4 C1 19 0 16 0
0

0101000
+56 0 -156 0 *
Wi

0101100
-55 0 +22 0 +155 0 -19 0 *
Fa
0  1e-07 16 0

0101000
+18 0 *
Ed
 1e-07 1 1 0
1  73 0 -1.5 1.5
2  138 19 0 -1.5 1.5
2  139 22 0 -1.5 1.5
4 C1 22 0 19 0
0

0101000
+51 0 -149 0 *
Wi

0101100
+50 0 -19 0 -148 0 +16 0 *
Fa
0  1e-07 19 0

0101000
+15 0 *
Ed
 1e-07 1 1 0
1  74 0 -1.5 1.5
2  140 22 0 -1.5 1.5
2  141 25 0 -1.5 1.5
4 C1 25 0 22 0
0

0101000
+46 0 -142 0 *
Wi

0101100
-45 0 +16 0 +141 0 -13 0 *
Fa
0  1e-07 22 0

0101000
+12 0 *
Ed
 1e-07 1 1 0
1  75 0 -1.5 1.5
2  142 25 0 -1.5 1.5
2  143 28 0 -1.5 1.5
4 C1 28 0 25 0
0

0101000
+41 0 -135 0 *
Wi

0101100
+40 0 -13 0 -134 0 +10 0 *
Fa
0  1e-07 25 0

0101000
+9 0 *
Ed
 1.00005e-07 1 1 0
1  76 0 -1.5 1.5
2  144 28 0 -1.5 1.5
0

0101000
-128 0 +36 0 *
Wi

0101100
-35 0 +10 0 +127 0 -7 0 *
Fa
0  1e-07 28 0

0101000
+6 0 *
Wi

0101100
+124 0 +34 0 +79 0 +7 0 *
Fa
0  1e-07 38 0

0101000
+4 0 *
Sh

0101100
-185 0 +178 0 +171 0 +164 0 -157 0 +150 0 -143 0 +136 0 -129 0 +122 0 
+117 0 -112 0 +107 0 -102 0 +97 0 -92 0 +87 0 -82 0 +77 0 +72 0 
-67 0 +62 0 +57 0 +52 0 +47 0 +42 0 +37 0 +32 0 +29 0 -26 0 
+23 0 -20 0 +17 0 -14 0 +11 0 -8 0 +5 0 +3 0 *
So

1100000
+2 0 *

+1 1  