
CASCADE Topology V1, (c) Matra-Datavision
Locations 1
1
              1               0               0               0 
              0               1               0               0 
              0               0               1               0 
Curve2ds 36
1 0 0 1 0 
8 0 52.695179243518034
1 6.2831853071795862 0 0 1 
1 0 0 0 1 
1 0 52.695179243518034 1 0 
8 0 6.2831853071795862
1 5.5175694636043433 9.4247779607693793 -0 -1 
8 5.5175694636043433 7.0488011507548292
1 0 3.1415926535897931 1 0 
1 0 9.4247779607693793 1 0 
1 7.0488011507548292 0 0 1 
8 3.1415926535897931 9.4247779607693793
1 9.4247779607693793 2.8835936828429758 -1 -0 
8 2.8835936828429758 56.246208061791663
1 6.2831853071795862 0 0 1 
1 0 0 0 1 
1 0 56.246208061791663 1 0 
8 0 6.2831853071795862
1 5.9409648451678079 6.2831853071795862 -0 -1 
8 5.9409648451678079 6.6254057691913646
1 0 0 1 0 
1 0 6.2831853071795862 1 0 
1 6.6254057691913646 0 0 1 
8 0 6.2831853071795862
1 6.2831853071795862 1.0687114618367546 -1 -0 
8 1.0687114618367546 62.119237319713903
1 6.2831853071795862 0 0 1 
1 0 0 0 1 
1 0 62.119237319713903 1 0 
8 0 6.2831853071795862
1 5.4050727200733446 6.2831853071795862 -0 -1 
8 5.4050727200733446 7.1612978942858279
1 0 0 1 0 
1 0 6.2831853071795862 1 0 
1 7.1612978942858279 0 0 1 
8 0 6.2831853071795862
1 6.2831853071795862 3.6150763984652912 -1 -0 
8 3.6150763984652912 68.252561618004421
1 6.2831853071795862 0 0 1 
1 0 0 0 1 
1 0 68.252561618004421 1 0 
8 0 6.2831853071795862
1 5.9440383392452123 6.2831853071795862 -0 -1 
8 5.9440383392452123 6.6223322751139602
1 0 0 1 0 
1 0 6.2831853071795862 1 0 
1 6.6223322751139602 0 0 1 
8 0 6.2831853071795862
1 6.2831853071795862 1.0583321866494095 -1 -0 
8 1.0583321866494095 39.319206502675002
1 6.2831853071795862 0 0 1 
1 0 0 0 1 
1 0 39.319206502675002 1 0 
Curves 19
2 40 -165 0 0.14393984571410659 0.98958643928451206 0 0.98958643928451206 -0.14393984571410659 0 0 0 -1 1.5
1 41.48437965892677 -165.21590976857115 0 0.14393984571410659 0.98958643928451206 0 
2 47.584935970189179 -112.85356520494787 0 0.14393984571410659 0.98958643928451206 0 0.98958643928451206 -0.14393984571410659 0 0 0 -1 1.5
2 50.553695288042931 -113.28538474209023 -5.5109105961630896e-16 0 0 -1 -0.61370041363281369 0.78953898086599461 0 0.78953898086599461 0.61370041363281369 0 1.4999999999999969
2 50.867749641597058 -110.30186838332601 0 -0.99450545292140602 0.10468478451804299 0 0.10468478451804299 0.99450545292140602 0 0 0 -1 1.5
1 47.842972823222937 -111.4917581793821 0 0.99450545292140613 -0.104684784518042 0 
2 103.93716062360376 -115.88812217090562 0 0.99450545292140613 -0.104684784518042 0 -0.104684784518042 -0.99450545292140613 0 0 -0 -1 1.5
2 104.25121497715787 -112.90460581214144 -3.6739403974420594e-16 -0 0 1 0.23512145402843487 -0.97196599830218067 0 0.97196599830218067 0.23512145402843487 0 4.5000000000000018
2 105.89419250124104 -115.41471036282405 0 -0.83670151689420436 -0.54765917469438741 0 0.54765917469438741 -0.83670151689420436 0 0 0 1 1.5
1 105.82148876204158 -117.25505227534131 0 0.83670151689420535 0.54765917469438585 0 
2 156.97526009371575 -81.979829756840786 0 0.83670151689420535 0.54765917469438585 0 0.54765917469438585 -0.83670151689420535 0 0 0 -1 1.5000000000000004
2 155.3322825696325 -79.469725206158046 -3.6739403974420613e-16 -0 0 1 0.99360878015813048 -0.11287866048404327 0 0.11287866048404327 0.99360878015813048 0 4.4999999999999893
2 157.49644453272535 -77.392129721588915 0 0.69253182818971359 -0.7213873210309516 0 0.7213873210309516 0.69253182818971359 0 -0 0 1 1.5000000000000007
1 161.08208098154643 -78.961202257715428 0 -0.69253182818971704 0.72138732103094816 0 
2 112.73292872405209 -30.763467420888077 0 -0.69253182818971704 0.72138732103094816 0 0.72138732103094816 0.69253182818971704 0 0 0 -1 1.5
2 110.56876676095948 -32.841062905456987 -3.6739403974420594e-16 0 -0 1 0.44990282431135592 0.89307751549160908 0 -0.89307751549160908 0.44990282431135592 0 4.5000000000000018
2 110.95025970891558 -29.865417911399433 0 0.99188166468585037 -0.12716431598536698 -0 0.12716431598536698 0.99188166468585037 0 0 -0 1 1.5
1 112.19074647397805 -28.512177502971223 0 -0.99188166468585071 0.12716431598536485 0 
2 73 -25.000000000000025 0 -0.99188166468585071 0.12716431598536485 0 0.12716431598536485 0.99188166468585071 0 0 0 -1 1.4999999999999998
Polygon3D 0
PolygonOnTriangulations 0
Surfaces 11
1 40 -165 0 0.14393984571411075 0.9895864392845114 0 0.9895864392845114 -0.14393984571411075 0 0 0 -1 
10 0 6.2831853071795862 0 52.695179243518034
2 40 -165 0 0.14393984571410659 0.98958643928451206 0 0.98958643928451206 -0.14393984571410659 0 0 0 -1 1.5
10 5.5175694636043433 7.0488011507548292 3.1415926535897931 9.4247779607693793
5 50.553695288042931 -113.28538474209023 0 0 0 -1 -0.61370041363281369 0.78953898086599461 0 0.78953898086599461 0.61370041363281369 0 2.9999999999999969 1.5
10 0 6.2831853071795862 2.8835936828429758 56.246208061791663
2 48 -110 0 0.99450545292140613 -0.104684784518042 0 -0.104684784518042 -0.99450545292140613 0 0 -0 -1 1.5
10 5.9409648451678079 6.6254057691913646 0 6.2831853071795862
5 104.25121497715787 -112.90460581214144 0 -0 0 1 0.23512145402843487 -0.97196599830218067 0 0.97196599830218067 0.23512145402843487 0 3.0000000000000022 1.5
10 0 6.2831853071795862 1.0687114618367546 62.119237319713903
2 105 -116 0 0.83670151689420535 0.54765917469438585 0 0.54765917469438585 -0.83670151689420535 0 0 0 -1 1.5000000000000004
10 5.4050727200733446 7.1612978942858279 0 6.2831853071795862
5 155.3322825696325 -79.469725206158046 0 -0 0 1 0.99360878015813048 -0.11287866048404327 0 0.11287866048404327 0.99360878015813048 0 2.9999999999999885 1.5000000000000007
10 0 6.2831853071795862 3.6150763984652912 68.252561618004421
2 160 -80 0 -0.69253182818971704 0.72138732103094816 0 0.72138732103094816 0.69253182818971704 0 0 0 -1 1.5
10 5.9440383392452123 6.6223322751139602 0 6.2831853071795862
5 110.56876676095948 -32.841062905456987 0 0 -0 1 0.44990282431135592 0.89307751549160908 0 -0.89307751549160908 0.44990282431135592 0 3.0000000000000018 1.5
10 0 6.2831853071795862 1.0583321866494095 39.319206502675002
2 112 -30 0 -0.99188166468585071 0.12716431598536485 0 0.12716431598536485 0.99188166468585071 0 0 0 -1 1.4999999999999998
1 73 -25.000000000000007 0 -0.99188166468585071 0.12716431598536559 0 0.12716431598536559 0.99188166468585071 0 -0 0 -1 
Triangulations 0

TShapes 53
Ve
1.00005e-07
41.4843796589268 -165.215909768571 3.67394039744206e-16
0 0

0101101
*
Ed
 1.00005e-07 1 1 0
1  1 0 0 6.28318530717959
2  1 2 0 0 6.28318530717959
0

0101000
+53 0 -53 0 *
Wi

0101100
+52 0 *
Fa
0  1e-07 1 0

0101000
+51 0 *
Ve
1.00000333469387e-07
49.0693156291162 -113.069474973519 0
0 0

0101101
*
Ed
 1e-07 1 1 0
1  2 0 0 52.695179243518
3  2 3G1 2 0 0 52.695179243518
0

0101000
+53 0 -49 0 *
Ed
 1e-07 1 1 0
1  3 0 0 6.28318530717959
2  4 2 0 0 6.28318530717959
2  5 3 0 0 6.28318530717959
4 G1 3 0 2 0
0

0101000
+49 0 -49 0 *
Wi

0101100
+48 0 +52 0 -48 0 -47 0 *
Fa
0  1e-07 2 0

0101000
+46 0 *
Ve
1e-07
50.71072246482 -111.793626562708 0
0 0

0101101
*
Ed
 1e-07 1 1 0
1  4 0 5.51756946360434 7.04880115075483
3  6 7G1 3 0 5.51756946360434 7.04880115075483
0

0101000
+49 0 -44 0 *
Ed
 1e-07 1 1 0
1  5 0 3.14159265358979 9.42477796076938
2  8 3 0 3.14159265358979 9.42477796076938
2  9 4 0 3.14159265358979 9.42477796076938
4 G1 4 0 3 0
0

0101000
+44 0 -44 0 *
Wi

0101100
+43 0 +47 0 -43 0 +42 0 *
Fa
0  1e-07 3 0

0101000
+41 0 *
Ve
1.00000089307037e-07
103.780133446827 -117.379880350288 0
0 0

0101101
*
Ed
 1e-07 1 1 0
1  6 0 2.88359368284298 56.2462080617917
3  10 11G1 4 0 2.88359368284298 56.2462080617917
0

0101000
+44 0 -39 0 *
Ed
 1e-07 1 1 0
1  7 0 0 6.28318530717959
2  12 4 0 0 6.28318530717959
2  13 5 0 0 6.28318530717959
4 G1 5 0 4 0
0

0101000
+39 0 -39 0 *
Wi

0101100
+38 0 -42 0 -38 0 -37 0 *
Fa
0  1e-07 4 0

0101000
+36 0 *
Ve
1.00000000208167e-07
106.715681263283 -116.669762638165 0
0 0

0101101
*
Ed
 1e-07 1 1 0
1  8 0 5.94096484516781 6.62540576919136
3  14 15G1 5 0 5.94096484516781 6.62540576919136
0

0101000
+39 0 -34 0 *
Ed
 1e-07 1 1 0
1  9 0 0 6.28318530717959
2  16 5 0 0 6.28318530717959
2  17 6 0 0 6.28318530717959
4 G1 6 0 5 0
0

0101000
+34 0 -34 0 *
Wi

0101100
+33 0 +37 0 -33 0 +32 0 *
Fa
0  1e-07 5 0

0101000
+31 0 *
Ve
1.00000190110616e-07
157.796748855757 -83.234882032182 0
0 0

0101101
*
Ed
 1e-07 1 1 0
1  10 0 1.06871146183675 62.1192373197139
3  18 19G1 6 0 1.06871146183675 62.1192373197139
0

0101000
+34 0 -29 0 *
Ed
 1e-07 1 1 0
1  11 0 0 6.28318530717959
2  20 6 0 0 6.28318530717959
2  21 7 0 0 6.28318530717959
4 G1 7 0 6 0
0

0101000
+29 0 -29 0 *
Wi

0101100
+28 0 -32 0 -28 0 -27 0 *
Fa
0  1e-07 6 0

0101000
+26 0 *
Ve
1.00000001748601e-07
158.578525514272 -76.3533319793043 0
0 0

0101101
*
Ed
 1e-07 1 1 0
1  12 0 5.40507272007334 7.16129789428583
3  22 23G1 7 0 5.40507272007334 7.16129789428583
0

0101000
+29 0 -24 0 *
Ed
 1e-07 1 1 0
1  13 0 0 6.28318530717959
2  24 7 0 0 6.28318530717959
2  25 8 0 0 6.28318530717959
4 G1 8 0 7 0
0

0101000
+24 0 -24 0 *
Wi

0101100
+23 0 +27 0 -23 0 +22 0 *
Fa
0  1e-07 7 0

0101000
+21 0 *
Ve
1.00000475405718e-07
113.815009705599 -29.7246696786033 0
0 0

0101101
*
Ed
 1e-07 1 1 0
1  14 0 3.61507639846529 68.2525616180044
3  26 27G1 8 0 3.61507639846529 68.2525616180044
0

0101000
+24 0 -19 0 *
Ed
 1e-07 1 1 0
1  15 0 0 6.28318530717959
2  28 8 0 0 6.28318530717959
2  29 9 0 0 6.28318530717959
4 G1 9 0 8 0
0

0101000
+19 0 -19 0 *
Wi

0101100
+18 0 -22 0 -18 0 -17 0 *
Fa
0  1e-07 8 0

0101000
+16 0 *
Ve
1.00000001998401e-07
111.141006182894 -28.3775954143706 0
0 0

0101101
*
Ed
 1e-07 1 1 0
1  16 0 5.94403833924521 6.62233227511396
3  30 31G1 9 0 5.94403833924521 6.62233227511396
0

0101000
+19 0 -14 0 *
Ed
 1e-07 1 1 0
1  17 0 0 6.28318530717959
2  32 9 0 0 6.28318530717959
2  33 10 0 0 6.28318530717959
4 G1 10 0 9 0
0

0101000
+14 0 -14 0 *
Wi

0101100
+13 0 +17 0 -13 0 +12 0 *
Fa
0  1e-07 9 0

0101000
+11 0 *
Ve
1.00005e-07
73.190746473978 -23.5121775029712 3.67394039744206e-16
0 0

0101101
*
Ed
 1e-07 1 1 0
1  18 0 1.05833218664941 39.319206502675
3  34 35G1 10 0 1.05833218664941 39.319206502675
0

0101000
+14 0 -9 0 *
Ed
 1.00005e-07 1 1 0
1  19 0 0 6.28318530717959
2  36 10 0 0 6.28318530717959
0

0101000
+9 0 -9 0 *
Wi

0101100
+8 0 -12 0 -8 0 -7 0 *
Fa
0  1e-07 10 0

0101000
+6 0 *
Wi

0101100
+7 0 *
Fa
0  1e-07 11 0

0101000
+4 0 *
Sh

0101100
-50 0 +45 0 +40 0 +35 0 +30 0 +25 0 +20 0 +15 0 +10 0 +5 0 
+3 0 *
So

1100000
+2 0 *

+1 1  