
CASCADE Topology V1, (c) Matra-Datavision
Locations 3
1
              1               0               0               0 
              0               1               0               0 
              0               0               1               0 
1
              1               0               0               0 
              0               1               0               0 
              0               0               1               0 
2  2 -1 0
Curve2ds 80
1 0 -2.1213203435596428 1 0 
1 0 -3 1 0 
1 0 -2.1213203435596428 1 0 
1 3 0 0 -1 
1 0 -2.1213203435596428 1 0 
1 7 0 0 -1 
1 0 -2.1213203435596428 1 0 
1 0 -7 1 0 
1 2.9999999999999973 0 0 1 
1 0 3.6742346141747646 1 0 
1 7 0 0 1 
1 0 3.6742346141747664 1 0 
1 0 2.1213203435596428 1 0 
1 0 3 1 0 
1 2.9999999999999991 1.0606601717798214 0 -1 
1 0 2.1213203435596428 1 0 
1 3 0 0 1 
1 6.9999999999999982 1.0606601717798214 0 -1 
1 2.9999999999999991 1.0606601717798214 9.6148134319178178e-017 -1 
1 0 2.1213203435596419 1 0 
1 3 0 0 1 
1 6.9999999999999964 1.5700924586837752e-016 0 1 
1 4.4408920985006262e-016 3.6742346141747704 1 0 
1 3.0000000000000004 0 -9.6148134319178178e-017 1 
1 -5.5511151231257827e-016 3.6742346141747682 1 3.2517679528326896e-017 
1 6.9999999999999964 1.0606601717798214 0 -1 
1 0 2.1213203435596419 1 0 
1 0 3 1 0 
1 2.9999999999999991 1.0606601717798214 0 -1 
1 2.9999999999999991 1.0606601717798214 9.6148134319178178e-017 -1 
1 0 -2.1213203435596428 1 0 
1 3 0 0 1 
1 0 -2.1213203435596428 1 0 
1 7 0 0 1 
1 0 2.1213203435596428 1 0 
1 0 7 1 0 
1 0 2.1213203435596428 1 0 
1 0 3 1 0 
1 0 2.1213203435596428 1 0 
1 0 7 1 0 
1 0 2.1213203435596428 1 0 
1 7 0 0 1 
1 3.0000000000000009 1.0606601717798216 -9.6148134319178178e-017 -1 
1 0 2.1213203435596419 1 0 
1 0 3 1 0 
1 0 2.1213203435596428 1 0 
1 0 7 1 0 
1 0 2.1213203435596428 1 0 
1 7 0 0 1 
1 3.0000000000000009 -1.0606601717798214 0 1 
1 0 -2.1213203435596419 1 0 
1 3 0 0 1 
1 0 -2.1213203435596428 1 0 
1 7 0 0 1 
1 0 2.1213203435596428 1 0 
1 0 7 1 0 
1 6.9999999999999982 1.0606601717798214 0 -1 
1 6.9999999999999964 1.0606601717798214 -0 -1 
1 0 -2.1213203435596419 1 0 
1 0 -3 1 0 
1 3.0000000000000004 0 9.6148134319178178e-017 1 
1 5.5511151231257827e-016 3.6742346141747682 1 -3.2517679528326896e-017 
1 6.9999999999999964 -1.5700924586837752e-016 0 1 
1 -4.4408920985006262e-016 3.6742346141747699 1 0 
1 6.9999999999999956 1.0606601717798219 0 -1 
1 3.0000000000000009 1.0606601717798216 -9.6148134319178178e-017 -1 
1 0 -2.1213203435596419 1 0 
1 3 0 0 -1 
1 6.9999999999999956 1.0606601717798219 0 -1 
1 6.9999999999999956 -1.0606601717798214 0 1 
1 3.0000000000000009 1.0606601717798214 0 -1 
1 0 -2.1213203435596428 1 0 
1 7 0 0 -1 
1 6.9999999999999964 0 0 1 
1 0 3.6742346141747708 1 0 
1 0 -2.1213203435596428 1 0 
1 0 -7 1 0 
1 2.9999999999999996 0 -0 1 
1 0 3.6742346141747668 1 0 
1 6.9999999999999956 1.0606601717798214 0 -1 
Curves 48
1 0 3 0 0 0 1 
1 0 0 3 0 1 0 
1 0 0 7 0 1 0 
1 0 7 0 0 0 1 
8 -2.1213203435596428 2.1213203435596428
1 1.5000000000000007 1.5000000000000007 2.9999999999999973 0.70710678118654746 -0.70710678118654746 -0 
8 -2.1213203435596428 2.1213203435596428
1 1.5000000000000004 1.5000000000000004 7 0.70710678118654746 -0.70710678118654746 -0 
1 3 0 0 0 0 1 
8 -1.0606601717798214 3.1819805153394634
1 2.25 2.9999999999999991 0.74999999999999989 -0.70710678118654746 0 0.70710678118654746 
1 3 0 0 0 1 0 
8 -1.0606601717798214 3.1819805153394638
1 2.25 6.9999999999999982 0.74999999999999989 -0.70710678118654746 0 0.70710678118654746 
8 -1.060660171779821 3.1819805153394647
1 2.25 2.9999999999999991 9.25 -0.70710678118654757 9.6148134319178203e-017 -0.70710678118654757 
1 3 0 10 0 1 0 
8 -2.1213203435596428 2.1213203435596415
1 1.5000000000000002 6.9999999999999964 8.5 0.70710678118654746 -0 0.70710678118654746 
8 -2.1213203435596428 2.1213203435596428
1 1.5 8.5 3.0000000000000004 0.70710678118654757 0.70710678118654757 -9.6148134319178203e-017 
8 -1.060660171779821 3.1819805153394638
1 2.25 9.25 6.9999999999999964 -0.70710678118654746 -0.70710678118654746 0 
1 3 10 0 0 0 1 
8 -1.0606601717798214 3.1819805153394634
1 2.9999999999999991 2.25 0.74999999999999989 0 -0.70710678118654746 0.70710678118654746 
8 -1.060660171779821 3.1819805153394647
1 2.9999999999999991 2.25 9.25 9.6148134319178203e-017 -0.70710678118654757 -0.70710678118654757 
1 0 0 3 1 0 0 
1 0 0 7 1 0 0 
1 7 0 0 0 0 1 
1 0 3 0 1 0 0 
1 0 7 0 1 0 0 
1 7 0 0 0 1 0 
8 -1.0606601717798214 3.1819805153394647
1 3.0000000000000009 7.75 0.74999999999999967 -9.6148134319178203e-017 0.70710678118654757 0.70710678118654757 
1 0 3 10 1 0 0 
1 0 7 10 1 0 0 
1 7 0 10 0 1 0 
8 -1.0606601717798212 3.1819805153394638
1 3.0000000000000009 9.25 7.75 0 -0.70710678118654746 0.70710678118654746 
1 0 10 3 1 0 0 
1 0 10 7 1 0 0 
1 7 10 0 0 0 1 
8 -1.0606601717798214 3.1819805153394638
1 6.9999999999999982 2.25 0.74999999999999989 0 -0.70710678118654746 0.70710678118654746 
8 -1.060660171779821 3.1819805153394638
1 6.9999999999999964 2.25 9.25 -0 -0.70710678118654746 -0.70710678118654746 
1 10 3 0 0 0 1 
8 -2.1213203435596428 2.1213203435596428
1 8.5 1.5 3.0000000000000004 -0.70710678118654757 -0.70710678118654757 9.6148134319178203e-017 
8 -2.1213203435596415 2.1213203435596428
1 8.5 1.5000000000000002 6.9999999999999964 -0.70710678118654746 -0.70710678118654746 0 
8 -1.060660171779821 3.1819805153394634
1 6.9999999999999956 7.75 0.74999999999999956 -0 0.70710678118654746 0.70710678118654746 
8 -1.0606601717798214 3.1819805153394647
1 7.75 3.0000000000000009 0.74999999999999967 0.70710678118654757 -9.6148134319178203e-017 0.70710678118654757 
1 10 0 3 0 1 0 
8 -1.060660171779821 3.1819805153394634
1 7.75 6.9999999999999956 0.74999999999999956 0.70710678118654746 -0 0.70710678118654746 
8 -1.0606601717798212 3.1819805153394638
1 6.9999999999999956 9.25 7.75 0 -0.70710678118654746 0.70710678118654746 
8 -1.0606601717798212 3.1819805153394638
1 7.75 3.0000000000000009 9.25 0.70710678118654746 0 -0.70710678118654746 
1 10 0 7 0 1 0 
8 -2.1213203435596424 2.1213203435596424
1 8.5 6.9999999999999964 8.5 -0.70710678118654746 0 0.70710678118654746 
1 10 7 0 0 0 1 
8 -2.1213203435596424 2.1213203435596424
1 8.5 8.5 2.9999999999999996 -0.70710678118654746 0.70710678118654746 -0 
8 -1.0606601717798212 3.1819805153394638
1 7.75 9.25 6.9999999999999956 0.70710678118654746 -0.70710678118654746 -0 
Polygon3D 0
PolygonOnTriangulations 0
Surfaces 26
1 0 0 0 1 0 -0 0 0 1 0 -1 0 
1 1.5 1.5 0 -0.70710678118654746 -0.70710678118654746 0 0 0 1 0.70710678118654757 -0.70710678118654757 -0 
1 1.5 0 1.5 -0.70710678118654746 0 -0.70710678118654746 0 1 0 0.70710678118654757 0 -0.70710678118654757 
1 1.5 0 8.5 0.70710678118654746 0 -0.70710678118654746 0 1 0 0.70710678118654757 -0 0.70710678118654757 
1 1.5 8.5 0 0.70710678118654746 -0.70710678118654746 0 0 0 1 0.70710678118654757 0.70710678118654757 -0 
1 3 3 -2.2204460492503131e-016 -0.57735026918962573 -0.57735026918962573 -0.57735026918962573 0.70710678118654757 -0.70710678118654757 0 -0.40824829046386302 -0.40824829046386302 0.81649658092772603 
1 2.9999999999999996 2.9999999999999996 10 0.57735026918962584 0.57735026918962584 -0.57735026918962573 0.70710678118654757 -0.70710678118654757 0 -0.40824829046386302 -0.40824829046386302 -0.81649658092772615 
1 0 0 0 -0 1 0 0 0 1 1 0 -0 
1 0 0 0 0 0 1 1 0 -0 -0 1 0 
1 0 0 10 0 0 1 1 0 -0 -0 1 0 
1 2.9999999999999996 10 7 0.57735026918962573 -0.57735026918962573 -0.57735026918962573 0.70710678118654757 0 0.70710678118654757 -0.40824829046386307 -0.81649658092772615 0.40824829046386307 
1 3 7 -2.2204460492503131e-016 0.57735026918962584 -0.57735026918962573 0.57735026918962584 0.70710678118654757 0.70710678118654746 -1.1102230246251563e-016 -0.40824829046386296 0.40824829046386313 0.81649658092772603 
1 0 10 0 -0 1 0 0 0 1 1 0 -0 
1 0 1.5 1.5 0 -0.70710678118654746 -0.70710678118654746 1 0 0 -0 0.70710678118654757 -0.70710678118654757 
1 0 1.5 8.5 0 0.70710678118654746 -0.70710678118654746 1 0 0 -0 0.70710678118654757 0.70710678118654757 
1 8.5 1.5 0 -0.70710678118654746 0.70710678118654746 0 0 0 1 -0.70710678118654757 -0.70710678118654757 0 
1 0 8.5 1.5 0 -0.70710678118654746 0.70710678118654746 1 0 0 0 -0.70710678118654757 -0.70710678118654757 
1 8.5 0 1.5 -0.70710678118654746 0 0.70710678118654746 0 1 0 -0.70710678118654757 0 -0.70710678118654757 
1 0 8.5 8.5 0 0.70710678118654746 0.70710678118654746 1 0 -0 0 -0.70710678118654757 0.70710678118654757 
1 8.5 0 8.5 0.70710678118654746 0 0.70710678118654746 -0 1 0 -0.70710678118654757 -0 0.70710678118654757 
1 8.5 8.5 0 0.70710678118654746 0.70710678118654746 0 0 -0 1 -0.70710678118654757 0.70710678118654757 0 
1 10 0 0 1 0 -0 0 0 1 0 -1 0 
1 7 3 -2.2204460492503131e-016 -0.57735026918962573 0.57735026918962584 0.57735026918962584 -0.70710678118654746 -0.70710678118654757 1.1102230246251563e-016 0.40824829046386313 -0.40824829046386296 0.81649658092772603 
1 7 2.9999999999999996 10 0.57735026918962573 -0.57735026918962573 0.57735026918962573 -0.70710678118654757 -0.70710678118654757 0 0.40824829046386302 -0.40824829046386302 -0.81649658092772603 
1 7 10 7 0.57735026918962573 0.57735026918962573 0.57735026918962573 -0.70710678118654757 0 0.70710678118654757 0.40824829046386307 -0.81649658092772615 0.40824829046386307 
1 7 7 -2.2204460492503131e-016 0.57735026918962573 0.57735026918962573 -0.57735026918962573 -0.70710678118654757 0.70710678118654757 0 0.40824829046386302 0.40824829046386302 0.81649658092772603 
Triangulations 0

TShapes 127
Ve
0.0001
-2.22044604925031e-016 3 3
0 0

0101101
*
Ve
0.0001
-2.22044604925031e-016 3 7
0 0

0101101
*
Ed
 1.00005e-007 1 1 0
1  1 0 3 7
2  1 2 0 3 7
2  2 1 2 3 7
0

0101000
+127 0 -126 0 *
Ve
0.0001
-2.22044604925031e-016 7 3
0 0

0101101
*
Ed
 1.00005e-007 1 1 0
1  2 0 3 7
2  3 3 0 3 7
2  4 1 2 3 7
0

0101000
+127 0 -124 0 *
Ve
0.0001
-2.22044604925031e-016 7 7
0 0

0101101
*
Ed
 1.00005e-007 1 1 0
1  3 0 3 7
2  5 4 0 3 7
2  6 1 2 3 7
0

0101000
+126 0 -122 0 *
Ed
 1.00005e-007 1 1 0
1  4 0 3 7
2  7 5 0 3 7
2  8 1 2 3 7
0

0101000
+124 0 -122 0 *
Wi

0101100
-125 0 +123 0 -121 0 +120 0 *
Fa
0  1e-007 1 0

0101000
+119 3 *
Ve
0.0001
3 -2.22044604925031e-016 3
0 0

0101101
*
Ed
 1.00005e-007 1 1 0
1  5 0 -2.12132034355964 2.12132034355964
2  9 2 0 -2.12132034355964 2.12132034355964
2  10 6 0 -2.12132034355964 2.12132034355964
0

0101000
+127 0 -117 0 *
Ve
0.0001
3 -2.22044604925031e-016 7
0 0

0101101
*
Ed
 1.00005e-007 1 1 0
1  6 0 -2.12132034355964 2.12132034355964
2  11 2 0 -2.12132034355964 2.12132034355964
2  12 7 0 -2.12132034355964 2.12132034355964
0

0101000
+126 0 -115 0 *
Ed
 1.00005e-007 1 1 0
1  7 0 3 7
2  13 2 0 3 7
2  14 8 2 3 7
0

0101000
+117 0 -115 0 *
Wi

0101100
+125 0 -116 0 +114 0 -113 0 *
Fa
0  0 2 0

0101000
+112 0 *
Ve
0.0001
3 3 -2.22044604925031e-016
0 0

0101101
*
Ed
 1.00005e-007 1 1 0
1  8 0 -1.06066017177982 3.18198051533946
2  15 3 0 -1.06066017177982 3.18198051533946
0

0101000
+110 0 -127 0 *
Ve
0.0001
3 7 -2.22044604925031e-016
0 0

0101101
*
Ed
 1.00005e-007 1 1 0
1  9 0 3 7
2  16 3 0 3 7
2  17 9 2 3 7
0

0101000
+110 0 -108 0 *
Ed
 1.00005e-007 1 1 0
1  10 0 -1.06066017177982 3.18198051533946
2  18 3 0 -1.06066017177982 3.18198051533946
0

0101000
+108 0 -124 0 *
Wi

0101100
+109 0 -107 0 +123 0 -106 0 *
Fa
0  0 3 0

0101000
+105 0 *
Ve
0.0001
3 3 10
0 0

0101101
*
Ed
 1.00005e-007 1 1 0
1  11 0 -1.06066017177982 3.18198051533946
2  19 4 0 -1.06066017177982 3.18198051533946
0

0101000
+103 0 -126 0 *
Ve
0.0001
3 7 10
0 0

0101101
*
Ed
 1.00005e-007 1 1 0
1  12 0 3 7
2  20 4 0 3 7
2  21 10 2 3 7
0

0101000
+103 0 -101 0 *
Ed
 1.00005e-007 1 1 0
1  13 0 -2.12132034355964 2.12132034355964
2  22 4 0 -2.12132034355964 2.12132034355964
2  23 11 0 -2.12132034355964 2.12132034355964
0

0101000
+122 0 -101 0 *
Wi

0101100
+102 0 -100 0 +121 0 +99 0 *
Fa
0  0 4 0

0101000
+98 0 *
Ve
0.0001
3 10 3
0 0

0101101
*
Ed
 1.00005e-007 1 1 0
1  14 0 -2.12132034355964 2.12132034355964
2  24 5 0 -2.12132034355964 2.12132034355964
2  25 12 0 -2.12132034355964 2.12132034355964
0

0101000
+124 0 -96 0 *
Ve
0.0001
3 10 7
0 0

0101101
*
Ed
 1.00005e-007 1 1 0
1  15 0 -1.06066017177982 3.18198051533946
2  26 5 0 -1.06066017177982 3.18198051533946
0

0101000
+94 0 -122 0 *
Ed
 1.00005e-007 1 1 0
1  16 0 3 7
2  27 5 0 3 7
2  28 13 2 3 7
0

0101000
+96 0 -94 0 *
Wi

0101100
+120 0 -95 0 -93 0 -92 0 *
Fa
0  0 5 0

0101000
+91 0 *
Ed
 1.00005e-007 1 1 0
1  17 0 -1.06066017177982 3.18198051533946
2  29 14 0 -1.06066017177982 3.18198051533946
0

0101000
+110 0 -117 0 *
Wi

0101100
-109 0 +89 0 -116 0 *
Fa
0  0 6 0

0101000
+88 0 *
Ed
 1.00005e-007 1 1 0
1  18 0 -1.06066017177982 3.18198051533946
2  30 15 0 -1.06066017177982 3.18198051533946
0

0101000
+103 0 -115 0 *
Wi

0101100
-102 0 +86 0 -114 0 *
Fa
0  0 7 0

0101000
+85 0 *
Ve
0.0001
7 -2.22044604925031e-016 3
0 0

0101101
*
Ed
 1.00005e-007 1 1 0
1  19 0 3 7
2  31 14 0 3 7
2  32 8 2 3 7
0

0101000
+117 0 -83 0 *
Ve
0.0001
7 -2.22044604925031e-016 7
0 0

0101101
*
Ed
 1.00005e-007 1 1 0
1  20 0 3 7
2  33 15 0 3 7
2  34 8 2 3 7
0

0101000
+115 0 -81 0 *
Ed
 1.00005e-007 1 1 0
1  21 0 3 7
2  35 16 0 3 7
2  36 8 2 3 7
0

0101000
+83 0 -81 0 *
Wi

0101100
+113 0 -82 0 +80 0 -79 0 *
Fa
0  1e-007 8 0

0101000
+78 3 *
Ve
0.0001
7 3 -2.22044604925031e-016
0 0

0101101
*
Ed
 1.00005e-007 1 1 0
1  22 0 3 7
2  37 14 0 3 7
2  38 9 2 3 7
0

0101000
+110 0 -76 0 *
Ve
0.0001
7 7 -2.22044604925031e-016
0 0

0101101
*
Ed
 1.00005e-007 1 1 0
1  23 0 3 7
2  39 17 0 3 7
2  40 9 2 3 7
0

0101000
+108 0 -74 0 *
Ed
 1.00005e-007 1 1 0
1  24 0 3 7
2  41 18 0 3 7
2  42 9 2 3 7
0

0101000
+76 0 -74 0 *
Wi

0101100
-107 0 +75 0 -73 0 +72 0 *
Fa
0  1e-007 9 0

0101000
+71 3 *
Ed
 1.00005e-007 1 1 0
1  25 0 -1.06066017177982 3.18198051533946
2  43 17 0 -1.06066017177982 3.18198051533946
0

0101000
+108 0 -96 0 *
Wi

0101100
-106 0 +69 0 -95 0 *
Fa
0  0 12 0

0101000
+68 0 *
Ve
0.0001
7 3 10
0 0

0101101
*
Ed
 1.00005e-007 1 1 0
1  26 0 3 7
2  44 15 0 3 7
2  45 10 2 3 7
0

0101000
+103 0 -66 0 *
Ve
0.0001
7 7 10
0 0

0101101
*
Ed
 1.00005e-007 1 1 0
1  27 0 3 7
2  46 19 0 3 7
2  47 10 2 3 7
0

0101000
+101 0 -64 0 *
Ed
 1.00005e-007 1 1 0
1  28 0 3 7
2  48 20 0 3 7
2  49 10 2 3 7
0

0101000
+66 0 -64 0 *
Wi

0101100
-100 0 +65 0 -63 0 +62 0 *
Fa
0  1e-007 10 0

0101000
+61 3 *
Ed
 1.00005e-007 1 1 0
1  29 0 -1.06066017177982 3.18198051533946
2  50 19 0 -1.06066017177982 3.18198051533946
0

0101000
+94 0 -101 0 *
Wi

0101100
-93 0 +59 0 -99 0 *
Fa
0  0 11 0

0101000
+58 0 *
Ve
0.0001
7 10 3
0 0

0101101
*
Ed
 1.00005e-007 1 1 0
1  30 0 3 7
2  51 17 0 3 7
2  52 13 2 3 7
0

0101000
+96 0 -56 0 *
Ve
0.0001
7 10 7
0 0

0101101
*
Ed
 1.00005e-007 1 1 0
1  31 0 3 7
2  53 19 0 3 7
2  54 13 2 3 7
0

0101000
+94 0 -54 0 *
Ed
 1.00005e-007 1 1 0
1  32 0 3 7
2  55 21 0 3 7
2  56 13 2 3 7
0

0101000
+56 0 -54 0 *
Wi

0101100
+92 0 -55 0 +53 0 -52 0 *
Fa
0  1e-007 13 0

0101000
+51 3 *
Ed
 1.00005e-007 1 1 0
1  33 0 -1.06066017177982 3.18198051533946
2  57 14 0 -1.06066017177982 3.18198051533946
0

0101000
+76 0 -83 0 *
Wi

0101100
+89 0 -75 0 +82 0 -49 0 *
Fa
0  0 14 0

0101000
+48 0 *
Ed
 1.00005e-007 1 1 0
1  34 0 -1.06066017177982 3.18198051533946
2  58 15 0 -1.06066017177982 3.18198051533946
0

0101000
+66 0 -81 0 *
Wi

0101100
+86 0 -65 0 +80 0 -46 0 *
Fa
0  0 15 0

0101000
+45 0 *
Ve
0.0001
10 3 3
0 0

0101101
*
Ve
0.0001
10 3 7
0 0

0101101
*
Ed
 1.00005e-007 1 1 0
1  35 0 3 7
2  59 16 0 3 7
2  60 22 2 3 7
0

0101000
+43 0 -42 0 *
Ed
 1.00005e-007 1 1 0
1  36 0 -2.12132034355964 2.12132034355964
2  61 16 0 -2.12132034355964 2.12132034355964
2  62 23 0 -2.12132034355964 2.12132034355964
0

0101000
+43 0 -83 0 *
Ed
 1.00005e-007 1 1 0
1  37 0 -2.12132034355964 2.12132034355964
2  63 16 0 -2.12132034355964 2.12132034355964
2  64 24 0 -2.12132034355964 2.12132034355964
0

0101000
+42 0 -81 0 *
Wi

0101100
+41 0 -40 0 +39 0 -79 0 *
Fa
0  0 16 0

0101000
+38 0 *
Ed
 1.00005e-007 1 1 0
1  38 0 -1.06066017177982 3.18198051533946
2  65 17 0 -1.06066017177982 3.18198051533946
0

0101000
+74 0 -56 0 *
Wi

0101100
+69 0 -73 0 +55 0 -36 0 *
Fa
0  0 17 0

0101000
+35 0 *
Ed
 1.00005e-007 1 1 0
1  39 0 -1.06066017177982 3.18198051533946
2  66 18 0 -1.06066017177982 3.18198051533946
0

0101000
+76 0 -43 0 *
Ve
0.0001
10 7 3
0 0

0101101
*
Ed
 1.00005e-007 1 1 0
1  40 0 3 7
2  67 18 0 3 7
2  68 22 2 3 7
0

0101000
+43 0 -32 0 *
Ed
 1.00005e-007 1 1 0
1  41 0 -1.06066017177982 3.18198051533946
2  69 18 0 -1.06066017177982 3.18198051533946
0

0101000
+74 0 -32 0 *
Wi

0101100
+33 0 -72 0 +31 0 -30 0 *
Fa
0  0 18 0

0101000
+29 0 *
Ed
 1.00005e-007 1 1 0
1  42 0 -1.06066017177982 3.18198051533946
2  70 19 0 -1.06066017177982 3.18198051533946
0

0101000
+54 0 -64 0 *
Wi

0101100
-59 0 +53 0 -63 0 +27 0 *
Fa
0  0 19 0

0101000
+26 0 *
Ed
 1.00005e-007 1 1 0
1  43 0 -1.06066017177982 3.18198051533946
2  71 20 0 -1.06066017177982 3.18198051533946
0

0101000
+66 0 -42 0 *
Ve
0.0001
10 7 7
0 0

0101101
*
Ed
 1.00005e-007 1 1 0
1  44 0 3 7
2  72 20 0 3 7
2  73 22 2 3 7
0

0101000
+42 0 -23 0 *
Ed
 1.00005e-007 1 1 0
1  45 0 -2.12132034355964 2.12132034355964
2  74 20 0 -2.12132034355964 2.12132034355964
2  75 25 0 -2.12132034355964 2.12132034355964
0

0101000
+23 0 -64 0 *
Wi

0101100
+24 0 -62 0 +22 0 +21 0 *
Fa
0  0 20 0

0101000
+20 0 *
Ed
 1.00005e-007 1 1 0
1  46 0 3 7
2  76 21 0 3 7
2  77 22 2 3 7
0

0101000
+32 0 -23 0 *
Ed
 1.00005e-007 1 1 0
1  47 0 -2.12132034355964 2.12132034355964
2  78 21 0 -2.12132034355964 2.12132034355964
2  79 26 0 -2.12132034355964 2.12132034355964
0

0101000
+32 0 -56 0 *
Ed
 1.00005e-007 1 1 0
1  48 0 -1.06066017177982 3.18198051533946
2  80 21 0 -1.06066017177982 3.18198051533946
0

0101000
+54 0 -23 0 *
Wi

0101100
+18 0 -17 0 -16 0 -52 0 *
Fa
0  0 21 0

0101000
+15 0 *
Wi

0101100
-33 0 +49 0 -40 0 *
Fa
0  0 23 0

0101000
+13 0 *
Wi

0101100
-24 0 +46 0 -39 0 *
Fa
0  0 24 0

0101000
+11 0 *
Wi

0101100
-41 0 +31 0 -22 0 +18 0 *
Fa
0  1e-007 22 0

0101000
+9 3 *
Wi

0101100
-30 0 +36 0 -17 0 *
Fa
0  0 26 0

0101000
+7 0 *
Wi

0101100
-16 0 +27 0 -21 0 *
Fa
0  0 25 0

0101000
+5 0 *
Sh

0101100
-118 2 -111 0 +104 0 -97 0 +90 0 +87 0 -84 0 -77 2 -70 2 -67 0 
+60 2 -57 0 +50 2 -47 0 +44 0 +37 0 +34 0 -28 0 -25 0 +19 0 
-14 0 -12 0 +10 0 +8 2 +6 0 +4 0 *
So

0100000
+3 0 *
Co

1100000
+2 0 *

+1 1  