
CASCADE Topology V1, (c) Matra-Datavision
Locations 1
1
              1               0               0               0 
              0               1               0               0 
              0               0               1               0 
Curve2ds 104
1 0 -1.5962666587138683 1 0 
1 0 -3 1 0 
1 0 -1.5962666587138683 1 0 
1 3 0 0 -1 
1 2.4651903288156619e-032 -1.5962666587138683 1 0 
1 8.9080892972013928 0 0 -1 
1 -2.4651903288156619e-032 -1.5962666587138683 1 0 
1 0 -8.9080892972013928 1 0 
8 0 1
6 0 1 3 -1.5962666587138683  3 1.5962666587138683  
1 0 1 1 0 
8 0 1
7 0 0  1 2 2  8.9080892972013928 1.5962666587138683  8.9080892972013928 -1.5962666587138683 
 0 2 1 2
8 0 1
1 1 0 0 1 
1 0 1.5962666587138683 1 0 
1 0 1.091910702798607 1 0 
8 0 1
7 0 0  1 2 2  3 1.5962666587138683  3 -1.5962666587138683 
 0 2 1 2
8 0 1
1 0 0 0 1 
1 0 1.5962666587138683 1 0 
1 1.091910702798607 0 0 1 
8 0 1
7 0 0  1 2 2  8.9080892972013928 1.5962666587138683  8.9080892972013928 -1.5962666587138683 
 0 2 1 2
8 0 1
1 0 0 0 1 
8 0 1
6 0 1 3 1.5962666587138683  3 -1.5962666587138683  
1 0 1 1 0 
1 6.9073096932373641 1.7513521114630344 -0.51302596901546937 0.85837308620187924 
1 2.0403157317203409 2.594995288173175 1 3.4694469519536148e-017 
1 2.4651903288156619e-032 1.5962666587138683 1 0 
1 3 0 0 1 
8 0 1
6 0 1 3 -1.5962666587138683  3 1.5962666587138683  
1 0 1 1 0 
1 8.9080892972013928 0.79813332935693404 1.4882423305717075e-017 -1 
1 -2.4651903288156619e-032 1.5962666587138683 1 0 
1 0 3 1 0 
1 0 0 1 0 
8 0 1
6 0 1 1.091910702798607 3  1.0919107027986072 1.091910702798607  
8 0 1
7 0 0  1 2 2  1.0919107027986072 1.5962666587138683  1.0919107027986072 -1.5962666587138683 
 0 2 1 2
8 0 1
1 1 0 0 1 
8 0 1
7 0 0  1 2 2  3 -1.5962666587138683  3 1.5962666587138683 
 0 2 1 2
8 0 1
1 0 0 0 1 
1 0 0 1 0 
8 0 1
6 0 1 8.9080892972013928 3  8.9080892972013928 1.091910702798607  
1 0 -1.5962666587138683 1 0 
1 3 0 0 1 
1 2.4651903288156619e-032 1.5962666587138683 1 0 
1 0 8.9080892972013928 1 0 
1 -2.4651903288156619e-032 -1.5962666587138683 1 0 
1 8.9080892972013928 0 0 1 
1 0 0 1 0 
8 0 1
6 0 1 8.9080892972013928 6.9999999999999982  8.9080892972013928 8.9080892972013928  
1 0 0 1 0 
8 0 1
6 0 1 1.091910702798607 8.9080892972013928  3 8.9080892972013928  
1 0 1.5962666587138683 1 0 
1 0 1.091910702798607 1 0 
1 2.4651903288156619e-032 1.5962666587138683 1 0 
1 0 8.9080892972013928 1 0 
1 0 0 1 0 
8 0 1
6 0 1 8.9080892972013928 3  8.9080892972013928 1.091910702798607  
1 0 0 1 0 
8 0 1
6 0 1 8.9080892972013928 8.9080892972013928  6.9999999999999982 8.9080892972013928  
1 -2.4651903288156619e-032 1.5962666587138683 1 0 
1 8.9080892972013928 0 0 1 
8 0 1
7 0 0  1 2 2  3 1.5962666587138683  3 -1.5962666587138683 
 0 2 1 2
8 0 1
1 1 0 0 1 
1 3.0000000000000204 -0.79813332935693582 1.3481032720708866e-015 1 
1 -2.4651903288156619e-032 1.5962666587138683 1 0 
1 0 3 1 0 
1 -2.4651903288156619e-032 1.5962666587138696 1 0 
1 0 7 1 0 
1 2.4651903288156619e-032 1.5962666587138696 1 0 
1 7 0 0 1 
1 2.4651903288156619e-032 -1.5962666587138683 1 0 
1 3 0 0 1 
1 -2.4651903288156619e-032 -1.5962666587138683 1 0 
1 8.9080892972013928 0 0 1 
1 -2.4651903288156619e-032 1.5962666587138696 1 0 
1 0 7 1 0 
8 0 1
7 0 0  1 2 2  8.9080892972013928 1.5962666587138683  8.9080892972013928 -1.5962666587138683 
 0 2 1 2
8 0 1
1 1 0 0 1 
8 0 1
7 0 0  1 2 2  6.9999999999999982 -1.5962666587138683  6.9999999999999982 1.5962666587138683 
 0 2 1 2
8 0 1
1 0 0 0 1 
1 2.4651903288156619e-032 -1.5962666587138683 1 0 
1 0 -3 1 0 
8 0 1
6 0 1 3 -1.5962666587138683  3 1.5962666587138683  
1 0 1 1 0 
8 0 1
7 0 0  1 2 2  8.9080892972013928 1.5962666587138683  8.9080892972013928 -1.5962666587138683 
 0 2 1 2
8 0 1
1 1 0 0 1 
8 0 1
6 0 1 3 1.5962666587138696  3 -1.5962666587138683  
1 0 1 1 0 
8 0 1
7 0 0  1 2 2  6.9999999999999982 1.5962666587138683  6.9999999999999982 -1.5962666587138683 
 0 2 1 2
8 0 1
1 1 0 0 1 
8 0 1
7 0 0  1 2 2  3 1.5962666587138683  3 -1.5962666587138683 
 0 2 1 2
8 0 1
1 0 0 0 1 
8 0 1
7 0 0  1 2 2  8.9080892972013928 1.5962666587138683  8.9080892972013928 -1.5962666587138683 
 0 2 1 2
8 0 1
1 0 0 0 1 
8 0 1
6 0 1 3 -1.5962666587138683  3 1.5962666587138696  
1 0 1 1 0 
1 -2.4651903288156619e-032 -1.5962666587138683 1 0 
1 3 0 0 -1 
1 7.0000000000000195 -0.79813332935693027 -1.3481032720708878e-015 1 
1 2.4651903288156619e-032 -1.5962666587138683 1 0 
1 8.9080892972013928 0 0 -1 
1 6.9073096932373605 1.7513521114630337 -0.5130259690154696 0.85837308620187913 
1 2.04031573172034 2.594995288173179 1 4.4408920985006262e-016 
1 -2.4651903288156619e-032 -1.5962666587138683 1 0 
1 0 -8.9080892972013928 1 0 
1 8.9080892972013928 0.79813332935693504 8.9294539834302443e-017 -1 
Curves 54
1 0 3 0 0 0 1 
1 0 0 3 -0 1 0 
1 0 0 8.9080892972013928 -0 1 0 
1 0 8.9080892972013928 0 0 0 1 
7 0 0  1 2 2  2.1094237467877974e-015 2.9999999999999964 2.9999999999999964  1.0919107027985948 3.4916514124461173e-014 2.9999999999999964 
 0 2 1 2
7 0 0  1 2 2  1.0919107027986206 3.3861802251067274e-014 8.9080892972013928  3.4916514124461173e-014 2.9999999999999964 8.908089297201407 
 0 2 1 2
1 1.091910702798607 0 0 0 0 1 
7 0 0  1 2 2  1.0919107027985948 2.9999999999999964 3.3861802251067274e-014  2.1094237467877974e-015 2.9999999999999964 2.9999999999999964 
 0 2 1 2
1 1.091910702798607 0 0 -0 1 0 
7 0 0  1 2 2  1.0919107027985917 8.9080892972013928 3.3861802251067274e-014  -1.7208456881689926e-015 8.9080892972013928 2.9999999999999964 
 0 2 1 2
7 0 0  1 2 2  2.9999999999999956 2.9999999999999956 9.9999999999999964  3.4916514124461173e-014 2.9999999999999964 8.908089297201407 
 0 2 1 2
8 -3.8999577502941194 -0.18067371314655889
1 3.145732655539633 6.9073096932373641 10.053042348776996 0.80660685498513218 -0.51302596901546926 0.29358088596966336 
1 3 0 10 -0 1 0 
7 0 0  1 2 2  -1.7208456881689926e-015 8.9080892972013928 2.9999999999999964  2.9999999999999662 9.9999999999999858 2.9999999999999956 
 0 2 1 2
8 -0.79813332935693437 2.3943999880708025
1 2.2500000000000004 9.7270223243003464 8.9080892972013928 -0.93969262078590843 -0.34202014332566882 1.4882423305717075e-017 
1 3 10 0 0 0 1 
7 0 0  1 2 2  1.0919107027985948 2.9999999999999964 3.3861802251067274e-014  1.0919107027986072 1.0919107027986206 3.3861802251067274e-014 
 0 2 1 2
7 0 0  1 2 2  1.0919107027986072 1.0919107027986206 3.3861802251067274e-014  1.0919107027985948 3.4916514124461173e-014 2.9999999999999964 
 0 2 1 2
7 0 0  1 2 2  2.9999999999999964 3.3861802251067274e-014 8.908089297201407  2.9999999999999956 2.9999999999999956 9.9999999999999964 
 0 2 1 2
7 0 0  1 2 2  2.9999999999999964 3.3861802251067274e-014 8.908089297201407  1.0919107027986206 3.3861802251067274e-014 8.9080892972013928 
 0 2 1 2
1 0 0 3 1 0 -0 
1 8.9080892972013928 0 0 0 0 1 
1 0 0 8.9080892972013928 1 0 -0 
7 0 0  1 2 2  6.9999999999999982 3.3861802251067274e-014 8.908089297201407  8.9080892972013785 3.3861802251067274e-014 8.9080892972013928 
 0 2 1 2
7 0 0  1 2 2  1.0919107027985917 8.9080892972013928 3.3861802251067274e-014  2.9999999999999645 8.908089297201407 3.3861802251067274e-014 
 0 2 1 2
1 0 1.091910702798607 0 1 0 -0 
1 0 8.9080892972013928 0 1 0 -0 
7 0 0  1 2 2  8.908089297201407 2.9999999999999964 3.3861802251067274e-014  8.9080892972013928 1.0919107027986206 3.3861802251067274e-014 
 0 2 1 2
7 0 0  1 2 2  8.9080892972014034 8.9080892972013928 3.3861802251067274e-014  7.0000000000000231 8.908089297201407 3.3861802251067274e-014 
 0 2 1 2
1 8.9080892972013928 0 0 -0 1 0 
7 0 0  1 2 2  2.9999999999999645 8.908089297201407 3.3861802251067274e-014  2.9999999999999662 9.9999999999999858 2.9999999999999956 
 0 2 1 2
8 -0.79813332935693238 2.3943999880708056
1 3.0000000000000204 9.2500000000000018 9.1810669729010446 1.3481032720708866e-015 -0.93969262078590832 0.34202014332566877 
1 0 3 10 1 0 -0 
1 0 7 10 1 0 -0 
1 7 0 10 0 1 0 
1 0 10 3 1 0 -0 
1 0 10 8.9080892972013928 1 0 -0 
1 7 10 0 0 0 1 
7 0 0  1 2 2  8.9080892972013928 1.0919107027986206 3.3861802251067274e-014  8.908089297201407 3.4916514124461173e-014 2.9999999999999964 
 0 2 1 2
7 0 0  1 2 2  6.9999999999999982 3.3861802251067274e-014 8.908089297201407  6.9999999999999876 2.9999999999999964 10.000000000000004 
 0 2 1 2
1 10 3 0 0 0 1 
7 0 0  1 2 2  9.9999999999999964 2.9999999999999956 2.9999999999999956  8.908089297201407 3.4916514124461173e-014 2.9999999999999964 
 0 2 1 2
7 0 0  1 2 2  8.9080892972013785 3.3861802251067274e-014 8.9080892972013928  9.9999999999999645 2.9999999999999956 8.908089297201407 
 0 2 1 2
7 0 0  1 2 2  6.9999999999999876 2.9999999999999964 10.000000000000004  9.9999999999999645 2.9999999999999956 8.908089297201407 
 0 2 1 2
7 0 0  1 2 2  7.0000000000000231 8.908089297201407 3.3861802251067274e-014  7.0000000000000391 9.9999999999999858 2.9999999999999956 
 0 2 1 2
7 0 0  1 2 2  8.908089297201407 2.9999999999999964 3.3861802251067274e-014  9.9999999999999964 2.9999999999999956 2.9999999999999956 
 0 2 1 2
7 0 0  1 2 2  8.9080892972014034 8.9080892972013928 3.3861802251067274e-014  10 8.9080892972013928 2.9999999999999964 
 0 2 1 2
7 0 0  1 2 2  10 8.9080892972013928 2.9999999999999964  7.0000000000000391 9.9999999999999858 2.9999999999999956 
 0 2 1 2
1 10 0 3 -0 1 0 
8 -0.79813332935693815 2.3943999880708002
1 7.0000000000000195 9.2499999999999964 9.1810669729010463 -1.3481032720708878e-015 -0.93969262078590843 0.34202014332566882 
1 10 0 8.9080892972013928 0 1 0 
8 -3.8999577502941207 -0.18067371314655783
1 6.8542673444603679 6.9073096932373605 10.053042348776996 -0.80660685498513207 -0.51302596901546949 0.29358088596966331 
1 10 8.9080892972013928 0 0 0 1 
8 -0.79813332935693504 2.3943999880708033
1 7.7499999999999991 9.7270223243003482 8.9080892972013928 0.93969262078590843 -0.34202014332566882 8.9294539834302443e-017 
Polygon3D 0
PolygonOnTriangulations 0
Surfaces 26
1 0 0 0 1 0 -0 0 0 1 0 -1 0 
1 0.54595535139930351 1.5 0 -0.93969262078590843 -0.34202014332566877 0 0 0 1 0.34202014332566877 -0.93969262078590843 -0 
1 0.54595535139930351 0 1.5 -0.93969262078590843 0 -0.34202014332566877 0 1 0 0.34202014332566877 0 -0.93969262078590843 
1 1.5 0 9.4540446486006964 0.34202014332566882 1.4567861561468563e-017 -0.93969262078590843 -4.9825020992019798e-018 1 1.3689312009942691e-017 0.93969262078590843 0 0.34202014332566882 
1 1.5 9.4540446486006964 0 0.34202014332566882 -0.93969262078590843 -1.4567861561468563e-017 4.9825020992019798e-018 -1.3689312009942691e-017 1 0.93969262078590843 0.34202014332566882 -0 
9 0 0 0 0 1 1 2 2 2 2 1.0919107027985948 2.9999999999999964 3.3861802251067274e-014  2.1094237467877974e-015 2.9999999999999964 2.9999999999999964  
1.0919107027986072 1.0919107027986206 3.3861802251067274e-014  1.0919107027985948 3.4916514124461173e-014 2.9999999999999964  

0 2
1 2

0 2
1 2

9 0 0 0 0 1 1 2 2 2 2 2.9999999999999964 3.3861802251067274e-014 8.908089297201407  2.9999999999999956 2.9999999999999956 9.9999999999999964  
1.0919107027986206 3.3861802251067274e-014 8.9080892972013928  3.4916514124461173e-014 2.9999999999999964 8.908089297201407  

0 2
1 2

0 2
1 2

1 0 0 0 -0 1 0 0 0 1 1 0 -0 
1 0 0 0 0 0 1 1 0 -0 -0 1 0 
9 0 0 0 0 1 1 2 2 2 2 1.0919107027985917 8.9080892972013928 3.3861802251067274e-014  -1.7208456881689926e-015 8.9080892972013928 2.9999999999999964  
2.9999999999999645 8.908089297201407 3.3861802251067274e-014  2.9999999999999662 9.9999999999999858 2.9999999999999956  

0 2
1 2

0 2
1 2

1 3 10 8.9080892972013928 0.12353167382937462 -0.33940048443364024 -0.93249516713338698 0.80660685498513229 -0.51302596901546937 0.29358088596966331 -0.57803573163940891 -0.78842353229843987 0.21038780065903107 
1 0 0 10 0 0 1 1 0 -0 -0 1 0 
1 0 10 0 -0 1 0 0 0 1 1 0 -0 
1 0 0.54595535139930351 1.5 0 -0.93969262078590843 -0.34202014332566877 1 0 0 -0 0.34202014332566877 -0.93969262078590843 
1 0 1.5 9.4540446486006964 -1.4567861561468563e-017 0.34202014332566882 -0.93969262078590843 1 4.9825020992019798e-018 -1.3689312009942691e-017 -0 0.93969262078590843 0.34202014332566882 
1 9.4540446486006964 1.5 0 -0.93969262078590843 0.34202014332566882 1.4567861561468563e-017 1.3689312009942691e-017 -4.9825020992019798e-018 1 -0.34202014332566882 -0.93969262078590843 -0 
9 0 0 0 0 1 1 2 2 2 2 6.9999999999999982 3.3861802251067274e-014 8.908089297201407  6.9999999999999876 2.9999999999999964 10.000000000000004  
8.9080892972013785 3.3861802251067274e-014 8.9080892972013928  9.9999999999999645 2.9999999999999956 8.908089297201407  

0 2
1 2

0 2
1 2

1 0 9.4540446486006964 1.5 1.4567861561468563e-017 -0.93969262078590843 0.34202014332566882 1 1.3689312009942691e-017 -4.9825020992019798e-018 -0 -0.34202014332566882 -0.93969262078590843 
9 0 0 0 0 1 1 2 2 2 2 8.908089297201407 2.9999999999999964 3.3861802251067274e-014  9.9999999999999964 2.9999999999999956 2.9999999999999956  
8.9080892972013928 1.0919107027986206 3.3861802251067274e-014  8.908089297201407 3.4916514124461173e-014 2.9999999999999964  

0 2
1 2

0 2
1 2

9 0 0 0 0 1 1 2 2 2 2 8.9080892972014034 8.9080892972013928 3.3861802251067274e-014  10 8.9080892972013928 2.9999999999999964  
7.0000000000000231 8.908089297201407 3.3861802251067274e-014  7.0000000000000391 9.9999999999999858 2.9999999999999956  

0 2
1 2

0 2
1 2

1 9.4540446486006964 0 1.5 -0.93969262078590843 -1.4567861561468563e-017 0.34202014332566882 -1.3689312009942691e-017 1 4.9825020992019798e-018 -0.34202014332566882 0 -0.93969262078590843 
1 0 8.5 9.4540446486006964 1.4567861561468563e-017 0.34202014332566882 0.93969262078590843 1 -4.9825020992019798e-018 -1.3689312009942691e-017 -0 -0.93969262078590843 0.34202014332566882 
1 8.5 0 9.4540446486006964 0.34202014332566882 -1.4567861561468563e-017 0.93969262078590843 4.9825020992019798e-018 1 1.3689312009942691e-017 -0.93969262078590843 0 0.34202014332566882 
1 8.5 9.4540446486006964 0 0.34202014332566882 0.93969262078590843 1.4567861561468563e-017 -4.9825020992019798e-018 -1.3689312009942691e-017 1 -0.93969262078590843 0.34202014332566882 -0 
1 10 0 0 1 0 -0 0 0 1 0 -1 0 
1 6.9999999999999982 10 8.9080892972013928 0.12353167382937455 0.33940048443364024 0.93249516713338698 -0.80660685498513252 -0.51302596901546926 0.29358088596966325 0.57803573163940869 -0.78842353229843987 0.21038780065903118 
Triangulations 0

TShapes 139
Ve
0.0001
2.1094237467878e-015 3 3
0 0

0101101
*
Ve
0.0001
3.49165141244612e-014 3 8.90808929720141
0 0

0101101
*
Ed
 1.00005e-007 1 1 0
1  1 0 3 8.90808929720139
2  1 2 0 3 8.90808929720139
2  2 1 0 3 8.90808929720139
0

0101000
+139 0 -138 0 *
Ve
0.0001
-1.72084568816899e-015 8.90808929720139 3
0 0

0101101
*
Ed
 1.00005e-007 1 1 0
1  2 0 3 8.90808929720139
2  3 3 0 3 8.90808929720139
2  4 1 0 3 8.90808929720139
0

0101000
+139 0 -136 0 *
Ve
0.0001
-2.22044604925031e-016 8.90808929720139 8.90808929720139
0 0

0101101
*
Ed
 1.00005e-007 1 1 0
1  3 0 3 8.90808929720139
2  5 4 0 3 8.90808929720139
2  6 1 0 3 8.90808929720139
0

0101000
+138 0 -134 0 *
Ed
 1.00005e-007 1 1 0
1  4 0 3 8.90808929720139
2  7 5 0 3 8.90808929720139
2  8 1 0 3 8.90808929720139
0

0101000
+136 0 -134 0 *
Wi

0101100
-137 0 +135 0 -133 0 +132 0 *
Fa
0  1e-007 1 0

0101000
+131 0 *
Ve
0.0001
1.09191070279859 3.49165141244612e-014 3
0 0

0101101
*
Ed
 0.0001 1 1 0
1  5 0 0 1
2  9 2 0 0 1
2  10 6 0 0 1
0

0101000
+139 0 -129 0 *
Ve
0.0001
1.09191070279862 3.38618022510673e-014 8.90808929720139
0 0

0101101
*
Ed
 0.0001 1 1 0
1  6 0 0 1
2  11 2 0 0 1
2  12 7 0 0 1
0

0101000
+127 0 -138 0 *
Ed
 1.00005e-007 1 1 0
1  7 0 3 8.90808929720139
2  13 2 0 3 8.90808929720139
2  14 8 0 3 8.90808929720139
0

0101000
+129 0 -127 0 *
Wi

0101100
+137 0 -128 0 -126 0 -125 0 *
Fa
0  0 2 0

0101000
+124 0 *
Ve
0.0001
1.09191070279859 3 3.38618022510673e-014
0 0

0101101
*
Ed
 0.0001 1 1 0
1  8 0 0 1
2  15 3 0 0 1
2  16 6 0 0 1
0

0101000
+122 0 -139 0 *
Ve
0.0001
1.09191070279859 8.90808929720139 3.38618022510673e-014
0 0

0101101
*
Ed
 1.00005e-007 1 1 0
1  9 0 3 8.90808929720139
2  17 3 0 3 8.90808929720139
2  18 9 0 3 8.90808929720139
0

0101000
+122 0 -120 0 *
Ed
 0.0001 1 1 0
1  10 0 0 1
2  19 3 0 0 1
2  20 10 0 0 1
0

0101000
+120 0 -136 0 *
Wi

0101100
+121 0 -119 0 +135 0 -118 0 *
Fa
0  0 3 0

0101000
+117 0 *
Ve
0.0001
3 3 10
0 0

0101101
*
Ed
 0.0001 1 1 0
1  11 0 0 1
2  21 4 0 0 1
2  22 7 0 0 1
0

0101000
+115 0 -138 0 *
Ve
0.0001
3 7 10
0 0

0101101
*
Ed
 1.00005e-007 1 1 0
1  12 0 -3.89995775029412 -0.180673713146559
2  23 4 0 -3.89995775029412 -0.180673713146559
2  24 11 0 -3.89995775029412 -0.180673713146559
0

0101000
+134 0 -113 0 *
Ed
 1.00005e-007 1 1 0
1  13 0 3 7
2  25 4 0 3 7
2  26 12 0 3 7
0

0101000
+115 0 -113 0 *
Wi

0101100
+133 0 +114 0 +112 0 -111 0 *
Fa
0  0 4 0

0101000
+110 0 *
Ve
0.0001
2.99999999999997 9.99999999999999 3
0 0

0101101
*
Ed
 0.0001 1 1 0
1  14 0 0 1
2  27 5 0 0 1
2  28 10 0 0 1
0

0101000
+136 0 -108 0 *
Ve
0.0001
3 10 8.90808929720139
0 0

0101101
*
Ed
 1.00005e-007 1 1 0
1  15 0 -0.798133329356934 2.3943999880708
2  29 5 0 -0.798133329356934 2.3943999880708
0

0101000
+106 0 -134 0 *
Ed
 1.00005e-007 1 1 0
1  16 0 3 8.90808929720139
2  30 5 0 3 8.90808929720139
2  31 13 0 3 8.90808929720139
0

0101000
+108 0 -106 0 *
Wi

0101100
+132 0 -107 0 -105 0 -104 0 *
Fa
0  0 5 0

0101000
+103 0 *
Ve
0.0001
1.09191070279861 1.09191070279862 3.38618022510673e-014
0 0

0101101
*
Ed
 0.0001 1 1 0
1  17 0 0 1
2  32 6 0 0 1
2  33 9 0 0 1
0

0101000
+122 0 -101 0 *
Ed
 0.0001 1 1 0
1  18 0 0 1
2  34 14 0 0 1
2  35 6 0 0 1
0

0101000
+101 0 -129 0 *
Wi

0101100
-121 0 +100 0 -128 0 +99 0 *
Fa
0  0.0001 6 0

0101000
+98 0 *
Ve
0.0001
3 3.38618022510673e-014 8.90808929720141
0 0

0101101
*
Ed
 0.0001 1 1 0
1  19 0 0 1
2  36 15 0 0 1
2  37 7 0 0 1
0

0101000
+96 0 -115 0 *
Ed
 0.0001 1 1 0
1  20 0 0 1
2  38 7 0 0 1
2  39 8 0 0 1
0

0101000
+96 0 -127 0 *
Wi

0101100
-95 0 +94 0 -114 0 +126 0 *
Fa
0  0.0001 7 0

0101000
+93 0 *
Ve
0.0001
8.90808929720141 3.49165141244612e-014 3
0 0

0101101
*
Ed
 1.00005e-007 1 1 0
1  21 0 1.09191070279861 8.90808929720139
2  40 14 0 1.09191070279861 8.90808929720139
2  41 8 0 1.09191070279861 8.90808929720139
0

0101000
+129 0 -91 0 *
Ve
0.0001
8.90808929720138 3.38618022510673e-014 8.90808929720139
0 0

0101101
*
Ed
 1.00005e-007 1 1 0
1  22 0 3 8.90808929720139
2  42 16 0 3 8.90808929720139
2  43 8 0 3 8.90808929720139
0

0101000
+91 0 -89 0 *
Ve
0.0001
7 3.38618022510673e-014 8.90808929720141
0 0

0101101
*
Ed
 1.00005e-007 1 1 0
1  23 0 3 7
2  44 15 0 3 7
2  45 8 0 3 7
0

0101000
+96 0 -87 0 *
Ed
 0.0001 1 1 0
1  24 0 0 1
2  46 17 0 0 1
2  47 8 0 0 1
0

0101000
+87 0 -89 0 *
Wi

0101100
+125 0 -90 0 -94 0 -88 0 +86 0 +85 0 *
Fa
0  1e-007 8 0

0101000
+84 0 *
Ve
0.0001
2.99999999999996 8.90808929720141 3.38618022510673e-014
0 0

0101101
*
Ed
 0.0001 1 1 0
1  25 0 0 1
2  48 10 0 0 1
2  49 9 0 0 1
0

0101000
+120 0 -82 0 *
Ve
0.0001
8.90808929720139 1.09191070279862 3.38618022510673e-014
0 0

0101101
*
Ed
 1.00005e-007 1 1 0
1  26 0 1.09191070279861 8.90808929720139
2  50 14 0 1.09191070279861 8.90808929720139
2  51 9 0 1.09191070279861 8.90808929720139
0

0101000
+101 0 -80 0 *
Ve
0.0001
7.00000000000002 8.90808929720141 3.38618022510673e-014
0 0

0101101
*
Ed
 1.00005e-007 1 1 0
1  27 0 3 7
2  52 18 0 3 7
2  53 9 0 3 7
0

0101000
+82 0 -78 0 *
Ve
0.0001
8.90808929720141 3 3.38618022510673e-014
0 0

0101101
*
Ed
 0.0001 1 1 0
1  28 0 0 1
2  54 19 0 0 1
2  55 9 0 0 1
0

0101000
+76 0 -80 0 *
Ve
0.0001
8.9080892972014 8.90808929720139 3.38618022510673e-014
0 0

0101101
*
Ed
 0.0001 1 1 0
1  29 0 0 1
2  56 20 0 0 1
2  57 9 0 0 1
0

0101000
+74 0 -78 0 *
Ed
 1.00005e-007 1 1 0
1  30 0 3 8.90808929720139
2  58 21 0 3 8.90808929720139
2  59 9 0 3 8.90808929720139
0

0101000
+76 0 -74 0 *
Wi

0101100
-119 0 +100 0 -81 0 +79 0 -77 0 -75 0 +73 0 +72 0 *
Fa
0  1e-007 9 0

0101000
+71 0 *
Ed
 0.0001 1 1 0
1  31 0 0 1
2  60 18 0 0 1
2  61 10 0 0 1
0

0101000
+82 0 -108 0 *
Wi

0101100
-118 0 +81 0 -107 0 +69 0 *
Fa
0  0.0001 10 0

0101000
+68 0 *
Ed
 1.00005e-007 1 1 0
1  32 0 -0.798133329356932 2.39439998807081
2  62 22 0 -0.798133329356932 2.39439998807081
0

0101000
+106 0 -113 0 *
Wi

0101100
-105 0 +66 0 -112 0 *
Fa
0  0 11 0

0101000
+65 0 *
Ve
0.0001
6.99999999999999 3 10
0 0

0101101
*
Ed
 1.00005e-007 1 1 0
1  33 0 3 7
2  63 15 0 3 7
2  64 12 0 3 7
0

0101000
+115 0 -63 0 *
Ve
0.0001
7 7 10
0 0

0101101
*
Ed
 1.00005e-007 1 1 0
1  34 0 3 7
2  65 22 0 3 7
2  66 12 0 3 7
0

0101000
+113 0 -61 0 *
Ed
 1.00005e-007 1 1 0
1  35 0 3 7
2  67 23 0 3 7
2  68 12 0 3 7
0

0101000
+63 0 -61 0 *
Wi

0101100
-111 0 +62 0 -60 0 +59 0 *
Fa
0  1e-007 12 0

0101000
+58 0 *
Ve
0.0001
7.00000000000004 9.99999999999999 3
0 0

0101101
*
Ed
 1.00005e-007 1 1 0
1  36 0 3 7
2  69 18 0 3 7
2  70 13 0 3 7
0

0101000
+108 0 -56 0 *
Ve
0.0001
7 10 8.90808929720139
0 0

0101101
*
Ed
 1.00005e-007 1 1 0
1  37 0 3 7
2  71 22 0 3 7
2  72 13 0 3 7
0

0101000
+106 0 -54 0 *
Ed
 1.00005e-007 1 1 0
1  38 0 3 8.90808929720139
2  73 24 0 3 8.90808929720139
2  74 13 0 3 8.90808929720139
0

0101000
+56 0 -54 0 *
Wi

0101100
+104 0 -55 0 +53 0 -52 0 *
Fa
0  1e-007 13 0

0101000
+51 0 *
Ed
 0.0001 1 1 0
1  39 0 0 1
2  75 14 0 0 1
2  76 19 0 0 1
0

0101000
+80 0 -91 0 *
Wi

0101100
+99 0 -79 0 +90 0 -49 0 *
Fa
0  0 14 0

0101000
+48 0 *
Ed
 0.0001 1 1 0
1  40 0 0 1
2  77 15 0 0 1
2  78 17 0 0 1
0

0101000
+87 0 -63 0 *
Wi

0101100
-95 0 +86 0 -62 0 +46 0 *
Fa
0  0 15 0

0101000
+45 0 *
Ve
0.0001
10 3 3
0 0

0101101
*
Ve
0.0001
9.99999999999996 3 8.90808929720141
0 0

0101101
*
Ed
 1.00005e-007 1 1 0
1  41 0 3 8.90808929720139
2  79 16 0 3 8.90808929720139
2  80 25 0 3 8.90808929720139
0

0101000
+43 0 -42 0 *
Ed
 0.0001 1 1 0
1  42 0 0 1
2  81 16 0 0 1
2  82 19 0 0 1
0

0101000
+43 0 -91 0 *
Ed
 0.0001 1 1 0
1  43 0 0 1
2  83 16 0 0 1
2  84 17 0 0 1
0

0101000
+89 0 -42 0 *
Wi

0101100
+41 0 -40 0 -39 0 -88 0 *
Fa
0  0 16 0

0101000
+38 0 *
Ed
 0.0001 1 1 0
1  44 0 0 1
2  85 23 0 0 1
2  86 17 0 0 1
0

0101000
+63 0 -42 0 *
Wi

0101100
-46 0 +85 0 -36 0 +39 0 *
Fa
0  0.0001 17 0

0101000
+35 0 *
Ed
 0.0001 1 1 0
1  45 0 0 1
2  87 18 0 0 1
2  88 20 0 0 1
0

0101000
+78 0 -56 0 *
Wi

0101100
+69 0 -77 0 +55 0 -33 0 *
Fa
0  0 18 0

0101000
+32 0 *
Ed
 0.0001 1 1 0
1  46 0 0 1
2  89 21 0 0 1
2  90 19 0 0 1
0

0101000
+76 0 -43 0 *
Wi

0101100
-30 0 +75 0 -40 0 +49 0 *
Fa
0  0.0001 19 0

0101000
+29 0 *
Ve
0.0001
10 8.90808929720139 3
0 0

0101101
*
Ed
 0.0001 1 1 0
1  47 0 0 1
2  91 21 0 0 1
2  92 20 0 0 1
0

0101000
+74 0 -27 0 *
Ed
 0.0001 1 1 0
1  48 0 0 1
2  93 24 0 0 1
2  94 20 0 0 1
0

0101000
+27 0 -56 0 *
Wi

0101100
-26 0 +73 0 -25 0 +33 0 *
Fa
0  0.0001 20 0

0101000
+24 0 *
Ed
 1.00005e-007 1 1 0
1  49 0 3 8.90808929720139
2  95 21 0 3 8.90808929720139
2  96 25 0 3 8.90808929720139
0

0101000
+43 0 -27 0 *
Wi

0101100
+30 0 -72 0 +22 0 -26 0 *
Fa
0  0 21 0

0101000
+21 0 *
Ed
 1.00005e-007 1 1 0
1  50 0 -0.798133329356938 2.3943999880708
2  97 22 0 -0.798133329356938 2.3943999880708
0

0101000
+54 0 -61 0 *
Wi

0101100
-66 0 +53 0 -60 0 +19 0 *
Fa
0  0 22 0

0101000
+18 0 *
Ve
0.0001
10 8.90808929720139 8.90808929720139
0 0

0101101
*
Ed
 1.00005e-007 1 1 0
1  51 0 3 8.90808929720139
2  98 23 0 3 8.90808929720139
2  99 25 0 3 8.90808929720139
0

0101000
+42 0 -16 0 *
Ed
 1.00005e-007 1 1 0
1  52 0 -3.89995775029412 -0.180673713146558
2  100 23 0 -3.89995775029412 -0.180673713146558
2  101 26 0 -3.89995775029412 -0.180673713146558
0

0101000
+16 0 -61 0 *
Wi

0101100
+15 0 +36 0 +14 0 -59 0 *
Fa
0  0 23 0

0101000
+13 0 *
Ed
 1.00005e-007 1 1 0
1  53 0 3 8.90808929720139
2  102 24 0 3 8.90808929720139
2  103 25 0 3 8.90808929720139
0

0101000
+27 0 -16 0 *
Ed
 1.00005e-007 1 1 0
1  54 0 -0.798133329356935 2.3943999880708
2  104 24 0 -0.798133329356935 2.3943999880708
0

0101000
+54 0 -16 0 *
Wi

0101100
+11 0 -25 0 -10 0 -52 0 *
Fa
0  0 24 0

0101000
+9 0 *
Wi

0101100
-41 0 +22 0 -15 0 +11 0 *
Fa
0  1e-007 25 0

0101000
+7 0 *
Wi

0101100
-10 0 +19 0 -14 0 *
Fa
0  0 26 0

0101000
+5 0 *
Sh

0101100
-130 0 -123 0 +116 0 -109 0 +102 0 +97 0 -92 0 -83 0 -70 0 -67 0 
-64 0 +57 0 +50 0 -47 0 +44 0 +37 0 +34 0 +31 0 -28 0 +23 0 
-20 0 -17 0 +12 0 -8 0 +6 0 +4 0 *
So

0100000
+3 0 *
Co

1100000
+2 0 *

+1 1  