
CASCADE Topology V1, (c) Matra-Datavision
Locations 1
1
              1               0               0               0 
              0               1               0               0 
              0               0               1               0 
Curve2ds 96
1 0 -1.5962666587138683 1 0 
1 0 -1.091910702798607 1 0 
1 0 -1.5962666587138683 1 0 
1 1.091910702798607 0 0 -1 
1 0 -1.5962666587138692 1 0 
1 7 0 0 -1 
1 0 -1.5962666587138692 1 0 
1 0 -7 1 0 
1 1.0919107027986077 0.79813332935693415 2.976484661143415e-017 -1 
1 0 1.5962666587138683 1 0 
1 0 3 1 0 
8 0 1
6 0 1 6.9999999999999991 -1.5962666587138683  6.9999999999999991 1.5962666587138683  
1 0 1 1 0 
1 1.7767120823413358 -0.45048631016455876 -0.51302596901546904 -0.85837308620187935 
1 0.5248141133570059 2.5949952881731817 1 1.387778780781446e-017 
8 0 1
6 0 1 6.9999999999999991 1.5962666587138683  6.9999999999999991 -1.5962666587138683  
1 0 1 1 0 
1 0 1.5962666587138683 1 0 
1 3 0 0 1 
8 0 1
7 0 0  1 2 2  1.0919107027986072 1.5962666587138692  1.0919107027986072 -1.5962666587138692 
 0 2 1 2
8 0 1
1 0 0 0 1 
1 0 1.5962666587138692 1 0 
1 1.091910702798607 0 0 1 
1 6.9073096932373703 -1.7513521114630368 0.51302596901546882 0.85837308620187946 
1 -2.0403157317203373 2.594995288173171 1 2.7755575615628918e-016 
8 0 1
7 0 0  1 2 2  1.0919107027986072 1.5962666587138692  1.0919107027986072 -1.5962666587138692 
 0 2 1 2
8 0 1
1 1 0 0 1 
1 0 1.5962666587138692 1 0 
1 0 1.091910702798607 1 0 
1 7.0000000000000888 0.79813332935693815 1.3481032720708864e-015 -1 
1 3.0000000000000417 -0.79813332935693426 0 1 
1 0 -1.5962666587138683 1 0 
1 1.091910702798607 0 0 1 
1 0 -1.5962666587138692 1 0 
1 7 0 0 1 
1 0 1.5962666587138692 1 0 
1 0 7 1 0 
1 0 0 1 0 
8 0 1
6 0 1 1.091910702798607 1.0919107027986072  3 1.091910702798607  
8 0 1
7 0 0  1 2 2  3 1.5962666587138692  3 -1.5962666587138692 
 0 2 1 2
8 0 1
1 1 0 0 1 
8 0 1
7 0 0  1 2 2  3 -1.5962666587138692  3 1.5962666587138692 
 0 2 1 2
8 0 1
1 0 0 0 1 
1 0 0 1 0 
8 0 1
6 0 1 1.091910702798607 3  1.0919107027986072 1.091910702798607  
1 0 1.5962666587138683 1 0 
1 0 3 1 0 
1 0 1.5962666587138692 1 0 
1 0 7 1 0 
1 0 1.5962666587138692 1 0 
1 7 0 0 1 
1 2.4651903288156619e-032 1.5962666587138683 1 0 
1 0 8.9080892972013928 1 0 
1 0 1.5962666587138692 1 0 
1 0 1.091910702798607 1 0 
1 -2.4651903288156619e-032 1.5962666587138683 1 0 
1 8.9080892972013928 0 0 1 
1 0 0 1 0 
8 0 1
6 0 1 8.9080892972013928 1.0919107027986075  6.9999999999999991 1.091910702798607  
1 1.0919107027986077 -0.79813332935693504 -8.9294539834302443e-017 1 
1 2.4651903288156619e-032 -1.5962666587138696 1 0 
1 7 0 0 1 
1 0 -1.5962666587138692 1 0 
1 1.091910702798607 0 0 1 
1 2.4651903288156619e-032 1.5962666587138683 1 0 
1 0 8.9080892972013928 1 0 
1 0 0 1 0 
8 0 1
6 0 1 1.091910702798607 6.9999999999999991  1.0919107027986075 8.9080892972013928  
1 6.9999999999999947 -0.79813332935693582 4.4936775735696182e-016 1 
8 0 1
7 0 0  1 2 2  6.9999999999999991 1.5962666587138692  6.9999999999999991 -1.5962666587138692 
 0 2 1 2
8 0 1
1 1 0 0 1 
1 1.0919107027986072 0.79813332935693415 8.9294539834302455e-017 -1 
1 0 -1.5962666587138692 1 0 
1 0 -1.091910702798607 1 0 
8 0 1
6 0 1 6.9999999999999982 -1.5962666587138692  6.9999999999999991 1.5962666587138692  
1 0 1 1 0 
8 0 1
7 0 0  1 2 2  6.9999999999999991 -1.5962666587138692  6.9999999999999991 1.5962666587138692 
 0 2 1 2
8 0 1
1 0 0 0 1 
1 0 -1.5962666587138692 1 0 
1 1.091910702798607 0 0 -1 
1 1.7767120823413305 -0.45048631016455626 -0.51302596901546882 -0.85837308620187958 
1 0.52481411335700723 2.5949952881731764 1 1.9428902930940239e-016 
8 0 1
6 0 1 6.9999999999999991 1.5962666587138692  6.9999999999999982 -1.5962666587138692  
1 0 1 1 0 
1 8.9080892972013928 -0.79813332935693504 8.9294539834302443e-017 1 
8 0 1
7 0 0  1 2 2  1.0919107027986075 1.5962666587138683  1.0919107027986075 -1.5962666587138696 
 0 2 1 2
8 0 1
1 0 0 0 1 
1 -2.4651903288156619e-032 -1.5962666587138696 1 0 
1 7 0 0 -1 
1 6.9073096932373623 -1.751352111463035 0.5130259690154696 0.85837308620187913 
1 -2.0403157317203404 2.5949952881731781 1 -4.9960036108132044e-016 
8 0 1
7 0 0  1 2 2  1.0919107027986075 1.5962666587138683  1.0919107027986075 -1.5962666587138696 
 0 2 1 2
8 0 1
1 1 0 0 1 
1 2.4651903288156619e-032 -1.5962666587138696 1 0 
1 0 -7 1 0 
1 7.0000000000000284 0.79813332935693027 -1.3481032720708874e-015 -1 
Curves 52
1 0 1.091910702798607 0 0 0 1 
1 0 0 1.091910702798607 -0 1 0 
1 0 0 7 -0 1 0 
1 0 7 0 0 0 1 
8 -0.79813332935693415 2.3943999880708029
1 2.25 0.27297767569965176 1.0919107027986077 -0.93969262078590843 0.34202014332566877 2.976484661143415e-017 
1 3 0 0 0 0 1 
7 0 0  1 2 2  -1.3322676295501878e-015 1.0919107027986086 7.000000000000008  2.9999999999999662 1.5043521983670871e-014 7.000000000000008 
 0 2 1 2
8 -2.384456131930786 1.3348279052167744
1 1.0766813385732918 1.7767120823413358 0.70003074376803665 -0.8066068549851324 -0.51302596901546893 0.29358088596966336 
7 0 0  1 2 2  2.9999999999999964 7.000000000000008 3.8302694349567901e-015  3.6637359812630166e-014 7.000000000000008 1.0919107027985948 
 0 2 1 2
1 3 0 0 -0 1 0 
7 0 0  1 2 2  1.0919107027985895 1.0919107027986072 9.9999999999999574  -1.3322676295501878e-015 1.0919107027986086 7.000000000000008 
 0 2 1 2
1 1.091910702798607 0 10 -0 1 0 
8 0.18067371314655767 3.899957750294119
1 -0.053042348776998482 6.9073096932373703 6.8542673444603652 0.29358088596966342 0.51302596901546882 0.80660685498513252 
7 0 0  1 2 2  1.0919107027986188 9.9999999999999574 1.0919107027986072  3.6637359812630166e-014 7.000000000000008 1.0919107027985948 
 0 2 1 2
1 1.091910702798607 10 0 0 0 1 
8 -0.79813332935693015 2.3943999880708078
1 0.8189330270989571 9.2500000000000036 7.0000000000000888 -0.34202014332566871 -0.93969262078590832 1.3481032720708864e-015 
8 -0.79813332935693437 2.3943999880708029
1 3.0000000000000417 0.74999999999999989 0.81893302709895521 -0 0.93969262078590843 -0.34202014332566877 
1 0 0 1.091910702798607 1 0 -0 
1 0 0 7 1 0 -0 
1 7 0 0 0 0 1 
7 0 0  1 2 2  1.0919107027985895 1.0919107027986072 9.9999999999999574  2.9999999999999645 1.0919107027985921 9.9999999999999574 
 0 2 1 2
7 0 0  1 2 2  2.9999999999999645 1.0919107027985921 9.9999999999999574  2.9999999999999662 1.5043521983670871e-014 7.000000000000008 
 0 2 1 2
7 0 0  1 2 2  2.9999999999999964 9.9999999999999574 1.0919107027985926  2.9999999999999964 7.000000000000008 3.8302694349567901e-015 
 0 2 1 2
7 0 0  1 2 2  2.9999999999999964 9.9999999999999574 1.0919107027985926  1.0919107027986188 9.9999999999999574 1.0919107027986072 
 0 2 1 2
1 0 3 0 1 0 -0 
1 0 7 0 1 0 -0 
1 7 0 0 -0 1 0 
1 0 8.9080892972013928 10 1 0 -0 
1 0 1.091910702798607 10 1 0 -0 
1 8.9080892972013928 0 10 0 1 0 
7 0 0  1 2 2  8.908089297201407 1.0919107027986075 9.9999999999999645  7.00000000000004 1.0919107027985921 9.9999999999999574 
 0 2 1 2
8 -0.79813332935693504 2.3943999880708033
1 1.0919107027986077 9.7270223243003482 7.7499999999999991 -8.9294539834302443e-017 -0.34202014332566882 0.93969262078590843 
1 0 10 7 1 0 -0 
1 0 10 1.091910702798607 1 0 -0 
1 8.9080892972013928 10 0 0 0 1 
7 0 0  1 2 2  6.9999999999999973 9.9999999999999574 1.0919107027985921  8.9080892972013856 9.9999999999999645 1.0919107027986075 
 0 2 1 2
8 -0.79813332935693282 2.3943999880708047
1 6.9999999999999947 0.74999999999999845 0.81893302709895588 4.4936775735696182e-016 0.93969262078590843 -0.34202014332566877 
7 0 0  1 2 2  7.00000000000004 1.0919107027985921 9.9999999999999574  7.0000000000000187 9.5479180117763462e-015 7.000000000000008 
 0 2 1 2
8 -0.79813332935693504 2.394399988070802
1 7.75 0.27297767569965181 1.0919107027986072 0.93969262078590832 0.34202014332566871 8.9294539834302455e-017 
1 10 1.091910702798607 0 0 0 1 
7 0 0  1 2 2  10.000000000000004 1.091910702798607 6.9999999999999876  7.0000000000000187 9.5479180117763462e-015 7.000000000000008 
 0 2 1 2
7 0 0  1 2 2  6.9999999999999973 9.9999999999999574 1.0919107027985921  7.000000000000008 7.000000000000008 5.5511151231257827e-015 
 0 2 1 2
1 10 0 1.091910702798607 -0 1 0 
8 -2.3844561319307869 1.3348279052167733
1 8.9233186614267055 1.7767120823413305 0.70003074376803665 0.80660685498513263 -0.51302596901546882 0.29358088596966347 
7 0 0  1 2 2  7.000000000000008 7.000000000000008 5.5511151231257827e-015  9.9999999999999645 6.9999999999999876 1.0919107027985928 
 0 2 1 2
8 -0.79813332935693504 2.3943999880708033
1 8.9080892972013928 9.7270223243003482 7.7499999999999991 8.9294539834302443e-017 -0.34202014332566882 0.93969262078590843 
7 0 0  1 2 2  8.908089297201407 1.0919107027986075 9.9999999999999645  10.000000000000004 1.091910702798607 6.9999999999999876 
 0 2 1 2
1 10 0 7 0 1 0 
8 0.18067371314655817 3.8999577502941207
1 10.053042348776998 6.9073096932373623 6.854267344460367 -0.29358088596966331 0.51302596901546949 0.80660685498513207 
7 0 0  1 2 2  8.9080892972013856 9.9999999999999645 1.0919107027986075  9.9999999999999645 6.9999999999999876 1.0919107027985928 
 0 2 1 2
1 10 7 0 0 0 1 
8 -0.79813332935693804 2.3943999880707998
1 9.1810669729010463 9.2499999999999964 7.0000000000000284 0.34202014332566882 -0.93969262078590832 -1.3481032720708874e-015 
Polygon3D 0
PolygonOnTriangulations 0
Surfaces 26
1 0 0 0 1 0 -0 0 0 1 0 -1 0 
1 1.5 0.54595535139930351 0 -0.34202014332566877 -0.93969262078590843 0 0 0 1 0.93969262078590843 -0.34202014332566877 -0 
1 1.5 0 0.54595535139930351 -0.34202014332566877 0 -0.93969262078590843 0 1 0 0.93969262078590843 0 -0.34202014332566877 
1 0.54595535139930351 0 8.5 0.93969262078590843 0 -0.34202014332566877 0 1 0 0.34202014332566877 -0 0.93969262078590843 
1 0.54595535139930351 8.5 0 0.93969262078590843 -0.34202014332566877 0 0 0 1 0.34202014332566877 0.93969262078590843 -0 
1 0 0 0 -0 1 0 0 0 1 1 0 -0 
9 0 0 0 0 1 1 2 2 2 2 1.0919107027985895 1.0919107027986072 9.9999999999999574  -1.3322676295501878e-015 1.0919107027986086 7.000000000000008  
2.9999999999999645 1.0919107027985921 9.9999999999999574  2.9999999999999662 1.5043521983670871e-014 7.000000000000008  

0 2
1 2

0 2
1 2

1 3 -1.6653345369377348e-016 1.0919107027986072 -0.1235316738293747 -0.3394004844336404 -0.93249516713338698 -0.80660685498513252 -0.51302596901546904 0.29358088596966342 -0.57803573163940869 0.78842353229844009 -0.21038780065903129 
9 0 0 0 0 1 1 2 2 2 2 2.9999999999999964 9.9999999999999574 1.0919107027985926  2.9999999999999964 7.000000000000008 3.8302694349567901e-015  
1.0919107027986188 9.9999999999999574 1.0919107027986072  3.6637359812630166e-014 7.000000000000008 1.0919107027985948  

0 2
1 2

0 2
1 2

1 0 0 0 0 0 1 1 0 -0 -0 1 0 
1 0 0 10 0 0 1 1 0 -0 -0 1 0 
1 1.0919107027986075 10 6.9999999999999982 0.93249516713338698 -0.33940048443364057 -0.12353167382937466 0.29358088596966347 0.51302596901546904 0.8066068549851324 -0.21038780065903143 -0.78842353229843998 0.5780357316394088 
1 0 10 0 -0 1 0 0 0 1 1 0 -0 
1 0 1.5 0.54595535139930351 0 -0.34202014332566877 -0.93969262078590843 1 0 0 -0 0.93969262078590843 -0.34202014332566877 
1 0 0.54595535139930351 8.5 0 0.93969262078590843 -0.34202014332566877 1 -0 0 -0 0.34202014332566877 0.93969262078590843 
1 8.5 0.54595535139930351 0 -0.34202014332566877 0.93969262078590843 0 0 0 1 -0.93969262078590843 -0.34202014332566877 0 
1 0 8.5 0.54595535139930351 0 -0.34202014332566877 0.93969262078590843 1 0 0 0 -0.93969262078590843 -0.34202014332566877 
1 8.5 0 0.54595535139930351 -0.34202014332566877 0 0.93969262078590843 0 1 -0 -0.93969262078590843 0 -0.34202014332566877 
1 0 9.4540446486006964 8.5 -1.4567861561468563e-017 0.93969262078590843 0.34202014332566882 1 1.3689312009942691e-017 4.9825020992019798e-018 -0 -0.34202014332566882 0.93969262078590843 
1 9.4540446486006964 0 8.5 0.93969262078590843 1.4567861561468563e-017 0.34202014332566882 -1.3689312009942691e-017 1 -4.9825020992019798e-018 -0.34202014332566882 0 0.93969262078590843 
9 0 0 0 0 1 1 2 2 2 2 8.908089297201407 1.0919107027986075 9.9999999999999645  10.000000000000004 1.091910702798607 6.9999999999999876  
7.00000000000004 1.0919107027985921 9.9999999999999574  7.0000000000000187 9.5479180117763462e-015 7.000000000000008  

0 2
1 2

0 2
1 2

1 9.4540446486006964 8.5 0 0.93969262078590843 0.34202014332566882 -1.4567861561468563e-017 1.3689312009942691e-017 4.9825020992019798e-018 1 -0.34202014332566882 0.93969262078590843 -0 
9 0 0 0 0 1 1 2 2 2 2 6.9999999999999973 9.9999999999999574 1.0919107027985921  7.000000000000008 7.000000000000008 5.5511151231257827e-015  
8.9080892972013856 9.9999999999999645 1.0919107027986075  9.9999999999999645 6.9999999999999876 1.0919107027985928  

0 2
1 2

0 2
1 2

1 10 0 0 1 0 -0 0 0 1 0 -1 0 
1 6.9999999999999991 -3.3306690738754696e-016 1.0919107027986072 -0.12353167382937476 0.3394004844336404 0.93249516713338676 0.80660685498513252 -0.51302596901546893 0.29358088596966347 0.57803573163940869 0.78842353229844009 -0.21038780065903134 
1 8.9080892972013928 10 6.9999999999999982 0.93249516713338698 0.33940048443364024 0.12353167382937455 -0.29358088596966325 0.51302596901546926 0.80660685498513252 0.21038780065903123 -0.78842353229844009 0.5780357316394088 
Triangulations 0

TShapes 135
Ve
0.0001
-2.22044604925031e-016 1.09191070279861 1.09191070279861
0 0

0101101
*
Ve
0.0001
-1.33226762955019e-015 1.09191070279861 7.00000000000001
0 0

0101101
*
Ed
 1.00005e-007 1 1 0
1  1 0 1.09191070279861 7
2  1 2 0 1.09191070279861 7
2  2 1 0 1.09191070279861 7
0

0101000
+135 0 -134 0 *
Ve
0.0001
3.66373598126302e-014 7.00000000000001 1.09191070279859
0 0

0101101
*
Ed
 1.00005e-007 1 1 0
1  2 0 1.09191070279861 7
2  3 3 0 1.09191070279861 7
2  4 1 0 1.09191070279861 7
0

0101000
+135 0 -132 0 *
Ve
0.0001
-4.44089209850063e-016 7 7
0 0

0101101
*
Ed
 1.00005e-007 1 1 0
1  3 0 1.09191070279861 7
2  5 4 0 1.09191070279861 7
2  6 1 0 1.09191070279861 7
0

0101000
+134 0 -130 0 *
Ed
 1.00005e-007 1 1 0
1  4 0 1.09191070279861 7
2  7 5 0 1.09191070279861 7
2  8 1 0 1.09191070279861 7
0

0101000
+132 0 -130 0 *
Wi

0101100
-133 0 +131 0 -129 0 +128 0 *
Fa
0  1e-007 1 0

0101000
+127 0 *
Ve
0.0001
3 -1.66533453693773e-016 1.09191070279861
0 0

0101101
*
Ed
 1.00005e-007 1 1 0
1  5 0 -0.798133329356934 2.3943999880708
2  9 2 0 -0.798133329356934 2.3943999880708
0

0101000
+125 0 -135 0 *
Ve
0.0001
2.99999999999997 1.50435219836709e-014 7.00000000000001
0 0

0101101
*
Ed
 1.00005e-007 1 1 0
1  6 0 1.09191070279861 7
2  10 2 0 1.09191070279861 7
2  11 6 0 1.09191070279861 7
0

0101000
+125 0 -123 0 *
Ed
 0.0001 1 1 0
1  7 0 0 1
2  12 2 0 0 1
2  13 7 0 0 1
0

0101000
+134 0 -123 0 *
Wi

0101100
+124 0 -122 0 +133 0 +121 0 *
Fa
0  0 2 0

0101000
+120 0 *
Ve
0.0001
3 3 -1.11022302462516e-016
0 0

0101101
*
Ed
 1.00005e-007 1 1 0
1  8 0 -2.38445613193079 1.33482790521677
2  14 3 0 -2.38445613193079 1.33482790521677
2  15 8 0 -2.38445613193079 1.33482790521677
0

0101000
+118 0 -135 0 *
Ve
0.0001
3 7.00000000000001 3.83026943495679e-015
0 0

0101101
*
Ed
 0.0001 1 1 0
1  9 0 0 1
2  16 3 0 0 1
2  17 9 0 0 1
0

0101000
+116 0 -132 0 *
Ed
 1.00005e-007 1 1 0
1  10 0 3 7
2  18 3 0 3 7
2  19 10 0 3 7
0

0101000
+118 0 -116 0 *
Wi

0101100
+131 0 +117 0 -115 0 -114 0 *
Fa
0  0 3 0

0101000
+113 0 *
Ve
0.0001
1.09191070279859 1.09191070279861 9.99999999999996
0 0

0101101
*
Ed
 0.0001 1 1 0
1  11 0 0 1
2  20 4 0 0 1
2  21 7 0 0 1
0

0101000
+111 0 -134 0 *
Ve
0.0001
1.09191070279861 8.90808929720139 10
0 0

0101101
*
Ed
 1.00005e-007 1 1 0
1  12 0 1.09191070279861 8.90808929720139
2  22 4 0 1.09191070279861 8.90808929720139
2  23 11 0 1.09191070279861 8.90808929720139
0

0101000
+111 0 -109 0 *
Ed
 1.00005e-007 1 1 0
1  13 0 0.180673713146558 3.89995775029412
2  24 4 0 0.180673713146558 3.89995775029412
2  25 12 0 0.180673713146558 3.89995775029412
0

0101000
+130 0 -109 0 *
Wi

0101100
+110 0 -108 0 +129 0 +107 0 *
Fa
0  0 4 0

0101000
+106 0 *
Ve
0.0001
1.09191070279862 9.99999999999996 1.09191070279861
0 0

0101101
*
Ed
 0.0001 1 1 0
1  14 0 0 1
2  26 5 0 0 1
2  27 9 0 0 1
0

0101000
+104 0 -132 0 *
Ve
0.0001
1.09191070279861 10 7
0 0

0101101
*
Ed
 1.00005e-007 1 1 0
1  15 0 1.09191070279861 7
2  28 5 0 1.09191070279861 7
2  29 13 0 1.09191070279861 7
0

0101000
+104 0 -102 0 *
Ed
 1.00005e-007 1 1 0
1  16 0 -0.79813332935693 2.39439998807081
2  30 5 0 -0.79813332935693 2.39439998807081
0

0101000
+102 0 -130 0 *
Wi

0101100
+103 0 -101 0 +128 0 -100 0 *
Fa
0  0 5 0

0101000
+99 0 *
Ed
 1.00005e-007 1 1 0
1  17 0 -0.798133329356934 2.3943999880708
2  31 14 0 -0.798133329356934 2.3943999880708
0

0101000
+125 0 -118 0 *
Wi

0101100
-97 0 +124 0 -117 0 *
Fa
0  0 8 0

0101000
+96 0 *
Ve
0.0001
7 -3.33066907387547e-016 1.09191070279861
0 0

0101101
*
Ed
 1.00005e-007 1 1 0
1  18 0 3 7
2  32 14 0 3 7
2  33 6 0 3 7
0

0101000
+125 0 -94 0 *
Ve
0.0001
7.00000000000002 9.54791801177635e-015 7.00000000000001
0 0

0101101
*
Ed
 1.00005e-007 1 1 0
1  19 0 3 7
2  34 15 0 3 7
2  35 6 0 3 7
0

0101000
+123 0 -92 0 *
Ed
 1.00005e-007 1 1 0
1  20 0 1.09191070279861 7
2  36 16 0 1.09191070279861 7
2  37 6 0 1.09191070279861 7
0

0101000
+94 0 -92 0 *
Wi

0101100
+122 0 -93 0 +91 0 -90 0 *
Fa
0  1e-007 6 0

0101000
+89 0 *
Ve
0.0001
2.99999999999996 1.09191070279859 9.99999999999996
0 0

0101101
*
Ed
 0.0001 1 1 0
1  21 0 0 1
2  38 7 0 0 1
2  39 11 0 0 1
0

0101000
+111 0 -87 0 *
Ed
 0.0001 1 1 0
1  22 0 0 1
2  40 15 0 0 1
2  41 7 0 0 1
0

0101000
+87 0 -123 0 *
Wi

0101100
-110 0 +86 0 -121 0 +85 0 *
Fa
0  0.0001 7 0

0101000
+84 0 *
Ve
0.0001
3 9.99999999999996 1.09191070279859
0 0

0101101
*
Ed
 0.0001 1 1 0
1  23 0 0 1
2  42 17 0 0 1
2  43 9 0 0 1
0

0101000
+82 0 -116 0 *
Ed
 0.0001 1 1 0
1  24 0 0 1
2  44 9 0 0 1
2  45 13 0 0 1
0

0101000
+82 0 -104 0 *
Wi

0101100
-81 0 +80 0 -115 0 +103 0 *
Fa
0  0.0001 9 0

0101000
+79 0 *
Ve
0.0001
7 3 -2.77555756156289e-016
0 0

0101101
*
Ed
 1.00005e-007 1 1 0
1  25 0 3 7
2  46 14 0 3 7
2  47 10 0 3 7
0

0101000
+118 0 -77 0 *
Ve
0.0001
7.00000000000001 7.00000000000001 5.55111512312578e-015
0 0

0101101
*
Ed
 1.00005e-007 1 1 0
1  26 0 3 7
2  48 17 0 3 7
2  49 10 0 3 7
0

0101000
+116 0 -75 0 *
Ed
 1.00005e-007 1 1 0
1  27 0 3 7
2  50 18 0 3 7
2  51 10 0 3 7
0

0101000
+77 0 -75 0 *
Wi

0101100
-114 0 +76 0 -74 0 +73 0 *
Fa
0  1e-007 10 0

0101000
+72 0 *
Ve
0.0001
8.90808929720139 8.90808929720139 10
0 0

0101101
*
Ed
 1.00005e-007 1 1 0
1  28 0 1.09191070279861 8.90808929720139
2  52 19 0 1.09191070279861 8.90808929720139
2  53 11 0 1.09191070279861 8.90808929720139
0

0101000
+109 0 -70 0 *
Ve
0.0001
7.00000000000004 1.09191070279859 9.99999999999996
0 0

0101101
*
Ed
 1.00005e-007 1 1 0
1  29 0 3 7
2  54 15 0 3 7
2  55 11 0 3 7
0

0101000
+87 0 -68 0 *
Ve
0.0001
8.90808929720141 1.09191070279861 9.99999999999996
0 0

0101101
*
Ed
 1.00005e-007 1 1 0
1  30 0 1.09191070279861 8.90808929720139
2  56 20 0 1.09191070279861 8.90808929720139
2  57 11 0 1.09191070279861 8.90808929720139
0

0101000
+66 0 -70 0 *
Ed
 0.0001 1 1 0
1  31 0 0 1
2  58 21 0 0 1
2  59 11 0 0 1
0

0101000
+66 0 -68 0 *
Wi

0101100
-108 0 +86 0 -69 0 +67 0 +65 0 -64 0 *
Fa
0  1e-007 11 0

0101000
+63 0 *
Ed
 1.00005e-007 1 1 0
1  32 0 -0.798133329356935 2.3943999880708
2  60 19 0 -0.798133329356935 2.3943999880708
0

0101000
+102 0 -109 0 *
Wi

0101100
-100 0 +61 0 -107 0 *
Fa
0  0 12 0

0101000
+60 0 *
Ve
0.0001
8.90808929720139 10 7
0 0

0101101
*
Ed
 1.00005e-007 1 1 0
1  33 0 1.09191070279861 8.90808929720139
2  61 19 0 1.09191070279861 8.90808929720139
2  62 13 0 1.09191070279861 8.90808929720139
0

0101000
+102 0 -58 0 *
Ve
0.0001
7 9.99999999999996 1.09191070279859
0 0

0101101
*
Ed
 1.00005e-007 1 1 0
1  34 0 3 7
2  63 17 0 3 7
2  64 13 0 3 7
0

0101000
+82 0 -56 0 *
Ve
0.0001
8.90808929720139 9.99999999999996 1.09191070279861
0 0

0101101
*
Ed
 1.00005e-007 1 1 0
1  35 0 1.09191070279861 7
2  65 22 0 1.09191070279861 7
2  66 13 0 1.09191070279861 7
0

0101000
+54 0 -58 0 *
Ed
 0.0001 1 1 0
1  36 0 0 1
2  67 23 0 0 1
2  68 13 0 0 1
0

0101000
+56 0 -54 0 *
Wi

0101100
+101 0 +80 0 +57 0 -55 0 -53 0 -52 0 *
Fa
0  1e-007 13 0

0101000
+51 0 *
Ed
 1.00005e-007 1 1 0
1  37 0 -0.798133329356933 2.3943999880708
2  69 14 0 -0.798133329356933 2.3943999880708
0

0101000
+94 0 -77 0 *
Wi

0101100
-97 0 +93 0 -76 0 +49 0 *
Fa
0  0 14 0

0101000
+48 0 *
Ed
 0.0001 1 1 0
1  38 0 0 1
2  70 15 0 0 1
2  71 21 0 0 1
0

0101000
+68 0 -92 0 *
Wi

0101100
+85 0 -67 0 +91 0 -46 0 *
Fa
0  0 15 0

0101000
+45 0 *
Ve
0.0001
10 1.09191070279861 1.09191070279861
0 0

0101101
*
Ed
 1.00005e-007 1 1 0
1  39 0 -0.798133329356935 2.3943999880708
2  72 16 0 -0.798133329356935 2.3943999880708
0

0101000
+94 0 -43 0 *
Ve
0.0001
10 1.09191070279861 6.99999999999999
0 0

0101101
*
Ed
 1.00005e-007 1 1 0
1  40 0 1.09191070279861 7
2  73 16 0 1.09191070279861 7
2  74 24 0 1.09191070279861 7
0

0101000
+43 0 -41 0 *
Ed
 0.0001 1 1 0
1  41 0 0 1
2  75 16 0 0 1
2  76 21 0 0 1
0

0101000
+41 0 -92 0 *
Wi

0101100
+42 0 -90 0 +40 0 +39 0 *
Fa
0  0 16 0

0101000
+38 0 *
Ed
 0.0001 1 1 0
1  42 0 0 1
2  77 17 0 0 1
2  78 23 0 0 1
0

0101000
+56 0 -75 0 *
Wi

0101100
-81 0 +55 0 -74 0 +36 0 *
Fa
0  0 17 0

0101000
+35 0 *
Ve
0.0001
9.99999999999996 6.99999999999999 1.09191070279859
0 0

0101101
*
Ed
 1.00005e-007 1 1 0
1  43 0 1.09191070279861 7
2  79 18 0 1.09191070279861 7
2  80 24 0 1.09191070279861 7
0

0101000
+43 0 -33 0 *
Ed
 1.00005e-007 1 1 0
1  44 0 -2.38445613193079 1.33482790521677
2  81 18 0 -2.38445613193079 1.33482790521677
2  82 25 0 -2.38445613193079 1.33482790521677
0

0101000
+77 0 -43 0 *
Ed
 0.0001 1 1 0
1  45 0 0 1
2  83 18 0 0 1
2  84 23 0 0 1
0

0101000
+75 0 -33 0 *
Wi

0101100
+32 0 +31 0 -30 0 -73 0 *
Fa
0  0 18 0

0101000
+29 0 *
Ed
 1.00005e-007 1 1 0
1  46 0 -0.798133329356935 2.3943999880708
2  85 19 0 -0.798133329356935 2.3943999880708
0

0101000
+58 0 -70 0 *
Wi

0101100
-61 0 +57 0 -69 0 +27 0 *
Fa
0  0 19 0

0101000
+26 0 *
Ed
 0.0001 1 1 0
1  47 0 0 1
2  86 20 0 0 1
2  87 21 0 0 1
0

0101000
+66 0 -41 0 *
Ve
0.0001
10 7 7
0 0

0101101
*
Ed
 1.00005e-007 1 1 0
1  48 0 1.09191070279861 7
2  88 20 0 1.09191070279861 7
2  89 24 0 1.09191070279861 7
0

0101000
+41 0 -23 0 *
Ed
 1.00005e-007 1 1 0
1  49 0 0.180673713146558 3.89995775029412
2  90 20 0 0.180673713146558 3.89995775029412
2  91 26 0 0.180673713146558 3.89995775029412
0

0101000
+23 0 -70 0 *
Wi

0101100
+24 0 -65 0 +22 0 +21 0 *
Fa
0  0 20 0

0101000
+20 0 *
Wi

0101100
-24 0 +64 0 -39 0 +46 0 *
Fa
0  0.0001 21 0

0101000
+18 0 *
Ed
 0.0001 1 1 0
1  50 0 0 1
2  92 22 0 0 1
2  93 23 0 0 1
0

0101000
+54 0 -33 0 *
Ed
 1.00005e-007 1 1 0
1  51 0 1.09191070279861 7
2  94 22 0 1.09191070279861 7
2  95 24 0 1.09191070279861 7
0

0101000
+33 0 -23 0 *
Ed
 1.00005e-007 1 1 0
1  52 0 -0.798133329356938 2.3943999880708
2  96 22 0 -0.798133329356938 2.3943999880708
0

0101000
+58 0 -23 0 *
Wi

0101100
+16 0 -53 0 +15 0 -14 0 *
Fa
0  0 22 0

0101000
+13 0 *
Wi

0101100
-36 0 +52 0 -30 0 +16 0 *
Fa
0  0.0001 23 0

0101000
+11 0 *
Wi

0101100
-49 0 +42 0 -31 0 *
Fa
0  0 25 0

0101000
+9 0 *
Wi

0101100
-40 0 +32 0 -22 0 +15 0 *
Fa
0  1e-007 24 0

0101000
+7 0 *
Wi

0101100
-14 0 +27 0 -21 0 *
Fa
0  0 26 0

0101000
+5 0 *
Sh

0101100
-126 0 -119 0 +112 0 -105 0 +98 0 +95 0 -88 0 -83 0 -78 0 -71 0 
+62 0 -59 0 +50 0 -47 0 +44 0 +37 0 +34 0 -28 0 -25 0 +19 0 
+17 0 -12 0 +10 0 -8 0 +6 0 +4 0 *
So

0100000
+3 0 *
Co

1100000
+2 0 *

+1 1  