
CASCADE Topology V1, (c) Matra-Datavision
Locations 5
1
              1               0               0             -10 
              0               1               0             -10 
              0               0               1               0 
1
              1               0               0              10 
              0               1               0              10 
              0               0               1               5 
1
              1               0               0               0 
              0               1               0               0 
              0               0               1               5 
2  2 1 3 1 0
2  3 -1 2 -1 0
Curve2ds 102
1 0 -0.50990195135927852 1 0 
1 0 -1 1 0 
1 0 -0.50990195135927852 1 0 
1 0.20000000000000001 0 0 -1 
1 0 -0.5099019513592784 1 0 
1 4.7999999999999998 0 0 -1 
1 0 -0.50990195135927818 1 0 
1 0 -19.800000000000001 1 0 
8 0 1
7 0 0  1 2 2  0.20000000000000001 0.50990195135927852  0.20000000000000001 -0.50990195135927852 
 0 2 1 2
8 0 1
1 1 0 0 1 
1 0 0.50990195135927852 1 0 
1 0 0.20000000000000001 1 0 
8 0 1
7 0 0  1 2 2  4.8000000000000007 0.50990195135927852  4.8000000000000007 -0.50990195135927852 
 0 2 1 2
8 0 1
1 1 0 0 1 
8 0 1
6 0 1 1 0.50990195135927852  1 -0.50990195135927852  
1 0 1 1 0 
1 15.704761904761904 4.7105227887476131 0.61721339984836709 -0.78679579246944376 
1 -5.9869699785291601 0.78740078740119657 1 -9.6103680569115113e-016 
1 0 0.50990195135927852 1 0 
1 1 0 0 1 
8 0 1
6 0 1 1 0.50990195135927863  1 -0.5099019513592784  
1 0 1 1 0 
1 15.70476190476192 4.7105227887476362 -0.61721339984836798 0.78679579246944287 
1 5.9869699785291699 0.78740078740115549 1 -3.1918911957973255e-016 
1 0 0.50990195135927863 1 0 
1 1 0 0 1 
1 0.19999999999999987 0.25495097567963904 -7.1525698310785969e-016 -1 
1 0 0.50990195135927863 1 0 
1 0 1 1 0 
1 4.8000000000000007 0.25495097567964109 8.7105553388382898e-016 -1 
8 0 1
7 0 0  1 2 2  1 -0.50990195135927852  1 0.50990195135927852 
 0 2 1 2
8 0 1
1 0 0 0 1 
1 0 0 1 0 
8 0 1
6 0 1 0.20000000000000001 1  0.20000000000000001 0.20000000000000001  
1 0 0 1 0 
8 0 1
6 0 1 4.7999999999999998 1  4.8000000000000007 0.20000000000000001  
1 0 -0.50990195135927852 1 0 
1 0.20000000000000001 0 0 1 
1 0 -0.5099019513592784 1 0 
1 4.7999999999999998 0 0 1 
1 0 -0.50990195135927818 1 0 
1 0 19.800000000000001 1 0 
8 0 1
7 0 0  1 2 2  1 -0.5099019513592784  1 0.50990195135927863 
 0 2 1 2
8 0 1
1 0 0 0 1 
1 0.99999999999998357 -0.25495097567962482 -2.7618834001195028e-014 1 
1 0 0.50990195135927852 1 0 
1 0 1 1 0 
1 0 0.50990195135927507 1 0 
1 0 19 1 0 
1 0 -0.50990195135927507 1 0 
1 19 0 0 1 
1 1.0000000000001261 0.25495097567962838 -2.1245256923996265e-014 -1 
1 0 0.50990195135927863 1 0 
1 0 1 1 0 
1 0 -0.50990195135927863 1 0 
1 0 19 1 0 
1 0 -0.50990195135927863 1 0 
1 19 0 0 1 
1 0 -1.019803902718557 1 0 
2 10 10 1 0 -0 1 8.0710678118654755
1 0 -0.50990195135928218 1 0 
1 0.20000000000000001 0 0 1 
1 0 0.50990195135927863 1 0 
1 4.7999999999999998 0 0 1 
1 0 -0.50990195135927507 1 0 
1 0 19.800000000000001 1 0 
1 15.704761904761904 4.7105227887476131 -0.61721339984836709 0.78679579246944376 
1 5.9869699785291601 0.78740078740119657 1 9.6103680569115113e-016 
1 15.70476190476192 4.7105227887476362 0.61721339984836798 -0.78679579246944287 
1 -5.9869699785291699 0.78740078740115604 1 2.0469737016526326e-016 
1 0.19999999999999987 0.25495097567963904 -7.1525698310785969e-016 -1 
1 0 0.50990195135927863 1 0 
1 0 -1 1 0 
1 4.8000000000000007 0.25495097567964109 8.7105553388382898e-016 -1 
1 15.704761904761899 4.7105227887475927 -0.61721339984836565 0.78679579246944475 
1 5.9869699785291468 0.78740078740120378 1 -2.5014712523585554e-015 
1 0.99999999999998357 0.25495097567962482 -2.7618834001195028e-014 -1 
1 0 0.50990195135928218 1 0 
1 0.20000000000000001 0 0 -1 
1 18.999999999998384 0.254950975679893 2.6910658770394767e-014 -1 
1 15.704761904761909 -4.7105227887476042 0.61721339984836587 0.78679579246944453 
1 -5.9869699785291477 0.78740078740118724 1 2.6575963651964685e-015 
1 1.0000000000001261 0.25495097567962838 -2.1245256923996265e-014 -1 
1 0 0.50990195135927863 1 0 
1 4.7999999999999998 0 0 -1 
1 18.99999999999978 0.25495097567988201 2.5494308308795027e-014 -1 
8 -1.019803902718557 0
1 6.2831853071795862 0 0 1 
8 -1.019803902718557 0
1 0 0 0 1 
1 0 0 1 0 
1 0 -0.20000000000000018 1 0 
1 0.20000000000000068 0.25495097567963937 -1.4871679846797085e-016 -1 
1 0 0.5099019513592804 1 0 
1 0 -19 1 0 
1 4.7999999999999989 0.25495097567963937 1.4163504615997223e-016 -1 
1 0 0 0 -1 
1 6.2831853071795862 0 0 -1 
1 0 0 1 0 
1 0 -4 1 0 
8 0 1.019803902718557
1 6.2831853071795862 0 0 1 
8 0 1.019803902718557
1 0 0 0 1 
1 0 1.019803902718557 1 0 
2 0 0 1 0 -0 1 6.8710678118654753
Curves 57
1 0 1 0 0 0 1 
1 0 0 0.20000000000000001 -0 1 0 
1 0 0 4.7999999999999998 -0 1 0 
1 0 19.800000000000001 0 0 0 1 
7 0 0  1 2 2  0.20000000000000864 1.1268763699945339e-014 0.20000000000000001  1.1456113835350834e-014 0.99999999999999911 0.19999999999999774 
 0 2 1 2
1 0.20000000000000001 0 0 0 0 1 
7 0 0  1 2 2  0.19999999999999771 1.1268763699945339e-014 4.8000000000000007  2.9837243786801082e-016 0.99999999999999911 4.8000000000000007 
 0 2 1 2
7 0 0  1 2 2  0.99999999999999911 0.99999999999999911 3.7470027081099033e-016  1.1456113835350834e-014 0.99999999999999911 0.19999999999999774 
 0 2 1 2
8 5.3388959086883778 6.6350440483699487
1 5.1190476190476115 15.704761904761904 -0.82380952380952199 -0.77151674981046003 0.61721339984836709 0.15430334996209202 
1 1 0 0 -0 1 0 
7 0 0  8 16 3  1 1 4.9999999999999991  0.9375 1.0000000000000018 4.987499999999998  0.87500000000000222 0.99999999999999356 4.9750000000000005  0.81249999999999656 1.0000000000000138 4.9625000000000039  0.750000000000004 0.99999999999998046 4.9499999999999762  0.68749999999999967 1.0000000000000169 4.9375000000000426  0.62500000000000089 0.99999999999999023 4.9249999999999652  0.56250000000000056 1.0000000000000018 4.9125000000000076  0.43750000000000056 0.99999999999999878 4.8874999999999975  0.37500000000000405 0.999999999999997 4.875  0.31249999999999506 1.0000000000000084 4.8625000000000025  0.25000000000000655 0.99999999999998279 4.8500000000000121  0.18750000000000031 1.0000000000000147 4.8374999999999693  0.12499999999999935 0.9999999999999909 4.8250000000000277  0.062500000000004302 1.0000000000000013 4.8124999999999893  2.9837243786801082e-016 0.99999999999999911 4.8000000000000007 
 0 9 0.5 7 1 9
8 -6.6350440483699549 -5.3388959086883823
1 5.1190476190476346 15.70476190476192 5.823809523809528 0.77151674981045926 -0.61721339984836798 0.15430334996209197 
1 1 0 5 -0 1 0 
8 -0.25495097567963998 0.76485292703891761
1 0.75000000000000033 19.949999999999996 0.19999999999999987 -0.98058067569092033 -0.19611613513818335 -7.1525698310785969e-016 
1 1 20 0 0 0 1 
8 -0.25495097567963793 0.76485292703891861
1 0.75000000000000244 19.949999999999996 4.8000000000000007 -0.98058067569092033 -0.19611613513818338 8.7105553388382898e-016 
7 0 0  1 2 2  1.0000000000000004 1.1268763699945339e-014 0.19999999999999774  0.99999999999999911 0.99999999999999911 3.7470027081099033e-016 
 0 2 1 2
7 0 0  1 2 2  1.0000000000000004 1.1268763699945339e-014 0.19999999999999774  0.20000000000000864 1.1268763699945339e-014 0.20000000000000001 
 0 2 1 2
7 0 0  8 16 3  1 1.8596235662471372e-014 4.8000000000000043  0.94999999999999662 1.8596235662471372e-014 4.8000000000000025  0.90000000000001124 1.7680301667155627e-014 4.7999999999999963  0.849999999999978 1.7222334669497722e-014 4.8000000000000247  0.80000000000002602 1.6764367671839892e-014 4.7999999999999652  0.74999999999997813 1.6306400674181961e-014 4.8000000000000469  0.70000000000001172 1.5848433676524122e-014 4.7999999999999705  0.64999999999999603 1.5390466678866226e-014 4.8000000000000114  0.55000000000000071 1.4474532683550488e-014 4.7999999999999954  0.49999999999999512 1.4016565685892557e-014 4.8000000000000167  0.45000000000000884 1.3558598688234819e-014 4.7999999999999901  0.39999999999998481 1.3100631690576721e-014 4.7999999999999936  0.35000000000001197 1.2642664692919081e-014 4.8000000000000203  0.29999999999999116 1.2184697695261024e-014 4.7999999999999901  0.25000000000000144 1.1268763699945339e-014 4.8000000000000043  0.19999999999999771 1.1268763699945339e-014 4.8000000000000007 
 0 9 0.5 7 1 9
1 0 0 0.20000000000000001 1 0 -0 
1 0 0 4.7999999999999998 1 0 -0 
1 19.800000000000001 0 0 0 0 1 
7 0 0  1 2 2  1 1.8596235662471372e-014 4.8000000000000043  1 1 4.9999999999999991 
 0 2 1 2
8 -0.2549509756796538 0.76485292703889973
1 0.99999999999998357 19.749999999999986 0.14999999999999744 -2.7618834001195028e-014 -0.98058067569092011 -0.19611613513818402 
1 0 1 0 1 0 -0 
1 0 19 0 1 0 -0 
1 19 0 0 -0 1 0 
8 -0.25495097567965019 0.76485292703890706
1 1.0000000000001261 19.749999999999989 4.8500000000000023 -2.1245256923996265e-014 -0.98058067569092022 0.19611613513818421 
1 0 1 5 1 0 -0 
1 0 19 5 1 0 -0 
1 19 0 5 0 1 0 
2 10 10 5 0 0 1 1 0 -0 -0 1 0 8.0710678118654755
1 0 20 0.20000000000000001 1 0 -0 
1 0 20 4.7999999999999998 1 0 -0 
1 19.800000000000001 20 0 0 0 1 
8 -6.6350440483699487 -5.3388959086883778
1 15.704761904761904 5.1190476190476115 -0.82380952380952199 -0.61721339984836709 0.77151674981046003 -0.15430334996209202 
8 5.3388959086883832 6.6350440483699558
1 15.70476190476192 5.1190476190476346 5.823809523809528 0.61721339984836798 -0.77151674981045926 -0.15430334996209197 
8 -0.25495097567963998 0.76485292703891761
1 19.949999999999996 0.75000000000000033 0.19999999999999987 -0.19611613513818335 -0.98058067569092033 -7.1525698310785969e-016 
1 20 1 0 0 0 1 
8 -0.25495097567963793 0.76485292703891916
1 19.949999999999996 0.75000000000000244 4.8000000000000007 -0.19611613513818338 -0.98058067569092033 8.7105553388382898e-016 
8 -6.6350440483699344 -5.3388959086883663
1 15.704761904761899 14.880952380952408 -0.82380952380951811 -0.61721339984836565 -0.77151674981046103 -0.15430334996209222 
8 -0.2549509756796538 0.76485292703889973
1 19.749999999999986 0.99999999999998357 0.14999999999999744 -0.98058067569092011 -2.7618834001195028e-014 -0.19611613513818402 
1 20 0 0.20000000000000001 -0 1 0 
8 -0.25495097567938568 0.76485292703916785
1 19.750000000000249 18.999999999998384 0.15000000000005029 -0.98058067569092022 2.6910658770394773e-014 -0.19611613513818404 
8 5.3388959086883645 6.6350440483699371
1 15.704761904761909 14.880952380952397 5.8238095238095209 0.61721339984836587 0.77151674981046092 -0.1543033499620923 
8 -0.25495097567965019 0.76485292703890728
1 19.749999999999989 1.0000000000001261 4.8500000000000023 -0.98058067569092022 -2.1245256923996265e-014 0.19611613513818421 
1 20 0 4.7999999999999998 0 1 0 
8 -0.25495097567939656 0.76485292703916063
1 19.750000000000238 18.99999999999978 4.8499999999999526 -0.98058067569092011 2.5494308308795027e-014 0.19611613513818418 
1 17.071067811865476 10 5.2000000000000002 -0.98058067569092011 0 0.19611613513818421 
2 10 10 5.2000000000000002 0 0 1 1 0 -0 -0 1 0 7.0710678118654755
8 -0.25495097567964287 0.7648529270389175
1 19.949999999999999 19.25 0.20000000000000068 -0.19611613513818338 0.98058067569092033 -1.4871679846797085e-016 
1 20 19 0 0 0 1 
8 -0.25495097567964287 0.7648529270389175
1 19.949999999999999 19.25 4.7999999999999989 -0.19611613513818338 0.98058067569092033 1.4163504615997223e-016 
1 17.071067811865476 10 5 0 0 1 
2 10 10 9 0 0 1 1 0 -0 -0 1 0 7.0710678118654755
1 17.071067811865476 10 9 -0.19611613513818338 0 0.98058067569092033 
2 10 10 10 0 0 1 1 0 -0 -0 1 0 6.8710678118654753
Polygon3D 0
PolygonOnTriangulations 0
Surfaces 30
1 0 0 0 1 0 -0 0 0 1 0 -1 0 
1 0.10000000000000001 0.5 0 -0.98058067569092011 -0.19611613513818402 0 0 0 1 0.19611613513818404 -0.98058067569092022 -0 
1 0.5 0 0.10000000000000001 -0.19611613513818402 0 -0.98058067569092011 0 1 0 0.98058067569092022 0 -0.19611613513818404 
1 0.5 0 4.9000000000000004 0.19611613513818418 0 -0.98058067569092011 0 1 0 0.98058067569092011 -0 0.19611613513818418 
1 0.5 19.899999999999999 0 0.19611613513818335 -0.98058067569092022 -3.4874414115229796e-018 6.8394353114873764e-019 -3.4197176557437003e-018 1 0.98058067569092033 0.19611613513818338 -0 
9 0 0 0 0 1 1 2 2 2 2 1.0000000000000004 1.1268763699945339e-014 0.19999999999999774  0.99999999999999911 0.99999999999999911 3.7470027081099033e-016  
0.20000000000000864 1.1268763699945339e-014 0.20000000000000001  1.1456113835350834e-014 0.99999999999999911 0.19999999999999774  

0 2
1 2

0 2
1 2

1 0 0 0 -0 1 0 0 0 1 1 0 -0 
9 0 0 0 0 8 1 16 2 3 2 1 1.8596235662471372e-014 4.8000000000000043  1 1 4.9999999999999991  
0.94999999999999662 1.8596235662471372e-014 4.8000000000000025  0.9375 1.0000000000000018 4.987499999999998  
0.90000000000001124 1.7680301667155627e-014 4.7999999999999963  0.87500000000000222 0.99999999999999356 4.9750000000000005  
0.849999999999978 1.7222334669497722e-014 4.8000000000000247  0.81249999999999656 1.0000000000000138 4.9625000000000039  
0.80000000000002602 1.6764367671839892e-014 4.7999999999999652  0.750000000000004 0.99999999999998046 4.9499999999999762  
0.74999999999997813 1.6306400674181961e-014 4.8000000000000469  0.68749999999999967 1.0000000000000169 4.9375000000000426  
0.70000000000001172 1.5848433676524122e-014 4.7999999999999705  0.62500000000000089 0.99999999999999023 4.9249999999999652  
0.64999999999999603 1.5390466678866226e-014 4.8000000000000114  0.56250000000000056 1.0000000000000018 4.9125000000000076  
0.55000000000000071 1.4474532683550488e-014 4.7999999999999954  0.43750000000000056 0.99999999999999878 4.8874999999999975  
0.49999999999999512 1.4016565685892557e-014 4.8000000000000167  0.37500000000000405 0.999999999999997 4.875  
0.45000000000000884 1.3558598688234819e-014 4.7999999999999901  0.31249999999999506 1.0000000000000084 4.8625000000000025  
0.39999999999998481 1.3100631690576721e-014 4.7999999999999936  0.25000000000000655 0.99999999999998279 4.8500000000000121  
0.35000000000001197 1.2642664692919081e-014 4.8000000000000203  0.18750000000000031 1.0000000000000147 4.8374999999999693  
0.29999999999999116 1.2184697695261024e-014 4.7999999999999901  0.12499999999999935 0.9999999999999909 4.8250000000000277  
0.25000000000000144 1.1268763699945339e-014 4.8000000000000043  0.062500000000004302 1.0000000000000013 4.8124999999999893  
0.19999999999999771 1.1268763699945339e-014 4.8000000000000007  2.9837243786801082e-016 0.99999999999999911 4.8000000000000007  

0 9
0.5 7
1 9

0 2
1 2

1 1.0000000000000002 20 0.20000000000000073 0.039193090083480382 -0.19596545041740621 0.97982725208702548 -0.7715167498104607 0.61721339984836643 0.15430334996209191 -0.63500063500095139 -0.76200076200114386 -0.127000127000192 
1 0 0 0 0 0 1 1 0 -0 -0 1 0 
1 1.0000000000000002 20 4.7999999999999998 0.039193090083480223 -0.19596545041740615 -0.97982725208702559 0.77151674981045903 -0.61721339984836809 0.154303349962092 -0.63500063500095316 -0.76200076200114231 0.12700012700019167 
1 0 0 5 0 0 1 1 0 -0 -0 1 0 
1 0 20 0 -0 1 0 0 0 1 1 0 -0 
1 0 0.5 0.10000000000000001 0 -0.19611613513818402 -0.98058067569092011 1 0 0 -0 0.98058067569092022 -0.19611613513818404 
1 0 0.5 4.9000000000000004 0 0.19611613513818418 -0.98058067569092011 1 -0 0 -0 0.98058067569092011 0.19611613513818418 
1 19.899999999999999 0.5 0 -0.98058067569092022 0.19611613513818335 3.4874414115229796e-018 3.4197176557437003e-018 -6.8394353114873764e-019 1 0.19611613513818338 0.98058067569092033 0 
1 0 19.5 0.10000000000000001 0 -0.19611613513818402 0.98058067569092011 1 0 0 0 -0.98058067569092022 -0.19611613513818404 
1 19.5 0 0.10000000000000001 -0.19611613513818402 0 0.98058067569092011 0 1 -0 0.98058067569092022 -0 0.19611613513818404 
1 0 19.5 4.9000000000000004 0 0.19611613513818418 0.98058067569092011 1 0 -0 -0 0.98058067569092011 -0.19611613513818418 
1 19.5 0 4.9000000000000004 0.19611613513818418 0 0.98058067569092011 -0 1 0 0.98058067569092011 0 -0.19611613513818418 
3 10 10 5.2000000000000002 0 0 1 1 0 0 -0 1 -0 7.0710678118654755
-1.3734007669450157
1 19.899999999999999 19.5 0 0.98058067569092022 0.19611613513818335 -3.4874414115229796e-018 3.4197176557437003e-018 6.8394353114873764e-019 1 0.19611613513818338 -0.98058067569092033 0 
1 20 1.0000000000000002 0.20000000000000073 -0.19596545041740621 0.039193090083480382 0.97982725208702548 -0.61721339984836643 0.7715167498104607 -0.15430334996209191 -0.76200076200114386 -0.63500063500095139 -0.127000127000192 
1 20 1.0000000000000002 4.7999999999999998 -0.19596545041740615 0.039193090083480223 -0.97982725208702559 0.61721339984836809 -0.77151674981045915 -0.154303349962092 -0.76200076200114242 -0.63500063500095316 0.1270001270001917 
1 20 0 0 1 0 -0 0 0 1 0 -1 0 
1 20 18.999999999999996 0.20000000000000073 0.19596545041740615 0.039193090083480944 -0.97982725208702537 -0.61721339984836765 -0.77151674981045959 -0.15430334996209252 -0.76200076200114286 0.63500063500095272 -0.12700012700019137 
1 20 18.999999999999996 4.7999999999999998 0.19596545041740626 0.039193090083480972 0.97982725208702537 0.61721339984836787 0.77151674981045926 -0.15430334996209266 -0.76200076200114253 0.63500063500095294 0.12700012700019137 
2 10 10 5 -0 -0 -1 1 0 0 0 1 0 7.0710678118654755
3 10 10 9 0 0 1 1 0 0 -0 1 -0 7.0710678118654755
-0.19739555984988008
1 0 0 0 0 0 1 1 0 0 0 1 0 
Triangulations 0

TShapes 151
Ve
0.0001
1.14561138353508e-014 0.999999999999999 0.199999999999998
0 0

0101101
*
Ve
0.0001
2.98372437868011e-016 0.999999999999999 4.8
0 0

0101101
*
Ed
 1.00005e-007 1 1 0
1  1 0 0.2 4.8
2  1 2 0 0.2 4.8
2  2 1 0 0.2 4.8
0

0101000
+151 0 -150 0 *
Ve
0.0001
5.55111512312578e-017 19.8 0.2
0 0

0101101
*
Ed
 1.00005e-007 1 1 0
1  2 0 1 19.8
2  3 3 0 1 19.8
2  4 1 0 1 19.8
0

0101000
+151 0 -148 0 *
Ve
0.0001
1.6817491816853e-016 19.8 4.8
0 0

0101101
*
Ed
 1.00005e-007 1 1 0
1  3 0 1 19.8
2  5 4 0 1 19.8
2  6 1 0 1 19.8
0

0101000
+150 0 -146 0 *
Ed
 1.00005e-007 1 1 0
1  4 0 0.2 4.8
2  7 5 0 0.2 4.8
2  8 1 0 0.2 4.8
0

0101000
+148 0 -146 0 *
Wi

0101100
-149 0 +147 0 -145 0 +144 0 *
Fa
0  1e-007 1 0

0101000
+143 0 *
Ve
0.0001
0.200000000000009 1.12687636999453e-014 0.2
0 0

0101101
*
Ed
 0.0001 1 1 0
1  5 0 0 1
2  9 2 0 0 1
2  10 6 0 0 1
0

0101000
+141 0 -151 0 *
Ve
0.0001
0.199999999999998 1.12687636999453e-014 4.8
0 0

0101101
*
Ed
 1.00005e-007 1 1 0
1  6 0 0.2 4.8
2  11 2 0 0.2 4.8
2  12 7 0 0.2 4.8
0

0101000
+141 0 -139 0 *
Ed
 0.0001 1 1 0
1  7 0 0 1
2  13 2 0 0 1
2  14 8 0 0 1
0

0101000
+139 0 -150 0 *
Wi

0101100
+140 0 -138 0 +149 0 -137 0 *
Fa
0  0 2 0

0101000
+136 0 *
Ve
0.0001
0.999999999999999 0.999999999999999 3.7470027081099e-016
0 0

0101101
*
Ed
 0.0001 1 1 0
1  8 0 0 1
2  15 3 0 0 1
2  16 6 0 0 1
0

0101000
+134 0 -151 0 *
Ve
0.0001
1 19 3.2612801348364e-016
0 0

0101101
*
Ed
 1.00005e-007 1 1 0
1  9 0 5.33889590868838 6.63504404836995
2  17 3 0 5.33889590868838 6.63504404836995
2  18 9 0 5.33889590868838 6.63504404836995
0

0101000
+132 0 -148 0 *
Ed
 1.00005e-007 1 1 0
1  10 0 1 19
2  19 3 0 1 19
2  20 10 0 1 19
0

0101000
+134 0 -132 0 *
Wi

0101100
+147 0 +133 0 -131 0 -130 0 *
Fa
0  0 3 0

0101000
+129 0 *
Ve
0.0001
1 1 5
0 0

0101101
*
Ed
 0.0001 1 1 0
1  11 0 0 1
2  21 4 0 0 1
2  22 8 0 0 1
0

0101000
+127 0 -150 0 *
Ve
0.0001
1 19 5
0 0

0101101
*
Ed
 1.00005e-007 1 1 0
1  12 0 -6.63504404836995 -5.33889590868838
2  23 4 0 -6.63504404836995 -5.33889590868838
2  24 11 0 -6.63504404836995 -5.33889590868838
0

0101000
+146 0 -125 0 *
Ed
 1.00005e-007 1 1 0
1  13 0 1 19
2  25 4 0 1 19
2  26 12 0 1 19
0

0101000
+127 0 -125 0 *
Wi

0101100
+145 0 +126 0 +124 0 -123 0 *
Fa
0  0 4 0

0101000
+122 0 *
Ve
0.0001
1 20 0.200000000000001
0 0

0101101
*
Ed
 1.00005e-007 1 1 0
1  14 0 -0.25495097567964 0.764852927038918
2  27 5 0 -0.25495097567964 0.764852927038918
0

0101000
+120 0 -148 0 *
Ve
0.0001
1 20 4.8
0 0

0101101
*
Ed
 1.00005e-007 1 1 0
1  15 0 0.200000000000001 4.8
2  28 5 0 0.200000000000001 4.8
2  29 13 0 0.200000000000001 4.8
0

0101000
+120 0 -118 0 *
Ed
 1.00005e-007 1 1 0
1  16 0 -0.254950975679638 0.764852927038919
2  30 5 0 -0.254950975679638 0.764852927038919
0

0101000
+118 0 -146 0 *
Wi

0101100
+119 0 -117 0 +144 0 -116 0 *
Fa
0  0 5 0

0101000
+115 0 *
Ve
0.0001
1 1.12687636999453e-014 0.199999999999998
0 0

0101101
*
Ed
 0.0001 1 1 0
1  17 0 0 1
2  31 14 0 0 1
2  32 6 0 0 1
0

0101000
+113 0 -134 0 *
Ed
 0.0001 1 1 0
1  18 0 0 1
2  33 6 0 0 1
2  34 7 0 0 1
0

0101000
+113 0 -141 0 *
Wi

0101100
-112 0 +111 0 -133 0 +140 0 *
Fa
0  0.0001 6 0

0101000
+110 0 *
Ve
0.0001
1 1.85962356624714e-014 4.8
0 0

0101101
*
Ed
 0.0001 1 1 0
1  19 0 0 1
2  35 8 0 0 1
2  36 7 0 0 1
0

0101000
+108 0 -139 0 *
Ve
0.0001
19.8 5.54427568781429e-017 0.2
0 0

0101101
*
Ed
 1.00005e-007 1 1 0
1  20 0 1 19.8
2  37 14 0 1 19.8
2  38 7 0 1 19.8
0

0101000
+113 0 -106 0 *
Ve
0.0001
19.8 1.64891989219017e-016 4.8
0 0

0101101
*
Ed
 1.00005e-007 1 1 0
1  21 0 1 19.8
2  39 15 0 1 19.8
2  40 7 0 1 19.8
0

0101000
+108 0 -104 0 *
Ed
 1.00005e-007 1 1 0
1  22 0 0.2 4.8
2  41 16 0 0.2 4.8
2  42 7 0 0.2 4.8
0

0101000
+106 0 -104 0 *
Wi

0101100
+138 0 +111 0 -107 0 -105 0 +103 0 -102 0 *
Fa
0  1e-007 7 0

0101000
+101 0 *
Ed
 0.0001 1 1 0
1  23 0 0 1
2  43 15 0 0 1
2  44 8 0 0 1
0

0101000
+108 0 -127 0 *
Wi

0101100
-99 0 +107 0 -126 0 +137 0 *
Fa
0  0.0001 8 0

0101000
+98 0 *
Ed
 1.00005e-007 1 1 0
1  24 0 -0.254950975679654 0.7648529270389
2  45 17 0 -0.254950975679654 0.7648529270389
0

0101000
+120 0 -132 0 *
Wi

0101100
-96 0 +119 0 -131 0 *
Fa
0  0 9 0

0101000
+95 0 *
Ve
0.0001
19 1 3.2612801348364e-016
0 0

0101101
*
Ed
 1.00005e-007 1 1 0
1  25 0 1 19
2  46 14 0 1 19
2  47 10 0 1 19
0

0101000
+134 0 -93 0 *
Ve
0.0001
19 19 6.66133814775094e-016
0 0

0101101
*
Ed
 1.00005e-007 1 1 0
1  26 0 1 19
2  48 17 0 1 19
2  49 10 0 1 19
0

0101000
+132 0 -91 0 *
Ed
 1.00005e-007 1 1 0
1  27 0 1 19
2  50 18 0 1 19
2  51 10 0 1 19
0

0101000
+93 0 -91 0 *
Wi

0101100
-130 0 +92 0 -90 0 +89 0 *
Fa
0  1e-007 10 0

0101000
+88 0 *
Ed
 1.00005e-007 1 1 0
1  28 0 -0.25495097567965 0.764852927038907
2  52 19 0 -0.25495097567965 0.764852927038907
0

0101000
+118 0 -125 0 *
Wi

0101100
-116 0 +86 0 -124 0 *
Fa
0  0 11 0

0101000
+85 0 *
Ve
0.0001
19 1 5
0 0

0101101
*
Ed
 1.00005e-007 1 1 0
1  29 0 1 19
2  53 15 0 1 19
2  54 12 0 1 19
0

0101000
+127 0 -83 0 *
Ve
0.0001
19 19 5
0 0

0101101
*
Ed
 1.00005e-007 1 1 0
1  30 0 1 19
2  55 19 0 1 19
2  56 12 0 1 19
0

0101000
+125 0 -81 0 *
Ed
 1.00005e-007 1 1 0
1  31 0 1 19
2  57 20 0 1 19
2  58 12 0 1 19
0

0101000
+83 0 -81 0 *
Wi

0101100
-123 0 +82 0 -80 0 +79 0 *
Ve
1e-007
18.0710678118655 10 5
0 0

0101101
*
Ed
 1e-007 1 1 0
1  32 0 0 6.28318530717959
2  59 21 0 0 6.28318530717959
2  60 12 0 0 6.28318530717959
0

0101000
+77 0 -77 0 *
Wi

0101100
-76 0 *
Fa
0  1e-007 12 0

0101000
+78 0 +75 0 *
Ve
0.0001
19.8 20 0.200000000000001
0 0

0101101
*
Ed
 1.00005e-007 1 1 0
1  33 0 1 19.8
2  61 17 0 1 19.8
2  62 13 0 1 19.8
0

0101000
+120 0 -73 0 *
Ve
0.0001
19.8 20 4.8
0 0

0101101
*
Ed
 1.00005e-007 1 1 0
1  34 0 1 19.8
2  63 19 0 1 19.8
2  64 13 0 1 19.8
0

0101000
+118 0 -71 0 *
Ed
 1.00005e-007 1 1 0
1  35 0 0.200000000000001 4.8
2  65 22 0 0.200000000000001 4.8
2  66 13 0 0.200000000000001 4.8
0

0101000
+73 0 -71 0 *
Wi

0101100
+117 0 -72 0 +70 0 -69 0 *
Fa
0  1e-007 13 0

0101000
+68 0 *
Ed
 1.00005e-007 1 1 0
1  36 0 -6.63504404836995 -5.33889590868838
2  67 14 0 -6.63504404836995 -5.33889590868838
2  68 23 0 -6.63504404836995 -5.33889590868838
0

0101000
+106 0 -93 0 *
Wi

0101100
-112 0 +105 0 -92 0 +66 0 *
Fa
0  0 14 0

0101000
+65 0 *
Ed
 1.00005e-007 1 1 0
1  37 0 5.33889590868838 6.63504404836996
2  69 15 0 5.33889590868838 6.63504404836996
2  70 24 0 5.33889590868838 6.63504404836996
0

0101000
+83 0 -104 0 *
Wi

0101100
-99 0 +103 0 -82 0 -63 0 *
Fa
0  0 15 0

0101000
+62 0 *
Ve
0.0001
20 1 0.200000000000001
0 0

0101101
*
Ed
 1.00005e-007 1 1 0
1  38 0 -0.25495097567964 0.764852927038918
2  71 16 0 -0.25495097567964 0.764852927038918
0

0101000
+60 0 -106 0 *
Ve
0.0001
20 1 4.8
0 0

0101101
*
Ed
 1.00005e-007 1 1 0
1  39 0 0.200000000000001 4.8
2  72 16 0 0.200000000000001 4.8
2  73 25 0 0.200000000000001 4.8
0

0101000
+60 0 -58 0 *
Ed
 1.00005e-007 1 1 0
1  40 0 -0.254950975679638 0.764852927038919
2  74 16 0 -0.254950975679638 0.764852927038919
0

0101000
+58 0 -104 0 *
Wi

0101100
+59 0 -57 0 +102 0 -56 0 *
Fa
0  0 16 0

0101000
+55 0 *
Ed
 1.00005e-007 1 1 0
1  41 0 -6.63504404836993 -5.33889590868837
2  75 17 0 -6.63504404836993 -5.33889590868837
2  76 26 0 -6.63504404836993 -5.33889590868837
0

0101000
+73 0 -91 0 *
Wi

0101100
-96 0 +72 0 -90 0 +53 0 *
Fa
0  0 17 0

0101000
+52 0 *
Ed
 1.00005e-007 1 1 0
1  42 0 -0.254950975679654 0.7648529270389
2  77 18 0 -0.254950975679654 0.7648529270389
0

0101000
+60 0 -93 0 *
Ve
0.0001
20 19 0.200000000000001
0 0

0101101
*
Ed
 1.00005e-007 1 1 0
1  43 0 1 19
2  78 18 0 1 19
2  79 25 0 1 19
0

0101000
+60 0 -49 0 *
Ed
 1.00005e-007 1 1 0
1  44 0 -0.254950975679386 0.764852927039168
2  80 18 0 -0.254950975679386 0.764852927039168
0

0101000
+49 0 -91 0 *
Wi

0101100
+50 0 -48 0 +89 0 -47 0 *
Fa
0  0 18 0

0101000
+46 0 *
Ed
 1.00005e-007 1 1 0
1  45 0 5.33889590868836 6.63504404836994
2  81 19 0 5.33889590868836 6.63504404836994
2  82 27 0 5.33889590868836 6.63504404836994
0

0101000
+81 0 -71 0 *
Wi

0101100
+86 0 -70 0 +80 0 +44 0 *
Fa
0  0 19 0

0101000
+43 0 *
Ed
 1.00005e-007 1 1 0
1  46 0 -0.25495097567965 0.764852927038907
2  83 20 0 -0.25495097567965 0.764852927038907
0

0101000
+58 0 -83 0 *
Ve
0.0001
20 19 4.8
0 0

0101101
*
Ed
 1.00005e-007 1 1 0
1  47 0 1 19
2  84 20 0 1 19
2  85 25 0 1 19
0

0101000
+58 0 -40 0 *
Ed
 1.00005e-007 1 1 0
1  48 0 -0.254950975679397 0.764852927039161
2  86 20 0 -0.254950975679397 0.764852927039161
0

0101000
+40 0 -81 0 *
Wi

0101100
+41 0 -39 0 +79 0 -38 0 *
Fa
0  0 20 0

0101000
+37 0 *
Ve
1.00005e-007
17.0710678118655 10 5.2
0 0

0101101
*
Ed
 1e-007 1 1 0
1  49 0 -1.01980390271856 0
3  87 88CN 21 0 -1.01980390271856 0
0

0101000
+77 0 -35 0 *
Ed
 1e-007 1 1 0
1  50 0 0 6.28318530717959
2  89 21 0 0 6.28318530717959
2  90 28 0 0 6.28318530717959
0

0101000
+35 0 -35 0 *
Wi

0101100
-34 0 +76 0 -33 0 +34 0 *
Fa
0  0 21 0

0101000
+32 0 *
Ed
 1.00005e-007 1 1 0
1  51 0 -0.254950975679643 0.764852927038918
2  91 22 0 -0.254950975679643 0.764852927038918
0

0101000
+49 0 -73 0 *
Ed
 1.00005e-007 1 1 0
1  52 0 0.200000000000001 4.8
2  92 22 0 0.200000000000001 4.8
2  93 25 0 0.200000000000001 4.8
0

0101000
+49 0 -40 0 *
Ed
 1.00005e-007 1 1 0
1  53 0 -0.254950975679643 0.764852927038918
2  94 22 0 -0.254950975679643 0.764852927038918
0

0101000
+40 0 -71 0 *
Wi

0101100
+30 0 -29 0 +69 0 -28 0 *
Fa
0  0 22 0

0101000
+27 0 *
Wi

0101100
-59 0 +50 0 -66 0 *
Fa
0  0 23 0

0101000
+25 0 *
Wi

0101100
-41 0 +56 0 -63 0 *
Fa
0  0 24 0

0101000
+23 0 *
Wi

0101100
-57 0 +48 0 -39 0 +29 0 *
Fa
0  1e-007 25 0

0101000
+21 0 *
Wi

0101100
-30 0 +47 0 -53 0 *
Fa
0  0 26 0

0101000
+19 0 *
Wi

0101100
-38 0 +28 0 -44 0 *
Fa
0  0 27 0

0101000
+17 0 *
Ve
1.00005e-007
17.0710678118655 10 9
0 0

0101101
*
Ed
 1.00005e-007 1 1 0
1  54 0 0.2 4
3  95 96CN 28 0 0.2 4
0

0101000
+35 0 -15 0 *
Ed
 1e-007 1 1 0
1  55 0 0 6.28318530717959
2  97 29 0 0 6.28318530717959
2  98 28 0 0 6.28318530717959
0

0101000
+15 0 -15 0 *
Wi

0101100
-14 0 -33 0 +13 0 +14 0 *
Fa
0  1.00005e-007 28 0

0101000
+12 0 *
Ve
1e-007
16.8710678118655 10 10
0 0

0101101
*
Ed
 1e-007 1 1 0
1  56 0 0 1.01980390271856
3  99 100CN 29 0 0 1.01980390271856
0

0101000
+15 0 -10 0 *
Ed
 1e-007 1 1 0
1  57 0 0 6.28318530717959
2  101 29 0 0 6.28318530717959
2  102 30 4 0 6.28318530717959
0

0101000
+10 0 -10 0 *
Wi

0101100
-9 0 +13 0 -8 0 +9 0 *
Fa
0  0 29 0

0101000
+7 0 *
Wi

0101100
+8 0 *
Fa
0  1e-007 30 0

0101000
+5 5 *
Sh

0101100
-142 0 -135 0 +128 0 -121 0 +114 0 +109 0 -100 0 -97 0 -94 0 -87 0 
-84 0 +74 0 +67 0 -64 0 +61 0 -54 0 +51 0 +45 0 +42 0 -36 0 
+31 0 +26 0 -24 0 -22 0 +20 0 +18 0 +16 0 -11 0 +6 0 +4 4 
*
So

0100000
+3 0 *
Co

1100000
+2 0 *

+1 1  