
CASCADE Topology V1, (c) Matra-Datavision
Locations 5
1
              1               0               0             -10 
              0               1               0             -10 
              0               0               1               0 
1
              1               0               0              10 
              0               1               0              10 
              0               0               1               5 
1
              1               0               0               0 
              0               1               0               0 
              0               0               1               5 
2  2 1 3 1 0
2  3 -1 2 -1 0
Curve2ds 110
1 0 -0.50990195135927852 1 0 
1 0 -0.20000000000000001 1 0 
1 0 -0.50990195135927852 1 0 
1 1 0 0 -1 
1 0 -0.50990195135927907 1 0 
1 4 0 0 -1 
1 0 -0.50990195135927507 1 0 
1 0 -19 1 0 
8 0 1
6 0 1 1 -0.50990195135927852  1 0.50990195135927852  
1 0 1 1 0 
8 0 1
6 0 1 3.9999999999999996 -0.50990195135927852  3.9999999999999996 0.50990195135927852  
1 0 1 1 0 
1 0 0.50990195135927852 1 0 
1 0 1 1 0 
8 0 1
7 0 0  1 2 2  0.20000000000000001 0.50990195135927852  0.20000000000000001 -0.50990195135927852 
 0 2 1 2
8 0 1
1 0 0 0 1 
1 0 0.50990195135927852 1 0 
1 0.20000000000000001 0 0 1 
8 0 1
7 0 0  1 2 2  19.000000000000004 0.50990195135927852  19.000000000000004 -0.50990195135927852 
 0 2 1 2
8 0 1
1 0 0 0 1 
8 0 1
7 0 0  1 2 2  0.20000000000000001 0.50990195135927774  0.20000000000000001 -0.50990195135927907 
 0 2 1 2
8 0 1
1 0 0 0 1 
1 0 0.50990195135927774 1 0 
1 0.20000000000000001 0 0 1 
1 15.704761904761925 -4.7105227887476309 0.61721339984836698 0.78679579246944376 
1 -5.9869699785291601 0.7874007874011677 1 -4.9960036108132044e-016 
8 0 1
6 0 1 1 -0.50990195135927507  1.0000000000000002 0.50990195135928218  
1 0 1 1 0 
1 4.0000000000004619 0.25495097567969366 2.7618834001195028e-014 -1 
1 0 0.50990195135928218 1 0 
1 0 0.20000000000000001 1 0 
1 0 0 1 0 
8 0 1
6 0 1 0.20000000000000001 0.20000000000000001  1 0.20000000000000001  
8 0 1
7 0 0  1 2 2  1 0.50990195135927852  1 -0.50990195135927852 
 0 2 1 2
8 0 1
1 1 0 0 1 
1 0 0 1 0 
8 0 1
6 0 1 0.20000000000000001 0.20000000000000001  1 0.20000000000000001  
8 0 1
7 0 0  1 2 2  1 0.50990195135927774  1 -0.50990195135927907 
 0 2 1 2
8 0 1
1 1 0 0 1 
1 0 -0.50990195135927852 1 0 
1 1 0 0 1 
1 0 -0.50990195135927907 1 0 
1 4 0 0 1 
1 0 -0.50990195135927507 1 0 
1 0 19 1 0 
1 0 0 1 0 
8 0 1
6 0 1 0.20000000000000001 19.000000000000004  0.20000000000000073 19.800000000000001  
1 0 0.50990195135927852 1 0 
1 0 0.20000000000000001 1 0 
1 0 0.50990195135927818 1 0 
1 0 19.800000000000001 1 0 
1 0 -0.50990195135927818 1 0 
1 19.800000000000001 0 0 1 
8 0 1
7 0 0  1 2 2  0.20000000000000073 0.50990195135927818  0.20000000000000073 -0.50990195135927863 
 0 2 1 2
8 0 1
1 1 0 0 1 
1 0 -0.50990195135927774 1 0 
1 0 19.800000000000001 1 0 
1 0 0.50990195135927774 1 0 
1 0 0.20000000000000001 1 0 
1 0 -0.50990195135927774 1 0 
1 19.800000000000001 0 0 1 
1 0 0 1 0 
8 0 1
6 0 1 19.000000000000004 0.20000000000000001  19.800000000000001 0.20000000000000073  
1 0 -1.019803902718557 1 0 
2 10 10 1 0 -0 1 7.2710678118654757
1 0.20000000000000034 0.2549509756796387 -7.2233873541585823e-016 -1 
1 0 -0.50990195135927863 1 0 
1 1 0 0 1 
1 -1.2325951644078309e-032 0.50990195135927863 1 0 
1 4 0 0 1 
1 0 -0.5099019513592804 1 0 
1 0 19 1 0 
1 15.70476190476186 -4.7105227887475793 0.61721339984836709 0.78679579246944364 
1 -5.9869699785291601 0.78740078740125208 1 -1.2212453270876722e-015 
8 0 1
7 0 0  1 2 2  19.000000000000004 0.50990195135927774  19.000000000000004 -0.50990195135927907 
 0 2 1 2
8 0 1
1 0 0 0 1 
1 0.99999999999983336 0.25495097567962482 -2.7618834001195031e-014 -1 
1 0 0.50990195135928218 1 0 
1 0 -0.20000000000000001 1 0 
8 0 1
6 0 1 3.9999999999999996 -0.50990195135927507  4 0.50990195135928218  
1 0 1 1 0 
1 15.704761904761895 -4.7105227887476406 0.61721339984836976 0.78679579246944154 
1 -5.9869699785291868 0.78740078740115749 1 0 
1 0.19999999999999984 0.25495097567963904 -7.1525698310785979e-016 -1 
1 0 0.50990195135927863 1 0 
1 1 0 0 -1 
1 19.800000000000004 0.25495097567964592 6.8692997387586493e-016 -1 
1 15.704761904761895 4.7105227887476397 -0.61721339984836965 0.78679579246944165 
1 5.9869699785291868 0.78740078740115704 1 -4.4408920985006262e-016 
8 0 1
7 0 0  1 2 2  0.20000000000000073 -0.50990195135927774  0.20000000000000073 0.50990195135927863 
 0 2 1 2
8 0 1
1 1 0 0 1 
1 1.2325951644078309e-032 0.50990195135927863 1 0 
1 4 0 0 -1 
1 19.800000000000004 0.25495097567964548 6.5860296464387047e-016 -1 
8 -1.019803902718557 0
1 6.2831853071795862 0 0 1 
8 -1.019803902718557 0
1 0 0 0 1 
1 0 0 1 0 
1 0 -1 1 0 
1 0.99999999999998379 0.2549509756796387 7.0817523079987811e-016 -1 
1 0 0.50990195135927507 1 0 
1 0 -19.800000000000001 1 0 
1 4.0000000000002087 0.2549509756796387 0 -1 
1 0 0 0 -1 
1 6.2831853071795862 0 0 -1 
1 0 0 1 0 
1 0 -4.8000000000000007 1 0 
8 0 1.019803902718557
1 6.2831853071795862 0 0 1 
8 0 1.019803902718557
1 0 0 0 1 
1 0 1.019803902718557 1 0 
2 0 0 1 0 -0 1 6.0710678118654755
Curves 59
1 0 0.20000000000000001 0 0 0 1 
1 0 0 1 -0 1 0 
1 0 0 4 -0 1 0 
1 0 19 0 0 0 1 
7 0 0  1 2 2  -1.366962099069724e-015 0.20000000000000034 0.99999999999999911  0.99999999999998868 2.4424906541753444e-015 0.99999999999999911 
 0 2 1 2
7 0 0  1 2 2  9.9920072216264089e-016 0.20000000000000034 4.0000000000000124  0.99999999999998868 4.8086534754077093e-015 4.0000000000000124 
 0 2 1 2
1 1 0 0 0 0 1 
7 0 0  1 2 2  0.19999999999999685 0.20000000000000001 1.1268763699945339e-014  -1.366962099069724e-015 0.20000000000000034 0.99999999999999911 
 0 2 1 2
1 0.20000000000000001 0 0 -0 1 0 
7 0 0  1 2 2  0.19999999999999774 18.999999999999968 1.1268763699945339e-014  7.3482886442377549e-015 19.000000000000039 0.99999999999999911 
 0 2 1 2
7 0 0  1 2 2  0.19999999999999679 0.20000000000000001 4.9999999999999876  9.9920072216264089e-016 0.20000000000000034 4.0000000000000124 
 0 2 1 2
1 0.20000000000000001 0 5 -0 1 0 
8 5.3388959086883787 6.6350440483699487
1 -0.82380952380952577 15.704761904761925 -0.11904761904762839 0.154303349962092 0.61721339984836698 0.77151674981046003 
7 0 0  1 2 2  7.3482886442377549e-015 19.000000000000039 0.99999999999999911  0.20000000000000617 20.000000000000036 0.99999999999999889 
 0 2 1 2
8 -0.25495097567958497 0.7648529270389649
1 0.15000000000001099 19.750000000000053 4.0000000000004619 -0.19611613513818402 -0.98058067569092011 2.7618834001195028e-014 
1 0.20000000000000001 20 0 0 0 1 
7 0 0  1 2 2  0.19999999999999685 0.20000000000000001 1.1268763699945339e-014  0.99999999999998912 0.19999999999999774 1.1268763699945339e-014 
 0 2 1 2
7 0 0  1 2 2  0.99999999999998912 0.19999999999999774 1.1268763699945339e-014  0.99999999999998868 2.4424906541753444e-015 0.99999999999999911 
 0 2 1 2
7 0 0  1 2 2  0.19999999999999679 0.20000000000000001 4.9999999999999876  0.99999999999998912 0.19999999999999768 4.9999999999999876 
 0 2 1 2
7 0 0  1 2 2  0.99999999999998912 0.19999999999999768 4.9999999999999876  0.99999999999998868 4.8086534754077093e-015 4.0000000000000124 
 0 2 1 2
1 0 0 1 1 0 -0 
1 0 0 4 1 0 -0 
1 19 0 0 0 0 1 
7 0 0  1 2 2  0.19999999999999774 18.999999999999968 1.1268763699945339e-014  0.20000000000000073 19.800000000000036 2.1038726316646716e-014 
 0 2 1 2
1 0 0.20000000000000001 0 1 0 -0 
1 0 19.800000000000001 0 1 0 -0 
1 19.800000000000001 0 0 -0 1 0 
7 0 0  1 2 2  0.20000000000000073 19.800000000000036 2.1038726316646716e-014  0.20000000000000617 20.000000000000036 0.99999999999999889 
 0 2 1 2
1 0 19.800000000000001 5 1 0 -0 
1 0 0.20000000000000001 5 1 0 -0 
1 19.800000000000001 0 5 0 1 0 
7 0 0  1 2 2  18.999999999999968 0.19999999999999768 4.9999999999999876  19.800000000000036 0.20000000000000073 4.9999999999999787 
 0 2 1 2
2 10 10 5 0 0 1 1 0 -0 -0 1 0 7.2710678118654757
8 -0.25495097567964009 0.76485292703891516
1 0.20000000000000034 19.949999999999996 4.25 -7.2233873541585823e-016 -0.19611613513818338 0.98058067569092033 
1 0 20 1 1 0 -0 
1 0 20 4 1 0 -0 
1 19 20 0 0 0 1 
8 5.3388959086883769 6.635044048369946
1 15.70476190476186 -0.82380952380951455 5.1190476190475787 0.61721339984836698 0.154303349962092 -0.77151674981045992 
7 0 0  1 2 2  18.999999999999968 0.19999999999999768 4.9999999999999876  19.000000000000039 9.7144514654701197e-015 4.0000000000000124 
 0 2 1 2
8 -0.2549509756796538 0.76485292703889973
1 19.749999999999986 0.14999999999999744 0.99999999999983336 -0.98058067569092011 -0.19611613513818402 -2.7618834001195031e-014 
1 20 0.20000000000000001 0 0 0 1 
7 0 0  1 2 2  19.000000000000039 9.7144514654701197e-015 4.0000000000000124  20.000000000000036 0.20000000000000617 4 
 0 2 1 2
8 5.3388959086883991 6.6350440483699735
1 15.704761904761895 20.823809523809523 5.1190476190476391 0.61721339984836976 -0.15430334996209108 -0.77151674981045804 
8 -0.25495097567963998 0.76485292703891627
1 19.949999999999996 0.19999999999999984 0.75000000000000033 -0.19611613513818338 -7.1525698310785979e-016 -0.98058067569092033 
1 20 0 1 -0 1 0 
8 -0.25495097567963215 0.76485292703892493
1 19.949999999999999 19.800000000000004 0.75000000000000666 -0.19611613513818338 6.8692997387586493e-016 -0.98058067569092033 
8 -6.6350440483699717 -5.3388959086883974
1 15.704761904761895 20.823809523809523 -0.11904761904763816 -0.61721339984836965 0.15430334996209108 -0.77151674981045815 
7 0 0  1 2 2  19.800000000000036 0.20000000000000073 4.9999999999999787  20.000000000000036 0.20000000000000617 4 
 0 2 1 2
1 20 0 4 0 1 0 
8 -0.2549509756796326 0.76485292703892183
1 19.949999999999999 19.800000000000004 4.2499999999999938 -0.19611613513818338 6.5860296464387047e-016 0.98058067569092033 
1 17.071067811865476 10 6 -0.19611613513818338 0 0.98058067569092033 
2 10 10 6 0 0 1 1 0 -0 -0 1 0 7.0710678118654755
8 -0.25495097567963587 0.76485292703892094
1 19.75 19.850000000000001 0.99999999999998379 -0.98058067569092033 0.19611613513818341 7.0817523079987811e-016 
1 20 19.800000000000001 0 0 0 1 
8 -0.25495097567963587 0.76485292703892094
1 19.75 19.850000000000001 4.0000000000002087 -0.98058067569092033 0.19611613513818338 -0 
1 17.071067811865476 10 5 0 0 1 
2 10 10 9.8000000000000007 0 0 1 1 0 -0 -0 1 0 7.0710678118654755
1 17.071067811865476 10 9.8000000000000007 -0.98058067569092033 0 0.19611613513818335 
2 10 10 10 0 0 1 1 0 -0 -0 1 0 6.0710678118654755
Polygon3D 0
PolygonOnTriangulations 0
Surfaces 30
1 0 0 0 1 0 -0 0 0 1 0 -1 0 
1 0.5 0.10000000000000001 0 -0.19611613513818402 -0.98058067569092011 0 0 0 1 0.98058067569092022 -0.19611613513818404 -0 
1 0.10000000000000001 0 0.5 -0.98058067569092011 0 -0.19611613513818402 0 1 0 0.19611613513818404 0 -0.98058067569092022 
1 0.10000000000000001 0 4.5 0.98058067569092011 0 -0.19611613513818402 0 1 0 0.19611613513818404 -0 0.98058067569092022 
1 0.10000000000000001 19.5 0 0.98058067569092011 -0.19611613513818402 0 0 0 1 0.19611613513818404 0.98058067569092022 -0 
9 0 0 0 0 1 1 2 2 2 2 0.19999999999999685 0.20000000000000001 1.1268763699945339e-014  -1.366962099069724e-015 0.20000000000000034 0.99999999999999911  
0.99999999999998912 0.19999999999999774 1.1268763699945339e-014  0.99999999999998868 2.4424906541753444e-015 0.99999999999999911  

0 2
1 2

0 2
1 2

9 0 0 0 0 1 1 2 2 2 2 0.19999999999999679 0.20000000000000001 4.9999999999999876  9.9920072216264089e-016 0.20000000000000034 4.0000000000000124  
0.99999999999998912 0.19999999999999768 4.9999999999999876  0.99999999999998868 4.8086534754077093e-015 4.0000000000000124  

0 2
1 2

0 2
1 2

1 0 0 0 -0 1 0 0 0 1 1 0 -0 
1 0 0 0 0 0 1 1 0 -0 -0 1 0 
9 0 0 0 0 1 1 2 2 2 2 0.19999999999999774 18.999999999999968 1.1268763699945339e-014  7.3482886442377549e-015 19.000000000000039 0.99999999999999911  
0.20000000000000073 19.800000000000036 2.1038726316646716e-014  0.20000000000000617 20.000000000000036 0.99999999999999889  

0 2
1 2

0 2
1 2

1 0 0 5 0 0 1 1 0 -0 -0 1 0 
1 0.20000000000000073 20 4 0.97982725208702559 -0.19596545041740623 -0.039193090083480382 0.15430334996209191 0.61721339984836654 0.77151674981046048 -0.12700012700019195 -0.76200076200114353 0.6350006350009515 
1 0 20 0 -0 1 0 0 0 1 1 0 -0 
1 0 0.10000000000000001 0.5 0 -0.98058067569092011 -0.19611613513818402 1 0 0 -0 0.19611613513818404 -0.98058067569092022 
1 0 0.10000000000000001 4.5 0 0.98058067569092011 -0.19611613513818402 1 -0 0 -0 0.19611613513818404 0.98058067569092022 
1 19.5 0.10000000000000001 0 -0.19611613513818402 0.98058067569092011 0 0 0 1 0.98058067569092022 0.19611613513818404 -0 
1 0 19.899999999999999 0.5 3.4874414115229796e-018 -0.98058067569092022 0.19611613513818335 1 3.4197176557437003e-018 -6.8394353114873764e-019 -0 -0.19611613513818338 -0.98058067569092033 
1 19.899999999999999 0 0.5 -0.98058067569092022 -3.4874414115229796e-018 0.19611613513818335 -3.4197176557437003e-018 1 6.8394353114873764e-019 0.19611613513818338 -0 0.98058067569092033 
1 0 19.899999999999999 4.5 -3.4874414115229796e-018 0.98058067569092022 0.19611613513818335 1 3.4197176557437003e-018 6.8394353114873764e-019 0 0.19611613513818338 -0.98058067569092033 
1 19.899999999999999 0 4.5 0.98058067569092022 3.4874414115229796e-018 0.19611613513818335 -3.4197176557437003e-018 1 -6.8394353114873764e-019 0.19611613513818338 -0 -0.98058067569092033 
9 0 0 0 0 1 1 2 2 2 2 18.999999999999968 0.19999999999999768 4.9999999999999876  19.000000000000039 9.7144514654701197e-015 4.0000000000000124  
19.800000000000036 0.20000000000000073 4.9999999999999787  20.000000000000036 0.20000000000000617 4  

0 2
1 2

0 2
1 2

3 10 10 6 0 0 1 1 0 0 -0 1 -0 7.0710678118654755
-0.19739555984988008
1 19.5 19.899999999999999 0 0.19611613513818335 0.98058067569092022 3.4874414115229796e-018 -6.8394353114873764e-019 -3.4197176557437003e-018 1 0.98058067569092033 -0.19611613513818338 0 
1 20 0.20000000000000073 1.0000000000000002 -0.19596545041740615 0.97982725208702526 0.039193090083480375 0.61721339984836621 0.15430334996209186 -0.7715167498104607 -0.76200076200114397 -0.127000127000192 -0.63500063500095105 
1 20 0 0 1 0 -0 0 0 1 0 -1 0 
1 19.999999999999996 19.800000000000001 1 0.19596545041740449 0.97982725208702592 -0.039193090083480077 0.61721339984836976 -0.15430334996209105 -0.77151674981045804 -0.76200076200114142 0.1270001270001902 -0.63500063500095438 
1 19.999999999999996 19.800000000000001 4 0.19596545041740451 0.97982725208702592 0.039193090083480105 -0.61721339984836998 0.15430334996209116 -0.77151674981045792 -0.76200076200114131 0.12700012700019017 0.63500063500095461 
2 10 10 5 -0 -0 -1 1 0 0 0 1 0 7.0710678118654755
3 10 10 9.8000000000000007 0 0 1 1 0 0 -0 1 -0 7.0710678118654755
-1.3734007669450166
1 0 0 0 0 0 1 1 0 0 0 1 0 
Triangulations 0

TShapes 155
Ve
0.0001
-1.36696209906972e-015 0.2 0.999999999999999
0 0

0101101
*
Ve
0.0001
9.99200722162641e-016 0.2 4.00000000000001
0 0

0101101
*
Ed
 1.00005e-007 1 1 0
1  1 0 1 4
2  1 2 0 1 4
2  2 1 0 1 4
0

0101000
+155 0 -154 0 *
Ve
0.0001
7.34828864423775e-015 19 0.999999999999999
0 0

0101101
*
Ed
 1.00005e-007 1 1 0
1  2 0 0.2 19
2  3 3 0 0.2 19
2  4 1 0 0.2 19
0

0101000
+155 0 -152 0 *
Ve
0.0001
2.77555756156289e-016 19 4
0 0

0101101
*
Ed
 1.00005e-007 1 1 0
1  3 0 0.2 19
2  5 4 0 0.2 19
2  6 1 0 0.2 19
0

0101000
+154 0 -150 0 *
Ed
 1.00005e-007 1 1 0
1  4 0 1 4
2  7 5 0 1 4
2  8 1 0 1 4
0

0101000
+152 0 -150 0 *
Wi

0101100
-153 0 +151 0 -149 0 +148 0 *
Fa
0  1e-007 1 0

0101000
+147 0 *
Ve
0.0001
0.999999999999989 2.44249065417534e-015 0.999999999999999
0 0

0101101
*
Ed
 0.0001 1 1 0
1  5 0 0 1
2  9 2 0 0 1
2  10 6 0 0 1
0

0101000
+155 0 -145 0 *
Ve
0.0001
0.999999999999989 4.80865347540771e-015 4.00000000000001
0 0

0101101
*
Ed
 0.0001 1 1 0
1  6 0 0 1
2  11 2 0 0 1
2  12 7 0 0 1
0

0101000
+154 0 -143 0 *
Ed
 1.00005e-007 1 1 0
1  7 0 1 4
2  13 2 0 1 4
2  14 8 0 1 4
0

0101000
+145 0 -143 0 *
Wi

0101100
+153 0 -144 0 +142 0 -141 0 *
Fa
0  0 2 0

0101000
+140 0 *
Ve
0.0001
0.199999999999997 0.2 1.12687636999453e-014
0 0

0101101
*
Ed
 0.0001 1 1 0
1  8 0 0 1
2  15 3 0 0 1
2  16 6 0 0 1
0

0101000
+138 0 -155 0 *
Ve
0.0001
0.199999999999998 19 1.12687636999453e-014
0 0

0101101
*
Ed
 1.00005e-007 1 1 0
1  9 0 0.2 19
2  17 3 0 0.2 19
2  18 9 0 0.2 19
0

0101000
+138 0 -136 0 *
Ed
 0.0001 1 1 0
1  10 0 0 1
2  19 3 0 0 1
2  20 10 0 0 1
0

0101000
+136 0 -152 0 *
Wi

0101100
+137 0 -135 0 +151 0 -134 0 *
Fa
0  0 3 0

0101000
+133 0 *
Ve
0.0001
0.199999999999997 0.2 4.99999999999999
0 0

0101101
*
Ed
 0.0001 1 1 0
1  11 0 0 1
2  21 4 0 0 1
2  22 7 0 0 1
0

0101000
+131 0 -154 0 *
Ve
0.0001
0.2 19.8 5
0 0

0101101
*
Ed
 1.00005e-007 1 1 0
1  12 0 0.2 19.8
2  23 4 0 0.2 19.8
2  24 11 0 0.2 19.8
0

0101000
+131 0 -129 0 *
Ed
 1.00005e-007 1 1 0
1  13 0 5.33889590868838 6.63504404836995
2  25 4 0 5.33889590868838 6.63504404836995
2  26 12 0 5.33889590868838 6.63504404836995
0

0101000
+150 0 -129 0 *
Wi

0101100
+130 0 -128 0 +149 0 +127 0 *
Fa
0  0 4 0

0101000
+126 0 *
Ve
0.0001
0.200000000000006 20 0.999999999999999
0 0

0101101
*
Ed
 0.0001 1 1 0
1  14 0 0 1
2  27 5 0 0 1
2  28 10 0 0 1
0

0101000
+152 0 -124 0 *
Ve
0.0001
0.200000000000001 20 4
0 0

0101101
*
Ed
 1.00005e-007 1 1 0
1  15 0 -0.254950975679585 0.764852927038965
2  29 5 0 -0.254950975679585 0.764852927038965
0

0101000
+122 0 -150 0 *
Ed
 1.00005e-007 1 1 0
1  16 0 1 4
2  30 5 0 1 4
2  31 13 0 1 4
0

0101000
+124 0 -122 0 *
Wi

0101100
+148 0 -123 0 -121 0 -120 0 *
Fa
0  0 5 0

0101000
+119 0 *
Ve
0.0001
0.999999999999989 0.199999999999998 1.12687636999453e-014
0 0

0101101
*
Ed
 0.0001 1 1 0
1  17 0 0 1
2  32 6 0 0 1
2  33 9 0 0 1
0

0101000
+138 0 -117 0 *
Ed
 0.0001 1 1 0
1  18 0 0 1
2  34 14 0 0 1
2  35 6 0 0 1
0

0101000
+117 0 -145 0 *
Wi

0101100
-137 0 +116 0 -144 0 +115 0 *
Fa
0  0.0001 6 0

0101000
+114 0 *
Ve
0.0001
0.999999999999989 0.199999999999998 4.99999999999999
0 0

0101101
*
Ed
 0.0001 1 1 0
1  19 0 0 1
2  36 7 0 0 1
2  37 11 0 0 1
0

0101000
+131 0 -112 0 *
Ed
 0.0001 1 1 0
1  20 0 0 1
2  38 15 0 0 1
2  39 7 0 0 1
0

0101000
+112 0 -143 0 *
Wi

0101100
-130 0 +111 0 -142 0 +110 0 *
Fa
0  0.0001 7 0

0101000
+109 0 *
Ve
0.0001
19 3.2612801348364e-016 1
0 0

0101101
*
Ed
 1.00005e-007 1 1 0
1  21 0 1 19
2  40 14 0 1 19
2  41 8 0 1 19
0

0101000
+145 0 -107 0 *
Ve
0.0001
19 9.71445146547012e-015 4.00000000000001
0 0

0101101
*
Ed
 1.00005e-007 1 1 0
1  22 0 1 19
2  42 15 0 1 19
2  43 8 0 1 19
0

0101000
+143 0 -105 0 *
Ed
 1.00005e-007 1 1 0
1  23 0 1 4
2  44 16 0 1 4
2  45 8 0 1 4
0

0101000
+107 0 -105 0 *
Wi

0101100
+141 0 -106 0 +104 0 -103 0 *
Fa
0  1e-007 8 0

0101000
+102 0 *
Ve
0.0001
0.200000000000001 19.8 2.10387263166467e-014
0 0

0101101
*
Ed
 0.0001 1 1 0
1  24 0 0 1
2  46 10 0 0 1
2  47 9 0 0 1
0

0101000
+136 0 -100 0 *
Ve
0.0001
19.8 0.2 5.55111512312578e-017
0 0

0101101
*
Ed
 1.00005e-007 1 1 0
1  25 0 1 19.8
2  48 14 0 1 19.8
2  49 9 0 1 19.8
0

0101000
+117 0 -98 0 *
Ve
0.0001
19.8 19.8 2.22044604925031e-016
0 0

0101101
*
Ed
 1.00005e-007 1 1 0
1  26 0 0.200000000000001 19.8
2  50 17 0 0.200000000000001 19.8
2  51 9 0 0.200000000000001 19.8
0

0101000
+100 0 -96 0 *
Ed
 1.00005e-007 1 1 0
1  27 0 0.2 19.8
2  52 18 0 0.2 19.8
2  53 9 0 0.2 19.8
0

0101000
+98 0 -96 0 *
Wi

0101100
-135 0 +116 0 -99 0 +97 0 -95 0 +94 0 *
Fa
0  1e-007 9 0

0101000
+93 0 *
Ed
 0.0001 1 1 0
1  28 0 0 1
2  54 17 0 0 1
2  55 10 0 0 1
0

0101000
+100 0 -124 0 *
Wi

0101100
-134 0 +99 0 -123 0 +91 0 *
Fa
0  0.0001 10 0

0101000
+90 0 *
Ve
0.0001
19.8 19.8 5
0 0

0101101
*
Ed
 1.00005e-007 1 1 0
1  29 0 0.2 19.8
2  56 19 0 0.2 19.8
2  57 11 0 0.2 19.8
0

0101000
+129 0 -88 0 *
Ve
0.0001
19 0.199999999999998 4.99999999999999
0 0

0101101
*
Ed
 1.00005e-007 1 1 0
1  30 0 1 19
2  58 15 0 1 19
2  59 11 0 1 19
0

0101000
+112 0 -86 0 *
Ve
0.0001
19.8 0.200000000000001 4.99999999999998
0 0

0101101
*
Ed
 1.00005e-007 1 1 0
1  31 0 0.200000000000001 19.8
2  60 20 0 0.200000000000001 19.8
2  61 11 0 0.200000000000001 19.8
0

0101000
+84 0 -88 0 *
Ed
 0.0001 1 1 0
1  32 0 0 1
2  62 21 0 0 1
2  63 11 0 0 1
0

0101000
+86 0 -84 0 *
Wi

0101100
-128 0 +111 0 -87 0 +85 0 +83 0 +82 0 *
Ve
1e-007
17.2710678118655 10 5
0 0

0101101
*
Ed
 1e-007 1 1 0
1  33 0 0 6.28318530717959
2  64 22 0 0 6.28318530717959
2  65 11 0 0 6.28318530717959
0

0101000
+80 0 -80 0 *
Wi

0101100
-79 0 *
Fa
0  1e-007 11 0

0101000
+81 0 +78 0 *
Ed
 1.00005e-007 1 1 0
1  34 0 -0.25495097567964 0.764852927038915
2  66 19 0 -0.25495097567964 0.764852927038915
0

0101000
+122 0 -129 0 *
Wi

0101100
-121 0 +76 0 -127 0 *
Fa
0  0 12 0

0101000
+75 0 *
Ve
0.0001
19 20 1
0 0

0101101
*
Ed
 1.00005e-007 1 1 0
1  35 0 0.200000000000001 19
2  67 17 0 0.200000000000001 19
2  68 13 0 0.200000000000001 19
0

0101000
+124 0 -73 0 *
Ve
0.0001
19 20 4
0 0

0101101
*
Ed
 1.00005e-007 1 1 0
1  36 0 0.200000000000001 19
2  69 19 0 0.200000000000001 19
2  70 13 0 0.200000000000001 19
0

0101000
+122 0 -71 0 *
Ed
 1.00005e-007 1 1 0
1  37 0 1 4
2  71 23 0 1 4
2  72 13 0 1 4
0

0101000
+73 0 -71 0 *
Wi

0101100
+120 0 -72 0 +70 0 -69 0 *
Fa
0  1e-007 13 0

0101000
+68 0 *
Ed
 1.00005e-007 1 1 0
1  38 0 5.33889590868838 6.63504404836995
2  73 14 0 5.33889590868838 6.63504404836995
2  74 24 0 5.33889590868838 6.63504404836995
0

0101000
+107 0 -98 0 *
Wi

0101100
+115 0 -97 0 +106 0 +66 0 *
Fa
0  0 14 0

0101000
+65 0 *
Ed
 0.0001 1 1 0
1  39 0 0 1
2  75 15 0 0 1
2  76 21 0 0 1
0

0101000
+86 0 -105 0 *
Wi

0101100
+110 0 -85 0 +104 0 -63 0 *
Fa
0  0 15 0

0101000
+62 0 *
Ve
0.0001
20 0.200000000000001 1
0 0

0101101
*
Ed
 1.00005e-007 1 1 0
1  40 0 -0.254950975679654 0.7648529270389
2  77 16 0 -0.254950975679654 0.7648529270389
0

0101000
+60 0 -107 0 *
Ve
0.0001
20 0.200000000000006 4
0 0

0101101
*
Ed
 1.00005e-007 1 1 0
1  41 0 1 4
2  78 16 0 1 4
2  79 25 0 1 4
0

0101000
+60 0 -58 0 *
Ed
 0.0001 1 1 0
1  42 0 0 1
2  80 16 0 0 1
2  81 21 0 0 1
0

0101000
+105 0 -58 0 *
Wi

0101100
+59 0 -57 0 +103 0 +56 0 *
Fa
0  0 16 0

0101000
+55 0 *
Ed
 1.00005e-007 1 1 0
1  43 0 5.3388959086884 6.63504404836997
2  82 17 0 5.3388959086884 6.63504404836997
2  83 26 0 5.3388959086884 6.63504404836997
0

0101000
+73 0 -96 0 *
Wi

0101100
+91 0 -95 0 +72 0 +53 0 *
Fa
0  0 17 0

0101000
+52 0 *
Ed
 1.00005e-007 1 1 0
1  44 0 -0.25495097567964 0.764852927038916
2  84 18 0 -0.25495097567964 0.764852927038916
0

0101000
+60 0 -98 0 *
Ve
0.0001
20 19.8 1
0 0

0101101
*
Ed
 1.00005e-007 1 1 0
1  45 0 0.200000000000001 19.8
2  85 18 0 0.200000000000001 19.8
2  86 25 0 0.200000000000001 19.8
0

0101000
+60 0 -49 0 *
Ed
 1.00005e-007 1 1 0
1  46 0 -0.254950975679632 0.764852927038925
2  87 18 0 -0.254950975679632 0.764852927038925
0

0101000
+49 0 -96 0 *
Wi

0101100
+50 0 -48 0 +94 0 -47 0 *
Fa
0  0 18 0

0101000
+46 0 *
Ed
 1.00005e-007 1 1 0
1  47 0 -6.63504404836997 -5.3388959086884
2  88 19 0 -6.63504404836997 -5.3388959086884
2  89 27 0 -6.63504404836997 -5.3388959086884
0

0101000
+88 0 -71 0 *
Wi

0101100
+76 0 -70 0 +87 0 +44 0 *
Fa
0  0 19 0

0101000
+43 0 *
Ed
 0.0001 1 1 0
1  48 0 0 1
2  90 20 0 0 1
2  91 21 0 0 1
0

0101000
+84 0 -58 0 *
Ve
0.0001
20 19.8 4
0 0

0101101
*
Ed
 1.00005e-007 1 1 0
1  49 0 0.200000000000001 19.8
2  92 20 0 0.200000000000001 19.8
2  93 25 0 0.200000000000001 19.8
0

0101000
+58 0 -40 0 *
Ed
 1.00005e-007 1 1 0
1  50 0 -0.254950975679633 0.764852927038922
2  94 20 0 -0.254950975679633 0.764852927038922
0

0101000
+40 0 -88 0 *
Wi

0101100
-41 0 +83 0 -39 0 -38 0 *
Fa
0  0 20 0

0101000
+37 0 *
Wi

0101100
-63 0 +82 0 -56 0 +41 0 *
Fa
0  0.0001 21 0

0101000
+35 0 *
Ve
1.00005e-007
17.0710678118655 10 6
0 0

0101101
*
Ed
 1e-007 1 1 0
1  51 0 -1.01980390271856 0
3  95 96CN 22 0 -1.01980390271856 0
0

0101000
+80 0 -33 0 *
Ed
 1e-007 1 1 0
1  52 0 0 6.28318530717959
2  97 22 0 0 6.28318530717959
2  98 28 0 0 6.28318530717959
0

0101000
+33 0 -33 0 *
Wi

0101100
-32 0 +79 0 -31 0 +32 0 *
Fa
0  0 22 0

0101000
+30 0 *
Ed
 1.00005e-007 1 1 0
1  53 0 -0.254950975679636 0.764852927038921
2  99 23 0 -0.254950975679636 0.764852927038921
0

0101000
+49 0 -73 0 *
Ed
 1.00005e-007 1 1 0
1  54 0 1 4
2  100 23 0 1 4
2  101 25 0 1 4
0

0101000
+49 0 -40 0 *
Ed
 1.00005e-007 1 1 0
1  55 0 -0.254950975679636 0.764852927038921
2  102 23 0 -0.254950975679636 0.764852927038921
0

0101000
+40 0 -71 0 *
Wi

0101100
+28 0 -27 0 +69 0 -26 0 *
Fa
0  0 23 0

0101000
+25 0 *
Wi

0101100
-59 0 +50 0 -66 0 *
Fa
0  0 24 0

0101000
+23 0 *
Wi

0101100
-57 0 +48 0 -39 0 +27 0 *
Fa
0  1e-007 25 0

0101000
+21 0 *
Wi

0101100
-28 0 +47 0 -53 0 *
Fa
0  0 26 0

0101000
+19 0 *
Wi

0101100
-38 0 +26 0 -44 0 *
Fa
0  0 27 0

0101000
+17 0 *
Ve
1.00005e-007
17.0710678118655 10 9.8
0 0

0101101
*
Ed
 1.00005e-007 1 1 0
1  56 0 1 4.8
3  103 104CN 28 0 1 4.8
0

0101000
+33 0 -15 0 *
Ed
 1e-007 1 1 0
1  57 0 0 6.28318530717959
2  105 29 0 0 6.28318530717959
2  106 28 0 0 6.28318530717959
0

0101000
+15 0 -15 0 *
Wi

0101100
-14 0 -31 0 +13 0 +14 0 *
Fa
0  1.00005e-007 28 0

0101000
+12 0 *
Ve
1e-007
16.0710678118655 10 10
0 0

0101101
*
Ed
 1e-007 1 1 0
1  58 0 0 1.01980390271856
3  107 108CN 29 0 0 1.01980390271856
0

0101000
+15 0 -10 0 *
Ed
 1e-007 1 1 0
1  59 0 0 6.28318530717959
2  109 29 0 0 6.28318530717959
2  110 30 4 0 6.28318530717959
0

0101000
+10 0 -10 0 *
Wi

0101100
-9 0 +13 0 -8 0 +9 0 *
Fa
0  0 29 0

0101000
+7 0 *
Wi

0101100
+8 0 *
Fa
0  1e-007 30 0

0101000
+5 5 *
Sh

0101100
-146 0 -139 0 +132 0 -125 0 +118 0 +113 0 -108 0 -101 0 -92 0 -89 0 
+77 0 -74 0 +67 0 -64 0 +61 0 -54 0 +51 0 +45 0 +42 0 -36 0 
-34 0 +29 0 +24 0 -22 0 +20 0 +18 0 +16 0 -11 0 +6 0 +4 4 
*
So

0100000
+3 0 *
Co

1100000
+2 0 *

+1 1  