
CASCADE Topology V1, (c) Matra-Datavision
Locations 1
1
              1               0               0               0 
              0               1               0               0 
              0               0               1               0 
Curve2ds 104
1 1.5407439555097887e-033 -1.5811388300841898 1 0 
1 0 -3 1 0 
1 -1.5407439555097887e-033 -1.5811388300841898 1 0 
1 3 0 0 -1 
1 0 -1.58113883008419 1 0 
1 9 0 0 -1 
1 0 -1.58113883008419 1 0 
1 0 -9 1 0 
8 0 1
6 0 1 3 -1.5811388300841898  3 1.5811388300841898  
1 0 1 1 0 
8 0 1
7 0 0  1 2 2  9 1.5811388300841898  9 -1.5811388300841898 
 0 2 1 2
8 0 1
1 1 0 0 1 
1 -1.5407439555097887e-033 1.5811388300841898 1 0 
1 0 1 1 0 
8 0 1
7 0 0  1 2 2  3 1.5811388300841898  3 -1.5811388300841898 
 0 2 1 2
8 0 1
1 0 0 0 1 
1 1.5407439555097887e-033 1.5811388300841898 1 0 
1 1 0 0 1 
8 0 1
7 0 0  1 2 2  9 1.5811388300841898  9 -1.5811388300841898 
 0 2 1 2
8 0 1
1 0 0 0 1 
8 0 1
6 0 1 2.9999999999999996 1.5811388300841891  3 -1.58113883008419  
1 0 1 1 0 
1 6.8571428571428577 1.8070158058105021 -0.53452248382484879 0.84515425472851657 
1 2.1380899352993952 2.5495097567963918 1 7.6327832942979512e-017 
1 0 1.5811388300841891 1 0 
1 3 0 0 1 
8 0 1
6 0 1 3 -1.58113883008419  2.9999999999999996 1.5811388300841891  
1 0 1 1 0 
1 9 0.79056941504209488 7.7037197775489434e-034 -1 
1 0 1.5811388300841891 1 0 
1 0 3 1 0 
1 0 0 1 0 
8 0 1
6 0 1 1 3  1 1  
8 0 1
7 0 0  1 2 2  1 1.5811388300841898  1 -1.5811388300841898 
 0 2 1 2
8 0 1
1 1 0 0 1 
8 0 1
7 0 0  1 2 2  2.9999999999999996 -1.58113883008419  2.9999999999999996 1.5811388300841891 
 0 2 1 2
8 0 1
1 0 0 0 1 
1 0 0 1 0 
8 0 1
6 0 1 9 2.9999999999999996  9 1  
1 1.5407439555097887e-033 -1.5811388300841898 1 0 
1 3 0 0 1 
1 0 1.58113883008419 1 0 
1 0 9 1 0 
1 0 -1.58113883008419 1 0 
1 9 0 0 1 
1 0 0 1 0 
8 0 1
6 0 1 9 7  9 9  
1 0 0 1 0 
8 0 1
6 0 1 1 9  2.9999999999999996 9  
1 -1.5407439555097887e-033 1.5811388300841898 1 0 
1 0 1 1 0 
1 0 1.58113883008419 1 0 
1 0 9 1 0 
1 0 0 1 0 
8 0 1
6 0 1 9 2.9999999999999996  9 1  
1 0 0 1 0 
8 0 1
6 0 1 9 9  7 9  
1 0 1.58113883008419 1 0 
1 9 0 0 1 
8 0 1
7 0 0  1 2 2  2.9999999999999996 1.58113883008419  2.9999999999999996 -1.5811388300841891 
 0 2 1 2
8 0 1
1 1 0 0 1 
1 2.9999999999999858 -0.79056941504209488 -7.7037197775489434e-034 1 
1 0 1.5811388300841891 1 0 
1 0 3 1 0 
1 0 1.5811388300841891 1 0 
1 0 7 1 0 
1 0 1.5811388300841891 1 0 
1 7 0 0 1 
1 0 -1.5811388300841891 1 0 
1 3 0 0 1 
1 0 -1.58113883008419 1 0 
1 9 0 0 1 
1 0 1.5811388300841891 1 0 
1 0 7 1 0 
8 0 1
7 0 0  1 2 2  9 1.5811388300841898  9 -1.5811388300841898 
 0 2 1 2
8 0 1
1 1 0 0 1 
8 0 1
7 0 0  1 2 2  7 -1.58113883008419  7 1.5811388300841891 
 0 2 1 2
8 0 1
1 0 0 0 1 
1 0 -1.5811388300841891 1 0 
1 0 -3 1 0 
8 0 1
6 0 1 2.9999999999999996 -1.5811388300841891  3 1.58113883008419  
1 0 1 1 0 
8 0 1
7 0 0  1 2 2  9 1.58113883008419  9 -1.5811388300841891 
 0 2 1 2
8 0 1
1 1 0 0 1 
8 0 1
6 0 1 2.9999999999999996 1.5811388300841891  2.9999999999999996 -1.58113883008419  
1 0 1 1 0 
8 0 1
7 0 0  1 2 2  7 1.58113883008419  7 -1.5811388300841891 
 0 2 1 2
8 0 1
1 1 0 0 1 
8 0 1
7 0 0  1 2 2  2.9999999999999996 1.58113883008419  2.9999999999999996 -1.5811388300841891 
 0 2 1 2
8 0 1
1 0 0 0 1 
8 0 1
7 0 0  1 2 2  9 1.58113883008419  9 -1.5811388300841891 
 0 2 1 2
8 0 1
1 0 0 0 1 
8 0 1
6 0 1 2.9999999999999996 -1.58113883008419  2.9999999999999996 1.5811388300841891  
1 0 1 1 0 
1 0 -1.5811388300841891 1 0 
1 3 0 0 -1 
1 6.9999999999999849 -0.79056941504209488 0 1 
1 0 -1.58113883008419 1 0 
1 9 0 0 -1 
1 6.8571428571428559 1.807015805810501 -0.53452248382484879 0.84515425472851657 
1 2.1380899352993947 2.549509756796394 1 7.6327832942979512e-017 
1 0 -1.58113883008419 1 0 
1 0 -9 1 0 
1 9 0.79056941504209488 7.7037197775489434e-034 -1 
Curves 54
1 0 3 0 0 0 1 
1 0 0 3 -0 1 0 
1 0 0 9 -0 1 0 
1 0 9 0 0 0 1 
7 0 0  1 2 2  1.1102230246251565e-016 3 3  0.99999999999998868 3.3917313402298532e-014 3 
 0 2 1 2
7 0 0  1 2 2  1.000000000000016 3.3861802251067274e-014 9  3.3362201889985954e-014 3 9.0000000000000142 
 0 2 1 2
1 1 0 0 0 0 1 
7 0 0  1 2 2  0.99999999999998868 2.9999999999999964 3.3861802251067274e-014  1.1102230246251565e-016 3 3 
 0 2 1 2
1 1 0 0 -0 1 0 
7 0 0  1 2 2  0.99999999999998579 9 4.0967229608668276e-014  -4.4408920985006262e-015 9 3 
 0 2 1 2
7 0 0  1 2 2  3.0000000000000049 3.0000000000000058 10.000000000000004  3.3362201889985954e-014 3 9.0000000000000142 
 0 2 1 2
8 -4.0089186286863656 -0.26726124191242451
1 3.214285714285714 6.8571428571428577 10.071428571428571 0.80178372573727308 -0.53452248382484879 0.26726124191242434 
1 3 0 10 -0 1 0 
7 0 0  1 2 2  -4.4408920985006262e-015 9 3  2.9999999999999658 9.9999999999999893 3.0000000000000049 
 0 2 1 2
8 -0.79056941504209444 2.371708245126285
1 2.25 9.75 9 -0.94868329805051377 -0.31622776601683794 0 
1 3 10 0 0 0 1 
7 0 0  1 2 2  0.99999999999998868 2.9999999999999964 3.3861802251067274e-014  1 1.0000000000000115 3.3861802251067274e-014 
 0 2 1 2
7 0 0  1 2 2  1 1.0000000000000115 3.3861802251067274e-014  0.99999999999998868 3.3917313402298532e-014 3 
 0 2 1 2
7 0 0  1 2 2  2.9999999999999951 4.0856207306205761e-014 9.0000000000000142  3.0000000000000049 3.0000000000000058 10.000000000000004 
 0 2 1 2
7 0 0  1 2 2  2.9999999999999951 4.0856207306205761e-014 9.0000000000000142  1.000000000000016 3.3861802251067274e-014 9 
 0 2 1 2
1 0 0 3 1 0 -0 
1 9 0 0 0 0 1 
1 0 0 9 1 0 -0 
7 0 0  1 2 2  7 4.0856207306205761e-014 9.0000000000000142  8.9999999999999929 3.3528735343679728e-014 9 
 0 2 1 2
7 0 0  1 2 2  0.99999999999998579 9 4.0967229608668276e-014  2.999999999999972 9.0000000000000142 3.3528735343679728e-014 
 0 2 1 2
1 0 1 0 1 0 -0 
1 0 9 0 1 0 -0 
7 0 0  1 2 2  9.0000000000000142 2.9999999999999951 4.0856207306205761e-014  9 1.000000000000016 3.3861802251067274e-014 
 0 2 1 2
7 0 0  1 2 2  9.0000000000000107 9 4.0856207306205761e-014  7.0000000000000213 9.0000000000000142 3.3528735343679728e-014 
 0 2 1 2
1 9 0 0 -0 1 0 
7 0 0  1 2 2  2.999999999999972 9.0000000000000142 3.3528735343679728e-014  2.9999999999999658 9.9999999999999893 3.0000000000000049 
 0 2 1 2
8 -0.79056941504209477 2.3717082451262841
1 2.9999999999999858 9.25 9.25 0 -0.94868329805051377 0.31622776601683794 
1 0 3 10 1 0 -0 
1 0 7 10 1 0 -0 
1 7 0 10 0 1 0 
1 0 10 3 1 0 -0 
1 0 10 9 1 0 -0 
1 7 10 0 0 0 1 
7 0 0  1 2 2  9 1.000000000000016 3.3861802251067274e-014  9.0000000000000142 3.3362201889985954e-014 3 
 0 2 1 2
7 0 0  1 2 2  7 4.0856207306205761e-014 9.0000000000000142  6.9999999999999893 3.0000000000000058 10.000000000000007 
 0 2 1 2
1 10 3 0 0 0 1 
7 0 0  1 2 2  10.000000000000004 3.0000000000000049 3.0000000000000058  9.0000000000000142 3.3362201889985954e-014 3 
 0 2 1 2
7 0 0  1 2 2  8.9999999999999929 3.3528735343679728e-014 9  9.9999999999999716 3.0000000000000058 9.0000000000000107 
 0 2 1 2
7 0 0  1 2 2  6.9999999999999893 3.0000000000000058 10.000000000000007  9.9999999999999716 3.0000000000000058 9.0000000000000107 
 0 2 1 2
7 0 0  1 2 2  7.0000000000000213 9.0000000000000142 3.3528735343679728e-014  7.0000000000000338 9.9999999999999929 3.0000000000000058 
 0 2 1 2
7 0 0  1 2 2  9.0000000000000142 2.9999999999999951 4.0856207306205761e-014  10.000000000000004 3.0000000000000049 3.0000000000000058 
 0 2 1 2
7 0 0  1 2 2  9.0000000000000107 9 4.0856207306205761e-014  10 9 3.0000000000000058 
 0 2 1 2
7 0 0  1 2 2  10 9 3.0000000000000058  7.0000000000000338 9.9999999999999929 3.0000000000000058 
 0 2 1 2
1 10 0 3 -0 1 0 
8 -0.79056941504209477 2.3717082451262845
1 6.9999999999999849 9.25 9.25 0 -0.94868329805051377 0.316227766016838 
1 10 0 9 0 1 0 
8 -4.0089186286863647 -0.26726124191242367
1 6.7857142857142874 6.8571428571428559 10.071428571428571 -0.80178372573727308 -0.53452248382484879 0.26726124191242434 
1 10 9 0 0 0 1 
8 -0.79056941504209477 2.3717082451262841
1 7.75 9.75 9 0.94868329805051377 -0.31622776601683794 -0 
Polygon3D 0
PolygonOnTriangulations 0
Surfaces 26
1 0 0 0 1 0 -0 0 0 1 0 -1 0 
1 0.5 1.5 0 -0.94868329805051377 -0.31622776601683794 1.4555146645863651e-017 1.3808224523606803e-017 4.6027415078689352e-018 1 0.316227766016838 -0.94868329805051388 7.7037197775489451e-034 
1 0.5 0 1.5 -0.94868329805051377 -1.4555146645863651e-017 -0.31622776601683794 -1.3808224523606803e-017 1 -4.6027415078689352e-018 0.316227766016838 -7.7037197775489451e-034 -0.94868329805051388 
1 1.5 0 9.5 0.31622776601683794 -1.4555146645863651e-017 -0.94868329805051377 4.6027415078689352e-018 1 -1.3808224523606803e-017 0.94868329805051388 -7.7037197775489451e-034 0.316227766016838 
1 1.5 9.5 0 0.31622776601683794 -0.94868329805051377 1.4555146645863651e-017 -4.6027415078689352e-018 1.3808224523606803e-017 1 0.94868329805051388 0.316227766016838 7.7037197775489451e-034 
9 0 0 0 0 1 1 2 2 2 2 0.99999999999998868 2.9999999999999964 3.3861802251067274e-014  1.1102230246251565e-016 3 3  
1 1.0000000000000115 3.3861802251067274e-014  0.99999999999998868 3.3917313402298532e-014 3  

0 2
1 2

0 2
1 2

9 0 0 0 0 1 1 2 2 2 2 2.9999999999999951 4.0856207306205761e-014 9.0000000000000142  3.0000000000000049 3.0000000000000058 10.000000000000004  
1.000000000000016 3.3861802251067274e-014 9  3.3362201889985954e-014 3 9.0000000000000142  

0 2
1 2

0 2
1 2

1 0 0 0 -0 1 0 0 0 1 1 0 -0 
1 0 0 0 0 0 1 1 0 -0 -0 1 0 
9 0 0 0 0 1 1 2 2 2 2 0.99999999999998579 9 4.0967229608668276e-014  -4.4408920985006262e-015 9 3  
2.999999999999972 9.0000000000000142 3.3528735343679728e-014  2.9999999999999658 9.9999999999999893 3.0000000000000049  

0 2
1 2

0 2
1 2

1 2.9999999999999996 10 9 0.10482848367219183 -0.31448545101657549 -0.94345635304972653 0.8017837257372733 -0.53452248382484879 0.2672612419124244 -0.58834840541455202 -0.78446454055273607 0.19611613513818404 
1 0 0 10 0 0 1 1 0 -0 -0 1 0 
1 0 10 0 -0 1 0 0 0 1 1 0 -0 
1 0 0.5 1.5 1.4555146645863651e-017 -0.94868329805051377 -0.31622776601683794 1 1.3808224523606803e-017 4.6027415078689352e-018 7.7037197775489451e-034 0.316227766016838 -0.94868329805051388 
1 0 1.5 9.5 1.4555146645863651e-017 0.31622776601683794 -0.94868329805051377 1 -4.6027415078689352e-018 1.3808224523606803e-017 7.7037197775489451e-034 0.94868329805051388 0.316227766016838 
1 9.5 1.5 0 -0.94868329805051377 0.31622776601683794 -1.4555146645863651e-017 -1.3808224523606803e-017 4.6027415078689352e-018 1 -0.316227766016838 -0.94868329805051388 7.7037197775489451e-034 
9 0 0 0 0 1 1 2 2 2 2 7 4.0856207306205761e-014 9.0000000000000142  6.9999999999999893 3.0000000000000058 10.000000000000007  
8.9999999999999929 3.3528735343679728e-014 9  9.9999999999999716 3.0000000000000058 9.0000000000000107  

0 2
1 2

0 2
1 2

1 0 9.5 1.5 -1.4555146645863651e-017 -0.94868329805051377 0.31622776601683794 1 -1.3808224523606803e-017 4.6027415078689352e-018 7.7037197775489451e-034 -0.316227766016838 -0.94868329805051388 
9 0 0 0 0 1 1 2 2 2 2 9.0000000000000142 2.9999999999999951 4.0856207306205761e-014  10.000000000000004 3.0000000000000049 3.0000000000000058  
9 1.000000000000016 3.3861802251067274e-014  9.0000000000000142 3.3362201889985954e-014 3  

0 2
1 2

0 2
1 2

9 0 0 0 0 1 1 2 2 2 2 9.0000000000000107 9 4.0856207306205761e-014  10 9 3.0000000000000058  
7.0000000000000213 9.0000000000000142 3.3528735343679728e-014  7.0000000000000338 9.9999999999999929 3.0000000000000058  

0 2
1 2

0 2
1 2

1 9.5 0 1.5 -0.94868329805051377 1.4555146645863651e-017 0.31622776601683794 1.3808224523606803e-017 1 -4.6027415078689352e-018 -0.316227766016838 -7.7037197775489451e-034 -0.94868329805051388 
1 0 8.5 9.5 -1.4555146645863651e-017 0.31622776601683794 0.94868329805051377 1 4.6027415078689352e-018 1.3808224523606803e-017 7.7037197775489451e-034 -0.94868329805051388 0.316227766016838 
1 8.5 0 9.5 0.31622776601683794 1.4555146645863651e-017 0.94868329805051377 -4.6027415078689352e-018 1 -1.3808224523606803e-017 -0.94868329805051388 -7.7037197775489451e-034 0.316227766016838 
1 8.5 9.5 0 0.31622776601683794 0.94868329805051377 -1.4555146645863651e-017 4.6027415078689352e-018 1.3808224523606803e-017 1 -0.94868329805051388 0.316227766016838 7.7037197775489451e-034 
1 10 0 0 1 0 -0 0 0 1 0 -1 0 
1 7 10 9 0.10482848367219183 0.31448545101657549 0.94345635304972653 -0.8017837257372733 -0.53452248382484879 0.2672612419124244 0.58834840541455202 -0.78446454055273607 0.19611613513818404 
Triangulations 0

TShapes 139
Ve
0.0001
1.11022302462516e-016 3 3
0 0

0101101
*
Ve
0.0001
3.3362201889986e-014 3 9.00000000000001
0 0

0101101
*
Ed
 1.00005e-007 1 1 0
1  1 0 3 9
2  1 2 0 3 9
2  2 1 0 3 9
0

0101000
+139 0 -138 0 *
Ve
0.0001
-4.44089209850063e-015 9 3
0 0

0101101
*
Ed
 1.00005e-007 1 1 0
1  2 0 3 9
2  3 3 0 3 9
2  4 1 0 3 9
0

0101000
+139 0 -136 0 *
Ve
0.0001
-4.44089209850063e-016 9 9
0 0

0101101
*
Ed
 1.00005e-007 1 1 0
1  3 0 3 9
2  5 4 0 3 9
2  6 1 0 3 9
0

0101000
+138 0 -134 0 *
Ed
 1.00005e-007 1 1 0
1  4 0 3 9
2  7 5 0 3 9
2  8 1 0 3 9
0

0101000
+136 0 -134 0 *
Wi

0101100
-137 0 +135 0 -133 0 +132 0 *
Fa
0  1e-007 1 0

0101000
+131 0 *
Ve
0.0001
0.999999999999989 3.39173134022985e-014 3
0 0

0101101
*
Ed
 0.0001 1 1 0
1  5 0 0 1
2  9 2 0 0 1
2  10 6 0 0 1
0

0101000
+139 0 -129 0 *
Ve
0.0001
1.00000000000002 3.38618022510673e-014 9
0 0

0101101
*
Ed
 0.0001 1 1 0
1  6 0 0 1
2  11 2 0 0 1
2  12 7 0 0 1
0

0101000
+127 0 -138 0 *
Ed
 1.00005e-007 1 1 0
1  7 0 3 9
2  13 2 0 3 9
2  14 8 0 3 9
0

0101000
+129 0 -127 0 *
Wi

0101100
+137 0 -128 0 -126 0 -125 0 *
Fa
0  0 2 0

0101000
+124 0 *
Ve
0.0001
0.999999999999989 3 3.38618022510673e-014
0 0

0101101
*
Ed
 0.0001 1 1 0
1  8 0 0 1
2  15 3 0 0 1
2  16 6 0 0 1
0

0101000
+122 0 -139 0 *
Ve
0.0001
0.999999999999986 9 4.09672296086683e-014
0 0

0101101
*
Ed
 1.00005e-007 1 1 0
1  9 0 3 9
2  17 3 0 3 9
2  18 9 0 3 9
0

0101000
+122 0 -120 0 *
Ed
 0.0001 1 1 0
1  10 0 0 1
2  19 3 0 0 1
2  20 10 0 0 1
0

0101000
+120 0 -136 0 *
Wi

0101100
+121 0 -119 0 +135 0 -118 0 *
Fa
0  0 3 0

0101000
+117 0 *
Ve
0.0001
3 3.00000000000001 10
0 0

0101101
*
Ed
 0.0001 1 1 0
1  11 0 0 1
2  21 4 0 0 1
2  22 7 0 0 1
0

0101000
+115 0 -138 0 *
Ve
0.0001
3 7 10
0 0

0101101
*
Ed
 1.00005e-007 1 1 0
1  12 0 -4.00891862868637 -0.267261241912425
2  23 4 0 -4.00891862868637 -0.267261241912425
2  24 11 0 -4.00891862868637 -0.267261241912425
0

0101000
+134 0 -113 0 *
Ed
 1.00005e-007 1 1 0
1  13 0 3 7
2  25 4 0 3 7
2  26 12 0 3 7
0

0101000
+115 0 -113 0 *
Wi

0101100
+133 0 +114 0 +112 0 -111 0 *
Fa
0  0 4 0

0101000
+110 0 *
Ve
0.0001
2.99999999999997 9.99999999999999 3
0 0

0101101
*
Ed
 0.0001 1 1 0
1  14 0 0 1
2  27 5 0 0 1
2  28 10 0 0 1
0

0101000
+136 0 -108 0 *
Ve
0.0001
3 10 9
0 0

0101101
*
Ed
 1.00005e-007 1 1 0
1  15 0 -0.790569415042094 2.37170824512629
2  29 5 0 -0.790569415042094 2.37170824512629
0

0101000
+106 0 -134 0 *
Ed
 1.00005e-007 1 1 0
1  16 0 3 9
2  30 5 0 3 9
2  31 13 0 3 9
0

0101000
+108 0 -106 0 *
Wi

0101100
+132 0 -107 0 -105 0 -104 0 *
Fa
0  0 5 0

0101000
+103 0 *
Ve
0.0001
1 1.00000000000001 3.38618022510673e-014
0 0

0101101
*
Ed
 0.0001 1 1 0
1  17 0 0 1
2  32 6 0 0 1
2  33 9 0 0 1
0

0101000
+122 0 -101 0 *
Ed
 0.0001 1 1 0
1  18 0 0 1
2  34 14 0 0 1
2  35 6 0 0 1
0

0101000
+101 0 -129 0 *
Wi

0101100
-121 0 +100 0 -128 0 +99 0 *
Fa
0  0.0001 6 0

0101000
+98 0 *
Ve
0.0001
3 4.08562073062058e-014 9.00000000000001
0 0

0101101
*
Ed
 0.0001 1 1 0
1  19 0 0 1
2  36 15 0 0 1
2  37 7 0 0 1
0

0101000
+96 0 -115 0 *
Ed
 0.0001 1 1 0
1  20 0 0 1
2  38 7 0 0 1
2  39 8 0 0 1
0

0101000
+96 0 -127 0 *
Wi

0101100
-95 0 +94 0 -114 0 +126 0 *
Fa
0  0.0001 7 0

0101000
+93 0 *
Ve
0.0001
9.00000000000001 3.3362201889986e-014 3
0 0

0101101
*
Ed
 1.00005e-007 1 1 0
1  21 0 1 9
2  40 14 0 1 9
2  41 8 0 1 9
0

0101000
+129 0 -91 0 *
Ve
0.0001
8.99999999999999 3.35287353436797e-014 9
0 0

0101101
*
Ed
 1.00005e-007 1 1 0
1  22 0 3 9
2  42 16 0 3 9
2  43 8 0 3 9
0

0101000
+91 0 -89 0 *
Ve
0.0001
7 4.08562073062058e-014 9.00000000000001
0 0

0101101
*
Ed
 1.00005e-007 1 1 0
1  23 0 3 7
2  44 15 0 3 7
2  45 8 0 3 7
0

0101000
+96 0 -87 0 *
Ed
 0.0001 1 1 0
1  24 0 0 1
2  46 17 0 0 1
2  47 8 0 0 1
0

0101000
+87 0 -89 0 *
Wi

0101100
+125 0 -90 0 -94 0 -88 0 +86 0 +85 0 *
Fa
0  1e-007 8 0

0101000
+84 0 *
Ve
0.0001
2.99999999999997 9.00000000000001 3.35287353436797e-014
0 0

0101101
*
Ed
 0.0001 1 1 0
1  25 0 0 1
2  48 10 0 0 1
2  49 9 0 0 1
0

0101000
+120 0 -82 0 *
Ve
0.0001
9 1.00000000000002 3.38618022510673e-014
0 0

0101101
*
Ed
 1.00005e-007 1 1 0
1  26 0 1 9
2  50 14 0 1 9
2  51 9 0 1 9
0

0101000
+101 0 -80 0 *
Ve
0.0001
7.00000000000002 9.00000000000001 3.35287353436797e-014
0 0

0101101
*
Ed
 1.00005e-007 1 1 0
1  27 0 3 7
2  52 18 0 3 7
2  53 9 0 3 7
0

0101000
+82 0 -78 0 *
Ve
0.0001
9.00000000000001 3 4.08562073062058e-014
0 0

0101101
*
Ed
 0.0001 1 1 0
1  28 0 0 1
2  54 19 0 0 1
2  55 9 0 0 1
0

0101000
+76 0 -80 0 *
Ve
0.0001
9.00000000000001 9 4.08562073062058e-014
0 0

0101101
*
Ed
 0.0001 1 1 0
1  29 0 0 1
2  56 20 0 0 1
2  57 9 0 0 1
0

0101000
+74 0 -78 0 *
Ed
 1.00005e-007 1 1 0
1  30 0 3 9
2  58 21 0 3 9
2  59 9 0 3 9
0

0101000
+76 0 -74 0 *
Wi

0101100
-119 0 +100 0 -81 0 +79 0 -77 0 -75 0 +73 0 +72 0 *
Fa
0  1e-007 9 0

0101000
+71 0 *
Ed
 0.0001 1 1 0
1  31 0 0 1
2  60 18 0 0 1
2  61 10 0 0 1
0

0101000
+82 0 -108 0 *
Wi

0101100
-118 0 +81 0 -107 0 +69 0 *
Fa
0  0.0001 10 0

0101000
+68 0 *
Ed
 1.00005e-007 1 1 0
1  32 0 -0.790569415042095 2.37170824512628
2  62 22 0 -0.790569415042095 2.37170824512628
0

0101000
+106 0 -113 0 *
Wi

0101100
-105 0 +66 0 -112 0 *
Fa
0  0 11 0

0101000
+65 0 *
Ve
0.0001
6.99999999999999 3.00000000000001 10
0 0

0101101
*
Ed
 1.00005e-007 1 1 0
1  33 0 3 7
2  63 15 0 3 7
2  64 12 0 3 7
0

0101000
+115 0 -63 0 *
Ve
0.0001
7 7 10
0 0

0101101
*
Ed
 1.00005e-007 1 1 0
1  34 0 3 7
2  65 22 0 3 7
2  66 12 0 3 7
0

0101000
+113 0 -61 0 *
Ed
 1.00005e-007 1 1 0
1  35 0 3 7
2  67 23 0 3 7
2  68 12 0 3 7
0

0101000
+63 0 -61 0 *
Wi

0101100
-111 0 +62 0 -60 0 +59 0 *
Fa
0  1e-007 12 0

0101000
+58 0 *
Ve
0.0001
7.00000000000003 9.99999999999999 3.00000000000001
0 0

0101101
*
Ed
 1.00005e-007 1 1 0
1  36 0 3 7
2  69 18 0 3 7
2  70 13 0 3 7
0

0101000
+108 0 -56 0 *
Ve
0.0001
7 10 9
0 0

0101101
*
Ed
 1.00005e-007 1 1 0
1  37 0 3 7
2  71 22 0 3 7
2  72 13 0 3 7
0

0101000
+106 0 -54 0 *
Ed
 1.00005e-007 1 1 0
1  38 0 3 9
2  73 24 0 3 9
2  74 13 0 3 9
0

0101000
+56 0 -54 0 *
Wi

0101100
+104 0 -55 0 +53 0 -52 0 *
Fa
0  1e-007 13 0

0101000
+51 0 *
Ed
 0.0001 1 1 0
1  39 0 0 1
2  75 14 0 0 1
2  76 19 0 0 1
0

0101000
+80 0 -91 0 *
Wi

0101100
+99 0 -79 0 +90 0 -49 0 *
Fa
0  0 14 0

0101000
+48 0 *
Ed
 0.0001 1 1 0
1  40 0 0 1
2  77 15 0 0 1
2  78 17 0 0 1
0

0101000
+87 0 -63 0 *
Wi

0101100
-95 0 +86 0 -62 0 +46 0 *
Fa
0  0 15 0

0101000
+45 0 *
Ve
0.0001
10 3 3.00000000000001
0 0

0101101
*
Ve
0.0001
9.99999999999997 3.00000000000001 9.00000000000001
0 0

0101101
*
Ed
 1.00005e-007 1 1 0
1  41 0 3 9
2  79 16 0 3 9
2  80 25 0 3 9
0

0101000
+43 0 -42 0 *
Ed
 0.0001 1 1 0
1  42 0 0 1
2  81 16 0 0 1
2  82 19 0 0 1
0

0101000
+43 0 -91 0 *
Ed
 0.0001 1 1 0
1  43 0 0 1
2  83 16 0 0 1
2  84 17 0 0 1
0

0101000
+89 0 -42 0 *
Wi

0101100
+41 0 -40 0 -39 0 -88 0 *
Fa
0  0 16 0

0101000
+38 0 *
Ed
 0.0001 1 1 0
1  44 0 0 1
2  85 23 0 0 1
2  86 17 0 0 1
0

0101000
+63 0 -42 0 *
Wi

0101100
-46 0 +85 0 -36 0 +39 0 *
Fa
0  0.0001 17 0

0101000
+35 0 *
Ed
 0.0001 1 1 0
1  45 0 0 1
2  87 18 0 0 1
2  88 20 0 0 1
0

0101000
+78 0 -56 0 *
Wi

0101100
+69 0 -77 0 +55 0 -33 0 *
Fa
0  0 18 0

0101000
+32 0 *
Ed
 0.0001 1 1 0
1  46 0 0 1
2  89 21 0 0 1
2  90 19 0 0 1
0

0101000
+76 0 -43 0 *
Wi

0101100
-30 0 +75 0 -40 0 +49 0 *
Fa
0  0.0001 19 0

0101000
+29 0 *
Ve
0.0001
10 9 3.00000000000001
0 0

0101101
*
Ed
 0.0001 1 1 0
1  47 0 0 1
2  91 21 0 0 1
2  92 20 0 0 1
0

0101000
+74 0 -27 0 *
Ed
 0.0001 1 1 0
1  48 0 0 1
2  93 24 0 0 1
2  94 20 0 0 1
0

0101000
+27 0 -56 0 *
Wi

0101100
-26 0 +73 0 -25 0 +33 0 *
Fa
0  0.0001 20 0

0101000
+24 0 *
Ed
 1.00005e-007 1 1 0
1  49 0 3 9
2  95 21 0 3 9
2  96 25 0 3 9
0

0101000
+43 0 -27 0 *
Wi

0101100
+30 0 -72 0 +22 0 -26 0 *
Fa
0  0 21 0

0101000
+21 0 *
Ed
 1.00005e-007 1 1 0
1  50 0 -0.790569415042095 2.37170824512628
2  97 22 0 -0.790569415042095 2.37170824512628
0

0101000
+54 0 -61 0 *
Wi

0101100
-66 0 +53 0 -60 0 +19 0 *
Fa
0  0 22 0

0101000
+18 0 *
Ve
0.0001
10 9 9
0 0

0101101
*
Ed
 1.00005e-007 1 1 0
1  51 0 3 9
2  98 23 0 3 9
2  99 25 0 3 9
0

0101000
+42 0 -16 0 *
Ed
 1.00005e-007 1 1 0
1  52 0 -4.00891862868636 -0.267261241912424
2  100 23 0 -4.00891862868636 -0.267261241912424
2  101 26 0 -4.00891862868636 -0.267261241912424
0

0101000
+16 0 -61 0 *
Wi

0101100
+15 0 +36 0 +14 0 -59 0 *
Fa
0  0 23 0

0101000
+13 0 *
Ed
 1.00005e-007 1 1 0
1  53 0 3 9
2  102 24 0 3 9
2  103 25 0 3 9
0

0101000
+27 0 -16 0 *
Ed
 1.00005e-007 1 1 0
1  54 0 -0.790569415042095 2.37170824512628
2  104 24 0 -0.790569415042095 2.37170824512628
0

0101000
+54 0 -16 0 *
Wi

0101100
+11 0 -25 0 -10 0 -52 0 *
Fa
0  0 24 0

0101000
+9 0 *
Wi

0101100
-41 0 +22 0 -15 0 +11 0 *
Fa
0  1e-007 25 0

0101000
+7 0 *
Wi

0101100
-10 0 +19 0 -14 0 *
Fa
0  0 26 0

0101000
+5 0 *
Sh

0101100
-130 0 -123 0 +116 0 -109 0 +102 0 +97 0 -92 0 -83 0 -70 0 -67 0 
-64 0 +57 0 +50 0 -47 0 +44 0 +37 0 +34 0 +31 0 -28 0 +23 0 
-20 0 -17 0 +12 0 -8 0 +6 0 +4 0 *
So

0100000
+3 0 *
Co

1100000
+2 0 *

+1 1  