
CASCADE Topology V1, (c) Matra-Datavision
Locations 6
1
              1               0               0             -10 
              0               1               0             -10 
              0               0               1               0 
1
              1               0               0              10 
              0               1               0              10 
              0               0               1               5 
2  2 -1 0
1
              1               0               0               0 
              0               1               0               0 
              0               0               1               1 
2  2 1 4 1 0
2  4 -1 2 -1 0
Curve2ds 30
8 0 5
7 0 0  1 2 2  0 0  5 0 
 0 2 5 2
8 0 5
7 0 0  1 2 2  0 0  5 0 
 0 2 5 2
8 0 20
7 0 0  1 2 2  5 0  5 -20 
 0 2 20 2
8 0 20
7 0 0  1 2 2  0 0  0 20 
 0 2 20 2
8 0 5
7 0 0  1 2 2  0 -20  5 -20 
 0 2 5 2
8 0 5
7 0 0  1 2 2  0 0  5 0 
 0 2 5 2
8 0 20
7 0 0  1 2 2  0 0  0 -20 
 0 2 20 2
8 0 20
7 0 0  1 2 2  0 0  0 20 
 0 2 20 2
8 0 20
7 0 0  1 2 2  0 0  0 20 
 0 2 20 2
8 0 20
7 0 0  1 2 2  0 0  20 0 
 0 2 20 2
8 0 5
7 0 0  1 2 2  0 20  5 20 
 0 2 5 2
8 0 5
7 0 0  1 2 2  0 0  5 0 
 0 2 5 2
8 0 20
7 0 0  1 2 2  5 0  5 20 
 0 2 20 2
8 0 20
7 0 0  1 2 2  0 0  20 0 
 0 2 20 2
8 0 20
7 0 0  1 2 2  0 20  20 20 
 0 2 20 2
8 0 20
7 0 0  1 2 2  5 0  5 20 
 0 2 20 2
8 0 20
7 0 0  1 2 2  20 0  20 20 
 0 2 20 2
8 0 20
7 0 0  1 2 2  5 0  5 -20 
 0 2 20 2
8 0 6.2831853071795862
7 1 1  2 6 4  17.071067811865476 10  1 17.071067811865476 22.247448713915887  0.50000000000000011 6.464466094067264 16.123724356957947  1 -4.1421356237309475 10.000000000000002  0.50000000000000011 6.4644660940672587 3.8762756430420557  1 17.071067811865465 -2.2474487139158938  0.50000000000000011
 0 2 2.0943951023931953 2 4.1887902047863905 2 6.2831853071795862 2
8 0 6.2831853071795862
7 0 0  2 7 4  0 0  1.0471975511965967 1.5452694516002192e-15  2.0943951023931953 0  3.1415926535897927 -1.0670200181060317e-15  4.1887902047863905 0  5.2359877559829879 6.2922661088989366e-16  6.2831853071795862 0 
 0 3 2.0943951023931953 2 4.1887902047863905 2 6.2831853071795862 3
8 0 20
7 0 0  1 2 2  0 0  0 20 
 0 2 20 2
8 0 20
7 0 0  1 2 2  0 20  20 20 
 0 2 20 2
8 0 5
7 0 0  1 2 2  0 20  5 20 
 0 2 5 2
8 0 5
7 0 0  1 2 2  0 -20  5 -20 
 0 2 5 2
8 0 20
7 0 0  1 2 2  20 0  20 20 
 0 2 20 2
8 0 20
7 0 0  1 2 2  0 0  0 -20 
 0 2 20 2
8 0 1
7 0 0  2 3 2  0 0  0 -0.5  0 -1 
 0 3 1 3
8 0 1
7 0 0  2 3 2  6.2831853071795862 0  6.2831853071795862 -0.5  6.2831853071795862 -1 
 0 3 1 3
8 0 6.2831853071795862
7 0 0  2 7 4  0 -1  1.0471975511965967 -1.0000000000000013  2.0943951023931953 -1  3.1415926535897927 -1.0000000000000036  4.1887902047863905 -1  5.2359877559829879 -1.0000000000000002  6.2831853071795862 -1 
 0 3 2.0943951023931953 2 4.1887902047863905 2 6.2831853071795862 3
8 0 6.2831853071795862
7 1 1  2 6 4  7.0710678118654755 0  1 7.0710678118654755 12.247448713915887  0.50000000000000011 -3.535533905932736 6.1237243569579469  1 -14.142135623730947 1.7763568394002505e-15  0.50000000000000011 -3.5355339059327413 -6.1237243569579443  1 7.0710678118654648 -12.247448713915894  0.50000000000000011
 0 2 2.0943951023931953 2 4.1887902047863905 2 6.2831853071795862 2
Curves 15
8 0 5
7 0 0  1 2 2  0 0 0  0 0 30 
 0 2 5 2
8 0 20
7 0 0  1 2 2  0 0 30  0 80 30 
 0 2 20 2
8 0 5
7 0 0  1 2 2  0 80 0  0 80 30 
 0 2 5 2
8 0 20
7 0 0  1 2 2  0 0 0  0 80 0 
 0 2 20 2
8 0 20
7 0 0  1 2 2  0 0 0  40 0 0 
 0 2 20 2
8 0 5
7 0 0  1 2 2  40 0 0  40 0 30 
 0 2 5 2
8 0 20
7 0 0  1 2 2  0 0 30  40 0 30 
 0 2 20 2
8 0 20
7 0 0  1 2 2  0 80 30  40 80 30 
 0 2 20 2
8 0 20
7 0 0  1 2 2  40 0 30  40 80 30 
 0 2 20 2
8 0 6.2831853071795862
7 1 1  2 6 4  34.142135623730951 40 30  1 34.142135623730951 88.989794855663547 30  0.50000000000000011 12.928932188134528 64.494897427831788 30  1 -8.2842712474618949 40.000000000000007 30  0.50000000000000011 12.928932188134517 15.505102572168223 30  1 34.14213562373093 -8.9897948556635754 30  0.50000000000000011
 0 2 2.0943951023931953 2 4.1887902047863905 2 6.2831853071795862 2
8 0 20
7 0 0  1 2 2  0 80 0  40 80 0 
 0 2 20 2
8 0 5
7 0 0  1 2 2  40 80 0  40 80 30 
 0 2 5 2
8 0 20
7 0 0  1 2 2  40 0 0  40 80 0 
 0 2 20 2
8 0 1
7 0 0  1 2 2  34.142135623730951 40 30  34.142135623730951 40 36 
 0 2 1 2
8 0 6.2831853071795862
7 1 1  2 6 4  34.142135623730951 40 36  1 34.142135623730951 88.989794855663547 36  0.50000000000000011 12.928932188134528 64.494897427831788 36  1 -8.2842712474618949 40.000000000000007 36  0.50000000000000011 12.928932188134517 15.505102572168223 36  1 34.14213562373093 -8.9897948556635754 36  0.50000000000000011
 0 2 2.0943951023931953 2 4.1887902047863905 2 6.2831853071795862 2
Polygon3D 0
PolygonOnTriangulations 0
Surfaces 8
9 0 0 0 0 1 1 2 2 2 2 0 80 0  0 0 0  
0 80 30  0 0 30  

0 2
5 2

-20 2
0 2

9 0 0 0 0 1 1 2 2 2 2 0 0 0  40 0 0  
0 0 30  40 0 30  

0 2
5 2

0 2
20 2

9 0 0 0 0 1 1 2 2 2 2 0 0 30  0 80 30  
40 0 30  40 80 30  

0 2
20 2

0 2
20 2

9 0 0 0 0 1 1 2 2 2 2 0 80 0  40 80 0  
0 80 30  40 80 30  

0 2
5 2

0 2
20 2

9 0 0 0 0 1 1 2 2 2 2 0 0 0  0 80 0  
40 0 0  40 80 0  

0 2
20 2

0 2
20 2

9 0 0 0 0 1 1 2 2 2 2 40 80 0  40 0 0  
40 80 30  40 0 30  

0 2
5 2

-20 2
0 2

9 0 1 1 0 2 1 6 2 4 2 34.142135623730951 40 36  1 34.142135623730951 40 30  1 
34.142135623730951 88.989794855663547 36  0.5 34.142135623730951 88.989794855663547 30  0.5 
12.928932188134528 64.494897427831788 36  1 12.928932188134528 64.494897427831788 30  1 
-8.2842712474618949 40.000000000000007 36  0.5 -8.2842712474618949 40.000000000000007 30  0.5 
12.928932188134517 15.505102572168223 36  1 12.928932188134517 15.505102572168223 30  1 
34.14213562373093 -8.9897948556635754 36  0.5 34.14213562373093 -8.9897948556635754 30  0.5 

0 2
2.0943951023931953 2
4.1887902047863905 2
6.2831853071795862 2

-1 2
0 2

9 0 0 0 0 1 1 2 2 2 2 5.857864376269049 11.715728752538098 36  5.857864376269049 68.284271247461902 36  
34.142135623730951 11.715728752538098 36  34.142135623730951 68.284271247461902 36  

-7.0710678118654755 2
7.0710678118654755 2

-7.0710678118654755 2
7.0710678118654755 2

Triangulations 0

TShapes 45
Ve
6e-07
0 0 30
0 0

0101101
*
Ve
6e-07
0 0 0
0 0

0101101
*
Ed
 6e-07 1 1 0
1  1 0 0 5
2  1 1 0 0 5
2  2 2 0 0 5
0

0101000
-45 0 +44 0 *
Ve
6e-07
0 80 30
0 0

0101101
*
Ed
 6e-07 1 1 0
1  2 0 0 20
2  3 1 0 0 20
2  4 3 0 0 20
0

0101000
-42 0 +45 0 *
Ve
6e-07
0 80 0
0 0

0101101
*
Ed
 6e-07 1 1 0
1  3 0 0 5
2  5 1 0 0 5
2  6 4 0 0 5
0

0101000
-42 0 +40 0 *
Ed
 6e-07 1 1 0
1  4 0 0 20
2  7 1 0 0 20
2  8 5 0 0 20
0

0101000
-40 0 +44 0 *
Wi

0101100
-43 0 -41 0 +39 0 +38 0 *
Fa
0  6e-07 1 0

0111000
+37 0 *
Ve
6e-07
40 0 0
0 0

0101101
*
Ed
 6e-07 1 1 0
1  5 0 0 20
2  9 2 0 0 20
2  10 5 0 0 20
0

0101000
-35 0 +44 0 *
Ve
6e-07
40 0 30
0 0

0101101
*
Ed
 6e-07 1 1 0
1  6 0 0 5
2  11 2 0 0 5
2  12 6 0 0 5
0

0101000
-33 0 +35 0 *
Ed
 6e-07 1 1 0
1  7 0 0 20
2  13 2 0 0 20
2  14 3 0 0 20
0

0101000
-33 0 +45 0 *
Wi

0101100
-34 0 -32 0 +31 0 +43 0 *
Fa
0  6e-07 2 0

0111000
+30 0 *
Ve
6e-07
40 80 30
0 0

0101101
*
Ed
 6e-07 1 1 0
1  8 0 0 20
2  15 3 0 0 20
2  16 4 0 0 20
0

0101000
-28 0 +42 0 *
Ed
 6e-07 1 1 0
1  9 0 0 20
2  17 3 0 0 20
2  18 6 0 0 20
0

0101000
-28 0 +33 0 *
Wi

0101100
-41 0 -27 0 +31 0 +26 0 *
Ve
6e-07
34.142135623731 40 30
0 0

0101101
*
Ed
 6e-07 1 1 0
1  10 3 0 6.28318530717959
2  19 3 3 0 6.28318530717959
2  20 7 3 0 6.28318530717959
0

0101000
+24 3 -24 3 *
Wi

0101100
-23 2 *
Fa
0  6e-07 3 0

0101000
+25 0 +22 0 *
Ve
6e-07
40 80 0
0 0

0101101
*
Ed
 6e-07 1 1 0
1  11 0 0 20
2  21 4 0 0 20
2  22 5 0 0 20
0

0101000
-20 0 +40 0 *
Ed
 6e-07 1 1 0
1  12 0 0 5
2  23 4 0 0 5
2  24 6 0 0 5
0

0101000
-28 0 +20 0 *
Wi

0101100
-19 0 -18 0 +27 0 +39 0 *
Fa
0  6e-07 4 0

0111000
+17 0 *
Ed
 6e-07 1 1 0
1  13 0 0 20
2  25 5 0 0 20
2  26 6 0 0 20
0

0101000
-20 0 +35 0 *
Wi

0101100
-38 0 -19 0 +15 0 +34 0 *
Fa
0  6e-07 5 0

0111000
+14 0 *
Wi

0101100
-32 0 -26 0 +18 0 +15 0 *
Fa
0  6e-07 6 0

0111000
+12 0 *
Ve
6e-07
34.142135623731 40 36
0 0

0101101
*
Ed
 6e-07 1 1 0
1  14 0 0 1
3  27 28CN 7 0 0 1
0

0101000
+24 0 -10 0 *
Ed
 6e-07 1 1 0
1  15 6 0 6.28318530717959
2  29 7 6 0 6.28318530717959
2  30 8 6 0 6.28318530717959
0

0101000
+10 6 -10 6 *
Wi

0101100
+9 0 -9 0 -23 2 +8 5 *
Fa
0  6e-07 7 0

0101000
+7 0 *
Wi

0101100
+8 0 *
Fa
0  6e-07 8 6

0111000
+5 0 *
Sh

0101100
-36 0 -29 0 +21 0 +16 0 -13 0 +11 0 -6 0 +4 5 *
So

0100000
+3 0 *
Co

1100000
+2 0 *

+1 1  