
CASCADE Topology V1, (c) Matra-Datavision
Locations 3
1
              1               0               0             -10 
              0               1               0             -10 
              0               0               1               0 
1
              1               0               0             -10 
              0               1               0             -10 
              0               0               1              -5 
2  2 -1 0
Curve2ds 45
1 0 0 1 0 
1 0 0 1 0 
1 5 0 0 -1 
1 0 0 0 1 
1 0 -20 1 0 
1 0 0 1 0 
1 0 0 0 -1 
1 0 0 0 1 
1 0 0 0 1 
1 0 0 1 0 
1 0 0 1 0 
1 0 20 1 0 
1 5 0 0 1 
1 0 0 1 0 
1 5 0 0 1 
1 0 20 1 0 
1 5 0 0 -1 
1 20 0 0 1 
1 0 20.000000200000002 1 0 
1 6.2831853071795862 -20.000000200000002 -1 -0 
2 10 10 1 0 -0 1 7.0710678118654755
1 0 20.000000200000002 1 0 
1 6.2831853071795862 -20.000000200000002 -1 -0 
2 10 10 1 0 -0 1 7.071067811865472
1 0 20.000000200000002 1 0 
1 6.2831853071795862 -20.000000200000002 -1 -0 
2 10 10 1 0 -0 1 7.0710678118654755
1 0 0 0 1 
1 0 20 1 0 
1 0 -20 1 0 
1 0 20 1 0 
1 0 0 0 -1 
1 20 0 0 1 
2 10 10 -1 0 -0 -1 2.8755696559790778
1 3.1415926535897931 13.472963753338609 1 0 
2 10 10 -1 0 -0 -1 2.8755696559790778
1 -3.1415926535897931 13.472963753338609 1 0 
2 10 10 -1 0 -0 -1 2.8755696559790729
1 -3.1415926535897931 13.472963753338611 1 0 
8 -20.000000200000002 -8.9993715237351601
1 2.0943951023931953 0 -0 -1 
8 -20.000000200000002 -8.9993715237351601
1 2.0943951023931953 0 -0 -1 
8 -20.000000200000002 -8.9993715237351619
1 6.2831853071795862 0 -0 -1 
8 -20.000000200000002 -8.9993715237351619
1 0 0 -0 -1 
8 -20.000000200000002 -8.999371523735169
1 4.1887902047863905 0 -0 -1 
8 -20.000000200000002 -8.999371523735169
1 4.1887902047863905 0 -0 -1 
Curves 21
1 0 0 0 0 0 1 
1 0 0 5 -0 1 0 
1 0 20 0 0 0 1 
1 0 0 0 -0 1 0 
1 0 0 0 1 0 -0 
1 20 0 0 0 0 1 
1 0 0 5 1 0 -0 
1 0 20 5 1 0 -0 
1 20 0 5 -0 1 0 
2 0 0 0 0 -0 1 1 -0 -0 0 1 0 7.0710678118654773
2 0 0 -1.7763568394002505e-15 0 -0 1 1 -0 -0 0 1 0 7.071067811865472
2 0 0 0 0 -0 1 1 -0 -0 0 1 0 7.0710678118654773
1 0 20 0 1 0 -0 
1 20 20 0 0 0 1 
1 20 0 0 -0 1 0 
2 10 10 0 0 0 1 -1 0 0 0 -1 0 2.8755696559790778
2 10 10 0 0 0 1 -1 0 0 0 -1 0 2.8755696559790778
2 10 10 0 0 0 1 -1 0 0 0 -1 0 2.8755696559790729
8 -20.000000200000002 -8.9993715237351601
1 2.8923422552114153 -5.0096837389045223 -15.320889015588451 0.32139380484326951 -0.55667039922641948 -0.76604444311897801 
8 -20.000000200000002 -8.9993715237351619
1 -5.7846845104228333 1.4168390739533194e-15 -15.320889015588451 -0.64278760968653936 1.5743755774683973e-16 -0.76604444311897801 
8 -20.000000200000002 -8.999371523735169
1 2.8923422552114229 5.0096837389045268 -15.320889015588451 0.32139380484327001 0.55667039922641937 -0.7660444431189779 
Polygon3D 0
PolygonOnTriangulations 0
Surfaces 12
1 0 0 0 1 0 -0 0 0 1 0 -1 0 
1 0 0 0 -0 1 0 0 0 1 1 0 -0 
1 0 0 5 0 0 1 1 0 -0 -0 1 0 
1 0 20 0 -0 1 0 0 0 1 1 0 -0 
1 0 0 0 0 0 1 1 0 -0 -0 1 0 
1 20 0 0 1 0 -0 0 0 1 0 -1 0 
10 0 2.0943951023931953 0 20.000000200000002
3 0 0 -15.320889015588451 0 -0 1 -1 0 0 -0 -1 0 5.7846845104228333
-0.6981317007977319
10 4.1887902047863914 6.2831853071795862 -40.000000400000005 -20.000000200000002
3 0 0 -15.320889015588451 0 -0 -1 -1 5.560219892205434e-17 -0 5.560219892205434e-17 1 0 5.7846845104228368
0.6981317007977319
10 2.0943951023931953 4.1887902047863905 0 20.000000200000002
3 0 0 -15.320889015588451 0 -0 1 -1 0 0 -0 -1 0 5.7846845104228404
-0.69813170079773201
10 2.0943951023931957 4.1887902047863914 -40.000000400000005 -20.000000200000002
3 0 0 -15.320889015588451 0 -0 -1 -1 3.3518363609644762e-16 -0 3.3518363609644762e-16 1 0 5.7846845104228333
0.6981317007977319
10 4.1887902047863905 6.2831853071795862 0 20.000000200000002
3 0 0 -15.320889015588451 0 -0 1 -1 0 0 -0 -1 0 5.7846845104228333
-0.6981317007977319
10 0 2.0943951023931957 -40.000000400000005 -20.000000200000002
3 0 0 -15.320889015588451 0 -0 -1 -1 5.1709210100843137e-16 -0 5.1709210100843137e-16 1 0 5.7846845104228333
0.6981317007977319
Triangulations 0

TShapes 58
Ve
1e-07
0 0 5
0 0

0101101
*
Ve
1e-07
0 0 0
0 0

0101101
*
Ed
 1e-07 1 1 0
1  1 0 0 5
2  1 1 0 0 5
2  2 2 0 0 5
0

0101000
-58 0 +57 0 *
Ve
1e-07
0 20 5
0 0

0101101
*
Ed
 1e-07 1 1 0
1  2 0 0 20
2  3 1 0 0 20
2  4 3 0 0 20
0

0101000
-55 0 +58 0 *
Ve
1e-07
0 20 0
0 0

0101101
*
Ed
 1e-07 1 1 0
1  3 0 0 5
2  5 1 0 0 5
2  6 4 0 0 5
0

0101000
-55 0 +53 0 *
Ed
 1e-07 1 1 0
1  4 0 0 20
2  7 1 0 0 20
2  8 5 0 0 20
0

0101000
-53 0 +57 0 *
Wi

0101100
-56 0 -54 0 +52 0 +51 0 *
Fa
0  1e-07 1 0

0111000
+50 0 *
Ve
1e-07
20 0 0
0 0

0101101
*
Ed
 1e-07 1 1 0
1  5 0 0 20
2  9 2 0 0 20
2  10 5 0 0 20
0

0101000
-48 0 +57 0 *
Ve
1e-07
20 0 5
0 0

0101101
*
Ed
 1e-07 1 1 0
1  6 0 0 5
2  11 6 0 0 5
2  12 2 0 0 5
0

0101000
-46 0 +48 0 *
Ed
 1e-07 1 1 0
1  7 0 0 20
2  13 2 0 0 20
2  14 3 0 0 20
0

0101000
-46 0 +58 0 *
Wi

0101100
-47 0 -45 0 +44 0 +56 0 *
Fa
0  1e-07 2 0

0111000
+43 0 *
Ve
1e-07
20 20 5
0 0

0101101
*
Ed
 1e-07 1 1 0
1  8 0 0 20
2  15 4 0 0 20
2  16 3 0 0 20
0

0101000
-41 0 +55 0 *
Ed
 1e-07 1 1 0
1  9 0 0 20
2  17 6 0 0 20
2  18 3 0 0 20
0

0101000
-41 0 +46 0 *
Wi

0101100
-54 0 -40 0 +44 0 +39 0 *
Ve
1e-06
7.07106781186548 -1.73191211247099e-15 0
0 0

0101101
*
Ve
1e-06
-3.53553390593274 6.12372435695795 0
0 0

0101101
*
Ed
 1e-07 1 1 0
1  10 0 0 2.0943951023932
2  19 7 0 0 2.0943951023932
2  20 8 0 0 2.0943951023932
4 C2 8 0 7 0
2  21 3 2 0 2.0943951023932
0

0101000
+37 0 -36 0 *
Ve
1e-06
-3.53553390593274 -6.12372435695794 -1.77635683940025e-15
0 0

0101101
*
Ed
 1.00000001776357e-07 1 1 0
1  11 0 2.0943951023932 4.18879020478639
2  22 9 0 2.0943951023932 4.18879020478639
2  23 10 0 2.0943951023932 4.18879020478639
4 C2 10 0 9 0
2  24 3 2 2.0943951023932 4.18879020478639
0

0101000
+36 0 -34 0 *
Ed
 1e-07 1 1 0
1  12 0 4.18879020478639 6.28318530717959
2  25 11 0 4.18879020478639 6.28318530717959
2  26 12 0 4.18879020478639 6.28318530717959
4 C2 12 0 11 0
2  27 3 2 4.18879020478639 6.28318530717959
0

0101000
+34 0 -37 0 *
Wi

0101100
-35 3 -33 3 -32 3 *
Fa
0  1e-07 3 0

0111000
+38 0 +31 0 *
Ve
1e-07
20 20 0
0 0

0101101
*
Ed
 1e-07 1 1 0
1  13 0 0 20
2  28 4 0 0 20
2  29 5 0 0 20
0

0101000
-29 0 +53 0 *
Ed
 1e-07 1 1 0
1  14 0 0 5
2  30 6 0 0 5
2  31 4 0 0 5
0

0101000
-41 0 +29 0 *
Wi

0101100
-28 0 -27 0 +40 0 +52 0 *
Fa
0  1e-07 4 0

0111000
+26 0 *
Ed
 1e-07 1 1 0
1  15 0 0 20
2  32 6 0 0 20
2  33 5 0 0 20
0

0101000
-29 0 +48 0 *
Wi

0101100
-51 0 -28 0 +47 0 +24 0 *
Ve
1.00000005687117e-07
8.56221517201046 7.50968362757045 0
0 0

0101101
*
Ve
1.00000001776357e-07
12.8755696559791 10 0
0 0

0101101
*
Ed
 1e-07 1 1 0
1  16 0 1.0471975511966 3.14159265358979
2  34 5 0 1.0471975511966 3.14159265358979
2  35 11 3 1.0471975511966 3.14159265358979
0

0101000
+22 0 -21 0 *
Ve
1.00000003972055e-07
8.56221517201046 12.4903163724296 0
0 0

0101101
*
Ed
 1e-07 1 1 0
1  17 0 3.14159265358979 5.23598775598299
2  36 5 0 3.14159265358979 5.23598775598299
2  37 7 3 3.14159265358979 5.23598775598299
0

0101000
+21 0 -19 0 *
Ed
 1e-07 1 1 0
1  18 0 5.23598775598299 7.33038285837618
2  38 5 0 5.23598775598299 7.33038285837618
2  39 9 3 5.23598775598299 7.33038285837618
0

0101000
+19 0 -22 0 *
Wi

0101100
-20 0 -18 0 -17 0 *
Fa
0  1e-07 5 0

0111000
+23 0 +16 0 *
Wi

0101100
-45 0 -39 0 +27 0 +24 0 *
Fa
0  1e-07 6 0

0111000
+14 0 *
Ed
 1e-07 1 1 0
1  19 0 -20.0000002 -13.4729637533386
2  40 7 0 -20.0000002 -13.4729637533386
2  41 9 0 -20.0000002 -13.4729637533386
4 G1 7 0 9 0
0

0101000
+36 0 -19 2 *
Ed
 1e-07 1 1 0
1  20 0 -20.0000002 -13.4729637533386
2  42 11 0 -20.0000002 -13.4729637533386
2  43 7 0 -20.0000002 -13.4729637533386
4 G1 11 0 7 0
0

0101000
+37 0 -21 2 *
Wi

0101100
-35 3 -12 3 +18 0 +11 3 *
Fa
0  1e-07 7 3

0111000
+10 0 *
Ed
 1e-07 1 1 0
1  21 0 -20.0000002 -13.4729637533386
2  44 9 0 -20.0000002 -13.4729637533386
2  45 11 0 -20.0000002 -13.4729637533386
4 G1 9 0 11 0
0

0101000
+34 0 -22 2 *
Wi

0101100
-33 3 -8 3 +17 0 +12 3 *
Fa
0  1e-07 9 3

0111000
+7 0 *
Wi

0101100
-11 3 +20 0 +8 3 -32 3 *
Fa
0  1e-07 11 3

0111000
+5 0 *
Sh

0101100
-49 0 -42 0 +30 0 +25 0 -15 0 +13 0 -9 0 -6 0 -4 0 *
So

0100000
+3 0 *
Co

1100000
+2 0 *

+1 1  