
CASCADE Topology V1, (c) Matra-Datavision
Locations 17
1
              1               0               0             -10 
              0               1               0             -10 
              0               0               1               0 
1
              1               0               0              10 
              0               1               0              10 
              0               0               1               5 
1
              1               0               0             -10 
              0               1               0             -10 
              0               0               1              -5 
1
              1               0               0               0 
              0               1               0               0 
              0               0               1               0 
2  2 1 3 1 4 1 3 -1 0
2  4 -1 3 -1 2 -1 0
1
              1               0               0               0 
              0               1               0               0 
              0               0               1               0 
2  2 1 3 1 7 1 4 -1 3 -1 2 -1 0
2  3 1 4 -1 3 -1 2 -1 0
2  3 -1 2 -1 0
2  3 -1 0
2  2 1 3 1 4 1 0
1
              1               0               0               0 
              0               1               0               0 
              0               0               1            -2.5 
2  2 1 3 1 13 1 0
2  13 1 3 -1 0
2  2 1 3 1 0
2  13 -1 0
Curve2ds 46
1 0 0 1 0 
1 0 0 1 0 
1 5 0 0 -1 
1 0 0 0 1 
1 0 -20 1 0 
1 0 0 1 0 
1 0 0 0 -1 
1 0 0 0 1 
1 0 0 0 1 
1 0 0 1 0 
1 0 0 1 0 
1 0 20 1 0 
1 5 0 0 1 
1 0 0 1 0 
1 5 0 0 1 
1 0 20 1 0 
1 5 0 0 -1 
1 20 0 0 1 
2 0 0 1 0 -0 1 7.0710678118654755
1 0 -0 1 0 
2 0 0 1 0 -0 1 7.0710678118654755
2 10 10 1 0 -0 1 7.0710678118654755
1 0 -0 1 0 
2 0 0 1 0 -0 1 7.0710678118654755
2 10 10 1 0 -0 1 7.0710678118654755
1 0 -0 1 0 
2 0 0 1 0 -0 1 7.0710678118654755
2 10 10 1 0 -0 1 7.0710678118654755
1 0 0 0 1 
1 0 20 1 0 
1 0 -20 1 0 
1 0 20 1 0 
1 0 0 0 -1 
1 20 0 0 1 
8 -0 3.2635182233306965
1 6.2831853071795862 0 -0 -1 
8 -0 3.2635182233306965
1 0 0 -0 -1 
8 -0 3.2635182233306965
1 2.0943951023931953 0 -0 -1 
8 -0 3.2635182233306965
1 2.0943951023931953 0 -0 -1 
1 0 -3.2635182233306965 1 0 
2 0 0 1 -2.4492935982947064e-16 2.4492935982947064e-16 1 4.9733187339222749
8 -0 3.2635182233306965
1 4.1887902047863905 0 -0 -1 
8 -0 3.2635182233306965
1 4.1887902047863905 0 -0 -1 
1 0 -3.2635182233306965 1 0 
2 0 0 1 0 -0 1 4.9733187339222749
1 0 -3.2635182233306965 1 0 
2 0 0 1 0 -0 1 4.9733187339222749
Curves 19
1 0 0 0 0 0 1 
1 0 0 5 -0 1 0 
1 0 20 0 0 0 1 
1 0 0 0 -0 1 0 
1 0 0 0 1 0 -0 
1 20 0 0 0 0 1 
1 0 0 5 1 0 -0 
1 0 20 5 1 0 -0 
1 20 0 5 -0 1 0 
2 0 0 0 0 -0 1 1 0 0 -0 1 0 7.0710678118654755
1 0 20 0 1 0 -0 
1 20 20 0 0 0 1 
1 20 0 0 -0 1 0 
8 -0 3.2635182233306965
1 7.0710678118654755 -1.7319121124709867e-15 0 -0.64278760968653936 1.5743755774683973e-16 -0.76604444311897801 
8 -0 3.2635182233306965
1 -3.535533905932736 6.123724356957946 0 0.32139380484326951 -0.55667039922641948 -0.76604444311897801 
2 0 0 -2.5 0 -0 1 1 0 0 -0 1 0 4.9733187339222749
8 -0 3.2635182233306965
1 -3.5355339059327409 -6.1237243569579443 0 0.32139380484326996 0.55667039922641925 -0.76604444311897801 
2 0 0 -2.5 0 -0 1 1 0 0 -0 1 0 4.9733187339222749
2 0 0 -2.5 0 -0 1 1 0 0 -0 1 0 4.9733187339222749
Polygon3D 0
PolygonOnTriangulations 0
Surfaces 11
1 0 0 0 1 0 -0 0 0 1 0 -1 0 
1 0 0 0 -0 1 0 0 0 1 1 0 -0 
1 0 0 5 0 0 1 1 0 -0 -0 1 0 
1 0 20 0 -0 1 0 0 0 1 1 0 -0 
1 0 0 0 0 0 1 1 0 -0 -0 1 0 
1 20 0 0 1 0 -0 0 0 1 0 -1 0 
1 0 0 0 0 0 1 1 0 -0 -0 1 0 
10 0 2.0943951023931953 -3.2635182233306965 -0
3 0 0 0 0 -0 1 1 0 0 -0 1 0 7.0710678118654755
0.6981317007977319
1 0 0 0 0 0 1 1 0 -0 -0 1 0 
10 2.0943951023931953 4.1887902047863905 -3.2635182233306965 -0
3 0 0 0 0 -0 1 1 0 0 -0 1 0 7.0710678118654755
0.6981317007977319
10 4.1887902047863905 6.2831853071795862 -3.2635182233306965 -0
3 0 0 0 0 -0 1 1 0 0 -0 1 0 7.0710678118654755
0.6981317007977319
Triangulations 0

TShapes 59
Ve
1e-07
0 0 5
0 0

0101101
*
Ve
1e-07
0 0 0
0 0

0101101
*
Ed
 1e-07 1 1 0
1  1 0 0 5
2  1 1 0 0 5
2  2 2 0 0 5
0

0101000
-59 0 +58 0 *
Ve
1e-07
0 20 5
0 0

0101101
*
Ed
 1e-07 1 1 0
1  2 0 0 20
2  3 1 0 0 20
2  4 3 0 0 20
0

0101000
-56 0 +59 0 *
Ve
1e-07
0 20 0
0 0

0101101
*
Ed
 1e-07 1 1 0
1  3 0 0 5
2  5 1 0 0 5
2  6 4 0 0 5
0

0101000
-56 0 +54 0 *
Ed
 1e-07 1 1 0
1  4 0 0 20
2  7 1 0 0 20
2  8 5 0 0 20
0

0101000
-54 0 +58 0 *
Wi

0101100
-57 0 -55 0 +53 0 +52 0 *
Fa
0  1e-07 1 0

0111000
+51 0 *
Ve
1e-07
20 0 0
0 0

0101101
*
Ed
 1e-07 1 1 0
1  5 0 0 20
2  9 2 0 0 20
2  10 5 0 0 20
0

0101000
-49 0 +58 0 *
Ve
1e-07
20 0 5
0 0

0101101
*
Ed
 1e-07 1 1 0
1  6 0 0 5
2  11 6 0 0 5
2  12 2 0 0 5
0

0101000
-47 0 +49 0 *
Ed
 1e-07 1 1 0
1  7 0 0 20
2  13 2 0 0 20
2  14 3 0 0 20
0

0101000
-47 0 +59 0 *
Wi

0101100
-48 0 -46 0 +45 0 +57 0 *
Fa
0  1e-07 2 0

0111000
+44 0 *
Ve
1e-07
20 20 5
0 0

0101101
*
Ed
 1e-07 1 1 0
1  8 0 0 20
2  15 4 0 0 20
2  16 3 0 0 20
0

0101000
-42 0 +56 0 *
Ed
 1e-07 1 1 0
1  9 0 0 20
2  17 6 0 0 20
2  18 3 0 0 20
0

0101000
-42 0 +47 0 *
Wi

0101100
-55 0 -41 0 +45 0 +40 0 *
Ve
1e-07
7.07106781186548 0 0
0 0

0101101
*
Ve
1e-07
-3.53553390593274 6.12372435695795 0
0 0

0101101
*
Ed
 1e-07 1 1 0
2  19 7 0 0 2.0943951023932
1  10 0 0 2.0943951023932
2  20 8 6 0 2.0943951023932
2  21 9 8 0 2.0943951023932
2  22 3 9 0 2.0943951023932
0

0101000
+38 0 -37 10 *
Ve
1e-07
-3.53553390593274 -6.12372435695794 0
0 0

0101101
*
Ed
 1e-07 1 1 0
2  19 7 0 2.0943951023932 4.18879020478639
1  10 0 2.0943951023932 4.18879020478639
2  23 10 6 2.0943951023932 4.18879020478639
2  24 9 8 2.0943951023932 4.18879020478639
2  25 3 9 2.0943951023932 4.18879020478639
0

0101000
+37 10 -35 10 *
Ed
 1e-07 1 1 0
2  19 7 0 4.18879020478639 6.28318530717959
1  10 0 4.18879020478639 6.28318530717959
2  26 11 6 4.18879020478639 6.28318530717959
2  27 9 8 4.18879020478639 6.28318530717959
2  28 3 9 4.18879020478639 6.28318530717959
0

0101000
+35 10 -38 0 *
Wi

0101100
-36 5 -34 5 -33 5 *
Fa
0  1e-07 3 0

0111000
+39 0 +32 0 *
Ve
1e-07
20 20 0
0 0

0101101
*
Ed
 1e-07 1 1 0
1  11 0 0 20
2  29 4 0 0 20
2  30 5 0 0 20
0

0101000
-30 0 +54 0 *
Ed
 1e-07 1 1 0
1  12 0 0 5
2  31 6 0 0 5
2  32 4 0 0 5
0

0101000
-42 0 +30 0 *
Wi

0101100
-29 0 -28 0 +41 0 +53 0 *
Fa
0  1e-07 4 0

0111000
+27 0 *
Ed
 1e-07 1 1 0
1  13 0 0 20
2  33 6 0 0 20
2  34 5 0 0 20
0

0101000
-30 0 +49 0 *
Wi

0101100
-52 0 -29 0 +25 0 +48 0 *
Fa
0  1e-07 5 0

0111000
+24 0 *
Wi

0101100
-46 0 -40 0 +28 0 +25 0 *
Fa
0  1e-07 6 0

0111000
+22 0 *
Ve
1e-06
4.97331873392227 -1.2181117737275e-15 -2.5
0 0

0101101
*
Ed
 1e-07 1 1 0
1  14 0 -0 3.2635182233307
4 G1 11 0 8 0
2  35 11 0 -0 3.2635182233307
2  36 8 0 -0 3.2635182233307
0

0101000
+38 12 -20 0 *
Ve
1e-06
-2.48665936696114 4.30702036469375 -2.5
0 0

0101101
*
Ed
 1e-07 1 1 0
1  15 0 -0 3.2635182233307
4 G1 8 0 10 0
2  37 10 0 -0 3.2635182233307
2  38 8 0 -0 3.2635182233307
0

0101000
+37 4 -18 0 *
Ed
 1e-07 1 1 0
1  16 0 0 2.0943951023932
2  39 8 0 0 2.0943951023932
2  40 9 14 0 2.0943951023932
0

0101000
+20 0 -18 0 *
Wi

0101000
+19 0 -36 12 -17 0 +16 0 *
Fa
0  1e-07 8 0

0111000
+15 0 *
Ve
1e-06
-2.48665936696114 -4.30702036469375 -2.5
0 0

0101101
*
Ed
 1e-07 1 1 0
1  17 0 -0 3.2635182233307
4 G1 10 0 11 0
2  41 11 0 -0 3.2635182233307
2  42 10 0 -0 3.2635182233307
0

0101000
+35 4 -13 0 *
Ed
 1e-07 1 1 0
1  18 0 2.0943951023932 4.18879020478639
2  43 10 0 2.0943951023932 4.18879020478639
2  44 9 14 2.0943951023932 4.18879020478639
0

0101000
+18 0 -13 0 *
Wi

0101000
+17 0 -34 12 -12 0 +11 0 *
Fa
0  1e-07 10 0

0111000
+10 0 *
Ed
 1e-07 1 1 0
1  19 0 4.18879020478639 6.28318530717959
2  45 11 0 4.18879020478639 6.28318530717959
2  46 9 14 4.18879020478639 6.28318530717959
0

0101000
+13 0 -20 0 *
Wi

0101000
-19 0 -33 12 +12 0 +8 0 *
Fa
0  1e-07 11 0

0111000
+7 0 *
Wi

0101000
+16 0 +11 0 +8 0 *
Fa
0  1e-07 9 16

0111000
+5 17 *
Sh

0101100
-50 0 -43 0 +31 0 +26 0 -23 0 +21 0 -14 11 -9 11 -6 11 +4 15 
*
So

0100000
+3 0 *
Co

1100000
+2 0 *

+1 1  