
CASCADE Topology V1, (c) Matra-Datavision
Locations 6
1
              1               0               0             -10 
              0               1               0             -10 
              0               0               1               0 
1
              1               0               0              10 
              0               1               0              10 
              0               0               1               5 
2  2 -1 0
1
              1               0               0               0 
              0               1               0               0 
              0               0               1             2.5 
2  4 -1 2 -1 0
2  2 1 4 1 0
Curve2ds 52
1 0 0 1 0 
1 0 0 1 0 
1 5 0 0 -1 
1 0 0 0 1 
1 -10 -10 0 1 
1 0 -20 1 0 
1 0 0 1 0 
1 0 0 0 -1 
1 0 0 0 1 
1 0 0 0 1 
1 0 0 1 0 
1 0 0 1 0 
1 0 20 1 0 
1 5 0 0 1 
1 0 0 1 0 
1 -10 -10 1 0 
2 -8 -8 1 0 -0 1 2.1213203435596424
1 0 0 1 0 
1 0 -2.5 1 0 
2 -8 -8 1 0 -0 1 2.1213203435596419
2 2 2 1 0 -0 1 2.1213203435596419
1 5 0 0 1 
1 0 20 1 0 
2 8 8 1 0 -0 1 2.1213203435596424
1 0 0 1 0 
1 0 -2.5 1 0 
2 8 8 1 0 -0 1 2.1213203435596419
2 18 18 1 0 -0 1 2.1213203435596419
1 5 0 0 -1 
1 20 0 0 1 
2 2 2 1 0 -0 1 2.1213203435596419
2 2 2 1 0 -0 1 2.1213203435596419
2 0 0 1 0 -0 1 7.0710678118654755
1 0 0 1 0 
1 0 -2.5 1 0 
2 0 0 1 0 -0 1 7.0710678118654755
2 10 10 1 0 -0 1 7.0710678118654755
1 0 0 0 1 
1 0 20 1 0 
1 0 -20 1 0 
1 0 20 1 0 
1 -10 10 1 0 
1 0 0 0 -1 
1 20 0 0 1 
1 10 -10 0 1 
1 0 0 0 -1 
1 6.2831853071795862 0 0 -1 
2 18 18 1 0 -0 1 2.1213203435596419
1 0 0 0 -1 
1 6.2831853071795862 0 0 -1 
1 0 0 0 -1 
1 6.2831853071795862 0 0 -1 
Curves 18
1 0 0 0 0 0 1 
1 0 0 5 -0 1 0 
1 0 20 0 0 0 1 
1 0 0 0 -0 1 0 
1 0 0 0 1 0 -0 
1 20 0 0 0 0 1 
1 0 0 5 1 0 -0 
2 -8 -8 0 0 -0 1 1 0 0 -0 1 0 2.1213203435596424
1 0 20 5 1 0 -0 
2 8 8 0 0 -0 1 1 0 0 -0 1 0 2.1213203435596424
1 20 0 5 -0 1 0 
2 0 0 0 0 -0 1 1 0 0 -0 1 0 7.0710678118654755
1 0 20 0 1 0 -0 
1 20 20 0 0 0 1 
1 20 0 0 -0 1 0 
1 4.1213203435596419 2 5 0 0 1 
1 20.121320343559642 18 5 0 0 1 
1 17.071067811865476 10 5 0 0 1 
Polygon3D 0
PolygonOnTriangulations 0
Surfaces 11
1 0 0 0 1 0 -0 0 0 1 0 -1 0 
1 0 0 0 -0 1 0 0 0 1 1 0 -0 
1 0 0 5 0 0 1 1 0 -0 -0 1 0 
1 0 0 0 0 0 1 1 0 -0 -0 1 0 
1 0 20 0 -0 1 0 0 0 1 1 0 -0 
1 0 0 0 0 0 1 1 0 -0 -0 1 0 
1 20 0 0 1 0 -0 0 0 1 0 -1 0 
1 0 0 0 0 0 1 1 0 -0 -0 1 0 
2 2 2 5 -0 -0 -1 1 0 0 0 1 0 2.1213203435596424
2 18 18 5 -0 -0 -1 1 0 0 0 1 0 2.1213203435596424
2 10 10 5 -0 -0 -1 1 0 0 0 1 0 7.0710678118654755
Triangulations 0

TShapes 95
Ve
1e-07
0 0 5
0 0

0101101
*
Ve
1e-07
0 0 0
0 0

0101101
*
Ed
 1e-07 1 1 0
1  1 0 0 5
2  1 1 0 0 5
2  2 2 0 0 5
0

0101000
-95 0 +94 0 *
Ve
1.00000045297099e-07
-4.52970994047064e-14 1.29289321881371 5
0 0

0101101
*
Ed
 1e-07 1 1 0
1  2 0 0 1.29289321881371
2  3 1 0 0 1.29289321881371
2  4 3 0 0 1.29289321881371
0

0101000
+95 0 -92 0 *
Ve
1.00000045075055e-07
-4.50750547997814e-14 2.70710678118629 5
0 0

0101101
*
Ed
 1e-07 1 1 0
1  2 0 1.29289321881371 2.70710678118629
2  3 1 0 1.29289321881371 2.70710678118629
2  4 3 0 1.29289321881371 2.70710678118629
2  5 4 2 1.29289321881371 2.70710678118629
0

0101000
+92 0 -90 0 *
Ve
1e-07
0 20 5
0 0

0101101
*
Ed
 1e-07 1 1 0
1  2 0 2.70710678118629 20
2  3 1 0 2.70710678118629 20
2  4 3 0 2.70710678118629 20
0

0101000
+90 0 -88 0 *
Ve
1e-07
0 20 0
0 0

0101101
*
Ed
 1e-07 1 1 0
1  3 0 0 5
2  6 1 0 0 5
2  7 5 0 0 5
0

0101000
-88 0 +86 0 *
Ed
 1e-07 1 1 0
1  4 0 0 20
2  8 1 0 0 20
2  9 6 0 0 20
0

0101000
-86 0 +94 0 *
Wi

0101100
-93 0 -91 0 -89 0 -87 0 +85 0 +84 0 *
Fa
0  1e-07 1 0

0111000
+83 0 *
Ve
1e-07
20 0 0
0 0

0101101
*
Ed
 1e-07 1 1 0
1  5 0 0 20
2  10 2 0 0 20
2  11 6 0 0 20
0

0101000
-81 0 +94 0 *
Ve
1e-07
20 0 5
0 0

0101101
*
Ed
 1e-07 1 1 0
1  6 0 0 5
2  12 7 0 0 5
2  13 2 0 0 5
0

0101000
-79 0 +81 0 *
Ve
1.00000046629367e-07
1.29289321881372 -4.66293670342566e-14 5
0 0

0101101
*
Ed
 1e-07 1 1 0
1  7 0 0 1.29289321881372
2  14 2 0 0 1.29289321881372
2  15 3 0 0 1.29289321881372
0

0101000
+95 0 -77 0 *
Ve
1.0000004241052e-07
2.70710678118631 -4.2410519540681e-14 5
0 0

0101101
*
Ed
 1e-07 1 1 0
1  7 0 1.29289321881372 2.70710678118631
2  14 2 0 1.29289321881372 2.70710678118631
2  15 3 0 1.29289321881372 2.70710678118631
2  16 4 2 1.29289321881372 2.70710678118631
0

0101000
+77 0 -75 0 *
Ed
 1e-07 1 1 0
1  7 0 2.70710678118631 20
2  14 2 0 2.70710678118631 20
2  15 3 0 2.70710678118631 20
0

0101000
+75 0 -79 0 *
Wi

0101100
-80 0 -78 0 +76 0 +74 0 +73 0 +93 0 *
Fa
0  1e-07 2 0

0101000
+72 0 *
Ed
 1e-07 1 1 0
2  17 8 0 3.48142956304379 4.37255207093069
1  8 0 3.48142956304379 4.37255207093069
2  18 9 3 3.48142956304379 4.37255207093069
2  19 9 5 3.48142956304379 4.37255207093069
2  20 4 0 3.48142956304379 4.37255207093069
2  21 3 3 3.48142956304379 4.37255207093069
0

0101000
+92 3 -77 3 *
Wi

0101100
-91 0 -70 2 +76 0 *
Fa
0  1e-07 3 0

0111000
+69 0 *
Ed
 1e-07 1 1 0
2  17 8 0 2.80175574413579 3.48142956304379
1  8 0 2.80175574413579 3.48142956304379
2  18 9 3 2.80175574413579 3.48142956304379
2  19 9 5 2.80175574413579 3.48142956304379
2  20 4 0 2.80175574413579 3.48142956304379
0

0101000
+90 3 -92 3 *
Wi

0101100
+89 0 +67 2 *
Fa
0  1e-07 4 2

0111000
+66 0 *
Ve
1.00000035527137e-07
17.2928932188136 20 5
0 0

0101101
*
Ed
 1e-07 1 1 0
1  9 0 0 17.2928932188136
2  22 5 0 0 17.2928932188136
2  23 3 0 0 17.2928932188136
0

0101000
+88 0 -64 0 *
Ve
1.00000028421709e-07
20 17.2928932188136 5
0 0

0101101
*
Ed
 1e-07 1 1 0
2  24 8 0 1.91063323624893 5.94334839772554
1  10 0 1.91063323624893 5.94334839772554
2  25 10 3 1.91063323624893 5.94334839772554
2  26 10 5 1.91063323624893 5.94334839772554
2  27 4 0 1.91063323624893 5.94334839772554
2  28 3 3 1.91063323624893 5.94334839772554
0

0101000
+64 3 -62 3 *
Ed
 1e-07 1 1 0
1  11 0 0 17.2928932188136
2  29 7 0 0 17.2928932188136
2  30 3 0 0 17.2928932188136
0

0101000
+79 0 -62 0 *
Ve
1e-07
-5.87867965644036 -8 0
0 0

0101101
*
Ed
 1e-07 1 1 0
2  17 8 0 5.0522258898387 6.28318530717959
1  8 0 5.0522258898387 6.28318530717959
2  18 9 3 5.0522258898387 6.28318530717959
2  19 9 5 5.0522258898387 6.28318530717959
2  20 4 0 5.0522258898387 6.28318530717959
2  31 3 3 5.0522258898387 6.28318530717959
0

0101000
+75 3 -59 0 *
Ed
 1e-07 1 1 0
2  17 8 0 0 2.80175574413579
1  8 0 0 2.80175574413579
2  18 9 3 0 2.80175574413579
2  19 9 5 0 2.80175574413579
2  20 4 0 0 2.80175574413579
2  32 3 3 0 2.80175574413579
0

0101000
+59 0 -90 3 *
Wi

0101100
-87 0 -63 0 -61 2 +60 0 +73 0 -58 2 -57 2 *
Ve
1e-07
7.07106781186548 0 0
0 0

0101101
*
Ed
 1e-07 1 1 0
2  33 8 0 0 6.28318530717959
1  12 0 0 6.28318530717959
2  34 11 3 0 6.28318530717959
2  35 11 5 0 6.28318530717959
2  36 4 0 0 6.28318530717959
2  37 3 3 0 6.28318530717959
0

0101000
+55 0 -55 0 *
Wi

0101100
-54 2 *
Fa
0  1e-07 3 0

0111000
+56 0 +53 0 *
Ve
1e-07
20 20 0
0 0

0101101
*
Ed
 1e-07 1 1 0
1  13 0 0 20
2  38 5 0 0 20
2  39 6 0 0 20
0

0101000
-51 0 +86 0 *
Ve
1e-07
20 20 5
0 0

0101101
*
Ed
 1e-07 1 1 0
1  14 0 0 5
2  40 7 0 0 5
2  41 5 0 0 5
0

0101000
-49 0 +51 0 *
Ve
1.00000007944109e-07
18.7071067811865 20 5
0 0

0101101
*
Ed
 1e-07 1 1 0
1  9 0 17.2928932188136 18.7071067811865
2  22 5 0 17.2928932188136 18.7071067811865
2  23 3 0 17.2928932188136 18.7071067811865
2  42 4 2 17.2928932188136 18.7071067811865
0

0101000
+64 0 -47 0 *
Ed
 1e-07 1 1 0
1  9 0 18.7071067811865 20
2  22 5 0 18.7071067811865 20
2  23 3 0 18.7071067811865 20
0

0101000
+47 0 -49 0 *
Wi

0101100
-50 0 -48 0 +63 0 +46 0 +45 0 +85 0 *
Fa
0  1e-07 5 0

0101000
+44 0 *
Ed
 1e-07 1 1 0
1  15 0 0 20
2  43 7 0 0 20
2  44 6 0 0 20
0

0101000
-51 0 +81 0 *
Wi

0101100
-84 0 -50 0 +42 0 +80 0 *
Fa
0  1e-07 6 0

0111000
+41 0 *
Ve
1.00000028421709e-07
20 18.7071067811864 5
0 0

0101101
*
Ed
 1e-07 1 1 0
1  11 0 17.2928932188136 18.7071067811864
2  29 7 0 17.2928932188136 18.7071067811864
2  30 3 0 17.2928932188136 18.7071067811864
2  45 4 2 17.2928932188136 18.7071067811864
0

0101000
+62 0 -39 0 *
Ed
 1e-07 1 1 0
1  11 0 18.7071067811864 20
2  29 7 0 18.7071067811864 20
2  30 3 0 18.7071067811864 20
0

0101000
+39 0 -49 0 *
Wi

0101100
-78 0 -60 0 -38 0 -37 0 +48 0 +42 0 *
Fa
0  1e-07 7 0

0111000
+36 0 *
Ed
 1e-07 1 1 0
2  17 8 0 4.37255207093069 5.0522258898387
1  8 0 4.37255207093069 5.0522258898387
2  18 9 3 4.37255207093069 5.0522258898387
2  19 9 5 4.37255207093069 5.0522258898387
2  20 4 0 4.37255207093069 5.0522258898387
0

0101000
+77 3 -75 3 *
Wi

0101100
+34 2 -74 0 *
Fa
0  1e-07 4 2

0111000
+33 0 *
Ed
 1e-07 1 1 0
1  16 0 0 2.5
3  46 47CN 9 0 0 2.5
0

0101000
+59 2 -59 6 *
Ed
 1e-07 1 1 0
2  17 8 0 0 6.28318530717959
1  8 0 0 6.28318530717959
2  18 9 3 0 6.28318530717959
2  19 9 5 0 6.28318530717959
2  20 4 0 0 6.28318530717959
0

0101000
+59 0 -59 0 *
Wi

0101100
-57 2 -67 2 -70 2 -34 2 -58 2 -31 0 +30 6 +31 0 *
Fa
0  1e-07 9 0

0111000
+29 0 *
Ve
1e-07
10.1213203435596 8 0
0 0

0101101
*
Ed
 1e-07 1 1 0
2  24 8 0 0 0.339836909454044
1  10 0 0 0.339836909454044
2  25 10 3 0 0.339836909454044
2  26 10 5 0 0.339836909454044
2  27 4 0 0 0.339836909454044
0

0101000
+27 0 -39 3 *
Ed
 1e-07 1 1 0
2  24 8 0 0.339836909454044 1.2309594173408
1  10 0 0.339836909454044 1.2309594173408
2  25 10 3 0.339836909454044 1.2309594173408
2  26 10 5 0.339836909454044 1.2309594173408
2  27 4 0 0.339836909454044 1.2309594173408
2  48 3 3 0.339836909454044 1.2309594173408
0

0101000
+39 3 -47 3 *
Ed
 1e-07 1 1 0
2  24 8 0 1.2309594173408 1.91063323624893
1  10 0 1.2309594173408 1.91063323624893
2  25 10 3 1.2309594173408 1.91063323624893
2  26 10 5 1.2309594173408 1.91063323624893
2  27 4 0 1.2309594173408 1.91063323624893
0

0101000
+47 3 -64 3 *
Ed
 1e-07 1 1 0
2  24 8 0 5.94334839772554 6.28318530717959
1  10 0 5.94334839772554 6.28318530717959
2  25 10 3 5.94334839772554 6.28318530717959
2  26 10 5 5.94334839772554 6.28318530717959
2  27 4 0 5.94334839772554 6.28318530717959
0

0101000
+62 3 -27 0 *
Ed
 1e-07 1 1 0
1  17 0 0 2.5
3  49 50CN 10 0 0 2.5
0

0101000
+27 2 -27 6 *
Ed
 1e-07 1 1 0
2  24 8 0 0 6.28318530717959
1  10 0 0 6.28318530717959
2  25 10 3 0 6.28318530717959
2  26 10 5 0 6.28318530717959
2  27 4 0 0 6.28318530717959
0

0101000
+27 0 -27 0 *
Wi

0101100
-26 2 -25 2 -24 2 -61 2 -23 2 -22 0 +21 6 +22 0 *
Fa
0  1e-07 10 0

0111000
+20 0 *
Ed
 1e-07 1 1 0
1  18 0 0 2.5
3  51 52CN 11 0 0 2.5
0

0101000
+55 2 -55 6 *
Wi

0101100
+18 0 -18 0 -54 2 +54 6 *
Fa
0  1e-07 11 0

0111000
+17 0 *
Wi

0101100
+46 0 +24 2 *
Fa
0  1e-07 4 2

0111000
+15 0 *
Wi

0101100
-45 0 +37 0 -25 2 *
Fa
0  1e-07 3 0

0111000
+13 0 *
Wi

0101100
+23 2 -38 0 +26 2 *
Fa
0  1e-07 4 2

0111000
+11 0 *
Wi

0101100
+30 0 *
Fa
0  1e-07 4 0

0111000
+9 0 *
Wi

0101100
+21 0 *
Fa
0  1e-07 4 0

0111000
+7 0 *
Wi

0101100
+54 0 *
Fa
0  1e-07 4 0

0111000
+5 0 *
Sh

0101100
-82 0 -71 0 +68 0 -65 0 +52 0 +43 0 -40 0 +35 0 -32 0 -28 0 
-19 0 -16 0 -14 0 +12 0 -10 0 +8 6 +6 6 +4 6 *
So

0100000
+3 0 *
Co

1100000
+2 0 *

+1 1  