
CASCADE Topology V1, (c) Matra-Datavision
Locations 49
1
              1               0               0             -10 
              0               1               0             -10 
              0               0               1               0 
1
              1               0               0              10 
              0               1               0              10 
              0               0               1               5 
1
              1               0               0             -10 
              0               1               0             -10 
              0               0               1              -5 
1
              1               0               0               0 
              0               1               0               0 
              0               0               1               0 
2  2 1 3 1 4 1 3 -1 0
1
              1               0               0               0 
              0               1               0               0 
              0               0               1               0 
2  2 1 3 1 6 1 3 -1 0
2  6 -1 3 -1 2 -1 0
2  2 1 3 1 4 1 6 -1 3 -1 2 -1 0
2  3 1 6 -1 3 -1 2 -1 0
2  3 -1 0
2  2 1 3 1 6 1 0
2  3 -1 2 -1 0
1
              1               0               0               0 
              0               1               0               0 
              0               0               1             2.5 
2  2 1 3 1 14 1 0
1
              1               0               0             -10 
              0               1               0             -10 
              0               0               1              -5 
1
              1               0               0               0 
              0               1               0               0 
              0               0               1               0 
2  2 1 16 1 17 1 16 -1 0
2  17 -1 16 -1 2 -1 0
1
              1               0               0               0 
              0               1               0               0 
              0               0               1               0 
2  2 1 16 1 20 1 17 -1 16 -1 2 -1 0
2  16 1 17 -1 16 -1 2 -1 0
2  16 -1 2 -1 0
1
              1               0               0             -10 
              0               1               0             -10 
              0               0               1              -5 
1
              1               0               0               0 
              0               1               0               0 
              0               0               1               0 
2  2 1 24 1 25 1 24 -1 0
2  25 -1 24 -1 2 -1 0
1
              1               0               0               0 
              0               1               0               0 
              0               0               1               0 
2  2 1 24 1 28 1 25 -1 24 -1 2 -1 0
2  24 1 25 -1 24 -1 2 -1 0
2  24 -1 2 -1 0
2  14 1 3 -1 0
2  2 1 3 1 0
2  14 -1 0
2  2 1 16 1 20 1 16 -1 0
2  16 -1 0
2  2 1 16 1 17 1 0
1
              1               0               0               0 
              0               1               0               0 
              0               0               1             2.5 
2  2 1 16 1 38 1 0
2  24 -1 0
2  2 1 24 1 25 1 0
1
              1               0               0               0 
              0               1               0               0 
              0               0               1             2.5 
2  2 1 24 1 42 1 0
2  38 1 16 -1 0
2  2 1 16 1 0
2  38 -1 0
2  42 1 24 -1 0
2  2 1 24 1 0
2  42 -1 0
Curve2ds 97
2 -8 -8 1 0 -0 1 2.1213203435596424
1 0 0 1 0 
2 -8 -8 1 0 -0 1 2.1213203435596419
1 5 0 0 1 
1 0 0 1 0 
1 -10 -10 1 0 
8 0 3.2635182233306965
1 6.2831853071795862 0 0 1 
8 0 3.2635182233306965
1 0 0 0 1 
2 2 2 1 0 -0 1 2.1213203435596419
2 2 2 1 0 -0 1 2.1213203435596419
8 0 3.2635182233306965
1 4.1887902047863905 0 0 1 
8 0 3.2635182233306965
1 4.1887902047863905 0 0 1 
1 0 3.2635182233306965 1 0 
2 -8 -8 1 0 -0 1 0.023571265616441295
1 0 0 0 1 
1 0 0 1 0 
1 0 0 1 0 
1 0 20 1 0 
1 0 0 1 0 
1 0 0 1 0 
1 0 0 1 0 
2 -8 -8 1 0 -0 1 2.1213203435596419
2 2 2 1 0 -0 1 2.1213203435596419
8 0 3.2635182233306965
1 2.0943951023931953 0 0 1 
8 0 3.2635182233306965
1 2.0943951023931953 0 0 1 
1 0 3.2635182233306965 1 0 
2 -8 -8 1 -2.4492935982947064e-16 2.4492935982947064e-16 1 0.023571265616441295
1 0 0 1 0 
2 -8 -8 1 0 -0 1 2.1213203435596419
2 2 2 1 0 -0 1 2.1213203435596419
1 5 0 0 -1 
1 0 0 0 1 
1 5 0 0 1 
1 0 20 1 0 
2 8 8 1 0 -0 1 2.1213203435596424
1 0 0 1 0 
2 8 8 1 0 -0 1 2.1213203435596419
2 18 18 1 0 -0 1 2.1213203435596419
1 0 0 1 0 
2 8 8 1 0 -0 1 2.1213203435596419
2 18 18 1 0 -0 1 2.1213203435596419
1 0 0 1 0 
2 8 8 1 0 -0 1 2.1213203435596419
2 18 18 1 0 -0 1 2.1213203435596419
1 5 0 0 -1 
1 20 0 0 1 
2 2 2 1 0 -0 1 2.1213203435596419
2 0 0 1 0 -0 1 7.0710678118654755
1 0 0 1 0 
2 0 0 1 0 -0 1 7.0710678118654755
2 10 10 1 0 -0 1 7.0710678118654755
1 0 0 1 0 
2 0 0 1 0 -0 1 7.0710678118654755
2 10 10 1 0 -0 1 7.0710678118654755
1 0 0 1 0 
2 0 0 1 0 -0 1 7.0710678118654755
2 10 10 1 0 -0 1 7.0710678118654755
1 0 3.2635182233306965 1 0 
2 -8 -8 1 0 -0 1 0.023571265616441295
1 0 0 0 -1 
1 0 0 0 1 
1 0 0 0 1 
1 0 20 1 0 
1 0 0 0 -1 
1 20 0 0 1 
1 10 -10 0 1 
1 0 -20 1 0 
1 0 20 1 0 
1 -10 -10 0 1 
1 0 -20 1 0 
1 0 0 1 0 
1 -10 10 1 0 
8 0 3.2635182233306965
1 0 0 0 1 
8 0 3.2635182233306965
1 6.2831853071795862 0 0 1 
2 18 18 1 0 -0 1 2.1213203435596419
8 0 3.2635182233306965
1 2.0943951023931953 0 0 1 
8 0 3.2635182233306965
1 2.0943951023931953 0 0 1 
1 0 3.2635182233306965 1 0 
2 8 8 1 -2.4492935982947064e-16 2.4492935982947064e-16 1 0.023571265616441295
8 0 3.2635182233306965
1 4.1887902047863905 0 0 1 
8 0 3.2635182233306965
1 4.1887902047863905 0 0 1 
1 0 3.2635182233306965 1 0 
2 8 8 1 0 -0 1 0.023571265616441295
1 0 3.2635182233306965 1 0 
2 8 8 1 0 -0 1 0.023571265616441295
8 0 3.2635182233306965
1 0 0 0 1 
8 0 3.2635182233306965
1 6.2831853071795862 0 0 1 
8 0 3.2635182233306965
1 2.0943951023931953 0 0 1 
8 0 3.2635182233306965
1 2.0943951023931953 0 0 1 
1 0 3.2635182233306965 1 0 
2 0 0 1 -2.4492935982947064e-16 2.4492935982947064e-16 1 4.9733187339222749
8 0 3.2635182233306965
1 4.1887902047863905 0 0 1 
8 0 3.2635182233306965
1 4.1887902047863905 0 0 1 
1 0 3.2635182233306965 1 0 
2 0 0 1 0 -0 1 4.9733187339222749
1 0 3.2635182233306965 1 0 
2 0 0 1 0 -0 1 4.9733187339222749
Curves 33
2 -8 -8 0 0 -0 1 1 0 0 -0 1 0 2.1213203435596424
1 0 0 5 1 0 -0 
8 0 3.2635182233306965
1 -5.8786796564403581 -8 0 -0.64278760968653936 1.5743755774683973e-16 0.76604444311897801 
8 0 3.2635182233306965
1 -9.0606601717798227 -9.8371173070873823 0 0.32139380484327001 0.55667039922641937 0.7660444431189779 
2 -8 -8 2.5 0 -0 1 1 0 0 -0 1 0 0.023571265616441739
1 0 0 0 1 0 -0 
1 20 0 0 0 0 1 
1 0 0 0 0 0 1 
8 0 3.2635182233306965
1 -9.060660171779821 -6.1628826929126168 0 0.32139380484326951 -0.55667039922641948 0.76604444311897801 
2 -8 -8 2.5 0 -0 1 1 0 0 -0 1 0 0.023571265616441739
1 0 0 5 -0 1 0 
1 0 20 5 1 0 -0 
2 8 8 0 0 -0 1 1 0 0 -0 1 0 2.1213203435596424
1 20 0 5 -0 1 0 
2 0 0 0 0 -0 1 1 0 0 -0 1 0 7.0710678118654755
2 -8 -8 2.4999999999999996 0 -0 1 1 0 0 -0 1 0 0.023571265616441295
1 0 0 0 -0 1 0 
1 0 20 0 1 0 -0 
1 20 0 0 -0 1 0 
1 20 20 0 0 0 1 
1 0 20 0 0 0 1 
8 0 3.2635182233306965
1 10.121320343559642 7.9999999999999991 0 -0.64278760968653936 1.5743755774683973e-16 0.76604444311897801 
8 0 3.2635182233306965
1 6.939339828220179 9.8371173070873823 0 0.32139380484326951 -0.55667039922641948 0.76604444311897801 
2 8 8 2.5 0 -0 1 1 0 0 -0 1 0 0.023571265616441739
8 0 3.2635182233306965
1 6.9393398282201808 6.1628826929126177 0 0.32139380484326957 0.55667039922641959 0.7660444431189779 
2 8 8 2.4999999999999996 0 -0 1 1 8.3738264463134768e-16 0 -8.3738264463134768e-16 1 0 0.023571265616439518
2 8 8 2.5 0 -0 1 1 0 0 -0 1 0 0.023571265616441739
8 0 3.2635182233306965
1 7.0710678118654755 -1.7319121124709867e-15 0 -0.64278760968653936 1.5743755774683973e-16 0.76604444311897801 
8 0 3.2635182233306965
1 -3.535533905932736 6.123724356957946 0 0.32139380484326951 -0.55667039922641948 0.76604444311897801 
2 0 0 2.5 0 -0 1 1 0 0 -0 1 0 4.9733187339222749
8 0 3.2635182233306965
1 -3.5355339059327409 -6.1237243569579443 0 0.32139380484327001 0.55667039922641937 0.7660444431189779 
2 0 0 2.5 0 -0 1 1 0 0 -0 1 0 4.9733187339222749
2 0 0 2.4999999999999996 0 -0 1 1 0 0 -0 1 0 4.9733187339222749
Polygon3D 0
PolygonOnTriangulations 0
Surfaces 17
1 0 0 0 0 0 1 1 0 -0 -0 1 0 
1 0 0 0 0 0 1 1 0 -0 -0 1 0 
10 4.1887902047863905 6.2831853071795862 0 3.2635182233306965
3 -8 -8 0 0 -0 1 1 0 0 -0 1 0 2.1213203435596419
-0.6981317007977319
1 0 0 0 -0 1 0 0 0 1 1 0 -0 
1 0 0 5 0 0 1 1 0 -0 -0 1 0 
10 0 2.0943951023931953 0 3.2635182233306965
3 -8 -8 0 0 -0 1 1 0 0 -0 1 0 2.1213203435596419
-0.6981317007977319
10 2.0943951023931953 4.1887902047863905 0 3.2635182233306965
3 -8 -8 0 0 -0 1 1 0 0 -0 1 0 2.1213203435596419
-0.69813170079773201
1 0 0 0 0 0 1 1 0 -0 -0 1 0 
1 20 0 0 1 0 -0 0 0 1 0 -1 0 
1 0 0 0 1 0 -0 0 0 1 0 -1 0 
1 0 20 0 -0 1 0 0 0 1 1 0 -0 
10 0 2.0943951023931953 0 3.2635182233306965
3 8 8 0 0 -0 1 1 0 0 -0 1 0 2.1213203435596419
-0.6981317007977319
10 2.0943951023931953 4.1887902047863905 0 3.2635182233306965
3 8 8 0 0 -0 1 1 8.3738264463134768e-16 0 -8.3738264463134768e-16 1 0 2.1213203435596402
-0.69813170079773201
10 4.1887902047863905 6.2831853071795862 0 3.2635182233306965
3 8 8 0 0 -0 1 1 0 0 -0 1 0 2.1213203435596419
-0.6981317007977319
10 0 2.0943951023931953 0 3.2635182233306965
3 0 0 0 0 -0 1 1 0 0 -0 1 0 7.0710678118654755
-0.6981317007977319
10 4.1887902047863905 6.2831853071795862 0 3.2635182233306965
3 0 0 0 0 -0 1 1 0 0 -0 1 0 7.0710678118654755
-0.6981317007977319
10 2.0943951023931953 4.1887902047863905 0 3.2635182233306965
3 0 0 0 0 -0 1 1 0 0 -0 1 0 7.0710678118654755
-0.69813170079773201
Triangulations 0

TShapes 141
Ve
1.00000034861003e-07
1.29289321881365 -3.48610029732299e-14 5
0 0

0101101
*
Ve
1.0000004241052e-07
2.70710678118631 -4.2410519540681e-14 5
0 0

0101101
*
Ed
 1e-07 1 1 0
2  1 2 0 4.37255207093066 5.0522258898387
1  1 0 4.37255207093066 5.0522258898387
2  2 3 8 4.37255207093066 5.0522258898387
2  3 1 9 4.37255207093066 5.0522258898387
0

0101000
+141 10 -140 10 *
Ed
 1e-07 1 1 0
1  2 0 1.29289321881365 2.70710678118631
2  4 4 0 1.29289321881365 2.70710678118631
2  5 5 0 1.29289321881365 2.70710678118631
2  6 1 5 1.29289321881365 2.70710678118631
0

0101000
+141 0 -140 0 *
Wi

0101100
+139 7 -138 0 *
Fa
0  1e-07 1 5

0111000
+137 0 *
Ve
1e-07
-5.87867965644036 -8 0
0 0

0101101
*
Ve
1e-06
-7.97642873438356 -8 2.5
0 0

0101101
*
Ed
 1e-07 1 1 0
1  3 0 0 3.2635182233307
4 G1 3 0 6 0
2  7 3 0 0 3.2635182233307
2  8 6 0 0 3.2635182233307
0

0101000
+135 12 -134 0 *
Ve
1e-07
-9.06066017177982 -9.83711730708738 0
0 0

0101101
*
Ed
 1e-07 1 1 0
2  1 2 0 4.18879020478639 4.37255207093066
1  1 0 4.18879020478639 4.37255207093066
2  2 3 8 4.18879020478639 4.37255207093066
2  3 1 9 4.18879020478639 4.37255207093066
2  9 5 10 4.18879020478639 4.37255207093066
0

0101000
+132 13 -141 10 *
Ed
 1e-07 1 1 0
2  1 2 0 5.0522258898387 6.28318530717959
1  1 0 5.0522258898387 6.28318530717959
2  2 3 8 5.0522258898387 6.28318530717959
2  3 1 9 5.0522258898387 6.28318530717959
2  10 5 10 5.0522258898387 6.28318530717959
0

0101000
+140 10 -135 0 *
Ve
1e-06
-8.01178563280822 -8.02041331482319 2.5
0 0

0101101
*
Ed
 1e-07 1 1 0
1  4 0 0 3.2635182233307
4 G1 7 0 3 0
2  11 3 0 0 3.2635182233307
2  12 7 0 0 3.2635182233307
0

0101000
+132 6 -129 0 *
Ed
 1e-07 1 1 0
1  5 0 4.18879020478639 6.28318530717959
2  13 3 0 4.18879020478639 6.28318530717959
2  14 1 15 4.18879020478639 6.28318530717959
0

0101000
+129 0 -134 0 *
Wi

0101100
+133 11 +131 7 +139 7 +130 7 -128 11 -127 11 *
Fa
0  1e-07 3 11

0111000
+126 0 *
Ve
1e-07
20 0 0
0 0

0101101
*
Ve
1e-07
0 0 0
0 0

0101101
*
Ed
 1e-07 1 1 0
1  6 0 0 20
2  15 4 0 0 20
2  16 8 0 0 20
0

0101000
-124 0 +123 0 *
Ve
1e-07
20 0 5
0 0

0101101
*
Ed
 1e-07 1 1 0
1  7 0 0 5
2  17 9 0 0 5
2  18 4 0 0 5
0

0101000
-121 0 +124 0 *
Ve
1e-07
0 0 5
0 0

0101101
*
Ed
 1e-07 1 1 0
1  2 0 0 1.29289321881365
2  4 4 0 0 1.29289321881365
2  5 5 0 0 1.29289321881365
0

0101000
+119 0 -141 0 *
Ed
 1e-07 1 1 0
1  2 0 2.70710678118631 20
2  4 4 0 2.70710678118631 20
2  5 5 0 2.70710678118631 20
0

0101000
+140 0 -121 0 *
Ed
 1e-07 1 1 0
1  8 0 0 5
2  19 10 0 0 5
2  20 4 0 0 5
0

0101000
-119 0 +123 0 *
Wi

0101100
-122 0 -120 0 +118 0 +138 0 +117 0 +116 0 *
Fa
0  1e-07 4 0

0101000
+115 0 *
Ve
1e-07
-9.06066017177982 -6.16288269291262 0
0 0

0101101
*
Ed
 1e-07 1 1 0
2  1 2 0 0 2.0943951023932
1  1 0 0 2.0943951023932
2  21 6 8 0 2.0943951023932
2  22 1 9 0 2.0943951023932
2  23 5 10 0 2.0943951023932
0

0101000
+135 0 -113 13 *
Ve
1e-06
-8.01178563280822 -7.97958668517681 2.5
0 0

0101101
*
Ed
 1e-07 1 1 0
1  9 0 0 3.2635182233307
4 G1 6 0 7 0
2  24 6 0 0 3.2635182233307
2  25 7 0 0 3.2635182233307
0

0101000
+113 6 -111 0 *
Ed
 1e-07 1 1 0
1  10 0 0 2.0943951023932
2  26 6 0 0 2.0943951023932
2  27 1 15 0 2.0943951023932
0

0101000
+134 0 -111 0 *
Wi

0101000
-133 0 +112 12 +110 0 -109 0 *
Fa
0  1e-07 6 0

0111000
+108 0 *
Ve
1.00000055289107e-07
-5.52891066263328e-14 1.29289321881377 5
0 0

0101101
*
Ed
 1e-07 1 1 0
2  1 2 0 3.48142956304377 4.18879020478639
1  1 0 3.48142956304377 4.18879020478639
2  28 7 8 3.48142956304377 4.18879020478639
2  29 1 9 3.48142956304377 4.18879020478639
2  30 5 10 3.48142956304377 4.18879020478639
0

0101000
+106 10 -132 13 *
Ed
 1e-07 1 1 0
1  11 0 0 1.29289321881377
2  31 10 0 0 1.29289321881377
2  32 5 0 0 1.29289321881377
0

0101000
+119 0 -106 0 *
Wi

0101100
-105 7 -131 7 +118 0 -104 0 *
Fa
0  1e-07 5 0

0111000
+103 0 *
Ve
1e-07
0 20 5
0 0

0101101
*
Ve
1.00000035527137e-07
17.2928932188136 20 5
0 0

0101101
*
Ed
 1e-07 1 1 0
1  12 0 0 17.2928932188136
2  33 11 0 0 17.2928932188136
2  34 5 0 0 17.2928932188136
0

0101000
+101 0 -100 0 *
Ve
1e-07
6.93933982822018 9.83711730708738 0
0 0

0101101
*
Ed
 1e-07 1 1 0
2  35 2 0 1.91063323624893 2.0943951023932
1  13 0 1.91063323624893 2.0943951023932
2  36 12 19 1.91063323624893 2.0943951023932
2  37 1 21 1.91063323624893 2.0943951023932
2  38 5 22 1.91063323624893 2.0943951023932
0

0101000
+100 22 -98 23 *
Ve
1e-07
6.93933982822018 6.16288269291262 0
0 0

0101101
*
Ed
 1e-07 1 1 0
2  35 2 0 2.0943951023932 4.18879020478639
1  13 0 2.0943951023932 4.18879020478639
2  39 13 19 2.0943951023932 4.18879020478639
2  40 1 21 2.0943951023932 4.18879020478639
2  41 5 22 2.0943951023932 4.18879020478639
0

0101000
+98 23 -96 23 *
Ve
1.00000024868996e-07
20 17.2928932188136 5
0 0

0101101
*
Ed
 1e-07 1 1 0
2  35 2 0 4.18879020478639 5.94334839772553
1  13 0 4.18879020478639 5.94334839772553
2  42 14 19 4.18879020478639 5.94334839772553
2  43 1 21 4.18879020478639 5.94334839772553
2  44 5 22 4.18879020478639 5.94334839772553
0

0101000
+96 23 -94 22 *
Ed
 1e-07 1 1 0
1  14 0 0 17.2928932188136
2  45 9 0 0 17.2928932188136
2  46 5 0 0 17.2928932188136
0

0101000
+121 0 -94 0 *
Ve
1.00000055511151e-07
-5.55111512312578e-14 2.70710678118623 5
0 0

0101101
*
Ed
 1e-07 1 1 0
2  1 2 0 2.0943951023932 2.80175574413582
1  1 0 2.0943951023932 2.80175574413582
2  28 7 8 2.0943951023932 2.80175574413582
2  29 1 9 2.0943951023932 2.80175574413582
2  47 5 10 2.0943951023932 2.80175574413582
0

0101000
+113 13 -91 10 *
Ed
 1e-07 1 1 0
1  11 0 2.70710678118623 20
2  31 10 0 2.70710678118623 20
2  32 5 0 2.70710678118623 20
0

0101000
+91 0 -101 0 *
Wi

0101100
-99 0 -97 18 -95 18 -93 18 +92 0 +117 0 -130 7 -112 7 -90 7 -89 0 
*
Ve
1e-07
7.07106781186548 0 0
0 0

0101101
*
Ve
1e-07
-3.53553390593274 6.12372435695795 0
0 0

0101101
*
Ed
 1e-07 1 1 0
2  48 2 0 0 2.0943951023932
1  15 0 0 2.0943951023932
2  49 15 27 0 2.0943951023932
2  50 1 29 0 2.0943951023932
2  51 5 30 0 2.0943951023932
0

0101000
+87 0 -86 31 *
Ve
1e-07
-3.53553390593274 -6.12372435695794 0
0 0

0101101
*
Ed
 1e-07 1 1 0
2  48 2 0 4.18879020478639 6.28318530717959
1  15 0 4.18879020478639 6.28318530717959
2  52 16 27 4.18879020478639 6.28318530717959
2  53 1 29 4.18879020478639 6.28318530717959
2  54 5 30 4.18879020478639 6.28318530717959
0

0101000
+84 31 -87 0 *
Ed
 1e-07 1 1 0
2  48 2 0 2.0943951023932 4.18879020478639
1  15 0 2.0943951023932 4.18879020478639
2  55 17 27 2.0943951023932 4.18879020478639
2  56 1 29 2.0943951023932 4.18879020478639
2  57 5 30 2.0943951023932 4.18879020478639
0

0101000
+86 31 -84 31 *
Wi

0101100
-85 26 -83 26 -82 26 *
Fa
0  1e-07 5 0

0111000
+88 0 +81 0 *
Ed
 1e-07 1 1 0
2  1 2 0 2.80175574413582 3.48142956304377
1  1 0 2.80175574413582 3.48142956304377
2  28 7 8 2.80175574413582 3.48142956304377
2  29 1 9 2.80175574413582 3.48142956304377
0

0101000
+91 10 -106 10 *
Ed
 1e-07 1 1 0
1  16 0 2.0943951023932 4.18879020478639
2  58 7 0 2.0943951023932 4.18879020478639
2  59 1 15 2.0943951023932 4.18879020478639
0

0101000
+111 0 -129 0 *
Wi

0101100
-110 11 +90 7 +79 7 +105 7 +128 11 -78 11 *
Fa
0  1e-07 7 11

0101000
+77 0 *
Wi

0101000
+109 0 +78 0 +127 0 *
Fa
0  1e-07 1 33

0101000
+75 34 *
Ve
1e-07
0 20 0
0 0

0101101
*
Ed
 1e-07 1 1 0
1  17 0 0 20
2  60 10 0 0 20
2  61 8 0 0 20
0

0101000
-73 0 +123 0 *
Ve
1e-07
20 20 0
0 0

0101101
*
Ed
 1e-07 1 1 0
1  18 0 0 20
2  62 11 0 0 20
2  63 8 0 0 20
0

0101000
-71 0 +73 0 *
Ed
 1e-07 1 1 0
1  19 0 0 20
2  64 9 0 0 20
2  65 8 0 0 20
0

0101000
-71 0 +124 0 *
Wi

0101100
-72 0 -70 0 +69 0 +122 0 *
Fa
0  1e-07 8 0

0111000
+68 0 *
Ve
1.00000024868996e-07
20 18.7071067811864 5
0 0

0101101
*
Ed
 1e-07 1 1 0
1  14 0 17.2928932188136 18.7071067811864
2  45 9 0 17.2928932188136 18.7071067811864
2  46 5 0 17.2928932188136 18.7071067811864
2  66 1 35 17.2928932188136 18.7071067811864
0

0101000
+94 0 -66 0 *
Ve
1e-07
20 20 5
0 0

0101101
*
Ed
 1e-07 1 1 0
1  14 0 18.7071067811864 20
2  45 9 0 18.7071067811864 20
2  46 5 0 18.7071067811864 20
0

0101000
+66 0 -64 0 *
Ed
 1e-07 1 1 0
1  20 0 0 5
2  67 9 0 0 5
2  68 11 0 0 5
0

0101000
-64 0 +71 0 *
Wi

0101100
-120 0 -92 0 -65 0 -63 0 +62 0 +69 0 *
Fa
0  1e-07 9 0

0101000
+61 0 *
Ed
 1e-07 1 1 0
1  11 0 1.29289321881377 2.70710678118623
2  31 10 0 1.29289321881377 2.70710678118623
2  32 5 0 1.29289321881377 2.70710678118623
2  69 1 5 1.29289321881377 2.70710678118623
0

0101000
+106 0 -91 0 *
Ed
 1e-07 1 1 0
1  21 0 0 5
2  70 10 0 0 5
2  71 11 0 0 5
0

0101000
-101 0 +73 0 *
Wi

0101100
-116 0 -104 0 -59 0 -89 0 +58 0 +72 0 *
Fa
0  1e-07 10 0

0101000
+57 0 *
Ve
1.00000007944109e-07
18.7071067811865 20 5
0 0

0101101
*
Ed
 1e-07 1 1 0
1  12 0 17.2928932188136 18.7071067811865
2  33 11 0 17.2928932188136 18.7071067811865
2  34 5 0 17.2928932188136 18.7071067811865
2  72 1 35 17.2928932188136 18.7071067811865
0

0101000
+100 0 -55 0 *
Ed
 1e-07 1 1 0
1  12 0 18.7071067811865 20
2  33 11 0 18.7071067811865 20
2  34 5 0 18.7071067811865 20
0

0101000
+55 0 -64 0 *
Wi

0101100
-70 0 -62 0 +99 0 +54 0 +53 0 +58 0 *
Fa
0  1e-07 11 0

0101000
+52 0 *
Ve
1e-07
10.1213203435596 8 0
0 0

0101101
*
Ve
1e-06
8.02357126561644 8 2.5
0 0

0101101
*
Ed
 1e-07 1 1 0
1  22 0 0 3.2635182233307
4 G1 14 0 12 0
2  73 12 0 0 3.2635182233307
2  74 14 0 0 3.2635182233307
0

0101000
+50 37 -49 0 *
Ed
 1e-07 1 1 0
2  35 2 0 0 0.339836909454054
1  13 0 0 0.339836909454054
2  36 12 19 0 0.339836909454054
2  37 1 21 0 0.339836909454054
0

0101000
+50 0 -66 22 *
Ed
 1e-07 1 1 0
2  35 2 0 0.339836909454054 1.2309594173408
1  13 0 0.339836909454054 1.2309594173408
2  36 12 19 0.339836909454054 1.2309594173408
2  37 1 21 0.339836909454054 1.2309594173408
2  75 5 22 0.339836909454054 1.2309594173408
0

0101000
+66 22 -55 22 *
Ed
 1e-07 1 1 0
2  35 2 0 1.2309594173408 1.91063323624893
1  13 0 1.2309594173408 1.91063323624893
2  36 12 19 1.2309594173408 1.91063323624893
2  37 1 21 1.2309594173408 1.91063323624893
0

0101000
+55 22 -100 22 *
Ve
1e-06
7.98821436719178 8.02041331482319 2.5
0 0

0101101
*
Ed
 1e-07 1 1 0
1  23 0 0 3.2635182233307
4 G1 12 0 13 0
2  76 12 0 0 3.2635182233307
2  77 13 0 0 3.2635182233307
0

0101000
+98 17 -44 0 *
Ed
 1e-07 1 1 0
1  24 0 0 2.0943951023932
2  78 12 0 0 2.0943951023932
2  79 1 39 0 2.0943951023932
0

0101000
+49 0 -44 0 *
Wi

0101100
-48 36 +47 18 +46 18 +45 18 +97 18 +43 36 -42 36 *
Fa
0  1e-07 12 36

0101000
+41 0 *
Ve
1e-06
7.98821436719178 7.97958668517681 2.5
0 0

0101101
*
Ed
 1e-07 1 1 0
1  25 0 0 3.2635182233307
4 G1 13 0 14 0
2  80 14 0 0 3.2635182233307
2  81 13 0 0 3.2635182233307
0

0101000
+96 17 -39 0 *
Ed
 1e-07 1 1 0
1  26 0 2.0943951023932 4.18879020478639
2  82 13 0 2.0943951023932 4.18879020478639
2  83 1 39 2.0943951023932 4.18879020478639
0

0101000
+44 0 -39 0 *
Wi

0101000
-43 0 +95 37 +38 0 -37 0 *
Fa
0  1e-07 13 0

0111000
+36 0 *
Ed
 1e-07 1 1 0
2  35 2 0 5.94334839772553 6.28318530717959
1  13 0 5.94334839772553 6.28318530717959
2  42 14 19 5.94334839772553 6.28318530717959
2  43 1 21 5.94334839772553 6.28318530717959
0

0101000
+94 22 -50 0 *
Ed
 1e-07 1 1 0
1  27 0 4.18879020478639 6.28318530717959
2  84 14 0 4.18879020478639 6.28318530717959
2  85 1 39 4.18879020478639 6.28318530717959
0

0101000
+39 0 -49 0 *
Wi

0101100
+48 36 +93 18 +34 18 -38 36 -33 36 *
Fa
0  1e-07 14 36

0111000
+32 0 *
Ve
1e-06
4.97331873392227 -1.2181117737275e-15 2.5
0 0

0101101
*
Ed
 1e-07 1 1 0
1  28 0 0 3.2635182233307
4 G1 16 0 15 0
2  86 15 0 0 3.2635182233307
2  87 16 0 0 3.2635182233307
0

0101000
+87 41 -30 0 *
Ve
1e-06
-2.48665936696114 4.30702036469375 2.5
0 0

0101101
*
Ed
 1e-07 1 1 0
1  29 0 0 3.2635182233307
4 G1 15 0 17 0
2  88 15 0 0 3.2635182233307
2  89 17 0 0 3.2635182233307
0

0101000
+86 25 -28 0 *
Ed
 1e-07 1 1 0
1  30 0 0 2.0943951023932
2  90 15 0 0 2.0943951023932
2  91 1 43 0 2.0943951023932
0

0101000
+30 0 -28 0 *
Wi

0101000
-29 0 +85 41 +27 0 -26 0 *
Fa
0  1e-07 15 0

0111000
+25 0 *
Ve
1e-06
-2.48665936696114 -4.30702036469375 2.5
0 0

0101101
*
Ed
 1e-07 1 1 0
1  31 0 0 3.2635182233307
4 G1 17 0 16 0
2  92 16 0 0 3.2635182233307
2  93 17 0 0 3.2635182233307
0

0101000
+84 25 -23 0 *
Ed
 1e-07 1 1 0
1  32 0 4.18879020478639 6.28318530717959
2  94 16 0 4.18879020478639 6.28318530717959
2  95 1 43 4.18879020478639 6.28318530717959
0

0101000
+23 0 -30 0 *
Wi

0101000
+29 0 +83 41 -22 0 -21 0 *
Fa
0  1e-07 16 0

0111000
+20 0 *
Ed
 1e-07 1 1 0
1  33 0 2.0943951023932 4.18879020478639
2  96 17 0 2.0943951023932 4.18879020478639
2  97 1 43 2.0943951023932 4.18879020478639
0

0101000
+28 0 -23 0 *
Wi

0101000
-27 0 +82 41 +22 0 -18 0 *
Fa
0  1e-07 17 0

0111000
+17 0 *
Wi

0101100
+59 0 +79 7 *
Fa
0  1e-07 1 5

0111000
+15 0 *
Wi

0101100
+34 18 -65 0 +47 18 *
Fa
0  1e-07 1 35

0111000
+13 0 *
Wi

0101100
-53 0 +63 0 -46 18 *
Fa
0  1e-07 5 0

0111000
+11 0 *
Wi

0101100
+54 0 +45 18 *
Fa
0  1e-07 1 35

0111000
+9 0 *
Wi

0101000
+42 0 +37 0 +33 0 *
Fa
0  1e-07 1 45

0101000
+7 46 *
Wi

0101000
+26 0 +18 0 +21 0 *
Fa
0  1e-07 1 48

0111000
+5 49 *
Sh

0101100
-136 0 +125 0 -114 0 +107 11 +102 0 +80 0 +76 0 +74 32 -67 0 +60 0 
-56 0 +51 0 +40 0 +35 36 +31 0 +24 40 +19 40 +16 40 -14 0 -12 0 
+10 0 -8 0 +6 44 +4 47 *
So

0100000
+3 0 *
Co

1100000
+2 0 *

+1 1  