
CASCADE Topology V1, (c) Matra-Datavision
Locations 6
1
              1               0               0             -10 
              0               1               0             -10 
              0               0               1               0 
1
              0               0              -1               0 
              0              -1               0              10 
             -1              -0               0              10 
2  2 -1 0
1
              1               0               0            -2.5 
              0               1               0              -0 
              0               0               1               0 
2  4 -1 2 -1 0
2  2 1 4 1 0
Curve2ds 38
1 0 0 1 0 
1 0 0 1 0 
2 0 0 1 0 -0 1 11
1 0 0 1 0 
1 0 -2.5 1 0 
2 0 0 1 0 -0 1 11
2 10 -10 -1 0 0 1 11
1 0 0 0 -1 
1 0 0 0 1 
1 0 0 0 1 
1 0 0 1 0 
1 0 0 1 0 
1 0 20 1 0 
1 20 0 0 1 
1 0 0 1 0 
1 10 10 -1 0 
2 10 -10 -1 0 0 1 11
2 10 -10 -1 0 0 1 11
2 10 -10 -1 0 0 1 11
1 0 0 0 -1 
1 6.2831853071795862 0 0 -1 
1 10 10 0 -1 
1 0 0 0 1 
1 0 20 1 0 
1 0 0 0 -1 
1 20 0 0 1 
1 20 0 0 -1 
1 20 0 0 1 
1 0 -20 1 0 
1 0 20 1 0 
1 20 0 0 -1 
1 0 0 0 1 
1 -10 10 0 -1 
1 20 0 0 1 
1 0 20 1 0 
1 0 -20 1 0 
1 0 0 1 0 
1 10 -10 -1 0 
Curves 14
1 0 0 0 0 0 1 
2 0 0 0 0 -0 1 1 0 0 -0 1 0 11
1 0 0 0 -0 1 0 
1 0 0 0 1 0 -0 
1 20 0 0 0 0 1 
1 0 0 20 1 0 -0 
1 0 10 -1 -1 -0 0 
1 0 20 0 1 0 -0 
1 20 0 0 -0 1 0 
1 20 0 20 -0 1 0 
1 20 20 0 0 0 1 
1 0 0 20 -0 1 0 
1 0 20 20 1 0 -0 
1 0 20 0 0 0 1 
Polygon3D 0
PolygonOnTriangulations 0
Surfaces 9
1 0 0 0 1 0 -0 0 0 1 0 -1 0 
1 0 0 0 -0 1 0 0 0 1 1 0 -0 
1 0 0 0 0 0 1 1 0 -0 -0 1 0 
2 0 10 10 1 0 0 0 0 -1 0 -1 0 11
1 0 0 0 0 0 1 1 0 -0 -0 1 0 
1 0 0 0 0 0 1 1 0 -0 -0 1 0 
1 20 0 0 1 0 -0 0 0 1 0 -1 0 
1 0 0 20 0 0 1 1 0 -0 -0 1 0 
1 0 20 0 -0 1 0 0 0 1 1 0 -0 
Triangulations 0

TShapes 81
Ve
1e-07
0 0 0
0 0

0101101
*
Ve
1.00000000888178e-07
0 -8.88178419700125e-16 5.41742430504416
0 0

0101101
*
Ed
 1e-07 1 1 0
1  1 0 0 5.41742430504416
2  1 1 0 0 5.41742430504416
2  2 2 0 0 5.41742430504416
0

0101000
+81 0 -80 0 *
Ve
1.00000020428104e-07
0 5.41742430504407 2.04281036531029e-14
0 0

0101101
*
Ed
 1e-07 1 1 0
2  3 3 0 0.429699666151433 1.14109666064347
1  2 0 0.429699666151433 1.14109666064347
2  4 4 3 0.429699666151433 1.14109666064347
2  5 4 5 0.429699666151433 1.14109666064347
2  6 5 0 0.429699666151433 1.14109666064347
2  7 1 3 0.429699666151433 1.14109666064347
0

0101000
+78 3 -80 3 *
Ed
 1e-07 1 1 0
1  3 0 0 5.41742430504407
2  8 1 0 0 5.41742430504407
2  9 6 0 0 5.41742430504407
0

0101000
+81 0 -78 0 *
Wi

0101100
-79 0 +77 2 +76 0 *
Fa
0  1e-07 1 0

0111000
+75 0 *
Ve
1e-07
20 0 0
0 0

0101101
*
Ed
 1e-07 1 1 0
1  4 0 0 20
2  10 2 0 0 20
2  11 6 0 0 20
0

0101000
-73 0 +81 0 *
Ve
1e-07
20 0 20
0 0

0101101
*
Ed
 1e-07 1 1 0
1  5 0 0 20
2  12 7 0 0 20
2  13 2 0 0 20
0

0101000
-71 0 +73 0 *
Ve
1e-07
0 0 20
0 0

0101101
*
Ed
 1e-07 1 1 0
1  6 0 0 20
2  14 2 0 0 20
2  15 8 0 0 20
0

0101000
-71 0 +69 0 *
Ve
1.00000023092639e-07
0 2.30926389122033e-14 14.5825756949559
0 0

0101101
*
Ed
 1e-07 1 1 0
1  1 0 5.41742430504416 14.5825756949559
2  1 1 0 5.41742430504416 14.5825756949559
2  2 2 0 5.41742430504416 14.5825756949559
2  16 5 2 5.41742430504416 14.5825756949559
0

0101000
+80 0 -67 0 *
Ed
 1e-07 1 1 0
1  1 0 14.5825756949559 20
2  1 1 0 14.5825756949559 20
2  2 2 0 14.5825756949559 20
0

0101000
+67 0 -69 0 *
Wi

0101100
-72 0 -70 0 +68 0 +79 0 +66 0 +65 0 *
Fa
0  1e-07 2 0

0101000
+64 0 *
Ve
1e-07
11 0 0
0 0

0101101
*
Ed
 1e-07 1 1 0
2  3 3 0 0 0.429699666151433
1  2 0 0 0.429699666151433
2  4 4 3 0 0.429699666151433
2  5 4 5 0 0.429699666151433
2  6 5 0 0 0.429699666151433
0

0101000
+62 0 -78 3 *
Ed
 1e-07 1 1 0
2  3 3 0 1.14109666064347 2.00049599294633
1  2 0 1.14109666064347 2.00049599294633
2  4 4 3 1.14109666064347 2.00049599294633
2  5 4 5 1.14109666064347 2.00049599294633
2  6 5 0 1.14109666064347 2.00049599294633
0

0101000
+80 3 -67 3 *
Ve
1.00000017763568e-07
0 5.41742430504409 20
0 0

0101101
*
Ed
 1e-07 1 1 0
2  3 3 0 2.00049599294633 2.71189298743836
1  2 0 2.00049599294633 2.71189298743836
2  4 4 3 2.00049599294633 2.71189298743836
2  5 4 5 2.00049599294633 2.71189298743836
2  6 5 0 2.00049599294633 2.71189298743836
2  17 1 3 2.00049599294633 2.71189298743836
0

0101000
+67 3 -59 3 *
Ve
1.00000017763568e-07
0 14.5825756949559 20
0 0

0101101
*
Ed
 1e-07 1 1 0
2  3 3 0 2.71189298743836 3.57129231974122
1  2 0 2.71189298743836 3.57129231974122
2  4 4 3 2.71189298743836 3.57129231974122
2  5 4 5 2.71189298743836 3.57129231974122
2  6 5 0 2.71189298743836 3.57129231974122
0

0101000
+59 3 -57 3 *
Ve
1.00000021316282e-07
0 20 14.5825756949559
0 0

0101101
*
Ed
 1e-07 1 1 0
2  3 3 0 3.57129231974122 4.28268931423326
1  2 0 3.57129231974122 4.28268931423326
2  4 4 3 3.57129231974122 4.28268931423326
2  5 4 5 3.57129231974122 4.28268931423326
2  6 5 0 3.57129231974122 4.28268931423326
2  18 1 3 3.57129231974122 4.28268931423326
0

0101000
+57 3 -55 3 *
Ve
1.00000003552714e-07
0 20 5.41742430504417
0 0

0101101
*
Ed
 1e-07 1 1 0
2  3 3 0 4.28268931423326 5.14208864653611
1  2 0 4.28268931423326 5.14208864653611
2  4 4 3 4.28268931423326 5.14208864653611
2  5 4 5 4.28268931423326 5.14208864653611
2  6 5 0 4.28268931423326 5.14208864653611
0

0101000
+55 3 -53 3 *
Ve
1.00000019539925e-07
0 14.5825756949559 1.95399252334028e-14
0 0

0101101
*
Ed
 1e-07 1 1 0
2  3 3 0 5.14208864653611 5.85348564102815
1  2 0 5.14208864653611 5.85348564102815
2  4 4 3 5.14208864653611 5.85348564102815
2  5 4 5 5.14208864653611 5.85348564102815
2  6 5 0 5.14208864653611 5.85348564102815
2  19 1 3 5.14208864653611 5.85348564102815
0

0101000
+53 3 -51 3 *
Ed
 1e-07 1 1 0
2  3 3 0 5.85348564102815 6.28318530717959
1  2 0 5.85348564102815 6.28318530717959
2  4 4 3 5.85348564102815 6.28318530717959
2  5 4 5 5.85348564102815 6.28318530717959
2  6 5 0 5.85348564102815 6.28318530717959
0

0101000
+51 3 -62 0 *
Ed
 1e-07 1 1 0
1  7 0 0 2.5
3  20 21CN 4 0 0 2.5
0

0101000
+62 2 -62 6 *
Ed
 1e-07 1 1 0
2  3 3 0 0 6.28318530717959
1  2 0 0 6.28318530717959
2  4 4 3 0 6.28318530717959
2  5 4 5 0 6.28318530717959
2  6 5 0 0 6.28318530717959
0

0101000
+62 0 -62 0 *
Wi

0101100
-61 2 -77 2 -60 2 -58 2 -56 2 -54 2 -52 2 -50 2 -49 2 -48 0 
+47 6 +48 0 *
Fa
0  1e-07 4 0

0111000
+46 0 *
Ed
 1e-07 1 1 0
1  3 0 5.41742430504407 14.5825756949559
2  8 1 0 5.41742430504407 14.5825756949559
2  9 6 0 5.41742430504407 14.5825756949559
2  22 5 2 5.41742430504407 14.5825756949559
0

0101000
+78 0 -51 0 *
Ve
1e-07
0 20 0
0 0

0101101
*
Ed
 1e-07 1 1 0
1  3 0 14.5825756949559 20
2  8 1 0 14.5825756949559 20
2  9 6 0 14.5825756949559 20
0

0101000
+51 0 -43 0 *
Ve
1e-07
20 20 0
0 0

0101101
*
Ed
 1e-07 1 1 0
1  8 0 0 20
2  23 9 0 0 20
2  24 6 0 0 20
0

0101000
-41 0 +43 0 *
Ed
 1e-07 1 1 0
1  9 0 0 20
2  25 7 0 0 20
2  26 6 0 0 20
0

0101000
-41 0 +73 0 *
Wi

0101100
-76 0 -44 0 -42 0 -40 0 +39 0 +72 0 *
Fa
0  1e-07 6 0

0101000
+38 0 *
Ve
1e-07
20 20 20
0 0

0101101
*
Ed
 1e-07 1 1 0
1  10 0 0 20
2  27 7 0 0 20
2  28 8 0 0 20
0

0101000
-36 0 +71 0 *
Ed
 1e-07 1 1 0
1  11 0 0 20
2  29 7 0 0 20
2  30 9 0 0 20
0

0101000
-36 0 +41 0 *
Wi

0101100
-70 0 -35 0 +34 0 +39 0 *
Fa
0  1e-07 7 0

0111000
+33 0 *
Ed
 1e-07 1 1 0
1  12 0 0 5.41742430504409
2  31 1 0 0 5.41742430504409
2  32 8 0 0 5.41742430504409
0

0101000
+69 0 -59 0 *
Ed
 1e-07 1 1 0
1  12 0 5.41742430504409 14.5825756949559
2  31 1 0 5.41742430504409 14.5825756949559
2  32 8 0 5.41742430504409 14.5825756949559
2  33 5 2 5.41742430504409 14.5825756949559
0

0101000
+59 0 -57 0 *
Ve
1e-07
0 20 20
0 0

0101101
*
Ed
 1e-07 1 1 0
1  12 0 14.5825756949559 20
2  31 1 0 14.5825756949559 20
2  32 8 0 14.5825756949559 20
0

0101000
+57 0 -29 0 *
Ed
 1e-07 1 1 0
1  13 0 0 20
2  34 9 0 0 20
2  35 8 0 0 20
0

0101000
-36 0 +29 0 *
Wi

0101100
-31 0 -30 0 -28 0 -27 0 +35 0 +68 0 *
Fa
0  1e-07 8 0

0101000
+26 0 *
Wi

0101100
-66 0 +60 2 *
Fa
0  1e-07 5 2

0111000
+24 0 *
Wi

0101100
-65 0 -31 0 +58 2 *
Fa
0  1e-07 1 0

0111000
+22 0 *
Wi

0101100
+49 2 +44 0 +61 2 *
Fa
0  1e-07 5 2

0111000
+20 0 *
Wi

0101100
-30 0 +56 2 *
Fa
0  1e-07 5 2

0111000
+18 0 *
Ed
 1e-07 1 1 0
1  14 0 14.5825756949559 20
2  36 1 0 14.5825756949559 20
2  37 9 0 14.5825756949559 20
0

0101000
+55 0 -29 0 *
Wi

0101100
-28 0 +16 0 +54 2 *
Fa
0  1e-07 1 0

0111000
+15 0 *
Ed
 1e-07 1 1 0
1  14 0 5.41742430504417 14.5825756949559
2  36 1 0 5.41742430504417 14.5825756949559
2  37 9 0 5.41742430504417 14.5825756949559
2  38 5 2 5.41742430504417 14.5825756949559
0

0101000
+53 0 -55 0 *
Wi

0101100
+52 2 +13 0 *
Fa
0  1e-07 5 2

0111000
+12 0 *
Ed
 1e-07 1 1 0
1  14 0 0 5.41742430504417
2  36 1 0 0 5.41742430504417
2  37 9 0 0 5.41742430504417
0

0101000
+43 0 -53 0 *
Wi

0101100
+50 2 +10 0 +42 0 *
Fa
0  1e-07 1 0

0111000
+9 0 *
Wi

0101100
+47 0 *
Fa
0  1e-07 5 0

0111000
+7 0 *
Wi

0101100
-40 0 -34 0 +27 0 +10 0 +13 0 +16 0 *
Fa
0  1e-07 9 0

0101000
+5 0 *
Sh

0101100
-74 0 -63 0 -45 0 -37 0 +32 0 +25 0 -23 0 -21 0 -19 0 -17 0 
-14 0 -11 0 -8 0 +6 6 +4 0 *
So

0100000
+3 0 *
Co

1100000
+2 0 *

+1 1  