
CASCADE Topology V1, (c) Matra-Datavision
Locations 39
1
              1               0               0               0 
              0               1               0               0 
              0               0               1               0 
1
              1               0               0               5 
              0               1               0               0 
              0               0               1               0 
1
0.707106781186548               0 0.707106781186548 3.2824855787278 
              0               1               0               0 
-0.707106781186548               0 0.707106781186548 6.92462120245875 
2  2 1 3 1 0
2  2 -1 0
2  3 -1 0
1
0.707106781186548               0 0.707106781186548 3.2824855787278 
              0               1               0               0 
-0.707106781186548               0 0.707106781186548 6.92462120245875 
2  7 1 3 -1 0
1
0.707106781186548               0 -0.707106781186548 3.98959235991435 
              0               1               0               0 
0.707106781186548               0 0.707106781186548 -6.6317279836453 
2  9 1 3 -1 0
2  3 1 9 -1 0
2  9 -1 0
2  7 -1 0
2  3 1 7 -1 0
1
0.707106781186548               0 -0.707106781186548 3.98959235991435 
              0               1               0               0 
0.707106781186548               0 0.707106781186548 -6.6317279836453 
2  15 -1 0
1
              1               0               0               5 
              0               1               0               0 
              0               0               1              -0 
2  17 -1 0
1
0.707106781186548               0 -0.707106781186548 3.98959235991435 
              0               1               0               0 
0.707106781186548               0 0.707106781186548 -6.6317279836453 
2  19 -1 0
1
              1               0               0               5 
              0               1               0               0 
              0               0               1              -0 
2  21 -1 0
2  19 1 9 -1 0
2  21 1 9 1 0
1
0.707106781186548               0 -0.707106781186548 3.98959235991435 
              0               1               0               0 
0.707106781186548               0 0.707106781186548 -6.6317279836453 
2  25 1 9 -1 0
2  9 -1 21 -1 0
1
0.707106781186548               0 -0.707106781186548 3.98959235991435 
              0               1               0               0 
0.707106781186548               0 0.707106781186548 -6.6317279836453 
2  28 -1 0
2  25 1 9 -1 21 -1 0
1
              1               0               0               5 
              0               1               0               0 
              0               0               1               0 
2  31 1 25 1 9 -1 21 -1 0
2  25 -1 0
2  31 -1 0
2  28 1 25 -1 0
2  31 1 25 1 0
2  25 -1 31 -1 0
2  9 1 25 -1 0
2  25 1 28 -1 0
Curve2ds 221
1 0 0 1 0 
1 0 -5.0000000000000009 1 0 
1 -0.50000000000000122 1.25 0 -1 
1 -0.50000000000000122 -1.25 1 0 
1 0 0 1 0 
1 0 -5.0000000000000009 1 0 
1 0.50000000000000122 -1.25 0 1 
1 0 0 1 0 
1 0 -5.0000000000000009 1 0 
1 0 0 1 0 
1 0 -5.0000000000000009 1 0 
1 0.50000000000000122 1.25 -1 -0 
1 1.0000000000000018 1.2212453270876722e-015 0 -1 
1 0 0 0 -1 
8 0 2.5
1 0.78539816339744828 0 0 1 
1 -0.25000000000000017 1.25 0 -1 
1 2.5 0 0 -1 
1 0 0 0 -1 
1 -0.35355339059327395 0.35355339059327306 -0.70710678118654757 0.70710678118654757 
1 -0.25000000000000017 -1.25 1 0 
1 1.0000000000000018 -1.2212453270876722e-015 0 -1 
1 0 0 0 -1 
1 0 0 0 -1 
1 2.5 0 0 -1 
1 0.41421356237309703 -0.085786437626907047 1 0 
1 0.50000000000000089 -6.106226635438361e-016 0 -1 
1 5 0 0 -1 
1 0.085786437626906395 -0.085786437626903869 -1 0 
2 0 0 -1 0 0 1 1.5
1 0 7.5 1 0 
2 0.085786437626906409 1.4142135623730958 0.70710678118654757 -0.70710678118654757 -0.70710678118654757 -0.70710678118654757 1.5
1 1.0606601717798219 1.0606601717798227 -0.70710678118654757 -0.70710678118654757 
1 0.75000000000000111 1.25 -1 -0 
1 0 0 1 0 
2 0 0 1 0 -0 1 0.5
1 0 0 0 1 
1 0.78539816339744828 0 0 1 
1 -0.25000000000000017 1.25 0 -1 
1 10 7.5 0 1 
1 0 -7.5 0 -1 
1 0 2.5 1 0 
2 0 0 -1 0 0 1 0.5
1 -0.5 0 -1 0 
1 -0.35355339059327395 0.35355339059327306 -0.70710678118654757 0.70710678118654757 
1 -0.25000000000000017 -1.25 1 0 
1 0 10 1 0 
1 0 -10 1 0 
2 0 0 -1 0 0 1 1
1 0 0 1 0 
1 0.41421356237309703 -0.085786437626907047 0 1 
1 -0.93933982822017814 1.0606601717798227 -0.70710678118654757 -0.70710678118654757 
1 0 0 0 1 
1 0.78539816339744828 0 0 1 
1 0.24999999999999983 -1.25 0 1 
1 0.5 -10 0 1 
1 0 -1.25 0 1 
1 1 0 -1 0 
1 0.70710678118654791 0.70710678118654791 -0.70710678118654757 -0.70710678118654757 
1 0.24999999999999983 1.25 -1 -0 
1 0.5 -7.5 -1 0 
1 -1 0 -1 0 
1 -0.70710678118654702 0.70710678118654613 -0.70710678118654757 0.70710678118654757 
1 0 0 1 0 
1 0 -5.0000000000000009 1 0 
1 -1 0 -1 0 
1 -0.70710678118654702 0.70710678118654613 -0.70710678118654757 0.70710678118654757 
1 0 0 1 0 
1 0 -5.0000000000000009 1 0 
1 -0.70710678118654702 0.70710678118654613 -0.70710678118654757 0.70710678118654757 
1 0.50000000000000122 -7.5 -1 0 
1 0 0 0 -1 
1 0 0 0 -1 
1 0 0 0 -1 
1 0 0 0 -1 
1 2.5 0 0 -1 
1 0 0 0 -1 
1 0 0 0 -1 
1 10 0 0 1 
1 0 0 0 1 
1 0.78539816339744828 0 0 1 
1 -2.5 -0 1 0 
1 -2.5 -5.0000000000000009 1 0 
1 0 0 0 1 
1 0.78539816339744828 0 0 1 
1 -2.5 -0 1 0 
1 -2.5 -5.0000000000000009 1 0 
8 2.5 7.5
1 0.78539816339744828 0 0 1 
1 0 0 0 -1 
2 0 0 1 0 -0 1 1.5
1 0 2.5 1 0 
8 0 0.78539816339744828
1 0 2.5 1 0 
2 0 0 1 0 -0 1 1.5
2 2 0 -1 0 0 1 1.5
1 0 0 0 -1 
1 0 0 0 1 
1 0 0 0 1 
1 0 10 1 0 
1 0 0 0 1 
1 0 0 1 0 
1 0 0 0 1 
1 0.78539816339744828 0 0 1 
1 -0.24999999999999953 1.25 0 -1 
1 0 0 0 -1 
1 10 0 0 1 
1 0 -10 1 0 
1 0 0 1 0 
1 1 0 0 1 
1 0 10 1 0 
1 0 -10 1 0 
1 0 10 1 0 
1 0 2.5 1 0 
2 0 0 1 0 -0 1 1
2 -2 0 1 0 -0 1 1
2 -2 0 1 0 -0 1 1
2 0 0 1 0 -0 1 1
2 0 0 -1 0 0 1 1
1 1 0 0 -1 
1 10 0 0 1 
1 0 0 0 1 
1 0.78539816339744828 0 0 1 
1 -2.5 -0 1 0 
1 -2.5 -5.0000000000000009 1 0 
1 0 0 0 1 
1 0.78539816339744828 0 0 1 
1 -2.5 -0 1 0 
1 -2.5 -5.0000000000000009 1 0 
1 1 -2.5 -1 0 
1 -0.5 0 -1 0 
1 -0.35355339059327306 0.35355339059327306 -0.70710678118654757 0.70710678118654757 
1 0 0 1 0 
1 0 -5.0000000000000009 1 0 
1 -0.5 0 -1 0 
1 -0.35355339059327306 0.35355339059327306 -0.70710678118654757 0.70710678118654757 
1 0 0 1 0 
1 0 -5.0000000000000009 1 0 
1 1.0000000000000004 -5 -1 0 
1 0.49999999999999906 -1.25 -1 0 
1 0 -7.5 1 0 
1 1.5 0 -1 0 
1 1.060660171779821 1.060660171779821 -0.70710678118654757 -0.70710678118654757 
1 -0.50000000000000089 -6.106226635438361e-016 1 0 
1 -0.50000000000000089 -5.0000000000000009 1 0 
1 1.5 0 -1 0 
1 1.060660171779821 1.060660171779821 -0.70710678118654757 -0.70710678118654757 
1 -0.50000000000000089 -6.106226635438361e-016 1 0 
1 -0.50000000000000089 -5.0000000000000009 1 0 
1 1.5 0 -1 0 
1 1.060660171779821 1.060660171779821 -0.70710678118654757 -0.70710678118654757 
1 -0.24999999999999953 -1.25 1 0 
1 0 -2.5 1 0 
1 1.5 0 -1 0 
1 1.060660171779821 1.060660171779821 -0.70710678118654757 -0.70710678118654757 
1 0 0 1 0 
1 0 -5.0000000000000009 1 0 
1 1.5 0 -1 0 
1 1.060660171779821 1.060660171779821 -0.70710678118654757 -0.70710678118654757 
1 0 0 1 0 
1 0 -5.0000000000000009 1 0 
1 0 -5.0000000000000009 1 0 
1 -0.50000000000000122 -1.25 1 0 
1 1.060660171779821 1.060660171779821 -0.70710678118654757 -0.70710678118654757 
1 0 -7.5 1 0 
1 5 0 0 -1 
1 0.49999999999999967 -6.3837823915946501e-016 0 -1 
1 1.0000000000000007 0 0 -1 
1 0 0 0 -1 
1 -0.50000000000000122 1.25 0 -1 
1 0 0 1 0 
1 0 -5.0000000000000009 1 0 
8 0 2.5
1 0.78539816339744828 0 0 1 
1 -0.24999999999999953 1.25 0 -1 
2 0 0 -1 0 0 1 1.5
1 0 0 1 0 
1 0 0 1 0 
1 0 0 1 0 
1 1 0 0 -1 
1 0 0 0 1 
1 -1 0 -1 0 
1 -0.70710678118654702 0.70710678118654613 -0.70710678118654757 0.70710678118654757 
1 0.25000000000000172 1.25 -1 0 
1 0.5 0 -1 0 
1 0.5 10 -1 0 
1 1 0 0 1 
1 0 0 1 0 
1 0 0 1 0 
1 0 10 1 0 
1 0 7.5 1 0 
2 0 0 1 0 -0 1 0.5
1 1.0000000000000007 0 0 -1 
1 0 -0 0 -1 
1 0 0 0 -1 
1 0 0 0 -1 
8 2.5 7.5
1 0.78539816339744828 0 0 1 
1 1.0000000000000007 0 0 -1 
1 0.49999999999999933 -1.25 0 1 
1 0 -0 1 0 
1 0 -5.0000000000000009 1 0 
1 0.49999999999999933 1.25 -1 0 
1 0 0 1 0 
1 0 -5.0000000000000009 1 0 
1 0 0 0 -1 
1 2.5 0 0 -1 
1 -0.35355339059327306 0.35355339059327306 -0.70710678118654757 0.70710678118654757 
1 0.75000000000000111 1.25 -1 0 
1 0 2.5 1 0 
2 0 0 -1 0 0 1 1
1 0 0 0 1 
1 0.78539816339744828 0 0 1 
1 0.25000000000000172 -1.25 0 1 
1 0.5 -2.5 0 1 
1 0 -1.25 0 1 
1 0 2.5 1 0 
2 0 0 -1 0 0 1 0.5
1 1.0000000000000007 0 -1 0 
1 0.49999999999999933 -1.25 -1 0 
1 -0.35355339059327306 0.35355339059327306 -0.70710678118654757 0.70710678118654757 
1 1.0000000000000007 -2.5 -1 0 
2 0 0 -1 0 0 1 1
2 0 0 1 0 -0 1 1
8 0 0.78539816339744828
1 0 0 1 0 
2 0 0 1 0 -0 1 1
Curves 52
1 10 7.5 0 0 1 0 
1 10 10 0 0 0 1 
1 10 10 1 0 -1 0 
1 10 7.5 1 0 0 -1 
1 10 7.5 0 1 0 0 
1 10 10 0 1 0 0 
1 10 10 1 1 0 0 
1 10 7.5 1 1 0 0 
1 10 7.5 0 1 0 -0 
2 10 7.5 1.5 -0 -1 -0 0 0 -1 1 -0 0 1.5
2 10 7.5 -0.5 0 1 0 0 -0 1 1 0 -0 0.5
1 10 7.5 0 0 1 0 
2 10 10 -0.5 0 1 0 0 -0 1 1 0 -0 0.5
1 10 10 0 0 0 1 
2 10 10 -0.5 0 1 0 0 -0 1 1 0 -0 1
1 10 10 0.5 0 -1 0 
1 10 7.5 0.5 0 0 -1 
1 10 7.5 0.5 1 0 -0 
1 10 2.5 0 1 0 -0 
1 10 0 0 -0 1 0 
2 10 2.5 1.5 -0 -1 -0 0 0 -1 1 -0 0 1.5
1 0 0 0 -0 1 0 
1 0 10 0 1 0 -0 
1 0 0 0 1 0 -0 
1 10 0 0 0 1 0 
1 0 10 0 0 0 1 
1 0 10 1 1 0 -0 
1 10 10 0 0 0 1 
2 10 7.5 -0.5 0 1 0 0 -0 1 1 0 -0 1
2 10 7.5 1.5 -0 -1 -0 0 0 -1 1 -0 0 1
1 10 0 1 0 1 0 
1 10 2.5 1 0 0 -1 
1 10 7.5 0 0 0 1 
1 10 2.5 0 0 0 1 
1 10 7.5 1 1 0 -0 
1 10 0 0 1 0 0 
1 10 0 0 0 1 0 
2 10 0 1.5 -0 -1 -0 0 0 -1 1 -0 0 1.5
1 0 0 0 0 0 1 
1 0 0 1 -0 1 0 
1 10 0 0.5 0 0 -1 
1 0 0 1 1 0 -0 
1 10 0 0 0 0 1 
2 10 7.5 1.5 -0 -1 -0 0 0 -1 1 -0 0 0.5
1 10 2.5 1 1 0 0 
1 10 2.5 1 0 -1 0 
1 10 0 1 0 0 -1 
1 10 0 1 1 0 0 
2 10 0 1.5 -0 -1 -0 0 0 -1 1 -0 0 1
1 10 2.5 0.5 0 -1 0 
2 10 2.5 1.5 -0 -1 -0 0 0 -1 1 -0 0 0.5
2 10 2.5 1.5 -0 -1 -0 0 0 -1 1 -0 0 1
Polygon3D 0
PolygonOnTriangulations 0
Surfaces 50
1 10 8.75 0.5 1 0 0 -0 0 1 0 -1 0 
1 10 7.5 0 0 0 1 0 1 0 -1 0 0 
1 10 10 0 0 -1 0 0 0 1 -1 0 0 
1 10 10 1 0 0 -1 0 -1 0 -1 -0 -0 
1 10 7.5 1 -0 1 0 0 0 -1 -1 0 -0 
2 10 7.5 -0.5 0 1 0 0 -0 1 1 0 -0 0.5
1 10 8.75 0.25 1 0 0 -0 0 1 0 -1 0 
1 10 10 -0.5 0 1 0 -0 0 -1 1 0 -0 
1 10 7.5 0.5 0 1 0 0 0 -1 -1 0 0 
1 10 2.5 0 0 0 1 -0 1 0 -1 -0 0 
1 10 7.5 1.5 -0 -1 -0 -0 -0 1 1 -0 0 
2 10 0 1.5 0 1 0 0 0 -1 1 -0 -0 1.5
1 10 7.5 -0.5 0 1 0 0 -0 1 1 0 -0 
1 0 0 0 0 0 1 1 0 -0 -0 1 0 
1 10 0 0 1 0 -0 0 0 1 0 -1 0 
1 0 10 0 -0 1 0 0 0 1 1 0 -0 
2 10 10 -0.5 -0 -1 -0 0 0 1 1 -0 -0 1
1 10 7.5 1.5 -0 -1 -0 -0 -0 1 1 -0 0 
1 10 7.5 0.5 0 1 0 0 0 -1 -1 0 0 
1 10 7.5 0.5 0 -1 0 0 0 1 -1 0 0 
1 10 2.5 0 0 -1 0 0 0 1 -1 0 0 
1 10 0 0 0 0 1 0 1 0 -1 0 0 
1 10 2.5 0 0 -1 0 0 0 1 -1 0 0 
2 10 0 1.5 0 1 0 0 0 -1 1 -0 -0 1.5
1 10 2.5 0 0 0 1 -0 1 0 -1 -0 0 
1 10 2.5 1.5 -0 -1 -0 0 0 -1 1 -0 0 
2 10 0 1.5 0 1 0 0 0 -1 1 -0 -0 1.5
1 10 2.5 1.5 -0 -1 -0 0 0 -1 1 -0 0 
1 0 0 0 1 0 -0 0 0 1 0 -1 0 
1 0 0 0 -0 1 0 0 0 1 1 0 -0 
1 10 1.25 0.25 1 0 0 -0 0 1 0 -1 0 
1 0 0 1 0 0 1 1 0 -0 -0 1 0 
1 10 7.5 1.5 -0 -1 -0 0 0 -1 1 -0 0 
2 10 0 1.5 0 1 0 0 0 -1 1 -0 -0 0.5
1 10 2.5 1 0 -0 1 0 1 0 -1 0 0 
2 10 0 1.5 0 1 0 0 0 -1 1 -0 -0 0.5
1 10 2.5 1 0 -0 1 0 1 0 -1 0 0 
1 10 2.5 1.5 -0 -1 -0 -0 -0 1 1 -0 0 
1 10 2.5 1 0 1 0 0 0 -1 -1 0 0 
1 10 2.5 1.5 -0 -1 -0 -0 -0 1 1 -0 0 
1 10 2.5 1 0 1 0 0 0 -1 -1 0 0 
1 10 1.25 0.5 1 0 0 -0 0 1 0 -1 0 
1 10 7.5 1.5 -0 -1 -0 0 0 -1 1 -0 0 
1 10 7.5 0.5 0 -1 0 0 0 1 -1 0 0 
1 10 2.5 1.5 -0 -1 -0 0 0 -1 1 -0 0 
1 10 2.5 0 0 -1 0 0 0 1 -1 0 0 
1 10 0 1 -0 1 0 0 0 -1 -1 0 -0 
1 10 0 1.5 -0 -1 -0 -0 -0 1 1 -0 0 
1 10 2.5 1 0 0 -1 0 -1 0 -1 -0 -0 
2 10 2.5 1.5 -0 -1 -0 0 0 -1 1 -0 0 1
Triangulations 0

TShapes 185
Ve
1e-007
10 7.5 0
0 0

0101101
*
Ve
1e-007
10 10 0
0 0

0101101
*
Ed
 1e-007 1 1 0
1  1 0 0 2.5
2  1 2 0 0 2.5
2  2 2 5 0 2.5
2  3 1 0 0 2.5
0

0101000
+185 0 -184 0 *
Ve
1e-007
10 10 1
0 0

0101101
*
Ed
 1e-007 1 1 0
1  2 0 0 1
2  4 1 0 0 1
2  5 3 0 0 1
2  6 3 5 0 1
0

0101000
+184 0 -182 0 *
Ve
2.12133034355964e-007
10 7.5 1
0 0

0101101
*
Ed
 1e-007 1 1 0
1  3 0 0 2.5
2  7 1 0 0 2.5
2  8 4 0 0 2.5
2  9 4 5 0 2.5
0

0101000
+182 0 -180 0 *
Ed
 1e-007 1 1 0
1  4 0 0 1
2  10 5 0 0 1
2  11 5 5 0 1
2  12 1 0 0 1
0

0101000
+180 0 -185 0 *
Wi

0101100
+183 0 +181 0 +179 0 +178 0 *
Fa
0  1e-007 1 0

0111000
+177 0 *
Ve
1.00000001938921e-007
10.3535533905933 7.5 -0.146446609406726
0 0

0101101
*
Ed
 1e-007 1 1 0
1  5 0 0 5
2  13 5 0 0 5
2  14 2 0 0 5
0

0101000
+175 6 -185 2 *
Ve
1.00000000444089e-007
10.3535533905933 10 -0.146446609406726
0 0

0101101
*
Ed
 1e-007 1 1 0
1  1 0 0 2.5
2  1 2 0 0 2.5
2  2 2 5 0 2.5
2  3 1 0 0 2.5
2  15 6 6 0 2.5
2  16 7 8 0 2.5
0

0101000
+175 6 -173 6 *
Ed
 1e-007 1 1 0
1  6 0 0 5
2  17 2 0 0 5
2  18 3 0 0 5
0

0101000
+173 6 -184 2 *
Wi

0101100
+174 3 -172 3 +183 4 -171 3 *
Fa
0  1e-007 2 3

0111000
+170 0 *
Ve
1.00001e-007
10 10 0.5
0 0

0101101
*
Ed
 1.00000000444089e-007 1 1 0
1  2 0 0 0.500000000000001
2  4 1 0 0 0.500000000000001
2  5 3 0 0 0.500000000000001
2  6 3 5 0 0.500000000000001
2  19 8 6 0 0.500000000000001
2  20 7 8 0 0.500000000000001
0

0101000
+173 6 -168 8 *
Ed
 1e-007 1 1 0
1  2 0 0.500000000000001 1
2  4 1 0 0.500000000000001 1
2  5 3 0 0.500000000000001 1
2  6 3 5 0.500000000000001 1
0

0101000
+168 8 -182 0 *
Ed
 1e-007 1 1 0
1  7 0 0 5
2  21 3 0 0 5
2  22 4 0 0 5
0

0101000
+182 0 -182 2 *
Wi

0101100
+171 3 -167 3 +181 4 -166 3 -165 3 *
Fa
0  1e-007 3 3

0111000
+164 0 *
Ve
8.74685693708903e-006
11.1213203435596 7.5 0.500000000000001
0 0

0101101
*
Ed
 1e-007 1 1 0
1  8 0 0 0.0857864376269043
2  23 5 0 0 0.0857864376269043
2  24 4 0 0 0.0857864376269043
2  25 9 10 0 0.0857864376269043
0

0101000
+180 0 -162 6 *
Ed
 1e-007 1 1 0
1  8 0 0.0857864376269043 5
2  23 5 0 0.0857864376269043 5
2  24 4 0 0.0857864376269043 5
0

0101000
+162 6 -180 2 *
Wi

0101100
+165 3 -179 3 +179 4 -161 3 -160 3 *
Fa
0  1e-007 4 3

0111000
+159 0 *
Ve
8.74685693697801e-006
11.0606601717798 7.5 0.439339828220179
0 0

0101101
*
Ed
 8.74685693697801e-006 1 1 0
1  9 0 0 0.0857864376269066
2  26 9 0 0 0.0857864376269066
2  27 10 0 0 0.0857864376269066
2  28 5 11 0 0.0857864376269066
0

0101000
+157 12 -162 12 *
Ve
8.74685695344493e-006
10.6464466094068 7.5 0.146446609406781
0 0

0101101
*
Ed
 8.74685693697801e-006 1 1 0
1  10 0 0.44556125394339 0.785398163397448
2  29 11 0 0.44556125394339 0.785398163397448
2  30 12 0 0.44556125394339 0.785398163397448
2  31 5 3 0.44556125394339 0.785398163397448
0

0101000
+155 0 -157 0 *
Ed
 1.00000001938921e-007 1 1 0
1  4 0 0.585786437626812 1
2  10 5 0 0.585786437626812 1
2  11 5 5 0.585786437626812 1
2  12 1 0 0.585786437626812 1
2  32 13 6 0.585786437626812 1
2  33 7 8 0.585786437626812 1
0

0101000
+155 6 -175 6 *
Wi

0101100
+156 9 +154 0 -153 3 -174 3 +178 4 +160 3 *
Fa
0  1e-007 5 3

0111000
+152 0 *
Ve
8.74685693697801e-006
10 7.5 0
0 0

0101101
*
Ed
 1e-007 1 1 0
1  11 0 0 0.785398163397448
2  34 6 0 0 0.785398163397448
2  35 13 0 0 0.785398163397448
0

0101000
+150 0 -175 0 *
Ve
1e-007
10 10 0
0 0

0101101
*
Ed
 1e-007 1 1 0
1  12 0 0 2.5
2  36 6 0 0 2.5
2  37 6 13 0 2.5
2  38 7 0 0 2.5
2  39 14 0 0 2.5
2  40 15 0 0 2.5
0

0101000
+150 0 -148 0 *
Ed
 1e-007 1 1 0
1  13 0 0 0.785398163397448
2  41 6 0 0 0.785398163397448
2  42 8 0 0 0.785398163397448
0

0101000
+148 0 -173 0 *
Wi

0101100
+149 0 -147 0 +172 3 -146 0 *
Fa
0  1e-007 6 0

0111000
+145 0 *
Ed
 1e-007 1 1 0
1  14 0 0 0.5
2  43 8 0 0 0.5
2  44 8 13 0 0.5
2  45 7 0 0 0.5
2  46 16 0 0 0.5
2  47 15 0 0 0.5
0

0101000
+148 0 -168 0 *
Ed
 1e-007 1 1 0
1  15 0 0 0.785398163397448
2  48 8 0 0 0.785398163397448
2  49 17 0 0 0.785398163397448
0

0101000
+168 0 -168 7 *
Wi

0101100
+146 0 -143 0 +167 3 -142 0 *
Fa
0  1e-007 8 0

0111000
+141 0 *
Ve
2.12133034355964e-007
11 7.5 0.499999999999999
0 0

0101101
*
Ed
 1e-007 1 1 0
1  4 0 0 0.0857864376269071
2  10 5 0 0 0.0857864376269071
2  11 5 5 0 0.0857864376269071
2  12 1 0 0 0.0857864376269071
2  50 9 10 0 0.0857864376269071
0

0101000
+180 0 -139 6 *
Ve
1.01000004141857e-005
10 7.5 0.5
0 0

0101101
*
Ed
 1e-007 1 1 0
1  4 0 0.0857864376269071 0.500000000000001
2  10 5 0 0.0857864376269071 0.500000000000001
2  11 5 5 0.0857864376269071 0.500000000000001
2  12 1 0 0.0857864376269071 0.500000000000001
2  51 11 6 0.0857864376269071 0.500000000000001
0

0101000
+139 6 -137 8 *
Ed
 1e-007 1 1 0
1  16 0 0 2.5
2  52 17 0 0 2.5
2  53 17 13 0 2.5
2  54 7 0 0 2.5
2  55 15 0 0 2.5
2  56 1 14 0 2.5
0

0101000
+168 0 -137 0 *
Wi

0101100
+138 3 +179 3 +136 3 +166 3 -135 7 *
Fa
0  1e-007 1 3

0111000
+134 0 *
Ve
1.01000004141857e-005
10.7071067811865 7.5 0.792893218813453
0 0

0101101
*
Ed
 1.00000000444089e-007 1 1 0
1  17 0 0 0.414213562373097
2  57 13 0 0 0.414213562373097
2  58 13 13 0 0.414213562373097
2  59 7 0 0 0.414213562373097
2  60 15 0 0 0.414213562373097
2  61 18 0 0 0.414213562373097
2  62 18 16 0 0.414213562373097
2  63 19 0 0 0.414213562373097
2  64 19 18 0 0.414213562373097
2  65 11 0 0 0.414213562373097
2  66 11 20 0 0.414213562373097
2  67 9 0 0 0.414213562373097
2  68 9 22 0 0.414213562373097
2  69 11 12 0 0.414213562373097
2  70 15 23 0 0.414213562373097
0

0101000
+132 12 -139 12 *
Ed
 8.74685693697801e-006 1 1 0
1  9 0 0.0857864376269066 5
2  26 9 0 0.0857864376269066 5
2  27 10 0 0.0857864376269066 5
0

0101000
+162 12 -150 21 *
Ed
 1e-007 1 1 0
1  17 0 0 0.5
2  57 13 0 0 0.5
2  58 13 13 0 0.5
2  59 7 0 0 0.5
2  60 15 0 0 0.5
2  61 18 0 0 0.5
2  62 18 16 0 0.5
2  63 19 0 0 0.5
2  64 19 18 0 0.5
2  65 11 0 0 0.5
2  66 11 20 0 0.5
2  67 9 0 0 0.5
2  68 9 22 0 0.5
0

0101000
+137 0 -150 0 *
Ed
 1.01000004141857e-005 1 1 0
1  18 0 0 5
4 C2 20 0 9 0
2  71 9 0 0 5
2  72 20 0 0 5
0

0101000
+132 12 -137 21 *
Wi

0101100
-131 9 +138 3 -161 3 -130 9 +129 24 +128 9 *
Fa
0  1e-007 9 9

0111000
+127 0 *
Ve
1.00000000444089e-007
11.0606601717798 2.5 0.439339828220179
0 0

0101101
*
Ve
1.00000000888178e-007
14.5961940777126 2.5 3.97487373415292
0 0

0101101
*
Ed
 1.00000000444089e-007 1 1 0
1  19 0 0 5
2  73 10 0 0 5
2  74 21 0 0 5
2  75 22 26 0 5
2  76 23 26 0 5
0

0101000
+125 12 -124 12 *
Ed
 1e-007 1 1 0
1  20 0 2.5 7.5
2  77 15 0 2.5 7.5
2  78 14 0 2.5 7.5
2  79 24 0 2.5 7.5
2  80 24 16 2.5 7.5
2  81 25 0 2.5 7.5
2  82 25 18 2.5 7.5
2  83 12 0 2.5 7.5
2  84 12 20 2.5 7.5
2  85 10 0 2.5 7.5
2  86 10 22 2.5 7.5
2  87 12 12 2.5 7.5
2  88 15 23 2.5 7.5
0

0101000
+125 12 -157 12 *
Ed
 1e-007 1 1 0
1  20 0 2.5 7.5
2  77 15 0 2.5 7.5
2  78 14 0 2.5 7.5
2  79 24 0 2.5 7.5
2  80 24 16 2.5 7.5
2  81 25 0 2.5 7.5
2  82 25 18 2.5 7.5
2  83 12 0 2.5 7.5
2  84 12 20 2.5 7.5
2  85 10 0 2.5 7.5
2  86 10 22 2.5 7.5
0

0101000
+124 27 -150 0 *
Wi

0101100
+123 9 -122 9 +121 24 -156 9 -130 9 *
Fa
0  1e-007 10 9

0111000
+120 0 *
Ve
1.00000000055511e-007
10 2.5 0
0 0

0101101
*
Ed
 1e-007 1 1 0
1  21 0 0 0.785398163397448
2  89 26 0 0 0.785398163397448
2  90 12 0 0 0.785398163397448
2  91 27 0 0 0.785398163397448
2  92 28 0 0 0.785398163397448
0

0101000
+118 0 -125 0 *
Ed
 1e-007 1 1 0
1  20 0 2.5 7.5
2  77 15 0 2.5 7.5
2  78 14 0 2.5 7.5
2  79 24 0 2.5 7.5
2  80 24 16 2.5 7.5
2  81 25 0 2.5 7.5
2  82 25 18 2.5 7.5
2  83 12 0 2.5 7.5
2  84 12 20 2.5 7.5
2  85 10 0 2.5 7.5
2  86 10 22 2.5 7.5
0

0101000
+118 0 -150 0 *
Ed
 8.74685693697801e-006 1 1 0
1  10 0 0 0.44556125394339
2  29 11 0 0 0.44556125394339
2  30 12 0 0 0.44556125394339
2  93 13 0 0 0.44556125394339
0

0101000
+150 0 -155 0 *
Wi

0101100
+117 0 -116 0 +122 9 -115 0 -154 0 *
Fa
0  1e-007 12 0

0111000
+114 0 *
Wi

0101100
-149 0 +153 3 +115 0 *
Fa
0  1e-007 13 0

0111000
+112 0 *
Ve
1e-007
0 10 0
0 0

0101101
*
Ve
1e-007
0 0 0
0 0

0101101
*
Ed
 1e-007 1 1 0
1  22 0 0 10
2  94 29 0 0 10
2  95 14 0 0 10
0

0101000
-110 0 +109 0 *
Ed
 1e-007 1 1 0
1  23 0 0 10
2  96 16 0 0 10
2  97 14 0 0 10
0

0101000
+110 0 -148 0 *
Ve
1e-007
10 0 0
0 0

0101101
*
Ed
 1e-007 1 1 0
1  24 0 0 10
2  98 30 0 0 10
2  99 14 0 0 10
0

0101000
+109 0 -106 0 *
Ed
 1e-007 1 1 0
1  25 0 0 2.5
2  100 27 0 0 2.5
2  101 27 29 0 2.5
2  102 31 0 0 2.5
2  103 15 0 0 2.5
2  104 14 0 0 2.5
0

0101000
+106 0 -118 0 *
Wi

0101100
-108 0 -107 0 +105 0 +147 0 +104 0 +116 0 *
Fa
0  1e-007 14 0

0111000
+103 0 *
Ve
1e-007
0 10 1
0 0

0101101
*
Ed
 1e-007 1 1 0
1  26 0 0 1
2  105 29 0 0 1
2  106 16 0 0 1
0

0101000
-101 0 +110 0 *
Ve
1e-007
10 10 1
0 0

0101101
*
Ed
 1e-007 1 1 0
1  27 0 0 10
2  107 16 0 0 10
2  108 32 0 0 10
0

0101000
-99 0 +101 0 *
Ed
 1e-007 1 1 0
1  28 0 0.5 1
2  109 15 0 0.5 1
2  110 16 0 0.5 1
0

0101000
+168 0 -99 0 *
Wi

0101100
-107 0 +100 0 -143 0 +98 0 -97 0 *
Fa
0  1e-007 16 0

0111000
+96 0 *
Ed
 1e-007 1 1 0
1  29 0 0 0.785398163397448
2  111 17 0 0 0.785398163397448
2  112 13 0 0 0.785398163397448
2  113 18 0 0 0.785398163397448
2  114 11 0 0 0.785398163397448
0

0101000
+137 0 -137 7 *
Wi

0101100
+142 0 -135 0 +135 7 -94 0 *
Fa
0  1e-007 17 0

0111000
+93 0 *
Ed
 1.01000004141857e-005 1 1 0
1  30 0 0 0.785398163397448
2  115 33 0 0 0.785398163397448
2  116 11 0 0 0.785398163397448
4 C2 33 0 11 0
0

0101000
+137 0 -132 0 *
Wi

0101100
-94 0 +136 3 +131 9 +91 0 *
Fa
0  1e-007 11 0

0111000
+90 0 *
Ve
1.00000000888178e-007
13.889087296526 2.5 4.68198051533946
0 0

0101101
*
Ve
1e-007
10 7.5 1
0 0

0101101
*
Ed
 1e-007 1 1 0
1  31 0 2.5 7.5
2  117 15 0 2.5 7.5
2  118 32 0 2.5 7.5
2  119 34 0 2.5 7.5
2  120 34 16 2.5 7.5
2  121 35 0 2.5 7.5
2  122 35 18 2.5 7.5
2  123 36 0 2.5 7.5
2  124 36 20 2.5 7.5
2  125 37 0 2.5 7.5
2  126 37 22 2.5 7.5
0

0101000
+88 27 -87 0 *
Ve
1.00001e-007
10 2.5 0.5
0 0

0101101
*
Ed
 1.00000000888178e-007 1 1 0
1  32 0 0 0.5
4 CN 15 0 15 0
2  127 15 0 0 0.5
2  128 38 0 0 0.5
2  129 38 16 0 0.5
2  130 39 0 0 0.5
2  131 39 18 0 0.5
2  132 40 0 0 0.5
2  133 40 20 0 0.5
2  134 41 0 0 0.5
2  135 41 22 0 0.5
2  136 23 30 0 0.5
2  137 42 32 0 0.5
0

0101000
+88 27 -85 0 *
Ed
 1e-007 1 1 0
1  33 0 0.5 1
4 CN 15 0 15 0
2  138 15 0 0.5 1
2  139 43 0 0.5 1
2  140 43 16 0.5 1
2  141 44 0 0.5 1
2  142 44 18 0.5 1
2  143 33 0 0.5 1
2  144 33 20 0.5 1
2  145 20 0 0.5 1
2  146 20 22 0.5 1
0

0101000
+137 0 -87 0 *
Ed
 1.00000000888178e-007 1 1 0
1  34 0 0 0.5
2  147 28 0 0 0.5
2  148 28 29 0 0.5
2  149 31 0 0 0.5
2  150 15 0 0 0.5
2  151 45 0 0 0.5
2  152 45 16 0 0.5
2  153 46 0 0 0.5
2  154 46 18 0 0.5
2  155 26 0 0 0.5
2  156 26 20 0 0.5
2  157 21 0 0 0.5
2  158 21 22 0 0.5
2  159 23 30 0 0.5
2  160 42 32 0 0.5
0

0101000
+124 27 -85 0 *
Wi

0101100
-86 24 +84 24 +83 24 -82 24 -129 24 +121 24 *
Fa
0  1e-007 15 24

0111000
+81 0 *
Ve
1.00000000444089e-007
10.3535533905933 7.5 1.14644660940673
0 0

0101101
*
Ed
 1.00000000444089e-007 1 1 0
1  33 0 0.5 1
4 CN 15 0 15 0
2  138 15 0 0.5 1
2  139 43 0 0.5 1
2  140 43 16 0.5 1
2  141 44 0 0.5 1
2  142 44 18 0.5 1
2  143 33 0 0.5 1
2  144 33 20 0.5 1
2  145 20 0 0.5 1
2  146 20 22 0.5 1
2  161 33 12 0.5 1
2  162 15 23 0.5 1
0

0101000
+132 12 -79 12 *
Ed
 1e-007 1 1 0
1  35 0 0 5
2  163 37 0 0 5
2  164 20 0 0 5
0

0101000
+79 12 -87 21 *
Wi

0101100
+128 9 -78 9 +83 24 -77 9 *
Fa
0  1e-007 20 9

0111000
+76 0 *
Ve
1.00000000888178e-007
11.0606601717798 0 0.439339828220179
0 0

0101101
*
Ve
1e-007
10 0 0
0 0

0101101
*
Ed
 1e-007 1 1 0
1  36 0 0 5
2  165 47 0 0 5
2  166 22 0 0 5
0

0101000
+74 33 -73 31 *
Ed
 1e-007 1 1 0
1  37 0 0 2.5
2  167 42 0 0 2.5
2  168 22 0 0 2.5
2  169 22 34 0 2.5
2  170 27 33 0 2.5
2  171 31 35 0 2.5
0

0101000
+74 33 -125 33 *
Ed
 1e-007 1 1 0
1  37 0 0 2.5
2  167 42 0 0 2.5
2  168 22 0 0 2.5
2  169 22 34 0 2.5
0

0101000
+73 0 -124 37 *
Wi

0101100
+72 25 -71 25 +70 36 -123 9 *
Fa
0  1e-007 22 25

0111000
+69 0 *
Ed
 1e-007 1 1 0
1  38 0 0 0.785398163397448
2  172 48 0 0 0.785398163397448
2  173 27 0 0 0.785398163397448
0

0101000
+106 0 -74 0 *
Wi

0101100
+67 0 -104 0 +71 25 -117 0 *
Fa
0  1e-007 27 0

0111000
+66 0 *
Ve
1e-007
0 0 1
0 0

0101101
*
Ed
 1e-007 1 1 0
1  39 0 0 1
2  174 29 0 0 1
2  175 30 0 0 1
0

0101000
-64 0 +109 0 *
Ed
 1e-007 1 1 0
1  40 0 0 10
2  176 29 0 0 10
2  177 32 0 0 10
0

0101000
-101 0 +64 0 *
Wi

0101100
-63 0 -62 0 +100 0 +108 0 *
Fa
0  1e-007 29 0

0111000
+61 0 *
Ve
1.00001e-007
10 0 0.5
0 0

0101101
*
Ed
 1e-007 1 1 0
1  41 0 0 0.5
2  178 48 0 0 0.5
2  179 48 29 0 0.5
2  180 31 0 0 0.5
2  181 15 0 0 0.5
2  182 30 0 0 0.5
0

0101000
+59 0 -106 0 *
Ve
1e-007
10 0 1
0 0

0101101
*
Ed
 1e-007 1 1 0
1  42 0 0 10
2  183 30 0 0 10
2  184 32 0 0 10
0

0101000
-57 0 +64 0 *
Ed
 1e-007 1 1 0
1  43 0 0.5 1
2  185 15 0 0.5 1
2  186 30 0 0.5 1
0

0101000
+59 0 -57 0 *
Wi

0101100
-105 0 +63 0 +58 0 +56 0 -55 0 *
Fa
0  1e-007 30 0

0111000
+54 0 *
Ve
1e-007
10 2.5 1
0 0

0101101
*
Ed
 1e-007 1 1 0
1  31 0 0 2.5
2  117 15 0 0 2.5
2  118 32 0 0 2.5
0

0101000
+57 0 -52 0 *
Ed
 1e-007 1 1 0
1  31 0 2.5 7.5
2  117 15 0 2.5 7.5
2  118 32 0 2.5 7.5
2  119 34 0 2.5 7.5
2  120 34 16 2.5 7.5
2  121 35 0 2.5 7.5
2  122 35 18 2.5 7.5
2  123 36 0 2.5 7.5
2  124 36 20 2.5 7.5
2  125 37 0 2.5 7.5
2  126 37 22 2.5 7.5
0

0101000
+52 0 -87 0 *
Ed
 1e-007 1 1 0
1  31 0 7.5 10
2  117 15 0 7.5 10
2  118 32 0 7.5 10
0

0101000
+87 0 -99 0 *
Wi

0101100
-62 0 -98 0 +51 0 +50 0 +49 0 +56 0 *
Fa
0  1e-007 32 0

0111000
+48 0 *
Wi

0101100
-83 0 -49 0 +97 0 -135 0 *
Fa
0  1e-007 15 0

0111000
+46 0 *
Ed
 1e-007 1 1 0
1  44 0 0 0.785398163397448
2  187 36 0 0 0.785398163397448
2  188 33 0 0 0.785398163397448
0

0101000
+87 0 -79 0 *
Wi

0101100
+91 0 -83 0 +78 9 -44 0 *
Fa
0  1e-007 33 0

0111000
+43 0 *
Ve
1.00000000444089e-007
10.3535533905933 2.5 1.14644660940673
0 0

0101101
*
Ed
 1.00000000444089e-007 1 1 0
1  45 0 0 5
2  189 23 0 0 5
2  190 49 0 0 5
2  191 37 38 0 5
2  192 41 38 0 5
0

0101000
+41 33 -88 33 *
Ed
 1e-007 1 1 0
1  31 0 2.5 7.5
2  117 15 0 2.5 7.5
2  118 32 0 2.5 7.5
2  119 34 0 2.5 7.5
2  120 34 16 2.5 7.5
2  121 35 0 2.5 7.5
2  122 35 18 2.5 7.5
2  123 36 0 2.5 7.5
2  124 36 20 2.5 7.5
2  125 37 0 2.5 7.5
2  126 37 22 2.5 7.5
2  193 36 12 2.5 7.5
2  194 15 23 2.5 7.5
0

0101000
+41 12 -79 12 *
Wi

0101100
+40 25 -39 9 +86 24 -77 9 *
Fa
0  1e-007 37 9

0111000
+38 0 *
Ve
1e-007
10 0 1
0 0

0101101
*
Ed
 1e-007 1 1 0
1  46 0 0 2.5
2  195 42 0 0 2.5
2  196 49 0 0 2.5
2  197 49 34 0 2.5
0

0101000
+88 37 -36 0 *
Ed
 1e-007 1 1 0
1  47 0 0 1
2  198 42 0 0 1
2  199 47 0 0 1
2  200 47 34 0 1
0

0101000
+36 0 -73 0 *
Wi

0101100
+35 36 -84 24 +34 36 +82 24 +70 36 *
Fa
0  1e-007 42 36

0111000
+33 0 *
Ed
 1e-007 1 1 0
1  48 0 0 5
2  201 47 0 0 5
2  202 49 0 0 5
0

0101000
+36 0 -36 31 *
Ed
 1e-007 1 1 0
1  47 0 0 0.5
2  198 42 0 0 0.5
2  199 47 0 0 0.5
2  200 47 34 0 0.5
0

0101000
+36 0 -59 35 *
Ed
 1.00000000888178e-007 1 1 0
1  47 0 0.5 1
2  198 42 0 0.5 1
2  199 47 0 0.5 1
2  200 47 34 0.5 1
2  203 48 33 0.5 1
2  204 31 35 0.5 1
0

0101000
+59 35 -74 33 *
Wi

0101100
+31 25 -30 25 +34 36 -29 25 -72 25 *
Fa
0  1e-007 47 25

0111000
+28 0 *
Ed
 1e-007 1 1 0
1  49 0 0 0.785398163397448
2  205 50 0 0 0.785398163397448
2  206 48 0 0 0.785398163397448
0

0101000
+59 0 -59 28 *
Wi

0101100
+26 0 -58 0 +29 25 -67 0 *
Fa
0  1e-007 48 0

0111000
+25 0 *
Ed
 1e-007 1 1 0
1  32 0 0 0.5
4 CN 15 0 15 0
2  127 15 0 0 0.5
2  128 38 0 0 0.5
2  129 38 16 0 0.5
2  130 39 0 0 0.5
2  131 39 18 0 0.5
2  132 40 0 0 0.5
2  133 40 20 0 0.5
2  134 41 0 0 0.5
2  135 41 22 0 0.5
0

0101000
+52 0 -85 0 *
Ed
 1e-007 1 1 0
1  50 0 0 2.5
2  207 50 0 0 2.5
2  208 50 29 0 2.5
2  209 31 0 0 2.5
2  210 15 0 0 2.5
2  211 42 39 0 2.5
0

0101000
+85 0 -59 0 *
Wi

0101100
-55 0 -51 0 -23 0 -22 0 *
Fa
0  1e-007 15 0

0111000
+21 0 *
Ed
 1e-007 1 1 0
1  51 0 0 0.785398163397448
2  212 36 0 0 0.785398163397448
2  213 40 0 0 0.785398163397448
0

0101000
+52 0 -41 0 *
Wi

0101100
+19 0 -50 0 +39 9 -44 0 *
Fa
0  1e-007 36 0

0111000
+18 0 *
Ed
 1e-007 1 1 0
1  46 0 0 2.5
2  195 42 0 0 2.5
2  196 49 0 0 2.5
2  197 49 34 0 2.5
0

0101000
+41 33 -36 0 *
Wi

0101100
+40 25 -16 25 +35 36 -31 25 *
Fa
0  1e-007 49 25

0111000
+15 0 *
Ve
1.00001e-007
10.7071067811865 2.5 0.792893218813453
0 0

0101101
*
Ed
 1.00000000444089e-007 1 1 0
1  32 0 0 0.5
4 CN 15 0 15 0
2  127 15 0 0 0.5
2  128 38 0 0 0.5
2  129 38 16 0 0.5
2  130 39 0 0 0.5
2  131 39 18 0 0.5
2  132 40 0 0 0.5
2  133 40 20 0 0.5
2  134 41 0 0 0.5
2  135 41 22 0 0.5
2  214 23 26 0 0.5
2  215 42 26 0 0.5
2  216 40 12 0 0.5
2  217 15 23 0 0.5
0

0101000
+41 12 -13 12 *
Ed
 1e-007 1 1 0
1  50 0 0 2.5
2  207 50 0 0 2.5
2  208 50 29 0 2.5
2  209 31 0 0 2.5
2  210 15 0 0 2.5
2  211 42 39 0 2.5
0

0101000
+13 29 -59 0 *
Wi

0101100
-12 9 +16 25 -11 28 +30 25 *
Fa
0  1e-007 42 25

0111000
+10 0 *
Ed
 1e-007 1 1 0
1  52 0 0 0.785398163397448
2  218 40 0 0 0.785398163397448
2  219 26 0 0 0.785398163397448
4 C2 40 0 26 0
2  220 50 0 0 0.785398163397448
2  221 28 0 0 0.785398163397448
0

0101000
+85 0 -13 0 *
Wi

0101100
+8 0 -22 0 +11 28 -26 0 *
Fa
0  1e-007 50 0

0111000
+7 0 *
Wi

0101100
+19 0 -23 0 +12 9 -8 0 *
Fa
0  1e-007 40 0

0111000
+5 0 *
Sh

0101100
+176 4 -169 0 -163 0 -158 0 -151 0 -144 0 -140 0 -133 0 +126 0 -119 0 
-113 0 -111 0 -102 0 +95 0 -92 0 +89 0 +80 0 -75 0 -68 0 -65 0 
-60 0 -53 0 +47 0 +45 0 -42 0 +37 0 +32 0 -27 0 -24 0 +20 0 
+17 0 -14 0 -9 0 -6 0 -4 0 *
So

0100000
+3 0 *
Co

1100000
+2 0 *

+1 1  