
CASCADE Topology V1, (c) Matra-Datavision
Locations 30
1
              1               0               0               0 
              0               1               0               0 
              0               0               1               0 
1
              1               0               0               0 
              0               1               0               0 
              0               0               1               0 
1
              1               0               0               0 
              0 0.707106781186548 -0.707106781186548 11.7279220613579 
              0 0.707106781186548 0.707106781186548 -16.3137084989848 
2  2 -1 0
2  3 1 2 1 0
1
              1               0               0               0 
              0               1               0               0 
              0               0               1               0 
2  3 1 6 1 0
1
              1               0               0               0 
              0 0.707106781186548 -0.707106781186548 7.17157287525381 
              0 0.707106781186548 0.707106781186548 -5.31370849898476 
1
              1               0               0               0 
              0 1.11022302462516e-16               1 19.556349186104 
              0              -1 1.11022302462516e-16              16 
1
              1               0               0               0 
              0               1               0 7.07106781186548 
              0               0               1 -7.07106781186547 
1
              1               0               0               0 
              0               1               0               0 
              0               0               1               0 
2  8 1 9 1 10 1 3 1 11 1 0
1
              1               0               0               0 
              0               1               0               0 
              0               0               1               0 
2  3 1 13 1 0
2  6 -1 0
1
              1               0               0               0 
              0               1               0               0 
              0               0               1               0 
2  3 1 16 1 0
2  11 -1 3 -1 10 -1 9 -1 8 -1 0
2  13 -1 0
2  16 -1 0
1
              1               0               0               0 
              0               1 -1.11022302462516e-16 -1.72160145193702 
              0 1.11022302462516e-16               1 -1.02495220821186e-14 
1
              1               0               0               0 
              0               1 -1.11022302462516e-16 -1.72160145193702 
              0 1.11022302462516e-16               1 -1.02495220821186e-14 
1
              1               0               0               0 
              0               1 -1.11022302462516e-16 -1.72160145193702 
              0 1.11022302462516e-16               1 -1.02495220821186e-14 
1
              1               0               0               0 
              0               1 -1.11022302462516e-16 -1.72160145193702 
              0 1.11022302462516e-16               1 -1.02495220821186e-14 
2  21 -1 0
1
              1               0               0               0 
              0               1 -1.11022302462516e-16 -1.72160145193702 
              0 1.11022302462516e-16               1 -1.02495220821186e-14 
2  23 -1 0
2  24 -1 0
2  22 -1 0
2  26 -1 0
Curve2ds 88
1 10 0 0 -1 
1 1.0000000000000036 -3.6637359812630166e-15 1.1102230246251565e-16 -1 
1 0 3.5527136788005009e-15 1 0 
1 -2.1597438297551399 5 0 -1 
1 0 -9.9999999999999964 1 0 
1 1 0 0 1 
1 0 0 0 -1 
1 1.0000000000000036 -3.6637359812630166e-15 1.1102230246251565e-16 -1 
1 -0.50000000000000067 -2.1597438297551328 1 0 
1 1.1102230246251565e-15 -1.2325951644078309e-31 1 0 
1 0 -10 1 0 
1 0 10 1 0 
1 0 0 1.1102230246251565e-16 -1 
1 10 0 0 -1 
1 0 0 0 1 
1 0 -10 1 0 
1 0 0 1 0 
1 0 -10 1 0 
1 -0.50000000000000067 -2.1597438297551328 1 0 
1 1.1102230246251565e-15 -1.2325951644078309e-31 1 0 
1 0 0 1.1102230246251565e-16 -1 
1 0 0 0 -1 
1 0 0 1 0 
1 -2.1597438297551399 5 0 -1 
1 -2.1597438297551399 -5 1 0 
1 0.50000000000000111 -2.1597438297551328 -1.0281062127178577e-16 1 
1 2.1597438297551292 -5 -0 1 
8 0 10
1 -5 4.3194876595102656 1 -0 
1 2.1597438297551292 5 -1 0 
8 0 4.3194876595102691
1 0.50000000000000067 2.1597438297551363 1.0281062127178577e-16 -1 
1 -2.1597438297551399 -5 1 0 
8 0 4.3194876595102691
1 -0.50000000000000067 -2.1597438297551328 -1.1102230246251557e-16 1 
1 2.1597438297551292 -5 -0 1 
8 0 10
1 -5 4.3194876595102656 1 -0 
1 2.1597438297551292 5 -1 0 
1 -0.50000000000000111 2.1597438297551363 1.1102230246251557e-16 -1 
1 0.50000000000000067 2.1597438297551363 -1 0 
8 0 1.0000000000000018
1 0.49999999999999978 -4.3194876595102656 -1 -0 
1 0.50000000000000067 2.1597438297551363 -1 0 
8 0 1.0000000000000018
1 0.49999999999999978 -4.3194876595102656 -1 -0 
1 -5 4.3194876595102656 0 -1 
1 0.49999999999999983 -4.3194876595102656 0 1 
1 -5 -4.3194876595102656 1 0 
8 0 10
1 -2.1597438297551328 -5.0000000000000009 -0 1 
1 5 -4.3194876595102656 0 1 
8 0 8.6389753190205312
1 0.49999999999999983 4.3194876595102656 -0 -1 
1 -5 4.3194876595102656 0 -1 
8 0 8.6389753190205312
1 -0.50000000000000022 -4.3194876595102656 -0 1 
1 -5 -4.3194876595102656 1 0 
8 0 10
1 -2.1597438297551328 -5.0000000000000009 -0 1 
1 5 -4.3194876595102656 0 1 
1 -0.50000000000000022 4.3194876595102656 0 -1 
1 0.49999999999999983 4.3194876595102656 -1 0 
8 0 1
1 0.50000000000000022 -2.1597438297551328 -1 -0 
1 0.49999999999999983 4.3194876595102656 -1 0 
8 0 1
1 0.50000000000000022 -2.1597438297551328 -1 -0 
1 -2.1597438297551328 -5.0000000000000009 1 0 
1 0.50000000000000022 -2.1597438297551328 -1.0281062127178586e-16 1 
1 2.1597438297551328 -5.0000000000000009 0 1 
8 0 10
1 10 10 -1 -0 
1 2.1597438297551328 4.9999999999999991 -1 0 
8 0 4.3194876595102656
1 0.49999999999999978 2.1597438297551328 1.0281062127178586e-16 -1 
1 -2.1597438297551328 -5.0000000000000009 1 3.7982270983039195e-65 
8 0 4.3194876595102656
1 -0.49999999999999972 -2.1597438297551328 -1.1102230246251565e-16 1 
1 2.1597438297551328 -5.0000000000000009 0 1 
8 0 10
1 10 10 -1 -0 
1 2.1597438297551328 4.9999999999999991 -1 -3.7982270983039195e-65 
1 -0.50000000000000022 2.1597438297551328 1.1102230246251565e-16 -1 
1 0.49999999999999983 2.1597438297551328 -1 0 
8 0 1
1 1 -10 -1 -0 
1 0.49999999999999983 2.1597438297551328 -1 0 
8 0 1
1 1 -10 -1 -0 
1 0 0 0 1 
1 1 0 0 -1 
1 10 0 0 1 
1 1 0 0 -1 
1 0 0 1 0 
1 1 0 0 1 
1 0 0 1 0 
1 0 10 1 0 
1 0 0 0 -1 
1 10 0 0 1 
1 0 0 1 0 
1 0 0 1 0 
1 0 0 0 -1 
1 0 0 0 1 
1 0 0 1 0 
1 0 0 0 1 
Curves 44
1 10 25.556349186104047 0.99999999999999645 0 1 1.1102230246251565e-16 
1 0 25.556349186104043 0.999999999999994 1 0 0 
1 0 35.556349186104043 0.999999999999994 1 0 0 
1 0 25.556349186104047 0.99999999999999645 0 1 1.1102230246251565e-16 
1 10 25.556349186104047 -2.6645352591003757e-15 0 0 1 
1 10 35.556349186104043 -5.9952043329758453e-15 0 -1.1102230246251565e-16 1 
1 10 25.556349186104043 -7.1054273576010019e-15 0 1 1.1102230246251565e-16 
1 0 35.556349186104043 -5.9952043329758453e-15 1 0 0 
1 0 35.556349186104043 -5.9952043329758453e-15 0 -1.1102230246251565e-16 1 
1 0 25.556349186104047 -2.6645352591003757e-15 0 0 1 
1 0 25.556349186104043 -7.1054273576010019e-15 0 1 1.1102230246251565e-16 
1 0 25.556349186104043 -5.9952043329758453e-15 1 0 0 
1 10 25.556349186104047 0.99999999999999911 0 -1 -1.0281062127178577e-16 
1 10 21.236861526593778 0.99999999999999867 -1 0 0 
1 0 21.236861526593778 0.99999999999999867 0 1 1.0281062127178577e-16 
1 10 25.556349186104047 -2.6645352591003757e-15 0 -1 -1.1102230246251557e-16 
1 10 21.236861526593778 -3.1440947245176282e-15 -1 0 0 
1 0 21.236861526593778 -3.1440947245176282e-15 0 1 1.1102230246251557e-16 
1 10 21.236861526593778 0.99999999999999867 0 0 -1 
1 0 21.236861526593778 0.99999999999999867 0 0 -1 
1 10 21.236861526593778 0.99999999999999201 0 -1 0 
1 10 12.597886207573247 0.99999999999999201 -1 0 0 
1 0 12.597886207573247 0.99999999999999201 0 1 0 
1 10 21.236861526593778 -7.9936057773011271e-15 0 -1 0 
1 10 12.597886207573247 -7.9936057773011271e-15 -1 0 0 
1 0 12.597886207573247 -7.9936057773011271e-15 0 1 0 
1 10 12.597886207573247 0.99999999999999201 0 0 -1 
1 0 12.597886207573247 0.99999999999999201 0 0 -1 
1 10 12.597886207573247 0.99999999999999378 0 -1 -1.0281062127178586e-16 
1 10 8.2783985480629809 0.99999999999999334 -1 0 0 
1 0 8.2783985480629809 0.99999999999999334 0 1 1.0281062127178586e-16 
1 10 12.597886207573247 -6.2172489379008766e-15 0 -1 -1.1102230246251565e-16 
1 10 8.2783985480629809 -6.6968084033181292e-15 -1 0 0 
1 0 8.2783985480629809 -6.6968084033181292e-15 0 1 1.1102230246251565e-16 
1 10 8.2783985480629809 0.99999999999999334 0 0 -1 
1 0 8.2783985480629809 0.99999999999999334 0 0 -1 
1 0 -1.7216014519370226 0.99999999999998979 0 1 1.1102230246251565e-16 
1 10 -1.7216014519370226 0.99999999999998979 0 1 1.1102230246251565e-16 
1 0 -1.7216014519370226 0.99999999999998979 1 0 0 
1 10 -1.7216014519370226 -1.0249522082118631e-14 0 -1.1102230246251565e-16 1 
1 10 -1.7216014519370226 -1.0249522082118631e-14 0 1 1.1102230246251565e-16 
1 0 -1.7216014519370226 -1.0249522082118631e-14 0 -1.1102230246251565e-16 1 
1 0 -1.7216014519370226 -1.0249522082118631e-14 0 1 1.1102230246251565e-16 
1 0 -1.7216014519370226 -1.0249522082118631e-14 1 0 0 
Polygon3D 0
PolygonOnTriangulations 0
Surfaces 22
1 0 22.020815280171309 2.4644660940672614 0 -0.70710678118654746 -0.70710678118654768 1 0 0 0 -0.70710678118654768 0.70710678118654746 
1 10 21.313708498984759 1.7573593128807135 1 -0 0 0 0.70710678118654746 0.70710678118654768 -0 -0.70710678118654768 0.70710678118654746 
1 5 23.396605356348907 0.999999999999999 -0 1.0281062127178565e-16 -1 0 -1 -1.0281062127178565e-16 -1 -0 0 
1 0 10 0 -0 1 0 0 0 1 1 0 -0 
1 0 21.313708498984759 1.7573593128807135 1 -0 0 0 0.70710678118654746 0.70710678118654768 -0 -0.70710678118654768 0.70710678118654746 
1 10 23.396605356348914 0.499999999999998 1 0 0 -0 0 1 0 -1 0 
1 0 21.313708498984759 1.7573593128807135 0 -0.70710678118654746 -0.70710678118654768 1 0 0 0 -0.70710678118654768 0.70710678118654746 
1 0 23.396605356348914 0.499999999999998 1 0 0 -0 0 1 0 -1 0 
1 5 23.396605356348907 -2.904314991809002e-15 -0 1.1102230246251556e-16 -1 0 -1 -1.1102230246251556e-16 -1 -0 0 
1 5 16.917373867083512 0.99999999999999178 -0 -0 -1 -1 0 0 0 1 -0 
1 5 16.917373867083512 -7.9936057773011271e-15 -0 -0 -1 -1 0 0 0 1 -0 
1 10 16.917373867083512 0.49999999999999217 1 0 0 -0 0 1 0 -1 0 
1 0 16.917373867083512 0.49999999999999217 1 0 0 -0 0 1 0 -1 0 
1 4.9999999999999991 10.438142377818114 0.99999999999999345 6.886252881201121e-33 1.0281062127178586e-16 -1 0 -1 -1.0281062127178586e-16 -1 7.0797993695091257e-49 -6.886252881201121e-33 
1 4.9999999999999991 10.438142377818114 -6.4570286706095025e-15 -1.3772505762402242e-33 1.1102230246251568e-16 -1 0 -1 -1.1102230246251568e-16 -1 -1.5290553004201619e-49 1.3772505762402242e-33 
1 10 10.438142377818114 0.49999999999999351 1 0 0 -0 0 1 0 -1 0 
1 0 10.438142377818114 0.49999999999999351 1 0 0 -0 0 1 0 -1 0 
1 0 0 1 0 0 1 1 0 -0 -0 1 0 
1 0 0 0 0 0 1 1 0 -0 -0 1 0 
1 10 0 0 1 0 -0 0 0 1 0 -1 0 
1 0 0 0 1 0 -0 0 0 1 0 -1 0 
1 0 0 0 -0 1 0 0 0 1 1 0 -0 
Triangulations 0

TShapes 114
Ve
1.00000003742893e-07
10 25.556349186104 0.999999999999997
0 0

0101101
*
Ve
1e-07
10 35.556349186104 0.999999999999994
0 0

0101101
*
Ed
 1e-07 1 1 0
1  1 0 0 10
2  1 1 5 0 10
2  2 2 7 0 10
4 C0 1 5 2 7
0

0101000
+114 0 -113 0 *
Ve
1.00000003742893e-07
0 25.556349186104 0.999999999999997
0 0

0101101
*
Ed
 1e-07 1 1 0
1  2 0 0 10
2  3 1 5 0 10
2  4 3 0 0 10
4 G2 1 5 3 0
0

0101000
+111 0 -114 0 *
Ve
1e-07
0 35.556349186104 0.999999999999994
0 0

0101101
*
Ed
 1e-07 1 1 0
1  3 0 0 10
2  5 1 5 0 10
2  6 4 12 0 10
4 C0 1 5 4 12
0

0101000
+109 0 -113 0 *
Ed
 1e-07 1 1 0
1  4 0 0 10
2  7 1 5 0 10
2  8 5 14 0 10
4 C0 1 5 5 14
0

0101000
+111 0 -109 0 *
Wi

0101100
-112 4 -110 4 +108 4 +107 4 *
Fa
0  1e-07 1 3

0101000
+106 0 *
Ve
1.00000003179285e-07
10 25.556349186104 -4.01393148867968e-15
0 0

0101101
*
Ed
 1e-07 1 1 0
1  5 0 0 1
2  9 6 0 0 1
2  10 2 7 0 1
4 CN 2 7 6 0
0

0101000
+104 0 -114 0 *
Ve
1e-07
10 35.556349186104 -5.99520433297585e-15
0 0

0101101
*
Ed
 1e-07 1 1 0
1  6 0 0 1
2  11 2 7 0 1
2  12 4 12 0 1
4 C0 2 7 4 12
0

0101000
+102 0 -113 0 *
Ed
 1e-07 1 1 0
1  7 0 0 10
2  13 2 7 0 10
2  14 7 17 0 10
4 C0 2 7 7 17
0

0101000
+104 0 -102 0 *
Wi

0101100
-112 15 -103 15 +101 15 +100 15 *
Fa
0  1e-07 2 3

0101000
+99 0 *
Ve
1e-07
0 35.556349186104 -5.99520433297585e-15
0 0

0101101
*
Ed
 1e-07 1 1 0
1  8 0 0 10
2  15 4 12 0 10
2  16 7 17 0 10
4 C0 4 12 7 17
0

0101000
+97 0 -102 0 *
Ed
 1e-07 1 1 0
1  9 0 0 1
2  17 4 12 0 1
2  18 5 14 0 1
4 C0 4 12 5 14
0

0101000
+97 0 -109 0 *
Wi

0101100
-96 18 -101 18 +108 18 +95 18 *
Fa
0  1e-07 4 0

0101000
+94 0 *
Ve
1.00000003179285e-07
0 25.556349186104 -4.01393148867968e-15
0 0

0101101
*
Ed
 1e-07 1 1 0
1  10 0 0 1
2  19 8 0 0 1
2  20 5 14 0 1
4 CN 5 14 8 0
0

0101000
+92 0 -111 0 *
Ed
 1e-07 1 1 0
1  11 0 0 10
2  21 5 14 0 10
2  22 7 17 0 10
4 C0 5 14 7 17
0

0101000
+92 0 -97 0 *
Wi

0101100
-107 19 -91 19 +95 19 +90 19 *
Fa
0  1e-07 5 3

0101000
+89 0 *
Ed
 1e-07 1 1 0
1  12 0 0 10
2  23 7 17 0 10
2  24 9 0 0 10
4 G2 7 17 9 0
0

0101000
+92 0 -104 0 *
Wi

0101100
-100 20 -87 20 +96 20 +90 20 *
Fa
0  1e-07 7 3

0101000
+86 0 *
Ve
1.00000003330669e-07
10 21.2368615265938 0.999999999999995
0 0

0101101
*
Ed
 1e-07 1 1 0
1  13 0 0 4.31948765951027
2  25 3 0 0 4.31948765951027
2  26 6 0 0 4.31948765951027
4 C0 3 0 6 0
0

0101000
+114 0 -84 0 *
Ve
1.00000003330669e-07
0 21.2368615265938 0.999999999999995
0 0

0101101
*
Ed
 1e-07 1 1 0
1  14 0 0 10
2  27 3 0 0 10
2  28 10 0 0 10
4 G2 3 0 10 0
0

0101000
+84 0 -82 0 *
Ed
 1e-07 1 1 0
1  15 0 0 4.31948765951027
2  29 3 0 0 4.31948765951027
2  30 8 0 0 4.31948765951027
4 C0 3 0 8 0
0

0101000
+82 0 -111 0 *
Wi

0101100
+83 0 +81 0 +80 0 +110 0 *
Fa
0  1e-07 3 0

0101000
+79 0 *
Ve
1.00000002424756e-07
10 21.2368615265938 -5.56885025090938e-15
0 0

0101101
*
Ed
 1e-07 1 1 0
1  16 0 0 4.31948765951027
2  31 9 0 0 4.31948765951027
2  32 6 0 0 4.31948765951027
4 C0 9 0 6 0
0

0101000
+104 0 -77 0 *
Ve
1.00000002424756e-07
0 21.2368615265938 -5.56885025090938e-15
0 0

0101101
*
Ed
 1e-07 1 1 0
1  17 0 0 10
2  33 9 0 0 10
2  34 11 0 0 10
4 G2 9 0 11 0
0

0101000
+77 0 -75 0 *
Ed
 1e-07 1 1 0
1  18 0 0 4.31948765951027
2  35 9 0 0 4.31948765951027
2  36 8 0 0 4.31948765951027
4 C0 9 0 8 0
0

0101000
+75 0 -92 0 *
Wi

0101100
+76 0 +74 0 +73 0 +87 0 *
Fa
0  1e-07 9 0

0101000
+72 0 *
Ed
 1e-07 1 1 0
1  19 0 0 1
2  37 6 0 0 1
2  38 12 0 0 1
4 CN 6 0 12 0
0

0101000
+84 0 -77 0 *
Wi

0101100
+83 0 +70 0 -76 0 +103 0 *
Fa
0  1e-07 6 0

0101000
+69 0 *
Ed
 1e-07 1 1 0
1  20 0 0 1
2  39 8 0 0 1
2  40 13 0 0 1
4 CN 8 0 13 0
0

0101000
+82 0 -75 0 *
Wi

0101100
-80 0 +67 0 +73 0 +91 0 *
Fa
0  1e-07 8 0

0101000
+66 0 *
Ve
1.00000000888178e-07
10 12.5978862075732 0.999999999999993
0 0

0101101
*
Ed
 1e-07 1 1 0
1  21 0 0 8.63897531902053
2  41 10 0 0 8.63897531902053
2  42 12 0 0 8.63897531902053
4 C0 10 0 12 0
0

0101000
+84 0 -64 0 *
Ve
1.00000000888178e-07
0 12.5978862075732 0.999999999999993
0 0

0101101
*
Ed
 1e-07 1 1 0
1  22 0 0 10
2  43 10 0 0 10
2  44 14 0 0 10
4 G2 10 0 14 0
0

0101000
+64 0 -62 0 *
Ed
 1e-07 1 1 0
1  23 0 0 8.63897531902053
2  45 10 0 0 8.63897531902053
2  46 13 0 0 8.63897531902053
4 C0 10 0 13 0
0

0101000
+62 0 -82 0 *
Wi

0101100
+63 0 +61 0 +60 0 -81 0 *
Fa
0  1e-07 10 0

0101000
+59 0 *
Ve
1.00000000888178e-07
10 12.5978862075732 -7.105427357601e-15
0 0

0101101
*
Ed
 1e-07 1 1 0
1  24 0 0 8.63897531902053
2  47 11 0 0 8.63897531902053
2  48 12 0 0 8.63897531902053
4 C0 11 0 12 0
0

0101000
+77 0 -57 0 *
Ve
1.00000000888178e-07
0 12.5978862075732 -7.105427357601e-15
0 0

0101101
*
Ed
 1e-07 1 1 0
1  25 0 0 10
2  49 11 0 0 10
2  50 15 0 0 10
4 G2 11 0 15 0
0

0101000
+57 0 -55 0 *
Ed
 1e-07 1 1 0
1  26 0 0 8.63897531902053
2  51 11 0 0 8.63897531902053
2  52 13 0 0 8.63897531902053
4 C0 11 0 13 0
0

0101000
+55 0 -75 0 *
Wi

0101100
+56 0 +54 0 +53 0 -74 0 *
Fa
0  1e-07 11 0

0101000
+52 0 *
Ed
 1e-07 1 1 0
1  27 0 0 1
2  53 12 0 0 1
2  54 16 0 0 1
4 CN 12 0 16 0
0

0101000
+64 0 -57 0 *
Wi

0101100
+63 0 +50 0 -56 0 -70 0 *
Fa
0  1e-07 12 0

0101000
+49 0 *
Ed
 1e-07 1 1 0
1  28 0 0 1
2  55 13 0 0 1
2  56 17 0 0 1
4 CN 13 0 17 0
0

0101000
+62 0 -55 0 *
Wi

0101100
-60 0 +47 0 +53 0 -67 0 *
Fa
0  1e-07 13 0

0101000
+46 0 *
Ve
1.00000002155663e-07
10 8.27839854806298 0.999999999999992
0 0

0101101
*
Ed
 1e-07 1 1 0
1  29 0 0 4.31948765951027
2  57 14 0 0 4.31948765951027
2  58 16 0 0 4.31948765951027
4 C0 14 0 16 0
0

0101000
+64 0 -44 0 *
Ve
1.0000000295621e-07
0 8.27839854806298 0.999999999999992
0 0

0101101
*
Ed
 1e-07 1 1 0
1  30 0 0 10
2  59 14 0 0 10
2  60 18 21 0 10
4 CN 14 0 18 21
0

0101000
+44 0 -42 0 *
Ed
 1e-07 1 1 0
1  31 0 0 4.31948765951027
2  61 14 0 0 4.31948765951027
2  62 17 0 0 4.31948765951027
4 C0 14 0 17 0
0

0101000
+42 0 -62 0 *
Wi

0101100
+43 0 +41 0 +40 0 -61 0 *
Fa
0  1e-07 14 0

0101000
+39 0 *
Ve
1.00000002155663e-07
10 8.27839854806298 -7.91805372290786e-15
0 0

0101101
*
Ed
 1e-07 1 1 0
1  32 0 0 4.31948765951027
2  63 15 0 0 4.31948765951027
2  64 16 0 0 4.31948765951027
4 C0 15 0 16 0
0

0101000
+57 0 -37 0 *
Ve
1.0000000295621e-07
0 8.27839854806298 -8.17829513936655e-15
0 0

0101101
*
Ed
 1e-07 1 1 0
1  33 0 0 10
2  65 15 0 0 10
2  66 19 22 0 10
4 CN 15 0 19 22
0

0101000
+37 0 -35 0 *
Ed
 1e-07 1 1 0
1  34 0 0 4.31948765951027
2  67 15 0 0 4.31948765951027
2  68 17 0 0 4.31948765951027
4 C0 15 0 17 0
0

0101000
+35 0 -55 0 *
Wi

0101100
+36 0 +34 0 +33 0 -54 0 *
Fa
0  1e-07 15 0

0101000
+32 0 *
Ed
 1e-07 1 1 0
1  35 0 0 1
2  69 16 0 0 1
2  70 20 23 0 1
4 CN 16 0 20 23
0

0101000
+44 0 -37 0 *
Wi

0101100
+43 0 +30 0 -36 0 -50 0 *
Fa
0  1e-07 16 0

0101000
+29 0 *
Ed
 1e-07 1 1 0
1  36 0 0 1
2  71 17 0 0 1
2  72 21 24 0 1
4 CN 17 0 21 24
0

0101000
+42 0 -35 0 *
Wi

0101100
-40 0 +27 0 +33 0 -47 0 *
Fa
0  1e-07 17 0

0101000
+26 0 *
Ve
1e-07
0 -1.72160145193702 0.99999999999999
0 0

0101101
*
Ed
 1e-07 1 1 0
1  37 0 0 10
2  73 18 21 0 10
2  74 21 24 0 10
4 C0 18 21 21 24
0

0101000
+24 0 -42 0 *
Ve
1e-07
10 -1.72160145193702 0.99999999999999
0 0

0101101
*
Ed
 1e-07 1 1 0
1  38 0 0 10
2  75 18 21 0 10
2  76 20 23 0 10
4 C0 18 21 20 23
0

0101000
+22 0 -44 0 *
Ed
 1e-07 1 1 0
1  39 0 0 10
2  77 18 21 0 10
2  78 22 26 0 10
4 C0 18 21 22 26
0

0101000
+24 0 -22 0 *
Wi

0101100
-23 25 +41 25 +21 25 +20 25 *
Fa
0  1e-07 18 0

0101000
+19 0 *
Ve
1e-07
10 -1.72160145193702 -1.02495220821186e-14
0 0

0101101
*
Ed
 1e-07 1 1 0
1  40 0 0 1
2  79 20 23 0 1
2  80 22 26 0 1
4 C0 20 23 22 26
0

0101000
+17 0 -22 0 *
Ed
 1e-07 1 1 0
1  41 0 0 10
2  81 20 23 0 10
2  82 19 22 0 10
4 C0 20 23 19 22
0

0101000
+17 0 -37 0 *
Wi

0101100
-16 27 -21 27 -30 27 +15 27 *
Fa
0  1e-07 20 0

0101000
+14 0 *
Ve
1e-07
0 -1.72160145193702 -1.02495220821186e-14
0 0

0101101
*
Ed
 1e-07 1 1 0
1  42 0 0 1
2  83 21 24 0 1
2  84 22 26 0 1
4 C0 21 24 22 26
0

0101000
+12 0 -24 0 *
Ed
 1e-07 1 1 0
1  43 0 0 10
2  85 21 24 0 10
2  86 19 22 0 10
4 C0 21 24 19 22
0

0101000
+12 0 -35 0 *
Wi

0101100
-11 28 -23 28 -27 28 +10 28 *
Fa
0  1e-07 21 0

0101000
+9 0 *
Ed
 1e-07 1 1 0
1  44 0 0 10
2  87 19 22 0 10
2  88 22 26 0 10
4 C0 19 22 22 26
0

0101000
+12 0 -17 0 *
Wi

0101100
-10 29 +34 29 +15 29 +7 29 *
Fa
0  1e-07 19 0

0101000
+6 0 *
Wi

0101100
-7 30 -16 30 +20 30 +11 30 *
Fa
0  1e-07 22 0

0101000
+4 0 *
Sh

0101100
-105 2 +98 6 +93 12 -88 13 +85 16 -78 0 +71 0 +68 0 -65 0 -58 0 
+51 0 +48 0 -45 0 -38 0 +31 0 +28 0 -25 0 +18 21 +13 23 -8 24 
-5 22 -3 26 *
So

1100000
+2 0 *

+1 1  