
CASCADE Topology V1, (c) Matra-Datavision
Locations 58
1
              1               0               0               0 
              0               1               0               0 
              0               0               1               0 
1
              1               0               0               3 
              0               1               0             -13 
              0               0               1               0 
1
              1               0               0               0 
              0               1               0               0 
              0               0               1               0 
1
              1               0               0               0 
              0               1               0               0 
              0               0               1               0 
2  2 1 3 1 4 1 0
2  4 -1 3 -1 2 -1 0
1
              1               0               0               0 
              0               1               0               0 
              0               0               1               0 
2  2 1 3 1 7 1 0
1
              1               0               0               0 
              0               1               0               0 
              0               0               1               0 
2  2 1 3 1 9 1 0
1
              1               0               0               0 
              0               1               0               0 
              0               0               1               0 
2  2 1 3 1 11 1 0
2  7 -1 3 -1 2 -1 0
1
              1               0               0               0 
              0               1               0               0 
              0               0               1               0 
2  2 1 3 1 14 1 0
2  14 -1 3 -1 2 -1 0
2  9 -1 3 -1 2 -1 0
2  11 -1 3 -1 2 -1 0
1
0.318140479598809               0 0.948043582985846 -1.30735210093748 
              0               1               0               0 
-0.948043582985846               0 0.318140479598809 0.940284278633242 
1
0.318140479598805               0 -0.948043582985847 2.44031486789607 
              0               1               0               0 
0.948043582985847               0 0.318140479598805 -1.90384647032429 
2  19 1 2 1 3 1 20 1 0
1
0.318140479598805               0 -0.948043582985847 2.44031486789607 
              0               1               0               0 
0.948043582985847               0 0.318140479598805 -1.90384647032429 
2  19 1 2 1 3 1 22 1 0
1
0.318140479598805               0 -0.948043582985847 2.44031486789607 
              0               1               0               0 
0.948043582985847               0 0.318140479598805 -1.90384647032429 
2  19 1 2 1 3 1 24 1 0
1
0.318140479598805               0 -0.948043582985847 2.44031486789607 
              0               1               0               0 
0.948043582985847               0 0.318140479598805 -1.90384647032429 
2  19 1 2 1 3 1 26 1 0
2  3 1 20 1 0
2  19 1 2 1 0
2  20 -1 3 -1 0
1
              1               0               0             -10 
              0               1               0              -0 
              0               0               1               0 
1
0.318140479598805               0 -0.948043582985847 2.44031486789607 
              0               1               0               0 
0.948043582985847               0 0.318140479598805 -1.90384647032429 
2  31 1 19 1 2 1 3 1 32 1 0
1
0.318140479598805               0 -0.948043582985847 2.44031486789607 
              0               1               0               0 
0.948043582985847               0 0.318140479598805 -1.90384647032429 
2  3 1 34 1 0
1
0.318140479598805               0 -0.948043582985847 2.44031486789607 
              0               1               0               0 
0.948043582985847               0 0.318140479598805 -1.90384647032429 
2  3 1 36 1 0
1
0.318140479598805               0 -0.948043582985847 2.44031486789607 
              0               1               0               0 
0.948043582985847               0 0.318140479598805 -1.90384647032429 
2  3 1 38 1 0
1
0.318140479598805               0 -0.948043582985847 2.44031486789607 
              0               1               0               0 
0.948043582985847               0 0.318140479598805 -1.90384647032429 
2  3 1 40 1 0
1
0.318140479598805               0 -0.948043582985847 2.44031486789607 
              0               1               0               0 
0.948043582985847               0 0.318140479598805 -1.90384647032429 
2  2 1 3 1 42 1 0
1
0.318140479598805               0 -0.948043582985847 2.44031486789607 
              0               1               0               0 
0.948043582985847               0 0.318140479598805 -1.90384647032429 
2  2 1 3 1 44 1 0
2  2 1 3 1 24 1 0
2  24 -1 3 -1 2 -1 0
2  2 1 3 1 26 1 0
2  26 -1 3 -1 2 -1 0
2  3 1 22 1 0
2  22 -1 3 -1 0
2  32 -1 3 -1 2 -1 19 -1 31 -1 0
2  34 -1 3 -1 0
2  36 -1 3 -1 0
2  38 -1 3 -1 0
2  40 -1 3 -1 0
2  42 -1 3 -1 2 -1 0
2  44 -1 3 -1 2 -1 0
Curve2ds 92
1 0 0 0 1 
1 0.45630789712249653 -13 0 1 
1 0 26 1 0 
1 0 0 0 1 
1 11 0 0 1 
1 0 0 0 -1 
1 0 0 1 0 
1 0 0 0 1 
1 0 11 1 0 
1 0 -26 1 0 
1 0 26 1 0 
1 0.879 0 0 1 
1 0 0 1 0 
8 0 0.879
1 -0.4395 0.45630789712249653 1 -0 
1 0 0 0 1 
1 0.45630789712249653 -13 0 1 
1 11 0 0 1 
1 0.879 0 0 -1 
1 0 0 1 0 
1 0.879 0 0 1 
1 0 0 1 0 
1 0 11 1 0 
1 0 0 1 0 
8 0 0.879
1 -0.4395 0.45630789712249653 1 -0 
1 0.45630789712249653 13 -1 0 
1 -0.4395 0.45630789712249653 0 -1 
1 -0.45630789712249653 13 0 -1 
8 0 26
1 26 0 -1 -0 
1 -0.45630789712249653 -13 1 0 
8 0 0.91261579424499306
1 -0.4395 -0.45630789712249653 -0 1 
1 0.45630789712249653 13 -1 0 
8 0 0.91261579424499306
1 0.4395 0.45630789712249653 -0 -1 
1 -0.45630789712249653 13 0 -1 
8 0 26
1 26 0 -1 -0 
1 -0.45630789712249653 -13 1 0 
1 0.4395 -0.45630789712249653 0 1 
1 -0.4395 -0.45630789712249653 1 0 
1 0 0 1 0 
1 -0.4395 -0.45630789712249653 1 0 
1 0 0 1 0 
1 26 0 0 -1 
1 0 0 0 -1 
1 0 -10 1 0 
1 0 0 0 -1 
1 0 0 0 -1 
1 0 0 0 -1 
8 -3.0000000000000018 -2.0000000000000018
1 2.0000000000000018 -4.9999999999999796 -1 0 
8 -3.0000000000000018 -2.0000000000000018
1 -2.0000000000000018 -81.904118235141539 -1 0 
2 6.0000000000000044 -4.9999999999999547 -1 0 0 1 2
1 6.2831853071795862 -81.904118235141524 -1 0 
8 -4.5000000000000027 -3.5000000000000018
1 3.5000000000000018 -4.9999999999999796 -1 0 
8 -4.5000000000000027 -3.5000000000000018
1 -3.5000000000000018 -81.904118235141539 -1 0 
2 6.0000000000000044 -4.9999999999999547 -1 0 0 1 1
1 0 -81.904118235141524 1 0 
2 13 -4.9999999999999751 7.8504622934188746e-17 1 1 -7.8504622934188746e-17 1
1 6.2831853071795862 -92.370388925918249 -1 0 
2 13 -4.9999999999999751 -7.8504622934188746e-17 -1 -1 7.8504622934188746e-17 1
1 6.2831853071795862 -92.370388925918249 -1 0 
1 0.879 0 0 -1 
1 26 0 0 -1 
1 0 -10 1 0 
1 0 -26 1 0 
1 0.879 0 0 -1 
1 0 0 0 -1 
1 0 -10 1 0 
1 0 0 1 0 
1 0 -10 1 0 
1 0.879 0 0 -1 
8 -3.0000000000000018 -2.0000000000000018
1 2.0000000000000018 -4.9999999999999813 -1 0 
8 -3.0000000000000018 -2.0000000000000018
1 -2.0000000000000018 -81.025118235141548 -1 0 
2 6.0000000000000044 -4.9999999999999547 -1 0 0 1 2
1 6.2831853071795862 -81.025118235141534 -1 0 
8 -4.5000000000000027 -3.5000000000000018
1 3.5000000000000018 -4.9999999999999813 -1 0 
8 -4.5000000000000027 -3.5000000000000018
1 -3.5000000000000018 -81.025118235141548 -1 0 
2 6.0000000000000044 -4.9999999999999547 -1 0 0 1 1
1 0 -81.025118235141534 1 0 
2 13 -4.9999999999999778 7.8504622934188746e-17 1 1 -7.8504622934188746e-17 1
1 6.2831853071795862 -91.491388925918258 -1 0 
2 13 -4.9999999999999778 -7.8504622934188746e-17 -1 -1 7.8504622934188746e-17 1
1 6.2831853071795862 -91.491388925918258 -1 0 
1 1 -1.4602771655142247e-14 0 -1 
1 0 0 0 -1 
1 0 -1.4602771655142247e-14 0 -1 
1 0 0 0 -1 
1 3.1415926535897931 0 0 -1 
1 1.0000000000000009 -1.4602771655142247e-14 0 -1 
1 0 -1.4602771655142247e-14 0 -1 
1 3.1415926535897931 0 0 -1 
1 3.1415926535897931 0 0 -1 
1 0 0 0 -1 
1 0 0 0 -1 
1 3.1415926535897931 0 0 -1 
Curves 46
1 3 -13 0 0 1 0 
1 3 13 0 1 0 0 
1 14 -13 0 0 1 0 
1 3 -13 0 1 0 0 
1 14 13 0 0 0 1 
1 3 13 0.879 1 0 0 
1 3 13 0 0 0 1 
1 3 -13 0.879 0 1 0 
1 14 -13 0.879 0 1 0 
1 3 -13 0.879 1 0 0 
1 14 -13 0 0 0 1 
1 3 -13 0 0 0 1 
1 3 13 0 -1 0 0 
1 2.0873842057550069 13 0 0 -1 0 
1 2.0873842057550069 -13 0 1 0 0 
1 3 13 0.879 -1 0 0 
1 2.0873842057550069 13 0.879 0 -1 0 
1 2.0873842057550069 -13 0.879 1 0 0 
1 2.0873842057550069 13 0 0 0 1 
1 2.0873842057550069 -13 0 0 0 1 
1 2.0873842057550136 13.000000000000007 1.1102230246251565e-15 -1 0 -4.1078251911130792e-15 
1 -7.9126157942449886 -13 -3.9968028886505642e-14 0 1 0 
1 2.0873842057550136 -13 1.1102230246251565e-15 -1 0 -4.1078251911130792e-15 
1 -2.9126157942449664 -10.999999999999998 -2.5757174171303632e-14 0 -1 0 
2 -2.9126157942449415 -6.9999999999999956 -2.4868995751603507e-14 -4.4408920985006262e-15 0 1 0 -1 0 1 0 4.4408920985006262e-15 2
1 -2.9126157942449664 -9.4999999999999982 -2.5757174171303632e-14 0 -1 0 
2 -2.9126157942449415 -6.9999999999999956 -2.4868995751603507e-14 -4.4408920985006262e-15 0 1 0 -1 0 1 0 4.4408920985006262e-15 1
2 -2.9126157942449629 0 -3.2640556923979602e-14 -4.3298697960381105e-15 2.1303624310684729e-33 1 1 7.8504622934188746e-17 4.3298697960381105e-15 -7.8504622934188746e-17 1 -3.4204515812317309e-31 1
2 -2.9126157942449629 0 -3.2640556923979602e-14 -4.3298697960381105e-15 2.1303624310684729e-33 1 -1 -7.8504622934188746e-17 -4.3298697960381105e-15 7.8504622934188746e-17 -1 3.4204515812317309e-31 1
1 2.08738420575501 13.000000000000007 0.87900000000000134 -1 0 -4.1078251911130792e-15 
1 -7.9126157942449886 13.000000000000007 -3.9968028886505642e-14 -4.1078251911130792e-15 0 1 
1 2.08738420575501 -13 0.87900000000000134 -1 0 -4.1078251911130792e-15 
1 -7.9126157942449886 -13 -3.9968028886505642e-14 -4.1078251911130792e-15 0 1 
1 -7.9126157942449922 -13 0.87899999999996026 0 1 0 
1 -2.9126157942449717 -10.999999999999998 0.87899999999997736 0 -1 0 
2 -2.9126157942449442 -6.9999999999999956 0.87899999999997958 -4.4408920985006262e-15 0 1 0 -1 0 1 0 4.4408920985006262e-15 2
1 -2.9126157942449717 -9.4999999999999982 0.87899999999997736 0 -1 0 
2 -2.9126157942449442 -6.9999999999999956 0.87899999999997958 -4.4408920985006262e-15 0 1 0 -1 0 1 0 4.4408920985006262e-15 1
2 -2.9126157942449691 0 0.87899999999997291 -4.3298697960381105e-15 2.1303624310684729e-33 1 1 7.8504622934188746e-17 4.3298697960381105e-15 -7.8504622934188746e-17 1 -3.4204515812317309e-31 1
2 -2.9126157942449691 0 0.87899999999997291 -4.3298697960381105e-15 2.1303624310684729e-33 1 -1 -7.8504622934188746e-17 -4.3298697960381105e-15 7.8504622934188746e-17 -1 3.4204515812317309e-31 1
1 -2.9126157942453217 -7.9999999999999964 81.904118235141496 4.1078251911130792e-15 0 -1 
1 -2.9126157942453217 -8.9999999999999964 81.904118235141496 4.1078251911130792e-15 0 -1 
1 -2.9126157942453217 -4.9999999999999956 81.904118235141496 4.1078251911130792e-15 0 -1 
1 -2.9126157942453217 -5.9999999999999964 81.904118235141496 4.1078251911130792e-15 0 -1 
1 -3.9126157942453794 0 92.37038892591822 4.2188474935755949e-15 0 -1 
1 -1.9126157942453759 0 92.370388925918235 4.2188474935755949e-15 0 -1 
Polygon3D 0
PolygonOnTriangulations 0
Surfaces 20
1 0 0 0 0 0 1 1 0 -0 -0 1 0 
1 2.5436921028775035 0 0 0 0 1 1 0 -0 -0 1 0 
1 0 26 0 -0 1 0 0 0 1 1 0 -0 
1 11 0 0 1 0 -0 0 0 1 0 -1 0 
1 0 0 0 -0 1 0 0 0 1 1 0 -0 
1 0 0 0.879 0 0 1 1 0 -0 -0 1 0 
1 2.5436921028775035 12.999999999999996 0.4395 0 1 0 0 -0 1 1 0 -0 
1 2.5436921028775035 0 0.879 0 0 1 1 0 -0 -0 1 0 
1 2.5436921028775035 -12.999999999999996 0.4395 0 1 0 0 -0 1 1 0 -0 
1 0 0 0 -0 0 -1 0 1 0 1 0 -0 
1 0 0 0.879 -0 0 -1 0 1 0 1 0 -0 
1 0 26 0 -0 1 0 0 0 1 1 0 -0 
1 0 0 0 -0 1 0 0 0 1 1 0 -0 
1 0 0 0 1 0 -0 0 0 1 0 -1 0 
1 77.750619214008381 -8.9999999999999964 31.737517650007923 0.31814047959880892 0 -0.94804358298584568 0 1 0 0.94804358298584568 -0 0.31814047959880892 
2 77.750619214008381 -6.9999999999999956 31.737517650007923 0.94804358298584557 0 0.3181404795988092 0 -1 0 -0.3181404795988092 -0 0.94804358298584557 2
1 77.750619214008381 -5.9999999999999964 31.737517650007923 0.31814047959880892 0 -0.94804358298584568 0 1 0 0.94804358298584568 -0 0.31814047959880892 
2 77.750619214008381 -6.9999999999999956 31.737517650007923 0.94804358298584557 0 0.3181404795988092 0 -1 0 0.3181404795988092 0 -0.94804358298584557 1
2 84.673099980192077 13 35.067262027182601 0.94804358298584557 -0 0.31814047959880909 0.31814047959880909 7.8504622934188746e-17 -0.94804358298584557 2.4975498391006475e-17 -1 -7.4425804007481081e-17 1
2 84.673099980192077 13 35.067262027182601 0.94804358298584557 -0 0.31814047959880909 -0.31814047959880909 -7.8504622934188746e-17 0.94804358298584557 -2.4975498391006475e-17 1 7.4425804007481081e-17 1
Triangulations 0

TShapes 120
Ve
1e-07
3 -13 0
0 0

0101101
*
Ve
1e-07
3 13 0
0 0

0101101
*
Ed
 1e-07 1 1 0
1  1 0 0 26
2  1 1 5 0 26
2  2 2 0 0 26
4 CN 1 5 2 0
0

0101000
+120 0 -119 0 *
Ve
1e-07
14 13 0
0 0

0101101
*
Ed
 1e-07 1 1 0
1  2 0 0 11
2  3 1 5 0 11
2  4 3 8 0 11
4 C0 1 5 3 8
0

0101000
+119 0 -117 0 *
Ve
1e-07
14 -13 0
0 0

0101101
*
Ed
 1e-07 1 1 0
1  3 0 0 26
2  5 1 5 0 26
2  6 4 10 0 26
4 C0 1 5 4 10
0

0101000
+115 0 -117 0 *
Ed
 1e-07 1 1 0
1  4 0 0 11
2  7 1 5 0 11
2  8 5 12 0 11
4 C0 1 5 5 12
0

0101000
+120 0 -115 0 *
Wi

0101100
-118 6 -116 6 +114 6 +113 6 *
Fa
0  1e-07 1 0

0101000
+112 0 *
Ve
1e-07
14 13 0.879
0 0

0101101
*
Ed
 1e-07 1 1 0
1  5 0 0 0.879
2  9 3 8 0 0.879
2  10 4 10 0 0.879
4 C0 3 8 4 10
0

0101000
+117 0 -110 0 *
Ve
1e-07
3 13 0.879
0 0

0101101
*
Ed
 1e-07 1 1 0
1  6 0 0 11
2  11 6 15 0 11
2  12 3 8 0 11
4 C0 3 8 6 15
0

0101000
+108 0 -110 0 *
Ed
 1e-07 1 1 0
1  7 0 0 0.879
2  13 3 8 0 0.879
2  14 7 0 0 0.879
4 CN 3 8 7 0
0

0101000
+119 0 -108 0 *
Wi

0101100
-116 13 -109 13 +107 13 +106 13 *
Fa
0  1e-07 3 0

0101000
+105 0 *
Ve
1e-07
3 -13 0.879
0 0

0101101
*
Ed
 1e-07 1 1 0
1  8 0 0 26
2  15 6 15 0 26
2  16 8 0 0 26
4 CN 6 15 8 0
0

0101000
+103 0 -108 0 *
Ve
1e-07
14 -13 0.879
0 0

0101101
*
Ed
 1e-07 1 1 0
1  9 0 0 26
2  17 6 15 0 26
2  18 4 10 0 26
4 C0 6 15 4 10
0

0101000
+101 0 -110 0 *
Ed
 1e-07 1 1 0
1  10 0 0 11
2  19 6 15 0 11
2  20 5 12 0 11
4 C0 6 15 5 12
0

0101000
+103 0 -101 0 *
Wi

0101100
-102 16 -107 16 +100 16 +99 16 *
Fa
0  1e-07 6 0

0101000
+98 0 *
Ed
 1e-07 1 1 0
1  11 0 0 0.879
2  21 4 10 0 0.879
2  22 5 12 0 0.879
4 C0 4 10 5 12
0

0101000
+115 0 -101 0 *
Wi

0101100
-96 17 -100 17 +109 17 +114 17 *
Fa
0  1e-07 4 0

0101000
+95 0 *
Ed
 1e-07 1 1 0
1  12 0 0 0.879
2  23 5 12 0 0.879
2  24 9 0 0 0.879
4 CN 5 12 9 0
0

0101000
+120 0 -103 0 *
Wi

0101100
-113 18 -96 18 +99 18 +93 18 *
Fa
0  1e-07 5 0

0101000
+92 0 *
Ve
1.00000003376612e-07
2.08738420575501 13 5.55111510136776e-16
0 0

0101101
*
Ed
 1e-07 1 1 0
1  13 0 0 0.912615794244993
2  25 2 0 0 0.912615794244993
2  26 7 0 0 0.912615794244993
4 C0 2 0 7 0
0

0101000
+119 0 -90 0 *
Ve
1.00000003486216e-07
2.08738420575501 -13 5.38191128119444e-16
0 0

0101101
*
Ed
 1e-07 1 1 0
1  14 0 0 26
2  27 2 0 0 26
2  28 10 21 0 26
4 G2 2 0 10 21
0

0101000
+90 0 -88 0 *
Ed
 1e-07 1 1 0
1  15 0 0 0.912615794244993
2  29 2 0 0 0.912615794244993
2  30 9 0 0 0.912615794244993
4 C0 2 0 9 0
0

0101000
+88 0 -120 0 *
Wi

0101100
+89 0 +87 0 +86 0 +118 0 *
Fa
0  1e-07 2 0

0101000
+85 0 *
Ve
1.00000001433259e-07
2.08738420575501 13 0.879000000000001
0 0

0101101
*
Ed
 1e-07 1 1 0
1  16 0 0 0.912615794244993
2  31 8 0 0 0.912615794244993
2  32 7 0 0 0.912615794244993
4 C0 8 0 7 0
0

0101000
+108 0 -83 0 *
Ve
1.00000001433259e-07
2.08738420575501 -13 0.879000000000001
0 0

0101101
*
Ed
 1e-07 1 1 0
1  17 0 0 26
2  33 8 0 0 26
2  34 11 23 0 26
4 G2 8 0 11 23
0

0101000
+83 0 -81 0 *
Ed
 1e-07 1 1 0
1  18 0 0 0.912615794244993
2  35 8 0 0 0.912615794244993
2  36 9 0 0 0.912615794244993
4 C0 8 0 9 0
0

0101000
+81 0 -103 0 *
Wi

0101100
+82 0 +80 0 +79 0 +102 0 *
Fa
0  1e-07 8 0

0101000
+78 0 *
Ed
 1e-07 1 1 0
1  19 0 0 0.879
2  37 7 0 0 0.879
2  38 12 25 0 0.879
4 CN 7 0 12 25
0

0101000
+90 0 -83 0 *
Wi

0101100
+89 0 +76 0 -82 0 -106 0 *
Fa
0  1e-07 7 0

0101000
+75 0 *
Ed
 1e-07 1 1 0
1  20 0 0 0.879
2  39 9 0 0 0.879
2  40 13 27 0 0.879
4 CN 9 0 13 27
0

0101000
+88 0 -81 0 *
Wi

0101100
-86 0 +73 0 +79 0 -93 0 *
Fa
0  1e-07 9 0

0101000
+72 0 *
Ve
1e-07
-7.91261579424499 13 -3.99680288865056e-14
0 0

0101101
*
Ed
 1e-07 1 1 0
1  21 0 0 10
2  41 10 21 0 10
2  42 12 25 0 10
4 C0 10 21 12 25
0

0101000
+90 0 -70 0 *
Ve
1e-07
-7.91261579424499 -13 -3.99680288865056e-14
0 0

0101101
*
Ed
 1e-07 1 1 0
1  22 0 0 26
2  43 10 21 0 26
2  44 14 33 0 26
4 C0 10 21 14 33
0

0101000
+68 0 -70 0 *
Ed
 1e-07 1 1 0
1  23 0 0 10
2  45 10 21 0 10
2  46 13 27 0 10
4 C0 10 21 13 27
0

0101000
+88 0 -68 0 *
Wi

0101100
-69 30 +87 30 +67 30 +66 30 *
Ve
1.50000016887437e-07
-2.91261579424498 -8 -2.57571741713036e-14
0 0

0101101
*
Ve
1.50000016887437e-07
-2.91261579424498 -9 -2.57571741713036e-14
0 0

0101101
*
Ed
 1e-07 1 1 0
1  24 0 -3 -2
2  47 10 21 -3 -2
2  48 15 35 -3 -2
4 C0 10 21 15 35
0

0101000
+64 0 -63 0 *
Ve
1.50000016887437e-07
-2.91261579424498 -5 -2.57571741713036e-14
0 0

0101101
*
Ed
 1e-07 1 1 0
1  25 0 3.14159265358979 6.28318530717959
2  49 10 21 3.14159265358979 6.28318530717959
2  50 16 37 3.14159265358979 6.28318530717959
4 C0 10 21 16 37
0

0101000
+61 0 -63 0 *
Ve
1.50000016887437e-07
-2.91261579424498 -6 -2.57571741713036e-14
0 0

0101101
*
Ed
 1e-07 1 1 0
1  26 0 -4.5 -3.5
2  51 10 21 -4.5 -3.5
2  52 17 39 -4.5 -3.5
4 C0 10 21 17 39
0

0101000
+61 0 -59 0 *
Ed
 1e-07 1 1 0
1  27 0 0 3.14159265358979
2  53 10 21 0 3.14159265358979
2  54 18 41 0 3.14159265358979
4 C0 10 21 18 41
0

0101000
+64 0 -59 0 *
Wi

0101100
-62 30 +60 30 -58 30 +57 30 *
Ve
1.00000025772483e-07
-3.91261579424498 0 -3.19744231092045e-14
0 0

0101101
*
Ve
1.00000023997259e-07
-1.91261579424498 0 -2.08721928629529e-14
0 0

0101101
*
Ed
 1e-07 1 1 0
1  28 0 3.14159265358979 6.28318530717959
2  55 10 21 3.14159265358979 6.28318530717959
2  56 19 43 3.14159265358979 6.28318530717959
4 C0 10 21 19 43
0

0101000
+55 0 -54 0 *
Ed
 1e-07 1 1 0
1  29 0 3.14159265358979 6.28318530717959
2  57 10 21 3.14159265358979 6.28318530717959
2  58 20 45 3.14159265358979 6.28318530717959
4 C0 10 21 20 45
0

0101000
+54 0 -55 0 *
Wi

0101100
+53 30 +52 30 *
Fa
0  1e-07 10 29

0101000
+65 0 +56 0 +51 0 *
Ve
1e-07
-7.91261579424499 13 0.87899999999996
0 0

0101101
*
Ed
 1e-07 1 1 0
1  30 0 0 10
2  59 12 25 0 10
2  60 11 23 0 10
4 C0 12 25 11 23
0

0101000
+83 0 -49 0 *
Ed
 1e-07 1 1 0
1  31 0 0 0.879
2  61 12 25 0 0.879
2  62 14 33 0 0.879
4 C0 12 25 14 33
0

0101000
+70 0 -49 0 *
Wi

0101100
-48 47 +69 47 -76 47 +47 47 *
Fa
0  1e-07 12 19

0101000
+46 0 *
Ve
1e-07
-7.91261579424499 -13 0.87899999999996
0 0

0101101
*
Ed
 1e-07 1 1 0
1  32 0 0 10
2  63 13 27 0 10
2  64 11 23 0 10
4 C0 13 27 11 23
0

0101000
+81 0 -44 0 *
Ed
 1e-07 1 1 0
1  33 0 0 0.879
2  65 13 27 0 0.879
2  66 14 33 0 0.879
4 C0 13 27 14 33
0

0101000
+68 0 -44 0 *
Wi

0101100
-43 49 +66 49 -73 49 +42 49 *
Fa
0  1e-07 13 19

0101000
+41 0 *
Ed
 1e-07 1 1 0
1  34 0 0 26
2  67 11 23 0 26
2  68 14 33 0 26
4 C0 11 23 14 33
0

0101000
+44 0 -49 0 *
Wi

0101100
-48 51 +80 51 +39 51 +43 51 *
Ve
1.50000018093911e-07
-2.91261579424499 -8 0.87899999999998
0 0

0101101
*
Ve
1.50000018093911e-07
-2.91261579424499 -9 0.87899999999998
0 0

0101101
*
Ed
 1e-07 1 1 0
1  35 0 -3 -2
2  69 11 23 -3 -2
2  70 15 35 -3 -2
4 C0 11 23 15 35
0

0101000
+37 0 -36 0 *
Ve
1.50000018093911e-07
-2.91261579424499 -5 0.87899999999998
0 0

0101101
*
Ed
 1e-07 1 1 0
1  36 0 3.14159265358979 6.28318530717959
2  71 11 23 3.14159265358979 6.28318530717959
2  72 16 37 3.14159265358979 6.28318530717959
4 C0 11 23 16 37
0

0101000
+34 0 -36 0 *
Ve
1.50000018093911e-07
-2.91261579424499 -6 0.87899999999998
0 0

0101101
*
Ed
 1e-07 1 1 0
1  37 0 -4.5 -3.5
2  73 11 23 -4.5 -3.5
2  74 17 39 -4.5 -3.5
4 C0 11 23 17 39
0

0101000
+34 0 -32 0 *
Ed
 1e-07 1 1 0
1  38 0 0 3.14159265358979
2  75 11 23 0 3.14159265358979
2  76 18 41 0 3.14159265358979
4 C0 11 23 18 41
0

0101000
+37 0 -32 0 *
Wi

0101100
-35 51 +33 51 -31 51 +30 51 *
Ve
1.00000025772483e-07
-3.91261579424499 0 0.878999999999972
0 0

0101101
*
Ve
1.00000023997259e-07
-1.91261579424499 0 0.878999999999983
0 0

0101101
*
Ed
 1e-07 1 1 0
1  39 0 3.14159265358979 6.28318530717959
2  77 11 23 3.14159265358979 6.28318530717959
2  78 19 43 3.14159265358979 6.28318530717959
4 C0 11 23 19 43
0

0101000
+28 0 -27 0 *
Ed
 1e-07 1 1 0
1  40 0 3.14159265358979 6.28318530717959
2  79 11 23 3.14159265358979 6.28318530717959
2  80 20 45 3.14159265358979 6.28318530717959
4 C0 11 23 20 45
0

0101000
+27 0 -28 0 *
Wi

0101100
+26 51 +25 51 *
Fa
0  1e-07 11 29

0101000
+38 0 +29 0 +24 0 *
Wi

0101100
-42 52 -39 52 +47 52 +67 52 *
Fa
0  1e-07 14 0

0101000
+22 0 *
Ed
 1e-07 1 1 0
1  41 0 81.0251182351415 81.9041182351415
2  81 15 35 81.0251182351415 81.9041182351415
2  82 18 41 81.0251182351415 81.9041182351415
4 C0 15 35 18 41
0

0101000
+37 0 -64 0 *
Ed
 1e-07 1 1 0
1  42 0 81.0251182351415 81.9041182351415
2  83 15 35 81.0251182351415 81.9041182351415
2  84 16 37 81.0251182351415 81.9041182351415
4 C0 15 35 16 37
0

0101000
+36 0 -63 0 *
Wi

0101100
+35 53 -20 53 -62 53 +19 53 *
Fa
0  1e-07 15 0

0101000
+18 0 *
Ed
 1e-07 1 1 0
1  43 0 81.0251182351415 81.9041182351415
2  85 16 37 81.0251182351415 81.9041182351415
2  86 17 39 81.0251182351415 81.9041182351415
4 C0 16 37 17 39
0

0101000
+34 0 -61 0 *
Wi

0101100
+33 54 -16 54 -60 54 +19 54 *
Fa
0  1e-07 16 0

0101000
+15 0 *
Ed
 1e-07 1 1 0
1  44 0 81.0251182351415 81.9041182351415
2  87 17 39 81.0251182351415 81.9041182351415
2  88 18 41 81.0251182351415 81.9041182351415
4 C0 17 39 18 41
0

0101000
+32 0 -59 0 *
Wi

0101100
+31 55 -16 55 -58 55 +13 55 *
Fa
0  1e-07 17 0

0101000
+12 0 *
Wi

0101100
-30 56 -13 56 +57 56 +20 56 *
Fa
0  1e-07 18 0

0101000
+10 0 *
Ed
 1e-07 1 1 0
1  45 0 91.4913889259182 92.3703889259182
2  89 19 43 91.4913889259182 92.3703889259182
2  90 20 45 91.4913889259182 92.3703889259182
4 CN 19 43 20 45
0

0101000
+28 0 -55 0 *
Ed
 1e-07 1 1 0
1  46 0 91.4913889259182 92.3703889259182
2  91 19 43 91.4913889259182 92.3703889259182
2  92 20 45 91.4913889259182 92.3703889259182
4 CN 19 43 20 45
0

0101000
+27 0 -54 0 *
Wi

0101100
+26 57 -8 57 -53 57 +7 57 *
Fa
0  1e-07 19 0

0101000
+6 0 *
Wi

0101100
+25 58 -7 58 -52 58 +8 58 *
Fa
0  1e-07 20 0

0101000
+4 0 *
Sh

0101100
-111 5 +104 8 +97 15 +94 10 -91 12 -84 0 +77 0 +74 0 -71 0 +50 28 
+45 46 -40 48 -23 50 -21 33 -17 35 +14 37 -11 39 -9 41 +5 43 +3 45 
*
So

1100000
+2 0 *

+1 1  