
CASCADE Topology V1, (c) Matra-Datavision
Locations 63
1
              1               0               0               0 
              0               1               0               0 
              0               0               1               0 
1
              1               0               0               0 
              0               1               0               0 
              0               0               1               0 
1
              1               0               0               0 
              0               1               0               0 
              0               0               1               0 
2  2 1 3 1 0
2  3 -1 2 -1 0
1
              1               0               0               0 
              0               1               0               0 
              0               0               1               0 
2  2 1 6 1 0
1
              1               0               0               0 
              0               1               0               0 
              0               0               1               0 
2  2 1 8 1 0
1
              1               0               0               0 
              0               1               0               0 
              0               0               1               0 
2  2 1 10 1 0
1
              1               0               0               0 
              0               1               0               0 
              0               0               1               0 
2  2 1 12 1 0
1
              1               0               0               0 
              0               1               0               0 
              0               0               1               0 
2  2 1 14 1 0
1
              1               0               0               0 
              0               1               0               0 
              0               0               1               0 
2  2 1 16 1 0
1
              1               0               0               0 
              0               1               0               0 
              0               0               1               0 
2  2 1 18 1 0
1
              1               0               0               0 
              0               1               0               0 
              0               0               1               0 
2  2 1 20 1 0
1
              1               0               0               0 
              0               1               0               0 
              0               0               1               0 
2  2 1 22 1 0
1
              1               0               0               0 
              0               1               0               0 
              0               0               1               0 
2  2 1 24 1 0
1
              1               0               0               0 
              0               1               0               0 
              0               0               1               0 
2  2 1 26 1 0
2  6 -1 2 -1 0
1
              1               0               0               0 
              0               1               0               0 
              0               0               1               1 
1
              1               0               0               0 
              0               1               0               0 
              0               0               1               0 
2  29 1 2 1 30 1 0
2  8 -1 2 -1 0
2  10 -1 2 -1 0
2  12 -1 2 -1 0
2  14 -1 2 -1 0
2  16 -1 2 -1 0
2  18 -1 2 -1 0
2  20 -1 2 -1 0
2  22 -1 2 -1 0
2  24 -1 2 -1 0
2  26 -1 2 -1 0
2  30 -1 2 -1 29 -1 0
1
              1               0               0               0 
              0 1.11022302462516e-16               1             7.5 
              0              -1 1.11022302462516e-16             6.5 
1
              1               0               0               0 
              0 1.11022302462516e-16              -1 7.67769276674477 
              0               1 1.11022302462516e-16            -7.5 
2  43 1 2 1 44 1 0
1
              1               0               0               0 
              0 1.11022302462516e-16              -1 7.67769276674477 
              0               1 1.11022302462516e-16            -7.5 
2  43 1 2 1 46 1 0
1
              1               0               0               0 
              0 1.11022302462516e-16              -1 7.67769276674477 
              0               1 1.11022302462516e-16            -7.5 
2  43 1 2 1 48 1 0
1
              1               0               0               0 
              0 1.11022302462516e-16              -1 7.67769276674477 
              0               1 1.11022302462516e-16            -7.5 
2  43 1 2 1 50 1 0
2  2 1 44 1 0
2  44 -1 2 -1 0
1
              1               0               0              -0 
              0               1               0 3.34019300646255 
              0               0               1              -0 
1
              1               0               0               0 
              0 1.11022302462516e-16              -1 7.67769276674477 
              0               1 1.11022302462516e-16            -7.5 
2  54 1 43 1 2 1 55 1 0
2  2 1 48 1 0
2  48 -1 2 -1 0
2  2 1 50 1 0
2  50 -1 2 -1 0
2  2 1 46 1 0
2  46 -1 2 -1 0
2  55 -1 2 -1 43 -1 54 -1 0
Curve2ds 103
1 -14 7 0 -1 
1 0 0 1 0 
1 -14 -10 1 0 
1 0 0 1 0 
1 13 -10 0 1 
1 0 0 1 0 
1 13 7 -1 0 
8 0 27
1 13.5 -0.58884638337238648 -1 -0 
1 -4 -1 0 -1 
1 0 0 1 0 
1 -4 -6 -1 0 
1 0 -0 1 0 
1 -6 -6 0 1 
1 0 0 1 0 
2 -1 -0.99999999999999967 -1 -6.661338147750939e-17 -6.661338147750939e-17 1 5
1 0 0 1 0 
1 4 -6 0 1 
1 0 0 1 0 
1 2 -6 1 0 
1 0 0 1 0 
1 2 -1 0 -1 
1 0 0 1 0 
2 -1 -1 -1 0 0 1 3
1 0 0 1 0 
1 0 0 0 -1 
8 0 1
1 -0.5 0.58884638337238648 1 -0 
1 17 0 0 -1 
1 0 0 0 -1 
1 0 -1 1 0 
1 -14 7 0 -1 
1 27 0 0 -1 
1 0 0 0 -1 
1 0 -1 1 0 
1 -14 -10 1 0 
1 17 0 0 -1 
8 0 1
1 -0.5 0.58884638337238648 1 -0 
1 0 -1 1 0 
1 13 -10 0 1 
1 0 0 0 -1 
1 0 0 0 -1 
1 5 0 0 -1 
1 0 -0 0 -1 
1 0 -1 1 0 
1 -4 -1 0 -1 
1 2 0 0 -1 
1 0 0 0 -1 
1 0 -1 1 0 
1 -4 -6 -1 0 
1 5 0 0 -1 
1 0 0 0 -1 
1 0 -1 1 0 
1 -6 -6 0 1 
1 3.1415926535897931 0 0 -1 
1 5.0000000000000009 0 0 -1 
1 0 -1 1 0 
2 -1 -0.99999999999999967 -1 -6.661338147750939e-17 -6.661338147750939e-17 1 5
1 0 0 0 -1 
1 2 0 0 -1 
1 0 -1 1 0 
1 4 -6 0 1 
1 0 0 0 -1 
1 5 0 0 -1 
1 0 -1 1 0 
1 2 -6 1 0 
1 -2.2204460492503131e-16 0 0 -1 
1 3.1415926535897931 0 0 -1 
1 0 -1 1 0 
1 2 -1 0 -1 
1 0 -1 1 0 
2 -1 -1 -1 0 0 1 3
8 0 27
1 13.5 -0.58884638337238648 -1 -0 
1 13.5 -0.58884638337238648 0 1 
1 -0.5 0.58884638337238648 0 -1 
1 13.5 0.58884638337238648 -1 0 
1 0 0 1 0 
1 -13.5 0.58884638337238648 0 -1 
8 0 1.177692766744773
1 -0.5 -0.58884638337238648 -0 1 
1 13.5 -0.58884638337238648 0 1 
8 0 1.177692766744773
1 0.5 0.58884638337238648 -0 -1 
1 13.5 0.58884638337238648 -1 0 
1 0 0 1 0 
1 -13.5 0.58884638337238648 0 -1 
1 0.5 -0.58884638337238648 0 1 
1 -0.5 -0.58884638337238648 1 0 
1 0 0 1 0 
1 -0.5 -0.58884638337238648 1 0 
1 0 0 1 0 
1 0 0 0 -1 
1 0 0 0 -1 
1 27 0 0 -1 
1 0 0 0 -1 
1 0 -3.3401930064625471 1 0 
1 0 -0 1 0 
1 1 0 0 -1 
1 0 0 0 -1 
1 0 -3.3401930064625471 1 0 
1 0 -0 0 -1 
1 1 0 0 -1 
1 27 0 0 -1 
1 0 -3.3401930064625471 1 0 
1 27 0 0 -1 
1 0 -3.3401930064625471 1 0 
1 0 -1 1 0 
Curves 52
1 -14 7 0 0 -1 0 
1 -14 -10 0 1 0 0 
1 13 -10 0 0 1 0 
1 13 7 0 -1 0 0 
1 -4 -1 0 0 -1 0 
1 -4 -6 0 -1 0 0 
1 -6 -6 0 0 1 0 
2 -1 -0.99999999999999967 0 -0 0 -1 -1 -6.661338147750939e-17 0 -6.661338147750939e-17 1 0 5
1 4 -6 0 0 1 0 
1 2 -6 0 1 0 0 
1 2 -1 0 0 -1 0 
2 -1 -1 0 0 0 -1 -1 0 0 0 1 0 3
1 -14 7 0 0 0 1 
1 -14 -10 0 0 0 1 
1 -14 7 1 0 -1 0 
1 13 -10 0 0 0 1 
1 -14 -10 1 1 0 0 
1 13 7 0 0 0 1 
1 13 -10 1 0 1 0 
1 -4 -1 0 0 0 1 
1 -4 -6 0 0 0 1 
1 -4 -1 1 0 -1 0 
1 -6 -6 0 0 0 1 
1 -4 -6 1 -1 0 0 
1 -6 -1 0 0 0 1 
1 -6 -6 1 0 1 0 
1 4 -0.99999999999999933 0 0 0 1 
2 -1 -0.99999999999999967 1 -0 0 -1 -1 -6.661338147750939e-17 0 -6.661338147750939e-17 1 0 5
1 4 -6 0 0 0 1 
1 4 -6 1 0 1 0 
1 2 -6 0 0 0 1 
1 2 -6 1 1 0 0 
1 2 -0.99999999999999978 0 0 0 1 
1 2 -1 1 0 -1 0 
2 -1 -1 1 0 0 -1 -1 0 0 0 1 0 3
1 13 7 1 -1 0 0 
1 13 7 0 0 1 0 
1 13 8.177692766744773 0 -1 0 0 
1 -14 8.177692766744773 0 0 -1 0 
1 13 7 1 0 1 0 
1 13 8.177692766744773 1 -1 0 0 
1 -14 8.177692766744773 1 0 -1 0 
1 13 8.177692766744773 0 0 0 1 
1 -14 8.177692766744773 0 0 0 1 
1 13 8.177692766744773 0 0 1 0 
1 -14 8.177692766744773 0 0 1 0 
1 13 11.51788577320732 0 -1 0 0 
1 13 8.177692766744773 1 0 1 0 
1 13 11.51788577320732 0 0 0 1 
1 -14 8.177692766744773 1 0 1 0 
1 -14 11.51788577320732 0 0 0 1 
1 13 11.51788577320732 1 -1 0 0 
Polygon3D 0
PolygonOnTriangulations 0
Surfaces 21
1 0 0 0 0 0 1 1 0 -0 -0 1 0 
1 -14 7 0 1 0 -0 0 -1 0 0 -0 -1 
1 -14 -10 0 0 1 0 1 0 0 0 0 -1 
1 13 -10 0 -1 0 0 0 1 0 0 0 -1 
1 -0.49999999999999994 7.5888463833723865 0 0 0 1 1 0 -0 -0 1 0 
1 -4 -1 0 1 0 -0 0 -1 0 0 -0 -1 
1 -4 -6 0 0 -1 0 -1 0 0 -0 -0 -1 
1 -6 -6 0 -1 0 0 0 1 0 0 0 -1 
2 -1 -0.99999999999999967 0 -0 0 -1 -1 -6.661338147750939e-17 0 -6.661338147750939e-17 1 0 5
1 4 -6 0 -1 0 0 0 1 0 0 0 -1 
1 2 -6 0 0 1 0 1 0 0 0 0 -1 
1 2 -1 0 1 0 -0 0 -1 0 0 -0 -1 
2 -1 -1 0 0 0 -1 -1 0 0 0 1 0 3
1 -14 7.5888463833723865 0.5 1 0 0 -0 0 1 0 -1 0 
1 13 7.5888463833723865 0.5 1 0 0 -0 0 1 0 -1 0 
1 -0.49999999999999994 7.5888463833723865 1 0 0 1 1 0 -0 -0 1 0 
1 13 7 0 0 0 1 -1 0 0 0 -1 0 
1 13 7 1 0 0 1 -1 0 0 0 -1 0 
1 13 7 0 1 0 -0 0 0 1 0 -1 0 
1 -14 7 0 1 0 -0 0 0 1 0 -1 0 
1 13 7 0 0 -1 0 -1 0 0 -0 -0 -1 
Triangulations 0

TShapes 132
Ve
1e-07
-14 7 0
0 0

0101101
*
Ve
1e-07
-14 -10 0
0 0

0101101
*
Ed
 1e-07 1 1 0
1  1 0 0 17
2  1 1 4 0 17
2  2 2 7 0 17
4 C0 1 4 2 7
0

0101000
+132 0 -131 0 *
Ve
1e-07
13 -10 0
0 0

0101101
*
Ed
 1e-07 1 1 0
1  2 0 0 27
2  3 1 4 0 27
2  4 3 9 0 27
4 C0 1 4 3 9
0

0101000
+131 0 -129 0 *
Ve
1e-07
13 7 0
0 0

0101101
*
Ed
 1e-07 1 1 0
1  3 0 0 17
2  5 1 4 0 17
2  6 4 11 0 17
4 C0 1 4 4 11
0

0101000
+129 0 -127 0 *
Ed
 1e-07 1 1 0
1  4 0 0 27
2  7 1 4 0 27
2  8 5 0 0 27
4 CN 1 4 5 0
0

0101000
+127 0 -132 0 *
Wi

0101100
+130 5 +128 5 +126 5 +125 5 *
Ve
1e-07
-4 -1 0
0 0

0101101
*
Ve
1e-07
-4 -6 0
0 0

0101101
*
Ed
 1e-07 1 1 0
1  5 0 0 5
2  9 1 4 0 5
2  10 6 13 0 5
4 C0 1 4 6 13
0

0101000
+123 0 -122 0 *
Ve
1e-07
-6 -6 0
0 0

0101101
*
Ed
 1e-07 1 1 0
1  6 0 0 2
2  11 1 4 0 2
2  12 7 15 0 2
4 C0 1 4 7 15
0

0101000
+122 0 -120 0 *
Ve
1e-07
-6 -1 0
0 0

0101101
*
Ed
 1e-07 1 1 0
1  7 0 0 5
2  13 1 4 0 5
2  14 8 17 0 5
4 C0 1 4 8 17
0

0101000
+120 0 -118 0 *
Ve
1.00000000666134e-07
4 -0.999999999999999 0
0 0

0101101
*
Ed
 1e-07 1 1 0
1  8 0 0 3.14159265358979
2  15 1 4 0 3.14159265358979
2  16 9 19 0 3.14159265358979
4 C0 1 4 9 19
0

0101000
+118 0 -116 0 *
Ve
1e-07
4 -6 0
0 0

0101101
*
Ed
 1e-07 1 1 0
1  9 0 0 5
2  17 1 4 0 5
2  18 10 21 0 5
4 C0 1 4 10 21
0

0101000
+114 0 -116 0 *
Ve
1e-07
2 -6 0
0 0

0101101
*
Ed
 1e-07 1 1 0
1  10 0 0 2
2  19 1 4 0 2
2  20 11 23 0 2
4 C0 1 4 11 23
0

0101000
+112 0 -114 0 *
Ve
1.00000000166533e-07
2 -1 0
0 0

0101101
*
Ed
 1e-07 1 1 0
1  11 0 0 5
2  21 1 4 0 5
2  22 12 25 0 5
4 C0 1 4 12 25
0

0101000
+110 0 -112 0 *
Ed
 1e-07 1 1 0
1  12 0 0 3.14159265358979
2  23 1 4 0 3.14159265358979
2  24 13 27 0 3.14159265358979
4 C0 1 4 13 27
0

0101000
+123 0 -110 0 *
Wi

0101100
+121 5 +119 5 +117 5 +115 5 -113 5 -111 5 -109 5 -108 5 *
Fa
0  1e-07 1 0

0101000
+124 0 +107 0 *
Ve
1e-07
-14 7 1
0 0

0101101
*
Ed
 1e-07 1 1 0
1  13 0 0 1
2  25 2 7 0 1
2  26 14 0 0 1
4 G2 2 7 14 0
0

0101000
+132 0 -105 0 *
Ve
1e-07
-14 -10 1
0 0

0101101
*
Ed
 1e-07 1 1 0
1  14 0 0 1
2  27 2 7 0 1
2  28 3 9 0 1
4 C0 2 7 3 9
0

0101000
+131 0 -103 0 *
Ed
 1e-07 1 1 0
1  15 0 0 17
2  29 2 7 0 17
2  30 1 31 0 17
4 C0 2 7 1 31
0

0101000
+105 0 -103 0 *
Wi

0101100
+104 28 -102 28 -130 28 +101 28 *
Fa
0  1e-07 2 0

0101000
+100 0 *
Ve
1e-07
13 -10 1
0 0

0101101
*
Ed
 1e-07 1 1 0
1  16 0 0 1
2  31 3 9 0 1
2  32 4 11 0 1
4 C0 3 9 4 11
0

0101000
+129 0 -98 0 *
Ed
 1e-07 1 1 0
1  17 0 0 27
2  33 3 9 0 27
2  34 1 31 0 27
4 C0 3 9 1 31
0

0101000
+103 0 -98 0 *
Wi

0101100
+102 32 -97 32 -128 32 +96 32 *
Fa
0  1e-07 3 0

0101000
+95 0 *
Ve
1e-07
13 7 1
0 0

0101101
*
Ed
 1e-07 1 1 0
1  18 0 0 1
2  35 4 11 0 1
2  36 15 0 0 1
4 CN 4 11 15 0
0

0101000
+127 0 -93 0 *
Ed
 1e-07 1 1 0
1  19 0 0 17
2  37 4 11 0 17
2  38 1 31 0 17
4 C0 4 11 1 31
0

0101000
+98 0 -93 0 *
Wi

0101100
+97 33 -92 33 -126 33 +91 33 *
Fa
0  1e-07 4 0

0101000
+90 0 *
Ve
1e-07
-4 -1 1
0 0

0101101
*
Ed
 1e-07 1 1 0
1  20 0 0 1
2  39 6 13 0 1
2  40 13 27 0 1
4 G1 6 13 13 27
0

0101000
+123 0 -88 0 *
Ve
1e-07
-4 -6 1
0 0

0101101
*
Ed
 1e-07 1 1 0
1  21 0 0 1
2  41 6 13 0 1
2  42 7 15 0 1
4 C0 6 13 7 15
0

0101000
+122 0 -86 0 *
Ed
 1e-07 1 1 0
1  22 0 0 5
2  43 6 13 0 5
2  44 1 31 0 5
4 C0 6 13 1 31
0

0101000
+88 0 -86 0 *
Wi

0101100
+87 34 -85 34 -121 34 +84 34 *
Fa
0  1e-07 6 0

0101000
+83 0 *
Ve
1e-07
-6 -6 1
0 0

0101101
*
Ed
 1e-07 1 1 0
1  23 0 0 1
2  45 7 15 0 1
2  46 8 17 0 1
4 C0 7 15 8 17
0

0101000
+120 0 -81 0 *
Ed
 1e-07 1 1 0
1  24 0 0 2
2  47 7 15 0 2
2  48 1 31 0 2
4 C0 7 15 1 31
0

0101000
+86 0 -81 0 *
Wi

0101100
+85 35 -80 35 -119 35 +79 35 *
Fa
0  1e-07 7 0

0101000
+78 0 *
Ve
1e-07
-6 -1 1
0 0

0101101
*
Ed
 1e-07 1 1 0
1  25 0 0 1
2  49 8 17 0 1
2  50 9 19 0 1
4 G1 8 17 9 19
0

0101000
+118 0 -76 0 *
Ed
 1e-07 1 1 0
1  26 0 0 5
2  51 8 17 0 5
2  52 1 31 0 5
4 C0 8 17 1 31
0

0101000
+81 0 -76 0 *
Wi

0101100
+80 36 -75 36 -117 36 +74 36 *
Fa
0  1e-07 8 0

0101000
+73 0 *
Ve
1.00000000666134e-07
4 -0.999999999999999 1
0 0

0101101
*
Ed
 1e-07 1 1 0
1  27 0 0 1
2  53 9 19 0 1
2  54 10 21 0 1
4 G1 9 19 10 21
0

0101000
+116 0 -71 0 *
Ed
 1e-07 1 1 0
1  28 0 0 3.14159265358979
2  55 9 19 0 3.14159265358979
2  56 1 31 0 3.14159265358979
4 C0 9 19 1 31
0

0101000
+76 0 -71 0 *
Wi

0101100
+75 37 -70 37 -115 37 +69 37 *
Fa
0  1e-07 9 0

0101000
+68 0 *
Ve
1e-07
4 -6 1
0 0

0101101
*
Ed
 1e-07 1 1 0
1  29 0 0 1
2  57 10 21 0 1
2  58 11 23 0 1
4 C0 10 21 11 23
0

0101000
+114 0 -66 0 *
Ed
 1e-07 1 1 0
1  30 0 0 5
2  59 10 21 0 5
2  60 1 31 0 5
4 C0 10 21 1 31
0

0101000
+66 0 -71 0 *
Wi

0101100
+65 38 -70 38 -113 38 +64 38 *
Fa
0  1e-07 10 0

0101000
+63 0 *
Ve
1e-07
2 -6 1
0 0

0101101
*
Ed
 1e-07 1 1 0
1  31 0 0 1
2  61 11 23 0 1
2  62 12 25 0 1
4 C0 11 23 12 25
0

0101000
+112 0 -61 0 *
Ed
 1e-07 1 1 0
1  32 0 0 2
2  63 11 23 0 2
2  64 1 31 0 2
4 C0 11 23 1 31
0

0101000
+61 0 -66 0 *
Wi

0101100
+60 39 -65 39 -111 39 +59 39 *
Fa
0  1e-07 11 0

0101000
+58 0 *
Ve
1.00000000166533e-07
2 -1 1
0 0

0101101
*
Ed
 1e-07 1 1 0
1  33 0 0 1
2  65 12 25 0 1
2  66 13 27 0 1
4 G1 12 25 13 27
0

0101000
+110 0 -56 0 *
Ed
 1e-07 1 1 0
1  34 0 0 5
2  67 12 25 0 5
2  68 1 31 0 5
4 C0 12 25 1 31
0

0101000
+56 0 -61 0 *
Wi

0101100
+55 40 -60 40 -109 40 +54 40 *
Fa
0  1e-07 12 0

0101000
+53 0 *
Ed
 1e-07 1 1 0
1  35 0 0 3.14159265358979
2  69 13 27 0 3.14159265358979
2  70 1 31 0 3.14159265358979
4 C0 13 27 1 31
0

0101000
+88 0 -56 0 *
Wi

0101100
+87 41 -55 41 -108 41 +51 41 *
Fa
0  1e-07 13 0

0101000
+50 0 *
Ed
 1e-07 1 1 0
1  36 0 0 27
2  7 1 31 0 27
2  71 16 0 0 27
4 CN 1 31 16 0
0

0101000
+93 0 -105 0 *
Wi

0101100
+101 42 +96 42 +91 42 +48 42 *
Wi

0101100
+84 42 +79 42 +74 42 +69 42 -64 42 -59 42 -54 42 -51 42 *
Fa
0  1e-07 1 0

0101000
+47 0 +46 0 *
Ve
1e-07
13 8.17769276674477 0
0 0

0101101
*
Ed
 1e-07 1 1 0
1  37 0 0 1.17769276674477
2  72 5 0 0 1.17769276674477
2  73 15 0 0 1.17769276674477
4 C0 5 0 15 0
0

0101000
+127 0 -44 0 *
Ve
1e-07
-14 8.17769276674477 0
0 0

0101101
*
Ed
 1e-07 1 1 0
1  38 0 0 27
2  74 5 0 0 27
2  75 17 45 0 27
4 G2 5 0 17 45
0

0101000
+44 0 -42 0 *
Ed
 1e-07 1 1 0
1  39 0 0 1.17769276674477
2  76 5 0 0 1.17769276674477
2  77 14 0 0 1.17769276674477
4 C0 5 0 14 0
0

0101000
+42 0 -132 0 *
Wi

0101100
+43 0 +41 0 +40 0 -125 0 *
Fa
0  1e-07 5 0

0101000
+39 0 *
Ve
1e-07
13 8.17769276674477 1
0 0

0101101
*
Ed
 1e-07 1 1 0
1  40 0 0 1.17769276674477
2  78 16 0 0 1.17769276674477
2  79 15 0 0 1.17769276674477
4 C0 16 0 15 0
0

0101000
+93 0 -37 0 *
Ve
1e-07
-14 8.17769276674477 1
0 0

0101101
*
Ed
 1e-07 1 1 0
1  41 0 0 27
2  80 16 0 0 27
2  81 18 47 0 27
4 G2 16 0 18 47
0

0101000
+37 0 -35 0 *
Ed
 1e-07 1 1 0
1  42 0 0 1.17769276674477
2  82 16 0 0 1.17769276674477
2  83 14 0 0 1.17769276674477
4 C0 16 0 14 0
0

0101000
+35 0 -105 0 *
Wi

0101100
+36 0 +34 0 +33 0 -48 0 *
Fa
0  1e-07 16 0

0101000
+32 0 *
Ed
 1e-07 1 1 0
1  43 0 0 1
2  84 15 0 0 1
2  85 19 49 0 1
4 CN 15 0 19 49
0

0101000
+44 0 -37 0 *
Wi

0101100
+43 0 +30 0 -36 0 -92 0 *
Fa
0  1e-07 15 0

0101000
+29 0 *
Ed
 1e-07 1 1 0
1  44 0 0 1
2  86 14 0 0 1
2  87 20 51 0 1
4 CN 14 0 20 51
0

0101000
+42 0 -35 0 *
Wi

0101100
-40 0 +27 0 +33 0 -104 0 *
Fa
0  1e-07 14 0

0101000
+26 0 *
Ve
1e-07
13 11.5178857732073 0
0 0

0101101
*
Ed
 1e-07 1 1 0
1  45 0 0 3.34019300646255
2  88 17 45 0 3.34019300646255
2  89 19 49 0 3.34019300646255
4 C0 17 45 19 49
0

0101000
+44 0 -24 0 *
Ve
1e-07
-14 11.5178857732073 0
0 0

0101101
*
Ed
 1e-07 1 1 0
1  46 0 0 3.34019300646255
2  90 17 45 0 3.34019300646255
2  91 20 51 0 3.34019300646255
4 C0 17 45 20 51
0

0101000
+42 0 -22 0 *
Ed
 1e-07 1 1 0
1  47 0 0 27
2  92 17 45 0 27
2  93 21 56 0 27
4 C0 17 45 21 56
0

0101000
+24 0 -22 0 *
Wi

0101100
+23 53 -21 53 -41 53 +20 53 *
Fa
0  1e-07 17 43

0101000
+19 0 *
Ve
1e-07
13 11.5178857732073 1
0 0

0101101
*
Ed
 1e-07 1 1 0
1  48 0 0 3.34019300646255
2  94 19 49 0 3.34019300646255
2  95 18 47 0 3.34019300646255
4 C0 19 49 18 47
0

0101000
+37 0 -17 0 *
Ed
 1e-07 1 1 0
1  49 0 0 1
2  96 19 49 0 1
2  97 21 56 0 1
4 C0 19 49 21 56
0

0101000
+24 0 -17 0 *
Wi

0101100
+23 58 -16 58 -30 58 +15 58 *
Fa
0  1e-07 19 43

0101000
+14 0 *
Ve
1e-07
-14 11.5178857732073 1
0 0

0101101
*
Ed
 1e-07 1 1 0
1  50 0 0 3.34019300646255
2  98 20 51 0 3.34019300646255
2  99 18 47 0 3.34019300646255
4 C0 20 51 18 47
0

0101000
+35 0 -12 0 *
Ed
 1e-07 1 1 0
1  51 0 0 1
2  100 20 51 0 1
2  101 21 56 0 1
4 C0 20 51 21 56
0

0101000
+22 0 -12 0 *
Wi

0101100
+21 60 -11 60 -27 60 +10 60 *
Fa
0  1e-07 20 43

0101000
+9 0 *
Ed
 1e-07 1 1 0
1  52 0 0 27
2  102 18 47 0 27
2  103 21 56 0 27
4 C0 18 47 21 56
0

0101000
+17 0 -12 0 *
Wi

0101100
+16 62 -11 62 -34 62 +7 62 *
Fa
0  1e-07 18 43

0101000
+6 0 *
Wi

0101100
+15 63 -10 63 -20 63 +7 63 *
Fa
0  1e-07 21 0

0101000
+4 0 *
Sh

0101100
-106 4 -99 7 -94 9 -89 11 -82 13 -77 15 -72 17 -67 19 +62 21 +57 23 
+52 25 +49 27 +45 31 -38 0 +31 0 +28 0 -25 0 -18 52 +13 57 -8 59 
+5 61 -3 56 *
So

1100000
+2 0 *

+1 1  