
CASCADE Topology V1, (c) Matra-Datavision
Locations 75
1
              1               0               0               0 
              0               1               0               0 
              0               0               1               0 
1
              1               0               0               0 
              0               1               0               0 
              0               0               1               0 
1
              1               0               0               0 
              0               1               0               0 
              0               0               1               0 
2  2 1 3 1 0
2  3 -1 2 -1 0
1
              1               0               0               0 
              0               1               0               0 
              0               0               1               0 
2  2 1 6 1 0
1
              1               0               0               0 
              0               1               0               0 
              0               0               1               0 
2  2 1 8 1 0
1
              1               0               0               0 
              0               1               0               0 
              0               0               1               0 
2  2 1 10 1 0
1
              1               0               0               0 
              0               1               0               0 
              0               0               1               0 
2  2 1 12 1 0
1
              1               0               0               0 
              0               1               0               0 
              0               0               1               0 
2  2 1 14 1 0
1
              1               0               0               0 
              0               1               0               0 
              0               0               1               0 
2  2 1 16 1 0
1
              1               0               0               0 
              0               1               0               0 
              0               0               1               0 
2  2 1 18 1 0
1
              1               0               0               0 
              0               1               0               0 
              0               0               1               0 
2  2 1 20 1 0
1
              1               0               0               0 
              0               1               0               0 
              0               0               1               0 
2  2 1 22 1 0
1
              1               0               0               0 
              0               1               0               0 
              0               0               1               0 
2  2 1 24 1 0
1
              1               0               0               0 
              0               1               0               0 
              0               0               1               0 
2  2 1 26 1 0
1
              1               0               0               0 
              0               1               0               0 
              0               0               1               0 
2  2 1 28 1 0
1
              1               0               0               0 
              0               1               0               0 
              0               0               1               0 
2  2 1 30 1 0
1
              1               0               0               0 
              0               1               0               0 
              0               0               1               0 
2  2 1 32 1 0
1
              1               0               0               0 
              0               1               0               0 
              0               0               1               0 
2  2 1 34 1 0
2  6 -1 2 -1 0
1
              1               0               0               0 
              0               1               0               0 
              0               0               1               1 
1
              1               0               0               0 
              0               1               0               0 
              0               0               1               0 
2  37 1 2 1 38 1 0
2  8 -1 2 -1 0
2  10 -1 2 -1 0
2  38 -1 2 -1 37 -1 0
2  12 -1 2 -1 0
2  14 -1 2 -1 0
2  16 -1 2 -1 0
2  18 -1 2 -1 0
2  20 -1 2 -1 0
2  22 -1 2 -1 0
2  24 -1 2 -1 0
2  26 -1 2 -1 0
2  28 -1 2 -1 0
2  30 -1 2 -1 0
2  32 -1 2 -1 0
2  34 -1 2 -1 0
1
              1               0               0               0 
              0 1.11022302462516e-16               1             6.5 
              0              -1 1.11022302462516e-16             5.5 
1
              1               0               0               0 
              0 1.11022302462516e-16              -1 6.67769276674477 
              0               1 1.11022302462516e-16            -6.5 
2  55 1 2 1 56 1 0
1
              1               0               0               0 
              0 1.11022302462516e-16              -1 6.67769276674477 
              0               1 1.11022302462516e-16            -6.5 
2  55 1 2 1 58 1 0
1
              1               0               0               0 
              0 1.11022302462516e-16              -1 6.67769276674477 
              0               1 1.11022302462516e-16            -6.5 
2  55 1 2 1 60 1 0
1
              1               0               0               0 
              0 1.11022302462516e-16              -1 6.67769276674477 
              0               1 1.11022302462516e-16            -6.5 
2  55 1 2 1 62 1 0
2  2 1 56 1 0
2  56 -1 2 -1 0
1
              1               0               0              -0 
              0               1               0 2.8777986172544 
              0               0               1              -0 
1
              1               0               0               0 
              0 1.11022302462516e-16              -1 6.67769276674477 
              0               1 1.11022302462516e-16            -6.5 
2  66 1 55 1 2 1 67 1 0
2  2 1 60 1 0
2  60 -1 2 -1 0
2  2 1 62 1 0
2  62 -1 2 -1 0
2  2 1 58 1 0
2  58 -1 2 -1 0
2  67 -1 2 -1 55 -1 66 -1 0
Curve2ds 115
1 -5 6 0 -1 
1 0 0 1 0 
1 -5 -3 1 0 
1 0 0 1 0 
1 5 -3 0 1 
1 0 0 1 0 
1 5 6 -1 0 
8 0 10
1 5 -0.58884638337238648 -1 -0 
2 0 1.0000000000000002 -1 -1.1102230246251565e-16 -1.1102230246251565e-16 1 2
1 0 0 1 0 
1 2 -2 0 1 
1 0 0 1 0 
1 -2 -2 1 0 
1 0 0 1 0 
1 -2 1 0 -1 
1 0 0 1 0 
1 -3 1 0 -1 
1 0 0 1 0 
1 -3 -2 -1 0 
1 0 -0 1 0 
1 -4 -2 0 1 
1 0 0 1 0 
1 -4 5 1 0 
1 0 0 1 0 
1 4 5 0 -1 
1 0 0 1 0 
1 4 -2 -1 0 
1 0 -0 1 0 
1 3 -2 0 1 
1 0 0 1 0 
2 0 0.99999999999999989 -1 3.7007434154171883e-17 3.7007434154171883e-17 1 3
1 0 0 1 0 
1 0 0 0 -1 
8 0 1
1 -0.5 0.58884638337238648 1 -0 
1 9 0 0 -1 
1 0 0 0 -1 
1 0 -1 1 0 
1 -5 6 0 -1 
1 10 0 0 -1 
1 0 0 0 -1 
1 0 -1 1 0 
1 -5 -3 1 0 
1 9 0 0 -1 
8 0 1
1 -0.5 0.58884638337238648 1 -0 
1 0 -1 1 0 
1 5 -3 0 1 
8 0 10
1 5 -0.58884638337238648 -1 -0 
1 0 -1 1 0 
1 0 -1 1 0 
1 0 -1 1 0 
1 0 -1 1 0 
1 0 -1 1 0 
1 0 -1 1 0 
1 0 -1 1 0 
1 0 -1 1 0 
1 0 -1 1 0 
1 0 -1 1 0 
1 0 -1 1 0 
1 0 -1 1 0 
1 0 0 0 -1 
1 0 0 0 -1 
1 3.1415926535897931 0 0 -1 
1 3.0000000000000004 0 0 -1 
1 0 0 0 -1 
1 4 0 0 -1 
1 0 0 0 -1 
1 3 0 0 -1 
1 0 0 0 -1 
1 0 0 0 -1 
1 3 0 0 -1 
1 0 -0 0 -1 
1 1 0 0 -1 
1 0 0 0 -1 
1 7 0 0 -1 
1 0 0 0 -1 
1 8 0 0 -1 
1 0 0 0 -1 
1 7 0 0 -1 
1 0 -0 0 -1 
1 1 0 0 -1 
1 0 0 0 -1 
1 3 0 0 -1 
1 3.1415926535897931 0 0 -1 
1 5 -0.58884638337238648 0 1 
1 -0.5 0.58884638337238648 0 -1 
1 5 0.58884638337238648 -1 0 
1 0 0 1 0 
1 -5 0.58884638337238648 0 -1 
8 0 1.177692766744773
1 -0.5 -0.58884638337238648 -0 1 
1 5 -0.58884638337238648 0 1 
8 0 1.177692766744773
1 0.5 0.58884638337238648 -0 -1 
1 5 0.58884638337238648 -1 0 
1 0 0 1 0 
1 -5 0.58884638337238648 0 -1 
1 0.5 -0.58884638337238648 0 1 
1 -0.5 -0.58884638337238648 1 0 
1 0 0 1 0 
1 -0.5 -0.58884638337238648 1 0 
1 0 0 1 0 
1 0 0 0 -1 
1 0 0 0 -1 
1 10 0 0 -1 
1 0 0 0 -1 
1 0 -2.8777986172544008 1 0 
1 0 -0 1 0 
1 1 0 0 -1 
1 0 0 0 -1 
1 0 -2.8777986172544008 1 0 
1 0 -0 0 -1 
1 1 0 0 -1 
1 10 0 0 -1 
1 0 -2.8777986172544008 1 0 
1 10 0 0 -1 
1 0 -2.8777986172544008 1 0 
1 0 -1 1 0 
Curves 64
1 -5 6 0 0 -1 0 
1 -5 -3 0 1 0 0 
1 5 -3 0 0 1 0 
1 5 6 0 -1 0 0 
2 0 1.0000000000000002 0 -0 0 -1 -1 -1.1102230246251565e-16 0 -1.1102230246251565e-16 1 0 2
1 2 -2 0 0 1 0 
1 -2 -2 0 1 0 0 
1 -2 1 0 0 -1 0 
1 -3 1 0 0 -1 0 
1 -3 -2 0 -1 0 0 
1 -4 -2 0 0 1 0 
1 -4 5 0 1 0 0 
1 4 5 0 0 -1 0 
1 4 -2 0 -1 0 0 
1 3 -2 0 0 1 0 
2 0 0.99999999999999989 0 0 0 -1 -1 3.7007434154171883e-17 0 3.7007434154171883e-17 1 0 3
1 -5 6 0 0 0 1 
1 -5 -3 0 0 0 1 
1 -5 6 1 0 -1 0 
1 5 -3 0 0 0 1 
1 -5 -3 1 1 0 0 
1 5 6 0 0 0 1 
1 5 -3 1 0 1 0 
1 5 6 1 -1 0 0 
2 0 1.0000000000000002 1 -0 0 -1 -1 -1.1102230246251565e-16 0 -1.1102230246251565e-16 1 0 2
1 2 -2 1 0 1 0 
1 -2 -2 1 1 0 0 
1 -2 1 1 0 -1 0 
1 -3 1 1 0 -1 0 
1 -3 -2 1 -1 0 0 
1 -4 -2 1 0 1 0 
1 -4 5 1 1 0 0 
1 4 5 1 0 -1 0 
1 4 -2 1 -1 0 0 
1 3 -2 1 0 1 0 
2 0 0.99999999999999989 1 0 0 -1 -1 3.7007434154171883e-17 0 3.7007434154171883e-17 1 0 3
1 -2 1 0 0 0 1 
1 2 1.0000000000000004 0 0 0 1 
1 2 -2 0 0 0 1 
1 -2 -2 0 0 0 1 
1 -3 1 0 0 0 1 
1 -3 -2 0 0 0 1 
1 -4 -2 0 0 0 1 
1 -4 5 0 0 0 1 
1 4 5 0 0 0 1 
1 4 -2 0 0 0 1 
1 3 -2 0 0 0 1 
1 3 1 0 0 0 1 
1 5 6 0 0 1 0 
1 5 7.177692766744773 0 -1 0 0 
1 -5 7.177692766744773 0 0 -1 0 
1 5 6 1 0 1 0 
1 5 7.177692766744773 1 -1 0 0 
1 -5 7.177692766744773 1 0 -1 0 
1 5 7.177692766744773 0 0 0 1 
1 -5 7.177692766744773 0 0 0 1 
1 5 7.177692766744773 0 0 1 0 
1 -5 7.177692766744773 0 0 1 0 
1 5 10.055491383999174 0 -1 0 0 
1 5 7.177692766744773 1 0 1 0 
1 5 10.055491383999174 0 0 0 1 
1 -5 7.177692766744773 1 0 1 0 
1 -5 10.055491383999174 0 0 0 1 
1 5 10.055491383999174 1 -1 0 0 
Polygon3D 0
PolygonOnTriangulations 0
Surfaces 25
1 0 0 0 0 0 1 1 0 -0 -0 1 0 
1 -5 6 0 1 0 -0 0 -1 0 0 -0 -1 
1 -5 -3 0 0 1 0 1 0 0 0 0 -1 
1 5 -3 0 -1 0 0 0 1 0 0 0 -1 
1 0 6.5888463833723865 0 0 0 1 1 0 -0 -0 1 0 
2 0 1.0000000000000002 0 -0 0 -1 -1 -1.1102230246251565e-16 0 -1.1102230246251565e-16 1 0 2
1 2 -2 0 -1 0 0 0 1 0 0 0 -1 
1 -2 -2 0 0 1 0 1 0 0 0 0 -1 
1 -2 1 0 1 0 -0 0 -1 0 0 -0 -1 
1 -3 1 0 1 0 -0 0 -1 0 0 -0 -1 
1 -3 -2 0 0 -1 0 -1 0 0 -0 -0 -1 
1 -4 -2 0 -1 0 0 0 1 0 0 0 -1 
1 -4 5 0 0 1 0 1 0 0 0 0 -1 
1 4 5 0 1 0 -0 0 -1 0 0 -0 -1 
1 4 -2 0 0 -1 0 -1 0 0 -0 -0 -1 
1 3 -2 0 -1 0 0 0 1 0 0 0 -1 
2 0 0.99999999999999989 0 0 0 -1 -1 3.7007434154171883e-17 0 3.7007434154171883e-17 1 0 3
1 -5 6.5888463833723865 0.5 1 0 0 -0 0 1 0 -1 0 
1 5 6.5888463833723865 0.5 1 0 0 -0 0 1 0 -1 0 
1 0 6.5888463833723865 1 0 0 1 1 0 -0 -0 1 0 
1 5 6 0 0 0 1 -1 0 0 0 -1 0 
1 5 6 1 0 0 1 -1 0 0 0 -1 0 
1 5 6 0 1 0 -0 0 0 1 0 -1 0 
1 -5 6 0 1 0 -0 0 0 1 0 -1 0 
1 5 6 0 0 -1 0 -1 0 0 -0 -0 -1 
Triangulations 0

TShapes 162
Ve
1e-07
-5 6 0
0 0

0101101
*
Ve
1e-07
-5 -3 0
0 0

0101101
*
Ed
 1e-07 1 1 0
1  1 0 0 9
2  1 1 4 0 9
2  2 2 7 0 9
4 C0 1 4 2 7
0

0101000
+162 0 -161 0 *
Ve
1e-07
5 -3 0
0 0

0101101
*
Ed
 1e-07 1 1 0
1  2 0 0 10
2  3 1 4 0 10
2  4 3 9 0 10
4 C0 1 4 3 9
0

0101000
+161 0 -159 0 *
Ve
1e-07
5 6 0
0 0

0101101
*
Ed
 1e-07 1 1 0
1  3 0 0 9
2  5 1 4 0 9
2  6 4 11 0 9
4 C0 1 4 4 11
0

0101000
+159 0 -157 0 *
Ed
 1e-07 1 1 0
1  4 0 0 10
2  7 1 4 0 10
2  8 5 0 0 10
4 CN 1 4 5 0
0

0101000
+157 0 -162 0 *
Wi

0101100
+160 5 +158 5 +156 5 +155 5 *
Ve
1e-07
-2 1 0
0 0

0101101
*
Ve
1.00000000333067e-07
2 1 0
0 0

0101101
*
Ed
 1e-07 1 1 0
1  5 0 0 3.14159265358979
2  9 1 4 0 3.14159265358979
2  10 6 13 0 3.14159265358979
4 C0 1 4 6 13
0

0101000
+153 0 -152 0 *
Ve
1e-07
2 -2 0
0 0

0101101
*
Ed
 1e-07 1 1 0
1  6 0 0 3
2  11 1 4 0 3
2  12 7 15 0 3
4 C0 1 4 7 15
0

0101000
+150 0 -152 0 *
Ve
1e-07
-2 -2 0
0 0

0101101
*
Ed
 1e-07 1 1 0
1  7 0 0 4
2  13 1 4 0 4
2  14 8 17 0 4
4 C0 1 4 8 17
0

0101000
+148 0 -150 0 *
Ed
 1e-07 1 1 0
1  8 0 0 3
2  15 1 4 0 3
2  16 9 19 0 3
4 C0 1 4 9 19
0

0101000
+153 0 -148 0 *
Wi

0101100
+151 5 -149 5 -147 5 -146 5 *
Ve
1e-07
-3 1 0
0 0

0101101
*
Ve
1e-07
-3 -2 0
0 0

0101101
*
Ed
 1e-07 1 1 0
1  9 0 0 3
2  17 1 4 0 3
2  18 10 21 0 3
4 C0 1 4 10 21
0

0101000
+144 0 -143 0 *
Ve
1e-07
-4 -2 0
0 0

0101101
*
Ed
 1e-07 1 1 0
1  10 0 0 1
2  19 1 4 0 1
2  20 11 23 0 1
4 C0 1 4 11 23
0

0101000
+143 0 -141 0 *
Ve
1e-07
-4 5 0
0 0

0101101
*
Ed
 1e-07 1 1 0
1  11 0 0 7
2  21 1 4 0 7
2  22 12 25 0 7
4 C0 1 4 12 25
0

0101000
+141 0 -139 0 *
Ve
1e-07
4 5 0
0 0

0101101
*
Ed
 1e-07 1 1 0
1  12 0 0 8
2  23 1 4 0 8
2  24 13 27 0 8
4 C0 1 4 13 27
0

0101000
+139 0 -137 0 *
Ve
1e-07
4 -2 0
0 0

0101101
*
Ed
 1e-07 1 1 0
1  13 0 0 7
2  25 1 4 0 7
2  26 14 29 0 7
4 C0 1 4 14 29
0

0101000
+137 0 -135 0 *
Ve
1e-07
3 -2 0
0 0

0101101
*
Ed
 1e-07 1 1 0
1  14 0 0 1
2  27 1 4 0 1
2  28 15 31 0 1
4 C0 1 4 15 31
0

0101000
+135 0 -133 0 *
Ve
1.00000000111022e-07
3 1 0
0 0

0101101
*
Ed
 1e-07 1 1 0
1  15 0 0 3
2  29 1 4 0 3
2  30 16 33 0 3
4 C0 1 4 16 33
0

0101000
+133 0 -131 0 *
Ed
 1e-07 1 1 0
1  16 0 0 3.14159265358979
2  31 1 4 0 3.14159265358979
2  32 17 35 0 3.14159265358979
4 C0 1 4 17 35
0

0101000
+144 0 -131 0 *
Wi

0101100
+142 5 +140 5 +138 5 +136 5 +134 5 +132 5 +130 5 -129 5 *
Fa
0  1e-07 1 0

0101000
+154 0 +145 0 +128 0 *
Ve
1e-07
-5 6 1
0 0

0101101
*
Ed
 1e-07 1 1 0
1  17 0 0 1
2  33 2 7 0 1
2  34 18 0 0 1
4 G2 2 7 18 0
0

0101000
+162 0 -126 0 *
Ve
1e-07
-5 -3 1
0 0

0101101
*
Ed
 1e-07 1 1 0
1  18 0 0 1
2  35 2 7 0 1
2  36 3 9 0 1
4 C0 2 7 3 9
0

0101000
+161 0 -124 0 *
Ed
 1e-07 1 1 0
1  19 0 0 9
2  37 2 7 0 9
2  38 1 39 0 9
4 C0 2 7 1 39
0

0101000
+126 0 -124 0 *
Wi

0101100
+125 36 -123 36 -160 36 +122 36 *
Fa
0  1e-07 2 0

0101000
+121 0 *
Ve
1e-07
5 -3 1
0 0

0101101
*
Ed
 1e-07 1 1 0
1  20 0 0 1
2  39 3 9 0 1
2  40 4 11 0 1
4 C0 3 9 4 11
0

0101000
+159 0 -119 0 *
Ed
 1e-07 1 1 0
1  21 0 0 10
2  41 3 9 0 10
2  42 1 39 0 10
4 C0 3 9 1 39
0

0101000
+124 0 -119 0 *
Wi

0101100
+123 40 -118 40 -158 40 +117 40 *
Fa
0  1e-07 3 0

0101000
+116 0 *
Ve
1e-07
5 6 1
0 0

0101101
*
Ed
 1e-07 1 1 0
1  22 0 0 1
2  43 4 11 0 1
2  44 19 0 0 1
4 CN 4 11 19 0
0

0101000
+157 0 -114 0 *
Ed
 1e-07 1 1 0
1  23 0 0 9
2  45 4 11 0 9
2  46 1 39 0 9
4 C0 4 11 1 39
0

0101000
+119 0 -114 0 *
Wi

0101100
+118 41 -113 41 -156 41 +112 41 *
Fa
0  1e-07 4 0

0101000
+111 0 *
Ed
 1e-07 1 1 0
1  24 0 0 10
2  7 1 39 0 10
2  47 20 0 0 10
4 CN 1 39 20 0
0

0101000
+114 0 -126 0 *
Wi

0101100
+122 42 +117 42 +112 42 +109 42 *
Ve
1e-07
-2 1 1
0 0

0101101
*
Ve
1.00000000333067e-07
2 1 1
0 0

0101101
*
Ed
 1e-07 1 1 0
1  25 0 0 3.14159265358979
2  9 1 39 0 3.14159265358979
2  48 6 13 0 3.14159265358979
4 C0 1 39 6 13
0

0101000
+107 0 -106 0 *
Ve
1e-07
2 -2 1
0 0

0101101
*
Ed
 1e-07 1 1 0
1  26 0 0 3
2  11 1 39 0 3
2  49 7 15 0 3
4 C0 1 39 7 15
0

0101000
+104 0 -106 0 *
Ve
1e-07
-2 -2 1
0 0

0101101
*
Ed
 1e-07 1 1 0
1  27 0 0 4
2  13 1 39 0 4
2  50 8 17 0 4
4 C0 1 39 8 17
0

0101000
+102 0 -104 0 *
Ed
 1e-07 1 1 0
1  28 0 0 3
2  15 1 39 0 3
2  51 9 19 0 3
4 C0 1 39 9 19
0

0101000
+107 0 -102 0 *
Wi

0101100
+105 42 -103 42 -101 42 -100 42 *
Ve
1e-07
-3 1 1
0 0

0101101
*
Ve
1e-07
-3 -2 1
0 0

0101101
*
Ed
 1e-07 1 1 0
1  29 0 0 3
2  17 1 39 0 3
2  52 10 21 0 3
4 C0 1 39 10 21
0

0101000
+98 0 -97 0 *
Ve
1e-07
-4 -2 1
0 0

0101101
*
Ed
 1e-07 1 1 0
1  30 0 0 1
2  19 1 39 0 1
2  53 11 23 0 1
4 C0 1 39 11 23
0

0101000
+97 0 -95 0 *
Ve
1e-07
-4 5 1
0 0

0101101
*
Ed
 1e-07 1 1 0
1  31 0 0 7
2  21 1 39 0 7
2  54 12 25 0 7
4 C0 1 39 12 25
0

0101000
+95 0 -93 0 *
Ve
1e-07
4 5 1
0 0

0101101
*
Ed
 1e-07 1 1 0
1  32 0 0 8
2  23 1 39 0 8
2  55 13 27 0 8
4 C0 1 39 13 27
0

0101000
+93 0 -91 0 *
Ve
1e-07
4 -2 1
0 0

0101101
*
Ed
 1e-07 1 1 0
1  33 0 0 7
2  25 1 39 0 7
2  56 14 29 0 7
4 C0 1 39 14 29
0

0101000
+91 0 -89 0 *
Ve
1e-07
3 -2 1
0 0

0101101
*
Ed
 1e-07 1 1 0
1  34 0 0 1
2  27 1 39 0 1
2  57 15 31 0 1
4 C0 1 39 15 31
0

0101000
+89 0 -87 0 *
Ve
1.00000000111022e-07
3 1 1
0 0

0101101
*
Ed
 1e-07 1 1 0
1  35 0 0 3
2  29 1 39 0 3
2  58 16 33 0 3
4 C0 1 39 16 33
0

0101000
+87 0 -85 0 *
Ed
 1e-07 1 1 0
1  36 0 0 3.14159265358979
2  31 1 39 0 3.14159265358979
2  59 17 35 0 3.14159265358979
4 C0 1 39 17 35
0

0101000
+98 0 -85 0 *
Wi

0101100
+96 42 +94 42 +92 42 +90 42 +88 42 +86 42 +84 42 -83 42 *
Fa
0  1e-07 1 0

0101000
+108 0 +99 0 +82 0 *
Ed
 1e-07 1 1 0
1  37 0 0 1
2  60 6 13 0 1
2  61 9 19 0 1
4 G1 6 13 9 19
0

0101000
+153 0 -107 0 *
Ed
 1e-07 1 1 0
1  38 0 0 1
2  62 6 13 0 1
2  63 7 15 0 1
4 G1 6 13 7 15
0

0101000
+152 0 -106 0 *
Wi

0101100
+80 43 -79 43 -151 43 +105 43 *
Fa
0  1e-07 6 0

0101000
+78 0 *
Ed
 1e-07 1 1 0
1  39 0 0 1
2  64 7 15 0 1
2  65 8 17 0 1
4 C0 7 15 8 17
0

0101000
+150 0 -104 0 *
Wi

0101100
+76 44 -79 44 -149 44 +103 44 *
Fa
0  1e-07 7 0

0101000
+75 0 *
Ed
 1e-07 1 1 0
1  40 0 0 1
2  66 8 17 0 1
2  67 9 19 0 1
4 C0 8 17 9 19
0

0101000
+148 0 -102 0 *
Wi

0101100
+73 45 -76 45 -147 45 +101 45 *
Fa
0  1e-07 8 0

0101000
+72 0 *
Wi

0101100
+80 46 -73 46 -146 46 +100 46 *
Fa
0  1e-07 9 0

0101000
+70 0 *
Ed
 1e-07 1 1 0
1  41 0 0 1
2  68 10 21 0 1
2  69 17 35 0 1
4 G1 10 21 17 35
0

0101000
+144 0 -98 0 *
Ed
 1e-07 1 1 0
1  42 0 0 1
2  70 10 21 0 1
2  71 11 23 0 1
4 C0 10 21 11 23
0

0101000
+143 0 -97 0 *
Wi

0101100
+68 47 -67 47 -142 47 +96 47 *
Fa
0  1e-07 10 0

0101000
+66 0 *
Ed
 1e-07 1 1 0
1  43 0 0 1
2  72 11 23 0 1
2  73 12 25 0 1
4 C0 11 23 12 25
0

0101000
+141 0 -95 0 *
Wi

0101100
+67 48 -64 48 -140 48 +94 48 *
Fa
0  1e-07 11 0

0101000
+63 0 *
Ed
 1e-07 1 1 0
1  44 0 0 1
2  74 12 25 0 1
2  75 13 27 0 1
4 C0 12 25 13 27
0

0101000
+139 0 -93 0 *
Wi

0101100
+64 49 -61 49 -138 49 +92 49 *
Fa
0  1e-07 12 0

0101000
+60 0 *
Ed
 1e-07 1 1 0
1  45 0 0 1
2  76 13 27 0 1
2  77 14 29 0 1
4 C0 13 27 14 29
0

0101000
+137 0 -91 0 *
Wi

0101100
+61 50 -58 50 -136 50 +90 50 *
Fa
0  1e-07 13 0

0101000
+57 0 *
Ed
 1e-07 1 1 0
1  46 0 0 1
2  78 14 29 0 1
2  79 15 31 0 1
4 C0 14 29 15 31
0

0101000
+135 0 -89 0 *
Wi

0101100
+58 51 -55 51 -134 51 +88 51 *
Fa
0  1e-07 14 0

0101000
+54 0 *
Ed
 1e-07 1 1 0
1  47 0 0 1
2  80 15 31 0 1
2  81 16 33 0 1
4 C0 15 31 16 33
0

0101000
+133 0 -87 0 *
Wi

0101100
+55 52 -52 52 -132 52 +86 52 *
Fa
0  1e-07 15 0

0101000
+51 0 *
Ed
 1e-07 1 1 0
1  48 0 0 1
2  82 16 33 0 1
2  83 17 35 0 1
4 G1 16 33 17 35
0

0101000
+131 0 -85 0 *
Wi

0101100
+52 53 -49 53 -130 53 +84 53 *
Fa
0  1e-07 16 0

0101000
+48 0 *
Wi

0101100
+68 54 -49 54 -129 54 +83 54 *
Fa
0  1e-07 17 0

0101000
+46 0 *
Ve
1e-07
5 7.17769276674477 0
0 0

0101101
*
Ed
 1e-07 1 1 0
1  49 0 0 1.17769276674477
2  84 5 0 0 1.17769276674477
2  85 19 0 0 1.17769276674477
4 C0 5 0 19 0
0

0101000
+157 0 -44 0 *
Ve
1e-07
-5 7.17769276674477 0
0 0

0101101
*
Ed
 1e-07 1 1 0
1  50 0 0 10
2  86 5 0 0 10
2  87 21 57 0 10
4 G2 5 0 21 57
0

0101000
+44 0 -42 0 *
Ed
 1e-07 1 1 0
1  51 0 0 1.17769276674477
2  88 5 0 0 1.17769276674477
2  89 18 0 0 1.17769276674477
4 C0 5 0 18 0
0

0101000
+42 0 -162 0 *
Wi

0101100
+43 0 +41 0 +40 0 -155 0 *
Fa
0  1e-07 5 0

0101000
+39 0 *
Ve
1e-07
5 7.17769276674477 1
0 0

0101101
*
Ed
 1e-07 1 1 0
1  52 0 0 1.17769276674477
2  90 20 0 0 1.17769276674477
2  91 19 0 0 1.17769276674477
4 C0 20 0 19 0
0

0101000
+114 0 -37 0 *
Ve
1e-07
-5 7.17769276674477 1
0 0

0101101
*
Ed
 1e-07 1 1 0
1  53 0 0 10
2  92 20 0 0 10
2  93 22 59 0 10
4 G2 20 0 22 59
0

0101000
+37 0 -35 0 *
Ed
 1e-07 1 1 0
1  54 0 0 1.17769276674477
2  94 20 0 0 1.17769276674477
2  95 18 0 0 1.17769276674477
4 C0 20 0 18 0
0

0101000
+35 0 -126 0 *
Wi

0101100
+36 0 +34 0 +33 0 -109 0 *
Fa
0  1e-07 20 0

0101000
+32 0 *
Ed
 1e-07 1 1 0
1  55 0 0 1
2  96 19 0 0 1
2  97 23 61 0 1
4 CN 19 0 23 61
0

0101000
+44 0 -37 0 *
Wi

0101100
+43 0 +30 0 -36 0 -113 0 *
Fa
0  1e-07 19 0

0101000
+29 0 *
Ed
 1e-07 1 1 0
1  56 0 0 1
2  98 18 0 0 1
2  99 24 63 0 1
4 CN 18 0 24 63
0

0101000
+42 0 -35 0 *
Wi

0101100
-40 0 +27 0 +33 0 -125 0 *
Fa
0  1e-07 18 0

0101000
+26 0 *
Ve
1e-07
5 10.0554913839992 0
0 0

0101101
*
Ed
 1e-07 1 1 0
1  57 0 0 2.8777986172544
2  100 21 57 0 2.8777986172544
2  101 23 61 0 2.8777986172544
4 C0 21 57 23 61
0

0101000
+44 0 -24 0 *
Ve
1e-07
-5 10.0554913839992 0
0 0

0101101
*
Ed
 1e-07 1 1 0
1  58 0 0 2.8777986172544
2  102 21 57 0 2.8777986172544
2  103 24 63 0 2.8777986172544
4 C0 21 57 24 63
0

0101000
+42 0 -22 0 *
Ed
 1e-07 1 1 0
1  59 0 0 10
2  104 21 57 0 10
2  105 25 68 0 10
4 C0 21 57 25 68
0

0101000
+24 0 -22 0 *
Wi

0101100
+23 65 -21 65 -41 65 +20 65 *
Fa
0  1e-07 21 55

0101000
+19 0 *
Ve
1e-07
5 10.0554913839992 1
0 0

0101101
*
Ed
 1e-07 1 1 0
1  60 0 0 2.8777986172544
2  106 23 61 0 2.8777986172544
2  107 22 59 0 2.8777986172544
4 C0 23 61 22 59
0

0101000
+37 0 -17 0 *
Ed
 1e-07 1 1 0
1  61 0 0 1
2  108 23 61 0 1
2  109 25 68 0 1
4 C0 23 61 25 68
0

0101000
+24 0 -17 0 *
Wi

0101100
+23 70 -16 70 -30 70 +15 70 *
Fa
0  1e-07 23 55

0101000
+14 0 *
Ve
1e-07
-5 10.0554913839992 1
0 0

0101101
*
Ed
 1e-07 1 1 0
1  62 0 0 2.8777986172544
2  110 24 63 0 2.8777986172544
2  111 22 59 0 2.8777986172544
4 C0 24 63 22 59
0

0101000
+35 0 -12 0 *
Ed
 1e-07 1 1 0
1  63 0 0 1
2  112 24 63 0 1
2  113 25 68 0 1
4 C0 24 63 25 68
0

0101000
+22 0 -12 0 *
Wi

0101100
+21 72 -11 72 -27 72 +10 72 *
Fa
0  1e-07 24 55

0101000
+9 0 *
Ed
 1e-07 1 1 0
1  64 0 0 10
2  114 22 59 0 10
2  115 25 68 0 10
4 C0 22 59 25 68
0

0101000
+17 0 -12 0 *
Wi

0101100
+16 74 -11 74 -34 74 +7 74 *
Fa
0  1e-07 22 55

0101000
+6 0 *
Wi

0101100
+15 75 -10 75 -20 75 +7 75 *
Fa
0  1e-07 25 0

0101000
+4 0 *
Sh

0101100
-127 4 -120 7 -115 9 -110 11 +81 39 -77 13 +74 15 +71 17 +69 19 -65 21 
-62 23 -59 25 -56 27 -53 29 -50 31 -47 33 +45 35 -38 0 +31 0 +28 0 
-25 0 -18 64 +13 69 -8 71 +5 73 -3 68 *
So

1100000
+2 0 *

+1 1  