
CASCADE Topology V1, (c) Matra-Datavision
Locations 195
1
              1               0               0               0 
              0               1               0               0 
              0               0               1               0 
1
              1               0               0               0 
              0               1               0               0 
              0               0               1               0 
1
              1               0               0               0 
              0               1               0               0 
              0               0               1               0 
2  2 1 3 1 0
2  3 -1 2 -1 0
1
              1               0               0               0 
              0               1               0               0 
              0               0               1               0 
2  2 1 6 1 0
1
              1               0               0               0 
              0               1               0               0 
              0               0               1               0 
2  2 1 8 1 0
1
              1               0               0               0 
              0               1               0               0 
              0               0               1               1 
1
              1               0               0               0 
              0               1               0               0 
              0               0               1               0 
2  10 1 2 1 11 1 0
2  8 -1 2 -1 0
1
              1               0               0               0 
              0               1               0               0 
              0               0               1               0 
2  2 1 14 1 0
1
              1               0               0               0 
              0               1               0               0 
              0               0               1               0 
2  2 1 16 1 0
1
              1               0               0               0 
              0               1               0               0 
              0               0               1               0 
2  2 1 18 1 0
2  18 -1 2 -1 0
1
              1               0               0               0 
              0               1               0               0 
              0               0               1               0 
2  2 1 21 1 0
1
              1               0               0               0 
              0               1               0               0 
              0               0               1               0 
2  2 1 23 1 0
2  10 -1 0
1
              1               0               0               0 
              0               1               0               0 
              0               0               1               0 
2  10 1 2 1 26 1 0
2  23 -1 2 -1 0
1
              1               0               0               0 
              0               1               0               0 
              0               0               1               0 
2  2 1 29 1 0
2  29 -1 2 -1 0
2  21 -1 2 -1 0
2  16 -1 2 -1 0
1
              1               0               0               0 
              0               1               0               0 
              0               0               1               0 
2  2 1 34 1 0
1
              1               0               0               0 
              0               1               0               0 
              0               0               1               0 
2  2 1 36 1 0
1
              1               0               0               0 
              0               1               0               0 
              0               0               1               0 
2  2 1 38 1 0
1
              1               0               0               0 
              0               1               0               0 
              0               0               1               0 
2  2 1 40 1 0
1
              1               0               0               0 
              0               1               0               0 
              0               0               1               0 
2  2 1 42 1 0
1
              1               0               0               0 
              0               1               0               0 
              0               0               1               0 
2  2 1 44 1 0
1
              1               0               0               0 
              0               1               0               0 
              0               0               1               0 
2  2 1 46 1 0
1
              1               0               0               0 
              0               1               0               0 
              0               0               1               0 
2  2 1 48 1 0
1
              1               0               0               0 
              0               1               0               0 
              0               0               1               0 
2  2 1 50 1 0
2  34 -1 2 -1 0
1
              1               0               0               0 
              0 1.11022302462516e-16               1             6.5 
              0              -1 1.11022302462516e-16             5.5 
2  53 -1 0
2  53 -1 10 -1 0
1
              1               0               0              -0 
              0               1               0              10 
              0               0               1              -0 
2  56 -1 0
2  56 -1 10 -1 0
1
              1               0               0               0 
              0 1.11022302462516e-16               1             6.5 
              0              -1 1.11022302462516e-16             5.5 
2  59 -1 0
2  59 -1 10 -1 0
1
              1               0               0              -0 
              0               1               0 9.97145410267437 
              0               0               1              -0 
2  62 -1 0
2  62 -1 10 -1 0
1
              1               0               0               0 
              0 1.11022302462516e-16               1             6.5 
              0              -1 1.11022302462516e-16             5.5 
2  65 -1 0
2  65 -1 10 -1 0
1
              1               0               0              -0 
              0               1               0 9.70026807808085 
              0               0               1              -0 
2  68 -1 0
2  68 -1 10 -1 0
1
              1               0               0               0 
              0 1.11022302462516e-16               1             6.5 
              0              -1 1.11022302462516e-16             5.5 
2  71 -1 0
2  71 -1 10 -1 0
1
              1               0               0              -0 
              0               1               0 9.08653128557972 
              0               0               1              -0 
2  74 -1 0
2  74 -1 10 -1 0
1
              1               0               0               0 
              0 1.11022302462516e-16               1             6.5 
              0              -1 1.11022302462516e-16             5.5 
2  77 -1 0
2  77 -1 10 -1 0
1
              1               0               0              -0 
              0               1               0 6.8599512941803 
              0               0               1              -0 
2  80 -1 0
2  80 -1 10 -1 0
1
              1               0               0               0 
              0 1.11022302462516e-16               1             6.5 
              0              -1 1.11022302462516e-16             5.5 
2  83 -1 0
2  83 -1 10 -1 0
1
              1               0               0              -0 
              0               1               0 5.16147040330509 
              0               0               1              -0 
2  86 -1 0
2  86 -1 10 -1 0
1
              1               0               0               0 
              0 1.11022302462516e-16               1             6.5 
              0              -1 1.11022302462516e-16             5.5 
2  89 -1 0
2  89 -1 10 -1 0
1
              1               0               0              -0 
              0               1               0 4.27654758621045 
              0               0               1              -0 
2  92 -1 0
2  92 -1 10 -1 0
1
              1               0               0               0 
              0 1.11022302462516e-16               1             6.5 
              0              -1 1.11022302462516e-16             5.5 
2  95 -1 0
2  95 -1 10 -1 0
1
              1               0               0              -0 
              0               1               0 3.37735182045299 
              0               0               1              -0 
2  98 -1 0
2  98 -1 10 -1 0
1
              1               0               0               0 
              0 1.11022302462516e-16               1             6.5 
              0              -1 1.11022302462516e-16             5.5 
2  101 -1 0
2  101 -1 10 -1 0
1
              1               0               0              -0 
              0               1               0 2.72079618196341 
              0               0               1              -0 
2  104 -1 0
2  104 -1 10 -1 0
1
              1               0               0               0 
              0 1.11022302462516e-16               1             6.5 
              0              -1 1.11022302462516e-16             5.5 
2  107 -1 0
2  107 -1 10 -1 0
1
              1               0               0              -0 
              0               1               0 2.33542656806736 
              0               0               1              -0 
2  110 -1 0
2  110 -1 10 -1 0
1
              1               0               0               0 
              0 1.11022302462516e-16               1             6.5 
              0              -1 1.11022302462516e-16             5.5 
2  113 -1 0
2  113 -1 10 -1 0
1
              1               0               0              -0 
              0               1               0 2.00714874882257 
              0               0               1              -0 
2  116 -1 0
2  116 -1 10 -1 0
1
              1               0               0               0 
              0 1.11022302462516e-16               1             6.5 
              0              -1 1.11022302462516e-16             5.5 
2  119 -1 0
2  119 -1 10 -1 0
1
              1               0               0              -0 
              0               1               0 1.89296515952004 
              0               0               1              -0 
2  122 -1 0
2  122 -1 10 -1 0
1
              1               0               0               0 
              0 1.11022302462516e-16               1             6.5 
              0              -1 1.11022302462516e-16             5.5 
2  125 -1 0
2  125 -1 10 -1 0
1
              1               0               0              -0 
              0               1               0 1.9500569541713 
              0               0               1              -0 
2  128 -1 0
2  128 -1 10 -1 0
1
              1               0               0               0 
              0 1.11022302462516e-16               1             6.5 
              0              -1 1.11022302462516e-16             5.5 
2  131 -1 0
2  131 -1 10 -1 0
1
              1               0               0              -0 
              0               1               0 2.19269708143919 
              0               0               1              -0 
2  134 -1 0
2  134 -1 10 -1 0
1
              1               0               0               0 
              0 1.11022302462516e-16               1             6.5 
              0              -1 1.11022302462516e-16             5.5 
2  137 -1 0
2  137 -1 10 -1 0
1
              1               0               0              -0 
              0               1               0 2.54952079800961 
              0               0               1              -0 
2  140 -1 0
2  140 -1 10 -1 0
1
              1               0               0               0 
              0 1.11022302462516e-16               1             6.5 
              0              -1 1.11022302462516e-16             5.5 
2  143 -1 0
2  143 -1 10 -1 0
1
              1               0               0              -0 
              0               1               0 2.83497977126595 
              0               0               1              -0 
2  146 -1 0
2  146 -1 10 -1 0
1
              1               0               0               0 
              0 1.11022302462516e-16               1             6.5 
              0              -1 1.11022302462516e-16             5.5 
2  149 -1 0
2  149 -1 10 -1 0
1
              1               0               0              -0 
              0               1               0 2.8777986172544 
              0               0               1              -0 
2  152 -1 0
2  152 -1 10 -1 0
1
              1               0               0               0 
              0 1.11022302462516e-16               1             6.5 
              0              -1 1.11022302462516e-16             5.5 
2  155 -1 0
2  155 -1 10 -1 0
1
              1               0               0              -0 
              0               1               0 2.8777986172544 
              0               0               1              -0 
2  158 -1 0
2  158 -1 10 -1 0
2  42 -1 2 -1 0
2  42 -1 0
2  36 -1 2 -1 0
2  38 -1 2 -1 0
2  40 -1 0
2  40 -1 2 -1 0
2  14 -1 2 -1 0
2  44 -1 2 -1 0
2  46 -1 2 -1 0
2  48 -1 2 -1 0
2  50 -1 2 -1 0
2  6 -1 2 -1 0
2  10 1 2 1 0
2  11 -1 0
2  26 -1 0
1
              1               0               0               0 
              0 1.11022302462516e-16               1             6.5 
              0              -1 1.11022302462516e-16             5.5 
1
              1               0               0               0 
              0 1.11022302462516e-16              -1 6.67769276674477 
              0               1 1.11022302462516e-16            -6.5 
2  176 1 2 1 177 1 0
1
              1               0               0               0 
              0 1.11022302462516e-16              -1 6.67769276674477 
              0               1 1.11022302462516e-16            -6.5 
2  176 1 2 1 179 1 0
1
              1               0               0               0 
              0 1.11022302462516e-16              -1 6.67769276674477 
              0               1 1.11022302462516e-16            -6.5 
2  176 1 2 1 181 1 0
1
              1               0               0               0 
              0 1.11022302462516e-16              -1 6.67769276674477 
              0               1 1.11022302462516e-16            -6.5 
2  176 1 2 1 183 1 0
2  2 1 177 1 0
2  177 -1 2 -1 0
1
              1               0               0               0 
              0 1.11022302462516e-16              -1 6.67769276674477 
              0               1 1.11022302462516e-16            -6.5 
2  158 1 176 1 2 1 187 1 0
2  2 1 181 1 0
2  181 -1 2 -1 0
2  2 1 183 1 0
2  183 -1 2 -1 0
2  2 1 179 1 0
2  179 -1 2 -1 0
2  187 -1 2 -1 176 -1 158 -1 0
Curve2ds 299
1 0 0 0 -1 
1 0 0 0 -1 
1 3 0 0 -1 
1 0 -0 0 -1 
1 -3 1 0 -1 
1 -3 1 0 -1 
1 0 -1 1 0 
1 -3 1 0 -1 
1 1 0 0 -1 
1 0 0 0 -1 
1 -3 -2 -1 0 
1 0 -0 1 0 
1 0 -1 1 0 
1 -3 -2 -1 0 
1 0 0 0 -1 
1 0 0 0 -1 
1 3.1415926535897931 0 0 -1 
1 3.0000000000000004 0 0 -1 
2 0 1.0000000000000002 -1 -1.1102230246251565e-16 -1.1102230246251565e-16 1 2
1 0 0 1 0 
1 0 -1 1 0 
2 0 1.0000000000000002 -1 -1.1102230246251565e-16 -1.1102230246251565e-16 1 2
2 0 1.0000000000000002 -1 -1.1102230246251565e-16 -1.1102230246251565e-16 1 2
1 0 0 0 -1 
1 4 0 0 -1 
1 2 -2 0 1 
1 2 -2 0 1 
1 0 -1 1 0 
1 2 -2 0 1 
1 0 0 0 -1 
1 3 0 0 -1 
1 -2 -2 1 0 
1 -2 -2 1 0 
1 0 -1 1 0 
1 -2 -2 1 0 
1 -2 1 0 -1 
1 0 0 1 0 
1 0 -1 1 0 
1 -2 1 0 -1 
1 -5 6 0 -1 
1 0 0 1 0 
1 -5 -3 1 0 
1 0 0 1 0 
1 5 -3 0 1 
1 0 0 1 0 
1 5 6 -1 0 
8 0 10
1 5 -0.58884638337238648 -1 -0 
2 0 1.0000000000000002 -1 -1.1102230246251565e-16 -1.1102230246251565e-16 1 2
1 2 -2 0 1 
1 -2 -2 1 0 
1 -3 1 0 -1 
1 -4 -2 0 1 
1 0 0 1 0 
1 -4 5 1 0 
1 0 0 1 0 
1 4 5 0 -1 
1 0 0 1 0 
1 4 -2 -1 0 
1 0 -0 1 0 
1 3 -2 0 1 
1 0 0 1 0 
2 0 0.99999999999999989 -1 3.7007434154171883e-17 3.7007434154171883e-17 1 3
1 0 0 1 0 
1 0 0 0 -1 
8 0 1
1 -0.5 0.58884638337238648 1 -0 
1 9 0 0 -1 
1 0 0 0 -1 
1 0 -1 1 0 
1 -5 6 0 -1 
1 -5 6 0 -1 
1 0 0 1 0 
1 5 6 -1 0 
1 0 0 0 1 
1 1.5707963267948966 0 0 1 
1 0 0 0 1 
1 1.5707963267948966 0 0 1 
1 0 0 1 0 
1 0 -10 1 0 
1 0 0 1 0 
1 0 -10 1 0 
1 0 -0 1 0 
1 0 -1 1 0 
1 0 0 0 1 
1 1.5707963267948966 0 0 1 
1 0 0 0 1 
1 1.5707963267948966 0 0 1 
1 0 0 1 0 
1 0 -9.9714541026743682 1 0 
1 0 0 1 0 
1 0 -9.9714541026743682 1 0 
1 0 0 0 1 
1 1.5707963267948966 0 0 1 
1 0 0 0 1 
1 1.5707963267948966 0 0 1 
1 0 0 1 0 
1 0 -9.7002680780808461 1 0 
1 0 0 1 0 
1 0 -9.7002680780808461 1 0 
1 0 0 0 1 
1 1.5707963267948966 0 0 1 
1 0 0 0 1 
1 1.5707963267948966 0 0 1 
1 0 0 1 0 
1 0 -9.0865312855797242 1 0 
1 0 0 1 0 
1 0 -9.0865312855797242 1 0 
1 0 0 0 1 
1 1.5707963267948966 0 0 1 
1 0 0 0 1 
1 1.5707963267948966 0 0 1 
1 0 0 1 0 
1 0 -6.8599512941802985 1 0 
1 0 0 1 0 
1 0 -6.8599512941802985 1 0 
1 0 0 0 1 
1 1.5707963267948966 0 0 1 
1 0 0 0 1 
1 1.5707963267948966 0 0 1 
1 0 0 1 0 
1 0 -5.1614704033050938 1 0 
1 0 0 1 0 
1 0 -5.1614704033050938 1 0 
1 0 0 0 1 
1 1.5707963267948966 0 0 1 
1 0 0 0 1 
1 1.5707963267948966 0 0 1 
1 0 0 1 0 
1 0 -4.2765475862104516 1 0 
1 0 0 1 0 
1 0 -4.2765475862104516 1 0 
1 0 0 0 1 
1 1.5707963267948966 0 0 1 
1 0 0 0 1 
1 1.5707963267948966 0 0 1 
1 0 0 1 0 
1 0 -3.37735182045299 1 0 
1 0 0 1 0 
1 0 -3.37735182045299 1 0 
1 0 0 0 1 
1 1.5707963267948966 0 0 1 
1 0 0 0 1 
1 1.5707963267948966 0 0 1 
1 0 0 1 0 
1 0 -2.7207961819634132 1 0 
1 0 0 1 0 
1 0 -2.7207961819634132 1 0 
1 0 0 0 1 
1 1.5707963267948966 0 0 1 
1 0 0 0 1 
1 1.5707963267948966 0 0 1 
1 0 0 1 0 
1 0 -2.3354265680673603 1 0 
1 0 0 1 0 
1 0 -2.3354265680673603 1 0 
1 0 0 0 1 
1 1.5707963267948966 0 0 1 
1 0 0 0 1 
1 1.5707963267948966 0 0 1 
1 0 0 1 0 
1 0 -2.0071487488225728 1 0 
1 0 0 1 0 
1 0 -2.0071487488225728 1 0 
1 0 0 0 1 
1 1.5707963267948966 0 0 1 
1 0 0 0 1 
1 1.5707963267948966 0 0 1 
1 0 0 1 0 
1 0 -1.8929651595200419 1 0 
1 0 0 1 0 
1 0 -1.8929651595200419 1 0 
1 0 0 0 1 
1 1.5707963267948966 0 0 1 
1 0 0 0 1 
1 1.5707963267948966 0 0 1 
1 0 0 1 0 
1 0 -1.9500569541713038 1 0 
1 0 0 1 0 
1 0 -1.9500569541713038 1 0 
1 0 0 0 1 
1 1.5707963267948966 0 0 1 
1 0 0 0 1 
1 1.5707963267948966 0 0 1 
1 0 0 1 0 
1 0 -2.1926970814391922 1 0 
1 0 0 1 0 
1 0 -2.1926970814391922 1 0 
1 0 0 0 1 
1 1.5707963267948966 0 0 1 
1 0 0 0 1 
1 1.5707963267948966 0 0 1 
1 0 0 1 0 
1 0 -2.5495207980096133 1 0 
1 0 0 1 0 
1 0 -2.5495207980096133 1 0 
1 0 0 0 1 
1 1.5707963267948966 0 0 1 
1 0 0 0 1 
1 1.5707963267948966 0 0 1 
1 0 0 1 0 
1 0 -2.834979771265953 1 0 
1 0 0 1 0 
1 0 -2.834979771265953 1 0 
1 0 0 0 1 
1 1.5707963267948966 0 0 1 
1 0 0 0 1 
1 1.5707963267948966 0 0 1 
1 0 0 1 0 
1 0 -2.8777986172543972 1 0 
1 0 0 1 0 
1 0 -2.8777986172543972 1 0 
1 0 0 0 1 
1 1.5707963267948966 0 0 1 
1 0 0 0 1 
1 1.5707963267948966 0 0 1 
1 0 0 1 0 
1 0 -2.8777986172544008 1 0 
1 0 0 1 0 
1 0 -2.8777986172544008 1 0 
1 -5 -3 1 0 
1 5 -3 0 1 
1 0 0 1 0 
1 0 -1 1 0 
1 -2 1 0 -1 
1 2 1.0000000000000004 1 -4.4408920985006262e-16 
1 2 1.0000000000000004 1 -4.4408920985006262e-16 
1 3 -2 0 1 
1 4 -2 -1 0 
1 4 5 0 -1 
1 -4 5 1 0 
1 -4 -2 0 1 
1 -3 -2 -1 0 
1 -2 1 -1 0 
1 -2 1 -1 0 
1 10 0 0 -1 
1 0 0 0 -1 
1 0 -1 1 0 
1 -5 -3 1 0 
1 9 0 0 -1 
8 0 1
1 -0.5 0.58884638337238648 1 -0 
1 5 -3 0 1 
2 0 0.99999999999999989 -1 3.7007434154171883e-17 3.7007434154171883e-17 1 3
1 0 0 1 0 
1 0 -1 1 0 
1 7 0 0 -1 
1 0 0 0 -1 
1 0 -1 1 0 
1 -4 -2 0 1 
1 8 0 0 -1 
1 0 0 0 -1 
1 0 -1 1 0 
1 -4 5 1 0 
1 7 0 0 -1 
1 0 -0 0 -1 
1 0 -1 1 0 
1 4 5 0 -1 
1 1 0 0 -1 
1 0 0 0 -1 
1 0 -1 1 0 
1 4 -2 -1 0 
1 3 0 0 -1 
1 3.1415926535897931 0 0 -1 
1 0 -1 1 0 
1 3 -2 0 1 
2 0 0.99999999999999989 -1 3.7007434154171883e-17 3.7007434154171883e-17 1 3
8 0 10
1 5 -0.58884638337238648 -1 -0 
1 2 1.0000000000000004 1 -4.4408920985006262e-16 
1 2 1.0000000000000004 1 -4.4408920985006262e-16 
1 -2 1 -1 0 
1 -2 1 -1 0 
1 5 -0.58884638337238648 0 1 
1 -0.5 0.58884638337238648 0 -1 
1 5 0.58884638337238648 -1 0 
1 0 0 1 0 
1 -5 0.58884638337238648 0 -1 
8 0 1.177692766744773
1 -0.5 -0.58884638337238648 -0 1 
1 5 -0.58884638337238648 0 1 
8 0 1.177692766744773
1 0.5 0.58884638337238648 -0 -1 
1 5 0.58884638337238648 -1 0 
1 0 0 1 0 
1 -5 0.58884638337238648 0 -1 
1 0.5 -0.58884638337238648 0 1 
1 -0.5 -0.58884638337238648 1 0 
1 0 0 1 0 
1 -0.5 -0.58884638337238648 1 0 
1 0 0 1 0 
1 0 0 0 -1 
1 0 0 0 -1 
1 10 0 0 -1 
1 0 0 0 -1 
1 0 -0 1 0 
1 1 0 0 -1 
1 0 0 0 -1 
1 0 -2.8777986172544008 1 0 
1 0 -0 0 -1 
1 1 0 0 -1 
1 10 0 0 -1 
1 0 -2.8777986172544008 1 0 
1 10 0 0 -1 
1 0 -1 1 0 
Curves 84
1 -3 1 0 0 0 1 
1 -3 -2 0 0 0 1 
1 -3 1 0 0 -1 -0 
1 -3 1 1 0 -1 0 
1 -4 -2 0 0 0 1 
1 -3 -2 0 -1 0 0 
1 -3 -2 1 -1 0 0 
1 -2 1 0 0 0 1 
1 2 1.0000000000000004 0 0 0 1 
2 0 1.0000000000000002 0 -0 0 -1 -1 -1.1102230246251565e-16 0 -1.1102230246251565e-16 1 0 2
2 0 1.0000000000000002 1 -0 0 -1 -1 -1.1102230246251565e-16 0 -1.1102230246251565e-16 1 0 2
1 2 -2 0 0 0 1 
1 2 -2 0 0 1 0 
1 2 -2 1 0 1 0 
1 -2 -2 0 0 0 1 
1 -2 -2 0 1 0 0 
1 -2 -2 1 1 0 0 
1 -2 1 0 0 -1 0 
1 -2 1 1 0 -1 0 
1 -5 6 0 0 -1 0 
1 -5 -3 0 1 0 0 
1 5 -3 0 0 1 0 
1 5 6 0 -1 0 0 
2 0 1.0000000000000002 0 -0 0 -1 -1 -1.1102230246251565e-16 0 -1.1102230246251565e-16 1 0 2
1 2 -2 0 0 1 0 
1 -2 -2 0 1 0 0 
1 -3 1 0 0 -1 0 
1 -4 -2 0 0 1 0 
1 -4 5 0 1 0 0 
1 4 5 0 0 -1 0 
1 4 -2 0 -1 0 0 
1 3 -2 0 0 1 0 
2 0 0.99999999999999989 0 0 0 -1 -1 3.7007434154171883e-17 0 3.7007434154171883e-17 1 0 3
1 -5 6 0 0 0 1 
1 -5 -3 0 0 0 1 
1 -5 6 1 0 -1 0 
1 -5 6 0 0 -1 -0 
1 5 6 0 -1 0 0 
1 -5 -3 0 1 0 0 
1 5 -3 0 0 1 0 
1 -2 1 0 0 -1 -0 
1 2 1.0000000000000004 0 1 -4.4408920985006262e-16 0 
1 3 -2 0 0 1 0 
1 4 -2 0 -1 0 0 
1 4 5 0 0 -1 -0 
1 -4 5 0 1 0 0 
1 -4 -2 0 0 1 0 
1 -3 -2 0 -1 0 0 
1 -2 1 0 -1 0 0 
1 5 -3 0 0 0 1 
1 -5 -3 1 1 0 0 
1 5 6 0 0 0 1 
1 5 -3 1 0 1 0 
2 0 0.99999999999999989 0 0 0 -1 -1 3.7007434154171883e-17 0 3.7007434154171883e-17 1 0 3
1 -4 5 0 0 0 1 
1 -4 -2 1 0 1 0 
1 4 5 0 0 0 1 
1 -4 5 1 1 0 0 
1 4 -2 0 0 0 1 
1 4 5 1 0 -1 0 
1 3 -2 0 0 0 1 
1 4 -2 1 -1 0 0 
1 3 1 0 0 0 1 
1 3 -2 1 0 1 0 
2 0 0.99999999999999989 1 0 0 -1 -1 3.7007434154171883e-17 0 3.7007434154171883e-17 1 0 3
1 5 6 1 -1 0 0 
1 2 1.0000000000000004 1 1 -4.4408920985006262e-16 0 
1 -2 1 1 -1 0 0 
1 5 6 0 0 1 0 
1 5 7.177692766744773 0 -1 0 0 
1 -5 7.177692766744773 0 0 -1 0 
1 5 6 1 0 1 0 
1 5 7.177692766744773 1 -1 0 0 
1 -5 7.177692766744773 1 0 -1 0 
1 5 7.177692766744773 0 0 0 1 
1 -5 7.177692766744773 0 0 0 1 
1 5 7.177692766744773 0 0 1 0 
1 -5 7.177692766744773 0 0 1 0 
1 5 10.055491383999174 0 -1 0 0 
1 5 7.177692766744773 1 0 1 0 
1 5 10.055491383999174 0 0 0 1 
1 -5 7.177692766744773 1 0 1 0 
1 -5 10.055491383999174 0 0 0 1 
1 5 10.055491383999174 1 -1 0 0 
Polygon3D 0
PolygonOnTriangulations 0
Surfaces 96
1 -3 1 0 1 0 -0 0 -1 0 0 -0 -1 
2 0 0.99999999999999989 0 0 0 -1 -1 3.7007434154171883e-17 0 3.7007434154171883e-17 1 0 3
1 -3 -2 0 0 -1 0 -1 0 0 -0 -0 -1 
1 0 0 0 0 0 1 1 0 -0 -0 1 0 
1 0 0 0 0 0 1 1 0 -0 -0 1 0 
1 -4 -2 0 -1 0 0 0 1 0 0 0 -1 
2 0 1.0000000000000002 0 -0 0 -1 -1 -1.1102230246251565e-16 0 -1.1102230246251565e-16 1 0 2
1 -2 1 0 1 0 -0 0 -1 0 0 -0 -1 
1 2 -2 0 -1 0 0 0 1 0 0 0 -1 
1 -2 -2 0 0 1 0 1 0 0 0 0 -1 
1 -5 6 0 1 0 -0 0 -1 0 0 -0 -1 
1 -5 -3 0 0 1 0 1 0 0 0 0 -1 
1 5 -3 0 -1 0 0 0 1 0 0 0 -1 
1 0 6.5888463833723865 0 0 0 1 1 0 -0 -0 1 0 
1 -4 5 0 0 1 0 1 0 0 0 0 -1 
1 4 5 0 1 0 -0 0 -1 0 0 -0 -1 
1 4 -2 0 0 -1 0 -1 0 0 -0 -0 -1 
1 3 -2 0 -1 0 0 0 1 0 0 0 -1 
1 -5 6.5888463833723865 0.5 1 0 0 -0 0 1 0 -1 0 
2 5 6 -0.5 -1 0 0 0 0 1 0 1 -0 0.5
2 5 6 -0.5 -1 0 0 0 0 1 0 1 -0 1.5
1 5 6 0 0 0 1 -1 0 0 0 -1 0 
1 5 6 1 0 0 1 -1 0 0 0 -1 0 
1 5 6 0 0 -1 0 -1 0 0 -0 -0 -1 
2 5 6 -0.5 -1 0 0 0 0 1 0 1 -0 0.5
2 5 6 -0.5 -1 0 0 0 0 1 0 1 -0 1.5
1 5 6 0 0 0 1 -1 0 0 0 -1 0 
1 5 6 1 0 0 1 -1 0 0 0 -1 0 
2 5 6 -0.5 -1 0 0 0 0 1 0 1 -0 0.5
2 5 6 -0.5 -1 0 0 0 0 1 0 1 -0 1.5
1 5 6 0 0 0 1 -1 0 0 0 -1 0 
1 5 6 1 0 0 1 -1 0 0 0 -1 0 
2 5 6 -0.5 -1 0 0 0 0 1 0 1 -0 0.5
2 5 6 -0.5 -1 0 0 0 0 1 0 1 -0 1.5
1 5 6 0 0 0 1 -1 0 0 0 -1 0 
1 5 6 1 0 0 1 -1 0 0 0 -1 0 
2 5 6 -0.5 -1 0 0 0 0 1 0 1 -0 0.5
2 5 6 -0.5 -1 0 0 0 0 1 0 1 -0 1.5
1 5 6 0 0 0 1 -1 0 0 0 -1 0 
1 5 6 1 0 0 1 -1 0 0 0 -1 0 
2 5 6 -0.5 -1 0 0 0 0 1 0 1 -0 0.5
2 5 6 -0.5 -1 0 0 0 0 1 0 1 -0 1.5
1 5 6 0 0 0 1 -1 0 0 0 -1 0 
1 5 6 1 0 0 1 -1 0 0 0 -1 0 
2 5 6 -0.5 -1 0 0 0 0 1 0 1 -0 0.5
2 5 6 -0.5 -1 0 0 0 0 1 0 1 -0 1.5
1 5 6 0 0 0 1 -1 0 0 0 -1 0 
1 5 6 1 0 0 1 -1 0 0 0 -1 0 
2 5 6 -0.5 -1 0 0 0 0 1 0 1 -0 0.5
2 5 6 -0.5 -1 0 0 0 0 1 0 1 -0 1.5
1 5 6 0 0 0 1 -1 0 0 0 -1 0 
1 5 6 1 0 0 1 -1 0 0 0 -1 0 
2 5 6 -0.5 -1 0 0 0 0 1 0 1 -0 0.5
2 5 6 -0.5 -1 0 0 0 0 1 0 1 -0 1.5
1 5 6 0 0 0 1 -1 0 0 0 -1 0 
1 5 6 1 0 0 1 -1 0 0 0 -1 0 
2 5 6 -0.5 -1 0 0 0 0 1 0 1 -0 0.5
2 5 6 -0.5 -1 0 0 0 0 1 0 1 -0 1.5
1 5 6 0 0 0 1 -1 0 0 0 -1 0 
1 5 6 1 0 0 1 -1 0 0 0 -1 0 
2 5 6 -0.5 -1 0 0 0 0 1 0 1 -0 0.5
2 5 6 -0.5 -1 0 0 0 0 1 0 1 -0 1.5
1 5 6 0 0 0 1 -1 0 0 0 -1 0 
1 5 6 1 0 0 1 -1 0 0 0 -1 0 
2 5 6 -0.5 -1 0 0 0 0 1 0 1 -0 0.5
2 5 6 -0.5 -1 0 0 0 0 1 0 1 -0 1.5
1 5 6 0 0 0 1 -1 0 0 0 -1 0 
1 5 6 1 0 0 1 -1 0 0 0 -1 0 
2 5 6 -0.5 -1 0 0 0 0 1 0 1 -0 0.5
2 5 6 -0.5 -1 0 0 0 0 1 0 1 -0 1.5
1 5 6 0 0 0 1 -1 0 0 0 -1 0 
1 5 6 1 0 0 1 -1 0 0 0 -1 0 
2 5 6 -0.5 -1 0 0 0 0 1 0 1 -0 0.5
2 5 6 -0.5 -1 0 0 0 0 1 0 1 -0 1.5
1 5 6 0 0 0 1 -1 0 0 0 -1 0 
1 5 6 1 0 0 1 -1 0 0 0 -1 0 
2 5 6 -0.5 -1 0 0 0 0 1 0 1 -0 0.5
2 5 6 -0.5 -1 0 0 0 0 1 0 1 -0 1.5
1 5 6 0 0 0 1 -1 0 0 0 -1 0 
1 5 6 1 0 0 1 -1 0 0 0 -1 0 
2 5 6 -0.5 -1 0 0 0 0 1 0 1 -0 0.5
2 5 6 -0.5 -1 0 0 0 0 1 0 1 -0 1.5
1 5 6 0 0 0 1 -1 0 0 0 -1 0 
1 5 6 1 0 0 1 -1 0 0 0 -1 0 
2 5 6 -0.5 -1 0 0 0 0 1 0 1 -0 0.5
2 5 6 -0.5 -1 0 0 0 0 1 0 1 -0 1.5
1 5 6 0 0 0 1 -1 0 0 0 -1 0 
1 5 6 1 0 0 1 -1 0 0 0 -1 0 
2 5 6 -0.5 -1 0 0 0 0 1 0 1 -0 0.5
2 5 6 -0.5 -1 0 0 0 0 1 0 1 -0 1.5
1 5 6 0 0 0 1 -1 0 0 0 -1 0 
1 5 6 1 0 0 1 -1 0 0 0 -1 0 
1 5 6.5888463833723865 0.5 1 0 0 -0 0 1 0 -1 0 
1 0 6.5888463833723865 1 0 0 1 1 0 -0 -0 1 0 
1 5 6 0 1 0 -0 0 0 1 0 -1 0 
1 -5 6 0 1 0 -0 0 0 1 0 -1 0 
Triangulations 0

TShapes 200
Ve
1e-07
-3 1 0
0 0

0101101
*
Ve
1e-07
-3 1 1
0 0

0101101
*
Ed
 1e-07 1 1 0
1  1 0 0 1
2  1 1 4 0 1
2  2 2 7 0 1
4 G1 1 4 2 7
0

0101000
+200 0 -199 0 *
Ve
1e-07
-3 -2 0
0 0

0101101
*
Ve
1e-07
-3 -2 1
0 0

0101101
*
Ed
 1e-07 1 1 0
1  2 0 0 1
2  3 1 4 0 1
2  4 3 9 0 1
4 C0 1 4 3 9
0

0101000
+197 0 -196 0 *
Ed
 1e-07 1 1 0
2  5 4 0 0 3
1  3 0 0 3
2  6 5 0 0 3
0

0101000
+200 5 -197 5 *
Ed
 1e-07 1 1 0
1  4 0 0 3
2  7 1 4 0 3
2  8 5 12 0 3
4 C0 1 4 5 12
0

0101000
+199 0 -196 0 *
Wi

0101100
+198 5 -195 5 -194 0 +193 5 *
Fa
0  1e-07 1 0

0101000
+192 0 *
Ve
1e-07
-4 -2 0
0 0

0101101
*
Ve
1e-07
-4 -2 1
0 0

0101101
*
Ed
 1e-07 1 1 0
1  5 0 0 1
2  9 3 9 0 1
2  10 6 15 0 1
4 C0 3 9 6 15
0

0101000
+190 0 -189 0 *
Ed
 1e-07 1 1 0
1  6 0 0 1
2  11 5 17 0 1
2  12 3 9 0 1
4 C0 3 9 5 17
0

0101000
+197 0 -190 0 *
Ed
 1e-07 1 1 0
1  7 0 0 1
2  13 3 9 0 1
2  14 5 12 0 1
4 C0 3 9 5 12
0

0101000
+196 0 -189 0 *
Wi

0101100
+195 13 -188 13 -187 13 +186 13 *
Fa
0  1e-07 3 0

0101000
+185 0 *
Ve
1e-07
-2 1 0
0 0

0101101
*
Ve
1e-07
-2 1 1
0 0

0101101
*
Ed
 1e-07 1 1 0
1  8 0 0 1
2  15 7 19 0 1
2  16 8 22 0 1
4 G1 7 19 8 22
0

0101000
+183 0 -182 0 *
Ve
1.00000000333067e-07
2 1 0
0 0

0101101
*
Ve
1.00000000333067e-07
2 1 1
0 0

0101101
*
Ed
 1e-07 1 1 0
1  9 0 0 1
2  17 7 19 0 1
2  18 9 24 0 1
4 G1 7 19 9 24
0

0101000
+180 0 -179 0 *
Ed
 1e-07 1 1 0
2  19 4 0 0 3.14159265358979
1  10 0 0 3.14159265358979
2  20 7 0 0 3.14159265358979
2  21 7 25 0 3.14159265358979
2  22 5 0 0 3.14159265358979
0

0101000
+183 20 -180 20 *
Ed
 1e-07 1 1 0
1  11 0 0 3.14159265358979
2  21 7 19 0 3.14159265358979
2  23 5 27 0 3.14159265358979
4 C0 7 19 5 27
0

0101000
+182 0 -179 0 *
Wi

0101100
+181 20 -178 20 -177 0 +176 20 *
Fa
0  1e-07 7 0

0101000
+175 0 *
Ve
1e-07
2 -2 0
0 0

0101101
*
Ve
1e-07
2 -2 1
0 0

0101101
*
Ed
 1e-07 1 1 0
1  12 0 0 1
2  24 9 24 0 1
2  25 10 30 0 1
4 C0 9 24 10 30
0

0101000
+173 0 -172 0 *
Ed
 1e-07 1 1 0
2  26 4 0 0 3
1  13 0 0 3
2  27 5 0 0 3
0

0101000
+173 28 -180 28 *
Ed
 1e-07 1 1 0
1  14 0 0 3
2  28 9 24 0 3
2  29 5 12 0 3
4 C0 9 24 5 12
0

0101000
+172 0 -179 0 *
Wi

0101100
+171 28 -178 28 -170 0 +169 28 *
Fa
0  1e-07 9 0

0101000
+168 0 *
Ve
1e-07
-2 -2 0
0 0

0101101
*
Ve
1e-07
-2 -2 1
0 0

0101101
*
Ed
 1e-07 1 1 0
1  15 0 0 1
2  30 10 30 0 1
2  31 8 22 0 1
4 C0 10 30 8 22
0

0101000
+166 0 -165 0 *
Ed
 1e-07 1 1 0
2  32 4 0 0 4
1  16 0 0 4
2  33 5 0 0 4
0

0101000
+166 31 -173 31 *
Ed
 1e-07 1 1 0
1  17 0 0 4
2  34 10 30 0 4
2  35 5 12 0 4
4 C0 10 30 5 12
0

0101000
+165 0 -172 0 *
Wi

0101100
+164 31 -171 31 -163 0 +162 31 *
Fa
0  1e-07 10 0

0101000
+161 0 *
Ed
 1e-07 1 1 0
1  18 0 0 3
2  36 5 17 0 3
2  37 8 22 0 3
4 C0 8 22 5 17
0

0101000
+183 0 -166 0 *
Ed
 1e-07 1 1 0
1  19 0 0 3
2  38 8 22 0 3
2  39 5 12 0 3
4 C0 8 22 5 12
0

0101000
+182 0 -165 0 *
Wi

0101100
+181 32 -164 32 -159 32 +158 32 *
Fa
0  1e-07 8 0

0101000
+157 0 *
Ve
1e-07
-5 6 0
0 0

0101101
*
Ve
1e-07
-5 -3 0
0 0

0101101
*
Ed
 1e-07 1 1 0
1  20 0 0 9
2  40 5 17 0 9
2  41 11 35 0 9
4 C0 5 17 11 35
0

0101000
+155 0 -154 0 *
Ve
1e-07
5 -3 0
0 0

0101101
*
Ed
 1e-07 1 1 0
1  21 0 0 10
2  42 5 17 0 10
2  43 12 37 0 10
4 C0 5 17 12 37
0

0101000
+154 0 -152 0 *
Ve
1e-07
5 6 0
0 0

0101101
*
Ed
 1e-07 1 1 0
1  22 0 0 9
2  44 5 17 0 9
2  45 13 39 0 9
4 C0 5 17 13 39
0

0101000
+152 0 -150 0 *
Ed
 1e-07 1 1 0
1  23 0 0 10
2  46 5 17 0 10
2  47 14 0 0 10
4 CN 5 17 14 0
0

0101000
+150 0 -155 0 *
Wi

0101100
+153 33 +151 33 +149 33 +148 33 *
Ve
1.00000000333067e-07
2 1 0
0 0

0101101
*
Ed
 1e-07 1 1 0
1  24 0 0 3.14159265358979
2  22 5 17 0 3.14159265358979
2  48 5 41 0 3.14159265358979
4 C0 5 17 5 41
0

0101000
+183 0 -146 0 *
Ve
1e-07
2 -2 0
0 0

0101101
*
Ed
 1e-07 1 1 0
1  25 0 0 3
2  27 5 17 0 3
2  49 5 43 0 3
4 C0 5 17 5 43
0

0101000
+144 0 -146 0 *
Ed
 1e-07 1 1 0
1  26 0 0 4
2  33 5 17 0 4
2  50 5 43 0 4
4 C0 5 17 5 43
0

0101000
+166 0 -144 0 *
Wi

0101100
+145 33 -143 33 -142 33 -159 33 *
Ed
 1e-07 1 1 0
1  27 0 0 3
2  6 5 17 0 3
2  51 5 43 0 3
4 C0 5 17 5 43
0

0101000
+200 0 -197 0 *
Ve
1e-07
-4 5 0
0 0

0101101
*
Ed
 1e-07 1 1 0
1  28 0 0 7
2  52 5 17 0 7
2  53 6 15 0 7
4 C0 5 17 6 15
0

0101000
+190 0 -139 0 *
Ve
1e-07
4 5 0
0 0

0101101
*
Ed
 1e-07 1 1 0
1  29 0 0 8
2  54 5 17 0 8
2  55 15 45 0 8
4 C0 5 17 15 45
0

0101000
+139 0 -137 0 *
Ve
1e-07
4 -2 0
0 0

0101101
*
Ed
 1e-07 1 1 0
1  30 0 0 7
2  56 5 17 0 7
2  57 16 47 0 7
4 C0 5 17 16 47
0

0101000
+137 0 -135 0 *
Ve
1e-07
3 -2 0
0 0

0101101
*
Ed
 1e-07 1 1 0
1  31 0 0 1
2  58 5 17 0 1
2  59 17 49 0 1
4 C0 5 17 17 49
0

0101000
+135 0 -133 0 *
Ve
1.00000000111022e-07
3 1 0
0 0

0101101
*
Ed
 1e-07 1 1 0
1  32 0 0 3
2  60 5 17 0 3
2  61 18 51 0 3
4 C0 5 17 18 51
0

0101000
+133 0 -131 0 *
Ed
 1e-07 1 1 0
1  33 0 0 3.14159265358979
2  62 5 17 0 3.14159265358979
2  63 2 7 0 3.14159265358979
4 C0 5 17 2 7
0

0101000
+200 0 -131 0 *
Wi

0101100
+140 33 +187 33 +138 33 +136 33 +134 33 +132 33 +130 33 -129 33 *
Fa
0  1e-07 5 0

0101000
+147 0 +141 0 +128 0 *
Ve
1e-07
-5 6 1
0 0

0101101
*
Ed
 1e-07 1 1 0
1  34 0 0 1
2  64 11 35 0 1
2  65 19 0 0 1
4 G2 11 35 19 0
0

0101000
+155 0 -126 0 *
Ve
1e-07
-5 -3 1
0 0

0101101
*
Ed
 1e-07 1 1 0
1  35 0 0 1
2  66 11 35 0 1
2  67 12 37 0 1
4 C0 11 35 12 37
0

0101000
+154 0 -124 0 *
Ed
 1e-07 1 1 0
1  36 0 0 9
2  68 11 35 0 9
2  69 5 12 0 9
4 C0 11 35 5 12
0

0101000
+126 0 -124 0 *
Wi

0101100
+125 52 -123 52 -153 52 +122 52 *
Fa
0  1e-07 11 0

0101000
+121 0 *
Ve
1e-07
-5 6 0
0 0

0101101
*
Ve
1e-07
-5 -3 0
0 0

0101101
*
Ed
 1e-07 1 1 0
2  70 4 0 0 9
1  37 0 0 9
2  71 11 0 0 9
2  68 11 25 0 9
2  40 5 0 0 9
0

0101000
+119 0 -118 0 *
Ve
1e-07
5 6 0
0 0

0101101
*
Ed
 1e-07 1 1 0
2  72 4 0 0 10
1  38 0 0 10
2  73 20 0 0 10
2  74 20 54 0 10
2  75 21 25 0 10
2  76 21 55 0 10
2  77 22 0 0 10
2  78 22 57 0 10
2  79 23 25 0 10
2  80 23 58 0 10
2  81 24 0 0 10
2  82 24 25 0 10
2  46 5 0 0 10
2  83 25 0 0 10
2  84 25 60 0 10
2  85 26 25 0 10
2  86 26 61 0 10
2  87 27 0 0 10
2  88 27 63 0 10
2  89 28 25 0 10
2  90 28 64 0 10
2  91 29 0 0 10
2  92 29 66 0 10
2  93 30 25 0 10
2  94 30 67 0 10
2  95 31 0 0 10
2  96 31 69 0 10
2  97 32 25 0 10
2  98 32 70 0 10
2  99 33 0 0 10
2  100 33 72 0 10
2  101 34 25 0 10
2  102 34 73 0 10
2  103 35 0 0 10
2  104 35 75 0 10
2  105 36 25 0 10
2  106 36 76 0 10
2  107 37 0 0 10
2  108 37 78 0 10
2  109 38 25 0 10
2  110 38 79 0 10
2  111 39 0 0 10
2  112 39 81 0 10
2  113 40 25 0 10
2  114 40 82 0 10
2  115 41 0 0 10
2  116 41 84 0 10
2  117 42 25 0 10
2  118 42 85 0 10
2  119 43 0 0 10
2  120 43 87 0 10
2  121 44 25 0 10
2  122 44 88 0 10
2  123 45 0 0 10
2  124 45 90 0 10
2  125 46 25 0 10
2  126 46 91 0 10
2  127 47 0 0 10
2  128 47 93 0 10
2  129 48 25 0 10
2  130 48 94 0 10
2  131 49 0 0 10
2  132 49 96 0 10
2  133 50 25 0 10
2  134 50 97 0 10
2  135 51 0 0 10
2  136 51 99 0 10
2  137 52 25 0 10
2  138 52 100 0 10
2  139 53 0 0 10
2  140 53 102 0 10
2  141 54 25 0 10
2  142 54 103 0 10
2  143 55 0 0 10
2  144 55 105 0 10
2  145 56 25 0 10
2  146 56 106 0 10
2  147 57 0 0 10
2  148 57 108 0 10
2  149 58 25 0 10
2  150 58 109 0 10
2  151 59 0 0 10
2  152 59 111 0 10
2  153 60 25 0 10
2  154 60 112 0 10
2  155 61 0 0 10
2  156 61 114 0 10
2  157 62 25 0 10
2  158 62 115 0 10
2  159 63 0 0 10
2  160 63 117 0 10
2  161 64 25 0 10
2  162 64 118 0 10
2  163 65 0 0 10
2  164 65 120 0 10
2  165 66 25 0 10
2  166 66 121 0 10
2  167 67 0 0 10
2  168 67 123 0 10
2  169 68 25 0 10
2  170 68 124 0 10
2  171 69 0 0 10
2  172 69 126 0 10
2  173 70 25 0 10
2  174 70 127 0 10
2  175 71 0 0 10
2  176 71 129 0 10
2  177 72 25 0 10
2  178 72 130 0 10
2  179 73 0 0 10
2  180 73 132 0 10
2  181 74 25 0 10
2  182 74 133 0 10
2  183 75 0 0 10
2  184 75 135 0 10
2  185 76 25 0 10
2  186 76 136 0 10
2  187 77 0 0 10
2  188 77 138 0 10
2  189 78 25 0 10
2  190 78 139 0 10
2  191 79 0 0 10
2  192 79 141 0 10
2  193 80 25 0 10
2  194 80 142 0 10
2  195 81 0 0 10
2  196 81 144 0 10
2  197 82 25 0 10
2  198 82 145 0 10
2  199 83 0 0 10
2  200 83 147 0 10
2  201 84 25 0 10
2  202 84 148 0 10
2  203 85 0 0 10
2  204 85 150 0 10
2  205 86 25 0 10
2  206 86 151 0 10
2  207 87 0 0 10
2  208 87 153 0 10
2  209 88 25 0 10
2  210 88 154 0 10
2  211 89 0 0 10
2  212 89 156 0 10
2  213 90 25 0 10
2  214 90 157 0 10
2  215 91 0 0 10
2  216 91 159 0 10
2  217 92 25 0 10
2  218 92 160 0 10
0

0101000
+116 0 -119 0 *
Ve
1e-07
5 -3 0
0 0

0101101
*
Ed
 1e-07 1 1 0
2  219 4 0 0 10
1  39 0 0 10
2  42 5 0 0 10
0

0101000
+118 0 -114 0 *
Ed
 1e-07 1 1 0
2  220 4 0 0 9
1  40 0 0 9
2  221 13 0 0 9
2  222 13 25 0 9
2  44 5 0 0 9
0

0101000
+114 0 -116 0 *
Wi

0101100
+117 2 +115 2 +113 2 +112 2 *
Ed
 1e-07 1 1 0
2  223 4 0 0 3
1  41 0 0 3
2  36 5 0 0 3
0

0101000
+183 161 -166 161 *
Ve
1.00000000111022e-07
3 1 0
0 0

0101101
*
Ed
 1e-07 1 1 0
1  42 0 0 1
2  224 5 43 0 1
2  225 5 41 0 1
4 CN 5 43 5 41
0

0101000
+146 0 -109 0 *
Ve
1e-07
3 -2 0
0 0

0101101
*
Ed
 1e-07 1 1 0
2  226 4 0 0 3
1  43 0 0 3
2  60 5 0 0 3
0

0101000
+107 0 -109 161 *
Ve
1e-07
4 -2 0
0 0

0101101
*
Ed
 1e-07 1 1 0
2  227 4 0 0 1
1  44 0 0 1
2  58 5 0 0 1
0

0101000
+105 0 -107 0 *
Ve
1e-07
4 5 0
0 0

0101101
*
Ed
 1e-07 1 1 0
2  228 4 0 0 7
1  45 0 0 7
2  56 5 0 0 7
0

0101000
+103 0 -105 0 *
Ve
1e-07
-4 5 0
0 0

0101101
*
Ed
 1e-07 1 1 0
2  229 4 0 0 8
1  46 0 0 8
2  54 5 0 0 8
0

0101000
+101 0 -103 0 *
Ve
1e-07
-4 -2 0
0 0

0101101
*
Ed
 1e-07 1 1 0
2  230 4 0 0 7
1  47 0 0 7
2  52 5 0 0 7
0

0101000
+99 0 -101 0 *
Ed
 1e-07 1 1 0
2  231 4 0 0 1
1  48 0 0 1
2  11 5 0 0 1
0

0101000
+197 161 -99 0 *
Ed
 1e-07 1 1 0
1  49 0 0 1
2  232 5 43 0 1
2  233 5 41 0 1
4 CN 5 43 5 41
0

0101000
+183 0 -200 0 *
Wi

0101100
-110 2 -142 162 -143 162 -108 162 +106 2 +104 2 +102 2 +100 2 +98 2 +97 2 
+140 162 +96 162 *
Fa
0  1e-07 5 2

0101000
+111 0 +95 0 *
Ve
1e-07
5 -3 1
0 0

0101101
*
Ed
 1e-07 1 1 0
1  50 0 0 1
2  234 12 37 0 1
2  235 13 39 0 1
4 C0 12 37 13 39
0

0101000
+152 0 -93 0 *
Ed
 1e-07 1 1 0
1  51 0 0 10
2  236 12 37 0 10
2  237 5 12 0 10
4 C0 12 37 5 12
0

0101000
+124 0 -93 0 *
Wi

0101100
+123 163 -92 163 -151 163 +91 163 *
Fa
0  1e-07 12 0

0101000
+90 0 *
Ve
1e-07
5 6 1
0 0

0101101
*
Ed
 1e-07 1 1 0
1  52 0 0 1
2  238 13 39 0 1
2  239 93 0 0 1
4 CN 13 39 93 0
0

0101000
+150 0 -88 0 *
Ed
 1e-07 1 1 0
1  53 0 0 9
2  222 13 39 0 9
2  240 5 12 0 9
4 C0 13 39 5 12
0

0101000
+93 0 -88 0 *
Wi

0101100
+92 164 -87 164 -149 164 +86 164 *
Fa
0  1e-07 13 0

0101000
+85 0 *
Ed
 1e-07 1 1 0
2  241 4 0 0 3.14159265358979
1  54 0 0 3.14159265358979
2  242 2 0 0 3.14159265358979
2  243 2 25 0 3.14159265358979
2  62 5 0 0 3.14159265358979
0

0101000
+200 166 -109 166 *
Wi

0101100
-96 165 -83 2 +108 165 +145 165 *
Fa
0  1e-07 5 2

0101000
+82 0 *
Ve
1e-07
-4 5 1
0 0

0101101
*
Ed
 1e-07 1 1 0
1  55 0 0 1
2  244 6 15 0 1
2  245 15 45 0 1
4 C0 6 15 15 45
0

0101000
+139 0 -80 0 *
Ed
 1e-07 1 1 0
1  56 0 0 7
2  246 6 15 0 7
2  247 5 12 0 7
4 C0 6 15 5 12
0

0101000
+189 0 -80 0 *
Wi

0101100
+188 167 -79 167 -138 167 +78 167 *
Fa
0  1e-07 6 0

0101000
+77 0 *
Ve
1e-07
4 5 1
0 0

0101101
*
Ed
 1e-07 1 1 0
1  57 0 0 1
2  248 15 45 0 1
2  249 16 47 0 1
4 C0 15 45 16 47
0

0101000
+137 0 -75 0 *
Ed
 1e-07 1 1 0
1  58 0 0 8
2  250 15 45 0 8
2  251 5 12 0 8
4 C0 15 45 5 12
0

0101000
+80 0 -75 0 *
Wi

0101100
+79 168 -74 168 -136 168 +73 168 *
Fa
0  1e-07 15 0

0101000
+72 0 *
Ve
1e-07
4 -2 1
0 0

0101101
*
Ed
 1e-07 1 1 0
1  59 0 0 1
2  252 16 47 0 1
2  253 17 49 0 1
4 C0 16 47 17 49
0

0101000
+135 0 -70 0 *
Ed
 1e-07 1 1 0
1  60 0 0 7
2  254 16 47 0 7
2  255 5 12 0 7
4 C0 16 47 5 12
0

0101000
+75 0 -70 0 *
Wi

0101100
+74 169 -69 169 -134 169 +68 169 *
Fa
0  1e-07 16 0

0101000
+67 0 *
Ve
1e-07
3 -2 1
0 0

0101101
*
Ed
 1e-07 1 1 0
1  61 0 0 1
2  256 17 49 0 1
2  257 18 51 0 1
4 C0 17 49 18 51
0

0101000
+133 0 -65 0 *
Ed
 1e-07 1 1 0
1  62 0 0 1
2  258 17 49 0 1
2  259 5 12 0 1
4 C0 17 49 5 12
0

0101000
+70 0 -65 0 *
Wi

0101100
+69 170 -64 170 -132 170 +63 170 *
Fa
0  1e-07 17 0

0101000
+62 0 *
Ve
1.00000000111022e-07
3 1 1
0 0

0101101
*
Ed
 1e-07 1 1 0
1  63 0 0 1
2  260 18 51 0 1
2  261 2 7 0 1
4 G1 18 51 2 7
0

0101000
+131 0 -60 0 *
Ed
 1e-07 1 1 0
1  64 0 0 3
2  262 18 51 0 3
2  263 5 12 0 3
4 C0 18 51 5 12
0

0101000
+65 0 -60 0 *
Wi

0101100
+64 171 -59 171 -130 171 +58 171 *
Fa
0  1e-07 18 0

0101000
+57 0 *
Ed
 1e-07 1 1 0
1  65 0 0 3.14159265358979
2  243 2 7 0 3.14159265358979
2  264 5 27 0 3.14159265358979
4 C0 2 7 5 27
0

0101000
+199 0 -60 0 *
Wi

0101100
+198 172 -59 172 -129 172 +55 172 *
Fa
0  1e-07 2 0

0101000
+54 0 *
Ed
 1e-07 1 1 0
1  66 0 0 10
2  46 5 12 0 10
2  265 94 0 0 10
4 CN 5 12 94 0
0

0101000
+88 0 -126 0 *
Wi

0101100
+122 174 +52 174 +91 174 +86 174 *
Ed
 1e-07 1 1 0
1  67 0 0 1
2  266 5 12 0 1
2  267 5 27 0 1
4 CN 5 12 5 27
0

0101000
+179 0 -60 0 *
Ed
 1e-07 1 1 0
1  68 0 0 1
2  268 5 12 0 1
2  269 5 27 0 1
4 CN 5 12 5 27
0

0101000
+182 0 -199 0 *
Wi

0101100
-158 174 -162 174 -169 174 -50 174 +58 174 +63 174 +68 174 +73 174 +78 174 +186 174 
+193 174 +49 174 *
Fa
0  1e-07 5 173

0101000
+51 0 +48 0 *
Wi

0101100
-49 175 -55 175 +50 175 +176 175 *
Fa
0  1e-07 5 173

0101000
+46 0 *
Ve
1e-07
5 7.17769276674477 0
0 0

0101101
*
Ed
 1e-07 1 1 0
1  69 0 0 1.17769276674477
2  270 14 0 0 1.17769276674477
2  271 93 0 0 1.17769276674477
4 C0 14 0 93 0
0

0101000
+150 0 -44 0 *
Ve
1e-07
-5 7.17769276674477 0
0 0

0101101
*
Ed
 1e-07 1 1 0
1  70 0 0 10
2  272 14 0 0 10
2  273 91 178 0 10
4 G2 14 0 91 178
0

0101000
+44 0 -42 0 *
Ed
 1e-07 1 1 0
1  71 0 0 1.17769276674477
2  274 14 0 0 1.17769276674477
2  275 19 0 0 1.17769276674477
4 C0 14 0 19 0
0

0101000
+42 0 -155 0 *
Wi

0101100
+43 0 +41 0 +40 0 -148 0 *
Fa
0  1e-07 14 0

0101000
+39 0 *
Ve
1e-07
5 7.17769276674477 1
0 0

0101101
*
Ed
 1e-07 1 1 0
1  72 0 0 1.17769276674477
2  276 94 0 0 1.17769276674477
2  277 93 0 0 1.17769276674477
4 C0 94 0 93 0
0

0101000
+88 0 -37 0 *
Ve
1e-07
-5 7.17769276674477 1
0 0

0101101
*
Ed
 1e-07 1 1 0
1  73 0 0 10
2  278 94 0 0 10
2  279 92 180 0 10
4 G2 94 0 92 180
0

0101000
+37 0 -35 0 *
Ed
 1e-07 1 1 0
1  74 0 0 1.17769276674477
2  280 94 0 0 1.17769276674477
2  281 19 0 0 1.17769276674477
4 C0 94 0 19 0
0

0101000
+35 0 -126 0 *
Wi

0101100
+36 0 +34 0 +33 0 -52 0 *
Fa
0  1e-07 94 0

0101000
+32 0 *
Ed
 1e-07 1 1 0
1  75 0 0 1
2  282 93 0 0 1
2  283 95 182 0 1
4 CN 93 0 95 182
0

0101000
+44 0 -37 0 *
Wi

0101100
+43 0 +30 0 -36 0 -87 0 *
Fa
0  1e-07 93 0

0101000
+29 0 *
Ed
 1e-07 1 1 0
1  76 0 0 1
2  284 19 0 0 1
2  285 96 184 0 1
4 CN 19 0 96 184
0

0101000
+42 0 -35 0 *
Wi

0101100
-40 0 +27 0 +33 0 -125 0 *
Fa
0  1e-07 19 0

0101000
+26 0 *
Ve
1e-07
5 10.0554913839992 0
0 0

0101101
*
Ed
 1e-07 1 1 0
1  77 0 0 2.8777986172544
2  286 91 178 0 2.8777986172544
2  287 95 182 0 2.8777986172544
4 C0 91 178 95 182
0

0101000
+44 0 -24 0 *
Ve
1e-07
-5 10.0554913839992 0
0 0

0101101
*
Ed
 1e-07 1 1 0
1  78 0 0 2.8777986172544
2  288 91 178 0 2.8777986172544
2  289 96 184 0 2.8777986172544
4 C0 91 178 96 184
0

0101000
+42 0 -22 0 *
Ed
 1e-07 1 1 0
1  79 0 0 10
2  216 91 178 0 10
2  290 24 188 0 10
4 C0 91 178 24 188
0

0101000
+24 0 -22 0 *
Wi

0101100
+23 186 -21 186 -41 186 +20 186 *
Fa
0  1e-07 91 176

0101000
+19 0 *
Ve
1e-07
5 10.0554913839992 1
0 0

0101101
*
Ed
 1e-07 1 1 0
1  80 0 0 2.8777986172544
2  291 95 182 0 2.8777986172544
2  292 92 180 0 2.8777986172544
4 C0 95 182 92 180
0

0101000
+37 0 -17 0 *
Ed
 1e-07 1 1 0
1  81 0 0 1
2  293 95 182 0 1
2  294 24 188 0 1
4 C0 95 182 24 188
0

0101000
+24 0 -17 0 *
Wi

0101100
+23 190 -16 190 -30 190 +15 190 *
Fa
0  1e-07 95 176

0101000
+14 0 *
Ve
1e-07
-5 10.0554913839992 1
0 0

0101101
*
Ed
 1e-07 1 1 0
1  82 0 0 2.8777986172544
2  295 96 184 0 2.8777986172544
2  296 92 180 0 2.8777986172544
4 C0 96 184 92 180
0

0101000
+35 0 -12 0 *
Ed
 1e-07 1 1 0
1  83 0 0 1
2  297 96 184 0 1
2  298 24 188 0 1
4 C0 96 184 24 188
0

0101000
+22 0 -12 0 *
Wi

0101100
+21 192 -11 192 -27 192 +10 192 *
Fa
0  1e-07 96 176

0101000
+9 0 *
Ed
 1e-07 1 1 0
1  84 0 0 10
2  218 92 180 0 10
2  299 24 188 0 10
4 C0 92 180 24 188
0

0101000
+17 0 -12 0 *
Wi

0101100
+16 194 -11 194 -34 194 +7 194 *
Fa
0  1e-07 92 176

0101000
+6 0 *
Wi

0101100
+15 195 -10 195 -20 195 +7 195 *
Fa
0  1e-07 24 0

0101000
+4 0 *
Sh

0101000
-191 4 -184 9 -174 19 +167 24 +160 30 +156 22 -127 17 -120 35 +94 42 -89 37 
-84 39 +81 40 -76 15 -71 45 -66 47 -61 49 -56 51 +53 7 +47 11 +45 26 
-38 0 +31 0 +28 0 -25 0 -18 185 +13 189 -8 191 +5 193 -3 188 *
So

1100000
+2 0 *

+1 1  