
CASCADE Topology V1, (c) Matra-Datavision
Locations 32
1
              1               0               0               0 
              0               1               0               0 
              0               0               1               0 
1
              1               0               0               0 
              0               1               0               0 
              0               0               1               0 
1
              1               0               0               0 
              0               1               0               0 
              0               0               1               0 
2  2 1 3 1 0
2  3 -1 2 -1 0
1
              1               0               0               0 
              0               1               0               0 
              0               0               1               0 
2  2 1 6 1 0
1
              1               0               0               0 
              0               1               0               0 
              0               0               1               0 
2  2 1 8 1 0
1
              1               0               0               0 
              0               1               0               0 
              0               0               1               0 
2  2 1 10 1 0
2  6 -1 2 -1 0
1
              1               0               0               0 
              0               1               0               0 
              0               0               1               0 
2  2 1 13 1 0
2  13 -1 2 -1 0
2  8 -1 0
2  10 -1 2 -1 0
1
              1               0               0               0 
              0 1.11022302462516e-16              -1 8.59347433498381 
              0               1 1.11022302462516e-16              -1 
2  2 1 18 1 0
1
              1               0               0               0 
              0 1.11022302462516e-16              -1 8.59347433498381 
              0               1 1.11022302462516e-16              -1 
2  2 1 20 1 0
1
              1               0               0               0 
              0 1.11022302462516e-16              -1 8.59347433498381 
              0               1 1.11022302462516e-16              -1 
2  2 1 22 1 0
1
              1               0               0               0 
              0 1.11022302462516e-16              -1 8.59347433498381 
              0               1 1.11022302462516e-16              -1 
2  2 1 24 1 0
2  18 -1 2 -1 0
1
              1               0               0               0 
              0 1.11022302462516e-16              -1 8.59347433498381 
              0               1 1.11022302462516e-16              -1 
2  2 1 27 1 0
2  20 -1 0
2  22 -1 2 -1 0
2  24 -1 2 -1 0
2  27 -1 2 -1 0
Curve2ds 56
1 38 15 -1.2246063538223801e-17 1 
1 -15 -1.1102230246251565e-15 1 0 
1 12.5 10 -1 0 
1 -7.0476111219141799 5.308375541701511 -1 0 
1 0 50 0 -1 
1 25 1 -1 -0 
1 50 50 -1 0 
1 25 1 -1 0 
1 -20 4.9999999999999991 0 1 
1 5.2984850763364593 2.5 0 1 
1 20 0.49999999999999889 0 -1 
1 13 0.5 0 1 
1 -15 4.9999999999999991 1 0 
1 38 15 -1.2246063538223801e-17 1 
1 12.5 50 -1 0 
1 -12.5 -4 -1 0 
1 0 12.5 0 -1 
1 -12.5 -4 -1 -0 
1 12.5 10 -1 0 
8 -25.5 12.5
1 7.0476111219141799 5.308375541701511 1 -0 
1 -15 -4 0 1 
1 -2.4999999999999996 -5.2032628325080967 1 0 
1 25 0 0 1 
1 -25 0 0 1 
1 -19.54761112191418 5.308375541701511 0 -1 
1 2.5000000000000004 -5.2032628325080967 -6.4011163400523591e-17 1 
1 -19.54761112191418 -5.0981501233146824 1 0 
1 -25 5 1 0 
1 20.45238887808582 -5.0981501233146824 -0.18873319176949188 0.98202840199482022 
1 -5.298485076336461 -2.4999999999999996 1 -6.2860780504045493e-17 
1 2.5 5.2032628325080967 -1 0 
8 0 5
1 -25 -9 1 0 
1 -2.5000000000000004 5.2032628325080967 8.534821786736478e-17 -1 
1 19.54761112191418 -5.0981501233146824 0 1 
1 5.2984850763364593 2.5 -1 8.3814374005393991e-17 
1 -18.45238887808582 5.308375541701511 -0.18873319176949188 -0.98202840199482022 
1 -5.298485076336461 2.5000000000000009 0 -1 
1 -17.846568297574748 10.52 5.4741229673626566e-17 -1 
1 -20.45238887808582 -5.0981501233146824 1 0 
8 0 40
1 15 5 -1 -0 
1 15.980769230769205 9.9038461538462013 0.19611613513818404 0.98058067569092022 
1 -12.845606851551013 5.5199999999999987 1 -7.7016872724735425e-18 
1 -12.5 45 -1 0 
1 -12.5 0 -1 0 
1 -25 0 0 1 
1 -25 -4 -6.12303176911189e-17 -1 
1 -20 -4 -6.12303176911189e-17 -1 
1 -25 0 0 1 
1 -20 -49 -1 -0 
1 -25 5.0000000000000027 0 -1 
1 -12.845606851551013 10.52 -1 7.7016872724735425e-18 
1 15.980769230769205 9.9038461538462013 -0.19611613513818404 -0.98058067569092022 
1 22.945587811167535 2.7600000000000011 7.7016872724735934e-18 1 
1 23 -2.7599999999999971 0 1 
1 -12.5 45 -1 0 
1 -12.5 5.0000000000000027 -1 0 
Curves 28
1 38 15 -1 -1.2246063538223801e-17 1 0 
1 12.5 10 -1 -1 0 0 
1 0 50 -1 0 -1 0 
1 50 50 -1 -1 0 0 
1 38 10 4 0 0 1 
1 38 50 -0.5 0 0 -1 
1 38 15 4 -1.2246063538223801e-17 1 0 
1 12.5 50 4 -1 0 0 
1 0 12.5 4 0 -1 0 
1 12.5 10 4 -1 0 0 
1 0 10 4 0 0 -1 
1 0 50 0 -0 -0 -1 
1 0 10 -1 0 -1 6.4011163400523591e-17 
1 0 -0.40652566501619347 -0.99999999999999933 1 0 0 
1 40 -0.40652566501619347 -0.99999999999999933 -0.18873319176949188 0.98202840199482022 -6.2860780504045493e-17 
1 0 -0.40652566501619347 -0.99999999999999933 0 0 1 
1 0 -0.40652566501619347 4.0000000000000009 0 1 -8.534821786736478e-17 
1 38 10 4 0.18873319176949188 -0.98202840199482022 8.3814374005393991e-17 
1 40 -0.40652566501619347 4.0000000000000009 0 0 -1 
1 40 -0.40652566501619347 4.0000000000000009 -1 0 0 
1 40.980769230769205 -5.3103718188623947 -0.99999999999999845 0.19611613513818404 -0.98058067569092022 4.8825058071128306e-17 
1 12.5 -40.40652566501619 -0.99999999999999734 -1 0 0 
1 0 4.5934743349838065 -0.99999999999999956 0 -1 4.9791984771396754e-17 
1 0 4.5934743349838065 4 0 -1 4.9791984771396754e-17 
1 0 -40.40652566501619 4.0000000000000053 0 -1.1102230246251565e-16 -1 
1 40.980769230769205 -5.3103718188623947 4.0000000000000018 -0.19611613513818404 0.98058067569092022 -4.8825058071128306e-17 
1 48 -40.40652566501619 -3.7599999999999945 0 4.9791984771396754e-17 1 
1 12.5 -40.40652566501619 4.0000000000000053 -1 0 0 
Polygon3D 0
PolygonOnTriangulations 0
Surfaces 13
1 0 0 -1 0 0 1 1 0 -0 -0 1 0 
1 38 30 -0.99999999999999889 1 1.2246063538223801e-17 0 -1.2246063538223801e-17 1 0 0 -0 1 
1 19.54761112191418 4.691624458298489 -0.99999999999999956 0 0 1 1 0 -0 -0 1 0 
1 0 25 0 -1 0 0 0 1 -0 -0 0 -1 
1 25 50 0 0 1 0 1 -0 0 0 0 -1 
1 39 4.7967371674919042 1.5000000000000002 0.98202840199482022 0.18873319176949188 0 -0.18873319176949188 0.98202840199482022 0 0 -0 1 
1 0 0 4 0 0 1 1 0 -0 -0 1 0 
1 19.54761112191418 4.691624458298489 4 -0 -0 -1 -1 0 0 0 1 -0 
1 0 4.7967371674919033 1.5000000000000004 -1 -0 -0 0 0 -1 0 -1 0 
1 25 0 4 0 -1 -6.12303176911189e-17 1 0 0 0 -6.12303176911189e-17 1 
1 43.5 -5.5199999999999996 26.5 -0.98058067569092022 -1.2008253258865403e-17 0.19611613513818404 0.19611613513818404 -5.2339579021853479e-17 0.98058067569092022 -1.5104251419204516e-18 1 5.3678191981516569e-17 
1 25 5 4 0 -1 -6.12303176911189e-17 1 0 0 0 -6.12303176911189e-17 1 
1 25 -2.75536429610035e-15 49 0 -6.12303176911189e-17 1 1 0 0 -0 1 6.12303176911189e-17 
Triangulations 0

TShapes 74
Ve
0.000808277046313418
38 10 -1
0 0

0101101
*
Ve
1e-07
38 50 -1
0 0

0101101
*
Ed
 1e-07 1 1 0
1  1 0 -5 35
2  1 1 4 -5 35
2  2 2 7 -5 35
4 C0 1 4 2 7
0

0101000
+74 0 -73 0 *
Ve
1e-07
0 10 -1
0 0

0101101
*
Ed
 1e-07 1 1 0
1  2 0 -25.5 12.5
2  3 1 4 -25.5 12.5
2  4 3 0 -25.5 12.5
4 CN 1 4 3 0
0

0101000
+74 0 -71 0 *
Ve
1e-07
0 50 -1
0 0

0101101
*
Ed
 1e-07 1 1 0
1  3 0 0 40
2  5 1 4 0 40
2  6 4 9 0 40
4 C0 1 4 4 9
0

0101000
+69 0 -71 0 *
Ed
 1e-07 1 1 0
1  4 0 12 50
2  7 1 4 12 50
2  8 5 11 12 50
4 C0 1 4 5 11
0

0101000
+73 0 -69 0 *
Wi

0101100
-72 5 +70 5 -68 5 -67 5 *
Fa
0  1e-07 1 0

0101000
-66 0 *
Ve
0.000290288328473734
38 10 4
0 0

0101101
*
Ed
 1e-07 1 1 0
1  5 0 -5 0
2  9 2 7 -5 0
2  10 6 0 -5 0
4 C0 2 7 6 0
0

0101000
+74 0 -64 0 *
Ve
1e-07
38 50 4
0 0

0101101
*
Ed
 1e-07 1 1 0
1  6 0 -4.5 0.5
2  11 2 7 -4.5 0.5
2  12 5 11 -4.5 0.5
4 C0 2 7 5 11
0

0101000
+62 0 -73 0 *
Ed
 1e-07 1 1 0
1  7 0 -5 35
2  13 2 7 -5 35
2  14 7 14 -5 35
4 C0 2 7 7 14
0

0101000
+64 0 -62 0 *
Wi

0101100
-63 12 +72 12 -61 12 -60 12 *
Fa
0  1e-07 2 0

0101000
+59 0 *
Ve
1e-07
0 50 4
0 0

0101101
*
Ed
 1e-07 1 1 0
1  8 0 -25.5 12.5
2  15 7 14 -25.5 12.5
2  16 5 11 -25.5 12.5
4 C0 7 14 5 11
0

0101000
+62 0 -57 0 *
Ve
1e-07
0 10 4
0 0

0101101
*
Ed
 1e-07 1 1 0
1  9 0 -37.5 2.5
2  17 7 14 -37.5 2.5
2  18 4 9 -37.5 2.5
4 C0 7 14 4 9
0

0101000
+57 0 -55 0 *
Ed
 1e-07 1 1 0
1  10 0 -25.5 12.5
2  19 7 14 -25.5 12.5
2  20 8 0 -25.5 12.5
4 G2 7 14 8 0
0

0101000
+64 0 -55 0 *
Wi

0101100
+60 15 +56 15 +54 15 -53 15 *
Fa
0  1e-07 7 0

0101000
+52 0 *
Ed
 1e-07 1 1 0
1  11 0 0 5
2  21 4 9 0 5
2  22 9 0 0 5
4 G2 4 9 9 0
0

0101000
+55 0 -71 0 *
Ed
 1e-07 1 1 0
1  12 0 -4 1
2  23 4 9 -4 1
2  24 5 11 -4 1
4 C0 4 9 5 11
0

0101000
+57 0 -69 0 *
Wi

0101100
-50 16 +68 16 +49 16 -54 16 *
Fa
0  1e-07 4 2

0101000
+48 0 *
Wi

0101100
+61 17 +67 17 -49 17 -56 17 *
Fa
0  1e-07 5 0

0101000
+46 0 *
Ve
1e-07
0 -0.406525665016193 -0.999999999999999
0 0

0101101
*
Ed
 1e-07 1 1 0
1  13 0 0 10.4065256650162
2  25 3 0 0 10.4065256650162
2  26 9 0 0 10.4065256650162
4 C0 3 0 9 0
0

0101000
+71 0 -44 0 *
Ve
0.000808277046313418
40 -0.406525665016193 -0.999999999999999
0 0

0101101
*
Ed
 1e-07 1 1 0
1  14 0 0 40
2  27 3 0 0 40
2  28 10 19 0 40
4 G2 3 0 10 19
0

0101000
+44 0 -42 0 *
Ed
 1e-07 1 1 0
1  15 0 0 10.5969701526729
2  29 3 0 0 10.5969701526729
2  30 6 0 0 10.5969701526729
4 C0 3 0 6 0
0

0101000
+42 0 -74 0 *
Wi

0101100
+43 0 +41 0 +40 0 +70 0 *
Fa
0  1e-07 3 0

0101000
+39 0 *
Ve
1e-07
0 -0.406525665016193 4
0 0

0101101
*
Ed
 1e-07 1 1 0
1  16 0 0 5
2  31 9 0 0 5
2  32 4 21 0 5
4 G2 9 0 4 21
0

0101000
+44 0 -37 0 *
Ed
 1e-07 1 1 0
1  17 0 0 10.4065256650162
2  33 9 0 0 10.4065256650162
2  34 8 0 0 10.4065256650162
4 C0 9 0 8 0
0

0101000
+37 0 -55 0 *
Wi

0101100
+43 0 +36 0 +35 0 +50 0 *
Fa
0  1e-07 9 0

0101000
+34 0 *
Ve
0.000290288328473734
40 -0.406525665016193 4
0 0

0101101
*
Ed
 1e-07 1 1 0
1  18 0 0 10.5969701526729
2  35 6 0 0 10.5969701526729
2  36 8 0 0 10.5969701526729
4 C0 6 0 8 0
0

0101000
+64 0 -32 0 *
Ed
 1e-07 1 1 0
1  19 0 0 5
2  37 6 0 0 5
2  38 11 23 0 5
4 C0 6 0 11 23
0

0101000
+32 0 -42 0 *
Wi

0101100
+31 0 +30 0 +40 0 +63 0 *
Fa
0  1e-07 6 0

0101000
+29 0 *
Ed
 1e-07 1 1 0
1  20 0 0 40
2  39 8 0 0 40
2  40 12 25 0 40
4 G2 8 0 12 25
0

0101000
+32 0 -37 0 *
Wi

0101100
+31 0 +27 0 +35 0 -53 0 *
Fa
0  1e-07 8 0

0101000
+26 0 *
Ve
1e-07
48 -40.4065256650162 -0.999999999999997
0 0

0101101
*
Ed
 1e-07 1 1 0
1  21 0 -5.00096144602373 35.7911946627185
2  41 10 19 -5.00096144602373 35.7911946627185
2  42 11 23 -5.00096144602373 35.7911946627185
4 C0 10 19 11 23
0

0101000
+42 0 -24 0 *
Ve
1e-07
0 -40.4065256650162 -0.999999999999997
0 0

0101101
*
Ed
 1e-07 1 1 0
1  22 0 -35.5 12.5
2  43 10 19 -35.5 12.5
2  44 13 28 -35.5 12.5
4 C0 10 19 13 28
0

0101000
+24 0 -22 0 *
Ed
 1e-07 1 1 0
1  23 0 5 45
2  45 10 19 5 45
2  46 4 21 5 45
4 C0 10 19 4 21
0

0101000
+44 0 -22 0 *
Wi

0101100
+23 26 +21 26 -20 26 +41 26 *
Fa
0  1e-07 10 0

0101000
+19 0 *
Ve
1e-07
0 -40.4065256650162 4.00000000000001
0 0

0101101
*
Ed
 1e-07 1 1 0
1  24 0 5 45
2  47 4 21 5 45
2  48 12 25 5 45
4 C0 4 21 12 25
0

0101000
+37 0 -17 0 *
Ed
 1e-07 1 1 0
1  25 0 0 5
2  49 4 21 0 5
2  50 13 28 0 5
4 C0 4 21 13 28
0

0101000
+17 0 -22 0 *
Wi

0101100
-16 29 -15 29 +20 29 -36 29 *
Fa
0  1e-07 4 2

0101000
+14 0 *
Ve
1e-07
48 -40.4065256650162 4.00000000000001
0 0

0101101
*
Ed
 1e-07 1 1 0
1  26 0 -35.7911946627185 5.00096144602374
2  51 11 23 -35.7911946627185 5.00096144602374
2  52 12 25 -35.7911946627185 5.00096144602374
4 C0 11 23 12 25
0

0101000
+12 0 -32 0 *
Ed
 1e-07 1 1 0
1  27 0 2.76 7.76
2  53 11 23 2.76 7.76
2  54 13 28 2.76 7.76
4 C0 11 23 13 28
0

0101000
+24 0 -12 0 *
Wi

0101100
-30 30 -11 30 -10 30 -23 30 *
Fa
0  1e-07 11 0

0101000
-9 0 *
Ed
 1e-07 1 1 0
1  28 0 -35.5 12.5
2  55 12 25 -35.5 12.5
2  56 13 28 -35.5 12.5
4 C0 12 25 13 28
0

0101000
+12 0 -17 0 *
Wi

0101100
+11 31 +27 31 +16 31 -7 31 *
Fa
0  1e-07 12 0

0101000
-6 0 *
Wi

0101100
+10 32 +7 32 +15 32 -21 32 *
Fa
0  1e-07 13 0

0101000
+4 0 *
Sh

0101100
-65 4 +58 7 +51 14 +47 8 +45 11 -38 0 +33 0 +28 0 -25 0 +18 19 
+13 20 -8 23 -5 25 +3 28 *
So

1100000
+2 0 *

+1 1  