
CASCADE Topology V1, (c) Matra-Datavision
Locations 86
1
              1               0               0               0 
              0               1               0               0 
              0               0               1               0 
1
              1               0               0               0 
              0               1               0               0 
              0               0               1               0 
1
              1               0               0               0 
              0               1               0               0 
              0               0               1               0 
2  2 1 3 1 0
2  3 -1 2 -1 0
1
              1               0               0               0 
              0               1               0               0 
              0               0               1               0 
2  2 1 6 1 0
1
              1               0               0               0 
              0               1               0               0 
              0               0               1               0 
2  2 1 8 1 0
1
              1               0               0               0 
              0               1               0               0 
              0               0               1               0 
2  2 1 10 1 0
1
              1               0               0               0 
              0               1               0               0 
              0               0               1               0 
2  2 1 12 1 0
1
              1               0               0               0 
              0               1               0               0 
              0               0               1               0 
2  2 1 14 1 0
1
              1               0               0               0 
              0               1               0               0 
              0               0               1               0 
2  2 1 16 1 0
1
              1               0               0               0 
              0               1               0               0 
              0               0               1               0 
2  2 1 18 1 0
1
              1               0               0               0 
              0               1               0               0 
              0               0               1               0 
2  2 1 20 1 0
1
              1               0               0               0 
              0               1               0               0 
              0               0               1               0 
2  2 1 22 1 0
1
              1               0               0               0 
              0               1               0               0 
              0               0               1               0 
2  2 1 24 1 0
2  6 -1 2 -1 0
1
              1               0               0               0 
              0               1               0               0 
              0               0               1               0 
2  2 1 27 1 0
2  8 -1 2 -1 0
2  10 -1 2 -1 0
2  12 -1 2 -1 0
2  14 -1 2 -1 0
2  16 -1 2 -1 0
2  18 -1 2 -1 0
2  20 -1 2 -1 0
2  22 -1 0
2  27 -1 2 -1 0
2  24 -1 0
1
0.986705865578194 0.162516260212897               0 -2.66801360027078 
-0.162516260212897 0.986705865578194               0 83.1184006164115 
              0               0               1               0 
2  2 1 39 1 0
1
0.986705865578194 0.162516260212897               0 -2.66801360027078 
-0.162516260212897 0.986705865578194               0 83.1184006164115 
              0               0               1               0 
2  2 1 41 1 0
1
0.986705865578194 0.162516260212897               0 -2.66801360027078 
-0.162516260212897 0.986705865578194               0 83.1184006164115 
              0               0               1               0 
2  2 1 43 1 0
1
0.986705865578194 0.162516260212897               0 -2.66801360027078 
-0.162516260212897 0.986705865578194               0 83.1184006164115 
              0               0               1               0 
2  2 1 45 1 0
2  39 -1 2 -1 0
1
0.986705865578194 0.162516260212897               0 -2.66801360027078 
-0.162516260212897 0.986705865578194               0 83.1184006164115 
              0               0               1               0 
2  2 1 48 1 0
1
0.986705865578194 0.162516260212897               0 -2.66801360027078 
-0.162516260212897 0.986705865578194               0 83.1184006164115 
              0               0               1               0 
2  2 1 50 1 0
1
0.986705865578194 0.162516260212897               0 -2.66801360027078 
-0.162516260212897 0.986705865578194               0 83.1184006164115 
              0               0               1               0 
2  2 1 52 1 0
1
0.986705865578194 0.162516260212897               0 -2.66801360027078 
-0.162516260212897 0.986705865578194               0 83.1184006164115 
              0               0               1               0 
2  2 1 54 1 0
1
0.986705865578194 0.162516260212897               0 -2.66801360027078 
-0.162516260212897 0.986705865578194               0 83.1184006164115 
              0               0               1               0 
2  2 1 56 1 0
1
0.986705865578194 0.162516260212897               0 -2.66801360027078 
-0.162516260212897 0.986705865578194               0 83.1184006164115 
              0               0               1               0 
2  2 1 58 1 0
1
0.986705865578194 0.162516260212897               0 -2.66801360027078 
-0.162516260212897 0.986705865578194               0 83.1184006164115 
              0               0               1               0 
2  2 1 60 1 0
2  41 -1 0
2  43 -1 0
2  45 -1 2 -1 0
2  48 -1 2 -1 0
2  50 -1 2 -1 0
2  52 -1 2 -1 0
2  54 -1 2 -1 0
2  56 -1 2 -1 0
2  58 -1 2 -1 0
2  60 -1 2 -1 0
1
0.162516260212914 -0.986705865578192               0 526.984811008447 
0.986705865578192 0.162516260212914               0 -425.260681010286 
              0               0               1               0 
2  2 1 72 1 0
1
0.162516260212914 -0.986705865578192               0 526.984811008447 
0.986705865578192 0.162516260212914               0 -425.260681010286 
              0               0               1               0 
2  2 1 74 1 0
1
0.162516260212914 -0.986705865578192               0 526.984811008447 
0.986705865578192 0.162516260212914               0 -425.260681010286 
              0               0               1               0 
2  2 1 76 1 0
1
0.162516260212914 -0.986705865578192               0 526.984811008447 
0.986705865578192 0.162516260212914               0 -425.260681010286 
              0               0               1               0 
2  2 1 78 1 0
2  72 -1 2 -1 0
1
0.162516260212914 -0.986705865578192               0 526.984811008447 
0.986705865578192 0.162516260212914               0 -425.260681010286 
              0               0               1               0 
2  2 1 81 1 0
2  74 -1 0
2  76 -1 0
2  78 -1 2 -1 0
2  81 -1 2 -1 0
Curve2ds 172
1 31.151541910553767 11.959123134400027 0 -1 
1 94.662472317006845 -112.5046713144441 0 -1 
2 26.151541910553807 23.918246268800107 0.41772461369753383 -0.90857368832211205 -0.90857368832211205 -0.41772461369753383 4.9999999999999902
1 6.283185307179588 -18.658624952701331 -1 4.986891224829426e-14 
1 5.4071467052708693 8.8777001368158857 -0.90857368832210739 -0.41772461369754388 
1 -8.6212250854809902 18.658624952699828 -1 -3.5767795779980807e-15 
2 11.151541910554101 17.021866496858511 -1 0 0 1 5.0000000000000266
1 6.2831853071796573 -18.658624952698453 -1 -2.8397062894491444e-14 
1 6.1515419105539069 62.231897224422156 0 1 
1 -94.662472317006788 -62.231897224421957 0 1 
2 11.151541910554101 182.97813350314146 -1 0 0 1 5.0000000000000266
1 0 18.658624952698631 1 -2.8397062894491519e-14 
1 43.360506002280935 173.67291457430846 0.90857368832210961 -0.41772461369753888 
1 33.15123628427277 18.658624952699157 1 5.9360035053265375e-15 
2 26.151541910553807 176.08175373119988 0.41772461369753383 0.90857368832211205 0.90857368832211205 -0.41772461369753383 4.9999999999999902
1 0 18.658624952701018 1 4.986891224829426e-14 
1 48.030634878256983 177.25608825020052 -0.90857368832210961 0.41772461369753888 
1 -0.42578186817788594 30.805404045629807 -0.14765799795393095 -0.98903848036375053 
1 0 0 0 1 
8 0.66141182927059816 199.33858817072934
1 -0.34289555560802215 -99.999999999999929 0 1 
1 10.07727558124709 5.2945264609236418 0.90857368832210739 0.41772461369754388 
1 -6.5938198836419444 -10.509167668565102 0.14765799795393292 0.98903848036375019 
1 37.303083821107663 0 0 1 
8 17.811827342266145 182.18817265773384
1 -2.9312689101660534 -99.999999999999986 -0 1 
1 91.662472317005893 -62.231897224421957 0 1 
1 6.1515419105534042 62.231897224422156 0 1 
1 113.32109726970528 -100.54554818004401 -1 0 
1 1.1398568025263529 -2.2026824808563106e-12 7.4014868308321332e-17 -1 
1 113.32109726970528 51.61795928235577 -1 0 
1 1.139856802526368 2.2026824808563106e-12 -7.401486830832133e-16 1 
1 0 -6.4304117586289067e-13 0 -1 
1 16.509392900977684 -1.1196522278292144e-12 -1.274834747924494e-14 1 
1 0 -21.658624952701871 1 0 
2 11.15154191055359 23.918246268800107 -0.41772461369753378 -0.90857368832211194 -0.90857368832211194 0.41772461369753378 4.9999999999999902
1 8.325075141085545 21.658624952698101 1 6.6021373201016314e-15 
1 16.498974615570933 15.956586852560743 -0.90857368832210728 0.41772461369754393 
1 0 0 5.9771578040497535e-17 1 
1 2.0017358510634842 -6.6791017161449417e-13 -1.6283271027831002e-15 -1 
1 0 -2.7355895326763857e-13 0 -1 
1 -113.32109726970539 -107.4419279519856 1 0 
1 0 -21.658624952699483 1 2.8397062894491885e-14 
2 26.151541910553306 17.021866496858511 1 0 0 -1 5.0000000000000169
1 -91.662472317006007 -111.69569167326614 0 -1 
1 31.15154191055349 12.768102775577972 -0 -1 
1 -113.32109726970539 58.514339054297352 1 0 
1 0 2.7355895326763857e-13 0 1 
1 2.0017358510634859 6.6791017161449417e-13 -1.7763568393997456e-15 1 
1 0 0 5.9771578040497535e-17 1 
1 6.2831853071796271 21.658624952699306 -1 2.8397062894491885e-14 
2 26.151541910553306 182.97813350314146 1 0 0 -1 5.0000000000000169
1 50.097536510838921 21.658624952700023 -1 -1.0016073120823987e-14 
1 -21.454384681438704 166.59402785856361 0.90857368832210961 0.41772461369753888 
1 16.50939290097768 -1.1196522278292144e-12 -1.274834747924494e-14 1 
1 0 6.4304117586289067e-13 0 1 
1 6.2831853071795845 21.658624952701871 -1 0 
2 11.15154191055359 176.08175373119988 -0.41772461369753378 0.90857368832211194 0.90857368832211194 0.41772461369753378 4.9999999999999902
1 -0.89765493264675744 48.009968272793117 0.14765799795392695 0.98903848036375119 
1 -26.038293065399287 169.98966728851752 -0.90857368832210961 -0.41772461369753888 
1 -2.1691833472277149 19.127803283074783 -0.98388895620538042 0.17878065291604414 
7 0 0  1 2 2  0 1  0 0 
 0 2 3.0085891076081612 2
1 -11.191658620976289 -20.941025956051323 0.98388895620533956 -0.17878065291626921 
7 0 0  1 2 2  0 0  0 1 
 0 2 3.0085891076082283 2
1 0 0 0 1 
1 2.9105106794448039 -100 0 1 
1 11.915066231610762 12.560947422606802 0.90857368832210972 -0.41772461369753883 
1 -7.0656929481133171 6.6953965585985165 -0.14765799795392792 -0.98903848036375108 
1 37.303083821106895 0 0 1 
1 0.34328575713742798 -100.00000000000003 0 1 
1 -5.1293009439631856 19.665680808089057 0.98388895620538075 -0.17878065291604223 
7 0 0  1 2 2  0 0  0 1 
 0 2 3.0085891076081599 2
1 -11.191658620976289 -20.941025956051288 0.98388895620533667 -0.17878065291628464 
7 0 0  1 2 2  -0.83041865292102801 1  -0.83041865292102801 0 
 0 2 3.0085891076082372 2
1 -0.34289555560802215 -99.338588170729338 0.94274413577823135 -0.33351685782844009 
7 0 0  1 2 2  -0.83041865292102801 0  0 0 
 0 2 0.72655953742548329 2
1 0.34206418759359652 -99.580908024676773 0 1 
1 -99.580908024676816 -11.49282838955785 1 0 
1 0.34206418759359652 99.580908024676731 -0.94274413577827898 -0.33351685782830537 
7 0 0  1 2 2  0.83041865292103001 1  0 1 
 0 2 0.72655953742544654 2
1 -11.274082254391383 -22.052639507747887 1 -1.895784942862218e-13 
7 0 0  1 2 2  0 1  0 0 
 0 2 3.0000000000006821 2
1 0 1 -1 0 
1 -0.34167398606396221 -99.580908024676631 0.82483665412863649 0.56537111175393129 
1 0 0 1 0 
1 0.34328575713742798 99.111413307653464 -0.82483665412863438 0.56537111175393417 
1 -11.274082254391383 -22.052639507747926 1 -1.5756774761147829e-13 
7 0 0  1 2 2  0.83041865292103001 0  0.83041865292103001 1 
 0 2 3.0000000000006821 2
1 -0.34167398606396221 99.580908024676631 0 -1 
8 0 199.16181604935326
1 -99.580908024676674 -11.492828389558362 1 -0 
2 -80.000000000000028 -2.4999999999999076 0 1 1 -0 2
1 6.2831853071795862 25.467026126963447 -1 0 
2 -80.000000000000028 -2.4999999999999076 0 1 1 -0 2
1 6.2831853071795862 25.467026126963447 -1 0 
2 80.000000000000043 -2.4999999999999076 0 1 1 -0 2
1 0 -25.467026126963447 1 0 
2 80.000000000000043 -2.4999999999999076 0 1 1 -0 2
1 0 -25.467026126963447 1 0 
1 100.00000000000004 0 0 1 
1 1.5000000000015348 0 0 1 
1 0 4.5000000000000355 -1 -0 
1 0 1.5000000000015348 1 0 
1 -99.999999999999986 -11.49282838955785 0 1 
1 1.5000000000015348 -11.49282838955785 3.33066907387547e-15 1 
1 -96.29982386800863 -18.534490297473582 0.42235425819215999 -0.90643084710690991 
1 -8.2740822543906773 -14.284080074460308 1.0728281612309321e-16 1 
1 78.461511926703182 -56.817983100706968 0.42235425819215511 0.90643084710691224 
1 -8.2740822543905512 27.951345744756246 -1.0728281612312987e-16 -1 
1 -1.4927229987365089 -23.044915463760159 1 -2.9938626801485054e-15 
1 8.2813592556557296 -10.59339885418634 1 0 
1 -11.274082254391351 -11.11482239405003 -1.0728281612309321e-16 -1 
1 94.961274391379135 -21.40720322142792 0.42235425819215999 0.90643084710690991 
1 -1.4927229987365089 -23.044915463760177 -1 2.9938626801485054e-15 
1 8.2813592556557296 -10.59339885418634 -1 0 
1 -11.274082254391224 31.120603425166486 1.0728281612312987e-16 1 
1 -77.1229624500737 -59.690696024661293 0.42235425819215511 -0.90643084710691224 
2 80.000000000000028 -2.4999999999999076 0 1 1 -0 2
1 0 22.467026126962764 1 0 
2 80.000000000000028 -2.4999999999999076 0 1 1 -0 2
1 0 22.467026126962764 1 0 
2 -80.000000000000043 -2.4999999999999076 0 1 1 -0 2
1 6.2831853071795862 -22.467026126962764 -1 0 
2 -80.000000000000043 -2.4999999999999076 0 1 1 -0 2
1 6.2831853071795862 -22.467026126962764 -1 0 
1 0 4.5000000000000355 1 0 
1 0 -1.4999999999991473 1 0 
1 -100.00000000000004 0 0 -1 
1 -1.4999999999991473 0 0 -1 
1 99.999999999999986 0 0 1 
1 -1.4999999999991473 0 0 1 
1 3.1415926535897931 23.967026126961912 0 -1 
1 3.1415926535897931 23.967026126961912 0 -1 
1 0 23.967026126961912 0 1 
1 6.2831853071795862 23.967026126961912 0 1 
1 3.1415926535897931 -23.967026126961912 0 1 
1 3.1415926535897931 -23.967026126961912 0 1 
1 6.2831853071795862 -23.967026126961912 0 -1 
1 0 -23.967026126961912 0 -1 
1 0 4.5000000000000355 -1 0 
1 -100.00000000000004 0 0 -1 
1 99.999999999999986 0 0 1 
1 0 4.5000000000000355 1 0 
1 -2.9312689101660534 -82.188172657733844 0.97837132394043491 0.20685635714437414 
7 0 0  1 2 2  0 1  6.3824762216155371 1 
 0 2 6.0367013409968235 2
1 2.9748665730580073 -80.93944260916669 0 1 
1 0 19.060557390833306 0 1 
1 2.9748665730580073 80.939442609166704 -0.97837132394043513 0.206856357144373 
7 0 0  1 2 2  6.3824762216155291 1  0 1 
 0 2 6.0367013409968227 2
1 0 0 1 0 
8 0 6.3824762216155371
1 2.9105106794448035 -81.960997794658027 -0.92536740884708935 0.37907144266434001 
1 6.3824762216155371 0 0 1 
7 0 0  1 2 2  0.98827542262241297 25.394081604744365  0.98827542262240309 22.084397242638708 
 0 2 1 2
1 0 0 1 0 
1 2.9105106794448039 81.960997794657999 -0.92536740884709046 -0.37907144266433718 
1 6.3824762216155291 0 0 1 
7 0 0  1 2 2  0.98827542262241297 25.39408160474435  0.98827542262240309 22.084397242638691 
 0 2 1 2
1 -2.9956248037797271 79.541583325559372 -0 -1 
8 0 159.08316665111874
1 14.737642322985039 179.54158332555937 -0 -1 
1 -0.49413771131116846 180.93944260916669 -1 0 
1 0.49413771131123457 22.084397242638694 -1 2.9938626801485054e-15 
1 -0.49413771131116846 19.060557390833306 1 0 
1 0.49413771131123457 22.084397242638694 1 -2.9938626801485054e-15 
1 14.737642322985039 0 0 1 
1 0 0 0 1 
1 7.8629588728037643 25.394081604744336 -1 2.9938626801485054e-15 
1 7.8629588728036879 20.458416674440624 1 0 
1 15.725917745607397 7.0170448325519921 -5.5885099865196038e-16 1 
1 -13.657513008733176 12.69679694075127 0.90643084710691224 0.42235425819215511 
1 7.8629588728037643 25.394081604744329 1 -2.9938626801485054e-15 
1 7.8629588728036879 179.54158332555937 -1 0 
1 15.725917745607523 49.252470651768434 5.5885099865196038e-16 -1 
1 24.625979794500182 169.46489111794347 -0.90643084710691224 0.42235425819215511 
1 0 0 0 1 
1 3.0000000000001847 0 0 1 
Curves 86
1 512.80491889617554 88.781959850258318 29.509281098027408 0 0 -1 
2 511.99233759511071 83.848430522367437 41.468404232427488 -0.98670586557819773 0.16251626021287793 -1.7347234759768071e-15 0.067887042016993859 0.41217132653174299 -0.90857368832211194 -0.14765799795392989 -0.89649498757744517 -0.41772461369753378 4.9999999999999893
1 508.62103606596952 63.37981409544264 26.427858100443267 -0.14765799795392998 -0.89649498757744039 -0.41772461369754388 
2 509.55459369191885 69.047842538694553 34.572024460485892 -0.98670586557819695 0.16251626021288201 0 -0.16251626021288201 -0.98670586557819695 0 0 0 1 5.0000000000000151
1 508.74201239085409 64.114313210803431 79.78205518804954 0 0 1 
2 509.55459369191885 69.047842538694553 200.52829146676885 -0.98670586557819695 0.16251626021288201 0 -0.16251626021288201 -0.98670586557819695 0 0 0 1 5.0000000000000151
1 514.78907408143607 100.82861633219916 191.22307253793585 0.14765799795392801 0.89649498757744306 -0.41772461369753899 
2 511.99233759511071 83.848430522367437 193.63191169482727 -0.98670586557819773 0.16251626021287793 1.7347234759768071e-15 0.067887042016993859 0.41217132653174299 0.90857368832211194 0.14765799795392989 0.89649498757744517 -0.41772461369753378 4.9999999999999893
1 515.54804596107113 105.43665988713096 194.8062462138279 -0.14765799795392801 -0.89649498757744306 0.41772461369753899 
1 507.74228680500829 58.044550725309755 17.550157963627381 0 0 1 
1 509.38000794560719 67.987857650374181 22.844684424551023 0.14765799795392998 0.89649498757744039 0.41772461369754388 
1 513.80464448202133 94.851722335751987 17.550157963627381 0 0 1 
1 509.84480129944001 89.269508630897178 79.78205518804954 0 0 1 
1 531.2154935806268 85.749629902230822 41.468404232427488 -0.98670586557819928 0.16251626021286808 0 
1 531.2154935806268 85.749629902230822 193.63191169482727 -0.98670586557819928 0.16251626021286808 0 
1 530.74234748964886 82.876957206998668 36.925535790817037 -0.98670586557819928 0.16251626021286808 0 
2 509.0322199983753 84.335979303006056 41.468404232427488 0.98670586557819806 -0.16251626021287502 3.1502578323738809e-15 0.067887042016993929 0.41217132653174304 -0.90857368832211205 0.14765799795392667 0.89649498757744572 0.41772461369753378 4.9999999999999893
1 508.16317523341775 79.059636087180436 33.506744816188125 0.14765799795392695 0.89649498757744084 0.41772461369754393 
1 528.3046035864545 68.076369223325784 30.029156018875188 -0.98670586557819695 0.16251626021288199 0 
1 527.15258707530552 61.081983262775935 34.572024460485892 -0.98670586557819695 0.16251626021288199 0 
2 506.59447609518344 69.535391319333172 34.572024460485892 0.98670586557819695 -0.16251626021288201 0 -0.16251626021288201 -0.98670586557819695 0 0 0 -1 5.0000000000000151
1 505.78189479411867 64.60186199144205 30.318260739205353 0 0 -1 
1 527.15258707530552 61.081983262775935 200.52829146676885 -0.98670586557819695 0.16251626021288199 0 
1 528.3046035864545 68.076369223325784 205.07115990837957 -0.98670586557819695 0.16251626021288199 0 
2 506.59447609518344 69.535391319333172 200.52829146676885 0.98670586557819695 -0.16251626021288201 0 -0.16251626021288201 -0.98670586557819695 0 0 0 -1 5.0000000000000151
1 514.33121324888168 116.50843832393696 184.14418582219099 -0.14765799795392398 -0.89649498757744372 0.41772461369753888 
1 530.74234748964886 82.876957206998668 198.1747801364377 -0.98670586557819928 0.16251626021286808 0 
2 509.0322199983753 84.335979303006056 193.63191169482727 0.98670586557819806 -0.16251626021287502 -3.1502578323738809e-15 0.067887042016993929 0.41217132653174304 0.90857368832211205 -0.14765799795392667 -0.89649498757744572 0.41772461369753378 4.9999999999999893
1 515.0761728966022 121.0314076136638 187.53982525214491 0.14765799795392398 0.89649498757744372 -0.41772461369753888 
1 513.80464448202133 94.851722335751987 199.73833062136123 -0.98388895620538086 0.1620522986689818 -0.075508770041532863 
1 504.78216920827288 58.532099505948878 216.66157127128088 0.98388895620534 -0.16205229866923088 0.075508770041531184 
1 510.84452688528586 95.33927111639035 17.550157963627381 0 0 1 
1 508.90813488113577 83.582605376907296 30.111105386234183 -0.14765799795392495 -0.89649498757744361 -0.41772461369753877 
1 504.78216920827288 58.532099505948878 17.550157963627381 0 0 1 
1 510.84452688528586 95.33927111639035 35.589160168969357 0.9838889562053813 -0.16205229866898188 -0.075508770041528173 
1 504.78216920827288 58.532099505948878 18.438744655973938 0.98388895620533712 -0.1620522986692304 -0.075508770041568751 
1 507.74228680500829 58.044550725309755 18.211569792897979 -0.15321125128448723 -0.93021116851179853 -0.33351685782844004 
1 507.63096970914665 57.368696929007804 17.969249938950547 0 0 1 
1 507.63096970914665 57.368696929007804 217.13106598830404 0.15321125128449498 0.9302111685118456 -0.33351685782830531 
1 504.67085211241152 57.856245709647112 17.969249938950774 0.98670586557816675 -0.16251626021306539 -7.57912251477268e-14 
1 504.67085211241152 57.856245709647112 17.969249938950774 0.13404936831535555 0.81387116477264265 0.56537111175393129 
1 504.78216920827288 58.532099505948878 216.66157127128088 -0.13404936831535524 -0.81387116477264065 0.56537111175393417 
1 504.67085211241152 57.856245709647112 217.13106598830404 0.98670586557816675 -0.16251626021306539 0 
1 504.67085211241152 57.856245709647112 217.13106598830404 0 0 -1 
2 506.16948887053934 48.495420408892876 37.550157963627342 -0.98670586557819451 0.16251626021289714 0 -0.16251626021289714 -0.98670586557819451 0 0 0 1 2.0000000000000009
2 506.16948887053934 48.495420408892876 37.550157963627342 -0.98670586557819451 0.16251626021289714 0 -0.16251626021289714 -0.98670586557819451 0 0 0 1 2.0000000000000009
2 506.16948887053934 48.495420408892876 197.55015796362741 -0.98670586557819451 0.16251626021289714 0 -0.16251626021289714 -0.98670586557819451 0 0 0 1 2.0000000000000009
2 506.16948887053934 48.495420408892876 197.55015796362741 -0.98670586557819451 0.16251626021289714 0 -0.16251626021289714 -0.98670586557819451 0 0 0 1 2.0000000000000009
1 505.7631982200071 46.028655744947478 217.55015796362741 -0.16251626021289714 -0.98670586557819451 0 
1 505.03187504904906 41.588479349845571 117.55015796362737 0 0 -1 
1 507.63096970914665 57.368696929007804 17.550157963627381 -0.16251626021289384 -0.98670586557819495 0 
1 508.77535426810476 64.316746036966805 21.250334095618737 0.14730975141342051 0.89438063358140008 0.42235425819216005 
1 514.99704434637363 102.09129294073777 196.01166989033055 -0.14730975141342084 -0.8943806335814023 0.42235425819215511 
1 514.17600473888001 55.379143385393434 17.550157963627381 0.98670586557819451 -0.16251626021289714 0 
1 506.28209923243583 67.63881750979364 22.588883572248239 -0.14730975141342051 -0.89438063358140008 -0.42235425819216005 
1 514.17600473888001 55.379143385393434 217.55015796362741 -0.98670586557819451 0.16251626021289714 0 
1 512.50378931070463 105.41336441356459 194.67312041370107 0.14730975141342084 0.8943806335814023 -0.42235425819215511 
2 503.20937127380409 48.98296918953168 37.550157963627342 0.98670586557819451 -0.16251626021289714 0 -0.16251626021289714 -0.98670586557819451 0 0 0 -1 2.0000000000000009
2 503.20937127380409 48.98296918953168 37.550157963627342 0.98670586557819451 -0.16251626021289714 0 -0.16251626021289714 -0.98670586557819451 0 0 0 -1 2.0000000000000009
2 503.20937127380409 48.98296918953168 197.55015796362741 0.98670586557819451 -0.16251626021289714 0 -0.16251626021289714 -0.98670586557819451 0 0 0 -1 2.0000000000000009
2 503.20937127380409 48.98296918953168 197.55015796362741 0.98670586557819451 -0.16251626021289714 0 -0.16251626021289714 -0.98670586557819451 0 0 0 -1 2.0000000000000009
1 502.07175745231382 42.076028130484374 117.55015796362737 0 0 -1 
1 502.80308062327185 46.516204525586282 217.55015796362741 0.16251626021289714 0.98670586557819451 0 
1 502.80308062327185 46.516204525586282 17.550157963627381 -0.16251626021289714 -0.98670586557819451 0 
1 505.01446259259632 50.712606530368994 37.550157963627342 -0.98670586557819451 0.16251626021289714 -0 
1 504.36439755174473 46.765783068056209 37.550157963627342 0.98670586557819451 -0.16251626021289714 0 
1 505.01446259259632 50.712606530368994 197.55015796362741 -0.98670586557819451 0.16251626021289714 0 
1 504.36439755174473 46.765783068056209 197.55015796362741 0.98670586557819451 -0.16251626021289714 0 
1 503.55181625068025 41.832253740165172 217.55015796362741 -0.98670586557819451 0.16251626021289714 0 
1 503.55181625068025 41.832253740165172 17.550157963627381 0.98670586557819451 -0.16251626021289714 0 
1 513.80464448202133 94.851722335751987 35.361985305893526 0.15900124866631574 0.96536472404553475 0.20685635714437411 
1 514.76448753306545 100.6793408599487 36.610715354460687 0 0 1 
1 514.76448753306545 100.6793408599487 198.48960057279407 -0.15900124866631576 -0.96536472404553497 0.20685635714437298 
1 510.84452688528586 95.33927111639035 35.589160168969357 0.15038725060883515 0.91306545012430052 0.37907144266434001 
7 0 0  1 2 2  511.80436993633089 101.16688964058739 38.008574638068005  514.76448753306545 100.6793408599487 36.610715354460687 
 0 2 1 2
1 510.84452688528586 95.33927111639035 199.51115575828538 0.15038725060883534 0.91306545012430163 -0.37907144266433718 
7 0 0  1 2 2  511.80436993633089 101.16688964058739 197.09174128918676  514.76448753306545 100.6793408599487 198.48960057279407 
 0 2 1 2
1 511.80436993633089 101.16688964058739 197.09174128918676 0 0 -1 
1 514.68418212019299 100.1917722817945 198.48960057279407 -0.16251626021291377 -0.98670586557819173 0 
1 514.68418212019299 100.1917722817945 36.610715354460687 0.16251626021291377 0.98670586557819173 0 
1 517.15959404775253 115.22105898483136 17.550157963627381 0 0 1 
1 512.92161778080197 107.95018012487463 38.008574638068005 -0.16251626021291377 -0.98670586557819173 0 
1 530.63554224268 113.00149104684289 30.246954904378651 -0.89438063358139996 0.1473097514134353 0.42235425819215511 
1 512.92161778080197 107.95018012487463 197.09174128918676 0.16251626021291377 0.98670586557819173 0 
1 492.86099533890911 119.22318112511238 187.01504908157085 0.89438063358139996 -0.1473097514134353 0.42235425819215511 
1 514.19947645101774 115.70860776547016 17.550157963627381 0 0 1 
Polygon3D 0
PolygonOnTriangulations 0
Surfaces 32
1 507.74228680500829 58.044550725309755 17.550157963627381 0.98670586557819773 -0.16251626021287796 0 0.16251626021287796 0.98670586557819773 0 -0 0 1 
1 419.4009022108512 104.16615083372389 142.0139524124715 -0.16251626021288201 -0.98670586557819695 0 0.98670586557819695 -0.16251626021288201 0 0 0 1 
2 530.40291227956459 80.816100574339941 41.468404232427488 0.98670586557819695 -0.16251626021288201 -1.1191741977611999e-17 0.067887042016993998 0.41217132653174299 -0.90857368832211205 0.14765799795393433 0.8964949875774445 0.41772461369753378 4.9999999999999893
1 528.3046035864545 68.076369223325784 30.029156018875188 -0.067887042016994734 -0.41217132653174615 0.9085736883221105 0.147657997953934 0.89649498757744306 0.41772461369753705 -0.98670586557819695 0.16251626021288204 -2.081668171172168e-16 
2 527.96516837637023 66.015512590666816 34.572024460485892 0.98670586557819695 -0.16251626021288201 0 -0.16251626021288201 -0.98670586557819695 0 0 -0 -1 5.0000000000000151
1 415.33799570552981 79.498504194268989 142.0139524124715 0.16251626021288201 0.98670586557819695 0 -0.98670586557819695 0.16251626021288201 0 0 -0 1 
2 527.96516837637023 66.015512590666816 200.52829146676885 -0.98670586557819695 0.16251626021288201 0 -0.16251626021288201 -0.98670586557819695 0 0 0 1 5.0000000000000151
1 528.3046035864545 68.076369223325784 205.07115990837957 0.067887042016994734 0.41217132653174615 0.9085736883221105 0.147657997953934 0.89649498757744306 -0.41772461369753705 -0.98670586557819695 0.16251626021288204 2.081668171172168e-16 
2 530.40291227956459 80.816100574339941 193.63191169482727 -0.98670586557819695 0.16251626021288201 -1.1191741977611999e-17 0.067887042016993998 0.41217132653174299 0.90857368832211205 0.14765799795393433 0.8964949875774445 -0.41772461369753378 4.9999999999999893
1 515.9738278292491 77.513691402580179 207.8170397878298 -1.3949995804304195e-15 0.42235425819216488 0.90643084710690769 1 3.3029134982598372e-15 -2.5637979419682877e-30 -2.9938626801485054e-15 0.90643084710690769 -0.42235425819216488 
1 507.68656070166713 57.706213669310642 117.55015796362731 -0.98670586557816486 0.1625162602130768 -0 -0.1625162602130768 -0.98670586557816486 0 0 0 1 
1 515.9738278292491 77.513691402580179 27.283276139424945 1.3949995804304195e-15 -0.42235425819216488 0.90643084710690769 1 3.3029134982598372e-15 2.5637979419682877e-30 -2.9938626801485054e-15 0.90643084710690769 0.42235425819216488 
1 514.28102334297967 97.744022562999859 117.55015796362737 0.98670586557819862 -0.16251626021287197 0 0.16251626021287197 0.98670586557819862 0 -0 0 1 
1 510.84452688528586 95.33927111639035 17.550157963627381 -0.98670586557819828 0.16251626021287405 0 -0.16251626021287405 -0.98670586557819828 0 0 0 1 
9 0 0 0 0 1 1 2 2 2 2 510.84452688528586 95.33927111639035 199.51115575828538  513.80464448202133 94.851722335751987 199.73833062136123  
511.80436993633089 101.16688964058739 197.09174128918676  514.76448753306545 100.6793408599487 198.48960057279407  

0 2
6.3824762216155291 2

0 2
1 2

9 0 0 0 0 1 1 2 2 2 2 504.78216920827288 58.532099505948878 216.66157127128088  507.74228680500829 58.044550725309755 216.88874613435672  
504.67085211241152 57.856245709647112 217.13106598830404  507.63096970914665 57.368696929007804 217.13106598830404  

0 2
0.83041865292103001 2

0 2
1 2

1 511.3175321962193 98.211089075626461 117.55015796362738 -0.98670586557817541 0.16251626021301302 -0 -0.16251626021301302 -0.98670586557817541 0 0 0 1 
1 504.7263796908386 58.193377435811918 117.55015796362741 0.98670586557822426 -0.16251626021271609 0 0.16251626021271609 0.98670586557822426 0 -0 0 1 
9 0 0 0 0 1 1 2 2 2 2 510.84452688528586 95.33927111639035 35.589160168969357  513.80464448202133 94.851722335751987 35.361985305893526  
511.80436993633089 101.16688964058739 38.008574638068005  514.76448753306545 100.6793408599487 36.610715354460687  

0 2
6.3824762216155371 2

0 2
1 2

9 0 0 0 0 1 1 2 2 2 2 507.74228680500829 58.044550725309755 18.211569792897979  504.78216920827288 58.532099505948878 18.438744655973938  
507.63096970914665 57.368696929007804 17.969249938950547  504.67085211241152 57.856245709647112 17.969249938950774  

-0.83041865292102801 2
0 2

0 2
1 2

1 507.69974557485847 46.031670303070641 117.55015796362737 1 -0 0 0 0 1 -0 -1 0 
1 504.69974557485779 46.031670303070641 117.55015796362737 -1 0 -0 0 0 -1 0 -1 -0 
2 482.23271944789502 48.531670303070548 37.550157963627342 1 0 0 0 -1 0 0 0 -1 2.0000000000000009
2 482.23271944789502 48.531670303070548 37.550157963627342 1 0 0 0 -1 0 0 0 -1 2.0000000000000009
2 482.23271944789502 48.531670303070548 197.55015796362741 -1 0 0 0 -1 0 0 0 1 2.0000000000000009
2 482.23271944789502 48.531670303070548 197.55015796362741 -1 0 0 0 -1 0 0 0 1 2.0000000000000009
1 506.19974557485693 46.031670303070641 217.55015796362741 0 0 -1 1 0 0 0 -1 0 
1 506.19974557485693 41.531670303070605 117.55015796362737 -0 -1 -0 0 0 -1 1 -0 0 
1 506.19974557485693 46.031670303070641 17.550157963627381 0 0 -1 1 0 0 0 -1 0 
1 516.96210325187144 97.531670303070641 17.550157963627381 2.8207856787701002e-15 -1 0 1 2.8207856787701002e-15 0 -0 0 1 
1 531.69974557485648 100.53167030307083 17.550157963627381 -3.3029134982598399e-15 1 0 -1 -3.3029134982598399e-15 0 0 0 1 
1 531.69974557485648 97.531670303070641 17.550157963627381 1 3.3029134982598399e-15 0 -3.3029134982598399e-15 1 0 0 -0 1 
Triangulations 0

TShapes 218
Ve
1e-07
512.804918896176 88.7819598502583 193.631911694827
0 0

0101101
*
Ve
1e-07
512.804918896176 88.7819598502583 41.4684042324275
0 0

0101101
*
Ed
 1e-07 1 1 0
1  1 0 -164.1226305968 -11.9591231344001
2  1 1 4 -164.1226305968 -11.9591231344001
2  2 2 7 -164.1226305968 -11.9591231344001
4 C0 1 4 2 7
0

0101000
+218 0 -217 0 *
Ve
1e-07
512.331772805195 85.9092871550262 36.925535790817
0 0

0101101
*
Ed
 1e-07 1 1 0
1  2 0 5.14332850465323 6.28318530717959
2  3 1 4 5.14332850465323 6.28318530717959
2  4 3 9 5.14332850465323 6.28318530717959
4 C0 1 4 3 9
0

0101000
+217 0 -215 0 *
Ve
1e-07
509.894028902003 71.1086991713533 30.0291560188752
0 0

0101101
*
Ed
 1e-07 1 1 0
1  3 0 -25.1306179864585 -8.62122508548114
2  5 1 4 -25.1306179864585 -8.62122508548114
2  6 4 11 -25.1306179864585 -8.62122508548114
4 C0 1 4 4 11
0

0101000
+215 0 -213 0 *
Ve
1e-07
508.742012390854 64.1143132108034 34.5720244604859
0 0

0101101
*
Ed
 1e-07 1 1 0
1  4 0 4.28144945611618 6.28318530717959
2  7 1 4 4.28144945611618 6.28318530717959
2  8 5 13 4.28144945611618 6.28318530717959
4 C0 1 4 5 13
0

0101000
+213 0 -211 0 *
Ve
1e-07
508.742012390854 64.1143132108034 200.528291466769
0 0

0101101
*
Ed
 1e-07 1 1 0
1  5 0 -45.2100307275636 120.746236278719
2  9 1 4 -45.2100307275636 120.746236278719
2  10 6 15 -45.2100307275636 120.746236278719
4 C0 1 4 6 15
0

0101000
+211 0 -209 0 *
Ve
1e-07
509.894028902003 71.1086991713533 205.07115990838
0 0

0101101
*
Ed
 1e-07 1 1 0
1  6 0 0 2.00173585106341
2  11 1 4 0 2.00173585106341
2  12 7 17 0 2.00173585106341
4 C0 1 4 7 17
0

0101000
+209 0 -207 0 *
Ve
1e-07
512.331772805195 85.9092871550262 198.174780136438
0 0

0101101
*
Ed
 1e-07 1 1 0
1  7 0 -33.1512362842726 -16.6418433832953
2  13 1 4 -33.1512362842726 -16.6418433832953
2  14 8 19 -33.1512362842726 -16.6418433832953
4 C0 1 4 8 19
0

0101000
+207 0 -205 0 *
Ed
 1e-07 1 1 0
1  8 0 0 1.13985680252635
2  15 1 4 0 1.13985680252635
2  16 9 21 0 1.13985680252635
4 C0 1 4 9 21
0

0101000
+205 0 -218 0 *
Wi

0101100
+216 5 +214 5 +212 5 +210 5 +208 5 +206 5 +204 5 +203 5 *
Ve
1.00000127105749e-07
513.804644482021 94.851722335752 199.738330621361
0 0

0101101
*
Ve
1.00000158882186e-07
507.742286805008 58.0445507253098 216.888746134357
0 0

0101101
*
Ed
 1e-07 1 1 0
1  9 0 11.8070236845184 52.8637748325693
2  17 1 4 11.8070236845184 52.8637748325693
2  18 10 23 11.8070236845184 52.8637748325693
4 C0 1 4 10 23
0

0101000
+201 0 -200 0 *
Ve
1.0000011121753e-07
507.742286805008 58.0445507253098 18.211569792898
0 0

0101101
*
Ed
 1e-07 1 1 0
1  10 0 0.661411829270598 199.338588170729
2  19 1 4 0.661411829270598 199.338588170729
2  20 11 0 0.661411829270598 199.338588170729
4 G2 1 4 11 0
0

0101000
+198 0 -200 0 *
Ve
1.00000114791692e-07
513.804644482021 94.851722335752 35.3619853058935
0 0

0101101
*
Ed
 1e-07 1 1 0
1  11 0 -11.0913134628157 29.9654376852353
2  21 1 4 -11.0913134628157 29.9654376852353
2  22 12 25 -11.0913134628157 29.9654376852353
4 C0 1 4 12 25
0

0101000
+198 0 -196 0 *
Ed
 1e-07 1 1 0
1  12 0 17.8118273422661 182.188172657734
2  23 1 4 17.8118273422661 182.188172657734
2  24 13 0 17.8118273422661 182.188172657734
4 CN 1 4 13 0
0

0101000
+196 0 -201 0 *
Wi

0101100
+199 5 -197 5 +195 5 +194 5 *
Fa
0  1e-07 1 0

0101000
+202 0 +193 0 *
Ve
1e-07
509.84480129944 89.2695086308972 41.4684042324275
0 0

0101101
*
Ve
1e-07
509.84480129944 89.2695086308972 193.631911694827
0 0

0101101
*
Ed
 1e-07 1 1 0
1  13 0 -38.3136509556221 113.849856506778
2  25 2 7 -38.3136509556221 113.849856506778
2  26 14 28 -38.3136509556221 113.849856506778
4 C0 2 7 14 28
0

0101000
+191 0 -190 0 *
Ed
 1e-07 1 1 0
1  14 0 18.6586249526985 21.6586249526994
2  27 2 7 18.6586249526985 21.6586249526994
2  28 3 9 18.6586249526985 21.6586249526994
4 G1 2 7 3 9
0

0101000
+217 0 -191 0 *
Ed
 1e-07 1 1 0
1  15 0 18.6586249526985 21.6586249526994
2  29 2 7 18.6586249526985 21.6586249526994
2  30 9 21 18.6586249526985 21.6586249526994
4 G1 2 7 9 21
0

0101000
+218 0 -190 0 *
Wi

0101100
-189 26 -188 26 -216 26 +187 26 *
Fa
0  1e-07 2 0

0101000
+186 0 *
Ve
1e-07
509.371655208462 86.3968359356648 36.925535790817
0 0

0101101
*
Ed
 1e-07 1 1 0
1  16 0 18.6586249527011 21.6586249526994
2  31 3 9 18.6586249527011 21.6586249526994
2  32 4 11 18.6586249527011 21.6586249526994
4 G1 3 9 4 11
0

0101000
+215 0 -184 0 *
Ed
 1e-07 1 1 0
1  17 0 0 1.13985680252635
2  33 3 9 0 1.13985680252635
2  34 14 28 0 1.13985680252635
4 C0 3 9 14 28
0

0101000
+184 0 -191 0 *
Wi

0101100
-188 29 +214 29 +183 29 +182 29 *
Fa
0  1e-07 3 0

0101000
+181 0 *
Ve
1e-07
506.933911305268 71.5962479519919 30.0291560188752
0 0

0101101
*
Ed
 1e-07 1 1 0
1  18 0 -8.32507514108553 8.18431775989215
2  35 4 11 -8.32507514108553 8.18431775989215
2  36 14 28 -8.32507514108553 8.18431775989215
4 C0 4 11 14 28
0

0101000
+179 0 -184 0 *
Ed
 1e-07 1 1 0
1  19 0 18.6586249526986 21.6586249526994
2  37 4 11 18.6586249526986 21.6586249526994
2  38 5 13 18.6586249526986 21.6586249526994
4 G1 4 11 5 13
0

0101000
+213 0 -179 0 *
Wi

0101100
-178 30 -177 30 -212 30 +183 30 *
Fa
0  1e-07 4 0

0101000
+176 0 *
Ve
1e-07
505.781894794119 64.601861991442 34.5720244604859
0 0

0101101
*
Ed
 1e-07 1 1 0
1  20 0 18.6586249526986 21.6586249526995
2  39 5 13 18.6586249526986 21.6586249526995
2  40 6 15 18.6586249526986 21.6586249526995
4 G1 5 13 6 15
0

0101000
+211 0 -174 0 *
Ed
 1e-07 1 1 0
1  21 0 0 2.00173585106341
2  41 5 13 0 2.00173585106341
2  42 14 28 0 2.00173585106341
4 C0 5 13 14 28
0

0101000
+174 0 -179 0 *
Wi

0101100
-177 31 +210 31 +173 31 +172 31 *
Fa
0  1e-07 5 0

0101000
+171 0 *
Ve
1e-07
505.781894794119 64.601861991442 200.528291466769
0 0

0101101
*
Ed
 1e-07 1 1 0
1  22 0 -170.210030727563 -4.25376372128054
2  43 6 15 -170.210030727563 -4.25376372128054
2  44 14 28 -170.210030727563 -4.25376372128054
4 C0 6 15 14 28
0

0101000
+169 0 -174 0 *
Ed
 1e-07 1 1 0
1  23 0 18.6586249526986 21.6586249526995
2  45 6 15 18.6586249526986 21.6586249526995
2  46 7 17 18.6586249526986 21.6586249526995
4 G1 6 15 7 17
0

0101000
+209 0 -169 0 *
Wi

0101100
-208 32 +173 32 -168 32 -167 32 *
Fa
0  1e-07 6 0

0101000
+166 0 *
Ve
1e-07
506.933911305268 71.5962479519919 205.07115990838
0 0

0101101
*
Ed
 1e-07 1 1 0
1  24 0 18.6586249526986 21.6586249526994
2  47 7 17 18.6586249526986 21.6586249526994
2  48 8 19 18.6586249526986 21.6586249526994
4 G1 7 17 8 19
0

0101000
+207 0 -164 0 *
Ed
 1e-07 1 1 0
1  25 0 4.28144945611618 6.28318530717959
2  49 7 17 4.28144945611618 6.28318530717959
2  50 14 28 4.28144945611618 6.28318530717959
4 C0 7 17 14 28
0

0101000
+164 0 -169 0 *
Wi

0101100
+163 33 +162 33 -167 33 +206 33 *
Fa
0  1e-07 7 0

0101000
+161 0 *
Ve
1e-07
509.371655208462 86.3968359356648 198.174780136438
0 0

0101101
*
Ed
 1e-07 1 1 0
1  26 0 33.5881436098612 50.0975365108389
2  51 8 19 33.5881436098612 50.0975365108389
2  52 14 28 33.5881436098612 50.0975365108389
4 C0 8 19 14 28
0

0101000
+159 0 -164 0 *
Ed
 1e-07 1 1 0
1  27 0 18.6586249527011 21.6586249526994
2  53 8 19 18.6586249527011 21.6586249526994
2  54 9 21 18.6586249527011 21.6586249526994
4 G1 8 19 9 21
0

0101000
+205 0 -159 0 *
Wi

0101100
-204 34 +163 34 -158 34 -157 34 *
Fa
0  1e-07 8 0

0101000
-156 0 *
Ed
 1e-07 1 1 0
1  28 0 5.14332850465323 6.28318530717959
2  55 9 21 5.14332850465323 6.28318530717959
2  56 14 28 5.14332850465323 6.28318530717959
4 C0 9 21 14 28
0

0101000
+190 0 -159 0 *
Wi

0101100
+187 35 +154 35 -157 35 +203 35 *
Fa
0  1e-07 9 0

0101000
+153 0 *
Ve
1.00000158882186e-07
504.782169208273 58.5320995059489 216.661571271281
0 0

0101101
*
Ve
1.00000127105749e-07
510.844526885286 95.3392711163903 199.511155758285
0 0

0101101
*
Ed
 1e-07 1 1 0
1  29 0 -69.7151785272152 -28.6584273791649
2  57 10 23 -69.7151785272152 -28.6584273791649
2  58 14 28 -69.7151785272152 -28.6584273791649
4 C0 10 23 14 28
0

0101000
+151 0 -150 0 *
Ed
 1e-07 1 1 0
1  30 0 0 3.00858910760816
2  59 10 23 0 3.00858910760816
2  60 15 0 0 3.00858910760816
4 C0 10 23 15 0
0

0101000
+201 0 -150 0 *
Ed
 1e-07 1 1 0
1  31 0 0 3.00858910760823
2  61 10 23 0 3.00858910760823
2  62 16 0 0 3.00858910760823
4 C0 10 23 16 0
0

0101000
+151 0 -200 0 *
Wi

0101100
-149 36 +148 36 -199 36 +147 36 *
Fa
0  1e-07 10 2

0101000
+146 0 *
Ve
1.00000114791692e-07
510.844526885286 95.3392711163903 35.5891601689694
0 0

0101101
*
Ed
 1e-07 1 1 0
1  32 0 18.039002205342 181.960997794658
2  63 14 28 18.039002205342 181.960997794658
2  64 17 0 18.039002205342 181.960997794658
4 CN 14 28 17 0
0

0101000
+144 0 -150 0 *
Ve
1.0000011121753e-07
504.782169208273 58.5320995059489 18.4387446559739
0 0

0101101
*
Ed
 1e-07 1 1 0
1  33 0 -13.1140339905888 27.9427171574614
2  65 14 28 -13.1140339905888 27.9427171574614
2  66 12 25 -13.1140339905888 27.9427171574614
4 C0 14 28 12 25
0

0101000
+144 0 -142 0 *
Ed
 1e-07 1 1 0
1  34 0 0.888586692346557 199.111413307653
2  67 14 28 0.888586692346557 199.111413307653
2  68 18 0 0.888586692346557 199.111413307653
4 G2 14 28 18 0
0

0101000
+142 0 -151 0 *
Wi

0101100
+149 37 -143 37 +141 37 +140 37 *
Wi

0101100
+189 37 +154 37 +158 37 +162 37 +168 37 +172 37 +178 37 +182 37 *
Fa
0  1e-07 14 0

0101000
+139 0 +138 0 *
Ed
 1e-07 1 1 0
1  35 0 0 3.00858910760816
2  69 12 25 0 3.00858910760816
2  70 19 0 0 3.00858910760816
4 C0 12 25 19 0
0

0101000
+144 0 -196 0 *
Ed
 1e-07 1 1 0
1  36 0 0 3.00858910760824
2  71 12 25 0 3.00858910760824
2  72 20 0 0 3.00858910760824
4 C0 12 25 20 0
0

0101000
+142 0 -198 0 *
Wi

0101100
+141 38 -136 38 +195 38 +135 38 *
Fa
0  1e-07 12 2

0101000
+134 0 *
Ve
1.00000089101606e-07
507.630969709147 57.3686969290078 17.9692499389505
0 0

0101101
*
Ed
 1e-07 1 1 0
1  37 0 0 0.726559537425483
2  73 11 0 0 0.726559537425483
2  74 20 0 0 0.726559537425483
4 C0 11 0 20 0
0

0101000
+198 0 -132 0 *
Ve
1.00000153055589e-07
507.630969709147 57.3686969290078 217.131065988304
0 0

0101101
*
Ed
 1e-07 1 1 0
1  38 0 0 199.161816049353
2  75 11 0 0 199.161816049353
2  76 21 40 0 199.161816049353
4 G2 11 0 21 40
0

0101000
+132 0 -130 0 *
Ed
 1e-07 1 1 0
1  39 0 0 0.726559537425447
2  77 11 0 0 0.726559537425447
2  78 16 0 0 0.726559537425447
4 C0 11 0 16 0
0

0101000
+130 0 -200 0 *
Wi

0101100
+131 0 +129 0 +128 0 -197 0 *
Fa
0  1e-07 11 0

0101000
+127 0 *
Ve
1.00000089101606e-07
504.670852112412 57.8562457096471 17.9692499389508
0 0

0101101
*
Ed
 1e-07 1 1 0
1  40 0 0 3.00000000000068
2  79 12 42 0 3.00000000000068
2  80 20 0 0 3.00000000000068
4 C0 20 0 12 42
0

0101000
+125 0 -132 0 *
Ed
 1e-07 1 1 0
1  41 0 0 0.830418652921028
2  81 20 0 0 0.830418652921028
2  82 18 0 0 0.830418652921028
4 C0 20 0 18 0
0

0101000
+125 0 -142 0 *
Wi

0101100
+131 0 -124 0 +123 0 +135 0 *
Fa
0  1e-07 20 0

0101000
+122 0 *
Ve
1.00000153055589e-07
504.670852112412 57.8562457096471 217.131065988304
0 0

0101101
*
Ed
 1e-07 1 1 0
1  42 0 0 0.83041865292103
2  83 16 0 0 0.83041865292103
2  84 18 0 0 0.83041865292103
4 C0 16 0 18 0
0

0101000
+151 0 -120 0 *
Ed
 1e-07 1 1 0
1  43 0 0 3.00000000000068
2  85 10 44 0 3.00000000000068
2  86 16 0 0 3.00000000000068
4 C0 16 0 10 44
0

0101000
+120 0 -130 0 *
Wi

0101100
+119 0 +118 0 +128 0 -147 0 *
Fa
0  1e-07 16 0

0101000
+117 0 *
Ed
 1e-07 1 1 0
1  44 0 0 199.161816049353
2  87 18 0 0 199.161816049353
2  88 22 46 0 199.161816049353
4 CN 18 0 22 46
0

0101000
+120 0 -125 0 *
Wi

0101100
+119 0 +115 0 +123 0 +140 0 *
Fa
0  1e-07 18 0

0101000
+114 0 *
Ve
1e-07
506.494521390965 50.4688321400494 37.5501579636273
0 0

0101101
*
Ve
1e-07
505.844456350114 46.5220086777366 37.5501579636273
0 0

0101101
*
Ed
 1e-07 1 1 0
1  45 0 3.14159265358979 6.28318530717959
2  89 21 40 3.14159265358979 6.28318530717959
2  90 23 49 3.14159265358979 6.28318530717959
4 C0 21 40 23 49
0

0101000
+112 0 -111 0 *
Ed
 1e-07 1 1 0
1  46 0 0 3.14159265358979
2  91 21 40 0 3.14159265358979
2  92 24 51 0 3.14159265358979
4 C0 21 40 24 51
0

0101000
+111 0 -112 0 *
Wi

0101100
+110 47 +109 47 *
Ve
1e-07
506.494521390965 50.4688321400494 197.550157963627
0 0

0101101
*
Ve
1e-07
505.844456350114 46.5220086777366 197.550157963627
0 0

0101101
*
Ed
 1e-07 1 1 0
1  47 0 3.14159265358979 6.28318530717959
2  93 21 40 3.14159265358979 6.28318530717959
2  94 25 53 3.14159265358979 6.28318530717959
4 C0 21 40 25 53
0

0101000
+107 0 -106 0 *
Ed
 1e-07 1 1 0
1  48 0 0 3.14159265358979
2  95 21 40 0 3.14159265358979
2  96 26 55 0 3.14159265358979
4 C0 21 40 26 55
0

0101000
+106 0 -107 0 *
Wi

0101100
+105 47 +104 47 *
Ve
1e-07
507.484797784733 56.4812245307825 217.550157963627
0 0

0101101
*
Ve
1e-07
505.031875049049 41.5884793498456 217.550157963627
0 0

0101101
*
Ed
 1e-07 1 1 0
1  49 0 -10.5933988541863 4.50000000000004
2  97 21 40 -10.5933988541863 4.50000000000004
2  98 27 57 -10.5933988541863 4.50000000000004
4 C0 21 40 27 57
0

0101000
+102 0 -101 0 *
Ve
1e-07
505.031875049049 41.5884793498456 17.5501579636274
0 0

0101101
*
Ed
 1e-07 1 1 0
1  50 0 -100 100
2  99 21 40 -100 100
2  100 28 59 -100 100
4 C0 21 40 28 59
0

0101000
+101 0 -99 0 *
Ve
1e-07
507.484797784733 56.4812245307825 17.5501579636274
0 0

0101101
*
Ed
 1e-07 1 1 0
1  51 0 0.89942953537151 15.9928283895579
2  101 21 40 0.89942953537151 15.9928283895579
2  102 29 61 0.89942953537151 15.9928283895579
4 C0 21 40 29 61
0

0101000
+97 0 -99 0 *
Ed
 1e-07 1 1 0
1  52 0 -8.76083538929983 -7.76855943328816
2  103 21 40 -8.76083538929983 -7.76855943328816
2  104 12 42 -8.76083538929983 -7.76855943328816
4 C0 21 40 12 42
0

0101000
+97 0 -132 0 *
Ed
 1e-07 1 1 0
1  53 0 50.0039852525046 50.9962612085164
2  105 21 40 50.0039852525046 50.9962612085164
2  106 10 44 50.0039852525046 50.9962612085164
4 C0 21 40 10 44
0

0101000
+130 0 -102 0 *
Wi

0101100
+100 47 +98 47 -96 47 +95 47 +129 47 +94 47 *
Fa
0  1e-07 21 0

0101000
+108 0 +103 0 +93 0 *
Ve
1e-07
504.524680187998 56.9687733114213 17.5501579636274
0 0

0101101
*
Ed
 1e-07 1 1 0
1  54 0 -9.78135925565488 -6.78135925565419
2  107 12 42 -9.78135925565488 -6.78135925565419
2  108 29 61 -9.78135925565488 -6.78135925565419
4 C0 12 42 29 61
0

0101000
+91 0 -97 0 *
Ed
 1e-07 1 1 0
1  55 0 10.9378171136979 11.9300930697101
2  109 12 42 10.9378171136979 11.9300930697101
2  110 22 46 10.9378171136979 11.9300930697101
4 C0 12 42 22 46
0

0101000
+125 0 -91 0 *
Wi

0101100
-124 62 +95 62 +90 62 +89 62 *
Fa
0  1e-07 12 2

0101000
+88 0 *
Ve
1e-07
504.524680187998 56.9687733114213 217.550157963627
0 0

0101101
*
Ed
 1e-07 1 1 0
1  56 0 6.78135925565419 9.78135925565488
2  111 10 44 6.78135925565419 9.78135925565488
2  112 27 57 6.78135925565419 9.78135925565488
4 C0 10 44 27 57
0

0101000
+102 0 -86 0 *
Ed
 1e-07 1 1 0
1  57 0 -54.1655188889266 -53.1732429329144
2  113 10 44 -54.1655188889266 -53.1732429329144
2  114 22 46 -54.1655188889266 -53.1732429329144
4 C0 10 44 22 46
0

0101000
+86 0 -120 0 *
Wi

0101100
-118 63 -94 63 -85 63 -84 63 *
Fa
0  1e-07 10 2

0101000
+83 0 *
Ve
1e-07
503.53440379423 50.9563809206882 37.5501579636273
0 0

0101101
*
Ve
1e-07
502.884338753378 47.0095574583754 37.5501579636273
0 0

0101101
*
Ed
 1e-07 1 1 0
1  58 0 3.14159265358979 6.28318530717959
2  115 22 46 3.14159265358979 6.28318530717959
2  116 24 51 3.14159265358979 6.28318530717959
4 C0 22 46 24 51
0

0101000
+81 0 -80 0 *
Ed
 1e-07 1 1 0
1  59 0 0 3.14159265358979
2  117 22 46 0 3.14159265358979
2  118 23 49 0 3.14159265358979
4 C0 22 46 23 49
0

0101000
+80 0 -81 0 *
Wi

0101100
+79 64 +78 64 *
Ve
1e-07
503.53440379423 50.9563809206882 197.550157963627
0 0

0101101
*
Ve
1e-07
502.884338753378 47.0095574583754 197.550157963627
0 0

0101101
*
Ed
 1e-07 1 1 0
1  60 0 3.14159265358979 6.28318530717959
2  119 22 46 3.14159265358979 6.28318530717959
2  120 26 55 3.14159265358979 6.28318530717959
4 C0 22 46 26 55
0

0101000
+76 0 -75 0 *
Ed
 1e-07 1 1 0
1  61 0 0 3.14159265358979
2  121 22 46 0 3.14159265358979
2  122 25 53 0 3.14159265358979
4 C0 22 46 25 53
0

0101000
+75 0 -76 0 *
Wi

0101100
+74 64 +73 64 *
Ve
1e-07
502.071757452314 42.0760281304844 217.550157963627
0 0

0101101
*
Ve
1e-07
502.071757452314 42.0760281304844 17.5501579636274
0 0

0101101
*
Ed
 1e-07 1 1 0
1  62 0 -100 100
2  123 22 46 -100 100
2  124 28 59 -100 100
4 C0 22 46 28 59
0

0101000
+71 0 -70 0 *
Ed
 1e-07 1 1 0
1  63 0 -4.50000000000004 10.5933988541863
2  125 22 46 -4.50000000000004 10.5933988541863
2  126 27 57 -4.50000000000004 10.5933988541863
4 C0 22 46 27 57
0

0101000
+71 0 -86 0 *
Ed
 1e-07 1 1 0
1  64 0 -10.5933988541863 4.50000000000004
2  127 22 46 -10.5933988541863 4.50000000000004
2  128 29 61 -10.5933988541863 4.50000000000004
4 C0 22 46 29 61
0

0101000
+91 0 -70 0 *
Wi

0101100
-69 64 +68 64 +84 64 +115 64 +89 64 +67 64 *
Fa
0  1e-07 22 0

0101000
+77 0 +72 0 +66 0 *
Ed
 1e-07 1 1 0
1  65 0 -1.50000000000153 1.49999999999915
2  129 23 49 -1.50000000000153 1.49999999999915
2  130 24 51 -1.50000000000153 1.49999999999915
4 CN 23 49 24 51
0

0101000
+112 0 -81 0 *
Ed
 1e-07 1 1 0
1  66 0 -1.49999999999915 1.50000000000153
2  131 23 49 -1.49999999999915 1.50000000000153
2  132 24 51 -1.49999999999915 1.50000000000153
4 CN 23 49 24 51
0

0101000
+80 0 -111 0 *
Wi

0101100
+78 65 -64 65 +110 65 -63 65 *
Fa
0  1e-07 23 0

0101000
+62 0 *
Wi

0101100
+109 66 +64 66 +79 66 +63 66 *
Fa
0  1e-07 24 0

0101000
+60 0 *
Ed
 1e-07 1 1 0
1  67 0 -1.50000000000153 1.49999999999915
2  133 25 53 -1.50000000000153 1.49999999999915
2  134 26 55 -1.50000000000153 1.49999999999915
4 CN 25 53 26 55
0

0101000
+107 0 -76 0 *
Ed
 1e-07 1 1 0
1  68 0 -1.49999999999915 1.50000000000153
2  135 25 53 -1.49999999999915 1.50000000000153
2  136 26 55 -1.49999999999915 1.50000000000153
4 CN 25 53 26 55
0

0101000
+75 0 -106 0 *
Wi

0101100
+73 67 -58 67 +105 67 -57 67 *
Fa
0  1e-07 25 0

0101000
+56 0 *
Wi

0101100
+104 68 +58 68 +74 68 +57 68 *
Fa
0  1e-07 26 0

0101000
+54 0 *
Ed
 1e-07 1 1 0
1  69 0 -1.50000000000153 1.49999999999915
2  137 27 57 -1.50000000000153 1.49999999999915
2  138 28 59 -1.50000000000153 1.49999999999915
4 C0 27 57 28 59
0

0101000
+101 0 -71 0 *
Wi

0101100
-100 69 +85 69 -68 69 -52 69 *
Fa
0  1e-07 27 0

0101000
-51 0 *
Ed
 1e-07 1 1 0
1  70 0 -1.49999999999915 1.50000000000153
2  139 28 59 -1.49999999999915 1.50000000000153
2  140 29 61 -1.49999999999915 1.50000000000153
4 C0 28 59 29 61
0

0101000
+70 0 -99 0 *
Wi

0101100
-98 70 +52 70 +69 70 +49 70 *
Fa
0  1e-07 28 0

0101000
+48 0 *
Wi

0101100
+96 71 -49 71 -67 71 +90 71 *
Fa
0  1e-07 29 0

0101000
+46 0 *
Ve
1.00000044938668e-07
514.764487533065 100.679340859949 36.6107153544607
0 0

0101101
*
Ed
 1e-07 1 1 0
1  71 0 0 6.03670134099682
2  141 13 0 0 6.03670134099682
2  142 19 0 0 6.03670134099682
4 C0 13 0 19 0
0

0101000
+196 0 -44 0 *
Ve
1.00000063552874e-07
514.764487533065 100.679340859949 198.489600572794
0 0

0101101
*
Ed
 1e-07 1 1 0
1  72 0 0 161.878885218333
2  143 13 0 0 161.878885218333
2  144 30 73 0 161.878885218333
4 CN 13 0 30 73
0

0101000
+44 0 -42 0 *
Ed
 1e-07 1 1 0
1  73 0 0 6.03670134099682
2  145 13 0 0 6.03670134099682
2  146 15 0 0 6.03670134099682
4 C0 13 0 15 0
0

0101000
+42 0 -201 0 *
Wi

0101100
+43 0 +41 0 +40 0 -194 0 *
Fa
0  1e-07 13 0

0101000
+39 0 *
Ve
1.00000044938668e-07
511.804369936331 101.166889640587 38.008574638068
0 0

0101101
*
Ed
 1e-07 1 1 0
1  74 0 0 6.38247622161554
2  147 19 0 0 6.38247622161554
2  148 17 0 0 6.38247622161554
4 C0 19 0 17 0
0

0101000
+144 0 -37 0 *
Ed
 1e-07 1 1 0
1  75 0 0 1
2  149 19 0 0 1
2  150 12 75 0 1
4 C0 19 0 12 75
0

0101000
+37 0 -44 0 *
Wi

0101100
+36 0 +35 0 -43 0 -136 0 *
Fa
0  1e-07 19 0

0101000
+34 0 *
Ve
1.00000063552874e-07
511.804369936331 101.166889640587 197.091741289187
0 0

0101101
*
Ed
 1e-07 1 1 0
1  76 0 0 6.38247622161553
2  151 15 0 0 6.38247622161553
2  152 17 0 0 6.38247622161553
4 C0 15 0 17 0
0

0101000
+150 0 -32 0 *
Ed
 1e-07 1 1 0
1  77 0 0 1
2  153 15 0 0 1
2  154 10 77 0 1
4 C0 15 0 10 77
0

0101000
+32 0 -42 0 *
Wi

0101100
+31 0 +30 0 +40 0 +148 0 *
Fa
0  1e-07 15 0

0101000
+29 0 *
Ed
 1e-07 1 1 0
1  78 0 0 159.083166651119
2  155 17 0 0 159.083166651119
2  156 31 79 0 159.083166651119
4 CN 17 0 31 79
0

0101000
+32 0 -37 0 *
Wi

0101100
+31 0 +27 0 -36 0 +143 0 *
Fa
0  1e-07 17 0

0101000
+26 0 *
Ve
1e-07
517.159594047753 115.221058984831 198.489600572794
0 0

0101101
*
Ed
 1e-07 1 1 0
1  79 0 -15.2317800342962 -0.494137711311168
2  157 30 73 -15.2317800342962 -0.494137711311168
2  158 10 77 -15.2317800342962 -0.494137711311168
4 C0 30 73 10 77
0

0101000
+24 0 -42 0 *
Ve
1e-07
517.159594047753 115.221058984831 36.6107153544607
0 0

0101101
*
Ed
 1e-07 1 1 0
1  80 0 0.494137711311168 15.2317800342962
2  159 30 73 0.494137711311168 15.2317800342962
2  160 12 75 0.494137711311168 15.2317800342962
4 C0 30 73 12 75
0

0101000
+44 0 -22 0 *
Ed
 1e-07 1 1 0
1  81 0 19.0605573908333 180.939442609167
2  161 30 73 19.0605573908333 180.939442609167
2  162 32 82 19.0605573908333 180.939442609167
4 C0 30 73 32 82
0

0101000
+22 0 -24 0 *
Wi

0101100
+23 80 -41 80 +21 80 +20 80 *
Fa
0  1e-07 30 0

0101000
+19 0 *
Ve
1e-07
514.199476451018 115.70860776547 38.008574638068
0 0

0101101
*
Ed
 1e-07 1 1 0
1  82 0 -7.86295887280369 6.87468345018135
2  163 12 75 -7.86295887280369 6.87468345018135
2  164 31 79 -7.86295887280369 6.87468345018135
4 C0 12 75 31 79
0

0101000
+17 0 -37 0 *
Ed
 1e-07 1 1 0
1  83 0 15.0673524100867 18.3770367721926
2  165 12 75 15.0673524100867 18.3770367721926
2  166 32 82 15.0673524100867 18.3770367721926
4 C0 12 75 32 82
0

0101000
+22 0 -17 0 *
Wi

0101100
+16 83 +15 83 +21 83 +35 83 *
Fa
0  1e-07 12 2

0101000
+14 0 *
Ve
1e-07
514.199476451018 115.70860776547 197.091741289187
0 0

0101101
*
Ed
 1e-07 1 1 0
1  84 0 -6.87468345018135 7.86295887280369
2  167 10 77 -6.87468345018135 7.86295887280369
2  168 31 79 -6.87468345018135 7.86295887280369
4 C0 10 77 31 79
0

0101000
+32 0 -12 0 *
Ed
 1e-07 1 1 0
1  85 0 23.8583890470239 27.1680734091298
2  169 10 77 23.8583890470239 27.1680734091298
2  170 32 82 23.8583890470239 27.1680734091298
4 C0 10 77 32 82
0

0101000
+12 0 -24 0 *
Wi

0101100
-11 84 -10 84 -23 84 +30 84 *
Fa
0  1e-07 10 2

0101000
+9 0 *
Ed
 1e-07 1 1 0
1  86 0 20.4584166744406 179.541583325559
2  171 31 79 20.4584166744406 179.541583325559
2  172 32 82 20.4584166744406 179.541583325559
4 C0 31 79 32 82
0

0101000
+17 0 -12 0 *
Wi

0101100
+11 85 -7 85 +16 85 -27 85 *
Fa
0  1e-07 31 0

0101000
+6 0 *
Wi

0101100
+10 86 -20 86 +15 86 +7 86 *
Fa
0  1e-07 32 0

0101000
+4 0 *
Sh

0101100
+192 4 +185 7 -180 9 +175 11 -170 13 +165 15 -160 17 -155 19 -152 21 +145 22 
+137 28 -133 24 -126 0 +121 0 +116 0 -113 0 +92 40 -87 41 +82 43 +65 46 
-61 49 -59 51 -55 53 -53 55 -50 57 +47 59 +45 61 +38 0 +33 0 -28 0 
+25 0 +18 73 -13 74 +8 76 +5 79 +3 82 *
So

1100000
+2 0 *

+1 1  