
CASCADE Topology V1, (c) Matra-Datavision
Locations 86
1
              1               0               0               0 
              0               1               0               0 
              0               0               1               0 
1
              1               0               0               0 
              0               1               0               0 
              0               0               1               0 
1
              1               0               0               0 
              0               1               0               0 
              0               0               1               0 
2  2 1 3 1 0
2  3 -1 2 -1 0
1
              1               0               0               0 
              0               1               0               0 
              0               0               1               0 
2  2 1 6 1 0
1
              1               0               0               0 
              0               1               0               0 
              0               0               1               0 
2  2 1 8 1 0
1
              1               0               0               0 
              0               1               0               0 
              0               0               1               0 
2  2 1 10 1 0
2  6 -1 0
1
              1               0               0               0 
              0               1               0               0 
              0               0               1               0 
2  2 1 13 1 0
2  8 -1 2 -1 0
2  10 -1 0
2  13 -1 2 -1 0
1
0.162516260212837 0.986705865578204               0 333.963607678561 
-0.986705865578204 0.162516260212837               0 589.090779586052 
              0               0               1               0 
2  2 1 18 1 0
1
0.162516260212837 0.986705865578204               0 333.963607678561 
-0.986705865578204 0.162516260212837               0 589.090779586052 
              0               0               1               0 
2  2 1 20 1 0
1
0.162516260212837 0.986705865578204               0 333.963607678561 
-0.986705865578204 0.162516260212837               0 589.090779586052 
              0               0               1               0 
2  2 1 22 1 0
1
0.162516260212837 0.986705865578204               0 333.963607678561 
-0.986705865578204 0.162516260212837               0 589.090779586052 
              0               0               1               0 
2  2 1 24 1 0
2  18 -1 2 -1 0
1
0.162516260212837 0.986705865578204               0 333.963607678561 
-0.986705865578204 0.162516260212837               0 589.090779586052 
              0               0               1               0 
2  2 1 27 1 0
1
0.162516260212837 0.986705865578204               0 333.963607678561 
-0.986705865578204 0.162516260212837               0 589.090779586052 
              0               0               1               0 
2  2 1 29 1 0
1
0.162516260212837 0.986705865578204               0 333.963607678561 
-0.986705865578204 0.162516260212837               0 589.090779586052 
              0               0               1               0 
2  2 1 31 1 0
1
0.162516260212837 0.986705865578204               0 333.963607678561 
-0.986705865578204 0.162516260212837               0 589.090779586052 
              0               0               1               0 
2  2 1 33 1 0
1
0.162516260212837 0.986705865578204               0 333.963607678561 
-0.986705865578204 0.162516260212837               0 589.090779586052 
              0               0               1               0 
2  2 1 35 1 0
1
0.162516260212837 0.986705865578204               0 333.963607678561 
-0.986705865578204 0.162516260212837               0 589.090779586052 
              0               0               1               0 
2  2 1 37 1 0
1
0.162516260212837 0.986705865578204               0 333.963607678561 
-0.986705865578204 0.162516260212837               0 589.090779586052 
              0               0               1               0 
2  2 1 39 1 0
1
0.162516260212837 0.986705865578204               0 333.963607678561 
-0.986705865578204 0.162516260212837               0 589.090779586052 
              0               0               1               0 
2  2 1 41 1 0
2  20 -1 0
2  22 -1 0
2  24 -1 2 -1 0
2  27 -1 2 -1 0
2  29 -1 2 -1 0
2  31 -1 2 -1 0
2  33 -1 2 -1 0
2  35 -1 2 -1 0
2  37 -1 2 -1 0
2  39 -1 2 -1 0
2  41 -1 2 -1 0
1
-1.53571599881275e-13               1               0 415.543425511787 
             -1 -1.53571599881275e-13               0 605.231415877939 
              0               0               1               0 
2  2 1 54 1 0
1
-1.53571599881275e-13               1               0 415.543425511787 
             -1 -1.53571599881275e-13               0 605.231415877939 
              0               0               1               0 
2  2 1 56 1 0
1
-1.53571599881275e-13               1               0 415.543425511787 
             -1 -1.53571599881275e-13               0 605.231415877939 
              0               0               1               0 
2  2 1 58 1 0
1
-1.53571599881275e-13               1               0 415.543425511787 
             -1 -1.53571599881275e-13               0 605.231415877939 
              0               0               1               0 
2  2 1 60 1 0
2  54 -1 2 -1 0
1
-1.53571599881275e-13               1               0 415.543425511787 
             -1 -1.53571599881275e-13               0 605.231415877939 
              0               0               1               0 
2  2 1 63 1 0
1
-1.53571599881275e-13               1               0 415.543425511787 
             -1 -1.53571599881275e-13               0 605.231415877939 
              0               0               1               0 
2  2 1 65 1 0
1
-1.53571599881275e-13               1               0 415.543425511787 
             -1 -1.53571599881275e-13               0 605.231415877939 
              0               0               1               0 
2  2 1 67 1 0
1
-1.53571599881275e-13               1               0 415.543425511787 
             -1 -1.53571599881275e-13               0 605.231415877939 
              0               0               1               0 
2  2 1 69 1 0
1
-1.53571599881275e-13               1               0 415.543425511787 
             -1 -1.53571599881275e-13               0 605.231415877939 
              0               0               1               0 
2  2 1 71 1 0
1
-1.53571599881275e-13               1               0 415.543425511787 
             -1 -1.53571599881275e-13               0 605.231415877939 
              0               0               1               0 
2  2 1 73 1 0
1
-1.53571599881275e-13               1               0 415.543425511787 
             -1 -1.53571599881275e-13               0 605.231415877939 
              0               0               1               0 
2  2 1 75 1 0
2  56 -1 0
2  58 -1 0
2  60 -1 2 -1 0
2  63 -1 2 -1 0
2  65 -1 2 -1 0
2  67 -1 2 -1 0
2  69 -1 2 -1 0
2  71 -1 2 -1 0
2  73 -1 2 -1 0
2  75 -1 2 -1 0
Curve2ds 172
1 7.8629588728036879 179.54158332555937 -1 0 
1 7.8629588728037643 25.394081604744329 1 -2.9938626801485054e-15 
1 0 0 0 1 
1 3.0000000000001847 0 0 1 
1 7.8629588728036879 20.458416674440624 1 0 
1 7.8629588728037643 25.394081604744336 -1 2.9938626801485054e-15 
1 14.737642322985039 0 0 1 
1 -2.9956248037797195 100 0 -1 
1 15.725917745607523 49.252470651768434 5.5885099865196038e-16 -1 
1 24.625979794500182 169.46489111794347 -0.90643084710691224 0.42235425819215511 
1 0.49413771131123457 22.084397242638694 -1 2.9938626801485054e-15 
1 -0.49413771131116846 180.93944260916669 -1 0 
1 0.98827542262240309 22.084397242638691 2.9938626801485173e-15 1 
7 0 0  1 2 2  0 1  0 0 
 0 2 3.3096843621056582 2
1 0 0 0 1 
1 14.737642322985039 0 0 1 
1 -13.657513008733176 12.69679694075127 0.90643084710691224 0.42235425819215511 
1 15.725917745607397 7.0170448325519921 -5.5885099865196038e-16 1 
1 0.49413771131123457 22.084397242638694 1 -2.9938626801485054e-15 
1 -0.49413771131116846 19.060557390833306 1 0 
1 0.98827542262241297 25.394081604744365 -2.9938626801485173e-15 -1 
7 0 0  1 2 2  0 0  0 1 
 0 2 3.3096843621056582 2
1 0 0 0 1 
8 19.060557390833306 180.93944260916669
1 2.9748665730578523 100 -0 -1 
1 -2.9956248037797195 -79.541583325559387 0.9253674088470869 -0.37907144266434567 
1 0 0 1 0 
1 2.9105106794446556 -81.960997794658013 0 1 
8 0 163.92199558931603
1 0 181.960997794658 -0 -1 
1 2.9105106794446556 81.960997794658013 -0.92536740884708579 -0.37907144266434856 
8 0 6.3824762216153932
1 6.3824762216153932 0 -1 -0 
1 -2.1691833472277149 19.127803283074783 -0.98388895620538042 0.17878065291604414 
7 0 0  1 2 2  6.3824762216153861 1  6.3824762216153861 0 
 0 2 3.0085891076081612 2
7 0 0  1 2 2  6.3824762216153861 1  0 1 
 0 2 6.036701340996852 2
1 -2.9312689101662386 -82.188172657733844 0.97837132394043524 0.20685635714437198 
1 -5.1293009439631856 19.665680808089057 0.98388895620538075 -0.17878065291604223 
7 0 0  1 2 2  6.3824762216153932 0  6.3824762216153932 1 
 0 2 3.0085891076081599 2
7 0 0  1 2 2  6.3824762216153932 1  0 1 
 0 2 6.0367013409968537 2
8 0 6.0367013409968537
1 -2.9312689101662386 82.188172657733858 0.97837132394043502 -0.20685635714437312 
1 -2.9312689101662386 82.188172657733858 0 -1 
1 37.303083821107663 17.811827342266145 0 1 
1 -26.038293065399287 169.98966728851752 -0.90857368832210961 -0.41772461369753888 
1 -0.89765493264675744 48.009968272793117 0.14765799795392695 0.98903848036375119 
1 11.915066231610762 12.560947422606802 0.90857368832210972 -0.41772461369753883 
1 -7.0656929481133171 6.6953965585985165 -0.14765799795392792 -0.98903848036375108 
1 37.303083821106895 0 0 1 
1 100.00000000000003 0.34328575713772125 -1 0 
1 6.1515419105534042 62.231897224422156 0 1 
1 91.662472317005893 -62.231897224421957 0 1 
2 11.15154191055359 176.08175373119988 -0.41772461369753378 0.90857368832211194 0.90857368832211194 0.41772461369753378 4.9999999999999902
1 6.2831853071795845 21.658624952701871 -1 0 
1 -21.454384681438704 166.59402785856361 0.90857368832210961 0.41772461369753888 
1 50.097536510838921 21.658624952700023 -1 -1.0016073120823987e-14 
2 26.151541910553306 182.97813350314146 1 0 0 -1 5.0000000000000169
1 6.2831853071796271 21.658624952699306 -1 2.8397062894491885e-14 
1 31.15154191055349 12.768102775577972 -0 -1 
1 -91.662472317006007 -111.69569167326614 0 -1 
2 26.151541910553306 17.021866496858511 1 0 0 -1 5.0000000000000169
1 0 -21.658624952699483 1 2.8397062894491885e-14 
1 16.498974615570933 15.956586852560743 -0.90857368832210728 0.41772461369754393 
1 8.325075141085545 21.658624952698101 1 6.6021373201016314e-15 
2 11.15154191055359 23.918246268800107 -0.41772461369753378 -0.90857368832211194 -0.90857368832211194 0.41772461369753378 4.9999999999999902
1 0 -21.658624952701871 1 0 
1 -0.42578186817788594 30.805404045629807 -0.14765799795393095 -0.98903848036375053 
1 48.030634878256983 177.25608825020052 -0.90857368832210961 0.41772461369753888 
1 0 0 0 1 
7 0 0  1 2 2  -11.191658620976289 -20.941025956051323  -8.231541024240876 -21.478903481066297 
 0 2 1 2
1 -6.5938198836419444 -10.509167668565102 0.14765799795393292 0.98903848036375019 
1 10.07727558124709 5.2945264609236418 0.90857368832210739 0.41772461369754388 
1 -0.8304186529215315 0 0 1 
7 0 0  1 2 2  -8.231541024240876 -21.478903481066311  -11.191658620976289 -20.941025956051288 
 0 2 1 2
1 31.151541910553767 11.959123134400027 0 -1 
1 94.662472317006845 -112.5046713144441 0 -1 
2 26.151541910553807 23.918246268800107 0.41772461369753383 -0.90857368832211205 -0.90857368832211205 -0.41772461369753383 4.9999999999999902
1 6.283185307179588 -18.658624952701331 -1 4.986891224829426e-14 
1 5.4071467052708693 8.8777001368158857 -0.90857368832210739 -0.41772461369754388 
1 -8.6212250854809902 18.658624952699828 -1 -3.5767795779980807e-15 
2 11.151541910554101 17.021866496858511 -1 0 0 1 5.0000000000000266
1 6.2831853071796573 -18.658624952698453 -1 -2.8397062894491444e-14 
1 6.1515419105539069 62.231897224422156 0 1 
1 -94.662472317006788 -62.231897224421957 0 1 
2 11.151541910554101 182.97813350314146 -1 0 0 1 5.0000000000000266
1 0 18.658624952698631 1 -2.8397062894491519e-14 
1 43.360506002280935 173.67291457430846 0.90857368832210961 -0.41772461369753888 
1 33.15123628427277 18.658624952699157 1 5.9360035053265375e-15 
2 26.151541910553807 176.08175373119988 0.41772461369753383 0.90857368832211205 0.90857368832211205 -0.41772461369753383 4.9999999999999902
1 0 18.658624952701018 1 4.986891224829426e-14 
1 0 0 0 1 
8 0.66141182927059816 199.33858817072934
1 0.34289555560849294 99.999999999999915 -0 -1 
1 113.32109726970528 -100.54554818004401 -1 0 
1 1.1398568025263529 -2.2026824808563106e-12 7.4014868308321332e-17 -1 
1 113.32109726970528 51.61795928235577 -1 0 
1 1.139856802526368 2.2026824808563106e-12 -7.401486830832133e-16 1 
1 0 6.4304117586289067e-13 0 1 
1 16.50939290097768 -1.1196522278292144e-12 -1.274834747924494e-14 1 
1 0 0 5.9771578040497535e-17 1 
1 2.0017358510634859 6.6791017161449417e-13 -1.7763568393997456e-15 1 
1 0 2.7355895326763857e-13 0 1 
1 -113.32109726970539 58.514339054297352 1 0 
1 -113.32109726970539 -107.4419279519856 1 0 
1 0 -2.7355895326763857e-13 0 -1 
1 2.0017358510634842 -6.6791017161449417e-13 -1.6283271027831002e-15 -1 
1 0 0 5.9771578040497535e-17 1 
1 16.509392900977684 -1.1196522278292144e-12 -1.274834747924494e-14 1 
1 0 -6.4304117586289067e-13 0 -1 
1 -99.111413307653464 0.34328575713772125 -0.56537111175359145 -0.82483665412886931 
1 0 0 1 0 
1 -99.580908024676631 -0.34167398606427923 1 0 
8 0 199.16181604935326
1 -99.580908024676674 -11.492828389558362 1 -0 
1 99.580908024676631 -0.34167398606427923 -0.56537111175358856 0.82483665412887142 
1 0 1 -1 0 
1 0.8304186529215335 0 0 1 
7 0 0  1 2 2  -11.274082254391383 -22.052639507747926  -8.2740822543907004 -22.052639507748399 
 0 2 1 2
7 0 0  1 2 2  0.8304186529215335 1  0 1 
 0 2 0.72655953742628876 2
1 -0.34206418759401913 -99.580908024676745 0.94274413577841576 0.33351685782791873 
7 0 0  1 2 2  -0.8304186529215315 0  0 0 
 0 2 0.72655953742632551 2
1 0.34289555560849294 99.338588170729324 -0.94274413577836802 0.3335168578280534 
1 0 0 0 1 
7 0 0  1 2 2  -8.2740822543907004 -22.052639507748456  -11.274082254391383 -22.052639507747887 
 0 2 1 2
1 -0.34206418759401913 99.580908024676745 0 -1 
1 -99.580908024676816 -11.49282838955785 1 0 
2 80.000000000000028 -2.4999999999999076 0 1 1 -0 2
1 0 22.467026126962764 1 0 
2 80.000000000000028 -2.4999999999999076 0 1 1 -0 2
1 0 22.467026126962764 1 0 
2 -80.000000000000043 -2.4999999999999076 0 1 1 -0 2
1 6.2831853071795862 -22.467026126962764 -1 0 
2 -80.000000000000043 -2.4999999999999076 0 1 1 -0 2
1 6.2831853071795862 -22.467026126962764 -1 0 
1 0 4.5000000000000355 1 0 
1 0 -1.4999999999991473 1 0 
1 -100.00000000000004 0 0 -1 
1 -1.4999999999991473 0 0 -1 
1 -77.1229624500737 -59.690696024661293 0.42235425819215511 -0.90643084710691224 
1 -11.274082254391224 31.120603425166486 1.0728281612312987e-16 1 
1 94.961274391379135 -21.40720322142792 0.42235425819215999 0.90643084710690991 
1 -11.274082254391351 -11.11482239405003 -1.0728281612309321e-16 -1 
1 99.999999999999986 0 0 1 
1 -1.4999999999991473 0 0 1 
1 -8.2740822543905512 27.951345744756246 -1.0728281612312987e-16 -1 
1 78.461511926703182 -56.817983100706968 0.42235425819215511 0.90643084710691224 
1 -1.4927229987365089 -23.044915463760177 -1 2.9938626801485054e-15 
1 8.2813592556557296 -10.59339885418634 -1 0 
1 -8.2740822543906773 -14.284080074460308 1.0728281612309321e-16 1 
1 -96.29982386800863 -18.534490297473582 0.42235425819215999 -0.90643084710690991 
1 -1.4927229987365089 -23.044915463760159 1 -2.9938626801485054e-15 
1 8.2813592556557296 -10.59339885418634 1 0 
2 -80.000000000000028 -2.4999999999999076 0 1 1 -0 2
1 6.2831853071795862 25.467026126963447 -1 0 
2 -80.000000000000028 -2.4999999999999076 0 1 1 -0 2
1 6.2831853071795862 25.467026126963447 -1 0 
2 80.000000000000043 -2.4999999999999076 0 1 1 -0 2
1 0 -25.467026126963447 1 0 
2 80.000000000000043 -2.4999999999999076 0 1 1 -0 2
1 0 -25.467026126963447 1 0 
1 100.00000000000004 0 0 1 
1 1.5000000000015348 0 0 1 
1 0 4.5000000000000355 -1 -0 
1 0 1.5000000000015348 1 0 
1 -99.999999999999986 -11.49282838955785 0 1 
1 1.5000000000015348 -11.49282838955785 3.33066907387547e-15 1 
1 3.1415926535897931 23.967026126961912 0 -1 
1 3.1415926535897931 23.967026126961912 0 -1 
1 6.2831853071795862 23.967026126961912 0 1 
1 0 23.967026126961912 0 1 
1 3.1415926535897931 -23.967026126961912 0 1 
1 3.1415926535897931 -23.967026126961912 0 1 
1 0 -23.967026126961912 0 -1 
1 6.2831853071795862 -23.967026126961912 0 -1 
1 -100.00000000000004 0 0 -1 
1 0 4.5000000000000355 -1 0 
1 99.999999999999986 0 0 1 
1 0 4.5000000000000355 1 0 
Curves 86
1 523.83678670205279 100.53167030307057 197.09174128918676 1 0 0 
1 531.69974557485648 100.53167030307083 17.550157963627381 0 0 1 
1 523.83678670205279 100.53167030307057 38.008574638068005 -1 0 0 
1 516.96210325187144 100.53167030307057 17.550157963627381 0 0 1 
1 531.69974557485648 122.15765009757082 187.01504908157085 3.5527136788004808e-15 -0.90643084710691224 0.42235425819215511 
1 516.46796554056027 97.531670303070641 198.48960057279407 -1 0 0 
1 516.96210325187144 97.531670303070641 198.48960057279407 0 0.90643084710691124 -0.42235425819215699 
1 531.69974557485648 97.531670303070641 17.550157963627381 0 0 1 
1 531.69974557485648 83.874157294337465 30.246954904378651 -3.5527136788004808e-15 0.90643084710691224 0.42235425819215511 
1 516.46796554056027 97.531670303070641 36.610715354460687 1 0 0 
1 516.96210325187144 100.53167030307057 38.008574638068005 0 -0.90643084710691124 -0.42235425819215699 
1 516.96210325187144 97.531670303070641 17.550157963627381 0 0 1 
1 516.96210325187144 100.53167030307057 197.09174128918676 -0.9253674088470869 1.2913946638615226e-13 0.37907144266434567 
1 511.05596776864706 100.53167030307139 199.51115575828538 0 0 -1 
1 511.05596776864706 100.53167030307139 35.589160168969357 0.92536740884708579 -1.2913946638615211e-13 0.37907144266434856 
1 511.05596776864735 97.531670303070598 199.73833062136123 -9.459100169806335e-14 0.99714513770404301 -0.075508770041532877 
1 511.05596776864735 97.531670303070598 199.73833062136123 0.97837132394043524 7.0622284816505454e-15 -0.20685635714437198 
1 511.05596776864706 100.53167030307139 35.589160168969357 9.4591001698063337e-14 -0.99714513770404334 -0.075508770041528173 
1 511.05596776864735 97.531670303070598 35.361985305893526 0.97837132394043491 7.0622284816505438e-15 0.20685635714437309 
1 511.05596776864735 97.531670303070598 35.361985305893526 0 0 1 
1 537.09426083404628 100.53167030306957 187.53982525214491 0.90857368832210961 -3.1613600626201332e-14 -0.41772461369753888 
1 499.14090153703631 100.53167030307191 30.111105386234183 -0.90857368832210972 3.261280134836398e-14 -0.41772461369753883 
1 473.75288394754017 100.53167030307219 17.550157963627381 0 0 1 
1 504.90442585809365 100.53167030307162 79.78205518804954 0 0 1 
2 499.90442585809348 100.53167030307208 193.63191169482727 -3.8812600154230971e-14 -1 -3.1576743489238919e-15 0.41772461369753383 -1.9081958235744878e-14 0.90857368832211205 -0.90857368832211205 3.3945068977914161e-14 0.41772461369753378 4.9999999999999893
1 532.51035245008575 100.5316703030706 184.14418582219099 -0.90857368832210961 3.1613600626201332e-14 0.41772461369753888 
2 484.90442585809376 100.53167030307151 200.52829146676885 -4.5907722068250223e-14 -1 0 -1 4.5907722068250223e-14 0 0 -0 -1 5.0000000000000151
1 479.90442585809359 100.53167030307202 30.318260739205353 0 0 -1 
2 484.90442585809376 100.53167030307151 34.572024460485892 -4.5907722068250223e-14 -1 0 -1 4.5907722068250223e-14 0 0 -0 -1 5.0000000000000151
1 494.55699315307612 100.53167030307043 33.506744816188125 0.90857368832210728 -3.5027536426923689e-14 0.41772461369754393 
2 499.90442585809348 100.53167030307208 41.468404232427488 -3.8812600154230971e-14 -1 3.1576743489238919e-15 0.41772461369753383 -1.9081958235744878e-14 -0.90857368832211205 0.90857368832211205 -3.3945068977914161e-14 0.41772461369753378 4.9999999999999893
1 521.7835188257967 97.531670303070996 194.8062462138279 -0.90857368832210961 3.5721425817314412e-14 0.41772461369753899 
7 0 0  1 2 2  473.75288394754017 100.53167030307219 216.66157127128088  473.75288394753971 97.53167030307128 216.88874613435672 
 0 2 1 2
1 483.83015952878679 97.531670303070769 22.844684424551023 0.90857368832210739 -3.8108405320258498e-14 0.41772461369754388 
7 0 0  1 2 2  473.75288394753971 97.53167030307128 18.211569792897979  473.75288394754017 100.53167030307219 18.438744655973938 
 0 2 1 2
1 504.90442585809348 97.531670303070655 29.509281098027408 0 0 -1 
2 499.90442585809353 97.53167030307128 41.468404232427488 4.1784554985798831e-14 1 -1.7149211195154474e-15 0.41772461369753372 -1.9012569296705806e-14 -0.90857368832211194 -0.90857368832211205 3.7247982476174002e-14 -0.41772461369753378 4.9999999999999893
1 479.16003065281058 97.531670303072815 26.427858100443267 -0.90857368832210739 3.8108405320258498e-14 -0.41772461369754388 
2 484.90442585809382 97.531670303070655 34.572024460485892 4.5907722068250223e-14 1 -0 -1 4.5907722068250223e-14 0 0 0 1 5.0000000000000151
1 479.90442585809359 97.531670303071223 79.78205518804954 0 0 1 
2 484.90442585809382 97.531670303070655 200.52829146676885 4.5907722068250223e-14 1 -0 -1 4.5907722068250223e-14 0 0 0 1 5.0000000000000151
1 517.11338994982066 97.531670303070428 191.22307253793585 0.90857368832210961 -3.5721425817314412e-14 -0.41772461369753899 
2 499.90442585809353 97.53167030307128 193.63191169482727 4.1784554985798831e-14 1 1.7149211195154474e-15 0.41772461369753372 -1.9012569296705806e-14 0.90857368832211194 0.90857368832211205 -3.7247982476174002e-14 -0.41772461369753378 4.9999999999999893
1 473.75288394753971 97.53167030307128 17.550157963627381 0 0 1 
1 504.90442585809245 78.873045350372138 41.468404232427488 3.1780134079895106e-14 1 0 
1 504.90442585809245 78.873045350372138 193.63191169482727 3.1780134079895106e-14 1 0 
1 501.99304892658046 78.873045350370887 198.1747801364377 3.1780134079895106e-14 1 0 
1 486.99304892658034 78.873045350372649 205.07115990837957 4.5879966492634594e-14 1 0 
1 479.90442585809262 78.873045350372536 200.52829146676885 4.5879966492634594e-14 1 0 
1 479.90442585809262 78.873045350372536 34.572024460485892 4.5879966492634594e-14 1 0 
1 486.99304892658034 78.873045350372649 30.029156018875188 4.5879966492634594e-14 1 0 
1 501.99304892658046 78.873045350370887 36.925535790817037 3.1780134079895106e-14 1 0 
1 473.75288394754017 100.53167030307219 216.66157127128088 -0.82483665412886931 0 0.56537111175359145 
1 473.06792420433817 100.53167030307219 217.13106598830404 0 0 -1 
1 473.06792420433817 100.53167030307219 17.969249938950774 0.8248366541288713 0 0.56537111175358845 
7 0 0  1 2 2  473.06792420433817 100.53167030307219 217.13106598830404  473.0679242043372 97.531670303071508 217.13106598830404 
 0 2 1 2
1 473.0679242043372 97.531670303071508 217.13106598830404 0.94274413577841565 -3.1294568955582623e-13 -0.33351685782791868 
1 473.75288394753971 97.53167030307128 18.211569792897979 -0.94274413577836802 3.1294568955581037e-13 -0.3335168578280534 
7 0 0  1 2 2  473.0679242043372 97.531670303071508 17.969249938950547  473.06792420433817 100.53167030307219 17.969249938950774 
 0 2 1 2
1 473.0679242043372 97.531670303071508 17.969249938950547 0 0 1 
2 464.07509581477973 100.53167030307355 37.550157963627342 -1.535715998812748e-13 -1 0 -1 1.535715998812748e-13 0 0 -0 -1 2.0000000000000009
2 464.07509581477973 100.53167030307355 37.550157963627342 -1.535715998812748e-13 -1 0 -1 1.535715998812748e-13 0 0 -0 -1 2.0000000000000009
2 464.07509581477973 100.53167030307355 197.55015796362741 -1.535715998812748e-13 -1 0 -1 1.535715998812748e-13 0 0 -0 -1 2.0000000000000009
2 464.07509581477973 100.53167030307355 197.55015796362741 -1.535715998812748e-13 -1 0 -1 1.535715998812748e-13 0 0 -0 -1 2.0000000000000009
1 457.07509581477973 100.53167030307463 117.55015796362737 0 -0 -1 
1 461.57509581477979 100.53167030307395 217.55015796362741 1 -1.535715998812748e-13 0 
1 521.26579183944114 100.53167030306474 194.67312041370107 0.90643084710691213 -1.363154555079223e-13 -0.42235425819215511 
1 482.98229903620768 100.53167030307065 22.588883572248239 -0.90643084710690991 1.3631545550792195e-13 -0.42235425819216005 
1 461.57509581477979 100.53167030307395 17.550157963627381 -1 1.535715998812748e-13 0 
1 518.39307891548629 97.531670303064516 196.01166989033055 -0.90643084710691213 1.363154555079223e-13 0.42235425819215511 
1 472.16849466896463 90.75031104741754 217.55015796362741 1.535715998812748e-13 1 0 
1 480.10958611225288 97.531670303070428 21.250334095618737 0.90643084710690991 -1.3631545550792195e-13 0.42235425819216005 
1 472.16849466896463 90.75031104741754 17.550157963627381 -1.535715998812748e-13 -1 0 
2 464.07509581477922 97.531670303072872 37.550157963627342 1.535715998812748e-13 1 -0 -1 1.535715998812748e-13 0 0 0 1 2.0000000000000009
2 464.07509581477922 97.531670303072872 37.550157963627342 1.535715998812748e-13 1 -0 -1 1.535715998812748e-13 0 0 0 1 2.0000000000000009
2 464.07509581477922 97.531670303072872 197.55015796362741 1.535715998812748e-13 1 -0 -1 1.535715998812748e-13 0 0 0 1 2.0000000000000009
2 464.07509581477922 97.531670303072872 197.55015796362741 1.535715998812748e-13 1 -0 -1 1.535715998812748e-13 0 0 0 1 2.0000000000000009
1 461.57509581477933 97.53167030307327 217.55015796362741 -1 1.535715998812748e-13 0 
1 457.07509581477927 97.531670303073952 117.55015796362737 0 -0 -1 
1 473.0679242043372 97.531670303071508 17.550157963627381 -1 1.5024093080739933e-13 0 
1 466.07509581477962 99.031670303074065 37.550157963627342 1.535715998812748e-13 1 -0 
1 462.07509581477962 99.031670303074691 37.550157963627342 -1.535715998812748e-13 -1 0 
1 466.07509581477962 99.031670303074065 197.55015796362741 1.535715998812748e-13 1 0 
1 462.07509581477962 99.031670303074691 197.55015796362741 -1.535715998812748e-13 -1 0 
1 457.0750958147795 99.031670303075487 217.55015796362741 1.535715998812748e-13 1 0 
1 457.0750958147795 99.031670303075487 17.550157963627381 -1.535715998812748e-13 -1 0 
Polygon3D 0
PolygonOnTriangulations 0
Surfaces 32
1 531.69974557485648 100.53167030307083 17.550157963627381 -3.3029134982598399e-15 1 0 -1 -3.3029134982598399e-15 0 0 0 1 
1 515.9738278292491 77.513691402580179 207.8170397878298 -1.3949995804304195e-15 0.42235425819216488 0.90643084710690769 1 3.3029134982598372e-15 -2.5637979419682877e-30 -2.9938626801485054e-15 0.90643084710690769 -0.42235425819216488 
1 531.69974557485648 97.531670303070641 17.550157963627381 1 3.3029134982598399e-15 0 -3.3029134982598399e-15 1 0 0 -0 1 
1 515.9738278292491 77.513691402580179 27.283276139424945 1.3949995804304195e-15 -0.42235425819216488 0.90643084710690769 1 3.3029134982598372e-15 2.5637979419682877e-30 -2.9938626801485054e-15 0.90643084710690769 0.42235425819216488 
1 513.96647844809172 100.53167030307101 117.55015796362737 -1.3955480293718897e-13 -1 -0 -1 1.3955480293718897e-13 0 0 0 -1 
1 516.96210325187144 97.531670303070641 17.550157963627381 2.8207856787701002e-15 -1 0 1 2.8207856787701002e-15 0 -0 0 1 
9 0 0 0 0 1 1 2 2 2 2 516.96210325187144 100.53167030307057 197.09174128918676  516.96210325187144 97.531670303070641 198.48960057279407  
511.05596776864706 100.53167030307139 199.51115575828538  511.05596776864735 97.531670303070598 199.73833062136123  

0 2
6.3824762216153861 2

0 2
1 2

9 0 0 0 0 1 1 2 2 2 2 516.96210325187144 100.53167030307057 38.008574638068005  516.96210325187144 97.531670303070641 36.610715354460687  
511.05596776864706 100.53167030307139 35.589160168969357  511.05596776864735 97.531670303070598 35.361985305893526  

0 2
6.3824762216153932 2

0 2
1 2

1 513.98723667881359 97.531670303070612 117.55015796362738 -7.2183518760617223e-15 1 0 1 7.2183518760617223e-15 0 0 0 -1 
1 510.84452688528586 95.33927111639035 17.550157963627381 -0.98670586557819828 0.16251626021287405 0 -0.16251626021287405 -0.98670586557819828 0 0 0 1 
1 507.74228680500829 58.044550725309755 17.550157963627381 0.98670586557819773 -0.16251626021287796 0 0.16251626021287796 0.98670586557819773 0 -0 0 1 
1 473.40959819040245 100.53167030307218 117.55015796362741 -0 -1 -0 0 0 -1 1 -0 0 
1 419.4009022108512 104.16615083372389 142.0139524124715 -0.16251626021288201 -0.98670586557819695 0 0.98670586557819695 -0.16251626021288201 0 0 0 1 
2 530.40291227956459 80.816100574339941 193.63191169482727 -0.98670586557819695 0.16251626021288201 -1.1191741977611999e-17 0.067887042016993998 0.41217132653174299 0.90857368832211205 0.14765799795393433 0.8964949875774445 -0.41772461369753378 4.9999999999999893
1 528.3046035864545 68.076369223325784 205.07115990837957 0.067887042016994734 0.41217132653174615 0.9085736883221105 0.147657997953934 0.89649498757744306 -0.41772461369753705 -0.98670586557819695 0.16251626021288204 2.081668171172168e-16 
2 527.96516837637023 66.015512590666816 200.52829146676885 -0.98670586557819695 0.16251626021288201 0 -0.16251626021288201 -0.98670586557819695 0 0 0 1 5.0000000000000151
1 415.33799570552981 79.498504194268989 142.0139524124715 0.16251626021288201 0.98670586557819695 0 -0.98670586557819695 0.16251626021288201 0 0 -0 1 
2 527.96516837637023 66.015512590666816 34.572024460485892 0.98670586557819695 -0.16251626021288201 0 -0.16251626021288201 -0.98670586557819695 0 0 -0 -1 5.0000000000000151
1 528.3046035864545 68.076369223325784 30.029156018875188 -0.067887042016994734 -0.41217132653174615 0.9085736883221105 0.147657997953934 0.89649498757744306 0.41772461369753705 -0.98670586557819695 0.16251626021288204 -2.081668171172168e-16 
2 530.40291227956459 80.816100574339941 41.468404232427488 0.98670586557819695 -0.16251626021288201 -1.1191741977611999e-17 0.067887042016993998 0.41217132653174299 -0.90857368832211205 0.14765799795393433 0.8964949875774445 0.41772461369753378 4.9999999999999893
9 0 0 0 0 1 1 2 2 2 2 473.75288394754017 100.53167030307219 216.66157127128088  473.75288394753971 97.53167030307128 216.88874613435672  
473.06792420433817 100.53167030307219 217.13106598830404  473.0679242043372 97.531670303071508 217.13106598830404  

0 2
0.8304186529215335 2

0 2
1 2

9 0 0 0 0 1 1 2 2 2 2 473.75288394753971 97.53167030307128 18.211569792897979  473.75288394754017 100.53167030307219 18.438744655973938  
473.0679242043372 97.531670303071508 17.969249938950547  473.06792420433817 100.53167030307219 17.969249938950774  

-0.8304186529215315 2
0 2

0 2
1 2

1 473.40998839193122 97.531670303071394 117.5501579636273 3.3195188140568978e-13 1 0 1 -3.3195188140568978e-13 0 0 0 -1 
1 504.69974557485779 46.031670303070641 117.55015796362737 -1 0 -0 0 0 -1 0 -1 -0 
1 507.69974557485847 46.031670303070641 117.55015796362737 1 -0 0 0 0 1 -0 -1 0 
2 482.23271944789502 48.531670303070548 37.550157963627342 1 0 0 0 -1 0 0 0 -1 2.0000000000000009
2 482.23271944789502 48.531670303070548 37.550157963627342 1 0 0 0 -1 0 0 0 -1 2.0000000000000009
2 482.23271944789502 48.531670303070548 197.55015796362741 -1 0 0 0 -1 0 0 0 1 2.0000000000000009
2 482.23271944789502 48.531670303070548 197.55015796362741 -1 0 0 0 -1 0 0 0 1 2.0000000000000009
1 506.19974557485693 41.531670303070605 117.55015796362737 -0 -1 -0 0 0 -1 1 -0 0 
1 506.19974557485693 46.031670303070641 217.55015796362741 0 0 -1 1 0 0 0 -1 0 
1 506.19974557485693 46.031670303070641 17.550157963627381 0 0 -1 1 0 0 0 -1 0 
Triangulations 0

TShapes 218
Ve
1.00000063552874e-07
516.962103251871 100.531670303071 197.091741289187
0 0

0101101
*
Ve
1e-07
531.699745574856 100.531670303071 197.091741289187
0 0

0101101
*
Ed
 1e-07 1 1 0
1  1 0 -6.87468345018135 7.86295887280369
2  1 1 4 -6.87468345018135 7.86295887280369
2  2 2 7 -6.87468345018135 7.86295887280369
4 C0 1 4 2 7
0

0101000
+218 0 -217 0 *
Ve
1e-07
531.699745574856 100.531670303071 38.008574638068
0 0

0101101
*
Ed
 1e-07 1 1 0
1  2 0 20.4584166744406 179.541583325559
2  3 1 4 20.4584166744406 179.541583325559
2  4 3 9 20.4584166744406 179.541583325559
4 C0 1 4 3 9
0

0101000
+215 0 -217 0 *
Ve
1.00000044938668e-07
516.962103251871 100.531670303071 38.008574638068
0 0

0101101
*
Ed
 1e-07 1 1 0
1  3 0 -7.86295887280369 6.87468345018135
2  5 1 4 -7.86295887280369 6.87468345018135
2  6 4 11 -7.86295887280369 6.87468345018135
4 C0 1 4 4 11
0

0101000
+215 0 -213 0 *
Ed
 1e-07 1 1 0
1  4 0 20.4584166744406 179.541583325559
2  7 1 4 20.4584166744406 179.541583325559
2  8 5 0 20.4584166744406 179.541583325559
4 G2 1 4 5 0
0

0101000
+213 0 -218 0 *
Wi

0101100
+216 5 -214 5 +212 5 +211 5 *
Fa
0  1e-07 1 0

0101000
+210 0 *
Ve
1e-07
531.699745574856 97.5316703030706 198.489600572794
0 0

0101101
*
Ed
 1e-07 1 1 0
1  5 0 23.8583890470239 27.1680734091298
2  9 2 7 23.8583890470239 27.1680734091298
2  10 3 9 23.8583890470239 27.1680734091298
4 C0 2 7 3 9
0

0101000
+217 0 -208 0 *
Ve
1.00000063552874e-07
516.962103251871 97.5316703030706 198.489600572794
0 0

0101101
*
Ed
 1e-07 1 1 0
1  6 0 -15.2317800342962 -0.494137711311168
2  11 2 7 -15.2317800342962 -0.494137711311168
2  12 6 14 -15.2317800342962 -0.494137711311168
4 C0 2 7 6 14
0

0101000
+208 0 -206 0 *
Ed
 1e-07 1 1 0
1  7 0 0 3.30968436210566
2  13 2 7 0 3.30968436210566
2  14 7 0 0 3.30968436210566
4 C0 2 7 7 0
0

0101000
+206 0 -218 0 *
Wi

0101100
-216 12 -207 12 -205 12 -204 12 *
Fa
0  1e-07 2 2

0101000
+203 0 *
Ve
1e-07
531.699745574856 97.5316703030706 36.6107153544607
0 0

0101101
*
Ed
 1e-07 1 1 0
1  8 0 19.0605573908333 180.939442609167
2  15 3 9 19.0605573908333 180.939442609167
2  16 6 14 19.0605573908333 180.939442609167
4 C0 3 9 6 14
0

0101000
+201 0 -208 0 *
Ed
 1e-07 1 1 0
1  9 0 15.0673524100867 18.3770367721926
2  17 3 9 15.0673524100867 18.3770367721926
2  18 4 11 15.0673524100867 18.3770367721926
4 C0 3 9 4 11
0

0101000
+201 0 -215 0 *
Wi

0101100
+207 15 -200 15 +199 15 +214 15 *
Fa
0  1e-07 3 0

0101000
+198 0 *
Ve
1.00000044938668e-07
516.962103251871 97.5316703030706 36.6107153544607
0 0

0101101
*
Ed
 1e-07 1 1 0
1  10 0 0.494137711311168 15.2317800342962
2  19 4 11 0.494137711311168 15.2317800342962
2  20 6 14 0.494137711311168 15.2317800342962
4 C0 4 11 6 14
0

0101000
+196 0 -201 0 *
Ed
 1e-07 1 1 0
1  11 0 0 3.30968436210566
2  21 4 11 0 3.30968436210566
2  22 8 0 0 3.30968436210566
4 C0 4 11 8 0
0

0101000
+213 0 -196 0 *
Wi

0101100
+212 16 +199 16 +195 16 +194 16 *
Fa
0  1e-07 4 2

0101000
+193 0 *
Ed
 1e-07 1 1 0
1  12 0 19.0605573908333 180.939442609167
2  23 6 14 19.0605573908333 180.939442609167
2  24 9 0 19.0605573908333 180.939442609167
4 G2 6 14 9 0
0

0101000
+196 0 -206 0 *
Wi

0101100
+205 17 -191 17 +195 17 +200 17 *
Fa
0  1e-07 6 0

0101000
+190 0 *
Ve
1.00000127105749e-07
511.055967768647 100.531670303071 199.511155758285
0 0

0101101
*
Ed
 1e-07 1 1 0
1  13 0 0 6.38247622161539
2  25 5 0 0 6.38247622161539
2  26 7 0 0 6.38247622161539
4 C0 5 0 7 0
0

0101000
+218 0 -188 0 *
Ve
1.00000114791692e-07
511.055967768647 100.531670303071 35.5891601689694
0 0

0101101
*
Ed
 1e-07 1 1 0
1  14 0 0 163.921995589316
2  27 5 0 0 163.921995589316
2  28 10 19 0 163.921995589316
4 G2 5 0 10 19
0

0101000
+188 0 -186 0 *
Ed
 1e-07 1 1 0
1  15 0 0 6.38247622161539
2  29 5 0 0 6.38247622161539
2  30 8 0 0 6.38247622161539
4 C0 5 0 8 0
0

0101000
+186 0 -213 0 *
Wi

0101100
+187 0 +185 0 +184 0 +211 0 *
Fa
0  1e-07 5 0

0101000
+183 0 *
Ve
1.00000127105749e-07
511.055967768647 97.5316703030706 199.738330621361
0 0

0101101
*
Ed
 1e-07 1 1 0
1  16 0 0 3.00858910760816
2  31 2 21 0 3.00858910760816
2  32 7 0 0 3.00858910760816
4 C0 7 0 2 21
0

0101000
+181 0 -188 0 *
Ed
 1e-07 1 1 0
1  17 0 0 6.03670134099685
2  33 7 0 0 6.03670134099685
2  34 9 0 0 6.03670134099685
4 C0 7 0 9 0
0

0101000
+181 0 -206 0 *
Wi

0101100
+187 0 -180 0 +179 0 +204 0 *
Fa
0  1e-07 7 0

0101000
+178 0 *
Ve
1.00000114791692e-07
511.055967768647 97.5316703030706 35.3619853058935
0 0

0101101
*
Ed
 1e-07 1 1 0
1  18 0 0 3.00858910760816
2  35 4 23 0 3.00858910760816
2  36 8 0 0 3.00858910760816
4 C0 8 0 4 23
0

0101000
+186 0 -176 0 *
Ed
 1e-07 1 1 0
1  19 0 0 6.03670134099685
2  37 8 0 0 6.03670134099685
2  38 9 0 0 6.03670134099685
4 C0 8 0 9 0
0

0101000
+176 0 -196 0 *
Wi

0101100
-184 0 +175 0 +174 0 -194 0 *
Fa
0  1e-07 8 0

0101000
+173 0 *
Ed
 1e-07 1 1 0
1  20 0 0 164.376345315468
2  39 9 0 0 164.376345315468
2  40 11 25 0 164.376345315468
4 G2 9 0 11 25
0

0101000
+176 0 -181 0 *
Wi

0101100
-174 0 +171 0 +179 0 -191 0 *
Fa
0  1e-07 9 0

0101000
+170 0 *
Ve
1.00000158882186e-07
473.75288394754 100.531670303072 216.661571271281
0 0

0101101
*
Ed
 1e-07 1 1 0
1  21 0 -69.7151785272152 -28.6584273791649
2  41 10 19 -69.7151785272152 -28.6584273791649
2  42 2 21 -69.7151785272152 -28.6584273791649
4 C0 10 19 2 21
0

0101000
+168 0 -188 0 *
Ve
1.0000011121753e-07
473.75288394754 100.531670303072 18.4387446559739
0 0

0101101
*
Ed
 1e-07 1 1 0
1  22 0 -13.1140339905888 27.9427171574614
2  43 10 19 -13.1140339905888 27.9427171574614
2  44 4 23 -13.1140339905888 27.9427171574614
4 C0 10 19 4 23
0

0101000
+186 0 -166 0 *
Ed
 1e-07 1 1 0
1  23 0 0.888586692346557 199.111413307653
2  45 10 19 0.888586692346557 199.111413307653
2  46 12 0 0.888586692346557 199.111413307653
4 CN 10 19 12 0
0

0101000
+166 0 -168 0 *
Wi

0101100
+167 26 +185 26 +165 26 +164 26 *
Ve
1e-07
504.904425858094 100.531670303072 41.4684042324275
0 0

0101101
*
Ve
1e-07
504.904425858094 100.531670303072 193.631911694827
0 0

0101101
*
Ed
 1e-07 1 1 0
1  24 0 -38.3136509556221 113.849856506778
2  47 10 19 -38.3136509556221 113.849856506778
2  48 13 28 -38.3136509556221 113.849856506778
4 C0 10 19 13 28
0

0101000
+162 0 -161 0 *
Ve
1e-07
501.993048926581 100.53167030307 198.174780136438
0 0

0101101
*
Ed
 1e-07 1 1 0
1  25 0 5.14332850465323 6.28318530717959
2  49 10 19 5.14332850465323 6.28318530717959
2  50 14 30 5.14332850465323 6.28318530717959
4 C0 10 19 14 30
0

0101000
+161 0 -159 0 *
Ve
1e-07
486.993048926581 100.531670303072 205.07115990838
0 0

0101101
*
Ed
 1e-07 1 1 0
1  26 0 33.5881436098612 50.0975365108389
2  51 10 19 33.5881436098612 50.0975365108389
2  52 15 32 33.5881436098612 50.0975365108389
4 C0 10 19 15 32
0

0101000
+159 0 -157 0 *
Ve
1e-07
479.904425858094 100.531670303072 200.528291466769
0 0

0101101
*
Ed
 1e-07 1 1 0
1  27 0 4.28144945611618 6.28318530717959
2  53 10 19 4.28144945611618 6.28318530717959
2  54 16 34 4.28144945611618 6.28318530717959
4 C0 10 19 16 34
0

0101000
+157 0 -155 0 *
Ve
1e-07
479.904425858094 100.531670303072 34.5720244604859
0 0

0101101
*
Ed
 1e-07 1 1 0
1  28 0 -170.210030727563 -4.25376372128054
2  55 10 19 -170.210030727563 -4.25376372128054
2  56 17 36 -170.210030727563 -4.25376372128054
4 C0 10 19 17 36
0

0101000
+155 0 -153 0 *
Ve
1e-07
486.993048926581 100.531670303072 30.0291560188752
0 0

0101101
*
Ed
 1e-07 1 1 0
1  29 0 0 2.00173585106341
2  57 10 19 0 2.00173585106341
2  58 18 38 0 2.00173585106341
4 C0 10 19 18 38
0

0101000
+153 0 -151 0 *
Ve
1e-07
501.993048926581 100.53167030307 36.925535790817
0 0

0101101
*
Ed
 1e-07 1 1 0
1  30 0 -8.32507514108553 8.18431775989215
2  59 10 19 -8.32507514108553 8.18431775989215
2  60 19 40 -8.32507514108553 8.18431775989215
4 C0 10 19 19 40
0

0101000
+151 0 -149 0 *
Ed
 1e-07 1 1 0
1  31 0 0 1.13985680252635
2  61 10 19 0 1.13985680252635
2  62 20 42 0 1.13985680252635
4 C0 10 19 20 42
0

0101000
+149 0 -162 0 *
Wi

0101100
+160 26 +158 26 +156 26 +154 26 +152 26 +150 26 +148 26 +147 26 *
Fa
0  1e-07 10 0

0101000
+163 0 +146 0 *
Ve
1.00000158882186e-07
473.75288394754 97.5316703030713 216.888746134357
0 0

0101101
*
Ed
 1e-07 1 1 0
1  32 0 11.8070236845184 52.8637748325693
2  63 2 21 11.8070236845184 52.8637748325693
2  64 11 25 11.8070236845184 52.8637748325693
4 C0 2 21 11 25
0

0101000
+181 0 -144 0 *
Ed
 1e-07 1 1 0
1  33 0 0 1
2  65 21 0 0 1
2  66 2 21 0 1
4 C0 2 21 21 0
0

0101000
+168 0 -144 0 *
Wi

0101100
-167 43 +180 43 -143 43 +142 43 *
Fa
0  1e-07 2 2

0101000
+141 0 *
Ve
1.0000011121753e-07
473.75288394754 97.5316703030713 18.211569792898
0 0

0101101
*
Ed
 1e-07 1 1 0
1  34 0 -11.0913134628157 29.9654376852353
2  67 4 23 -11.0913134628157 29.9654376852353
2  68 11 25 -11.0913134628157 29.9654376852353
4 C0 4 23 11 25
0

0101000
+139 0 -176 0 *
Ed
 1e-07 1 1 0
1  35 0 0 1
2  69 22 0 0 1
2  70 4 23 0 1
4 C0 4 23 22 0
0

0101000
+139 0 -166 0 *
Wi

0101100
+165 44 -175 44 +138 44 -137 44 *
Fa
0  1e-07 4 2

0101000
+136 0 *
Ve
1e-07
504.904425858093 97.5316703030707 193.631911694827
0 0

0101101
*
Ve
1e-07
504.904425858093 97.5316703030707 41.4684042324275
0 0

0101101
*
Ed
 1e-07 1 1 0
1  36 0 -164.1226305968 -11.9591231344001
2  71 11 25 -164.1226305968 -11.9591231344001
2  72 13 28 -164.1226305968 -11.9591231344001
4 C0 11 25 13 28
0

0101000
+134 0 -133 0 *
Ve
1e-07
501.993048926581 97.5316703030719 36.925535790817
0 0

0101101
*
Ed
 1e-07 1 1 0
1  37 0 5.14332850465323 6.28318530717959
2  73 11 25 5.14332850465323 6.28318530717959
2  74 20 42 5.14332850465323 6.28318530717959
4 C0 11 25 20 42
0

0101000
+133 0 -131 0 *
Ve
1e-07
486.993048926581 97.5316703030712 30.0291560188752
0 0

0101101
*
Ed
 1e-07 1 1 0
1  38 0 -25.1306179864585 -8.62122508548114
2  75 11 25 -25.1306179864585 -8.62122508548114
2  76 19 40 -25.1306179864585 -8.62122508548114
4 C0 11 25 19 40
0

0101000
+131 0 -129 0 *
Ve
1e-07
479.904425858094 97.5316703030712 34.5720244604859
0 0

0101101
*
Ed
 1e-07 1 1 0
1  39 0 4.28144945611618 6.28318530717959
2  77 11 25 4.28144945611618 6.28318530717959
2  78 18 38 4.28144945611618 6.28318530717959
4 C0 11 25 18 38
0

0101000
+129 0 -127 0 *
Ve
1e-07
479.904425858094 97.5316703030712 200.528291466769
0 0

0101101
*
Ed
 1e-07 1 1 0
1  40 0 -45.2100307275636 120.746236278719
2  79 11 25 -45.2100307275636 120.746236278719
2  80 17 36 -45.2100307275636 120.746236278719
4 C0 11 25 17 36
0

0101000
+127 0 -125 0 *
Ve
1e-07
486.993048926581 97.5316703030712 205.07115990838
0 0

0101101
*
Ed
 1e-07 1 1 0
1  41 0 0 2.00173585106341
2  81 11 25 0 2.00173585106341
2  82 16 34 0 2.00173585106341
4 C0 11 25 16 34
0

0101000
+125 0 -123 0 *
Ve
1e-07
501.993048926581 97.5316703030719 198.174780136438
0 0

0101101
*
Ed
 1e-07 1 1 0
1  42 0 -33.1512362842726 -16.6418433832953
2  83 11 25 -33.1512362842726 -16.6418433832953
2  84 15 32 -33.1512362842726 -16.6418433832953
4 C0 11 25 15 32
0

0101000
+123 0 -121 0 *
Ed
 1e-07 1 1 0
1  43 0 0 1.13985680252635
2  85 11 25 0 1.13985680252635
2  86 14 30 0 1.13985680252635
4 C0 11 25 14 30
0

0101000
+121 0 -134 0 *
Wi

0101100
+132 45 +130 45 +128 45 +126 45 +124 45 +122 45 +120 45 +119 45 *
Ed
 1e-07 1 1 0
1  44 0 0.661411829270598 199.338588170729
2  87 11 25 0.661411829270598 199.338588170729
2  88 23 0 0.661411829270598 199.338588170729
4 G2 11 25 23 0
0

0101000
+139 0 -144 0 *
Wi

0101100
+143 45 -117 45 +138 45 +171 45 *
Fa
0  1e-07 11 0

0101000
+118 0 +116 0 *
Ed
 1e-07 1 1 0
1  45 0 18.6586249526985 21.6586249526994
2  89 13 28 18.6586249526985 21.6586249526994
2  90 20 42 18.6586249526985 21.6586249526994
4 G1 13 28 20 42
0

0101000
+133 0 -162 0 *
Ed
 1e-07 1 1 0
1  46 0 18.6586249526985 21.6586249526994
2  91 13 28 18.6586249526985 21.6586249526994
2  92 14 30 18.6586249526985 21.6586249526994
4 G1 13 28 14 30
0

0101000
+134 0 -161 0 *
Wi

0101100
-160 46 -114 46 -132 46 +113 46 *
Fa
0  1e-07 13 0

0101000
+112 0 *
Ed
 1e-07 1 1 0
1  47 0 18.6586249527011 21.6586249526994
2  93 14 30 18.6586249527011 21.6586249526994
2  94 15 32 18.6586249527011 21.6586249526994
4 G1 14 30 15 32
0

0101000
+121 0 -159 0 *
Wi

0101100
+113 47 +158 47 -110 47 +119 47 *
Fa
0  1e-07 14 0

0101000
+109 0 *
Ed
 1e-07 1 1 0
1  48 0 18.6586249526986 21.6586249526994
2  95 15 32 18.6586249526986 21.6586249526994
2  96 16 34 18.6586249526986 21.6586249526994
4 G1 15 32 16 34
0

0101000
+123 0 -157 0 *
Wi

0101100
-120 48 +107 48 -156 48 -110 48 *
Fa
0  1e-07 15 0

0101000
-106 0 *
Ed
 1e-07 1 1 0
1  49 0 18.6586249526986 21.6586249526995
2  97 16 34 18.6586249526986 21.6586249526995
2  98 17 36 18.6586249526986 21.6586249526995
4 G1 16 34 17 36
0

0101000
+125 0 -155 0 *
Wi

0101100
+107 49 +154 49 -104 49 +122 49 *
Fa
0  1e-07 16 0

0101000
+103 0 *
Ed
 1e-07 1 1 0
1  50 0 18.6586249526986 21.6586249526995
2  99 17 36 18.6586249526986 21.6586249526995
2  100 18 38 18.6586249526986 21.6586249526995
4 G1 17 36 18 38
0

0101000
+127 0 -153 0 *
Wi

0101100
-124 50 +101 50 -152 50 -104 50 *
Fa
0  1e-07 17 0

0101000
+100 0 *
Ed
 1e-07 1 1 0
1  51 0 18.6586249526986 21.6586249526994
2  101 18 38 18.6586249526986 21.6586249526994
2  102 19 40 18.6586249526986 21.6586249526994
4 G1 18 38 19 40
0

0101000
+129 0 -151 0 *
Wi

0101100
-98 51 +126 51 +101 51 +150 51 *
Fa
0  1e-07 18 0

0101000
+97 0 *
Ed
 1e-07 1 1 0
1  52 0 18.6586249527011 21.6586249526994
2  103 19 40 18.6586249527011 21.6586249526994
2  104 20 42 18.6586249527011 21.6586249526994
4 G1 19 40 20 42
0

0101000
+131 0 -149 0 *
Wi

0101100
-148 52 -98 52 -128 52 +95 52 *
Fa
0  1e-07 19 0

0101000
+94 0 *
Wi

0101100
-114 53 +130 53 +95 53 +147 53 *
Fa
0  1e-07 20 0

0101000
+92 0 *
Ve
1.00000153055589e-07
473.067924204338 100.531670303072 217.131065988304
0 0

0101101
*
Ed
 1e-07 1 1 0
1  53 0 0 0.830418652921533
2  105 12 0 0 0.830418652921533
2  106 21 0 0 0.830418652921533
4 C0 12 0 21 0
0

0101000
+168 0 -90 0 *
Ve
1.00000089101606e-07
473.067924204338 100.531670303072 17.9692499389508
0 0

0101101
*
Ed
 1e-07 1 1 0
1  54 0 0 199.161816049353
2  107 12 0 0 199.161816049353
2  108 24 55 0 199.161816049353
4 G2 12 0 24 55
0

0101000
+90 0 -88 0 *
Ed
 1e-07 1 1 0
1  55 0 0 0.830418652921531
2  109 12 0 0 0.830418652921531
2  110 22 0 0 0.830418652921531
4 C0 12 0 22 0
0

0101000
+88 0 -166 0 *
Wi

0101100
+89 0 +87 0 +86 0 +164 0 *
Fa
0  1e-07 12 0

0101000
+85 0 *
Ve
1.00000153055589e-07
473.067924204337 97.5316703030715 217.131065988304
0 0

0101101
*
Ed
 1e-07 1 1 0
1  56 0 0 1
2  111 21 0 0 1
2  112 2 57 0 1
4 C0 21 0 2 57
0

0101000
+90 0 -83 0 *
Ed
 1e-07 1 1 0
1  57 0 0 0.726559537426289
2  113 21 0 0 0.726559537426289
2  114 23 0 0 0.726559537426289
4 C0 21 0 23 0
0

0101000
+83 0 -144 0 *
Wi

0101100
+89 0 +82 0 +81 0 -142 0 *
Fa
0  1e-07 21 0

0101000
+80 0 *
Ve
1.00000089101606e-07
473.067924204337 97.5316703030715 17.9692499389505
0 0

0101101
*
Ed
 1e-07 1 1 0
1  58 0 0 0.726559537426326
2  115 22 0 0 0.726559537426326
2  116 23 0 0 0.726559537426326
4 C0 22 0 23 0
0

0101000
+139 0 -78 0 *
Ed
 1e-07 1 1 0
1  59 0 0 1
2  117 22 0 0 1
2  118 4 59 0 1
4 C0 22 0 4 59
0

0101000
+78 0 -88 0 *
Wi

0101100
+77 0 +76 0 +86 0 -137 0 *
Fa
0  1e-07 22 0

0101000
+75 0 *
Ed
 1e-07 1 1 0
1  60 0 0 199.161816049353
2  119 23 0 0 199.161816049353
2  120 25 61 0 199.161816049353
4 CN 23 0 25 61
0

0101000
+78 0 -83 0 *
Wi

0101100
+77 0 +73 0 +81 0 -117 0 *
Fa
0  1e-07 23 0

0101000
+72 0 *
Ve
1e-07
466.07509581478 100.531670303073 37.5501579636273
0 0

0101101
*
Ve
1e-07
462.07509581478 100.531670303074 37.5501579636273
0 0

0101101
*
Ed
 1e-07 1 1 0
1  61 0 3.14159265358979 6.28318530717959
2  121 24 55 3.14159265358979 6.28318530717959
2  122 26 64 3.14159265358979 6.28318530717959
4 C0 24 55 26 64
0

0101000
+70 0 -69 0 *
Ed
 1e-07 1 1 0
1  62 0 0 3.14159265358979
2  123 24 55 0 3.14159265358979
2  124 27 66 0 3.14159265358979
4 C0 24 55 27 66
0

0101000
+69 0 -70 0 *
Wi

0101100
+68 62 +67 62 *
Ve
1e-07
466.07509581478 100.531670303073 197.550157963627
0 0

0101101
*
Ve
1e-07
462.07509581478 100.531670303074 197.550157963627
0 0

0101101
*
Ed
 1e-07 1 1 0
1  63 0 3.14159265358979 6.28318530717959
2  125 24 55 3.14159265358979 6.28318530717959
2  126 28 68 3.14159265358979 6.28318530717959
4 C0 24 55 28 68
0

0101000
+65 0 -64 0 *
Ed
 1e-07 1 1 0
1  64 0 0 3.14159265358979
2  127 24 55 0 3.14159265358979
2  128 29 70 0 3.14159265358979
4 C0 24 55 29 70
0

0101000
+64 0 -65 0 *
Wi

0101100
+63 62 +62 62 *
Ve
1e-07
457.07509581478 100.531670303075 217.550157963627
0 0

0101101
*
Ve
1e-07
457.07509581478 100.531670303075 17.5501579636274
0 0

0101101
*
Ed
 1e-07 1 1 0
1  65 0 -100 100
2  129 24 55 -100 100
2  130 30 72 -100 100
4 C0 24 55 30 72
0

0101000
+60 0 -59 0 *
Ve
1e-07
472.168494668966 100.531670303072 217.550157963627
0 0

0101101
*
Ed
 1e-07 1 1 0
1  66 0 -4.50000000000004 10.5933988541863
2  131 24 55 -4.50000000000004 10.5933988541863
2  132 31 74 -4.50000000000004 10.5933988541863
4 C0 24 55 31 74
0

0101000
+60 0 -57 0 *
Ed
 1e-07 1 1 0
1  67 0 -54.1655188889266 -53.1732429329144
2  133 24 55 -54.1655188889266 -53.1732429329144
2  134 2 57 -54.1655188889266 -53.1732429329144
4 C0 24 55 2 57
0

0101000
+57 0 -90 0 *
Ve
1e-07
472.168494668966 100.531670303072 17.5501579636274
0 0

0101101
*
Ed
 1e-07 1 1 0
1  68 0 10.9378171136979 11.9300930697101
2  135 24 55 10.9378171136979 11.9300930697101
2  136 4 59 10.9378171136979 11.9300930697101
4 C0 24 55 4 59
0

0101000
+88 0 -54 0 *
Ed
 1e-07 1 1 0
1  69 0 -10.5933988541863 4.50000000000004
2  137 24 55 -10.5933988541863 4.50000000000004
2  138 32 76 -10.5933988541863 4.50000000000004
4 C0 24 55 32 76
0

0101000
+54 0 -59 0 *
Wi

0101100
-58 62 +56 62 +55 62 +87 62 +53 62 +52 62 *
Fa
0  1e-07 24 0

0101000
+66 0 +61 0 +51 0 *
Ve
1e-07
472.168494668966 97.5316703030716 217.550157963627
0 0

0101101
*
Ed
 1e-07 1 1 0
1  70 0 50.0039852525046 50.9962612085164
2  139 2 57 50.0039852525046 50.9962612085164
2  140 25 61 50.0039852525046 50.9962612085164
4 C0 2 57 25 61
0

0101000
+83 0 -49 0 *
Ed
 1e-07 1 1 0
1  71 0 6.78135925565419 9.78135925565488
2  141 2 57 6.78135925565419 9.78135925565488
2  142 31 74 6.78135925565419 9.78135925565488
4 C0 2 57 31 74
0

0101000
+49 0 -57 0 *
Wi

0101100
-82 77 -48 77 -47 77 -55 77 *
Fa
0  1e-07 2 2

0101000
+46 0 *
Ve
1e-07
472.168494668966 97.5316703030716 17.5501579636274
0 0

0101101
*
Ed
 1e-07 1 1 0
1  72 0 -8.76083538929983 -7.76855943328816
2  143 4 59 -8.76083538929983 -7.76855943328816
2  144 25 61 -8.76083538929983 -7.76855943328816
4 C0 4 59 25 61
0

0101000
+44 0 -78 0 *
Ed
 1e-07 1 1 0
1  73 0 -9.78135925565488 -6.78135925565419
2  145 4 59 -9.78135925565488 -6.78135925565419
2  146 32 76 -9.78135925565488 -6.78135925565419
4 C0 4 59 32 76
0

0101000
+54 0 -44 0 *
Wi

0101100
+76 78 +43 78 +42 78 +53 78 *
Fa
0  1e-07 4 2

0101000
+41 0 *
Ve
1e-07
466.075095814779 97.5316703030725 37.5501579636273
0 0

0101101
*
Ve
1e-07
462.075095814779 97.5316703030732 37.5501579636273
0 0

0101101
*
Ed
 1e-07 1 1 0
1  74 0 3.14159265358979 6.28318530717959
2  147 25 61 3.14159265358979 6.28318530717959
2  148 27 66 3.14159265358979 6.28318530717959
4 C0 25 61 27 66
0

0101000
+39 0 -38 0 *
Ed
 1e-07 1 1 0
1  75 0 0 3.14159265358979
2  149 25 61 0 3.14159265358979
2  150 26 64 0 3.14159265358979
4 C0 25 61 26 64
0

0101000
+38 0 -39 0 *
Wi

0101100
+37 79 +36 79 *
Ve
1e-07
466.075095814779 97.5316703030725 197.550157963627
0 0

0101101
*
Ve
1e-07
462.075095814779 97.5316703030732 197.550157963627
0 0

0101101
*
Ed
 1e-07 1 1 0
1  76 0 3.14159265358979 6.28318530717959
2  151 25 61 3.14159265358979 6.28318530717959
2  152 29 70 3.14159265358979 6.28318530717959
4 C0 25 61 29 70
0

0101000
+34 0 -33 0 *
Ed
 1e-07 1 1 0
1  77 0 0 3.14159265358979
2  153 25 61 0 3.14159265358979
2  154 28 68 0 3.14159265358979
4 C0 25 61 28 68
0

0101000
+33 0 -34 0 *
Wi

0101100
+32 79 +31 79 *
Ve
1e-07
457.075095814779 97.531670303074 217.550157963627
0 0

0101101
*
Ed
 1e-07 1 1 0
1  78 0 -10.5933988541863 4.50000000000004
2  155 25 61 -10.5933988541863 4.50000000000004
2  156 31 74 -10.5933988541863 4.50000000000004
4 C0 25 61 31 74
0

0101000
+49 0 -29 0 *
Ve
1e-07
457.075095814779 97.531670303074 17.5501579636274
0 0

0101101
*
Ed
 1e-07 1 1 0
1  79 0 -100 100
2  157 25 61 -100 100
2  158 30 72 -100 100
4 C0 25 61 30 72
0

0101000
+29 0 -27 0 *
Ed
 1e-07 1 1 0
1  80 0 0.89942953537151 15.9928283895579
2  159 25 61 0.89942953537151 15.9928283895579
2  160 32 76 0.89942953537151 15.9928283895579
4 C0 25 61 32 76
0

0101000
+44 0 -27 0 *
Wi

0101100
+28 79 +26 79 -25 79 +43 79 +73 79 +48 79 *
Fa
0  1e-07 25 0

0101000
+35 0 +30 0 +24 0 *
Ed
 1e-07 1 1 0
1  81 0 -1.50000000000153 1.49999999999915
2  161 26 64 -1.50000000000153 1.49999999999915
2  162 27 66 -1.50000000000153 1.49999999999915
4 CN 26 64 27 66
0

0101000
+39 0 -70 0 *
Ed
 1e-07 1 1 0
1  82 0 -1.49999999999915 1.50000000000153
2  163 26 64 -1.49999999999915 1.50000000000153
2  164 27 66 -1.49999999999915 1.50000000000153
4 CN 26 64 27 66
0

0101000
+69 0 -38 0 *
Wi

0101100
+36 80 +22 80 +68 80 +21 80 *
Fa
0  1e-07 26 0

0101000
+20 0 *
Wi

0101100
+67 81 -22 81 +37 81 -21 81 *
Fa
0  1e-07 27 0

0101000
+18 0 *
Ed
 1e-07 1 1 0
1  83 0 -1.50000000000153 1.49999999999915
2  165 28 68 -1.50000000000153 1.49999999999915
2  166 29 70 -1.50000000000153 1.49999999999915
4 CN 28 68 29 70
0

0101000
+34 0 -65 0 *
Ed
 1e-07 1 1 0
1  84 0 -1.49999999999915 1.50000000000153
2  167 28 68 -1.49999999999915 1.50000000000153
2  168 29 70 -1.49999999999915 1.50000000000153
4 CN 28 68 29 70
0

0101000
+64 0 -33 0 *
Wi

0101100
+31 82 +16 82 +63 82 +15 82 *
Fa
0  1e-07 28 0

0101000
+14 0 *
Wi

0101100
+62 83 -16 83 +32 83 -15 83 *
Fa
0  1e-07 29 0

0101000
+12 0 *
Ed
 1e-07 1 1 0
1  85 0 -1.50000000000153 1.49999999999915
2  169 30 72 -1.50000000000153 1.49999999999915
2  170 31 74 -1.50000000000153 1.49999999999915
4 C0 30 72 31 74
0

0101000
+29 0 -60 0 *
Ed
 1e-07 1 1 0
1  86 0 -1.49999999999915 1.50000000000153
2  171 30 72 -1.49999999999915 1.50000000000153
2  172 32 76 -1.49999999999915 1.50000000000153
4 C0 30 72 32 76
0

0101000
+59 0 -27 0 *
Wi

0101100
-26 84 +10 84 +58 84 +9 84 *
Fa
0  1e-07 30 0

0101000
+8 0 *
Wi

0101100
-28 85 +47 85 -56 85 -10 85 *
Fa
0  1e-07 31 0

0101000
-6 0 *
Wi

0101100
+25 86 -9 86 -52 86 +42 86 *
Fa
0  1e-07 32 0

0101000
+4 0 *
Sh

0101100
+209 4 +202 6 +197 9 -192 10 +189 14 -182 0 +177 0 -172 0 -169 0 +145 19 
+140 20 -135 22 +115 25 +111 28 -108 30 -105 32 -102 34 +99 36 -96 38 +93 40 
-91 42 -84 0 +79 0 +74 0 -71 0 +50 55 +45 56 -40 58 +23 61 -19 64 
-17 66 -13 68 -11 70 +7 72 -5 74 +3 76 *
So

1100000
+2 0 *

+1 1  