
CASCADE Topology V1, (c) Matra-Datavision
Locations 37
1
              1               0               0               0 
              0               1               0               0 
              0               0               1               0 
1
              1               0               0               0 
              0               1               0               0 
              0               0               1               0 
2  2 -1 0
1
              1               0               0               0 
              0               1               0               0 
              0               0               1               0 
1
              1               0               0               0 
              0               1               0               0 
              0               0               1               0 
1
              1               0               0               0 
              0               1               0               0 
              0               0               1               0 
1
              1               0               0               0 
              0               1               0               0 
              0               0               1               0 
1
              1               0               0               0 
              0               1               0               0 
              0               0               1               0 
2  4 -1 0
1
              1               0               0               0 
              0               1               0               0 
              0               0               1               0 
2  5 -1 0
2  6 -1 0
1
              1               0               0               0 
              0               1               0               0 
              0               0               1               0 
2  7 -1 0
2  8 -1 0
2  10 -1 0
2  13 -1 0
1
0.707106781186548               0 -0.707106781186548 3.98959235991435 
              0               1               0               0 
0.707106781186548               0 0.707106781186548 -6.6317279836453 
1
0.707106781186548               0 0.707106781186547 2.81085093201949 
              0               1               0               0 
-0.707106781186547               0 0.707106781186548 7.51040764008565 
2  18 1 19 1 0
1
0.707106781186548               0 0.707106781186547 2.81085093201949 
              0               1               0               0 
-0.707106781186547               0 0.707106781186548 7.51040764008565 
2  18 1 21 1 0
1
0.707106781186548               0 0.707106781186547 2.81085093201949 
              0               1               0               0 
-0.707106781186547               0 0.707106781186548 7.51040764008565 
2  18 1 23 1 0
1
0.707106781186548               0 0.707106781186547 2.81085093201949 
              0               1               0               0 
-0.707106781186547               0 0.707106781186548 7.51040764008565 
2  18 1 25 1 0
2  19 -1 0
1
              1               0               0               5 
              0               1               0               0 
              0               0               1               0 
1
0.707106781186548               0 0.707106781186547 2.81085093201949 
              0               1               0               0 
-0.707106781186547               0 0.707106781186548 7.51040764008565 
2  28 1 18 1 29 1 0
2  23 -1 0
1
0.707106781186548               0 0.707106781186547 2.81085093201949 
              0               1               0               0 
-0.707106781186547               0 0.707106781186548 7.51040764008565 
2  18 1 32 1 0
2  25 -1 0
2  21 -1 0
2  29 -1 18 -1 28 -1 0
2  32 -1 18 -1 0
Curve2ds 74
1 0 0 0 1 
1 0 0 0 -1 
1 0 10 1 0 
1 0 0 0 1 
1 10 0 0 1 
1 0 0 0 -1 
8 5 8
1 -0.47128945783239473 -6.5 -0 1 
1 0 0 0 -1 
1 0 0 1 0 
1 0 0 0 1 
1 0 0 1 0 
1 0 0 1 0 
1 1 0 0 -1 
1 0 0 0 1 
1 0 -10 1 0 
1 0 0 1 0 
1 0 10 1 0 
1 0 -10 1 0 
1 1 0 0 1 
1 0 10 1 0 
1 0 0 1 0 
1 0 10 1 0 
1 1 0 0 -1 
1 10 0 0 1 
1 1 -5 -1 0 
1 1 -5 -1 0 
1 -0.75 -0.47128945783239473 1 0 
1 10 0 0 1 
1 1 -8 -1 0 
1 1 -8 -1 0 
1 -0.75 -0.47128945783239473 1 0 
1 1 0 0 1 
1 0 0 1 0 
1 10 0 0 1 
1 1 0 0 -1 
1 0.5 -8 0 1 
1 -0.47128945783239473 1.5 0 -1 
1 -0.47128945783239473 -1.5 1 0 
1 0.25 -0.47128945783239473 0 1 
1 0.47128945783239296 -1.5 0 1 
1 0 -1.7763568394002505e-15 1 0 
1 0.47128945783239296 1.5 -1 0 
8 0 0.94257891566478769
1 0.25 0.47128945783239296 -0 -1 
1 -0.47128945783239473 -1.5 1 0 
8 0 0.94257891566478769
1 -0.25 -0.47128945783239473 -0 1 
1 0.47128945783239296 -1.5 0 1 
8 0 3
1 1.1102230246251565e-16 1.5 -0 -1 
1 0.47128945783239296 1.5 -1 0 
1 -0.25 0.47128945783239296 0 -1 
1 0.25 0.47128945783239296 -1 0 
8 0 0.5
1 0.99999999999999989 -1.7763568394002505e-15 -1 -0 
1 0.25 0.47128945783239296 -1 0 
1 0 -1.7763568394002505e-15 1 0 
1 0 0 0 -1 
1 1 0 0 -1 
1 3 0 0 -1 
1 0 0 0 -1 
1 0 -5 1 0 
1 -0.5 1.5 0 -1 
1 0 0 0 -1 
1 3 0 0 -1 
1 0 0 1 0 
1 0.5 1.5 -1 0 
1 0 -5 1 0 
1 0.5 1.5 -1 0 
1 1 0 0 -1 
1 0 -0 0 -1 
1 0 0 1 0 
1 -0.5 -1.5 1 0 
1 0 -5 1 0 
1 -0.5 -1.5 1 0 
1 0.5 -1.5 0 1 
1 0 -0 1 0 
1 0 -5 1 0 
Curves 40
1 0 0 0 -0 1 0 
1 0 10 0 1 0 -0 
1 10 0 0 -0 1 0 
1 10 0 0 -0 1 0 
1 10 0 0 -0 1 0 
1 0 0 0 1 0 -0 
1 0 0 0 0 0 1 
1 0 0 1 -0 1 0 
1 0 10 0 0 0 1 
1 10 10 0 0 0 1 
1 0 10 1 1 0 -0 
1 10 0 0 0 0 1 
1 10 0 1 -0 1 0 
1 10 5 1 0 0 -1 
1 10 5 1 0 0 -1 
1 10 0 1 -0 1 0 
1 10 8 1 0 0 -1 
1 10 8 1 0 0 -1 
1 0 0 1 1 0 -0 
1 10 0 1 -0 1 0 
1 10 8 0.5 0 -1 0 
1 10 5 0 1 0 0 
1 10.942578915664788 5 0 0 1 0 
1 10.942578915664788 8 0 -1 0 0 
1 10 5 0.5 1 0 0 
1 10.942578915664788 5 0.5 0 1 0 
1 10.942578915664788 8 0.5 -1 0 0 
1 10.942578915664788 5 0 0 0 1 
1 10.942578915664788 8 0 0 0 1 
1 10.942578915664793 5.0000000000000018 -5.8841820305133281e-15 1 0 3.8857805861880479e-16 
1 10.942578915664793 8.0000000000000036 -5.8841820305133281e-15 1 0 3.8857805861880479e-16 
1 15.942578915664795 5.0000000000000018 -3.9412917374193041e-15 0 1 0 
1 10.942578915664793 5.0000000000000018 0.99999999999999467 1 0 3.8857805861880479e-16 
1 10.942578915664793 5.0000000000000018 0.99999999999999467 3.8857805861880479e-16 0 -1 
1 15.942578915664795 5.0000000000000018 0.99999999999999667 3.8857805861880479e-16 0 -1 
1 10.942578915664793 8.0000000000000036 0.99999999999999467 1 0 3.8857805861880479e-16 
1 10.942578915664793 8.0000000000000036 -5.8841820305133281e-15 -3.8857805861880479e-16 0 1 
1 15.942578915664795 8.0000000000000036 -3.9412917374193041e-15 -3.8857805861880479e-16 0 1 
1 10.942578915664793 8.0000000000000036 0.99999999999999467 0 -1 0 
1 15.942578915664795 8.0000000000000036 0.99999999999999667 0 -1 0 
Polygon3D 0
PolygonOnTriangulations 0
Surfaces 15
1 0 0 0 0 0 1 1 0 -0 -0 1 0 
1 0 0 0 1 0 -0 0 0 1 0 -1 0 
1 0 10 0 -0 1 0 0 0 1 1 0 -0 
1 10 0 0 1 0 -0 0 0 1 0 -1 0 
1 10.471289457832395 6.5 0 0 0 1 1 0 -0 -0 1 0 
1 0 0 0 -0 1 0 0 0 1 1 0 -0 
1 0 0 1 0 0 1 1 0 -0 -0 1 0 
1 10.471289457832395 5 0.25 -0 -1 -0 0 0 -1 1 -0 0 
1 10.471289457832395 8 0.25 -0 -1 -0 0 0 -1 1 -0 0 
1 10.471289457832395 6.5 0.5 0 0 1 1 0 -0 -0 1 0 
1 10 5 0 0 0 1 0 1 0 -1 0 0 
1 10 6.5 0.5 1 0 0 -0 0 1 0 -1 0 
1 10 5 1 -0 1 0 0 0 -1 -1 0 -0 
1 10 8 0 0 -1 0 0 0 1 -1 0 0 
1 10 8 1 0 0 -1 0 -1 0 -1 -0 -0 
Triangulations 0

TShapes 102
Ve
1e-07
0 0 0
0 0

0101101
*
Ve
1e-07
0 10 0
0 0

0101101
*
Ed
 1e-07 1 1 0
1  1 0 0 10
2  1 1 2 0 10
2  2 2 4 0 10
4 C0 1 2 2 4
0

0101000
+102 0 -101 0 *
Ve
1e-07
10 10 0
0 0

0101101
*
Ed
 1e-07 1 1 0
1  2 0 0 10
2  3 1 2 0 10
2  4 3 5 0 10
4 C0 1 2 3 5
0

0101000
+101 0 -99 0 *
Ve
1e-07
10 0 0
0 0

0101101
*
Ve
1e-07
10 5 0
0 0

0101101
*
Ed
 1e-07 1 1 0
1  3 0 0 5
2  5 1 2 0 5
2  6 4 6 0 5
4 C0 1 2 4 6
0

0101000
+97 0 -96 0 *
Ve
1e-07
10 8 0
0 0

0101101
*
Ed
 1e-07 1 1 0
1  4 0 5 8
2  5 1 2 5 8
2  7 5 0 5 8
4 CN 1 2 5 0
0

0101000
+96 0 -94 0 *
Ed
 1e-07 1 1 0
1  5 0 8 10
2  5 1 2 8 10
2  8 4 7 8 10
4 C0 1 2 4 7
0

0101000
+94 0 -99 0 *
Ed
 1e-07 1 1 0
1  6 0 0 10
2  9 1 2 0 10
2  10 6 8 0 10
4 C0 1 2 6 8
0

0101000
+102 0 -97 0 *
Wi

0101100
-100 3 -98 3 +95 3 +93 3 +92 3 +91 3 *
Fa
0  1e-07 1 0

0101000
+90 0 *
Ve
1e-07
0 0 1
0 0

0101101
*
Ed
 1e-07 1 1 0
1  7 0 0 1
2  11 2 4 0 1
2  12 6 8 0 1
4 C0 2 4 6 8
0

0101000
+102 0 -88 0 *
Ve
1e-07
0 10 1
0 0

0101101
*
Ed
 1e-07 1 1 0
1  8 0 0 10
2  13 2 4 0 10
2  14 7 10 0 10
4 C0 2 4 7 10
0

0101000
+88 0 -86 0 *
Ed
 1e-07 1 1 0
1  9 0 0 1
2  15 2 4 0 1
2  16 3 5 0 1
4 C0 2 4 3 5
0

0101000
+101 0 -86 0 *
Wi

0101100
-87 9 -85 9 +84 9 +100 9 *
Fa
0  1e-07 2 0

0101000
+83 0 *
Ve
1e-07
10 10 1
0 0

0101101
*
Ed
 1e-07 1 1 0
1  10 0 0 1
2  17 3 5 0 1
2  18 4 7 0 1
4 C0 3 5 4 7
0

0101000
+99 0 -81 0 *
Ed
 1e-07 1 1 0
1  11 0 0 10
2  19 3 5 0 10
2  20 7 10 0 10
4 C0 3 5 7 10
0

0101000
+86 0 -81 0 *
Wi

0101100
-98 11 -80 11 +79 11 +84 11 *
Fa
0  1e-07 3 0

0101000
+78 0 *
Ve
1e-07
10 0 1
0 0

0101101
*
Ed
 1e-07 1 1 0
1  12 0 0 1
2  21 4 6 0 1
2  22 6 8 0 1
4 C0 4 6 6 8
0

0101000
+97 0 -76 0 *
Ve
1e-07
10 5 1
0 0

0101101
*
Ed
 1e-07 1 1 0
1  13 0 0 5
2  23 4 6 0 5
2  24 7 10 0 5
4 C0 4 6 7 10
0

0101000
+76 0 -74 0 *
Ve
1.00000000666134e-07
10 5 0.5
0 0

0101101
*
Ed
 1e-07 1 1 0
1  14 0 0 0.5
2  25 4 6 0 0.5
2  26 4 13 0 0.5
4 CN 4 6 4 13
0

0101000
+74 0 -72 0 *
Ed
 1e-07 1 1 0
1  15 0 0.5 1
2  25 4 6 0.5 1
2  27 8 0 0.5 1
4 C0 4 6 8 0
0

0101000
+72 0 -96 0 *
Wi

0101100
-75 12 -73 12 +95 12 -71 12 -70 12 *
Fa
0  1e-07 4 0

0101000
+69 0 *
Ve
1e-07
10 8 1
0 0

0101101
*
Ed
 1e-07 1 1 0
1  16 0 8 10
2  23 4 7 8 10
2  28 7 10 8 10
4 C0 4 7 7 10
0

0101000
+67 0 -81 0 *
Ve
1.00000000444089e-07
10 8 0.5
0 0

0101101
*
Ed
 1e-07 1 1 0
1  17 0 0 0.5
2  29 4 7 0 0.5
2  30 4 13 0 0.5
4 CN 4 7 4 13
0

0101000
+67 0 -65 0 *
Ed
 1e-07 1 1 0
1  18 0 0.5 1
2  29 4 7 0.5 1
2  31 9 0 0.5 1
4 C0 4 7 9 0
0

0101000
+65 0 -94 0 *
Wi

0101100
+92 14 +80 14 -66 14 +64 14 +63 14 *
Fa
0  1e-07 4 0

0101000
+62 0 *
Ed
 1e-07 1 1 0
1  19 0 0 10
2  32 6 8 0 10
2  33 7 10 0 10
4 C0 6 8 7 10
0

0101000
+88 0 -76 0 *
Wi

0101100
-91 15 -75 15 +60 15 +87 15 *
Fa
0  1e-07 6 0

0101000
+59 0 *
Ed
 1e-07 1 1 0
1  20 0 5 8
2  34 7 10 5 8
2  35 4 13 5 8
4 C0 7 10 4 13
0

0101000
+74 0 -67 0 *
Wi

0101100
-85 16 -79 16 +73 16 +57 16 +66 16 +60 16 *
Fa
0  1e-07 7 0

0101000
+56 0 *
Ed
 1e-07 1 1 0
1  21 0 0 3
2  36 4 13 0 3
2  37 10 0 0 3
4 C0 4 13 10 0
0

0101000
+65 0 -72 0 *
Wi

0101100
+71 17 -57 17 -64 17 -54 17 *
Fa
0  1e-07 4 0

0101000
+53 0 *
Ve
1.00000010779337e-07
10.9425789156648 5 7.84862329776419e-15
0 0

0101101
*
Ed
 1e-07 1 1 0
1  22 0 0 0.942578915664788
2  38 5 0 0 0.942578915664788
2  39 8 0 0 0.942578915664788
4 C0 5 0 8 0
0

0101000
+96 0 -51 0 *
Ve
1.00000010641861e-07
10.9425789156648 8 7.74901216979974e-15
0 0

0101101
*
Ed
 1e-07 1 1 0
1  23 0 0 3
2  40 5 0 0 3
2  41 11 20 0 3
4 G2 5 0 11 20
0

0101000
+51 0 -49 0 *
Ed
 1e-07 1 1 0
1  24 0 0 0.942578915664788
2  42 5 0 0 0.942578915664788
2  43 9 0 0 0.942578915664788
4 C0 5 0 9 0
0

0101000
+49 0 -94 0 *
Wi

0101100
+50 0 +48 0 +47 0 -93 0 *
Fa
0  1e-07 5 0

0101000
+46 0 *
Ve
1.00000004741765e-07
10.9425789156648 5 0.499999999999997
0 0

0101101
*
Ed
 1e-07 1 1 0
1  25 0 0 0.942578915664788
2  44 10 0 0 0.942578915664788
2  45 8 0 0 0.942578915664788
4 C0 10 0 8 0
0

0101000
+72 0 -44 0 *
Ve
1.0000000486174e-07
10.9425789156648 8 0.499999999999997
0 0

0101101
*
Ed
 1e-07 1 1 0
1  26 0 0 3
2  46 10 0 0 3
2  47 12 22 0 3
4 C0 10 0 12 22
0

0101000
+44 0 -42 0 *
Ed
 1e-07 1 1 0
1  27 0 0 0.942578915664788
2  48 10 0 0 0.942578915664788
2  49 9 0 0 0.942578915664788
4 C0 10 0 9 0
0

0101000
+42 0 -65 0 *
Wi

0101100
+43 0 +41 0 +40 0 +54 0 *
Fa
0  1e-07 10 0

0101000
+39 0 *
Ed
 1e-07 1 1 0
1  28 0 0 0.5
2  50 8 0 0 0.5
2  51 13 24 0 0.5
4 G2 8 0 13 24
0

0101000
+51 0 -44 0 *
Wi

0101100
+50 0 +37 0 -43 0 +70 0 *
Fa
0  1e-07 8 0

0101000
+36 0 *
Ed
 1e-07 1 1 0
1  29 0 0 0.5
2  52 9 0 0 0.5
2  53 14 26 0 0.5
4 G2 9 0 14 26
0

0101000
+49 0 -42 0 *
Wi

0101100
-47 0 +34 0 +40 0 +63 0 *
Fa
0  1e-07 9 0

0101000
+33 0 *
Ve
1e-07
15.9425789156648 5 -3.9412917374193e-15
0 0

0101101
*
Ed
 1e-07 1 1 0
1  30 0 0 5
2  54 11 20 0 5
2  55 13 24 0 5
4 C0 11 20 13 24
0

0101000
+51 0 -31 0 *
Ve
1e-07
15.9425789156648 8 -3.9412917374193e-15
0 0

0101101
*
Ed
 1e-07 1 1 0
1  31 0 0 5
2  56 11 20 0 5
2  57 14 26 0 5
4 C0 11 20 14 26
0

0101000
+49 0 -29 0 *
Ed
 1e-07 1 1 0
1  32 0 0 3
2  58 11 20 0 3
2  59 12 30 0 3
4 C0 11 20 12 30
0

0101000
+31 0 -29 0 *
Wi

0101100
+30 27 -28 27 -48 27 +27 27 *
Fa
0  1e-07 11 18

0101000
+26 0 *
Ve
1e-07
10.9425789156648 5 0.999999999999995
0 0

0101101
*
Ve
1e-07
15.9425789156648 5 0.999999999999997
0 0

0101101
*
Ed
 1e-07 1 1 0
1  33 0 0 5
2  60 13 24 0 5
2  61 15 33 0 5
4 C0 13 24 15 33
0

0101000
+24 0 -23 0 *
Ed
 1e-07 1 1 0
1  34 0 0 0.5
2  62 13 24 0 0.5
2  63 12 22 0 0.5
4 C0 13 24 12 22
0

0101000
+24 0 -44 0 *
Ed
 1e-07 1 1 0
1  35 0 0 1
2  64 13 24 0 1
2  65 12 30 0 1
4 C0 13 24 12 30
0

0101000
+23 0 -31 0 *
Wi

0101100
+22 31 -30 31 -21 31 +37 31 +20 31 *
Fa
0  1e-07 13 18

0101000
+19 0 *
Ve
1e-07
10.9425789156648 8 0.999999999999995
0 0

0101101
*
Ve
1e-07
15.9425789156648 8 0.999999999999997
0 0

0101101
*
Ed
 1e-07 1 1 0
1  36 0 0 5
2  66 14 26 0 5
2  67 15 33 0 5
4 C0 14 26 15 33
0

0101000
+17 0 -16 0 *
Ed
 1e-07 1 1 0
1  37 0 0.500000000000001 1
2  68 14 26 0.500000000000001 1
2  69 12 22 0.500000000000001 1
4 C0 14 26 12 22
0

0101000
+42 0 -17 0 *
Ed
 1e-07 1 1 0
1  38 0 0 1
2  70 14 26 0 1
2  71 12 30 0 1
4 C0 14 26 12 30
0

0101000
+29 0 -16 0 *
Wi

0101100
+28 34 -15 34 -34 34 -14 34 +13 34 *
Fa
0  1e-07 14 18

0101000
+12 0 *
Ed
 1e-07 1 1 0
1  39 0 0 3
2  72 12 22 0 3
2  73 15 33 0 3
4 C0 12 22 15 33
0

0101000
+17 0 -24 0 *
Wi

0101100
+14 35 +41 35 +21 35 +10 35 *
Fa
0  1e-07 12 18

0101000
+9 0 *
Ed
 1e-07 1 1 0
1  40 0 0 3
2  72 12 30 0 3
2  74 15 33 0 3
4 C0 12 30 15 33
0

0101000
+16 0 -23 0 *
Wi

0101100
+7 36 +20 36 +27 36 +13 36 *
Fa
0  1e-07 12 0

0101000
+6 0 *
Wi

0101100
+15 37 -22 37 -10 37 +7 37 *
Fa
0  1e-07 15 0

0101000
+4 0 *
Sh

0101100
-89 2 -82 4 +77 5 +68 6 +61 7 -58 8 +55 10 +52 13 -45 0 +38 0 
+35 0 -32 0 -25 19 -18 23 -11 25 -8 21 +5 30 -3 33 *
So

1100000
+2 0 *

+1 1  