
CASCADE Topology V1, (c) Matra-Datavision
Locations 50
1
              1               0               0               0 
              0               1               0               0 
              0               0               1               0 
1
              1               0               0               0 
              0               1               0               0 
              0               0               1               0 
1
              1               0               0               0 
              0               1               0               0 
              0               0               1               0 
2  2 1 3 1 0
2  3 -1 2 -1 0
1
              1               0               0               0 
              0               1               0               0 
              0               0               1               0 
2  2 1 6 1 0
1
              1               0               0               0 
              0               1               0               0 
              0               0               1               0 
2  2 1 8 1 0
1
              1               0               0               0 
              0               1               0               0 
              0               0               1               0 
2  2 1 10 1 0
1
              1               0               0               0 
              0               1               0               0 
              0               0               1               0 
2  2 1 12 1 0
2  6 -1 2 -1 0
1
              1               0               0               0 
              0               1               0               0 
              0               0               1               0 
2  2 1 15 1 0
1
              1               0               0               0 
              0               1               0               0 
              0               0               1               0 
2  2 1 17 1 0
1
              1               0               0               0 
              0               1               0               0 
              0               0               1               0 
2  2 1 19 1 0
2  8 -1 0
2  10 -1 2 -1 0
2  12 -1 0
2  15 -1 0
2  17 -1 2 -1 0
2  19 -1 0
1
              1               0               0               0 
              0 -7.99360577730113e-15               1 0.999999999999994 
              0              -1 -7.99360577730113e-15 8.59347433498383 
2  2 1 27 1 0
1
              1               0               0               0 
              0 -7.99360577730113e-15               1 0.999999999999994 
              0              -1 -7.99360577730113e-15 8.59347433498383 
2  2 1 29 1 0
1
              1               0               0               0 
              0 -7.99360577730113e-15               1 0.999999999999994 
              0              -1 -7.99360577730113e-15 8.59347433498383 
2  2 1 31 1 0
1
              1               0               0               0 
              0 -7.99360577730113e-15               1 0.999999999999994 
              0              -1 -7.99360577730113e-15 8.59347433498383 
2  2 1 33 1 0
2  27 -1 2 -1 0
1
              1               0               0               0 
              0 -7.99360577730113e-15               1 0.999999999999994 
              0              -1 -7.99360577730113e-15 8.59347433498383 
2  2 1 36 1 0
1
              1               0               0               0 
              0 -4.74065231514942e-13               1 0.999999999999808 
              0              -1 -4.74065231514942e-13 8.59347433498494 
2  2 1 38 1 0
1
              1               0               0               0 
              0 -4.74065231514942e-13               1 0.999999999999808 
              0              -1 -4.74065231514942e-13 8.59347433498494 
2  2 1 40 1 0
1
              1               0               0               0 
              0 -7.99360577730113e-15               1 0.999999999999994 
              0              -1 -7.99360577730113e-15 8.59347433498383 
2  2 1 42 1 0
2  31 -1 0
2  33 -1 0
2  29 -1 2 -1 0
2  36 -1 2 -1 0
2  42 -1 2 -1 0
2  38 -1 0
2  40 -1 0
Curve2ds 112
1 0.25 -5.0000000000000009 1 0 
1 -0.25 13 1 0 
1 -7.5 -5.0000000000000009 -0 -1 
1 13 -16.5 0 -1 
1 0.25 0 -1 0 
1 -0.25 13 -1 0 
1 7.5 -5.0000000000000009 -0 -1 
1 -13 -16.5 0 -1 
1 7 0 0 -1 
1 0 -16.5 1 6.12303176911189e-17 
1 -12.5 5 1 0 
8 19.499999999999801 37.5
1 -5.2032628325081216 -28.499999999999801 0 1 
1 25 0 0 1 
1 25 -4 6.12303176911189e-17 -1 
1 -12.5 45 -1 0 
1 -12.5 0 -1 0 
1 -25 0 0 1 
1 -25 -4 -6.12303176911189e-17 -1 
1 -12.5 5 1 0 
1 5.2032628325096653 4 0 1 
1 -8 0 0 1 
1 0 -16.5 1 -6.12303176911189e-17 
1 5.0000000000031601 -11.5 3.1619151741324458e-13 -1 
1 5.2032628325084795 -2.5000000000024665 4.7428727611986687e-13 1 
1 0 -11.5 -1 6.12303176911189e-17 
1 -8 0 0 -1 
1 -12.5 5 1 0 
1 5.2032628325096653 4 0 1 
1 -25 0 0 1 
1 -20 -4 -6.12303176911189e-17 -1 
1 -12.5 45 -1 0 
1 -12.5 5.0000000000000027 -1 0 
1 25 0 0 1 
1 20 -4 6.12303176911189e-17 -1 
1 -12.5 5 1 0 
8 19.499999999999801 37.5
1 -5.2032628325081216 -28.499999999999801 0 1 
1 7 0 0 1 
1 0 -11.5 -1 -6.12303176911189e-17 
1 -5.0000000000000817 -16.5 6.3948846218409018e-15 1 
8 0 5
1 5.203262832508142 2.4999999999999578 -8.1712414612411515e-15 -1 
1 20 -49 -1 0 
1 25 5.0000000000000027 0 1 
1 20 -9 1 0 
1 5.2032628325081012 -2.5000000000000422 8.1712414612411515e-15 1 
1 -25 5.0000000000000027 0 -1 
1 -20 -49 -1 -0 
1 -25 -9 1 0 
8 0 5
1 5.203262832510851 2.4999999999975335 -4.7428727611986687e-13 -1 
1 -5.2032628325081216 -9 1 0 
1 5.203262832508142 2.4999999999999578 -1 8.2156503822261584e-15 
1 5.2032628325081216 -9 0 1 
8 0 18
1 32 10 1 -0 
1 5.2032628325081216 9 -1 0 
8 0 10.406525665016243
1 -5.2032628325081012 2.5000000000000435 1 -8.2156503822261584e-15 
1 -5.2032628325081216 -9 1 0 
8 0 10.406525665016243
1 5.2032628325081012 -2.5000000000000422 -1 8.1934289152669802e-15 
1 5.2032628325081216 -9 0 1 
8 0 18
1 32 10 1 -0 
1 5.2032628325081216 9 -1 0 
1 -5.203262832508142 -2.4999999999999569 1 -8.1934289152669802e-15 
1 -5.2032628325081012 2.5000000000000435 -8.1712414612411515e-15 -1 
1 5 -6.5 -1 0 
1 -5.2032628325081012 2.5000000000000435 -8.1712414612411515e-15 -1 
8 0 5
1 15 1 -0 -1 
1 32 8.25 0 1 
1 5 -8.25 0 1 
1 12.25 23 -1 0 
1 -5 -12.25 0 -1 
1 17 8.25 -0 -1 
1 -5 -8.25 0 -1 
1 12.5 10 -1 0 
1 -5.2032628325096653 4 0 -1 
1 0 50 0 -1 
1 25 1 -1 -0 
1 50 50 -1 0 
1 25 1 -1 0 
1 50 0 0 1 
1 25 1 -1 0 
1 0 -8.25 0 -1 
1 32 8.25 0 -1 
1 5 6.5 1 0 
1 -5 7.5 -1 0 
1 12.5 -4 -1 0 
1 50 12.5 0 1 
1 -25 0 0 1 
1 25 0 0 1 
1 17 8.25 0 1 
1 0 -8.25 0 1 
1 12.25 23 1 0 
1 0 -12.25 0 1 
1 12.5 50 -1 0 
1 -12.5 -4 -1 0 
1 0 12.5 0 -1 
1 -12.5 -4 -1 -0 
1 12.5 10 -1 0 
1 -5.2032628325096653 4 0 -1 
1 -5 -7.5 1 0 
1 -5 6.5 1 0 
1 -25 0 0 1 
1 25 0 0 1 
1 5.2032628325096653 8.5 -1 0 
1 5.203262832510851 2.4999999999975335 -1 4.7406523151494184e-13 
1 -5.2032628325096653 -8.5 1 0 
8 0 10.406525665019331
1 -5.2032628325084795 2.5000000000024669 1 -4.7406523151494184e-13 
1 5.2032628325096653 8.5 -1 0 
8 0 10.406525665019331
1 5.2032628325084795 -2.5000000000024665 -1 4.7402400203520108e-13 
1 -5.2032628325096653 -8.5 1 0 
1 -5.203262832510851 -2.4999999999975335 1 -4.7402400203520108e-13 
1 -5.2032628325084795 2.5000000000024669 -4.7428727611986687e-13 -1 
8 0 5
1 -5 -6.5 1 -0 
1 -5.2032628325084795 2.5000000000024669 -4.7428727611986687e-13 -1 
1 -15 1 0 -1 
Curves 56
1 24.75 -8.6736173798840394e-16 17 1 0 0 
1 17 -8.6736173798840394e-16 17 -0 -1 -0 
1 24.75 5 17 -1 0 0 
1 32 -8.6736173798840394e-16 17 -0 -1 -0 
1 32 -1.39897054514259e-16 4 0 6.12303176911189e-17 -1 
1 12.5 -3.0615158845559402e-16 9 1 0 0 
1 50 0 4 0 -6.12303176911189e-17 1 
1 12.5 -2.75536429610035e-15 49 -1 0 0 
1 0 0 4 0 -6.12303176911189e-17 1 
1 12.5 -3.0615158845559402e-16 9 1 0 0 
1 17 -1.39897054514259e-16 4 0 -6.12303176911189e-17 1 
1 17 5 9.0000000000031601 0 -1 3.1619151741324458e-13 
1 17 5 4 0 6.12303176911189e-17 -1 
1 12.5 5 9 1 0 0 
1 0 5 4 0 -6.12303176911189e-17 1 
1 12.5 5 49 -1 0 0 
1 50 5 4 0 -6.12303176911189e-17 1 
1 12.5 5 9 1 0 0 
1 32 5 4 0 -6.12303176911189e-17 1 
1 31.999999999999801 0 9.0000000000000817 0 1 -6.3948846218409018e-15 
1 50 5 49 0 1 0 
1 50 5 9 0 -1 0 
1 0 5 49 0 -1 0 
1 0 -3.0615158845559402e-16 9 0 1 0 
1 32 0 9.0000000000000817 0 -8.2156503822261584e-15 -1 
1 32 -8.549637655743702e-14 -1.4065256650161615 1 0 0 
1 50 -8.549637655743702e-14 -1.4065256650161615 0 8.2156503822261584e-15 1 
1 32 5 9.0000000000000409 0 -8.1934289152669802e-15 -1 
1 32 4.9999999999999147 -1.4065256650162024 1 0 0 
1 50 4.9999999999999147 -1.4065256650162024 0 8.1934289152669802e-15 1 
1 32 -8.549637655743702e-14 -1.4065256650161615 0 1 -8.1712414612411515e-15 
1 50 -8.549637655743702e-14 -1.4065256650161615 0 1 -8.1712414612411515e-15 
1 32 -7.1498362785860081e-14 0.34347433498383495 0 -7.9936057773011271e-15 -1 
1 12.25 -1.8940404800105171e-13 -14.406525665016165 -1 0 -0 
1 17 -7.1498362785860081e-14 0.34347433498383495 0 7.9936057773011271e-15 1 
1 12.5 -8.5487172896137054e-14 -1.406525665016165 -1 0 -0 
1 0 -4.0523140398818214e-13 -41.406525665016161 0 7.9936057773011271e-15 1 
1 50 -4.0523140398818214e-13 -41.406525665016161 -1 0 -0 
1 50 -5.5511151231257827e-15 8.593474334983835 0 -7.9936057773011271e-15 -1 
1 32 4.9999999999999289 0.34347433498379587 0 7.9936057773011271e-15 1 
1 32 -1.8940404800105171e-13 -14.406525665016165 -0 -1 7.9936057773011271e-15 
1 50 4.9999999999998943 -3.9065256650162041 0 -7.9936057773011271e-15 -1 
1 50 0.99999999999959477 -41.406525665016176 -0 -1 7.9936057773011271e-15 
1 17 4.9999999999999289 0.34347433498379587 0 -7.9936057773011271e-15 -1 
1 12.25 4.9999999999998108 -14.406525665016204 1 0 0 
1 12.5 4.999999999999595 -41.406525665016204 -1 0 -0 
1 0 4.9999999999998943 -3.9065256650162041 0 7.9936057773011271e-15 1 
1 12.5 4.9999999999999147 -1.4065256650162041 -1 0 -0 
1 17 -1.8940404800105171e-13 -14.406525665016165 0 1 -7.9936057773011271e-15 
1 0 0.99999999999959477 -41.406525665016176 -0 -1 7.9936057773011271e-15 
1 17 0 9.0000000000047411 0 -4.7406523151494184e-13 -1 
1 0 -4.9333719986535729e-12 -1.4065256650145894 0 4.7406523151494184e-13 1 
1 17 5 9.0000000000023697 0 -4.7402400203520108e-13 -1 
1 0 4.9999999999950671 -1.4065256650169609 0 4.7402400203520108e-13 1 
1 17 -4.9333719986535729e-12 -1.4065256650145894 0 1 -4.7428727611986687e-13 
1 0 -4.9333719986535729e-12 -1.4065256650145894 0 1 -4.7428727611986687e-13 
Polygon3D 0
PolygonOnTriangulations 0
Surfaces 20
1 24.5 5 17 0 -6.12303176911189e-17 1 1 0 0 -0 1 6.12303176911189e-17 
1 25 0 4 0 -1 -6.12303176911189e-17 1 0 0 0 -6.12303176911189e-17 1 
1 17 16.5 4 -1 0 0 0 0 1 0 1 -0 
1 25 5 4 0 -1 -6.12303176911189e-17 1 0 0 0 -6.12303176911189e-17 1 
1 32 16.5 4 1 -0 0 0 0 -1 0 1 0 
1 41 -4.274818827871851e-14 3.7967371674919601 -0 -1 8.2156503822261584e-15 0 -8.2156503822261584e-15 -1 1 0 0 
1 50 25 0 1 0 0 0 -1 0 0 0 -1 
1 25 -2.75536429610035e-15 49 0 -6.12303176911189e-17 1 1 0 0 -0 1 6.12303176911189e-17 
1 0 25 0 -1 0 0 0 1 -0 -0 0 -1 
1 8.5 -2.4666859993267864e-12 3.7967371674950763 0 1 -4.7406523151494174e-13 0 4.7406523151494174e-13 1 1 -0 0 
1 17 2.4999999999975335 3.7967371674938901 1 0 0 -0 0 1 0 -1 0 
1 8.5 4.9999999999975335 3.7967371674927044 0 1 -4.7402400203520098e-13 0 4.7402400203520098e-13 1 1 -0 0 
1 41 4.9999999999999583 3.7967371674919197 -0 -1 8.1934289152669802e-15 0 -8.1934289152669802e-15 -1 1 0 0 
1 32 2.4999999999999578 3.7967371674919397 1 0 0 -0 0 1 0 -1 0 
1 50 2.4999999999999578 3.7967371674919397 1 0 0 -0 0 1 0 -1 0 
1 0 2.4999999999975335 3.7967371674938901 1 0 0 -0 0 1 0 -1 0 
1 0 0 -1 0 0 1 1 0 -0 -0 1 0 
1 0 0 4 0 0 1 1 0 -0 -0 1 0 
1 24.5 23 4 -0 1 0 0 0 1 1 0 -0 
1 25 50 0 0 1 0 1 -0 0 0 0 -1 
Triangulations 0

TShapes 138
Ve
1e-07
17 -8.67361737988404e-16 17
0 0

0101101
*
Ve
1e-07
32 -8.67361737988404e-16 17
0 0

0101101
*
Ed
 1e-07 1 1 0
1  1 0 -7.75 7.25
2  1 1 4 -7.75 7.25
2  2 2 7 -7.75 7.25
4 C0 1 4 2 7
0

0101000
+138 0 -137 0 *
Ve
1e-07
17 5 17
0 0

0101101
*
Ed
 1e-07 1 1 0
1  2 0 -5 0
2  3 1 4 -5 0
2  4 3 9 -5 0
4 C0 1 4 3 9
0

0101000
+135 0 -138 0 *
Ve
1e-07
32 5 17
0 0

0101101
*
Ed
 1e-07 1 1 0
1  3 0 -7.25 7.75
2  5 1 4 -7.25 7.75
2  6 4 11 -7.25 7.75
4 C0 1 4 4 11
0

0101000
+133 0 -135 0 *
Ed
 1e-07 1 1 0
1  4 0 -5 0
2  7 1 4 -5 0
2  8 5 13 -5 0
4 C0 1 4 5 13
0

0101000
+133 0 -137 0 *
Wi

0101100
-136 5 -134 5 -132 5 +131 5 *
Fa
0  1e-07 1 0

0101000
-130 0 *
Ve
1.00000198951966e-07
31.9999999999998 0 9.00000000000008
0 0

0101101
*
Ed
 1e-07 1 1 0
1  5 0 -13 -5.00000000000008
2  9 2 7 -13 -5.00000000000008
2  10 5 13 -13 -5.00000000000008
4 C0 2 7 5 13
0

0101000
+137 0 -128 0 *
Ve
1.00000040856494e-07
50 -1.53075794148022e-16 9.00000000000004
0 0

0101101
*
Ed
 1e-07 1 1 0
1  6 0 19.4999999999998 37.5
2  11 2 7 19.4999999999998 37.5
2  12 6 0 19.4999999999998 37.5
4 G2 2 7 6 0
0

0101000
+128 0 -126 0 *
Ve
1e-07
50 -2.75536429610035e-15 49
0 0

0101101
*
Ed
 1e-07 1 1 0
1  7 0 5 45
2  13 2 7 5 45
2  14 7 16 5 45
4 C0 2 7 7 16
0

0101000
+126 0 -124 0 *
Ve
1e-07
0 -2.75536429610035e-15 49
0 0

0101101
*
Ed
 1e-07 1 1 0
1  8 0 -37.5 12.5
2  15 2 7 -37.5 12.5
2  16 8 18 -37.5 12.5
4 C0 2 7 8 18
0

0101000
+124 0 -122 0 *
Ve
1.00002370992296e-07
0 -1.53047128347381e-16 9.00000000000237
0 0

0101101
*
Ed
 1e-07 1 1 0
1  9 0 5 45
2  17 2 7 5 45
2  18 9 20 5 45
4 C0 2 7 9 20
0

0101000
+120 0 -122 0 *
Ve
1e-07
17 0 9.00000000000474
0 0

0101101
*
Ed
 1e-07 1 1 0
1  10 0 -12.5 4.5
2  19 2 7 -12.5 4.5
2  20 10 0 -12.5 4.5
4 G2 2 7 10 0
0

0101000
+120 0 -118 0 *
Ed
 1e-07 1 1 0
1  11 0 5.00000000000474 13
2  21 2 7 5.00000000000474 13
2  22 3 9 5.00000000000474 13
4 C0 2 7 3 9
0

0101000
+118 0 -138 0 *
Wi

0101100
+127 14 +125 14 +123 14 +121 14 -119 14 +117 14 +116 14 +136 14 *
Fa
0  1e-07 2 0

0101000
+115 0 *
Ve
1.00000395905531e-07
17 5 9.00000000000277
0 0

0101101
*
Ed
 1e-07 1 1 0
1  12 0 0 5
2  23 3 9 0 5
2  24 11 0 0 5
4 G2 3 9 11 0
0

0101000
+113 0 -118 0 *
Ed
 1e-07 1 1 0
1  13 0 -13 -5.00000000000316
2  25 3 9 -13 -5.00000000000316
2  26 4 11 -13 -5.00000000000316
4 C0 3 9 4 11
0

0101000
+135 0 -113 0 *
Wi

0101100
+112 21 +111 21 -134 21 +116 21 *
Fa
0  1e-07 3 2

0101000
+110 0 *
Ve
1.00001184830012e-07
0 5 9.00000000000118
0 0

0101101
*
Ed
 1e-07 1 1 0
1  14 0 -12.5 4.5
2  27 4 11 -12.5 4.5
2  28 12 0 -12.5 4.5
4 G2 4 11 12 0
0

0101000
+108 0 -113 0 *
Ve
1e-07
0 5 49
0 0

0101101
*
Ed
 1e-07 1 1 0
1  15 0 5 45
2  29 4 11 5 45
2  30 9 20 5 45
4 C0 4 11 9 20
0

0101000
+108 0 -106 0 *
Ve
1e-07
50 5 49
0 0

0101101
*
Ed
 1e-07 1 1 0
1  16 0 -37.5 12.5
2  31 4 11 -37.5 12.5
2  32 8 18 -37.5 12.5
4 C0 4 11 8 18
0

0101000
+104 0 -106 0 *
Ve
1.00000020428104e-07
50 5 9.00000000000002
0 0

0101101
*
Ed
 1e-07 1 1 0
1  17 0 5 45
2  33 4 11 5 45
2  34 7 16 5 45
4 C0 4 11 7 16
0

0101000
+102 0 -104 0 *
Ve
1.00000199100583e-07
31.9999999999998 5 9.00000000000005
0 0

0101101
*
Ed
 1e-07 1 1 0
1  18 0 19.4999999999998 37.5
2  35 4 11 19.4999999999998 37.5
2  36 13 0 19.4999999999998 37.5
4 G2 4 11 13 0
0

0101000
+100 0 -102 0 *
Ed
 1e-07 1 1 0
1  19 0 5.00000000000005 13
2  37 4 11 5.00000000000005 13
2  38 5 13 5.00000000000005 13
4 C0 4 11 5 13
0

0101000
+100 0 -133 0 *
Wi

0101100
+111 22 -107 22 +105 22 -103 22 -101 22 -99 22 +98 22 +132 22 *
Fa
0  1e-07 4 0

0101000
-97 0 *
Ed
 1e-07 1 1 0
1  20 0 0 5
2  39 5 13 0 5
2  40 14 0 0 5
4 G2 5 13 14 0
0

0101000
+128 0 -100 0 *
Wi

0101100
+127 23 +131 23 +98 23 +95 23 *
Fa
0  1e-07 5 2

0101000
+94 0 *
Ed
 1e-07 1 1 0
1  21 0 -5 0
2  41 7 16 -5 0
2  42 8 18 -5 0
4 C0 7 16 8 18
0

0101000
+124 0 -104 0 *
Ed
 1e-07 1 1 0
1  22 0 0 5
2  43 7 16 0 5
2  44 15 0 0 5
4 G2 7 16 15 0
0

0101000
+102 0 -126 0 *
Wi

0101100
-123 24 -92 24 +101 24 -91 24 *
Fa
0  1e-07 7 2

0101000
+90 0 *
Ed
 1e-07 1 1 0
1  23 0 0 5
2  45 8 18 0 5
2  46 9 20 0 5
4 C0 8 18 9 20
0

0101000
+106 0 -122 0 *
Wi

0101100
+103 25 +88 25 -121 25 +92 25 *
Fa
0  1e-07 8 0

0101000
+87 0 *
Ed
 1e-07 1 1 0
1  24 0 0 5
2  47 9 20 0 5
2  48 16 0 0 5
4 CN 9 20 16 0
0

0101000
+120 0 -108 0 *
Wi

0101100
-85 26 -105 26 -88 26 +119 26 *
Fa
0  1e-07 9 2

0101000
+84 0 *
Ve
1.00000001776363e-07
32 -8.54917747268213e-14 -1.40652566501616
0 0

0101101
*
Ed
 1e-07 1 1 0
1  25 0 0 10.4065256650162
2  49 6 0 0 10.4065256650162
2  50 14 0 0 10.4065256650162
4 C0 6 0 14 0
0

0101000
+128 0 -82 0 *
Ve
1.00000001776363e-07
50 -8.5491774726845e-14 -1.40652566501616
0 0

0101101
*
Ed
 1e-07 1 1 0
1  26 0 0 18
2  51 6 0 0 18
2  52 17 28 0 18
4 G2 6 0 17 28
0

0101000
+82 0 -80 0 *
Ed
 1e-07 1 1 0
1  27 0 0 10.4065256650162
2  53 6 0 0 10.4065256650162
2  54 15 0 0 10.4065256650162
4 C0 6 0 15 0
0

0101000
+80 0 -126 0 *
Wi

0101100
+81 0 +79 0 +78 0 -125 0 *
Fa
0  1e-07 6 0

0101000
+77 0 *
Ve
1.00000000888178e-07
32 4.99999999999991 -1.4065256650162
0 0

0101101
*
Ed
 1e-07 1 1 0
1  28 0 0 10.4065256650162
2  55 13 0 0 10.4065256650162
2  56 14 0 0 10.4065256650162
4 C0 13 0 14 0
0

0101000
+100 0 -75 0 *
Ve
1.00000000888178e-07
50 4.99999999999991 -1.4065256650162
0 0

0101101
*
Ed
 1e-07 1 1 0
1  29 0 0 18
2  57 13 0 0 18
2  58 18 30 0 18
4 G2 13 0 18 30
0

0101000
+75 0 -73 0 *
Ed
 1e-07 1 1 0
1  30 0 0 10.4065256650162
2  59 13 0 0 10.4065256650162
2  60 15 0 0 10.4065256650162
4 C0 13 0 15 0
0

0101000
+73 0 -102 0 *
Wi

0101100
+74 0 +72 0 +71 0 -99 0 *
Fa
0  1e-07 13 0

0101000
+70 0 *
Ed
 1e-07 1 1 0
1  31 0 0 5
2  61 14 0 0 5
2  62 5 32 0 5
4 G2 14 0 5 32
0

0101000
+82 0 -75 0 *
Wi

0101100
+81 0 +68 0 -74 0 -95 0 *
Fa
0  1e-07 14 0

0101000
+67 0 *
Ed
 1e-07 1 1 0
1  32 0 0 5
2  63 15 0 0 5
2  64 7 34 0 5
4 CN 15 0 7 34
0

0101000
+80 0 -73 0 *
Wi

0101100
-78 0 +65 0 +71 0 +91 0 *
Fa
0  1e-07 15 0

0101000
+64 0 *
Ve
1e-07
32 -1.89404048001052e-13 -14.4065256650162
0 0

0101101
*
Ed
 1e-07 1 1 0
1  33 0 1.75 14.75
2  65 17 28 1.75 14.75
2  66 5 32 1.75 14.75
4 C0 17 28 5 32
0

0101000
+82 0 -62 0 *
Ve
1.00005509679799e-07
17 -5.6425975003549e-12 -14.4065256650154
0 0

0101101
*
Ed
 1e-07 1 1 0
1  34 0 -19.75 -4.75
2  67 17 28 -19.75 -4.75
2  68 19 37 -19.75 -4.75
4 C0 17 28 19 37
0

0101000
+62 0 -60 0 *
Ve
1.00002548763976e-07
17 -2.5094183590127e-12 -1.40652566501538
0 0

0101101
*
Ed
 1e-07 1 1 0
1  35 0 -14.75 -1.75
2  69 17 28 -14.75 -1.75
2  70 3 39 -14.75 -1.75
4 C0 17 28 3 39
0

0101000
+60 0 -58 0 *
Ve
1.0000254875423e-07
0 -2.50942958578899e-12 -1.40652566501538
0 0

0101101
*
Ed
 1e-07 1 1 0
1  36 0 -4.5 12.5
2  71 17 28 -4.5 12.5
2  72 10 0 -4.5 12.5
4 G2 17 28 10 0
0

0101000
+58 0 -56 0 *
Ve
1.00011771611799e-07
0 -1.21503918038002e-11 -41.4065256650154
0 0

0101101
*
Ed
 1e-07 1 1 0
1  37 0 0 40
2  73 17 28 0 40
2  74 9 41 0 40
4 C0 17 28 9 41
0

0101000
+54 0 -56 0 *
Ve
1e-07
50 -4.05231403988182e-13 -41.4065256650162
0 0

0101101
*
Ed
 1e-07 1 1 0
1  38 0 0 50
2  75 17 28 0 50
2  76 20 43 0 50
4 C0 17 28 20 43
0

0101000
+52 0 -54 0 *
Ed
 1e-07 1 1 0
1  39 0 10 50
2  77 17 28 10 50
2  78 7 34 10 50
4 C0 17 28 7 34
0

0101000
+80 0 -52 0 *
Wi

0101100
+61 35 +59 35 +57 35 +55 35 -53 35 -51 35 -50 35 -79 35 *
Fa
0  1e-07 17 0

0101000
-49 0 *
Ve
1e-07
32 4.99999999999981 -14.4065256650162
0 0

0101101
*
Ed
 1e-07 1 1 0
1  40 0 -14.75 -1.75
2  79 5 32 -14.75 -1.75
2  80 18 30 -14.75 -1.75
4 C0 5 32 18 30
0

0101000
+47 0 -75 0 *
Ed
 1e-07 1 1 0
1  41 0 -5 0
2  81 5 32 -5 0
2  82 19 37 -5 0
4 C0 5 32 19 37
0

0101000
+47 0 -62 0 *
Wi

0101100
-68 44 +46 44 -45 44 +61 44 *
Fa
0  1e-07 5 2

0101000
+44 0 *
Ve
1e-07
50 4.99999999999959 -41.4065256650162
0 0

0101101
*
Ed
 1e-07 1 1 0
1  42 0 -2.5 37.5
2  83 7 34 -2.5 37.5
2  84 18 30 -2.5 37.5
4 C0 7 34 18 30
0

0101000
+73 0 -42 0 *
Ed
 1e-07 1 1 0
1  43 0 -4 1
2  85 7 34 -4 1
2  86 20 43 -4 1
4 C0 7 34 20 43
0

0101000
+42 0 -52 0 *
Wi

0101100
-65 45 -41 45 -40 45 +50 45 *
Fa
0  1e-07 7 2

0101000
+39 0 *
Ve
1.00002453192689e-07
17 4.99999999999749 -1.40652566501658
0 0

0101101
*
Ve
1.00005466082372e-07
17 4.99999999999436 -14.4065256650166
0 0

0101101
*
Ed
 1e-07 1 1 0
1  44 0 1.75 14.75
2  87 18 30 1.75 14.75
2  88 3 39 1.75 14.75
4 C0 18 30 3 39
0

0101000
+37 0 -36 0 *
Ed
 1e-07 1 1 0
1  45 0 4.75 19.75
2  89 18 30 4.75 19.75
2  90 19 37 4.75 19.75
4 C0 18 30 19 37
0

0101000
+36 0 -47 0 *
Ve
1.0001175130712e-07
0 4.99999999998785 -41.4065256650166
0 0

0101101
*
Ed
 1e-07 1 1 0
1  46 0 -37.5 12.5
2  91 18 30 -37.5 12.5
2  92 20 43 -37.5 12.5
4 C0 18 30 20 43
0

0101000
+42 0 -33 0 *
Ve
1.00002453192689e-07
0 4.99999999999749 -1.40652566501658
0 0

0101101
*
Ed
 1e-07 1 1 0
1  47 0 -37.5 2.5
2  93 18 30 -37.5 2.5
2  94 9 41 -37.5 2.5
4 C0 18 30 9 41
0

0101000
+33 0 -31 0 *
Ed
 1e-07 1 1 0
1  48 0 -4.5 12.5
2  95 18 30 -4.5 12.5
2  96 12 0 -4.5 12.5
4 G2 18 30 12 0
0

0101000
+37 0 -31 0 *
Wi

0101100
+35 46 +34 46 +46 46 +72 46 +41 46 +32 46 +30 46 -29 46 *
Fa
0  1e-07 18 0

0101000
+28 0 *
Ed
 1e-07 1 1 0
1  49 0 0 5
2  97 19 37 0 5
2  98 3 39 0 5
4 C0 19 37 3 39
0

0101000
+60 0 -36 0 *
Wi

0101100
-59 47 -45 47 -34 47 -26 47 *
Fa
0  1e-07 19 0

0101000
-25 0 *
Ed
 1e-07 1 1 0
1  50 0 -4 1
2  99 20 43 -4 1
2  100 9 41 -4 1
4 C0 20 43 9 41
0

0101000
+33 0 -54 0 *
Wi

0101100
+51 48 -23 48 -32 48 +40 48 *
Fa
0  1e-07 20 0

0101000
+22 0 *
Ed
 1e-07 1 1 0
1  51 0 0 10.4065256650193
2  101 10 0 0 10.4065256650193
2  102 11 0 0 10.4065256650193
4 C0 10 0 11 0
0

0101000
+118 0 -58 0 *
Ed
 1e-07 1 1 0
1  52 0 0 10.4065256650193
2  103 10 0 0 10.4065256650193
2  104 16 0 0 10.4065256650193
4 C0 10 0 16 0
0

0101000
+56 0 -120 0 *
Wi

0101100
+20 0 +55 0 +19 0 +117 0 *
Fa
0  1e-07 10 0

0101000
+18 0 *
Ed
 1e-07 1 1 0
1  53 0 0 10.4065256650193
2  105 12 0 0 10.4065256650193
2  106 11 0 0 10.4065256650193
4 C0 12 0 11 0
0

0101000
+113 0 -37 0 *
Ed
 1e-07 1 1 0
1  54 0 0 10.4065256650193
2  107 12 0 0 10.4065256650193
2  108 16 0 0 10.4065256650193
4 C0 12 0 16 0
0

0101000
+31 0 -108 0 *
Wi

0101100
+16 0 +29 0 +15 0 +107 0 *
Fa
0  1e-07 12 0

0101000
+14 0 *
Ed
 1e-07 1 1 0
1  55 0 0 5
2  109 11 0 0 5
2  110 3 39 0 5
4 CN 11 0 3 39
0

0101000
+58 0 -37 0 *
Wi

0101100
+20 0 +12 0 -16 0 +112 0 *
Fa
0  1e-07 11 0

0101000
+11 0 *
Ed
 1e-07 1 1 0
1  56 0 0 5
2  111 16 0 0 5
2  112 9 41 0 5
4 G2 16 0 9 41
0

0101000
+56 0 -31 0 *
Wi

0101100
-19 0 +9 0 +15 0 -85 0 *
Fa
0  1e-07 16 0

0101000
+8 0 *
Wi

0101100
-26 49 +35 49 +12 49 +57 49 *
Fa
0  1e-07 3 2

0101000
+6 0 *
Wi

0101100
+23 50 -30 50 +9 50 +53 50 *
Fa
0  1e-07 9 2

0101000
+4 0 *
Sh

0101100
-129 4 +114 7 -109 8 -96 11 -93 12 +89 15 +86 18 +83 19 +76 0 -69 0 
-66 0 +63 0 -48 28 -43 31 +38 33 +27 30 -24 37 +21 43 -17 0 +13 0 
+10 0 -7 0 -5 38 +3 40 *
So

1100000
+2 0 *

+1 1  