
CASCADE Topology V1, (c) Matra-Datavision
Locations 44
1
              1               0               0               0 
              0               1               0               0 
              0               0               1               0 
1
              1               0               0               0 
              0               1               0               0 
              0               0               1               0 
1
              1               0               0               0 
              0               1               0               0 
              0               0               1               0 
2  2 1 3 1 0
2  3 -1 2 -1 0
1
              1               0               0               0 
              0               1               0               0 
              0               0               1               0 
2  2 1 6 1 0
1
              1               0               0               0 
              0               1               0               0 
              0               0               1               0 
2  2 1 8 1 0
1
              1               0               0               0 
              0               1               0               0 
              0               0               1               0 
2  2 1 10 1 0
2  6 -1 0
1
              1               0               0               0 
              0               1               0               0 
              0               0               1               0 
2  2 1 13 1 0
2  13 -1 2 -1 0
2  10 -1 2 -1 0
2  8 -1 0
1
              1               0               0               0 
              0 1.11022302462516e-16              -1 8.59347433498381 
              0               1 1.11022302462516e-16              -1 
2  2 1 18 1 0
1
              1               0               0               0 
              0 1.11022302462516e-16              -1 8.59347433498381 
              0               1 1.11022302462516e-16              -1 
2  2 1 20 1 0
1
              1               0               0               0 
              0 1.11022302462516e-16              -1 8.59347433498381 
              0               1 1.11022302462516e-16              -1 
2  2 1 22 1 0
1
              1               0               0               0 
              0 1.11022302462516e-16              -1 8.59347433498381 
              0               1 1.11022302462516e-16              -1 
2  2 1 24 1 0
2  18 -1 2 -1 0
2  22 -1 0
2  24 -1 0
2  20 -1 2 -1 0
1
              1               0               0               0 
              0 1.14423774522197e-17               1 -89.4222336282841 
              0              -1 1.14423774522197e-17           -1.01 
2  2 1 30 1 0
2  30 -1 2 -1 0
1
              1               0               0               0 
              0 1.14423774522197e-17               1 -89.4222336282841 
              0              -1 1.14423774522197e-17           -1.01 
2  2 1 33 1 0
1
              1               0               0               0 
              0 1.14423774522197e-17               1 -89.4222336282841 
              0              -1 1.14423774522197e-17           -1.01 
2  2 1 35 1 0
1
              1               0               0               0 
              0 1.14423774522197e-17               1 -89.4222336282841 
              0              -1 1.14423774522197e-17           -1.01 
2  2 1 37 1 0
2  33 -1 0
1
              1               0               0               0 
              0 1.14423774522197e-17               1 -89.4222336282841 
              0              -1 1.14423774522197e-17           -1.01 
2  2 1 40 1 0
2  37 -1 0
2  40 -1 2 -1 0
2  35 -1 2 -1 0
Curve2ds 72
1 0 12.5 0 -1 
1 -12.5 -4 -1 -0 
1 12.5 10 -1 0 
8 -37.5 12.5
1 12.5 5.203262832508095 1 -0 
1 50 12.5 0 1 
1 12.5 -4 -1 0 
1 12.5 50 -1 0 
1 -12.5 -4 -1 0 
1 25 0 0 1 
1 -25 0 0 1 
1 -15 1 0 -1 
8 0 5
1 2.5 -5.203262832508095 -1 -0 
1 0 50 0 -1 
1 25 1 -1 -0 
1 12.5 10 -1 0 
8 -37.5 12.5
1 12.5 5.203262832508095 1 -0 
1 50 50 -1 0 
1 25 1 -1 0 
1 50 0 0 1 
1 25 1 -1 0 
1 25 0 0 1 
1 -25 0 0 1 
1 15 -4 0 1 
1 -2.5 -5.203262832508095 1 0 
1 -25 5.203262832508095 0 -1 
1 2.5 -5.203262832508095 0 1 
1 -25 -5.203262832508095 1 0 
8 0 50
1 25 5 -1 -0 
1 25 -5.203262832508095 0 1 
8 0 10.40652566501619
1 2.5 5.203262832508095 -0 -1 
1 -25 5.203262832508095 0 -1 
8 0 10.40652566501619
1 -2.5 -5.203262832508095 -0 1 
1 -25 -5.203262832508095 1 0 
8 0 50
1 25 5 -1 -0 
1 25 -5.203262832508095 0 1 
1 -2.5 5.203262832508095 0 -1 
1 2.5 5.203262832508095 -1 0 
8 0 5
1 25 -9 -1 -0 
1 2.5 5.203262832508095 -1 0 
1 -25 -9 1 0 
1 3.1415926535897931 37.5 0 1 
1 -25 0 0 1 
1 -25 -4 -6.12303176911189e-17 -1 
1 25 0 0 1 
1 25 -4 6.12303176911189e-17 -1 
1 20 -49 1 0 
1 20 -4 6.12303176911189e-17 -1 
1 25 0 0 1 
1 -20 -4 -6.12303176911189e-17 -1 
1 -25 0 0 1 
1 -25.000000000000004 -49 1 0 
1 6.2831853071795862 37.5 0 1 
1 0 37.5 0 1 
1 25 0 0 1 
1 25.010000000000002 -4 6.12303176911189e-17 -1 
1 -12.5 5 1 0 
1 12.5 0 -1 0 
1 -25 0 0 1 
1 -25.010000000000002 -4 -6.12303176911189e-17 -1 
1 30.009999999999998 -9 -1 0 
1 -25 -4.9999999999999991 0 1 
1 30.009999999999998 -4 6.12303176911189e-17 -1 
1 25 0 0 1 
1 30.009999999999998 -49 -1 0 
1 -25.010000000000002 -49 -1 -0 
1 -30.009999999999998 -4 -6.12303176911189e-17 -1 
1 -25 0 0 1 
1 -30.009999999999998 -9 1 0 
1 25 -4.9999999999999991 0 1 
1 3.1415926535897931 37.5 0 1 
1 -12.5 5 1 0 
1 12.5 -4.9999999999999991 -1 0 
Curves 40
1 0 12.5 4 0 -1 0 
1 12.5 10 4 -1 0 0 
1 50 12.5 4 0 1 0 
1 12.5 50 4 -1 0 0 
1 0 50 0 -0 -0 -1 
1 0 10 -1 0 0 1 
1 0 50 -1 0 -1 0 
1 12.5 10 -1 -1 0 0 
1 50 50 -1 -1 0 0 
1 50 0 -1 0 1 0 
1 50 50 0 -0 -0 -1 
1 50 10 4 0 0 -1 
1 50 10 -1 0 -1 0 
1 50 -0.40652566501618992 -1 -1 0 0 
1 0 -0.40652566501618992 -1 0 1 0 
1 50 10 4 0 -1 0 
1 50 -0.40652566501618992 4 -1 0 0 
1 0 -0.40652566501618992 4 0 1 0 
1 50 -0.40652566501618992 -1 0 0 1 
1 0 -0.40652566501618992 -1 0 0 1 
1 12.5 -2.75536429610035e-15 49 -1 0 0 
1 0 4.5934743349838101 -1.0000000000000013 0 -1 4.9791984771396754e-17 
1 50 4.5934743349838101 -1.0000000000000013 0 -1 4.9791984771396754e-17 
1 50 5 49 0 -1 0 
1 50 4.5934743349838101 3.9999999999999982 0 -1 4.9791984771396754e-17 
1 0 4.5934743349838101 3.9999999999999982 0 -1 4.9791984771396754e-17 
1 0 -2.75536429610035e-15 49 0 1 0 
1 12.5 5 49 -1 0 0 
1 12.5 -0.0100000000000028 49 -1 0 0 
1 50 -85.422233628284133 -1.0000000000000022 0 1 7.2672695143338567e-17 
1 12.5 -80.422233628284133 -1.0000000000000018 1 0 0 
1 0 -85.422233628284133 -1.0000000000000022 0 1 7.2672695143338567e-17 
1 50 -80.422233628284133 3.9999999999999973 0 1.1442377452219667e-17 -1 
1 50 -85.422233628284133 3.9999999999999973 0 1 7.2672695143338567e-17 
1 50 -5.0099999999999998 49 0 1 0 
1 0 -0.0100000000000028 49 0 -1 0 
1 0 -85.422233628284133 3.9999999999999973 0 1 7.2672695143338567e-17 
1 0 -80.422233628284133 3.9999999999999973 0 1.1442377452219667e-17 -1 
1 12.5 -5.0099999999999998 49 -1 0 0 
1 12.5 -80.422233628284133 3.9999999999999973 1 0 0 
Polygon3D 0
PolygonOnTriangulations 0
Surfaces 16
1 0 0 4 0 0 1 1 0 -0 -0 1 0 
1 0 25 0 -1 0 0 0 1 -0 -0 0 -1 
1 25 4.796737167491905 4 -0 -0 -1 -1 0 0 0 1 -0 
1 50 25 0 1 0 0 0 -1 0 0 0 -1 
1 25 50 0 0 1 0 1 -0 0 0 0 -1 
1 0 4.796737167491905 1.5 -1 -0 -0 0 0 -1 0 -1 0 
1 0 0 -1 0 0 1 1 0 -0 -0 1 0 
1 25 4.796737167491905 -1 -0 -0 -1 -1 0 0 0 1 -0 
1 50 4.796737167491905 1.5 -1 -0 -0 0 0 -1 0 -1 0 
1 25 0 4 0 -1 -6.12303176911189e-17 1 0 0 0 -6.12303176911189e-17 1 
1 25 5 4 0 -1 -6.12303176911189e-17 1 0 0 0 -6.12303176911189e-17 1 
2 50 -0.00500000000000276 49 -1 0 0 0 -1 0 0 0 1 0.0050000000000000001
2 50 -0.00500000000000276 49 -1 0 0 0 1 0 0 0 -1 5.0049999999999999
1 25 -0.01 4 0 -1 -6.12303176911189e-17 1 0 0 0 -6.12303176911189e-17 1 
1 25 -0.0100000000000003 9 0 6.12303176911189e-17 -1 -1 0 0 0 1 6.12303176911189e-17 
1 25 -5.0099999999999998 4 0 -1 -6.12303176911189e-17 1 0 0 0 -6.12303176911189e-17 1 
Triangulations 0

TShapes 103
Ve
1e-07
0 50 4
0 0

0101101
*
Ve
1e-07
0 10 4
0 0

0101101
*
Ed
 1e-07 1 1 0
1  1 0 -37.5 2.5
2  1 1 4 -37.5 2.5
2  2 2 7 -37.5 2.5
4 C0 1 4 2 7
0

0101000
+103 0 -102 0 *
Ve
1e-07
50 10 4
0 0

0101101
*
Ed
 1e-07 1 1 0
1  2 0 -37.5 12.5
2  3 1 4 -37.5 12.5
2  4 3 0 -37.5 12.5
4 G2 1 4 3 0
0

0101000
+100 0 -102 0 *
Ve
1e-07
50 50 4
0 0

0101101
*
Ed
 1e-07 1 1 0
1  3 0 -2.5 37.5
2  5 1 4 -2.5 37.5
2  6 4 9 -2.5 37.5
4 C0 1 4 4 9
0

0101000
+100 0 -98 0 *
Ed
 1e-07 1 1 0
1  4 0 -37.5 12.5
2  7 1 4 -37.5 12.5
2  8 5 11 -37.5 12.5
4 C0 1 4 5 11
0

0101000
+98 0 -103 0 *
Wi

0101100
+101 5 -99 5 +97 5 +96 5 *
Fa
0  1e-07 1 0

0101000
+95 0 *
Ve
1e-07
0 50 -1
0 0

0101101
*
Ed
 1e-07 1 1 0
1  5 0 -4 1
2  9 2 7 -4 1
2  10 5 11 -4 1
4 C0 2 7 5 11
0

0101000
+103 0 -93 0 *
Ve
1e-07
0 10 -1
0 0

0101101
*
Ed
 1e-07 1 1 0
1  6 0 0 5
2  11 2 7 0 5
2  12 6 0 0 5
4 G2 2 7 6 0
0

0101000
+91 0 -102 0 *
Ed
 1e-07 1 1 0
1  7 0 0 40
2  13 7 14 0 40
2  14 2 7 0 40
4 C0 2 7 7 14
0

0101000
+93 0 -91 0 *
Wi

0101100
+92 12 -101 12 +90 12 +89 12 *
Fa
0  1e-07 2 2

0101000
+88 0 *
Ve
1e-07
50 10 -1
0 0

0101101
*
Ed
 1e-07 1 1 0
1  8 0 -37.5 12.5
2  15 7 14 -37.5 12.5
2  16 8 0 -37.5 12.5
4 G2 7 14 8 0
0

0101000
+86 0 -91 0 *
Ve
1e-07
50 50 -1
0 0

0101101
*
Ed
 1e-07 1 1 0
1  9 0 0 50
2  17 7 14 0 50
2  18 5 11 0 50
4 C0 7 14 5 11
0

0101000
+84 0 -93 0 *
Ed
 1e-07 1 1 0
1  10 0 10 50
2  19 7 14 10 50
2  20 4 9 10 50
4 C0 7 14 4 9
0

0101000
+86 0 -84 0 *
Wi

0101100
+85 15 -89 15 -83 15 -82 15 *
Fa
0  1e-07 7 0

0101000
-81 0 *
Ed
 1e-07 1 1 0
1  11 0 -4 1
2  21 5 11 -4 1
2  22 4 9 -4 1
4 C0 5 11 4 9
0

0101000
+98 0 -84 0 *
Wi

0101100
+83 16 -92 16 -96 16 +79 16 *
Fa
0  1e-07 5 0

0101000
+78 0 *
Ed
 1e-07 1 1 0
1  12 0 0 5
2  23 4 9 0 5
2  24 9 0 0 5
4 G2 4 9 9 0
0

0101000
+100 0 -86 0 *
Wi

0101100
+76 17 -97 17 -79 17 +82 17 *
Fa
0  1e-07 4 2

0101000
+75 0 *
Ve
1.00000000610623e-07
50 -0.40652566501619 -1
0 0

0101101
*
Ed
 1e-07 1 1 0
1  13 0 0 10.4065256650162
2  25 8 0 0 10.4065256650162
2  26 9 0 0 10.4065256650162
4 C0 8 0 9 0
0

0101000
+86 0 -73 0 *
Ve
1.00000000610623e-07
0 -0.40652566501619 -1
0 0

0101101
*
Ed
 1e-07 1 1 0
1  14 0 0 50
2  27 8 0 0 50
2  28 10 19 0 50
4 G2 8 0 10 19
0

0101000
+73 0 -71 0 *
Ed
 1e-07 1 1 0
1  15 0 0 10.4065256650162
2  29 8 0 0 10.4065256650162
2  30 6 0 0 10.4065256650162
4 C0 8 0 6 0
0

0101000
+71 0 -91 0 *
Wi

0101100
+72 0 +70 0 +69 0 -85 0 *
Fa
0  1e-07 8 0

0101000
+68 0 *
Ve
1.00000000444089e-07
50 -0.40652566501619 4
0 0

0101101
*
Ed
 1e-07 1 1 0
1  16 0 0 10.4065256650162
2  31 3 0 0 10.4065256650162
2  32 9 0 0 10.4065256650162
4 C0 3 0 9 0
0

0101000
+100 0 -66 0 *
Ve
1.00000000666134e-07
0 -0.40652566501619 4
0 0

0101101
*
Ed
 1e-07 1 1 0
1  17 0 0 50
2  33 3 0 0 50
2  34 11 21 0 50
4 G2 3 0 11 21
0

0101000
+66 0 -64 0 *
Ed
 1e-07 1 1 0
1  18 0 0 10.4065256650162
2  35 3 0 0 10.4065256650162
2  36 6 0 0 10.4065256650162
4 C0 3 0 6 0
0

0101000
+64 0 -102 0 *
Wi

0101100
+65 0 +63 0 +62 0 -99 0 *
Fa
0  1e-07 3 0

0101000
+61 0 *
Ed
 1e-07 1 1 0
1  19 0 0 5
2  37 9 0 0 5
2  38 4 23 0 5
4 G2 9 0 4 23
0

0101000
+73 0 -66 0 *
Wi

0101100
+72 0 +59 0 -65 0 +76 0 *
Fa
0  1e-07 9 0

0101000
+58 0 *
Ed
 1e-07 1 1 0
1  20 0 0 5
2  39 6 0 0 5
2  40 2 25 0 5
4 G2 6 0 2 25
0

0101000
+71 0 -64 0 *
Wi

0101100
-69 0 +56 0 +62 0 -90 0 *
Fa
0  1e-07 6 0

0101000
+55 0 *
Ve
1e-07
50 -40.4065256650162 -0.999999999999999
0 0

0101101
*
Ve
1e-07
0 -40.4065256650162 -0.999999999999999
0 0

0101101
*
Ed
 1e-07 1 1 0
1  21 0 -37.5 12.5
2  41 12 0 -37.5 12.5
4 G1 12 0 10 0
0

0101000
+53 26 -52 26 *
Ed
 1e-07 1 1 0
1  22 0 5 45
2  42 10 19 5 45
2  43 2 25 5 45
4 C0 10 19 2 25
0

0101000
+71 0 -52 0 *
Ed
 1e-07 1 1 0
1  23 0 5 45
2  44 10 19 5 45
2  45 4 23 5 45
4 C0 10 19 4 23
0

0101000
+73 0 -53 0 *
Wi

0101100
+51 0 -50 26 -70 26 +49 26 *
Fa
0  1e-07 10 0

0101000
+48 0 *
Ve
1e-07
50 -40.4065256650162 4
0 0

0101101
*
Ed
 1e-07 1 1 0
1  24 0 0 5
2  46 4 2 0 5
0

0101000
+46 27 -53 27 *
Ed
 1e-07 1 1 0
1  25 0 5 45
2  47 4 23 5 45
2  48 11 21 5 45
4 C0 4 23 11 21
0

0101000
+66 0 -46 0 *
Wi

0101100
-49 27 +45 0 +44 27 +59 27 *
Fa
0  1e-07 4 2

0101000
+43 0 *
Ve
1e-07
0 -40.4065256650162 4
0 0

0101101
*
Ed
 1e-07 1 1 0
1  26 0 5 45
2  49 2 25 5 45
2  50 11 21 5 45
4 C0 2 25 11 21
0

0101000
+64 0 -41 0 *
Ed
 1e-07 1 1 0
1  27 0 0 5
2  51 2 2 0 5
0

0101000
+52 28 -41 28 *
Wi

0101100
-56 28 -40 28 +39 0 +50 28 *
Fa
0  1e-07 2 2

0101000
+38 0 *
Ed
 1e-07 1 1 0
1  28 0 -37.5 12.5
2  52 13 0 -37.5 12.5
4 G1 13 0 11 0
0

0101000
+46 29 -41 29 *
Wi

0101100
+40 29 -36 0 -44 29 +63 29 *
Fa
0  1e-07 11 0

0101000
-35 0 *
Sh

0101000
+94 4 +87 6 -80 14 +77 11 +74 8 +67 0 -60 0 -57 0 +54 0 +47 19 
+42 22 +37 24 -34 21 *
Ve
1e-07
50 -40.4222336282841 -0.999999999999999
0 0

0101101
*
Ve
1e-07
0 -40.4222336282841 -0.999999999999999
0 0

0101101
*
Ed
 1e-07 1 1 0
1  29 0 -37.5 12.5
2  53 12 0 -37.5 12.5
4 G1 12 0 14 0
0

0101000
+32 32 -31 32 *
Ve
1e-07
50 -80.4222336282841 -1
0 0

0101101
*
Ed
 1e-07 1 1 0
1  30 0 5 45
2  54 14 31 5 45
2  55 4 34 5 45
4 C0 14 31 4 34
0

0101000
+29 0 -32 0 *
Ve
1e-07
0 -80.4222336282841 -1
0 0

0101101
*
Ed
 1e-07 1 1 0
1  31 0 -12.5 37.5
2  56 14 31 -12.5 37.5
2  57 15 36 -12.5 37.5
4 C0 14 31 15 36
0

0101000
+27 0 -29 0 *
Ed
 1e-07 1 1 0
1  32 0 5 45
2  58 14 31 5 45
2  59 2 38 5 45
4 C0 14 31 2 38
0

0101000
+27 0 -31 0 *
Wi

0101100
-30 0 -28 32 -26 32 +25 32 *
Fa
0  1e-07 14 0

0101000
-24 0 *
Ve
1e-07
50 -80.4222336282841 4
0 0

0101101
*
Ed
 1e-07 1 1 0
1  33 0 0 5
2  60 4 34 0 5
2  61 15 36 0 5
4 C0 4 34 15 36
0

0101000
+22 0 -29 0 *
Ve
1e-07
50 -40.4222336282841 4
0 0

0101101
*
Ed
 1e-07 1 1 0
1  34 0 5 45
2  62 4 34 5 45
2  63 16 41 5 45
4 C0 4 34 16 41
0

0101000
+22 0 -20 0 *
Ed
 1e-07 1 1 0
1  35 0 0 5
2  64 4 2 0 5
0

0101000
+20 39 -32 39 *
Wi

0101100
+28 39 +21 39 -19 39 -18 0 *
Fa
0  1e-07 4 2

0101000
+17 0 *
Ve
1e-07
0 -40.4222336282841 4
0 0

0101101
*
Ed
 1e-07 1 1 0
1  36 0 0 5
2  65 2 2 0 5
0

0101000
+31 42 -15 42 *
Ve
1e-07
0 -80.4222336282841 4
0 0

0101101
*
Ed
 1e-07 1 1 0
1  37 0 5 45
2  66 2 38 5 45
2  67 16 41 5 45
4 C0 2 38 16 41
0

0101000
+13 0 -15 0 *
Ed
 1e-07 1 1 0
1  38 0 0 5
2  68 2 38 0 5
2  69 15 36 0 5
4 C0 2 38 15 36
0

0101000
+13 0 -27 0 *
Wi

0101100
-14 0 +12 42 -11 42 -25 42 *
Fa
0  1e-07 2 2

0101000
+10 0 *
Ed
 1e-07 1 1 0
1  39 0 -37.5 12.5
2  70 13 0 -37.5 12.5
4 G1 13 0 16 0
0

0101000
+20 43 -15 43 *
Ed
 1e-07 1 1 0
1  40 0 -12.5 37.5
2  71 16 41 -12.5 37.5
2  72 15 36 -12.5 37.5
4 C0 16 41 15 36
0

0101000
+13 0 -22 0 *
Wi

0101100
+8 0 -12 43 +7 43 +19 43 *
Fa
0  1e-07 16 0

0101000
+6 0 *
Wi

0101100
-7 44 +11 44 +26 44 -21 44 *
Fa
0  1e-07 15 0

0101000
+4 0 *
Sh

0101000
-23 31 +16 33 +9 37 +5 41 +3 36 *
Co

1100000
+33 0 +2 0 *

+1 1  