
CASCADE Topology V1, (c) Matra-Datavision
Locations 68
1
              1               0               0               0 
              0               1               0               0 
              0               0               1               0 
1
              1               0               0               0 
              0               1               0               0 
              0               0               1               0 
1
              1               0               0               0 
              0               1               0               0 
              0               0               1               0 
2  2 1 3 1 0
2  3 -1 2 -1 0
1
              1               0               0               0 
              0               1               0               0 
              0               0               1               0 
2  2 1 6 1 0
1
              1               0               0               0 
              0               1               0               0 
              0               0               1               0 
2  2 1 8 1 0
1
              1               0               0               0 
              0               1               0               0 
              0               0               1               0 
2  2 1 10 1 0
2  6 -1 0
1
              1               0               0               0 
              0               1               0               0 
              0               0               1               0 
2  2 1 13 1 0
2  13 -1 2 -1 0
2  8 -1 2 -1 0
2  10 -1 0
1
              1               0               0               0 
              0 1.11022302462516e-16              -1 8.59347433498381 
              0               1 1.11022302462516e-16              -1 
2  2 1 18 1 0
1
              1               0               0               0 
              0 1.11022302462516e-16              -1 8.59347433498381 
              0               1 1.11022302462516e-16              -1 
2  2 1 20 1 0
1
              1               0               0               0 
              0 1.11022302462516e-16              -1 8.59347433498381 
              0               1 1.11022302462516e-16              -1 
2  2 1 22 1 0
1
              1               0               0               0 
              0 1.11022302462516e-16              -1 8.59347433498381 
              0               1 1.11022302462516e-16              -1 
2  2 1 24 1 0
2  18 -1 2 -1 0
1
              1               0               0               0 
              0 1.11022302462516e-16              -1 8.59347433498381 
              0               1 1.11022302462516e-16              -1 
2  2 1 27 1 0
2  22 -1 0
1
              1               0               0               0 
              0 1.11022302462516e-16              -1 8.59347433498381 
              0               1 1.11022302462516e-16              -1 
2  2 1 30 1 0
1
              1               0               0               0 
              0 1.11022302462516e-16              -1 8.59347433498381 
              0               1 1.11022302462516e-16              -1 
2  2 1 32 1 0
1
              1               0               0               0 
              0 1.11022302462516e-16              -1 8.59347433498381 
              0               1 1.11022302462516e-16              -1 
2  2 1 34 1 0
1
              1               0               0               0 
              0 1.11022302462516e-16              -1 8.59347433498381 
              0               1 1.11022302462516e-16              -1 
2  2 1 36 1 0
1
              1               0               0               0 
              0 1.11022302462516e-16              -1 8.59347433498381 
              0               1 1.11022302462516e-16              -1 
2  2 1 38 1 0
1
              1               0               0               0 
              0 1.11022302462516e-16              -1 8.59347433498381 
              0               1 1.11022302462516e-16              -1 
2  2 1 40 1 0
1
              1               0               0               0 
              0 1.11022302462516e-16              -1 8.59347433498381 
              0               1 1.11022302462516e-16              -1 
2  2 1 42 1 0
1
              1               0               0               0 
              0 1.11022302462516e-16              -1 8.59347433498381 
              0               1 1.11022302462516e-16              -1 
2  2 1 44 1 0
1
              1               0               0               0 
              0 1.11022302462516e-16              -1 8.59347433498381 
              0               1 1.11022302462516e-16              -1 
2  2 1 46 1 0
1
              1               0               0               0 
              0 1.11022302462516e-16              -1 8.59347433498381 
              0               1 1.11022302462516e-16              -1 
2  2 1 48 1 0
1
              1               0               0               0 
              0 1.11022302462516e-16              -1 8.59347433498381 
              0               1 1.11022302462516e-16              -1 
2  2 1 50 1 0
1
              1               0               0               0 
              0 1.11022302462516e-16              -1 8.59347433498381 
              0               1 1.11022302462516e-16              -1 
2  2 1 52 1 0
2  24 -1 0
2  20 -1 2 -1 0
2  27 -1 2 -1 0
2  30 -1 2 -1 0
2  32 -1 2 -1 0
2  34 -1 2 -1 0
2  36 -1 2 -1 0
2  38 -1 2 -1 0
2  40 -1 2 -1 0
2  42 -1 2 -1 0
2  44 -1 2 -1 0
2  46 -1 2 -1 0
2  48 -1 2 -1 0
2  50 -1 2 -1 0
2  52 -1 2 -1 0
Curve2ds 128
1 12.5 10 -1 0 
8 -37.5 12.5
1 12.5 5.203262832508095 1 -0 
1 0 50 0 -1 
1 25 1 -1 -0 
1 50 50 -1 0 
1 25 1 -1 0 
1 50 0 0 1 
1 25 1 -1 0 
1 25 0 0 1 
1 -25 0 0 1 
1 0 12.5 0 -1 
1 -12.5 -4 -1 -0 
1 -15 -4 0 1 
1 -2.5 -5.203262832508095 1 0 
1 12.5 10 -1 0 
8 -37.5 12.5
1 12.5 5.203262832508095 1 -0 
1 50 12.5 0 1 
1 12.5 -4 -1 0 
1 12.5 50 -1 0 
1 -12.5 -4 -1 0 
1 25 0 0 1 
1 -25 0 0 1 
1 15 1 0 -1 
8 0 5
1 2.5 -5.203262832508095 -1 -0 
1 -25 5.203262832508095 0 -1 
1 2.5 -5.203262832508095 0 1 
1 -25 -5.203262832508095 1 0 
8 0 50
1 25 5 -1 -0 
1 25 -5.203262832508095 0 1 
8 0 10.40652566501619
1 2.5 5.203262832508095 -0 -1 
1 -25 5.203262832508095 0 -1 
8 0 10.40652566501619
1 -2.5 -5.203262832508095 -0 1 
1 -25 -5.203262832508095 1 0 
8 0 50
1 25 5 -1 -0 
1 25 -5.203262832508095 0 1 
1 -2.5 5.203262832508095 0 -1 
1 2.5 5.203262832508095 -1 0 
1 25 -9 -1 0 
1 2.5 5.203262832508095 -1 0 
8 0 5
1 -25 -9 1 0 
1 -24.999999999999993 22.171572875253801 1 6.9388939039072296e-17 
1 0.61547970867038859 0 1.9984014443252817e-17 1 
1 -25 0 0 1 
1 -25 -4 -6.12303176911189e-17 -1 
1 25 8.7752551286084 0 -1 
1 25.000000000000004 -12.7752551286084 8.4485341129147995e-17 1 
2 24 -31.828427124746199 0.81649658092772681 0.57735026918962484 0.57735026918962484 -0.81649658092772681 1.0000000000000009
1 6.2831853071795898 49.999999999999993 -1 0 
2 24 -31.828427124746199 0.81649658092772681 0.57735026918962484 0.57735026918962484 -0.81649658092772681 1.0000000000000009
1 6.2831853071795862 49.999999999999993 -1 0 
1 25 -4 6.12303176911189e-17 -1 
1 25 0 0 1 
1 20 -49 -1 0 
1 25 5.0000000000000027 0 1 
1 20 -4 6.12303176911189e-17 -1 
1 25 0 0 1 
2 19 -34.291502622129194 0.93541434669348522 0.35355339059327406 -0.35355339059327406 0.93541434669348522 1.0000000000000009
1 1.7763568394002505e-15 49.999999999999993 1 0 
2 19 -34.291502622129194 0.93541434669348522 0.35355339059327406 -0.35355339059327406 0.93541434669348522 1.0000000000000009
1 0 49.999999999999993 1 0 
2 25 -29 0 -1 1 0 7
1 -4.4408920985006262e-16 49.999999999999993 1 0 
2 19 -23.708497377870799 0.93541434669348522 -0.35355339059327406 0.35355339059327406 0.93541434669348522 0.99999999999999967
1 1.7763568394002505e-15 49.999999999999993 1 0 
2 19 -23.708497377870799 0.93541434669348522 -0.35355339059327406 0.35355339059327406 0.93541434669348522 0.99999999999999967
1 0 49.999999999999993 1 0 
1 20 -4 6.12303176911189e-17 -1 
1 25 0 0 1 
2 24.000000000000004 -26.171572875253801 0.81649658092772515 -0.57735026918962706 -0.57735026918962706 -0.81649658092772515 0.99999999999999944
1 6.2831853071795898 49.999999999999993 -1 0 
2 24.000000000000004 -26.171572875253801 0.81649658092772515 -0.57735026918962706 -0.57735026918962706 -0.81649658092772515 0.99999999999999944
1 6.2831853071795862 49.999999999999993 -1 0 
2 25 -29 0 -1 -1 -0 2
1 6.2831853071795853 49.999999999999993 -1 0 
2 -24 -31.828427124746199 -0.81649658092772681 0.57735026918962484 0.57735026918962484 0.81649658092772681 1.0000000000000009
1 1.7763568394002505e-15 -8.5822608121175202e-15 1 -6.5090241105650911e-17 
2 -24 -31.828427124746199 -0.81649658092772681 0.57735026918962484 0.57735026918962484 0.81649658092772681 1.0000000000000009
1 0 -8.991234858673322e-15 1 -4.1201677523398153e-17 
2 -25 -29 0 -1 1 0 2
1 6.2831853071795862 -8.784210180689836e-15 -1 -1.0629191862904999e-16 
2 -24.000000000000004 -26.171572875253801 -0.81649658092772515 -0.57735026918962706 -0.57735026918962706 0.81649658092772515 0.99999999999999944
1 0 -8.652233638561146e-15 1 -4.120167752340089e-17 
2 -24.000000000000004 -26.171572875253801 -0.81649658092772515 -0.57735026918962706 -0.57735026918962706 0.81649658092772515 0.99999999999999944
1 0 -8.9111114134073304e-15 1 -6.5090241105650454e-17 
1 -20 -4 -6.12303176911189e-17 -1 
1 -25 0 0 1 
2 -19 -23.708497377870799 -0.93541434669348522 -0.35355339059327406 0.35355339059327406 -0.93541434669348522 0.99999999999999967
1 6.283185307179588 -9.3531968613663729e-15 -1 6.7888562749466555e-17 
2 -19 -23.708497377870799 -0.93541434669348522 -0.35355339059327406 0.35355339059327406 -0.93541434669348522 0.99999999999999967
1 6.2831853071795862 -8.9266404413733849e-15 -1 5.9119308395034287e-17 
2 -25 -29 0 -1 -1 -0 7
1 0 -1.1045959859452438e-14 1 4.4452754900574949e-16 
2 -19 -34.291502622129194 -0.93541434669348522 0.35355339059327406 -0.35355339059327406 -0.93541434669348522 1.0000000000000009
1 6.2831853071795862 -9.3471634005855687e-15 -1 5.9119308395035323e-17 
2 -19 -34.291502622129194 -0.93541434669348522 0.35355339059327406 -0.35355339059327406 -0.93541434669348522 1.0000000000000009
1 6.2831853071795862 -8.9757058307072643e-15 -1 6.788856274946208e-17 
1 -20 -4 -6.12303176911189e-17 -1 
1 -25 0 0 1 
1 -20 -49 -1 -0 
1 -25 5.0000000000000027 0 -1 
1 -25 -4 -6.12303176911189e-17 -1 
1 -25 0 0 1 
1 -24.999999999999993 19.708497377870799 -1 -6.9388939039072296e-17 
1 0.3613671239067105 0 5.551115123125783e-18 -1 
1 0 24.999999999999993 0 1 
1 6.2831853071795862 24.999999999999993 0 1 
1 0 24.999999999999993 0 1 
1 6.2831853071795862 24.999999999999993 0 1 
1 0.61547970867040291 -6.3108872417680944e-30 -3.552713678800501e-17 1 
1 5.9433483977254591 -3.1554436208840472e-30 0 1 
1 5.667705598509202 0 -8.8817841970012528e-17 -1 
1 -24.999999999999993 27.828427124746199 -1 -6.9388939039072296e-17 
1 -12.5 45 -1 0 
1 -12.5 0 -1 0 
1 -12.5 5.0000000000000027 -1 0 
1 -12.5 45 -1 0 
1 -24.999999999999993 30.291502622129194 1 6.9388939039072296e-17 
1 5.9218181832728751 -7.8886090522101181e-31 8.8817841970012528e-17 1 
1 6.2831853071795862 24.999999999999993 0 1 
1 0 24.999999999999993 0 1 
1 0.36136712390674108 0 -6.661338147750939e-17 -1 
1 5.4351232281981012 0 0 -1 
1 3.9896547325712777 1.5777218104420236e-30 0 1 
1 5.9218181832728396 6.3108872417680944e-30 0 1 
1 6.2831853071795862 24.999999999999993 0 1 
1 0 24.999999999999993 0 1 
1 5.6677055985091869 0 0 -1 
1 3.4814295630439194 0 0 -1 
Curves 64
1 12.5 10 -1 -1 0 0 
1 0 50 -1 0 -1 0 
1 50 50 -1 -1 0 0 
1 50 0 -1 0 1 0 
1 0 50 0 -0 -0 -1 
1 0 12.5 4 0 -1 0 
1 0 10 4 0 0 -1 
1 12.5 10 4 -1 0 0 
1 50 12.5 4 0 1 0 
1 12.5 50 4 -1 0 0 
1 50 50 0 -0 -0 -1 
1 50 10 -1 0 0 1 
1 50 10 -1 0 -1 0 
1 50 -0.40652566501618992 -1 -1 0 0 
1 0 -0.40652566501618992 -1 0 1 0 
1 50 10 4 0 -1 0 
1 50 -0.40652566501618992 4 -1 0 0 
1 0 -0.40652566501618992 4 0 1 0 
1 50 -0.40652566501618992 -1 0 0 1 
1 0 -0.40652566501618992 -1 0 0 1 
1 7.1351554612427003e-15 -17.578098540269991 -1.0000000000000002 1 -6.9388939039072296e-17 3.4550129959368647e-33 
1 0 4.5934743349838101 -1.0000000000000013 0 -1 4.9791984771396754e-17 
1 50 -4.1817807936245899 -1.0000000000000038 0 1 -1.9550764359166366e-16 
2 50 -23.234952789762389 6.6613381477509392e-16 -1 0 -0 0 0.57735026918962473 -0.81649658092772692 0 -0.81649658092772692 -0.57735026918962473 1
2 50 -23.234952789762389 6.6613381477509392e-16 -1 0 -0 0 0.57735026918962473 -0.81649658092772692 0 -0.81649658092772692 -0.57735026918962473 1
1 50 4.5934743349838101 -1.0000000000000013 0 -1 4.9791984771396754e-17 
1 50 -40.40652566501619 4.0000000000000036 0 1.1102230246251565e-16 1 
1 50 4.5934743349838101 3.9999999999999982 0 -1 4.9791984771396754e-17 
2 50 -25.698028287145384 5.0000000000000018 1 -0 0 0 0.35355339059327401 -0.93541434669348533 0 0.93541434669348533 0.35355339059327401 1
2 50 -25.698028287145384 5.0000000000000018 1 -0 0 0 0.35355339059327401 -0.93541434669348533 0 0.93541434669348533 0.35355339059327401 1
2 50 -20.40652566501619 -1.0000000000000002 1 0 0 0 -1 1.1102230246251565e-16 0 -1.1102230246251565e-16 -1 7
2 50 -15.115023042886989 5.0000000000000009 1 0 0 0 -0.35355339059327417 -0.93541434669348522 0 0.93541434669348522 -0.35355339059327417 1
2 50 -15.115023042886989 5.0000000000000009 1 0 0 0 -0.35355339059327417 -0.93541434669348522 0 0.93541434669348522 -0.35355339059327417 1
1 50 4.5934743349838101 3.9999999999999982 0 -1 4.9791984771396754e-17 
2 50 -17.578098540269991 -6.6613381477509392e-16 -1 -0 0 0 -0.57735026918962717 -0.81649658092772504 0 -0.81649658092772504 0.57735026918962717 1
2 50 -17.578098540269991 -6.6613381477509392e-16 -1 -0 0 0 -0.57735026918962717 -0.81649658092772504 0 -0.81649658092772504 0.57735026918962717 1
2 50 -20.40652566501619 -1.0000000000000002 -1 0 0 0 -1 1.1102230246251565e-16 0 1.1102230246251565e-16 1 2
2 -2.2085407894685701e-15 -23.234952789762389 6.6613381477509392e-16 1 -0 0 0 0.57735026918962473 -0.81649658092772692 0 0.81649658092772692 0.57735026918962473 1
2 -2.2085407894685701e-15 -23.234952789762389 6.6613381477509392e-16 1 -0 0 0 0.57735026918962473 -0.81649658092772692 0 0.81649658092772692 0.57735026918962473 1
2 -2.0122792321330998e-15 -20.40652566501619 -1.0000000000000002 -1 0 0 0 -1 1.1102230246251565e-16 0 1.1102230246251565e-16 1 2
2 -1.81601767479762e-15 -17.578098540269991 -6.6613381477509392e-16 1 0 0 0 -0.57735026918962717 -0.81649658092772504 0 0.81649658092772504 -0.57735026918962717 1
2 -1.81601767479762e-15 -17.578098540269991 -6.6613381477509392e-16 1 0 0 0 -0.57735026918962717 -0.81649658092772504 0 0.81649658092772504 -0.57735026918962717 1
1 0 4.5934743349838101 3.9999999999999982 0 -1 4.9791984771396754e-17 
2 -1.64510747926108e-15 -15.115023042886989 5.0000000000000009 -1 -0 0 0 -0.35355339059327417 -0.93541434669348522 0 -0.93541434669348522 0.35355339059327417 1
2 -1.64510747926108e-15 -15.115023042886989 5.0000000000000009 -1 -0 0 0 -0.35355339059327417 -0.93541434669348522 0 -0.93541434669348522 0.35355339059327417 1
2 -2.0122792321330998e-15 -20.40652566501619 -1.0000000000000002 1 0 0 0 -1 1.1102230246251565e-16 0 -1.1102230246251565e-16 -1 7
2 -2.3794509850051101e-15 -25.698028287145384 5.0000000000000018 -1 0 -0 0 0.35355339059327401 -0.93541434669348533 0 -0.93541434669348533 -0.35355339059327401 1
2 -2.3794509850051101e-15 -25.698028287145384 5.0000000000000018 -1 0 -0 0 0.35355339059327401 -0.93541434669348533 0 -0.93541434669348533 -0.35355339059327401 1
1 0 4.5934743349838101 3.9999999999999982 0 -1 4.9791984771396754e-17 
1 0 -40.40652566501619 4.0000000000000036 0 -1.1102230246251565e-16 -1 
1 0 4.5934743349838101 -1.0000000000000013 0 -1 4.9791984771396754e-17 
1 7.3060656567792395e-15 -15.115023042886989 4.0000000000000009 -1 6.9388939039072296e-17 -3.4550129959368647e-33 
1 25 -18.155448809459589 -0.81649658092772581 1 -6.9388939039072296e-17 7.7037197775489448e-33 
1 25 -22.657602520572791 -0.81649658092772626 1 -6.9388939039072296e-17 7.7037197775489448e-33 
1 6.8080528656835805e-15 -22.29214374818029 -0.33333333333333237 1 -6.9388939039072296e-17 7.7037197775489448e-33 
1 6.7426323465717604e-15 -23.234952789762389 -1 -1 6.9388939039072296e-17 -3.4550129959368647e-33 
1 12.5 -40.40652566501619 -0.99999999999999911 -1 0 0 
1 12.5 -40.40652566501619 4.0000000000000036 -1 0 0 
1 6.5717221510352196e-15 -25.698028287145384 4.0000000000000018 1 -6.9388939039072296e-17 3.4550129959368647e-33 
1 25 -25.344474896552086 4.0645856533065121 1 -6.9388939039072296e-17 7.7037197775489448e-33 
1 6.6176186201442202e-15 -25.036590459379191 4.2500000000000018 -1 6.9388939039072296e-17 -7.7037197775489448e-33 
1 7.2601691876702397e-15 -15.776460870653189 4.2500000000000009 1 -6.9388939039072296e-17 7.7037197775489448e-33 
1 25 -15.46857643348029 4.0645856533065112 1 -6.9388939039072296e-17 7.7037197775489448e-33 
1 7.0697349421308802e-15 -18.520907581852089 -0.33333333333333381 -1 6.9388939039072296e-17 -7.7037197775489448e-33 
Polygon3D 0
PolygonOnTriangulations 0
Surfaces 24
1 0 0 -1 0 0 1 1 0 -0 -0 1 0 
1 25 4.796737167491905 -1 -0 -0 -1 -1 0 0 0 1 -0 
1 0 25 0 -1 0 0 0 1 -0 -0 0 -1 
1 25 50 0 0 1 0 1 -0 0 0 0 -1 
1 50 25 0 1 0 0 0 -1 0 0 0 -1 
1 0 0 4 0 0 1 1 0 -0 -0 1 0 
1 0 4.796737167491905 1.5 -1 -0 -0 0 0 -1 0 -1 0 
1 25 4.796737167491905 4 -0 -0 -1 -1 0 0 0 1 -0 
1 50 4.796737167491905 1.5 -1 -0 -0 0 0 -1 0 -1 0 
1 25 0 4 0 -1 -6.12303176911189e-17 1 0 0 0 -6.12303176911189e-17 1 
1 25 5 4 0 -1 -6.12303176911189e-17 1 0 0 0 -6.12303176911189e-17 1 
2 7.1351554612427003e-15 0.99999999999999811 26.171572875253801 1 0 6.9388939039072296e-17 -4.0061722632991011e-17 -0.81649658092772515 0.57735026918962706 5.6655831479604885e-17 -0.57735026918962706 -0.81649658092772515 1
2 6.7426323465717604e-15 0.99999999999999889 31.828427124746199 1 0 6.9388939039072296e-17 4.0061722632990857e-17 -0.81649658092772681 -0.57735026918962484 5.6655831479604996e-17 0.57735026918962484 -0.81649658092772681 1
2 6.7426323465717604e-15 0.99999999999999889 31.828427124746199 1 0 6.9388939039072296e-17 4.0061722632990857e-17 -0.81649658092772681 -0.57735026918962484 5.6655831479604996e-17 0.57735026918962484 -0.81649658092772681 1
1 25 0 4 0 -1 -6.12303176911189e-17 1 0 0 0 -6.12303176911189e-17 1 
1 25 -2.75536429610035e-15 49 0 -6.12303176911189e-17 1 1 0 0 -0 1 6.12303176911189e-17 
1 25 5 4 0 -1 -6.12303176911189e-17 1 0 0 0 -6.12303176911189e-17 1 
2 6.5717221510352196e-15 6 34.291502622129194 1 2.9387358770557201e-33 6.9388939039072296e-17 2.4532694666934014e-17 -0.93541434669348522 -0.35355339059327406 6.4907409078987885e-17 0.35355339059327406 -0.93541434669348522 1
2 6.5717221510352196e-15 6 34.291502622129194 1 2.9387358770557201e-33 6.9388939039072296e-17 2.4532694666934014e-17 -0.93541434669348522 -0.35355339059327406 6.4907409078987885e-17 0.35355339059327406 -0.93541434669348522 1
2 6.93889390390723e-15 -1.7347234759768102e-15 29 1 0 6.9388939039072296e-17 -6.9388939039072296e-17 0 1 0 -1 0 7
2 7.3060656567792395e-15 6 23.708497377870799 1 2.9387358770557201e-33 6.9388939039072296e-17 -2.4532694666934008e-17 -0.93541434669348522 0.35355339059327406 6.4907409078987885e-17 -0.35355339059327406 -0.93541434669348522 1
2 7.3060656567792395e-15 6 23.708497377870799 1 2.9387358770557201e-33 6.9388939039072296e-17 -2.4532694666934008e-17 -0.93541434669348522 0.35355339059327406 6.4907409078987885e-17 -0.35355339059327406 -0.93541434669348522 1
2 7.1351554612427003e-15 0.99999999999999811 26.171572875253801 1 0 6.9388939039072296e-17 -4.0061722632991011e-17 -0.81649658092772515 0.57735026918962706 5.6655831479604885e-17 -0.57735026918962706 -0.81649658092772515 1
2 6.93889390390723e-15 -1.7347234759768102e-15 29 1 0 6.9388939039072296e-17 -6.9388939039072296e-17 0 1 0 -1 0 2
Triangulations 0

TShapes 158
Ve
1e-07
50 10 -1
0 0

0101101
*
Ve
1e-07
0 10 -1
0 0

0101101
*
Ed
 1e-07 1 1 0
1  1 0 -37.5 12.5
2  1 1 4 -37.5 12.5
2  2 2 0 -37.5 12.5
4 G2 1 4 2 0
0

0101000
+158 0 -157 0 *
Ve
1e-07
0 50 -1
0 0

0101101
*
Ed
 1e-07 1 1 0
1  2 0 0 40
2  3 1 4 0 40
2  4 3 7 0 40
4 C0 1 4 3 7
0

0101000
+155 0 -157 0 *
Ve
1e-07
50 50 -1
0 0

0101101
*
Ed
 1e-07 1 1 0
1  3 0 0 50
2  5 1 4 0 50
2  6 4 9 0 50
4 C0 1 4 4 9
0

0101000
+153 0 -155 0 *
Ed
 1e-07 1 1 0
1  4 0 10 50
2  7 1 4 10 50
2  8 5 11 10 50
4 C0 1 4 5 11
0

0101000
+158 0 -153 0 *
Wi

0101100
+156 5 -154 5 -152 5 -151 5 *
Fa
0  1e-07 1 0

0101000
-150 0 *
Ve
1e-07
0 50 4
0 0

0101101
*
Ed
 1e-07 1 1 0
1  5 0 -4 1
2  9 3 7 -4 1
2  10 4 9 -4 1
4 C0 3 7 4 9
0

0101000
+148 0 -155 0 *
Ve
1e-07
0 10 4
0 0

0101101
*
Ed
 1e-07 1 1 0
1  6 0 -37.5 2.5
2  11 6 14 -37.5 2.5
2  12 3 7 -37.5 2.5
4 C0 3 7 6 14
0

0101000
+148 0 -146 0 *
Ed
 1e-07 1 1 0
1  7 0 0 5
2  13 3 7 0 5
2  14 7 0 0 5
4 G2 3 7 7 0
0

0101000
+146 0 -157 0 *
Wi

0101100
+154 12 +147 12 -145 12 -144 12 *
Fa
0  1e-07 3 2

0101000
+143 0 *
Ve
1e-07
50 10 4
0 0

0101101
*
Ed
 1e-07 1 1 0
1  8 0 -37.5 12.5
2  15 6 14 -37.5 12.5
2  16 8 0 -37.5 12.5
4 G2 6 14 8 0
0

0101000
+141 0 -146 0 *
Ve
1e-07
50 50 4
0 0

0101101
*
Ed
 1e-07 1 1 0
1  9 0 -2.5 37.5
2  17 6 14 -2.5 37.5
2  18 5 11 -2.5 37.5
4 C0 6 14 5 11
0

0101000
+141 0 -139 0 *
Ed
 1e-07 1 1 0
1  10 0 -37.5 12.5
2  19 6 14 -37.5 12.5
2  20 4 9 -37.5 12.5
4 C0 6 14 4 9
0

0101000
+139 0 -148 0 *
Wi

0101100
+145 15 -140 15 +138 15 +137 15 *
Fa
0  1e-07 6 0

0101000
+136 0 *
Ed
 1e-07 1 1 0
1  11 0 -4 1
2  21 4 9 -4 1
2  22 5 11 -4 1
4 C0 4 9 5 11
0

0101000
+139 0 -153 0 *
Wi

0101100
+152 16 -147 16 -137 16 +134 16 *
Fa
0  1e-07 4 0

0101000
+133 0 *
Ed
 1e-07 1 1 0
1  12 0 0 5
2  23 5 11 0 5
2  24 9 0 0 5
4 G2 5 11 9 0
0

0101000
+158 0 -141 0 *
Wi

0101100
-131 17 -138 17 -134 17 +151 17 *
Fa
0  1e-07 5 2

0101000
+130 0 *
Ve
1.00000000610623e-07
50 -0.40652566501619 -1
0 0

0101101
*
Ed
 1e-07 1 1 0
1  13 0 0 10.4065256650162
2  25 2 0 0 10.4065256650162
2  26 9 0 0 10.4065256650162
4 C0 2 0 9 0
0

0101000
+158 0 -128 0 *
Ve
1.00000000610623e-07
0 -0.40652566501619 -1
0 0

0101101
*
Ed
 1e-07 1 1 0
1  14 0 0 50
2  27 2 0 0 50
2  28 10 19 0 50
4 G2 2 0 10 19
0

0101000
+128 0 -126 0 *
Ed
 1e-07 1 1 0
1  15 0 0 10.4065256650162
2  29 2 0 0 10.4065256650162
2  30 7 0 0 10.4065256650162
4 C0 2 0 7 0
0

0101000
+126 0 -157 0 *
Wi

0101100
+127 0 +125 0 +124 0 -156 0 *
Fa
0  1e-07 2 0

0101000
+123 0 *
Ve
1.00000000444089e-07
50 -0.40652566501619 4
0 0

0101101
*
Ed
 1e-07 1 1 0
1  16 0 0 10.4065256650162
2  31 8 0 0 10.4065256650162
2  32 9 0 0 10.4065256650162
4 C0 8 0 9 0
0

0101000
+141 0 -121 0 *
Ve
1.00000000666134e-07
0 -0.40652566501619 4
0 0

0101101
*
Ed
 1e-07 1 1 0
1  17 0 0 50
2  33 8 0 0 50
2  34 11 21 0 50
4 G2 8 0 11 21
0

0101000
+121 0 -119 0 *
Ed
 1e-07 1 1 0
1  18 0 0 10.4065256650162
2  35 8 0 0 10.4065256650162
2  36 7 0 0 10.4065256650162
4 C0 8 0 7 0
0

0101000
+119 0 -146 0 *
Wi

0101100
+120 0 +118 0 +117 0 -140 0 *
Fa
0  1e-07 8 0

0101000
+116 0 *
Ed
 1e-07 1 1 0
1  19 0 0 5
2  37 9 0 0 5
2  38 5 23 0 5
4 G2 9 0 5 23
0

0101000
+128 0 -121 0 *
Wi

0101100
+127 0 +114 0 -120 0 -131 0 *
Fa
0  1e-07 9 0

0101000
+113 0 *
Ed
 1e-07 1 1 0
1  20 0 0 5
2  39 7 0 0 5
2  40 3 25 0 5
4 G2 7 0 3 25
0

0101000
+126 0 -119 0 *
Wi

0101100
-124 0 +111 0 +117 0 +144 0 *
Fa
0  1e-07 7 0

0101000
+110 0 *
Ve
1e-07
0 -17.57809854027 -1
0 0

0101101
*
Ve
1e-07
50 -17.57809854027 -1
0 0

0101101
*
Ed
 1e-07 1 1 0
1  21 0 -7.1351554612427e-15 50
2  41 10 19 -7.1351554612427e-15 50
2  42 12 28 -7.1351554612427e-15 50
4 C1 10 19 12 28
0

0101000
+108 0 -107 0 *
Ed
 1e-07 1 1 0
1  22 0 5 22.1715728752538
2  43 10 19 5 22.1715728752538
2  44 3 25 5 22.1715728752538
4 C0 10 19 3 25
0

0101000
+126 0 -108 0 *
Ed
 1e-07 1 1 0
1  23 0 -13.3963177466454 3.7752551286084
2  45 10 19 -13.3963177466454 3.7752551286084
2  46 5 23 -13.3963177466454 3.7752551286084
4 C0 10 19 5 23
0

0101000
+107 0 -128 0 *
Wi

0101100
-106 26 -105 26 -125 26 -104 26 *
Fa
0  1e-07 10 0

0101000
+103 0 *
Ve
1e-07
50 -22.2921437481803 -0.333333333333332
0 0

0101101
*
Ve
1e-07
50 -22.6576025205728 -0.816496580927726
0 0

0101101
*
Ed
 1e-07 1 1 0
1  24 0 5.66770559850919 6.28318530717959
2  47 5 23 5.66770559850919 6.28318530717959
2  48 13 31 5.66770559850919 6.28318530717959
4 C0 5 23 13 31
0

0101000
+101 0 -100 0 *
Ve
1e-07
50 -23.2349527897624 -1
0 0

0101101
*
Ed
 1e-07 1 1 0
1  25 0 0 0.615479708670386
2  49 5 23 0 0.615479708670386
2  50 14 33 0 0.615479708670386
4 C0 5 23 14 33
0

0101000
+100 0 -98 0 *
Ve
1e-07
50 -40.4065256650162 -0.999999999999999
0 0

0101101
*
Ed
 1e-07 1 1 0
1  26 0 27.8284271247462 45
2  51 5 23 27.8284271247462 45
2  52 15 35 27.8284271247462 45
4 C0 5 23 15 35
0

0101000
+98 0 -96 0 *
Ve
1e-07
50 -40.4065256650162 4
0 0

0101101
*
Ed
 1e-07 1 1 0
1  27 0 -5 0
2  53 5 23 -5 0
2  54 16 37 -5 0
4 C0 5 23 16 37
0

0101000
+96 0 -94 0 *
Ve
1e-07
50 -25.6980282871454 4
0 0

0101101
*
Ed
 1e-07 1 1 0
1  28 0 30.2915026221292 45
2  55 5 23 30.2915026221292 45
2  56 17 39 30.2915026221292 45
4 C0 5 23 17 39
0

0101000
+92 0 -94 0 *
Ve
1e-07
50 -25.3444748965521 4.06458565330651
0 0

0101101
*
Ed
 1e-07 1 1 0
1  29 0 5.92181818327288 6.28318530717959
2  57 5 23 5.92181818327288 6.28318530717959
2  58 18 41 5.92181818327288 6.28318530717959
4 C0 5 23 18 41
0

0101000
+92 0 -90 0 *
Ve
1e-07
50 -25.0365904593792 4.25
0 0

0101101
*
Ed
 1e-07 1 1 0
1  30 0 0 0.361367123906741
2  59 5 23 0 0.361367123906741
2  60 19 43 0 0.361367123906741
4 C0 5 23 19 43
0

0101000
+90 0 -88 0 *
Ve
1e-07
50 -15.7764608706532 4.25
0 0

0101101
*
Ed
 1e-07 1 1 0
1  31 0 3.98965473257128 5.4351232281981
2  61 5 23 3.98965473257128 5.4351232281981
2  62 20 45 3.98965473257128 5.4351232281981
4 C0 5 23 20 45
0

0101000
+86 0 -88 0 *
Ve
1e-07
50 -15.4685764334803 4.06458565330651
0 0

0101101
*
Ed
 1e-07 1 1 0
1  32 0 5.92181818327284 6.28318530717959
2  63 5 23 5.92181818327284 6.28318530717959
2  64 21 47 5.92181818327284 6.28318530717959
4 C0 5 23 21 47
0

0101000
+86 0 -84 0 *
Ve
1e-07
50 -15.115023042887 4
0 0

0101101
*
Ed
 1e-07 1 1 0
1  33 0 0 0.361367123906708
2  65 5 23 0 0.361367123906708
2  66 22 49 0 0.361367123906708
4 C0 5 23 22 49
0

0101000
+84 0 -82 0 *
Ed
 1e-07 1 1 0
1  34 0 5 19.7084973778708
2  67 5 23 5 19.7084973778708
2  68 11 21 5 19.7084973778708
4 C0 5 23 11 21
0

0101000
+121 0 -82 0 *
Ve
1e-07
50 -18.1554488094596 -0.816496580927727
0 0

0101101
*
Ed
 1e-07 1 1 0
1  35 0 5.6677055985092 6.28318530717959
2  69 5 23 5.6677055985092 6.28318530717959
2  70 12 28 5.6677055985092 6.28318530717959
4 C0 5 23 12 28
0

0101000
+107 0 -79 0 *
Ve
1e-07
50 -18.5209075818521 -0.333333333333334
0 0

0101101
*
Ed
 1e-07 1 1 0
1  36 0 0 0.615479708670398
2  71 5 23 0 0.615479708670398
2  72 23 51 0 0.615479708670398
4 C0 5 23 23 51
0

0101000
+79 0 -77 0 *
Ed
 1e-07 1 1 0
1  37 0 0.339836909454127 2.80175574413567
2  73 5 23 0.339836909454127 2.80175574413567
2  74 24 53 0.339836909454127 2.80175574413567
4 C0 5 23 24 53
0

0101000
+101 0 -77 0 *
Wi

0101100
-99 29 -97 29 -95 29 -93 29 +91 29 -89 29 -87 29 +85 29 -83 29 -81 29 
+80 29 +114 29 +104 29 -78 29 -76 29 +75 29 *
Fa
0  1e-07 5 2

0101000
+74 0 *
Ve
1e-07
0 -23.2349527897624 -1
0 0

0101101
*
Ve
1e-07
-3.46944695195361e-15 -22.6576025205728 -0.816496580927726
0 0

0101101
*
Ed
 1e-07 1 1 0
1  38 0 5.6677055985092 6.28318530717959
2  75 3 25 5.6677055985092 6.28318530717959
2  76 14 33 5.6677055985092 6.28318530717959
4 C0 3 25 14 33
0

0101000
+72 0 -71 0 *
Ve
1e-07
-2.0122792321331e-15 -22.2921437481803 -0.333333333333332
0 0

0101101
*
Ed
 1e-07 1 1 0
1  39 0 0 0.615479708670401
2  77 3 25 0 0.615479708670401
2  78 13 31 0 0.615479708670401
4 C0 3 25 13 31
0

0101000
+71 0 -69 0 *
Ve
1e-07
-2.0122792321331e-15 -18.5209075818521 -0.333333333333334
0 0

0101101
*
Ed
 1e-07 1 1 0
1  40 0 0.339836909454127 2.80175574413567
2  79 3 25 0.339836909454127 2.80175574413567
2  80 24 53 0.339836909454127 2.80175574413567
4 C0 3 25 24 53
0

0101000
+69 0 -67 0 *
Ve
1e-07
-3.46944695195361e-15 -18.1554488094596 -0.816496580927728
0 0

0101101
*
Ed
 1e-07 1 1 0
1  41 0 5.66770559850919 6.28318530717959
2  81 3 25 5.66770559850919 6.28318530717959
2  82 23 51 5.66770559850919 6.28318530717959
4 C0 3 25 23 51
0

0101000
+67 0 -65 0 *
Ed
 1e-07 1 1 0
1  42 0 0 0.615479708670389
2  83 3 25 0 0.615479708670389
2  84 12 28 0 0.615479708670389
4 C0 3 25 12 28
0

0101000
+65 0 -108 0 *
Ve
1e-07
0 -15.115023042887 4
0 0

0101101
*
Ed
 1e-07 1 1 0
1  43 0 5 19.7084973778708
2  85 3 25 5 19.7084973778708
2  86 11 21 5 19.7084973778708
4 C0 3 25 11 21
0

0101000
+119 0 -62 0 *
Ve
1e-07
0 -15.4685764334803 4.06458565330651
0 0

0101101
*
Ed
 1e-07 1 1 0
1  44 0 5.92181818327288 6.28318530717959
2  87 3 25 5.92181818327288 6.28318530717959
2  88 22 49 5.92181818327288 6.28318530717959
4 C0 3 25 22 49
0

0101000
+62 0 -60 0 *
Ve
1e-07
-2.0122792321331e-15 -15.7764608706532 4.25
0 0

0101101
*
Ed
 1e-07 1 1 0
1  45 0 0 0.361367123906747
2  89 3 25 0 0.361367123906747
2  90 21 47 0 0.361367123906747
4 C0 3 25 21 47
0

0101000
+60 0 -58 0 *
Ve
1e-07
-2.0122792321331e-15 -25.0365904593792 4.25
0 0

0101101
*
Ed
 1e-07 1 1 0
1  46 0 3.98965473257128 5.4351232281981
2  91 3 25 3.98965473257128 5.4351232281981
2  92 20 45 3.98965473257128 5.4351232281981
4 C0 3 25 20 45
0

0101000
+58 0 -56 0 *
Ve
1e-07
-3.46944695195361e-15 -25.3444748965521 4.06458565330651
0 0

0101101
*
Ed
 1e-07 1 1 0
1  47 0 5.92181818327284 6.28318530717959
2  93 3 25 5.92181818327284 6.28318530717959
2  94 19 43 5.92181818327284 6.28318530717959
4 C0 3 25 19 43
0

0101000
+56 0 -54 0 *
Ve
1e-07
0 -25.6980282871454 4
0 0

0101101
*
Ed
 1e-07 1 1 0
1  48 0 0 0.361367123906708
2  95 3 25 0 0.361367123906708
2  96 18 41 0 0.361367123906708
4 C0 3 25 18 41
0

0101000
+54 0 -52 0 *
Ve
1e-07
0 -40.4065256650162 4
0 0

0101101
*
Ed
 1e-07 1 1 0
1  49 0 30.2915026221292 45
2  97 3 25 30.2915026221292 45
2  98 17 39 30.2915026221292 45
4 C0 3 25 17 39
0

0101000
+52 0 -50 0 *
Ve
1e-07
0 -40.4065256650162 -0.999999999999999
0 0

0101101
*
Ed
 1e-07 1 1 0
1  50 0 0 5
2  99 3 25 0 5
2  100 16 37 0 5
4 C0 3 25 16 37
0

0101000
+50 0 -48 0 *
Ed
 1e-07 1 1 0
1  51 0 27.8284271247462 45
2  101 3 25 27.8284271247462 45
2  102 15 35 27.8284271247462 45
4 C0 3 25 15 35
0

0101000
+72 0 -48 0 *
Wi

0101100
-70 54 -68 54 -66 54 -64 54 -63 54 +105 54 -111 54 -61 54 -59 54 -57 54 
-55 54 -53 54 -51 54 -49 54 -47 54 +46 54 *
Fa
0  1e-07 3 2

0101000
+45 0 *
Ed
 1e-07 1 1 0
1  52 0 -50 7.105427357601e-15
2  103 11 21 -50 7.105427357601e-15
2  104 22 49 -50 7.105427357601e-15
4 C1 11 21 22 49
0

0101000
+82 0 -62 0 *
Wi

0101100
-43 55 -80 55 +118 55 +61 55 *
Fa
0  1e-07 11 0

0101000
-42 0 *
Ed
 1e-07 1 1 0
1  53 0 -25 25
2  105 12 28 -25 25
2  106 23 51 -25 25
4 CN 12 28 23 51
0

0101000
+65 0 -79 0 *
Wi

0101100
-40 56 +63 56 +106 56 +78 56 *
Fa
0  1e-07 12 0

0101000
+39 0 *
Ed
 1e-07 1 1 0
1  54 0 -25 25
2  107 13 31 -25 25
2  108 14 33 -25 25
4 CN 13 31 14 33
0

0101000
+71 0 -100 0 *
Ed
 1e-07 1 1 0
1  55 0 -8.82033209781668e-15 50
2  109 13 31 -8.82033209781668e-15 50
2  110 24 53 -8.82033209781668e-15 50
4 G1 13 31 24 53
0

0101000
+69 0 -101 0 *
Wi

0101100
-37 57 +68 57 +36 57 +99 57 *
Fa
0  1e-07 13 0

0101000
+35 0 *
Ed
 1e-07 1 1 0
1  56 0 -50 7.105427357601e-15
2  111 14 33 -50 7.105427357601e-15
2  112 15 35 -50 7.105427357601e-15
4 C1 14 33 15 35
0

0101000
+98 0 -72 0 *
Wi

0101100
+37 58 +97 58 +33 58 +70 58 *
Fa
0  1e-07 14 0

0101000
+32 0 *
Ed
 1e-07 1 1 0
1  57 0 -37.5 12.5
2  113 15 35 -37.5 12.5
2  114 16 37 -37.5 12.5
4 C0 15 35 16 37
0

0101000
+96 0 -48 0 *
Wi

0101100
-33 59 +95 59 +30 59 -46 59 *
Fa
0  1e-07 15 0

0101000
+29 0 *
Ed
 1e-07 1 1 0
1  58 0 -37.5 12.5
2  115 16 37 -37.5 12.5
2  116 17 39 -37.5 12.5
4 C0 16 37 17 39
0

0101000
+94 0 -50 0 *
Wi

0101100
+27 60 +47 60 -30 60 +93 60 *
Fa
0  1e-07 16 0

0101000
+26 0 *
Ed
 1e-07 1 1 0
1  59 0 -6.57172215103522e-15 50
2  117 17 39 -6.57172215103522e-15 50
2  118 18 41 -6.57172215103522e-15 50
4 C1 17 39 18 41
0

0101000
+52 0 -92 0 *
Wi

0101100
-24 61 +49 61 -27 61 -91 61 *
Fa
0  1e-07 17 0

0101000
-23 0 *
Ed
 1e-07 1 1 0
1  60 0 -25 25
2  119 18 41 -25 25
2  120 19 43 -25 25
4 CN 18 41 19 43
0

0101000
+54 0 -90 0 *
Wi

0101100
-89 62 -24 62 -51 62 +21 62 *
Fa
0  1e-07 18 0

0101000
+20 0 *
Ed
 1e-07 1 1 0
1  61 0 -50 7.105427357601e-15
2  121 19 43 -50 7.105427357601e-15
2  122 20 45 -50 7.105427357601e-15
4 G1 19 43 20 45
0

0101000
+88 0 -56 0 *
Wi

0101100
-53 63 -18 63 -87 63 -21 63 *
Fa
0  1e-07 19 0

0101000
+17 0 *
Ed
 1e-07 1 1 0
1  62 0 -9.27244841980334e-15 50
2  123 20 45 -9.27244841980334e-15 50
2  124 21 47 -9.27244841980334e-15 50
4 G1 20 45 21 47
0

0101000
+58 0 -86 0 *
Wi

0101100
-15 64 +55 64 -18 64 -85 64 *
Fa
0  1e-07 20 0

0101000
+14 0 *
Ed
 1e-07 1 1 0
1  63 0 -25 25
2  125 21 47 -25 25
2  126 22 49 -25 25
4 CN 21 47 22 49
0

0101000
+60 0 -84 0 *
Wi

0101100
-83 65 -15 65 -57 65 +12 65 *
Fa
0  1e-07 21 0

0101000
+11 0 *
Wi

0101100
-59 66 -43 66 -81 66 -12 66 *
Fa
0  1e-07 22 0

0101000
+9 0 *
Ed
 1e-07 1 1 0
1  64 0 -50 7.105427357601e-15
2  127 23 51 -50 7.105427357601e-15
2  128 24 53 -50 7.105427357601e-15
4 G1 23 51 24 53
0

0101000
+77 0 -67 0 *
Wi

0101100
+40 67 +76 67 +7 67 +64 67 *
Fa
0  1e-07 23 0

0101000
+6 0 *
Wi

0101100
+75 68 +7 68 -66 68 +36 68 *
Fa
0  1e-07 24 0

0101000
+4 0 *
Sh

0101100
-149 4 +142 6 +135 14 +132 9 +129 10 +122 0 -115 0 -112 0 +109 0 +102 19 
+73 22 +44 24 -41 21 +38 28 +34 31 +31 33 +28 35 +25 37 -22 39 -19 41 
-16 43 +13 45 -10 47 -8 49 +5 51 -3 53 *
So

1100000
+2 0 *

+1 1  