
CASCADE Topology V1, (c) Matra-Datavision
Locations 80
1
              1               0               0               0 
              0               1               0               0 
              0               0               1               0 
1
              1               0               0               0 
              0               1               0               0 
              0               0               1               0 
1
              1               0               0               0 
              0               1               0               0 
              0               0               1               0 
2  2 1 3 1 0
2  3 -1 2 -1 0
1
              1               0               0               0 
              0               1               0               0 
              0               0               1               0 
2  2 1 6 1 0
1
              1               0               0               0 
              0               1               0               0 
              0               0               1               0 
2  2 1 8 1 0
1
              1               0               0               0 
              0               1               0               0 
              0               0               1               0 
2  2 1 10 1 0
1
              1               0               0               0 
              0               1               0               0 
              0               0               1               0 
2  2 1 12 1 0
2  6 -1 2 -1 0
1
              1               0               0               0 
              0               1               0               0 
              0               0               1               0 
2  2 1 15 1 0
2  8 -1 0
1
              1               0               0               0 
              0               1               0               0 
              0               0               1               0 
2  2 1 18 1 0
1
              1               0               0               0 
              0               1               0               0 
              0               0               1               0 
2  2 1 20 1 0
1
              1               0               0               0 
              0               1               0               0 
              0               0               1               0 
2  2 1 22 1 0
1
              1               0               0               0 
              0               1               0               0 
              0               0               1               0 
2  2 1 24 1 0
1
              1               0               0               0 
              0               1               0               0 
              0               0               1               0 
2  2 1 26 1 0
1
              1               0               0               0 
              0               1               0               0 
              0               0               1               0 
2  2 1 28 1 0
1
              1               0               0               0 
              0               1               0               0 
              0               0               1               0 
2  2 1 30 1 0
1
              1               0               0               0 
              0               1               0               0 
              0               0               1               0 
2  2 1 32 1 0
1
              1               0               0               0 
              0               1               0               0 
              0               0               1               0 
2  2 1 34 1 0
1
              1               0               0               0 
              0               1               0               0 
              0               0               1               0 
2  2 1 36 1 0
1
              1               0               0               0 
              0               1               0               0 
              0               0               1               0 
2  2 1 38 1 0
2  10 -1 2 -1 0
1
              1               0               0               0 
              0               1               0               0 
              0               0               1               0 
2  2 1 41 1 0
2  15 -1 2 -1 0
2  18 -1 0
2  20 -1 0
1
              1               0               0               0 
              0               1               0               0 
              0               0               1               0 
2  2 1 46 1 0
2  22 -1 2 -1 0
2  24 -1 2 -1 0
2  26 -1 2 -1 0
2  28 -1 2 -1 0
2  30 -1 2 -1 0
2  32 -1 2 -1 0
2  34 -1 2 -1 0
2  36 -1 2 -1 0
2  38 -1 2 -1 0
2  41 -1 2 -1 0
1
              1               0               0               0 
              0               1               0               0 
              0               0               1               0 
2  2 1 58 1 0
2  46 -1 2 -1 0
1
              1               0               0               0 
              0               1               0               0 
              0               0               1               0 
2  2 1 61 1 0
2  58 -1 0
2  61 -1 0
2  12 -1 0
1
              1               0               0               0 
              0 1.11022302462516e-16               1 0.999999999999998 
              0              -1 1.11022302462516e-16 8.59347433498381 
2  2 1 66 1 0
1
              1               0               0               0 
              0 1.11022302462516e-16               1 0.999999999999998 
              0              -1 1.11022302462516e-16 8.59347433498381 
2  2 1 68 1 0
1
              1               0               0               0 
              0 1.11022302462516e-16               1 0.999999999999998 
              0              -1 1.11022302462516e-16 8.59347433498381 
2  2 1 70 1 0
1
              1               0               0               0 
              0 1.11022302462516e-16               1 0.999999999999998 
              0              -1 1.11022302462516e-16 8.59347433498381 
2  2 1 72 1 0
2  66 -1 2 -1 0
1
              1               0               0               0 
              0 1.11022302462516e-16               1 0.999999999999998 
              0              -1 1.11022302462516e-16 8.59347433498381 
2  2 1 75 1 0
2  70 -1 0
2  72 -1 0
2  68 -1 2 -1 0
2  75 -1 2 -1 0
Curve2ds 136
1 -12.5 5.0000000000000027 -1 0 
1 -12.5 45 -1 0 
1 -25 5.0000000000000027 0 -1 
1 -20 -49 -1 -0 
1 -12.5 0 -1 0 
1 -12.5 45 -1 0 
1 25 5.0000000000000027 0 1 
1 20 -49 -1 0 
1 -24.999999999999993 30.291502622129194 1 6.9388939039072296e-17 
1 5.9218181832728751 -7.8886090522101181e-31 8.8817841970012528e-17 1 
1 -25 0 0 1 
1 -20 -4 -6.12303176911189e-17 -1 
1 25 0 0 1 
1 20 -4 6.12303176911189e-17 -1 
1 -25 -31.828427124746199 0.30290544652769924 0.95302061387141845 
1 -25 -31.828427124746199 0.30290544652769924 0.95302061387141845 
1 -24.816496580927726 -31.251076855556601 0.79754796939612094 0.60325553168796064 
1 -24.816496580927726 -31.251076855556601 0.79754796939612094 0.60325553168796064 
2 -25 -29 0 -1 1 0 2
1 6.2831853071795862 -8.784210180689836e-15 -1 -1.0629191862904999e-16 
2 -24.000000000000004 -26.171572875253801 -0.81649658092772515 -0.57735026918962706 -0.57735026918962706 0.81649658092772515 0.99999999999999944
1 0 -8.652233638561146e-15 1 -4.120167752340089e-17 
2 -24.000000000000004 -26.171572875253801 -0.81649658092772515 -0.57735026918962706 -0.57735026918962706 0.81649658092772515 0.99999999999999944
1 0 -8.9111114134073304e-15 1 -6.5090241105650454e-17 
1 -25 -4 -6.12303176911189e-17 -1 
1 -25 0 0 1 
1 -20 -9 -1 -0 
1 5.2032628325080967 -2.4999999999999996 -3.5527136788005011e-16 1 
1 -20 -4 -6.12303176911189e-17 -1 
1 -25 0 0 1 
2 -19 -23.708497377870799 -0.93541434669348522 -0.35355339059327406 0.35355339059327406 -0.93541434669348522 0.99999999999999967
1 6.283185307179588 -9.3531968613663729e-15 -1 6.7888562749466555e-17 
2 -19 -23.708497377870799 -0.93541434669348522 -0.35355339059327406 0.35355339059327406 -0.93541434669348522 0.99999999999999967
1 6.2831853071795862 -8.9266404413733849e-15 -1 5.9119308395034287e-17 
2 -25 -29 0 -1 -1 -0 7
1 0 -1.1045959859452438e-14 1 4.4452754900574949e-16 
2 -19 -34.291502622129194 -0.93541434669348522 0.35355339059327406 -0.35355339059327406 -0.93541434669348522 1.0000000000000009
1 6.2831853071795862 -9.3471634005855687e-15 -1 5.9119308395035323e-17 
2 -19 -34.291502622129194 -0.93541434669348522 0.35355339059327406 -0.35355339059327406 -0.93541434669348522 1.0000000000000009
1 6.2831853071795862 -8.9757058307072643e-15 -1 6.788856274946208e-17 
1 -25 -4 -6.12303176911189e-17 -1 
1 -25 0 0 1 
1 -24.999999999999993 27.828427124746199 -1 -6.9388939039072296e-17 
1 5.667705598509202 0 -8.8817841970012528e-17 -1 
1 25 0 0 1 
1 25 -4 6.12303176911189e-17 -1 
1 1.7763568394002505e-15 49.999999999999993 1 0 
2 19 -34.291502622129194 0.93541434669348522 0.35355339059327406 -0.35355339059327406 0.93541434669348522 1.0000000000000009
1 6.2831853071795862 24.999999999999993 0 1 
1 0 24.999999999999993 0 1 
2 -24 -31.828427124746199 -0.81649658092772681 0.57735026918962484 0.57735026918962484 0.81649658092772681 1.0000000000000009
1 1.7763568394002505e-15 -8.5822608121175202e-15 1 -6.5090241105650911e-17 
2 -24 -31.828427124746199 -0.81649658092772681 0.57735026918962484 0.57735026918962484 0.81649658092772681 1.0000000000000009
1 0 -8.991234858673322e-15 1 -4.1201677523398153e-17 
1 6.2831853071795853 49.999999999999993 -1 0 
2 25 -29 0 -1 -1 -0 2
1 3.4814295630439194 0 0 -1 
1 5.6677055985091869 0 0 -1 
1 5.9433483977254591 -3.1554436208840472e-30 0 1 
1 0.61547970867040291 -6.3108872417680944e-30 -3.552713678800501e-17 1 
1 6.2831853071795862 24.999999999999993 0 1 
1 0 24.999999999999993 0 1 
1 6.2831853071795862 49.999999999999993 -1 0 
2 24.000000000000004 -26.171572875253801 0.81649658092772515 -0.57735026918962706 -0.57735026918962706 -0.81649658092772515 0.99999999999999944
1 0.61547970867038859 0 1.9984014443252817e-17 1 
1 -24.999999999999993 22.171572875253801 1 6.9388939039072296e-17 
1 6.2831853071795898 49.999999999999993 -1 0 
2 24.000000000000004 -26.171572875253801 0.81649658092772515 -0.57735026918962706 -0.57735026918962706 -0.81649658092772515 0.99999999999999944
1 -12.5 5 1 0 
1 5.203262832508095 -12.5 0 1 
1 25 8.7752551286084 0 -1 
1 25.000000000000004 -12.7752551286084 8.4485341129147995e-17 1 
1 -24.999999999999993 19.708497377870799 -1 -6.9388939039072296e-17 
1 0.3613671239067105 0 5.551115123125783e-18 -1 
1 25 0 0 1 
1 20 -4 6.12303176911189e-17 -1 
1 -12.5 5 1 0 
1 5.203262832508095 -12.5 0 1 
1 0 49.999999999999993 1 0 
2 19 -23.708497377870799 0.93541434669348522 -0.35355339059327406 0.35355339059327406 0.93541434669348522 0.99999999999999967
1 0 24.999999999999993 0 1 
1 6.2831853071795862 24.999999999999993 0 1 
1 1.7763568394002505e-15 49.999999999999993 1 0 
2 19 -23.708497377870799 0.93541434669348522 -0.35355339059327406 0.35355339059327406 0.93541434669348522 0.99999999999999967
1 5.9218181832728396 6.3108872417680944e-30 0 1 
1 3.9896547325712777 1.5777218104420236e-30 0 1 
1 5.4351232281981012 0 0 -1 
1 0.36136712390674108 0 -6.661338147750939e-17 -1 
1 -4.4408920985006262e-16 49.999999999999993 1 0 
2 25 -29 0 -1 1 0 7
1 0 49.999999999999993 1 0 
2 19 -34.291502622129194 0.93541434669348522 0.35355339059327406 -0.35355339059327406 0.93541434669348522 1.0000000000000009
1 6.2831853071795862 24.999999999999993 0 1 
1 0 24.999999999999993 0 1 
1 6.2831853071795862 49.999999999999993 -1 0 
2 24 -31.828427124746199 0.81649658092772681 0.57735026918962484 0.57735026918962484 -0.81649658092772681 1.0000000000000009
1 6.2831853071795898 49.999999999999993 -1 0 
2 24 -31.828427124746199 0.81649658092772681 0.57735026918962484 0.57735026918962484 -0.81649658092772681 1.0000000000000009
1 24.816496580927726 -31.251076855556601 0.30290544652769924 -0.95302061387141845 
1 24.816496580927726 -31.251076855556601 0.30290544652769924 -0.95302061387141845 
1 24.333333333333336 -30.885618083164101 0.79754796939612094 -0.60325553168796064 
1 24.333333333333336 -30.885618083164101 0.79754796939612094 -0.60325553168796064 
1 25 -9 -1 0 
8 0 5
1 5.203262832508095 2.5000000000000004 3.5527136788005011e-16 -1 
1 5.203262832508095 25 -1 0 
1 5.203262832508095 2.5000000000000004 -1 -1.1102230246251565e-16 
1 -5.203262832508095 25 0 -1 
1 50 10 -1 0 
1 -5.203262832508095 -25 1 0 
8 0 10.40652566501619
1 -5.203262832508095 2.4999999999999991 1 1.1102230246251565e-16 
1 5.203262832508095 25 -1 0 
8 0 10.40652566501619
1 5.2032628325080967 -2.4999999999999996 -1 -8.5348217867364804e-17 
1 -5.203262832508095 25 0 -1 
1 50 10 -1 0 
1 -5.203262832508095 -25 1 0 
1 -5.2032628325080932 -2.5000000000000004 1 8.5348217867364804e-17 
1 -5.203262832508095 2.4999999999999991 3.5527136788005011e-16 -1 
1 15 1 0 -1 
1 -5.203262832508095 2.4999999999999991 3.5527136788005011e-16 -1 
8 0 5
1 -15 1 -0 -1 
1 0 50 0 -1 
1 25 1 -1 -0 
1 50 50 -1 0 
1 25 1 -1 0 
1 50 0 0 1 
1 25 1 -1 0 
1 12.5 -4 -1 0 
1 50 12.5 0 1 
1 -25 0 0 1 
1 25 0 0 1 
1 25 0 0 1 
1 -25 0 0 1 
1 -12.5 -4 -1 -0 
1 0 12.5 0 -1 
1 12.5 50 -1 0 
1 -12.5 -4 -1 0 
Curves 68
1 12.5 5 49 -1 0 0 
1 0 5 49 0 -1 0 
1 12.5 -2.75536429610035e-15 49 -1 0 0 
1 50 5 49 0 1 0 
1 6.5717221510352196e-15 5 34.291502622129194 1 -4.2487067816120801e-33 6.9388939039072296e-17 
1 0 5 4 0 -6.12303176911189e-17 1 
1 50 5 4 0 -6.12303176911189e-17 1 
1 0 -1.7039434336923599e-15 31.828427124746199 -5.7269471244661946e-15 0.30290544652769918 -0.95302061387141834 
1 -3.4694469519536099e-15 0.18350341907227202 31.251076855556601 2.4053177922755314e-15 0.79754796939612094 -0.60325553168796064 
2 -2.0122792321330998e-15 -1.7347234759768102e-15 29 -1 0 0 0 0 1 0 1 0 2
2 -1.81601767479762e-15 0.99999999999999811 26.171572875253801 1 0 0 0 -0.81649658092772515 0.57735026918962706 0 -0.57735026918962706 -0.81649658092772515 1
2 -1.81601767479762e-15 0.99999999999999811 26.171572875253801 1 0 0 0 -0.81649658092772515 0.57735026918962706 0 -0.57735026918962706 -0.81649658092772515 1
1 0 0 4 0 -6.12303176911189e-17 1 
1 0 5 9 0 -1 0 
1 0 5 4 0 -6.12303176911189e-17 1 
2 -1.64510747926108e-15 6 23.708497377870799 -1 0 0 0 -0.93541434669348522 0.35355339059327406 0 0.35355339059327406 0.93541434669348522 1
2 -1.64510747926108e-15 6 23.708497377870799 -1 0 0 0 -0.93541434669348522 0.35355339059327406 0 0.35355339059327406 0.93541434669348522 1
2 -2.0122792321330998e-15 -1.7347234759768102e-15 29 1 0 -0 0 0 1 0 -1 0 7
2 -2.3794509850051101e-15 6 34.291502622129194 -1 -0 0 0 -0.93541434669348522 -0.35355339059327406 0 -0.35355339059327406 0.93541434669348522 1
2 -2.3794509850051101e-15 6 34.291502622129194 -1 -0 0 0 -0.93541434669348522 -0.35355339059327406 0 -0.35355339059327406 0.93541434669348522 1
1 0 0 4 0 -6.12303176911189e-17 1 
1 6.7426323465717604e-15 -1.7347234759768102e-15 31.828427124746199 -1 4.2487067816120801e-33 -6.9388939039072296e-17 
1 50 0 4 0 -6.12303176911189e-17 1 
2 50 6 34.291502622129194 1 0 0 0 -0.93541434669348522 -0.35355339059327406 0 0.35355339059327406 -0.93541434669348522 1
1 25 5.0645856533065103 33.937949231535896 1 0 6.9388939039072296e-17 
2 -2.2085407894685701e-15 0.99999999999999889 31.828427124746199 1 0 0 0 -0.81649658092772681 -0.57735026918962484 0 0.57735026918962484 -0.81649658092772681 1
2 -2.2085407894685701e-15 0.99999999999999889 31.828427124746199 1 0 0 0 -0.81649658092772681 -0.57735026918962484 0 0.57735026918962484 -0.81649658092772681 1
2 50 -1.7347234759768102e-15 29 -1 0 0 0 0 1 0 1 0 2
1 7.0697349421308802e-15 0.66666666666666496 27.114381916835899 -1 -0 -6.9388939039072296e-17 
1 6.8080528656835805e-15 0.66666666666666596 30.885618083164101 1 0 6.9388939039072296e-17 
1 25 0.18350341907227302 26.748923144443399 1 0 6.9388939039072296e-17 
2 50 0.99999999999999811 26.171572875253801 -1 0 0 0 -0.81649658092772515 0.57735026918962706 0 0.57735026918962706 0.81649658092772515 1
1 7.1351554612427003e-15 -1.3010426069826099e-15 26.171572875253801 1 -4.2487067816120801e-33 6.9388939039072296e-17 
2 50 0.99999999999999811 26.171572875253801 -1 0 0 0 -0.81649658092772515 0.57735026918962706 0 0.57735026918962706 0.81649658092772515 1
1 12.5 -3.0615158845559402e-16 9 1 0 0 
1 50 -3.4694469519536099e-15 12.7752551286084 0 -8.4485341129147995e-17 -1 
1 7.3060656567792395e-15 5 23.708497377870799 -1 4.2487067816120801e-33 -6.9388939039072296e-17 
1 50 5 4 0 -6.12303176911189e-17 1 
1 12.5 5 9 1 0 0 
2 50 6 23.708497377870799 1 0 0 0 -0.93541434669348522 0.35355339059327406 0 -0.35355339059327406 -0.93541434669348522 1
1 25 5.0645856533065103 24.062050768464101 1 0 6.9388939039072296e-17 
2 50 6 23.708497377870799 1 0 0 0 -0.93541434669348522 0.35355339059327406 0 -0.35355339059327406 -0.93541434669348522 1
1 7.2601691876702397e-15 5.25 24.369935205636999 1 0 6.9388939039072296e-17 
1 6.6176186201442202e-15 5.25 33.630064794363001 -1 -0 -6.9388939039072296e-17 
2 50 -1.7347234759768102e-15 29 1 0 -0 0 0 1 0 -1 0 7
2 50 6 34.291502622129194 1 0 0 0 -0.93541434669348522 -0.35355339059327406 0 0.35355339059327406 -0.93541434669348522 1
1 25 0.18350341907227202 31.251076855556601 1 0 6.9388939039072296e-17 
2 50 0.99999999999999889 31.828427124746199 -1 -0 0 0 -0.81649658092772681 -0.57735026918962484 0 -0.57735026918962484 0.81649658092772681 1
2 50 0.99999999999999889 31.828427124746199 -1 -0 0 0 -0.81649658092772681 -0.57735026918962484 0 -0.57735026918962484 0.81649658092772681 1
1 50 0.18350341907227202 31.251076855556601 0 -0.30290544652769918 0.95302061387141834 
1 50 0.66666666666666596 30.885618083164101 0 -0.79754796939612094 0.60325553168796064 
1 50 -3.0615158845559402e-16 9 0 1 0 
1 50 0 9 0 1.1102230246251565e-16 -1 
1 50 1.1553564399653593e-15 -1.4065256650161899 -1 0 0 
1 0 1.1553564399653593e-15 -1.4065256650161899 0 -1.1102230246251565e-16 1 
1 50 5 9.0000000000000018 0 8.5348217867364804e-17 -1 
1 50 5.0000000000000009 -1.4065256650161881 -1 0 0 
1 0 5.0000000000000009 -1.4065256650161881 0 -8.5348217867364804e-17 1 
1 50 1.1553564399653593e-15 -1.4065256650161899 0 1 3.5527136788005011e-16 
1 0 1.1553564399653593e-15 -1.4065256650161899 0 1 3.5527136788005011e-16 
1 0 3.1086244689504383e-15 -41.40652566501619 0 -1.1102230246251565e-16 1 
1 50 3.1086244689504383e-15 -41.40652566501619 -1 0 0 
1 50 -2.4424906541753444e-15 8.5934743349838101 0 1.1102230246251565e-16 -1 
1 50 4.9999999999999991 -3.9065256650161899 0 1.1102230246251565e-16 -1 
1 50 1.0000000000000031 -41.40652566501619 -0 -1 -1.1102230246251565e-16 
1 0 1.0000000000000031 -41.40652566501619 -0 -1 -1.1102230246251565e-16 
1 0 4.9999999999999991 -3.9065256650161899 0 -1.1102230246251565e-16 1 
1 12.5 5.0000000000000027 -41.40652566501619 -1 0 0 
Polygon3D 0
PolygonOnTriangulations 0
Surfaces 24
1 25 -2.75536429610035e-15 49 0 -6.12303176911189e-17 1 1 0 0 -0 1 6.12303176911189e-17 
1 25 5 4 0 -1 -6.12303176911189e-17 1 0 0 0 -6.12303176911189e-17 1 
1 0 25 0 -1 0 0 0 1 -0 -0 0 -1 
1 25 0 4 0 -1 -6.12303176911189e-17 1 0 0 0 -6.12303176911189e-17 1 
1 50 25 0 1 0 0 0 -1 0 0 0 -1 
2 6.5717221510352196e-15 6 34.291502622129194 1 2.9387358770557201e-33 6.9388939039072296e-17 2.4532694666934014e-17 -0.93541434669348522 -0.35355339059327406 6.4907409078987885e-17 0.35355339059327406 -0.93541434669348522 1
2 6.93889390390723e-15 -1.7347234759768102e-15 29 1 0 6.9388939039072296e-17 -6.9388939039072296e-17 0 1 0 -1 0 2
2 7.1351554612427003e-15 0.99999999999999811 26.171572875253801 1 0 6.9388939039072296e-17 -4.0061722632991011e-17 -0.81649658092772515 0.57735026918962706 5.6655831479604885e-17 -0.57735026918962706 -0.81649658092772515 1
2 7.1351554612427003e-15 0.99999999999999811 26.171572875253801 1 0 6.9388939039072296e-17 -4.0061722632991011e-17 -0.81649658092772515 0.57735026918962706 5.6655831479604885e-17 -0.57735026918962706 -0.81649658092772515 1
1 25 0 4 0 -1 -6.12303176911189e-17 1 0 0 0 -6.12303176911189e-17 1 
1 0 2.5000000000000004 3.7967371674919055 1 0 0 -0 0 1 0 -1 0 
1 25 5 4 0 -1 -6.12303176911189e-17 1 0 0 0 -6.12303176911189e-17 1 
2 7.3060656567792395e-15 6 23.708497377870799 1 2.9387358770557201e-33 6.9388939039072296e-17 -2.4532694666934008e-17 -0.93541434669348522 0.35355339059327406 6.4907409078987885e-17 -0.35355339059327406 -0.93541434669348522 1
2 7.3060656567792395e-15 6 23.708497377870799 1 2.9387358770557201e-33 6.9388939039072296e-17 -2.4532694666934008e-17 -0.93541434669348522 0.35355339059327406 6.4907409078987885e-17 -0.35355339059327406 -0.93541434669348522 1
2 6.93889390390723e-15 -1.7347234759768102e-15 29 1 0 6.9388939039072296e-17 -6.9388939039072296e-17 0 1 0 -1 0 7
2 6.5717221510352196e-15 6 34.291502622129194 1 2.9387358770557201e-33 6.9388939039072296e-17 2.4532694666934014e-17 -0.93541434669348522 -0.35355339059327406 6.4907409078987885e-17 0.35355339059327406 -0.93541434669348522 1
2 6.7426323465717604e-15 0.99999999999999889 31.828427124746199 1 0 6.9388939039072296e-17 4.0061722632990857e-17 -0.81649658092772681 -0.57735026918962484 5.6655831479604996e-17 0.57735026918962484 -0.81649658092772681 1
2 6.7426323465717604e-15 0.99999999999999889 31.828427124746199 1 0 6.9388939039072296e-17 4.0061722632990857e-17 -0.81649658092772681 -0.57735026918962484 5.6655831479604996e-17 0.57735026918962484 -0.81649658092772681 1
1 25 5.7767821998267965e-16 3.796737167491905 0 1 0 0 -0 1 1 0 -0 
1 25 5 3.7967371674919068 0 1 0 0 -0 1 1 0 -0 
1 50 2.5000000000000004 3.7967371674919055 1 0 0 -0 0 1 0 -1 0 
1 0 0 -1 0 0 1 1 0 -0 -0 1 0 
1 0 0 4 0 0 1 1 0 -0 -0 1 0 
1 25 50 0 0 1 0 1 -0 0 0 0 -1 
Triangulations 0

TShapes 170
Ve
1e-07
50 5 49
0 0

0101101
*
Ve
1e-07
0 5 49
0 0

0101101
*
Ed
 1e-07 1 1 0
1  1 0 -37.5 12.5
2  1 1 4 -37.5 12.5
2  2 2 7 -37.5 12.5
4 C0 1 4 2 7
0

0101000
+170 0 -169 0 *
Ve
1e-07
0 -2.75536429610035e-15 49
0 0

0101101
*
Ed
 1e-07 1 1 0
1  2 0 0 5
2  3 1 4 0 5
2  4 3 9 0 5
4 C0 1 4 3 9
0

0101000
+169 0 -167 0 *
Ve
1e-07
50 -2.75536429610035e-15 49
0 0

0101101
*
Ed
 1e-07 1 1 0
1  3 0 -37.5 12.5
2  5 1 4 -37.5 12.5
2  6 4 11 -37.5 12.5
4 C0 1 4 4 11
0

0101000
+165 0 -167 0 *
Ed
 1e-07 1 1 0
1  4 0 -5 0
2  7 1 4 -5 0
2  8 5 13 -5 0
4 C0 1 4 5 13
0

0101000
+165 0 -170 0 *
Wi

0101100
+168 5 +166 5 -164 5 +163 5 *
Fa
0  1e-07 1 0

0101000
+162 0 *
Ve
1e-07
0 5 34.2915026221292
0 0

0101101
*
Ve
1e-07
50 5 34.2915026221292
0 0

0101101
*
Ed
 1e-07 1 1 0
1  5 0 -6.57172215103522e-15 50
2  9 2 7 -6.57172215103522e-15 50
2  10 6 16 -6.57172215103522e-15 50
4 C1 2 7 6 16
0

0101000
+160 0 -159 0 *
Ed
 1e-07 1 1 0
1  6 0 30.2915026221292 45
2  11 2 7 30.2915026221292 45
2  12 3 9 30.2915026221292 45
4 C0 2 7 3 9
0

0101000
+160 0 -169 0 *
Ed
 1e-07 1 1 0
1  7 0 30.2915026221292 45
2  13 2 7 30.2915026221292 45
2  14 5 13 30.2915026221292 45
4 C0 2 7 5 13
0

0101000
+159 0 -170 0 *
Wi

0101100
-158 14 +157 14 -168 14 -156 14 *
Fa
0  1e-07 2 0

0101000
-155 0 *
Ve
1.00000003180326e-07
0 -1.70394343369236e-15 31.8284271247462
0 0

0101101
*
Ve
1.00000003348016e-07
-3.46944695195361e-15 0.183503419072272 31.2510768555566
0 0

0101101
*
Ed
 1e-07 1 1 0
1  8 0 0 0.605810893055346
2  15 3 9 0 0.605810893055346
2  16 3 19 0 0.605810893055346
4 CN 3 9 3 19
0

0101000
+153 0 -152 0 *
Ve
1.00000003348016e-07
-2.0122792321331e-15 0.666666666666666 30.8856180831641
0 0

0101101
*
Ed
 1e-07 1 1 0
1  9 0 0 0.605810893055411
2  17 3 9 0 0.605810893055411
2  18 3 21 0 0.605810893055411
4 CN 3 9 3 21
0

0101000
+152 0 -150 0 *
Ve
1e-07
-2.0122792321331e-15 0.666666666666665 27.1143819168359
0 0

0101101
*
Ed
 1e-07 1 1 0
1  10 0 0.339836909454127 2.80175574413567
2  19 3 9 0.339836909454127 2.80175574413567
2  20 7 23 0.339836909454127 2.80175574413567
4 C0 3 9 7 23
0

0101000
+150 0 -148 0 *
Ve
1e-07
-3.46944695195361e-15 0.183503419072271 26.7489231444434
0 0

0101101
*
Ed
 1e-07 1 1 0
1  11 0 5.66770559850919 6.28318530717959
2  21 3 9 5.66770559850919 6.28318530717959
2  22 8 25 5.66770559850919 6.28318530717959
4 C0 3 9 8 25
0

0101000
+148 0 -146 0 *
Ve
1e-07
0 -1.35757245086358e-15 26.1715728752538
0 0

0101101
*
Ed
 1e-07 1 1 0
1  12 0 0 0.615479708670389
2  23 3 9 0 0.615479708670389
2  24 9 27 0 0.615479708670389
4 C0 3 9 9 27
0

0101000
+146 0 -144 0 *
Ve
1.00000000153076e-07
0 -1.53075780992907e-16 9
0 0

0101101
*
Ed
 1e-07 1 1 0
1  13 0 5 22.1715728752538
2  25 3 9 5 22.1715728752538
2  26 10 29 5 22.1715728752538
4 C0 3 9 10 29
0

0101000
+142 0 -144 0 *
Ve
1.00000001332268e-07
0 5 9
0 0

0101101
*
Ed
 1e-07 1 1 0
1  14 0 0 5
2  27 3 9 0 5
2  28 11 0 0 5
4 CN 3 9 11 0
0

0101000
+140 0 -142 0 *
Ve
1e-07
0 5 23.7084973778708
0 0

0101101
*
Ed
 1e-07 1 1 0
1  15 0 5 19.7084973778708
2  29 3 9 5 19.7084973778708
2  30 12 31 5 19.7084973778708
4 C0 3 9 12 31
0

0101000
+140 0 -138 0 *
Ve
1e-07
0 5.06458565330651 24.0620507684641
0 0

0101101
*
Ed
 1e-07 1 1 0
1  16 0 5.92181818327288 6.28318530717959
2  31 3 9 5.92181818327288 6.28318530717959
2  32 13 33 5.92181818327288 6.28318530717959
4 C0 3 9 13 33
0

0101000
+138 0 -136 0 *
Ve
1e-07
-2.0122792321331e-15 5.25 24.369935205637
0 0

0101101
*
Ed
 1e-07 1 1 0
1  17 0 0 0.361367123906747
2  33 3 9 0 0.361367123906747
2  34 14 35 0 0.361367123906747
4 C0 3 9 14 35
0

0101000
+136 0 -134 0 *
Ve
1e-07
-2.0122792321331e-15 5.25 33.630064794363
0 0

0101101
*
Ed
 1e-07 1 1 0
1  18 0 3.98965473257128 5.4351232281981
2  35 3 9 3.98965473257128 5.4351232281981
2  36 15 37 3.98965473257128 5.4351232281981
4 C0 3 9 15 37
0

0101000
+134 0 -132 0 *
Ve
1e-07
-3.46944695195361e-15 5.06458565330651 33.9379492315359
0 0

0101101
*
Ed
 1e-07 1 1 0
1  19 0 5.92181818327284 6.28318530717959
2  37 3 9 5.92181818327284 6.28318530717959
2  38 16 39 5.92181818327284 6.28318530717959
4 C0 3 9 16 39
0

0101000
+132 0 -130 0 *
Ed
 1e-07 1 1 0
1  20 0 0 0.361367123906708
2  39 3 9 0 0.361367123906708
2  40 6 16 0 0.361367123906708
4 C0 3 9 6 16
0

0101000
+130 0 -160 0 *
Ed
 1e-07 1 1 0
1  21 0 27.8284271247462 45
2  41 3 9 27.8284271247462 45
2  42 4 11 27.8284271247462 45
4 C0 3 9 4 11
0

0101000
+153 0 -167 0 *
Wi

0101100
-151 17 -149 17 -147 17 -145 17 -143 17 +141 17 +139 17 -137 17 -135 17 -133 17 
-131 17 -129 17 -128 17 -157 17 -166 17 +127 17 *
Fa
0  1e-07 3 2

0101000
+126 0 *
Ve
1e-07
50 -1.70394343369236e-15 31.8284271247462
0 0

0101101
*
Ed
 1e-07 1 1 0
1  22 0 -50 7.105427357601e-15
2  43 4 11 -50 7.105427357601e-15
2  44 17 42 -50 7.105427357601e-15
4 C1 4 11 17 42
0

0101000
+124 0 -153 0 *
Ed
 1e-07 1 1 0
1  23 0 27.8284271247462 45
2  45 4 11 27.8284271247462 45
2  46 5 13 27.8284271247462 45
4 C0 4 11 5 13
0

0101000
+124 0 -165 0 *
Wi

0101100
-123 40 +122 40 +164 40 -127 40 *
Fa
0  1e-07 4 0

0101000
+121 0 *
Ve
1e-07
50 5.06458565330651 33.9379492315359
0 0

0101101
*
Ed
 1e-07 1 1 0
1  24 0 5.92181818327288 6.28318530717959
2  47 6 16 5.92181818327288 6.28318530717959
2  48 5 13 5.92181818327288 6.28318530717959
4 C0 6 16 5 13
0

0101000
+159 0 -119 0 *
Ed
 1e-07 1 1 0
1  25 0 -25 25
2  49 6 16 -25 25
2  50 16 39 -25 25
4 CN 6 16 16 39
0

0101000
+130 0 -119 0 *
Wi

0101100
-118 43 -158 43 -128 43 +117 43 *
Fa
0  1e-07 6 0

0101000
+116 0 *
Ed
 1e-07 1 1 0
1  26 0 5.6677055985092 6.28318530717959
2  51 3 19 5.6677055985092 6.28318530717959
2  52 17 42 5.6677055985092 6.28318530717959
4 C0 3 19 17 42
0

0101000
+153 0 -152 0 *
Wi

0101100
-114 44 +151 44 *
Fa
0  1e-07 3 2

0101000
+113 0 *
Ed
 1e-07 1 1 0
1  27 0 0 0.615479708670401
2  53 3 21 0 0.615479708670401
2  54 18 47 0 0.615479708670401
4 C0 3 21 18 47
0

0101000
+152 0 -150 0 *
Wi

0101100
-111 45 +149 45 *
Fa
0  1e-07 3 2

0101000
+110 0 *
Ve
1e-07
50 0.666666666666666 30.8856180831641
0 0

0101101
*
Ve
1e-07
50 0.666666666666665 27.1143819168359
0 0

0101101
*
Ed
 1e-07 1 1 0
1  28 0 0.339836909454127 2.80175574413567
2  55 7 23 0.339836909454127 2.80175574413567
2  56 5 13 0.339836909454127 2.80175574413567
4 C0 7 23 5 13
0

0101000
+108 0 -107 0 *
Ed
 1e-07 1 1 0
1  29 0 -50 7.105427357601e-15
2  57 7 23 -50 7.105427357601e-15
2  58 8 25 -50 7.105427357601e-15
4 G1 7 23 8 25
0

0101000
+107 0 -148 0 *
Ed
 1e-07 1 1 0
1  30 0 -8.82033209781668e-15 50
2  59 7 23 -8.82033209781668e-15 50
2  60 18 47 -8.82033209781668e-15 50
4 G1 7 23 18 47
0

0101000
+150 0 -108 0 *
Wi

0101100
+106 48 +105 48 -147 48 +104 48 *
Fa
0  1e-07 7 0

0101000
+103 0 *
Ve
1e-07
50 0.183503419072272 26.7489231444434
0 0

0101101
*
Ed
 1e-07 1 1 0
1  31 0 -25 25
2  61 8 25 -25 25
2  62 9 27 -25 25
4 CN 8 25 9 27
0

0101000
+146 0 -101 0 *
Ed
 1e-07 1 1 0
1  32 0 0 0.615479708670398
2  63 8 25 0 0.615479708670398
2  64 5 13 0 0.615479708670398
4 C0 8 25 5 13
0

0101000
+101 0 -107 0 *
Wi

0101100
+100 49 +99 49 +105 49 +145 49 *
Fa
0  1e-07 8 0

0101000
+98 0 *
Ve
1e-07
50 -2.33765447725382e-15 26.1715728752538
0 0

0101101
*
Ed
 1e-07 1 1 0
1  33 0 -7.1351554612427e-15 50
2  65 9 27 -7.1351554612427e-15 50
2  66 10 29 -7.1351554612427e-15 50
4 C1 9 27 10 29
0

0101000
+144 0 -96 0 *
Ed
 1e-07 1 1 0
1  34 0 5.6677055985092 6.28318530717959
2  67 9 27 5.6677055985092 6.28318530717959
2  68 5 13 5.6677055985092 6.28318530717959
4 C0 9 27 5 13
0

0101000
+96 0 -101 0 *
Wi

0101100
-100 50 +143 50 +95 50 +94 50 *
Fa
0  1e-07 9 0

0101000
+93 0 *
Ve
1.00000000153076e-07
50 -1.53075780992907e-16 9
0 0

0101101
*
Ed
 1e-07 1 1 0
1  35 0 -12.5 37.5
2  69 10 29 -12.5 37.5
2  70 19 0 -12.5 37.5
4 G2 10 29 19 0
0

0101000
+142 0 -91 0 *
Ed
 1e-07 1 1 0
1  36 0 -13.3963177466454 3.7752551286084
2  71 10 29 -13.3963177466454 3.7752551286084
2  72 5 13 -13.3963177466454 3.7752551286084
4 C0 10 29 5 13
0

0101000
+96 0 -91 0 *
Wi

0101100
-95 51 -141 51 +90 51 -89 51 *
Fa
0  1e-07 10 0

0101000
+88 0 *
Ve
1e-07
50 5 23.7084973778708
0 0

0101101
*
Ed
 1e-07 1 1 0
1  37 0 -50 7.105427357601e-15
2  73 12 31 -50 7.105427357601e-15
2  74 13 33 -50 7.105427357601e-15
4 C1 12 31 13 33
0

0101000
+86 0 -138 0 *
Ve
1.00000001332268e-07
50 5 9
0 0

0101101
*
Ed
 1e-07 1 1 0
1  38 0 5 19.7084973778708
2  75 12 31 5 19.7084973778708
2  76 5 13 5 19.7084973778708
4 C0 12 31 5 13
0

0101000
+84 0 -86 0 *
Ed
 1e-07 1 1 0
1  39 0 -12.5 37.5
2  77 12 31 -12.5 37.5
2  78 20 0 -12.5 37.5
4 G2 12 31 20 0
0

0101000
+140 0 -84 0 *
Wi

0101100
-85 52 -83 52 -82 52 +137 52 *
Fa
0  1e-07 12 0

0101000
-81 0 *
Ve
1e-07
50 5.06458565330651 24.0620507684641
0 0

0101101
*
Ed
 1e-07 1 1 0
1  40 0 0 0.361367123906708
2  79 13 33 0 0.361367123906708
2  80 5 13 0 0.361367123906708
4 C0 13 33 5 13
0

0101000
+79 0 -86 0 *
Ed
 1e-07 1 1 0
1  41 0 -25 25
2  81 13 33 -25 25
2  82 14 35 -25 25
4 CN 13 33 14 35
0

0101000
+136 0 -79 0 *
Wi

0101100
-135 53 -85 53 -78 53 -77 53 *
Fa
0  1e-07 13 0

0101000
+76 0 *
Ve
1e-07
50 5.25 24.369935205637
0 0

0101101
*
Ed
 1e-07 1 1 0
1  42 0 5.92181818327284 6.28318530717959
2  83 14 35 5.92181818327284 6.28318530717959
2  84 5 13 5.92181818327284 6.28318530717959
4 C0 14 35 5 13
0

0101000
+74 0 -79 0 *
Ed
 1e-07 1 1 0
1  43 0 -9.27244841980334e-15 50
2  85 14 35 -9.27244841980334e-15 50
2  86 15 37 -9.27244841980334e-15 50
4 G1 14 35 15 37
0

0101000
+134 0 -74 0 *
Wi

0101100
-73 54 -72 54 -133 54 +77 54 *
Fa
0  1e-07 14 0

0101000
+71 0 *
Ve
1e-07
50 5.25 33.630064794363
0 0

0101101
*
Ed
 1e-07 1 1 0
1  44 0 -50 7.105427357601e-15
2  87 15 37 -50 7.105427357601e-15
2  88 16 39 -50 7.105427357601e-15
4 G1 15 37 16 39
0

0101000
+69 0 -132 0 *
Ed
 1e-07 1 1 0
1  45 0 3.98965473257128 5.4351232281981
2  89 15 37 3.98965473257128 5.4351232281981
2  90 5 13 3.98965473257128 5.4351232281981
4 C0 15 37 5 13
0

0101000
+74 0 -69 0 *
Wi

0101100
-72 55 +131 55 -68 55 -67 55 *
Fa
0  1e-07 15 0

0101000
+66 0 *
Ed
 1e-07 1 1 0
1  46 0 0 0.361367123906741
2  91 16 39 0 0.361367123906741
2  92 5 13 0 0.361367123906741
4 C0 16 39 5 13
0

0101000
+119 0 -69 0 *
Wi

0101100
-129 56 -68 56 -64 56 -117 56 *
Fa
0  1e-07 16 0

0101000
+63 0 *
Ve
1e-07
50 0.183503419072272 31.2510768555566
0 0

0101101
*
Ed
 1e-07 1 1 0
1  47 0 -25 25
2  93 17 42 -25 25
2  94 18 47 -25 25
4 CN 17 42 18 47
0

0101000
+152 0 -61 0 *
Ed
 1e-07 1 1 0
1  48 0 0 0.615479708670386
2  95 17 42 0 0.615479708670386
2  96 5 59 0 0.615479708670386
4 C0 17 42 5 59
0

0101000
+61 0 -124 0 *
Wi

0101100
+60 57 +59 57 +123 57 +114 57 *
Fa
0  1e-07 17 0

0101000
+58 0 *
Ed
 1e-07 1 1 0
1  49 0 5.66770559850919 6.28318530717959
2  97 18 47 5.66770559850919 6.28318530717959
2  98 5 62 5.66770559850919 6.28318530717959
4 C0 18 47 5 62
0

0101000
+108 0 -61 0 *
Wi

0101100
-60 60 +111 60 +104 60 +56 60 *
Fa
0  1e-07 18 0

0101000
+55 0 *
Ed
 1e-07 1 1 0
1  50 0 0 0.605810893055346
2  99 5 59 0 0.605810893055346
2  100 5 13 0 0.605810893055346
4 CN 5 59 5 13
0

0101000
+61 0 -124 0 *
Wi

0101100
-59 63 +53 63 *
Fa
0  1e-07 5 2

0101000
+52 0 *
Ed
 1e-07 1 1 0
1  51 0 0 0.605810893055411
2  101 5 62 0 0.605810893055411
2  102 5 13 0 0.605810893055411
4 CN 5 62 5 13
0

0101000
+108 0 -61 0 *
Wi

0101100
-56 64 +50 64 *
Fa
0  1e-07 5 2

0101000
+49 0 *
Ed
 1e-07 1 1 0
1  52 0 0 5
2  103 5 13 0 5
2  104 21 0 0 5
4 G2 5 13 21 0
0

0101000
+91 0 -84 0 *
Wi

0101100
-50 65 -53 65 -122 65 -163 65 +156 65 -118 65 -64 65 +67 65 -73 65 -78 65 
+83 65 +47 65 +89 65 -94 65 -99 65 +106 65 *
Fa
0  1e-07 5 2

0101000
+46 0 *
Ve
1.00000001243812e-07
50 -8.8455583032421e-17 -1.40652566501619
0 0

0101101
*
Ed
 1e-07 1 1 0
1  53 0 0 10.4065256650162
2  105 19 0 0 10.4065256650162
2  106 21 0 0 10.4065256650162
4 C0 19 0 21 0
0

0101000
+91 0 -44 0 *
Ve
1.00000001243812e-07
0 -8.84555800826279e-17 -1.40652566501619
0 0

0101101
*
Ed
 1e-07 1 1 0
1  54 0 0 50
2  107 19 0 0 50
2  108 22 67 0 50
4 G2 19 0 22 67
0

0101000
+44 0 -42 0 *
Ed
 1e-07 1 1 0
1  55 0 0 10.4065256650162
2  109 19 0 0 10.4065256650162
2  110 11 0 0 10.4065256650162
4 C0 19 0 11 0
0

0101000
+42 0 -142 0 *
Wi

0101100
+43 0 +41 0 +40 0 +90 0 *
Fa
0  1e-07 19 0

0101000
+39 0 *
Ve
1.00000001793607e-07
50 5 -1.40652566501619
0 0

0101101
*
Ed
 1e-07 1 1 0
1  56 0 0 10.4065256650162
2  111 20 0 0 10.4065256650162
2  112 21 0 0 10.4065256650162
4 C0 20 0 21 0
0

0101000
+84 0 -37 0 *
Ve
1.00000001793607e-07
0 5 -1.40652566501619
0 0

0101101
*
Ed
 1e-07 1 1 0
1  57 0 0 50
2  113 20 0 0 50
2  114 23 69 0 50
4 G2 20 0 23 69
0

0101000
+37 0 -35 0 *
Ed
 1e-07 1 1 0
1  58 0 0 10.4065256650162
2  115 20 0 0 10.4065256650162
2  116 11 0 0 10.4065256650162
4 C0 20 0 11 0
0

0101000
+35 0 -140 0 *
Wi

0101100
+36 0 +34 0 +33 0 +82 0 *
Fa
0  1e-07 20 0

0101000
+32 0 *
Ed
 1e-07 1 1 0
1  59 0 0 5
2  117 21 0 0 5
2  118 5 71 0 5
4 CN 21 0 5 71
0

0101000
+44 0 -37 0 *
Wi

0101100
+43 0 +30 0 -36 0 -47 0 *
Fa
0  1e-07 21 0

0101000
+29 0 *
Ed
 1e-07 1 1 0
1  60 0 0 5
2  119 11 0 0 5
2  120 3 73 0 5
4 G2 11 0 3 73
0

0101000
+42 0 -35 0 *
Wi

0101100
-40 0 +27 0 +33 0 +139 0 *
Fa
0  1e-07 11 0

0101000
+26 0 *
Ve
1e-07
0 3.10862446895044e-15 -41.4065256650162
0 0

0101101
*
Ed
 1e-07 1 1 0
1  61 0 0 40
2  121 22 67 0 40
2  122 3 73 0 40
4 C0 22 67 3 73
0

0101000
+24 0 -42 0 *
Ve
1e-07
50 3.10862446895044e-15 -41.4065256650162
0 0

0101101
*
Ed
 1e-07 1 1 0
1  62 0 0 50
2  123 22 67 0 50
2  124 24 76 0 50
4 C0 22 67 24 76
0

0101000
+22 0 -24 0 *
Ed
 1e-07 1 1 0
1  63 0 10 50
2  125 22 67 10 50
2  126 5 71 10 50
4 C0 22 67 5 71
0

0101000
+44 0 -22 0 *
Wi

0101100
+41 74 -23 74 -21 74 -20 74 *
Fa
0  1e-07 22 0

0101000
-19 0 *
Ve
1e-07
50 5 -41.4065256650162
0 0

0101101
*
Ed
 1e-07 1 1 0
1  64 0 -2.5 37.5
2  127 5 71 -2.5 37.5
2  128 23 69 -2.5 37.5
4 C0 5 71 23 69
0

0101000
+37 0 -17 0 *
Ed
 1e-07 1 1 0
1  65 0 -4 1
2  129 5 71 -4 1
2  130 24 76 -4 1
4 C0 5 71 24 76
0

0101000
+17 0 -22 0 *
Wi

0101100
-30 77 -16 77 -15 77 +20 77 *
Fa
0  1e-07 5 2

0101000
+14 0 *
Ve
1e-07
0 5 -41.4065256650162
0 0

0101101
*
Ed
 1e-07 1 1 0
1  66 0 -4 1
2  131 3 73 -4 1
2  132 24 76 -4 1
4 C0 3 73 24 76
0

0101000
+12 0 -24 0 *
Ed
 1e-07 1 1 0
1  67 0 -37.5 2.5
2  133 3 73 -37.5 2.5
2  134 23 69 -37.5 2.5
4 C0 3 73 23 69
0

0101000
+12 0 -35 0 *
Wi

0101100
+23 78 +11 78 -10 78 +27 78 *
Fa
0  1e-07 3 2

0101000
+9 0 *
Ed
 1e-07 1 1 0
1  68 0 -37.5 12.5
2  135 23 69 -37.5 12.5
2  136 24 76 -37.5 12.5
4 C0 23 69 24 76
0

0101000
+17 0 -12 0 *
Wi

0101100
+10 79 -34 79 +16 79 +7 79 *
Fa
0  1e-07 23 0

0101000
+6 0 *
Wi

0101100
+21 80 -11 80 -7 80 +15 80 *
Fa
0  1e-07 24 0

0101000
+4 0 *
Sh

0101100
+161 4 -154 7 +125 8 +120 11 -115 16 +112 18 +109 20 -102 23 +97 25 +92 27 
+87 29 -80 31 -75 33 -70 35 +65 37 -62 39 +57 42 +54 47 +51 58 +48 61 
+45 12 -38 0 +31 0 +28 0 -25 0 -18 67 +13 70 +8 72 +5 69 +3 76 
*
So

1100000
+2 0 *

+1 1  