
CASCADE Topology V1, (c) Matra-Datavision
Locations 34
1
              1               0               0               0 
              0               1               0               0 
              0               0               1               0 
1
              1               0               0               0 
              0               1               0               0 
              0               0               1               0 
1
              1               0               0               0 
              0               1               0               0 
              0               0               1               0 
1
              1               0               0               0 
              0               1               0               0 
              0               0               1               0 
2  2 1 3 1 4 1 0
2  4 -1 3 -1 2 -1 0
1
              1               0               0               0 
              0               1               0               0 
              0               0               1               0 
2  2 1 3 1 7 1 0
1
              1               0               0               0 
              0               1               0               0 
              0               0               1               0 
2  2 1 3 1 9 1 0
1
              1               0               0               0 
              0               1               0               0 
              0               0               1               0 
2  2 1 3 1 11 1 0
1
              1               0               0               0 
              0               1               0               0 
              0               0               1               0 
2  2 1 3 1 13 1 0
2  7 -1 3 -1 2 -1 0
2  2 1 3 1 0
2  9 -1 0
2  11 -1 3 -1 2 -1 0
2  13 -1 0
1
              1               0               0               0 
              0 1.11022302462516e-16              -1           10.45 
              0               1 1.11022302462516e-16 -164.383051330032 
2  2 1 3 1 20 1 0
1
              1               0               0               0 
              0 1.11022302462516e-16              -1           10.45 
              0               1 1.11022302462516e-16 -164.383051330032 
2  2 1 3 1 22 1 0
1
              1               0               0               0 
              0 1.11022302462516e-16              -1           10.45 
              0               1 1.11022302462516e-16 -164.383051330032 
2  2 1 3 1 24 1 0
1
              1               0               0               0 
              0 1.11022302462516e-16              -1           10.45 
              0               1 1.11022302462516e-16 -164.383051330032 
2  2 1 3 1 26 1 0
2  20 -1 3 -1 2 -1 0
1
              1               0               0               0 
              0 1.11022302462516e-16              -1           10.45 
              0               1 1.11022302462516e-16 -164.383051330032 
2  2 1 3 1 29 1 0
2  24 -1 0
2  26 -1 0
2  22 -1 3 -1 2 -1 0
2  29 -1 3 -1 2 -1 0
Curve2ds 56
1 -13.225000000000001 10 -1 0 
1 -69.219999999999999 -13.225000000000001 0 -1 
1 -48.775000000000006 10 0 -1 
1 79.219999999999999 40.760000000000005 0 -1 
1 -13.225000000000001 0 -1 0 
1 -69.219999999999999 -13.225000000000001 0 -1 
1 48.774999999999991 10 0 1 
1 40.760000000000005 79.219999999999999 1 -0 
1 0 48.774999999999991 -1 0 
1 40.760000000000005 10 0 1 
1 -10.000000000000014 -13.225000000000001 0 1 
1 10.40652566501619 -13.224999999999987 0 1 
1 0 -48.775000000000006 -1 0 
1 10 40.760000000000005 1 0 
1 20.000000000000014 30.760000000000005 0 1 
1 -10.40652566501619 5.0000000000000142 0 -1 
1 10 30.760000000000005 1 0 
1 0 -48.775000000000006 -1 0 
1 -10.000000000000014 -13.225000000000001 0 1 
1 10.40652566501619 -13.224999999999987 0 1 
1 0 48.774999999999991 -1 0 
1 30.760000000000005 10 0 1 
1 40.760000000000005 20.000000000000014 -1 0 
8 0 10
1 -10.40652566501619 -4.9999999999999858 -0 1 
1 10.40652566501619 48.775000000000006 -1 0 
1 -10.40652566501619 -4.9999999999999858 1 0 
1 -10.40652566501619 48.775000000000006 0 -1 
8 0 97.549999999999997
1 162 170.75999999999999 -1 -0 
1 -10.40652566501619 -48.774999999999991 1 0 
8 0 20.81305133003238
1 10.40652566501619 -4.9999999999999858 -1 -0 
1 10.40652566501619 48.775000000000006 -1 0 
8 0 20.81305133003238
1 -10.40652566501619 5.0000000000000142 1 -0 
1 -10.40652566501619 48.775000000000006 0 -1 
8 0 97.549999999999997
1 162 170.75999999999999 -1 -0 
1 -10.40652566501619 -48.774999999999991 1 0 
1 10.40652566501619 5.0000000000000142 -1 0 
1 10.40652566501619 -4.9999999999999858 0 1 
1 20.759999999999991 0 0 1 
1 10.40652566501619 -4.9999999999999858 0 1 
8 0 10
1 0 20.759999999999991 1 -0 
1 64.449999999999989 75 0 1 
1 0 -75 0 1 
1 162 75 0 -1 
1 -75 0 -1 0 
1 100 68.599999999999994 -1 0 
1 0 -99.999999999999972 0 -1 
1 -81.400000000000006 0 0 -1 
1 0 -37.999999999999986 1 0 
1 -75 10 -1 0 
1 162 75 0 -1 
1 0 -81.400000000000006 -1 0 
1 0 -135.54999999999998 1 0 
1 10 -75 0 1 
1 64.449999999999989 75 0 1 
1 100 68.599999999999994 -1 0 
1 -10 -99.999999999999972 0 -1 
Curves 28
1 54.550000000000004 97.010000000000005 -7.3400000000000096 -1 -0 -0 
1 19 97.010000000000005 -7.3400000000000096 0 -1 0 
1 54.550000000000004 87.010000000000005 -7.3400000000000096 -1 -0 -0 
1 116.55 97.010000000000005 -7.3400000000000096 0 1 0 
1 116.55 97.010000000000005 -76.560000000000002 0 0 1 
1 54.550000000000004 97.010000000000005 -66.559999999999988 1 0 0 
1 19 97.010000000000005 -76.560000000000002 0 0 1 
1 19 87.010000000000005 -66.559999999999988 0 1 0 
1 19 87.010000000000005 -76.560000000000002 0 0 1 
1 54.550000000000004 87.010000000000005 -66.559999999999988 1 0 0 
1 116.55 87.010000000000005 -76.560000000000002 0 0 1 
1 116.55 97.010000000000005 -66.559999999999988 0 -1 0 
1 116.55 97.009999999999991 -66.559999999999988 0 0 -1 
1 116.55 97.009999999999991 -87.373051330032368 -1 0 0 
1 19 97.009999999999991 -87.373051330032368 0 0 1 
1 116.55 87.009999999999991 -66.559999999999988 0 0 -1 
1 116.55 87.009999999999991 -87.373051330032368 -1 0 0 
1 19 87.009999999999991 -87.373051330032368 0 0 1 
1 116.55 97.009999999999991 -87.373051330032368 0 -1 0 
1 19 97.009999999999991 -87.373051330032368 0 -1 0 
1 19 97.009999999999991 -183.13305133003234 0 1.1102230246251565e-16 1 
1 116.55 97.009999999999991 -183.13305133003234 0 -1.1102230246251565e-16 -1 
1 54.550000000000004 97.009999999999991 -189.53305133003235 -1 0 0 
1 116.55 97.009999999999991 -189.53305133003235 0 1 -1.1102230246251565e-16 
1 116.55 87.009999999999991 -183.13305133003234 0 -1.1102230246251565e-16 -1 
1 19 97.009999999999991 -189.53305133003235 -0 1 -1.1102230246251565e-16 
1 19 87.009999999999991 -183.13305133003234 0 1.1102230246251565e-16 1 
1 54.550000000000004 87.009999999999991 -189.53305133003235 -1 0 0 
Polygon3D 0
PolygonOnTriangulations 0
Surfaces 12
1 67.775000000000006 87.010000000000005 -7.3400000000000096 0 -0 1 1 0 0 -0 1 0 
1 67.775000000000006 97.010000000000005 -76.560000000000002 0 -1 0 0 0 -1 1 0 0 
1 19 56.25 -86.560000000000002 -1 0 0 0 0 1 0 1 -0 
1 67.775000000000006 87.010000000000005 -76.560000000000002 0 -1 0 0 0 -1 1 0 0 
1 116.55 56.25 -86.560000000000002 1 0 0 -0 1 0 0 -0 1 
1 67.774999999999991 97.009999999999991 -76.966525665016178 0 1 0 0 -0 1 1 0 -0 
1 19 92.010000000000005 -76.966525665016178 -1 -0 -0 0 0 -1 0 -1 0 
1 67.774999999999991 87.009999999999977 -76.966525665016178 0 1 0 0 -0 1 1 0 -0 
1 116.55 92.010000000000005 -76.966525665016178 -1 -0 -0 0 0 -1 0 -1 0 
1 -45.449999999999996 -93.75 -86.560000000000002 0 0 1 1 0 -0 -0 1 0 
1 -45.449999999999996 -93.75 -76.560000000000002 0 0 1 1 0 -0 -0 1 0 
1 154.54999999999998 -25.149999999999999 -86.560000000000002 0 -1 0 0 0 -1 1 0 0 
Triangulations 0

TShapes 74
Ve
1e-07
116.55 97.01 -7.34000000000001
0 0

0101101
*
Ve
1e-07
19 97.01 -7.34000000000001
0 0

0101101
*
Ed
 1e-07 1 1 0
1  1 0 -62 35.55
2  1 1 5 -62 35.55
2  2 2 8 -62 35.55
4 C0 1 5 2 8
0

0101000
+74 0 -73 0 *
Ve
1e-07
19 87.01 -7.34000000000001
0 0

0101101
*
Ed
 1e-07 1 1 0
1  2 0 0 10
2  3 1 5 0 10
2  4 3 10 0 10
4 C0 1 5 3 10
0

0101000
+73 0 -71 0 *
Ve
1e-07
116.55 87.01 -7.34000000000001
0 0

0101101
*
Ed
 1e-07 1 1 0
1  3 0 -62 35.55
2  5 1 5 -62 35.55
2  6 4 12 -62 35.55
4 C0 1 5 4 12
0

0101000
+69 0 -71 0 *
Ed
 1e-07 1 1 0
1  4 0 -10 0
2  7 1 5 -10 0
2  8 5 14 -10 0
4 C0 1 5 5 14
0

0101000
+69 0 -74 0 *
Wi

0101100
+72 6 +70 6 -68 6 +67 6 *
Fa
0  1e-07 1 0

0101000
+66 0 *
Ve
1.00000007105427e-07
116.55 97.01 -66.56
0 0

0101101
*
Ed
 1e-07 1 1 0
1  5 0 10 69.22
2  9 2 8 10 69.22
2  10 5 14 10 69.22
4 C0 2 8 5 14
0

0101000
+64 0 -74 0 *
Ve
1.00000010658141e-07
19 97.01 -66.56
0 0

0101101
*
Ed
 1e-07 1 1 0
1  6 0 -35.55 62
2  11 2 8 -35.55 62
2  12 6 0 -35.55 62
4 G2 2 8 6 0
0

0101000
+62 0 -64 0 *
Ed
 1e-07 1 1 0
1  7 0 10 69.22
2  13 2 8 10 69.22
2  14 3 10 10 69.22
4 C0 2 8 3 10
0

0101000
+62 0 -73 0 *
Wi

0101100
-72 15 -63 15 -61 15 +60 15 *
Fa
0  1e-07 2 0

0101000
-59 0 *
Ve
1.00000010658141e-07
19 87.01 -66.56
0 0

0101101
*
Ed
 1e-07 1 1 0
1  8 0 0 10
2  15 3 10 0 10
2  16 7 0 0 10
4 G2 3 10 7 0
0

0101000
+57 0 -62 0 *
Ed
 1e-07 1 1 0
1  9 0 10 69.22
2  17 3 10 10 69.22
2  18 4 12 10 69.22
4 C0 3 10 4 12
0

0101000
+57 0 -71 0 *
Wi

0101100
-56 17 -60 17 -70 17 +55 17 *
Fa
0  1e-07 3 16

0101000
+54 0 *
Ve
1.00000010658141e-07
116.55 87.01 -66.56
0 0

0101101
*
Ed
 1e-07 1 1 0
1  10 0 -35.55 62
2  19 4 12 -35.55 62
2  20 8 0 -35.55 62
4 G2 4 12 8 0
0

0101000
+57 0 -52 0 *
Ed
 1e-07 1 1 0
1  11 0 10 69.22
2  21 4 12 10 69.22
2  22 5 14 10 69.22
4 C0 4 12 5 14
0

0101000
+52 0 -69 0 *
Wi

0101100
+68 18 -55 18 +51 18 +50 18 *
Fa
0  1e-07 4 0

0101000
+49 0 *
Ed
 1e-07 1 1 0
1  12 0 0 10
2  23 5 14 0 10
2  24 9 0 0 10
4 CN 5 14 9 0
0

0101000
+64 0 -52 0 *
Wi

0101100
-50 19 -67 19 +63 19 -47 19 *
Fa
0  1e-07 5 16

0101000
+46 0 *
Ve
1.00000010658141e-07
116.55 97.01 -87.3730513300324
0 0

0101101
*
Ed
 1e-07 1 1 0
1  13 0 0 20.8130513300324
2  25 6 0 0 20.8130513300324
2  26 9 0 0 20.8130513300324
4 C0 6 0 9 0
0

0101000
+64 0 -44 0 *
Ve
1.00000010658141e-07
19 97.01 -87.3730513300324
0 0

0101101
*
Ed
 1e-07 1 1 0
1  14 0 0 97.55
2  27 6 0 0 97.55
2  28 10 21 0 97.55
4 G2 6 0 10 21
0

0101000
+44 0 -42 0 *
Ed
 1e-07 1 1 0
1  15 0 0 20.8130513300324
2  29 6 0 0 20.8130513300324
2  30 7 0 0 20.8130513300324
4 C0 6 0 7 0
0

0101000
+42 0 -62 0 *
Wi

0101100
+43 0 +41 0 +40 0 +61 0 *
Fa
0  1e-07 6 0

0101000
+39 0 *
Ve
1.00000010658141e-07
116.55 87.01 -87.3730513300324
0 0

0101101
*
Ed
 1e-07 1 1 0
1  16 0 0 20.8130513300324
2  31 8 0 0 20.8130513300324
2  32 9 0 0 20.8130513300324
4 C0 8 0 9 0
0

0101000
+52 0 -37 0 *
Ve
1.00000010658141e-07
19 87.01 -87.3730513300324
0 0

0101101
*
Ed
 1e-07 1 1 0
1  17 0 0 97.55
2  33 8 0 0 97.55
2  34 11 23 0 97.55
4 G2 8 0 11 23
0

0101000
+37 0 -35 0 *
Ed
 1e-07 1 1 0
1  18 0 0 20.8130513300324
2  35 8 0 0 20.8130513300324
2  36 7 0 0 20.8130513300324
4 C0 8 0 7 0
0

0101000
+35 0 -57 0 *
Wi

0101100
+36 0 +34 0 +33 0 +51 0 *
Fa
0  1e-07 8 0

0101000
+32 0 *
Ed
 1e-07 1 1 0
1  19 0 0 10
2  37 9 0 0 10
2  38 5 25 0 10
4 G2 9 0 5 25
0

0101000
+44 0 -37 0 *
Wi

0101100
+43 0 +30 0 -36 0 -47 0 *
Fa
0  1e-07 9 0

0101000
+29 0 *
Ed
 1e-07 1 1 0
1  20 0 0 10
2  39 7 0 0 10
2  40 3 27 0 10
4 G2 7 0 3 27
0

0101000
+42 0 -35 0 *
Wi

0101100
-40 0 +27 0 +33 0 +56 0 *
Fa
0  1e-07 7 0

0101000
+26 0 *
Ve
1e-07
19 97.01 -189.533051330032
0 0

0101101
*
Ed
 1e-07 1 1 0
1  21 0 -6.4 95.76
2  41 10 21 -6.4 95.76
2  42 3 27 -6.4 95.76
4 C0 10 21 3 27
0

0101000
+24 0 -42 0 *
Ve
1e-07
116.55 97.01 -189.533051330032
0 0

0101101
*
Ed
 1e-07 1 1 0
1  22 0 -95.76 6.40000000000001
2  43 10 21 -95.76 6.40000000000001
2  44 5 25 -95.76 6.40000000000001
4 C0 10 21 5 25
0

0101000
+44 0 -22 0 *
Ed
 1e-07 1 1 0
1  23 0 -62 35.55
2  45 10 21 -62 35.55
2  46 12 30 -62 35.55
4 C0 10 21 12 30
0

0101000
+22 0 -24 0 *
Wi

0101100
+23 28 -41 28 +21 28 +20 28 *
Fa
0  1e-07 10 0

0101000
-19 0 *
Ve
1e-07
116.55 87.01 -189.533051330032
0 0

0101101
*
Ed
 1e-07 1 1 0
1  24 0 -10 0
2  47 5 25 -10 0
2  48 12 30 -10 0
4 C0 5 25 12 30
0

0101000
+17 0 -22 0 *
Ed
 1e-07 1 1 0
1  25 0 -95.76 6.40000000000001
2  49 5 25 -95.76 6.40000000000001
2  50 11 23 -95.76 6.40000000000001
4 C0 5 25 11 23
0

0101000
+37 0 -17 0 *
Wi

0101100
+30 31 -21 31 +16 31 +15 31 *
Fa
0  1e-07 5 16

0101000
+14 0 *
Ve
1e-07
19 87.01 -189.533051330032
0 0

0101101
*
Ed
 1e-07 1 1 0
1  26 0 -10 0
2  51 3 27 -10 0
2  52 12 30 -10 0
4 C0 3 27 12 30
0

0101000
+12 0 -24 0 *
Ed
 1e-07 1 1 0
1  27 0 -6.4 95.76
2  53 3 27 -6.4 95.76
2  54 11 23 -6.4 95.76
4 C0 3 27 11 23
0

0101000
+12 0 -35 0 *
Wi

0101100
-11 32 -23 32 -27 32 +10 32 *
Fa
0  1e-07 3 16

0101000
+9 0 *
Ed
 1e-07 1 1 0
1  28 0 -62 35.55
2  55 11 23 -62 35.55
2  56 12 30 -62 35.55
4 C0 11 23 12 30
0

0101000
+17 0 -12 0 *
Wi

0101100
+34 33 -10 33 -7 33 -15 33 *
Fa
0  1e-07 11 0

0101000
+6 0 *
Wi

0101100
+7 34 +11 34 -20 34 -16 34 *
Fa
0  1e-07 12 0

0101000
+4 0 *
Sh

0101100
+65 5 -58 8 +53 9 +48 12 +45 13 +38 0 -31 0 -28 0 +25 0 -18 21 
+13 24 +8 26 +5 23 +3 30 *
So

1100000
+2 0 *

+1 1  