
CASCADE Topology V1, (c) Matra-Datavision
Locations 44
1
              1               0               0               0 
              0               1               0               0 
              0               0               1               0 
1
              1               0               0               0 
              0               1               0               0 
              0               0               1               0 
1
              1               0               0               0 
              0               1               0               0 
              0               0               1               0 
2  2 1 3 1 0
2  3 -1 2 -1 0
1
              1               0               0               0 
              0               1               0               0 
              0               0               1               0 
2  2 1 6 1 0
1
              1               0               0               0 
              0               1               0               0 
              0               0               1               0 
2  2 1 8 1 0
1
              1               0               0               0 
              0               1               0               0 
              0               0               1               0 
2  2 1 10 1 0
2  6 -1 0
1
              1               0               0               0 
              0               1               0               0 
              0               0               1               0 
2  2 1 13 1 0
2  13 -1 2 -1 0
2  10 -1 2 -1 0
2  8 -1 0
1
              1               0               0               0 
              0 1.11022302462516e-16              -1 8.59347433498381 
              0               1 1.11022302462516e-16              -1 
2  2 1 18 1 0
1
              1               0               0               0 
              0 1.11022302462516e-16              -1 8.59347433498381 
              0               1 1.11022302462516e-16              -1 
2  2 1 20 1 0
1
              1               0               0               0 
              0 1.11022302462516e-16              -1 8.59347433498381 
              0               1 1.11022302462516e-16              -1 
2  2 1 22 1 0
1
              1               0               0               0 
              0 1.11022302462516e-16              -1 8.59347433498381 
              0               1 1.11022302462516e-16              -1 
2  2 1 24 1 0
2  18 -1 2 -1 0
2  22 -1 0
2  24 -1 0
2  20 -1 2 -1 0
1
              1               0               0               0 
              0 1.14423774522197e-17               1 -89.4222336282841 
              0              -1 1.14423774522197e-17           -1.01 
2  2 1 30 1 0
1
              1               0               0               0 
              0 1.14423774522197e-17               1 -89.4222336282841 
              0              -1 1.14423774522197e-17           -1.01 
2  2 1 32 1 0
1
              1               0               0               0 
              0 1.14423774522197e-17               1 -89.4222336282841 
              0              -1 1.14423774522197e-17           -1.01 
2  2 1 34 1 0
1
              1               0               0               0 
              0 1.14423774522197e-17               1 -89.4222336282841 
              0              -1 1.14423774522197e-17           -1.01 
2  2 1 36 1 0
2  30 -1 2 -1 0
1
              1               0               0               0 
              0 1.14423774522197e-17               1 -89.4222336282841 
              0              -1 1.14423774522197e-17           -1.01 
2  2 1 39 1 0
2  34 -1 0
2  36 -1 0
2  32 -1 2 -1 0
2  39 -1 2 -1 0
Curve2ds 88
1 0 12.5 0 -1 
1 -12.5 -4 -1 -0 
1 12.5 10 -1 0 
8 -37.5 12.5
1 12.5 5.203262832508095 1 -0 
1 50 12.5 0 1 
1 12.5 -4 -1 0 
1 12.5 50 -1 0 
1 -12.5 -4 -1 0 
1 25 0 0 1 
1 -25 0 0 1 
1 -15 1 0 -1 
8 0 5
1 2.5 -5.203262832508095 -1 -0 
1 0 50 0 -1 
1 25 1 -1 -0 
1 12.5 10 -1 0 
8 -37.5 12.5
1 12.5 5.203262832508095 1 -0 
1 50 50 -1 0 
1 25 1 -1 0 
1 50 0 0 1 
1 25 1 -1 0 
1 25 0 0 1 
1 -25 0 0 1 
1 15 -4 0 1 
1 -2.5 -5.203262832508095 1 0 
1 -25 5.203262832508095 0 -1 
1 2.5 -5.203262832508095 0 1 
1 -25 -5.203262832508095 1 0 
8 0 50
1 25 5 -1 -0 
1 25 -5.203262832508095 0 1 
8 0 10.40652566501619
1 2.5 5.203262832508095 -0 -1 
1 -25 5.203262832508095 0 -1 
8 0 10.40652566501619
1 -2.5 -5.203262832508095 -0 1 
1 -25 -5.203262832508095 1 0 
8 0 50
1 25 5 -1 -0 
1 25 -5.203262832508095 0 1 
1 -2.5 5.203262832508095 0 -1 
1 2.5 5.203262832508095 -1 0 
8 0 5
1 25 -9 -1 -0 
1 2.5 5.203262832508095 -1 0 
1 -25 -9 1 0 
1 -12.5 45 -1 0 
8 -37.5 12.5
1 12.5 0.0078539816339713298 1 -0 
1 -25 0 0 1 
1 -25 -4 -6.12303176911189e-17 -1 
1 25 0 0 1 
1 25 -4 6.12303176911189e-17 -1 
1 20 -49 1 0 
1 -2.5 -0.0078539816339784352 1 0 
1 20 -4 6.12303176911189e-17 -1 
1 25 0 0 1 
1 -20 -4 -6.12303176911189e-17 -1 
1 -25 0 0 1 
1 -25.000000000000004 -49 1 0 
8 0 5.0000000000000027
1 2.5 -0.0078539816339784352 -1 -0 
1 -12.5 45 -1 0 
8 -37.5 12.5
1 12.5 0.0078539816339713298 1 -0 
1 -25 0.0078539816339713298 0 -1 
1 2.5 -0.0078539816339784352 0 1 
1 -25 -0.0078539816339784352 1 0 
1 25 45 -1 0 
1 25 -0.0078539816339784352 0 1 
8 0 0.015707963267949765
1 2.5 0.0078539816339713298 -0 -1 
1 -25 0.0078539816339713298 0 -1 
8 0 0.015707963267949765
1 -2.5 -0.0078539816339784352 -0 1 
1 -25 -0.0078539816339784352 1 0 
1 25 45 -1 0 
1 25 -0.0078539816339784352 0 1 
1 -2.5 0.0078539816339713298 0 -1 
1 2.5 0.0078539816339713298 -1 0 
8 0 5
1 25.010000000000002 -49 1 -0 
1 2.5 0.0078539816339713298 -1 0 
1 -25.010000000000002 -49 -1 -0 
1 25 0 0 1 
1 25.010000000000002 -4 6.12303176911189e-17 -1 
1 -12.5 5 1 0 
1 12.5 0 -1 0 
1 -25 0 0 1 
1 -25.010000000000002 -4 -6.12303176911189e-17 -1 
1 30.009999999999998 -9 -1 0 
1 -25 -4.9999999999999991 0 1 
1 30.009999999999998 -4 6.12303176911189e-17 -1 
1 25 0 0 1 
1 -30.009999999999998 -4 -6.12303176911189e-17 -1 
1 -25 0 0 1 
1 -30.009999999999998 -9 1 0 
1 25 -4.9999999999999991 0 1 
1 -12.5 5 1 0 
1 12.5 -4.9999999999999991 -1 0 
Curves 44
1 0 12.5 4 0 -1 0 
1 12.5 10 4 -1 0 0 
1 50 12.5 4 0 1 0 
1 12.5 50 4 -1 0 0 
1 0 50 0 -0 -0 -1 
1 0 10 -1 0 0 1 
1 0 50 -1 0 -1 0 
1 12.5 10 -1 -1 0 0 
1 50 50 -1 -1 0 0 
1 50 0 -1 0 1 0 
1 50 50 0 -0 -0 -1 
1 50 10 4 0 0 -1 
1 50 10 -1 0 -1 0 
1 50 -0.40652566501618992 -1 -1 0 0 
1 0 -0.40652566501618992 -1 0 1 0 
1 50 10 4 0 -1 0 
1 50 -0.40652566501618992 4 -1 0 0 
1 0 -0.40652566501618992 4 0 1 0 
1 50 -0.40652566501618992 -1 0 0 1 
1 0 -0.40652566501618992 -1 0 0 1 
1 12.5 -40.40652566501619 -0.99999999999999911 -1 0 0 
1 0 4.5934743349838101 -1.0000000000000013 0 -1 4.9791984771396754e-17 
1 50 4.5934743349838101 -1.0000000000000013 0 -1 4.9791984771396754e-17 
1 50 -40.40652566501619 4.0000000000000036 0 -1.1102230246251565e-16 -1 
1 50 4.5934743349838101 3.9999999999999982 0 -1 4.9791984771396754e-17 
1 0 4.5934743349838101 3.9999999999999982 0 -1 4.9791984771396754e-17 
1 0 -40.40652566501619 -0.99999999999999911 0 1.1102230246251565e-16 1 
1 12.5 -40.40652566501619 4.0000000000000036 -1 0 0 
1 50 -40.40652566501619 -0.999999999999999 0 -1 0 
1 50 -40.42223362828414 -0.999999999999999 -1 0 0 
1 0 -40.42223362828414 -0.999999999999999 0 1 0 
1 50 -40.40652566501619 4.0000000000000009 0 -1 0 
1 50 -40.42223362828414 4.0000000000000009 -1 0 0 
1 0 -40.42223362828414 4.0000000000000009 0 1 0 
1 50 -40.42223362828414 -0.999999999999999 0 0 1 
1 0 -40.42223362828414 -0.999999999999999 0 0 1 
1 50 -85.422233628284133 -1.0000000000000022 0 1 7.2672695143338567e-17 
1 12.5 -80.422233628284133 -1.0000000000000018 1 0 0 
1 0 -85.422233628284133 -1.0000000000000022 0 1 7.2672695143338567e-17 
1 50 -80.422233628284133 3.9999999999999973 0 1.1442377452219667e-17 -1 
1 50 -85.422233628284133 3.9999999999999973 0 1 7.2672695143338567e-17 
1 0 -85.422233628284133 3.9999999999999973 0 1 7.2672695143338567e-17 
1 0 -80.422233628284133 3.9999999999999973 0 1.1442377452219667e-17 -1 
1 12.5 -80.422233628284133 3.9999999999999973 1 0 0 
Polygon3D 0
PolygonOnTriangulations 0
Surfaces 18
1 0 0 4 0 0 1 1 0 -0 -0 1 0 
1 0 25 0 -1 0 0 0 1 -0 -0 0 -1 
1 25 4.796737167491905 4 -0 -0 -1 -1 0 0 0 1 -0 
1 50 25 0 1 0 0 0 -1 0 0 0 -1 
1 25 50 0 0 1 0 1 -0 0 0 0 -1 
1 0 4.796737167491905 1.5 -1 -0 -0 0 0 -1 0 -1 0 
1 0 0 -1 0 0 1 1 0 -0 -0 1 0 
1 25 4.796737167491905 -1 -0 -0 -1 -1 0 0 0 1 -0 
1 50 4.796737167491905 1.5 -1 -0 -0 0 0 -1 0 -1 0 
1 25 0 4 0 -1 -6.12303176911189e-17 1 0 0 0 -6.12303176911189e-17 1 
1 25 5 4 0 -1 -6.12303176911189e-17 1 0 0 0 -6.12303176911189e-17 1 
1 25 -40.414379646650161 -0.99999999999999889 -0 -0 -1 -1 0 0 0 1 -0 
1 50 -40.414379646650168 1.5000000000000009 -1 -0 -0 0 0 -1 0 -1 0 
1 0 -40.414379646650168 1.5000000000000009 -1 -0 -0 0 0 -1 0 -1 0 
1 25 -40.414379646650161 4.0000000000000018 -0 -0 -1 -1 0 0 0 1 -0 
1 25 -0.01 4 0 -1 -6.12303176911189e-17 1 0 0 0 -6.12303176911189e-17 1 
1 25 -5.0099999999999998 4 0 -1 -6.12303176911189e-17 1 0 0 0 -6.12303176911189e-17 1 
1 25 -0.0100000000000003 9 0 6.12303176911189e-17 -1 -1 0 0 0 1 6.12303176911189e-17 
Triangulations 0

TShapes 114
Ve
1e-07
0 50 4
0 0

0101101
*
Ve
1e-07
0 10 4
0 0

0101101
*
Ed
 1e-07 1 1 0
1  1 0 -37.5 2.5
2  1 1 4 -37.5 2.5
2  2 2 7 -37.5 2.5
4 C0 1 4 2 7
0

0101000
+114 0 -113 0 *
Ve
1e-07
50 10 4
0 0

0101101
*
Ed
 1e-07 1 1 0
1  2 0 -37.5 12.5
2  3 1 4 -37.5 12.5
2  4 3 0 -37.5 12.5
4 G2 1 4 3 0
0

0101000
+111 0 -113 0 *
Ve
1e-07
50 50 4
0 0

0101101
*
Ed
 1e-07 1 1 0
1  3 0 -2.5 37.5
2  5 1 4 -2.5 37.5
2  6 4 9 -2.5 37.5
4 C0 1 4 4 9
0

0101000
+111 0 -109 0 *
Ed
 1e-07 1 1 0
1  4 0 -37.5 12.5
2  7 1 4 -37.5 12.5
2  8 5 11 -37.5 12.5
4 C0 1 4 5 11
0

0101000
+109 0 -114 0 *
Wi

0101100
+112 5 -110 5 +108 5 +107 5 *
Fa
0  1e-07 1 0

0101000
+106 0 *
Ve
1e-07
0 50 -1
0 0

0101101
*
Ed
 1e-07 1 1 0
1  5 0 -4 1
2  9 2 7 -4 1
2  10 5 11 -4 1
4 C0 2 7 5 11
0

0101000
+114 0 -104 0 *
Ve
1e-07
0 10 -1
0 0

0101101
*
Ed
 1e-07 1 1 0
1  6 0 0 5
2  11 2 7 0 5
2  12 6 0 0 5
4 G2 2 7 6 0
0

0101000
+102 0 -113 0 *
Ed
 1e-07 1 1 0
1  7 0 0 40
2  13 7 14 0 40
2  14 2 7 0 40
4 C0 2 7 7 14
0

0101000
+104 0 -102 0 *
Wi

0101100
+103 12 -112 12 +101 12 +100 12 *
Fa
0  1e-07 2 2

0101000
+99 0 *
Ve
1e-07
50 10 -1
0 0

0101101
*
Ed
 1e-07 1 1 0
1  8 0 -37.5 12.5
2  15 7 14 -37.5 12.5
2  16 8 0 -37.5 12.5
4 G2 7 14 8 0
0

0101000
+97 0 -102 0 *
Ve
1e-07
50 50 -1
0 0

0101101
*
Ed
 1e-07 1 1 0
1  9 0 0 50
2  17 7 14 0 50
2  18 5 11 0 50
4 C0 7 14 5 11
0

0101000
+95 0 -104 0 *
Ed
 1e-07 1 1 0
1  10 0 10 50
2  19 7 14 10 50
2  20 4 9 10 50
4 C0 7 14 4 9
0

0101000
+97 0 -95 0 *
Wi

0101100
+96 15 -100 15 -94 15 -93 15 *
Fa
0  1e-07 7 0

0101000
-92 0 *
Ed
 1e-07 1 1 0
1  11 0 -4 1
2  21 5 11 -4 1
2  22 4 9 -4 1
4 C0 5 11 4 9
0

0101000
+109 0 -95 0 *
Wi

0101100
+94 16 -103 16 -107 16 +90 16 *
Fa
0  1e-07 5 0

0101000
+89 0 *
Ed
 1e-07 1 1 0
1  12 0 0 5
2  23 4 9 0 5
2  24 9 0 0 5
4 G2 4 9 9 0
0

0101000
+111 0 -97 0 *
Wi

0101100
+87 17 -108 17 -90 17 +93 17 *
Fa
0  1e-07 4 2

0101000
+86 0 *
Ve
1.00000000610623e-07
50 -0.40652566501619 -1
0 0

0101101
*
Ed
 1e-07 1 1 0
1  13 0 0 10.4065256650162
2  25 8 0 0 10.4065256650162
2  26 9 0 0 10.4065256650162
4 C0 8 0 9 0
0

0101000
+97 0 -84 0 *
Ve
1.00000000610623e-07
0 -0.40652566501619 -1
0 0

0101101
*
Ed
 1e-07 1 1 0
1  14 0 0 50
2  27 8 0 0 50
2  28 10 19 0 50
4 G2 8 0 10 19
0

0101000
+84 0 -82 0 *
Ed
 1e-07 1 1 0
1  15 0 0 10.4065256650162
2  29 8 0 0 10.4065256650162
2  30 6 0 0 10.4065256650162
4 C0 8 0 6 0
0

0101000
+82 0 -102 0 *
Wi

0101100
+83 0 +81 0 +80 0 -96 0 *
Fa
0  1e-07 8 0

0101000
+79 0 *
Ve
1.00000000444089e-07
50 -0.40652566501619 4
0 0

0101101
*
Ed
 1e-07 1 1 0
1  16 0 0 10.4065256650162
2  31 3 0 0 10.4065256650162
2  32 9 0 0 10.4065256650162
4 C0 3 0 9 0
0

0101000
+111 0 -77 0 *
Ve
1.00000000666134e-07
0 -0.40652566501619 4
0 0

0101101
*
Ed
 1e-07 1 1 0
1  17 0 0 50
2  33 3 0 0 50
2  34 11 21 0 50
4 G2 3 0 11 21
0

0101000
+77 0 -75 0 *
Ed
 1e-07 1 1 0
1  18 0 0 10.4065256650162
2  35 3 0 0 10.4065256650162
2  36 6 0 0 10.4065256650162
4 C0 3 0 6 0
0

0101000
+75 0 -113 0 *
Wi

0101100
+76 0 +74 0 +73 0 -110 0 *
Fa
0  1e-07 3 0

0101000
+72 0 *
Ed
 1e-07 1 1 0
1  19 0 0 5
2  37 9 0 0 5
2  38 4 23 0 5
4 G2 9 0 4 23
0

0101000
+84 0 -77 0 *
Wi

0101100
+83 0 +70 0 -76 0 +87 0 *
Fa
0  1e-07 9 0

0101000
+69 0 *
Ed
 1e-07 1 1 0
1  20 0 0 5
2  39 6 0 0 5
2  40 2 25 0 5
4 G2 6 0 2 25
0

0101000
+82 0 -75 0 *
Wi

0101100
-80 0 +67 0 +73 0 -101 0 *
Fa
0  1e-07 6 0

0101000
+66 0 *
Ve
1e-07
50 -40.4065256650162 -0.999999999999999
0 0

0101101
*
Ve
1e-07
0 -40.4065256650162 -0.999999999999999
0 0

0101101
*
Ed
 1e-07 1 1 0
1  21 0 -37.5 12.5
2  41 10 19 -37.5 12.5
2  42 12 0 -37.5 12.5
4 G2 10 19 12 0
0

0101000
+64 0 -63 0 *
Ed
 1e-07 1 1 0
1  22 0 5 45
2  43 10 19 5 45
2  44 2 25 5 45
4 C0 10 19 2 25
0

0101000
+82 0 -63 0 *
Ed
 1e-07 1 1 0
1  23 0 5 45
2  45 10 19 5 45
2  46 4 23 5 45
4 C0 10 19 4 23
0

0101000
+84 0 -64 0 *
Wi

0101100
+62 26 -61 26 -81 26 +60 26 *
Fa
0  1e-07 10 0

0101000
+59 0 *
Ve
1.00000001554312e-07
50 -40.4065256650162 4
0 0

0101101
*
Ed
 1e-07 1 1 0
1  24 0 0 5
2  47 4 23 0 5
2  48 13 0 0 5
4 G2 4 23 13 0
0

0101000
+57 0 -64 0 *
Ed
 1e-07 1 1 0
1  25 0 5 45
2  49 4 23 5 45
2  50 11 21 5 45
4 C0 4 23 11 21
0

0101000
+77 0 -57 0 *
Wi

0101100
-60 27 +56 27 +55 27 +70 27 *
Fa
0  1e-07 4 2

0101000
+54 0 *
Ve
1.00000001332268e-07
0 -40.4065256650162 4
0 0

0101101
*
Ed
 1e-07 1 1 0
1  26 0 5 45
2  51 2 25 5 45
2  52 11 21 5 45
4 C0 2 25 11 21
0

0101000
+75 0 -52 0 *
Ed
 1e-07 1 1 0
1  27 0 0 5
2  53 2 25 0 5
2  54 14 0 0 5
4 G2 2 25 14 0
0

0101000
+63 0 -52 0 *
Wi

0101100
-67 28 -51 28 +50 28 +61 28 *
Fa
0  1e-07 2 2

0101000
+49 0 *
Ed
 1e-07 1 1 0
1  28 0 -37.5 12.5
2  55 11 21 -37.5 12.5
2  56 15 0 -37.5 12.5
4 G2 11 21 15 0
0

0101000
+57 0 -52 0 *
Wi

0101100
+51 29 -47 29 -55 29 +74 29 *
Fa
0  1e-07 11 0

0101000
-46 0 *
Ve
1.00000003553147e-07
50 -40.4222336282841 -0.999999999999999
0 0

0101101
*
Ed
 1e-07 1 1 0
1  29 0 0 0.0157079632679498
2  57 12 0 0 0.0157079632679498
2  58 13 0 0 0.0157079632679498
4 C0 12 0 13 0
0

0101000
+64 0 -44 0 *
Ve
1.00000005329721e-07
0 -40.4222336282841 -0.999999999999999
0 0

0101101
*
Ed
 1e-07 1 1 0
1  30 0 0 50
2  59 12 0 0 50
2  60 16 31 0 50
4 G2 12 0 16 31
0

0101000
+44 0 -42 0 *
Ed
 1e-07 1 1 0
1  31 0 0 0.0157079632679498
2  61 12 0 0 0.0157079632679498
2  62 14 0 0 0.0157079632679498
4 C0 12 0 14 0
0

0101000
+42 0 -63 0 *
Wi

0101100
+43 0 +41 0 +40 0 -62 0 *
Fa
0  1e-07 12 0

0101000
+39 0 *
Ve
1.000000037943e-07
50 -40.4222336282841 4
0 0

0101101
*
Ed
 1e-07 1 1 0
1  32 0 0 0.0157079632679498
2  63 15 0 0 0.0157079632679498
2  64 13 0 0 0.0157079632679498
4 C0 15 0 13 0
0

0101000
+57 0 -37 0 *
Ve
1.00000005511774e-07
0 -40.4222336282841 4
0 0

0101101
*
Ed
 1e-07 1 1 0
1  33 0 0 50
2  65 15 0 0 50
2  66 17 33 0 50
4 G2 15 0 17 33
0

0101000
+37 0 -35 0 *
Ed
 1e-07 1 1 0
1  34 0 0 0.0157079632679498
2  67 15 0 0 0.0157079632679498
2  68 14 0 0 0.0157079632679498
4 C0 15 0 14 0
0

0101000
+35 0 -52 0 *
Wi

0101100
+36 0 +34 0 +33 0 -47 0 *
Fa
0  1e-07 15 0

0101000
+32 0 *
Ed
 1e-07 1 1 0
1  35 0 0 5
2  69 13 0 0 5
2  70 4 35 0 5
4 G2 13 0 4 35
0

0101000
+44 0 -37 0 *
Wi

0101100
+43 0 +30 0 -36 0 +56 0 *
Fa
0  1e-07 13 0

0101000
+29 0 *
Ed
 1e-07 1 1 0
1  36 0 0 5
2  71 14 0 0 5
2  72 2 37 0 5
4 CN 14 0 2 37
0

0101000
+42 0 -35 0 *
Wi

0101100
-40 0 +27 0 +33 0 -50 0 *
Fa
0  1e-07 14 0

0101000
+26 0 *
Ve
1e-07
50 -80.4222336282841 -1
0 0

0101101
*
Ed
 1e-07 1 1 0
1  37 0 5 45
2  73 16 31 5 45
2  74 4 35 5 45
4 C0 16 31 4 35
0

0101000
+24 0 -44 0 *
Ve
1e-07
0 -80.4222336282841 -1
0 0

0101101
*
Ed
 1e-07 1 1 0
1  38 0 -12.5 37.5
2  75 16 31 -12.5 37.5
2  76 18 40 -12.5 37.5
4 C0 16 31 18 40
0

0101000
+22 0 -24 0 *
Ed
 1e-07 1 1 0
1  39 0 5 45
2  77 16 31 5 45
2  78 2 37 5 45
4 C0 16 31 2 37
0

0101000
+22 0 -42 0 *
Wi

0101100
-41 38 -23 38 -21 38 +20 38 *
Fa
0  1e-07 16 0

0101000
-19 0 *
Ve
1e-07
50 -80.4222336282841 4
0 0

0101101
*
Ed
 1e-07 1 1 0
1  40 0 0 5
2  79 4 35 0 5
2  80 18 40 0 5
4 C0 4 35 18 40
0

0101000
+17 0 -24 0 *
Ed
 1e-07 1 1 0
1  41 0 5 45
2  81 4 35 5 45
2  82 17 33 5 45
4 C0 4 35 17 33
0

0101000
+17 0 -37 0 *
Wi

0101100
+23 41 +16 41 -15 41 +30 41 *
Fa
0  1e-07 4 2

0101000
+14 0 *
Ve
1e-07
0 -80.4222336282841 4
0 0

0101101
*
Ed
 1e-07 1 1 0
1  42 0 5 45
2  83 2 37 5 45
2  84 17 33 5 45
4 C0 2 37 17 33
0

0101000
+12 0 -35 0 *
Ed
 1e-07 1 1 0
1  43 0 0 5
2  85 2 37 0 5
2  86 18 40 0 5
4 C0 2 37 18 40
0

0101000
+12 0 -22 0 *
Wi

0101100
-27 42 +11 42 -10 42 -20 42 *
Fa
0  1e-07 2 2

0101000
+9 0 *
Ed
 1e-07 1 1 0
1  44 0 -12.5 37.5
2  87 17 33 -12.5 37.5
2  88 18 40 -12.5 37.5
4 C0 17 33 18 40
0

0101000
+12 0 -17 0 *
Wi

0101100
+34 43 -11 43 +7 43 +15 43 *
Fa
0  1e-07 17 0

0101000
+6 0 *
Wi

0101100
-7 44 +10 44 +21 44 -16 44 *
Fa
0  1e-07 18 0

0101000
+4 0 *
Sh

0101100
+105 4 +98 6 -91 14 +88 11 +85 8 +78 0 -71 0 -68 0 +65 0 +58 19 
+53 22 +48 24 -45 21 +38 0 -31 0 -28 0 +25 0 -18 31 +13 34 +8 36 
+5 33 +3 40 *
So

1100000
+2 0 *

+1 1  