
CASCADE Topology V1, (c) Matra-Datavision
Locations 50
1
              1               0               0               0 
              0               1               0               0 
              0               0               1               0 
1
              1               0               0               0 
              0               1               0               0 
              0               0               1               0 
1
              1               0               0               0 
              0               1               0               0 
              0               0               1               0 
2  2 1 3 1 0
2  3 -1 2 -1 0
1
              1               0               0               0 
              0               1               0               0 
              0               0               1               0 
2  2 1 6 1 0
1
              1               0               0               0 
              0               1               0               0 
              0               0               1               0 
2  2 1 8 1 0
1
              1               0               0               0 
              0               1               0               0 
              0               0               1               0 
2  2 1 10 1 0
1
              1               0               0               0 
              0               1               0               0 
              0               0               1               0 
2  2 1 12 1 0
1
              1               0               0               0 
              0               1               0               0 
              0               0               1               0 
2  2 1 14 1 0
1
              1               0               0               0 
              0               1               0               0 
              0               0               1               0 
2  2 1 16 1 0
2  6 -1 0
1
              1               0               0               0 
              0               1               0               0 
              0               0               1               0 
2  2 1 19 1 0
2  8 -1 2 -1 0
2  10 -1 0
2  19 -1 2 -1 0
2  12 -1 0
2  14 -1 2 -1 0
2  16 -1 0
1
              1               0               0               0 
              0 -4.74065231514942e-13              -1 8.59347433498541 
              0               1 -4.74065231514942e-13 -0.999999999995733 
2  2 1 27 1 0
1
              1               0               0               0 
              0 -4.74065231514942e-13              -1 8.59347433498541 
              0               1 -4.74065231514942e-13 -0.999999999995733 
2  2 1 29 1 0
1
              1               0               0               0 
              0 -4.74065231514942e-13              -1 8.59347433498541 
              0               1 -4.74065231514942e-13 -0.999999999995733 
2  2 1 31 1 0
1
              1               0               0               0 
              0 -4.74065231514942e-13              -1 8.59347433498541 
              0               1 -4.74065231514942e-13 -0.999999999995733 
2  2 1 33 1 0
2  27 -1 2 -1 0
1
              1               0               0               0 
              0 -7.99360577730113e-15              -1 8.59347433498383 
              0               1 -7.99360577730113e-15 -0.999999999999923 
2  2 1 36 1 0
1
              1               0               0               0 
              0 -7.99360577730113e-15              -1 8.59347433498383 
              0               1 -7.99360577730113e-15 -0.999999999999923 
2  2 1 38 1 0
1
              1               0               0               0 
              0 -4.74065231514942e-13              -1 8.59347433498541 
              0               1 -4.74065231514942e-13 -0.999999999995733 
2  2 1 40 1 0
1
              1               0               0               0 
              0 -4.74065231514942e-13              -1 8.59347433498541 
              0               1 -4.74065231514942e-13 -0.999999999995733 
2  2 1 42 1 0
2  31 -1 0
2  33 -1 0
2  29 -1 2 -1 0
2  40 -1 2 -1 0
2  42 -1 2 -1 0
2  36 -1 0
2  38 -1 0
Curve2ds 112
1 32 8.25 0 1 
1 5 -8.25 0 1 
1 12.25 23 -1 0 
1 -5 -12.25 0 -1 
1 17 8.25 -0 -1 
1 -5 -8.25 0 -1 
1 12.5 10 -1 0 
8 -4.5 12.5
1 -4 5.2032628325096653 1 -0 
1 0 50 0 -1 
1 25 1 -1 -0 
1 50 50 -1 0 
1 25 1 -1 0 
1 50 0 0 1 
1 25 1 -1 0 
1 12.5 10 -1 0 
1 5.2032628325081189 28.5 -9.8686491077791687e-17 1 
1 5 -6.5 -1 0 
8 0 5
1 2.5000000000000013 -5.2032628325081216 -1 -0 
1 0 -8.25 0 -1 
1 32 8.25 0 -1 
1 5 6.5 1 0 
1 -5 7.5 -1 0 
1 0 -12.25 0 1 
1 12.25 23 1 0 
1 -5 -7.5 1 0 
1 -5 6.5 1 0 
1 0 -8.25 0 1 
1 17 8.25 0 1 
1 0 -6.5 -1 0 
1 -2.5 -5.2032628325096653 1 0 
1 12.5 10 -1 0 
1 5.2032628325081189 28.5 -9.8686491077791687e-17 1 
1 50 12.5 0 1 
1 12.5 -4 -1 0 
1 12.5 50 -1 0 
1 -12.5 -4 -1 0 
1 0 12.5 0 -1 
1 -12.5 -4 -1 -0 
1 12.5 10 -1 0 
8 -4.5 12.5
1 -4 5.2032628325096653 1 -0 
1 25 0 0 1 
1 -25 0 0 1 
1 -15 1 0 -1 
8 0 5
1 2.5 -5.2032628325096653 -1 -0 
1 25 0 0 1 
1 -25 0 0 1 
1 15 -4 0 1 
1 -2.4999999999999987 -5.2032628325081207 1 0 
1 -8.5 5.2032628325096653 0 -1 
1 2.5 -5.2032628325096653 0 1 
1 -8.5 -5.2032628325096653 1 0 
8 0 17
1 -8 5 -1 -0 
1 8.5 -5.2032628325096653 0 1 
8 0 10.406525665019331
1 2.5 5.2032628325096653 -0 -1 
1 -8.5 5.2032628325096653 0 -1 
8 0 10.406525665019331
1 -2.5 -5.2032628325096653 -0 1 
1 -8.5 -5.2032628325096653 1 0 
8 0 17
1 -8 5 -1 -0 
1 8.5 -5.2032628325096653 0 1 
1 -2.5 5.2032628325096653 0 -1 
1 2.5 5.2032628325096653 -1 0 
8 0 5
1 5.0000000000047411 -16.5 -3.1619151741324458e-13 1 
1 2.5 5.2032628325096653 -1 0 
1 -25 -9 1 0 
1 7 0 0 -1 
1 0 -16.5 1 6.12303176911189e-17 
1 -12.5 5 1 0 
1 -5.2032628325081243 28.499999999999801 9.8686491077791687e-17 -1 
1 25 0 0 1 
1 25 -4 6.12303176911189e-17 -1 
1 -12.5 45 -1 0 
1 -12.5 0 -1 0 
1 -25 0 0 1 
1 -25 -4 -6.12303176911189e-17 -1 
1 -8 0 0 1 
1 0 -16.5 1 -6.12303176911189e-17 
1 -0.25 13 1 0 
1 0.25 -5.0000000000000009 1 0 
1 0 -11.5 -1 6.12303176911189e-17 
1 -8 0 0 -1 
1 13 -16.5 0 -1 
1 -7.5 -5.0000000000000009 -0 -1 
1 -20 -4 -6.12303176911189e-17 -1 
1 -25 0 0 1 
1 -20 -49 -1 -0 
1 -25 5.0000000000000027 0 -1 
1 -12.5 45 -1 0 
1 -12.5 5.0000000000000027 -1 0 
1 25 0 0 1 
1 20 -4 6.12303176911189e-17 -1 
1 -12.5 5 1 0 
1 -5.2032628325081243 28.499999999999801 9.8686491077791687e-17 -1 
1 7 0 0 1 
1 0 -11.5 -1 -6.12303176911189e-17 
1 -0.25 13 -1 0 
1 0.25 0 -1 0 
1 25 5.0000000000000027 0 1 
1 20 -49 -1 0 
1 7.5 -5.0000000000000009 -0 -1 
1 -13 -16.5 0 -1 
1 5.2032628325081207 9 -1 0 
1 2.5000000000000013 -5.2032628325081216 -2.2403907190183148e-16 1 
1 -5.2032628325081207 -9 1 0 
8 0 10.406525665016243
1 2.4999999999999991 5.2032628325081225 2.2403907190183148e-16 -1 
1 5.2032628325081207 9 -1 0 
8 0 10.406525665016243
1 -2.4999999999999987 -5.2032628325081216 -2.5604465360209313e-16 1 
1 -5.2032628325081207 -9 1 0 
1 -2.5000000000000013 5.2032628325081225 2.5604465360209313e-16 -1 
1 2.4999999999999991 5.2032628325081216 -1 0 
1 -5.0000000000000817 -16.5 6.3948846218409018e-15 1 
1 2.4999999999999991 5.2032628325081225 -1 0 
8 0 5
1 25 -9 -1 -0 
Curves 56
1 32 8.25 -1 0 1 0 
1 12.25 23 -1 -1 0 0 
1 17 8.25 -1 0 -1 0 
1 12.5 10 -1 -1 0 0 
1 0 50 -1 0 -1 0 
1 50 50 -1 -1 0 0 
1 50 0 -1 0 1 0 
1 12.5 10 -1 -1 0 0 
1 32 10 -1 0 0 1 
1 32 8.25 4 0 -1 0 
1 32 23 -1 -0 -0 -1 
1 12.25 23 4 1 0 0 
1 17 23 -1 0 0 1 
1 17 8.25 4 0 1 0 
1 17 10 4 0 0 -1 
1 12.5 10 4 -1 0 0 
1 50 12.5 4 0 1 0 
1 12.5 50 4 -1 0 0 
1 0 12.5 4 0 -1 0 
1 12.5 10 4 -1 0 0 
1 0 50 0 -0 -0 -1 
1 0 10 -1 0 0 1 
1 50 50 0 -0 -0 -1 
1 50 10 4 0 0 -1 
1 17 10 -1 0 -1 0 
1 17 -0.40652566501933052 -1 -1 0 0 
1 0 -0.40652566501933052 -1 0 1 0 
1 17 10 4 0 -1 0 
1 17 -0.40652566501933052 4 -1 0 0 
1 0 -0.40652566501933052 4 0 1 0 
1 17 -0.40652566501933052 -1 0 0 1 
1 0 -0.40652566501933052 -1 0 0 1 
1 32 4.5934743349854088 -0.99999999999762956 0 1 4.7412646183263296e-13 
1 12.5 -0.4065256650145912 -1 1 0 0 
1 50 4.5934743349854088 -0.99999999999762945 0 -1 -4.7412646183263296e-13 
1 12.5 -40.406525665014591 -1.0000000000189651 -1 -0 0 
1 0 4.5934743349854088 -0.99999999999762945 0 -1 -4.7412646183263296e-13 
1 17 4.5934743349854088 -0.99999999999762956 0 -1 -4.7412646183263296e-13 
1 24.75 -8.4065256650145912 -1.0000000000037932 1 0 0 
1 17 4.5934743349830383 4.0000000000023705 0 1 4.7412646183263296e-13 
1 17 -8.4065256650145912 -1.0000000000037932 -0 4.7406523151494184e-13 -1 
1 0 4.5934743349830383 4.0000000000023705 0 -1 -4.7412646183263296e-13 
1 0 -40.406525665016964 3.9999999999810374 0 4.7406523151494184e-13 -1 
1 12.5 -40.406525665016964 3.9999999999810374 -1 -0 0 
1 50 4.5934743349830383 4.0000000000023705 0 -1 -4.7412646183263296e-13 
1 12.5 -0.40652566501696086 4 1 0 0 
1 32 4.5934743349830383 4.0000000000023705 0 -1 -4.7412646183263296e-13 
1 24.75 -8.4065256650169609 3.9999999999962075 -1 0 0 
1 50 -40.406525665016964 3.9999999999810374 0 -4.7406523151494184e-13 1 
1 32 -8.4065256650145912 -1.0000000000037932 -0 4.7406523151494184e-13 -1 
1 32 9.9999999999999964 -1 0 -1 2.2403907190183148e-16 
1 50 -0.40652566501624499 -0.99999999999999767 0 1 -2.2403907190183148e-16 
1 32 9.9999999999999964 4 0 -1 2.5604465360209313e-16 
1 50 -0.40652566501624499 4.0000000000000027 0 1 -2.5604465360209313e-16 
1 32 -0.40652566501624676 -0.99999999999999767 0 0 1 
1 50 -0.40652566501624499 -0.99999999999999767 0 0 1 
Polygon3D 0
PolygonOnTriangulations 0
Surfaces 20
1 0 0 -1 0 0 1 1 0 -0 -0 1 0 
1 32 16.5 4 1 -0 0 0 0 -1 0 1 0 
1 24.5 23 4 -0 1 0 0 0 1 1 0 -0 
1 17 16.5 4 -1 0 0 0 0 1 0 1 -0 
1 8.5 4.7967371674903347 -1 -0 -0 -1 -1 0 0 0 1 -0 
1 0 25 0 -1 0 0 0 1 -0 -0 0 -1 
1 25 50 0 0 1 0 1 -0 0 0 0 -1 
1 50 25 0 1 0 0 0 -1 0 0 0 -1 
1 41 4.7967371674918757 -0.99999999999999889 0 2.2403907190183148e-16 1 0 1 -2.2403907190183148e-16 -1 0 0 
1 32 4.7967371674918748 1.5000000000000013 -1 -0 -0 0 0 -1 0 -1 0 
1 0 0 4 0 0 1 1 0 -0 -0 1 0 
1 17 4.7967371674903347 1.5 -1 -0 -0 0 0 -1 0 -1 0 
1 41 4.7967371674918757 4.0000000000000018 0 2.5604465360209308e-16 1 0 1 -2.5604465360209308e-16 -1 0 0 
1 8.5 4.7967371674903347 4 -0 -0 -1 -1 0 0 0 1 -0 
1 0 4.7967371674903347 1.5 -1 -0 -0 0 0 -1 0 -1 0 
1 50 4.7967371674918775 1.5000000000000013 -1 -0 -0 0 0 -1 0 -1 0 
1 25 0 4 0 -1 -6.12303176911189e-17 1 0 0 0 -6.12303176911189e-17 1 
1 25 5 4 0 -1 -6.12303176911189e-17 1 0 0 0 -6.12303176911189e-17 1 
1 25 -2.75536429610035e-15 49 0 -6.12303176911189e-17 1 1 0 0 -0 1 6.12303176911189e-17 
1 24.5 5 17 0 -6.12303176911189e-17 1 1 0 0 -0 1 6.12303176911189e-17 
Triangulations 0

TShapes 138
Ve
1.00000001776357e-07
32 10 -1
0 0

0101101
*
Ve
1e-07
32 23 -1
0 0

0101101
*
Ed
 1e-07 1 1 0
1  1 0 1.75 14.75
2  1 1 4 1.75 14.75
2  2 2 7 1.75 14.75
4 C0 1 4 2 7
0

0101000
+138 0 -137 0 *
Ve
1e-07
17 23 -1
0 0

0101101
*
Ed
 1e-07 1 1 0
1  2 0 -19.75 -4.75
2  3 1 4 -19.75 -4.75
2  4 3 9 -19.75 -4.75
4 C0 1 4 3 9
0

0101000
+137 0 -135 0 *
Ve
1e-07
17 10 -1
0 0

0101101
*
Ed
 1e-07 1 1 0
1  3 0 -14.75 -1.75
2  5 1 4 -14.75 -1.75
2  6 4 11 -14.75 -1.75
4 C0 1 4 4 11
0

0101000
+135 0 -133 0 *
Ve
1e-07
0 10 -1
0 0

0101101
*
Ed
 1e-07 1 1 0
1  4 0 -4.5 12.5
2  7 1 4 -4.5 12.5
2  8 5 0 -4.5 12.5
4 G2 1 4 5 0
0

0101000
+133 0 -131 0 *
Ve
1e-07
0 50 -1
0 0

0101101
*
Ed
 1e-07 1 1 0
1  5 0 0 40
2  9 1 4 0 40
2  10 6 13 0 40
4 C0 1 4 6 13
0

0101000
+129 0 -131 0 *
Ve
1e-07
50 50 -1
0 0

0101101
*
Ed
 1e-07 1 1 0
1  6 0 0 50
2  11 1 4 0 50
2  12 7 15 0 50
4 C0 1 4 7 15
0

0101000
+127 0 -129 0 *
Ve
1.00000001332268e-07
50 10 -1
0 0

0101101
*
Ed
 1e-07 1 1 0
1  7 0 10 50
2  13 1 4 10 50
2  14 8 17 10 50
4 C0 1 4 8 17
0

0101000
+125 0 -127 0 *
Ed
 1e-07 1 1 0
1  8 0 -37.5 -19.5
2  15 1 4 -37.5 -19.5
2  16 9 0 -37.5 -19.5
4 G2 1 4 9 0
0

0101000
+125 0 -138 0 *
Wi

0101100
+136 5 +134 5 +132 5 +130 5 -128 5 -126 5 -124 5 +123 5 *
Fa
0  1e-07 1 0

0101000
-122 0 *
Ve
1.00000001776357e-07
32 10 4
0 0

0101101
*
Ed
 1e-07 1 1 0
1  9 0 0 5
2  17 2 7 0 5
2  18 10 0 0 5
4 G2 2 7 10 0
0

0101000
+138 0 -120 0 *
Ve
1e-07
32 23 4
0 0

0101101
*
Ed
 1e-07 1 1 0
1  10 0 -14.75 -1.75
2  19 2 7 -14.75 -1.75
2  20 11 20 -14.75 -1.75
4 C0 2 7 11 20
0

0101000
+118 0 -120 0 *
Ed
 1e-07 1 1 0
1  11 0 -5 0
2  21 2 7 -5 0
2  22 3 9 -5 0
4 C0 2 7 3 9
0

0101000
+118 0 -137 0 *
Wi

0101100
-119 18 +117 18 -116 18 +136 18 *
Fa
0  1e-07 2 2

0101000
+115 0 *
Ve
1e-07
17 23 4
0 0

0101101
*
Ed
 1e-07 1 1 0
1  12 0 4.75 19.75
2  23 3 9 4.75 19.75
2  24 11 20 4.75 19.75
4 C0 3 9 11 20
0

0101000
+113 0 -118 0 *
Ed
 1e-07 1 1 0
1  13 0 0 5
2  25 3 9 0 5
2  26 4 11 0 5
4 C0 3 9 4 11
0

0101000
+135 0 -113 0 *
Wi

0101100
-134 21 -116 21 -112 21 -111 21 *
Fa
0  1e-07 3 0

0101000
-110 0 *
Ve
1e-07
17 10 4
0 0

0101101
*
Ed
 1e-07 1 1 0
1  14 0 1.75 14.75
2  27 4 11 1.75 14.75
2  28 11 20 1.75 14.75
4 C0 4 11 11 20
0

0101000
+108 0 -113 0 *
Ed
 1e-07 1 1 0
1  15 0 0 5
2  29 4 11 0 5
2  30 12 0 0 5
4 G2 4 11 12 0
0

0101000
+108 0 -133 0 *
Wi

0101100
-111 22 +107 22 -106 22 +132 22 *
Fa
0  1e-07 4 2

0101000
+105 0 *
Ve
1.00000001332268e-07
50 10 4
0 0

0101101
*
Ed
 1e-07 1 1 0
1  16 0 -37.5 -19.5
2  31 11 20 -37.5 -19.5
2  32 13 0 -37.5 -19.5
4 G2 11 20 13 0
0

0101000
+103 0 -120 0 *
Ve
1e-07
50 50 4
0 0

0101101
*
Ed
 1e-07 1 1 0
1  17 0 -2.5 37.5
2  33 11 20 -2.5 37.5
2  34 8 17 -2.5 37.5
4 C0 11 20 8 17
0

0101000
+103 0 -101 0 *
Ve
1e-07
0 50 4
0 0

0101101
*
Ed
 1e-07 1 1 0
1  18 0 -37.5 12.5
2  35 11 20 -37.5 12.5
2  36 7 15 -37.5 12.5
4 C0 11 20 7 15
0

0101000
+101 0 -99 0 *
Ve
1e-07
0 10 4
0 0

0101101
*
Ed
 1e-07 1 1 0
1  19 0 -37.5 2.5
2  37 11 20 -37.5 2.5
2  38 6 13 -37.5 2.5
4 C0 11 20 6 13
0

0101000
+99 0 -97 0 *
Ed
 1e-07 1 1 0
1  20 0 -4.5 12.5
2  39 11 20 -4.5 12.5
2  40 14 0 -4.5 12.5
4 G2 11 20 14 0
0

0101000
+108 0 -97 0 *
Wi

0101100
+107 23 +112 23 +117 23 -102 23 +100 23 +98 23 +96 23 -95 23 *
Fa
0  1e-07 11 0

0101000
+94 0 *
Ed
 1e-07 1 1 0
1  21 0 -4 1
2  41 6 13 -4 1
2  42 7 15 -4 1
4 C0 6 13 7 15
0

0101000
+99 0 -129 0 *
Ed
 1e-07 1 1 0
1  22 0 0 5
2  43 6 13 0 5
2  44 15 0 0 5
4 G2 6 13 15 0
0

0101000
+131 0 -97 0 *
Wi

0101100
+92 24 -96 24 +91 24 +128 24 *
Fa
0  1e-07 6 2

0101000
+90 0 *
Ed
 1e-07 1 1 0
1  23 0 -4 1
2  45 7 15 -4 1
2  46 8 17 -4 1
4 C0 7 15 8 17
0

0101000
+101 0 -127 0 *
Wi

0101100
+126 25 -92 25 -98 25 +88 25 *
Fa
0  1e-07 7 0

0101000
+87 0 *
Ed
 1e-07 1 1 0
1  24 0 0 5
2  47 8 17 0 5
2  48 16 0 0 5
4 G2 8 17 16 0
0

0101000
+103 0 -125 0 *
Wi

0101100
+85 26 -100 26 -88 26 +124 26 *
Fa
0  1e-07 8 2

0101000
+84 0 *
Ve
1.0000000089509e-07
17 -0.406525665019331 -1
0 0

0101101
*
Ed
 1e-07 1 1 0
1  25 0 0 10.4065256650193
2  49 5 0 0 10.4065256650193
2  50 12 0 0 10.4065256650193
4 C0 5 0 12 0
0

0101000
+133 0 -82 0 *
Ve
1.00002369660024e-07
0 -0.406525665016961 -1
0 0

0101101
*
Ed
 1e-07 1 1 0
1  26 0 0 17
2  51 5 0 0 17
2  52 17 28 0 17
4 G2 5 0 17 28
0

0101000
+82 0 -80 0 *
Ed
 1e-07 1 1 0
1  27 0 0 10.4065256650193
2  53 5 0 0 10.4065256650193
2  54 15 0 0 10.4065256650193
4 C0 5 0 15 0
0

0101000
+80 0 -131 0 *
Wi

0101100
+81 0 +79 0 +78 0 -130 0 *
Fa
0  1e-07 5 0

0101000
+77 0 *
Ve
1.00000395239397e-07
17 -0.406525665019726 4
0 0

0101101
*
Ed
 1e-07 1 1 0
1  28 0 0 10.4065256650193
2  55 14 0 0 10.4065256650193
2  56 12 0 0 10.4065256650193
4 C0 14 0 12 0
0

0101000
+108 0 -75 0 *
Ve
1.00001184830012e-07
0 -0.406525665018146 4
0 0

0101101
*
Ed
 1e-07 1 1 0
1  29 0 0 17
2  57 14 0 0 17
2  58 18 30 0 17
4 G2 14 0 18 30
0

0101000
+75 0 -73 0 *
Ed
 1e-07 1 1 0
1  30 0 0 10.4065256650193
2  59 14 0 0 10.4065256650193
2  60 15 0 0 10.4065256650193
4 C0 14 0 15 0
0

0101000
+73 0 -97 0 *
Wi

0101100
+74 0 +72 0 +71 0 -95 0 *
Fa
0  1e-07 14 0

0101000
+70 0 *
Ed
 1e-07 1 1 0
1  31 0 0 5
2  61 12 0 0 5
2  62 4 32 0 5
4 G2 12 0 4 32
0

0101000
+82 0 -75 0 *
Wi

0101100
+81 0 +68 0 -74 0 +106 0 *
Fa
0  1e-07 12 0

0101000
+67 0 *
Ed
 1e-07 1 1 0
1  32 0 0 5
2  63 15 0 0 5
2  64 6 34 0 5
4 G2 15 0 6 34
0

0101000
+80 0 -73 0 *
Wi

0101100
-78 0 +65 0 +71 0 -91 0 *
Fa
0  1e-07 15 0

0101000
+64 0 *
Ve
1.00002025815833e-07
32 -8.40652566501538 -1.00000000000193
0 0

0101101
*
Ve
1.00000985881666e-07
31.9999999999998 -0.40652566501546 -0.999999999999997
0 0

0101101
*
Ed
 1e-07 1 1 0
1  33 0 -13 -5.00000000000008
2  65 17 28 -13 -5.00000000000008
2  66 2 37 -13 -5.00000000000008
4 C0 17 28 2 37
0

0101000
+62 0 -61 0 *
Ve
1.00000826894971e-07
50 -0.406525665015418 -0.999999999999999
0 0

0101101
*
Ed
 1e-07 1 1 0
1  34 0 19.4999999999998 37.5
2  67 17 28 19.4999999999998 37.5
2  68 9 0 19.4999999999998 37.5
4 CN 17 28 9 0
0

0101000
+61 0 -59 0 *
Ve
1.00009356968833e-07
50 -40.4065256650154 -1.00000000000964
0 0

0101101
*
Ed
 1e-07 1 1 0
1  35 0 5 45
2  69 17 28 5 45
2  70 8 39 5 45
4 C0 17 28 8 39
0

0101000
+59 0 -57 0 *
Ve
1e-07
0 -40.4065256650146 -1.00000000001897
0 0

0101101
*
Ed
 1e-07 1 1 0
1  36 0 -37.5 12.5
2  71 17 28 -37.5 12.5
2  72 19 41 -37.5 12.5
4 C0 17 28 19 41
0

0101000
+57 0 -55 0 *
Ed
 1e-07 1 1 0
1  37 0 5 45
2  73 17 28 5 45
2  74 6 34 5 45
4 C0 17 28 6 34
0

0101000
+80 0 -55 0 *
Ve
1e-07
17 -8.40652566501459 -1.00000000000379
0 0

0101101
*
Ed
 1e-07 1 1 0
1  38 0 5.00000000000474 13
2  75 17 28 5.00000000000474 13
2  76 4 32 5.00000000000474 13
4 C0 17 28 4 32
0

0101000
+82 0 -52 0 *
Ed
 1e-07 1 1 0
1  39 0 -7.75 7.25
2  77 17 28 -7.75 7.25
2  78 20 43 -7.75 7.25
4 C0 17 28 20 43
0

0101000
+52 0 -62 0 *
Wi

0101100
+60 35 +58 35 +56 35 +54 35 -53 35 -79 35 +51 35 +50 35 *
Fa
0  1e-07 17 0

0101000
+49 0 *
Ve
1e-07
17 -8.40652566501696 3.99999999999621
0 0

0101101
*
Ed
 1e-07 1 1 0
1  40 0 -13 -5.00000000000316
2  79 4 32 -13 -5.00000000000316
2  80 18 30 -13 -5.00000000000316
4 C0 4 32 18 30
0

0101000
+47 0 -75 0 *
Ed
 1e-07 1 1 0
1  41 0 -5 0
2  81 4 32 -5 0
2  82 20 43 -5 0
4 C0 4 32 20 43
0

0101000
+47 0 -52 0 *
Wi

0101100
-68 44 +46 44 -45 44 +51 44 *
Fa
0  1e-07 4 2

0101000
+44 0 *
Ve
1e-07
0 -40.406525665017 3.99999999998104
0 0

0101101
*
Ed
 1e-07 1 1 0
1  42 0 5 45
2  83 6 34 5 45
2  84 18 30 5 45
4 C0 6 34 18 30
0

0101000
+73 0 -42 0 *
Ed
 1e-07 1 1 0
1  43 0 0 5
2  85 6 34 0 5
2  86 19 41 0 5
4 C0 6 34 19 41
0

0101000
+42 0 -55 0 *
Wi

0101100
-65 45 -41 45 -40 45 +53 45 *
Fa
0  1e-07 6 2

0101000
+39 0 *
Ve
1.00009331621071e-07
50 -40.4065256650166 3.99999999999036
0 0

0101101
*
Ed
 1e-07 1 1 0
1  44 0 -37.5 12.5
2  87 18 30 -37.5 12.5
2  88 19 41 -37.5 12.5
4 C0 18 30 19 41
0

0101000
+37 0 -42 0 *
Ve
1.00000378373389e-07
50 -0.406525665016582 4
0 0

0101101
*
Ed
 1e-07 1 1 0
1  45 0 5 45
2  89 18 30 5 45
2  90 8 39 5 45
4 C0 18 30 8 39
0

0101000
+35 0 -37 0 *
Ve
1.00000585020849e-07
31.9999999999999 -0.406525665016635 4
0 0

0101101
*
Ed
 1e-07 1 1 0
1  46 0 19.4999999999998 37.5
2  91 18 30 19.4999999999998 37.5
2  92 13 0 19.4999999999998 37.5
4 CN 18 30 13 0
0

0101000
+33 0 -35 0 *
Ve
1.00001904796831e-07
32 -8.40652566501658 3.99999999999807
0 0

0101101
*
Ed
 1e-07 1 1 0
1  47 0 5.00000000000005 13
2  93 18 30 5.00000000000005 13
2  94 2 37 5.00000000000005 13
4 C0 18 30 2 37
0

0101000
+33 0 -31 0 *
Ed
 1e-07 1 1 0
1  48 0 -7.25 7.75
2  95 18 30 -7.25 7.75
2  96 20 43 -7.25 7.75
4 C0 18 30 20 43
0

0101000
+31 0 -47 0 *
Wi

0101100
+46 46 +72 46 +41 46 -36 46 -34 46 -32 46 +30 46 +29 46 *
Fa
0  1e-07 18 0

0101000
-28 0 *
Ed
 1e-07 1 1 0
1  49 0 -5 0
2  97 19 41 -5 0
2  98 8 39 -5 0
4 C0 19 41 8 39
0

0101000
+57 0 -37 0 *
Wi

0101100
+36 47 +40 47 -54 47 +26 47 *
Fa
0  1e-07 19 0

0101000
+25 0 *
Ed
 1e-07 1 1 0
1  50 0 -5 0
2  99 20 43 -5 0
2  100 2 37 -5 0
4 C0 20 43 2 37
0

0101000
+31 0 -62 0 *
Wi

0101100
-50 48 -45 48 -29 48 +23 48 *
Fa
0  1e-07 20 0

0101000
-22 0 *
Ed
 1e-07 1 1 0
1  51 0 0 10.4065256650162
2  101 9 0 0 10.4065256650162
2  102 10 0 0 10.4065256650162
4 C0 9 0 10 0
0

0101000
+138 0 -61 0 *
Ed
 1e-07 1 1 0
1  52 0 0 10.4065256650162
2  103 9 0 0 10.4065256650162
2  104 16 0 0 10.4065256650162
4 C0 9 0 16 0
0

0101000
+59 0 -125 0 *
Wi

0101100
+20 0 +58 0 +19 0 +123 0 *
Fa
0  1e-07 9 0

0101000
+18 0 *
Ed
 1e-07 1 1 0
1  53 0 0 10.4065256650162
2  105 13 0 0 10.4065256650162
2  106 10 0 0 10.4065256650162
4 C0 13 0 10 0
0

0101000
+120 0 -33 0 *
Ed
 1e-07 1 1 0
1  54 0 0 10.4065256650162
2  107 13 0 0 10.4065256650162
2  108 16 0 0 10.4065256650162
4 C0 13 0 16 0
0

0101000
+35 0 -103 0 *
Wi

0101100
+16 0 +32 0 +15 0 +102 0 *
Fa
0  1e-07 13 0

0101000
+14 0 *
Ed
 1e-07 1 1 0
1  55 0 0 5
2  109 10 0 0 5
2  110 2 37 0 5
4 CN 10 0 2 37
0

0101000
+61 0 -33 0 *
Wi

0101100
+20 0 +12 0 -16 0 -119 0 *
Fa
0  1e-07 10 0

0101000
+11 0 *
Ed
 1e-07 1 1 0
1  56 0 0 5
2  111 16 0 0 5
2  112 8 39 0 5
4 G2 16 0 8 39
0

0101000
+59 0 -35 0 *
Wi

0101100
-19 0 +9 0 +15 0 +85 0 *
Fa
0  1e-07 16 0

0101000
+8 0 *
Wi

0101100
+60 49 +23 49 +30 49 +12 49 *
Fa
0  1e-07 2 2

0101000
+6 0 *
Wi

0101100
-56 50 -26 50 +34 50 +9 50 *
Fa
0  1e-07 8 2

0101000
+4 0 *
Sh

0101100
-121 4 -114 6 -109 9 -104 10 +93 20 +89 12 +86 15 +83 16 +76 0 -69 0 
-66 0 +63 0 +48 28 -43 31 +38 33 -27 30 +24 41 -21 43 -17 0 +13 0 
+10 0 -7 0 -5 36 +3 38 *
So

1100000
+2 0 *

+1 1  