
CASCADE Topology V1, (c) Matra-Datavision
Locations 88
1
              1               0               0               0 
              0               1               0               0 
              0               0               1               0 
1
              1               0               0               0 
              0               1               0               0 
              0               0               1               0 
2  2 -1 0
1
            0.5               0 0.866025403784439 -1.29903810567666 
              0               1               0               0 
-0.866025403784439               0             0.5            0.75 
1
0.499999999999998               0 -0.86602540378444 0.513909594513476 
              0               1               0               0 
0.86602540378444               0 0.499999999999998 0.750000000000003 
2  4 1 5 1 0
1
0.499999999999998               0 -0.86602540378444 0.513909594513476 
              0               1               0               0 
0.86602540378444               0 0.499999999999998 0.750000000000003 
2  4 1 7 1 0
1
              1               0               0               0 
              0               1               0               0 
              0               0               1               0 
2  9 -1 0
1
0.499999999999998               0 -0.86602540378444 0.513909594513476 
              0               1               0               0 
0.86602540378444               0 0.499999999999998 0.750000000000003 
2  4 1 11 1 0
1
0.499999999999998               0 -0.86602540378444 0.513909594513476 
              0               1               0               0 
0.86602540378444               0 0.499999999999998 0.750000000000003 
2  4 1 13 1 0
2  5 -1 0
1
              1               0               0              -5 
              0               1               0              -0 
              0               0               1               0 
1
0.499999999999998               0 -0.86602540378444 0.513909594513476 
              0               1               0               0 
0.86602540378444               0 0.499999999999998 0.750000000000003 
2  16 1 4 1 17 1 0
2  7 -1 0
2  13 -1 0
2  11 -1 0
2  17 -1 4 -1 16 -1 0
1
              1               0               0               0 
              0 0.766044443118978 0.642787609686539 2.66094937365349 
              0 -0.642787609686539 0.766044443118978 6.31089831842488 
1
              1               0               0               0 
              0 0.766044443118978 -0.642787609686539 2.54158077140907 
              0 0.642787609686539 0.766044443118978 -6.54485387530591 
2  23 1 24 1 0
1
              1               0               0               0 
              0 0.766044443118978 -0.642787609686539 2.54158077140907 
              0 0.642787609686539 0.766044443118978 -6.54485387530591 
2  23 1 26 1 0
1
              1               0               0               0 
              0 0.766044443118978 -0.642787609686539 2.54158077140907 
              0 0.642787609686539 0.766044443118978 -6.54485387530591 
2  23 1 28 1 0
1
              1               0               0               0 
              0 0.766044443118978 -0.642787609686539 2.54158077140907 
              0 0.642787609686539 0.766044443118978 -6.54485387530591 
2  23 1 30 1 0
2  24 -1 0
1
              1               0               0              -0 
              0               1               0               5 
              0               0               1               0 
1
              1               0               0               0 
              0 0.766044443118978 -0.642787609686539 2.54158077140907 
              0 0.642787609686539 0.766044443118978 -6.54485387530591 
2  33 1 23 1 34 1 0
2  28 -1 0
2  30 -1 0
2  26 -1 0
2  34 -1 23 -1 33 -1 0
1
0.939692620785908               0 -0.342020143325669 1.11610400712942 
              0               1               0               0 
0.342020143325669               0 0.939692620785908 -3.32974036443555 
1
0.939692620785908               0 0.342020143325669 0.351753080873473 
              0               1               0               0 
-0.342020143325669               0 0.939692620785908 3.51066250207783 
2  40 1 41 1 0
1
0.939692620785908               0 0.342020143325669 0.351753080873473 
              0               1               0               0 
-0.342020143325669               0 0.939692620785908 3.51066250207783 
2  40 1 43 1 0
1
0.939692620785908               0 0.342020143325669 0.351753080873473 
              0               1               0               0 
-0.342020143325669               0 0.939692620785908 3.51066250207783 
2  40 1 45 1 0
1
0.939692620785908               0 0.342020143325669 0.351753080873473 
              0               1               0               0 
-0.342020143325669               0 0.939692620785908 3.51066250207783 
2  40 1 47 1 0
2  41 -1 0
1
              1               0               0               5 
              0               1               0               0 
              0               0               1              -0 
1
0.939692620785908               0 0.342020143325669 0.351753080873473 
              0               1               0               0 
-0.342020143325669               0 0.939692620785908 3.51066250207783 
2  50 1 40 1 51 1 0
2  45 -1 0
2  47 -1 0
2  43 -1 0
2  51 -1 40 -1 50 -1 0
1
              1               0               0               0 
              0 0.17364817766693 -0.984807753012208 -0.492403876506104 
              0 0.984807753012208 0.17364817766693 -0.413175911166535 
1
              1               0               0               0 
              0 0.173648177666934 0.984807753012207 -0.554434138378136 
              0 -0.984807753012207 0.173648177666934 -0.413175911166533 
2  57 1 58 1 0
1
              1               0               0               0 
              0 0.173648177666934 0.984807753012207 -0.554434138378136 
              0 -0.984807753012207 0.173648177666934 -0.413175911166533 
2  57 1 60 1 0
1
              1               0               0               0 
              0 0.173648177666934 0.984807753012207 -0.554434138378136 
              0 -0.984807753012207 0.173648177666934 -0.413175911166533 
2  57 1 62 1 0
2  58 -1 0
1
              1               0               0               0 
              0               1               0              -5 
              0               0               1              -0 
1
              1               0               0               0 
              0 0.173648177666934 0.984807753012207 -0.554434138378136 
              0 -0.984807753012207 0.173648177666934 -0.413175911166533 
2  65 1 57 1 66 1 0
2  62 -1 0
2  60 -1 0
2  66 -1 57 -1 65 -1 0
1
0.866025403784439 0.492403876506104 -0.0868240888334652 2.29633391773888 
-0.492403876506104 0.870065232173952 0.0229110052998225 4.67161582559142 
0.0868240888334652 0.0229110052998224 0.995960171610487 -0.823731913556418 
1
0.866025403784439 -0.492403876506104 0.0868240888334652 0.775722262153938 
1.76247905159244e-15 0.173648177666933 0.984807753012208 -0.554434138378155 
           -0.5 -0.852868531952442 0.150383733180439 4.84314105902134 
2  71 1 72 1 0
1
0.866025403784439 -0.492403876506104 0.0868240888334652 0.775722262153938 
1.76247905159244e-15 0.173648177666933 0.984807753012208 -0.554434138378155 
           -0.5 -0.852868531952442 0.150383733180439 4.84314105902134 
2  71 1 74 1 0
1
0.866025403784439 -0.492403876506104 0.0868240888334652 0.775722262153938 
1.76247905159244e-15 0.173648177666933 0.984807753012208 -0.554434138378155 
           -0.5 -0.852868531952442 0.150383733180439 4.84314105902134 
2  71 1 76 1 0
1
0.866025403784439 -0.492403876506104 0.0868240888334652 0.775722262153938 
1.76247905159244e-15 0.173648177666933 0.984807753012208 -0.554434138378155 
           -0.5 -0.852868531952442 0.150383733180439 4.84314105902134 
2  71 1 78 1 0
2  72 -1 0
1
              1               0               0               5 
              0               1               0               0 
              0               0               1              -0 
1
0.866025403784439 -0.492403876506104 0.0868240888334652 0.775722262153938 
1.76247905159244e-15 0.173648177666933 0.984807753012208 -0.554434138378155 
           -0.5 -0.852868531952442 0.150383733180439 4.84314105902134 
2  57 1 81 1 71 1 82 1 0
2  76 -1 0
2  78 -1 0
2  74 -1 0
2  81 1 71 1 82 1 0
2  82 -1 71 -1 81 -1 0
Curve2ds 184
1 0 0 0 1 
1 0.39256425558159203 -5 0 1 
1 0 10 1 0 
1 -5 -0.26170950372106105 1 0 
1 10 0 0 1 
1 0.13085475186053053 -5 0 1 
1 0 0 1 0 
1 5 0.52341900744212011 -1 0 
1 0.39256425558159203 5 -1 0 
1 -0.5 0.39256425558159197 0 -1 
1 -0.39256425558159191 5 0 -1 
8 0 10
1 10 0 -1 -0 
1 -0.39256425558159191 -5 1 0 
8 0 0.78512851116318394
1 -0.5 -0.39256425558159197 -0 1 
1 -0.5 -0.39256425558159197 1 0 
1 0 0 1 0 
1 0.39256425558159203 5 -1 0 
8 0 0.78512851116318394
1 0.5 0.39256425558159197 -0 -1 
1 0.5 0.39256425558159197 -1 0 
1 0.5 0.26170950372106105 -1 0 
1 0 0 0 1 
1 0.39256425558159203 -5 0 1 
1 0 10 1 0 
1 -5 -0.26170950372106105 1 0 
1 10 0 0 1 
1 0.13085475186053053 -5 0 1 
1 0 0 1 0 
1 5 0.52341900744212011 -1 0 
1 -0.39256425558159191 5 0 -1 
8 0 10
1 10 0 -1 -0 
1 -0.39256425558159191 -5 1 0 
1 0.5 -0.39256425558159197 0 1 
1 -0.5 -0.39256425558159197 1 0 
1 0 0 1 0 
1 0.5 0.39256425558159197 -1 0 
1 -0.5 -0.52341900744212022 1 0 
1 10 0 0 -1 
1 0 0 0 -1 
1 0 0 0 -1 
1 0 0 0 -1 
1 0 -5 1 0 
1 0 0 0 -1 
1 1 0 0 -1 
1 10 0 0 -1 
1 0 -5 1 0 
1 0 -10 1 0 
1 1 0 0 -1 
1 0 0 0 -1 
1 0 -5 1 0 
1 0 0 1 0 
1 0 -5 1 0 
1 1 0 0 -1 
1 5 -0.26170950372106105 0 1 
1 -0.5 0.26170950372106105 0 -1 
1 5 0.26170950372106105 -1 0 
8 0 10
1 10 0 -1 -0 
1 -5 0.26170950372106105 0 -1 
8 0 0.52341900744212211
1 -0.5 -0.26170950372106105 -0 1 
1 5 -0.26170950372106105 0 1 
8 0 0.52341900744212211
1 0.5 0.26170950372106105 -0 -1 
1 5 0.26170950372106105 -1 0 
8 0 10
1 10 0 -1 -0 
1 -5 0.26170950372106105 0 -1 
1 0.5 -0.26170950372106105 0 1 
1 -0.5 -0.26170950372106105 1 0 
1 0 0 1 0 
1 0.5 0.26170950372106105 -1 0 
1 -0.5 -0.13085475186053053 1 0 
1 -0.5 -0.26170950372106105 1 0 
1 0 0 1 0 
1 10 0 0 -1 
1 0 0 0 -1 
1 0 0 0 -1 
1 0 0 0 -1 
1 0 -5 1 0 
1 0 0 0 1 
1 1 0 0 -1 
1 10 0 0 -1 
1 0 -5 1 0 
1 0 10 1 0 
1 1 0 0 -1 
1 0 0 0 -1 
1 0 -5 1 0 
1 0 0 1 0 
1 0 -5 1 0 
1 1 0 0 1 
1 0.13085475186053053 5 -1 0 
1 0.5 -0.13085475186053053 0 1 
1 -0.13085475186053053 5 0 -1 
8 0 10
1 10 0 -1 -0 
1 -0.13085475186053053 -5 1 0 
8 0 0.26170950372106105
1 0.5 0.13085475186053053 -0 -1 
1 0.13085475186053053 5 -1 0 
8 0 0.26170950372106105
1 -0.5 -0.13085475186053053 -0 1 
1 -0.13085475186053053 5 0 -1 
8 0 10
1 10 0 -1 -0 
1 -0.13085475186053053 -5 1 0 
1 -0.5 0.13085475186053053 0 -1 
1 0.5 0.13085475186053053 -1 0 
1 0 0 1 0 
1 0.5 0.13085475186053053 -1 0 
1 0 0 1 0 
1 -0.5 -0.13085475186053053 1 0 
1 -0.5 -0.52341900744212022 1 0 
1 10 0 0 -1 
1 0 0 0 -1 
1 0 0 0 -1 
1 0 0 0 -1 
1 0 -5 1 0 
1 0 0 0 -1 
1 1 0 0 -1 
1 10 0 0 -1 
1 0 -5 1 0 
1 0 -10 1 0 
1 1 0 0 -1 
1 0 0 0 -1 
1 0 -5 1 0 
1 0 0 1 0 
1 0 -5 1 0 
1 1 0 0 -1 
1 -5 0.52341900744212011 0 -1 
1 0.5 -0.52341900744212022 0 1 
1 -5 -0.52341900744212011 1 0 
8 0 10
1 10 0 -1 -0 
1 5 -0.52341900744212011 0 1 
8 0 1.0468380148842402
1 0.5 0.52341900744212 -0 -1 
1 -5 0.52341900744212011 0 -1 
8 0 1.0468380148842402
1 -0.5 -0.52341900744212022 -0 1 
1 -5 -0.52341900744212011 1 0 
8 0 10
1 10 0 -1 -0 
1 5 -0.52341900744212011 0 1 
1 -0.5 0.52341900744212 0 -1 
1 0.5 0.52341900744212 -1 0 
8 0 1
1 0.49999999999999989 -0.1962821277907949 -1 -0 
1 0.5 0.52341900744212 -1 0 
1 0 0 1 0 
1 10 0 0 -1 
8 0 5
1 -2.5 0.1962821277907949 1 -0 
1 0 0 0 -1 
1 0 0 0 -1 
1 0 -5 1 0 
1 0 0 0 1 
1 1 0 0 -1 
1 0 0 0 -1 
1 0 -5 1 0 
1 0 0 1 0 
1 10 0 0 -1 
8 0 5
1 -2.5000000000000004 0.1962821277907949 1 -0 
1 0 -5 1 0 
1 1 0 0 1 
1 0 10 1 0 
8 0 1
1 0.5 -0.1962821277907949 -1 -0 
1 -2.5000000000000004 0.1962821277907949 0 -1 
1 0.49999999999999989 -0.1962821277907949 0 1 
1 -2.5000000000000004 -0.19628212779079668 1 0 
1 3.9231409502973252e-16 0 1 -4.3678577702115161e-18 
1 2.5 -0.19628212779079668 -0 1 
8 0 0.39256425558159158
1 0.5 0.19628212779079668 -0 -1 
1 -2.5000000000000009 0.1962821277907949 0 -1 
8 0 0.39256425558159158
1 -0.50000000000000011 -0.1962821277907949 -0 1 
1 -2.5000000000000009 -0.19628212779079668 1 0 
1 8.3124091661805568e-16 0 1 -4.3678577702115161e-18 
1 2.4999999999999996 -0.19628212779079668 -0 1 
1 -0.5 0.19628212779079668 0 -1 
1 0.49999999999999989 0.19628212779079668 -1 0 
1 3.3764628291855663e-16 0 1 -2.4771352362876567e-17 
1 0.5 0.19628212779079668 -1 0 
1 -1.7493699875576285e-15 0 1 -2.4771352362876567e-17 
1 0 0 0 -1 
1 0 0 0 -1 
1 5 0 0 -1 
1 0 0 0 -1 
1 0 -5 1 0 
1 0 0 0 -1 
1 0.99999999999999989 0 0 -1 
1 -2.7333906055587946e-17 0 0 -1 
1 0 -5 1 0 
1 0 0 1 0 
1 0.99999999999999989 0 0 -1 
1 5 0 0 -1 
1 0 -5 1 0 
1 0 -5 1 0 
1 0 -5 1 0 
1 1 0 0 -1 
Curves 92
1 0 0 0 -0 1 0 
1 0 10 0 1 0 -0 
1 10 0 0 -0 1 0 
1 0 0 0 1 0 -0 
1 0 10 0 -1 0 0 
1 -0.78512851116318394 10 0 0 -1 0 
1 -0.78512851116318394 0 0 1 0 0 
1 -0.78512851116318394 10 0 0 0 1 
1 0 10 1 -1 0 0 
1 0 10 1 0 0 -1 
1 0 0 1 -0 1 0 
1 0 10 1 1 0 -0 
1 10 0 1 -0 1 0 
1 0 0 1 1 0 -0 
1 -0.78512851116318394 10 1 0 -1 0 
1 -0.78512851116318394 0 1 1 0 0 
1 -0.78512851116318394 0 0 0 0 1 
1 0 0 1 0 0 -1 
1 -0.7851285111631815 10.000000000000002 -1.8873791418627661e-15 -1 0 -2.1094237467877974e-15 
1 -0.7851285111631815 0 -1.8873791418627661e-15 -1 0 -2.1094237467877974e-15 
1 -5.7851285111631823 0 -1.2434497875801755e-14 0 1 0 
1 -0.78512851116318361 10.000000000000002 0.99999999999999833 -1 0 -2.1094237467877974e-15 
1 -5.7851285111631823 10.000000000000002 -1.2434497875801755e-14 -2.1094237467877974e-15 0 1 
1 -0.78512851116318361 0 0.99999999999999833 -1 0 -2.1094237467877974e-15 
1 -5.7851285111631823 0 -1.2434497875801755e-14 -2.1094237467877974e-15 0 1 
1 -5.7851285111631841 0 0.99999999999998779 0 1 0 
1 10 10 0 0 1 0 
1 10 10.523419007442122 0 -1 0 0 
1 0 10.523419007442122 0 0 -1 0 
1 10 10 1 0 1 0 
1 10 10.523419007442122 1 -1 0 0 
1 0 10.523419007442122 1 0 -1 0 
1 10 10.523419007442122 0 0 0 1 
1 10 10 1 0 0 -1 
1 0 10.523419007442122 0 0 0 1 
1 9.9999999999999982 10.523419007442122 1.4432899320127027e-15 0 1 4.9960036108132044e-16 
1 0 10.523419007442122 1.4432899320127027e-15 0 1 4.9960036108132044e-16 
1 0 15.52341900744212 3.9412917374193041e-15 1 0 0 
1 9.9999999999999982 10.523419007442122 1.0000000000000011 0 1 4.9960036108132044e-16 
1 9.9999999999999982 15.52341900744212 3.9412917374193041e-15 0 -4.9960036108132044e-16 1 
1 0 10.523419007442122 1.0000000000000011 0 1 4.9960036108132044e-16 
1 0 15.52341900744212 3.9412917374193041e-15 0 -4.9960036108132044e-16 1 
1 0 15.52341900744212 1.0000000000000036 1 0 0 
1 10 10 0 1 0 0 
1 10.261709503721061 10 0 0 -1 0 
1 10.261709503721061 0 0 -1 0 0 
1 10 10 1 1 0 0 
1 10.261709503721061 10 1 0 -1 0 
1 10.261709503721061 0 1 -1 0 0 
1 10.261709503721061 10 0 0 0 1 
1 10.261709503721061 0 0 0 0 1 
1 10 0 1 0 0 -1 
1 10.261709503721059 9.9999999999999982 3.1086244689504379e-15 1 0 2.2204460492503131e-16 
1 10.261709503721059 0 3.1086244689504379e-15 1 0 2.2204460492503131e-16 
1 15.261709503721058 0 4.2188474935755949e-15 0 1 0 
1 10.261709503721059 9.9999999999999982 1.0000000000000029 1 0 2.2204460492503131e-16 
1 15.261709503721058 9.9999999999999982 4.2188474935755949e-15 -2.2204460492503131e-16 0 1 
1 10.261709503721059 0 1.0000000000000029 1 0 2.2204460492503131e-16 
1 15.261709503721058 0 4.2188474935755949e-15 -2.2204460492503131e-16 0 1 
1 15.261709503721058 0 1.000000000000004 0 1 0 
1 10 0 0 0 -1 0 
1 10 -1.0468380148842402 0 -1 0 0 
1 0 -1.0468380148842402 0 0 1 0 
1 10 0 1 0 -1 0 
1 10 -1.0468380148842402 1 -1 0 0 
1 0 -1.0468380148842402 1 0 1 0 
1 10 -1.0468380148842402 0 0 0 1 
1 0 -1.0468380148842402 0 0 0 1 
1 9.9999999999999982 -1.0468380148842422 -5.5511151231257827e-17 0 -1 -3.913536161803676e-15 
1 0 -1.0468380148842422 -5.5511151231257827e-17 0 -1 -3.913536161803676e-15 
1 0 -6.0468380148842424 -1.9623191960249639e-14 1 0 0 
1 0 -1.0468380148842462 1 0 -1 -3.913536161803676e-15 
1 0 -6.0468380148842424 -1.9623191960249639e-14 0 -3.913536161803676e-15 1 
1 9.9999999999999982 -1.0468380148842462 1 0 -1 -3.913536161803676e-15 
1 0 -6.046838014884246 0.99999999999998035 1 0 0 
1 9.9999999999999982 -6.0468380148842424 -1.9623191960249639e-14 0 -3.913536161803676e-15 1 
1 10 -1.046838014884242 2.2204460492503131e-16 1 0 0 
1 10.392564255581592 -1.046838014884242 2.2204460492503131e-16 0 -1 -3.5527136788005009e-15 
1 10.392564255581592 -6.0468380148842424 -1.7541523789077473e-14 -1 0 0 
1 10 -1.0468380148842455 1.0000000000000002 1 0 0 
1 10.392564255581592 -1.0468380148842455 1.0000000000000002 0 -1 -3.5527136788005009e-15 
1 10.392564255581592 -6.046838014884246 0.99999999999998246 -1 0 0 
1 10.392564255581592 -1.046838014884242 2.2204460492503131e-16 0 -3.5527136788005009e-15 1 
1 10.392564255581592 -6.0468380148842424 -1.7541523789077473e-14 0 -3.5527136788005009e-15 1 
1 10.392564255581593 -1.0468380148842416 1.1102230246251565e-16 1 4.163336342344337e-17 -3.4694469519536142e-16 
1 10.392564255581593 -6.0468380148842424 -1.7541523789077473e-14 1 4.163336342344337e-17 -3.4694469519536142e-16 
1 15.392564255581593 -1.0468380148842416 -1.6930901125533637e-15 3.4795105331041393e-17 -1 -3.913536161803676e-15 
1 10.392564255581593 -1.0468380148842449 1 1 4.163336342344337e-17 -3.4694469519536142e-16 
1 15.392564255581593 -1.0468380148842416 -1.6930901125533637e-15 3.5717083787356394e-16 -3.8580250105724182e-15 1 
1 10.392564255581593 -6.0468380148842469 0.99999999999998246 1 4.163336342344337e-17 -3.4694469519536142e-16 
1 15.392564255581593 -6.0468380148842424 -2.1260770921571748e-14 3.5717083787356394e-16 -3.8580250105724182e-15 1 
1 15.392564255581593 -1.0468380148842455 0.99999999999999856 3.4795105331041393e-17 -1 -3.913536161803676e-15 
Polygon3D 0
PolygonOnTriangulations 0
Surfaces 46
1 0 0 0 0 0 1 1 0 -0 -0 1 0 
1 -0.39256425558159203 5 0 0 0 1 1 0 -0 -0 1 0 
1 5 10.261709503721061 0 0 0 1 1 0 -0 -0 1 0 
1 10.130854751860531 5 0 -0 -0 -1 -1 0 0 0 1 -0 
1 5 -0.52341900744212011 0 -0 -0 -1 -1 0 0 0 1 -0 
1 -0.39256425558159197 9.9999999999999982 0.5 0 1 0 0 -0 1 1 0 -0 
1 0 0 0 -0 0 -1 0 1 0 1 0 -0 
1 -0.39256425558159197 0 0.5 0 1 0 0 -0 1 1 0 -0 
1 0 10 0 -0 1 0 0 0 1 1 0 -0 
1 -0.39256425558159203 5 1 0 0 1 1 0 -0 -0 1 0 
1 0 10.261709503721061 0.5 1 0 0 -0 0 1 0 -1 0 
1 0 0 1 0 0 1 1 0 -0 -0 1 0 
1 5 10.261709503721061 1 0 0 1 1 0 -0 -0 1 0 
1 10.130854751860531 5 1 -0 -0 -1 -1 0 0 0 1 -0 
1 5 -0.52341900744212011 1 -0 -0 -1 -1 0 0 0 1 -0 
1 0 0 1 -0 0 -1 0 1 0 1 0 -0 
1 0 0 0 -0 1 0 0 0 1 1 0 -0 
1 0 -0.52341900744212022 0.5 -1 -0 -0 0 0 -1 0 -1 0 
1 0 0 0 1 0 -0 0 0 1 0 -1 0 
1 10 10.261709503721061 0.5 1 0 0 -0 0 1 0 -1 0 
1 0 10 0 -0 0 -1 1 0 -0 0 -1 -0 
1 0 10 1 -0 0 -1 1 0 -0 0 -1 -0 
1 10 10 0 1 0 -0 0 0 1 0 -1 0 
1 10.130854751860531 10 0.5 -0 -1 -0 0 0 -1 1 -0 0 
1 0 10 0 1 0 -0 0 0 1 0 -1 0 
1 0 10 0 -0 1 0 0 0 1 1 0 -0 
1 10 0 0 0 0 1 -0 1 0 -1 -0 0 
1 10.130854751860531 0 0.5 -0 -1 -0 0 0 -1 1 -0 0 
1 10 0 1 0 0 1 -0 1 0 -1 -0 0 
1 10 10 0 0 -1 0 0 0 1 -1 0 0 
1 10 0 0 0 -1 0 0 0 1 -1 0 0 
1 10 -0.52341900744212022 0.5 -1 -0 -0 0 0 -1 0 -1 0 
1 10 0 0 1 0 -0 0 0 1 0 -1 0 
1 0 0 0 0 0 1 1 0 -0 -0 1 0 
1 0 0 1 0 0 1 1 0 -0 -0 1 0 
1 10.196282127790795 -1.0468380148842438 0.50000000000000011 -0 -1 -3.5527136788005009e-15 0 3.5527136788005009e-15 -1 1 -0 0 
1 0 0 0 -1 -0 0 0 0 1 -0 1 0 
1 10.196282127790795 -3.5468380148842424 -8.659739592076221e-15 -0 3.5527136788005001e-15 -1 0 -1 -3.5527136788005001e-15 -1 -0 0 
1 0 0 0 -0 1 0 0 0 1 1 0 -0 
1 10.196282127790795 -3.5468380148842464 0.99999999999999123 -0 3.5527136788005009e-15 -1 0 -1 -3.5527136788005009e-15 -1 -0 0 
1 10.196282127790795 -6.0468380148842442 0.49999999999998246 -0 -1 -3.5527136788005009e-15 0 3.5527136788005009e-15 -1 1 -0 0 
1 10 -0.49240387650610401 -0.41317591116653479 -0 0.98480775301220813 -0.17364817766693044 0 -0.17364817766693044 -0.98480775301220813 -1 -0 0 
1 10 -1.477211629518312 -0.23952773349960438 -0 0.98480775301220813 -0.17364817766693044 0 -0.17364817766693044 -0.98480775301220813 -1 -0 0 
1 10 -0.49240387650610401 -0.41317591116653479 0 -0.17364817766693044 -0.98480775301220813 0 -0.98480775301220813 0.17364817766693044 -1 -0 0 
1 10 -1.360644764840756 -5.3372146762275747 0 -0.17364817766693044 -0.98480775301220813 0 -0.98480775301220813 0.17364817766693044 -1 -0 0 
1 10 0 0 -1 -0 0 0 0 1 -0 1 0 
Triangulations 0

TShapes 234
Ve
1e-07
0 0 0
0 0

0101101
*
Ve
1e-07
0 10 0
0 0

0101101
*
Ed
 1e-07 1 1 0
1  1 0 0 10
2  1 1 2 0 10
2  2 2 0 0 10
4 CN 1 2 2 0
0

0101000
+234 0 -233 0 *
Ve
1e-07
10 10 0
0 0

0101101
*
Ed
 1e-07 1 1 0
1  2 0 0 10
2  3 1 2 0 10
2  4 3 0 0 10
4 CN 1 2 3 0
0

0101000
+233 0 -231 0 *
Ve
1e-07
10 0 0
0 0

0101101
*
Ed
 1e-07 1 1 0
1  3 0 0 10
2  5 1 2 0 10
2  6 4 0 0 10
4 G2 1 2 4 0
0

0101000
+229 0 -231 0 *
Ed
 1e-07 1 1 0
1  4 0 0 10
2  7 1 2 0 10
2  8 5 0 0 10
4 G2 1 2 5 0
0

0101000
+234 0 -229 0 *
Wi

0101100
-232 3 -230 3 +228 3 +227 3 *
Fa
0  1e-07 1 0

0101000
+226 0 *
Ve
1.00000001654392e-07
-0.785128511163183 10 -1.01157399362993e-15
0 0

0101101
*
Ed
 1e-07 1 1 0
1  5 0 0 0.785128511163184
2  9 2 0 0 0.785128511163184
2  10 6 0 0 0.785128511163184
4 C0 2 0 6 0
0

0101000
+233 0 -224 0 *
Ve
1.0000000166359e-07
-0.785128511163183 0 -1.00601188258435e-15
0 0

0101101
*
Ed
 1e-07 1 1 0
1  6 0 0 10
2  11 2 0 0 10
2  12 7 6 0 10
4 G2 2 0 7 6
0

0101000
+224 0 -222 0 *
Ed
 1e-07 1 1 0
1  7 0 0 0.785128511163184
2  13 2 0 0 0.785128511163184
2  14 8 0 0 0.785128511163184
4 C0 2 0 8 0
0

0101000
+222 0 -234 0 *
Wi

0101100
+223 0 +221 0 +220 0 +232 0 *
Fa
0  1e-07 2 0

0101000
+219 0 *
Ve
1.00000000785433e-07
-0.785128511163183 10 1
0 0

0101101
*
Ed
 1e-07 1 1 0
1  8 0 0 1
2  15 6 0 0 1
2  16 9 8 0 1
4 CN 6 0 9 8
0

0101000
+224 0 -217 0 *
Ve
1e-07
0 10 1
0 0

0101101
*
Ed
 1e-07 1 1 0
1  9 0 0 0.785128511163184
2  17 10 0 0 0.785128511163184
2  18 6 0 0 0.785128511163184
4 C0 6 0 10 0
0

0101000
+215 0 -217 0 *
Ed
 1e-07 1 1 0
1  10 0 0 1
2  19 6 0 0 1
2  20 11 0 0 1
4 C0 6 0 11 0
0

0101000
+215 0 -233 0 *
Wi

0101100
+223 0 +216 0 -214 0 +213 0 *
Fa
0  1e-07 6 0

0101000
+212 0 *
Ve
1e-07
0 0 1
0 0

0101101
*
Ed
 1e-07 1 1 0
1  11 0 0 10
2  21 12 9 0 10
2  22 10 0 0 10
4 CN 12 9 10 0
0

0101000
+210 0 -215 0 *
Ve
1e-07
10 10 1
0 0

0101101
*
Ed
 1e-07 1 1 0
1  12 0 0 10
2  23 12 9 0 10
2  24 13 0 0 10
4 CN 12 9 13 0
0

0101000
+215 0 -208 0 *
Ve
1e-07
10 0 1
0 0

0101101
*
Ed
 1e-07 1 1 0
1  13 0 0 10
2  25 12 9 0 10
2  26 14 0 0 10
4 G2 12 9 14 0
0

0101000
+206 0 -208 0 *
Ed
 1e-07 1 1 0
1  14 0 0 10
2  27 12 9 0 10
2  28 15 0 0 10
4 G2 12 9 15 0
0

0101000
+210 0 -206 0 *
Wi

0101100
-209 10 -207 10 +205 10 +204 10 *
Fa
0  1e-07 12 0

0101000
+203 0 *
Ve
1.00000000785433e-07
-0.785128511163183 0 1
0 0

0101101
*
Ed
 1e-07 1 1 0
1  15 0 0 10
2  29 10 0 0 10
2  30 16 12 0 10
4 G2 10 0 16 12
0

0101000
+217 0 -201 0 *
Ed
 1e-07 1 1 0
1  16 0 0 0.785128511163184
2  31 10 0 0 0.785128511163184
2  32 8 0 0 0.785128511163184
4 C0 10 0 8 0
0

0101000
+201 0 -210 0 *
Wi

0101100
+214 0 +200 0 +199 0 +209 0 *
Fa
0  1e-07 10 0

0101000
+198 0 *
Ed
 1e-07 1 1 0
1  17 0 0 1
2  33 8 0 0 1
2  34 17 14 0 1
4 CN 8 0 17 14
0

0101000
+222 0 -201 0 *
Ed
 1e-07 1 1 0
1  18 0 0 1
2  35 8 0 0 1
2  36 18 0 0 1
4 C0 8 0 18 0
0

0101000
+210 0 -234 0 *
Wi

0101100
-220 0 +196 0 +199 0 +195 0 *
Fa
0  1e-07 8 0

0101000
+194 0 *
Ve
1e-07
-5.78512851116318 10 -1.24344978758018e-14
0 0

0101101
*
Ed
 1e-07 1 1 0
1  19 0 0 5
2  37 7 6 0 5
2  38 9 8 0 5
4 C0 7 6 9 8
0

0101000
+224 0 -192 0 *
Ve
1e-07
-5.78512851116318 0 -1.24344978758018e-14
0 0

0101101
*
Ed
 1e-07 1 1 0
1  20 0 0 5
2  39 7 6 0 5
2  40 17 14 0 5
4 C0 7 6 17 14
0

0101000
+222 0 -190 0 *
Ed
 1e-07 1 1 0
1  21 0 0 10
2  41 7 6 0 10
2  42 19 18 0 10
4 C0 7 6 19 18
0

0101000
+190 0 -192 0 *
Wi

0101100
-191 15 +189 15 +221 15 +188 15 *
Fa
0  1e-07 7 4

0101000
+187 0 *
Ve
1e-07
-5.78512851116318 10 0.999999999999988
0 0

0101101
*
Ed
 1e-07 1 1 0
1  22 0 0 5
2  43 9 8 0 5
2  44 16 12 0 5
4 C0 9 8 16 12
0

0101000
+217 0 -185 0 *
Ed
 1e-07 1 1 0
1  23 0 0 1
2  45 9 8 0 1
2  46 19 18 0 1
4 C0 9 8 19 18
0

0101000
+192 0 -185 0 *
Wi

0101100
-184 19 +191 19 -216 19 +183 19 *
Fa
0  1e-07 9 4

0101000
+182 0 *
Ve
1e-07
-5.78512851116318 0 0.999999999999988
0 0

0101101
*
Ed
 1e-07 1 1 0
1  24 0 0 5
2  47 17 14 0 5
2  48 16 12 0 5
4 C0 17 14 16 12
0

0101000
+201 0 -180 0 *
Ed
 1e-07 1 1 0
1  25 0 0 1
2  49 17 14 0 1
2  50 19 18 0 1
4 C0 17 14 19 18
0

0101000
+190 0 -180 0 *
Wi

0101100
-179 20 +189 20 -196 20 +178 20 *
Fa
0  1e-07 17 4

0101000
+177 0 *
Ed
 1e-07 1 1 0
1  26 0 0 10
2  51 16 12 0 10
2  52 19 18 0 10
4 C0 16 12 19 18
0

0101000
+180 0 -185 0 *
Wi

0101100
-184 21 +179 21 +200 21 +175 21 *
Fa
0  1e-07 16 4

0101000
+174 0 *
Wi

0101100
-178 22 -175 22 +183 22 +188 22 *
Fa
0  1e-07 19 0

0101000
+172 0 *
Ve
1.00000015830618e-07
10 10.5234190074421 1.0210599556044e-14
0 0

0101101
*
Ed
 1e-07 1 1 0
1  27 0 0 0.523419007442122
2  53 3 0 0 0.523419007442122
2  54 20 0 0 0.523419007442122
4 C0 3 0 20 0
0

0101000
+231 0 -170 0 *
Ve
1.00000015830618e-07
0 10.5234190074421 1.0210599556044e-14
0 0

0101101
*
Ed
 1e-07 1 1 0
1  28 0 0 10
2  55 3 0 0 10
2  56 21 25 0 10
4 G2 3 0 21 25
0

0101000
+170 0 -168 0 *
Ed
 1e-07 1 1 0
1  29 0 0 0.523419007442122
2  57 3 0 0 0.523419007442122
2  58 11 0 0 0.523419007442122
4 C0 3 0 11 0
0

0101000
+168 0 -233 0 *
Wi

0101100
+169 0 +167 0 +166 0 +230 0 *
Fa
0  1e-07 3 0

0101000
+165 0 *
Ve
1.00000005606626e-07
10 10.5234190074421 0.999999999999997
0 0

0101101
*
Ed
 1e-07 1 1 0
1  30 0 0 0.523419007442122
2  59 13 0 0 0.523419007442122
2  60 20 0 0 0.523419007442122
4 C0 13 0 20 0
0

0101000
+208 0 -163 0 *
Ve
1.0000000594546e-07
0 10.5234190074421 0.999999999999997
0 0

0101101
*
Ed
 1e-07 1 1 0
1  31 0 0 10
2  61 13 0 0 10
2  62 22 27 0 10
4 G2 13 0 22 27
0

0101000
+163 0 -161 0 *
Ed
 1e-07 1 1 0
1  32 0 0 0.523419007442122
2  63 13 0 0 0.523419007442122
2  64 11 0 0 0.523419007442122
4 C0 13 0 11 0
0

0101000
+161 0 -215 0 *
Wi

0101100
+162 0 +160 0 +159 0 +207 0 *
Fa
0  1e-07 13 0

0101000
+158 0 *
Ed
 1e-07 1 1 0
1  33 0 0 1
2  65 20 0 0 1
2  66 23 29 0 1
4 CN 20 0 23 29
0

0101000
+170 0 -163 0 *
Ed
 1e-07 1 1 0
1  34 0 0 1
2  67 20 0 0 1
2  68 24 0 0 1
4 C0 20 0 24 0
0

0101000
+208 0 -231 0 *
Wi

0101100
+169 0 +156 0 -162 0 +155 0 *
Fa
0  1e-07 20 0

0101000
+154 0 *
Ed
 1e-07 1 1 0
1  35 0 0 1
2  69 11 0 0 1
2  70 25 31 0 1
4 CN 11 0 25 31
0

0101000
+168 0 -161 0 *
Wi

0101100
-166 0 +152 0 +159 0 +213 0 *
Fa
0  1e-07 11 0

0101000
+151 0 *
Ve
1e-07
10 15.5234190074421 3.9412917374193e-15
0 0

0101101
*
Ed
 1e-07 1 1 0
1  36 0 0 5
2  71 21 25 0 5
2  72 23 29 0 5
4 C0 21 25 23 29
0

0101000
+170 0 -149 0 *
Ve
1e-07
0 15.5234190074421 3.9412917374193e-15
0 0

0101101
*
Ed
 1e-07 1 1 0
1  37 0 0 5
2  73 21 25 0 5
2  74 25 31 0 5
4 C0 21 25 25 31
0

0101000
+168 0 -147 0 *
Ed
 1e-07 1 1 0
1  38 0 0 10
2  75 21 25 0 10
2  76 26 35 0 10
4 C0 21 25 26 35
0

0101000
+147 0 -149 0 *
Wi

0101100
-148 32 +146 32 +167 32 +145 32 *
Fa
0  1e-07 21 23

0101000
+144 0 *
Ve
1e-07
10 15.5234190074421 1
0 0

0101101
*
Ed
 1e-07 1 1 0
1  39 0 0 5
2  77 23 29 0 5
2  78 22 27 0 5
4 C0 23 29 22 27
0

0101000
+163 0 -142 0 *
Ed
 1e-07 1 1 0
1  40 0 0 1
2  79 23 29 0 1
2  80 26 35 0 1
4 C0 23 29 26 35
0

0101000
+149 0 -142 0 *
Wi

0101100
-141 36 +148 36 -156 36 +140 36 *
Fa
0  1e-07 23 23

0101000
+139 0 *
Ve
1e-07
0 15.5234190074421 1
0 0

0101101
*
Ed
 1e-07 1 1 0
1  41 0 0 5
2  81 25 31 0 5
2  82 22 27 0 5
4 C0 25 31 22 27
0

0101000
+161 0 -137 0 *
Ed
 1e-07 1 1 0
1  42 0 0 1
2  83 25 31 0 1
2  84 26 35 0 1
4 C0 25 31 26 35
0

0101000
+147 0 -137 0 *
Wi

0101100
-136 37 +146 37 -152 37 +135 37 *
Fa
0  1e-07 25 23

0101000
+134 0 *
Ed
 1e-07 1 1 0
1  43 0 0 10
2  85 22 27 0 10
2  86 26 35 0 10
4 C0 22 27 26 35
0

0101000
+137 0 -142 0 *
Wi

0101100
-141 38 +136 38 +160 38 +132 38 *
Fa
0  1e-07 22 23

0101000
+131 0 *
Wi

0101100
-145 39 -140 39 +132 39 +135 39 *
Fa
0  1e-07 26 0

0101000
+129 0 *
Ve
1.00000002097039e-07
10.2617095037211 10 7.34924967119787e-16
0 0

0101101
*
Ed
 1e-07 1 1 0
1  44 0 0 0.261709503721061
2  87 4 0 0 0.261709503721061
2  88 24 0 0 0.261709503721061
4 C0 4 0 24 0
0

0101000
+231 0 -127 0 *
Ve
1.00000002097039e-07
10.2617095037211 0 7.34924967119787e-16
0 0

0101101
*
Ed
 1e-07 1 1 0
1  45 0 0 10
2  89 4 0 0 10
2  90 27 42 0 10
4 G2 4 0 27 42
0

0101000
+127 0 -125 0 *
Ed
 1e-07 1 1 0
1  46 0 0 0.261709503721061
2  91 4 0 0 0.261709503721061
2  92 28 0 0 0.261709503721061
4 C0 4 0 28 0
0

0101000
+125 0 -229 0 *
Wi

0101100
+126 0 +124 0 +123 0 +228 0 *
Fa
0  1e-07 4 0

0101000
+122 0 *
Ve
1.00000018182811e-07
10.261709503721 10 1.00000000000001
0 0

0101101
*
Ed
 1e-07 1 1 0
1  47 0 0 0.261709503721061
2  93 14 0 0 0.261709503721061
2  94 24 0 0 0.261709503721061
4 C0 14 0 24 0
0

0101000
+208 0 -120 0 *
Ve
1.00000018182811e-07
10.261709503721 0 1.00000000000001
0 0

0101101
*
Ed
 1e-07 1 1 0
1  48 0 0 10
2  95 14 0 0 10
2  96 29 44 0 10
4 G2 14 0 29 44
0

0101000
+120 0 -118 0 *
Ed
 1e-07 1 1 0
1  49 0 0 0.261709503721061
2  97 14 0 0 0.261709503721061
2  98 28 0 0 0.261709503721061
4 C0 14 0 28 0
0

0101000
+118 0 -206 0 *
Wi

0101100
+119 0 +117 0 +116 0 +205 0 *
Fa
0  1e-07 14 0

0101000
+115 0 *
Ed
 1e-07 1 1 0
1  50 0 0 1
2  99 24 0 0 1
2  100 30 46 0 1
4 G2 24 0 30 46
0

0101000
+127 0 -120 0 *
Wi

0101100
+126 0 +113 0 -119 0 +155 0 *
Fa
0  1e-07 24 0

0101000
+112 0 *
Ed
 1e-07 1 1 0
1  51 0 0 1
2  101 28 0 0 1
2  102 31 48 0 1
4 G2 28 0 31 48
0

0101000
+125 0 -118 0 *
Ed
 1e-07 1 1 0
1  52 0 0 1
2  103 28 0 0 1
2  104 32 0 0 1
4 C0 28 0 32 0
0

0101000
+206 0 -229 0 *
Wi

0101100
-123 0 +110 0 +116 0 +109 0 *
Fa
0  1e-07 28 0

0101000
+108 0 *
Ve
1e-07
15.2617095037211 10 4.21884749357559e-15
0 0

0101101
*
Ed
 1e-07 1 1 0
1  53 0 0 5
2  105 27 42 0 5
2  106 30 46 0 5
4 C0 27 42 30 46
0

0101000
+127 0 -106 0 *
Ve
1e-07
15.2617095037211 0 4.21884749357559e-15
0 0

0101101
*
Ed
 1e-07 1 1 0
1  54 0 0 5
2  107 27 42 0 5
2  108 31 48 0 5
4 C0 27 42 31 48
0

0101000
+125 0 -104 0 *
Ed
 1e-07 1 1 0
1  55 0 0 10
2  109 27 42 0 10
2  110 33 52 0 10
4 C0 27 42 33 52
0

0101000
+104 0 -106 0 *
Wi

0101100
-105 49 +103 49 +124 49 +102 49 *
Fa
0  1e-07 27 40

0101000
+101 0 *
Ve
1e-07
15.2617095037211 10 1
0 0

0101101
*
Ed
 1e-07 1 1 0
1  56 0 0 5
2  111 30 46 0 5
2  112 29 44 0 5
4 C0 30 46 29 44
0

0101000
+120 0 -99 0 *
Ed
 1e-07 1 1 0
1  57 0 0 1
2  113 30 46 0 1
2  114 33 52 0 1
4 C0 30 46 33 52
0

0101000
+106 0 -99 0 *
Wi

0101100
-98 53 +105 53 -113 53 +97 53 *
Fa
0  1e-07 30 40

0101000
+96 0 *
Ve
1e-07
15.2617095037211 0 1
0 0

0101101
*
Ed
 1e-07 1 1 0
1  58 0 0 5
2  115 31 48 0 5
2  116 29 44 0 5
4 C0 31 48 29 44
0

0101000
+118 0 -94 0 *
Ed
 1e-07 1 1 0
1  59 0 0 1
2  117 31 48 0 1
2  118 33 52 0 1
4 C0 31 48 33 52
0

0101000
+104 0 -94 0 *
Wi

0101100
-93 54 +103 54 -110 54 +92 54 *
Fa
0  1e-07 31 40

0101000
+91 0 *
Ed
 1e-07 1 1 0
1  60 0 0 10
2  119 29 44 0 10
2  120 33 52 0 10
4 C0 29 44 33 52
0

0101000
+94 0 -99 0 *
Wi

0101100
-98 55 +93 55 +117 55 +89 55 *
Fa
0  1e-07 29 40

0101000
+88 0 *
Wi

0101100
-92 56 -89 56 +97 56 +102 56 *
Fa
0  1e-07 33 0

0101000
+86 0 *
Ve
1.00000001114025e-07
10 -1.04683801488424 -3.09332107049561e-17
0 0

0101101
*
Ed
 1e-07 1 1 0
1  61 0 0 1.04683801488424
2  121 5 0 0 1.04683801488424
2  122 32 0 0 1.04683801488424
4 C0 5 0 32 0
0

0101000
+229 0 -84 0 *
Ve
1.00000001115711e-07
0 -1.04683801488424 -3.0979838188703e-17
0 0

0101101
*
Ed
 1e-07 1 1 0
1  62 0 0 10
2  123 5 0 0 10
2  124 34 59 0 10
4 G2 5 0 34 59
0

0101000
+84 0 -82 0 *
Ed
 1e-07 1 1 0
1  63 0 0 1.04683801488424
2  125 5 0 0 1.04683801488424
2  126 18 0 0 1.04683801488424
4 C0 5 0 18 0
0

0101000
+82 0 -234 0 *
Wi

0101100
+83 0 +81 0 +80 0 +227 0 *
Fa
0  1e-07 5 0

0101000
+79 0 *
Ve
1.00000002816851e-07
10 -1.04683801488424 0.999999999999999
0 0

0101101
*
Ed
 1e-07 1 1 0
1  64 0 0 1.04683801488424
2  127 15 0 0 1.04683801488424
2  128 32 0 0 1.04683801488424
4 C0 15 0 32 0
0

0101000
+206 0 -77 0 *
Ve
1.00000002569972e-07
0 -1.04683801488424 0.999999999999999
0 0

0101101
*
Ed
 1e-07 1 1 0
1  65 0 0 10
2  129 15 0 0 10
2  130 35 61 0 10
4 G2 15 0 35 61
0

0101000
+77 0 -75 0 *
Ed
 1e-07 1 1 0
1  66 0 0 1.04683801488424
2  131 15 0 0 1.04683801488424
2  132 18 0 0 1.04683801488424
4 C0 15 0 18 0
0

0101000
+75 0 -210 0 *
Wi

0101100
+76 0 +74 0 +73 0 +204 0 *
Fa
0  1e-07 15 0

0101000
+72 0 *
Ed
 1e-07 1 1 0
1  67 0 0 1
2  133 32 0 0 1
2  134 36 0 0 1
4 C0 32 0 36 0
0

0101000
+84 0 -77 0 *
Wi

0101100
+83 0 +70 0 -76 0 +109 0 *
Fa
0  1e-07 32 0

0101000
+69 0 *
Ed
 1e-07 1 1 0
1  68 0 0 1
2  135 18 0 0 1
2  136 37 63 0 1
4 G2 18 0 37 63
0

0101000
+82 0 -75 0 *
Wi

0101100
-80 0 +67 0 +73 0 +195 0 *
Fa
0  1e-07 18 0

0101000
+66 0 *
Ve
1.00000001713556e-07
10 -6.04683801488424 -1.8756909737763e-14
0 0

0101101
*
Ed
 1e-07 1 1 0
1  69 0 0 5
2  137 34 59 0 5
2  138 38 0 0 5
4 CN 34 59 38 0
0

0101000
+84 0 -64 0 *
Ve
1e-07
0 -6.04683801488424 -1.96231919602496e-14
0 0

0101101
*
Ed
 1e-07 1 1 0
1  70 0 0 5
2  139 34 59 0 5
2  140 37 63 0 5
4 C0 34 59 37 63
0

0101000
+82 0 -62 0 *
Ed
 1e-07 1 1 0
1  71 0 0 10
2  141 34 59 0 10
2  142 39 67 0 10
4 C0 34 59 39 67
0

0101000
+62 0 -64 0 *
Wi

0101100
-63 64 +61 64 +81 64 +60 64 *
Fa
0  1e-07 34 57

0101000
+59 0 *
Ve
1e-07
0 -6.04683801488425 0.99999999999998
0 0

0101101
*
Ed
 1e-07 1 1 0
1  72 0 0 5
2  143 37 63 0 5
2  144 35 61 0 5
4 C0 37 63 35 61
0

0101000
+75 0 -57 0 *
Ed
 1e-07 1 1 0
1  73 0 0 1
2  145 37 63 0 1
2  146 39 67 0 1
4 C0 37 63 39 67
0

0101000
+62 0 -57 0 *
Wi

0101100
-56 68 +61 68 -67 68 +55 68 *
Fa
0  1e-07 37 57

0101000
+54 0 *
Ve
1.00000001708483e-07
10 -6.04683801488425 0.999999999999981
0 0

0101101
*
Ed
 1e-07 1 1 0
1  74 0 0 5
2  147 35 61 0 5
2  148 40 0 0 5
4 CN 35 61 40 0
0

0101000
+77 0 -52 0 *
Ed
 1e-07 1 1 0
1  75 0 0 10
2  149 35 61 0 10
2  150 39 67 0 10
4 C0 35 61 39 67
0

0101000
+57 0 -52 0 *
Wi

0101100
-51 69 +56 69 +74 69 +50 69 *
Fa
0  1e-07 35 57

0101000
+49 0 *
Ed
 1e-07 1 1 0
1  76 0 0 1
2  151 39 67 0 1
2  152 41 0 0 1
4 G2 39 67 41 0
0

0101000
+64 0 -52 0 *
Wi

0101100
-60 70 -47 70 +50 70 +55 70 *
Fa
0  1e-07 39 0

0101000
+46 0 *
Ve
1.00000001817311e-07
10.3925642555816 -1.04683801488424 3.26607065837502e-18
0 0

0101101
*
Ed
 1e-07 1 1 0
1  77 0 0 0.392564255581592
2  153 38 0 0 0.392564255581592
2  154 36 0 0 0.392564255581592
4 C0 38 0 36 0
0

0101000
+84 0 -44 0 *
Ve
1.00000003306965e-07
10.3925642555816 -6.04683801488424 -1.88673757528516e-14
0 0

0101101
*
Ed
 1e-07 1 1 0
1  78 0 0 5
2  155 38 0 0 5
2  156 42 73 0 5
4 CN 38 0 42 73
0

0101000
+44 0 -42 0 *
Ed
 1e-07 1 1 0
1  79 0 0 0.392564255581592
2  157 38 0 0 0.392564255581592
2  158 41 0 0 0.392564255581592
4 C0 38 0 41 0
0

0101000
+42 0 -64 0 *
Wi

0101100
+43 0 +41 0 +40 0 -63 0 *
Fa
0  1e-07 38 0

0101000
+39 0 *
Ve
1.00000003416942e-07
10.3925642555816 -1.04683801488425 0.999999999999998
0 0

0101101
*
Ed
 1e-07 1 1 0
1  80 0 0 0.392564255581592
2  159 40 0 0 0.392564255581592
2  160 36 0 0 0.392564255581592
4 C0 40 0 36 0
0

0101000
+77 0 -37 0 *
Ve
1.00000002864455e-07
10.3925642555816 -6.04683801488425 0.999999999999984
0 0

0101101
*
Ed
 1e-07 1 1 0
1  81 0 0 5
2  161 40 0 0 5
2  162 43 75 0 5
4 CN 40 0 43 75
0

0101000
+37 0 -35 0 *
Ed
 1e-07 1 1 0
1  82 0 0 0.392564255581592
2  163 40 0 0 0.392564255581592
2  164 41 0 0 0.392564255581592
4 C0 40 0 41 0
0

0101000
+35 0 -52 0 *
Wi

0101100
+36 0 +34 0 +33 0 -51 0 *
Fa
0  1e-07 40 0

0101000
+32 0 *
Ed
 1e-07 1 1 0
1  83 0 0 1
2  165 36 0 0 1
2  166 44 77 0 1
4 G2 36 0 44 77
0

0101000
+44 0 -37 0 *
Wi

0101100
+43 0 +30 0 -36 0 -70 0 *
Fa
0  1e-07 36 0

0101000
+29 0 *
Ed
 1e-07 1 1 0
1  84 0 0 1
2  167 41 0 0 1
2  168 45 79 0 1
4 G2 41 0 45 79
0

0101000
+42 0 -35 0 *
Wi

0101100
-40 0 +27 0 +33 0 -47 0 *
Fa
0  1e-07 41 0

0101000
+26 0 *
Ve
1.00000000228878e-07
15.3925642555816 -1.04683801488424 -1.66533453693773e-15
0 0

0101101
*
Ed
 1e-07 1 1 0
1  85 0 0 5
2  169 42 73 0 5
2  170 44 77 0 5
4 C0 42 73 44 77
0

0101000
+44 0 -24 0 *
Ve
1e-07
15.3925642555816 -6.04683801488424 -2.12607709215717e-14
0 0

0101101
*
Ed
 1e-07 1 1 0
1  86 0 0 5
2  171 42 73 0 5
2  172 45 79 0 5
4 C0 42 73 45 79
0

0101000
+42 0 -22 0 *
Ed
 1e-07 1 1 0
1  87 0 0 5
2  173 42 73 0 5
2  174 46 83 0 5
4 C0 42 73 46 83
0

0101000
+24 0 -22 0 *
Wi

0101100
+23 80 -21 80 -41 80 +20 80 *
Fa
0  1e-07 42 71

0101000
+19 0 *
Ve
1.00000000256634e-07
15.3925642555816 -1.04683801488424 0.999999999999996
0 0

0101101
*
Ed
 1e-07 1 1 0
1  88 0 0 5
2  175 44 77 0 5
2  176 43 75 0 5
4 C0 44 77 43 75
0

0101000
+37 0 -17 0 *
Ed
 1e-07 1 1 0
1  89 0 0 1
2  177 44 77 0 1
2  178 46 83 0 1
4 C0 44 77 46 83
0

0101000
+24 0 -17 0 *
Wi

0101100
+23 84 -16 84 -30 84 +15 84 *
Fa
0  1.00000000228878e-07 44 71

0101000
+14 0 *
Ve
1e-07
15.3925642555816 -6.04683801488425 0.999999999999979
0 0

0101101
*
Ed
 1e-07 1 1 0
1  90 0 0 5
2  179 45 79 0 5
2  180 43 75 0 5
4 C0 45 79 43 75
0

0101000
+35 0 -12 0 *
Ed
 1e-07 1 1 0
1  91 0 0 1
2  181 45 79 0 1
2  182 46 83 0 1
4 C0 45 79 46 83
0

0101000
+22 0 -12 0 *
Wi

0101100
-11 85 +21 85 -27 85 +10 85 *
Fa
0  1e-07 45 71

0101000
+9 0 *
Ed
 1e-07 1 1 0
1  92 0 0 5
2  183 43 75 0 5
2  184 46 83 0 5
4 C0 43 75 46 83
0

0101000
+17 0 -12 0 *
Wi

0101100
+16 86 -11 86 -34 86 +7 86 *
Fa
0  1e-07 43 71

0101000
+6 0 *
Wi

0101100
-7 88 +20 88 -15 88 +10 88 *
Fa
0  1e-07 46 57

0101000
+4 0 *
Sh

0101100
-225 2 -218 0 +211 0 +202 9 +197 0 -193 0 +186 5 +181 7 -176 13 -173 11 
-171 18 -164 0 +157 0 +153 0 -150 0 +143 24 +138 28 -133 30 -130 26 +128 35 
+121 0 -114 0 -111 0 +107 0 -100 41 -95 45 +90 47 +87 43 +85 52 +78 0 
-71 0 -68 0 +65 0 -58 58 +53 62 +48 60 -45 67 +38 0 -31 0 -28 0 
+25 0 +18 72 -13 76 +8 78 -5 74 -3 87 *
So

1100000
+2 0 *

+1 1  