
CASCADE Topology V1, (c) Matra-Datavision
Locations 41
1
              1               0               0               0 
              0               1               0               0 
              0               0               1               0 
1
0.707106781186548               0 -0.707106781186548 3.98959235991435 
              0               1               0               0 
0.707106781186548               0 0.707106781186548 -6.6317279836453 
2  2 -1 0
1
              1               0               0               5 
              0               1               0               0 
              0               0               1              -0 
2  4 1 2 1 0
1
0.707106781186548               0 -0.707106781186548 3.98959235991435 
              0               1               0               0 
0.707106781186548               0 0.707106781186548 -6.6317279836453 
2  6 -1 0
2  4 -1 0
2  2 -1 4 -1 0
2  2 1 6 -1 0
1
              1               0               0               0 
              0               1               0              30 
              0               0               1               0 
1
              1               0               0               0 
              0               1               0               0 
              0               0               1               0 
2  11 1 12 1 0
2  12 -1 11 -1 0
1
              1               0               0               0 
              0               1               0               0 
              0               0               1               0 
2  11 1 15 1 0
1
              1               0               0               0 
              0               1               0               0 
              0               0               1               0 
1
              1               0               0               0 
              0               1               0               0 
              0               0               1               0 
2  15 -1 11 -1 0
1
              1               0               0               0 
              0               1               0               0 
              0               0               1               0 
2  11 1 20 1 0
2  17 -1 0
2  20 -1 11 -1 0
2  18 -1 0
1
0.707106781186548               0 -0.707106781186548 3.98959235991435 
              0               1               0               0 
0.707106781186548               0 0.707106781186548 -6.6317279836453 
1
0.707106781186548               0 0.707106781186547 2.45711839972709 
              0               1               0               0 
-0.707106781186547               0 0.707106781186548 7.51040764008565 
2  25 1 11 1 26 1 0
1
0.707106781186548               0 0.707106781186547 2.45711839972709 
              0               1               0               0 
-0.707106781186547               0 0.707106781186548 7.51040764008565 
1
0.707106781186548               0 0.707106781186547 2.45711839972709 
              0               1               0               0 
-0.707106781186547               0 0.707106781186548 7.51040764008565 
1
0.707106781186548               0 0.707106781186547 2.45711839972709 
              0               1               0               0 
-0.707106781186547               0 0.707106781186548 7.51040764008565 
2  25 1 11 1 30 1 0
2  11 1 26 1 0
2  26 -1 11 -1 0
1
              1               0               0               5 
              0               1               0               0 
              0               0               1              -0 
1
0.707106781186548               0 0.707106781186547 2.45711839972709 
              0               1               0               0 
-0.707106781186547               0 0.707106781186548 7.51040764008565 
2  34 1 25 1 11 1 35 1 0
2  28 -1 0
2  29 -1 0
2  11 1 30 1 0
2  30 -1 11 -1 0
2  35 -1 11 -1 25 -1 34 -1 0
Curve2ds 130
1 0 0 1 0 
1 0 0 1 0 
1 0 0 1 0 
1 1 0 0 -1 
1 0 0 0 1 
1 0 -10 1 0 
1 0 0 1 0 
1 0 0 1 0 
1 0 0 0 -1 
1 0 0 0 1 
1 0 0 0 1 
1 0 0 1 0 
1 0 0 0 1 
1 1 0 0 1 
1 0 0 1 0 
1 1 0 0 1 
2 0 0 1 0 -0 1 0.5
1 0 0 1 0 
2 1.5 10 -1 0 0 1 0.5
2 1.5 10 -1 0 0 1 0.5
1 1.1464466094067269 10.35355339059328 0.70710678118654757 0.70710678118654757 
1 0 0 0 -1 
1 1.1464466094067269 10.35355339059328 0.70710678118654757 0.70710678118654757 
1 0 0 1 0 
1 0 10 1 0 
1 1.5 0 -1 0 
1 1.060660171779821 1.060660171779821 -0.70710678118654757 -0.70710678118654757 
1 3.9748737341529186 14.596194077712568 0.70710678118654757 -0.70710678118654757 
1 3.9748737341529186 14.596194077712568 0.70710678118654757 -0.70710678118654757 
1 0.43933982822017903 11.06066017177983 0.70710678118654757 0.70710678118654757 
1 0 0 0 -1 
1 0.43933982822017903 11.06066017177983 0.70710678118654757 0.70710678118654757 
2 0 0 1 0 -0 1 1.5
1 0 0 1 0 
2 1.5 10 -1 0 0 1 1.5
2 1.5 10 -1 0 0 1 1.5
1 1 0 0 1 
1 0 10 1 0 
1 1 0 0 1 
1 1 0 0 -1 
1 10 0 0 1 
1 0 0 0 1 
1 0.78539816339744828 0 0 1 
1 0 -5 1 0 
1 0 0 0 1 
1 0 10 1 0 
1 0 0 0 1 
1 0 10 1 0 
2 0 0 1 0 -0 1 0.5
2 1.5 10 -1 0 0 1 0.5
2 1.5 10 -1 0 0 1 0.5
1 1.1464466094067269 10.35355339059328 0.70710678118654757 0.70710678118654757 
1 10 0 0 -1 
1 1.1464466094067269 10.35355339059328 0.70710678118654757 0.70710678118654757 
1 0 -10 1 0 
1 0 10 1 0 
1 1.5 0 -1 0 
1 1.060660171779821 1.060660171779821 -0.70710678118654757 -0.70710678118654757 
1 3.9748737341529186 14.596194077712568 0.70710678118654757 -0.70710678118654757 
1 3.9748737341529186 14.596194077712568 0.70710678118654757 -0.70710678118654757 
1 0.43933982822017903 11.06066017177983 0.70710678118654757 0.70710678118654757 
1 10 0 0 -1 
1 0.43933982822017903 11.06066017177983 0.70710678118654757 0.70710678118654757 
2 0 0 1 0 -0 1 1.5
1 0 10 1 0 
2 1.5 10 -1 0 0 1 1.5
2 1.5 10 -1 0 0 1 1.5
1 0 0 0 -1 
1 10 0 0 1 
1 0 0 0 1 
1 0.78539816339744828 0 0 1 
1 0 -5 1 0 
1 0 -1.7763568394002505e-15 1 0 
1 0 -1.7763568394002505e-15 1 0 
1 0 0 0 1 
1 0 0 0 -1 
1 0 10 1 0 
1 0 0 0 1 
1 10 0 0 1 
1 0.29442319168618525 -5 0 1 
1 0 0 1 0 
1 0 0 0 1 
1 0 0 1 0 
1 0 0 1 0 
1 1 0 0 -1 
1 0 0 0 1 
1 0 -10 1 0 
1 0 0 1 0 
1 1 10 -1 0 
1 -0.49999999999999467 -0.29442319168619235 1 0 
1 1 0 0 1 
1 0 10 1 0 
1 10 0 0 1 
1 0.29442319168620301 -5 0 1 
1 0 0 1 0 
1 1 0 0 1 
1 1 10 -1 0 
1 -0.49999999999999467 -0.29442319168619235 1 0 
1 0.29442319168618525 5 -1 0 
1 0.50000000000000533 -0.29442319168619235 -2.5641718385750643e-14 1 
1 -0.29442319168618702 5 -0 -1 
8 0 10
1 10 -1.7763568394002505e-15 -1 -0 
1 -0.29442319168618702 -5 1 0 
8 0 0.58884638337237227
1 0.49999999999999023 0.29442319168617992 2.5641718385750643e-14 -1 
1 0.49999999999999023 0.29442319168617992 -1 3.5527136788006114e-14 
8 0 0.99999999999996891
1 0.43933982822017903 11.0606601717798 0.70710678118657311 -0.70710678118652204 
1 -0.49999999999997868 0.29442319168621545 -2.7150054761381393e-14 -1 
8 0 0.5888463833724078
1 -0.29442319168620479 5 1 -0 
1 0.49999999999999023 0.29442319168617992 -1 3.5527136788006114e-14 
8 0 0.99999999999996891
1 0.43933982822017903 11.0606601717798 0.70710678118657311 -0.70710678118652204 
1 -0.49999999999997868 0.29442319168621545 -2.7150054761381393e-14 -1 
1 -0.29442319168620479 -5 1 0 
1 -0.29442319168620479 5 0 -1 
8 0 10
1 10 -1.7763568394002505e-15 -1 -0 
1 10 0 0 -1 
1 0.43933982822017903 11.06066017177983 0.70710678118654757 0.70710678118654757 
1 0 0 0 -1 
1 0.43933982822017903 11.06066017177983 0.70710678118654757 0.70710678118654757 
1 0 -5 1 0 
1 0 0 0 -1 
1 3.9748737341529186 14.596194077712568 0.70710678118654757 -0.70710678118654757 
1 0 -10 1 0 
1 1.1464466094067269 10.35355339059328 0.70710678118654757 0.70710678118654757 
1 10 0 0 -1 
1 3.9748737341529186 14.596194077712568 0.70710678118654757 -0.70710678118654757 
1 0 0 1 0 
1 1.1464466094067269 10.35355339059328 0.70710678118654757 0.70710678118654757 
1 0 0 0 -1 
1 0 -5 1 0 
1 1 0 0 -1 
Curves 48
1 0 0 0 0 0 1 
1 0 0 1 -0 1 0 
1 0 10 0 0 0 1 
1 0 0 0 -0 1 0 
1 0 0 0 1 0 -0 
1 0 0 1 1 0 -0 
2 10 0 1.5 -0 -1 -0 0 0 -1 1 -0 0 0.5
1 10 0 1 1 0 -0 
1 10 0 0 0 0 1 
1 10 0 0 1 0 -0 
2 10 0 1.5 -0 -1 -0 0 0 -1 1 -0 0 1.5
1 0 10 1 1 0 -0 
1 10 0 1 -0 1 0 
1 0 10 0 1 0 -0 
2 10 10 1.5 -0 -1 -0 0 0 -1 1 -0 0 0.5
1 10 10 1 1 0 -0 
1 10 10 0 0 0 1 
1 10 10 0 1 0 -0 
2 10 10 1.5 -0 -1 -0 0 0 -1 1 -0 0 1.5
1 10 0 0 -0 1 0 
1 0 30 0 0 1 0 
1 0 40 0 1 0 0 
1 10 30 0 0 1 0 
1 0 30 0 1 0 0 
1 0 30 0 0 0 1 
1 0 30 1 0 1 0 
1 0 40 0 0 0 1 
1 10 40 1 0 0 -1 
1 0 40 1 1 0 0 
1 10 30 1 0 1 0 
1 0 30 1 1 0 0 
1 10 30 1 0 0 -1 
1 10 40 0 1 0 2.5641718385750643e-14 
1 10.588846383372372 40 1.5099033134902129e-14 0 -1 0 
1 10.588846383372372 30 1.5099033134902129e-14 -1 0 -2.5641718385750643e-14 
1 10.588846383372372 40 1.5099033134902129e-14 3.5527136788006114e-14 0 1 
1 10.588846383372408 40 0.99999999999998401 -1 0 2.7150054761381393e-14 
1 10.588846383372372 30 1.5099033134902129e-14 3.5527136788006114e-14 0 1 
1 10.588846383372408 30 0.99999999999998401 -1 0 2.7150054761381393e-14 
1 10.588846383372408 40 0.99999999999998401 0 -1 0 
1 10.588846383372392 40 -5.8841820305133281e-15 1 0 3.8857805861880479e-16 
1 10.588846383372392 30 -5.8841820305133281e-15 1 0 3.8857805861880479e-16 
1 15.588846383372394 30 -3.9412917374193041e-15 0 1 0 
1 15.588846383372394 40 -3.9412917374193041e-15 -3.8857805861880479e-16 0 1 
1 10.588846383372392 40 0.99999999999999467 1 0 3.8857805861880479e-16 
1 15.588846383372394 30 -3.9412917374193041e-15 -3.8857805861880479e-16 0 1 
1 10.588846383372392 30 0.99999999999999467 1 0 3.8857805861880479e-16 
1 15.588846383372394 30 0.99999999999999667 0 1 0 
Polygon3D 0
PolygonOnTriangulations 0
Surfaces 28
1 0 0 0 1 0 -0 0 0 1 0 -1 0 
1 0 0 0 -0 1 0 0 0 1 1 0 -0 
1 0 0 0 -0 1 0 0 0 1 1 0 -0 
1 0 0 1 0 0 1 1 0 -0 -0 1 0 
1 0 10 0 -0 1 0 0 0 1 1 0 -0 
1 0 10 0 -0 1 0 0 0 1 1 0 -0 
1 0 0 0 0 0 1 1 0 -0 -0 1 0 
1 10 0 1.5 -0 -1 -0 0 0 -1 1 -0 0 
2 10 0 1.5 0 1 0 0 0 -1 1 -0 -0 0.5
1 10 0 0 0 -1 0 0 0 1 -1 0 0 
1 10 0 1 0 0 1 -0 1 0 -1 -0 0 
1 10 0 0 1 0 -0 0 0 1 0 -1 0 
1 10 0 0 0 0 1 -0 1 0 -1 -0 0 
2 10 0 1.5 0 1 0 0 0 -1 1 -0 -0 1.5
1 10 10 1.5 -0 -1 -0 0 0 -1 1 -0 0 
1 10 10 0 0 -1 0 0 0 1 -1 0 0 
1 0 0 0 0 0 1 1 0 -0 -0 1 0 
1 0 0 0 1 0 -0 0 0 1 0 -1 0 
1 0 40 0 0 1 0 0 0 1 1 0 0 
1 10.294423191686185 35 7.5495165674510645e-15 2.5641718385750646e-14 -0 -1 -1 0 -2.5641718385750646e-14 0 1 0 
1 0 30 0 0 1 0 0 0 1 1 0 0 
1 0 0 1 0 0 1 1 0 -0 -0 1 0 
1 10.294423191686192 40 0.50000000000000533 -0 -1 -0 0 0 -1 1 -0 0 
1 10.294423191686203 35 0.9999999999999919 -2.7150054761381386e-14 -0 -1 -1 0 2.7150054761381386e-14 0 1 -0 
1 10.294423191686192 30 0.50000000000000533 -0 -1 -0 0 0 -1 1 -0 0 
1 10 0 0 0 0 1 -0 1 0 -1 -0 0 
1 10 0 1 0 0 1 -0 1 0 -1 -0 0 
1 10 0 0 1 0 -0 0 0 1 0 -1 0 
Triangulations 0

TShapes 131
Ve
1e-07
0 0 1
0 0

0101101
*
Ve
1e-07
0 0 0
0 0

0101101
*
Ed
 1e-07 1 1 0
1  1 0 0 1
2  1 1 0 0 1
2  2 2 0 0 1
4 C0 1 0 2 0
2  3 3 0 0 1
0

0101000
-131 0 +130 0 *
Ve
1e-07
0 10 1
0 0

0101101
*
Ed
 1e-07 1 1 0
1  2 0 0 10
2  4 1 0 0 10
2  5 4 0 0 10
4 C0 1 0 4 0
0

0101000
-128 0 +131 0 *
Ve
1e-07
0 10 0
0 0

0101101
*
Ed
 1e-07 1 1 0
1  3 0 0 1
2  6 1 0 0 1
2  7 5 0 0 1
4 C0 1 0 5 0
2  8 6 0 0 1
0

0101000
-128 0 +126 0 *
Ed
 1e-07 1 1 0
1  4 0 0 10
2  9 1 0 0 10
2  10 7 0 0 10
4 C0 1 0 7 0
0

0101000
-126 0 +130 0 *
Wi

0101100
-129 0 -127 0 +125 0 +124 0 *
Fa
0  1e-07 1 0

0111000
+123 0 *
Ve
1e-07
10 0 0
0 0

0101101
*
Ed
 1e-07 1 1 0
1  5 0 0 10
2  11 2 0 0 10
2  12 7 0 0 10
4 C0 2 0 7 0
2  13 3 0 0 10
0

0101000
-121 0 +130 0 *
Ve
1e-07
10 0 1
0 0

0101101
*
Ed
 1e-07 1 1 0
1  6 0 0 10
2  14 2 0 0 10
2  15 4 0 0 10
4 C0 2 0 4 0
2  16 3 0 0 10
0

0101000
-119 0 +131 0 *
Ve
1.00000000444089e-07
10.3535533905933 0 1.14644660940673
0 0

0101101
*
Ed
 1e-07 1 1 0
1  7 0 0 0.785398163397448
2  17 8 0 0 0.785398163397448
2  18 9 0 0 0.785398163397448
4 C0 8 0 9 0
2  19 2 0 0 0.785398163397448
2  20 3 0 0 0.785398163397448
0

0101000
+119 0 -117 0 *
Ed
 1e-07 1 1 0
1  8 0 0 5
4 C0 10 0 11 0
2  21 2 3 0 5
2  22 11 0 0 5
2  23 3 3 0 5
0

0101000
+117 3 -119 4 *
Ed
 1e-07 1 1 0
1  9 0 0 1
2  24 12 0 0 1
2  25 2 0 0 1
2  26 8 0 0 1
2  27 8 7 0 1
4 G2 2 0 8 0
4 C0 10 8 12 0
2  28 2 9 0 1
2  29 3 9 0 1
0

0101000
-119 0 +121 0 *
Ve
1.00000000444089e-07
11.0606601717798 0 0.439339828220179
0 0

0101101
*
Ed
 1e-07 1 1 0
1  10 0 0 5
4 C0 10 0 13 0
2  30 2 3 0 5
2  31 13 0 0 5
2  32 3 3 0 5
0

0101000
+113 3 -121 4 *
Ed
 1e-07 1 1 0
1  11 0 0 0.785398163397448
2  33 8 0 0 0.785398163397448
2  34 14 0 0 0.785398163397448
4 C0 8 0 14 0
2  35 2 0 0 0.785398163397448
2  36 3 0 0 0.785398163397448
0

0101000
+121 0 -113 0 *
Wi

0101100
-120 0 +129 0 +118 0 +116 0 +115 2 -114 5 -112 2 -111 0 *
Fa
0  0 3 0

0101000
+110 0 *
Ve
1e-07
10 10 1
0 0

0101101
*
Ed
 1e-07 1 1 0
1  12 0 0 10
2  37 5 0 0 10
2  38 4 0 0 10
4 C0 4 0 5 0
2  39 6 0 0 10
0

0101000
-108 0 +128 0 *
Ed
 1e-07 1 1 0
1  13 0 0 10
2  40 12 0 0 10
2  41 4 0 0 10
2  42 9 0 0 10
2  43 9 7 0 10
4 G1 4 0 9 0
4 C0 11 8 12 0
2  44 11 8 0 10
0

0101000
-108 0 +119 0 *
Wi

0101100
-127 0 -107 0 +106 0 +118 0 *
Fa
0  1e-07 4 0

0111000
+105 0 *
Ve
1e-07
10 10 0
0 0

0101101
*
Ed
 1e-07 1 1 0
1  14 0 0 10
2  45 5 0 0 10
2  46 7 0 0 10
4 C0 5 0 7 0
2  47 6 0 0 10
0

0101000
-103 0 +126 0 *
Ve
1.00000000444089e-07
10.3535533905933 10 1.14644660940673
0 0

0101101
*
Ed
 1e-07 1 1 0
1  15 0 0 0.785398163397448
2  48 9 0 0 0.785398163397448
2  49 15 0 0 0.785398163397448
4 C0 9 0 15 0
2  50 5 0 0 0.785398163397448
2  51 6 0 0 0.785398163397448
0

0101000
+108 0 -101 0 *
Ed
 1e-07 1 1 0
1  16 0 0 5
4 C0 11 0 16 0
2  52 5 3 0 5
2  53 11 0 0 5
2  54 6 3 0 5
0

0101000
+101 3 -108 4 *
Ed
 1e-07 1 1 0
1  17 0 0 1
2  55 12 0 0 1
2  56 5 0 0 1
2  57 15 0 0 1
2  58 15 7 0 1
4 G2 5 0 15 0
4 C0 16 8 12 0
2  59 5 9 0 1
2  60 6 9 0 1
0

0101000
-108 0 +103 0 *
Ve
1.00000000444089e-07
11.0606601717798 10 0.439339828220179
0 0

0101101
*
Ed
 1e-07 1 1 0
1  18 0 0 5
4 C0 16 0 13 0
2  61 5 3 0 5
2  62 13 0 0 5
2  63 6 3 0 5
0

0101000
+97 3 -103 4 *
Ed
 1e-07 1 1 0
1  19 0 0 0.785398163397448
2  64 15 0 0 0.785398163397448
2  65 14 0 0 0.785398163397448
4 C0 15 0 14 0
2  66 5 0 0 0.785398163397448
2  67 6 0 0 0.785398163397448
0

0101000
+103 0 -97 0 *
Wi

0101100
-102 0 +125 0 +107 0 +100 0 +99 2 -98 5 -96 2 -95 0 *
Fa
0  0 6 0

0101000
+94 0 *
Ed
 1e-07 1 1 0
1  20 0 0 10
2  68 12 0 0 10
2  69 7 0 0 10
2  70 14 0 0 10
2  71 14 7 0 10
4 G1 7 0 14 0
4 C0 13 8 12 0
2  72 13 8 0 10
0

0101000
-103 0 +121 0 *
Wi

0101100
-124 0 -102 0 +92 0 +120 0 *
Fa
0  1e-07 7 0

0111000
+91 0 *
Ed
 1e-07 1 1 0
1  13 0 0 10
2  40 12 0 0 10
2  41 4 0 0 10
2  42 9 0 0 10
2  43 9 7 0 10
4 G1 9 7 11 10
2  73 11 10 0 10
0

0101000
+117 7 -101 7 *
Wi

0101100
-100 0 +116 0 -106 0 +89 6 *
Fa
0  1e-07 9 0

0111000
+88 0 *
Ed
 1e-07 1 1 0
1  20 0 0 10
2  68 12 0 0 10
2  69 7 0 0 10
2  70 14 0 0 10
2  71 14 7 0 10
4 G1 14 7 13 10
2  74 13 10 0 10
0

0101000
+113 7 -97 7 *
Wi

0101100
-95 0 +111 0 -92 0 +86 6 *
Fa
0  1e-07 14 0

0111000
+85 0 *
Wi

0101100
-99 2 +115 2 -89 6 +106 5 *
Fa
0  1e-07 11 2

0111000
+83 0 *
Wi

0101100
-96 2 +112 2 -86 6 +92 5 *
Fa
0  1e-07 13 2

0111000
+81 0 *
Wi

0101100
-114 0 -106 0 +98 0 +92 0 *
Fa
0  1e-07 12 0

0111000
+79 0 *
Sh

0101100
-122 0 -109 0 +104 0 +93 0 -90 0 +87 0 -84 0 +82 0 -80 0 +78 5 
*
So

0100000
+77 0 *
Ve
1e-07
0 30 0
0 0

0101101
*
Ve
1e-07
0 40 0
0 0

0101101
*
Ed
 1e-07 1 1 0
1  21 0 0 10
2  75 17 13 0 10
2  76 18 16 0 10
4 C0 17 13 18 16
0

0101000
+75 0 -74 0 *
Ve
1e-07
10 40 0
0 0

0101101
*
Ed
 1e-07 1 1 0
1  22 0 0 10
2  77 17 13 0 10
2  78 19 17 0 10
4 C0 17 13 19 17
0

0101000
+74 0 -72 0 *
Ve
1e-07
10 30 0
0 0

0101101
*
Ed
 1e-07 1 1 0
1  23 0 0 10
2  79 17 13 0 10
2  80 20 0 0 10
4 G2 17 13 20 0
0

0101000
+70 0 -72 0 *
Ed
 1e-07 1 1 0
1  24 0 0 10
2  81 17 13 0 10
2  82 21 18 0 10
4 C0 17 13 21 18
0

0101000
+75 0 -70 0 *
Wi

0101100
-73 14 -71 14 +69 14 +68 14 *
Fa
0  1e-07 17 0

0101000
+67 0 *
Ve
1e-07
0 30 1
0 0

0101101
*
Ed
 1e-07 1 1 0
1  25 0 0 1
2  83 18 16 0 1
2  84 21 18 0 1
4 C0 18 16 21 18
0

0101000
+75 0 -65 0 *
Ve
1e-07
0 40 1
0 0

0101101
*
Ed
 1e-07 1 1 0
1  26 0 0 10
2  85 18 16 0 10
2  86 22 21 0 10
4 C0 18 16 22 21
0

0101000
+65 0 -63 0 *
Ed
 1e-07 1 1 0
1  27 0 0 1
2  87 18 16 0 1
2  88 19 17 0 1
4 C0 18 16 19 17
0

0101000
+74 0 -63 0 *
Wi

0101100
-64 19 -62 19 +61 19 +73 19 *
Fa
0  1e-07 18 0

0101000
+60 0 *
Ve
1e-07
10 40 1
0 0

0101101
*
Ed
 1e-07 1 1 0
1  28 0 0 1
2  89 19 17 0 1
2  90 23 0 0 1
4 G2 19 17 23 0
0

0101000
+58 0 -72 0 *
Ed
 1e-07 1 1 0
1  29 0 0 10
2  91 19 17 0 10
2  92 22 21 0 10
4 C0 19 17 22 21
0

0101000
+63 0 -58 0 *
Wi

0101100
+57 22 +56 22 +61 22 -71 22 *
Fa
0  1e-07 19 0

0101000
+55 0 *
Ve
1e-07
10 30 1
0 0

0101101
*
Ed
 1e-07 1 1 0
1  30 0 0 10
2  93 22 21 0 10
2  94 24 0 0 10
4 G2 22 21 24 0
0

0101000
+53 0 -58 0 *
Ed
 1e-07 1 1 0
1  31 0 0 10
2  95 22 21 0 10
2  96 21 18 0 10
4 C0 22 21 21 18
0

0101000
+65 0 -53 0 *
Wi

0101100
-62 23 -56 23 +52 23 +51 23 *
Fa
0  1e-07 22 0

0101000
+50 0 *
Ed
 1e-07 1 1 0
1  32 0 0 1
2  97 21 18 0 1
2  98 25 0 0 1
4 G2 21 18 25 0
0

0101000
+53 0 -70 0 *
Wi

0101100
+48 24 +51 24 +64 24 -68 24 *
Fa
0  1e-07 21 0

0101000
+47 0 *
Ve
1.00000000444089e-07
10.5888463833724 40 1.50990331349021e-14
0 0

0101101
*
Ed
 1e-07 1 1 0
1  33 0 0 0.588846383372372
2  99 20 0 0 0.588846383372372
2  100 23 0 0 0.588846383372372
4 C0 20 0 23 0
0

0101000
+72 0 -45 0 *
Ve
1.00000000444089e-07
10.5888463833724 30 1.50990331349021e-14
0 0

0101101
*
Ed
 1e-07 1 1 0
1  34 0 0 10
2  101 20 0 0 10
2  102 26 27 0 10
4 G2 20 0 26 27
0

0101000
+45 0 -43 0 *
Ed
 1e-07 1 1 0
1  35 0 0 0.588846383372372
2  103 20 0 0 0.588846383372372
2  104 25 0 0 0.588846383372372
4 C0 20 0 25 0
0

0101000
+43 0 -70 0 *
Wi

0101100
+44 0 +42 0 +41 0 +69 0 *
Fa
0  1e-07 20 0

0101000
+40 0 *
Ve
1.00000000444089e-07
10.5888463833724 40 0.999999999999984
0 0

0101101
*
Ed
 1e-07 1 1 0
1  36 0 0 0.999999999999969
2  105 23 0 0 0.999999999999969
2  106 19 28 0 0.999999999999969
4 C1 23 0 19 28
0

0101000
+45 0 -38 0 *
Ed
 1e-07 1 1 0
1  37 0 0 0.588846383372408
2  107 23 0 0 0.588846383372408
2  108 24 0 0 0.588846383372408
4 C0 23 0 24 0
0

0101000
+38 0 -58 0 *
Wi

0101100
+44 0 +37 0 +36 0 +57 0 *
Fa
0  1e-07 23 0

0101000
+35 0 *
Ve
1.00000000444089e-07
10.5888463833724 30 0.999999999999984
0 0

0101101
*
Ed
 1e-07 1 1 0
1  38 0 0 0.999999999999969
2  109 25 0 0 0.999999999999969
2  110 21 29 0 0.999999999999969
4 C1 25 0 21 29
0

0101000
+43 0 -33 0 *
Ed
 1e-07 1 1 0
1  39 0 0 0.588846383372408
2  111 25 0 0 0.588846383372408
2  112 24 0 0 0.588846383372408
4 C0 25 0 24 0
0

0101000
+33 0 -53 0 *
Wi

0101100
-41 0 +32 0 +31 0 +48 0 *
Fa
0  1e-07 25 0

0101000
+30 0 *
Ed
 1e-07 1 1 0
1  40 0 0 10
2  113 24 0 0 10
2  114 27 31 0 10
4 G2 24 0 27 31
0

0101000
+38 0 -33 0 *
Wi

0101100
-36 0 +28 0 +31 0 +52 0 *
Fa
0  1e-07 24 0

0101000
+27 0 *
Ve
1e-07
15.5888463833724 40 -3.9412917374193e-15
0 0

0101101
*
Ed
 1e-07 1 1 0
1  41 0 0 5
2  115 26 27 0 5
2  116 19 28 0 5
4 C0 26 27 19 28
0

0101000
+45 0 -25 0 *
Ve
1e-07
15.5888463833724 30 -3.9412917374193e-15
0 0

0101101
*
Ed
 1e-07 1 1 0
1  42 0 0 5
2  117 26 27 0 5
2  118 21 29 0 5
4 C0 26 27 21 29
0

0101000
+43 0 -23 0 *
Ed
 1e-07 1 1 0
1  43 0 0 10
2  119 26 27 0 10
2  120 28 36 0 10
4 C0 26 27 28 36
0

0101000
+23 0 -25 0 *
Wi

0101100
-24 33 +22 33 +42 33 +21 33 *
Fa
0  1e-07 26 25

0101000
+20 0 *
Ve
1e-07
15.5888463833724 40 0.999999999999997
0 0

0101101
*
Ed
 1e-07 1 1 0
1  44 0 0 1
2  121 19 28 0 1
2  122 28 36 0 1
4 C0 19 28 28 36
0

0101000
+25 0 -18 0 *
Ed
 1e-07 1 1 0
1  45 0 0 5
2  123 19 28 0 5
2  124 27 31 0 5
4 C0 19 28 27 31
0

0101000
+38 0 -18 0 *
Wi

0101100
-24 37 -17 37 +16 37 +37 37 *
Fa
0  1e-07 19 0

0101000
+15 0 *
Ve
1e-07
15.5888463833724 30 0.999999999999997
0 0

0101101
*
Ed
 1e-07 1 1 0
1  46 0 0 1
2  125 21 29 0 1
2  126 28 36 0 1
4 C0 21 29 28 36
0

0101000
+23 0 -13 0 *
Ed
 1e-07 1 1 0
1  47 0 0 5
2  127 21 29 0 5
2  128 27 31 0 5
4 C0 21 29 27 31
0

0101000
+33 0 -13 0 *
Wi

0101100
-22 38 -12 38 +11 38 +32 38 *
Fa
0  1e-07 21 0

0101000
+10 0 *
Ed
 1e-07 1 1 0
1  48 0 0 10
2  129 27 31 0 10
2  130 28 36 0 10
4 C0 27 31 28 36
0

0101000
+13 0 -18 0 *
Wi

0101100
-16 40 +11 40 +28 40 +8 40 *
Fa
0  1e-07 27 25

0101000
+7 0 *
Wi

0101100
-12 41 -8 41 +17 41 +21 41 *
Fa
0  1e-07 28 0

0101000
+5 0 *
Sh

0101100
-66 13 -59 16 +54 17 +49 21 -46 18 +39 0 -34 0 +29 0 -26 0 -19 32 
+14 28 -9 29 +6 39 +4 36 *
So

0100000
+3 0 *
Co

1100000
+76 0 +2 0 *

+1 1  