
CASCADE Topology V1, (c) Matra-Datavision
Locations 41
1
              1               0               0               0 
              0               1               0               0 
              0               0               1               0 
1
              1               0               0               0 
              0               1               0               0 
              0               0               1               0 
2  2 -1 0
1
              1               0               0               0 
              0               1               0               0 
              0               0               1               0 
1
              1               0               0               0 
              0               1               0               0 
              0               0               1               0 
1
              1               0               0               0 
              0               1               0               0 
              0               0               1               0 
2  4 -1 0
1
              1               0               0               0 
              0               1               0               0 
              0               0               1               0 
2  5 -1 0
2  8 -1 0
2  6 -1 0
1
0.707106781186548               0 -0.707106781186548 3.98959235991435 
              0               1               0               0 
0.707106781186548               0 0.707106781186548 -6.6317279836453 
1
0.707106781186548               0 0.707106781186547 2.45711839972709 
              0               1               0               0 
-0.707106781186547               0 0.707106781186548 7.51040764008565 
2  12 1 13 1 0
1
0.707106781186548               0 0.707106781186547 2.45711839972709 
              0               1               0               0 
-0.707106781186547               0 0.707106781186548 7.51040764008565 
1
0.707106781186548               0 0.707106781186547 2.45711839972709 
              0               1               0               0 
-0.707106781186547               0 0.707106781186548 7.51040764008565 
1
0.707106781186548               0 0.707106781186547 2.45711839972709 
              0               1               0               0 
-0.707106781186547               0 0.707106781186548 7.51040764008565 
2  12 1 17 1 0
2  13 -1 0
1
              1               0               0               5 
              0               1               0               0 
              0               0               1              -0 
1
0.707106781186548               0 0.707106781186547 2.45711839972709 
              0               1               0               0 
-0.707106781186547               0 0.707106781186548 7.51040764008565 
2  20 1 12 1 21 1 0
2  15 -1 0
2  16 -1 0
2  17 -1 0
2  21 -1 12 -1 20 -1 0
1
              1               0               0               0 
              0               1               0              30 
              0               0               1               0 
2  27 -1 0
1
0.707106781186548               0 -0.707106781186548 3.98959235991435 
              0               1               0               0 
0.707106781186548               0 0.707106781186548 -6.6317279836453 
2  29 1 27 1 0
2  29 -1 0
2  27 -1 29 -1 0
1
              1               0               0               5 
              0               1               0               0 
              0               0               1              -0 
2  33 1 29 1 27 1 0
1
0.707106781186548               0 -0.707106781186548 3.98959235991435 
              0               1               0               0 
0.707106781186548               0 0.707106781186548 -6.6317279836453 
2  35 -1 0
2  33 -1 0
2  29 -1 33 -1 0
2  27 -1 29 -1 33 -1 0
2  29 1 35 -1 0
2  33 1 29 1 0
Curve2ds 130
1 0 0 0 1 
1 0 0 0 -1 
1 0 10 1 0 
1 0 0 0 1 
1 10 0 0 1 
1 0.29442319168618525 -5 0 1 
1 0 0 1 0 
1 0 0 0 1 
1 0 0 1 0 
1 0 0 1 0 
1 1 0 0 -1 
1 0 0 0 1 
1 0 -10 1 0 
1 0 0 1 0 
1 1 10 -1 0 
1 -0.49999999999999467 -0.29442319168619235 1 0 
1 1 0 0 1 
1 0 10 1 0 
1 10 0 0 1 
1 0.29442319168620301 -5 0 1 
1 0 0 1 0 
1 1 0 0 1 
1 1 10 -1 0 
1 -0.49999999999999467 -0.29442319168619235 1 0 
1 0.29442319168618525 5 -1 0 
1 0.50000000000000533 -0.29442319168619235 -2.5641718385750643e-14 1 
1 -0.29442319168618702 5 -0 -1 
8 0 10
1 10 -1.7763568394002505e-15 -1 -0 
1 -0.29442319168618702 -5 1 0 
8 0 0.58884638337237227
1 0.49999999999999023 0.29442319168617992 2.5641718385750643e-14 -1 
1 0.49999999999999023 0.29442319168617992 -1 3.5527136788006114e-14 
8 0 0.99999999999996891
1 0.43933982822017903 11.0606601717798 0.70710678118657311 -0.70710678118652204 
1 -0.49999999999997868 0.29442319168621545 -2.7150054761381393e-14 -1 
8 0 0.5888463833724078
1 -0.29442319168620479 5 1 -0 
1 0.49999999999999023 0.29442319168617992 -1 3.5527136788006114e-14 
8 0 0.99999999999996891
1 0.43933982822017903 11.0606601717798 0.70710678118657311 -0.70710678118652204 
1 -0.49999999999997868 0.29442319168621545 -2.7150054761381393e-14 -1 
1 -0.29442319168620479 -5 1 0 
1 -0.29442319168620479 5 0 -1 
8 0 10
1 10 -1.7763568394002505e-15 -1 -0 
1 10 0 0 -1 
1 0.43933982822017903 11.06066017177983 0.70710678118654757 0.70710678118654757 
1 0 0 0 -1 
1 0.43933982822017903 11.06066017177983 0.70710678118654757 0.70710678118654757 
1 0 -5 1 0 
1 0 0 0 -1 
1 3.9748737341529186 14.596194077712568 0.70710678118654757 -0.70710678118654757 
1 0 -10 1 0 
1 1.1464466094067269 10.35355339059328 0.70710678118654757 0.70710678118654757 
1 10 0 0 -1 
1 3.9748737341529186 14.596194077712568 0.70710678118654757 -0.70710678118654757 
1 0 0 1 0 
1 1.1464466094067269 10.35355339059328 0.70710678118654757 0.70710678118654757 
1 0 0 0 -1 
1 0 -5 1 0 
1 1 0 0 -1 
1 0 0 1 0 
1 0 0 1 0 
1 0 0 1 0 
1 1 0 0 -1 
1 0 0 0 1 
1 0 -10 1 0 
1 0 0 1 0 
1 0 0 1 0 
1 0 0 0 -1 
1 0 0 0 1 
1 0 0 0 1 
1 0 0 1 0 
1 0 0 0 1 
1 1 0 0 1 
1 0 0 1 0 
1 1 0 0 1 
2 0 0 1 0 -0 1 0.5
1 0 0 1 0 
2 1.5 10 -1 0 0 1 0.5
2 1.5 10 -1 0 0 1 0.5
1 1.1464466094067269 10.35355339059328 0.70710678118654757 0.70710678118654757 
1 0 0 0 -1 
1 1.1464466094067269 10.35355339059328 0.70710678118654757 0.70710678118654757 
1 0 0 1 0 
1 0 10 1 0 
1 1.5 0 -1 0 
1 1.060660171779821 1.060660171779821 -0.70710678118654757 -0.70710678118654757 
1 3.9748737341529186 14.596194077712568 0.70710678118654757 -0.70710678118654757 
1 3.9748737341529186 14.596194077712568 0.70710678118654757 -0.70710678118654757 
1 0.43933982822017903 11.06066017177983 0.70710678118654757 0.70710678118654757 
1 0 0 0 -1 
1 0.43933982822017903 11.06066017177983 0.70710678118654757 0.70710678118654757 
2 0 0 1 0 -0 1 1.5
1 0 0 1 0 
2 1.5 10 -1 0 0 1 1.5
2 1.5 10 -1 0 0 1 1.5
1 1 0 0 1 
1 0 10 1 0 
1 1 0 0 1 
1 1 0 0 -1 
1 10 0 0 1 
1 0 0 0 1 
1 0.78539816339744828 0 0 1 
1 0 -5 1 0 
1 0 0 0 1 
1 0 10 1 0 
1 0 0 0 1 
1 0 10 1 0 
2 0 0 1 0 -0 1 0.5
2 1.5 10 -1 0 0 1 0.5
2 1.5 10 -1 0 0 1 0.5
1 1.1464466094067269 10.35355339059328 0.70710678118654757 0.70710678118654757 
1 10 0 0 -1 
1 1.1464466094067269 10.35355339059328 0.70710678118654757 0.70710678118654757 
1 0 -10 1 0 
1 0 10 1 0 
1 1.5 0 -1 0 
1 1.060660171779821 1.060660171779821 -0.70710678118654757 -0.70710678118654757 
1 3.9748737341529186 14.596194077712568 0.70710678118654757 -0.70710678118654757 
1 3.9748737341529186 14.596194077712568 0.70710678118654757 -0.70710678118654757 
1 0.43933982822017903 11.06066017177983 0.70710678118654757 0.70710678118654757 
1 10 0 0 -1 
1 0.43933982822017903 11.06066017177983 0.70710678118654757 0.70710678118654757 
2 0 0 1 0 -0 1 1.5
1 0 10 1 0 
2 1.5 10 -1 0 0 1 1.5
2 1.5 10 -1 0 0 1 1.5
1 0 0 0 -1 
1 10 0 0 1 
1 0 0 0 1 
1 0.78539816339744828 0 0 1 
1 0 -5 1 0 
1 0 -1.7763568394002505e-15 1 0 
1 0 -1.7763568394002505e-15 1 0 
Curves 48
1 0 0 0 -0 1 0 
1 0 10 0 1 0 -0 
1 10 0 0 -0 1 0 
1 0 0 0 1 0 -0 
1 0 0 0 0 0 1 
1 0 0 1 -0 1 0 
1 0 10 0 0 0 1 
1 10 10 1 0 0 -1 
1 0 10 1 1 0 -0 
1 10 0 1 -0 1 0 
1 0 0 1 1 0 -0 
1 10 0 1 0 0 -1 
1 10 10 0 1 0 2.5641718385750643e-14 
1 10.588846383372372 10 1.5099033134902129e-14 0 -1 0 
1 10.588846383372372 0 1.5099033134902129e-14 -1 0 -2.5641718385750643e-14 
1 10.588846383372372 10 1.5099033134902129e-14 3.5527136788006114e-14 0 1 
1 10.588846383372408 10 0.99999999999998401 -1 0 2.7150054761381393e-14 
1 10.588846383372372 0 1.5099033134902129e-14 3.5527136788006114e-14 0 1 
1 10.588846383372408 0 0.99999999999998401 -1 0 2.7150054761381393e-14 
1 10.588846383372408 10 0.99999999999998401 0 -1 0 
1 10.588846383372392 10.000000000000004 -5.8841820305133281e-15 1 0 3.8857805861880479e-16 
1 10.588846383372392 0 -5.8841820305133281e-15 1 0 3.8857805861880479e-16 
1 15.588846383372394 0 -3.9412917374193041e-15 0 1 0 
1 15.588846383372394 10.000000000000004 -3.9412917374193041e-15 -3.8857805861880479e-16 0 1 
1 10.588846383372392 10.000000000000004 0.99999999999999467 1 0 3.8857805861880479e-16 
1 15.588846383372394 0 -3.9412917374193041e-15 -3.8857805861880479e-16 0 1 
1 10.588846383372392 0 0.99999999999999467 1 0 3.8857805861880479e-16 
1 15.588846383372394 0 0.99999999999999667 0 1 0 
1 0 0 0 0 0 1 
1 0 0 1 -0 1 0 
1 0 10 0 0 0 1 
1 0 0 0 -0 1 0 
1 0 0 0 1 0 -0 
1 0 0 1 1 0 -0 
2 10 0 1.5 -0 -1 -0 0 0 -1 1 -0 0 0.5
1 10 0 1 1 0 -0 
1 10 0 0 0 0 1 
1 10 0 0 1 0 -0 
2 10 0 1.5 -0 -1 -0 0 0 -1 1 -0 0 1.5
1 0 10 1 1 0 -0 
1 10 0 1 -0 1 0 
1 0 10 0 1 0 -0 
2 10 10 1.5 -0 -1 -0 0 0 -1 1 -0 0 0.5
1 10 10 1 1 0 -0 
1 10 10 0 0 0 1 
1 10 10 0 1 0 -0 
2 10 10 1.5 -0 -1 -0 0 0 -1 1 -0 0 1.5
1 10 0 0 -0 1 0 
Polygon3D 0
PolygonOnTriangulations 0
Surfaces 28
1 0 0 0 0 0 1 1 0 -0 -0 1 0 
1 0 0 0 1 0 -0 0 0 1 0 -1 0 
1 0 10 0 -0 1 0 0 0 1 1 0 -0 
1 10.294423191686185 5 7.5495165674510645e-15 2.5641718385750646e-14 -0 -1 -1 0 -2.5641718385750646e-14 0 1 0 
1 0 0 0 -0 1 0 0 0 1 1 0 -0 
1 0 0 1 0 0 1 1 0 -0 -0 1 0 
1 10.294423191686192 10 0.50000000000000533 -0 -1 -0 0 0 -1 1 -0 0 
1 10.294423191686203 5 0.9999999999999919 -2.7150054761381386e-14 -0 -1 -1 0 2.7150054761381386e-14 0 1 -0 
1 10.294423191686192 0 0.50000000000000533 -0 -1 -0 0 0 -1 1 -0 0 
1 10 0 0 0 0 1 -0 1 0 -1 -0 0 
1 10 0 1 0 0 1 -0 1 0 -1 -0 0 
1 10 0 0 1 0 -0 0 0 1 0 -1 0 
1 0 0 0 1 0 -0 0 0 1 0 -1 0 
1 0 0 0 -0 1 0 0 0 1 1 0 -0 
1 0 30 0 0 1 0 0 0 1 1 0 0 
1 0 0 1 0 0 1 1 0 -0 -0 1 0 
1 0 10 0 -0 1 0 0 0 1 1 0 -0 
1 0 40 0 0 1 0 0 0 1 1 0 0 
1 0 0 0 0 0 1 1 0 -0 -0 1 0 
1 10 0 1.5 -0 -1 -0 0 0 -1 1 -0 0 
2 10 0 1.5 0 1 0 0 0 -1 1 -0 -0 0.5
1 10 0 0 0 -1 0 0 0 1 -1 0 0 
1 10 0 1 0 0 1 -0 1 0 -1 -0 0 
1 10 0 0 1 0 -0 0 0 1 0 -1 0 
1 10 0 0 0 0 1 -0 1 0 -1 -0 0 
2 10 0 1.5 0 1 0 0 0 -1 1 -0 -0 1.5
1 10 10 1.5 -0 -1 -0 0 0 -1 1 -0 0 
1 10 10 0 0 -1 0 0 0 1 -1 0 0 
Triangulations 0

TShapes 131
Ve
1e-07
0 0 0
0 0

0101101
*
Ve
1e-07
0 10 0
0 0

0101101
*
Ed
 1e-07 1 1 0
1  1 0 0 10
2  1 1 2 0 10
2  2 2 4 0 10
4 C0 1 2 2 4
0

0101000
+131 0 -130 0 *
Ve
1e-07
10 10 0
0 0

0101101
*
Ed
 1e-07 1 1 0
1  2 0 0 10
2  3 1 2 0 10
2  4 3 5 0 10
4 C0 1 2 3 5
0

0101000
+130 0 -128 0 *
Ve
1e-07
10 0 0
0 0

0101101
*
Ed
 1e-07 1 1 0
1  3 0 0 10
2  5 1 2 0 10
2  6 4 0 0 10
4 G2 1 2 4 0
0

0101000
+126 0 -128 0 *
Ed
 1e-07 1 1 0
1  4 0 0 10
2  7 1 2 0 10
2  8 5 6 0 10
4 C0 1 2 5 6
0

0101000
+131 0 -126 0 *
Wi

0101100
-129 3 -127 3 +125 3 +124 3 *
Fa
0  1e-07 1 0

0101000
+123 0 *
Ve
1e-07
0 0 1
0 0

0101101
*
Ed
 1e-07 1 1 0
1  5 0 0 1
2  9 2 4 0 1
2  10 5 6 0 1
4 C0 2 4 5 6
0

0101000
+131 0 -121 0 *
Ve
1e-07
0 10 1
0 0

0101101
*
Ed
 1e-07 1 1 0
1  6 0 0 10
2  11 2 4 0 10
2  12 6 8 0 10
4 C0 2 4 6 8
0

0101000
+121 0 -119 0 *
Ed
 1e-07 1 1 0
1  7 0 0 1
2  13 2 4 0 1
2  14 3 5 0 1
4 C0 2 4 3 5
0

0101000
+130 0 -119 0 *
Wi

0101100
-120 7 -118 7 +117 7 +129 7 *
Fa
0  1e-07 2 0

0101000
+116 0 *
Ve
1e-07
10 10 1
0 0

0101101
*
Ed
 1e-07 1 1 0
1  8 0 0 1
2  15 3 5 0 1
2  16 7 0 0 1
4 G2 3 5 7 0
0

0101000
+114 0 -128 0 *
Ed
 1e-07 1 1 0
1  9 0 0 10
2  17 3 5 0 10
2  18 6 8 0 10
4 C0 3 5 6 8
0

0101000
+119 0 -114 0 *
Wi

0101100
+113 9 +112 9 +117 9 -127 9 *
Fa
0  1e-07 3 0

0101000
+111 0 *
Ve
1e-07
10 0 1
0 0

0101101
*
Ed
 1e-07 1 1 0
1  10 0 0 10
2  19 6 8 0 10
2  20 8 0 0 10
4 G2 6 8 8 0
0

0101000
+109 0 -114 0 *
Ed
 1e-07 1 1 0
1  11 0 0 10
2  21 6 8 0 10
2  22 5 6 0 10
4 C0 6 8 5 6
0

0101000
+121 0 -109 0 *
Wi

0101100
-118 10 -112 10 +108 10 +107 10 *
Fa
0  1e-07 6 0

0101000
+106 0 *
Ed
 1e-07 1 1 0
1  12 0 0 1
2  23 5 6 0 1
2  24 9 0 0 1
4 G2 5 6 9 0
0

0101000
+109 0 -126 0 *
Wi

0101100
+104 11 +107 11 +120 11 -124 11 *
Fa
0  1e-07 5 0

0101000
+103 0 *
Ve
1.00000000444089e-07
10.5888463833724 10 1.50990331349021e-14
0 0

0101101
*
Ed
 1e-07 1 1 0
1  13 0 0 0.588846383372372
2  25 4 0 0 0.588846383372372
2  26 7 0 0 0.588846383372372
4 C0 4 0 7 0
0

0101000
+128 0 -101 0 *
Ve
1.00000000444089e-07
10.5888463833724 0 1.50990331349021e-14
0 0

0101101
*
Ed
 1e-07 1 1 0
1  14 0 0 10
2  27 4 0 0 10
2  28 10 14 0 10
4 G2 4 0 10 14
0

0101000
+101 0 -99 0 *
Ed
 1e-07 1 1 0
1  15 0 0 0.588846383372372
2  29 4 0 0 0.588846383372372
2  30 9 0 0 0.588846383372372
4 C0 4 0 9 0
0

0101000
+99 0 -126 0 *
Wi

0101100
+100 0 +98 0 +97 0 +125 0 *
Fa
0  1e-07 4 0

0101000
+96 0 *
Ve
1.00000000444089e-07
10.5888463833724 10 0.999999999999984
0 0

0101101
*
Ed
 1e-07 1 1 0
1  16 0 0 0.999999999999969
2  31 7 0 0 0.999999999999969
2  32 3 15 0 0.999999999999969
4 C1 7 0 3 15
0

0101000
+101 0 -94 0 *
Ed
 1e-07 1 1 0
1  17 0 0 0.588846383372408
2  33 7 0 0 0.588846383372408
2  34 8 0 0 0.588846383372408
4 C0 7 0 8 0
0

0101000
+94 0 -114 0 *
Wi

0101100
+100 0 +93 0 +92 0 +113 0 *
Fa
0  1e-07 7 0

0101000
+91 0 *
Ve
1.00000000444089e-07
10.5888463833724 0 0.999999999999984
0 0

0101101
*
Ed
 1e-07 1 1 0
1  18 0 0 0.999999999999969
2  35 9 0 0 0.999999999999969
2  36 5 16 0 0.999999999999969
4 C1 9 0 5 16
0

0101000
+99 0 -89 0 *
Ed
 1e-07 1 1 0
1  19 0 0 0.588846383372408
2  37 9 0 0 0.588846383372408
2  38 8 0 0 0.588846383372408
4 C0 9 0 8 0
0

0101000
+89 0 -109 0 *
Wi

0101100
-97 0 +88 0 +87 0 +104 0 *
Fa
0  1e-07 9 0

0101000
+86 0 *
Ed
 1e-07 1 1 0
1  20 0 0 10
2  39 8 0 0 10
2  40 11 18 0 10
4 G2 8 0 11 18
0

0101000
+94 0 -89 0 *
Wi

0101100
-92 0 +84 0 +87 0 +108 0 *
Fa
0  1e-07 8 0

0101000
+83 0 *
Ve
1e-07
15.5888463833724 10 -3.9412917374193e-15
0 0

0101101
*
Ed
 1e-07 1 1 0
1  21 0 0 5
2  41 10 14 0 5
2  42 3 15 0 5
4 C0 10 14 3 15
0

0101000
+101 0 -81 0 *
Ve
1e-07
15.5888463833724 0 -3.9412917374193e-15
0 0

0101101
*
Ed
 1e-07 1 1 0
1  22 0 0 5
2  43 10 14 0 5
2  44 5 16 0 5
4 C0 10 14 5 16
0

0101000
+99 0 -79 0 *
Ed
 1e-07 1 1 0
1  23 0 0 10
2  45 10 14 0 10
2  46 12 22 0 10
4 C0 10 14 12 22
0

0101000
+79 0 -81 0 *
Wi

0101100
-80 19 +78 19 +98 19 +77 19 *
Fa
0  1e-07 10 12

0101000
+76 0 *
Ve
1e-07
15.5888463833724 10 0.999999999999997
0 0

0101101
*
Ed
 1e-07 1 1 0
1  24 0 0 1
2  47 3 15 0 1
2  48 12 22 0 1
4 C0 3 15 12 22
0

0101000
+81 0 -74 0 *
Ed
 1e-07 1 1 0
1  25 0 0 5
2  49 3 15 0 5
2  50 11 18 0 5
4 C0 3 15 11 18
0

0101000
+94 0 -74 0 *
Wi

0101100
-80 23 -73 23 +72 23 +93 23 *
Fa
0  1e-07 3 0

0101000
+71 0 *
Ve
1e-07
15.5888463833724 0 0.999999999999997
0 0

0101101
*
Ed
 1e-07 1 1 0
1  26 0 0 1
2  51 5 16 0 1
2  52 12 22 0 1
4 C0 5 16 12 22
0

0101000
+79 0 -69 0 *
Ed
 1e-07 1 1 0
1  27 0 0 5
2  53 5 16 0 5
2  54 11 18 0 5
4 C0 5 16 11 18
0

0101000
+89 0 -69 0 *
Wi

0101100
-78 24 -68 24 +67 24 +88 24 *
Fa
0  1e-07 5 0

0101000
+66 0 *
Ed
 1e-07 1 1 0
1  28 0 0 10
2  55 11 18 0 10
2  56 12 22 0 10
4 C0 11 18 12 22
0

0101000
+69 0 -74 0 *
Wi

0101100
-72 25 +67 25 +84 25 +64 25 *
Fa
0  1e-07 11 12

0101000
+63 0 *
Wi

0101100
-68 26 -64 26 +73 26 +77 26 *
Fa
0  1e-07 12 0

0101000
+61 0 *
Sh

0101100
-122 2 -115 4 +110 5 +105 8 -102 6 +95 0 -90 0 +85 0 -82 0 -75 13 
+70 15 -65 16 +62 17 +60 22 *
So

0100000
+59 0 *
Ve
1e-07
0 0 1
0 0

0101101
*
Ve
1e-07
0 0 0
0 0

0101101
*
Ed
 1e-07 1 1 0
1  29 0 0 1
2  57 13 0 0 1
2  58 14 0 0 1
4 C0 13 0 14 0
2  59 15 28 0 1
0

0101000
-57 0 +56 0 *
Ve
1e-07
0 10 1
0 0

0101101
*
Ed
 1e-07 1 1 0
1  30 0 0 10
2  60 13 0 0 10
2  61 16 0 0 10
4 C0 13 0 16 0
0

0101000
-54 0 +57 0 *
Ve
1e-07
0 10 0
0 0

0101101
*
Ed
 1e-07 1 1 0
1  31 0 0 1
2  62 13 0 0 1
2  63 17 0 0 1
4 C0 13 0 17 0
2  64 18 28 0 1
0

0101000
-54 0 +52 0 *
Ed
 1e-07 1 1 0
1  32 0 0 10
2  65 13 0 0 10
2  66 19 0 0 10
4 C0 13 0 19 0
0

0101000
-52 0 +56 0 *
Wi

0101100
-55 0 -53 0 +51 0 +50 0 *
Fa
0  1e-07 13 0

0111000
+49 0 *
Ve
1e-07
10 0 0
0 0

0101101
*
Ed
 1e-07 1 1 0
1  33 0 0 10
2  67 14 0 0 10
2  68 19 0 0 10
4 C0 14 0 19 0
2  69 15 28 0 10
0

0101000
-47 0 +56 0 *
Ve
1e-07
10 0 1
0 0

0101101
*
Ed
 1e-07 1 1 0
1  34 0 0 10
2  70 14 0 0 10
2  71 16 0 0 10
4 C0 14 0 16 0
2  72 15 28 0 10
0

0101000
-45 0 +57 0 *
Ve
1.00000000444089e-07
10.3535533905933 0 1.14644660940673
0 0

0101101
*
Ed
 1e-07 1 1 0
1  35 0 0 0.785398163397448
2  73 20 0 0 0.785398163397448
2  74 21 0 0 0.785398163397448
4 C0 20 0 21 0
2  75 14 0 0 0.785398163397448
2  76 15 28 0 0.785398163397448
0

0101000
+45 0 -43 0 *
Ed
 1e-07 1 1 0
1  36 0 0 5
4 C0 22 0 23 0
2  77 14 31 0 5
2  78 23 0 0 5
2  79 15 32 0 5
0

0101000
+43 31 -45 33 *
Ed
 1e-07 1 1 0
1  37 0 0 1
2  80 24 0 0 1
2  81 14 0 0 1
2  82 20 0 0 1
2  83 20 36 0 1
4 G2 14 0 20 0
4 C0 22 37 24 0
2  84 14 38 0 1
2  85 15 39 0 1
0

0101000
-45 0 +47 0 *
Ve
1.00000000444089e-07
11.0606601717798 0 0.439339828220179
0 0

0101101
*
Ed
 1e-07 1 1 0
1  38 0 0 5
4 C0 22 0 25 0
2  86 14 31 0 5
2  87 25 0 0 5
2  88 15 32 0 5
0

0101000
+39 31 -47 33 *
Ed
 1e-07 1 1 0
1  39 0 0 0.785398163397448
2  89 20 0 0 0.785398163397448
2  90 26 0 0 0.785398163397448
4 C0 20 0 26 0
2  91 14 0 0 0.785398163397448
2  92 15 28 0 0.785398163397448
0

0101000
+47 0 -39 0 *
Wi

0101100
-46 27 +55 27 +44 27 +42 27 +41 30 -40 34 -38 30 -37 27 *
Fa
0  0 15 0

0101000
+36 0 *
Ve
1e-07
10 10 1
0 0

0101101
*
Ed
 1e-07 1 1 0
1  40 0 0 10
2  93 17 0 0 10
2  94 16 0 0 10
4 C0 16 0 17 0
2  95 18 28 0 10
0

0101000
-34 0 +54 0 *
Ed
 1e-07 1 1 0
1  41 0 0 10
2  96 24 0 0 10
2  97 16 0 0 10
2  98 21 0 0 10
2  99 21 36 0 10
4 G1 16 0 21 0
4 C0 23 37 24 0
2  100 23 37 0 10
0

0101000
-34 0 +45 0 *
Wi

0101100
-53 0 -33 0 +32 0 +44 0 *
Fa
0  1e-07 16 0

0111000
+31 0 *
Ve
1e-07
10 10 0
0 0

0101101
*
Ed
 1e-07 1 1 0
1  42 0 0 10
2  101 17 0 0 10
2  102 19 0 0 10
4 C0 17 0 19 0
2  103 18 28 0 10
0

0101000
-29 0 +52 0 *
Ve
1.00000000444089e-07
10.3535533905933 10 1.14644660940673
0 0

0101101
*
Ed
 1e-07 1 1 0
1  43 0 0 0.785398163397448
2  104 21 0 0 0.785398163397448
2  105 27 0 0 0.785398163397448
4 C0 21 0 27 0
2  106 17 0 0 0.785398163397448
2  107 18 28 0 0.785398163397448
0

0101000
+34 0 -27 0 *
Ed
 1e-07 1 1 0
1  44 0 0 5
4 C0 23 0 28 0
2  108 17 31 0 5
2  109 23 0 0 5
2  110 18 32 0 5
0

0101000
+27 31 -34 33 *
Ed
 1e-07 1 1 0
1  45 0 0 1
2  111 24 0 0 1
2  112 17 0 0 1
2  113 27 0 0 1
2  114 27 36 0 1
4 G2 17 0 27 0
4 C0 28 37 24 0
2  115 17 38 0 1
2  116 18 39 0 1
0

0101000
-34 0 +29 0 *
Ve
1.00000000444089e-07
11.0606601717798 10 0.439339828220179
0 0

0101101
*
Ed
 1e-07 1 1 0
1  46 0 0 5
4 C0 28 0 25 0
2  117 17 31 0 5
2  118 25 0 0 5
2  119 18 32 0 5
0

0101000
+23 31 -29 33 *
Ed
 1e-07 1 1 0
1  47 0 0 0.785398163397448
2  120 27 0 0 0.785398163397448
2  121 26 0 0 0.785398163397448
4 C0 27 0 26 0
2  122 17 0 0 0.785398163397448
2  123 18 28 0 0.785398163397448
0

0101000
+29 0 -23 0 *
Wi

0101100
-28 27 +51 27 +33 27 +26 27 +25 30 -24 34 -22 30 -21 27 *
Fa
0  0 18 0

0101000
+20 0 *
Ed
 1e-07 1 1 0
1  48 0 0 10
2  124 24 0 0 10
2  125 19 0 0 10
2  126 26 0 0 10
2  127 26 36 0 10
4 G1 19 0 26 0
4 C0 25 37 24 0
2  128 25 37 0 10
0

0101000
-29 0 +47 0 *
Wi

0101100
-50 0 -28 0 +18 0 +46 0 *
Fa
0  1e-07 19 0

0111000
+17 0 *
Ed
 1e-07 1 1 0
1  41 0 0 10
2  96 24 0 0 10
2  97 16 0 0 10
2  98 21 0 0 10
2  99 21 36 0 10
4 G1 21 36 23 40
2  129 23 40 0 10
0

0101000
+43 36 -27 36 *
Wi

0101100
-26 0 +42 0 -32 0 +15 35 *
Fa
0  1e-07 21 0

0111000
+14 0 *
Ed
 1e-07 1 1 0
1  48 0 0 10
2  124 24 0 0 10
2  125 19 0 0 10
2  126 26 0 0 10
2  127 26 36 0 10
4 G1 26 36 25 40
2  130 25 40 0 10
0

0101000
+39 36 -23 36 *
Wi

0101100
-21 0 +37 0 -18 0 +12 35 *
Fa
0  1e-07 26 0

0111000
+11 0 *
Wi

0101100
-25 29 +41 29 -15 35 +32 41 *
Fa
0  1e-07 23 29

0111000
+9 0 *
Wi

0101100
-22 29 +38 29 -12 35 +18 41 *
Fa
0  1e-07 25 29

0111000
+7 0 *
Wi

0101100
-40 0 -32 0 +24 0 +18 0 *
Fa
0  1e-07 24 0

0111000
+5 0 *
Sh

0101100
-48 0 -35 28 +30 0 +19 28 -16 0 +13 0 -10 0 +8 0 -6 0 +4 41 
*
So

0100000
+3 0 *
Co

1100000
+58 0 +2 27 *

+1 1  