
CASCADE Topology V1, (c) Matra-Datavision
Locations 35
1
              1               0               0               0 
              0               1               0               0 
              0               0               1               0 
1
              1               0               0               0 
              0               1               0               0 
              0               0               1               0 
2  2 -1 0
1
              1               0               0               0 
              0               1               0               0 
              0               0               1               0 
1
              1               0               0               0 
              0               1               0               0 
              0               0               1               0 
1
0.707106781186548               0 -0.707106781186548 3.63674607610226 
              0               1               0               0 
0.707106781186548               0 0.707106781186548 -6.77788169983321 
2  6 -1 0
1
              1               0               0               5 
              0               1               0               0 
              0               0               1              -0 
2  8 -1 0
1
              1               0               0               0 
              0               1               0               0 
              0               0               1               0 
2  4 -1 0
1
              1               0               0               0 
              0               1               0               0 
              0               0               1               0 
2  5 -1 0
2  10 -1 0
2  12 -1 0
1
0.707106781186548               0 0.707106781186547 2.22190369833019 
              0               1               0               0 
-0.707106781186547               0 0.707106781186548 7.36425392389774 
1
0.707106781186548               0 -0.707106781186548 3.63674607610226 
              0               1               0               0 
0.707106781186548               0 0.707106781186548 -6.77788169983321 
2  16 -1 0
2  17 1 16 1 0
1
0.707106781186548               0 0.707106781186547 2.22190369833019 
              0               1               0               0 
-0.707106781186547               0 0.707106781186548 7.36425392389774 
2  17 1 20 1 0
1
0.707106781186548               0 0.707106781186547 2.22190369833019 
              0               1               0               0 
-0.707106781186547               0 0.707106781186548 7.36425392389774 
2  17 1 22 1 0
2  16 -1 6 -1 0
1
0.707106781186548               0 0.707106781186547 2.22190369833019 
              0               1               0               0 
-0.707106781186547               0 0.707106781186548 7.36425392389774 
2  8 1 17 1 25 1 0
2  20 -1 0
1
0.707106781186548               0 0.707106781186547 2.22190369833019 
              0               1               0               0 
-0.707106781186547               0 0.707106781186548 7.36425392389774 
2  17 1 28 1 0
2  20 -1 6 -1 0
2  22 -1 0
2  22 -1 6 -1 0
2  28 -1 0
2  28 -1 6 -1 0
2  25 -1 17 -1 8 -1 0
Curve2ds 52
1 0 0 0 1 
1 0 0 0 -1 
1 0 10 1 0 
1 0 0 0 1 
1 0 0 0 -1 
1 10 0 0 1 
1 0 0 0 1 
1 0.78539816339744828 0 0 1 
1 0 0 1 0 
1 0 -5 1 0 
1 0 0 1 0 
1 0 0 0 1 
1 0 0 1 0 
1 0 0 1 0 
1 1 0 0 -1 
1 0 0 0 1 
1 0 -10 1 0 
1 0 0 1 0 
1 0 -10 1 0 
1 0 10 1 0 
1 1.0009999999999999 0 -1 0 
1 0.70781388796773337 0.7078138879677347 -0.70710678118654757 -0.70710678118654757 
1 0 0 1 0 
1 0 -5 1 0 
1 1 0 0 1 
1 0 10 1 0 
1 0 0 1 0 
1 0 10 1 0 
1 1.0009999999999999 0 -1 0 
1 0.70781388796773337 0.7078138879677347 -0.70710678118654757 -0.70710678118654757 
1 0 0 1 0 
1 0 -5 1 0 
1 1 0 0 1 
1 0 0 1 0 
1 1 0 0 -1 
1 10 0 0 1 
1 0 0 0 1 
1 0.78539816339744828 0 0 1 
1 0 0 1 0 
1 0 -5 1 0 
1 10 0 0 -1 
1 0 0 0 -1 
1 0 0 0 -1 
1 0 0 0 -1 
1 0 0 0 -1 
1 1 0 0 -1 
1 10 0 0 -1 
1 0 -10 1 0 
1 1 0 0 -1 
1 0 0 0 -1 
1 0 0 1 0 
1 1 0 0 -1 
Curves 20
1 0 0 0 -0 1 0 
1 0 10 0 1 0 -0 
1 10 0 0 -0 1 0 
1 0 0 0 1 0 -0 
1 0 0 0 0 0 1 
1 0 0 1 -0 1 0 
1 0 10 0 0 0 1 
1 10 10 0 0 0 1 
1 0 10 1 1 0 -0 
1 10 0 0 0 0 1 
1 0 0 1 1 0 -0 
1 10 0 1 -0 1 0 
1 10.000785398163401 10.000000000000004 -3.2196467714129524e-15 1 0 3.8857805861880479e-16 
1 10.000785398163401 0 -3.2196467714129524e-15 1 0 3.8857805861880479e-16 
1 15.000785398163403 0 -1.2767564783189277e-15 0 1 0 
1 10.000785398163401 10.000000000000004 0.99999999999999734 1 0 3.8857805861880479e-16 
1 15.000785398163403 10.000000000000004 -1.2767564783189277e-15 -3.8857805861880479e-16 0 1 
1 10.000785398163401 0 0.99999999999999734 1 0 3.8857805861880479e-16 
1 15.000785398163403 0 -1.2767564783189277e-15 -3.8857805861880479e-16 0 1 
1 15.000785398163403 0 0.99999999999999933 0 1 0 
Polygon3D 0
PolygonOnTriangulations 0
Surfaces 14
1 0 0 0 0 0 1 1 0 -0 -0 1 0 
1 0 0 0 1 0 -0 0 0 1 0 -1 0 
1 0 10 0 -0 1 0 0 0 1 1 0 -0 
1 10 0 0 1 0 -0 0 0 1 0 -1 0 
2 10 0 1.0009999999999999 0 1 0 0 0 -1 1 -0 -0 1.0009999999999999
1 10 0 0 0 0 1 -0 1 0 -1 -0 0 
1 0 0 0 -0 1 0 0 0 1 1 0 -0 
1 0 0 1 0 0 1 1 0 -0 -0 1 0 
1 10 10 1.0009999999999999 -0 -1 -0 0 0 -1 1 -0 0 
1 10 10 0 0 -1 0 0 0 1 -1 0 0 
1 10 0 1.0009999999999999 -0 -1 -0 0 0 -1 1 -0 0 
1 10 0 0 0 -1 0 0 0 1 -1 0 0 
2 10 0 1.0009999999999999 0 1 0 0 0 -1 1 -0 -0 0.00099999999999988987
1 10 0 1 0 0 1 -0 1 0 -1 -0 0 
Triangulations 0

TShapes 63
Ve
1e-07
0 0 0
0 0

0101101
*
Ve
1e-07
0 10 0
0 0

0101101
*
Ed
 1e-07 1 1 0
1  1 0 0 10
2  1 1 2 0 10
2  2 2 4 0 10
4 C0 1 2 2 4
0

0101000
+63 0 -62 0 *
Ve
1e-07
10 10 0
0 0

0101101
*
Ed
 1e-07 1 1 0
1  2 0 0 10
2  3 1 2 0 10
2  4 3 5 0 10
4 C0 1 2 3 5
0

0101000
+62 0 -60 0 *
Ve
1e-07
10 0 0
0 0

0101101
*
Ed
 1e-07 1 1 0
1  3 0 0 10
2  5 4 0 0 10
2  6 1 0 0 10
2  7 5 0 0 10
2  8 5 7 0 10
2  9 6 0 0 10
2  10 6 9 0 10
0

0101000
-60 3 +58 3 *
Ed
 1e-07 1 1 0
1  4 0 0 10
2  11 1 2 0 10
2  12 7 10 0 10
4 C0 1 2 7 10
0

0101000
+63 0 -58 0 *
Wi

0101100
-61 3 -59 3 +57 0 +56 3 *
Fa
0  1e-07 1 0

0101000
+55 0 *
Ve
1e-07
0 0 1
0 0

0101101
*
Ed
 1e-07 1 1 0
1  5 0 0 1
2  13 2 4 0 1
2  14 7 10 0 1
4 C0 2 4 7 10
0

0101000
+63 0 -53 0 *
Ve
1e-07
0 10 1
0 0

0101101
*
Ed
 1e-07 1 1 0
1  6 0 0 10
2  15 2 4 0 10
2  16 8 12 0 10
4 C0 2 4 8 12
0

0101000
+53 0 -51 0 *
Ed
 1e-07 1 1 0
1  7 0 0 1
2  17 2 4 0 1
2  18 3 5 0 1
4 C0 2 4 3 5
0

0101000
+62 0 -51 0 *
Wi

0101100
-52 11 -50 11 +49 11 +61 11 *
Fa
0  1e-07 2 0

0101000
+48 0 *
Ve
1e-07
10 10 1
0 0

0101101
*
Ed
 1e-07 1 1 0
1  8 0 0 1
2  19 4 0 0 1
2  20 3 0 0 1
2  21 9 0 0 1
2  22 9 7 0 1
2  23 10 0 0 1
2  24 10 9 0 1
0

0101000
-46 13 +60 13 *
Ed
 1e-07 1 1 0
1  9 0 0 10
2  25 3 5 0 10
2  26 8 12 0 10
4 C0 3 5 8 12
0

0101000
+51 0 -46 0 *
Wi

0101100
-59 13 -45 0 +44 13 +49 13 *
Fa
0  1e-07 3 0

0101000
+43 0 *
Ve
1e-07
10 0 1
0 0

0101101
*
Ed
 1e-07 1 1 0
1  10 0 0 1
2  27 4 0 0 1
2  28 7 0 0 1
2  29 11 0 0 1
2  30 11 7 0 1
2  31 12 0 0 1
2  32 12 9 0 1
0

0101000
-41 14 +58 14 *
Ed
 1e-07 1 1 0
1  11 0 0 10
2  33 7 10 0 10
2  34 8 12 0 10
4 C0 7 10 8 12
0

0101000
+53 0 -41 0 *
Wi

0101100
-56 14 -40 0 +39 14 +52 14 *
Fa
0  1e-07 7 0

0101000
+38 0 *
Ed
 1e-07 1 1 0
1  12 0 0 10
2  35 4 0 0 10
2  36 8 0 0 10
2  37 13 0 0 10
2  38 13 7 0 10
2  39 14 0 0 10
2  40 14 9 0 10
0

0101000
-46 15 +41 15 *
Wi

0101100
-50 15 -44 15 +36 0 +39 15 *
Fa
0  1e-07 8 0

0101000
+35 0 *
Sh

0101000
-54 2 -47 4 +42 5 -37 10 +34 12 *
Ve
1.00000002220446e-07
10.0007853981634 10 2.39808173319034e-14
0 0

0101101
*
Ve
1e-07
15.0007853981634 10 -1.27675647831893e-15
0 0

0101101
*
Ed
 1e-07 1 1 0
1  13 0 0 5
2  41 6 19 0 5
2  42 10 21 0 5
4 C0 6 19 10 21
0

0101000
+32 0 -31 0 *
Ve
1.00000002220446e-07
10.0007853981634 0 2.39808173319034e-14
0 0

0101101
*
Ve
1e-07
15.0007853981634 0 -1.27675647831893e-15
0 0

0101101
*
Ed
 1e-07 1 1 0
1  14 0 0 5
2  43 6 19 0 5
2  44 12 23 0 5
4 C0 6 19 12 23
0

0101000
+29 0 -28 0 *
Ed
 1e-07 1 1 0
1  3 0 0 10
2  5 4 0 0 10
2  6 1 0 0 10
2  7 5 0 0 10
2  8 5 7 0 10
2  9 6 0 0 10
2  10 6 9 0 10
0

0101000
+29 24 -32 24 *
Ed
 1e-07 1 1 0
1  15 0 0 10
2  10 6 19 0 10
2  45 4 26 0 10
4 C0 6 19 4 26
0

0101000
+28 0 -31 0 *
Wi

0101100
-30 18 +27 18 -26 6 +25 18 *
Fa
0  1e-07 6 17

0101000
+24 0 *
Ve
1.00000000444089e-07
10.0007853981634 10 0.999999999999988
0 0

0101101
*
Ve
1e-07
15.0007853981634 10 0.999999999999999
0 0

0101101
*
Ed
 1e-07 1 1 0
1  16 0 0 5
2  46 10 21 0 5
2  47 14 29 0 5
4 C0 10 21 14 29
0

0101000
+22 0 -21 0 *
Ed
 1.00000000444089e-07 1 1 0
1  8 0 0 1
2  19 4 0 0 1
2  20 3 0 0 1
2  21 9 0 0 1
2  22 9 7 0 1
2  23 10 0 0 1
2  24 10 9 0 1
0

0101000
+32 30 -22 30 *
Ed
 1e-07 1 1 0
1  17 0 0 1
2  24 10 21 0 1
2  48 4 26 0 1
4 C0 10 21 4 26
0

0101000
+31 0 -21 0 *
Wi

0101100
-20 27 +30 27 -19 6 +18 27 *
Fa
0  1e-07 10 17

0101000
+17 0 *
Ve
1.00000000444089e-07
10.0007853981634 0 0.999999999999988
0 0

0101101
*
Ve
1e-07
15.0007853981634 0 0.999999999999999
0 0

0101101
*
Ed
 1e-07 1 1 0
1  18 0 0 5
2  49 12 23 0 5
2  50 14 29 0 5
4 C0 12 23 14 29
0

0101000
+15 0 -14 0 *
Ed
 1.00000000444089e-07 1 1 0
1  10 0 0 1
2  27 4 0 0 1
2  28 7 0 0 1
2  29 11 0 0 1
2  30 11 7 0 1
2  31 12 0 0 1
2  32 12 9 0 1
0

0101000
+29 32 -15 32 *
Ed
 1e-07 1 1 0
1  19 0 0 1
2  32 12 23 0 1
2  51 4 26 0 1
4 C0 12 23 4 26
0

0101000
+28 0 -14 0 *
Wi

0101100
-13 31 +27 31 -12 6 +11 31 *
Fa
0  1e-07 12 17

0101000
+10 0 *
Ed
 1e-07 1 1 0
1  12 0 0 10
2  35 4 0 0 10
2  36 8 0 0 10
2  37 13 0 0 10
2  38 13 7 0 10
2  39 14 0 0 10
2  40 14 9 0 10
0

0101000
+15 34 -22 34 *
Ed
 1e-07 1 1 0
1  20 0 0 10
2  40 14 29 0 10
2  52 4 26 0 10
4 C0 14 29 4 26
0

0101000
+14 0 -21 0 *
Wi

0101100
-20 33 +13 33 -8 6 +7 33 *
Fa
0  1e-07 14 17

0101000
+6 0 *
Wi

0101100
-11 35 -7 35 +18 35 +25 35 *
Fa
0  1e-07 4 0

0101000
+4 0 *
Sh

0101000
-23 16 -16 20 +9 22 +5 28 +3 26 *
Co

1100000
+33 0 +2 0 *

+1 1  