
CASCADE Topology V1, (c) Matra-Datavision
Locations 28
1
              1               0               0               0 
              0               1               0               0 
              0               0               1               0 
1
              1               0               0               0 
              0               1               0               0 
              0               0               1               0 
2  2 -1 0
1
              1               0               0               0 
              0               1               0               0 
              0               0               1               0 
1
              1               0               0               0 
              0               1               0               0 
              0               0               1               0 
1
              1               0               0               0 
              0               1               0               0 
              0               0               1               0 
2  4 -1 0
1
              1               0               0               0 
              0               1               0               0 
              0               0               1               0 
2  5 -1 0
2  8 -1 0
2  6 -1 0
1
0.707106781186548               0 -0.707106781186548 3.63674607610226 
              0               1               0               0 
0.707106781186548               0 0.707106781186548 -6.77788169983321 
1
0.707106781186548               0 0.707106781186547 2.22190369833019 
              0               1               0               0 
-0.707106781186547               0 0.707106781186548 7.36425392389774 
2  12 1 13 1 0
1
0.707106781186548               0 0.707106781186547 2.22190369833019 
              0               1               0               0 
-0.707106781186547               0 0.707106781186548 7.36425392389774 
2  12 1 15 1 0
1
0.707106781186548               0 0.707106781186547 2.22190369833019 
              0               1               0               0 
-0.707106781186547               0 0.707106781186548 7.36425392389774 
2  12 1 17 1 0
1
0.707106781186548               0 0.707106781186547 2.22190369833019 
              0               1               0               0 
-0.707106781186547               0 0.707106781186548 7.36425392389774 
2  12 1 19 1 0
2  13 -1 0
1
              1               0               0               5 
              0               1               0               0 
              0               0               1              -0 
1
0.707106781186548               0 0.707106781186547 2.22190369833019 
              0               1               0               0 
-0.707106781186547               0 0.707106781186548 7.36425392389774 
2  22 1 12 1 23 1 0
2  17 -1 0
2  19 -1 0
2  15 -1 0
2  23 -1 12 -1 22 -1 0
Curve2ds 56
1 0 0 0 1 
1 0 0 0 -1 
1 0 10 1 0 
1 0 0 0 1 
1 10 0 0 1 
1 0.00039269908169892176 -5 0 1 
1 0 0 1 0 
1 0 0 0 1 
1 0 0 1 0 
1 0 0 1 0 
1 1 0 0 -1 
1 0 0 0 1 
1 0 -10 1 0 
1 0 0 1 0 
1 0 10 1 0 
8 0 1
1 0.5 -0.00039269908169892176 -1 -0 
1 1 0 0 1 
1 0 10 1 0 
1 10 0 0 1 
1 0.00039269908169892176 -5 0 1 
1 0 0 1 0 
1 1 0 0 1 
1 0 10 1 0 
8 0 1
1 0.5 -0.00039269908169892176 -1 -0 
1 0.00039269908169892176 5 -1 0 
1 0.5 -0.00039269908169892176 0 1 
1 -0.00039269908169892176 5 0 -1 
8 0 10
1 10 -1.7763568394002505e-15 -1 -0 
1 -0.00039269908169892176 -5 1 0 
8 0 0.00078539816339784352
1 0.5 0.00039269908169892176 -0 -1 
1 0.00039269908169892176 5 -1 0 
8 0 0.00078539816339784352
1 -0.5 -0.00039269908169892176 -0 1 
1 -0.00039269908169892176 5 0 -1 
8 0 10
1 10 -1.7763568394002505e-15 -1 -0 
1 -0.00039269908169892176 -5 1 0 
1 -0.5 0.00039269908169892176 0 -1 
1 0.5 0.00039269908169892176 -1 0 
1 0 -1.7763568394002505e-15 1 0 
1 0.5 0.00039269908169892176 -1 0 
1 0 -1.7763568394002505e-15 1 0 
1 10 0 0 -1 
1 0 0 0 -1 
1 0 0 0 -1 
1 0 0 0 -1 
1 0 -5 1 0 
1 0 0 0 -1 
1 1 0 0 -1 
1 10 0 0 -1 
1 0 -5 1 0 
1 0 -10 1 0 
1 1 0 0 -1 
1 0 0 0 -1 
1 0 -5 1 0 
1 0 0 1 0 
1 0 -5 1 0 
1 1 0 0 -1 
Curves 28
1 0 0 0 -0 1 0 
1 0 10 0 1 0 -0 
1 10 0 0 -0 1 0 
1 0 0 0 1 0 -0 
1 0 0 0 0 0 1 
1 0 0 1 -0 1 0 
1 0 10 0 0 0 1 
1 10 10 0 0 0 1 
1 0 10 1 1 0 -0 
1 10 0 1 -0 1 0 
1 0 0 1 1 0 -0 
1 10 0 0 0 0 1 
1 10 10 0 1 0 0 
1 10.000785398163398 10 0 0 -1 0 
1 10.000785398163398 0 0 -1 0 0 
1 10 10 1 1 0 0 
1 10.000785398163398 10 1 0 -1 0 
1 10.000785398163398 0 1 -1 0 0 
1 10.000785398163398 10 0 0 0 1 
1 10.000785398163398 0 0 0 0 1 
1 10.000785398163401 10.000000000000004 -3.2196467714129524e-15 1 0 3.8857805861880479e-16 
1 10.000785398163401 0 -3.2196467714129524e-15 1 0 3.8857805861880479e-16 
1 15.000785398163403 0 -1.2767564783189277e-15 0 1 0 
1 10.000785398163401 10.000000000000004 0.99999999999999734 1 0 3.8857805861880479e-16 
1 15.000785398163403 10.000000000000004 -1.2767564783189277e-15 -3.8857805861880479e-16 0 1 
1 10.000785398163401 0 0.99999999999999734 1 0 3.8857805861880479e-16 
1 15.000785398163403 0 -1.2767564783189277e-15 -3.8857805861880479e-16 0 1 
1 15.000785398163403 0 0.99999999999999933 0 1 0 
Polygon3D 0
PolygonOnTriangulations 0
Surfaces 14
1 0 0 0 0 0 1 1 0 -0 -0 1 0 
1 0 0 0 1 0 -0 0 0 1 0 -1 0 
1 0 10 0 -0 1 0 0 0 1 1 0 -0 
1 10.000392699081699 5 0 -0 -0 -1 -1 0 0 0 1 -0 
1 0 0 0 -0 1 0 0 0 1 1 0 -0 
1 0 0 1 0 0 1 1 0 -0 -0 1 0 
1 10.000392699081699 10 0.5 -0 -1 -0 0 0 -1 1 -0 0 
1 10.000392699081699 5 1 -0 -0 -1 -1 0 0 0 1 -0 
1 10.000392699081699 0 0.5 -0 -1 -0 0 0 -1 1 -0 0 
1 10 0 0 0 0 1 -0 1 0 -1 -0 0 
1 10 0 1 0 0 1 -0 1 0 -1 -0 0 
1 10 10 0 0 -1 0 0 0 1 -1 0 0 
1 10 0 0 0 -1 0 0 0 1 -1 0 0 
1 10 0 0 1 0 -0 0 0 1 0 -1 0 
Triangulations 0

TShapes 74
Ve
1e-07
0 0 0
0 0

0101101
*
Ve
1e-07
0 10 0
0 0

0101101
*
Ed
 1e-07 1 1 0
1  1 0 0 10
2  1 1 2 0 10
2  2 2 4 0 10
4 C0 1 2 2 4
0

0101000
+74 0 -73 0 *
Ve
1e-07
10 10 0
0 0

0101101
*
Ed
 1e-07 1 1 0
1  2 0 0 10
2  3 1 2 0 10
2  4 3 5 0 10
4 C0 1 2 3 5
0

0101000
+73 0 -71 0 *
Ve
1e-07
10 0 0
0 0

0101101
*
Ed
 1e-07 1 1 0
1  3 0 0 10
2  5 1 2 0 10
2  6 4 0 0 10
4 G2 1 2 4 0
0

0101000
+69 0 -71 0 *
Ed
 1e-07 1 1 0
1  4 0 0 10
2  7 1 2 0 10
2  8 5 6 0 10
4 C0 1 2 5 6
0

0101000
+74 0 -69 0 *
Wi

0101100
-72 3 -70 3 +68 3 +67 3 *
Fa
0  1e-07 1 0

0101000
+66 0 *
Ve
1e-07
0 0 1
0 0

0101101
*
Ed
 1e-07 1 1 0
1  5 0 0 1
2  9 2 4 0 1
2  10 5 6 0 1
4 C0 2 4 5 6
0

0101000
+74 0 -64 0 *
Ve
1e-07
0 10 1
0 0

0101101
*
Ed
 1e-07 1 1 0
1  6 0 0 10
2  11 2 4 0 10
2  12 6 8 0 10
4 C0 2 4 6 8
0

0101000
+64 0 -62 0 *
Ed
 1e-07 1 1 0
1  7 0 0 1
2  13 2 4 0 1
2  14 3 5 0 1
4 C0 2 4 3 5
0

0101000
+73 0 -62 0 *
Wi

0101100
-63 7 -61 7 +60 7 +72 7 *
Fa
0  1e-07 2 0

0101000
+59 0 *
Ve
1e-07
10 10 1
0 0

0101101
*
Ed
 1e-07 1 1 0
1  8 0 0 1
2  15 3 5 0 1
2  16 7 0 0 1
4 G2 3 5 7 0
0

0101000
+71 0 -57 0 *
Ed
 1e-07 1 1 0
1  9 0 0 10
2  17 3 5 0 10
2  18 6 8 0 10
4 C0 3 5 6 8
0

0101000
+62 0 -57 0 *
Wi

0101100
-70 9 -56 9 +55 9 +60 9 *
Fa
0  1e-07 3 0

0101000
+54 0 *
Ve
1e-07
10 0 1
0 0

0101101
*
Ed
 1e-07 1 1 0
1  10 0 0 10
2  19 6 8 0 10
2  20 8 0 0 10
4 G2 6 8 8 0
0

0101000
+52 0 -57 0 *
Ed
 1e-07 1 1 0
1  11 0 0 10
2  21 6 8 0 10
2  22 5 6 0 10
4 C0 6 8 5 6
0

0101000
+64 0 -52 0 *
Wi

0101100
-61 10 -55 10 +51 10 +50 10 *
Fa
0  1e-07 6 0

0101000
+49 0 *
Ed
 1e-07 1 1 0
1  12 0 0 1
2  23 5 6 0 1
2  24 9 0 0 1
4 G2 5 6 9 0
0

0101000
+69 0 -52 0 *
Wi

0101100
-67 11 -47 11 +50 11 +63 11 *
Fa
0  1e-07 5 0

0101000
+46 0 *
Ve
1.00000018676335e-07
10.0007853981634 10 1.29568290406042e-14
0 0

0101101
*
Ed
 1e-07 1 1 0
1  13 0 0 0.000785398163397844
2  25 4 0 0 0.000785398163397844
2  26 7 0 0 0.000785398163397844
4 C0 4 0 7 0
0

0101000
+71 0 -44 0 *
Ve
1.00000018676335e-07
10.0007853981634 0 1.29568290406042e-14
0 0

0101101
*
Ed
 1e-07 1 1 0
1  14 0 0 10
2  27 4 0 0 10
2  28 10 14 0 10
4 G2 4 0 10 14
0

0101000
+44 0 -42 0 *
Ed
 1e-07 1 1 0
1  15 0 0 0.000785398163397844
2  29 4 0 0 0.000785398163397844
2  30 9 0 0 0.000785398163397844
4 C0 4 0 9 0
0

0101000
+42 0 -69 0 *
Wi

0101100
+43 0 +41 0 +40 0 +68 0 *
Fa
0  1e-07 4 0

0101000
+39 0 *
Ve
1.0000000698621e-07
10.0007853981634 10 0.999999999999994
0 0

0101101
*
Ed
 1e-07 1 1 0
1  16 0 0 0.000785398163397844
2  31 8 0 0 0.000785398163397844
2  32 7 0 0 0.000785398163397844
4 C0 8 0 7 0
0

0101000
+57 0 -37 0 *
Ve
1.00000007170274e-07
10.0007853981634 0 0.999999999999994
0 0

0101101
*
Ed
 1e-07 1 1 0
1  17 0 0 10
2  33 8 0 0 10
2  34 11 16 0 10
4 G2 8 0 11 16
0

0101000
+37 0 -35 0 *
Ed
 1e-07 1 1 0
1  18 0 0 0.000785398163397844
2  35 8 0 0 0.000785398163397844
2  36 9 0 0 0.000785398163397844
4 C0 8 0 9 0
0

0101000
+35 0 -52 0 *
Wi

0101100
+36 0 +34 0 +33 0 +51 0 *
Fa
0  1e-07 8 0

0101000
+32 0 *
Ed
 1e-07 1 1 0
1  19 0 0 1
2  37 7 0 0 1
2  38 12 18 0 1
4 G2 7 0 12 18
0

0101000
+44 0 -37 0 *
Wi

0101100
+43 0 +30 0 -36 0 -56 0 *
Fa
0  1e-07 7 0

0101000
+29 0 *
Ed
 1e-07 1 1 0
1  20 0 0 1
2  39 9 0 0 1
2  40 13 20 0 1
4 G2 9 0 13 20
0

0101000
+42 0 -35 0 *
Wi

0101100
-40 0 +27 0 +33 0 -47 0 *
Fa
0  1e-07 9 0

0101000
+26 0 *
Ve
1e-07
15.0007853981634 10 -1.27675647831893e-15
0 0

0101101
*
Ed
 1e-07 1 1 0
1  21 0 0 5
2  41 10 14 0 5
2  42 12 18 0 5
4 C0 10 14 12 18
0

0101000
+44 0 -24 0 *
Ve
1e-07
15.0007853981634 0 -1.27675647831893e-15
0 0

0101101
*
Ed
 1e-07 1 1 0
1  22 0 0 5
2  43 10 14 0 5
2  44 13 20 0 5
4 C0 10 14 13 20
0

0101000
+42 0 -22 0 *
Ed
 1e-07 1 1 0
1  23 0 0 10
2  45 10 14 0 10
2  46 14 24 0 10
4 C0 10 14 14 24
0

0101000
+22 0 -24 0 *
Wi

0101100
-23 21 +21 21 +41 21 +20 21 *
Fa
0  1e-07 10 12

0101000
+19 0 *
Ve
1e-07
15.0007853981634 10 0.999999999999999
0 0

0101101
*
Ed
 1e-07 1 1 0
1  24 0 0 5
2  47 12 18 0 5
2  48 11 16 0 5
4 C0 12 18 11 16
0

0101000
+37 0 -17 0 *
Ed
 1e-07 1 1 0
1  25 0 0 1
2  49 12 18 0 1
2  50 14 24 0 1
4 C0 12 18 14 24
0

0101000
+24 0 -17 0 *
Wi

0101100
-16 25 +23 25 -30 25 +15 25 *
Fa
0  1e-07 12 12

0101000
+14 0 *
Ve
1e-07
15.0007853981634 0 0.999999999999999
0 0

0101101
*
Ed
 1e-07 1 1 0
1  26 0 0 5
2  51 13 20 0 5
2  52 11 16 0 5
4 C0 13 20 11 16
0

0101000
+35 0 -12 0 *
Ed
 1e-07 1 1 0
1  27 0 0 1
2  53 13 20 0 1
2  54 14 24 0 1
4 C0 13 20 14 24
0

0101000
+22 0 -12 0 *
Wi

0101100
-11 26 +21 26 -27 26 +10 26 *
Fa
0  1e-07 13 12

0101000
+9 0 *
Ed
 1e-07 1 1 0
1  28 0 0 10
2  55 11 16 0 10
2  56 14 24 0 10
4 C0 11 16 14 24
0

0101000
+12 0 -17 0 *
Wi

0101100
-16 27 +11 27 +34 27 +7 27 *
Fa
0  1e-07 11 12

0101000
+6 0 *
Wi

0101100
-10 28 -7 28 +15 28 +20 28 *
Fa
0  1e-07 14 0

0101000
+4 0 *
Sh

0101100
-65 2 -58 4 +53 5 +48 8 -45 6 +38 0 -31 0 -28 0 +25 0 -18 13 
-13 17 +8 19 +5 15 +3 24 *
So

1100000
+2 0 *

+1 1  