
CASCADE Topology V1, (c) Matra-Datavision
Locations 37
1
              1               0               0               0 
              0               1               0               0 
              0               0               1               0 
1
              1               0               0              -0 
              0               1               0               5 
              0               0               1               0 
1
              1               0               0               0 
              0 0.766044443118978 0.642787609686539 2.66094937365349 
              0 -0.642787609686539 0.766044443118978 6.31089831842488 
1
              1               0               0               0 
              0               1               0 3.83022221559489 
              0               0               1 -3.2139380484327 
1
              1               0               0               0 
              0 0.17364817766693 0.984807753012208 15.0861443154317 
              0 -0.984807753012208 0.17364817766693 10.551090589445 
2  2 1 3 1 4 1 5 1 0
1
              1               0               0               0 
              0 0.766044443118978 0.642787609686539 2.66094937365349 
              0 -0.642787609686539 0.766044443118978 6.31089831842488 
2  7 -1 0
2  2 -1 0
2  3 -1 2 -1 0
1
              1               0               0               0 
              0 0.17364817766693 0.984807753012208 15.0861443154317 
              0 -0.984807753012208 0.17364817766693 10.551090589445 
2  11 -1 3 -1 2 -1 0
2  4 -1 3 -1 2 -1 0
1
0.939692620785908               0 -0.342020143325669 1.11610400712942 
              0               1               0               0 
0.342020143325669               0 0.939692620785908 -3.32974036443555 
2  14 -1 0
1
              1               0               0               5 
              0               1               0               0 
              0               0               1              -0 
2  16 -1 0
1
            0.5               0 0.866025403784439 -1.29903810567666 
              0               1               0               0 
-0.866025403784439               0             0.5            0.75 
2  18 -1 0
1
              1               0               0              -5 
              0               1               0              -0 
              0               0               1               0 
2  20 -1 0
2  5 -1 0
2  2 1 3 1 4 1 0
2  2 1 3 1 5 1 0
2  5 -1 3 -1 2 -1 0
2  2 1 3 1 11 1 5 -1 3 -1 2 -1 0
2  2 1 3 1 0
2  3 -1 0
2  7 1 3 -1 0
1
0.939692620785908               0 -0.342020143325669 1.11610400712942 
              0               1               0               0 
0.342020143325669               0 0.939692620785908 -3.32974036443555 
2  30 -1 0
2  14 1 30 -1 0
1
            0.5               0 0.866025403784439 -1.29903810567666 
              0               1               0               0 
-0.866025403784439               0             0.5            0.75 
2  18 1 33 -1 0
2  33 -1 0
2  16 1 30 1 0
2  20 1 33 1 0
Curve2ds 184
1 0 0 0 1 
1 0 10 1 0 
1 0 0 0 1 
1 0.69813170079773179 0 0 1 
1 0 0 1 0 
1 0 -4.9999999999999982 1 0 
1 0 0 0 1 
1 1.3962634015954636 0 0 1 
1 0 -7.6918507455342563e-016 1 0 
1 0 -5.0000000000000018 1 0 
1 0 -10 1 0 
1 0 10 1 0 
1 1.5 0 -1 0 
1 1.4095389311788624 0.51303021498850399 -0.93969262078590843 -0.34202014332566871 
1 0 0 1 0 
1 0 -5.0000000000000009 1 0 
1 -0.5 0 -1 0 
1 -0.3830222215594894 0.32139380484326985 -0.76604444311897812 0.64278760968653936 
1 0 0 1 0 
1 -8.8817841970012523e-016 -4.9999999999999991 1 0 
1 -0.5 1.7763568394002505e-015 -1 -3.8857805861880469e-016 
1 -0.086824088833466817 0.49240387650610273 -0.1736481776669308 0.98480775301220813 
1 -1.5383701491068513e-015 -8.8817841970012523e-016 1 5.5511151231257827e-017 
1 -8.8817841970012523e-016 -5.0000000000000018 1 5.5511151231257827e-017 
1 1 0 0 1 
1 0 10 1 0 
1 0 0 0 1 
1 0.69813170079773179 0 0 1 
1 0 0 1 0 
1 0 -5 1 0 
1 0 0 0 1 
1 1.3962634015954636 0 0 1 
1 0 7.6918507455342563e-016 1 0 
1 0 -5 1 0 
1 0 -10 1 0 
1 0 0 1 0 
1 -0.5 0 -1 0 
1 -0.3830222215594894 0.32139380484326985 -0.76604444311897812 0.64278760968653936 
1 0 0 1 0 
1 -8.8817841970012523e-016 -4.9999999999999991 1 0 
1 1.5 0 -1 0 
1 0.75000000000000022 1.299038105676658 -0.50000000000000011 -0.8660254037844386 
1 0 0 1 0 
1 0 -5 1 0 
1 -0.5 1.7763568394002505e-015 -1 -3.8857805861880469e-016 
1 -0.086824088833466817 0.49240387650610273 -0.1736481776669308 0.98480775301220813 
1 -1.5383701491068513e-015 -8.8817841970012523e-016 1 5.5511151231257827e-017 
1 -8.8817841970012523e-016 -5.0000000000000018 1 5.5511151231257827e-017 
1 0 0 0 -1 
1 10 0 0 -1 
8 0 10
1 1.3962634015954636 0 0 1 
1 0 0 0 1 
1 0 0 0 -1 
1 0 0 0 -1 
1 1.0000000000000013 -1.27675647831893e-015 0 -1 
1 10 0 0 -1 
1 -0.086824088833465679 0.49240387650610307 -0.1736481776669308 0.98480775301220813 
1 0 10 1 0 
8 0 10
1 1.3962634015954636 0 0 1 
1 1.0000000000000004 0 0 1 
1 1.0000000000000013 -1.27675647831893e-015 0 -1 
1 0 0 0 -1 
1 -0.086824088833465679 0.49240387650610307 -0.1736481776669308 0.98480775301220813 
1 0 0 1 0 
1 0 10 1 0 
2 0 0 -1 3.5527136788005009e-015 3.5527136788005009e-015 1 0.5
1 0 0 1 0 
2 0 0 -1 3.5527136788005009e-015 3.5527136788005009e-015 1 0.5
2 0 0 -1 1.1842378929334997e-015 1.1842378929334997e-015 1 1.5000000000000002
1 0 10 1 0 
1 0 0 1 0 
2 0 0 -1 1.1842378929334997e-015 1.1842378929334997e-015 1 1.5000000000000002
1 10 0 0 -1 
1 0 0 0 -1 
8 0 10
1 0.69813170079773179 0 0 1 
1 0 0 0 1 
1 0 0 0 -1 
1 0 0 0 -1 
1 0.99999999999999911 9.4368957093138306e-016 0 -1 
1 10 0 0 -1 
1 -0.3830222215594894 0.32139380484326985 -0.76604444311897812 0.64278760968653936 
1 0 10 1 0 
8 0 10
1 0.69813170079773179 0 0 1 
1 0.99999999999999867 0 0 1 
1 0.99999999999999911 9.4368957093138306e-016 0 -1 
1 0 0 0 -1 
1 -0.3830222215594894 0.32139380484326985 -0.76604444311897812 0.64278760968653936 
1 0 0 1 0 
1 0 10 1 0 
2 0 0 -1 0 0 1 0.5
1 0 0 1 0 
2 0 0 -1 0 0 1 0.5
2 0 0 -1 0 0 1 1.5
1 0 10 1 0 
1 0 0 1 0 
2 0 0 -1 0 0 1 1.5
1 0 0 0 -1 
1 0 0 0 1 
1 0 0 0 1 
1 1.0471975511965976 0 0 1 
1 0 0 1 0 
1 0 -5 1 0 
1 0 0 0 -1 
1 10 0 0 1 
1 0 0 0 1 
1 0.3490658503988659 0 0 1 
1 0 0 1 0 
1 0 -5.0000000000000009 1 0 
1 0 0 0 1 
1 0 0 1 0 
1 0 10 1 0 
2 0 0 1 0 -0 1 0.5
1 1.4095389311788624 0.51303021498850399 -0.93969262078590843 -0.34202014332566871 
1 0 -10 1 0 
2 0 0 1 0 -0 1 1.5
1 0 10 1 0 
1 1 0 0 -1 
1 0 0 0 1 
1 0 0 0 1 
1 1.0471975511965976 0 0 1 
1 0 0 1 0 
1 0 -5 1 0 
1 1 0 0 -1 
1 10 0 0 1 
1 0 0 0 1 
1 0.3490658503988659 0 0 1 
1 0 0 1 0 
1 0 -5.0000000000000009 1 0 
1 1 0 0 1 
1 0 0 1 0 
1 0 10 1 0 
2 0 0 1 0 -0 1 0.5
1 0 -10 1 0 
1 0.75000000000000022 1.299038105676658 -0.50000000000000011 -0.8660254037844386 
2 0 0 1 0 -0 1 1.5
1 0 10 1 0 
8 0 10
1 1.0471975511965976 0 0 1 
1 0 0 0 -1 
2 0 0 1 0 -0 1 1.5
1 0 0 1 0 
8 0 10
1 0.3490658503988659 0 0 1 
1 0 0 0 -1 
2 0 0 1 0 -0 1 1.5
1 0 0 1 0 
1 0 0 1 0 
1 0 10 1 0 
1 1.5 0 -1 0 
1 1.4095389311788624 0.51303021498850399 -0.93969262078590843 -0.34202014332566871 
1 0 0 1 0 
1 0 -5.0000000000000009 1 0 
1 0 0 1 0 
1 0 0 1 0 
1 1.5 0 -1 0 
1 0.75000000000000022 1.299038105676658 -0.50000000000000011 -0.8660254037844386 
1 0 0 1 0 
1 0 -5 1 0 
8 0 10
1 0.3490658503988659 0 0 1 
1 1 0 0 -1 
2 0 0 1 0 -0 1 0.5
1 0 0 1 0 
1 10 0 0 -1 
1 0.99999999999999989 7.2164496600635175e-016 0 -1 
1 10 0 0 -1 
1 0 0 0 -1 
8 0 10
1 1.0471975511965976 0 0 1 
1 1 0 0 -1 
2 0 0 1 0 -0 1 0.5
1 0 0 1 0 
1 10 0 0 -1 
1 1 -5.5511151231257827e-017 0 -1 
1 10 0 0 -1 
1 0 0 0 -1 
1 0 0 0 -1 
1 0 0 0 -1 
1 0.75000000000000022 1.299038105676658 -0.50000000000000011 -0.8660254037844386 
1 0 0 1 0 
1 0 0 0 -1 
1 0 0 0 -1 
1 1.4095389311788624 0.51303021498850399 -0.93969262078590843 -0.34202014332566871 
1 0 0 1 0 
1 0.99999999999999989 7.2164496600635175e-016 0 -1 
1 0 0 0 -1 
1 1 -5.5511151231257827e-017 0 -1 
1 0 0 0 -1 
Curves 44
1 0 10 0 1 0 -0 
1 10 10 0 0 0 1 
1 0 10 1 1 0 -0 
1 0 10 0 0 0 1 
1 10 14.151616020438158 -3.3309158268732069 0 0.76604444311897812 -0.64278760968653936 
1 0 14.151616020438158 -3.3309158268732069 0 0.76604444311897812 -0.64278760968653936 
1 10 14.794403630124698 -2.564871383754229 0 0.76604444311897812 -0.64278760968653936 
1 0 14.794403630124698 -2.564871383754229 0 0.76604444311897812 -0.64278760968653936 
2 10 13.830222215594889 -3.7139380484326958 -1 -0 -0 -0 0.6427876096865397 0.7660444431189779 0 0.7660444431189779 -0.6427876096865397 0.5
2 0 13.830222215594889 -3.7139380484326958 -1 -0 -0 -0 0.6427876096865397 0.7660444431189779 0 0.7660444431189779 -0.6427876096865397 0.5
2 10 13.830222215594889 -3.7139380484326958 -1 -0 -0 -0 0.64278760968653958 0.76604444311897779 0 0.76604444311897779 -0.64278760968653958 1.5000000000000002
2 0 13.830222215594889 -3.7139380484326958 -1 -0 -0 -0 0.64278760968653958 0.76604444311897779 0 0.76604444311897779 -0.64278760968653958 1.5000000000000002
1 10 10 0 -0 1 0 
1 0 10 0 -0 1 0 
1 10 10 1 -0 1 0 
1 0 10 1 -0 1 0 
2 10 10 -0.5 -1 -0 -0 -0 0 1 0 1 -0 0.5
2 0 10 -0.5 -1 -0 -0 -0 0 1 0 1 -0 0.5
2 10 10 -0.5 -1 -0 -0 -0 0 1 0 1 -0 1.5
2 0 10 -0.5 -1 -0 -0 -0 0 1 0 1 -0 1.5
1 0 0 0 -0 1 0 
1 10 0 0 -0 1 0 
1 0 0 0 1 0 -0 
2 10 10 1.5 -0 -1 -0 0 0 -1 1 -0 0 0.5
2 10 10 1.5 -0 -1 -0 0 0 -1 1 -0 0 1.5
1 0 0 1 -0 1 0 
1 10 0 1 0 1 0 
1 0 0 1 1 0 -0 
2 0 10 1.5 0 1 0 0 0 -1 -1 0 0 0.5
2 0 10 1.5 0 1 0 0 0 -1 -1 0 0 1.5
2 0 0 1.5 0 1 0 0 0 -1 -1 0 0 1.5
2 10 0 1.5 -0 -1 -0 0 0 -1 1 -0 0 1.5
1 10 0 0 0 0 1 
1 0 0 0 0 0 1 
2 10 0 1.5 -0 -1 -0 0 0 -1 1 -0 0 0.5
1 10 10 1 1 0 -0 
1 10 10 0 1 0 -0 
2 0 0 1.5 0 1 0 0 0 -1 -1 0 0 0.5
1 0 10 1 -1 -0 0 
1 0 10 0 -1 -0 0 
1 0 0 0 -1 -0 0 
1 10 0 0 1 0 -0 
1 10 0 1 1 0 -0 
1 0 0 1 -1 -0 0 
Polygon3D 0
PolygonOnTriangulations 0
Surfaces 38
1 0 10 0 -0 1 0 0 0 1 1 0 -0 
1 0 0 0 0 0 1 1 0 -0 -0 1 0 
2 0 10 -0.5 1 0 0 0 0 1 -0 1 -0 0.5
1 0 10 0 -0 0 -1 1 0 -0 0 -1 -0 
2 0 13.830222215594889 -3.7139380484326958 1 0 0 -0 0.6427876096865397 0.7660444431189779 -0 0.7660444431189779 -0.6427876096865397 0.50000000000000011
1 0 14.151616020438158 -3.3309158268732069 0 -0.64278760968653936 -0.76604444311897812 1 0 0 0 -0.76604444311897812 0.64278760968653936 
1 10 0 0 1 0 -0 0 0 1 0 -1 0 
1 10 10 1.5 -0 -1 -0 0 0 -1 1 -0 0 
1 10 10 0 0 -1 0 0 0 1 -1 0 0 
1 10 10 -0.5 -1 -0 -0 0 -0 -1 0 1 -0 
1 10 10 0 1 0 -0 0 0 1 0 -1 0 
1 10 13.830222215594889 -3.7139380484326958 -1 -0 -0 0 -0.6427876096865397 -0.7660444431189779 0 0.7660444431189779 -0.6427876096865397 
1 10 14.151616020438158 -3.3309158268732069 1 -0 0 0 0.64278760968653936 0.76604444311897812 -0 -0.76604444311897812 0.64278760968653936 
1 0 0 1 0 0 1 1 0 -0 -0 1 0 
2 0 10 -0.5 1 0 0 0 0 1 -0 1 -0 1.5
1 0 10 1 -0 0 -1 1 0 -0 0 -1 -0 
2 0 13.830222215594889 -3.7139380484326958 1 0 0 -0 0.64278760968653958 0.76604444311897779 -0 0.76604444311897779 -0.64278760968653958 1.5000000000000002
1 0 14.794403630124698 -2.564871383754229 0 -0.64278760968653936 -0.76604444311897812 1 0 0 0 -0.76604444311897812 0.64278760968653936 
1 0 0 0 1 0 -0 0 0 1 0 -1 0 
1 0 10 -0.5 -1 -0 -0 0 -0 -1 0 1 -0 
1 0 10 0 1 0 -0 0 0 1 0 -1 0 
1 0 10 1.5 0 1 0 0 0 -1 -1 0 0 
1 0 10 0 -0 1 0 0 0 1 1 0 -0 
1 0 13.830222215594889 -3.7139380484326958 -1 -0 -0 0 -0.6427876096865397 -0.7660444431189779 0 0.7660444431189779 -0.6427876096865397 
1 0 14.151616020438158 -3.3309158268732069 1 -0 0 0 0.64278760968653936 0.76604444311897812 -0 -0.76604444311897812 0.64278760968653936 
2 0 0 1.5 0 1 0 0 0 -1 -1 0 0 1.5
1 0 0 0 -0 0 -1 0 1 0 1 0 -0 
2 10 0 1.5 0 1 0 0 0 -1 1 -0 -0 1.5
1 10 0 0 0 0 1 -0 1 0 -1 -0 0 
1 0 0 0 -0 1 0 0 0 1 1 0 -0 
2 10 0 1.5 0 1 0 0 0 -1 1 -0 -0 0.5
2 0 0 1.5 0 1 0 0 0 -1 -1 0 0 0.5
1 0 0 1 -0 0 -1 0 1 0 1 0 -0 
1 10 0 1 0 -0 1 0 1 0 -1 0 0 
1 0 0 1.5 0 1 0 0 0 -1 -1 0 0 
1 10 0 1.5 -0 -1 -0 0 0 -1 1 -0 0 
1 10 0 0 0 -1 0 0 0 1 -1 0 0 
1 0 0 0 -0 1 0 0 0 1 1 0 -0 
Triangulations 0

TShapes 163
Ve
1e-007
10 10 0
0 0

0101101
*
Ve
1e-007
0 10 0
0 0

0101101
*
Ed
 1e-007 1 1 0
1  1 0 0 10
2  1 1 0 0 10
2  2 2 0 0 10
2  3 3 0 0 10
2  4 3 8 0 10
2  5 4 0 0 10
2  6 4 9 0 10
2  7 5 10 0 10
2  8 5 12 0 10
2  9 6 10 0 10
2  10 6 13 0 10
0

0101000
-163 0 +162 0 *
Ve
1e-007
10 10 1
0 0

0101101
*
Ed
 1e-007 1 1 0
1  2 0 0 1
2  11 7 0 0 1
2  12 1 0 0 1
2  13 8 0 0 1
2  14 8 15 0 1
2  15 9 0 0 1
2  16 9 17 0 1
2  17 10 0 0 1
2  18 10 8 0 1
2  19 11 0 0 1
2  20 11 9 0 1
2  21 12 10 0 1
2  22 12 12 0 1
2  23 13 10 0 1
2  24 13 13 0 1
0

0101000
-160 0 +163 0 *
Ve
1e-007
0 10 1
0 0

0101101
*
Ed
 1e-007 1 1 0
1  3 0 0 10
2  25 1 0 0 10
2  26 14 0 0 10
2  27 15 0 0 10
2  28 15 8 0 10
2  29 16 0 0 10
2  30 16 9 0 10
2  31 17 10 0 10
2  32 17 12 0 10
2  33 18 10 0 10
2  34 18 13 0 10
0

0101000
-160 0 +158 0 *
Ed
 1e-007 1 1 0
1  4 0 0 1
2  35 19 0 0 1
2  36 1 0 0 1
2  37 20 0 0 1
2  38 20 8 0 1
2  39 21 0 0 1
2  40 21 9 0 1
2  41 22 0 0 1
2  42 22 19 0 1
2  43 23 0 0 1
2  44 23 21 0 1
2  45 24 10 0 1
2  46 24 12 0 1
2  47 25 10 0 1
2  48 25 13 0 1
0

0101000
-158 0 +162 0 *
Wi

0101100
-161 0 -159 0 +157 0 +156 0 *
Fa
0  1e-007 1 0

0111000
+155 0 *
Ve
1.00000000888178e-007
10 14.2632349174871 -3.96393804843269
0 0

0101101
*
Ed
 1e-007 1 1 0
1  5 0 0 5
2  49 13 0 0 5
2  50 6 0 0 5
0

0101000
+153 22 -163 23 *
Ve
1.00000000888178e-007
0 14.2632349174871 -3.96393804843269
0 0

0101101
*
Ed
 1e-007 1 1 0
1  1 0 0 10
2  1 1 0 0 10
2  2 2 0 0 10
2  3 3 0 0 10
2  4 3 8 0 10
2  5 4 0 0 10
2  6 4 9 0 10
2  7 5 10 0 10
2  8 5 12 0 10
2  9 6 10 0 10
2  10 6 13 0 10
2  51 5 25 0 10
2  52 1 26 0 10
0

0101000
+151 25 -153 25 *
Ed
 1e-007 1 1 0
1  6 0 0 5
2  53 6 0 0 5
2  54 25 0 0 5
0

0101000
+151 22 -162 23 *
Wi

0101100
-152 5 -150 24 +161 6 +149 5 *
Fa
0  1e-007 6 5

0111000
+148 0 *
Ve
1.00000000888178e-007
10 15.1292603212715 -4.46393804843269
0 0

0101101
*
Ed
 1e-007 1 1 0
1  7 0 0 5
2  55 13 0 0 5
2  56 18 0 0 5
0

0101000
+146 22 -160 23 *
Ed
 1.00000000888178e-007 1 1 0
1  2 0 0 1
2  11 7 0 0 1
2  12 1 0 0 1
2  13 8 0 0 1
2  14 8 15 0 1
2  15 9 0 0 1
2  16 9 17 0 1
2  17 10 0 0 1
2  18 10 8 0 1
2  19 11 0 0 1
2  20 11 9 0 1
2  21 12 10 0 1
2  22 12 12 0 1
2  23 13 10 0 1
2  24 13 13 0 1
2  57 12 25 0 1
2  58 1 26 0 1
0

0101000
+153 25 -146 25 *
Wi

0101100
-145 5 -144 24 +159 6 +152 5 *
Fa
0  1e-007 13 5

0111000
+143 0 *
Ve
1.00000000888178e-007
0 15.1292603212715 -4.46393804843269
0 0

0101101
*
Ed
 1e-007 1 1 0
1  3 0 0 10
2  25 1 0 0 10
2  26 14 0 0 10
2  27 15 0 0 10
2  28 15 8 0 10
2  29 16 0 0 10
2  30 16 9 0 10
2  31 17 10 0 10
2  32 17 12 0 10
2  33 18 10 0 10
2  34 18 13 0 10
2  59 17 25 0 10
2  60 1 26 0 10
0

0101000
+141 25 -146 25 *
Ed
 1e-007 1 1 0
1  8 0 0 5
2  61 25 0 0 5
2  62 18 0 0 5
0

0101000
+141 22 -158 23 *
Wi

0101100
-145 5 -140 24 +157 6 +139 5 *
Fa
0  1e-007 18 5

0111000
+138 0 *
Ed
 1.00000000888178e-007 1 1 0
1  4 0 0 1
2  35 19 0 0 1
2  36 1 0 0 1
2  37 20 0 0 1
2  38 20 8 0 1
2  39 21 0 0 1
2  40 21 9 0 1
2  41 22 0 0 1
2  42 22 19 0 1
2  43 23 0 0 1
2  44 23 21 0 1
2  45 24 10 0 1
2  46 24 12 0 1
2  47 25 10 0 1
2  48 25 13 0 1
2  63 24 25 0 1
2  64 1 26 0 1
0

0101000
+151 25 -141 25 *
Wi

0101100
-139 5 -136 24 +156 6 +149 5 *
Fa
0  1e-007 25 5

0111000
+135 0 *
Ed
 1e-007 1 1 0
1  9 0 0 1.39626340159546
2  65 5 0 0 1.39626340159546
2  66 12 0 0 1.39626340159546
0

0101000
+163 27 -153 0 *
Ed
 1e-007 1 1 0
1  10 0 0 1.39626340159546
2  67 5 0 0 1.39626340159546
2  68 24 0 0 1.39626340159546
0

0101000
+162 27 -151 0 *
Wi

0101100
-133 0 -161 27 +150 24 +132 0 *
Fa
0  1e-007 5 0

0111000
+131 0 *
Ed
 1e-007 1 1 0
1  11 0 0 1.39626340159546
2  69 12 0 0 1.39626340159546
2  70 17 0 0 1.39626340159546
0

0101000
+160 27 -146 0 *
Wi

0101100
-129 0 -159 27 +144 24 +133 0 *
Fa
0  1e-007 12 0

0111000
+128 0 *
Ed
 1e-007 1 1 0
1  12 0 0 1.39626340159546
2  71 17 0 0 1.39626340159546
2  72 24 0 0 1.39626340159546
0

0101000
+158 27 -141 0 *
Wi

0101100
-129 0 -157 27 +140 24 +126 0 *
Fa
0  1e-007 17 0

0111000
+125 0 *
Wi

0101100
-126 0 -156 27 +136 24 +132 0 *
Fa
0  1e-007 24 0

0111000
+123 0 *
Ve
1.00000000555112e-007
10 10.3213938048433 -0.116977778440511
0 0

0101101
*
Ed
 1e-007 1 1 0
1  13 0 0 5
2  73 4 0 0 5
2  74 11 0 0 5
0

0101000
+121 28 -163 2 *
Ve
1.00000000555112e-007
0 10.3213938048433 -0.116977778440511
0 0

0101101
*
Ed
 1e-007 1 1 0
1  1 0 0 10
2  1 1 0 0 10
2  2 2 0 0 10
2  3 3 0 0 10
2  4 3 8 0 10
2  5 4 0 0 10
2  6 4 9 0 10
2  75 3 28 0 10
2  76 1 29 0 10
0

0101000
+119 28 -121 28 *
Ed
 1e-007 1 1 0
1  14 0 0 5
2  77 4 0 0 5
2  78 21 0 0 5
0

0101000
+119 28 -162 2 *
Wi

0101100
-120 3 -118 3 +161 27 +117 3 *
Fa
0  1e-007 4 3

0111000
+116 0 *
Ve
1.00000000555112e-007
10 10.9641814145298 0.649066664678467
0 0

0101101
*
Ed
 1e-007 1 1 0
1  15 0 0 5
2  79 11 0 0 5
2  80 16 0 0 5
0

0101000
+114 28 -160 2 *
Ed
 1.00000000555112e-007 1 1 0
1  2 0 0 1
2  11 7 0 0 1
2  12 1 0 0 1
2  13 8 0 0 1
2  14 8 15 0 1
2  15 9 0 0 1
2  16 9 17 0 1
2  17 10 0 0 1
2  18 10 8 0 1
2  19 11 0 0 1
2  20 11 9 0 1
2  81 10 28 0 1
2  82 1 29 0 1
0

0101000
+121 28 -114 28 *
Wi

0101100
-113 3 -112 3 +159 27 +120 3 *
Fa
0  1e-007 11 3

0111000
+111 0 *
Ve
1.00000000555112e-007
0 10.9641814145298 0.649066664678467
0 0

0101101
*
Ed
 1e-007 1 1 0
1  3 0 0 10
2  25 1 0 0 10
2  26 14 0 0 10
2  27 15 0 0 10
2  28 15 8 0 10
2  29 16 0 0 10
2  30 16 9 0 10
2  83 15 28 0 10
2  84 1 29 0 10
0

0101000
+109 28 -114 28 *
Ed
 1e-007 1 1 0
1  16 0 0 5
2  85 21 0 0 5
2  86 16 0 0 5
0

0101000
+109 28 -158 2 *
Wi

0101100
-113 3 -108 3 +157 27 +107 3 *
Fa
0  1e-007 16 3

0111000
+106 0 *
Ed
 1.00000000555112e-007 1 1 0
1  4 0 0 1
2  35 19 0 0 1
2  36 1 0 0 1
2  37 20 0 0 1
2  38 20 8 0 1
2  39 21 0 0 1
2  40 21 9 0 1
2  87 20 28 0 1
2  88 1 29 0 1
0

0101000
+119 28 -109 28 *
Wi

0101100
-107 3 -104 3 +156 27 +117 3 *
Fa
0  1e-007 21 3

0111000
+103 0 *
Ed
 1e-007 1 1 0
1  17 0 0 0.698131700797732
2  89 3 0 0 0.698131700797732
2  90 10 0 0 0.698131700797732
0

0101000
+163 0 -121 0 *
Ed
 1e-007 1 1 0
1  18 0 0 0.698131700797732
2  91 3 0 0 0.698131700797732
2  92 20 0 0 0.698131700797732
0

0101000
+162 0 -119 0 *
Wi

0101100
-101 0 -161 0 +118 3 +100 0 *
Fa
0  1e-007 3 0

0111000
+99 0 *
Ed
 1e-007 1 1 0
1  19 0 0 0.698131700797732
2  93 10 0 0 0.698131700797732
2  94 15 0 0 0.698131700797732
0

0101000
+160 0 -114 0 *
Wi

0101100
-97 0 -159 0 +112 3 +101 0 *
Fa
0  1e-007 10 0

0111000
+96 0 *
Ed
 1e-007 1 1 0
1  20 0 0 0.698131700797732
2  95 15 0 0 0.698131700797732
2  96 20 0 0 0.698131700797732
0

0101000
+158 0 -109 0 *
Wi

0101100
-97 0 -157 0 +108 3 +94 0 *
Fa
0  1e-007 15 0

0111000
+93 0 *
Wi

0101100
-94 0 -156 0 +104 3 +100 0 *
Fa
0  1e-007 20 0

0111000
+91 0 *
Ve
1e-007
0 0 0
0 0

0101101
*
Ed
 1e-007 1 1 0
1  21 0 0 10
2  97 19 0 0 10
2  98 2 0 0 10
2  99 26 0 0 10
2  100 26 19 0 10
2  101 27 0 0 10
2  102 27 21 0 10
0

0101000
-162 0 +89 0 *
Ve
1e-007
10 0 0
0 0

0101101
*
Ed
 1e-007 1 1 0
1  22 0 0 10
2  103 7 0 0 10
2  104 2 0 0 10
2  105 28 0 0 10
2  106 28 15 0 10
2  107 29 0 0 10
2  108 29 17 0 10
0

0101000
-163 0 +87 0 *
Ed
 1e-007 1 1 0
1  23 0 0 10
2  109 30 0 0 10
2  110 2 0 0 10
0

0101000
-87 0 +89 0 *
Wi

0101100
-88 0 -161 0 +86 0 +85 0 *
Fa
0  1e-007 2 0

0111000
+84 0 *
Ve
1.00000000277556e-007
10.1710100716628 10 1.03015368960705
0 0

0101101
*
Ed
 1e-007 1 1 0
1  24 0 0 0.349065850398866
2  111 31 0 0 0.349065850398866
2  112 8 0 0 0.349065850398866
0

0101000
+160 0 -82 0 *
Ve
1.00000000277556e-007
10.5130302149885 10 0.0904610688211376
0 0

0101101
*
Ed
 1.00000000277556e-007 1 1 0
1  2 0 0 1
2  11 7 0 0 1
2  12 1 0 0 1
2  13 8 0 0 1
2  14 8 15 0 1
2  15 9 0 0 1
2  16 9 17 0 1
2  113 8 31 0 1
2  114 7 32 0 1
0

0101000
+80 31 -82 31 *
Ed
 1e-007 1 1 0
1  25 0 0 0.349065850398866
2  115 8 0 0 0.349065850398866
2  116 28 0 0 0.349065850398866
0

0101000
+163 0 -80 0 *
Wi

0101100
-81 0 -159 0 +79 30 +78 0 *
Fa
0  1e-007 8 0

0111000
+77 0 *
Ve
1e-007
0 0 1
0 0

0101101
*
Ed
 1e-007 1 1 0
1  26 0 0 10
2  117 19 0 0 10
2  118 14 0 0 10
2  119 32 0 0 10
2  120 32 19 0 10
2  121 33 0 0 10
2  122 33 21 0 10
0

0101000
-158 0 +75 0 *
Ve
1e-007
10 0 1
0 0

0101101
*
Ed
 1e-007 1 1 0
1  27 0 0 10
2  123 7 0 0 10
2  124 14 0 0 10
2  125 31 0 0 10
2  126 31 15 0 10
2  127 34 0 0 10
2  128 34 17 0 10
0

0101000
-160 0 +73 0 *
Ed
 1e-007 1 1 0
1  28 0 0 10
2  129 30 0 0 10
2  130 14 0 0 10
0

0101000
-73 0 +75 0 *
Wi

0101100
-74 0 -157 0 +72 0 +71 0 *
Fa
0  1e-007 14 0

0111000
+70 0 *
Ve
1.00000000111022e-007
-0.433012701892219 10 1.25
0 0

0101101
*
Ed
 1e-007 1 1 0
1  29 0 0 1.0471975511966
2  131 32 0 0 1.0471975511966
2  132 22 0 0 1.0471975511966
0

0101000
+158 0 -68 0 *
Ve
1.00000000111022e-007
-1.29903810567666 10 0.75
0 0

0101101
*
Ed
 1.00000000111022e-007 1 1 0
1  4 0 0 1
2  35 19 0 0 1
2  36 1 0 0 1
2  37 20 0 0 1
2  38 20 8 0 1
2  39 21 0 0 1
2  40 21 9 0 1
2  41 22 0 0 1
2  42 22 19 0 1
2  43 23 0 0 1
2  44 23 21 0 1
2  133 19 34 0 1
2  134 22 35 0 1
0

0101000
+66 35 -68 35 *
Ed
 1e-007 1 1 0
1  30 0 0 1.0471975511966
2  135 22 0 0 1.0471975511966
2  136 26 0 0 1.0471975511966
0

0101000
+162 0 -66 0 *
Wi

0101100
-67 0 -156 0 +65 33 +64 0 *
Fa
0  1e-007 22 0

0111000
+63 0 *
Ve
1.00000000111022e-007
-1.29903810567666 0 0.75
0 0

0101101
*
Ed
 1e-007 1 1 0
1  21 0 0 10
2  97 19 0 0 10
2  98 2 0 0 10
2  99 26 0 0 10
2  100 26 19 0 10
2  101 27 0 0 10
2  102 27 21 0 10
2  137 26 35 0 10
2  138 19 34 0 10
0

0101000
+61 35 -66 35 *
Ed
 1e-007 1 1 0
1  31 0 0 1.0471975511966
2  139 35 0 0 1.0471975511966
2  140 26 0 0 1.0471975511966
0

0101000
+89 0 -61 0 *
Wi

0101100
-64 0 -88 0 +60 33 +59 0 *
Fa
0  1e-007 26 0

0111000
+58 0 *
Ve
1.00000000277556e-007
10.5130302149885 0 0.0904610688211376
0 0

0101101
*
Ed
 1e-007 1 1 0
1  22 0 0 10
2  103 7 0 0 10
2  104 2 0 0 10
2  105 28 0 0 10
2  106 28 15 0 10
2  107 29 0 0 10
2  108 29 17 0 10
2  141 28 31 0 10
2  142 7 32 0 10
0

0101000
+56 31 -80 31 *
Ed
 1e-007 1 1 0
1  32 0 0 0.349065850398866
2  143 36 0 0 0.349065850398866
2  144 28 0 0 0.349065850398866
0

0101000
+87 0 -56 0 *
Wi

0101100
-78 0 -86 0 +55 30 +54 0 *
Fa
0  1e-007 28 0

0111000
+53 0 *
Ed
 1e-007 1 1 0
1  33 0 0 1
2  145 7 0 0 1
2  146 30 0 0 1
2  147 36 0 0 1
2  148 36 15 0 1
2  149 37 0 0 1
2  150 37 17 0 1
0

0101000
-73 0 +87 0 *
Ed
 1e-007 1 1 0
1  34 0 0 1
2  151 19 0 0 1
2  152 30 0 0 1
2  153 35 0 0 1
2  154 35 19 0 1
2  155 38 0 0 1
2  156 38 21 0 1
0

0101000
-75 0 +89 0 *
Wi

0101100
-85 0 -51 0 +71 0 +50 0 *
Fa
0  1e-007 30 0

0111000
+49 0 *
Ve
1.00000000277556e-007
10.1710100716628 0 1.03015368960705
0 0

0101101
*
Ed
 1e-007 1 1 0
1  27 0 0 10
2  123 7 0 0 10
2  124 14 0 0 10
2  125 31 0 0 10
2  126 31 15 0 10
2  127 34 0 0 10
2  128 34 17 0 10
2  157 31 31 0 10
2  158 7 32 0 10
0

0101000
+47 31 -82 31 *
Ed
 1e-007 1 1 0
1  35 0 0 0.349065850398866
2  159 36 0 0 0.349065850398866
2  160 31 0 0 0.349065850398866
0

0101000
+73 0 -47 0 *
Wi

0101100
-81 0 -72 0 +46 30 +45 0 *
Fa
0  1e-007 31 0

0111000
+44 0 *
Ed
 1e-007 1 1 0
1  36 0 0 5
2  161 34 0 0 5
2  162 9 0 0 5
0

0101000
+82 31 -160 16 *
Ed
 1e-007 1 1 0
1  37 0 0 5
2  163 29 0 0 5
2  164 9 0 0 5
0

0101000
+80 31 -163 16 *
Wi

0101100
-42 30 -79 30 +159 36 +41 30 *
Fa
0  1e-007 9 30

0111000
+40 0 *
Ve
1.00000000111022e-007
-0.433012701892219 0 1.25
0 0

0101101
*
Ed
 1e-007 1 1 0
1  26 0 0 10
2  117 19 0 0 10
2  118 14 0 0 10
2  119 32 0 0 10
2  120 32 19 0 10
2  121 33 0 0 10
2  122 33 21 0 10
2  165 32 35 0 10
2  166 19 34 0 10
0

0101000
+38 35 -68 35 *
Ed
 1e-007 1 1 0
1  38 0 0 1.0471975511966
2  167 35 0 0 1.0471975511966
2  168 32 0 0 1.0471975511966
0

0101000
+75 0 -38 0 *
Wi

0101100
-67 0 -74 0 +37 33 +36 0 *
Fa
0  1e-007 32 0

0111000
+35 0 *
Ed
 1e-007 1 1 0
1  39 0 0 5
2  169 33 0 0 5
2  170 23 0 0 5
0

0101000
+68 35 -158 20 *
Ed
 1e-007 1 1 0
1  40 0 0 5
2  171 27 0 0 5
2  172 23 0 0 5
0

0101000
+66 35 -162 20 *
Wi

0101100
-33 33 -65 33 +156 37 +32 33 *
Fa
0  1e-007 23 33

0111000
+31 0 *
Ed
 1e-007 1 1 0
1  41 0 0 5
2  173 38 0 0 5
2  174 27 0 0 5
0

0101000
+61 35 -89 20 *
Wi

0101100
-32 33 -60 33 +88 37 +29 33 *
Fa
0  1e-007 27 33

0111000
+28 0 *
Ed
 1.00000000111022e-007 1 1 0
1  34 0 0 1
2  151 19 0 0 1
2  152 30 0 0 1
2  153 35 0 0 1
2  154 35 19 0 1
2  155 38 0 0 1
2  156 38 21 0 1
2  175 35 35 0 1
2  176 19 34 0 1
0

0101000
+61 35 -38 35 *
Wi

0101100
-36 0 -50 0 +26 33 +59 0 *
Fa
0  1e-007 35 0

0111000
+25 0 *
Ed
 1e-007 1 1 0
1  42 0 0 5
2  177 37 0 0 5
2  178 29 0 0 5
0

0101000
+56 31 -87 16 *
Wi

0101100
-41 30 -55 30 +86 36 +23 30 *
Fa
0  1e-007 29 30

0111000
+22 0 *
Ed
 1.00000000277556e-007 1 1 0
1  33 0 0 1
2  145 7 0 0 1
2  146 30 0 0 1
2  147 36 0 0 1
2  148 36 15 0 1
2  149 37 0 0 1
2  150 37 17 0 1
2  179 36 31 0 1
2  180 7 32 0 1
0

0101000
+56 31 -47 31 *
Wi

0101100
-45 0 -51 0 +20 30 +54 0 *
Fa
0  1e-007 36 0

0111000
+19 0 *
Ed
 1e-007 1 1 0
1  43 0 0 5
2  181 37 0 0 5
2  182 34 0 0 5
0

0101000
+47 31 -73 16 *
Wi

0101100
-42 30 -46 30 +72 36 +17 30 *
Fa
0  1e-007 34 30

0111000
+16 0 *
Wi

0101100
-51 0 -72 0 +159 0 +86 0 *
Fa
0  1e-007 7 0

0111000
+14 0 *
Ed
 1e-007 1 1 0
1  44 0 0 5
2  183 38 0 0 5
2  184 33 0 0 5
0

0101000
+38 35 -75 20 *
Wi

0101100
-33 33 -37 33 +74 37 +12 33 *
Fa
0  1e-007 33 33

0111000
+11 0 *
Wi

0101100
-50 0 -74 0 +156 0 +88 0 *
Fa
0  1e-007 19 0

0111000
+9 0 *
Wi

0101100
-12 33 -26 33 +50 37 +29 33 *
Fa
0  1e-007 38 33

0111000
+7 0 *
Wi

0101100
-17 30 -20 30 +51 36 +23 30 *
Fa
0  1e-007 37 30

0111000
+5 0 *
Sh

0101100
+154 6 +147 0 +142 0 -137 0 -134 0 +130 0 +127 0 -124 0 -122 0 +115 0 
+110 0 -105 0 -102 0 +98 0 +95 0 -92 0 -90 0 -83 0 -76 0 +69 0 
+62 0 +57 0 -52 0 -48 0 +43 0 -39 0 -34 0 +30 0 +27 0 -24 0 
-21 0 +18 0 +15 0 +13 36 -10 0 -8 37 -6 0 +4 0 *
So

0100000
+3 0 *
Co

1100000
+2 0 *

+1 1  