
CASCADE Topology V1, (c) Matra-Datavision
Locations 72
1
              1               0               0               0 
              0               1               0               0 
              0               0               1               0 
1
              1               0               0               0 
              0               1               0               0 
              0               0               1               0 
2  2 -1 0
1
              1               0               0               0 
              0               1               0               0 
              0               0               1               0 
2  4 -1 0
1
              1               0               0               0 
              0               1               0               0 
              0               0               1               0 
2  6 -1 0
1
            0.5               0 0.866025403784439 -1.29903810567666 
              0               1               0               0 
-0.866025403784439               0             0.5            0.75 
1
0.499999999999998               0 -0.86602540378444 0.513909594513476 
              0               1               0               0 
0.86602540378444               0 0.499999999999998 0.750000000000003 
2  8 1 9 1 0
1
0.499999999999998               0 -0.86602540378444 0.513909594513476 
              0               1               0               0 
0.86602540378444               0 0.499999999999998 0.750000000000003 
2  8 1 11 1 0
1
0.499999999999998               0 -0.86602540378444 0.513909594513476 
              0               1               0               0 
0.86602540378444               0 0.499999999999998 0.750000000000003 
2  8 1 13 1 0
1
0.499999999999998               0 -0.86602540378444 0.513909594513476 
              0               1               0               0 
0.86602540378444               0 0.499999999999998 0.750000000000003 
2  8 1 15 1 0
2  9 -1 0
1
              1               0               0              -5 
              0               1               0              -0 
              0               0               1               0 
1
0.499999999999998               0 -0.86602540378444 0.513909594513476 
              0               1               0               0 
0.86602540378444               0 0.499999999999998 0.750000000000003 
2  18 1 8 1 19 1 0
2  13 -1 0
2  15 -1 0
2  11 -1 0
2  19 -1 8 -1 18 -1 0
1
              1               0               0               0 
              0 0.766044443118978 0.642787609686539 2.66094937365349 
              0 -0.642787609686539 0.766044443118978 6.31089831842488 
1
              1               0               0               0 
              0 0.766044443118978 -0.642787609686539 2.54158077140907 
              0 0.642787609686539 0.766044443118978 -6.54485387530591 
2  25 1 26 1 0
1
              1               0               0               0 
              0 0.766044443118978 -0.642787609686539 2.54158077140907 
              0 0.642787609686539 0.766044443118978 -6.54485387530591 
2  25 1 28 1 0
1
              1               0               0               0 
              0 0.766044443118978 -0.642787609686539 2.54158077140907 
              0 0.642787609686539 0.766044443118978 -6.54485387530591 
2  25 1 30 1 0
1
              1               0               0               0 
              0 0.766044443118978 -0.642787609686539 2.54158077140907 
              0 0.642787609686539 0.766044443118978 -6.54485387530591 
2  25 1 32 1 0
2  26 -1 0
2  30 -1 0
2  32 -1 0
2  28 -1 0
1
              1               0               0               0 
              0 0.17364817766693 0.984807753012208 15.0861443154317 
              0 -0.984807753012208 0.17364817766693 10.551090589445 
1
              1               0               0               0 
              0 -0.499999999999997 -0.86602540378444 20.2690034320994 
              0 0.86602540378444 -0.499999999999997 -14.3342928029054 
2  38 1 39 1 0
1
              1               0               0               0 
              0 -0.499999999999997 -0.86602540378444 20.2690034320994 
              0 0.86602540378444 -0.499999999999997 -14.3342928029054 
2  38 1 41 1 0
1
              1               0               0               0 
              0 -0.499999999999997 -0.86602540378444 20.2690034320994 
              0 0.86602540378444 -0.499999999999997 -14.3342928029054 
2  38 1 43 1 0
1
              1               0               0               0 
              0 -0.499999999999997 -0.86602540378444 20.2690034320994 
              0 0.86602540378444 -0.499999999999997 -14.3342928029054 
2  38 1 45 1 0
2  39 -1 0
1
              1               0               0              -0 
              0               1               0               5 
              0               0               1               0 
1
              1               0               0               0 
              0               1               0 3.83022221559489 
              0               0               1 -3.2139380484327 
1
              1               0               0               0 
              0 -0.499999999999997 -0.86602540378444 20.2690034320994 
              0 0.86602540378444 -0.499999999999997 -14.3342928029054 
2  48 1 25 1 49 1 38 1 50 1 0
2  43 -1 0
2  45 -1 0
2  41 -1 0
2  50 -1 38 -1 49 -1 25 -1 48 -1 0
1
0.939692620785908               0 -0.342020143325669 1.11610400712942 
              0               1               0               0 
0.342020143325669               0 0.939692620785908 -3.32974036443555 
1
0.939692620785908               0 0.342020143325669 0.351753080873473 
              0               1               0               0 
-0.342020143325669               0 0.939692620785908 3.51066250207783 
2  56 1 57 1 0
1
0.939692620785908               0 0.342020143325669 0.351753080873473 
              0               1               0               0 
-0.342020143325669               0 0.939692620785908 3.51066250207783 
2  56 1 59 1 0
1
0.939692620785908               0 0.342020143325669 0.351753080873473 
              0               1               0               0 
-0.342020143325669               0 0.939692620785908 3.51066250207783 
2  56 1 61 1 0
1
0.939692620785908               0 0.342020143325669 0.351753080873473 
              0               1               0               0 
-0.342020143325669               0 0.939692620785908 3.51066250207783 
2  56 1 63 1 0
2  57 -1 0
1
              1               0               0               5 
              0               1               0               0 
              0               0               1              -0 
1
0.939692620785908               0 0.342020143325669 0.351753080873473 
              0               1               0               0 
-0.342020143325669               0 0.939692620785908 3.51066250207783 
2  66 1 56 1 67 1 0
2  61 -1 0
2  63 -1 0
2  59 -1 0
2  67 -1 56 -1 66 -1 0
Curve2ds 152
1 0 0 0 1 
1 0.39256425558159203 -5 0 1 
1 0 10 1 0 
1 -5 -0.26170950372106105 1 0 
1 10 0 0 1 
1 0.13085475186053053 -5 0 1 
1 0 0 1 0 
1 0 0 0 1 
1 0 10 1 0 
8 0 1
1 0.5 -0.13085475186053053 -1 -0 
1 0 0 1 0 
1 1 0 0 1 
1 0 0 1 0 
8 0 1
1 -0.5 0.39256425558159197 1 -0 
1 0 0 0 1 
1 0.39256425558159203 -5 0 1 
1 0 10 1 0 
1 -5 -0.26170950372106105 1 0 
1 10 0 0 1 
1 0.13085475186053053 -5 0 1 
1 0.39256425558159203 5 -1 0 
1 0.39256425558159197 0.5 -1 1.979978227123587e-62 
1 -0.39256425558159191 5 0 -1 
8 0 10
1 10 0 -1 -0 
1 -0.39256425558159191 -5 1 0 
8 0 0.78512851116318394
1 -0.5 -0.39256425558159197 -0 1 
1 0.39256425558159203 5 -1 0 
8 0 0.78512851116318394
1 0.39256425558159197 -0.5 -1 1.979978227123587e-62 
1 -0.39256425558159191 5 0 -1 
8 0 10
1 10 0 -1 -0 
1 -0.39256425558159191 -5 1 0 
1 0.5 -0.39256425558159197 0 1 
1 -0.39256425558159197 0.5 0 -1 
1 0 0 1 0 
1 0.39256425558159197 -0.5 0 1 
1 0.5 0.26170950372106105 -1 0 
1 -0.5 -0.39256425558159197 1 0 
1 0 0 1 0 
1 10 0 0 -1 
1 0 0 0 -1 
1 0 -5 1 0 
1 0 0 0 -1 
1 0 0 0 -1 
1 0 0 0 -1 
1 1 -5.5511151231257827e-17 0 -1 
1 10 0 0 -1 
1 0 -5 1 0 
1 0 -10 1 0 
1 1 -5.5511151231257827e-17 0 -1 
1 0 0 0 -1 
1 0 -5 1 0 
1 0 0 1 0 
1 0 -5 1 0 
1 1 0 0 -1 
1 5 -0.26170950372106105 0 1 
1 -0.5 0.26170950372106105 0 -1 
1 5 0.26170950372106105 -1 0 
8 0 10
1 10 0 -1 -0 
1 -5 0.26170950372106105 0 -1 
8 0 0.52341900744212211
1 -0.5 -0.26170950372106105 -0 1 
1 5 -0.26170950372106105 0 1 
8 0 0.52341900744212211
1 0.5 0.26170950372106105 -0 -1 
1 5 0.26170950372106105 -1 0 
8 0 10
1 10 0 -1 -0 
1 -5 0.26170950372106105 0 -1 
1 0.5 -0.26170950372106105 0 1 
1 -0.5 -0.26170950372106105 1 0 
1 0 0 1 0 
1 0.5 0.26170950372106105 -1 0 
1 -0.5 -0.13085475186053053 1 0 
1 -0.5 -0.26170950372106105 1 0 
1 0 0 1 0 
1 10 0 0 -1 
1 0 0 0 -1 
1 0 -4.9999999999999982 1 0 
1 -0.52341900744211856 5 0 -1 
1 0 0 0 -1 
1 0 0 0 -1 
1 0.99999999999999911 9.4368957093138306e-16 0 -1 
1 10 0 0 -1 
1 0.50000000000000022 0.52341900744212211 -1 0 
8 0 1.0000000000000002
1 0.99999999999999911 -4.9999999999999991 -1 -0 
1 0.99999999999999911 9.4368957093138306e-16 0 -1 
1 0 0 0 -1 
1 0.50000000000000022 0.52341900744212211 -1 0 
8 0 1.0000000000000002
1 0.99999999999999911 -4.9999999999999991 -1 -0 
1 0 -5 1 0 
1 -0.52341900744211856 5 0 -1 
1 -0.52341900744211856 -5 1 0 
1 -0.5 0.52341900744212211 -1.6653345369377343e-16 -1 
1 0.52341900744212211 -5 0 1 
8 0 10
1 10 -7.6918507455342563e-16 -1 -0 
1 0.52341900744212211 5 -1 0 
8 0 1.0468380148842407
1 -0.50000000000000022 -0.52341900744211856 1.6653345369377343e-16 1 
1 -0.52341900744211856 -5 1 0 
8 0 1.0468380148842407
1 0.50000000000000022 0.52341900744212211 -2.1210980282330022e-16 -1 
1 0.52341900744212211 -5 0 1 
8 0 10
1 10 7.6918507455342563e-16 -1 -0 
1 0.52341900744212211 5 -1 0 
1 0.5 -0.52341900744211856 2.1210980282330022e-16 1 
1 -0.50000000000000022 -0.52341900744211856 1 0 
1 -1.5383701491068513e-15 -8.8817841970012523e-16 1 5.5511151231257827e-17 
1 -0.50000000000000022 -0.52341900744211856 1 0 
1 -1.5383701491068513e-15 -8.8817841970012523e-16 1 5.5511151231257827e-17 
1 10 0 0 -1 
1 0 0 0 -1 
1 0 -5.0000000000000018 1 0 
1 0 0 0 1 
1 0 0 0 -1 
1 0 0 0 -1 
1 1.0000000000000013 -1.27675647831893e-15 0 -1 
1 10 0 0 -1 
1 -8.8817841970012523e-16 -5.0000000000000018 1 5.5511151231257827e-17 
1 0 10 1 0 
1 1.0000000000000013 -1.27675647831893e-15 0 -1 
1 0 0 0 -1 
1 -8.8817841970012523e-16 -5.0000000000000018 1 5.5511151231257827e-17 
1 0 0 1 0 
1 0 -5 1 0 
1 1 0 0 1 
1 0.13085475186053053 5 -1 0 
1 0.5 -0.13085475186053053 0 1 
1 -0.13085475186053053 5 0 -1 
8 0 10
1 10 0 -1 -0 
1 -0.13085475186053053 -5 1 0 
8 0 0.26170950372106105
1 0.5 0.13085475186053053 -0 -1 
1 0.13085475186053053 5 -1 0 
8 0 0.26170950372106105
1 -0.5 -0.13085475186053053 -0 1 
1 -0.13085475186053053 5 0 -1 
8 0 10
1 10 0 -1 -0 
1 -0.13085475186053053 -5 1 0 
1 -0.5 0.13085475186053053 0 -1 
1 0.5 0.13085475186053053 -1 0 
1 0 0 1 0 
1 0.5 0.13085475186053053 -1 0 
1 0 0 1 0 
1 10 0 0 -1 
1 0 0 0 -1 
1 0 -5.0000000000000009 1 0 
1 0 0 0 -1 
1 0 0 0 -1 
1 0 0 0 -1 
1 0.99999999999999989 7.2164496600635175e-16 0 -1 
1 10 0 0 -1 
1 0 -5.0000000000000009 1 0 
1 0 -10 1 0 
1 0.99999999999999989 7.2164496600635175e-16 0 -1 
1 0 0 0 -1 
1 0 -5.0000000000000009 1 0 
1 0 0 1 0 
1 0 -5.0000000000000009 1 0 
1 1 0 0 -1 
Curves 76
1 0 0 0 -0 1 0 
1 0 10 0 1 0 -0 
1 10 0 0 -0 1 0 
1 0 0 0 1 0 -0 
1 10 0 0 0 0 1 
1 0 0 1 1 0 -0 
1 0 0 0 0 0 1 
1 0 0 1 -0 1 0 
1 0 10 1 1 0 -0 
1 10 0 1 0 1 0 
1 0 10 0 -1 0 0 
1 -0.78512851116318394 10 0 0 -1 0 
1 -0.78512851116318394 0 0 1 0 0 
1 0 10 1 -1 0 0 
1 -0.78512851116318394 10 1 0 -1 0 
1 -0.78512851116318394 0 1 1 0 0 
1 -0.78512851116318394 10 0 0 0 1 
1 0 10 1 0 0 -1 
1 -0.78512851116318394 0 0 0 0 1 
1 -0.7851285111631815 10.000000000000002 -1.8873791418627661e-15 -1 0 -2.1094237467877974e-15 
1 -5.7851285111631823 0 -1.2434497875801755e-14 0 1 0 
1 -0.7851285111631815 0 -1.8873791418627661e-15 -1 0 -2.1094237467877974e-15 
1 -0.78512851116318361 10.000000000000002 0.99999999999999833 -1 0 -2.1094237467877974e-15 
1 -5.7851285111631823 10.000000000000002 -1.2434497875801755e-14 -2.1094237467877974e-15 0 1 
1 -0.78512851116318361 0 0.99999999999999833 -1 0 -2.1094237467877974e-15 
1 -5.7851285111631823 0 -1.2434497875801755e-14 -2.1094237467877974e-15 0 1 
1 -5.7851285111631841 0 0.99999999999998779 0 1 0 
1 10 10 0 0 1 0 
1 10 10.523419007442122 0 -1 0 0 
1 0 10.523419007442122 0 0 -1 0 
1 10 10 1 0 1 0 
1 10 10.523419007442122 1 -1 0 0 
1 0 10.523419007442122 1 0 -1 0 
1 10 10.523419007442122 0 0 0 1 
1 10 10 1 0 0 -1 
1 0 10.523419007442122 0 0 0 1 
1 9.9999999999999982 10.523419007442122 1.4432899320127027e-15 0 1 4.9960036108132044e-16 
1 0 15.52341900744212 3.9412917374193041e-15 1 0 0 
1 0 10.523419007442122 1.4432899320127027e-15 0 1 4.9960036108132044e-16 
1 9.9999999999999982 10.523419007442122 1.0000000000000011 0 1 4.9960036108132044e-16 
1 10 15.523419007442119 1.0000000000000002 0 0 -1 
1 0 10.523419007442122 1.0000000000000011 0 1 4.9960036108132044e-16 
1 0 15.523419007442119 1.0000000000000002 0 0 -1 
1 0 15.52341900744212 1.0000000000000036 1 0 0 
1 10 15.523419007442119 0 0 1 -1.6653345369377343e-16 
1 10 16.570257022326359 -1.743335500766064e-16 -1 0 0 
1 0 16.570257022326359 -1.743335500766064e-16 0 -1 1.6653345369377343e-16 
1 10 15.523419007442119 1.0000000000000002 0 1 -2.1210980282330022e-16 
1 10 16.570257022326359 1 -1 0 0 
1 0 16.570257022326359 1 0 -1 2.1210980282330022e-16 
1 10 16.570257022326359 -1.743335500766064e-16 0 0 1 
1 0 16.570257022326359 -1.743335500766064e-16 0 0 1 
1 9.9999999999999982 16.570257022326395 2.8421709430404007e-14 0 1 -3.608224830031758e-15 
1 0 21.570257022326395 1.0491607582707736e-14 1 0 0 
1 0 16.570257022326395 2.8421709430404007e-14 0 1 -3.608224830031758e-15 
1 9.9999999999999982 16.570257022326395 1.0000000000000284 0 1 -3.608224830031758e-15 
1 9.9999999999999982 21.570257022326395 1.0491607582707736e-14 0 3.3861802251067274e-15 1 
1 0 16.570257022326395 1.0000000000000284 0 1 -3.608224830031758e-15 
1 0 21.570257022326395 1.0491607582707736e-14 0 3.3861802251067274e-15 1 
1 0 21.570257022326398 1.0000000000000102 1 0 0 
1 10 10 0 1 0 0 
1 10.261709503721061 10 0 0 -1 0 
1 10.261709503721061 0 0 -1 0 0 
1 10 10 1 1 0 0 
1 10.261709503721061 10 1 0 -1 0 
1 10.261709503721061 0 1 -1 0 0 
1 10.261709503721061 10 0 0 0 1 
1 10.261709503721061 0 0 0 0 1 
1 10.261709503721059 9.9999999999999982 3.1086244689504379e-15 1 0 2.2204460492503131e-16 
1 15.261709503721058 0 4.2188474935755949e-15 0 1 0 
1 10.261709503721059 0 3.1086244689504379e-15 1 0 2.2204460492503131e-16 
1 10.261709503721059 9.9999999999999982 1.0000000000000029 1 0 2.2204460492503131e-16 
1 15.261709503721058 9.9999999999999982 4.2188474935755949e-15 -2.2204460492503131e-16 0 1 
1 10.261709503721059 0 1.0000000000000029 1 0 2.2204460492503131e-16 
1 15.261709503721058 0 4.2188474935755949e-15 -2.2204460492503131e-16 0 1 
1 15.261709503721058 0 1.000000000000004 0 1 0 
Polygon3D 0
PolygonOnTriangulations 0
Surfaces 38
1 0 0 0 0 0 1 1 0 -0 -0 1 0 
1 -0.39256425558159203 5 0 0 0 1 1 0 -0 -0 1 0 
1 5 10.261709503721061 0 0 0 1 1 0 -0 -0 1 0 
1 10.130854751860531 5 0 -0 -0 -1 -1 0 0 0 1 -0 
1 0 0 0 -0 1 0 0 0 1 1 0 -0 
1 10.130854751860531 0 0.5 -0 -1 -0 0 0 -1 1 -0 0 
1 0 0 1 0 0 1 1 0 -0 -0 1 0 
1 -0.39256425558159197 0 0.5 0 1 0 0 -0 1 1 0 -0 
1 -0.39256425558159203 5 1 0 0 1 1 0 -0 -0 1 0 
1 5 10.261709503721061 1 0 0 1 1 0 -0 -0 1 0 
1 10.130854751860531 5 1 -0 -0 -1 -1 0 0 0 1 -0 
1 -0.39256425558159197 9.9999999999999982 0.5 -1.7922123209948649e-31 1 1.104767668389029e-31 1 1.7922123209948649e-31 0 -1.979978227123587e-62 1.104767668389029e-31 -1 
1 0 0 0 -0 0 -1 0 1 0 1 0 -0 
1 0 0 1 -0 0 -1 0 1 0 1 0 -0 
1 0 10 0 -0 1 0 0 0 1 1 0 -0 
1 0 10.261709503721061 0.5 1 0 0 -0 0 1 0 -1 0 
1 0 0 0 -0 1 0 0 0 1 1 0 -0 
1 0 0 0 1 0 -0 0 0 1 0 -1 0 
1 10 10.261709503721061 0.5 1 0 0 -0 0 1 0 -1 0 
1 0 10 0 -0 0 -1 1 0 -0 0 -1 -0 
1 0 10 1 -0 0 -1 1 0 -0 0 -1 -0 
1 10 10 0 1 0 -0 0 0 1 0 -1 0 
1 10.130854751860531 10 0.5 -0 -1 -0 0 0 -1 1 -0 0 
1 0 10 0 1 0 -0 0 0 1 0 -1 0 
1 5 16.046838014884237 -8.7166775038303211e-17 0 1.6653345369377341e-16 1 0 1 -1.6653345369377341e-16 -1 0 0 
1 10 16.046838014884241 0.5 1 0 0 -0 0 1 0 -1 0 
1 0 16.046838014884241 0.5 1 0 0 -0 0 1 0 -1 0 
1 5 16.046838014884237 1 0 2.1210980282329955e-16 1 0 1 -2.1210980282329955e-16 -1 0 0 
1 0 14.151616020438158 -3.3309158268732069 0 -0.64278760968653936 -0.76604444311897812 1 0 0 0 -0.76604444311897812 0.64278760968653936 
1 0 14.794403630124698 -2.564871383754229 0 -0.64278760968653936 -0.76604444311897812 1 0 0 0 -0.76604444311897812 0.64278760968653936 
1 10 14.151616020438158 -3.3309158268732069 1 -0 0 0 0.64278760968653936 0.76604444311897812 -0 -0.76604444311897812 0.64278760968653936 
1 0 14.151616020438158 -3.3309158268732069 1 -0 0 0 0.64278760968653936 0.76604444311897812 -0 -0.76604444311897812 0.64278760968653936 
1 0 10 0 -0 1 0 0 0 1 1 0 -0 
1 10 0 0 0 0 1 -0 1 0 -1 -0 0 
1 10 0 1 0 -0 1 0 1 0 -1 0 0 
1 10 10 0 0 -1 0 0 0 1 -1 0 0 
1 10 0 0 0 -1 0 0 0 1 -1 0 0 
1 10 0 0 1 0 -0 0 0 1 0 -1 0 
Triangulations 0

TShapes 194
Ve
1e-07
0 0 0
0 0

0101101
*
Ve
1e-07
0 10 0
0 0

0101101
*
Ed
 1e-07 1 1 0
1  1 0 0 10
2  1 1 2 0 10
2  2 2 0 0 10
4 CN 1 2 2 0
0

0101000
+194 0 -193 0 *
Ve
1e-07
10 10 0
0 0

0101101
*
Ed
 1e-07 1 1 0
1  2 0 0 10
2  3 1 2 0 10
2  4 3 0 0 10
4 CN 1 2 3 0
0

0101000
+193 0 -191 0 *
Ve
1e-07
10 0 0
0 0

0101101
*
Ed
 1e-07 1 1 0
1  3 0 0 10
2  5 1 2 0 10
2  6 4 0 0 10
4 G2 1 2 4 0
0

0101000
+189 0 -191 0 *
Ed
 1e-07 1 1 0
1  4 0 0 10
2  7 1 2 0 10
2  8 5 4 0 10
4 C0 1 2 5 4
0

0101000
+194 0 -189 0 *
Wi

0101100
-192 3 -190 3 +188 3 +187 3 *
Fa
0  1e-07 1 0

0101000
+186 0 *
Ve
1e-07
10 0 1
0 0

0101101
*
Ed
 1e-07 1 1 0
1  5 0 0 1
2  9 5 4 0 1
2  10 6 0 0 1
4 G2 5 4 6 0
0

0101000
+189 0 -184 0 *
Ve
1e-07
0 0 1
0 0

0101101
*
Ed
 1e-07 1 1 0
1  6 0 0 10
2  11 7 6 0 10
2  12 5 4 0 10
4 C0 5 4 7 6
0

0101000
+182 0 -184 0 *
Ed
 1e-07 1 1 0
1  7 0 0 1
2  13 5 4 0 1
2  14 8 0 0 1
4 CN 5 4 8 0
0

0101000
+194 0 -182 0 *
Wi

0101100
-187 5 -183 5 +181 5 +180 5 *
Fa
0  1e-07 5 0

0101000
+179 0 *
Ve
1e-07
0 10 1
0 0

0101101
*
Ed
 1e-07 1 1 0
1  8 0 0 10
2  15 7 6 0 10
2  16 9 0 0 10
4 CN 7 6 9 0
0

0101000
+182 0 -177 0 *
Ve
1e-07
10 10 1
0 0

0101101
*
Ed
 1e-07 1 1 0
1  9 0 0 10
2  17 7 6 0 10
2  18 10 0 0 10
4 CN 7 6 10 0
0

0101000
+177 0 -175 0 *
Ed
 1e-07 1 1 0
1  10 0 0 10
2  19 7 6 0 10
2  20 11 0 0 10
4 G2 7 6 11 0
0

0101000
+184 0 -175 0 *
Wi

0101100
-176 7 -174 7 +173 7 +181 7 *
Fa
0  1e-07 7 0

0101000
+172 0 *
Ve
1.00000001616378e-07
-0.785128511163183 10 -9.88084291658391e-16
0 0

0101101
*
Ed
 1e-07 1 1 0
1  11 0 0 0.785128511163184
2  21 2 0 0 0.785128511163184
2  22 12 0 0 0.785128511163184
4 C0 2 0 12 0
0

0101000
+193 0 -170 0 *
Ve
1.00000001616378e-07
-0.785128511163183 0 -9.88084291658391e-16
0 0

0101101
*
Ed
 1e-07 1 1 0
1  12 0 0 10
2  23 2 0 0 10
2  24 13 10 0 10
4 G2 2 0 13 10
0

0101000
+170 0 -168 0 *
Ed
 1e-07 1 1 0
1  13 0 0 0.785128511163184
2  25 2 0 0 0.785128511163184
2  26 8 0 0 0.785128511163184
4 C0 2 0 8 0
0

0101000
+168 0 -194 0 *
Wi

0101100
+169 0 +167 0 +166 0 +192 0 *
Fa
0  1e-07 2 0

0101000
+165 0 *
Ve
1.00000000785433e-07
-0.785128511163183 10 1
0 0

0101101
*
Ed
 1e-07 1 1 0
1  14 0 0 0.785128511163184
2  27 9 0 0 0.785128511163184
2  28 12 0 0 0.785128511163184
4 C0 9 0 12 0
0

0101000
+177 0 -163 0 *
Ve
1.00000000785433e-07
-0.785128511163183 0 1
0 0

0101101
*
Ed
 1e-07 1 1 0
1  15 0 0 10
2  29 9 0 0 10
2  30 14 12 0 10
4 G2 9 0 14 12
0

0101000
+163 0 -161 0 *
Ed
 1e-07 1 1 0
1  16 0 0 0.785128511163184
2  31 9 0 0 0.785128511163184
2  32 8 0 0 0.785128511163184
4 C0 9 0 8 0
0

0101000
+161 0 -182 0 *
Wi

0101100
+162 0 +160 0 +159 0 +176 0 *
Fa
0  1e-07 9 0

0101000
+158 0 *
Ed
 1e-07 1 1 0
1  17 0 0 1
2  33 12 0 0 1
2  34 15 14 0 1
4 G2 12 0 15 14
0

0101000
+170 0 -163 0 *
Ed
 1e-07 1 1 0
1  18 0 0 1
2  35 12 0 0 1
2  36 16 0 0 1
4 C0 12 0 16 0
0

0101000
+177 0 -193 0 *
Wi

0101100
+169 0 +156 0 -162 0 +155 0 *
Fa
0  1e-07 12 0

0101000
+154 0 *
Ed
 1e-07 1 1 0
1  19 0 0 1
2  37 8 0 0 1
2  38 17 16 0 1
4 CN 8 0 17 16
0

0101000
+168 0 -161 0 *
Wi

0101100
-166 0 +152 0 +159 0 -180 0 *
Fa
0  1e-07 8 0

0101000
+151 0 *
Ve
1e-07
-5.78512851116318 10 -1.24344978758018e-14
0 0

0101101
*
Ed
 1e-07 1 1 0
1  20 0 0 5
2  39 13 10 0 5
2  40 15 14 0 5
4 C0 13 10 15 14
0

0101000
+170 0 -149 0 *
Ve
1e-07
-5.78512851116318 0 -1.24344978758018e-14
0 0

0101101
*
Ed
 1e-07 1 1 0
1  21 0 0 10
2  41 13 10 0 10
2  42 18 20 0 10
4 C0 13 10 18 20
0

0101000
+147 0 -149 0 *
Ed
 1e-07 1 1 0
1  22 0 0 5
2  43 13 10 0 5
2  44 17 16 0 5
4 C0 13 10 17 16
0

0101000
+168 0 -147 0 *
Wi

0101100
-148 17 +167 17 +146 17 +145 17 *
Fa
0  1e-07 13 8

0101000
+144 0 *
Ve
1e-07
-5.78512851116318 10 0.999999999999988
0 0

0101101
*
Ed
 1e-07 1 1 0
1  23 0 0 5
2  45 15 14 0 5
2  46 14 12 0 5
4 C0 15 14 14 12
0

0101000
+163 0 -142 0 *
Ed
 1e-07 1 1 0
1  24 0 0 1
2  47 15 14 0 1
2  48 18 20 0 1
4 C0 15 14 18 20
0

0101000
+149 0 -142 0 *
Wi

0101100
-141 21 -156 21 +140 21 +148 21 *
Fa
0  1e-07 15 8

0101000
+139 0 *
Ve
1e-07
-5.78512851116318 0 0.999999999999988
0 0

0101101
*
Ed
 1e-07 1 1 0
1  25 0 0 5
2  49 17 16 0 5
2  50 14 12 0 5
4 C0 17 16 14 12
0

0101000
+161 0 -137 0 *
Ed
 1e-07 1 1 0
1  26 0 0 1
2  51 17 16 0 1
2  52 18 20 0 1
4 C0 17 16 18 20
0

0101000
+147 0 -137 0 *
Wi

0101100
-136 22 -152 22 +135 22 +145 22 *
Fa
0  1e-07 17 8

0101000
+134 0 *
Ed
 1e-07 1 1 0
1  27 0 0 10
2  53 14 12 0 10
2  54 18 20 0 10
4 C0 14 12 18 20
0

0101000
+137 0 -142 0 *
Wi

0101100
-141 23 +160 23 +132 23 +136 23 *
Fa
0  1e-07 14 8

0101000
+131 0 *
Wi

0101100
-135 24 -132 24 +140 24 +146 24 *
Fa
0  1e-07 18 0

0101000
+129 0 *
Ve
1.00000015830618e-07
10 10.5234190074421 1.0210599556044e-14
0 0

0101101
*
Ed
 1e-07 1 1 0
1  28 0 0 0.523419007442122
2  55 3 0 0 0.523419007442122
2  56 19 0 0 0.523419007442122
4 C0 3 0 19 0
0

0101000
+191 0 -127 0 *
Ve
1.00000015830618e-07
0 10.5234190074421 1.0210599556044e-14
0 0

0101101
*
Ed
 1e-07 1 1 0
1  29 0 0 10
2  57 3 0 0 10
2  58 20 27 0 10
4 G2 3 0 20 27
0

0101000
+127 0 -125 0 *
Ed
 1e-07 1 1 0
1  30 0 0 0.523419007442122
2  59 3 0 0 0.523419007442122
2  60 16 0 0 0.523419007442122
4 C0 3 0 16 0
0

0101000
+125 0 -193 0 *
Wi

0101100
+126 0 +124 0 +123 0 +190 0 *
Fa
0  1e-07 3 0

0101000
+122 0 *
Ve
1.00000004792443e-07
10 10.5234190074421 0.999999999999997
0 0

0101101
*
Ed
 1e-07 1 1 0
1  31 0 0 0.523419007442122
2  61 10 0 0 0.523419007442122
2  62 19 0 0 0.523419007442122
4 C0 10 0 19 0
0

0101000
+175 0 -120 0 *
Ve
1.00000004792443e-07
0 10.5234190074421 0.999999999999997
0 0

0101101
*
Ed
 1e-07 1 1 0
1  32 0 0 10
2  63 10 0 0 10
2  64 21 29 0 10
4 G2 10 0 21 29
0

0101000
+120 0 -118 0 *
Ed
 1e-07 1 1 0
1  33 0 0 0.523419007442122
2  65 10 0 0 0.523419007442122
2  66 16 0 0 0.523419007442122
4 C0 10 0 16 0
0

0101000
+118 0 -177 0 *
Wi

0101100
+119 0 +117 0 +116 0 +174 0 *
Fa
0  1e-07 10 0

0101000
+115 0 *
Ed
 1e-07 1 1 0
1  34 0 0 1
2  67 19 0 0 1
2  68 22 31 0 1
4 CN 19 0 22 31
0

0101000
+127 0 -120 0 *
Ed
 1e-07 1 1 0
1  35 0 0 1
2  69 19 0 0 1
2  70 23 0 0 1
4 C0 19 0 23 0
0

0101000
+175 0 -191 0 *
Wi

0101100
+126 0 +113 0 -119 0 +112 0 *
Fa
0  1e-07 19 0

0101000
+111 0 *
Ed
 1e-07 1 1 0
1  36 0 0 1
2  71 16 0 0 1
2  72 24 33 0 1
4 CN 16 0 24 33
0

0101000
+125 0 -118 0 *
Wi

0101100
-123 0 +109 0 +116 0 +155 0 *
Fa
0  1e-07 16 0

0101000
+108 0 *
Ve
1.00000002336914e-07
10 15.5234190074421 1.97064585754909e-15
0 0

0101101
*
Ed
 1e-07 1 1 0
1  37 0 0 5
2  73 20 27 0 5
2  74 22 31 0 5
4 C0 20 27 22 31
0

0101000
+127 0 -106 0 *
Ve
1.00000002407321e-07
0 15.5234190074421 2.15319685339428e-15
0 0

0101101
*
Ed
 1e-07 1 1 0
1  38 0 0 10
2  75 20 27 0 10
2  76 25 0 0 10
4 CN 20 27 25 0
0

0101000
+104 0 -106 0 *
Ed
 1e-07 1 1 0
1  39 0 0 5
2  77 20 27 0 5
2  78 24 33 0 5
4 C0 20 27 24 33
0

0101000
+125 0 -104 0 *
Wi

0101100
-105 34 +124 34 +103 34 +102 34 *
Fa
0  1e-07 20 25

0101000
+101 0 *
Ve
1.0000000208592e-07
10 15.5234190074421 1
0 0

0101101
*
Ed
 1e-07 1 1 0
1  40 0 0 5
2  79 22 31 0 5
2  80 21 29 0 5
4 C0 22 31 21 29
0

0101000
+120 0 -99 0 *
Ed
 1e-07 1 1 0
1  41 0 0 1
2  81 26 0 0 1
2  82 22 31 0 1
4 CN 22 31 26 0
0

0101000
+99 0 -106 0 *
Wi

0101100
-98 35 -113 35 -97 35 +105 35 *
Fa
0  1e-07 22 25

0101000
+96 0 *
Ve
1.00000001887379e-07
0 15.5234190074421 1
0 0

0101101
*
Ed
 1e-07 1 1 0
1  42 0 0 5
2  83 24 33 0 5
2  84 21 29 0 5
4 C0 24 33 21 29
0

0101000
+118 0 -94 0 *
Ed
 1e-07 1 1 0
1  43 0 0 1
2  85 27 0 0 1
2  86 24 33 0 1
4 CN 24 33 27 0
0

0101000
+94 0 -104 0 *
Wi

0101100
-93 36 -109 36 -92 36 +102 36 *
Fa
0  1e-07 24 25

0101000
+91 0 *
Ed
 1e-07 1 1 0
1  44 0 0 10
2  87 21 29 0 10
2  88 28 0 0 10
4 CN 21 29 28 0
0

0101000
+94 0 -99 0 *
Wi

0101100
-98 37 +117 37 +89 37 +93 37 *
Fa
0  1e-07 21 25

0101000
+88 0 *
Ve
1.00000004797814e-07
10 16.5702570223264 -4.97214786501331e-15
0 0

0101101
*
Ed
 1e-07 1 1 0
1  45 0 0 1.04683801488424
2  89 25 0 0 1.04683801488424
2  90 26 0 0 1.04683801488424
4 C0 25 0 26 0
0

0101000
+106 0 -86 0 *
Ve
1.00000004797814e-07
0 16.5702570223264 -4.97214786501331e-15
0 0

0101101
*
Ed
 1e-07 1 1 0
1  46 0 0 10
2  91 25 0 0 10
2  92 29 40 0 10
4 CN 25 0 29 40
0

0101000
+86 0 -84 0 *
Ed
 1e-07 1 1 0
1  47 0 0 1.04683801488424
2  93 25 0 0 1.04683801488424
2  94 27 0 0 1.04683801488424
4 C0 25 0 27 0
0

0101000
+84 0 -104 0 *
Wi

0101100
+85 0 +83 0 +82 0 +103 0 *
Fa
0  1e-07 25 0

0101000
+81 0 *
Ve
1.00000025122027e-07
10 16.5702570223264 0.999999999999978
0 0

0101101
*
Ed
 1e-07 1 1 0
1  48 0 0 1.04683801488424
2  95 28 0 0 1.04683801488424
2  96 26 0 0 1.04683801488424
4 C0 28 0 26 0
0

0101000
+99 0 -79 0 *
Ve
1.00000025509399e-07
0 16.5702570223264 0.999999999999979
0 0

0101101
*
Ed
 1e-07 1 1 0
1  49 0 0 10
2  97 28 0 0 10
2  98 30 42 0 10
4 CN 28 0 30 42
0

0101000
+79 0 -77 0 *
Ed
 1e-07 1 1 0
1  50 0 0 1.04683801488424
2  99 28 0 0 1.04683801488424
2  100 27 0 0 1.04683801488424
4 C0 28 0 27 0
0

0101000
+77 0 -94 0 *
Wi

0101100
+78 0 +76 0 +75 0 +89 0 *
Fa
0  1e-07 28 0

0101000
+74 0 *
Ed
 1e-07 1 1 0
1  51 0 0 1
2  101 26 0 0 1
2  102 31 44 0 1
4 CN 26 0 31 44
0

0101000
+86 0 -79 0 *
Wi

0101100
+85 0 +72 0 -78 0 +97 0 *
Fa
0  1e-07 26 0

0101000
+71 0 *
Ed
 1e-07 1 1 0
1  52 0 0 1
2  103 27 0 0 1
2  104 32 46 0 1
4 CN 27 0 32 46
0

0101000
+84 0 -77 0 *
Wi

0101100
-82 0 +69 0 +75 0 +92 0 *
Fa
0  1e-07 27 0

0101000
+68 0 *
Ve
1e-07
10 21.5702570223264 1.04916075827077e-14
0 0

0101101
*
Ed
 1e-07 1 1 0
1  53 0 0 5
2  105 29 40 0 5
2  106 31 44 0 5
4 C0 29 40 31 44
0

0101000
+86 0 -66 0 *
Ve
1e-07
0 21.5702570223264 1.04916075827077e-14
0 0

0101101
*
Ed
 1e-07 1 1 0
1  54 0 0 10
2  107 29 40 0 10
2  108 33 51 0 10
4 C0 29 40 33 51
0

0101000
+64 0 -66 0 *
Ed
 1e-07 1 1 0
1  55 0 0 5
2  109 29 40 0 5
2  110 32 46 0 5
4 C0 29 40 32 46
0

0101000
+84 0 -64 0 *
Wi

0101100
-65 47 +83 47 +63 47 +62 47 *
Fa
0  1e-07 29 38

0101000
+61 0 *
Ve
1e-07
10 21.5702570223264 1.00000000000001
0 0

0101101
*
Ed
 1e-07 1 1 0
1  56 0 0 5
2  111 31 44 0 5
2  112 30 42 0 5
4 C0 31 44 30 42
0

0101000
+79 0 -59 0 *
Ed
 1e-07 1 1 0
1  57 0 0 1
2  113 31 44 0 1
2  114 33 51 0 1
4 C0 31 44 33 51
0

0101000
+66 0 -59 0 *
Wi

0101100
-58 52 -72 52 +57 52 +65 52 *
Fa
0  1e-07 31 38

0101000
+56 0 *
Ve
1e-07
0 21.5702570223264 1.00000000000001
0 0

0101101
*
Ed
 1e-07 1 1 0
1  58 0 0 5
2  115 32 46 0 5
2  116 30 42 0 5
4 C0 32 46 30 42
0

0101000
+77 0 -54 0 *
Ed
 1e-07 1 1 0
1  59 0 0 1
2  117 32 46 0 1
2  118 33 51 0 1
4 C0 32 46 33 51
0

0101000
+64 0 -54 0 *
Wi

0101100
-53 53 -69 53 +52 53 +62 53 *
Fa
0  1e-07 32 38

0101000
+51 0 *
Ed
 1e-07 1 1 0
1  60 0 0 10
2  119 30 42 0 10
2  120 33 51 0 10
4 C0 30 42 33 51
0

0101000
+54 0 -59 0 *
Wi

0101100
-58 54 +76 54 +49 54 +53 54 *
Fa
0  1e-07 30 38

0101000
+48 0 *
Wi

0101100
-63 55 -57 55 +49 55 +52 55 *
Fa
0  1e-07 33 0

0101000
+46 0 *
Ve
1.00000002097039e-07
10.2617095037211 10 7.34924967119787e-16
0 0

0101101
*
Ed
 1e-07 1 1 0
1  61 0 0 0.261709503721061
2  121 4 0 0 0.261709503721061
2  122 23 0 0 0.261709503721061
4 C0 4 0 23 0
0

0101000
+191 0 -44 0 *
Ve
1.00000002097039e-07
10.2617095037211 0 7.34924967119787e-16
0 0

0101101
*
Ed
 1e-07 1 1 0
1  62 0 0 10
2  123 4 0 0 10
2  124 34 58 0 10
4 G2 4 0 34 58
0

0101000
+44 0 -42 0 *
Ed
 1e-07 1 1 0
1  63 0 0 0.261709503721061
2  125 4 0 0 0.261709503721061
2  126 6 0 0 0.261709503721061
4 C0 4 0 6 0
0

0101000
+42 0 -189 0 *
Wi

0101100
+43 0 +41 0 +40 0 +188 0 *
Fa
0  1e-07 4 0

0101000
+39 0 *
Ve
1.00000018182811e-07
10.261709503721 10 1.00000000000001
0 0

0101101
*
Ed
 1e-07 1 1 0
1  64 0 0 0.261709503721061
2  127 11 0 0 0.261709503721061
2  128 23 0 0 0.261709503721061
4 C0 11 0 23 0
0

0101000
+175 0 -37 0 *
Ve
1.00000018182811e-07
10.261709503721 0 1.00000000000001
0 0

0101101
*
Ed
 1e-07 1 1 0
1  65 0 0 10
2  129 11 0 0 10
2  130 35 60 0 10
4 G2 11 0 35 60
0

0101000
+37 0 -35 0 *
Ed
 1e-07 1 1 0
1  66 0 0 0.261709503721061
2  131 11 0 0 0.261709503721061
2  132 6 0 0 0.261709503721061
4 C0 11 0 6 0
0

0101000
+35 0 -184 0 *
Wi

0101100
+36 0 +34 0 +33 0 +173 0 *
Fa
0  1e-07 11 0

0101000
+32 0 *
Ed
 1e-07 1 1 0
1  67 0 0 1
2  133 23 0 0 1
2  134 36 62 0 1
4 G2 23 0 36 62
0

0101000
+44 0 -37 0 *
Wi

0101100
+43 0 +30 0 -36 0 +112 0 *
Fa
0  1e-07 23 0

0101000
+29 0 *
Ed
 1e-07 1 1 0
1  68 0 0 1
2  135 6 0 0 1
2  136 37 64 0 1
4 G2 6 0 37 64
0

0101000
+42 0 -35 0 *
Wi

0101100
-40 0 +27 0 +33 0 -183 0 *
Fa
0  1e-07 6 0

0101000
+26 0 *
Ve
1e-07
15.2617095037211 10 4.21884749357559e-15
0 0

0101101
*
Ed
 1e-07 1 1 0
1  69 0 0 5
2  137 34 58 0 5
2  138 36 62 0 5
4 C0 34 58 36 62
0

0101000
+44 0 -24 0 *
Ve
1e-07
15.2617095037211 0 4.21884749357559e-15
0 0

0101101
*
Ed
 1e-07 1 1 0
1  70 0 0 10
2  139 34 58 0 10
2  140 38 68 0 10
4 C0 34 58 38 68
0

0101000
+22 0 -24 0 *
Ed
 1e-07 1 1 0
1  71 0 0 5
2  141 34 58 0 5
2  142 37 64 0 5
4 C0 34 58 37 64
0

0101000
+42 0 -22 0 *
Wi

0101100
-23 65 +41 65 +21 65 +20 65 *
Fa
0  1e-07 34 56

0101000
+19 0 *
Ve
1e-07
15.2617095037211 10 1
0 0

0101101
*
Ed
 1e-07 1 1 0
1  72 0 0 5
2  143 36 62 0 5
2  144 35 60 0 5
4 C0 36 62 35 60
0

0101000
+37 0 -17 0 *
Ed
 1e-07 1 1 0
1  73 0 0 1
2  145 36 62 0 1
2  146 38 68 0 1
4 C0 36 62 38 68
0

0101000
+24 0 -17 0 *
Wi

0101100
-16 69 -30 69 +15 69 +23 69 *
Fa
0  1e-07 36 56

0101000
+14 0 *
Ve
1e-07
15.2617095037211 0 1
0 0

0101101
*
Ed
 1e-07 1 1 0
1  74 0 0 5
2  147 37 64 0 5
2  148 35 60 0 5
4 C0 37 64 35 60
0

0101000
+35 0 -12 0 *
Ed
 1e-07 1 1 0
1  75 0 0 1
2  149 37 64 0 1
2  150 38 68 0 1
4 C0 37 64 38 68
0

0101000
+22 0 -12 0 *
Wi

0101100
-11 70 -27 70 +10 70 +20 70 *
Fa
0  1e-07 37 56

0101000
+9 0 *
Ed
 1e-07 1 1 0
1  76 0 0 10
2  151 35 60 0 10
2  152 38 68 0 10
4 C0 35 60 38 68
0

0101000
+12 0 -17 0 *
Wi

0101100
-16 71 +34 71 +7 71 +11 71 *
Fa
0  1e-07 35 56

0101000
+6 0 *
Wi

0101100
-10 72 -7 72 +15 72 +21 72 *
Fa
0  1e-07 38 0

0101000
+4 0 *
Sh

0101100
-185 2 -178 4 +171 6 -164 0 +157 0 +153 0 -150 0 +143 9 +138 13 -133 15 
-130 11 -128 20 -121 0 +114 0 +110 0 -107 0 +100 26 +95 30 -90 32 -87 28 
-80 0 +73 0 +70 0 -67 0 +60 39 +55 43 -50 45 -47 41 +45 51 +38 0 
-31 0 -28 0 +25 0 -18 57 -13 61 +8 63 +5 59 +3 68 *
So

1100000
+2 0 *

+1 1  