
CASCADE Topology V1, (c) Matra-Datavision
Locations 28
1
              1               0               0               0 
              0               1               0               0 
              0               0               1               0 
1
              1               0               0               0 
              0               1               0               0 
              0               0               1               0 
2  2 -1 0
1
              1               0               0               0 
              0               1               0               0 
              0               0               1               0 
1
              1               0               0               0 
              0               1               0               0 
              0               0               1               0 
1
              1               0               0               0 
              0               1               0               0 
              0               0               1               0 
2  4 -1 0
1
              1               0               0               0 
              0               1               0               0 
              0               0               1               0 
2  5 -1 0
2  6 -1 0
2  8 -1 0
1
              1               0               0               0 
              0 0.707106781186548 -0.707106781186548 11.7279220613579 
              0 0.707106781186548 0.707106781186548 -16.3137084989848 
1
              1               0               0               0 
              0               1 1.11022302462516e-16 1.72160145193702 
              0 -1.11022302462516e-16               1 -9.59118930834505e-16 
2  12 1 13 1 0
1
              1               0               0               0 
              0               1 1.11022302462516e-16 1.72160145193702 
              0 -1.11022302462516e-16               1 -9.59118930834505e-16 
2  12 1 15 1 0
1
              1               0               0               0 
              0               1 1.11022302462516e-16 1.72160145193702 
              0 -1.11022302462516e-16               1 -9.59118930834505e-16 
1
              1               0               0               0 
              0               1 1.11022302462516e-16 1.72160145193702 
              0 -1.11022302462516e-16               1 -9.59118930834505e-16 
2  13 -1 0
1
              1               0               0               0 
              0 0.707106781186548 -0.707106781186548 7.17157287525381 
              0 0.707106781186548 0.707106781186548 -5.31370849898476 
1
              1               0               0               0 
              0 1.11022302462516e-16               1 19.556349186104 
              0              -1 1.11022302462516e-16              16 
1
              1               0               0               0 
              0               1               0 7.07106781186548 
              0               0               1 -7.07106781186547 
1
              1               0               0               0 
              0               1 1.11022302462516e-16 1.72160145193702 
              0 -1.11022302462516e-16               1 -9.59118930834505e-16 
2  20 1 21 1 22 1 12 1 23 1 0
2  17 -1 0
2  18 -1 0
2  15 -1 0
2  23 -1 12 -1 22 -1 21 -1 20 -1 0
Curve2ds 88
1 0 0 0 1 
1 9.9427520867783107e-15 25.556349186104043 -1.1102230246251565e-16 -1 
1 0 10 1 0 
1 -4.9999999999999991 -2.1597438297551328 1 0 
1 10 0 0 1 
1 9.9427520867783107e-15 25.556349186104043 -1.1102230246251565e-16 -1 
1 0 0 1 0 
1 0 0 0 1 
1 1.0000000000000089 15.556349186104043 -1 1.1102230246251565e-16 
1 0.5 2.1597438297551328 -1 0 
1 9.9427520867783107e-15 25.556349186104043 1 -1.1102230246251565e-16 
1 0 0 1 0 
1 1.00000000000001 25.556349186104043 -1.1102230246251565e-16 -1 
1 0 0 0 1 
1 1.0000000000000089 15.556349186104043 -1 1.1102230246251565e-16 
1 0.5 2.1597438297551328 -1 0 
1 9.9427520867783107e-15 25.556349186104043 1 -1.1102230246251565e-16 
1 0 10 1 0 
1 1.00000000000001 25.556349186104043 -1.1102230246251565e-16 -1 
1 10 0 0 1 
1 1 0 0 1 
1 0 0 1 0 
1 0 10 1 0 
1 -4.9999999999999991 -2.1597438297551328 1 0 
1 5.0000000000000009 -2.1597438297551328 0 1 
1 -0.5 2.1597438297551328 0 -1 
1 5.0000000000000009 2.1597438297551328 -1 0 
8 0 10
1 -4.3194876595102638 -5.0000000000000009 -0 1 
1 -4.9999999999999991 2.1597438297551328 0 -1 
8 0 4.3194876595102656
1 -0.5 -2.1597438297551328 -0 1 
1 5.0000000000000009 -2.1597438297551328 0 1 
8 0 4.3194876595102656
1 0.5 2.1597438297551328 -0 -1 
1 5.0000000000000009 2.1597438297551328 -1 0 
8 0 10
1 5.0000000000000009 -4.3194876595102638 -1 -0 
1 -4.9999999999999991 2.1597438297551328 0 -1 
1 0.5 -2.1597438297551328 0 1 
1 -0.5 -2.1597438297551328 1 0 
8 0 1
1 -0.49999999999999911 4.3194876595102674 1 -0 
1 -0.5 -2.1597438297551328 1 0 
8 0 1
1 -0.49999999999999911 4.3194876595102674 1 -0 
1 -4.3194876595102638 -5.0000000000000009 1 0 
1 -0.49999999999999906 4.3194876595102674 -2.2204460492503136e-16 -1 
1 4.3194876595102656 -5.0000000000000009 0 1 
8 0 10
1 5.0000000000000009 -2.1597438297551363 -1 -0 
1 4.3194876595102656 4.9999999999999991 -1 0 
8 0 8.6389753190205294
1 -0.500000000000001 -4.319487659510262 2.2204460492503136e-16 1 
1 5.0000000000000009 -4.3194876595102638 0 1 
8 0 8.6389753190205294
1 0.50000000000000089 4.3194876595102674 -2.18472570202545e-16 -1 
1 5.0000000000000009 4.3194876595102656 -1 0 
8 0 10
1 -2.1597438297551363 -5.0000000000000009 -0 1 
1 -4.9999999999999991 4.3194876595102656 0 -1 
1 0.49999999999999906 -4.319487659510262 2.18472570202545e-16 1 
1 0.50000000000000133 2.1597438297551328 -1 0 
8 0 1.0000000000000018
1 0.499999999999999 -4.319487659510262 -1 -0 
1 0.50000000000000133 2.1597438297551328 -1 0 
8 0 1.0000000000000018
1 0.499999999999999 -4.319487659510262 -1 -0 
1 5.0000000000000009 -2.1597438297551363 0 1 
1 -0.50000000000000044 2.1597438297551328 -2.2204460492503131e-16 -1 
1 5.0000000000000009 2.1597438297551292 -1 0 
8 0 10
1 10 0 -1 -0 
1 -4.9999999999999991 2.1597438297551292 0 -1 
8 0 4.3194876595102656
1 -0.50000000000000144 -2.1597438297551328 2.2204460492503131e-16 1 
1 -2.1597438297551363 -5.0000000000000009 1 0 
8 0 4.3194876595102656
1 0.50000000000000144 2.1597438297551328 -2.3132389786151816e-16 -1 
1 2.1597438297551292 -5.0000000000000009 0 1 
8 0 10
1 10 3.5527136788005009e-15 -1 -0 
1 2.1597438297551292 4.9999999999999991 -1 0 
1 0.50000000000000044 -2.1597438297551328 2.3132389786151816e-16 1 
1 -0.50000000000000133 -2.1597438297551328 1 0 
8 0 1.0000000000000018
1 1.1102230246251565e-15 -1.2325951644078309e-31 1 -1.1102230246251565e-16 
1 -0.50000000000000133 -2.1597438297551328 1 0 
8 0 1.0000000000000018
1 1.1102230246251565e-15 -1.2325951644078309e-31 1 -1.1102230246251565e-16 
1 10 0 0 -1 
1 0 0 0 -1 
1 0 -10 1 0 
1 0 0 0 1 
1 0 0 0 -1 
1 0 0 0 -1 
1 1.0000000000000036 -3.6637359812630166e-15 0 -1 
1 10 0 0 -1 
1 0 -10 1 0 
1 0 10 1 0 
1 1.0000000000000036 -3.6637359812630166e-15 0 -1 
1 0 0 0 -1 
1 0 -10 1 0 
1 0 0 1 0 
1 0 -9.9999999999999964 1 0 
1 1 0 0 1 
Curves 44
1 0 0 0 -0 1 0 
1 0 10 0 1 0 -0 
1 10 0 0 -0 1 0 
1 0 0 0 1 0 -0 
1 0 10 1 0 0 -1 
1 0 0 0 0 0 1 
1 0 0 1 -0 1 0 
1 10 10 1 0 0 -1 
1 10 0 0 0 0 1 
1 10 0 1 0 1 0 
1 0 0 1 1 0 -0 
1 0 10 1 1 0 -0 
1 10 10 0 0 1 0 
1 10 14.319487659510266 0 -1 0 0 
1 0 14.319487659510266 0 0 -1 0 
1 10 10 1 0 1 0 
1 10 14.319487659510266 1 -1 0 0 
1 0 14.319487659510266 1 0 -1 0 
1 10 14.319487659510266 0 0 0 1 
1 0 14.319487659510266 0 0 0 1 
1 10 14.319487659510267 -2.6645352591003757e-15 0 1 -2.2204460492503136e-16 
1 10 22.958462978530797 -4.5827731207693858e-15 -1 0 0 
1 0 22.958462978530797 -4.5827731207693858e-15 0 -1 2.2204460492503136e-16 
1 10 14.319487659510267 0.99999999999999734 0 1 -2.18472570202545e-16 
1 10 22.958462978530797 0.99999999999999545 -1 0 0 
1 0 22.958462978530797 0.99999999999999545 0 -1 2.18472570202545e-16 
1 10 22.958462978530797 0.99999999999999556 0 0 -1 
1 0 22.958462978530797 0.99999999999999556 0 0 -1 
1 10 22.958462978530797 -6.2172489379008766e-15 0 1 -2.2204460492503131e-16 
1 10 27.277950638041062 -7.1763678687353817e-15 -1 0 0 
1 0 27.277950638041062 -7.1763678687353817e-15 0 -1 2.2204460492503131e-16 
1 10 22.958462978530797 0.99999999999999556 0 1 -2.3132389786151816e-16 
1 10 27.277950638041062 0.99999999999999456 -1 0 0 
1 0 27.277950638041062 0.99999999999999456 0 -1 2.3132389786151816e-16 
1 10 27.277950638041062 -7.1763678687353817e-15 0 0 1 
1 0 27.277950638041062 -7.1763678687353817e-15 0 0 1 
1 10 27.277950638041062 -7.1054273576010019e-15 0 1 0 
1 0 37.277950638041062 -7.1054273576010019e-15 1 0 0 
1 0 27.277950638041062 -7.1054273576010019e-15 0 1 0 
1 10 27.277950638041062 0.99999999999999289 0 1 0 
1 10 37.277950638041062 -7.1054273576010019e-15 0 0 1 
1 0 27.277950638041062 0.99999999999999289 0 1 0 
1 0 37.277950638041062 -7.1054273576010019e-15 0 0 1 
1 0 37.277950638041062 0.99999999999999312 1 0 0 
Polygon3D 0
PolygonOnTriangulations 0
Surfaces 20
1 0 0 0 0 0 1 1 0 -0 -0 1 0 
1 0 25.556349186104043 -7.1054273576010019e-15 1 0 0 0 -1.1102230246251565e-16 1 0 -1 -1.1102230246251565e-16 
1 4.9999999999999991 12.159743829755133 0 0 0 1 1 0 -0 -0 1 0 
1 10 25.556349186104043 -7.1054273576010019e-15 1 0 0 0 -1.1102230246251565e-16 1 0 -1 -1.1102230246251565e-16 
1 0 0 0 -0 1 0 0 0 1 1 0 -0 
1 0 12.159743829755133 0.5 1 0 0 -0 0 1 0 -1 0 
1 0 0 1 0 0 1 1 0 -0 -0 1 0 
1 10 12.159743829755133 0.5 1 0 0 -0 0 1 0 -1 0 
1 4.9999999999999991 12.159743829755133 1 0 0 1 1 0 -0 -0 1 0 
1 4.9999999999999991 18.638975319020531 -3.62365418993488e-15 0 2.2204460492503136e-16 1 0 1 -2.2204460492503136e-16 -1 0 0 
1 4.9999999999999991 18.638975319020531 0.99999999999999623 0 0 1 1 0 -0 -0 1 0 
1 10 18.638975319020535 0.49999999999999639 1 0 0 -0 0 1 0 -1 0 
1 0 18.638975319020535 0.49999999999999639 1 0 0 -0 0 1 0 -1 0 
1 4.9999999999999991 25.118206808285933 -6.6968084033181292e-15 0 0 1 1 0 -0 -0 1 0 
1 4.9999999999999991 25.118206808285933 0.999999999999995 0 2.3132389786151821e-16 1 0 1 -2.3132389786151821e-16 -1 0 0 
1 10 25.11820680828593 0.49999999999999417 1 0 0 -0 0 1 0 -1 0 
1 0 25.11820680828593 0.49999999999999417 1 0 0 -0 0 1 0 -1 0 
1 0 21.313708498984759 1.7573593128807135 0 -0.70710678118654746 -0.70710678118654768 1 0 0 0 -0.70710678118654768 0.70710678118654746 
1 0 22.020815280171309 2.4644660940672614 0 -0.70710678118654746 -0.70710678118654768 1 0 0 0 -0.70710678118654768 0.70710678118654746 
1 0 10 0 -0 1 0 0 0 1 1 0 -0 
Triangulations 0

TShapes 114
Ve
1e-07
0 0 0
0 0

0101101
*
Ve
1.00000000888178e-07
0 10 0
0 0

0101101
*
Ed
 1e-07 1 1 0
1  1 0 0 10
2  1 1 2 0 10
2  2 2 4 0 10
4 C0 1 2 2 4
0

0101000
+114 0 -113 0 *
Ve
1.00000000888178e-07
10 10 0
0 0

0101101
*
Ed
 1e-07 1 1 0
1  2 0 0 10
2  3 1 2 0 10
2  4 3 0 0 10
4 CN 1 2 3 0
0

0101000
+113 0 -111 0 *
Ve
1e-07
10 0 0
0 0

0101101
*
Ed
 1e-07 1 1 0
1  3 0 0 10
2  5 1 2 0 10
2  6 4 5 0 10
4 C0 1 2 4 5
0

0101000
+109 0 -111 0 *
Ed
 1e-07 1 1 0
1  4 0 0 10
2  7 1 2 0 10
2  8 5 6 0 10
4 C0 1 2 5 6
0

0101000
+114 0 -109 0 *
Wi

0101100
-112 3 -110 3 +108 3 +107 3 *
Fa
0  1e-07 1 0

0101000
+106 0 *
Ve
1.00000000888178e-07
0 10 1
0 0

0101101
*
Ed
 1e-07 1 1 0
1  5 0 0 1
2  9 2 4 0 1
2  10 6 0 0 1
4 CN 2 4 6 0
0

0101000
+104 0 -113 0 *
Ve
1e-07
0 0 1
0 0

0101101
*
Ed
 1e-07 1 1 0
1  6 0 0 1
2  11 2 4 0 1
2  12 5 6 0 1
4 C0 2 4 5 6
0

0101000
+114 0 -102 0 *
Ed
 1e-07 1 1 0
1  7 0 0 10
2  13 2 4 0 10
2  14 7 8 0 10
4 C0 2 4 7 8
0

0101000
+102 0 -104 0 *
Wi

0101100
-103 7 +112 7 -101 7 -100 7 *
Fa
0  1e-07 2 0

0101000
+99 0 *
Ve
1.00000000888178e-07
10 10 1
0 0

0101101
*
Ed
 1e-07 1 1 0
1  8 0 0 1
2  15 4 5 0 1
2  16 8 0 0 1
4 CN 4 5 8 0
0

0101000
+97 0 -111 0 *
Ve
1e-07
10 0 1
0 0

0101101
*
Ed
 1e-07 1 1 0
1  9 0 0 1
2  17 4 5 0 1
2  18 5 6 0 1
4 C0 4 5 5 6
0

0101000
+109 0 -95 0 *
Ed
 1e-07 1 1 0
1  10 0 0 10
2  19 4 5 0 10
2  20 7 8 0 10
4 C0 4 5 7 8
0

0101000
+95 0 -97 0 *
Wi

0101100
-96 9 +108 9 -94 9 -93 9 *
Fa
0  1e-07 4 0

0101000
+92 0 *
Ed
 1e-07 1 1 0
1  11 0 0 10
2  21 5 6 0 10
2  22 7 8 0 10
4 C0 5 6 7 8
0

0101000
+102 0 -95 0 *
Wi

0101100
-107 10 -94 10 +90 10 +101 10 *
Fa
0  1e-07 5 0

0101000
+89 0 *
Ed
 1e-07 1 1 0
1  12 0 0 10
2  23 7 8 0 10
2  24 9 0 0 10
4 CN 7 8 9 0
0

0101000
+104 0 -97 0 *
Wi

0101100
-100 11 -87 11 +93 11 +90 11 *
Fa
0  1e-07 7 0

0101000
+86 0 *
Ve
1.00000001910816e-07
10 14.3194876595103 -1.51804551960435e-15
0 0

0101101
*
Ed
 1e-07 1 1 0
1  13 0 0 4.31948765951027
2  25 3 0 0 4.31948765951027
2  26 8 0 0 4.31948765951027
4 C0 3 0 8 0
0

0101000
+111 0 -84 0 *
Ve
1.00000001910816e-07
0 14.3194876595103 -1.51804551960435e-15
0 0

0101101
*
Ed
 1e-07 1 1 0
1  14 0 0 10
2  27 3 0 0 10
2  28 10 0 0 10
4 G2 3 0 10 0
0

0101000
+84 0 -82 0 *
Ed
 1e-07 1 1 0
1  15 0 0 4.31948765951027
2  29 3 0 0 4.31948765951027
2  30 6 0 0 4.31948765951027
4 C0 3 0 6 0
0

0101000
+82 0 -113 0 *
Wi

0101100
+83 0 +81 0 +80 0 +110 0 *
Fa
0  1e-07 3 0

0101000
+79 0 *
Ve
1.00000001910816e-07
10 14.3194876595103 0.999999999999998
0 0

0101101
*
Ed
 1e-07 1 1 0
1  16 0 0 4.31948765951027
2  31 9 0 0 4.31948765951027
2  32 8 0 0 4.31948765951027
4 C0 9 0 8 0
0

0101000
+97 0 -77 0 *
Ve
1.00000001910816e-07
0 14.3194876595103 0.999999999999998
0 0

0101101
*
Ed
 1e-07 1 1 0
1  17 0 0 10
2  33 9 0 0 10
2  34 11 0 0 10
4 CN 9 0 11 0
0

0101000
+77 0 -75 0 *
Ed
 1e-07 1 1 0
1  18 0 0 4.31948765951027
2  35 9 0 0 4.31948765951027
2  36 6 0 0 4.31948765951027
4 C0 9 0 6 0
0

0101000
+75 0 -104 0 *
Wi

0101100
+76 0 +74 0 +73 0 +87 0 *
Fa
0  1e-07 9 0

0101000
+72 0 *
Ed
 1e-07 1 1 0
1  19 0 0 1
2  37 8 0 0 1
2  38 12 0 0 1
4 CN 8 0 12 0
0

0101000
+84 0 -77 0 *
Wi

0101100
+83 0 +70 0 -76 0 +96 0 *
Fa
0  1e-07 8 0

0101000
+69 0 *
Ed
 1e-07 1 1 0
1  20 0 0 1
2  39 6 0 0 1
2  40 13 0 0 1
4 CN 6 0 13 0
0

0101000
+82 0 -75 0 *
Wi

0101100
-80 0 +67 0 +73 0 +103 0 *
Fa
0  1e-07 6 0

0101000
+66 0 *
Ve
1.00000000817238e-07
10 22.9584629785308 -5.40001102933513e-15
0 0

0101101
*
Ed
 1e-07 1 1 0
1  21 0 0 8.63897531902053
2  41 10 0 0 8.63897531902053
2  42 12 0 0 8.63897531902053
4 C0 10 0 12 0
0

0101000
+84 0 -64 0 *
Ve
1.00000000817238e-07
0 22.9584629785308 -5.40001102933513e-15
0 0

0101101
*
Ed
 1e-07 1 1 0
1  22 0 0 10
2  43 10 0 0 10
2  44 14 0 0 10
4 G2 10 0 14 0
0

0101000
+64 0 -62 0 *
Ed
 1e-07 1 1 0
1  23 0 0 8.63897531902053
2  45 10 0 0 8.63897531902053
2  46 13 0 0 8.63897531902053
4 C0 10 0 13 0
0

0101000
+62 0 -82 0 *
Wi

0101100
+63 0 +61 0 +60 0 -81 0 *
Fa
0  1e-07 10 0

0101000
+59 0 *
Ve
1e-07
10 22.9584629785308 0.999999999999996
0 0

0101101
*
Ed
 1e-07 1 1 0
1  24 0 0 8.63897531902053
2  47 11 0 0 8.63897531902053
2  48 12 0 0 8.63897531902053
4 C0 11 0 12 0
0

0101000
+77 0 -57 0 *
Ve
1e-07
0 22.9584629785308 0.999999999999996
0 0

0101101
*
Ed
 1e-07 1 1 0
1  25 0 0 10
2  49 11 0 0 10
2  50 15 0 0 10
4 G2 11 0 15 0
0

0101000
+57 0 -55 0 *
Ed
 1e-07 1 1 0
1  26 0 0 8.63897531902053
2  51 11 0 0 8.63897531902053
2  52 13 0 0 8.63897531902053
4 C0 11 0 13 0
0

0101000
+55 0 -75 0 *
Wi

0101100
+56 0 +54 0 +53 0 -74 0 *
Fa
0  1e-07 11 0

0101000
+52 0 *
Ed
 1e-07 1 1 0
1  27 0 0 1
2  53 16 0 0 1
2  54 12 0 0 1
4 CN 12 0 16 0
0

0101000
+57 0 -64 0 *
Wi

0101100
+63 0 -50 0 -56 0 -70 0 *
Fa
0  1e-07 12 0

0101000
+49 0 *
Ed
 1e-07 1 1 0
1  28 0 0 1
2  55 17 0 0 1
2  56 13 0 0 1
4 CN 13 0 17 0
0

0101000
+55 0 -62 0 *
Wi

0101100
-60 0 -47 0 +53 0 -67 0 *
Fa
0  1e-07 13 0

0101000
+46 0 *
Ve
1.0000000299574e-07
10 27.2779506380411 -8.7568786549784e-15
0 0

0101101
*
Ed
 1e-07 1 1 0
1  29 0 0 4.31948765951027
2  57 14 0 0 4.31948765951027
2  58 16 0 0 4.31948765951027
4 C0 14 0 16 0
0

0101000
+64 0 -44 0 *
Ve
1.0000000299574e-07
0 27.2779506380411 -8.7568786549784e-15
0 0

0101101
*
Ed
 1e-07 1 1 0
1  30 0 0 10
2  59 14 0 0 10
2  60 18 14 0 10
4 G2 14 0 18 14
0

0101000
+44 0 -42 0 *
Ed
 1e-07 1 1 0
1  31 0 0 4.31948765951027
2  61 14 0 0 4.31948765951027
2  62 17 0 0 4.31948765951027
4 C0 14 0 17 0
0

0101000
+42 0 -62 0 *
Wi

0101100
+43 0 +41 0 +40 0 -61 0 *
Fa
0  1e-07 14 0

0101000
+39 0 *
Ve
1.00000003516544e-07
10 27.2779506380411 0.999999999999992
0 0

0101101
*
Ed
 1e-07 1 1 0
1  32 0 0 4.31948765951027
2  63 15 0 0 4.31948765951027
2  64 16 0 0 4.31948765951027
4 C0 15 0 16 0
0

0101000
+57 0 -37 0 *
Ve
1.00000003516544e-07
0 27.2779506380411 0.999999999999992
0 0

0101101
*
Ed
 1e-07 1 1 0
1  33 0 0 10
2  65 15 0 0 10
2  66 19 16 0 10
4 CN 15 0 19 16
0

0101000
+37 0 -35 0 *
Ed
 1e-07 1 1 0
1  34 0 0 4.31948765951027
2  67 15 0 0 4.31948765951027
2  68 17 0 0 4.31948765951027
4 C0 15 0 17 0
0

0101000
+35 0 -55 0 *
Wi

0101100
+36 0 +34 0 +33 0 -54 0 *
Fa
0  1e-07 15 0

0101000
+32 0 *
Ed
 1e-07 1 1 0
1  35 0 0 1
2  69 16 0 0 1
2  70 4 17 0 1
4 CN 16 0 4 17
0

0101000
+44 0 -37 0 *
Wi

0101100
+43 0 +30 0 -36 0 +50 0 *
Fa
0  1e-07 16 0

0101000
+29 0 *
Ed
 1e-07 1 1 0
1  36 0 0 1
2  71 17 0 0 1
2  72 2 18 0 1
4 CN 17 0 2 18
0

0101000
+42 0 -35 0 *
Wi

0101100
-40 0 +27 0 +33 0 +47 0 *
Fa
0  1e-07 17 0

0101000
+26 0 *
Ve
1.00000000888178e-07
10 37.2779506380411 -7.105427357601e-15
0 0

0101101
*
Ed
 1e-07 1 1 0
1  37 0 0 10
2  73 18 14 0 10
2  74 4 17 0 10
4 C0 18 14 4 17
0

0101000
+44 0 -24 0 *
Ve
1.00000000888178e-07
0 37.2779506380411 -7.105427357601e-15
0 0

0101101
*
Ed
 1e-07 1 1 0
1  38 0 0 10
2  75 18 14 0 10
2  76 20 24 0 10
4 C0 18 14 20 24
0

0101000
+22 0 -24 0 *
Ed
 1e-07 1 1 0
1  39 0 0 10
2  77 18 14 0 10
2  78 2 18 0 10
4 C0 18 14 2 18
0

0101000
+42 0 -22 0 *
Wi

0101100
-23 19 +41 19 +21 19 +20 19 *
Fa
0  1e-07 18 12

0101000
+19 0 *
Ve
1.00000000888178e-07
10 37.2779506380411 0.999999999999993
0 0

0101101
*
Ed
 1e-07 1 1 0
1  40 0 0 10
2  79 4 17 0 10
2  80 19 16 0 10
4 C0 4 17 19 16
0

0101000
+37 0 -17 0 *
Ed
 1e-07 1 1 0
1  41 0 0 1
2  81 4 17 0 1
2  82 20 24 0 1
4 C0 4 17 20 24
0

0101000
+24 0 -17 0 *
Wi

0101100
-16 25 +15 25 +23 25 -30 25 *
Fa
0  1e-07 4 0

0101000
+14 0 *
Ve
1.00000000888178e-07
0 37.2779506380411 0.999999999999993
0 0

0101101
*
Ed
 1e-07 1 1 0
1  42 0 0 10
2  83 2 18 0 10
2  84 19 16 0 10
4 C0 2 18 19 16
0

0101000
+35 0 -12 0 *
Ed
 1e-07 1 1 0
1  43 0 0 1
2  85 2 18 0 1
2  86 20 24 0 1
4 C0 2 18 20 24
0

0101000
+22 0 -12 0 *
Wi

0101100
-11 26 +10 26 +20 26 -27 26 *
Fa
0  1e-07 2 0

0101000
+9 0 *
Ed
 1e-07 1 1 0
1  44 0 0 10
2  87 19 16 0 10
2  88 20 24 0 10
4 C0 19 16 20 24
0

0101000
+12 0 -17 0 *
Wi

0101100
-16 27 +34 27 +7 27 +11 27 *
Fa
0  1e-07 19 12

0101000
+6 0 *
Wi

0101100
-21 28 -15 28 +7 28 +10 28 *
Fa
0  1e-07 20 0

0101000
+4 0 *
Sh

0101100
-105 2 -98 4 +91 5 -88 6 +85 8 -78 0 +71 0 +68 0 -65 0 -58 0 
+51 0 +48 0 -45 0 -38 0 +31 0 +28 0 -25 0 +18 13 +13 17 -8 18 
-5 15 +3 24 *
So

1100000
+2 0 *

+1 1  