
CASCADE Topology V1, (c) Matra-Datavision
Locations 75
1
              1               0               0               0 
              0               1               0               0 
              0               0               1               0 
1
              1               0               0               0 
              0               1               0               0 
              0               0               1               0 
1
              1               0               0               0 
              0               1               0               0 
              0               0               1               0 
2  2 1 3 1 0
2  3 -1 2 -1 0
1
              1               0               0               0 
              0               1               0               0 
              0               0               1               0 
2  6 -1 0
1
              1               0               0               0 
              0               1               0               0 
              0               0               1               0 
2  2 1 8 1 0
2  8 -1 2 -1 0
1
            0.5               0 0.866025403784439 -1.29903810567666 
              0               1               0               0 
-0.866025403784439               0             0.5            0.75 
1
0.499999999999998               0 -0.86602540378444 0.513909594513476 
              0               1               0               0 
0.86602540378444               0 0.499999999999998 0.750000000000003 
2  11 1 2 1 12 1 0
1
0.499999999999998               0 -0.86602540378444 0.513909594513476 
              0               1               0               0 
0.86602540378444               0 0.499999999999998 0.750000000000003 
2  11 1 2 1 14 1 0
1
0.499999999999998               0 -0.86602540378444 0.513909594513476 
              0               1               0               0 
0.86602540378444               0 0.499999999999998 0.750000000000003 
1
0.499999999999998               0 -0.86602540378444 0.513909594513476 
              0               1               0               0 
0.86602540378444               0 0.499999999999998 0.750000000000003 
2  2 1 12 1 0
2  12 -1 2 -1 0
1
              1               0               0              -5 
              0               1               0              -0 
              0               0               1               0 
1
0.499999999999998               0 -0.86602540378444 0.513909594513476 
              0               1               0               0 
0.86602540378444               0 0.499999999999998 0.750000000000003 
2  20 1 11 1 2 1 21 1 0
2  16 -1 0
2  17 -1 0
2  2 1 14 1 0
2  14 -1 2 -1 0
2  21 -1 2 -1 11 -1 20 -1 0
1
              1               0               0               0 
              0 0.766044443118978 0.642787609686539 2.66094937365349 
              0 -0.642787609686539 0.766044443118978 6.31089831842488 
1
              1               0               0               0 
              0 0.766044443118978 -0.642787609686539 2.54158077140907 
              0 0.642787609686539 0.766044443118978 -6.54485387530591 
2  28 1 2 1 29 1 0
1
              1               0               0               0 
              0 0.766044443118978 -0.642787609686539 2.54158077140907 
              0 0.642787609686539 0.766044443118978 -6.54485387530591 
2  28 1 2 1 31 1 0
1
              1               0               0               0 
              0 0.766044443118978 -0.642787609686539 2.54158077140907 
              0 0.642787609686539 0.766044443118978 -6.54485387530591 
1
              1               0               0               0 
              0 0.766044443118978 -0.642787609686539 2.54158077140907 
              0 0.642787609686539 0.766044443118978 -6.54485387530591 
2  2 1 29 1 0
2  29 -1 2 -1 0
2  33 -1 0
2  34 -1 0
2  2 1 31 1 0
2  31 -1 2 -1 0
1
              1               0               0               0 
              0 0.17364817766693 0.984807753012208 15.0861443154317 
              0 -0.984807753012208 0.17364817766693 10.551090589445 
1
              1               0               0               0 
              0 -0.499999999999997 -0.86602540378444 20.2690034320994 
              0 0.86602540378444 -0.499999999999997 -14.3342928029054 
2  41 1 2 1 42 1 0
1
              1               0               0               0 
              0 -0.499999999999997 -0.86602540378444 20.2690034320994 
              0 0.86602540378444 -0.499999999999997 -14.3342928029054 
2  41 1 2 1 44 1 0
1
              1               0               0               0 
              0 -0.499999999999997 -0.86602540378444 20.2690034320994 
              0 0.86602540378444 -0.499999999999997 -14.3342928029054 
1
              1               0               0               0 
              0 -0.499999999999997 -0.86602540378444 20.2690034320994 
              0 0.86602540378444 -0.499999999999997 -14.3342928029054 
2  2 1 42 1 0
2  42 -1 2 -1 0
1
              1               0               0              -0 
              0               1               0               5 
              0               0               1               0 
1
              1               0               0               0 
              0               1               0 3.83022221559489 
              0               0               1 -3.2139380484327 
1
              1               0               0               0 
              0 -0.499999999999997 -0.86602540378444 20.2690034320994 
              0 0.86602540378444 -0.499999999999997 -14.3342928029054 
2  50 1 28 1 51 1 41 1 2 1 52 1 0
2  46 -1 0
2  47 -1 0
2  2 1 44 1 0
2  44 -1 2 -1 0
2  52 -1 2 -1 41 -1 51 -1 28 -1 50 -1 0
1
0.939692620785908               0 -0.342020143325669 1.11610400712942 
              0               1               0               0 
0.342020143325669               0 0.939692620785908 -3.32974036443555 
1
0.939692620785908               0 0.342020143325669 0.351753080873473 
              0               1               0               0 
-0.342020143325669               0 0.939692620785908 3.51066250207783 
2  59 1 2 1 60 1 0
1
0.939692620785908               0 0.342020143325669 0.351753080873473 
              0               1               0               0 
-0.342020143325669               0 0.939692620785908 3.51066250207783 
2  59 1 2 1 62 1 0
1
0.939692620785908               0 0.342020143325669 0.351753080873473 
              0               1               0               0 
-0.342020143325669               0 0.939692620785908 3.51066250207783 
1
0.939692620785908               0 0.342020143325669 0.351753080873473 
              0               1               0               0 
-0.342020143325669               0 0.939692620785908 3.51066250207783 
2  2 1 60 1 0
2  60 -1 2 -1 0
1
              1               0               0               5 
              0               1               0               0 
              0               0               1              -0 
1
0.939692620785908               0 0.342020143325669 0.351753080873473 
              0               1               0               0 
-0.342020143325669               0 0.939692620785908 3.51066250207783 
2  68 1 59 1 2 1 69 1 0
2  64 -1 0
2  65 -1 0
2  2 1 62 1 0
2  62 -1 2 -1 0
2  69 -1 2 -1 59 -1 68 -1 0
Curve2ds 152
1 0 0 0 1 
1 0.39256425558159203 -5 0 1 
1 0 10 1 0 
1 -5 -0.26170950372106105 1 0 
1 10 0 0 1 
1 0.13085475186053053 -5 0 1 
1 0 0 1 0 
1 0 0 0 1 
1 1 10 -1 0 
1 -0.5 -0.13085475186053053 1 0 
1 1 0 0 1 
1 0 0 1 0 
1 0 0 1 0 
8 0 1
1 -0.5 0.39256425558159197 1 -0 
1 0 0 0 1 
1 0.39256425558159203 -5 0 1 
1 0 10 1 0 
1 -5 -0.26170950372106105 1 0 
1 10 0 0 1 
1 0.13085475186053053 -5 0 1 
1 0.39256425558159203 5 -1 0 
1 -0.5 0.39256425558159197 0 -1 
1 -0.39256425558159191 5 0 -1 
8 0 10
1 10 0 -1 -0 
1 -0.39256425558159191 -5 1 0 
8 0 0.78512851116318394
1 -0.5 -0.39256425558159197 -0 1 
1 0.39256425558159203 5 -1 0 
8 0 0.78512851116318394
1 0.5 0.39256425558159197 -0 -1 
1 -0.39256425558159191 5 0 -1 
8 0 10
1 10 0 -1 -0 
1 -0.39256425558159191 -5 1 0 
1 0.5 -0.39256425558159197 0 1 
1 0.25 0.43301270189221902 0.499999999999999 0.86602540378443926 
8 0 1.000000000000002
1 0.5 -0.39256425558159197 -1 -0 
1 0.5 0.39256425558159197 -1 0 
1 0.5 0.26170950372106105 -1 0 
1 0.75 -1.29903810567666 0.499999999999999 0.86602540378443926 
1 -0.5 -0.39256425558159197 1 0 
1 10 0 0 -1 
1 0.75 1.29903810567666 -0.86602540378443882 0.49999999999999989 
1 0 -5 1 0 
1 0 0 0 -1 
1 0 0 0 -1 
1 0.75 -1.29903810567666 0.86602540378443882 -0.49999999999999989 
1 0.25 0.43301270189222096 -0.86602540378443882 0.49999999999999989 
1 10 0 0 -1 
1 -3.5801270189221954 3.7990381056766598 -0.49999999999999989 -0.86602540378443882 
1 0 -10 1 0 
1 1.25 -0.43301270189222096 0.86602540378443882 -0.49999999999999989 
1 0 0 0 -1 
1 5.0801270189221954 -3.7990381056766598 0.49999999999999989 0.86602540378443882 
1 0 0 1 0 
1 0 -5 1 0 
1 1 0 0 -1 
1 5 -0.26170950372106105 0 1 
1 -0.5 0.26170950372106105 0 -1 
1 5 0.26170950372106105 -1 0 
8 0 10
1 10 0 -1 -0 
1 -5 0.26170950372106105 0 -1 
8 0 0.52341900744212211
1 -0.5 -0.26170950372106105 -0 1 
1 5 -0.26170950372106105 0 1 
8 0 0.52341900744212211
1 0.5 0.26170950372106105 -0 -1 
1 5 0.26170950372106105 -1 0 
8 0 10
1 10 0 -1 -0 
1 -5 0.26170950372106105 0 -1 
1 0.5 -0.26170950372106105 0 1 
1 -0.5 -0.26170950372106105 1 0 
8 0 1
1 -5.3372146762275738 1.360644764840802 0.17364817766690094 0.98480775301221324 
1 0.5 0.26170950372106105 -1 0 
1 -0.5 -0.13085475186053053 1 0 
1 -0.5 -0.26170950372106105 1 0 
8 0 1
1 -5.3372146762275738 1.360644764840802 0.17364817766690094 0.98480775301221324 
1 10 0 0 -1 
1 -5.3372146762275996 1.3606447648407882 0.98480775301220824 -0.17364817766692978 
1 0 -4.9999999999999982 1 0 
1 -5 -0.52341900744211856 1 0 
1 0 0 0 -1 
1 -5.3372146762275996 1.3606447648407882 0.98480775301220824 -0.17364817766692978 
1 0.50000000000000022 0.52341900744212211 -1 0 
1 -0.2395277334996283 1.4772116295183477 -0.17364817766693033 -0.98480775301220802 
1 -5.1635664985606686 2.3454525178529959 0.98480775301220824 -0.17364817766692978 
1 10 0 0 -1 
1 0.50000000000000022 0.52341900744212211 -1 0 
1 -0.2395277334996283 1.4772116295183477 -0.17364817766693033 -0.98480775301220802 
1 -5.1635664985606686 2.3454525178529959 0.98480775301220824 -0.17364817766692978 
1 0 0 0 -1 
1 0 -5 1 0 
1 -5 -0.52341900744211856 1 0 
1 5 -0.52341900744211856 0 1 
1 -0.5 0.52341900744212211 -1.6653345369377343e-16 -1 
1 5 0.52341900744212211 -1 0 
8 0 10
1 10 -7.6918507455342563e-16 -1 -0 
1 -5 0.52341900744212211 0 -1 
8 0 1.0468380148842407
1 -0.50000000000000022 -0.52341900744211856 1.6653345369377343e-16 1 
1 5 -0.52341900744211856 0 1 
8 0 1.0468380148842407
1 0.50000000000000022 0.52341900744212211 -2.1210980282330022e-16 -1 
1 5 0.52341900744212211 -1 0 
8 0 10
1 10 7.6918507455342563e-16 -1 -0 
1 -5 0.52341900744212211 0 -1 
1 0.5 -0.52341900744211856 2.1210980282330022e-16 1 
1 -0.50000000000000022 -0.52341900744211856 1 0 
8 0 1.0000000000000002
1 -3.5971225997855072e-14 3.4028335704760429e-14 1 -1.8485213360008856e-14 
1 -0.50000000000000022 -0.52341900744211856 1 0 
8 0 1.0000000000000002
1 -3.5971225997855072e-14 3.4028335704760429e-14 1 -1.8485213360008856e-14 
1 10 0 0 -1 
1 0 0 0 -1 
1 0 -5.0000000000000018 1 0 
1 0 0 0 1 
1 0 0 0 -1 
1 0 0 0 -1 
1 0.99999999999999911 -2.2204460492503131e-16 0 -1 
1 10 0 0 -1 
1 8.8817841970012523e-16 -5.0000000000000062 1 2.7755575615628914e-16 
1 0 10 1 0 
1 0.99999999999999911 -2.2204460492503131e-16 0 -1 
1 0 0 0 -1 
1 8.8817841970012523e-16 -5.0000000000000062 1 2.7755575615628914e-16 
1 0 0 1 0 
1 0 -5 1 0 
1 1 0 0 1 
1 0.13085475186053053 5 -1 0 
1 0.5 -0.13085475186053053 0 1 
1 -0.13085475186053053 5 0 -1 
8 0 10
1 10 0 -1 -0 
1 -0.13085475186053053 -5 1 0 
8 0 0.26170950372106105
1 0.5 0.13085475186053053 -0 -1 
1 0.13085475186053053 5 -1 0 
8 0 0.26170950372106105
1 -0.5 -0.13085475186053053 -0 1 
1 -0.13085475186053053 5 0 -1 
8 0 10
1 10 0 -1 -0 
1 -0.13085475186053053 -5 1 0 
1 -0.5 0.13085475186053053 0 -1 
1 0.46984631039295 0.17101007166279913 0.93969262078589844 0.34202014332569619 
8 0 1.0000000000000149
1 -0.5 0.13085475186053053 1 -0 
1 1.03015368960705 10.171010071662799 -0.93969262078589844 0.34202014332569619 
8 0 1.0000000000000149
1 -0.5 0.13085475186053053 1 -0 
1 10 0 0 -1 
1 1.4095389311788598 0.51303021498850221 -0.3420201433256691 0.93969262078590832 
1 0 -5.0000000000000009 1 0 
1 0 0 0 -1 
1 0 0 0 -1 
1 0.090461068821140245 10.513030214988502 0.3420201433256691 0.93969262078590832 
1 0.46984631039295133 0.17101007166283289 -0.3420201433256691 0.93969262078590832 
1 10 0 0 -1 
1 -0.30056178544948531 5.2114933189180412 -0.93969262078590832 -0.3420201433256691 
1 0 -10 1 0 
1 1.8005617854494853 15.211493318918041 0.93969262078590832 -0.3420201433256691 
1 0 0 1 0 
1 1.0301536896070487 10.171010071662833 0.3420201433256691 0.93969262078590832 
1 0 0 0 -1 
1 0 -5.0000000000000009 1 0 
1 1 0 0 -1 
Curves 76
1 0 0 0 0 1 0 
1 0 10 0 1 0 0 
1 10 0 0 0 1 0 
1 0 0 0 1 0 0 
1 10 0 1 0 0 -1 
1 0 0 1 1 0 0 
1 0 0 0 0 0 1 
1 0 0 1 0 1 0 
1 0 10 1 1 0 0 
1 10 0 1 0 1 0 
1 0 10 0 -1 0 0 
1 -0.78512851116318394 10 0 0 -1 0 
1 -0.78512851116318394 0 0 1 0 0 
1 0 10 1 -1 0 0 
1 -0.78512851116318394 10 1 0 -1 0 
1 -0.78512851116318394 0 1 1 0 0 
1 -0.78512851116318261 10 1.0000000000000004 1.1102230246251565e-15 0 -1 
1 0 10 1 0 0 -1 
1 -0.7851285111631815 0 -1.8873791418627661e-15 -1.1102230246251565e-15 0 1 
1 -0.7851285111631815 10.000000000000002 -1.8873791418627661e-15 -1 0 -2.1094237467877974e-15 
1 -5.7851285111631823 0 -1.2434497875801755e-14 0 1 0 
1 -0.7851285111631815 0 -1.8873791418627661e-15 -1 0 -2.1094237467877974e-15 
1 -0.78512851116318361 10.000000000000002 0.99999999999999833 -1 0 -2.1094237467877974e-15 
1 -5.7851285111631823 10.000000000000002 -1.2434497875801755e-14 -2.1094237467877974e-15 0 1 
1 -0.78512851116318361 0 0.99999999999999833 -1 0 -2.1094237467877974e-15 
1 -5.7851285111631823 0 -1.2434497875801755e-14 -2.1094237467877974e-15 0 1 
1 -5.7851285111631841 0 0.99999999999998779 0 1 0 
1 10 10 0 0 1 0 
1 10 10.523419007442122 0 -1 0 0 
1 0 10.523419007442122 0 0 -1 0 
1 10 10 1 0 1 0 
1 10 10.523419007442122 1 -1 0 0 
1 0 10.523419007442122 1 0 -1 0 
1 10 10.523419007442122 0 0 0 1 
1 10 10 1 0 0 -1 
1 0 10.523419007442122 0 0 0 1 
1 9.9999999999999982 10.523419007442122 1.4432899320127027e-15 0 1 4.9960036108132044e-16 
1 0 15.52341900744212 3.9412917374193041e-15 1 0 0 
1 0 10.523419007442122 1.4432899320127027e-15 0 1 4.9960036108132044e-16 
1 10 15.523419007442119 1.0000000000000002 0 0 -1 
1 9.9999999999999982 10.523419007442122 1.0000000000000011 0 1 4.9960036108132044e-16 
1 0 15.523419007442119 1.0000000000000002 0 0 -1 
1 0 10.523419007442122 1.0000000000000011 0 1 4.9960036108132044e-16 
1 0 15.52341900744212 1.0000000000000036 1 0 0 
1 10 15.523419007442119 0 0 1 -1.6653345369377343e-16 
1 10 16.570257022326359 -1.743335500766064e-16 -1 0 0 
1 0 16.570257022326359 -1.743335500766064e-16 0 -1 1.6653345369377343e-16 
1 10 15.523419007442119 1.0000000000000002 0 1 -2.1210980282330022e-16 
1 10 16.570257022326359 1 -1 0 0 
1 0 16.570257022326359 1 0 -1 2.1210980282330022e-16 
1 10 16.570257022326359 -1.743335500766064e-16 0 0 1 
1 0 16.570257022326359 -1.743335500766064e-16 0 0 1 
1 9.9999999999999982 16.570257022326395 2.8421709430404007e-14 0 1 -3.608224830031758e-15 
1 0 21.570257022326395 1.0491607582707736e-14 1 0 0 
1 0 16.570257022326395 2.8421709430404007e-14 0 1 -3.608224830031758e-15 
1 9.9999999999999982 16.570257022326395 1.0000000000000284 0 1 -3.608224830031758e-15 
1 9.9999999999999982 21.570257022326395 1.0491607582707736e-14 0 3.3861802251067274e-15 1 
1 0 16.570257022326395 1.0000000000000284 0 1 -3.608224830031758e-15 
1 0 21.570257022326395 1.0491607582707736e-14 0 3.3861802251067274e-15 1 
1 0 21.570257022326398 1.0000000000000102 1 0 0 
1 10 10 0 1 0 0 
1 10.261709503721061 10 0 0 -1 0 
1 10.261709503721061 0 0 -1 0 0 
1 10 10 1 1 0 0 
1 10.261709503721061 10 1 0 -1 0 
1 10.261709503721061 0 1 -1 0 0 
1 10.261709503721029 10 1.0000000000000164 2.9087843245179101e-14 0 -1 
1 10.261709503721029 0 1.0000000000000164 2.9087843245179101e-14 0 -1 
1 10.261709503721059 9.9999999999999982 3.1086244689504379e-15 1 0 2.2204460492503131e-16 
1 15.261709503721058 0 4.2188474935755949e-15 0 1 0 
1 10.261709503721059 0 3.1086244689504379e-15 1 0 2.2204460492503131e-16 
1 10.261709503721059 9.9999999999999982 1.0000000000000029 1 0 2.2204460492503131e-16 
1 15.261709503721058 9.9999999999999982 4.2188474935755949e-15 -2.2204460492503131e-16 0 1 
1 15.261709503721058 0 4.2188474935755949e-15 -2.2204460492503131e-16 0 1 
1 10.261709503721059 0 1.0000000000000029 1 0 2.2204460492503131e-16 
1 15.261709503721058 0 1.000000000000004 0 1 0 
Polygon3D 0
PolygonOnTriangulations 0
Surfaces 34
1 0 0 0 0 0 1 1 0 -0 -0 1 0 
1 -0.39256425558159203 5 0 0 0 1 1 0 -0 -0 1 0 
1 5 10.261709503721061 0 0 0 1 1 0 -0 -0 1 0 
1 10.130854751860531 5 0 -0 -0 -1 -1 0 0 0 1 -0 
1 0 0 0 0 1 0 0 0 1 1 0 0 
1 10.130854751860531 0 0.5 -0 -1 -0 0 0 -1 1 -0 0 
1 0 0 1 0 0 1 1 0 -0 -0 1 0 
1 -0.39256425558159197 0 0.5 0 1 0 0 -0 1 1 0 -0 
1 -0.39256425558159203 5 1 0 0 1 1 0 -0 -0 1 0 
1 5 10.261709503721061 1 0 0 1 1 0 -0 -0 1 0 
1 10.130854751860531 5 1 -0 -0 -1 -1 0 0 0 1 -0 
1 -0.39256425558159197 9.9999999999999982 0.5 0 1 0 0 -0 1 1 0 -0 
1 0 0 0 -0 0 -1 0 1 0 1 0 -0 
1 0 0 1 -0 0 -1 0 1 0 1 0 -0 
1 0 10 1.5 0 1 0 0 0 -1 -1 0 0 
1 0 10.261709503721061 0.5 1 0 0 -0 0 1 0 -1 0 
1 0 0 0 1 0 -0 0 0 1 0 -1 0 
1 10 10.261709503721061 0.5 1 0 0 -0 0 1 0 -1 0 
1 0 10 0 -0 0 -1 1 0 -0 0 -1 -0 
1 0 10 1 -0 0 -1 1 0 -0 0 -1 -0 
1 9.9999999999999982 14.263234917487114 -3.9639380484327376 1 0 0 0 0.86602540378443849 -0.50000000000000033 0 0.50000000000000033 0.86602540378443849 
1 10.130854751860531 10 0.5 -0 -1 -0 0 0 -1 1 -0 0 
1 0 14.263234917487114 -3.9639380484327376 1 0 0 0 0.86602540378443849 -0.50000000000000033 0 0.50000000000000033 0.86602540378443849 
1 5 16.046838014884237 -8.7166775038303211e-17 0 0 1 1 0 -0 -0 1 0 
1 10 16.046838014884241 0.5 1 0 0 -0 0 1 0 -1 0 
1 0 16.046838014884241 0.5 1 0 0 -0 0 1 0 -1 0 
1 5 16.046838014884237 1 0 0 1 1 0 -0 -0 1 0 
1 0 14.151616020438158 -3.3309158268732069 0 -0.64278760968653936 -0.76604444311897812 1 0 0 0 -0.76604444311897812 0.64278760968653936 
1 0 14.794403630124698 -2.564871383754229 0 -0.64278760968653936 -0.76604444311897812 1 0 0 0 -0.76604444311897812 0.64278760968653936 
1 0 10 0 -0 1 0 0 0 1 1 0 -0 
1 10 0 0 0 0 1 -0 1 0 -1 -0 0 
1 10 0 1 0 -0 1 0 1 0 -1 0 0 
1 10 10 1.5 -0 -1 -0 0 0 -1 1 0 0 
1 10 0 0 1 0 -0 0 0 1 0 -1 0 
Triangulations 0

TShapes 194
Ve
1e-07
0 0 0
0 0

0101101
*
Ve
1.00000000055511e-07
0 10 0
0 0

0101101
*
Ed
 1e-07 1 1 0
1  1 0 0 10
2  1 1 4 0 10
2  2 2 0 0 10
4 CN 1 4 2 0
0

0101000
+194 0 -193 0 *
Ve
1.00000000055511e-07
10 10 0
0 0

0101101
*
Ed
 1e-07 1 1 0
1  2 0 0 10
2  3 1 4 0 10
2  4 3 0 0 10
4 CN 1 4 3 0
0

0101000
+193 0 -191 0 *
Ve
1e-07
10 0 0
0 0

0101101
*
Ed
 1e-07 1 1 0
1  3 0 0 10
2  5 1 4 0 10
2  6 4 0 0 10
4 G2 1 4 4 0
0

0101000
+189 0 -191 0 *
Ed
 1e-07 1 1 0
1  4 0 0 10
2  7 1 4 0 10
2  8 5 6 0 10
4 C0 1 4 5 6
0

0101000
+194 0 -189 0 *
Wi

0101100
-192 5 -190 5 +188 5 +187 5 *
Fa
0  1e-07 1 0

0101000
+186 0 *
Ve
1e-07
10 0 1
0 0

0101101
*
Ed
 1e-07 1 1 0
1  5 0 0 1
2  9 5 6 0 1
2  10 6 0 0 1
4 G2 5 6 6 0
0

0101000
+184 0 -189 0 *
Ve
1e-07
0 0 1
0 0

0101101
*
Ed
 1e-07 1 1 0
1  6 0 0 10
2  11 5 6 0 10
2  12 7 9 0 10
4 C0 5 6 7 9
0

0101000
+182 0 -184 0 *
Ed
 1e-07 1 1 0
1  7 0 0 1
2  13 5 6 0 1
2  14 8 0 0 1
4 CN 5 6 8 0
0

0101000
+194 0 -182 0 *
Wi

0101100
+183 7 +181 7 +180 7 -187 7 *
Fa
0  1e-07 5 0

0101000
+179 0 *
Ve
1.00000000055511e-07
0 10 1
0 0

0101101
*
Ed
 1e-07 1 1 0
1  8 0 0 10
2  15 7 9 0 10
2  16 9 0 0 10
4 CN 7 9 9 0
0

0101000
+182 0 -177 0 *
Ve
1.00000000055511e-07
10 10 1
0 0

0101101
*
Ed
 1e-07 1 1 0
1  9 0 0 10
2  17 7 9 0 10
2  18 10 0 0 10
4 CN 7 9 10 0
0

0101000
+177 0 -175 0 *
Ed
 1e-07 1 1 0
1  10 0 0 10
2  19 7 9 0 10
2  20 11 0 0 10
4 G2 7 9 11 0
0

0101000
+184 0 -175 0 *
Wi

0101100
-176 10 -174 10 +173 10 +181 10 *
Fa
0  1e-07 7 0

0101000
+172 0 *
Ve
1.00000001616378e-07
-0.785128511163183 10 -9.88084291658391e-16
0 0

0101101
*
Ed
 1e-07 1 1 0
1  11 0 0 0.785128511163184
2  21 2 0 0 0.785128511163184
2  22 12 0 0 0.785128511163184
4 C0 2 0 12 0
0

0101000
+193 0 -170 0 *
Ve
1.00000001616378e-07
-0.785128511163183 0 -9.88084291658391e-16
0 0

0101101
*
Ed
 1e-07 1 1 0
1  12 0 0 10
2  23 2 0 0 10
2  24 13 13 0 10
4 G2 2 0 13 13
0

0101000
+170 0 -168 0 *
Ed
 1e-07 1 1 0
1  13 0 0 0.785128511163184
2  25 2 0 0 0.785128511163184
2  26 8 0 0 0.785128511163184
4 C0 2 0 8 0
0

0101000
+168 0 -194 0 *
Wi

0101100
+169 0 +167 0 +166 0 +192 0 *
Fa
0  1e-07 2 0

0101000
+165 0 *
Ve
1.00000000785433e-07
-0.785128511163183 10 1
0 0

0101101
*
Ed
 1e-07 1 1 0
1  14 0 0 0.785128511163184
2  27 9 0 0 0.785128511163184
2  28 12 0 0 0.785128511163184
4 C0 9 0 12 0
0

0101000
+177 0 -163 0 *
Ve
1.00000000785433e-07
-0.785128511163183 0 1
0 0

0101101
*
Ed
 1e-07 1 1 0
1  15 0 0 10
2  29 9 0 0 10
2  30 14 15 0 10
4 G2 9 0 14 15
0

0101000
+163 0 -161 0 *
Ed
 1e-07 1 1 0
1  16 0 0 0.785128511163184
2  31 9 0 0 0.785128511163184
2  32 8 0 0 0.785128511163184
4 C0 9 0 8 0
0

0101000
+161 0 -182 0 *
Wi

0101100
+162 0 +160 0 +159 0 +176 0 *
Fa
0  1e-07 9 0

0101000
+158 0 *
Ed
 1e-07 1 1 0
1  17 0 0 1
2  33 15 16 0 1
2  34 12 0 0 1
4 C1 12 0 15 16
0

0101000
+163 0 -170 0 *
Ed
 1e-07 1 1 0
1  18 0 0 1
2  35 12 0 0 1
2  36 16 0 0 1
4 C0 12 0 16 0
0

0101000
+177 0 -193 0 *
Wi

0101100
+169 0 -156 0 -162 0 +155 0 *
Fa
0  1e-07 12 0

0101000
+154 0 *
Ed
 1e-07 1 1 0
1  19 0 0 1
2  37 5 17 0 1
2  38 8 0 0 1
4 C1 8 0 5 17
0

0101000
+168 0 -161 0 *
Wi

0101100
-166 0 +152 0 +159 0 -180 0 *
Fa
0  1e-07 8 0

0101000
+151 0 *
Ve
1.00000000055511e-07
-5.78512851116318 10 -1.24344978758018e-14
0 0

0101101
*
Ed
 1e-07 1 1 0
1  20 0 0 5
2  39 13 13 0 5
2  40 15 16 0 5
4 C0 13 13 15 16
0

0101000
+170 0 -149 0 *
Ve
1e-07
-5.78512851116318 0 -1.24344978758018e-14
0 0

0101101
*
Ed
 1e-07 1 1 0
1  21 0 0 10
2  41 13 13 0 10
2  42 17 22 0 10
4 C0 13 13 17 22
0

0101000
+147 0 -149 0 *
Ed
 1e-07 1 1 0
1  22 0 0 5
2  43 13 13 0 5
2  44 5 17 0 5
4 C0 13 13 5 17
0

0101000
+168 0 -147 0 *
Wi

0101100
-148 19 +167 19 +146 19 +145 19 *
Fa
0  1e-07 13 11

0101000
+144 0 *
Ve
1.00000000055511e-07
-5.78512851116318 10 0.999999999999988
0 0

0101101
*
Ed
 1e-07 1 1 0
1  23 0 0 5
2  45 15 16 0 5
2  46 14 15 0 5
4 C0 15 16 14 15
0

0101000
+163 0 -142 0 *
Ed
 1e-07 1 1 0
1  24 0 0 1
2  47 15 16 0 1
2  48 17 22 0 1
4 C0 15 16 17 22
0

0101000
+149 0 -142 0 *
Wi

0101100
-141 23 +140 23 +148 23 +156 23 *
Fa
0  1e-07 15 0

0101000
+139 0 *
Ve
1e-07
-5.78512851116318 0 0.999999999999988
0 0

0101101
*
Ed
 1e-07 1 1 0
1  25 0 0 5
2  49 5 17 0 5
2  50 14 15 0 5
4 C0 5 17 14 15
0

0101000
+161 0 -137 0 *
Ed
 1e-07 1 1 0
1  26 0 0 1
2  51 5 17 0 1
2  52 17 22 0 1
4 C0 5 17 17 22
0

0101000
+147 0 -137 0 *
Wi

0101100
-152 24 -136 24 +135 24 +145 24 *
Fa
0  1e-07 5 0

0101000
+134 0 *
Ed
 1e-07 1 1 0
1  27 0 0 10
2  53 14 15 0 10
2  54 17 22 0 10
4 C0 14 15 17 22
0

0101000
+137 0 -142 0 *
Wi

0101100
-141 26 +160 26 +132 26 +136 26 *
Fa
0  1e-07 14 11

0101000
+131 0 *
Wi

0101100
-135 27 -132 27 +140 27 +146 27 *
Fa
0  1e-07 17 0

0101000
+129 0 *
Ve
1.00000016627683e-07
10 10.5234190074421 1.0708993160387e-14
0 0

0101101
*
Ed
 1e-07 1 1 0
1  28 0 0 0.523419007442122
2  55 3 0 0 0.523419007442122
2  56 18 0 0 0.523419007442122
4 C0 3 0 18 0
0

0101000
+191 0 -127 0 *
Ve
1.00000015830618e-07
0 10.5234190074421 1.0210599556044e-14
0 0

0101101
*
Ed
 1e-07 1 1 0
1  29 0 0 10
2  57 3 0 0 10
2  58 19 30 0 10
4 G2 3 0 19 30
0

0101000
+127 0 -125 0 *
Ed
 1e-07 1 1 0
1  30 0 0 0.523419007442122
2  59 3 0 0 0.523419007442122
2  60 16 0 0 0.523419007442122
4 C0 3 0 16 0
0

0101000
+125 0 -193 0 *
Wi

0101100
+126 0 +124 0 +123 0 +190 0 *
Fa
0  1e-07 3 0

0101000
+122 0 *
Ve
1.00000005618594e-07
10 10.5234190074421 0.999999999999997
0 0

0101101
*
Ed
 1e-07 1 1 0
1  31 0 0 0.523419007442122
2  61 10 0 0 0.523419007442122
2  62 18 0 0 0.523419007442122
4 C0 10 0 18 0
0

0101000
+175 0 -120 0 *
Ve
1.00000004792443e-07
0 10.5234190074421 0.999999999999997
0 0

0101101
*
Ed
 1e-07 1 1 0
1  32 0 0 10
2  63 10 0 0 10
2  64 20 32 0 10
4 G2 10 0 20 32
0

0101000
+120 0 -118 0 *
Ed
 1e-07 1 1 0
1  33 0 0 0.523419007442122
2  65 10 0 0 0.523419007442122
2  66 16 0 0 0.523419007442122
4 C0 10 0 16 0
0

0101000
+118 0 -177 0 *
Wi

0101100
+119 0 +117 0 +116 0 +174 0 *
Fa
0  1e-07 10 0

0101000
+115 0 *
Ed
 1e-07 1 1 0
1  34 0 0 1
2  67 18 0 0 1
2  68 21 33 0 1
4 C1 18 0 21 33
0

0101000
+127 0 -120 0 *
Ed
 1e-07 1 1 0
1  35 0 0 1
2  69 18 0 0 1
2  70 22 0 0 1
4 C0 18 0 22 0
0

0101000
+175 0 -191 0 *
Wi

0101100
+126 0 +113 0 -119 0 +112 0 *
Fa
0  1e-07 18 0

0101000
+111 0 *
Ed
 1e-07 1 1 0
1  36 0 0 1
2  71 16 0 0 1
2  72 23 34 0 1
4 C1 16 0 23 34
0

0101000
+125 0 -118 0 *
Wi

0101100
-123 0 +109 0 +116 0 +155 0 *
Fa
0  1e-07 16 0

0101000
+108 0 *
Ve
1.0000000236467e-07
10 15.5234190074421 1.99405125923985e-15
0 0

0101101
*
Ed
 1e-07 1 1 0
1  37 0 0 5
2  73 19 30 0 5
2  74 21 33 0 5
4 C0 19 30 21 33
0

0101000
+127 0 -106 0 *
Ve
1.00000002439584e-07
0 15.5234190074421 2.18076750040915e-15
0 0

0101101
*
Ed
 1e-07 1 1 0
1  38 0 0 10
2  75 19 30 0 10
2  76 24 0 0 10
4 G2 19 30 24 0
0

0101000
+104 0 -106 0 *
Ed
 1e-07 1 1 0
1  39 0 0 5
2  77 19 30 0 5
2  78 23 34 0 5
4 C0 19 30 23 34
0

0101000
+125 0 -104 0 *
Wi

0101100
-105 36 +124 36 +103 36 +102 36 *
Fa
0  1e-07 19 28

0101000
+101 0 *
Ve
1.00000002622963e-07
10 15.5234190074421 1
0 0

0101101
*
Ed
 1e-07 1 1 0
1  40 0 0 1
2  79 25 0 0 1
2  80 21 33 0 1
4 C1 21 33 25 0
0

0101000
+99 0 -106 0 *
Ed
 1e-07 1 1 0
1  41 0 0 5
2  81 21 33 0 5
2  82 20 32 0 5
4 C0 21 33 20 32
0

0101000
+120 0 -99 0 *
Wi

0101100
-98 37 +105 37 -113 37 -97 37 *
Fa
0  1e-07 21 0

0101000
+96 0 *
Ve
1.00000002241397e-07
0 15.5234190074421 1
0 0

0101101
*
Ed
 1e-07 1 1 0
1  42 0 0 1
2  83 26 0 0 1
2  84 23 34 0 1
4 C1 23 34 26 0
0

0101000
+94 0 -104 0 *
Ed
 1e-07 1 1 0
1  43 0 0 5
2  85 23 34 0 5
2  86 20 32 0 5
4 C0 23 34 20 32
0

0101000
+118 0 -94 0 *
Wi

0101100
-93 38 +102 38 -109 38 -92 38 *
Fa
0  1e-07 23 0

0101000
+91 0 *
Ed
 1e-07 1 1 0
1  44 0 0 10
2  87 20 32 0 10
2  88 27 0 0 10
4 G2 20 32 27 0
0

0101000
+94 0 -99 0 *
Wi

0101100
-97 40 +117 40 +89 40 +92 40 *
Fa
0  1e-07 20 28

0101000
+88 0 *
Ve
1.00000005241904e-07
10 16.5702570223264 -5.41623728000416e-15
0 0

0101101
*
Ed
 1e-07 1 1 0
1  45 0 0 1.04683801488424
2  89 24 0 0 1.04683801488424
2  90 25 0 0 1.04683801488424
4 C0 24 0 25 0
0

0101000
+106 0 -86 0 *
Ve
1.00000004797814e-07
0 16.5702570223264 -4.97214786501331e-15
0 0

0101101
*
Ed
 1e-07 1 1 0
1  46 0 0 10
2  91 24 0 0 10
2  92 28 43 0 10
4 G2 24 0 28 43
0

0101000
+86 0 -84 0 *
Ed
 1e-07 1 1 0
1  47 0 0 1.04683801488424
2  93 24 0 0 1.04683801488424
2  94 26 0 0 1.04683801488424
4 C0 24 0 26 0
0

0101000
+84 0 -104 0 *
Wi

0101100
+85 0 +83 0 +82 0 +103 0 *
Fa
0  1e-07 24 0

0101000
+81 0 *
Ve
1.00000025566116e-07
10 16.5702570223264 0.999999999999978
0 0

0101101
*
Ed
 1e-07 1 1 0
1  48 0 0 1.04683801488424
2  95 27 0 0 1.04683801488424
2  96 25 0 0 1.04683801488424
4 C0 27 0 25 0
0

0101000
+99 0 -79 0 *
Ve
1.00000025509399e-07
0 16.5702570223264 0.999999999999979
0 0

0101101
*
Ed
 1e-07 1 1 0
1  49 0 0 10
2  97 27 0 0 10
2  98 29 45 0 10
4 G2 27 0 29 45
0

0101000
+79 0 -77 0 *
Ed
 1e-07 1 1 0
1  50 0 0 1.04683801488424
2  99 27 0 0 1.04683801488424
2  100 26 0 0 1.04683801488424
4 C0 27 0 26 0
0

0101000
+77 0 -94 0 *
Wi

0101100
+78 0 +76 0 +75 0 +89 0 *
Fa
0  1e-07 27 0

0101000
+74 0 *
Ed
 1e-07 1 1 0
1  51 0 0 1
2  101 25 0 0 1
2  102 21 46 0 1
4 CN 25 0 21 46
0

0101000
+86 0 -79 0 *
Wi

0101100
+85 0 +72 0 -78 0 +98 0 *
Fa
0  1e-07 25 0

0101000
+71 0 *
Ed
 1e-07 1 1 0
1  52 0 0 1
2  103 26 0 0 1
2  104 23 47 0 1
4 CN 26 0 23 47
0

0101000
+84 0 -77 0 *
Wi

0101100
-82 0 +69 0 +75 0 +93 0 *
Fa
0  1e-07 26 0

0101000
+68 0 *
Ve
1.00000000055511e-07
10 21.5702570223264 1.04916075827077e-14
0 0

0101101
*
Ed
 1e-07 1 1 0
1  53 0 0 5
2  105 28 43 0 5
2  106 21 46 0 5
4 C0 28 43 21 46
0

0101000
+86 0 -66 0 *
Ve
1.00000000055511e-07
0 21.5702570223264 1.04916075827077e-14
0 0

0101101
*
Ed
 1e-07 1 1 0
1  54 0 0 10
2  107 28 43 0 10
2  108 30 53 0 10
4 C0 28 43 30 53
0

0101000
+64 0 -66 0 *
Ed
 1e-07 1 1 0
1  55 0 0 5
2  109 28 43 0 5
2  110 23 47 0 5
4 C0 28 43 23 47
0

0101000
+84 0 -64 0 *
Wi

0101100
-65 49 +83 49 +63 49 +62 49 *
Fa
0  1e-07 28 41

0101000
+61 0 *
Ve
1.00000000055511e-07
10 21.5702570223264 1.00000000000001
0 0

0101101
*
Ed
 1e-07 1 1 0
1  56 0 0 5
2  111 21 46 0 5
2  112 29 45 0 5
4 C0 21 46 29 45
0

0101000
+79 0 -59 0 *
Ed
 1e-07 1 1 0
1  57 0 0 1
2  113 21 46 0 1
2  114 30 53 0 1
4 C0 21 46 30 53
0

0101000
+66 0 -59 0 *
Wi

0101100
-58 54 +57 54 +65 54 -72 54 *
Fa
0  1e-07 21 0

0101000
+56 0 *
Ve
1.00000000055511e-07
0 21.5702570223264 1.00000000000001
0 0

0101101
*
Ed
 1e-07 1 1 0
1  58 0 0 5
2  115 23 47 0 5
2  116 29 45 0 5
4 C0 23 47 29 45
0

0101000
+77 0 -54 0 *
Ed
 1e-07 1 1 0
1  59 0 0 1
2  117 23 47 0 1
2  118 30 53 0 1
4 C0 23 47 30 53
0

0101000
+64 0 -54 0 *
Wi

0101100
-53 55 +52 55 +62 55 -69 55 *
Fa
0  1e-07 23 0

0101000
+51 0 *
Ed
 1e-07 1 1 0
1  60 0 0 10
2  119 29 45 0 10
2  120 30 53 0 10
4 C0 29 45 30 53
0

0101000
+54 0 -59 0 *
Wi

0101100
-58 57 +76 57 +49 57 +53 57 *
Fa
0  1e-07 29 41

0101000
+48 0 *
Wi

0101100
-63 58 -57 58 +49 58 +52 58 *
Fa
0  1e-07 30 0

0101000
+46 0 *
Ve
1.00000002097039e-07
10.2617095037211 10 7.34924967119787e-16
0 0

0101101
*
Ed
 1e-07 1 1 0
1  61 0 0 0.261709503721061
2  121 4 0 0 0.261709503721061
2  122 22 0 0 0.261709503721061
4 C0 4 0 22 0
0

0101000
+191 0 -44 0 *
Ve
1.00000002097039e-07
10.2617095037211 0 7.34924967119787e-16
0 0

0101101
*
Ed
 1e-07 1 1 0
1  62 0 0 10
2  123 4 0 0 10
2  124 31 61 0 10
4 G2 4 0 31 61
0

0101000
+44 0 -42 0 *
Ed
 1e-07 1 1 0
1  63 0 0 0.261709503721061
2  125 4 0 0 0.261709503721061
2  126 6 0 0 0.261709503721061
4 C0 4 0 6 0
0

0101000
+42 0 -189 0 *
Wi

0101100
+43 0 +41 0 +40 0 +188 0 *
Fa
0  1e-07 4 0

0101000
+39 0 *
Ve
1.00000018182811e-07
10.261709503721 10 1.00000000000001
0 0

0101101
*
Ed
 1e-07 1 1 0
1  64 0 0 0.261709503721061
2  127 11 0 0 0.261709503721061
2  128 22 0 0 0.261709503721061
4 C0 11 0 22 0
0

0101000
+175 0 -37 0 *
Ve
1.00000018182811e-07
10.261709503721 0 1.00000000000001
0 0

0101101
*
Ed
 1e-07 1 1 0
1  65 0 0 10
2  129 11 0 0 10
2  130 32 63 0 10
4 G2 11 0 32 63
0

0101000
+37 0 -35 0 *
Ed
 1e-07 1 1 0
1  66 0 0 0.261709503721061
2  131 11 0 0 0.261709503721061
2  132 6 0 0 0.261709503721061
4 C0 11 0 6 0
0

0101000
+35 0 -184 0 *
Wi

0101100
+36 0 +34 0 +33 0 +173 0 *
Fa
0  1e-07 11 0

0101000
+32 0 *
Ed
 1e-07 1 1 0
1  67 0 0 1.00000000000001
2  133 33 64 0 1.00000000000001
2  134 22 0 0 1.00000000000001
4 C1 22 0 33 64
0

0101000
+37 0 -44 0 *
Wi

0101100
+43 0 -30 0 -36 0 +112 0 *
Fa
0  1e-07 22 0

0101000
+29 0 *
Ed
 1e-07 1 1 0
1  68 0 0 1.00000000000001
2  135 5 65 0 1.00000000000001
2  136 6 0 0 1.00000000000001
4 C1 6 0 5 65
0

0101000
+35 0 -42 0 *
Wi

0101100
-40 0 -27 0 +33 0 +183 0 *
Fa
0  1e-07 6 0

0101000
+26 0 *
Ve
1.00000000055511e-07
15.2617095037211 10 4.21884749357559e-15
0 0

0101101
*
Ed
 1e-07 1 1 0
1  69 0 0 5
2  137 31 61 0 5
2  138 33 64 0 5
4 C0 31 61 33 64
0

0101000
+44 0 -24 0 *
Ve
1e-07
15.2617095037211 0 4.21884749357559e-15
0 0

0101101
*
Ed
 1e-07 1 1 0
1  70 0 0 10
2  139 31 61 0 10
2  140 34 70 0 10
4 C0 31 61 34 70
0

0101000
+22 0 -24 0 *
Ed
 1e-07 1 1 0
1  71 0 0 5
2  141 31 61 0 5
2  142 5 65 0 5
4 C0 31 61 5 65
0

0101000
+42 0 -22 0 *
Wi

0101100
-23 67 +41 67 +21 67 +20 67 *
Fa
0  1e-07 31 59

0101000
+19 0 *
Ve
1.00000000055511e-07
15.2617095037211 10 1
0 0

0101101
*
Ed
 1e-07 1 1 0
1  72 0 0 5
2  143 33 64 0 5
2  144 32 63 0 5
4 C0 33 64 32 63
0

0101000
+37 0 -17 0 *
Ed
 1e-07 1 1 0
1  73 0 0 1
2  145 33 64 0 1
2  146 34 70 0 1
4 C0 33 64 34 70
0

0101000
+24 0 -17 0 *
Wi

0101100
-16 71 +15 71 +23 71 +30 71 *
Fa
0  1e-07 33 0

0101000
+14 0 *
Ve
1e-07
15.2617095037211 0 1
0 0

0101101
*
Ed
 1e-07 1 1 0
1  74 0 0 1
2  147 5 65 0 1
2  148 34 70 0 1
4 C0 5 65 34 70
0

0101000
+22 0 -12 0 *
Ed
 1e-07 1 1 0
1  75 0 0 5
2  149 5 65 0 5
2  150 32 63 0 5
4 C0 5 65 32 63
0

0101000
+35 0 -12 0 *
Wi

0101100
-20 72 -11 72 +10 72 -27 72 *
Fa
0  1e-07 5 0

0101000
+9 0 *
Ed
 1e-07 1 1 0
1  76 0 0 10
2  151 32 63 0 10
2  152 34 70 0 10
4 C0 32 63 34 70
0

0101000
+12 0 -17 0 *
Wi

0101100
-16 74 +34 74 +7 74 +10 74 *
Fa
0  1e-07 32 59

0101000
+6 0 *
Wi

0101100
-11 75 -7 75 +15 75 +21 75 *
Fa
0  1e-07 34 0

0101000
+4 0 *
Sh

0101100
-185 4 -178 6 +171 9 -164 0 +157 0 +153 0 -150 0 +143 18 +138 16 -133 17 
-130 25 -128 22 -121 0 +114 0 +110 0 -107 0 +100 35 +95 33 -90 34 -87 39 
-80 0 +73 0 +70 0 -67 0 +60 48 +55 46 -50 47 -47 56 +45 53 +38 0 
-31 0 -28 0 +25 0 -18 66 -13 64 -8 65 +5 73 +3 70 *
So

1100000
+2 0 *

+1 1  