
CASCADE Topology V1, (c) Matra-Datavision
Locations 38
1
              1               0               0               0 
              0               1               0               0 
              0               0               1               0 
1
              1               0               0               0 
              0               1               0               0 
              0               0               1               0 
1
              1               0               0               0 
              0               1               0               0 
              0               0               1               0 
2  2 1 3 1 0
2  3 -1 2 -1 0
1
              1               0               0               0 
              0               1               0               0 
              0               0               1               0 
2  2 1 6 1 0
1
              1               0               0               0 
              0               1               0               0 
              0               0               1               0 
1
              1               0               0               0 
              0               1               0               0 
              0               0               1               0 
2  6 -1 2 -1 0
1
              1               0               0               0 
              0               1               0               0 
              0               0               1               0 
2  2 1 11 1 0
2  8 -1 0
1
              1               0               0               0 
              0               1               0               0 
              0               0               1               0 
2  2 1 14 1 0
2  9 -1 0
2  11 -1 2 -1 0
2  14 -1 2 -1 0
1
0.707106781186548               0 -0.707106781186548 4.34314575050762 
              0               1               0               0 
0.707106781186548               0 0.707106781186548 -6.48528137423857 
1
0.707106781186548               0 0.707106781186547 2.86728434205652 
              0               1               0               0 
-0.707106781186547               0 0.707106781186548 7.65685424949238 
2  19 1 2 1 20 1 0
1
0.707106781186548               0 0.707106781186547 2.86728434205652 
              0               1               0               0 
-0.707106781186547               0 0.707106781186548 7.65685424949238 
2  19 1 2 1 22 1 0
1
0.707106781186548               0 0.707106781186547 2.86728434205652 
              0               1               0               0 
-0.707106781186547               0 0.707106781186548 7.65685424949238 
1
0.707106781186548               0 0.707106781186547 2.86728434205652 
              0               1               0               0 
-0.707106781186547               0 0.707106781186548 7.65685424949238 
2  2 1 20 1 0
2  20 -1 2 -1 0
1
              1               0               0               5 
              0               1               0               0 
              0               0               1              -0 
1
0.707106781186548               0 0.707106781186547 2.86728434205652 
              0               1               0               0 
-0.707106781186547               0 0.707106781186548 7.65685424949238 
2  28 1 19 1 2 1 29 1 0
2  24 -1 0
1
0.707106781186548               0 0.707106781186547 2.86728434205652 
              0               1               0               0 
-0.707106781186547               0 0.707106781186548 7.65685424949238 
2  19 1 2 1 32 1 0
2  25 -1 0
2  2 1 22 1 0
2  22 -1 2 -1 0
2  29 -1 2 -1 19 -1 28 -1 0
2  32 -1 2 -1 19 -1 0
Curve2ds 67
1 0 0 0 1 
1 0 0 0 -1 
1 0 10 1 0 
1 0 0 0 1 
1 10 0 0 1 
1 0.67628285814754818 -5 0 1 
1 0 0 1 0 
1 0 0 0 1 
1 0 0 1 0 
1 0 0 1 0 
1 1 0 0 -1 
1 0 0 0 1 
1 0 -10 1 0 
1 0 0 1 0 
1 0.5 10 -1 0 
1 -0.25 -0.67628285814754818 1 0 
1 0 10 1 0 
1 0 -10 1 0 
1 1 0 0 1 
1 0 10 1 0 
1 0.5 10 -1 0 
1 -0.25 -0.67628285814754818 1 0 
1 0 10 1 0 
1 0 0 1 0 
1 1 0 0 1 
1 0 0 1 0 
1 10 0 0 1 
1 1 0 0 -1 
1 0.5 0 0 -1 
1 0.67628285814754818 -5 0 1 
1 0.67628285814754818 5 -1 0 
1 0.25 -0.67628285814754818 0 1 
1 -0.67628285814754818 5 0 -1 
1 10 -1.7763568394002505e-15 -1 0 
1 -0.67628285814754818 -5 1 0 
8 0 1.3525657162950964
1 0.25 0.67628285814754818 -0 -1 
1 0.67628285814754818 5 -1 0 
8 0 1.3525657162950964
1 -0.25 -0.67628285814754818 -0 1 
1 -0.67628285814754818 5 0 -1 
8 0 10
1 0.50000000000000011 -10 -0 1 
1 -0.67628285814754818 -5 1 0 
1 -0.25 0.67628285814754818 0 -1 
1 0.93933982822018258 11.060660171779825 -0.70710678118655135 0.7071067811865438 
8 0 0.50000000000000422
1 -0.25 0.67628285814754818 1 -0 
1 0.93933982822018258 11.060660171779825 -0.70710678118655135 0.7071067811865438 
8 0 0.50000000000000422
1 -0.25 0.67628285814754818 1 -0 
1 10 0 0 -1 
1 0.58578643762690863 11.414213562373099 0.70710678118654757 0.70710678118654757 
1 0 0 0 -1 
1 0.58578643762690863 11.414213562373099 0.70710678118654757 0.70710678118654757 
1 0 -5 1 0 
1 0 0 0 -1 
1 4.1213203435596482 14.949747468305839 0.70710678118654757 -0.70710678118654757 
1 0 -10 1 0 
1 1.2928932188134565 10.70710678118655 0.70710678118654757 0.70710678118654757 
1 10 0 0 -1 
1 0.58578643762690863 11.414213562373099 0.70710678118654757 -0.70710678118654757 
1 0 -10 1 0 
1 4.1213203435596482 14.949747468305839 0.70710678118654757 -0.70710678118654757 
1 0 0 1 0 
1 1.2928932188134565 10.70710678118655 0.70710678118654757 0.70710678118654757 
1 0 0 0 -1 
1 0.58578643762690863 11.414213562373099 0.70710678118654757 -0.70710678118654757 
1 0 0 1 0 
1 1 0 0 -1 
1 0 0 1 0 
1 0 -5 1 0 
Curves 34
1 0 0 0 0 1 0 
1 0 10 0 1 0 0 
1 10 0 0 0 1 0 
1 0 0 0 1 0 0 
1 0 0 0 0 0 1 
1 0 0 1 0 1 0 
1 0 10 0 0 0 1 
1 10 10 0.5 0 0 -1 
1 10 10 0 0 0 1 
1 0 10 1 1 0 0 
1 10 0 0.5 0 0 -1 
1 10 0 0 0 0 1 
1 0 0 1 1 0 0 
1 10 0 1 0 1 0 
1 10 0 0.5 0 1 0 
1 10 10 0 1 0 0 
1 11.352565716295096 10 0 0 -1 0 
1 11.352565716295096 0 0 -1 0 0 
1 10 10 0.5 1 0 0 
1 11.352565716295096 10 0.5 0 -1 0 
1 11.352565716295096 0 0.5 -1 0 0 
1 11.352565716295102 10.000000000000004 0.5 -4.9404924595819474e-15 -7.1054273576009435e-15 -1 
1 11.352565716295102 0 0.5 -4.9404924595819474e-15 0 -1 
1 11.3525657162951 10.000000000000004 -1.4432899320127019e-15 1 0 3.8857805861880479e-16 
1 11.3525657162951 0 -1.4432899320127019e-15 1 0 3.8857805861880479e-16 
1 16.352565716295103 0 4.9960036108132281e-16 0 1 0 
1 16.352565716295103 10.000000000000004 4.9960036108132281e-16 -3.8857805861880479e-16 0 1 
1 11.3525657162951 10.000000000000004 0.99999999999999911 1 0 3.8857805861880479e-16 
1 11.3525657162951 10.000000000000004 -1.4432899320127019e-15 -3.8857805861880479e-16 0 1 
1 16.352565716295103 0 4.9960036108132281e-16 -3.8857805861880479e-16 0 1 
1 11.3525657162951 0 0.99999999999999911 1 0 3.8857805861880479e-16 
1 11.3525657162951 0 -1.4432899320127019e-15 -3.8857805861880479e-16 0 1 
1 11.3525657162951 0 0.99999999999999911 0 1 0 
1 16.352565716295103 0 1.0000000000000011 0 1 0 
Polygon3D 0
PolygonOnTriangulations 0
Surfaces 12
1 0 0 0 0 0 1 1 0 -0 -0 1 0 
1 0 0 0 1 0 -0 0 0 1 0 -1 0 
1 0 10 0 0 1 0 0 0 1 1 0 0 
1 10.676282858147548 5 0 -0 -0 -1 -1 0 0 0 1 -0 
1 0 0 0 0 1 0 0 0 1 1 0 0 
1 0 0 1 0 0 1 1 0 -0 -0 1 0 
1 10.676282858147548 10 0.25 -0 -1 -0 0 0 -1 1 -0 0 
1 10 0 0 1 0 -0 0 0 1 0 -1 0 
1 10.676282858147548 0 0.25 -0 -1 -0 0 0 -1 1 -0 0 
1 10.676282858147548 5 0.5 -0 -0 -1 -1 0 0 0 1 -0 
1 10 0 0 0 0 1 -0 1 0 -1 -0 0 
1 10 0 1 0 0 1 -0 1 0 -1 -0 0 
Triangulations 0

TShapes 88
Ve
1e-07
0 0 0
0 0

0101101
*
Ve
1e-07
0 10 0
0 0

0101101
*
Ed
 1e-07 1 1 0
1  1 0 0 10
2  1 1 4 0 10
2  2 2 7 0 10
4 C0 1 4 2 7
0

0101000
+88 0 -87 0 *
Ve
1.00000000666134e-07
10 10 0
0 0

0101101
*
Ed
 1e-07 1 1 0
1  2 0 0 10
2  3 1 4 0 10
2  4 3 8 0 10
4 C0 1 4 3 8
0

0101000
+87 0 -85 0 *
Ve
1.00000000666134e-07
10 0 0
0 0

0101101
*
Ed
 1e-07 1 1 0
1  3 0 0 10
2  5 1 4 0 10
2  6 4 0 0 10
4 G2 1 4 4 0
0

0101000
+83 0 -85 0 *
Ed
 1e-07 1 1 0
1  4 0 0 10
2  7 1 4 0 10
2  8 5 9 0 10
4 C0 1 4 5 9
0

0101000
+88 0 -83 0 *
Wi

0101100
-86 5 -84 5 +82 5 +81 5 *
Fa
0  1e-07 1 0

0101000
+80 0 *
Ve
1e-07
0 0 1
0 0

0101101
*
Ed
 1e-07 1 1 0
1  5 0 0 1
2  9 2 7 0 1
2  10 5 9 0 1
4 C0 2 7 5 9
0

0101000
+88 0 -78 0 *
Ve
1e-07
0 10 1
0 0

0101101
*
Ed
 1e-07 1 1 0
1  6 0 0 10
2  11 2 7 0 10
2  12 6 12 0 10
4 C0 2 7 6 12
0

0101000
+78 0 -76 0 *
Ed
 1e-07 1 1 0
1  7 0 0 1
2  13 2 7 0 1
2  14 3 8 0 1
4 C0 2 7 3 8
0

0101000
+87 0 -76 0 *
Wi

0101100
-77 10 -75 10 +74 10 +86 10 *
Fa
0  1e-07 2 0

0101000
+73 0 *
Ve
1.00000003552714e-07
10 10 0.5
0 0

0101101
*
Ed
 1e-07 1 1 0
1  8 0 0 0.5
2  15 3 8 0 0.5
2  16 7 0 0 0.5
4 G2 3 8 7 0
0

0101000
+71 0 -85 0 *
Ve
1e-07
10 10 1
0 0

0101101
*
Ed
 1e-07 1 1 0
1  9 0 0.5 1
2  17 3 8 0.5 1
2  18 8 15 0.5 1
4 C0 3 8 8 15
0

0101000
+71 0 -69 0 *
Ed
 1e-07 1 1 0
1  10 0 0 10
2  19 3 8 0 10
2  20 6 12 0 10
4 C0 3 8 6 12
0

0101000
+76 0 -69 0 *
Wi

0101100
-84 13 +70 13 -68 13 +67 13 +74 13 *
Fa
0  1e-07 3 0

0101000
+66 0 *
Ve
1.00000000444089e-07
10 0 0.5
0 0

0101101
*
Ed
 1e-07 1 1 0
1  11 0 0 0.5
2  21 5 9 0 0.5
2  22 9 0 0 0.5
4 G2 5 9 9 0
0

0101000
+64 0 -83 0 *
Ve
1e-07
10 0 1
0 0

0101101
*
Ed
 1e-07 1 1 0
1  12 0 0.5 1
2  23 5 9 0.5 1
2  24 8 15 0.5 1
4 C0 5 9 8 15
0

0101000
+64 0 -62 0 *
Ed
 1e-07 1 1 0
1  13 0 0 10
2  25 5 9 0 10
2  26 6 12 0 10
4 C0 5 9 6 12
0

0101000
+78 0 -62 0 *
Wi

0101100
-81 16 +63 16 -61 16 +60 16 +77 16 *
Fa
0  1e-07 5 0

0101000
+59 0 *
Ed
 1e-07 1 1 0
1  14 0 0 10
2  27 6 12 0 10
2  28 8 15 0 10
4 C0 6 12 8 15
0

0101000
+62 0 -69 0 *
Wi

0101100
-75 17 -67 17 +57 17 +60 17 *
Fa
0  1e-07 6 0

0101000
+56 0 *
Ed
 1e-07 1 1 0
1  15 0 0 10
2  29 8 15 0 10
2  30 10 0 0 10
4 C0 8 15 10 0
0

0101000
+64 0 -71 0 *
Wi

0101100
-61 18 -57 18 +68 18 +54 18 *
Fa
0  1e-07 8 0

0101000
+53 0 *
Ve
1.0000000479324e-07
11.3525657162951 10 -4.06117813722929e-15
0 0

0101101
*
Ed
 1e-07 1 1 0
1  16 0 0 1.3525657162951
2  31 4 0 0 1.3525657162951
2  32 7 0 0 1.3525657162951
4 C0 4 0 7 0
0

0101000
+85 0 -51 0 *
Ve
1.00000003930037e-07
11.3525657162951 0 -3.48959883011015e-15
0 0

0101101
*
Ed
 1e-07 1 1 0
1  17 0 0 10
2  33 4 0 0 10
2  34 11 21 0 10
4 G2 4 0 11 21
0

0101000
+51 0 -49 0 *
Ed
 1e-07 1 1 0
1  18 0 0 1.3525657162951
2  35 4 0 0 1.3525657162951
2  36 9 0 0 1.3525657162951
4 C0 4 0 9 0
0

0101000
+49 0 -83 0 *
Wi

0101100
+50 0 +48 0 +47 0 +82 0 *
Fa
0  1e-07 4 0

0101000
+46 0 *
Ve
1.00000004361651e-07
11.3525657162951 10 0.499999999999999
0 0

0101101
*
Ed
 1e-07 1 1 0
1  19 0 0 1.3525657162951
2  37 10 0 0 1.3525657162951
2  38 7 0 0 1.3525657162951
4 C0 10 0 7 0
0

0101000
+71 0 -44 0 *
Ve
1.00000002202792e-07
11.3525657162951 0 0.499999999999999
0 0

0101101
*
Ed
 1e-07 1 1 0
1  20 0 0 10
2  39 10 0 0 10
2  40 8 23 0 10
4 C0 10 0 8 23
0

0101000
+44 0 -42 0 *
Ed
 1e-07 1 1 0
1  21 0 0 1.3525657162951
2  41 10 0 0 1.3525657162951
2  42 9 0 0 1.3525657162951
4 C0 10 0 9 0
0

0101000
+42 0 -64 0 *
Wi

0101100
+43 0 +41 0 +40 0 +54 0 *
Fa
0  1e-07 10 0

0101000
+39 0 *
Ed
 1e-07 1 1 0
1  22 0 0 0.500000000000004
2  43 3 24 0 0.500000000000004
2  44 7 0 0 0.500000000000004
4 C1 7 0 3 24
0

0101000
+44 0 -51 0 *
Wi

0101100
+50 0 -37 0 -43 0 +70 0 *
Fa
0  1e-07 7 0

0101000
+36 0 *
Ed
 1e-07 1 1 0
1  23 0 0 0.500000000000004
2  45 5 25 0 0.500000000000004
2  46 9 0 0 0.500000000000004
4 C1 9 0 5 25
0

0101000
+42 0 -49 0 *
Wi

0101100
-47 0 -34 0 +40 0 +63 0 *
Fa
0  1e-07 9 0

0101000
+33 0 *
Ve
1e-07
16.3525657162951 10 4.99600361081323e-16
0 0

0101101
*
Ed
 1e-07 1 1 0
1  24 0 0 5
2  47 11 21 0 5
2  48 3 24 0 5
4 C0 11 21 3 24
0

0101000
+51 0 -31 0 *
Ve
1e-07
16.3525657162951 0 4.99600361081323e-16
0 0

0101101
*
Ed
 1e-07 1 1 0
1  25 0 0 5
2  49 11 21 0 5
2  50 5 25 0 5
4 C0 11 21 5 25
0

0101000
+49 0 -29 0 *
Ed
 1e-07 1 1 0
1  26 0 0 10
2  51 11 21 0 10
2  52 8 30 0 10
4 C0 11 21 8 30
0

0101000
+29 0 -31 0 *
Wi

0101100
-30 27 +28 27 +48 27 +27 27 *
Fa
0  1e-07 11 19

0101000
+26 0 *
Ve
1e-07
16.3525657162951 10 1
0 0

0101101
*
Ed
 1e-07 1 1 0
1  27 0 0 1
2  53 3 24 0 1
2  54 8 30 0 1
4 C0 3 24 8 30
0

0101000
+31 0 -24 0 *
Ve
1e-07
11.3525657162951 10 0.999999999999999
0 0

0101101
*
Ed
 1e-07 1 1 0
1  28 0 0 5
2  55 3 24 0 5
2  56 12 33 0 5
4 C0 3 24 12 33
0

0101000
+22 0 -24 0 *
Ed
 1e-07 1 1 0
1  29 0 0.500000000000001 1
2  57 3 24 0.500000000000001 1
2  58 8 23 0.500000000000001 1
4 C0 3 24 8 23
0

0101000
+44 0 -22 0 *
Wi

0101100
-30 31 -23 31 +21 31 +20 31 -37 31 *
Fa
0  1e-07 3 0

0101000
+19 0 *
Ve
1e-07
16.3525657162951 0 1
0 0

0101101
*
Ed
 1e-07 1 1 0
1  30 0 0 1
2  59 5 25 0 1
2  60 8 30 0 1
4 C0 5 25 8 30
0

0101000
+29 0 -17 0 *
Ve
1e-07
11.3525657162951 0 0.999999999999999
0 0

0101101
*
Ed
 1e-07 1 1 0
1  31 0 0 5
2  61 5 25 0 5
2  62 12 33 0 5
4 C0 5 25 12 33
0

0101000
+15 0 -17 0 *
Ed
 1e-07 1 1 0
1  32 0 0.500000000000001 1
2  63 5 25 0.500000000000001 1
2  64 8 23 0.500000000000001 1
4 C0 5 25 8 23
0

0101000
+42 0 -15 0 *
Wi

0101100
-28 34 -16 34 +14 34 +13 34 -34 34 *
Fa
0  1e-07 5 0

0101000
+12 0 *
Ed
 1e-07 1 1 0
1  33 0 0 10
2  65 8 23 0 10
2  66 12 33 0 10
4 C0 8 23 12 33
0

0101000
+15 0 -22 0 *
Wi

0101100
-13 36 -10 36 +20 36 -41 36 *
Fa
0  1e-07 8 19

0101000
+9 0 *
Ed
 1e-07 1 1 0
1  34 0 0 10
2  65 8 30 0 10
2  67 12 33 0 10
4 C0 8 30 12 33
0

0101000
+17 0 -24 0 *
Wi

0101100
-16 37 -7 37 +23 37 +27 37 *
Fa
0  1e-07 8 0

0101000
+6 0 *
Wi

0101100
-21 38 +14 38 -10 38 +7 38 *
Fa
0  1e-07 12 0

0101000
+4 0 *
Sh

0101100
-79 4 -72 7 +65 8 -58 9 +55 12 +52 15 +45 0 -38 0 -35 0 +32 0 
-25 26 +18 24 -11 25 -8 35 +5 30 +3 33 *
So

1100000
+2 0 *

+1 1  