
CASCADE Topology V1, (c) Matra-Datavision
Locations 32
1
              1               0               0               0 
              0               1               0               0 
              0               0               1               0 
1
              1               0               0               0 
              0               1               0               0 
              0               0               1               0 
1
              1               0               0               0 
              0               1               0               0 
              0               0               1               0 
2  2 1 3 1 0
2  3 -1 2 -1 0
1
              1               0               0               0 
              0               1               0               0 
              0               0               1               0 
2  2 1 6 1 0
1
              1               0               0               0 
              0               1               0               0 
              0               0               1               0 
1
              1               0               0               0 
              0               1               0               0 
              0               0               1               0 
2  6 -1 2 -1 0
1
              1               0               0               0 
              0               1               0               0 
              0               0               1               0 
2  2 1 11 1 0
2  8 -1 0
2  9 -1 0
2  11 -1 2 -1 0
1
0.707106781186548               0 -0.707106781186548 3.98959235991435 
              0               1               0               0 
0.707106781186548               0 0.707106781186548 -6.6317279836453 
1
0.707106781186548               0 0.707106781186547 2.45711839972709 
              0               1               0               0 
-0.707106781186547               0 0.707106781186548 7.51040764008565 
2  16 1 2 1 17 1 0
1
0.707106781186548               0 0.707106781186547 2.45711839972709 
              0               1               0               0 
-0.707106781186547               0 0.707106781186548 7.51040764008565 
2  16 1 2 1 19 1 0
1
0.707106781186548               0 0.707106781186547 2.45711839972709 
              0               1               0               0 
-0.707106781186547               0 0.707106781186548 7.51040764008565 
1
0.707106781186548               0 0.707106781186547 2.45711839972709 
              0               1               0               0 
-0.707106781186547               0 0.707106781186548 7.51040764008565 
2  2 1 17 1 0
2  17 -1 2 -1 0
1
              1               0               0               5 
              0               1               0               0 
              0               0               1              -0 
1
0.707106781186548               0 0.707106781186547 2.45711839972709 
              0               1               0               0 
-0.707106781186547               0 0.707106781186548 7.51040764008565 
2  25 1 16 1 2 1 26 1 0
2  21 -1 0
2  22 -1 0
2  2 1 19 1 0
2  19 -1 2 -1 0
2  26 -1 2 -1 16 -1 25 -1 0
Curve2ds 56
1 0 0 0 1 
1 0 0 0 -1 
1 0 10 1 0 
1 0 0 0 1 
1 10 0 0 1 
1 0.29442319168619413 -5 0 1 
1 0 0 1 0 
1 0 0 0 1 
1 0 0 1 0 
1 0 0 1 0 
1 1 0 0 -1 
1 0 0 0 1 
1 0 -10 1 0 
1 0 0 1 0 
1 1 10 -1 0 
1 -0.5 -0.29442319168619235 1 0 
1 1 0 0 1 
1 0 10 1 0 
1 1 10 -1 0 
1 -0.5 -0.29442319168619235 1 0 
1 1 0 0 1 
1 0 0 1 0 
1 10 0 0 1 
1 0.29442319168619413 -5 0 1 
1 0.29442319168619413 5 -1 0 
1 0.5 -0.29442319168619235 0 1 
1 -0.29442319168619235 5 0 -1 
8 0 10
1 10 -1.7763568394002505e-15 -1 -0 
1 -0.29442319168619235 -5 1 0 
8 0 0.58884638337238648
1 0.5 0.29442319168619413 -0 -1 
1 0.29442319168619413 5 -1 0 
8 0 0.58884638337238648
1 -0.5 -0.29442319168619235 -0 1 
1 -0.29442319168619235 5 0 -1 
8 0 10
1 10 -1.7763568394002505e-15 -1 -0 
1 -0.29442319168619235 -5 1 0 
1 -0.5 0.29442319168619413 0 -1 
1 0.5 0.29442319168619413 -1 0 
8 0 1
1 0.43933982822017903 11.0606601717798 0.70710678118657311 -0.70710678118652204 
1 0.5 0.29442319168619413 -1 0 
8 0 1
1 0.43933982822017903 11.0606601717798 0.70710678118657311 -0.70710678118652204 
1 10 0 0 -1 
1 0.43933982822017903 11.06066017177983 0.70710678118654757 0.70710678118654757 
1 0 0 0 -1 
1 0.43933982822017903 11.06066017177983 0.70710678118654757 0.70710678118654757 
1 0 -5 1 0 
1 0 0 0 -1 
1 3.9748737341529186 14.596194077712568 0.70710678118654757 -0.70710678118654757 
1 0 -10 1 0 
1 1.1464466094067269 10.35355339059328 0.70710678118654757 0.70710678118654757 
1 10 0 0 -1 
1 3.9748737341529186 14.596194077712568 0.70710678118654757 -0.70710678118654757 
1 0 0 1 0 
1 1.1464466094067269 10.35355339059328 0.70710678118654757 0.70710678118654757 
1 0 0 0 -1 
1 0 -5 1 0 
1 1 0 0 -1 
Curves 28
1 0 0 0 0 1 0 
1 0 10 0 1 0 0 
1 10 0 0 0 1 0 
1 0 0 0 1 0 0 
1 0 0 0 0 0 1 
1 0 0 1 0 1 0 
1 0 10 0 0 0 1 
1 10 10 1 0 0 -1 
1 0 10 1 1 0 0 
1 10 0 1 0 0 -1 
1 0 0 1 1 0 0 
1 10 0 1 0 1 0 
1 10 10 0 1 0 0 
1 10.588846383372386 10 0 0 -1 0 
1 10.588846383372386 0 0 -1 0 0 
1 10 10 1 1 0 0 
1 10.588846383372386 10 1 0 -1 0 
1 10.588846383372386 0 1 -1 0 0 
1 10.588846383372386 10 0 0 0 1 
1 10.588846383372386 0 0 0 0 1 
1 10.588846383372392 10.000000000000004 -5.8841820305133281e-15 1 0 3.8857805861880479e-16 
1 10.588846383372392 0 -5.8841820305133281e-15 1 0 3.8857805861880479e-16 
1 15.588846383372394 0 -3.9412917374193041e-15 0 1 0 
1 15.588846383372394 10.000000000000004 -3.9412917374193041e-15 -3.8857805861880479e-16 0 1 
1 10.588846383372392 10.000000000000004 0.99999999999999467 1 0 3.8857805861880479e-16 
1 15.588846383372394 0 -3.9412917374193041e-15 -3.8857805861880479e-16 0 1 
1 10.588846383372392 0 0.99999999999999467 1 0 3.8857805861880479e-16 
1 15.588846383372394 0 0.99999999999999667 0 1 0 
Polygon3D 0
PolygonOnTriangulations 0
Surfaces 12
1 0 0 0 0 0 1 1 0 -0 -0 1 0 
1 0 0 0 1 0 -0 0 0 1 0 -1 0 
1 0 10 0 0 1 0 0 0 1 1 0 0 
1 10.294423191686194 5 0 -0 -0 -1 -1 0 0 0 1 -0 
1 0 0 0 0 1 0 0 0 1 1 0 0 
1 0 0 1 0 0 1 1 0 -0 -0 1 0 
1 10.294423191686192 10 0.5 -0 -1 -0 0 0 -1 1 -0 0 
1 10.294423191686192 0 0.5 -0 -1 -0 0 0 -1 1 -0 0 
1 10.294423191686194 5 1 -0 -0 -1 -1 0 0 0 1 -0 
1 10 0 0 0 0 1 -0 1 0 -1 -0 0 
1 10 0 1 0 0 1 -0 1 0 -1 -0 0 
1 10 0 0 1 0 -0 0 0 1 0 -1 0 
Triangulations 0

TShapes 74
Ve
1e-07
0 0 0
0 0

0101101
*
Ve
1e-07
0 10 0
0 0

0101101
*
Ed
 1e-07 1 1 0
1  1 0 0 10
2  1 1 4 0 10
2  2 2 7 0 10
4 C0 1 4 2 7
0

0101000
+74 0 -73 0 *
Ve
1e-07
10 10 0
0 0

0101101
*
Ed
 1e-07 1 1 0
1  2 0 0 10
2  3 1 4 0 10
2  4 3 8 0 10
4 C0 1 4 3 8
0

0101000
+73 0 -71 0 *
Ve
1e-07
10 0 0
0 0

0101101
*
Ed
 1e-07 1 1 0
1  3 0 0 10
2  5 1 4 0 10
2  6 4 0 0 10
4 G2 1 4 4 0
0

0101000
+69 0 -71 0 *
Ed
 1e-07 1 1 0
1  4 0 0 10
2  7 1 4 0 10
2  8 5 9 0 10
4 C0 1 4 5 9
0

0101000
+74 0 -69 0 *
Wi

0101100
-72 5 -70 5 +68 5 +67 5 *
Fa
0  1e-07 1 0

0101000
+66 0 *
Ve
1e-07
0 0 1
0 0

0101101
*
Ed
 1e-07 1 1 0
1  5 0 0 1
2  9 2 7 0 1
2  10 5 9 0 1
4 C0 2 7 5 9
0

0101000
+74 0 -64 0 *
Ve
1e-07
0 10 1
0 0

0101101
*
Ed
 1e-07 1 1 0
1  6 0 0 10
2  11 2 7 0 10
2  12 6 12 0 10
4 C0 2 7 6 12
0

0101000
+64 0 -62 0 *
Ed
 1e-07 1 1 0
1  7 0 0 1
2  13 2 7 0 1
2  14 3 8 0 1
4 C0 2 7 3 8
0

0101000
+73 0 -62 0 *
Wi

0101100
-63 10 -61 10 +60 10 +72 10 *
Fa
0  1e-07 2 0

0101000
+59 0 *
Ve
1e-07
10 10 1
0 0

0101101
*
Ed
 1e-07 1 1 0
1  8 0 0 1
2  15 3 8 0 1
2  16 7 0 0 1
4 G2 3 8 7 0
0

0101000
+57 0 -71 0 *
Ed
 1e-07 1 1 0
1  9 0 0 10
2  17 3 8 0 10
2  18 6 12 0 10
4 C0 3 8 6 12
0

0101000
+62 0 -57 0 *
Wi

0101100
+56 13 +55 13 +60 13 -70 13 *
Fa
0  1e-07 3 0

0101000
+54 0 *
Ve
1e-07
10 0 1
0 0

0101101
*
Ed
 1e-07 1 1 0
1  10 0 0 1
2  19 5 9 0 1
2  20 8 0 0 1
4 G2 5 9 8 0
0

0101000
+52 0 -69 0 *
Ed
 1e-07 1 1 0
1  11 0 0 10
2  21 5 9 0 10
2  22 6 12 0 10
4 C0 5 9 6 12
0

0101000
+64 0 -52 0 *
Wi

0101100
+51 14 +50 14 +63 14 -67 14 *
Fa
0  1e-07 5 0

0101000
+49 0 *
Ed
 1e-07 1 1 0
1  12 0 0 10
2  23 6 12 0 10
2  24 9 0 0 10
4 G2 6 12 9 0
0

0101000
+52 0 -57 0 *
Wi

0101100
-61 15 -55 15 +47 15 +50 15 *
Fa
0  1e-07 6 0

0101000
+46 0 *
Ve
1.00000010641861e-07
10.5888463833724 10 7.74901216979974e-15
0 0

0101101
*
Ed
 1e-07 1 1 0
1  13 0 0 0.588846383372386
2  25 4 0 0 0.588846383372386
2  26 7 0 0 0.588846383372386
4 C0 4 0 7 0
0

0101000
+71 0 -44 0 *
Ve
1.00000010641861e-07
10.5888463833724 0 7.74901216979974e-15
0 0

0101101
*
Ed
 1e-07 1 1 0
1  14 0 0 10
2  27 4 0 0 10
2  28 10 18 0 10
4 G2 4 0 10 18
0

0101000
+44 0 -42 0 *
Ed
 1e-07 1 1 0
1  15 0 0 0.588846383372386
2  29 4 0 0 0.588846383372386
2  30 8 0 0 0.588846383372386
4 C0 4 0 8 0
0

0101000
+42 0 -69 0 *
Wi

0101100
+43 0 +41 0 +40 0 +68 0 *
Fa
0  1e-07 4 0

0101000
+39 0 *
Ve
1.00000013622585e-07
10.5888463833724 10 0.999999999999992
0 0

0101101
*
Ed
 1e-07 1 1 0
1  16 0 0 0.588846383372386
2  31 9 0 0 0.588846383372386
2  32 7 0 0 0.588846383372386
4 C0 9 0 7 0
0

0101000
+57 0 -37 0 *
Ve
1.00000013622585e-07
10.5888463833724 0 0.999999999999992
0 0

0101101
*
Ed
 1e-07 1 1 0
1  17 0 0 10
2  33 9 0 0 10
2  34 11 20 0 10
4 G2 9 0 11 20
0

0101000
+37 0 -35 0 *
Ed
 1e-07 1 1 0
1  18 0 0 0.588846383372386
2  35 9 0 0 0.588846383372386
2  36 8 0 0 0.588846383372386
4 C0 9 0 8 0
0

0101000
+35 0 -52 0 *
Wi

0101100
+36 0 +34 0 +33 0 +47 0 *
Fa
0  1e-07 9 0

0101000
+32 0 *
Ed
 1e-07 1 1 0
1  19 0 0 1
2  37 7 0 0 1
2  38 3 21 0 1
4 C1 7 0 3 21
0

0101000
+44 0 -37 0 *
Wi

0101100
+43 0 +30 0 -36 0 +56 0 *
Fa
0  1e-07 7 0

0101000
+29 0 *
Ed
 1e-07 1 1 0
1  20 0 0 1
2  39 8 0 0 1
2  40 5 22 0 1
4 C1 8 0 5 22
0

0101000
+42 0 -35 0 *
Wi

0101100
-40 0 +27 0 +33 0 +51 0 *
Fa
0  1e-07 8 0

0101000
+26 0 *
Ve
1e-07
15.5888463833724 10 -3.9412917374193e-15
0 0

0101101
*
Ed
 1e-07 1 1 0
1  21 0 0 5
2  41 10 18 0 5
2  42 3 21 0 5
4 C0 10 18 3 21
0

0101000
+44 0 -24 0 *
Ve
1e-07
15.5888463833724 0 -3.9412917374193e-15
0 0

0101101
*
Ed
 1e-07 1 1 0
1  22 0 0 5
2  43 10 18 0 5
2  44 5 22 0 5
4 C0 10 18 5 22
0

0101000
+42 0 -22 0 *
Ed
 1e-07 1 1 0
1  23 0 0 10
2  45 10 18 0 10
2  46 12 27 0 10
4 C0 10 18 12 27
0

0101000
+22 0 -24 0 *
Wi

0101100
-23 24 +21 24 +41 24 +20 24 *
Fa
0  1e-07 10 16

0101000
+19 0 *
Ve
1e-07
15.5888463833724 10 0.999999999999997
0 0

0101101
*
Ed
 1e-07 1 1 0
1  24 0 0 1
2  47 3 21 0 1
2  48 12 27 0 1
4 C0 3 21 12 27
0

0101000
+24 0 -17 0 *
Ed
 1e-07 1 1 0
1  25 0 0 5
2  49 3 21 0 5
2  50 11 20 0 5
4 C0 3 21 11 20
0

0101000
+37 0 -17 0 *
Wi

0101100
-23 28 -16 28 +15 28 +30 28 *
Fa
0  1e-07 3 0

0101000
+14 0 *
Ve
1e-07
15.5888463833724 0 0.999999999999997
0 0

0101101
*
Ed
 1e-07 1 1 0
1  26 0 0 1
2  51 5 22 0 1
2  52 12 27 0 1
4 C0 5 22 12 27
0

0101000
+22 0 -12 0 *
Ed
 1e-07 1 1 0
1  27 0 0 5
2  53 5 22 0 5
2  54 11 20 0 5
4 C0 5 22 11 20
0

0101000
+35 0 -12 0 *
Wi

0101100
-21 29 -11 29 +10 29 +27 29 *
Fa
0  1e-07 5 0

0101000
+9 0 *
Ed
 1e-07 1 1 0
1  28 0 0 10
2  55 11 20 0 10
2  56 12 27 0 10
4 C0 11 20 12 27
0

0101000
+12 0 -17 0 *
Wi

0101100
-15 31 +10 31 +34 31 +7 31 *
Fa
0  1e-07 11 16

0101000
+6 0 *
Wi

0101100
-11 32 -7 32 +16 32 +20 32 *
Fa
0  1e-07 12 0

0101000
+4 0 *
Sh

0101100
-65 4 -58 7 +53 8 -48 9 +45 12 +38 0 -31 0 -28 0 +25 0 -18 23 
+13 21 -8 22 +5 30 +3 27 *
So

1100000
+2 0 *

+1 1  