<?xml version="1.0" encoding="UTF-8" standalone="no"?>
<svg
   xmlns:dc="http://purl.org/dc/elements/1.1/"
   xmlns:cc="http://creativecommons.org/ns#"
   xmlns:rdf="http://www.w3.org/1999/02/22-rdf-syntax-ns#"
   xmlns:svg="http://www.w3.org/2000/svg"
   xmlns="http://www.w3.org/2000/svg"
   xmlns:xlink="http://www.w3.org/1999/xlink"
   xmlns:sodipodi="http://sodipodi.sourceforge.net/DTD/sodipodi-0.dtd"
   xmlns:inkscape="http://www.inkscape.org/namespaces/inkscape"
   sodipodi:docname="App-UserGuide.svg"
   inkscape:version="1.0 (4035a4fb49, 2020-05-01)"
   version="1.1"
   id="svg2"
   height="64"
   width="64">
  <metadata
     id="metadata35">
    <rdf:RDF>
      <cc:Work
         rdf:about="">
        <dc:format>image/svg+xml</dc:format>
        <dc:type
           rdf:resource="http://purl.org/dc/dcmitype/StillImage" />
        <dc:title />
      </cc:Work>
    </rdf:RDF>
  </metadata>
  <defs
     id="defs33">
    <radialGradient
       xlink:href="#SVGID_3_"
       gradientTransform="matrix(1.0946071,0,0,1.0946071,-0.62636448,-0.20878815)"
       id="SVGID_2_"
       cx="2.8570001"
       cy="4.605"
       r="4.0300002"
       gradientUnits="userSpaceOnUse">
      <stop
         style="stop-color:#ffffff;stop-opacity:1"
         offset="0"
         stop-color="#B5B5B5"
         id="stop15" />
      <stop
         style="stop-color:#424242;stop-opacity:1"
         offset="0.71499997"
         id="stop17" />
    </radialGradient>
    <radialGradient
       gradientTransform="matrix(1.0946071,0,0,1.0946071,-0.62636448,-0.20878815)"
       id="SVGID_3_"
       cx="9.8210001"
       cy="5.224"
       r="5.125"
       gradientUnits="userSpaceOnUse">
      <stop
         style="stop-color:#ffffff;stop-opacity:1"
         offset="0"
         id="stop22" />
      <stop
         style="stop-color:#424242;stop-opacity:1"
         offset="0.71499997"
         id="stop24" />
    </radialGradient>
    <clipPath
       clipPathUnits="userSpaceOnUse"
       id="clipPath4224">
      <path
         d="M 0,16 H 16 V 0 H 0 Z"
         id="path4226"
         inkscape:connector-curvature="0" />
    </clipPath>
    <clipPath
       clipPathUnits="userSpaceOnUse"
       id="clipPath4232">
      <path
         d="M 0,16 H 16 V 0 H 0 Z"
         id="path4234"
         inkscape:connector-curvature="0" />
    </clipPath>
    <clipPath
       clipPathUnits="userSpaceOnUse"
       id="clipPath4171">
      <path
         d="M 0,16 H 16 V 0 H 0 Z"
         id="path4173"
         inkscape:connector-curvature="0" />
    </clipPath>
    <clipPath
       clipPathUnits="userSpaceOnUse"
       id="clipPath4179">
      <path
         d="M 0,16 H 16 V 0 H 0 Z"
         id="path4181"
         inkscape:connector-curvature="0" />
    </clipPath>
    <clipPath
       clipPathUnits="userSpaceOnUse"
       id="clipPath4230">
      <path
         d="M 0,16 H 16 V 0 H 0 Z"
         id="path4232"
         inkscape:connector-curvature="0" />
    </clipPath>
    <clipPath
       clipPathUnits="userSpaceOnUse"
       id="clipPath4238">
      <path
         d="M 0,16 H 16 V 0 H 0 Z"
         id="path4240"
         inkscape:connector-curvature="0" />
    </clipPath>
    <clipPath
       clipPathUnits="userSpaceOnUse"
       id="clipPath4368">
      <path
         d="M 0,16 H 16 V 0 H 0 Z"
         id="path4370"
         inkscape:connector-curvature="0" />
    </clipPath>
    <clipPath
       clipPathUnits="userSpaceOnUse"
       id="clipPath4376">
      <path
         d="M 0,16 H 16 V 0 H 0 Z"
         id="path4378"
         inkscape:connector-curvature="0" />
    </clipPath>
    <radialGradient
       gradientUnits="userSpaceOnUse"
       r="4.0300002"
       cy="4.605"
       cx="2.8570001"
       id="SVGID_2_-0"
       gradientTransform="matrix(1.0946071,0,0,1.0946071,-0.62636448,-0.20878815)"
       xlink:href="#SVGID_3_-6">
      <stop
         id="stop15-0"
         stop-color="#B5B5B5"
         offset="0"
         style="stop-color:#ffffff;stop-opacity:1" />
      <stop
         id="stop17-2"
         offset="0.71499997"
         style="stop-color:#424242;stop-opacity:1" />
    </radialGradient>
    <radialGradient
       gradientUnits="userSpaceOnUse"
       r="5.125"
       cy="5.224"
       cx="9.8210001"
       id="SVGID_3_-6"
       gradientTransform="matrix(1.0946071,0,0,1.0946071,-0.62636448,-0.20878815)">
      <stop
         id="stop22-2"
         offset="0"
         style="stop-color:#ffffff;stop-opacity:1" />
      <stop
         id="stop24-9"
         offset="0.71499997"
         style="stop-color:#424242;stop-opacity:1" />
    </radialGradient>
    <clipPath
       id="clipPath4224-7"
       clipPathUnits="userSpaceOnUse">
      <path
         inkscape:connector-curvature="0"
         id="path4226-7"
         d="M 0,16 16,16 16,0 0,0 0,16 Z" />
    </clipPath>
    <clipPath
       id="clipPath4232-8"
       clipPathUnits="userSpaceOnUse">
      <path
         inkscape:connector-curvature="0"
         id="path4234-0"
         d="M 0,16 16,16 16,0 0,0 0,16 Z" />
    </clipPath>
    <clipPath
       id="clipPath4171-7"
       clipPathUnits="userSpaceOnUse">
      <path
         inkscape:connector-curvature="0"
         id="path4173-7"
         d="M 0,16 16,16 16,0 0,0 0,16 Z" />
    </clipPath>
    <clipPath
       id="clipPath4179-7"
       clipPathUnits="userSpaceOnUse">
      <path
         inkscape:connector-curvature="0"
         id="path4181-2"
         d="M 0,16 16,16 16,0 0,0 0,16 Z" />
    </clipPath>
    <clipPath
       id="clipPath4230-1"
       clipPathUnits="userSpaceOnUse">
      <path
         inkscape:connector-curvature="0"
         id="path4232-9"
         d="M 0,16 16,16 16,0 0,0 0,16 Z" />
    </clipPath>
    <clipPath
       id="clipPath4238-6"
       clipPathUnits="userSpaceOnUse">
      <path
         inkscape:connector-curvature="0"
         id="path4240-0"
         d="M 0,16 16,16 16,0 0,0 0,16 Z" />
    </clipPath>
    <clipPath
       id="clipPath4368-0"
       clipPathUnits="userSpaceOnUse">
      <path
         inkscape:connector-curvature="0"
         id="path4370-8"
         d="M 0,16 16,16 16,0 0,0 0,16 Z" />
    </clipPath>
    <clipPath
       id="clipPath4376-1"
       clipPathUnits="userSpaceOnUse">
      <path
         inkscape:connector-curvature="0"
         id="path4378-5"
         d="M 0,16 16,16 16,0 0,0 0,16 Z" />
    </clipPath>
    <clipPath
       id="clipPath4430"
       clipPathUnits="userSpaceOnUse">
      <path
         inkscape:connector-curvature="0"
         id="path4432"
         d="M 0,16 16,16 16,0 0,0 0,16 Z" />
    </clipPath>
    <clipPath
       id="clipPath4438"
       clipPathUnits="userSpaceOnUse">
      <path
         inkscape:connector-curvature="0"
         id="path4440"
         d="M 0,16 16,16 16,0 0,0 0,16 Z" />
    </clipPath>
    <clipPath
       id="clipPath4452"
       clipPathUnits="userSpaceOnUse">
      <path
         inkscape:connector-curvature="0"
         id="path4454"
         d="M 0,16 16,16 16,0 0,0 0,16 Z" />
    </clipPath>
    <clipPath
       id="clipPath4464"
       clipPathUnits="userSpaceOnUse">
      <path
         inkscape:connector-curvature="0"
         id="path4466"
         d="M 0,16 16,16 16,0 0,0 0,16 Z" />
    </clipPath>
    <clipPath
       id="clipPath4480"
       clipPathUnits="userSpaceOnUse">
      <path
         inkscape:connector-curvature="0"
         id="path4482"
         d="M 0,16 16,16 16,0 0,0 0,16 Z" />
    </clipPath>
    <clipPath
       id="clipPath4534"
       clipPathUnits="userSpaceOnUse">
      <path
         inkscape:connector-curvature="0"
         id="path4536"
         d="M 0,16 16,16 16,0 0,0 0,16 Z" />
    </clipPath>
    <clipPath
       id="clipPath4542"
       clipPathUnits="userSpaceOnUse">
      <path
         inkscape:connector-curvature="0"
         id="path4544"
         d="M 0,16 16,16 16,0 0,0 0,16 Z" />
    </clipPath>
    <clipPath
       id="clipPath4556"
       clipPathUnits="userSpaceOnUse">
      <path
         inkscape:connector-curvature="0"
         id="path4558"
         d="M 0,16 16,16 16,0 0,0 0,16 Z" />
    </clipPath>
    <clipPath
       id="clipPath4568"
       clipPathUnits="userSpaceOnUse">
      <path
         inkscape:connector-curvature="0"
         id="path4570"
         d="M 0,16 16,16 16,0 0,0 0,16 Z" />
    </clipPath>
    <clipPath
       id="clipPath4561"
       clipPathUnits="userSpaceOnUse">
      <path
         inkscape:connector-curvature="0"
         id="path4559"
         d="M 0,256 H 256 V 0 H 0 Z" />
    </clipPath>
    <clipPath
       id="clipPath4573"
       clipPathUnits="userSpaceOnUse">
      <path
         inkscape:connector-curvature="0"
         id="path4571"
         d="M 0,256 H 256 V 0 H 0 Z" />
    </clipPath>
    <clipPath
       id="clipPath4589"
       clipPathUnits="userSpaceOnUse">
      <path
         inkscape:connector-curvature="0"
         id="path4587"
         d="M 0,256 H 256 V 0 H 0 Z" />
    </clipPath>
    <radialGradient
       gradientUnits="userSpaceOnUse"
       r="4.0300002"
       cy="4.605"
       cx="2.8570001"
       id="SVGID_2_-3"
       gradientTransform="matrix(1.0946071,0,0,1.0946071,-0.62636448,-0.20878815)"
       xlink:href="#SVGID_3_-5">
      <stop
         id="stop15-03"
         stop-color="#B5B5B5"
         offset="0"
         style="stop-color:#ffffff;stop-opacity:1" />
      <stop
         id="stop17-6"
         offset="0.71499997"
         style="stop-color:#424242;stop-opacity:1" />
    </radialGradient>
    <radialGradient
       gradientUnits="userSpaceOnUse"
       r="5.125"
       cy="5.224"
       cx="9.8210001"
       id="SVGID_3_-5"
       gradientTransform="matrix(1.0946071,0,0,1.0946071,-0.62636448,-0.20878815)">
      <stop
         id="stop22-20"
         offset="0"
         style="stop-color:#ffffff;stop-opacity:1" />
      <stop
         id="stop24-7"
         offset="0.71499997"
         style="stop-color:#424242;stop-opacity:1" />
    </radialGradient>
    <clipPath
       id="clipPath4224-79"
       clipPathUnits="userSpaceOnUse">
      <path
         inkscape:connector-curvature="0"
         id="path4226-6"
         d="M 0,16 H 16 V 0 H 0 Z" />
    </clipPath>
    <clipPath
       id="clipPath4232-9"
       clipPathUnits="userSpaceOnUse">
      <path
         inkscape:connector-curvature="0"
         id="path4234-6"
         d="M 0,16 H 16 V 0 H 0 Z" />
    </clipPath>
    <clipPath
       id="clipPath4171-4"
       clipPathUnits="userSpaceOnUse">
      <path
         inkscape:connector-curvature="0"
         id="path4173-9"
         d="M 0,16 H 16 V 0 H 0 Z" />
    </clipPath>
    <clipPath
       id="clipPath4179-9"
       clipPathUnits="userSpaceOnUse">
      <path
         inkscape:connector-curvature="0"
         id="path4181-0"
         d="M 0,16 H 16 V 0 H 0 Z" />
    </clipPath>
    <clipPath
       id="clipPath4230-2"
       clipPathUnits="userSpaceOnUse">
      <path
         inkscape:connector-curvature="0"
         id="path4232-3"
         d="M 0,16 H 16 V 0 H 0 Z" />
    </clipPath>
    <clipPath
       id="clipPath4238-2"
       clipPathUnits="userSpaceOnUse">
      <path
         inkscape:connector-curvature="0"
         id="path4240-1"
         d="M 0,16 H 16 V 0 H 0 Z" />
    </clipPath>
    <clipPath
       id="clipPath4368-6"
       clipPathUnits="userSpaceOnUse">
      <path
         inkscape:connector-curvature="0"
         id="path4370-0"
         d="M 0,16 H 16 V 0 H 0 Z" />
    </clipPath>
    <clipPath
       id="clipPath4376-6"
       clipPathUnits="userSpaceOnUse">
      <path
         inkscape:connector-curvature="0"
         id="path4378-0"
         d="M 0,16 H 16 V 0 H 0 Z" />
    </clipPath>
  </defs>
  <sodipodi:namedview
     inkscape:snap-global="true"
     inkscape:window-maximized="1"
     inkscape:window-y="-8"
     inkscape:window-x="-8"
     inkscape:object-paths="false"
     inkscape:document-rotation="0"
     inkscape:current-layer="g904"
     inkscape:cy="27.001934"
     inkscape:cx="-19.397892"
     inkscape:zoom="4"
     showgrid="false"
     id="namedview31"
     inkscape:window-height="1017"
     inkscape:window-width="1920"
     inkscape:pageshadow="2"
     inkscape:pageopacity="0"
     guidetolerance="10"
     gridtolerance="10"
     objecttolerance="10"
     borderopacity="1"
     bordercolor="#666666"
     pagecolor="#ffffff"
     inkscape:snap-bbox="true"
     inkscape:snap-grids="false"
     inkscape:snap-to-guides="false"
     inkscape:snap-intersection-paths="true"
     inkscape:snap-smooth-nodes="true" />
  <style
     id="style4"
     type="text/css">.icon_x002D_canvas_x002D_transparent{opacity:0;fill:#F6F6F6;} .icon_x002D_vs_x002D_out{fill:#F6F6F6;} .icon_x002D_vs_x002D_bg{fill:#424242;} .icon_x002D_vs_x002D_fg{fill:#F0EFF1;} .icon_x002D_3d_x002D_gradient{fill:url(#SVGID_1_);} .st0{fill:url(#SVGID_2_);} .st1{fill:url(#SVGID_3_);}</style>
  <radialGradient
     gradientUnits="userSpaceOnUse"
     r="1"
     cy="0"
     cx="0"
     id="SVGID_1_">
    <stop
       id="stop7"
       stop-color="#B5B5B5"
       offset="0" />
    <stop
       id="stop9"
       stop-color="#424242"
       offset=".715" />
  </radialGradient>
  <g
     style="stroke-width:0.681009"
     transform="matrix(1.4678005,0,0,1.4690269,-60.609541,-42.173533)"
     id="g904">
    <path
       style="fill:#e0e3eb;fill-opacity:1;fill-rule:evenodd;stroke:#000000;stroke-width:0.681007;stroke-linecap:butt;stroke-linejoin:miter;stroke-miterlimit:4;stroke-dasharray:none;stroke-opacity:1"
       d="m 75.225277,32.277578 h 3.879307 V 65.684087 H 51.082765 c -2.208678,0 -3.999165,-1.4612 -3.999165,-3.263682 l 1e-6,-30.107738 z"
       id="path950"
       sodipodi:nodetypes="csccc" />
    <path
       id="path938"
       style="fill:#64739b;fill-opacity:1;fill-rule:evenodd;stroke:#000000;stroke-width:0.681007;stroke-linecap:butt;stroke-linejoin:miter;stroke-miterlimit:4;stroke-dasharray:none;stroke-opacity:1"
       d="m 51.082765,59.156722 c -2.208678,0 -3.999165,1.4612 -3.999164,3.263683 V 32.312667 c -1e-6,-1.802482 1.790486,-3.263682 3.999164,-3.263682 h 24.19463 v 30.037523 z"
       sodipodi:nodetypes="ccccccc" />
    <g
       style="font-style:normal;font-variant:normal;font-weight:bold;font-stretch:normal;font-size:10.8976px;line-height:11.332px;font-family:'Segoe UI';-inkscape-font-specification:'Segoe UI Bold';text-align:center;letter-spacing:0px;word-spacing:0px;text-anchor:middle;opacity:0.987;fill:#ffffff;fill-opacity:1;stroke:none;stroke-width:0.681005px;stroke-linecap:butt;stroke-linejoin:miter;stroke-opacity:1"
       id="text960"
       transform="scale(0.78442743,1.2748152)"
       aria-label="DON'T
PANIC">
      <path
         id="path935"
         style="font-style:normal;font-variant:normal;font-weight:bold;font-stretch:normal;font-family:'Segoe UI';-inkscape-font-specification:'Segoe UI Bold';text-align:center;text-anchor:middle;fill:#ffffff;fill-opacity:1;stroke:none;stroke-width:0.681005px"
         d="m 61.760109,32.413761 v -7.630448 h 2.703115 q 4.065316,0 4.065316,3.719444 0,1.782567 -1.112109,2.846785 -1.106787,1.064219 -2.953207,1.064219 z m 1.718713,-6.231001 v 4.836875 h 0.851375 q 1.11743,0 1.75064,-0.670458 0.638531,-0.670458 0.638531,-1.825135 0,-1.090825 -0.63321,-1.713393 -0.627889,-0.627889 -1.766603,-0.627889 z" />
      <path
         id="path937"
         style="font-style:normal;font-variant:normal;font-weight:bold;font-stretch:normal;font-family:'Segoe UI';-inkscape-font-specification:'Segoe UI Bold';text-align:center;text-anchor:middle;fill:#ffffff;fill-opacity:1;stroke:none;stroke-width:0.681005px"
         d="m 73.030185,32.546788 q -1.638896,0 -2.671189,-1.064218 -1.032292,-1.06954 -1.032292,-2.782932 0,-1.809172 1.048256,-2.926602 1.048255,-1.11743 2.777611,-1.11743 1.633575,0 2.639262,1.06954 1.011008,1.06954 1.011008,2.82018 0,1.79853 -1.048255,2.899996 -1.042935,1.101466 -2.724401,1.101466 z m 0.0745,-6.411918 q -0.904586,0 -1.436696,0.6811 -0.532109,0.675779 -0.532109,1.793209 0,1.133393 0.532109,1.793209 0.53211,0.659815 1.394127,0.659815 0.888623,0 1.41009,-0.638531 0.521467,-0.643852 0.521467,-1.782566 0,-1.186604 -0.505504,-1.84642 -0.505504,-0.659816 -1.383484,-0.659816 z" />
      <path
         id="path939"
         style="font-style:normal;font-variant:normal;font-weight:bold;font-stretch:normal;font-family:'Segoe UI';-inkscape-font-specification:'Segoe UI Bold';text-align:center;text-anchor:middle;fill:#ffffff;fill-opacity:1;stroke:none;stroke-width:0.681005px"
         d="M 84.928153,32.413761 H 83.193476 L 80.04871,27.619456 q -0.276697,-0.420367 -0.383119,-0.633211 h -0.02129 q 0.04257,0.404404 0.04257,1.234494 v 4.193022 h -1.622933 v -7.630448 h 1.85174 l 3.027703,4.645314 q 0.207522,0.313945 0.383118,0.622568 h 0.02128 q -0.04257,-0.266054 -0.04257,-1.048255 v -4.219627 h 1.622934 z" />
      <path
         id="path941"
         style="font-style:normal;font-variant:normal;font-weight:bold;font-stretch:normal;font-family:'Segoe UI';-inkscape-font-specification:'Segoe UI Bold';text-align:center;text-anchor:middle;fill:#ffffff;fill-opacity:1;stroke:none;stroke-width:0.681005px"
         d="m 88.019707,24.687533 v 2.351923 h -1.277063 v -2.351923 z" />
      <path
         id="path943"
         style="font-style:normal;font-variant:normal;font-weight:bold;font-stretch:normal;font-family:'Segoe UI';-inkscape-font-specification:'Segoe UI Bold';text-align:center;text-anchor:middle;fill:#ffffff;fill-opacity:1;stroke:none;stroke-width:0.681005px"
         d="m 95.235109,26.18276 h -2.176327 v 6.231001 H 91.334747 V 26.18276 h -2.165685 v -1.399447 h 6.066047 z" />
      <path
         id="path945"
         style="font-style:normal;font-variant:normal;font-weight:bold;font-stretch:normal;font-family:'Segoe UI';-inkscape-font-specification:'Segoe UI Bold';text-align:center;text-anchor:middle;fill:#ffffff;fill-opacity:1;stroke:none;stroke-width:0.681005px"
         d="m 64.425977,41.11714 v 2.628621 h -1.718714 v -7.630449 h 2.692474 q 2.884033,0 2.884033,2.43174 0,1.149356 -0.830091,1.862383 -0.82477,0.707705 -2.208254,0.707705 z m 0,-3.682197 v 2.378529 h 0.675778 q 1.372843,0 1.372843,-1.202567 0,-1.175962 -1.372843,-1.175962 z" />
      <path
         id="path947"
         style="font-style:normal;font-variant:normal;font-weight:bold;font-stretch:normal;font-family:'Segoe UI';-inkscape-font-specification:'Segoe UI Bold';text-align:center;text-anchor:middle;fill:#ffffff;fill-opacity:1;stroke:none;stroke-width:0.681005px"
         d="m 75.48321,43.745761 h -1.873025 l -0.542752,-1.697429 h -2.713758 l -0.53743,1.697429 h -1.862383 l 2.777611,-7.630449 h 2.037979 z M 72.673672,40.7287 71.854224,38.163933 q -0.09046,-0.287339 -0.127706,-0.686421 h -0.04257 q -0.02661,0.335229 -0.133028,0.665137 l -0.83009,2.586051 z" />
      <path
         id="path949"
         style="font-style:normal;font-variant:normal;font-weight:bold;font-stretch:normal;font-family:'Segoe UI';-inkscape-font-specification:'Segoe UI Bold';text-align:center;text-anchor:middle;fill:#ffffff;fill-opacity:1;stroke:none;stroke-width:0.681005px"
         d="M 83.299896,43.745761 H 81.56522 l -3.144767,-4.794306 q -0.276696,-0.420366 -0.383118,-0.63321 h -0.02128 q 0.04257,0.404403 0.04257,1.234494 v 4.193022 h -1.622934 v -7.630449 h 1.851741 l 3.027702,4.645315 q 0.207523,0.313944 0.383119,0.622568 h 0.02129 q -0.04257,-0.266055 -0.04257,-1.048256 v -4.219627 h 1.622933 z" />
      <path
         id="path951"
         style="font-style:normal;font-variant:normal;font-weight:bold;font-stretch:normal;font-family:'Segoe UI';-inkscape-font-specification:'Segoe UI Bold';text-align:center;text-anchor:middle;fill:#ffffff;fill-opacity:1;stroke:none;stroke-width:0.681005px"
         d="m 86.774571,43.745761 h -1.718713 v -7.630449 h 1.718713 z" />
      <path
         id="path953"
         style="font-style:normal;font-variant:normal;font-weight:bold;font-stretch:normal;font-family:'Segoe UI';-inkscape-font-specification:'Segoe UI Bold';text-align:center;text-anchor:middle;fill:#ffffff;fill-opacity:1;stroke:none;stroke-width:0.681005px"
         d="m 93.974011,43.474385 q -0.835412,0.404403 -2.181648,0.404403 -1.755961,0 -2.761648,-1.032292 -1.005687,-1.032293 -1.005687,-2.751006 0,-1.830456 1.128072,-2.96917 1.133393,-1.138714 2.937244,-1.138714 1.117429,0 1.883667,0.282018 v 1.65486 q -0.766238,-0.457614 -1.745319,-0.457614 -1.074861,0 -1.734676,0.675779 -0.659816,0.675779 -0.659816,1.830456 0,1.106788 0.622568,1.766603 0.622568,0.654495 1.676145,0.654495 1.005686,0 1.841098,-0.489541 z" />
    </g>
    <path
       style="fill:none;fill-rule:evenodd;stroke:#666666;stroke-width:0.681007;stroke-linecap:butt;stroke-linejoin:miter;stroke-miterlimit:4;stroke-dasharray:none;stroke-opacity:1;fill-opacity:1"
       d="M 50.405037,62.404257 H 77.316192 V 34.834987"
       id="path966" />
    <path
       id="rect955"
       style="opacity:0.99;fill:#64739b;fill-opacity:1;stroke:#000000;stroke-width:0.681008;stroke-miterlimit:4;stroke-dasharray:none;stroke-opacity:1"
       d="m 55.259098,63.085119 h 4.769325 v 8.420403 l -2.38466,-2.615429 -2.384665,2.615429 z"
       sodipodi:nodetypes="cccccc" />
  </g>
  <style
     type="text/css"
     id="style4-9">.icon_x002D_canvas_x002D_transparent{opacity:0;fill:#F6F6F6;} .icon_x002D_vs_x002D_out{fill:#F6F6F6;} .icon_x002D_vs_x002D_bg{fill:#424242;} .icon_x002D_vs_x002D_fg{fill:#F0EFF1;} .icon_x002D_3d_x002D_gradient{fill:url(#SVGID_1_);} .st0{fill:url(#SVGID_2_);} .st1{fill:url(#SVGID_3_);}</style>
  <style
     id="style4616"
     type="text/css">.icon-canvas-transparent{opacity:0;fill:#F6F6F6;} .icon-vs-out{fill:#F6F6F6;} .icon-vs-bg{fill:#424242;} .icon-vs-fg{fill:#F0EFF1;} .icon-vs-action-blue{fill:#00539C;}</style>
  <style
     id="style4639"
     type="text/css">.icon-canvas-transparent{opacity:0;fill:#F6F6F6;} .icon-vs-out{fill:#F6F6F6;} .icon-vs-bg{fill:#424242;} .icon-vs-fg{fill:#F0EFF1;}</style>
  <style
     type="text/css"
     id="style4-99">.icon_x002D_canvas_x002D_transparent{opacity:0;fill:#F6F6F6;} .icon_x002D_vs_x002D_out{fill:#F6F6F6;} .icon_x002D_vs_x002D_bg{fill:#424242;} .icon_x002D_vs_x002D_fg{fill:#F0EFF1;} .icon_x002D_3d_x002D_gradient{fill:url(#SVGID_1_);} .st0{fill:url(#SVGID_2_);} .st1{fill:url(#SVGID_3_);}</style>
</svg>
