
CASCADE Topology V1, (c) Matra-Datavision
Locations 6
1
              1               0               0               0 
              0               1               0               0 
              0               0               1               0 
1
              1               0               0            -100 
              0               1               0            -130 
              0               0               1               0 
1
0.977209209045565 0.212278500457631               0 -13.1620004742625 
-0.212278500457631 0.977209209045565               0 -64.8969188893402 
              0               0               1               0 
2  2 -1 0
2  3 -1 0
2  2 -1 3 -1 0
Curve2ds 68
1 0 0 0 1 
1 0 0 1 0 
1 0 0 1 0 
1 0 60 1 0 
1 50 0 0 1 
1 0 0 1 0 
8 -5 55
1 0 -68.58275922243331 1 0 
8 -5 55
1 0 11.168736901178042 1 -0 
8 6.4931915611921616 18.773059463501777
1 40 -6.5810002371312635 0 1 
8 6.4931915611921616 18.773059463501777
1 -7.3452065896939329 64.814871639195871 0.97720920904556541 0.21227850045763116 
8 -5 55
1 0 -66.410465935666565 1 0 
8 -5 55
1 0 0.93551364925336622 1 -0 
8 6.4931915611921616 18.773059463501777
1 30 -6.5810002371312635 0 1 
8 6.4931915611921616 18.773059463501777
1 -7.3452065896939329 64.814871639195871 0.97720920904556541 0.21227850045763116 
8 6.4931915611921616 18.773059463501777
1 20 -6.5810002371312635 0 1 
8 6.4931915611921616 18.773059463501777
1 -7.3452065896939329 64.814871639195871 0.97720920904556541 0.21227850045763116 
8 6.4931915611921616 18.773059463501777
1 10 -6.5810002371312635 0 1 
8 6.4931915611921616 18.773059463501777
1 -7.3452065896939329 64.814871639195871 0.97720920904556541 0.21227850045763116 
8 12.872820164370591 59.883467374759142
1 0.15760893641792961 9.00623401049981 0.99931406257890854 -0.037032476720271962 
8 12.872820164370591 59.883467374759142
1 -0.018400812261701614 0.17600974867963923 -0.00068570232722313081 0.99999976490613174 
1 0 0 0 -1 
1 60 0 0 1 
1 0 0 0 -1 
1 10 0 0 1 
1 -3.3899083838068726 -67.0197038939165 0.21227850045763116 0.97720920904556541 
1 50 0 0 -1 
1 60 0 0 1 
8 0.075376379975374358 50.109696792685341
1 -0.075324676495683057 -6.7858095249781911 0.99931406257890854 -0.037032476720271962 
8 0.075376379975374358 50.109696792685341
1 -0.13483940745761383 60.059514730961936 0.99999976490613174 -0.00068570232722313081 
8 13.203765751008413 59.814850090994589
1 0.22617915301981384 10.856587748434507 0.99931406257890854 -0.037032476720271962 
8 13.203765751008413 59.814850090994589
1 50.015860786655161 0.21031836636466528 -0.00068570232722313081 0.99999976490613174 
1 10 0 0 1 
8 68.58275922243331 79.192175818871604
1 -3.3899083838068691 -67.0197038939165 0.21227850045763116 0.97720920904556541 
8 68.58275922243331 79.192175818871604
1 50 0 0 -1 
8 41.515478669356611 51.522552239209908
1 -1.4861331632692636 -77.255301755795188 0.99929314301489669 -0.037592742962031078 
8 41.515478669356611 51.522552239209908
1 -1.514372499274439 13.037970561320321 0.99997335523718811 0.0072999188817777453 
8 -79.839304799550447 -67.559436897240843
1 40 0 0 1 
8 -79.839304799550447 -67.559436897240843
1 10 -3.1086244689504383e-15 0 -1 
8 8.3539447977761068 18.512415897487816
1 -8.2236241219539128 75.558826318552903 0.98440010330725725 0.17594441340565881 
8 8.3539447977761068 18.512415897487816
1 40.01269400666343 -5.1713813573875562 -0.00068570232722313081 0.99999976490613174 
8 -77.028656235620872 -66.410465935666565
1 0 0 0 -1 
8 -77.028656235620872 -66.410465935666565
1 40 0 0 1 
8 31.44121460362118 41.448288173474474
1 -1.4189901614584723 -75.470501392099251 0.99929314301489669 -0.037592742962031078 
8 31.44121460362118 41.448288173474474
1 -1.4402181063930255 2.8799923349724237 0.99997335523718811 0.0072999188817777453 
8 -76.652462891107234 -66.410465935666565
1 30 0 0 1 
8 -76.652462891107234 -66.410465935666565
1 0 0 0 -1 
8 8.2877556804485408 18.446226780160277
1 -8.1584675480188587 75.194278579461312 0.98440010330725725 0.17594441340565881 
8 8.2877556804485408 18.446226780160277
1 30.005841686880057 -5.1782430809245756 -0.00068570232722313081 0.99999976490613174 
8 -79.839304799550447 -67.559436897240843
1 30 0 0 1 
8 -79.839304799550447 -67.559436897240843
1 10 -3.1086244689504383e-15 0 -1 
8 21.501331529650024 31.508405099503317
1 -1.4861331632692636 -77.255301755795188 0.99929314301489669 -0.037592742962031078 
8 21.501331529650024 31.508405099503317
1 -1.514372499274439 13.037970561320321 0.99997335523718811 0.0072999188817777453 
8 -79.839304799550447 -67.559436897240843
1 20 0 0 1 
8 -79.839304799550447 -67.559436897240843
1 10 -3.1086244689504383e-15 0 -1 
8 8.2215665631209589 18.380037662832699
1 -8.0933109740837743 74.829730840369706 0.98440010330725725 0.17594441340565881 
8 8.2215665631209589 18.380037662832699
1 19.998989367096684 -5.1851048044615675 -0.00068570232722313081 0.99999976490613174 
8 -77.667011512783716 -65.387143610474098
1 20 0 0 1 
8 -77.667011512783716 -65.387143610474098
1 0 0 0 -1 
8 11.427067463914588 21.434141033767883
1 -1.4189901614584723 -75.470501392099251 0.99929314301489669 -0.037592742962031078 
8 11.427067463914588 21.434141033767883
1 -1.4402181063930255 2.8799923349724237 0.99997335523718811 0.0072999188817777453 
8 -77.667011512783716 -65.387143610474098
1 10 0 0 1 
8 -77.667011512783716 -65.387143610474098
1 0 0 0 -1 
8 8.1553774457934214 18.313848545505145
1 -8.0281544001487237 74.465183101278114 0.98440010330725725 0.17594441340565881 
8 8.1553774457934214 18.313848545505145
1 9.9921370473133138 -5.1919665279985878 -0.00068570232722313081 0.99999976490613174 
8 -79.839304799550447 -67.559436897240843
1 10 0 0 1 
8 -79.839304799550447 -67.559436897240843
1 10 -3.1086244689504383e-15 0 -1 
8 1.4871843899434309 11.494257959796727
1 -1.4861331632692636 -77.255301755795188 0.99929314301489669 -0.037592742962031078 
8 1.4871843899434309 11.494257959796727
1 -1.514372499274439 13.037970561320321 0.99997335523718811 0.0072999188817777453 
Curves 33
1 0 0 0 1 0 -0 
1 60 0 0 0 0 1 
1 0 0 50 1 0 -0 
1 11.168736901178042 0 0 -0 -0 1 
1 -6.5810002371312635 0 40 1 0 -0 
1 0.93551364925336622 7.1054273576010019e-15 0 -0 -0 1 
1 -6.5810002371312635 0 30 1 0 -0 
1 -6.5810002371312635 0 20 1 0 -0 
1 -6.5810002371312635 0 10 1 0 -0 
1 -99.84239106358207 -120.99376598950019 0 0.99931406257890854 -0.037032476720271962 0 
1 60 0 0 -0 1 0 
1 10 0 0 -0 1 0 
1 60 0 50 -0 1 0 
1 -40 -123.21419047502181 -0.075324676495683057 -0 0.037032476720271962 0.99931406257890854 
1 -99.773820846980186 -119.14341225156549 50 0.99931406257890854 -0.037032476720271962 0 
1 10 0 50 -0 1 0 
1 -86.990268774684864 -121.52511157055942 -1.4861331632692636 0.0079801311040691245 0.036735974615779633 0.99929314301489669 
1 -3.3899083838068726 -67.0197038939165 40 -0.21227850045763116 -0.97720920904556541 0 
1 -105.15868735072414 -119.31443938924028 40 0.99931406257890854 -0.037032476720271962 0 
1 -13.162000474262527 -64.896918889340185 40 -0.21227850045763116 -0.97720920904556541 0 
1 -97.141235609962138 -121.14644991769464 -1.4189901614584723 0.0079801311040691245 0.036735974615779633 0.99929314301489669 
1 -13.162000474262527 -64.896918889340185 30 -0.21227850045763116 -0.97720920904556541 0 
1 -105.17240139404453 -119.68451013682721 30 0.99931406257890854 -0.037032476720271962 0 
1 -3.3899083838068726 -67.0197038939165 30 -0.21227850045763116 -0.97720920904556541 0 
1 -86.990268774684864 -121.52511157055942 -1.4861331632692636 0.0079801311040691245 0.036735974615779633 0.99929314301489669 
1 -3.3899083838068726 -67.0197038939165 20 -0.21227850045763116 -0.97720920904556541 0 
1 -105.18611543736489 -120.05458088441416 20 0.99931406257890854 -0.037032476720271962 0 
1 -13.162000474262527 -64.896918889340185 20 -0.21227850045763116 -0.97720920904556541 0 
1 -97.141235609962138 -121.14644991769464 -1.4189901614584723 0.0079801311040691245 0.036735974615779633 0.99929314301489669 
1 -13.162000474262527 -64.896918889340185 10 -0.21227850045763116 -0.97720920904556541 0 
1 -105.19982948068528 -120.42465163200109 10 0.99931406257890854 -0.037032476720271962 0 
1 -3.3899083838068726 -67.0197038939165 10 -0.21227850045763116 -0.97720920904556541 0 
1 -86.990268774684864 -121.52511157055942 -1.4861331632692636 0.0079801311040691245 0.036735974615779633 0.99929314301489669 
Polygon3D 0
PolygonOnTriangulations 0
Surfaces 13
1 0 0 0 -0 1 0 0 0 1 1 0 -0 
1 0 0 0 0 0 1 1 0 -0 -0 1 0 
1 60 0 0 1 0 -0 0 0 1 0 -1 0 
1 0 0 50 0 0 1 1 0 -0 -0 1 0 
1 10 0 0 1 0 -0 0 0 1 0 -1 0 
1 -13.162000474262527 -64.896918889340185 40 0 0 1 0.97720920904556541 -0.21227850045763116 0 0.21227850045763116 0.97720920904556541 -0 
1 0 0 0 1 0 -0 0 0 1 0 -1 0 
1 -13.162000474262527 -64.896918889340185 30 0 0 1 0.97720920904556541 -0.21227850045763116 0 0.21227850045763116 0.97720920904556541 -0 
1 -13.162000474262527 -64.896918889340185 20 0 0 1 0.97720920904556541 -0.21227850045763116 0 0.21227850045763116 0.97720920904556541 -0 
1 -13.162000474262527 -64.896918889340185 10 0 0 1 0.97720920904556541 -0.21227850045763116 0 0.21227850045763116 0.97720920904556541 -0 
1 -100.01826759580315 -120.98657141657195 0.01826759580314441 0.037007109559267913 0.99862953475457394 -0.037007109559267913 0.0006852326227130836 0.037007109559267913 0.99931476737728697 0.99931476737728697 -0.037007109559267913 0.0006852326227130836 
1 0 0 0 0 0 1 1 0 -0 -0 1 0 
1 0 0 50 0 0 1 1 0 -0 -0 1 0 
Triangulations 0

TShapes 92
Ve
2.39013110850356e-07
11.168736901178 7.105427357601e-15 0
0 0

0101101
*
Ve
1e-07
60 0 0
0 0

0101101
*
Ed
 1e-07 1 1 0
1  1 0 11.168736901178 60
2  1 1 0 11.168736901178 60
2  2 2 0 11.168736901178 60
0

0101000
+92 0 -91 0 *
Ve
1e-07
60 0 50
0 0

0101101
*
Ed
 1e-07 1 1 0
1  2 0 0 50
2  3 3 0 0 50
2  4 1 0 0 50
0

0101000
-89 0 +91 0 *
Ve
2.39013110850356e-07
11.168736901178 7.105427357601e-15 50
0 0

0101101
*
Ed
 1e-07 1 1 0
1  3 0 11.168736901178 60
2  5 1 0 11.168736901178 60
2  6 4 0 11.168736901178 60
0

0101000
+87 0 -89 0 *
Ve
2.39013110850356e-07
11.168736901178 0 40
0 0

0101101
*
Ed
 1.5e-07 1 1 0
1  4 0 40 50
2  7 5 3 40 50
2  8 1 0 40 50
0

0101000
+85 0 -87 0 *
Ve
2.12133034355964e-07
0.935513649253366 7.105427357601e-15 40
0 0

0101101
*
Ed
 1.5e-07 1 1 0
1  5 0 7.51651388638463 17.7497371383093
2  9 1 0 7.51651388638463 17.7497371383093
2  10 6 0 7.51651388638463 17.7497371383093
0

0101000
+83 0 -85 0 *
Ve
2.12133034355964e-07
0.935513649253366 7.105427357601e-15 30
0 0

0101101
*
Ed
 1.5e-07 1 1 0
1  6 0 30 40
2  11 7 3 30 40
2  12 1 0 30 40
0

0101000
+81 0 -83 0 *
Ve
2.39013110850356e-07
11.168736901178 0 30
0 0

0101101
*
Ed
 1.5e-07 1 1 0
1  7 0 7.51651388638463 17.7497371383093
2  13 1 0 7.51651388638463 17.7497371383093
2  14 8 0 7.51651388638463 17.7497371383093
0

0101000
+81 0 -79 0 *
Ve
2.39013110850356e-07
11.168736901178 0 20
0 0

0101101
*
Ed
 1.5e-07 1 1 0
1  4 0 20 30
2  7 5 3 20 30
2  8 1 0 20 30
0

0101000
+77 0 -79 0 *
Ve
2.12133034355964e-07
0.935513649253366 7.105427357601e-15 20
0 0

0101101
*
Ed
 1.5e-07 1 1 0
1  8 0 7.51651388638463 17.7497371383093
2  15 1 0 7.51651388638463 17.7497371383093
2  16 9 0 7.51651388638463 17.7497371383093
0

0101000
+75 0 -77 0 *
Ve
2.12133034355964e-07
0.935513649253366 7.105427357601e-15 10
0 0

0101101
*
Ed
 1.5e-07 1 1 0
1  6 0 10 20
2  11 7 3 10 20
2  12 1 0 10 20
0

0101000
+73 0 -75 0 *
Ve
2.39013110850356e-07
11.168736901178 0 10
0 0

0101101
*
Ed
 1.5e-07 1 1 0
1  9 0 7.51651388638463 17.7497371383093
2  17 1 0 7.51651388638463 17.7497371383093
2  18 10 0 7.51651388638463 17.7497371383093
0

0101000
+73 0 -71 0 *
Ed
 1.5e-07 1 1 0
1  4 0 0 10
2  7 5 3 0 10
2  8 1 0 0 10
0

0101000
+92 0 -71 0 *
Wi

0101100
-90 0 -88 0 +86 0 +84 0 +82 0 +80 0 -78 0 +76 0 +74 0 +72 0 
-70 0 +69 0 *
Fa
0  1e-07 1 0

0101000
+68 0 *
Ve
2.39013110850356e-07
-86.9784008482772 -121.470478402561 0
0 0

0101101
*
Ve
1e-07
-40 -123.211399100985 0
0 0

0101101
*
Ed
 1e-07 1 1 0
1  10 4 12.8728201643706 59.8834673747591
2  19 2 0 12.8728201643706 59.8834673747591
2  20 11 4 12.8728201643706 59.8834673747591
0

0101000
+66 4 -65 4 *
Ed
 1e-07 1 1 0
1  11 0 0 6.78860089901488
2  21 3 0 0 6.78860089901488
2  22 2 0 0 6.78860089901488
0

0101000
-65 4 +91 0 *
Ed
 1e-07 1 1 0
1  12 0 68.5827592224333 77.3112090963034
2  23 5 0 68.5827592224333 77.3112090963034
2  24 12 0 68.5827592224333 77.3112090963034
2  25 2 5 68.5827592224333 77.3112090963034
0

0101000
+92 5 -66 6 *
Wi

0101100
-64 0 +63 0 +90 0 -62 3 *
Fa
0  1e-07 2 0

0101000
+61 0 *
Ve
1e-07
-40 -121.358504295087 50
0 0

0101101
*
Ed
 1e-07 1 1 0
1  13 0 0 8.6414957049132
2  26 3 0 0 8.6414957049132
2  27 4 0 0 8.6414957049132
0

0101000
-59 4 +89 0 *
Ed
 1e-07 1 1 0
1  14 4 0.0753763799753744 50.1096967926853
2  28 3 0 0.0753763799753744 50.1096967926853
2  29 11 4 0.0753763799753744 50.1096967926853
0

0101000
-59 4 +65 4 *
Wi

0101100
-88 0 -58 0 +57 0 +63 0 *
Fa
0  1e-07 3 0

0101000
+56 0 *
Ve
2.39013110850356e-07
-86.5791120529997 -119.63238039936 50
0 0

0101101
*
Ed
 1e-07 1 1 0
1  15 4 13.2037657510084 59.8148500909946
2  30 4 0 13.2037657510084 59.8148500909946
2  31 11 4 13.2037657510084 59.8148500909946
0

0101000
+54 4 -59 4 *
Ed
 1e-07 1 1 0
1  16 0 68.5827592224333 79.1921758188716
2  32 13 0 68.5827592224333 79.1921758188716
2  33 4 5 68.5827592224333 79.1921758188716
2  34 5 0 68.5827592224333 79.1921758188716
0

0101000
+87 5 -54 6 *
Wi

0101100
-53 0 +58 0 +86 0 -52 3 *
Fa
0  1e-07 4 0

0101000
+51 0 *
Ve
2.39013110850356e-07
-86.6589698120552 -120 40
0 0

0101101
*
Ed
 1.5e-07 1 1 0
1  17 4 41.5154786693566 51.5225522392099
2  35 5 3 41.5154786693566 51.5225522392099
2  36 11 4 41.5154786693566 51.5225522392099
0

0101000
+49 4 -54 4 *
Ed
 1.5e-07 1 1 0
1  18 0 -78.815982474358 -68.5827592224333
2  37 5 3 -78.815982474358 -68.5827592224333
2  38 6 0 -78.815982474358 -68.5827592224333
0

0101000
+49 4 -85 0 *
Wi

0101100
-52 3 +48 0 -47 0 -84 0 *
Fa
0  1e-07 5 3

0101000
+46 0 *
Ve
2.12133034355964e-07
-96.8104728362986 -119.623806655486 40
0 0

0101101
*
Ed
 1.5e-07 1 1 0
1  19 4 8.35394479777611 18.5124158974878
2  39 6 0 8.35394479777611 18.5124158974878
2  40 11 4 8.35394479777611 18.5124158974878
0

0101000
+44 4 -49 4 *
Ed
 1.5e-07 1 1 0
1  20 0 -77.0286562356209 -66.4104659356666
2  41 6 0 -77.0286562356209 -66.4104659356666
2  42 7 3 -77.0286562356209 -66.4104659356666
0

0101000
+44 4 -83 0 *
Wi

0101100
-43 0 -47 0 +82 0 +42 0 *
Fa
0  1e-07 6 0

0101000
+41 0 *
Ve
2.12133034355964e-07
-96.8903305953541 -119.991426256127 30
0 0

0101101
*
Ed
 1.5e-07 1 1 0
1  21 4 31.4412146036212 41.4482881734745
2  43 7 3 31.4412146036212 41.4482881734745
2  44 11 4 31.4412146036212 41.4482881734745
0

0101000
+39 4 -44 4 *
Ed
 1.5e-07 1 1 0
1  22 0 -76.6524628911072 -66.4104659356666
2  45 7 3 -76.6524628911072 -66.4104659356666
2  46 8 0 -76.6524628911072 -66.4104659356666
0

0101000
+39 4 -81 0 *
Wi

0101100
+42 0 +38 0 -37 0 -80 0 *
Fa
0  1e-07 7 3

0101000
+36 0 *
Ve
2.39013110850356e-07
-86.7388275711107 -120.36761960064 30
0 0

0101101
*
Ed
 1.5e-07 1 1 0
1  23 4 8.28775568044854 18.4462267801603
2  47 8 0 8.28775568044854 18.4462267801603
2  48 11 4 8.28775568044854 18.4462267801603
0

0101000
+39 4 -34 4 *
Ed
 1.5e-07 1 1 0
1  24 0 -78.4397891298444 -68.5827592224333
2  49 5 3 -78.4397891298444 -68.5827592224333
2  50 8 0 -78.4397891298444 -68.5827592224333
0

0101000
+34 4 -79 0 *
Wi

0101100
-33 0 -32 0 +78 0 +37 0 *
Fa
0  1e-07 8 0

0101000
+31 0 *
Ve
2.39013110850356e-07
-86.8186853301662 -120.735239201281 20
0 0

0101101
*
Ed
 1.5e-07 1 1 0
1  25 4 21.50133152965 31.5084050995033
2  51 5 3 21.50133152965 31.5084050995033
2  52 11 4 21.50133152965 31.5084050995033
0

0101000
+29 4 -34 4 *
Ed
 1.5e-07 1 1 0
1  26 0 -78.0635957853307 -68.5827592224333
2  53 5 3 -78.0635957853307 -68.5827592224333
2  54 9 0 -78.0635957853307 -68.5827592224333
0

0101000
+29 4 -77 0 *
Wi

0101100
+32 0 +28 0 -27 0 -76 0 *
Fa
0  1e-07 5 3

0101000
+26 0 *
Ve
2.12133034355964e-07
-96.9701883544096 -120.359045856767 20
0 0

0101101
*
Ed
 1.5e-07 1 1 0
1  27 4 8.22156656312096 18.3800376628327
2  55 9 0 8.22156656312096 18.3800376628327
2  56 11 4 8.22156656312096 18.3800376628327
0

0101000
+24 4 -29 4 *
Ed
 1.5e-07 1 1 0
1  28 0 -76.2762695465936 -66.4104659356666
2  57 7 3 -76.2762695465936 -66.4104659356666
2  58 9 0 -76.2762695465936 -66.4104659356666
0

0101000
+24 4 -75 0 *
Wi

0101100
-23 0 -27 0 +74 0 +22 0 *
Fa
0  1e-07 9 0

0101000
+21 0 *
Ve
2.12133034355964e-07
-97.0500461134651 -120.726665457407 10
0 0

0101101
*
Ed
 1.5e-07 1 1 0
1  29 4 11.4270674639146 21.4341410337679
2  59 7 3 11.4270674639146 21.4341410337679
2  60 11 4 11.4270674639146 21.4341410337679
0

0101000
+19 4 -24 4 *
Ed
 1.5e-07 1 1 0
1  30 0 -75.90007620208 -66.4104659356666
2  61 7 3 -75.90007620208 -66.4104659356666
2  62 10 0 -75.90007620208 -66.4104659356666
0

0101000
+19 4 -73 0 *
Wi

0101100
+22 0 +18 0 -17 0 -72 0 *
Fa
0  1e-07 7 3

0101000
+16 0 *
Ve
2.39013110850356e-07
-86.8985430892217 -121.102858801921 10
0 0

0101101
*
Ed
 1.5e-07 1 1 0
1  31 4 8.15537744579342 18.3138485455051
2  63 10 0 8.15537744579342 18.3138485455051
2  64 11 4 8.15537744579342 18.3138485455051
0

0101000
+19 4 -14 4 *
Ed
 1.5e-07 1 1 0
1  32 0 -77.6874024408171 -68.5827592224333
2  65 5 3 -77.6874024408171 -68.5827592224333
2  66 10 0 -77.6874024408171 -68.5827592224333
0

0101000
+14 4 -71 0 *
Wi

0101100
-13 0 -12 0 +70 0 +17 0 *
Fa
0  1e-07 10 0

0101000
+11 0 *
Ed
 1.5e-07 1 1 0
1  33 4 1.48718438994343 11.4942579597967
2  67 5 3 1.48718438994343 11.4942579597967
2  68 11 4 1.48718438994343 11.4942579597967
0

0101000
+66 4 -14 4 *
Wi

0101100
+12 0 +9 0 +62 3 -69 0 *
Fa
0  1e-07 5 3

0101000
+8 0 *
Wi

0101100
-64 0 -57 0 +53 0 +48 0 +43 0 +38 0 -33 0 +28 0 +23 0 +18 0 
-13 0 +9 0 *
Fa
0  1e-07 11 4

0101000
+6 0 *
Sh

0101100
-67 0 -60 0 +55 0 +50 0 -45 0 +40 0 -35 0 -30 0 -25 0 +20 0 
-15 0 -10 0 -7 0 +5 0 *
So

0100000
+4 0 *
Co

0100000
+3 0 *
Co

1100000
+2 2 *

+1 1  