
CASCADE Topology V1, (c) Matra-Datavision
Locations 3
1
              1               0               0               0 
              0               1               0               0 
              0               0               1               0 
1
              1               0               0               5 
              0               1               0               0 
              0               0               1               0 
2  2 -1 0
Curve2ds 51
1 0 0 1 0 
1 0 0 1 0 
1 3.1415926535897931 0 0 1 
1 0 0 0 -1 
1 0 0 0 1 
1 0 -10 1 0 
1 0 0 1 0 
8 -10 0
1 1 0 0 1 
8 -10 0
1 1 0 0 1 
8 0 9.7415298026315451
1 1 0 1 4.6865204053262986e-17 
8 0 9.7415298026315451
1 3.1415926535897931 1.0823922002923938 0 1 
8 -4.5653878199127005e-16 10
1 10.741529802631545 0 0 -1 
8 -4.5653878199127005e-16 10
1 3.7279220613578561 0 0 1 
8 0.96193976625564326 10.703469568887188
1 0.03806023374435661 -10 1 0 
8 0.96193976625564326 10.703469568887188
1 0.11128353844771975 -0.36811841147918178 0.92387953251128674 0.38268343236508978 
8 0.99999999999999944 10.741529802631543
1 6.2831853071795862 0.082392200292393789 0 1 
8 0.99999999999999944 10.741529802631543
1 0 0 1 0 
8 3.1415926535897936 6.2831853071795862
1 0 10.82392200292394 1 0 
8 3.1415926535897936 6.2831853071795862
2 0 0 1 0 -0 1 1.2720779386421446
8 4.7123889803846897 7.8539816339744828
1 -1.5707963267948966 1.082392200292394 1 0 
8 4.7123889803846897 7.8539816339744828
1 -1.5707963267948966 1 1 0 
1 0 0 1 0 
1 0 10 1 0 
8 0 10
1 6.2831853071795862 -0 0 1 
8 0 10
1 0 0 0 1 
1 0 0 1 0 
2 0 0 1 0 -0 1 5
1 10 0 0 1 
1 0 10 1 0 
8 0 10
1 6.2720779386421439 0 0 1 
8 0 10
1 10.741529802631545 0 0 -1 
1 0 10 1 0 
2 0 0 1 0 -0 1 5
8 0 3.1415926535897936
2 5 0 1 0 -0 1 5
1 0 0 0 1 
1 0 10 1 0 
1 0 -10 1 0 
1 0 10 1 0 
8 -0.95147739556980859 8.7900524070617418
1 1.8790504914140884 9.6358853644455493 0.92387953251128674 -0.38268343236508978 
8 -0.95147739556980859 8.7900524070617418
1 1.9514773955698059 -10 1 0 
1 0 0 0 -1 
1 10 0 0 1 
2 5 0 1 0 -0 1 5
8 -10 0
1 0.99999999999999933 0 0 1 
8 -10 0
1 0.99999999999999944 0 -0 1 
1 0 0 0 1 
1 0 0 1 0 
1 -5 0 1 0 
1 10 0 0 1 
1 0 0 1 0 
1 -5 0 1 0 
Curves 22
1 0 0 0 0 0 1 
1 0 0 0 -0 1 0 
1 0 10 0 0 0 1 
1 -2.7755575615628914e-17 0 1 0 -1 0 
1 0 0 1 0.38268343236508978 -4.6865204053262986e-17 0.92387953251128674 
1 3.7279220613578561 0 10 -0 1 -0 
1 -0.36811841147918178 10 0.11128353844771975 0.38268343236508978 0 0.92387953251128674 
1 10.38268343236509 0 0.076120467488713039 -0.38268343236508978 0 0.92387953251128674 
2 5 0 10 0 0 1 1 0 -0 -0 1 0 1.2720779386421446
2 5 0 1 0 0 1 0 -1 0 1 0 -0 5
1 10 0 0 0 0 1 
2 0 0 0 0 0 1 1 0 -0 -0 1 0 5
1 0 10 10 1 0 -0 
1 6.2720779386421439 0 10 -0 1 -0 
2 0 0 10 0 0 1 1 0 -0 -0 1 0 5
1 0 10 0 1 0 -0 
1 10 10 0 0 0 1 
1 9.6358853644455493 10 1.8790504914140884 -0.38268343236508978 -0 0.92387953251128674 
1 10 0 0 -0 1 0 
1 10 0 0.99999999999999933 0 -1 -0 
1 0 0 0 1 0 -0 
1 0 0 10 1 0 -0 
Polygon3D 0
PolygonOnTriangulations 0
Surfaces 12
1 0 0 0 1 0 -0 0 0 1 0 -1 0 
1 0 0 0 -0 1 0 0 0 1 1 0 -0 
2 0 0 0 0 0 1 1 0 -0 -0 1 0 5
1 0 0 0 0 0 1 1 0 -0 -0 1 0 
1 0 10 0 -0 1 0 0 0 1 1 0 -0 
1 -0.38268343236508978 0 0.076120467488713262 0.92387953251128674 0 -0.38268343236508978 0.38268343236508978 0 0.92387953251128674 0 -1 0 
3 5 0 0 0 0 1 1 0 0 0 1 0 5.4142135623730949
-0.39269908169872414
1 0 0 10 0 0 1 1 0 -0 -0 1 0 
1 10.38268343236509 0 0.076120467488713039 0.92387953251128674 0 0.38268343236508978 -0.38268343236508978 0 0.92387953251128674 0 -1 0 
1 0 0 10 0 0 1 1 0 -0 -0 1 0 
1 10 0 0 1 0 -0 0 0 1 0 -1 0 
1 0 0 0 0 0 1 1 0 -0 -0 1 0 
Triangulations 0

TShapes 64
Ve
1.00000000612323e-07
0 0 0
0 0

0101101
*
Ve
1.5e-07
0 0 1
0 0

0101101
*
Ed
 1.00000000612323e-07 1 1 0
1  1 0 0 1
2  1 1 0 0 1
2  2 2 0 0 1
2  3 3 2 0 1
4 G1 1 0 3 2
0

0101000
+64 0 -63 0 *
Ve
1e-07
0 10 0
0 0

0101101
*
Ed
 1e-07 1 1 0
1  2 0 0 10
2  4 1 0 0 10
2  5 4 0 0 10
4 C0 1 0 4 0
0

0101000
-61 0 +64 0 *
Ve
1.5e-07
0 10 1
0 0

0101101
*
Ed
 1e-07 1 1 0
1  3 0 0 1
2  6 1 0 0 1
2  7 5 0 0 1
4 C0 1 0 5 0
0

0101000
+61 0 -59 0 *
Ed
 1.5e-07 1 1 0
1  4 0 -10 0
2  8 1 0 -10 0
2  9 6 0 -10 0
0

0101000
+59 0 -63 0 *
Wi

0101000
-62 0 +60 0 +58 0 +57 0 *
Fa
0  1e-07 1 0

0101000
+56 0 *
Ve
1.00000000612323e-07
3.72792206135786 -4.5653878199127e-16 10
0 0

0101101
*
Ed
 1.00000000612323e-07 1 1 0
1  5 0 0 9.74152980263155
2  10 6 0 0 9.74152980263155
2  11 7 0 0 9.74152980263155
4 G1 6 0 7 0
0

0101000
+63 0 -54 0 *
Ve
1e-07
3.72792206135786 10 10
0 0

0101101
*
Ed
 1e-07 1 1 0
1  6 0 -4.5653878199127e-16 10
2  12 6 0 -4.5653878199127e-16 10
2  13 8 0 -4.5653878199127e-16 10
0

0101000
-52 0 +54 0 *
Ed
 1e-07 1 1 0
1  7 0 0.961939766255643 10.7034695688872
2  14 6 0 0.961939766255643 10.7034695688872
2  15 5 0 0.961939766255643 10.7034695688872
0

0101000
+59 0 -52 0 *
Wi

0101000
-53 0 -51 0 +50 0 -57 0 *
Fa
0  1e-07 6 0

0101000
+49 0 *
Ve
1.5e-07
10 0 0.999999999999999
0 0

0101101
*
Ve
1.00000001224647e-07
6.27207793864214 0 10
0 0

0101101
*
Ed
 1.00000001224647e-07 1 1 0
1  8 0 0.999999999999999 10.7415298026315
2  16 7 0 0.999999999999999 10.7415298026315
2  17 9 0 0.999999999999999 10.7415298026315
4 G1 7 0 9 0
0

0101000
+47 0 -46 0 *
Ed
 1e-07 1 1 0
1  9 3 3.14159265358979 6.28318530717959
2  18 7 3 3.14159265358979 6.28318530717959
2  19 10 0 3.14159265358979 6.28318530717959
0

0101000
+54 3 -46 3 *
Ed
 1e-07 1 1 0
1  10 0 4.71238898038469 7.85398163397448
2  20 7 0 4.71238898038469 7.85398163397448
2  21 3 2 4.71238898038469 7.85398163397448
0

0101000
+63 0 -47 0 *
Wi

0101000
+45 0 -44 2 -53 0 +43 0 *
Fa
0  1e-07 7 0

0101000
+42 0 *
Ve
1.00000001224647e-07
10 -6.12323399573677e-16 0
0 0

0101101
*
Ed
 1.00000001224647e-07 1 1 0
1  11 0 0 0.999999999999999
2  22 11 0 0 0.999999999999999
2  23 2 0 0 0.999999999999999
3  24 25C0 3 2 0 0.999999999999999
4 G1 3 2 11 0
0

0101000
+40 0 -47 0 *
Ed
 1e-07 1 1 0
1  12 0 3.14159265358979 6.28318530717959
2  26 3 0 3.14159265358979 6.28318530717959
2  27 12 0 3.14159265358979 6.28318530717959
4 C0 3 0 12 0
0

0101000
+64 3 -40 3 *
Wi

0101000
+39 0 +38 2 -62 0 -43 0 *
Fa
0  1e-07 3 2

0101000
+37 0 *
Ve
1e-07
6.27207793864214 10 10
0 0

0101101
*
Ed
 1e-07 1 1 0
1  13 0 3.72792206135786 6.27207793864214
2  28 5 0 3.72792206135786 6.27207793864214
2  29 8 0 3.72792206135786 6.27207793864214
4 C0 8 0 5 0
0

0101000
-35 0 +52 0 *
Ed
 1e-07 1 1 0
1  14 0 0 10
2  30 8 0 0 10
2  31 9 0 0 10
0

0101000
+46 0 -35 0 *
Ed
 1e-07 1 1 0
1  15 0 0 3.14159265358979
2  32 3 0 0 3.14159265358979
2  33 10 0 0 3.14159265358979
4 CN 8 3 8 3
2  34 8 3 0 3.14159265358979
0

0101000
+46 3 -54 3 *
Wi

0101100
-34 0 +33 0 -32 2 -51 0 *
Fa
0  1e-07 8 0

0101000
+31 0 *
Ve
1e-07
10 10 0
0 0

0101101
*
Ed
 1e-07 1 1 0
1  16 0 0 10
2  35 5 0 0 10
2  36 4 0 0 10
4 C0 5 0 4 0
0

0101000
-29 0 +61 0 *
Ve
1.5e-07
10 10 0.999999999999997
0 0

0101101
*
Ed
 1e-07 1 1 0
1  17 0 0 0.999999999999997
2  37 11 0 0 0.999999999999997
2  38 5 0 0 0.999999999999997
4 C0 5 0 11 0
0

0101000
+29 0 -27 0 *
Ed
 1e-07 1 1 0
1  18 0 -0.951477395569809 8.79005240706174
2  39 5 0 -0.951477395569809 8.79005240706174
2  40 9 0 -0.951477395569809 8.79005240706174
0

0101000
+27 0 -35 0 *
Wi

0101100
-28 0 -26 0 -25 0 +34 0 +58 0 +50 0 *
Fa
0  1e-07 5 0

0101000
+24 0 *
Ed
 1e-07 1 1 0
1  19 0 0 10
2  41 11 0 0 10
2  42 4 0 0 10
4 C0 4 0 11 0
0

0101000
+40 0 -29 0 *
Ed
 1e-07 1 1 0
1  12 0 0 3.14159265358979
2  26 3 0 0 3.14159265358979
2  27 12 0 0 3.14159265358979
2  43 4 3 0 3.14159265358979
4 CN 4 3 4 3
0

0101000
+40 3 -64 3 *
Wi

0101100
-28 0 +22 0 -21 2 -60 0 *
Fa
0  1e-07 4 0

0101000
+20 0 *
Ed
 1.5e-07 1 1 0
1  20 0 -10 0
2  44 11 0 -10 0
2  45 9 0 -10 0
0

0101000
+27 0 -47 0 *
Wi

0101000
-39 0 +22 0 +26 0 +18 0 *
Fa
0  1e-07 11 0

0101000
+17 0 *
Wi

0101000
-45 0 -33 0 +25 0 -18 0 *
Fa
0  1e-07 9 0

0101000
+15 0 *
Ed
 1e-07 1 1 0
1  21 0 0 10
2  46 2 0 0 10
2  47 4 0 0 10
2  48 12 2 0 10
4 CN 12 2 4 0
0

0101000
+64 0 -40 0 *
Wi

0101100
+38 2 -13 0 *
Fa
0  1e-07 12 2

0101000
+12 0 *
Ed
 1e-07 1 1 0
1  22 0 3.72792206135786 6.27207793864214
2  49 2 0 3.72792206135786 6.27207793864214
2  50 8 0 3.72792206135786 6.27207793864214
2  51 10 2 3.72792206135786 6.27207793864214
4 CN 10 2 8 0
0

0101000
+54 0 -46 0 *
Wi

0101100
+44 2 -10 0 *
Fa
0  1e-07 10 2

0101000
+9 0 *
Wi

0101100
+32 2 +10 0 *
Fa
0  1e-07 8 0

0101000
+7 0 *
Wi

0101100
+21 2 +13 0 *
Fa
0  1e-07 4 0

0101000
+5 0 *
Sh

0101100
-55 0 -48 0 +41 0 +36 0 +30 0 +23 0 -19 0 +16 0 +14 0 -11 0 
+8 0 +6 0 -4 0 *
So

0100000
+3 0 *
Co

1100000
+2 0 *

+1 1  