<?xml version="1.0" encoding="UTF-8" standalone="no"?>
<svg
   xmlns:osb="http://www.openswatchbook.org/uri/2009/osb"
   xmlns:dc="http://purl.org/dc/elements/1.1/"
   xmlns:cc="http://creativecommons.org/ns#"
   xmlns:rdf="http://www.w3.org/1999/02/22-rdf-syntax-ns#"
   xmlns:svg="http://www.w3.org/2000/svg"
   xmlns="http://www.w3.org/2000/svg"
   xmlns:sodipodi="http://sodipodi.sourceforge.net/DTD/sodipodi-0.dtd"
   xmlns:inkscape="http://www.inkscape.org/namespaces/inkscape"
   width="64"
   height="64"
   viewBox="0 0 16.933332 16.933332"
   version="1.1"
   id="svg8"
   inkscape:version="1.0 (4035a4fb49, 2020-05-01)"
   sodipodi:docname="Edit-Cut.svg"
   inkscape:export-filename="C:\Users\Sven\Desktop\Previewer\Source\Macad.Resources\Icons\Menu\Edit\Edit-Cut-16.png"
   inkscape:export-xdpi="96"
   inkscape:export-ydpi="96">
  <defs
     id="defs2">
    <linearGradient
       id="linearGradient4681">
      <stop
         style="stop-color:#000000;stop-opacity:1;"
         offset="0"
         id="stop4679" />
    </linearGradient>
    <linearGradient
       id="linearGradient4675">
      <stop
         style="stop-color:#f2f2f2;stop-opacity:1;"
         offset="0"
         id="stop4673" />
    </linearGradient>
    <linearGradient
       id="linearGradient4655"
       osb:paint="solid"
       gradientTransform="matrix(-0.0018419,-0.00272941,0.00272941,-0.0018419,5.6470023,35.22107)">
      <stop
         style="stop-color:#f4f4f4;stop-opacity:1;"
         offset="0"
         id="stop4653" />
    </linearGradient>
    <linearGradient
       id="linearGradient4601">
      <stop
         style="stop-color:#4d4d4d;stop-opacity:1;"
         offset="0"
         id="stop4599" />
    </linearGradient>
    <linearGradient
       id="linearGradient4595"
       osb:paint="solid"
       gradientTransform="matrix(0,0,0,0,33.341959,29.121454)">
      <stop
         style="stop-color:#4d4d4d;stop-opacity:1;"
         offset="0"
         id="stop4593" />
    </linearGradient>
    <linearGradient
       id="linearGradient4567"
       osb:paint="solid"
       gradientTransform="matrix(0.00301041,0,0,0.00838397,675.1804,-629.85319)">
      <stop
         style="stop-color:#b1b1b1;stop-opacity:1;"
         offset="0"
         id="stop4565" />
    </linearGradient>
    <linearGradient
       id="linearGradient4561"
       osb:paint="solid"
       gradientTransform="matrix(0.7031818,0,0,0.7031818,8.8647369,106.47952)">
      <stop
         style="stop-color:#5a7eaa;stop-opacity:1;"
         offset="0"
         id="stop4559" />
    </linearGradient>
    <linearGradient
       id="linearGradient4555"
       osb:paint="solid"
       gradientTransform="matrix(-6.1770701e-8,-2.3423889e-7,9.153456e-8,-1.5807253e-7,115.81166,-128.40508)">
      <stop
         style="stop-color:#15356f;stop-opacity:1;"
         offset="0"
         id="stop4553" />
    </linearGradient>
  </defs>
  <sodipodi:namedview
     id="base"
     pagecolor="#ffffff"
     bordercolor="#666666"
     borderopacity="1.0"
     inkscape:pageopacity="0.0"
     inkscape:pageshadow="2"
     inkscape:zoom="10.24"
     inkscape:cx="21.061401"
     inkscape:cy="29.63792"
     inkscape:document-units="px"
     inkscape:current-layer="layer6"
     showgrid="false"
     units="px"
     inkscape:window-width="1680"
     inkscape:window-height="987"
     inkscape:window-x="1912"
     inkscape:window-y="14"
     inkscape:window-maximized="1"
     inkscape:measure-start="0,0"
     inkscape:measure-end="0,0"
     inkscape:snap-global="false"
     inkscape:document-rotation="0" />
  <metadata
     id="metadata5">
    <rdf:RDF>
      <cc:Work
         rdf:about="">
        <dc:format>image/svg+xml</dc:format>
        <dc:type
           rdf:resource="http://purl.org/dc/dcmitype/StillImage" />
        <dc:title />
      </cc:Work>
    </rdf:RDF>
  </metadata>
  <g
     inkscape:groupmode="layer"
     id="layer6"
     inkscape:label="[export] Cut"
     style="display:inline;opacity:1">
    <path
       style="opacity:1;fill:url(#linearGradient4567);fill-opacity:1;stroke:#000000;stroke-width:0.26458331;stroke-linecap:butt;stroke-linejoin:miter;stroke-miterlimit:4;stroke-dasharray:none;stroke-opacity:1"
       d="m 7.3684169,9.5159642 c 0.2485156,0.039953 2.3298125,-0.1360156 3.6751111,-0.4277981 1.345296,-0.2917835 2.4295,-0.4593704 4.261133,-2.1794984 1.831632,-1.720127 1.324422,-2.4632609 0.989718,-2.3722783 -0.3347,0.090986 -4.442627,1.7576107 -9.3429882,2.7569341 -0.3566951,0.07274 -0.2073837,1.4719734 -0.08563,1.7478218 0.1649608,0.3737513 0.2541451,0.4348665 0.5026593,0.4748189 z"
       id="path5566-2"
       inkscape:connector-curvature="0"
       sodipodi:nodetypes="zzzzssz" />
    <path
       style="fill:#cccccc;fill-opacity:1;stroke:#000000;stroke-width:0.26458331;stroke-linecap:butt;stroke-linejoin:miter;stroke-miterlimit:4;stroke-dasharray:none;stroke-opacity:1"
       d="M 6.9956722,9.339669 C 6.979689,9.0884706 7.3541065,7.03358 7.7733397,5.7223946 8.1925738,4.4112112 8.4631859,3.3480314 10.350764,1.6894858 12.238341,0.03094047 12.929504,0.60696546 12.806896,0.93142008 12.68429,1.2558747 10.632047,5.1853799 9.1681808,9.9675617 9.061627,10.315655 7.6831152,10.033079 7.4201892,9.8854769 7.0639464,9.6854922 7.0116507,9.5908683 6.9956722,9.339669 Z"
       id="path5566"
       inkscape:connector-curvature="0"
       sodipodi:nodetypes="zzzzssz" />
    <path
       id="path5611"
       style="opacity:1;fill:#606f9f;fill-opacity:1;fill-rule:evenodd;stroke:#000000;stroke-width:0.264583;stroke-miterlimit:4;stroke-dasharray:none;stroke-opacity:1"
       d="M 8.9885722,8.2356386 A 0.5681954,0.5681954 0 0 1 8.4203768,8.803834 0.5681954,0.5681954 0 0 1 7.8521814,8.2356386 0.5681954,0.5681954 0 0 1 8.4203768,7.6674432 0.5681954,0.5681954 0 0 1 8.9885722,8.2356386 M 7.1354729,9.7275794 c 0,0 -0.7195787,1.5533866 -1.1977546,2.0859626 -0.4781758,0.532577 -0.8242833,0.783235 -1.0298536,1.383365 -0.2055713,0.600131 -0.208155,1.509438 0.1060945,2.061984 0.3142495,0.552545 0.6880932,0.911434 1.4555414,0.970291 0.7674485,0.05886 0.9140951,0.02161 1.5312352,-0.257755 C 8.6178759,15.692058 9.4567619,14.874481 9.6685365,14.212699 9.8803106,13.550915 9.9596146,13.091774 9.4473851,12.559375 8.9351561,12.026978 8.5207961,12.199444 8.481022,11.617554 8.4412479,11.035665 8.8949595,10.119487 8.8949595,10.119487 Z m -0.029203,2.8477196 c 0.669852,1.4e-5 1.2128715,0.543032 1.2128829,1.212884 2.64e-5,0.669878 -0.5430045,1.212939 -1.2128829,1.212951 -0.6699054,2.6e-5 -1.2129768,-0.543046 -1.2129514,-1.212951 1.23e-5,-0.669879 0.5430733,-1.212909 1.2129514,-1.212884 z M 6.9956722,9.339669 c 0,0 -1.6381855,0.4063415 -2.2140946,0.831335 C 4.2056704,10.595998 3.9230289,10.91652 3.3059756,11.063692 2.6889208,11.210866 1.7835433,11.12639 1.2636193,10.760683 0.74369684,10.39498 0.42224669,9.9884945 0.43712983,9.2189379 0.45201354,8.4493793 0.50312678,8.3069714 0.84029374,7.719412 1.1774607,7.1318516 2.0715911,6.3750891 2.7506089,6.227642 3.4296271,6.0801958 3.8942507,6.0452119 4.3751668,6.6060572 4.8560819,7.1669015 4.6447388,7.5628483 5.2201471,7.6581459 5.7955574,7.7534435 6.7740055,7.5507454 6.7740055,7.5507454 Z M 4.1351915,8.9348895 C 4.1993035,8.2681138 3.7107673,7.6756039 3.0439944,7.6114636 2.377195,7.5473045 1.7846421,8.0358539 1.7204991,8.7026541 1.65634,9.3694807 2.1449281,9.9620482 2.811759,10.026155 3.4785611,10.090277 4.0710862,9.6016935 4.1351915,8.9348895 Z" />
  </g>
</svg>
