<?xml version="1.0" encoding="UTF-8" standalone="no"?>
<svg
   xmlns:dc="http://purl.org/dc/elements/1.1/"
   xmlns:cc="http://creativecommons.org/ns#"
   xmlns:rdf="http://www.w3.org/1999/02/22-rdf-syntax-ns#"
   xmlns:svg="http://www.w3.org/2000/svg"
   xmlns="http://www.w3.org/2000/svg"
   xmlns:sodipodi="http://sodipodi.sourceforge.net/DTD/sodipodi-0.dtd"
   xmlns:inkscape="http://www.inkscape.org/namespaces/inkscape"
   inkscape:export-ydpi="73.260002"
   inkscape:export-xdpi="73.260002"
   inkscape:export-filename="M:\Projekte\Macad3D\Source\Macad.UserGuide\Modeling\Form\PipeDrawing.png"
   inkscape:version="1.0 (4035a4fb49, 2020-05-01)"
   sodipodi:docname="PipeDrawing.svg"
   id="svg105"
   version="1.1"
   viewBox="0, 0, 209.33582, 196.5474"
   height="52.003166mm"
   width="55.38677mm">
  <metadata
     id="metadata109">
    <rdf:RDF>
      <cc:Work
         rdf:about="">
        <dc:format>image/svg+xml</dc:format>
        <dc:type
           rdf:resource="http://purl.org/dc/dcmitype/StillImage" />
        <dc:title></dc:title>
      </cc:Work>
    </rdf:RDF>
  </metadata>
  <defs
     id="defs107" />
  <sodipodi:namedview
     inkscape:current-layer="svg105"
     inkscape:cy="113.90391"
     inkscape:cx="61.519762"
     inkscape:zoom="3.1731185"
     showgrid="false"
     inkscape:document-rotation="0"
     id="namedview2"
     inkscape:document-units="mm" />
  <g
     style="stroke-width:0.646802"
     transform="matrix(1.5251098,0,0,1.5673126,2.2158618,124.92747)"
     id="Pipe">
    <g
       style="fill:#000000;stroke:#000000"
       stroke-width="0.12223"
       id="Contour">
      <path
         style="stroke-width:0.12223"
         id="path4"
         d="M 36.229744,-1.8897638 H 0 V -1.511811 H 36.229744 A 2.2677166,2.2677166 0 0 0 37.833263,-2.17601 L 55.19021,-19.532957 a 5.2913384,5.2913384 0 0 1 1.37518,-0.991177 l 28.01808,-14.009042 a 5.2913384,5.2913384 0 0 1 7.22987,6.817077 l -7.27416,16.973047 0.34739,0.148883 7.274166,-16.973046 A 5.6692915,5.6692915 0 0 0 84.41445,-34.871227 L 56.396366,-20.862185 A 5.6692915,5.6692915 0 0 0 54.92296,-19.80021 L 37.56601,-2.4432628 a 1.8897638,1.8897638 0 0 1 -1.336266,0.553499 z m 0,3.4015748 H 0 V 1.8897638 H 36.229744 A 5.6692915,5.6692915 0 0 0 40.238537,0.22926679 L 57.595486,-17.127682 a 1.8897638,1.8897638 0 0 1 0.491138,-0.35399 l 28.018082,-14.009043 a 1.8897638,1.8897638 0 0 1 2.5821,2.434671 l -7.27417,16.973047 0.347394,0.148883 7.274165,-16.973048 a 2.2677166,2.2677166 0 0 0 -3.098511,-2.921604 L 57.9176,-17.819723 a 2.2677166,2.2677166 0 0 0 -0.58937,0.424789 L 39.971287,-0.03798617 A 5.2913384,5.2913384 0 0 1 36.229744,1.511811 Z" />
    </g>
    <g
       style="fill:none;stroke:#000000"
       stroke-width="0.244461"
       id="Dimension">
      <line
         style="stroke-width:0.244461"
         id="line7"
         y2="45.354332"
         x2="-2.5330682e-16"
         y1="0"
         x1="0" />
      <line
         style="stroke-width:0.244461"
         id="line9"
         y2="45.354332"
         x2="37.56554"
         y1="2.0980593e-16"
         x1="37.56554" />
      <line
         style="stroke-width:0.244461"
         id="line11"
         y2="37.795277"
         x2="26.226957"
         y1="37.795277"
         x1="11.338583" />
      <path
         id="path13"
         style="fill:#000000;stroke-width:0.244461"
         d="M 0,37.795277 11.338583,35.90551 v 3.77953 z" />
      <path
         id="path15"
         style="fill:#000000;stroke-width:0.244461"
         d="M 37.56554,37.795277 26.226957,39.68504 v -3.77953 z" />
      <text
         id="text17"
         font-size="11.3386px"
         font-family="Arial"
         style="fill:#000000;stroke-width:0.158118"
         y="34.015747"
         x="10.90168">9.9</text>
    </g>
    <g
       style="fill:none;stroke:#000000"
       stroke-width="0.244461"
       id="g32">
      <line
         style="stroke-width:0.244461"
         id="line20"
         y2="45.354332"
         x2="37.56554"
         y1="2.0980593e-16"
         x1="37.56554" />
      <line
         style="stroke-width:0.244461"
         id="line22"
         y2="31.907907"
         x2="70.028076"
         y1="-0.16244808"
         x1="37.957726" />
      <path
         style="stroke-width:0.244461"
         id="path24"
         d="m 47.491226,36.488533 a 38.349907,38.349907 0 0 0 9.249268,-3.831169" />
      <path
         id="path26"
         style="fill:#000000;stroke-width:0.244461"
         d="m 37.594162,37.795265 9.735676,-2.969495 0.436828,3.31803 z" />
      <path
         id="path28"
         style="fill:#000000;stroke-width:0.244461"
         d="M 64.66277,26.58308 57.71618,34.022575 55.67886,31.36749 Z" />
      <text
         id="text30"
         transform="rotate(-22.5,42.8745,34.665035)"
         font-size="11.3386px"
         font-family="Arial"
         style="fill:#000000;stroke-width:0.158118"
         y="34.665035"
         x="42.8745">45°</text>
    </g>
    <g
       style="fill:none;stroke:#000000"
       stroke-width="0.244461"
       id="g46">
      <line
         style="stroke-width:0.244461"
         id="line34"
         y2="31.907907"
         x2="70.028076"
         y1="-0.16244808"
         x1="37.957726" />
      <line
         style="stroke-width:0.244461"
         id="line36"
         y2="13.21946"
         x2="88.716522"
         y1="-18.850895"
         x1="56.646172" />
      <line
         style="stroke-width:0.244461"
         id="line38"
         y2="14.103883"
         x2="77.141983"
         y1="20.333364"
         x1="70.912498" />
      <path
         id="path40"
         style="fill:#000000;stroke-width:0.244461"
         d="m 64.68302,26.562847 5.19123,-7.267729 2.0765,2.076495 z" />
      <path
         id="path42"
         style="fill:#000000;stroke-width:0.244461"
         d="m 83.37147,7.8744 -5.19124,7.26773 -2.07649,-2.076494 z" />
      <text
         id="text44"
         transform="rotate(-45,65.781944,20.118866)"
         font-size="11.3386px"
         font-family="Arial"
         style="fill:#000000;stroke-width:0.158118"
         y="20.118866"
         x="65.781944">7.0</text>
    </g>
    <g
       style="fill:none;stroke:#000000"
       stroke-width="0.244461"
       id="g60">
      <line
         style="stroke-width:0.244461"
         id="line48"
         y2="-50.921249"
         x2="24.575817"
         y1="-18.850895"
         x1="56.646172" />
      <line
         style="stroke-width:0.244461"
         id="line50"
         y2="-59.493347"
         x2="36.468964"
         y1="-18.9272"
         x1="56.752037" />
      <path
         style="stroke-width:0.244461"
         id="path52"
         d="m 32.967724,-48.31261 a 38.202625,38.202625 0 0 1 3.322256,-2.39455" />
      <path
         id="path54"
         style="fill:#000000;stroke-width:0.244461"
         d="m 29.922264,-45.57758 2.592018,-3.245784 0.912578,1.016102 z" />
      <path
         id="path56"
         style="fill:#000000;stroke-width:0.244461"
         d="m 39.84772,-52.731445 -3.22351,2.619665 -0.67538,-1.187067 z" />
      <text
         id="text58"
         transform="rotate(-35.78253,27.899612,-49.386356)"
         font-size="7.3155px"
         font-family="Arial"
         style="fill:#000000;stroke-width:0.158118"
         y="-49.386356"
         x="27.899612">18°</text>
    </g>
    <g
       style="fill:none;stroke:#000000"
       stroke-width="0.244461"
       id="g74">
      <line
         style="stroke-width:0.244461"
         id="line62"
         y2="-59.493347"
         x2="36.468964"
         y1="-18.9272"
         x1="56.752037" />
      <line
         style="stroke-width:0.244461"
         id="line64"
         y2="-75.602516"
         x2="68.687294"
         y1="-35.036366"
         x1="88.970367" />
      <line
         style="stroke-width:0.244461"
         id="line66"
         y2="-63.770721"
         x2="61.926273"
         y1="-57.803089"
         x1="49.991013" />
      <path
         id="path68"
         style="fill:#000000;stroke-width:0.244461"
         d="m 39.849476,-52.732323 9.296409,-6.761024 1.690258,3.380512 z" />
      <path
         id="path70"
         style="fill:#000000;stroke-width:0.244461"
         d="m 72.06781,-68.84149 -9.29641,6.761027 -1.690254,-3.380513 z" />
      <text
         id="text72"
         transform="rotate(-26.56506,47.219326,-60.642887)"
         font-size="11.3386px"
         font-family="Arial"
         style="fill:#000000;stroke-width:0.158118"
         y="-60.642887"
         x="47.219326">9.5</text>
    </g>
    <g
       style="fill:none;stroke:#000000"
       stroke-width="0.244461"
       id="g88">
      <line
         style="stroke-width:0.244461"
         id="line76"
         y2="-75.602516"
         x2="68.687294"
         y1="-35.036366"
         x1="88.970367" />
      <line
         style="stroke-width:0.244461"
         id="line78"
         y2="-14.259025"
         x2="133.74527"
         y1="-32.124969"
         x1="92.05806" />
      <path
         style="stroke-width:0.244461"
         id="path80"
         d="m 82.78737,-72.41896 a 40.05507,40.05507 0 0 1 46.95186,44.27114" />
      <path
         id="path82"
         style="fill:#000000;stroke-width:0.244461"
         d="m 72.10161,-68.85837 10.157194,-5.38202 1.19648,3.58515 z" />
      <path
         id="path84"
         style="fill:#000000;stroke-width:0.244461"
         d="m 126.81226,-17.271416 1.12706,-11.439598 3.64923,0.983889 z" />
      <text
         id="text86"
         transform="rotate(43.31677,111.52128,-72.95246)"
         font-size="11.3386px"
         font-family="Arial"
         style="fill:#000000;stroke-width:0.158118"
         y="-72.952461"
         x="111.52128">140°</text>
    </g>
    <g
       style="fill:none;stroke:#000000"
       stroke-width="0.244461"
       id="g102">
      <line
         style="stroke-width:0.244461"
         id="line90"
         y2="-14.259025"
         x2="133.74527"
         y1="-32.124969"
         x1="92.05806" />
      <line
         style="stroke-width:0.244461"
         id="line92"
         y2="6.5273633"
         x2="124.83681"
         y1="-11.338583"
         x1="83.149605" />
      <line
         style="stroke-width:0.244461"
         id="line94"
         y2="-3.3790903"
         x2="120.85843"
         y1="-10.307886"
         x1="123.82791" />
      <path
         id="path96"
         style="fill:#000000;stroke-width:0.244461"
         d="m 126.7974,-17.236683 -1.81469,7.423711 -2.3096,-0.989828 z" />
      <path
         id="path98"
         style="fill:#000000;stroke-width:0.244461"
         d="m 117.88895,3.5497057 1.81468,-7.4237098 2.3096,0.9898278 z" />
      <text
         id="text100"
         transform="rotate(-66.80142,115.76473,-1.0884523)"
         font-size="11.3386px"
         font-family="Arial"
         style="fill:#000000;stroke-width:0.158118"
         y="-1.0884523"
         x="115.76472">6.0</text>
    </g>
  </g>
</svg>
