<?xml version="1.0" encoding="UTF-8" standalone="no"?>
<svg
   xmlns:dc="http://purl.org/dc/elements/1.1/"
   xmlns:cc="http://creativecommons.org/ns#"
   xmlns:rdf="http://www.w3.org/1999/02/22-rdf-syntax-ns#"
   xmlns:svg="http://www.w3.org/2000/svg"
   xmlns="http://www.w3.org/2000/svg"
   xmlns:sodipodi="http://sodipodi.sourceforge.net/DTD/sodipodi-0.dtd"
   xmlns:inkscape="http://www.inkscape.org/namespaces/inkscape"
   sodipodi:docname="Tool-SketchEditor.svg"
   inkscape:version="1.0 (4035a4fb49, 2020-05-01)"
   id="svg8"
   version="1.1"
   viewBox="0 0 16.933333 16.933333"
   height="64"
   width="64">
  <defs
     id="defs2" />
  <sodipodi:namedview
     inkscape:object-paths="false"
     inkscape:snap-object-midpoints="true"
     inkscape:snap-bbox-midpoints="true"
     inkscape:bbox-nodes="false"
     inkscape:bbox-paths="false"
     inkscape:snap-bbox="false"
     inkscape:snap-global="true"
     inkscape:snap-nodes="true"
     inkscape:object-nodes="true"
     inkscape:snap-others="true"
     inkscape:snap-to-guides="false"
     inkscape:window-maximized="1"
     inkscape:window-y="14"
     inkscape:window-x="1912"
     inkscape:window-height="987"
     inkscape:window-width="1680"
     inkscape:pagecheckerboard="true"
     units="px"
     showgrid="false"
     inkscape:document-rotation="0"
     inkscape:current-layer="layer1"
     inkscape:document-units="px"
     inkscape:cy="33.048117"
     inkscape:cx="45.78359"
     inkscape:zoom="7.9195959"
     inkscape:pageshadow="2"
     inkscape:pageopacity="0.0"
     borderopacity="1.0"
     bordercolor="#666666"
     pagecolor="#ffffff"
     id="base"
     inkscape:snap-grids="false">
    <inkscape:grid
       visible="false"
       dotted="false"
       snapvisiblegridlinesonly="false"
       spacingy="0.26458333"
       spacingx="0.26458333"
       id="grid835"
       type="xygrid" />
  </sodipodi:namedview>
  <metadata
     id="metadata5">
    <rdf:RDF>
      <cc:Work
         rdf:about="">
        <dc:format>image/svg+xml</dc:format>
        <dc:type
           rdf:resource="http://purl.org/dc/dcmitype/StillImage" />
        <dc:title />
      </cc:Work>
    </rdf:RDF>
  </metadata>
  <g
     id="layer1"
     inkscape:groupmode="layer"
     inkscape:label="Layer 1"
     style="display:inline">
    <ellipse
       style="opacity:0.995;fill:#bfc3d9;fill-opacity:1;stroke:#000000;stroke-width:0.26458333;stroke-linejoin:miter;stroke-miterlimit:4;stroke-dasharray:none;stroke-dashoffset:0"
       id="path838"
       cx="10.921452"
       cy="4.9400411"
       rx="3.8042686"
       ry="3.6918917" />
    <g
       transform="matrix(0.14602543,0,0,0.14450818,9.3867209,7.4266966)"
       id="g975"
       stroke-width="1.61044"
       style="display:inline;fill:none;stroke:#000000;stroke-width:1.82139;stroke-linejoin:round;stroke-miterlimit:4;stroke-dasharray:none;stroke-opacity:1" />
    <rect
       style="opacity:0.995;fill:#ffffff;fill-opacity:1;stroke:#000000;stroke-width:0.26458333;stroke-linejoin:miter;stroke-miterlimit:4;stroke-dasharray:none;stroke-dashoffset:0"
       id="rect836"
       width="8.0803947"
       height="7.8416638"
       x="7.4716635"
       y="7.2034407" />
    <path
       d="m 7.1606776,9.342463 -9.9114078,0 4.9557039,-8.58353089 z"
       sodipodi:type="star"
       style="opacity:0.995;fill:#dfe2ec;fill-opacity:1;stroke:#000000;stroke-width:0.27619809;stroke-linejoin:miter;stroke-miterlimit:4;stroke-dasharray:none;stroke-dashoffset:0"
       id="path840"
       sodipodi:sides="3"
       sodipodi:cx="2.2049737"
       sodipodi:cy="6.481286"
       sodipodi:r1="5.7223539"
       sodipodi:r2="2.861177"
       sodipodi:arg1="0.52359878"
       sodipodi:arg2="1.5707963"
       inkscape:flatsided="true"
       inkscape:rounded="0"
       inkscape:randomized="0"
       inkscape:transform-center-y="-1.3504355"
       transform="matrix(0.97213022,0,0,0.9439721,3.8927757,2.4279203)" />
    <path
       id="circle939"
       style="fill:#ffffff;fill-opacity:1;stroke:#000000;stroke-width:0.264583;stroke-opacity:1"
       d="M 14.435015,2.4387236 A 0.63419819,0.63415974 0 0 1 13.800817,3.0728833 0.63419819,0.63415974 0 0 1 13.166618,2.4387236 0.63419819,0.63415974 0 0 1 13.800817,1.8045638 0.63419819,0.63415974 0 0 1 14.435015,2.4387236 M 8.1058617,15.045104 a 0.63419819,0.63415974 0 0 1 -0.6341982,0.63416 0.63419819,0.63415974 0 0 1 -0.6341982,-0.63416 0.63419819,0.63415974 0 0 1 0.6341982,-0.63416 0.63419819,0.63415974 0 0 1 0.6341982,0.63416 m 8.0803943,0 a 0.63419819,0.63415974 0 0 1 -0.634198,0.63416 0.63419819,0.63415974 0 0 1 -0.634198,-0.63416 0.63419819,0.63415974 0 0 1 0.634198,-0.63416 0.63419819,0.63415974 0 0 1 0.634198,0.63416 m 0,-7.8416633 A 0.63419819,0.63415974 0 0 1 15.552058,7.8376004 0.63419819,0.63415974 0 0 1 14.91786,7.2034407 0.63419819,0.63415974 0 0 1 15.552058,6.5692809 0.63419819,0.63415974 0 0 1 16.186256,7.2034407 m -4.698171,4.0435033 a 0.63419819,0.63415974 0 0 1 -0.634198,0.63416 0.63419819,0.63415974 0 0 1 -0.634199,-0.63416 0.63419819,0.63415974 0 0 1 0.634199,-0.634159 0.63419819,0.63415974 0 0 1 0.634198,0.634159 M 6.670496,3.1443312 A 0.63419819,0.63415974 0 0 1 6.0362978,3.778491 0.63419819,0.63415974 0 0 1 5.4020996,3.1443312 0.63419819,0.63415974 0 0 1 6.0362978,2.5101715 0.63419819,0.63415974 0 0 1 6.670496,3.1443312 m -4.81759,8.1026128 a 0.63419819,0.63415974 0 0 1 -0.6341982,0.63416 0.63419819,0.63415974 0 0 1 -0.63419819,-0.63416 0.63419819,0.63415974 0 0 1 0.63419819,-0.634159 0.63419819,0.63415974 0 0 1 0.6341982,0.634159" />
  </g>
</svg>
