
CASCADE Topology V1, (c) Matra-Datavision
Locations 3
1
              1               0               0               0 
              0               1               0               0 
              0               0               1               0 
1
              1               0               0               0 
              0               1               0               0 
              0               0               1               0 
2  2 -1 0
Curve2ds 104
1 0 0 0 1 
1 0 -2.9999999999999996 1 0 
1 0 0 0 1 
1 2.9999999999999996 0 0 -1 
1 0 0 0 1 
1 7 0 0 -1 
1 0 0 0 1 
1 0 -7 1 0 
1 0 3 1 0 
1 0 0 1 0 
1 0 7 1 0 
1 0 0 1 0 
1 1.5707963267948966 0 0 1 
1 0 2.9999999999999996 1 0 
8 4.7123889803846897 6.2831853071795862
1 6.2831853071795862 2.9999999999999996 -1 -0 
8 4.7123889803846897 6.2831853071795862
1 0 -6.2831853071795862 0 1 
1 1.5707963267948966 0 0 1 
1 2.9999999999999996 0 0 1 
8 4.7123889803846897 6.2831853071795862
1 6.2831853071795862 7 -1 -0 
8 4.7123889803846897 6.2831853071795862
1 0 -6.2831853071795862 0 1 
8 4.7123889803846897 6.2831853071795862
1 6.2831853071795862 2.9999999999999996 -1 -0 
8 4.7123889803846897 6.2831853071795862
1 0 -6.2831853071795862 0 1 
1 1.5707963267948966 0 0 1 
1 2.9999999999999996 0 0 1 
1 0 7 1 0 
1 0 0 1 0 
1 0 3 1 0 
1 0 0 1 0 
8 4.7123889803846897 6.2831853071795862
1 6.2831853071795862 7 -1 -0 
8 4.7123889803846897 6.2831853071795862
1 0 -6.2831853071795862 0 1 
1 1.5707963267948966 0 0 1 
1 0 2.9999999999999996 1 0 
1 0 -1.5707963267948966 1 0 
8 4.7123889803846897 6.2831853071795862
1 6.2831853071795862 2.9999999999999996 -1 -0 
8 4.7123889803846897 6.2831853071795862
1 1.5707963267948966 -6.2831853071795862 0 1 
1 0 -1.5707963267948966 1 0 
8 4.7123889803846897 6.2831853071795862
1 6.2831853071795862 2.9999999999999996 -1 -0 
8 4.7123889803846897 6.2831853071795862
1 1.5707963267948966 -6.2831853071795862 0 1 
1 0 0 0 1 
1 2.9999999999999996 0 0 1 
1 0 0 0 1 
1 7 0 0 1 
1 1.5707963267948966 0 0 1 
1 0 7 1 0 
1 1.5707963267948966 0 0 1 
1 0 2.9999999999999996 1 0 
1 1.5707963267948966 0 0 1 
1 0 7 1 0 
1 1.5707963267948966 0 0 1 
1 7 0 0 1 
1 0 -1.5707963267948966 1 0 
8 4.7123889803846897 6.2831853071795862
1 6.2831853071795862 2.9999999999999996 -1 -0 
8 4.7123889803846897 6.2831853071795862
1 1.5707963267948966 -6.2831853071795862 0 1 
1 1.5707963267948966 0 0 1 
1 0 2.9999999999999996 1 0 
1 1.5707963267948966 0 0 1 
1 0 7 1 0 
1 1.5707963267948966 0 0 1 
1 7 0 0 1 
1 0 -1.5707963267948966 1 0 
8 4.7123889803846897 6.2831853071795862
1 -4.7123889803846897 2.9999999999999996 1 0 
8 4.7123889803846897 6.2831853071795862
1 1.5707963267948966 -6.2831853071795862 0 1 
1 0 0 0 1 
1 2.9999999999999996 0 0 1 
1 0 0 0 1 
1 7 0 0 1 
1 1.5707963267948966 0 0 1 
1 0 7 1 0 
8 4.7123889803846897 6.2831853071795862
1 6.2831853071795862 7 -1 -0 
8 4.7123889803846897 6.2831853071795862
1 1.5707963267948966 -6.2831853071795862 0 1 
8 4.7123889803846897 6.2831853071795862
1 6.2831853071795862 7 -1 -0 
8 4.7123889803846897 6.2831853071795862
1 1.5707963267948966 -6.2831853071795862 0 1 
1 0 0 0 1 
1 0 -2.9999999999999996 1 0 
1 0 3 1 0 
1 0 0 1 0 
1 0 7 1 0 
1 0 0 1 0 
8 4.7123889803846897 6.2831853071795862
1 6.2831853071795862 7 -1 -0 
8 4.7123889803846897 6.2831853071795862
1 1.5707963267948966 -6.2831853071795862 0 1 
8 4.7123889803846897 6.2831853071795862
1 6.2831853071795862 2.9999999999999996 -1 -0 
8 4.7123889803846897 6.2831853071795862
1 0 -6.2831853071795862 0 1 
1 0 0 0 1 
1 2.9999999999999996 0 0 -1 
8 4.7123889803846897 6.2831853071795862
1 6.2831853071795862 7 -1 -0 
8 4.7123889803846897 6.2831853071795862
1 0 -6.2831853071795862 0 1 
8 4.7123889803846897 6.2831853071795862
1 -4.7123889803846897 7 1 0 
8 4.7123889803846897 6.2831853071795862
1 1.5707963267948966 -6.2831853071795862 0 1 
8 4.7123889803846897 6.2831853071795862
1 6.2831853071795862 2.9999999999999996 -1 -0 
8 4.7123889803846897 6.2831853071795862
1 0 -6.2831853071795862 0 1 
1 0 0 0 1 
1 7 0 0 -1 
1 0 7 1 0 
1 0 0 1 0 
1 0 0 0 1 
1 0 -7 1 0 
1 0 3 1 0 
1 0 0 1 0 
8 4.7123889803846897 6.2831853071795862
1 6.2831853071795862 7 -1 -0 
8 4.7123889803846897 6.2831853071795862
1 0 -6.2831853071795862 0 1 
1 0 -1.5707963267948966 1 0 
1 0 -1.5707963267948966 1 0 
1 0 -1.5707963267948966 1 0 
1 0 -1.5707963267948966 1 0 
Curves 48
1 -4.4408920985006262e-016 2.9999999999999996 0 0 0 1 
1 -4.4408920985006262e-016 0 2.9999999999999996 0 1 0 
1 -4.4408920985006262e-016 0 7 0 1 0 
1 -4.4408920985006262e-016 7 0 0 0 1 
2 2.9999999999999996 2.9999999999999996 3 0 0 1 -1 0 0 0 -1 0 3
2 2.9999999999999996 2.9999999999999996 7 0 0 1 -1 0 0 0 -1 0 3
1 2.9999999999999996 -4.4408920985006262e-016 0 0 0 1 
2 2.9999999999999996 2.9999999999999996 3 0 1 -0 -1 0 0 0 0 1 3
1 2.9999999999999996 0 -4.4408920985006262e-016 0 1 0 
2 2.9999999999999996 7 3 0 1 -0 -1 0 0 0 0 1 3
2 2.9999999999999996 2.9999999999999996 7 0 -1 0 -1 0 0 -0 -0 -1 3
1 2.9999999999999996 0 10 0 1 0 
2 2.9999999999999996 7 7 0 1 0 -1 0 0 0 -0 1 3
2 2.9999999999999996 7 3 -0 -0 -1 -1 0 0 0 1 -0 3
2 2.9999999999999996 7 7 0 -0 1 -1 0 0 -0 -1 0 3
1 2.9999999999999996 10 0 0 0 1 
2 2.9999999999999996 2.9999999999999996 3 -1 6.123233995736766e-017 0 -6.123233995736766e-017 -1 0 0 0 1 3
2 2.9999999999999996 2.9999999999999996 7 1 -6.123233995736766e-017 0 -6.123233995736766e-017 -1 0 0 -0 -1 3
1 0 -4.4408920985006262e-016 2.9999999999999996 1 0 0 
1 0 -4.4408920985006262e-016 7 1 0 0 
1 7 -4.4408920985006262e-016 0 0 0 1 
1 0 2.9999999999999996 -4.4408920985006262e-016 1 0 0 
1 0 7 -4.4408920985006262e-016 1 0 0 
1 7 0 -4.4408920985006262e-016 0 1 0 
2 2.9999999999999996 7 3 1 6.123233995736766e-017 -0 -6.123233995736766e-017 1 0 0 0 1 3
1 0 2.9999999999999996 10 1 0 0 
1 0 7 10 1 0 0 
1 7 0 10 0 1 0 
2 2.9999999999999996 7 7 1 -0 6.123233995736766e-017 -6.123233995736766e-017 0 1 -0 -1 0 3
1 0 10 2.9999999999999996 1 0 0 
1 0 10 7 1 0 0 
1 7 10 0 0 0 1 
2 7 2.9999999999999996 3 -1 -6.123233995736766e-017 0 6.123233995736766e-017 -1 -0 0 0 1 3
2 7 2.9999999999999996 7 1 6.123233995736766e-017 -0 6.123233995736766e-017 -1 0 0 -0 -1 3
1 10 2.9999999999999996 0 0 0 1 
2 7 2.9999999999999996 3 -0 -0 -1 1 0 -0 0 -1 0 3
2 7 2.9999999999999996 7 -0 -0 -1 1 0 0 0 -1 0 3
2 7 7 3 1 -6.123233995736766e-017 0 6.123233995736766e-017 1 0 -0 0 1 3
2 7 2.9999999999999996 3 0 -1 0 1 0 0 -0 0 1 3
1 10 0 2.9999999999999996 0 1 0 
2 7 7 3 0 -1 0 1 0 0 -0 0 1 3
2 7 7 7 1 0 -6.123233995736766e-017 6.123233995736766e-017 0 1 0 -1 0 3
2 7 2.9999999999999996 7 0 1 0 1 0 0 0 0 -1 3
1 10 0 7 0 1 0 
2 7 7 7 -0 -1 -0 1 -0 0 -0 0 1 3
1 10 7 0 0 0 1 
2 7 7 3 0 0 1 1 0 -0 -0 1 0 3
2 7 7 7 0 0 -1 1 0 0 0 -1 0 3
Polygon3D 0
PolygonOnTriangulations 0
Surfaces 26
1 0 0 0 1 0 -0 0 0 1 0 -1 0 
2 2.9999999999999996 2.9999999999999996 0 0 0 1 -1 -0 0 0 -1 0 3
2 2.9999999999999996 0 2.9999999999999996 0 1 0 -1 0 0 -0 0 -1 3
2 2.9999999999999996 0 7 0 1 0 -1 0 0 0 -0 1 3
2 2.9999999999999996 7 0 0 0 1 -1 -0 0 -0 1 -0 3
4 2.9999999999999996 2.9999999999999996 3 0 0 1 -1 0 0 0 -1 0 3
4 2.9999999999999996 2.9999999999999996 7 -0 -0 -1 -1 0 0 -0 -1 0 3
1 0 0 0 -0 1 0 0 0 1 1 0 -0 
1 0 0 0 0 0 1 1 0 -0 -0 1 0 
4 2.9999999999999996 7 3 0 0 1 -1 0 0 -0 1 -0 3
1 0 0 10 0 0 1 1 0 -0 -0 1 0 
4 2.9999999999999996 7 7 -0 -1 -0 -1 0 0 -0 -0 1 3
1 0 10 0 -0 1 0 0 0 1 1 0 -0 
2 0 2.9999999999999996 2.9999999999999996 1 0 0 0 -1 0 0 0 -1 3
2 0 2.9999999999999996 7 1 0 0 0 -1 0 -0 -0 1 3
2 7 2.9999999999999996 0 0 0 1 1 0 -0 0 -1 -0 3
2 0 7 2.9999999999999996 1 0 0 -0 1 0 -0 0 -1 3
2 7 0 2.9999999999999996 0 1 0 1 0 -0 -0 0 -1 3
2 0 7 7 1 0 0 -0 1 0 0 -0 1 3
2 7 0 7 0 1 0 1 0 -0 0 -0 1 3
2 7 7 0 0 0 1 1 0 -0 -0 1 0 3
4 7 2.9999999999999996 3 0 0 1 1 0 -0 0 -1 -0 3
4 7 2.9999999999999996 7 -0 -0 -1 1 0 0 0 -1 0 3
1 10 0 0 1 0 -0 0 0 1 0 -1 0 
4 7 7 3 0 0 1 1 0 -0 -0 1 0 3
4 7 7 7 -0 -1 -0 1 -0 0 -0 0 1 3
Triangulations 0

TShapes 135
Ve
1e-007
-4.44089209850063e-016 3 3
0 0

0101101
*
Ve
1e-007
-4.44089209850063e-016 3 7
0 0

0101101
*
Ed
 1e-007 1 1 0
1  1 0 3 7
2  1 2 0 3 7
2  2 1 2 3 7
4 G1 2 0 1 2
0

0101000
+135 0 -134 0 *
Ve
1e-007
-4.44089209850063e-016 7 3
0 0

0101101
*
Ed
 1e-007 1 1 0
1  2 0 3 7
2  3 3 0 3 7
2  4 1 2 3 7
4 G1 3 0 1 2
0

0101000
+135 0 -132 0 *
Ve
1e-007
-4.44089209850063e-016 7 7
0 0

0101101
*
Ed
 1e-007 1 1 0
1  3 0 3 7
2  5 4 0 3 7
2  6 1 2 3 7
4 G1 4 0 1 2
0

0101000
+134 0 -130 0 *
Ed
 1e-007 1 1 0
1  4 0 3 7
2  7 5 0 3 7
2  8 1 2 3 7
4 G1 5 0 1 2
0

0101000
+132 0 -130 0 *
Wi

0101100
-133 0 +131 0 -129 0 +128 0 *
Fa
0  1e-007 1 0

0101000
+127 3 *
Ve
1e-007
3 -4.44089209850063e-016 3
0 0

0101101
*
Ed
 1e-007 1 1 0
1  5 0 0 1.5707963267949
2  9 2 0 0 1.5707963267949
2  10 6 0 0 1.5707963267949
4 G1 6 0 2 0
0

0101000
+135 0 -125 0 *
Ve
1e-007
3 -4.44089209850063e-016 7
0 0

0101101
*
Ed
 1e-007 1 1 0
1  6 0 0 1.5707963267949
2  11 2 0 0 1.5707963267949
2  12 7 0 0 1.5707963267949
4 G1 7 0 2 0
0

0101000
+134 0 -123 0 *
Ed
 1e-007 1 1 0
1  7 0 3 7
2  13 2 0 3 7
2  14 8 2 3 7
4 G1 2 0 8 2
0

0101000
+125 0 -123 0 *
Wi

0101100
-133 0 +124 0 -122 0 +121 0 *
Fa
0  0 2 0

0101000
+120 0 *
Ve
1e-007
3 3 0
0 0

0101101
*
Ed
 1e-007 1 1 0
1  8 0 4.71238898038469 6.28318530717959
2  15 3 0 4.71238898038469 6.28318530717959
2  16 6 0 4.71238898038469 6.28318530717959
4 G1 6 0 3 0
0

0101000
+118 0 -135 0 *
Ve
1e-007
3 7 0
0 0

0101101
*
Ed
 1e-007 1 1 0
1  9 0 3 7
2  17 3 0 3 7
2  18 9 2 3 7
4 G1 3 0 9 2
0

0101000
+118 0 -116 0 *
Ed
 1e-007 1 1 0
1  10 0 4.71238898038469 6.28318530717959
2  19 3 0 4.71238898038469 6.28318530717959
2  20 10 0 4.71238898038469 6.28318530717959
4 G1 10 0 3 0
0

0101000
+116 0 -132 0 *
Wi

0101100
-117 0 +115 0 -131 0 +114 0 *
Fa
0  0 3 0

0101000
+113 0 *
Ve
1e-007
3 3 10
0 0

0101101
*
Ed
 1e-007 1 1 0
1  11 0 4.71238898038469 6.28318530717959
2  21 4 0 4.71238898038469 6.28318530717959
2  22 7 0 4.71238898038469 6.28318530717959
4 G1 7 0 4 0
0

0101000
+111 0 -134 0 *
Ve
1e-007
3 7 10
0 0

0101101
*
Ed
 1e-007 1 1 0
1  12 0 3 7
2  23 4 0 3 7
2  24 11 2 3 7
4 G1 4 0 11 2
0

0101000
+111 0 -109 0 *
Ed
 1e-007 1 1 0
1  13 0 0 1.5707963267949
2  25 4 0 0 1.5707963267949
2  26 12 0 0 1.5707963267949
4 G1 12 0 4 0
0

0101000
+130 0 -109 0 *
Wi

0101100
-110 0 +108 0 -129 0 -107 0 *
Fa
0  0 4 0

0101000
+106 0 *
Ve
1e-007
3 10 3
0 0

0101101
*
Ed
 1e-007 1 1 0
1  14 0 0 1.5707963267949
2  27 5 0 0 1.5707963267949
2  28 10 0 0 1.5707963267949
4 G1 10 0 5 0
0

0101000
+132 0 -104 0 *
Ve
1e-007
3 10 7
0 0

0101101
*
Ed
 1e-007 1 1 0
1  15 0 4.71238898038469 6.28318530717959
2  29 5 0 4.71238898038469 6.28318530717959
2  30 12 0 4.71238898038469 6.28318530717959
4 G1 12 0 5 0
0

0101000
+102 0 -130 0 *
Ed
 1e-007 1 1 0
1  16 0 3 7
2  31 5 0 3 7
2  32 13 2 3 7
4 G1 5 0 13 2
0

0101000
+104 0 -102 0 *
Wi

0101100
-128 0 +103 0 +101 0 +100 0 *
Fa
0  0 5 0

0101000
+99 0 *
Ed
 1e-007 1 1 1
2  33 6 0 0 1.5707963267949
0

0101000
+118 0 -118 0 *
Ed
 1e-007 1 1 0
1  17 0 4.71238898038469 6.28318530717959
2  34 14 0 4.71238898038469 6.28318530717959
2  35 6 0 4.71238898038469 6.28318530717959
4 G1 6 0 14 0
0

0101000
+118 0 -125 0 *
Wi

0101100
-117 0 +97 0 +96 0 -124 0 *
Fa
0  0 6 0

0101000
+95 0 *
Ed
 1e-007 1 1 1
2  36 7 0 0 1.5707963267949
0

0101000
+111 0 -111 0 *
Ed
 1e-007 1 1 0
1  18 0 4.71238898038469 6.28318530717959
2  37 15 0 4.71238898038469 6.28318530717959
2  38 7 0 4.71238898038469 6.28318530717959
4 G1 7 0 15 0
0

0101000
+111 0 -123 0 *
Wi

0101100
-110 0 +93 0 +92 0 -122 0 *
Fa
0  0 7 0

0101000
+91 0 *
Ve
1e-007
7 -4.44089209850063e-016 3
0 0

0101101
*
Ed
 1e-007 1 1 0
1  19 0 3 7
2  39 14 0 3 7
2  40 8 2 3 7
4 G1 14 0 8 2
0

0101000
+125 0 -89 0 *
Ve
1e-007
7 -4.44089209850063e-016 7
0 0

0101101
*
Ed
 1e-007 1 1 0
1  20 0 3 7
2  41 15 0 3 7
2  42 8 2 3 7
4 G1 15 0 8 2
0

0101000
+123 0 -87 0 *
Ed
 1e-007 1 1 0
1  21 0 3 7
2  43 16 0 3 7
2  44 8 2 3 7
4 G1 16 0 8 2
0

0101000
+89 0 -87 0 *
Wi

0101100
+121 0 -88 0 +86 0 -85 0 *
Fa
0  1e-007 8 0

0101000
+84 3 *
Ve
1e-007
7 3 0
0 0

0101101
*
Ed
 1e-007 1 1 0
1  22 0 3 7
2  45 14 0 3 7
2  46 9 2 3 7
4 G1 14 0 9 2
0

0101000
+118 0 -82 0 *
Ve
1e-007
7 7 0
0 0

0101101
*
Ed
 1e-007 1 1 0
1  23 0 3 7
2  47 17 0 3 7
2  48 9 2 3 7
4 G1 17 0 9 2
0

0101000
+116 0 -80 0 *
Ed
 1e-007 1 1 0
1  24 0 3 7
2  49 18 0 3 7
2  50 9 2 3 7
4 G1 18 0 9 2
0

0101000
+82 0 -80 0 *
Wi

0101100
-115 0 +81 0 -79 0 +78 0 *
Fa
0  1e-007 9 0

0101000
+77 3 *
Ed
 1e-007 1 1 1
2  51 10 0 0 1.5707963267949
0

0101000
+116 0 -116 0 *
Ed
 1e-007 1 1 0
1  25 0 4.71238898038469 6.28318530717959
2  52 17 0 4.71238898038469 6.28318530717959
2  53 10 0 4.71238898038469 6.28318530717959
4 G1 10 0 17 0
0

0101000
+116 0 -104 0 *
Wi

0101100
-114 0 +75 0 +74 0 -103 0 *
Fa
0  0 10 0

0101000
+73 0 *
Ve
1e-007
7 3 10
0 0

0101101
*
Ed
 1e-007 1 1 0
1  26 0 3 7
2  54 15 0 3 7
2  55 11 2 3 7
4 G1 15 0 11 2
0

0101000
+111 0 -71 0 *
Ve
1e-007
7 7 10
0 0

0101101
*
Ed
 1e-007 1 1 0
1  27 0 3 7
2  56 19 0 3 7
2  57 11 2 3 7
4 G1 19 0 11 2
0

0101000
+109 0 -69 0 *
Ed
 1e-007 1 1 0
1  28 0 3 7
2  58 20 0 3 7
2  59 11 2 3 7
4 G1 20 0 11 2
0

0101000
+71 0 -69 0 *
Wi

0101100
-108 0 +70 0 -68 0 +67 0 *
Fa
0  1e-007 11 0

0101000
+66 3 *
Ed
 1e-007 1 1 1
2  60 12 0 0 1.5707963267949
0

0101000
+102 0 -102 0 *
Ed
 1e-007 1 1 0
1  29 0 4.71238898038469 6.28318530717959
2  61 19 0 4.71238898038469 6.28318530717959
2  62 12 0 4.71238898038469 6.28318530717959
4 G1 12 0 19 0
0

0101000
+102 0 -109 0 *
Wi

0101100
-101 0 +64 0 +63 0 -107 0 *
Fa
0  0 12 0

0101000
+62 0 *
Ve
1e-007
7 10 3
0 0

0101101
*
Ed
 1e-007 1 1 0
1  30 0 3 7
2  63 17 0 3 7
2  64 13 2 3 7
4 G1 17 0 13 2
0

0101000
+104 0 -60 0 *
Ve
1e-007
7 10 7
0 0

0101101
*
Ed
 1e-007 1 1 0
1  31 0 3 7
2  65 19 0 3 7
2  66 13 2 3 7
4 G1 19 0 13 2
0

0101000
+102 0 -58 0 *
Ed
 1e-007 1 1 0
1  32 0 3 7
2  67 21 0 3 7
2  68 13 2 3 7
4 G1 21 0 13 2
0

0101000
+60 0 -58 0 *
Wi

0101100
+100 0 -59 0 +57 0 -56 0 *
Fa
0  1e-007 13 0

0101000
+55 3 *
Ed
 1e-007 1 1 0
1  33 0 4.71238898038469 6.28318530717959
2  69 14 0 4.71238898038469 6.28318530717959
2  70 22 0 4.71238898038469 6.28318530717959
4 G1 22 0 14 0
0

0101000
+82 0 -89 0 *
Wi

0101100
-96 0 +81 0 -88 0 +53 0 *
Fa
0  0 14 0

0101000
+52 0 *
Ed
 1e-007 1 1 0
1  34 0 4.71238898038469 6.28318530717959
2  71 15 0 4.71238898038469 6.28318530717959
2  72 23 0 4.71238898038469 6.28318530717959
4 G1 23 0 15 0
0

0101000
+71 0 -87 0 *
Wi

0101100
-92 0 +70 0 -86 0 +50 0 *
Fa
0  0 15 0

0101000
+49 0 *
Ve
1e-007
10 3 3
0 0

0101101
*
Ve
1e-007
10 3 7
0 0

0101101
*
Ed
 1e-007 1 1 0
1  35 0 3 7
2  73 16 0 3 7
2  74 24 2 3 7
4 G1 16 0 24 2
0

0101000
+47 0 -46 0 *
Ed
 1e-007 1 1 0
1  36 0 0 1.5707963267949
2  75 16 0 0 1.5707963267949
2  76 22 0 0 1.5707963267949
4 G1 22 0 16 0
0

0101000
+47 0 -89 0 *
Ed
 1e-007 1 1 0
1  37 0 0 1.5707963267949
2  77 16 0 0 1.5707963267949
2  78 23 0 0 1.5707963267949
4 G1 23 0 16 0
0

0101000
+46 0 -87 0 *
Wi

0101100
-45 0 +44 0 -43 0 +85 0 *
Fa
0  0 16 0

0101000
+42 0 *
Ed
 1e-007 1 1 0
1  38 0 4.71238898038469 6.28318530717959
2  79 17 0 4.71238898038469 6.28318530717959
2  80 25 0 4.71238898038469 6.28318530717959
4 G1 25 0 17 0
0

0101000
+80 0 -60 0 *
Wi

0101100
-74 0 +79 0 -59 0 +40 0 *
Fa
0  0 17 0

0101000
+39 0 *
Ed
 1e-007 1 1 0
1  39 0 4.71238898038469 6.28318530717959
2  81 18 0 4.71238898038469 6.28318530717959
2  82 22 0 4.71238898038469 6.28318530717959
4 G1 22 0 18 0
0

0101000
+82 0 -47 0 *
Ve
1e-007
10 7 3
0 0

0101101
*
Ed
 1e-007 1 1 0
1  40 0 3 7
2  83 18 0 3 7
2  84 24 2 3 7
4 G1 18 0 24 2
0

0101000
+47 0 -36 0 *
Ed
 1e-007 1 1 0
1  41 0 4.71238898038469 6.28318530717959
2  85 18 0 4.71238898038469 6.28318530717959
2  86 25 0 4.71238898038469 6.28318530717959
4 G1 25 0 18 0
0

0101000
+80 0 -36 0 *
Wi

0101100
-37 0 +78 0 -35 0 +34 0 *
Fa
0  0 18 0

0101000
+33 0 *
Ed
 1e-007 1 1 0
1  42 0 4.71238898038469 6.28318530717959
2  87 19 0 4.71238898038469 6.28318530717959
2  88 26 0 4.71238898038469 6.28318530717959
4 G1 26 0 19 0
0

0101000
+58 0 -69 0 *
Wi

0101100
+63 0 -57 0 +68 0 -31 0 *
Fa
0  0 19 0

0101000
+30 0 *
Ed
 1e-007 1 1 0
1  43 0 4.71238898038469 6.28318530717959
2  89 20 0 4.71238898038469 6.28318530717959
2  90 23 0 4.71238898038469 6.28318530717959
4 G1 23 0 20 0
0

0101000
+71 0 -46 0 *
Ve
1e-007
10 7 7
0 0

0101101
*
Ed
 1e-007 1 1 0
1  44 0 3 7
2  91 20 0 3 7
2  92 24 2 3 7
4 G1 20 0 24 2
0

0101000
+46 0 -27 0 *
Ed
 1e-007 1 1 0
1  45 0 0 1.5707963267949
2  93 20 0 0 1.5707963267949
2  94 26 0 0 1.5707963267949
4 G1 26 0 20 0
0

0101000
+27 0 -69 0 *
Wi

0101100
-28 0 +67 0 -26 0 -25 0 *
Fa
0  0 20 0

0101000
+24 0 *
Ed
 1e-007 1 1 0
1  46 0 3 7
2  95 21 0 3 7
2  96 24 2 3 7
4 G1 21 0 24 2
0

0101000
+36 0 -27 0 *
Ed
 1e-007 1 1 0
1  47 0 0 1.5707963267949
2  97 21 0 0 1.5707963267949
2  98 25 0 0 1.5707963267949
4 G1 25 0 21 0
0

0101000
+36 0 -60 0 *
Ed
 1e-007 1 1 0
1  48 0 4.71238898038469 6.28318530717959
2  99 21 0 4.71238898038469 6.28318530717959
2  100 26 0 4.71238898038469 6.28318530717959
4 G1 26 0 21 0
0

0101000
+58 0 -27 0 *
Wi

0101100
-22 0 +21 0 +20 0 +56 0 *
Fa
0  0 21 0

0101000
+19 0 *
Ed
 1e-007 1 1 1
2  101 22 0 0 1.5707963267949
0

0101000
+82 0 -82 0 *
Wi

0101100
-37 0 +17 0 +53 0 -44 0 *
Fa
0  0 22 0

0101000
+16 0 *
Ed
 1e-007 1 1 1
2  102 23 0 0 1.5707963267949
0

0101000
+71 0 -71 0 *
Wi

0101100
-28 0 +14 0 +50 0 -43 0 *
Fa
0  0 23 0

0101000
+13 0 *
Wi

0101100
-45 0 +35 0 -26 0 +22 0 *
Fa
0  1e-007 24 0

0101000
+11 3 *
Ed
 1e-007 1 1 1
2  103 25 0 0 1.5707963267949
0

0101000
+80 0 -80 0 *
Wi

0101100
-34 0 +9 0 +40 0 -21 0 *
Fa
0  0 25 0

0101000
+8 0 *
Ed
 1e-007 1 1 1
2  104 26 0 0 1.5707963267949
0

0101000
+58 0 -58 0 *
Wi

0101100
-20 0 +6 0 +31 0 -25 0 *
Fa
0  0 26 0

0101000
+5 0 *
Sh

0101100
-126 2 +119 0 -112 0 +105 0 -98 0 +94 0 -90 0 -83 2 -76 2 -72 0 
+65 2 -61 0 +54 2 +51 0 -48 0 -41 0 -38 0 +32 0 +29 0 -23 0 
+18 0 -15 0 +12 0 +10 2 +7 0 +4 0 *
So

0100000
+3 0 *
Co

1100000
+2 0 *

+1 1  