
CASCADE Topology V1, (c) Matra-Datavision
Locations 3
1
              1               0               0              35 
              0               1               0              50 
              0               0               1           52.98 
1
              1               0               0               0 
              0               1               0               0 
              0               0               1               5 
2  1 1 2 1 0
Curve2ds 60
1 0 1.5707963267948966 1 0 
2 35 50 1 0 -0 1 22.860679774997898
1 0 1.4142135623730923 1 0 
1 2 0 0 1 
1 0 1.4142135623730923 1 0 
1 0 2 1 0 
1 0 -1.4142135623730994 1 0 
1 0 98 1 0 
1 0 -1.4142135623730923 1 0 
1 68 0 0 1 
8 1.5707963267948966 3.1415926535897931
1 6.2831853071795862 0 0 1 
8 1.5707963267948966 3.1415926535897931
1 0 0 0 1 
1 0 3.1415926535897931 1 0 
1 0 -0.5 1 0 
1 0.6666666666666663 -0.47140452079103368 0.57735026918962573 0.81649658092772603 
1 0.6666666666666663 -0.47140452079103368 0.57735026918962573 0.81649658092772603 
1 0 -1.4142135623730923 1 0 
1 50.979999999999997 0 0 -1 
1 82.666666666666657 23.098821518760552 -0.57735026918962573 0.81649658092772603 
1 17.333333333333325 -23.098821518760563 0.57735026918962573 -0.81649658092772603 
1 0 -1.4142135623730923 1 0 
1 50.979999999999997 0 0 1 
1 57.66666666666665 16.027753706895069 -0.57735026918962573 0.81649658092772603 
1 12.333333333333325 -16.027753706895087 0.57735026918962573 -0.81649658092772603 
1 0 1.4142135623730852 1 0 
1 50.979999999999997 0 0 1 
1 40.999999999999993 -39.597979746446654 0.57735026918962573 0.81649658092772603 
1 71 -39.597979746446669 0.57735026918962573 0.81649658092772603 
1 0 1.4142135623730923 1 0 
1 50.979999999999997 0 0 -1 
1 0 0 0 -1 
1 6.2831853071795862 0 0 -1 
1 0 0 1 0 
1 0 -4.5 1 0 
1 0 0 1 0 
1 0 0 1 0 
1 0 0 0 -1 
1 0 0 0 1 
1 0 -100 1 0 
1 0 0 1 0 
1 0 0 1 0 
1 0 70 1 0 
1 0 0 0 1 
1 0 0 1 0 
1 0 -100 1 0 
1 0 70 1 0 
1 0 0 0 1 
1 0 100 1 0 
1 0 0 0 -1 
1 70 0 0 1 
8 0 1.5707963267948966
1 6.2831853071795862 0 0 1 
8 0 1.5707963267948966
1 0 0 0 1 
1 0 1.5707963267948966 1 0 
2 0 0 1 0 -0 1 21.860679774997898
7 0 0  7 158 27  25 60  25.244052825216205 60.244052740673837  25.509052526963632 60.46735948657512  25.792778872691954 60.667637249622693  26.092569758256758 60.843923577146334  26.405616132984161 60.996117361890668  26.729104924398428 61.1247466782103  27.288125559912089 61.303692280115719  27.519686539868562 61.365956433465271  27.754282210244209 61.417906237276149  27.991248289406293 61.459954133354195  28.230006671038097 61.492548144964637  28.470071063541546 61.516142683500576  29.072640803776078 61.553745128087982  29.436208473104251 61.55703901739053  29.800510919339057 61.542577881488072  30.164537506497318 61.511768767064375  30.527507184217448 61.465893893714288  30.888866242821699 61.406088589382989  31.587650929013108 61.264598904201819  31.925218572709493 61.18433545182269  32.260669403458166 61.093348595569566  32.593734905775996 60.992360743102857  32.924201917159678 60.882008596557981  33.251914465978246 60.762850504381881  33.863131679073625 60.522985759672942  34.147255269965775 60.404143354000986  34.429063867876927 60.279169029922329  34.708485755625617 60.148360900598526  34.985458467249224 60.01198544755578  35.259929924239898 59.870280261679916  36.356930657720248 59.277974626999324  37.158265107290397 58.785555115481372  37.935193410836696 58.251909300113986  38.686468138437853 57.681083790529406  39.410839931783073 57.076324246211854  40.10700703599246 56.439998347799985  41.439998347798578 55.107007035994009  42.076324246207641 54.410839931786164  42.681083790532497 53.686468138438428  43.251909300107954 52.935193410840427  43.785555115481849 52.158265107291584  44.277974626997832 51.356930657722771  44.865000003194986 50.269709414914715  45.001786650814559 50.005196567050049  45.133627080624613 49.738357822737676  45.260309151722787 49.469239674751115  45.381595971063476 49.1978973666819  45.497223635772471 48.924393945533254  45.732573616227441 48.333001283747841  45.850424837225368 48.014476280484892  45.960018396835444 47.693315280263356  46.060849211888289 47.369657321637348  46.152343233967045 47.043690124886162  46.23385098665203 46.715648401640706  46.382116490196715 46.024740653818547  46.446730831150361 45.661592562543611  46.497526481288794 45.296676851313592  46.533377869998894 44.930522546134647  46.553009709515656 44.563879109087274  46.555014946175753 44.197718681182714  46.526061315014111 43.582410759225986  46.505188376996003 43.332418992044566  46.474752578193112 43.083676049656383  46.434243491627157 42.836704035222475  46.383152996409244 42.592130487435504  46.321008390864733 42.350682415988231  46.210622906981875 41.99442254366766  46.170966855949587 41.876656847717761  46.128403033150441 41.759985723329393  46.082889679111076 41.644520677180601  46.034392781470714 41.530378633122119  45.982888159603426 41.417681076816038  45.826795494128682 41.099544985115685  45.714728908443824 40.897944106466966  45.592105049109257 40.702618439446262  45.458997220597681 40.514405903620933  45.315632290247649 40.334098843425274  45.162421417920939 40.162421417921003  44.890615408196723 39.890615408196659  44.777039079132159 39.785414665733981  44.659456416054944 39.684583898398451  44.53807490927317 39.588268889278666  44.413121545375809 39.496578193351105  44.284840216453446 39.409586252065232  43.99176192180407 39.226065770637838  43.825370244928259 39.131977401312817  43.654786997563512 39.045148536744627  43.480481758247649 38.965564515349975  43.302909335211289 38.893142812241642  43.122501000910098 38.82775155650971  42.711874440088749 38.696307719884501  42.480313460132358 38.634043566534956  42.245717789757137 38.582093762724085  42.008751710594694 38.540045866645968  41.769993328962379 38.507451855035434  41.529928936459761 38.483857316499517  40.927359196224408 38.446254871911989  40.56379152689766 38.442960982609669  40.199489080661522 38.457422118511701  39.835462493503066 38.488231232935334  39.472492815784207 38.534106106285769  39.111133757178997 38.593911410616897  38.412349070987965 38.735401095797933  38.074781427291093 38.815664548177345  37.73933059654285 38.906651404429958  37.40626509422502 39.00763925689666  37.075798082840883 39.117991403442034  36.748085534022707 39.237149495617778  36.136868320927213 39.47701424032671  35.852744730034907 39.595856645998744  35.570936132123755 39.720830970077358  35.291514244375172 39.851639099401091  35.014541532751551 39.988014552443829  34.740070075760677 40.129719738319771  33.643069342281755 40.722025372999546  32.841734892705304 41.214444884520447  32.064806589171468 41.748090699882525  31.313531861555767 42.31891620947308  30.589160068220401 42.92367575378622  29.892992964007277 43.560001652200299  28.56000165220221 44.892992964005181  27.923675753789752 45.589160068215804  27.3189162094728 46.313531861557586  26.748090699886916 47.064806589163695  26.214444884520717 47.84173489270578  25.722025373001689 48.64306934227811  25.134999996804968 49.730290585085378  24.998213349185306 49.994803432950171  24.866372919375269 50.261642177262509  24.739690848277156 50.530760325249005  24.618404028936475 50.802102633318263  24.502776364227383 51.07560605446708  24.26742638377252 51.666998716252245  24.149575162774333 51.985523719515598  24.039981603164541 52.306684719736857  23.939150788111771 52.630342678362794  23.847656766032767 52.956309875114258  23.76614901334791 53.284351598359528  23.617883509803079 53.975259346182462  23.553269168849798 54.338407437455096  23.502473518711209 54.703323148687581  23.466622130000967 55.069477453866547  23.446990290484326 55.436120890911461  23.444985053824279 55.80228131881821  23.47393868498591 56.417589240774348  23.494811623004029 56.667581007955626  23.525247421806927 56.916323950343845  23.565756508372889 57.163295964777781  23.616847003590799 57.407869512564709  23.678991609135323 57.649317584011996  23.857885444737384 58.226682403992747  23.986706120732784 58.558729638232293  24.140117563945921 58.880111699776677  24.318732878915583 59.187830800846243  24.522490436893694 59.478879092175333  24.750395985139512 59.750395898674128  25 60 
 0 8 0.034923370319587768 6 0.058939383106716862 6 0.094975568096786922 6 0.12900104850550576 6 0.15899409241312307 6 0.24999701736561153 6 0.34099994231816544 6 0.36991433703917836 6 0.40304672741806424 6 0.43931624735403296 6 0.46427607987073582 6 0.47675627082781197 6 0.50000428148758524 6 0.51566092448971568 6 0.53493830701495193 6 0.55895393020878192 6 0.59498953061154636 6 0.62901445905107689 6 0.65900701640460013 6 0.75000846508647456 6 0.84100991376840561 6 0.86992383943340412 6 0.90305569233096461 6 0.93932462389443261 6 0.96428405150704011 6 1 8
7 0 0  7 158 27  6.2831853071795862 -357.98000060003005  6.2409141252006508 -357.98000060003005  6.198625549689571 -357.98000060003005  6.1565861767907766 -357.98000060003005  6.1149861650588804 -357.98000060003005  6.0739733877639956 -357.98000060003005  6.0336659327613704 -357.98000060003005  5.9669906087298417 -357.98000060003005  5.9401874207284537 -357.98000060003005  5.9137655155565705 -357.98000060003005  5.887732394743046 -357.98000060003005  5.8620889011382102 -357.98000060003005  5.8368303148969982 -357.98000060003005  5.7746079450488113 -357.98000060003005  5.7381216015187704 -357.98000060003005  5.7024438842085754 -357.98000060003005  5.6675314635815344 -357.98000060003005  5.6333385134198499 -357.98000060003005  5.5998144657472535 -357.98000060003005  5.5358262993873995 -357.98000060003005  5.5053020655013629 -357.98000060003005  5.4752850131111881 -357.98000060003005  5.4457367700158539 -357.98000060003005  5.4166220711675956 -357.98000060003005  5.3879068011289268 -357.98000060003005  5.3345671239122856 -357.98000060003005  5.3098627166327912 -357.98000060003005  5.2854216526904478 -357.98000060003005  5.261223935094085 -357.98000060003005  5.2372511547709166 -357.98000060003005  5.2134858829807866 -357.98000060003005  5.1183818947131199 -357.98000060003005  5.0486352678127702 -357.98000060003005  4.9801566583903876 -357.98000060003005  4.912603731213439 -357.98000060003005  4.8456630991365683 -357.98000060003005  4.7790385459750659 -357.98000060003005  4.6457394147944608 -357.98000060003005  4.5791148616329602 -357.98000060003005  4.5121742295563863 -357.98000060003005  4.4446213023788896 -357.98000060003005  4.3761426929568978 -357.98000060003005  4.3063960660564788 -357.98000060003005  4.2121399063615517 -357.98000060003005  4.1892358776698533 -357.98000060003005  4.1661395739961629 -357.98000060003005  4.1428354079227532 -357.98000060003005  4.1193069403760276 -357.98000060003005  4.0955363794204542 -357.98000060003005  4.0439659768312399 -357.98000060003005  4.0160858270859494 -357.98000060003005  3.9878328194599399 -357.98000060003005  3.9591758399262731 -357.98000060003005  3.9300826512501659 -357.98000060003005  3.9005182141593973 -357.98000060003005  3.8375183419049024 -357.98000060003005  3.803988193909448 -357.98000060003005  3.7697942067175561 -357.98000060003005  3.7348849168906058 -357.98000060003005  3.6992130695370009 -357.98000060003005  3.6627330997823089 -357.98000060003005  3.5997047291700746 -357.98000060003005  3.5736106132662755 -357.98000060003005  3.5471028468958932 -357.98000060003005  3.5201747986355127 -357.98000060003005  3.4928259228252512 -357.98000060003005  3.4650629621181284 -357.98000060003005  3.4228217535568097 -357.98000060003005  3.4086421416747434 -357.98000060003005  3.3943659867144782 -357.98000060003005  3.3799964405911416 -357.98000060003005  3.3655374447060282 -357.98000060003005  3.3509938268509356 -357.98000060003005  3.3091328421999968 -357.98000060003005  3.2816156447988889 -357.98000060003005  3.2538644969213015 -357.98000060003005  3.2259282085368062 -357.98000060003005  3.1978610178678109 -357.98000060003005  3.1697248683974428 -357.98000060003005  3.1226466865329421 -357.98000060003005  3.1037000408040334 -357.98000060003005  3.08477376678049 -357.98000060003005  3.065887369269404 -357.98000060003005  3.0470591152129232 -357.98000060003005  3.0283063413935016 -357.98000060003005  2.9866697560834772 -357.98000060003005  2.9638319812379765 -357.98000060003005  2.9411624435057742 -357.98000060003005  2.9186846627910259 -357.98000060003005  2.896417100613776 -357.98000060003005  2.8743740702589764 -357.98000060003005  2.8253979551401471 -357.98000060003005  2.7985947671387339 -357.98000060003005  2.772172861966951 -357.98000060003005  2.7461397411533861 -357.98000060003005  2.7204962475484398 -357.98000060003005  2.6952376613073414 -357.98000060003005  2.6330152914590661 -357.98000060003005  2.5965289479291553 -357.98000060003005  2.560851230618848 -357.98000060003005  2.5259388099917821 -357.98000060003005  2.4917458598302002 -357.98000060003005  2.4582218121575261 -357.98000060003005  2.394233645797704 -357.98000060003005  2.3637094119115849 -357.98000060003005  2.3336923595215149 -357.98000060003005  2.3041441164261811 -357.98000060003005  2.275029417577815 -357.98000060003005  2.2463141475392163 -357.98000060003005  2.1929744703225653 -357.98000060003005  2.1682700630430571 -357.98000060003005  2.1438289991007138 -357.98000060003005  2.1196312815043599 -357.98000060003005  2.0956585011811906 -357.98000060003005  2.0718932293910437 -357.98000060003005  1.9767892411235011 -357.98000060003005  1.9070426142225674 -357.98000060003005  1.8385640048013627 -357.98000060003005  1.7710110776230876 -357.98000060003005  1.704070445547067 -357.98000060003005  1.6374458923852457 -357.98000060003005  1.5041467612047483 -357.98000060003005  1.4375222080432053 -357.98000060003005  1.3705815759664097 -357.98000060003005  1.3030286487892542 -357.98000060003005  1.2345500393671351 -357.98000060003005  1.1648034124666093 -357.98000060003005  1.0705472527717499 -357.98000060003005  1.0476432240800364 -357.98000060003005  1.0245469204063486 -357.98000060003005  1.0012427543329518 -357.98000060003005  0.97771428678622563 -357.98000060003005  0.95394372583063336 -357.98000060003005  0.9023733232414386 -357.98000060003005  0.87449317349611844 -357.98000060003005  0.84624016587012085 -357.98000060003005  0.8175831863364611 -357.98000060003005  0.78848999766034067 -357.98000060003005  0.75892556056958227 -357.98000060003005  0.69592568831501611 -357.98000060003005  0.66239554031979686 -357.98000060003005  0.62820155312763426 -357.98000060003005  0.59329226330068408 -357.98000060003005  0.55762041594734846 -357.98000060003005  0.5211404461924215 -357.98000060003005  0.45811207558024564 -357.98000060003005  0.43201795967649986 -357.98000060003005  0.40551019330604265 -357.98000060003005  0.37858214504566018 -357.98000060003005  0.35123326923547327 -357.98000060003005  0.32347030852830855 -357.98000060003005  0.25501301184228081 -357.98000060003005  0.2138710831498799 -357.98000060003005  0.17198156548740631 -357.98000060003005  0.12946737828717678 -357.98000060003005  0.086483931586670726 -357.98000060003005  0.043232691039276128 -357.98000060003005  0 -357.98000060003005 
 0 8 0.034923370319587768 6 0.058939383106716862 6 0.094975568096786922 6 0.12900104850550576 6 0.15899409241312307 6 0.24999701736561153 6 0.34099994231816544 6 0.36991433703917836 6 0.40304672741806424 6 0.43931624735403296 6 0.46427607987073582 6 0.47675627082781197 6 0.50000428148758524 6 0.51566092448971568 6 0.53493830701495193 6 0.55895393020878192 6 0.59498953061154636 6 0.62901445905107689 6 0.65900701640460013 6 0.75000846508647456 6 0.84100991376840561 6 0.86992383943340412 6 0.90305569233096461 6 0.93932462389443261 6 0.96428405150704011 6 1 8
7 0 0  7 158 27  -10 10  -9.7559471747837954 10.24405274067384  -9.4909474730363677 10.467359486575116  -9.2072211273080473 10.667637249622693  -8.9074302417432403 10.843923577146334  -8.594383867015841 10.996117361890665  -8.2708950756015724 11.1247466782103  -7.7118744400879118 11.303692280115722  -7.4803134601314367 11.365956433465266  -7.2457177897557878 11.417906237276144  -7.0087517105937058 11.459954133354199  -6.7699933289619025 11.492548144964648  -6.529928936458453 11.516142683500579  -5.9273591962239234 11.553745128087984  -5.5637915268957459 11.557039017390522  -5.1994890806609408 11.542577881488075  -4.8354624935026838 11.511768767064369  -4.4724928157825508 11.465893893714284  -4.1111337571783002 11.406088589382986  -3.4123490709868878 11.264598904201813  -3.0747814272905041 11.184335451822685  -2.7393305965418371 11.093348595569568  -2.4062650942240125 10.992360743102868  -2.0757980828403233 10.882008596557981  -1.7480855340217556 10.762850504381873  -1.1368683209263648 10.522985759672935  -0.85274473003422746 10.404143354000979  -0.57093613212307481 10.279169029922327  -0.29151424437438195 10.148360900598524  -0.014541532750776461 10.011985447555777  0.25992992423989875 9.8702802616799339  1.3569306577202482 9.2779746269993275  2.1582651072903953 8.7855551154813725  2.9351934108366962 8.2519093001139865  3.6864681384378528 7.6810837905294065  4.4108399317830713 7.0763242462118505  5.10700703599246 6.4399983477999818  6.439998347798582 5.107007035994009  7.0763242462076406 4.4108399317861657  7.6810837905324973 3.6864681384384284  8.251909300107954 2.9351934108404301  8.7855551154818485 2.1582651072915873  9.2779746269978318 1.3569306577227671  9.865000003194984 0.26970941491471684  10.001786650814562 0.0051965670500439222  10.133627080624619 -0.26164217726231648  10.260309151722796 -0.53076032524888828  10.381595971063478 -0.8021026333181015  10.497223635772473 -1.0756060544667478  10.732573616227443 -1.6669987162521553  10.85042483722537 -1.9855237195151101  10.960018396835448 -2.3066847197366416  11.060849211888284 -2.6303426783626591  11.152343233967045 -2.9563098751138335  11.233850986652028 -3.2843515983592866  11.382116490196713 -3.9752593461814447  11.44673083115036 -4.3384074374563841  11.497526481288796 -4.7033231486864091  11.533377869998887 -5.0694774538653524  11.55300970951566 -5.4361208909127203  11.555014946175756 -5.8022813188172835  11.526061315014115 -6.4175892407740021  11.505188376996003 -6.6675810079554276  11.47475257819311 -6.91632395034362  11.434243491627152 -7.1632959647775198  11.383152996409249 -7.4078695125644938  11.321008390864737 -7.6493175840117642  11.210622906981868 -8.0055774563323379  11.17096685594959 -8.1233431522822386  11.128403033150448 -8.2400142766706086  11.082889679111082 -8.3554793228194004  11.034392781470709 -8.4696213668778739  10.982888159603423 -8.5823189231839621  10.826795494128673 -8.9004550148843116  10.714728908443819 -9.1020558935330396  10.592105049109259 -9.29738156055374  10.458997220597679 -9.4855940963790619  10.315632290247644 -9.6659011565747281  10.162421417920935 -9.8375785820789954  9.8906154081967212 -10.109384591803334  9.77703907913215 -10.214585334266022  9.659456416054951 -10.315416101601544  9.5380749092731794 -10.411731110721329  9.4131215453758053 -10.503421806648896  9.2848402164534445 -10.590413747934766  8.9917619218040699 -10.773934229362158  8.8253702449282603 -10.868022598687187  8.6547869975635159 -10.954851463255377  8.4804817582476488 -11.034435484650018  8.302909335211293 -11.10685718775836  8.1225010009100949 -11.172248443490295  7.7118744400887556 -11.303692280115495  7.4803134601323507 -11.365956433465042  7.2457177897571308 -11.417906237275906  7.0087517105946961 -11.459954133354032  6.7699933289623839 -11.492548144964568  6.5299289364597586 -11.516142683500474  5.9273591962244154 -11.553745128088002  5.5637915268976617 -11.557039017390327  5.1994890806615226 -11.542577881488301  4.8354624935030648 -11.511768767064664  4.4724928157842054 -11.465893893714227  4.1111337571789992 -11.406088589383106  3.4123490709879669 -11.264598904202066  3.0747814272910921 -11.184335451822658  2.7393305965428412 -11.093348595570049  2.4062650942250192 -10.992360743103344  2.0757980828408797 -10.882008596557968  1.7480855340227082 -10.762850504382227  1.1368683209272201 -10.522985759673285  0.85274473003490903 -10.404143354001262  0.57093613212375871 -10.279169029922638  0.2915142443751722 -10.148360900598918  0.014541532751550627 -10.011985447556174  -0.2599299242393166 -9.8702802616802341  -1.3569306577182427 -9.2779746270004502  -2.1582651072946923 -8.7855551154795535  -2.9351934108285356 -8.2519093001174788  -3.6864681384442353 -7.6810837905269214  -4.4108399317796003 -7.0763242462137823  -5.1070070359927211 -6.439998347799702  -6.4399983477977889 -5.1070070359948208  -7.0763242462102491 -4.4108399317841975  -7.6810837905271994 -3.6864681384424145  -8.2519093001130841 -2.9351934108363054  -8.7855551154792835 -2.1582651072942198  -9.2779746269983114 -1.3569306577218878  -9.8650000031950356 -0.26970941491461758  -10.001786650814694 -0.0051965670498359973  -10.133627080624734 0.26164217726250655  -10.260309151722845 0.5307603252490084  -10.381595971063527 0.80210263331826492  -10.497223635772617 1.0756060544670822  -10.73257361622748 1.6669987162522513  -10.850424837225669 1.9855237195156108  -10.960018396835457 2.3066847197368565  -11.060849211888225 2.6303426783627963  -11.152343233967235 2.9563098751142527  -11.233850986652087 3.2843515983595291  -11.382116490196923 3.9752593461824595  -11.446730831150205 4.3384074374551025  -11.497526481288787 4.7033231486875851  -11.533377869999029 5.0694774538665541  -11.553009709515672 5.4361208909114556  -11.555014946175721 5.8022813188182054  -11.52606131501409 6.4175892407743476  -11.505188376995969 6.6675810079556381  -11.474752578193071 6.9163239503438501  -11.434243491627111 7.1632959647777712  -11.383152996409205 7.4078695125647025  -11.321008390864678 7.6493175840119889  -11.142114555262614 8.2266824039927471  -11.013293879267215 8.5587296382322968  -10.859882436054081 8.8801116997766734  -10.681267121084417 9.1878308008462426  -10.477509563106306 9.4788790921753296  -10.249604014860488 9.7503958986741317  -10 10 
 0 8 0.034923370319587768 6 0.058939383106716862 6 0.094975568096786922 6 0.12900104850550576 6 0.15899409241312307 6 0.24999701736561153 6 0.34099994231816544 6 0.36991433703917836 6 0.40304672741806424 6 0.43931624735403296 6 0.46427607987073582 6 0.47675627082781197 6 0.50000428148758524 6 0.51566092448971568 6 0.53493830701495193 6 0.55895393020878192 6 0.59498953061154636 6 0.62901445905107689 6 0.65900701640460013 6 0.75000846508647456 6 0.84100991376840561 6 0.86992383943340412 6 0.90305569233096461 6 0.93932462389443261 6 0.96428405150704011 6 1 8
7 0 0  7 158 27  6.2831853071795862 -300.00000060003003  6.2409141252006508 -300.00000060003003  6.198625549689571 -300.00000060003003  6.1565861767907766 -300.00000060003003  6.1149861650588804 -300.00000060003003  6.0739733877639956 -300.00000060003003  6.0336659327613704 -300.00000060003003  5.9669906087298417 -300.00000060003003  5.9401874207284537 -300.00000060003003  5.9137655155565705 -300.00000060003003  5.887732394743046 -300.00000060003003  5.8620889011382102 -300.00000060003003  5.8368303148969982 -300.00000060003003  5.7746079450488113 -300.00000060003003  5.7381216015187704 -300.00000060003003  5.7024438842085754 -300.00000060003003  5.6675314635815344 -300.00000060003003  5.6333385134198499 -300.00000060003003  5.5998144657472535 -300.00000060003003  5.5358262993873995 -300.00000060003003  5.5053020655013629 -300.00000060003003  5.4752850131111881 -300.00000060003003  5.4457367700158539 -300.00000060003003  5.4166220711675956 -300.00000060003003  5.3879068011289268 -300.00000060003003  5.3345671239122856 -300.00000060003003  5.3098627166327912 -300.00000060003003  5.2854216526904478 -300.00000060003003  5.261223935094085 -300.00000060003003  5.2372511547709166 -300.00000060003003  5.2134858829807866 -300.00000060003003  5.1183818947131199 -300.00000060003003  5.0486352678127702 -300.00000060003003  4.9801566583903876 -300.00000060003003  4.912603731213439 -300.00000060003003  4.8456630991365683 -300.00000060003003  4.7790385459750659 -300.00000060003003  4.6457394147944608 -300.00000060003003  4.5791148616329602 -300.00000060003003  4.5121742295563863 -300.00000060003003  4.4446213023788896 -300.00000060003003  4.3761426929568978 -300.00000060003003  4.3063960660564788 -300.00000060003003  4.2121399063615517 -300.00000060003003  4.1892358776698533 -300.00000060003003  4.1661395739961629 -300.00000060003003  4.1428354079227532 -300.00000060003003  4.1193069403760276 -300.00000060003003  4.0955363794204542 -300.00000060003003  4.0439659768312399 -300.00000060003003  4.0160858270859494 -300.00000060003003  3.9878328194599399 -300.00000060003003  3.9591758399262731 -300.00000060003003  3.9300826512501659 -300.00000060003003  3.9005182141593973 -300.00000060003003  3.8375183419049024 -300.00000060003003  3.803988193909448 -300.00000060003003  3.7697942067175561 -300.00000060003003  3.7348849168906058 -300.00000060003003  3.6992130695370009 -300.00000060003003  3.6627330997823089 -300.00000060003003  3.5997047291700746 -300.00000060003003  3.5736106132662755 -300.00000060003003  3.5471028468958932 -300.00000060003003  3.5201747986355127 -300.00000060003003  3.4928259228252512 -300.00000060003003  3.4650629621181284 -300.00000060003003  3.4228217535568097 -300.00000060003003  3.4086421416747434 -300.00000060003003  3.3943659867144782 -300.00000060003003  3.3799964405911416 -300.00000060003003  3.3655374447060282 -300.00000060003003  3.3509938268509356 -300.00000060003003  3.3091328421999968 -300.00000060003003  3.2816156447988889 -300.00000060003003  3.2538644969213015 -300.00000060003003  3.2259282085368062 -300.00000060003003  3.1978610178678109 -300.00000060003003  3.1697248683974428 -300.00000060003003  3.1226466865329421 -300.00000060003003  3.1037000408040334 -300.00000060003003  3.08477376678049 -300.00000060003003  3.065887369269404 -300.00000060003003  3.0470591152129232 -300.00000060003003  3.0283063413935016 -300.00000060003003  2.9866697560834772 -300.00000060003003  2.9638319812379765 -300.00000060003003  2.9411624435057742 -300.00000060003003  2.9186846627910259 -300.00000060003003  2.896417100613776 -300.00000060003003  2.8743740702589764 -300.00000060003003  2.8253979551401471 -300.00000060003003  2.7985947671387339 -300.00000060003003  2.772172861966951 -300.00000060003003  2.7461397411533861 -300.00000060003003  2.7204962475484398 -300.00000060003003  2.6952376613073414 -300.00000060003003  2.6330152914590661 -300.00000060003003  2.5965289479291553 -300.00000060003003  2.560851230618848 -300.00000060003003  2.5259388099917821 -300.00000060003003  2.4917458598302002 -300.00000060003003  2.4582218121575261 -300.00000060003003  2.394233645797704 -300.00000060003003  2.3637094119115849 -300.00000060003003  2.3336923595215149 -300.00000060003003  2.3041441164261811 -300.00000060003003  2.275029417577815 -300.00000060003003  2.2463141475392163 -300.00000060003003  2.1929744703225653 -300.00000060003003  2.1682700630430571 -300.00000060003003  2.1438289991007138 -300.00000060003003  2.1196312815043599 -300.00000060003003  2.0956585011811906 -300.00000060003003  2.0718932293910437 -300.00000060003003  1.9767892411235011 -300.00000060003003  1.9070426142225674 -300.00000060003003  1.8385640048013627 -300.00000060003003  1.7710110776230876 -300.00000060003003  1.704070445547067 -300.00000060003003  1.6374458923852457 -300.00000060003003  1.5041467612047483 -300.00000060003003  1.4375222080432053 -300.00000060003003  1.3705815759664097 -300.00000060003003  1.3030286487892542 -300.00000060003003  1.2345500393671351 -300.00000060003003  1.1648034124666093 -300.00000060003003  1.0705472527717499 -300.00000060003003  1.0476432240800364 -300.00000060003003  1.0245469204063486 -300.00000060003003  1.0012427543329518 -300.00000060003003  0.97771428678622563 -300.00000060003003  0.95394372583063336 -300.00000060003003  0.9023733232414386 -300.00000060003003  0.87449317349611844 -300.00000060003003  0.84624016587012085 -300.00000060003003  0.8175831863364611 -300.00000060003003  0.78848999766034067 -300.00000060003003  0.75892556056958227 -300.00000060003003  0.69592568831501611 -300.00000060003003  0.66239554031979686 -300.00000060003003  0.62820155312763426 -300.00000060003003  0.59329226330068408 -300.00000060003003  0.55762041594734846 -300.00000060003003  0.5211404461924215 -300.00000060003003  0.45811207558024564 -300.00000060003003  0.43201795967649986 -300.00000060003003  0.40551019330604265 -300.00000060003003  0.37858214504566018 -300.00000060003003  0.35123326923547327 -300.00000060003003  0.32347030852830855 -300.00000060003003  0.25501301184228081 -300.00000060003003  0.2138710831498799 -300.00000060003003  0.17198156548740631 -300.00000060003003  0.12946737828717678 -300.00000060003003  0.086483931586670726 -300.00000060003003  0.043232691039276128 -300.00000060003003  0 -300.00000060003003 
 0 8 0.034923370319587768 6 0.058939383106716862 6 0.094975568096786922 6 0.12900104850550576 6 0.15899409241312307 6 0.24999701736561153 6 0.34099994231816544 6 0.36991433703917836 6 0.40304672741806424 6 0.43931624735403296 6 0.46427607987073582 6 0.47675627082781197 6 0.50000428148758524 6 0.51566092448971568 6 0.53493830701495193 6 0.55895393020878192 6 0.59498953061154636 6 0.62901445905107689 6 0.65900701640460013 6 0.75000846508647456 6 0.84100991376840561 6 0.86992383943340412 6 0.90305569233096461 6 0.93932462389443261 6 0.96428405150704011 6 1 8
1 0 0 0 -1 
1 6.2831853071795862 0 0 -1 
Curves 30
2 35 50 52.979999999999997 0 0 1 1 0 -0 -0 1 0 22.860679774997898
1 2 0 52.979999999999997 -0 1 0 
1 0 2 52.979999999999997 1 0 -0 
1 0 98 52.979999999999997 1 0 -0 
1 68 0 52.979999999999997 0 1 0 
2 57.860679774997898 50 53.479999999999997 -0 1 0 1 0 -0 -0 0 -1 0.5
2 35 50 53.479999999999997 0 0 1 1 0 -0 -0 1 0 22.360679774997898
8 -1.1547005383792475 2.3094010767585029
1 0.6666666666666663 0.6666666666666663 51.646666666666661 0.57735026918962573 0.57735026918962573 0.57735026918962573 
1 0 0 50.979999999999997 -0 1 0 
8 -30.022213997860533 -26.55811238272279
1 17.333333333333325 82.666666666666657 68.313333333333333 0.57735026918962573 -0.57735026918962573 0.57735026918962573 
1 0 0 50.979999999999997 1 0 -0 
8 -21.361959960016154 -17.897858344878401
1 57.66666666666665 12.333333333333325 63.313333333333325 -0.57735026918962573 0.57735026918962573 0.57735026918962573 
1 0 100 50.979999999999997 1 0 -0 
8 46.765371804359681 50.229473419497438
1 40.999999999999993 71 79.97999999999999 0.57735026918962573 0.57735026918962573 -0.57735026918962573 
1 70 0 50.979999999999997 0 1 0 
1 57.360679774997898 50 52.979999999999997 0 0 1 
2 35 50 57.479999999999997 0 0 1 1 0 -0 -0 1 0 22.360679774997898
1 0 0 0 0 0 1 
1 0 0 0 -0 1 0 
1 0 100 0 0 0 1 
1 70 0 0 0 0 1 
1 0 0 0 1 0 -0 
1 70 100 0 0 0 1 
1 0 100 0 1 0 -0 
1 70 0 0 -0 1 0 
2 56.860679774997898 50 57.479999999999997 0 -1 0 1 0 0 -0 0 1 0.5
2 35 50 57.979999999999997 0 0 1 1 0 -0 -0 1 0 21.860679774997898
7 0 0  7 158 27  25 60 0  25.244052825216205 60.244052740673837 0  25.509052526963632 60.46735948657512 0  25.792778872691954 60.667637249622693 0  26.092569758256758 60.843923577146334 0  26.405616132984161 60.996117361890668 0  26.729104924398428 61.1247466782103 0  27.288125559912089 61.303692280115719 0  27.519686539868562 61.365956433465271 0  27.754282210244209 61.417906237276149 0  27.991248289406293 61.459954133354195 0  28.230006671038097 61.492548144964637 0  28.470071063541546 61.516142683500576 0  29.072640803776078 61.553745128087982 0  29.436208473104251 61.55703901739053 0  29.800510919339057 61.542577881488072 0  30.164537506497318 61.511768767064375 0  30.527507184217448 61.465893893714288 0  30.888866242821699 61.406088589382989 0  31.587650929013108 61.264598904201819 0  31.925218572709493 61.18433545182269 0  32.260669403458166 61.093348595569566 0  32.593734905775996 60.992360743102857 0  32.924201917159678 60.882008596557981 0  33.251914465978246 60.762850504381881 0  33.863131679073625 60.522985759672942 0  34.147255269965775 60.404143354000986 0  34.429063867876927 60.279169029922329 0  34.708485755625617 60.148360900598526 0  34.985458467249224 60.01198544755578 0  35.259929924239898 59.870280261679916 0  36.356930657720248 59.277974626999324 0  37.158265107290397 58.785555115481372 0  37.935193410836696 58.251909300113986 0  38.686468138437853 57.681083790529406 0  39.410839931783073 57.076324246211854 0  40.10700703599246 56.439998347799985 0  41.439998347798578 55.107007035994009 0  42.076324246207641 54.410839931786164 0  42.681083790532497 53.686468138438428 0  43.251909300107954 52.935193410840427 0  43.785555115481849 52.158265107291584 0  44.277974626997832 51.356930657722771 0  44.865000003194986 50.269709414914715 0  45.001786650814559 50.005196567050049 0  45.133627080624613 49.738357822737676 0  45.260309151722787 49.469239674751115 0  45.381595971063476 49.1978973666819 0  45.497223635772471 48.924393945533254 0  45.732573616227441 48.333001283747841 0  45.850424837225368 48.014476280484892 0  45.960018396835444 47.693315280263356 0  46.060849211888289 47.369657321637348 0  46.152343233967045 47.043690124886162 0  46.23385098665203 46.715648401640706 0  46.382116490196715 46.024740653818547 0  46.446730831150361 45.661592562543611 0  46.497526481288794 45.296676851313592 0  46.533377869998894 44.930522546134647 0  46.553009709515656 44.563879109087274 0  46.555014946175753 44.197718681182714 0  46.526061315014111 43.582410759225986 0  46.505188376996003 43.332418992044566 0  46.474752578193112 43.083676049656383 0  46.434243491627157 42.836704035222475 0  46.383152996409244 42.592130487435504 0  46.321008390864733 42.350682415988231 0  46.210622906981875 41.99442254366766 0  46.170966855949587 41.876656847717761 0  46.128403033150441 41.759985723329393 0  46.082889679111076 41.644520677180601 0  46.034392781470714 41.530378633122119 0  45.982888159603426 41.417681076816038 0  45.826795494128682 41.099544985115685 0  45.714728908443824 40.897944106466966 0  45.592105049109257 40.702618439446262 0  45.458997220597681 40.514405903620933 0  45.315632290247649 40.334098843425274 0  45.162421417920939 40.162421417921003 0  44.890615408196723 39.890615408196659 0  44.777039079132159 39.785414665733981 0  44.659456416054944 39.684583898398451 0  44.53807490927317 39.588268889278666 0  44.413121545375809 39.496578193351105 0  44.284840216453446 39.409586252065232 0  43.99176192180407 39.226065770637838 0  43.825370244928259 39.131977401312817 0  43.654786997563512 39.045148536744627 0  43.480481758247649 38.965564515349975 0  43.302909335211289 38.893142812241642 0  43.122501000910098 38.82775155650971 0  42.711874440088749 38.696307719884501 0  42.480313460132358 38.634043566534956 0  42.245717789757137 38.582093762724085 0  42.008751710594694 38.540045866645968 0  41.769993328962379 38.507451855035434 0  41.529928936459761 38.483857316499517 0  40.927359196224408 38.446254871911989 0  40.56379152689766 38.442960982609669 0  40.199489080661522 38.457422118511701 0  39.835462493503066 38.488231232935334 0  39.472492815784207 38.534106106285769 0  39.111133757178997 38.593911410616897 0  38.412349070987965 38.735401095797933 0  38.074781427291093 38.815664548177345 0  37.73933059654285 38.906651404429958 0  37.40626509422502 39.00763925689666 0  37.075798082840883 39.117991403442034 0  36.748085534022707 39.237149495617778 0  36.136868320927213 39.47701424032671 0  35.852744730034907 39.595856645998744 0  35.570936132123755 39.720830970077358 0  35.291514244375172 39.851639099401091 0  35.014541532751551 39.988014552443829 0  34.740070075760677 40.129719738319771 0  33.643069342281755 40.722025372999546 0  32.841734892705304 41.214444884520447 0  32.064806589171468 41.748090699882525 0  31.313531861555767 42.31891620947308 0  30.589160068220401 42.92367575378622 0  29.892992964007277 43.560001652200299 0  28.56000165220221 44.892992964005181 0  27.923675753789752 45.589160068215804 0  27.3189162094728 46.313531861557586 0  26.748090699886916 47.064806589163695 0  26.214444884520717 47.84173489270578 0  25.722025373001689 48.64306934227811 0  25.134999996804968 49.730290585085378 0  24.998213349185306 49.994803432950171 0  24.866372919375269 50.261642177262509 0  24.739690848277156 50.530760325249005 0  24.618404028936475 50.802102633318263 0  24.502776364227383 51.07560605446708 0  24.26742638377252 51.666998716252245 0  24.149575162774333 51.985523719515598 0  24.039981603164541 52.306684719736857 0  23.939150788111771 52.630342678362794 0  23.847656766032767 52.956309875114258 0  23.76614901334791 53.284351598359528 0  23.617883509803079 53.975259346182462 0  23.553269168849798 54.338407437455096 0  23.502473518711209 54.703323148687581 0  23.466622130000967 55.069477453866547 0  23.446990290484326 55.436120890911461 0  23.444985053824279 55.80228131881821 0  23.47393868498591 56.417589240774348 0  23.494811623004029 56.667581007955626 0  23.525247421806927 56.916323950343845 0  23.565756508372889 57.163295964777781 0  23.616847003590799 57.407869512564709 0  23.678991609135323 57.649317584011996 0  23.857885444737384 58.226682403992747 0  23.986706120732784 58.558729638232293 0  24.140117563945921 58.880111699776677 0  24.318732878915583 59.187830800846243 0  24.522490436893694 59.478879092175333 0  24.750395985139512 59.750395898674128 0  25 60 0 
 0 8 0.034923370319587768 6 0.058939383106716862 6 0.094975568096786922 6 0.12900104850550576 6 0.15899409241312307 6 0.24999701736561153 6 0.34099994231816544 6 0.36991433703917836 6 0.40304672741806424 6 0.43931624735403296 6 0.46427607987073582 6 0.47675627082781197 6 0.50000428148758524 6 0.51566092448971568 6 0.53493830701495193 6 0.55895393020878192 6 0.59498953061154636 6 0.62901445905107689 6 0.65900701640460013 6 0.75000846508647456 6 0.84100991376840561 6 0.86992383943340412 6 0.90305569233096461 6 0.93932462389443261 6 0.96428405150704011 6 1 8
7 0 0  7 158 27  25 60 57.979999999999997  25.244052825216205 60.244052740673837 57.979999999999997  25.509052526963632 60.46735948657512 57.979999999999997  25.792778872691954 60.667637249622693 57.979999999999997  26.092569758256758 60.843923577146334 57.979999999999997  26.405616132984157 60.996117361890668 57.979999999999997  26.729104924398428 61.1247466782103 57.979999999999997  27.288125559912089 61.303692280115726 57.979999999999997  27.519686539868562 61.365956433465264 57.979999999999997  27.754282210244213 61.417906237276142 57.979999999999997  27.991248289406293 61.459954133354202 57.979999999999997  28.230006671038097 61.492548144964644 57.979999999999997  28.470071063541546 61.516142683500576 57.979999999999997  29.072640803776075 61.553745128087982 57.979999999999997  29.436208473104255 61.557039017390522 57.979999999999997  29.800510919339061 61.542577881488072 57.979999999999997  30.164537506497318 61.511768767064368 57.979999999999997  30.527507184217448 61.465893893714281 57.979999999999997  30.888866242821699 61.406088589382989 57.979999999999997  31.587650929013112 61.264598904201812 57.979999999999997  31.925218572709497 61.184335451822683 57.979999999999997  32.260669403458166 61.093348595569566 57.979999999999997  32.593734905775989 60.992360743102864 57.979999999999997  32.924201917159678 60.882008596557981 57.979999999999997  33.251914465978246 60.762850504381873 57.979999999999997  33.863131679073632 60.522985759672935 57.979999999999997  34.147255269965775 60.404143354000979 57.979999999999997  34.429063867876927 60.279169029922329 57.979999999999997  34.708485755625617 60.148360900598526 57.979999999999997  34.985458467249224 60.011985447555773 57.979999999999997  35.259929924239898 59.870280261679937 57.979999999999997  36.356930657720248 59.277974626999324 57.979999999999997  37.158265107290397 58.785555115481372 57.979999999999997  37.935193410836696 58.251909300113986 57.979999999999997  38.686468138437853 57.681083790529406 57.979999999999997  39.410839931783073 57.076324246211854 57.979999999999997  40.10700703599246 56.439998347799985 57.979999999999997  41.439998347798578 55.107007035994009 57.979999999999997  42.076324246207641 54.410839931786164 57.979999999999997  42.681083790532497 53.686468138438428 57.979999999999997  43.251909300107954 52.935193410840427 57.979999999999997  43.785555115481849 52.158265107291584 57.979999999999997  44.277974626997832 51.356930657722771 57.979999999999997  44.865000003194986 50.269709414914715 57.979999999999997  45.001786650814566 50.005196567050042 57.979999999999997  45.13362708062462 49.738357822737683 57.979999999999997  45.260309151722794 49.469239674751108 57.979999999999997  45.381595971063476 49.1978973666819 57.979999999999997  45.497223635772471 48.924393945533254 57.979999999999997  45.732573616227441 48.333001283747848 57.979999999999997  45.850424837225368 48.014476280484892 57.979999999999997  45.960018396835451 47.693315280263356 57.979999999999997  46.060849211888282 47.369657321637341 57.979999999999997  46.152343233967045 47.043690124886169 57.979999999999997  46.23385098665203 46.715648401640713 57.979999999999997  46.382116490196715 46.024740653818554 57.979999999999997  46.446730831150361 45.661592562543618 57.979999999999997  46.497526481288794 45.296676851313592 57.979999999999997  46.533377869998887 44.930522546134647 57.979999999999997  46.553009709515663 44.563879109087281 57.979999999999997  46.55501494617576 44.197718681182714 57.979999999999997  46.526061315014118 43.582410759226001 57.979999999999997  46.505188376996003 43.332418992044573 57.979999999999997  46.474752578193112 43.083676049656383 57.979999999999997  46.43424349162715 42.836704035222482 57.979999999999997  46.383152996409251 42.592130487435504 57.979999999999997  46.321008390864733 42.350682415988238 57.979999999999997  46.210622906981868 41.99442254366766 57.979999999999997  46.170966855949587 41.876656847717761 57.979999999999997  46.128403033150448 41.759985723329393 57.979999999999997  46.082889679111084 41.644520677180601 57.979999999999997  46.034392781470707 41.530378633122126 57.979999999999997  45.982888159603419 41.417681076816038 57.979999999999997  45.826795494128675 41.099544985115685 57.979999999999997  45.714728908443817 40.897944106466959 57.979999999999997  45.592105049109257 40.702618439446262 57.979999999999997  45.458997220597681 40.51440590362094 57.979999999999997  45.315632290247642 40.334098843425274 57.979999999999997  45.162421417920939 40.162421417921003 57.979999999999997  44.890615408196723 39.890615408196666 57.979999999999997  44.777039079132152 39.785414665733981 57.979999999999997  44.659456416054951 39.684583898398458 57.979999999999997  44.538074909273178 39.588268889278673 57.979999999999997  44.413121545375802 39.496578193351105 57.979999999999997  44.284840216453446 39.409586252065232 57.979999999999997  43.99176192180407 39.226065770637845 57.979999999999997  43.825370244928259 39.13197740131281 57.979999999999997  43.654786997563519 39.04514853674462 57.979999999999997  43.480481758247649 38.965564515349982 57.979999999999997  43.302909335211297 38.893142812241642 57.979999999999997  43.122501000910091 38.827751556509703 57.979999999999997  42.711874440088756 38.696307719884501 57.979999999999997  42.480313460132351 38.634043566534956 57.979999999999997  42.24571778975713 38.582093762724092 57.979999999999997  42.008751710594694 38.540045866645968 57.979999999999997  41.769993328962386 38.507451855035434 57.979999999999997  41.529928936459761 38.483857316499524 57.979999999999997  40.927359196224415 38.446254871911997 57.979999999999997  40.56379152689766 38.442960982609677 57.979999999999997  40.199489080661522 38.457422118511701 57.979999999999997  39.835462493503066 38.488231232935334 57.979999999999997  39.472492815784207 38.534106106285776 57.979999999999997  39.111133757178997 38.593911410616897 57.979999999999997  38.412349070987965 38.735401095797933 57.979999999999997  38.074781427291093 38.815664548177338 57.979999999999997  37.739330596542842 38.906651404429951 57.979999999999997  37.40626509422502 39.007639256896653 57.979999999999997  37.075798082840876 39.117991403442034 57.979999999999997  36.748085534022707 39.237149495617771 57.979999999999997  36.136868320927221 39.477014240326717 57.979999999999997  35.852744730034907 39.595856645998737 57.979999999999997  35.570936132123762 39.720830970077358 57.979999999999997  35.291514244375172 39.851639099401083 57.979999999999997  35.014541532751551 39.988014552443829 57.979999999999997  34.740070075760684 40.129719738319764 57.979999999999997  33.643069342281755 40.722025372999553 57.979999999999997  32.841734892705304 41.214444884520447 57.979999999999997  32.064806589171468 41.748090699882525 57.979999999999997  31.313531861555767 42.31891620947308 57.979999999999997  30.589160068220401 42.92367575378622 57.979999999999997  29.892992964007277 43.560001652200299 57.979999999999997  28.56000165220221 44.892992964005181 57.979999999999997  27.923675753789752 45.589160068215804 57.979999999999997  27.3189162094728 46.313531861557586 57.979999999999997  26.748090699886916 47.064806589163695 57.979999999999997  26.214444884520717 47.84173489270578 57.979999999999997  25.722025373001689 48.64306934227811 57.979999999999997  25.134999996804964 49.730290585085385 57.979999999999997  24.998213349185306 49.994803432950164 57.979999999999997  24.866372919375266 50.261642177262509 57.979999999999997  24.739690848277156 50.530760325249005 57.979999999999997  24.618404028936475 50.802102633318263 57.979999999999997  24.502776364227383 51.07560605446708 57.979999999999997  24.26742638377252 51.666998716252252 57.979999999999997  24.149575162774333 51.985523719515612 57.979999999999997  24.039981603164541 52.306684719736857 57.979999999999997  23.939150788111775 52.630342678362794 57.979999999999997  23.847656766032763 52.95630987511425 57.979999999999997  23.766149013347913 53.284351598359528 57.979999999999997  23.617883509803079 53.975259346182462 57.979999999999997  23.553269168849795 54.338407437455103 57.979999999999997  23.502473518711213 54.703323148687588 57.979999999999997  23.466622130000971 55.069477453866554 57.979999999999997  23.446990290484329 55.436120890911454 57.979999999999997  23.444985053824279 55.802281318818203 57.979999999999997  23.47393868498591 56.417589240774348 57.979999999999997  23.494811623004033 56.66758100795564 57.979999999999997  23.525247421806931 56.916323950343852 57.979999999999997  23.565756508372889 57.163295964777774 57.979999999999997  23.616847003590795 57.407869512564702 57.979999999999997  23.678991609135323 57.649317584011989 57.979999999999997  23.857885444737384 58.226682403992747 57.979999999999997  23.986706120732784 58.558729638232293 57.979999999999997  24.140117563945921 58.880111699776677 57.979999999999997  24.318732878915583 59.187830800846243 57.979999999999997  24.522490436893694 59.478879092175333 57.979999999999997  24.750395985139512 59.750395898674128 57.979999999999997  25 60 57.979999999999997 
 0 8 0.034923370319587768 6 0.058939383106716862 6 0.094975568096786922 6 0.12900104850550576 6 0.15899409241312307 6 0.24999701736561153 6 0.34099994231816544 6 0.36991433703917836 6 0.40304672741806424 6 0.43931624735403296 6 0.46427607987073582 6 0.47675627082781197 6 0.50000428148758524 6 0.51566092448971568 6 0.53493830701495193 6 0.55895393020878192 6 0.59498953061154636 6 0.62901445905107689 6 0.65900701640460013 6 0.75000846508647456 6 0.84100991376840561 6 0.86992383943340412 6 0.90305569233096461 6 0.93932462389443261 6 0.96428405150704011 6 1 8
1 25 60 357.98000060003005 -0 -0 -1 
Polygon3D 0
PolygonOnTriangulations 0
Surfaces 15
1 0 0 52.979999999999997 0 0 1 1 0 -0 -0 1 0 
5 35 50 53.479999999999997 -0 -0 -1 1 0 -0 -0 1 -0 22.860679774997898 0.5
1 1 0 51.979999999999997 0.70710678118654757 0 -0.70710678118654757 0 1 0 0.70710678118654757 -0 0.70710678118654757 
1 0 1 51.979999999999997 0 0.70710678118654757 -0.70710678118654757 1 -0 0 -0 0.70710678118654757 0.70710678118654757 
1 0 99 51.979999999999997 0 0.70710678118654757 0.70710678118654757 1 0 -0 -0 0.70710678118654757 -0.70710678118654757 
1 69 0 51.979999999999997 0.70710678118654757 0 0.70710678118654757 -0 1 0 0.70710678118654757 0 -0.70710678118654757 
2 35 50 52.979999999999997 -0 -0 -1 1 0 0 -0 1 -0 22.360679774997898
1 0 0 0 1 0 -0 0 0 1 0 -1 0 
1 0 0 0 -0 1 0 0 0 1 1 0 -0 
1 0 100 0 -0 1 0 0 0 1 1 0 -0 
1 70 0 0 1 0 -0 0 0 1 0 -1 0 
5 35 50 57.479999999999997 0 0 1 1 0 -0 -0 1 0 21.860679774997898 0.5
1 0 0 0 0 0 1 1 0 -0 -0 1 0 
1 0 0 0 0 0 1 1 0 -0 -0 1 0 
6 0 0 1 
3 35 50 357.98000060003005 0 0 1 -0.70710678118654757 0.70710678118654757 0 -0.70710678118654757 -0.70710678118654757 0 14.142135623730951 8.1649658092772608
Triangulations 0

TShapes 84
Ve
1e-007
57.8606797749979 50 52.98
0 0

0101101
*
Ed
 1e-007 1 1 0
1  1 0 0 6.28318530717959
2  1 2 0 0 6.28318530717959
2  2 1 0 0 6.28318530717959
4 G1 2 0 1 0
0

0101000
+84 0 -84 0 *
Wi

0101100
-83 0 *
Ve
0.0001
2 2 52.98
0 0

0101101
*
Ve
0.0001
2 98 52.98
0 0

0101101
*
Ed
 1.00005e-007 1 1 0
1  2 0 2 98
2  3 3 0 2 98
2  4 1 0 2 98
0

0101000
+81 0 -80 0 *
Ve
0.0001
68 2 52.98
0 0

0101101
*
Ed
 1.00005e-007 1 1 0
1  3 0 2 68
2  5 4 0 2 68
2  6 1 0 2 68
0

0101000
+81 0 -78 0 *
Ve
0.0001
68 98 52.98
0 0

0101101
*
Ed
 1.00005e-007 1 1 0
1  4 0 2 68
2  7 5 0 2 68
2  8 1 0 2 68
0

0101000
+80 0 -76 0 *
Ed
 1.00005e-007 1 1 0
1  5 0 2 98
2  9 6 0 2 98
2  10 1 0 2 98
0

0101000
+78 0 -76 0 *
Wi

0101100
-79 0 +77 0 -75 0 +74 0 *
Fa
0  1e-007 1 0

0101000
+82 0 +73 0 *
Ve
1.00005e-007
57.3606797749979 50 53.48
0 0

0101101
*
Ed
 1e-007 1 1 0
1  6 0 1.5707963267949 3.14159265358979
3  11 12CN 2 0 1.5707963267949 3.14159265358979
0

0101000
+84 0 -71 0 *
Ed
 1e-007 1 1 0
1  7 0 0 6.28318530717959
2  13 2 0 0 6.28318530717959
2  14 7 0 0 6.28318530717959
4 G1 2 0 7 0
0

0101000
+71 0 -71 0 *
Wi

0101100
-70 0 +83 0 -69 0 +70 0 *
Fa
0  0 2 0

0101000
+68 0 *
Ve
0.0001
1.88737914186277e-015 0 50.98
0 0

0101101
*
Ed
 1.00005e-007 1 1 0
1  8 0 -1.15470053837925 2.3094010767585
2  15 3 0 -1.15470053837925 2.3094010767585
2  16 4 0 -1.15470053837925 2.3094010767585
0

0101000
+66 0 -81 0 *
Ve
0.0001
1.88737914186277e-015 100 50.98
0 0

0101101
*
Ed
 1.00005e-007 1 1 0
1  9 0 -0 100
2  17 3 0 -0 100
2  18 8 0 -0 100
0

0101000
+66 0 -64 0 *
Ed
 1.00005e-007 1 1 0
1  10 0 -30.0222139978605 -26.5581123827228
2  19 3 0 -30.0222139978605 -26.5581123827228
2  20 5 0 -30.0222139978605 -26.5581123827228
0

0101000
+64 0 -80 0 *
Wi

0101100
-65 0 +63 0 -79 0 +62 0 *
Fa
0  0 3 0

0101000
+61 0 *
Ve
0.0001
70 1.88737914186277e-015 50.98
0 0

0101101
*
Ed
 1.00005e-007 1 1 0
1  11 0 0 70
2  21 4 0 0 70
2  22 9 0 0 70
0

0101000
+66 0 -59 0 *
Ed
 1.00005e-007 1 1 0
1  12 0 -21.3619599600162 -17.8978583448784
2  23 4 0 -21.3619599600162 -17.8978583448784
2  24 6 0 -21.3619599600162 -17.8978583448784
0

0101000
+59 0 -78 0 *
Wi

0101100
-65 0 +58 0 -77 0 +57 0 *
Fa
0  0 4 0

0101000
+56 0 *
Ve
0.0001
70 100 50.98
0 0

0101101
*
Ed
 1.00005e-007 1 1 0
1  13 0 0 70
2  25 5 0 0 70
2  26 10 0 0 70
0

0101000
+64 0 -54 0 *
Ed
 1.00005e-007 1 1 0
1  14 0 46.7653718043597 50.2294734194974
2  27 5 0 46.7653718043597 50.2294734194974
2  28 6 0 46.7653718043597 50.2294734194974
0

0101000
+76 0 -54 0 *
Wi

0101100
+62 0 -53 0 +75 0 +52 0 *
Fa
0  0 5 0

0101000
+51 0 *
Ed
 1.00005e-007 1 1 0
1  15 0 -0 100
2  29 6 0 -0 100
2  30 11 0 -0 100
0

0101000
+59 0 -54 0 *
Wi

0101100
+57 0 -49 0 +74 0 +52 0 *
Fa
0  0 6 0

0101000
+48 0 *
Ve
1.00005e-007
57.3606797749979 50 57.48
0 0

0101101
*
Ed
 1.00005e-007 1 1 0
1  16 0 0.5 4.5
3  31 32CN 7 0 0.5 4.5
0

0101000
+71 0 -46 0 *
Ed
 1e-007 1 1 0
1  17 0 0 6.28318530717959
2  33 12 0 0 6.28318530717959
2  34 7 0 0 6.28318530717959
4 G1 12 0 7 0
0

0101000
+46 0 -46 0 *
Wi

0101100
-45 0 -69 0 +44 0 +45 0 *
Fa
0  1.00005e-007 7 0

0101000
+43 0 *
Ve
1e-007
0 0 0
0 0

0101101
*
Ed
 1e-007 1 1 0
1  18 0 0 50.98
2  35 8 0 0 50.98
2  36 9 0 0 50.98
0

0101000
-66 0 +41 0 *
Ve
1e-007
0 100 0
0 0

0101101
*
Ed
 1e-007 1 1 0
1  19 0 0 100
2  37 8 0 0 100
2  38 13 0 0 100
0

0101000
-39 0 +41 0 *
Ed
 1e-007 1 1 0
1  20 0 0 50.98
2  39 8 0 0 50.98
2  40 10 0 0 50.98
0

0101000
-64 0 +39 0 *
Wi

0101100
-40 0 -63 0 +38 0 +37 0 *
Fa
0  1e-007 8 0

0101000
+36 0 *
Ve
1e-007
70 0 0
0 0

0101101
*
Ed
 1e-007 1 1 0
1  21 0 0 50.98
2  41 11 0 0 50.98
2  42 9 0 0 50.98
0

0101000
-59 0 +34 0 *
Ed
 1e-007 1 1 0
1  22 0 0 70
2  43 9 0 0 70
2  44 13 0 0 70
0

0101000
-34 0 +41 0 *
Wi

0101100
-33 0 +58 0 -32 0 +40 0 *
Fa
0  1e-007 9 0

0101000
+31 0 *
Ve
1e-007
70 100 0
0 0

0101101
*
Ed
 1e-007 1 1 0
1  23 0 0 50.98
2  45 11 0 0 50.98
2  46 10 0 0 50.98
0

0101000
-54 0 +29 0 *
Ed
 1e-007 1 1 0
1  24 0 0 70
2  47 10 0 0 70
2  48 13 0 0 70
0

0101000
-29 0 +39 0 *
Wi

0101100
-28 0 +53 0 -27 0 +37 0 *
Fa
0  1e-007 10 0

0101000
+26 0 *
Ed
 1e-007 1 1 0
1  25 0 0 100
2  49 11 0 0 100
2  50 13 0 0 100
0

0101000
-29 0 +34 0 *
Wi

0101100
-33 0 -49 0 +24 0 +28 0 *
Fa
0  1e-007 11 0

0101000
+23 0 *
Ve
1e-007
56.8606797749979 50 57.98
0 0

0101101
*
Ed
 1e-007 1 1 0
1  26 0 0 1.5707963267949
3  51 52CN 12 0 0 1.5707963267949
0

0101000
+46 0 -21 0 *
Ed
 1e-007 1 1 0
1  27 0 0 6.28318530717959
2  53 12 0 0 6.28318530717959
2  54 14 3 0 6.28318530717959
4 G1 12 0 14 3
0

0101000
+21 0 -21 0 *
Wi

0101100
-20 0 +44 0 -19 0 +20 0 *
Fa
0  0 12 0

0101000
+18 0 *
Wi

0101100
-38 0 -27 0 +32 0 +24 0 *
Ve
5.000001e-006
25 60 0
0 0

0101101
*
Ed
 5e-006 1 1 0
1  28 0 0 1
2  55 13 0 0 1
2  56 15 0 0 1
0

0101000
+15 0 -15 0 *
Wi

0101100
+14 0 *
Fa
0  1e-007 13 0

0101000
+16 0 +13 0 *
Wi

0101100
+19 0 *
Ve
5.000001e-006
25 60 57.98
0 0

0101101
*
Ed
 5e-006 1 1 0
1  29 0 0 1
2  57 14 3 0 1
2  58 15 0 0 1
0

0101000
+10 0 -10 0 *
Wi

0101100
+9 0 *
Fa
0  1e-007 14 3

0101000
+11 0 +8 0 *
Ed
 1.00005e-007 1 1 0
1  30 0 300.00000060003 357.98000060003
3  59 60CN 15 0 300.00000060003 357.98000060003
0

0101000
+10 0 -15 0 *
Wi

0101100
+9 0 -6 0 -14 0 +6 0 *
Fa
0  1.00005e-007 15 0

0101000
+5 0 *
Sh

0101100
+72 0 +67 0 -60 0 +55 0 +50 0 -47 0 -42 0 -35 0 -30 0 +25 0 
+22 0 +17 0 -12 0 +7 0 -4 0 *
So

0100000
+3 0 *
Co

1100000
+2 0 *

+1 0  