                                                                        S0000001
,,31HOpen CASCADE IGES processor 7.9,13HFilename.iges,                  G0000001
16HOpen CASCADE 7.9,31HOpen CASCADE IGES processor 7.9,32,308,15,308,15,G0000002
,1.,2,2HMM,1,0.01,15H20260315.131130,1E-07,4.291,5Hadamm,,11,0,         G0000003
15H20260315.131130,;                                                    G0000004
     186       1       0       0       0       0       0       000000000D0000001
     186       0       0       1       0                               0D0000002
     514       2       0       0       0       0       0       000010000D0000003
     514       0       0       1       1                               0D0000004
     510       3       0       0       0       0       0       000010000D0000005
     510       0       0       1       1                               0D0000006
     190       4       0       0       0       0       0       000010000D0000007
     190       0       0       1       1                               0D0000008
     116       5       0       0       0       0       0       000010400D0000009
     116       0       0       1       0                               0D0000010
     123       6       0       0       0       0       0       000010200D0000011
     123       0       0       1       0                               0D0000012
     123       7       0       0       0       0       0       000010200D0000013
     123       0       0       1       0                               0D0000014
     508       8       0       0       0       0       0       000010000D0000015
     508       0       0       1       1                               0D0000016
     504       9       0       0       0       0       0       000010001D0000017
     504       0       0       3       1                               0D0000018
     110      12       0       0       0       0       0       000010000D0000019
     110       0       0       1       0                               0D0000020
     502      13       0       0       0       0       0       000010000D0000021
     502       0       0       3       1                               0D0000022
     110      16       0       0       0       0       0       000010000D0000023
     110       0       0       1       0                               0D0000024
     110      17       0       0       0       0       0       000010000D0000025
     110       0       0       1       0                               0D0000026
     110      18       0       0       0       0       0       000010000D0000027
     110       0       0       1       0                               0D0000028
     110      19       0       0       0       0       0       000010000D0000029
     110       0       0       1       0                               0D0000030
     110      20       0       0       0       0       0       000010000D0000031
     110       0       0       1       0                               0D0000032
     110      21       0       0       0       0       0       000010000D0000033
     110       0       0       1       0                               0D0000034
     110      22       0       0       0       0       0       000010000D0000035
     110       0       0       1       0                               0D0000036
     110      23       0       0       0       0       0       000010000D0000037
     110       0       0       1       0                               0D0000038
     110      24       0       0       0       0       0       000010000D0000039
     110       0       0       1       0                               0D0000040
     110      25       0       0       0       0       0       000010000D0000041
     110       0       0       1       0                               0D0000042
     110      26       0       0       0       0       0       000010000D0000043
     110       0       0       1       0                               0D0000044
     510      27       0       0       0       0       0       000010000D0000045
     510       0       0       1       1                               0D0000046
     190      28       0       0       0       0       0       000010000D0000047
     190       0       0       1       1                               0D0000048
     116      29       0       0       0       0       0       000010400D0000049
     116       0       0       1       0                               0D0000050
     123      30       0       0       0       0       0       000010200D0000051
     123       0       0       1       0                               0D0000052
     123      31       0       0       0       0       0       000010200D0000053
     123       0       0       1       0                               0D0000054
     508      32       0       0       0       0       0       000010000D0000055
     508       0       0       1       1                               0D0000056
     510      33       0       0       0       0       0       000010000D0000057
     510       0       0       1       1                               0D0000058
     190      34       0       0       0       0       0       000010000D0000059
     190       0       0       1       1                               0D0000060
     116      35       0       0       0       0       0       000010400D0000061
     116       0       0       1       0                               0D0000062
     123      36       0       0       0       0       0       000010200D0000063
     123       0       0       1       0                               0D0000064
     123      37       0       0       0       0       0       000010200D0000065
     123       0       0       1       0                               0D0000066
     508      38       0       0       0       0       0       000010000D0000067
     508       0       0       1       1                               0D0000068
     510      39       0       0       0       0       0       000010000D0000069
     510       0       0       1       1                               0D0000070
     190      40       0       0       0       0       0       000010000D0000071
     190       0       0       1       1                               0D0000072
     116      41       0       0       0       0       0       000010400D0000073
     116       0       0       1       0                               0D0000074
     123      42       0       0       0       0       0       000010200D0000075
     123       0       0       1       0                               0D0000076
     123      43       0       0       0       0       0       000010200D0000077
     123       0       0       1       0                               0D0000078
     508      44       0       0       0       0       0       000010000D0000079
     508       0       0       1       1                               0D0000080
     510      45       0       0       0       0       0       000010000D0000081
     510       0       0       1       1                               0D0000082
     190      46       0       0       0       0       0       000010000D0000083
     190       0       0       1       1                               0D0000084
     116      47       0       0       0       0       0       000010400D0000085
     116       0       0       1       0                               0D0000086
     123      48       0       0       0       0       0       000010200D0000087
     123       0       0       1       0                               0D0000088
     123      49       0       0       0       0       0       000010200D0000089
     123       0       0       1       0                               0D0000090
     508      50       0       0       0       0       0       000010000D0000091
     508       0       0       1       1                               0D0000092
     510      51       0       0       0       0       0       000010000D0000093
     510       0       0       1       1                               0D0000094
     190      52       0       0       0       0       0       000010000D0000095
     190       0       0       1       1                               0D0000096
     116      53       0       0       0       0       0       000010400D0000097
     116       0       0       1       0                               0D0000098
     123      54       0       0       0       0       0       000010200D0000099
     123       0       0       1       0                               0D0000100
     123      55       0       0       0       0       0       000010200D0000101
     123       0       0       1       0                               0D0000102
     508      56       0       0       0       0       0       000010000D0000103
     508       0       0       1       1                               0D0000104
186,3,1,0;                                                       0000001P0000001
514,6,5,0,45,1,57,0,69,1,81,0,93,1;                              0000003P0000002
510,7,1,1,15;                                                    0000005P0000003
190,9,11,13;                                                     0000007P0000004
116,-1.433,-4.255,0.,0;                                          0000009P0000005
123,1.,0.,0.;                                                    0000011P0000006
123,0.,0.,1.;                                                    0000013P0000007
508,4,0,17,1,0,0,0,17,2,1,0,0,17,3,1,0,0,17,4,0,0;               0000015P0000008
504,12,19,21,1,21,2,23,21,1,21,3,25,21,3,21,4,27,21,2,21,4,29,   0000017P0000009
21,5,21,6,31,21,5,21,7,33,21,7,21,8,35,21,6,21,8,37,21,1,21,5,   0000017P0000010
39,21,2,21,6,41,21,3,21,7,43,21,4,21,8;                          0000017P0000011
110,-1.433,-4.255,0.,-1.433,-4.255,4.291;                        0000019P0000012
502,8,-1.433,-4.255,0.,-1.433,-4.255,4.291,-1.433,2.152,0.,      0000021P0000013
-1.433,2.152,4.291,0.742,-4.255,0.,0.742,-4.255,4.291,0.742,     0000021P0000014
2.152,0.,0.742,2.152,4.291;                                      0000021P0000015
110,-1.433,-4.255,0.,-1.433,2.152,0.;                            0000023P0000016
110,-1.433,2.152,0.,-1.433,2.152,4.291;                          0000025P0000017
110,-1.433,-4.255,4.291,-1.433,2.152,4.291;                      0000027P0000018
110,0.742,-4.255,0.,0.742,-4.255,4.291;                          0000029P0000019
110,0.742,-4.255,0.,0.742,2.152,0.;                              0000031P0000020
110,0.742,2.152,0.,0.742,2.152,4.291;                            0000033P0000021
110,0.742,-4.255,4.291,0.742,2.152,4.291;                        0000035P0000022
110,-1.433,-4.255,0.,0.742,-4.255,0.;                            0000037P0000023
110,-1.433,-4.255,4.291,0.742,-4.255,4.291;                      0000039P0000024
110,-1.433,2.152,0.,0.742,2.152,0.;                              0000041P0000025
110,-1.433,2.152,4.291,0.742,2.152,4.291;                        0000043P0000026
510,47,1,1,55;                                                   0000045P0000027
190,49,51,53;                                                    0000047P0000028
116,0.742,-4.255,0.,0;                                           0000049P0000029
123,1.,0.,0.;                                                    0000051P0000030
123,0.,0.,1.;                                                    0000053P0000031
508,4,0,17,5,0,0,0,17,6,1,0,0,17,7,1,0,0,17,8,0,0;               0000055P0000032
510,59,1,1,67;                                                   0000057P0000033
190,61,63,65;                                                    0000059P0000034
116,-1.433,-4.255,0.,0;                                          0000061P0000035
123,0.,1.,0.;                                                    0000063P0000036
123,0.,0.,1.;                                                    0000065P0000037
508,4,0,17,9,0,0,0,17,1,1,0,0,17,10,1,0,0,17,5,0,0;              0000067P0000038
510,71,1,1,79;                                                   0000069P0000039
190,73,75,77;                                                    0000071P0000040
116,-1.433,2.152,0.,0;                                           0000073P0000041
123,0.,1.,0.;                                                    0000075P0000042
123,0.,0.,1.;                                                    0000077P0000043
508,4,0,17,11,0,0,0,17,3,1,0,0,17,12,1,0,0,17,7,0,0;             0000079P0000044
510,83,1,1,91;                                                   0000081P0000045
190,85,87,89;                                                    0000083P0000046
116,-1.433,-4.255,0.,0;                                          0000085P0000047
123,0.,0.,1.;                                                    0000087P0000048
123,1.,0.,0.;                                                    0000089P0000049
508,4,0,17,2,0,0,0,17,9,1,0,0,17,6,1,0,0,17,11,0,0;              0000091P0000050
510,95,1,1,103;                                                  0000093P0000051
190,97,99,101;                                                   0000095P0000052
116,-1.433,-4.255,4.291,0;                                       0000097P0000053
123,0.,0.,1.;                                                    0000099P0000054
123,1.,0.,0.;                                                    0000101P0000055
508,4,0,17,4,0,0,0,17,10,1,0,0,17,8,1,0,0,17,12,0,0;             0000103P0000056
S      1G      4D    104P     56                                        T0000001
