
CASCADE Topology V1, (c) Matra-Datavision
Locations 2
1
              1               0               0               0 
              0               1               0               0 
              0               0               1               0 
1
              1               0               0 0.939692620785908 
              0               1               0               0 
              0               0               1 0.342020143325669 
Curve2ds 0
Curves 56
1 -22.908289319523668 8.7184700988559811 7.7930721373592249 0.93969262078590843 0 0.34202014332566882 
1 -27.054730167835849 6.8343797899443981 19.185324739201207 0.93969262078590843 0 0.34202014332566882 
1 -24.141684202542066 8.1580310545845602 11.181796727723146 -0.33796322326937805 -0.15356621667219689 0.9285463245387171 
1 -27.054730167835849 63.500274921592442 19.185324739201207 0.93969262078590843 0 0.34202014332566882 
1 -27.054730167835849 31.800385609782616 19.185324739201203 1.7315044586919213e-17 -1 -4.7572694019410511e-17 
1 -22.908289319523597 63.500274921592442 7.7930721373590233 0.93969262078590843 0 0.34202014332566882 
1 -23.936637910562748 63.50027492159245 10.618436670567061 -0.34202014332566877 5.8205058836069806e-17 0.93969262078590832 
1 -22.908289319523639 31.800385609782605 7.7930721373591396 -1.3334908433898159e-15 -1 3.6637359812630189e-15 
1 -24.660589164556168 14.600771219565223 12.607476393699843 0.93969262078590843 0 0.34202014332566882 
1 -24.660589164556168 10.100771219565221 12.607476393699843 0.93969262078590843 0 0.34202014332566882 
1 -24.660589164556168 7.3003856097826096 12.607476393699841 1.7315044586919213e-17 -1 -4.7572694019410511e-17 
1 -26.370689881184511 14.600771219565221 17.305939497629385 0.93969262078590843 0 0.34202014332566882 
1 -25.685344940592255 14.600771219565221 15.422969748814692 0.34202014332566882 5.0625803552257383e-17 -0.93969262078590843 
1 -26.370689881184514 10.100771219565221 17.305939497629389 0.93969262078590843 0 0.34202014332566882 
1 -26.370689881184514 5.0503856097826088 17.305939497629389 -1.7315044586919213e-17 1 4.7572694019410511e-17 
1 -24.830294582278086 10.100771219565221 13.073738196849922 -0.34202014332566882 -5.0625803552257383e-17 0.93969262078590843 
1 -24.660589164556168 21.100771219565225 12.607476393699844 0.93969262078590843 0 0.34202014332566882 
1 -24.660589164556168 16.600771219565221 12.607476393699843 0.93969262078590843 0 0.34202014332566882 
1 -24.660589164556168 10.550385609782611 12.607476393699843 1.7315044586919213e-17 -1 -4.7572694019410511e-17 
1 -26.370689881184511 21.100771219565225 17.305939497629385 0.93969262078590843 0 0.34202014332566882 
1 -25.685344940592259 21.100771219565225 15.422969748814694 0.34202014332566882 5.0625803552257383e-17 -0.93969262078590843 
1 -26.370689881184514 16.600771219565221 17.305939497629385 0.93969262078590843 0 0.34202014332566882 
1 -26.370689881184514 8.3003856097826088 17.305939497629385 -1.7315044586919213e-17 1 4.7572694019410511e-17 
1 -24.830294582278086 16.600771219565221 13.07373819684992 -0.34202014332566882 -5.0625803552257383e-17 0.93969262078590843 
1 -24.660589164556168 27.100771219565225 12.607476393699844 0.93969262078590843 0 0.34202014332566882 
1 -24.660589164556168 23.100771219565225 12.607476393699844 0.93969262078590843 0 0.34202014332566882 
1 -24.660589164556168 13.550385609782611 12.607476393699843 1.7315044586919213e-17 -1 -4.7572694019410511e-17 
1 -26.370689881184511 27.100771219565225 17.305939497629385 0.93969262078590843 0 0.34202014332566882 
1 -25.685344940592259 27.100771219565225 15.422969748814694 0.34202014332566882 5.0625803552257383e-17 -0.93969262078590843 
1 -26.370689881184511 23.100771219565225 17.305939497629385 0.93969262078590843 0 0.34202014332566882 
1 -26.370689881184511 11.550385609782611 17.305939497629385 -1.7315044586919213e-17 1 4.7572694019410511e-17 
1 -24.830294582278086 23.100771219565225 13.073738196849924 -0.34202014332566882 -5.0625803552257383e-17 0.93969262078590843 
1 -23.292508591253494 29.100771219565225 8.8487059105562107 0.93969262078590843 0 0.34202014332566882 
1 -26.370689881184511 29.100771219565225 17.305939497629389 0.93969262078590843 0 0.34202014332566882 
1 -24.146254295626747 29.100771219565225 11.194352955278106 -0.34202014332566882 -5.0625803552257383e-17 0.93969262078590843 
1 -23.292508591253494 38.600771219565225 8.8487059105562107 0.93969262078590843 0 0.34202014332566882 
1 -23.292508591253494 19.300385609782612 8.8487059105562089 1.7315044586919213e-17 -1 -4.7572694019410511e-17 
1 -26.370689881184514 38.600771219565225 17.305939497629385 0.93969262078590843 0 0.34202014332566882 
1 -25.685344940592259 38.600771219565225 15.422969748814694 0.34202014332566882 5.0625803552257383e-17 -0.93969262078590843 
1 -26.370689881184511 14.550385609782611 17.305939497629385 -1.7315044586919213e-17 1 4.7572694019410511e-17 
1 -23.292508591253494 40.600771219565225 8.8487059105562107 0.93969262078590843 0 0.34202014332566882 
1 -26.370689881184514 40.600771219565225 17.305939497629385 0.93969262078590843 0 0.34202014332566882 
1 -24.146254295626747 40.600771219565225 11.194352955278106 -0.34202014332566882 -5.0625803552257383e-17 0.93969262078590843 
1 -23.292508591253494 50.100771219565225 8.8487059105562107 0.93969262078590843 0 0.34202014332566882 
1 -23.292508591253494 25.050385609782612 8.8487059105562089 1.7315044586919213e-17 -1 -4.7572694019410511e-17 
1 -26.370689881184514 50.100771219565225 17.305939497629385 0.93969262078590843 0 0.34202014332566882 
1 -25.685344940592259 50.100771219565225 15.422969748814694 0.34202014332566882 5.0625803552257383e-17 -0.93969262078590843 
1 -26.370689881184511 20.300385609782612 17.305939497629389 -1.7315044586919213e-17 1 4.7572694019410511e-17 
1 -23.292508591253494 52.100771219565225 8.8487059105562107 0.93969262078590843 0 0.34202014332566882 
1 -26.370689881184514 52.100771219565225 17.305939497629385 0.93969262078590843 0 0.34202014332566882 
1 -24.146254295626747 52.100771219565225 11.194352955278106 -0.34202014332566882 -5.0625803552257383e-17 0.93969262078590843 
1 -23.292508591253494 61.600771219565232 8.8487059105562107 0.93969262078590843 0 0.34202014332566882 
1 -23.292508591253494 30.800385609782616 8.8487059105562089 1.7315044586919213e-17 -1 -4.7572694019410511e-17 
1 -26.370689881184514 61.600771219565232 17.305939497629392 0.93969262078590843 0 0.34202014332566882 
1 -25.685344940592259 61.600771219565232 15.422969748814698 0.34202014332566882 5.0625803552257383e-17 -0.93969262078590843 
1 -26.370689881184511 26.050385609782612 17.305939497629389 -1.7315044586919213e-17 1 4.7572694019410511e-17 
Polygon3D 0
PolygonOnTriangulations 0
Surfaces 29
1 -22.908289319523668 8.71847009885599 7.7930721373592249 0.052522739436205494 -0.9881383592883074 -0.14430504060887336 -0.33796322326937805 -0.15356621667219689 0.9285463245387171 -0.93969262078590832 -6.9388939039072268e-18 -0.34202014332566877 
1 -27.054730167835849 63.500274921592442 19.185324739201203 0.34202014332566882 5.0625803552254431e-17 -0.93969262078590843 1.7315044586919213e-17 -1 -4.7572694019410517e-17 -0.93969262078590843 0 -0.34202014332566882 
1 -22.9082893195236 63.50027492159245 7.7930721373590224 -1.9907302565391585e-17 -1 5.4694864280664445e-17 -0.34202014332566882 5.8205058836069831e-17 0.93969262078590843 -0.93969262078590843 -3.0814879110195774e-33 -0.34202014332566882 
1 -22.908289319523597 63.500274921592442 7.7930721373590233 0.34202014332566882 -3.8988663954803303e-15 -0.93969262078590843 -1.3334908433898161e-15 -1 3.6637359812630197e-15 -0.93969262078590843 -1.9721522630525295e-31 -0.34202014332566882 
1 -24.660589164556168 14.600771219565221 12.607476393699841 0.34202014332566882 5.0625803552254431e-17 -0.93969262078590843 1.7315044586919213e-17 -1 -4.7572694019410517e-17 -0.93969262078590843 0 -0.34202014332566882 
1 -26.370689881184511 14.600771219565221 17.305939497629385 -1.7315044586920224e-17 1 4.757269401941329e-17 0.34202014332566882 5.0625803552257389e-17 -0.93969262078590843 -0.93969262078590843 0 -0.34202014332566882 
1 -26.370689881184514 10.100771219565221 17.305939497629389 -0.34202014332566882 -5.0625803552254431e-17 0.93969262078590843 -1.7315044586919213e-17 1 4.7572694019410517e-17 -0.93969262078590843 0 -0.34202014332566882 
1 -24.660589164556168 10.100771219565221 12.607476393699843 1.7315044586920224e-17 -1 -4.757269401941329e-17 -0.34202014332566882 -5.0625803552257389e-17 0.93969262078590843 -0.93969262078590843 0 -0.34202014332566882 
1 -24.660589164556168 21.100771219565225 12.607476393699843 0.34202014332566882 5.0625803552254431e-17 -0.93969262078590843 1.7315044586919213e-17 -1 -4.7572694019410517e-17 -0.93969262078590843 0 -0.34202014332566882 
1 -26.370689881184514 21.100771219565225 17.305939497629385 -1.7315044586920224e-17 1 4.757269401941329e-17 0.34202014332566882 5.0625803552257389e-17 -0.93969262078590843 -0.93969262078590843 0 -0.34202014332566882 
1 -26.370689881184514 16.600771219565221 17.305939497629385 -0.34202014332566882 -5.0625803552254431e-17 0.93969262078590843 -1.7315044586919213e-17 1 4.7572694019410517e-17 -0.93969262078590843 0 -0.34202014332566882 
1 -24.660589164556171 16.600771219565221 12.607476393699843 1.7315044586920224e-17 -1 -4.757269401941329e-17 -0.34202014332566882 -5.0625803552257389e-17 0.93969262078590843 -0.93969262078590843 0 -0.34202014332566882 
1 -24.660589164556168 27.100771219565225 12.607476393699843 0.34202014332566882 5.0625803552254431e-17 -0.93969262078590843 1.7315044586919213e-17 -1 -4.7572694019410517e-17 -0.93969262078590843 0 -0.34202014332566882 
1 -26.370689881184514 27.100771219565225 17.305939497629385 -1.7315044586920224e-17 1 4.757269401941329e-17 0.34202014332566882 5.0625803552257389e-17 -0.93969262078590843 -0.93969262078590843 0 -0.34202014332566882 
1 -26.370689881184511 23.100771219565225 17.305939497629385 -0.34202014332566882 -5.0625803552254431e-17 0.93969262078590843 -1.7315044586919213e-17 1 4.7572694019410517e-17 -0.93969262078590843 0 -0.34202014332566882 
1 -24.660589164556168 23.100771219565225 12.607476393699844 1.7315044586920224e-17 -1 -4.757269401941329e-17 -0.34202014332566882 -5.0625803552257389e-17 0.93969262078590843 -0.93969262078590843 0 -0.34202014332566882 
1 -23.292508591253494 29.100771219565225 8.8487059105562089 1.7315044586920224e-17 -1 -4.757269401941329e-17 -0.34202014332566882 -5.0625803552257389e-17 0.93969262078590843 -0.93969262078590843 0 -0.34202014332566882 
1 -23.292508591253494 38.600771219565232 8.8487059105562107 0.34202014332566882 5.0625803552254431e-17 -0.93969262078590843 1.7315044586919213e-17 -1 -4.7572694019410517e-17 -0.93969262078590843 0 -0.34202014332566882 
1 -26.370689881184514 38.600771219565225 17.305939497629385 -1.7315044586920224e-17 1 4.757269401941329e-17 0.34202014332566882 5.0625803552257389e-17 -0.93969262078590843 -0.93969262078590843 0 -0.34202014332566882 
1 -26.370689881184511 29.100771219565225 17.305939497629385 -0.34202014332566882 -5.0625803552254431e-17 0.93969262078590843 -1.7315044586919213e-17 1 4.7572694019410517e-17 -0.93969262078590843 0 -0.34202014332566882 
1 -23.292508591253494 40.600771219565225 8.8487059105562089 1.7315044586920224e-17 -1 -4.757269401941329e-17 -0.34202014332566882 -5.0625803552257389e-17 0.93969262078590843 -0.93969262078590843 0 -0.34202014332566882 
1 -23.292508591253494 50.100771219565232 8.8487059105562107 0.34202014332566882 5.0625803552254431e-17 -0.93969262078590843 1.7315044586919213e-17 -1 -4.7572694019410517e-17 -0.93969262078590843 0 -0.34202014332566882 
1 -26.370689881184514 50.100771219565225 17.305939497629385 -1.7315044586920224e-17 1 4.757269401941329e-17 0.34202014332566882 5.0625803552257389e-17 -0.93969262078590843 -0.93969262078590843 0 -0.34202014332566882 
1 -26.370689881184511 40.600771219565232 17.305939497629389 -0.34202014332566882 -5.0625803552254431e-17 0.93969262078590843 -1.7315044586919213e-17 1 4.7572694019410517e-17 -0.93969262078590843 0 -0.34202014332566882 
1 -23.292508591253494 52.100771219565225 8.8487059105562107 1.7315044586920224e-17 -1 -4.757269401941329e-17 -0.34202014332566882 -5.0625803552257389e-17 0.93969262078590843 -0.93969262078590843 0 -0.34202014332566882 
1 -23.292508591253494 61.600771219565232 8.8487059105562107 0.34202014332566882 5.0625803552254431e-17 -0.93969262078590843 1.7315044586919213e-17 -1 -4.7572694019410517e-17 -0.93969262078590843 0 -0.34202014332566882 
1 -26.370689881184514 61.600771219565232 17.305939497629389 -1.7315044586920224e-17 1 4.757269401941329e-17 0.34202014332566882 5.0625803552257389e-17 -0.93969262078590843 -0.93969262078590843 0 -0.34202014332566882 
1 -26.370689881184511 52.100771219565232 17.305939497629389 -0.34202014332566882 -5.0625803552254431e-17 0.93969262078590843 -1.7315044586919213e-17 1 4.7572694019410517e-17 -0.93969262078590843 0 -0.34202014332566882 
1 -25 0 13.539999999999999 0.93969262078590843 0 0.34202014332566882 0.34202014332566877 0 -0.93969262078590843 0 1 0 
Triangulations 0

TShapes 150
Ve
1.50000008881784e-07
-22.9082893195237 8.71847009885598 7.79307213735922
0 0

0101101
*
Ed
 1.50000008881784e-07 1 1 0
1  1 0 0 1
0

0101000
+150 0 -150 2 *
Ve
1.50000010658141e-07
-27.0547301678358 6.8343797899444 19.1853247392012
0 0

0101101
*
Ed
 1.50000010658141e-07 1 1 0
1  2 0 0 1
0

0101000
+148 0 -148 2 *
Ed
 1.5e-07 1 1 0
1  3 0 -3.64949437718939 8.61941703926732
0

0101000
+150 0 -148 0 *
Wi

0101100
+149 0 -147 0 -146 0 +146 2 *
Fa
0  1.5e-07 1 0

0101000
+145 0 *
Ve
1.50000010048592e-07
-27.0547301678358 63.5002749215924 19.1853247392012
0 0

0101101
*
Ed
 1.50000010048592e-07 1 1 0
1  4 0 0 1
0

0101000
+143 0 -143 2 *
Ed
 1.5e-07 1 1 0
1  5 0 -31.6998893118098 24.9660058198382
0

0101000
+143 0 -148 0 *
Wi

0101100
+142 0 -147 0 -141 0 +141 2 *
Fa
0  1.5e-07 2 0

0101000
+140 0 *
Ve
1.50000007993606e-07
-22.9082893195236 63.5002749215924 7.79307213735902
0 0

0101101
*
Ed
 1.50000007993606e-07 1 1 0
1  6 0 0 1
0

0101000
+138 0 -138 2 *
Ed
 1.5e-07 1 1 0
1  7 0 -3.00669013538177 9.11669186192955
0

0101000
+138 0 -143 0 *
Wi

0101100
+137 0 -142 0 -136 0 +136 2 *
Fa
0  1.5e-07 3 0

0101000
+135 0 *
Ed
 1.5e-07 1 1 0
1  8 0 -31.6998893118098 23.0819155109266
0

0101000
+138 0 -150 0 *
Wi

0101100
+137 0 -149 0 -133 0 +133 2 *
Fa
0  1.5e-07 4 0

0101000
+132 0 *
Ve
1.50000002512148e-07
-24.6605891645562 14.6007712195652 12.6074763936998
0 0

0101101
*
Ed
 1.50000002512148e-07 1 1 0
1  9 0 0 1
0

0101000
+130 0 -130 2 *
Ve
1.50000001776357e-07
-24.6605891645562 10.1007712195652 12.6074763936998
0 0

0101101
*
Ed
 1.50000001776357e-07 1 1 0
1  10 0 0 1
0

0101000
+128 0 -128 2 *
Ed
 1.5e-07 1 1 0
1  11 0 -7.30038560978261 -2.80038560978261
0

0101000
+130 0 -128 0 *
Wi

0101100
+129 0 -127 0 -126 0 +126 2 *
Fa
0  1.5e-07 5 0

0101000
+125 0 *
Ve
1.50000005024296e-07
-26.3706898811845 14.6007712195652 17.3059394976294
0 0

0101101
*
Ed
 1.50000005024296e-07 1 1 0
1  12 0 0 1
0

0101000
+123 0 -123 2 *
Ed
 1.5e-07 1 1 0
1  13 0 -2.00381455293315 2.99618544706685
0

0101000
+123 0 -130 0 *
Wi

0101100
+122 0 -129 0 -121 0 +121 2 *
Fa
0  1.5e-07 6 0

0101000
+120 0 *
Ve
1.50000003552714e-07
-26.3706898811845 10.1007712195652 17.3059394976294
0 0

0101101
*
Ed
 1.50000003552714e-07 1 1 0
1  14 0 0 1
0

0101000
+118 0 -118 2 *
Ed
 1.5e-07 1 1 0
1  15 0 5.05038560978261 9.55038560978261
0

0101000
+118 0 -123 0 *
Wi

0101100
+117 0 -122 0 -116 0 +116 2 *
Fa
0  1.5e-07 7 0

0101000
+115 0 *
Ed
 1.5e-07 1 1 0
1  16 0 -0.496185447066854 4.50381455293315
0

0101000
+128 0 -118 0 *
Wi

0101100
+127 0 -117 0 -113 0 +113 2 *
Fa
0  1.5e-07 8 0

0101000
+112 0 *
Ve
1.50000003972055e-07
-24.6605891645562 21.1007712195652 12.6074763936998
0 0

0101101
*
Ed
 1.50000003972055e-07 1 1 0
1  17 0 0 1
0

0101000
+110 0 -110 2 *
Ve
1.50000003552714e-07
-24.6605891645562 16.6007712195652 12.6074763936998
0 0

0101101
*
Ed
 1.50000003552714e-07 1 1 0
1  18 0 0 1
0

0101000
+108 0 -108 2 *
Ed
 1.5e-07 1 1 0
1  19 0 -10.5503856097826 -6.05038560978261
0

0101000
+110 0 -108 0 *
Wi

0101100
+109 0 -107 0 -106 0 +106 2 *
Fa
0  1.5e-07 9 0

0101000
+105 0 *
Ve
1.50000005024296e-07
-26.3706898811845 21.1007712195652 17.3059394976294
0 0

0101101
*
Ed
 1.50000005024296e-07 1 1 0
1  20 0 0 1
0

0101000
+103 0 -103 2 *
Ed
 1.5e-07 1 1 0
1  21 0 -2.00381455293315 2.99618544706685
0

0101000
+103 0 -110 0 *
Wi

0101100
+102 0 -109 0 -101 0 +101 2 *
Fa
0  1.5e-07 10 0

0101000
+100 0 *
Ve
1.50000003552714e-07
-26.3706898811845 16.6007712195652 17.3059394976294
0 0

0101101
*
Ed
 1.50000003552714e-07 1 1 0
1  22 0 0 1
0

0101000
+98 0 -98 2 *
Ed
 1.5e-07 1 1 0
1  23 0 8.30038560978261 12.8003856097826
0

0101000
+98 0 -103 0 *
Wi

0101100
+97 0 -102 0 -96 0 +96 2 *
Fa
0  1.5e-07 11 0

0101000
+95 0 *
Ed
 1.5e-07 1 1 0
1  24 0 -0.496185447066852 4.50381455293315
0

0101000
+108 0 -98 0 *
Wi

0101100
+107 0 -97 0 -93 0 +93 2 *
Fa
0  1.5e-07 12 0

0101000
+92 0 *
Ve
1.50000003552714e-07
-24.6605891645562 27.1007712195652 12.6074763936998
0 0

0101101
*
Ed
 1.50000003552714e-07 1 1 0
1  25 0 0 1
0

0101000
+90 0 -90 2 *
Ve
1.50000001776357e-07
-24.6605891645562 23.1007712195652 12.6074763936998
0 0

0101101
*
Ed
 1.50000001776357e-07 1 1 0
1  26 0 0 1
0

0101000
+88 0 -88 2 *
Ed
 1.5e-07 1 1 0
1  27 0 -13.5503856097826 -9.55038560978261
0

0101000
+90 0 -88 0 *
Wi

0101100
+89 0 -87 0 -86 0 +86 2 *
Fa
0  1.5e-07 13 0

0101000
+85 0 *
Ve
1.50000003552714e-07
-26.3706898811845 27.1007712195652 17.3059394976294
0 0

0101101
*
Ed
 1.50000003552714e-07 1 1 0
1  28 0 0 1
0

0101000
+83 0 -83 2 *
Ed
 1.5e-07 1 1 0
1  29 0 -2.00381455293315 2.99618544706685
0

0101000
+83 0 -90 0 *
Wi

0101100
+82 0 -89 0 -81 0 +81 2 *
Fa
0  1.5e-07 14 0

0101000
+80 0 *
Ve
1.50000003552714e-07
-26.3706898811845 23.1007712195652 17.3059394976294
0 0

0101101
*
Ed
 1.50000003552714e-07 1 1 0
1  30 0 0 1
0

0101000
+78 0 -78 2 *
Ed
 1.5e-07 1 1 0
1  31 0 11.5503856097826 15.5503856097826
0

0101000
+78 0 -83 0 *
Wi

0101100
+77 0 -82 0 -76 0 +76 2 *
Fa
0  1.5e-07 15 0

0101000
+75 0 *
Ed
 1.5e-07 1 1 0
1  32 0 -0.496185447066854 4.50381455293315
0

0101000
+88 0 -78 0 *
Wi

0101100
+87 0 -77 0 -73 0 +73 2 *
Fa
0  1.5e-07 16 0

0101000
+72 0 *
Ve
1.50000003972055e-07
-23.2925085912535 29.1007712195652 8.84870591055621
0 0

0101101
*
Ed
 1.50000003972055e-07 1 1 0
1  33 0 0 1
0

0101000
+70 0 -70 2 *
Ve
1.50000003552714e-07
-26.3706898811845 29.1007712195652 17.3059394976294
0 0

0101101
*
Ed
 1.50000003552714e-07 1 1 0
1  34 0 0 1
0

0101000
+68 0 -68 2 *
Ed
 1.5e-07 1 1 0
1  35 0 -2.49618544706685 6.50381455293315
0

0101000
+70 0 -68 0 *
Wi

0101100
+69 0 -67 0 -66 0 +66 2 *
Fa
0  1.5e-07 17 0

0101000
+65 0 *
Ve
1.50000007105427e-07
-23.2925085912535 38.6007712195652 8.84870591055621
0 0

0101101
*
Ed
 1.50000007105427e-07 1 1 0
1  36 0 0 1
0

0101000
+63 0 -63 2 *
Ed
 1.5e-07 1 1 0
1  37 0 -19.3003856097826 -9.80038560978262
0

0101000
+63 0 -70 0 *
Wi

0101100
+62 0 -69 0 -61 0 +61 2 *
Fa
0  1.5e-07 18 0

0101000
+60 0 *
Ve
1.50000003552714e-07
-26.3706898811845 38.6007712195652 17.3059394976294
0 0

0101101
*
Ed
 1.50000003552714e-07 1 1 0
1  38 0 0 1
0

0101000
+58 0 -58 2 *
Ed
 1.5e-07 1 1 0
1  39 0 -2.00381455293315 6.99618544706685
0

0101000
+58 0 -63 0 *
Wi

0101100
+57 0 -62 0 -56 0 +56 2 *
Fa
0  1.5e-07 19 0

0101000
+55 0 *
Ed
 1.5e-07 1 1 0
1  40 0 14.5503856097826 24.0503856097826
0

0101000
+68 0 -58 0 *
Wi

0101100
+67 0 -57 0 -53 0 +53 2 *
Fa
0  1.5e-07 20 0

0101000
+52 0 *
Ve
1.50000007324107e-07
-23.2925085912535 40.6007712195652 8.84870591055621
0 0

0101101
*
Ed
 1.50000007324107e-07 1 1 0
1  41 0 0 1
0

0101000
+50 0 -50 2 *
Ve
1.50000008702336e-07
-26.3706898811845 40.6007712195652 17.3059394976294
0 0

0101101
*
Ed
 1.50000008702336e-07 1 1 0
1  42 0 0 1
0

0101000
+48 0 -48 2 *
Ed
 1.5e-07 1 1 0
1  43 0 -2.49618544706685 6.50381455293315
0

0101000
+50 0 -48 0 *
Wi

0101100
+49 0 -47 0 -46 0 +46 2 *
Fa
0  1.5e-07 21 0

0101000
+45 0 *
Ve
1.50000007105427e-07
-23.2925085912535 50.1007712195652 8.84870591055621
0 0

0101101
*
Ed
 1.50000007105427e-07 1 1 0
1  44 0 0 1
0

0101000
+43 0 -43 2 *
Ed
 1.5e-07 1 1 0
1  45 0 -25.0503856097826 -15.5503856097826
0

0101000
+43 0 -50 0 *
Wi

0101100
+42 0 -49 0 -41 0 +41 2 *
Fa
0  1.5e-07 22 0

0101000
+40 0 *
Ve
1.50000008702336e-07
-26.3706898811845 50.1007712195652 17.3059394976294
0 0

0101101
*
Ed
 1.50000008702336e-07 1 1 0
1  46 0 0 1
0

0101000
+38 0 -38 2 *
Ed
 1.5e-07 1 1 0
1  47 0 -2.00381455293315 6.99618544706685
0

0101000
+38 0 -43 0 *
Wi

0101100
+37 0 -42 0 -36 0 +36 2 *
Fa
0  1.5e-07 23 0

0101000
+35 0 *
Ed
 1.5e-07 1 1 0
1  48 0 20.3003856097826 29.8003856097826
0

0101000
+48 0 -38 0 *
Wi

0101100
+47 0 -37 0 -33 0 +33 2 *
Fa
0  1.5e-07 24 0

0101000
+32 0 *
Ve
1.50000007105427e-07
-23.2925085912535 52.1007712195652 8.84870591055621
0 0

0101101
*
Ed
 1.50000007105427e-07 1 1 0
1  49 0 0 1
0

0101000
+30 0 -30 2 *
Ve
1.50000008702336e-07
-26.3706898811845 52.1007712195652 17.3059394976294
0 0

0101101
*
Ed
 1.50000008702336e-07 1 1 0
1  50 0 0 1
0

0101000
+28 0 -28 2 *
Ed
 1.5e-07 1 1 0
1  51 0 -2.49618544706685 6.50381455293315
0

0101000
+30 0 -28 0 *
Wi

0101100
+29 0 -27 0 -26 0 +26 2 *
Fa
0  1.5e-07 25 0

0101000
+25 0 *
Ve
1.50000003552714e-07
-23.2925085912535 61.6007712195652 8.84870591055621
0 0

0101101
*
Ed
 1.50000003552714e-07 1 1 0
1  52 0 0 1
0

0101000
+23 0 -23 2 *
Ed
 1.5e-07 1 1 0
1  53 0 -30.8003856097826 -21.3003856097826
0

0101000
+23 0 -30 0 *
Wi

0101100
+22 0 -29 0 -21 0 +21 2 *
Fa
0  1.5e-07 26 0

0101000
+20 0 *
Ve
1.50000005024296e-07
-26.3706898811845 61.6007712195652 17.3059394976294
0 0

0101101
*
Ed
 1.50000005024296e-07 1 1 0
1  54 0 0 1
0

0101000
+18 0 -18 2 *
Ed
 1.5e-07 1 1 0
1  55 0 -2.00381455293315 6.99618544706685
0

0101000
+18 0 -23 0 *
Wi

0101100
+17 0 -22 0 -16 0 +16 2 *
Fa
0  1.5e-07 27 0

0101000
+15 0 *
Ed
 1.5e-07 1 1 0
1  56 0 26.0503856097826 35.5503856097826
0

0101000
+28 0 -18 0 *
Wi

0101100
+27 0 -17 0 -13 0 +13 2 *
Fa
0  1.5e-07 28 0

0101000
+12 0 *
Wi

0101100
-146 0 +141 0 +136 0 -133 0 *
Wi

0101100
+126 0 +121 0 +116 0 +113 0 *
Wi

0101100
+106 0 +101 0 +96 0 +93 0 *
Wi

0101100
+86 0 +81 0 +76 0 +73 0 *
Wi

0101100
+66 0 +61 0 +56 0 +53 0 *
Wi

0101100
+46 0 +41 0 +36 0 +33 0 *
Wi

0101100
+26 0 +21 0 +16 0 +13 0 *
Fa
0  1e-07 29 0

0101000
+10 0 +9 0 +8 0 +7 0 +6 0 +5 0 +4 0 *
Sh

0101100
-144 0 +139 0 +134 0 -131 0 +124 0 +119 0 +114 0 +111 0 +104 0 +99 0 
+94 0 +91 0 +84 0 +79 0 +74 0 +71 0 +64 0 +59 0 +54 0 +51 0 
+44 0 +39 0 +34 0 +31 0 +24 0 +19 0 +14 0 +11 0 +3 0 -3 2 
*
So

1100000
-2 0 *

+1 1  